<?xml version="1.0" encoding="utf-8"?>
<!-- Generator: Adobe Illustrator 25.2.1, SVG Export Plug-In . SVG Version: 6.00 Build 0)  -->
<svg version="1.1" id="Capa_1" xmlns="http://www.w3.org/2000/svg" xmlns:xlink="http://www.w3.org/1999/xlink" x="0px" y="0px"
	 viewBox="0 0 83.3 101" style="enable-background:new 0 0 83.3 101;" xml:space="preserve">
<style type="text/css">
	.st0{fill:#050505;}
	.st1{fill:#050606;}
	.st2{enable-background:new    ;}
</style>
<g id="botas-hombre" transform="translate(-16.761 -7.225)">
	<g id="XMLID_987_" transform="translate(-1)">
		<g id="XMLID_312_">
			<path id="XMLID_572_" class="st0" d="M39.8,72.8c-0.2,0-0.4-0.1-0.5-0.3l-0.4-0.7l-0.3,0.7c-0.1,0.2-0.3,0.3-0.5,0.3h-3.2
				c-0.2,0-0.4-0.1-0.5-0.3L34.3,72L34,72.6c-0.1,0.2-0.3,0.3-0.5,0.3h-3.4c-0.2,0-0.5-0.2-0.5-0.4l-0.1,0.2
				C29.4,72.9,29.2,73,29,73h-2.9c-0.2,0-0.3-0.1-0.4-0.2L25,72h-1.1c-0.4,0-4.2,0.4-6-2.1c-0.1-0.1-0.1-0.2-0.1-0.3v-8.2
				c-0.1-0.4-0.1-1.4,1.2-3c-0.3-2.4-0.3-4.8,0-7.2c0.5-3.7,1.6-17.1,1.5-19.2c-0.1-1.6-0.5-2-0.6-2.1c-0.2-0.1-0.2-0.2-0.2-0.4
				c-0.3-1.9-1.1-8.2-0.8-9.1c0.5-1.8,1.9-2.7,4-2.8c2.2-0.2,4.5-0.5,6.7-1c1.7-0.3,3.3-0.6,5-0.7c2.2-0.3,4.3-0.8,6.3-1.7
				c0.6-1.8,1.7-3.4,3.3-4.4c2.4-1.5,4.4-2.5,4.4-2.5c0.2-0.1,0.3-0.1,0.5,0c0.2,0,0.3,0,0.3,0.2c0.2,0.7,0.4,1.4,0.7,2.1
				c0.8,2.6,1.4,5.2,1.8,7.9c0.5,0.8,0.9,1.6,1.1,2.5c0.1,0.5,0.1,1.1,0,1.6c-0.1,0.4-0.1,0.8,0,1.2c0,0.2,0.3,0.5,0.5,0.8
				s0.4,0.6,0.5,0.9c0,0.1,0.1,0.2,0.2,0.4c0.4,0.5,0.6,1.2,0.5,1.9c-0.1,0.2-0.1,0.4-0.3,0.5c0.7,0.4,1.1,1.1,1.2,1.9
				c0,0.5-0.2,0.9-0.5,1.3c0.9,0.8,2.6,2.4,2.7,3.6c0,0.2,0,0.3-0.1,0.4l-0.1,0.1c0.2,0,0.3,0.1,0.5,0.1c1.1,0.4,1.8,1.4,1.9,2.5
				l0.7,0.7c1.4,0,2.6,0.9,2.9,2.3v0.2c0.6-0.1,1.3,0,1.8,0.5c0.2,0.2,0.3,0.5,0.3,0.8c1.6,1.1,2.6,2.9,2.7,4.9
				c0.8,0.7,4.6,3.4,8.5,3.6c0.1,0,6.6,0.4,9.6,0.2c5.2-0.2,8.9,0.7,10.8,2.9c1.3,1.4,1.9,3.3,1.6,5.2l0.9,0.5
				c0.2,0.1,0.3,0.2,0.3,0.4l1,3.9v0.3l-0.6,1.5c0,0.1-0.1,0.2-0.2,0.2L99.4,66c-0.1,0-0.1,0.1-0.2,0.1L97.6,66l-0.3,0.7
				c-0.1,0.2-0.2,0.3-0.4,0.4l-3.1,1h-1.1l-0.2,0.6c-0.1,0.2-0.2,0.3-0.3,0.3l-2.8,0.9h-1l-2.5,1h-1.4l-2.9,0.7l-1.1,0.3h-0.1
				l-2.9,0.6c-0.3,0-0.5-0.1-0.6-0.4l-0.1-0.4l-0.4,0.6c-0.1,0.2-0.3,0.2-0.5,0.2h-2.8c-0.2,0-0.4-0.1-0.5-0.3l-0.3-0.5l0.1,0.3
				c-0.1,0.2-0.3,0.3-0.5,0.3h-2.5c-0.2,0-0.4-0.1-0.5-0.3l-0.1-0.4L68.7,72c-0.1,0.2-0.3,0.4-0.5,0.4L65,71.9
				c-0.2,0-0.3-0.1-0.4-0.2l-0.2-0.5L64,71.5c-0.1,0.1-0.3,0.1-0.4,0.1c-0.7-0.1-2.3-0.3-2.8-0.8c-0.4-0.4-0.5-1-0.3-1.5
				c-5.4-1.7-11-2.4-16.7-2.2c0,1.2-0.2,2.4-0.5,3.5c-0.4,0.6-0.9,1.5-0.9,1.5c-0.2,0.2-0.3,0.3-0.4,0.3
				C42,72.4,39.8,72.8,39.8,72.8z M35.4,71.8h2.5l0.7-1.4c0.1-0.3,0.5-0.4,0.8-0.2c0.1,0.1,0.2,0.1,0.2,0.2l0.7,1.3l1.7-0.4
				c0.2-0.3,0.5-0.9,0.8-1.3c0.3-1.1,0.4-2.3,0.4-3.5c0-0.3,0.2-0.5,0.4-0.5c0,0,0,0,0.1,0c9-0.7,17.9,2.4,18,2.4
				c0.1,0.1,0.3,0.2,0.3,0.3c0.1,0.1,0.1,0.3,0,0.4c-0.2,0.3-0.2,0.6-0.1,0.9c0.6,0.4,1.3,0.6,2,0.6l0.7-0.6l0,0
				c0.2,0,0.3,0.1,0.4,0.2l0.5,0.7l2.6,0.4l0.6-1c0.1-0.3,0.5-0.4,0.8-0.2c0.1,0.1,0.2,0.1,0.2,0.2l0.5,1H72l0.5-1
				c0.1-0.3,0.5-0.4,0.8-0.2c0.1,0.1,0.2,0.1,0.2,0.2l0.7,1.1h2.1l0.7-1.1c0.1-0.2,0.3-0.3,0.5-0.2l0,0c0.2,0,0.4,0.2,0.5,0.4
				l0.3,0.9l2.9-0.5l1.1-0.3l2.9-0.7h1.2l2.5-1h1l2.4-0.8l0.3-0.7c0.1-0.2,0.3-0.4,0.5-0.4h1.2l2.9-0.9l0.3-0.7
				c0.1-0.2,0.2-0.3,0.4-0.4l1.6-0.5l0.7-0.5l0.5-1.2l-0.9-3.5l-1-0.5c-0.2-0.1-0.3-0.3-0.3-0.5c0.3-1.7-0.2-3.4-1.3-4.7
				c-1.8-1.8-5.1-2.8-10-2.6c-3.1,0.1-9.4-0.2-9.7-0.2c-3.4-0.4-6.6-1.8-9.2-4c-0.1-0.1-0.2-0.3-0.2-0.5c0.2-2.7-2.5-4.4-2.5-4.4
				c-0.2-0.2-0.3-0.4-0.2-0.7l0.1-0.2c-0.5-0.1-0.9-0.1-1.4,0c-0.2,0-0.3,0-0.5-0.1c-0.1-0.1-0.2-0.2-0.2-0.4v-0.7
				c-0.3-0.9-1.2-1.6-2.2-1.5c-0.2,0-0.3-0.1-0.4-0.2l-0.9-1c-0.1-0.1-0.1-0.2-0.1-0.3c-0.1-1.2-1.2-2.1-2.4-1.9c0,0,0,0-0.1,0
				c-0.2,0-0.5-0.1-0.5-0.3c-0.1-0.2-0.1-0.5,0.1-0.5l0.7-0.7c-0.7-1.2-1.7-2.2-2.8-3c-0.1-0.1-0.2-0.3-0.2-0.5s0.1-0.3,0.3-0.4
				c0.3-0.2,0.7-0.5,0.7-0.8c0-0.5-0.9-1.2-1.4-1.4c-0.3-0.1-0.4-0.5-0.2-0.8c0.1-0.1,0.1-0.2,0.2-0.2c0.2-0.1,0.4-0.2,0.4-0.4
				c0.1-0.3-0.2-0.7-0.4-1c-0.1-0.2-0.2-0.3-0.3-0.5s-0.3-0.4-0.5-0.6c-0.3-0.4-0.5-0.8-0.7-1.2c-0.1-0.5-0.1-1,0-1.5
				c0.1-0.4,0.1-0.9,0-1.3c-0.3-0.8-0.7-1.5-1.1-2.2c0-0.1-0.1-0.1-0.1-0.2c-0.4-2.6-1-5.2-1.8-7.8c-0.3-0.5-0.4-1-0.5-1.6
				c-0.7,0.4-2.2,1.2-3.9,2.2c-1.4,1-2.5,2.4-3,4.1c0,0.1,0,0.1-0.1,0.2s-0.3,0.5-3.1,1.2c-1.3,0.4-2.6,0.7-4,0.8
				c-0.7,0-2.7,0.4-4.8,0.7c-2.5,0.5-5.5,0.9-6.8,1c-2.3,0.1-2.9,1.2-3,2c-0.1,0.5,0.4,4.7,0.8,8.6c0.6,0.8,0.9,1.8,0.9,2.8
				c0.1,2.1-0.9,15.7-1.5,19.4c-0.3,2.4-0.3,4.7,0,7.1c0,0.2,0,0.3-0.1,0.5c-1.2,1.3-1.1,2.1-1.1,2.2V69c1.6,1.9,5,1.6,5,1.6H26
				c0.2,0,0.3,0.1,0.4,0.2l0.7,0.8h2.3l0.8-1.5c0.1-0.2,0.4-0.3,0.5-0.2c0.2,0.1,0.4,0.3,0.4,0.5V72h2.6l0.7-1.2
				c0.1-0.3,0.5-0.4,0.8-0.2c0.1,0.1,0.2,0.1,0.2,0.2C35.4,70.8,35.4,71.8,35.4,71.8z"/>
		</g>
		<g id="XMLID_311_">
			<path id="XMLID_571_" class="st0" d="M21.5,29.9c-0.2,0-0.3-0.1-0.4-0.3c0-0.2,0.1-0.4,0.3-0.4s15.1-1.5,16.8-1.9
				c0.3-0.1,0.5-0.1,0.8-0.1c1.6-0.2,3.1-0.5,3.5-2.9L41.6,15c0-0.2,0.1-0.4,0.3-0.4s0.4,0.1,0.4,0.3l1,9.4v0.1
				c-0.5,3-2.6,3.2-4.1,3.4c-0.3,0-0.5,0.1-0.8,0.1C36.7,28.4,22.2,29.8,21.5,29.9z"/>
		</g>
		<g id="XMLID_310_">
			<path id="XMLID_570_" class="st0" d="M74,66.4c-1.8,0-3.6-0.1-5.4-0.4c-1.5-0.2-3.7-0.6-6.2-1c-3.3-0.7-7-1.3-10.2-1.7
				c-5.5-0.7-18.3-1.4-23.5-1.6c-3,0-6-0.8-8.7-2.3c-0.2-0.1-0.2-0.3-0.1-0.5s0.3-0.2,0.5-0.1c2.5,1.4,5.4,2.2,8.3,2.2
				c5.4,0.2,18.1,0.9,23.6,1.6c3.2,0.4,6.9,1.1,10.2,1.7c2.5,0.5,4.6,0.8,6.2,1c10.2,1.3,20.6-1,29.3-6.6c0.2-0.1,0.4-0.1,0.5,0.1
				s0.1,0.4-0.1,0.5C91.1,64,82.7,66.5,74,66.4z"/>
		</g>
		<g id="XMLID_309_">
			<path id="XMLID_569_" class="st0" d="M74.3,69.4c-2.6,0-5.2-0.3-7.8-0.7c-3.5-0.6-6.2-1.2-6.2-1.2c-5-1.4-11.1-1.9-23.2-1.9
				c-11.6,0-18.1-2.3-18.2-2.3c-0.2-0.1-0.3-0.3-0.2-0.5c0.1-0.2,0.3-0.3,0.5-0.2c2.2,0.8,8.8,2.3,17.9,2.3
				c12.2,0,18.3,0.6,23.4,1.9c0.1,0,10.7,2.6,17.4,1.6c0.2,0,12.7-1.4,21.3-7.1c0.2-0.1,0.4-0.1,0.5,0.1s0.1,0.4-0.1,0.5
				c-8.7,5.7-21.5,7.2-21.6,7.2C76.8,69.3,75.5,69.4,74.3,69.4z"/>
		</g>
		<g id="XMLID_308_">
			<path id="XMLID_154_" class="st0" d="M25,60.9c-0.1,0-0.1,0-0.2-0.1c-1.2-0.8-2.2-3.1-3-6.7c-0.5-2.1-0.8-4.3-1-6.5
				c-0.1-1.7,0.5-13.3,0.5-13.8c0-0.2,0.1-0.3,0.3-0.3c0.2,0,0.3,0.1,0.3,0.3c0,0.1-0.5,12-0.5,13.7c0.1,0.8,0.4,3.6,1,6.4
				c0.8,3.4,1.8,5.7,2.9,6.5c0.1,0.1,0.1,0.3,0.1,0.4C25.2,60.8,25.1,60.9,25,60.9z"/>
		</g>
		<g id="XMLID_307_">
			<path id="XMLID_493_" class="st0" d="M67.2,51.6L67.2,51.6c-0.2,0-0.2,0-0.2-0.1s0-0.1,0.1-0.1h0.4c0.1,0,0.1,0,0.1,0.1
				s0,0.1-0.1,0.1H67.2z M66.8,51.6h-0.4c-0.1,0-0.1,0-0.1-0.1s0-0.1,0.1-0.1h0.4V51.6z M67.8,51.5L67.8,51.5
				c-0.1-0.1-0.1-0.2,0-0.2h0.1c0.1,0,0.2-0.1,0.3-0.1c0.1,0,0.1,0,0.1,0.1s0,0.1-0.1,0.1C68.1,51.4,67.9,51.4,67.8,51.5z M66,51.5
				h-0.4c-0.1,0-0.1,0-0.1-0.1s0-0.1,0.1-0.1l0,0H66C66.1,51.3,66.1,51.4,66,51.5z M68.4,51.4L68.4,51.4c-0.1-0.1-0.1-0.2,0-0.2h0.4
				c0.1,0,0.1,0,0.1,0.1s0,0.1-0.1,0.1L68.4,51.4z M65.4,51.4H65c-0.1,0-0.1,0-0.1-0.1s0-0.1,0.1-0.1h0.4
				C65.5,51.2,65.5,51.3,65.4,51.4z M64.7,51.3h-0.3c-0.1,0-0.1,0-0.1-0.1s0-0.1,0.1-0.1l0,0h0.4C64.7,51.2,64.8,51.2,64.7,51.3z
				 M69.1,51.2L69.1,51.2C69,51.2,69,51.1,69.1,51.2C69,51.1,69,51.1,69,51v-0.2c0-0.1,0-0.1,0.1-0.1s0.1,0,0.1,0.1s0.1,0.2,0.1,0.3
				C69.2,51.1,69.2,51.1,69.1,51.2z M64,51.2h-0.4v-0.1c0-0.1,0-0.1,0.1-0.1h0.4C64.1,51.1,64.1,51.1,64,51.2z M63.3,51.1h-0.4
				c-0.1,0-0.1,0-0.1-0.1s0-0.1,0.1-0.1h0.4C63.4,51,63.4,51,63.3,51.1z M62.7,51.1h-0.4c-0.1,0-0.1,0-0.1-0.1s0-0.1,0.1-0.1l0,0
				h0.4C62.7,50.9,62.8,50.9,62.7,51.1z M62,51L62,51c-0.1,0-0.3,0-0.4-0.1c-0.1,0-0.1,0-0.1-0.1s0-0.1,0.1-0.1l0,0
				c0.1,0,0.3,0,0.4,0.1C62.1,50.8,62.1,50.8,62,51C62.1,50.9,62.1,51,62,51z M61.3,50.8L61.3,50.8l-0.4-0.1c-0.1,0-0.1,0-0.1-0.1
				s0-0.1,0.1-0.1l0,0l0.4,0.1C61.4,50.8,61.4,50.8,61.3,50.8z M60.7,50.8L60.7,50.8l-0.4-0.1c-0.1,0-0.1,0-0.1-0.1s0-0.1,0.1-0.1
				l0,0l0.4,0.1C60.8,50.7,60.8,50.7,60.7,50.8L60.7,50.8z M59.9,50.7l-0.4-0.1c-0.1,0-0.1,0-0.1-0.1l0.1-0.1l0.4,0.1
				C59.9,50.5,59.9,50.7,59.9,50.7z M68.9,50.6L68.9,50.6c-0.1-0.2-0.2-0.3-0.2-0.4v-0.1h0.1c0.1,0.1,0.1,0.2,0.2,0.3
				C69,50.6,69,50.6,68.9,50.6z M59.3,50.5L59.3,50.5l-0.4-0.1c-0.1,0-0.1,0-0.1-0.1s0-0.1,0.1-0.1l0.4,0.1
				C59.4,50.4,59.4,50.4,59.3,50.5z M58.6,50.4L58.6,50.4l-0.4-0.1c-0.1,0-0.1,0-0.1-0.1s0-0.1,0.1-0.1l0,0l0.4,0.1
				C58.7,50.2,58.7,50.3,58.6,50.4z M58,50.3L58,50.3l-0.4-0.1c-0.1,0-0.1,0-0.1-0.1l0.1-0.1l0.4,0.1C58,50.1,58.1,50.1,58,50.3z
				 M57.2,50.1L57.2,50.1L56.9,50c-0.1,0-0.1,0-0.1-0.1s0-0.1,0.1-0.1l0.4,0.1C57.3,50,57.3,50,57.2,50.1z M68.6,50L68.6,50
				c-0.1-0.2-0.2-0.3-0.3-0.3v-0.1h0.1C68.5,49.7,68.5,49.8,68.6,50z M56.6,50L56.6,50l-0.4-0.1c-0.1,0-0.1,0-0.1-0.1s0-0.1,0.1-0.1
				l0.4,0.1C56.7,49.8,56.7,49.8,56.6,50C56.7,49.9,56.7,50,56.6,50z M55.9,49.8L55.9,49.8l-0.4-0.1c-0.1,0-0.1,0-0.1-0.1
				s0-0.1,0.1-0.1l0,0l0.4,0.1C56.1,49.6,56.1,49.7,55.9,49.8z M55.3,49.7L55.3,49.7l-0.4-0.1c-0.1,0-0.1,0-0.1-0.1s0-0.1,0.1-0.1
				l0.4,0.1C55.3,49.5,55.4,49.5,55.3,49.7z M54.6,49.5L54.6,49.5l-0.4-0.1c-0.1,0-0.1,0-0.1-0.1s0-0.1,0.1-0.1l0.4,0.1
				C54.7,49.5,54.7,49.5,54.6,49.5z M53.9,49.5L53.9,49.5l-0.4-0.1c-0.1,0-0.1,0-0.1-0.1s0-0.1,0.1-0.1l0,0l0.4,0.1
				C54,49.3,54,49.4,53.9,49.5C54,49.4,54,49.5,53.9,49.5z M53.3,49.3h-0.4c-0.1,0-0.1,0-0.1-0.1s0-0.1,0.1-0.1L53.3,49.3z
				 M52.6,49.2L52.6,49.2l-0.4-0.1c-0.1,0-0.1,0-0.1-0.1s0-0.1,0.1-0.1l0.4,0.1C52.7,49.1,52.7,49.1,52.6,49.2L52.6,49.2z M51.9,49
				h-0.3c-0.1,0-0.1,0-0.1-0.1s0-0.1,0.1-0.1l0,0L51.9,49z M51.2,48.9L51.2,48.9l-0.4-0.1l-0.1-0.1c0-0.1,0-0.1,0.1-0.1l0.4,0.1
				C51.3,48.7,51.3,48.8,51.2,48.9C51.3,48.8,51.3,48.9,51.2,48.9z M50.6,48.7L50.6,48.7l-0.4-0.1c-0.1,0-0.1,0-0.1-0.1l0.1-0.1
				l0.4,0.1C50.7,48.6,50.7,48.6,50.6,48.7z M49.9,48.6L49.9,48.6l-0.4-0.1c-0.1,0-0.1,0-0.1-0.1s0-0.1,0.1-0.1l0,0l0.4,0.1
				C49.9,48.4,50.1,48.5,49.9,48.6z M49.2,48.4L49.2,48.4l-0.3-0.1c-0.1,0-0.1,0-0.1-0.1l0.1-0.1l0.4,0.1
				C49.3,48.3,49.3,48.3,49.2,48.4z M48.6,48.3L48.6,48.3l-0.4-0.1c-0.1,0-0.1,0-0.1-0.1l0.1-0.1l0.4,0.1
				C48.7,48.2,48.7,48.2,48.6,48.3C48.7,48.2,48.7,48.3,48.6,48.3z M47.9,48.2L47.9,48.2l-0.4-0.1V48c0-0.1,0-0.1,0.1-0.1L48,48
				C48,48.1,48,48.1,47.9,48.2z M47.3,48.1L47.3,48.1L46.9,48l-0.1-0.1c0-0.1,0-0.1,0.1-0.1l0.4,0.1C47.3,47.9,47.4,47.9,47.3,48.1z
				 M46.5,47.9L46.5,47.9l-0.4-0.1L46,47.7c0-0.1,0-0.1,0.1-0.1l0.4,0.1C46.6,47.7,46.6,47.8,46.5,47.9z M45.9,47.8L45.9,47.8
				l-0.4-0.1l-0.1-0.1l0.1-0.1l0.4,0.1C46,47.6,46,47.6,45.9,47.8C46,47.7,46,47.8,45.9,47.8z M45.2,47.6L45.2,47.6l-0.4-0.1
				c-0.1,0-0.1,0-0.1-0.1s0-0.1,0.1-0.1l0.4,0.1C45.3,47.4,45.3,47.5,45.2,47.6z M44.6,47.5L44.6,47.5l-0.4-0.1
				c-0.1,0-0.1,0-0.1-0.1l0.1-0.1l0.4,0.1C44.6,47.3,44.7,47.3,44.6,47.5z M43.9,47.3L43.9,47.3l-0.4-0.1l-0.1-0.1l0.1-0.1l0.4,0.1
				C44,47.2,44,47.2,43.9,47.3L43.9,47.3z M43.2,47.2L43.2,47.2l-0.4-0.1L42.7,47c0-0.1,0-0.1,0.1-0.1l0.4,0.1
				C43.3,47,43.3,47,43.2,47.2C43.3,47.1,43.3,47.2,43.2,47.2z M42.6,47h-0.4l-0.1-0.1c0-0.1,0-0.1,0.1-0.1L42.6,47
				C42.7,46.9,42.7,47,42.6,47z M41.9,46.9L41.9,46.9l-0.4-0.1l-0.1-0.1c0-0.1,0-0.1,0.1-0.1l0.4,0.1C41.9,46.8,42,46.8,41.9,46.9z
				 M41.3,46.8L41.3,46.8l-0.4-0.1c-0.1,0-0.1,0-0.1-0.1l0.1-0.1l0.4,0.1C41.4,46.7,41.4,46.7,41.3,46.8L41.3,46.8z M40.5,46.6
				L40.5,46.6l-0.4-0.1L40,46.4l0.1-0.1C40.1,46.3,40.5,46.6,40.5,46.6z M39.9,46.5L39.9,46.5l-0.4-0.1c-0.1,0-0.1,0-0.1-0.1
				l0.1-0.1l0.4,0.1C40,46.3,40,46.4,39.9,46.5z M39.2,46.3L39.2,46.3l-0.4-0.1l-0.1-0.1l0.1-0.1l0.4,0.1
				C39.3,46.2,39.3,46.2,39.2,46.3z M38.6,46.2L38.6,46.2l-0.4-0.1L38.1,46l0.1-0.1l0.4,0.1C38.7,46.1,38.7,46.1,38.6,46.2
				L38.6,46.2z M37.9,46h-0.4l-0.1-0.2c0-0.1,0-0.1,0.1-0.1l0.4,0.1V46L37.9,46z M37.2,45.9L37.2,45.9l-0.4-0.1l-0.1-0.1
				c0-0.1,0-0.1,0.1-0.1l0.4,0.1C37.3,45.8,37.3,45.8,37.2,45.9C37.3,45.8,37.3,45.9,37.2,45.9L37.2,45.9z M36.6,45.8L36.6,45.8
				l-0.4-0.1l-0.1-0.1c0-0.1,0-0.1,0.1-0.1l0.4,0.1C36.7,45.6,36.7,45.7,36.6,45.8z M35.9,45.7L35.9,45.7l-0.4-0.1l-0.1-0.1
				c0-0.1,0-0.1,0.1-0.1l0.4,0.1C35.9,45.5,36,45.5,35.9,45.7z M35.2,45.5L35.2,45.5l-0.4-0.1l-0.1-0.1c0-0.1,0-0.1,0.1-0.1l0.4,0.1
				C35.3,45.3,35.3,45.4,35.2,45.5z M34.5,45.3L34.5,45.3l-0.4-0.1L34,45.1l0.1-0.1l0.4,0.1C34.6,45.2,34.6,45.2,34.5,45.3z
				 M33.9,45.2L33.9,45.2l-0.4-0.1L33.4,45l0.1-0.1l0.4,0.1C34,45,34,45.1,33.9,45.2z M33.2,45L33.2,45l-0.4-0.1l-0.1-0.1l0.1-0.1
				l0.4,0.1C33.2,44.9,33.3,44.9,33.2,45z M32.5,44.9L32.5,44.9l-0.3-0.1l-0.1-0.1l0.1-0.1l0.4,0.1C32.6,44.7,32.7,44.8,32.5,44.9z
				 M31.9,44.7L31.9,44.7l-0.4-0.1h-0.1l0.1-0.1L31.9,44.7L31.9,44.7z M31.2,44.7L31.2,44.7l-0.4-0.1l-0.1-0.1l0.1-0.1l0.4,0.1
				C31.3,44.5,31.3,44.5,31.2,44.7z M30.6,44.5L30.6,44.5l-0.4-0.1l-0.1-0.1l0.1-0.1l0.4,0.1C30.7,44.4,30.7,44.4,30.6,44.5
				L30.6,44.5z M29.9,44.4L29.9,44.4l-0.4-0.1l-0.1-0.1l0.1-0.1l0.4,0.1C29.9,44.2,30,44.2,29.9,44.4z M29.2,44.2L29.2,44.2
				l-0.4-0.1L28.7,44c0-0.1,0-0.1,0.1-0.1l0.4,0.1C29.3,44,29.3,44.1,29.2,44.2z M28.5,44L28.5,44l-0.4-0.1L28,43.8
				c0-0.1,0-0.1,0.1-0.1l0.4,0.1C28.6,43.9,28.6,43.9,28.5,44z M27.9,43.9L27.9,43.9l-0.4-0.1l-0.1-0.1c0-0.1,0-0.1,0.1-0.1l0.4,0.1
				C28,43.7,28,43.8,27.9,43.9z M27.2,43.7h-0.4l-0.1-0.1l0.1-0.1L27.2,43.7C27.2,43.6,27.3,43.6,27.2,43.7z M26.5,43.6L26.5,43.6
				l-0.4-0.1L26,43.4c0-0.1,0-0.1,0.1-0.1l0.4,0.1C26.6,43.5,26.6,43.5,26.5,43.6C26.6,43.5,26.6,43.6,26.5,43.6L26.5,43.6z
				 M25.9,43.5L25.9,43.5l-0.4-0.1l-0.1-0.1l0.1-0.1l0.4,0.1C25.9,43.3,25.9,43.5,25.9,43.5z M25.2,43.4L25.2,43.4l-0.4-0.1
				l-0.1-0.1l0.1-0.1l0.4,0.1C25.3,43.2,25.3,43.2,25.2,43.4z M24.6,43.2L24.6,43.2l-0.4-0.1L24.1,43l0.1-0.1l0.4,0.1V43.2z
				 M23.8,43.1L23.8,43.1L23.4,43v-0.1c0-0.1,0-0.1,0.1-0.1l0.4,0.1L23.8,43.1C23.9,43,23.9,43.1,23.8,43.1L23.8,43.1z M23.2,42.9
				L23.2,42.9l-0.4-0.1l-0.1-0.1l0.1-0.1l0.4,0.1C23.3,42.7,23.3,42.8,23.2,42.9z M22.5,42.7L22.5,42.7l-0.4-0.1L22,42.5l0.1-0.1
				l0.4,0.1C22.6,42.6,22.6,42.6,22.5,42.7z M21.9,42.6L21.9,42.6l-0.4-0.1l-0.1-0.1l0.1-0.1l0.4,0.1C22,42.5,22,42.5,21.9,42.6
				L21.9,42.6z"/>
		</g>
		<g id="XMLID_306_">
			<path id="XMLID_420_" class="st0" d="M68.1,52.6h-0.4c-0.1,0-0.1,0-0.1-0.1s0-0.1,0.1-0.1H68C68.1,52.4,68.1,52.4,68.1,52.6z
				 M68.4,52.5L68.4,52.5c-0.1-0.1-0.1-0.2,0-0.2s0.2-0.1,0.3-0.1h0.1v0.1C68.7,52.5,68.6,52.5,68.4,52.5z M67.4,52.5H67
				c-0.1,0-0.1,0-0.1-0.1s0-0.1,0.1-0.1l0,0h0.4C67.5,52.3,67.5,52.4,67.4,52.5z M66.8,52.4h-0.4c-0.1,0-0.1,0-0.1-0.1
				s0-0.1,0.1-0.1h0.4V52.4z M66,52.3h-0.4c-0.1,0-0.1,0-0.1-0.1s0-0.1,0.1-0.1H66C66.1,52.1,66.1,52.2,66,52.3z M65.4,52.2H65
				c-0.1,0-0.1,0-0.1-0.1s0-0.1,0.1-0.1l0,0h0.4C65.5,52.1,65.5,52.1,65.4,52.2z M69,52.2L69,52.2c-0.1-0.1-0.1-0.1-0.1-0.2H69V52.2
				z M64.7,52.2h-0.4c-0.1,0-0.1,0-0.1-0.1s0-0.1,0.1-0.1h0.4C64.7,52,64.8,52,64.7,52.2z M64,52.1h-0.4V52c0-0.1,0-0.1,0.1-0.1h0.4
				C64.1,52,64.1,52,64,52.1z M63.3,52L63.3,52c-0.1,0-0.3,0-0.4-0.1c-0.1,0-0.1,0-0.1-0.1s0-0.1,0.1-0.1s0.3,0,0.4,0.1
				S63.4,52,63.3,52z M62.7,52L62.7,52l-0.4-0.1c-0.1,0-0.1,0-0.1-0.1s0-0.1,0.1-0.1l0,0l0.4,0.1C62.7,51.8,62.8,51.8,62.7,52z
				 M62,51.8L62,51.8l-0.4-0.1c-0.1,0-0.1,0-0.1-0.1s0-0.1,0.1-0.1l0,0l0.4,0.1C62.1,51.7,62.1,51.8,62,51.8z M61.3,51.8L61.3,51.8
				l-0.4-0.1c-0.1,0-0.1,0-0.1-0.1s0-0.1,0.1-0.1l0,0l0.4,0.1C61.4,51.6,61.4,51.6,61.3,51.8z M60.7,51.6L60.7,51.6l-0.4-0.1
				c-0.1,0-0.1,0-0.1-0.1s0-0.1,0.1-0.1l0,0l0.4,0.1C60.8,51.5,60.8,51.5,60.7,51.6L60.7,51.6z M59.9,51.5L59.9,51.5l-0.4-0.1
				c-0.1,0-0.1,0-0.1-0.1s0-0.1,0.1-0.1l0,0l0.4,0.1C60,51.3,60,51.4,59.9,51.5C60,51.4,60,51.5,59.9,51.5z M59.3,51.3L59.3,51.3
				l-0.4-0.1c-0.1,0-0.1,0-0.1-0.1s0-0.1,0.1-0.1l0.4,0.1C59.4,51.2,59.4,51.2,59.3,51.3z M58.6,51.2L58.6,51.2l-0.4-0.1
				c-0.1,0-0.1,0-0.1-0.1s0-0.1,0.1-0.1l0.4,0.1C58.7,51,58.7,51.1,58.6,51.2z M58,51.1L58,51.1L57.6,51c-0.1,0-0.1,0-0.1-0.1
				s0-0.1,0.1-0.1l0,0l0.4,0.1C58,50.9,58.1,50.9,58,51.1z M57.2,50.9L57.2,50.9l-0.4-0.1c-0.1,0-0.1,0-0.1-0.1s0-0.1,0.1-0.1l0,0
				l0.4,0.1C57.3,50.8,57.3,50.8,57.2,50.9z M56.6,50.8L56.6,50.8l-0.4-0.1c-0.1,0-0.1,0-0.1-0.1s0-0.1,0.1-0.1l0,0l0.4,0.1
				C56.7,50.7,56.7,50.7,56.6,50.8z M55.9,50.7L55.9,50.7l-0.4-0.1c-0.1,0-0.1,0-0.1-0.1s0-0.1,0.1-0.1l0,0l0.4,0.1
				C56.1,50.5,56.1,50.6,55.9,50.7z M55.3,50.6L55.3,50.6l-0.4-0.1c-0.1,0-0.1,0-0.1-0.1s0-0.1,0.1-0.1l0.4,0.1
				C55.3,50.4,55.4,50.4,55.3,50.6z M54.6,50.4L54.6,50.4l-0.4-0.1c-0.1,0-0.1,0-0.1-0.1s0-0.1,0.1-0.1l0,0l0.4,0.1
				C54.7,50.2,54.7,50.3,54.6,50.4z M53.9,50.3L53.9,50.3l-0.4-0.1c-0.1,0-0.1,0-0.1-0.1l0.1-0.1l0.4,0.1C54,50.1,54,50.1,53.9,50.3
				C54,50.2,54,50.3,53.9,50.3L53.9,50.3z M53.3,50.1L53.3,50.1L52.9,50c-0.1,0-0.1,0-0.1-0.1s0-0.1,0.1-0.1l0.4,0.1
				C53.4,49.9,53.4,50,53.3,50.1z M52.6,50L52.6,50l-0.4-0.1l-0.1-0.1c0-0.1,0-0.1,0.1-0.1l0.4,0.1C52.6,49.8,52.7,49.8,52.6,50z
				 M51.9,49.8L51.9,49.8l-0.3-0.1l-0.1-0.1c0-0.1,0-0.1,0.1-0.1l0.4,0.1C52,49.7,52,49.7,51.9,49.8z M51.2,49.7L51.2,49.7l-0.4-0.1
				c-0.1,0-0.1,0-0.1-0.1s0-0.1,0.1-0.1l0.4,0.1C51.3,49.5,51.3,49.5,51.2,49.7C51.3,49.6,51.3,49.7,51.2,49.7L51.2,49.7z
				 M50.6,49.5L50.6,49.5l-0.4-0.1c-0.1,0-0.1,0-0.1-0.1l0.1-0.1l0.4,0.1C50.7,49.4,50.7,49.5,50.6,49.5z M49.9,49.5L49.9,49.5
				l-0.4-0.1c-0.1,0-0.1,0-0.1-0.1l0.1-0.1l0.4,0.1C49.9,49.3,50.1,49.3,49.9,49.5z M49.2,49.3L49.2,49.3l-0.4-0.1
				c-0.1,0-0.1,0-0.1-0.1l0.1-0.1l0.4,0.1C49.3,49.1,49.3,49.2,49.2,49.3z M48.6,49.2L48.6,49.2l-0.4-0.1L48.1,49
				c0-0.1,0-0.1,0.1-0.1l0.4,0.1C48.7,49,48.7,49,48.6,49.2C48.7,49.1,48.7,49.2,48.6,49.2L48.6,49.2z M47.9,49L47.9,49l-0.4-0.1
				l-0.1-0.1c0-0.1,0-0.1,0.1-0.1l0.4,0.1C48,48.8,48,48.9,47.9,49z M47.3,48.9L47.3,48.9l-0.4-0.1l-0.1-0.1c0-0.1,0-0.1,0.1-0.1
				l0.4,0.1C47.3,48.7,47.4,48.7,47.3,48.9z M46.5,48.7L46.5,48.7l-0.4-0.1c-0.1,0-0.1,0-0.1-0.1s0-0.1,0.1-0.1l0,0l0.4,0.1
				C46.6,48.5,46.6,48.6,46.5,48.7z M45.9,48.6L45.9,48.6l-0.4-0.1l-0.1-0.1c0-0.1,0-0.1,0.1-0.1l0.4,0.1C46,48.4,46,48.4,45.9,48.6
				C46,48.5,46,48.6,45.9,48.6L45.9,48.6z M45.2,48.4L45.2,48.4l-0.4-0.1l-0.1-0.1l0.1-0.1l0.4,0.1C45.3,48.2,45.3,48.3,45.2,48.4z
				 M44.6,48.3L44.6,48.3l-0.4-0.1l-0.1-0.1c0-0.1,0-0.1,0.1-0.1l0.4,0.1C44.6,48.2,44.7,48.2,44.6,48.3z M43.9,48.2L43.9,48.2
				l-0.4-0.1L43.4,48c0-0.1,0-0.1,0.1-0.1l0.4,0.1V48.2z M43.2,48L43.2,48l-0.4-0.1l-0.1-0.1c0-0.1,0-0.1,0.1-0.1l0.4,0.1
				C43.3,47.9,43.3,47.9,43.2,48z M42.6,47.9L42.6,47.9l-0.4-0.1c-0.1,0-0.1,0-0.1-0.1l0.1-0.1l0.4,0.1
				C42.7,47.7,42.7,47.8,42.6,47.9z M41.9,47.7L41.9,47.7l-0.4-0.1l-0.1-0.1c0-0.1,0-0.1,0.1-0.1l0.4,0.1
				C41.9,47.6,42,47.6,41.9,47.7z M41.2,47.6L41.2,47.6l-0.4-0.1c-0.1,0-0.1,0-0.1-0.1s0-0.1,0.1-0.1l0.4,0.1
				C41.3,47.4,41.3,47.5,41.2,47.6C41.3,47.5,41.3,47.6,41.2,47.6L41.2,47.6z M40.5,47.4L40.5,47.4l-0.4-0.1L40,47.2l0.1-0.1
				l0.4,0.1C40.6,47.3,40.6,47.3,40.5,47.4z M39.9,47.3L39.9,47.3l-0.4-0.1h-0.1c0-0.1,0-0.1,0.1-0.1C39.5,47.1,39.9,47.3,39.9,47.3
				z M39.2,47.1L39.2,47.1L38.9,47h-0.1c0-0.1,0-0.1,0.1-0.1l0.4,0.1C39.2,47,39.3,47,39.2,47.1z M38.6,47h-0.4l-0.1-0.1
				c0-0.1,0-0.1,0.1-0.1L38.6,47C38.6,46.9,38.7,46.9,38.6,47z M37.9,46.9L37.9,46.9l-0.4-0.1l-0.1-0.1c0-0.1,0-0.1,0.1-0.1l0.4,0.1
				C37.9,46.7,37.9,46.9,37.9,46.9z M37.2,46.8L37.2,46.8l-0.4-0.1l-0.1-0.1c0.1-0.1,0.1-0.1,0.2-0.1l0.4,0.1L37.2,46.8
				C37.3,46.7,37.3,46.8,37.2,46.8L37.2,46.8z M36.6,46.6L36.6,46.6l-0.4-0.1l-0.1-0.1c0-0.1,0-0.1,0.1-0.1l0.4,0.1
				C36.7,46.4,36.7,46.5,36.6,46.6z M35.9,46.4L35.9,46.4l-0.4-0.1l-0.1-0.1c0-0.1,0-0.1,0.1-0.1l0.4,0.1
				C35.9,46.3,36,46.3,35.9,46.4z M35.2,46.3L35.2,46.3l-0.4-0.1l-0.1-0.1c0-0.1,0-0.1,0.1-0.1l0.4,0.1
				C35.3,46.1,35.3,46.2,35.2,46.3z M34.5,46.1L34.5,46.1L34.2,46h-0.1c0-0.1,0-0.1,0.1-0.1l0.4,0.1C34.6,46,34.5,46.1,34.5,46.1z
				 M33.9,46h-0.4l-0.1-0.1l0.1-0.1C33.5,45.8,33.9,46,33.9,46z M33.2,45.8L33.2,45.8l-0.4-0.1l-0.1-0.1l0.1-0.1l0.4,0.1
				C33.2,45.7,33.3,45.8,33.2,45.8z M32.5,45.8L32.5,45.8l-0.3-0.1l-0.1-0.1l0.1-0.1l0.4,0.1L32.5,45.8
				C32.6,45.7,32.6,45.8,32.5,45.8L32.5,45.8z M31.9,45.6L31.9,45.6l-0.4-0.1l-0.1-0.1c0-0.1,0-0.1,0.1-0.1l0.4,0.1V45.6z
				 M31.2,45.4L31.2,45.4l-0.4-0.1l-0.1-0.1l0.1-0.1l0.4,0.1C31.3,45.3,31.3,45.3,31.2,45.4z M30.6,45.3L30.6,45.3l-0.4-0.1
				l-0.1-0.1l0.1-0.1l0.4,0.1C30.7,45.2,30.7,45.2,30.6,45.3L30.6,45.3z M29.9,45.1L29.9,45.1L29.5,45l-0.1-0.1l0.1-0.1l0.4,0.1
				C29.9,45,30,45,29.9,45.1z M29.2,45L29.2,45l-0.4-0.1l-0.1-0.1l0.1-0.1l0.4,0.1C29.3,44.8,29.3,44.9,29.2,45
				C29.3,44.9,29.3,45,29.2,45L29.2,45z M28.5,44.8L28.5,44.8l-0.4-0.1L28,44.6l0.1-0.1l0.4,0.1C28.6,44.7,28.6,44.7,28.5,44.8z
				 M27.9,44.7L27.9,44.7l-0.4-0.1h-0.1c0-0.1,0-0.1,0.1-0.1L27.9,44.7C28,44.6,28,44.6,27.9,44.7z M27.2,44.6L27.2,44.6l-0.4-0.1
				l-0.1-0.1c0-0.1,0-0.1,0.1-0.1l0.4,0.1C27.3,44.5,27.3,44.5,27.2,44.6L27.2,44.6z M26.5,44.4L26.5,44.4l-0.4-0.1L26,44.2l0.1-0.1
				l0.4,0.1C26.6,44.3,26.6,44.3,26.5,44.4z M25.9,44.3L25.9,44.3l-0.4-0.1l-0.1-0.1l0.1-0.1l0.4,0.1C25.9,44.1,25.9,44.3,25.9,44.3
				z M25.2,44.1h-0.4L24.7,44c0-0.1,0-0.1,0.1-0.1C24.8,43.9,25.2,44.1,25.2,44.1z M24.6,44L24.6,44l-0.4-0.1l-0.1-0.1
				c0-0.1,0-0.1,0.1-0.1l0.4,0.1V44L24.6,44z M23.8,43.8L23.8,43.8l-0.3-0.1l-0.1-0.1c0-0.1,0-0.1,0.1-0.1l0.4,0.1
				C23.9,43.7,23.9,43.7,23.8,43.8z M23.2,43.7L23.2,43.7l-0.4-0.1l-0.1-0.1c0-0.1,0-0.1,0.1-0.1l0.4,0.1
				C23.3,43.5,23.3,43.5,23.2,43.7C23.3,43.6,23.3,43.7,23.2,43.7L23.2,43.7z M22.5,43.5L22.5,43.5l-0.4-0.1L22,43.3
				c0-0.1,0-0.1,0.1-0.1l0.4,0.1C22.6,43.4,22.6,43.5,22.5,43.5z M21.9,43.4L21.9,43.4l-0.4-0.1l-0.1-0.1l0.1-0.1l0.4,0.1
				C21.9,43.3,22,43.3,21.9,43.4z"/>
		</g>
		<g id="XMLID_305_">
			<path id="XMLID_346_" class="st0" d="M66.6,53.2h-0.3c-0.1,0-0.1,0-0.1-0.1s0-0.1,0.1-0.1h0.4c0.1,0,0.1,0,0.1,0.1
				S66.7,53.2,66.6,53.2z M67,53.2L67,53.2c-0.1-0.1-0.1-0.2,0-0.2h0.4c0.1,0,0.1,0,0.1,0.1s0,0.1-0.1,0.1L67,53.2z M66,53.2h-0.4
				c-0.1,0-0.1,0-0.1-0.1s0-0.1,0.1-0.1H66C66,53,66.1,53,66,53.2z M65.3,53.2h-0.4c-0.1,0-0.1,0-0.1-0.1s0-0.1,0.1-0.1h0.4
				C65.4,53,65.4,53,65.3,53.2z M67.7,53.2L67.7,53.2c-0.1-0.1-0.1-0.2,0-0.2h0.4c0.1,0,0.1,0,0.1,0.1s0,0.1-0.1,0.1L67.7,53.2z
				 M64.6,53.2h-0.4c-0.1,0-0.1,0-0.1-0.1s0-0.1,0.1-0.1l0,0h0.4C64.6,53,64.7,53,64.6,53.2z M68.3,53L68.3,53
				c-0.1-0.1-0.1-0.2,0-0.2s0.2-0.1,0.4-0.1c0.1,0,0.1,0,0.1,0.1s0,0.1-0.1,0.1C68.6,53,68.5,53,68.3,53z M64,53L64,53
				c-0.1,0-0.3,0-0.4-0.1c-0.1,0-0.1,0-0.1-0.1s0-0.1,0.1-0.1s0.3,0,0.4,0.1C64,52.9,64.1,52.9,64,53z M63.2,52.9L63.2,52.9
				c-0.1,0-0.3,0-0.4-0.1c-0.1,0-0.1,0-0.1-0.1s0-0.1,0.1-0.1l0,0c0.1,0,0.3,0,0.4,0.1C63.3,52.8,63.3,52.8,63.2,52.9z M69.1,52.9
				L69.1,52.9c-0.1-0.1-0.1-0.2,0-0.2s0.2-0.1,0.3-0.1l0,0v0.1C69.2,52.8,69.2,52.9,69.1,52.9z M62.6,52.8L62.6,52.8
				c-0.1,0-0.3,0-0.4-0.1c-0.1,0-0.1,0-0.1-0.1s0-0.1,0.1-0.1s0.3,0,0.4,0.1C62.7,52.6,62.7,52.7,62.6,52.8z M62,52.7L62,52.7
				c-0.1,0-0.3-0.1-0.4-0.1l-0.1-0.1l0.1-0.1c0.1,0,0.2,0.1,0.4,0.1C62,52.5,62.1,52.5,62,52.7z M69.6,52.6L69.6,52.6
				c-0.1-0.1-0.1-0.1-0.1-0.2h0.1C69.7,52.5,69.7,52.5,69.6,52.6z M61.2,52.5L61.2,52.5c-0.1,0-0.3-0.1-0.4-0.1l-0.1-0.1l0.1-0.1
				c0.1,0,0.2,0.1,0.4,0.1C61.3,52.3,61.3,52.4,61.2,52.5z M60.6,52.3L60.6,52.3c-0.2,0-0.3-0.1-0.4-0.1l-0.1-0.1l0.1-0.1
				c0.1,0,0.2,0.1,0.4,0.1C60.7,52.2,60.7,52.2,60.6,52.3z M59.9,52.2L59.9,52.2c-0.2,0-0.3-0.1-0.4-0.1V52l0.1-0.1
				c0.1,0,0.2,0.1,0.4,0.1L59.9,52.2z M59.3,52h-0.4c-0.1,0-0.1,0-0.1-0.1l0.1-0.1C58.9,51.8,59.3,52,59.3,52z M58.6,51.8L58.6,51.8
				l-0.4-0.1c-0.1,0-0.1,0-0.1-0.1l0.1-0.1l0.4,0.1C58.6,51.7,58.7,51.8,58.6,51.8z M57.9,51.8L57.9,51.8l-0.4-0.1
				c-0.1,0-0.1,0-0.1-0.1l0.1-0.1l0.4,0.1C58,51.6,58,51.6,57.9,51.8C58,51.7,58,51.8,57.9,51.8z M57.2,51.6L57.2,51.6l-0.4-0.1
				c-0.1,0-0.1,0-0.1-0.1l0.1-0.1l0.4,0.1C57.3,51.4,57.3,51.5,57.2,51.6z M56.6,51.5L56.6,51.5l-0.4-0.1c-0.1,0-0.1,0-0.1-0.1
				l0.1-0.1l0.4,0.1C56.7,51.3,56.7,51.3,56.6,51.5z M55.9,51.3L55.9,51.3l-0.4-0.1l-0.1-0.1l0.1-0.1l0.4,0.1
				C55.9,51.1,56.1,51.2,55.9,51.3z M55.2,51.2L55.2,51.2l-0.3-0.1V51l0.1-0.1l0.4,0.1C55.3,51,55.3,51,55.2,51.2
				C55.3,51.1,55.3,51.2,55.2,51.2z M54.6,51L54.6,51l-0.4-0.1l-0.1-0.1c0-0.1,0-0.1,0.1-0.1l0.4,0.1C54.7,50.8,54.7,50.9,54.6,51z
				 M53.9,50.9L53.9,50.9l-0.4-0.1c-0.1,0-0.1,0-0.1-0.1l0.1-0.1l0.4,0.1C54,50.8,54,50.8,53.9,50.9z M53.3,50.8L53.3,50.8l-0.4-0.1
				l-0.1-0.1l0.1-0.1l0.4,0.1C53.4,50.7,53.4,50.7,53.3,50.8L53.3,50.8z M52.6,50.7L52.6,50.7l-0.4-0.1l-0.1-0.1l0.1-0.1l0.4,0.1
				C52.6,50.5,52.7,50.5,52.6,50.7z M51.9,50.5L51.9,50.5l-0.4-0.1c-0.1,0-0.1,0-0.1-0.1l0.1-0.1l0.4,0.1C52,50.3,52,50.4,51.9,50.5
				z M51.2,50.4L51.2,50.4l-0.4-0.1l-0.1-0.1l0.1-0.1l0.4,0.1C51.3,50.2,51.3,50.2,51.2,50.4z M50.6,50.2L50.6,50.2l-0.4-0.1
				L50.1,50l0.1-0.1l0.4,0.1C50.7,50.1,50.7,50.1,50.6,50.2L50.6,50.2z M49.9,50.1L49.9,50.1L49.6,50c-0.1,0-0.1,0-0.1-0.1l0.1-0.1
				l0.4,0.1C49.9,49.9,50.1,49.9,49.9,50.1z M49.2,49.9L49.2,49.9l-0.4-0.1l-0.1-0.1l0.1-0.1l0.4,0.1C49.3,49.7,49.3,49.8,49.2,49.9
				z M48.6,49.7L48.6,49.7l-0.4-0.1l-0.1-0.1l0.1-0.1l0.4,0.1C48.7,49.6,48.7,49.6,48.6,49.7z M47.9,49.6L47.9,49.6l-0.4-0.1
				c-0.1,0-0.1,0-0.1-0.1l0.1-0.1l0.4,0.1C48,49.5,48,49.5,47.9,49.6z M47.3,49.5L47.3,49.5l-0.4-0.1c-0.1,0-0.1,0-0.1-0.1l0.1-0.1
				l0.4,0.1C47.3,49.4,47.4,49.4,47.3,49.5z M46.5,49.4L46.5,49.4l-0.3-0.1l-0.1-0.1l0.1-0.1l0.4,0.1C46.6,49.3,46.6,49.3,46.5,49.4
				z M45.9,49.2L45.9,49.2l-0.4-0.1c-0.1,0-0.1,0-0.1-0.1l0.1-0.1l0.4,0.1C46,49.1,46,49.1,45.9,49.2z M45.2,49.1L45.2,49.1L44.9,49
				l-0.1-0.1l0.1-0.1l0.4,0.1C45.3,49,45.3,49,45.2,49.1z M44.6,48.9h-0.4l-0.1-0.1l0.1-0.1L44.6,48.9
				C44.6,48.8,44.7,48.8,44.6,48.9z M43.9,48.8L43.9,48.8l-0.4-0.1l-0.1-0.1c0-0.1,0-0.1,0.1-0.1l0.4,0.1
				C43.9,48.6,43.9,48.8,43.9,48.8z M43.2,48.6L43.2,48.6l-0.4-0.1c-0.1,0-0.1,0-0.1-0.1l0.1-0.1l0.4,0.1
				C43.3,48.5,43.3,48.5,43.2,48.6z M42.6,48.5L42.6,48.5l-0.4-0.1c-0.1,0-0.1,0-0.1-0.1l0.1-0.1l0.4,0.1
				C42.7,48.3,42.7,48.4,42.6,48.5z M41.9,48.3h-0.4l-0.1-0.1l0.1-0.1L41.9,48.3C41.9,48.2,42,48.2,41.9,48.3z M41.2,48.2L41.2,48.2
				l-0.4-0.1c-0.1,0-0.1,0-0.1-0.1l0.1-0.1l0.4,0.1C41.3,48.1,41.3,48.2,41.2,48.2z M40.5,48.1L40.5,48.1L40.2,48l-0.1-0.1l0.1-0.1
				l0.4,0.1C40.6,48,40.6,48,40.5,48.1z M39.9,48L39.9,48l-0.4-0.1l-0.1-0.1l0.1-0.1l0.4,0.1C40,47.8,40,47.9,39.9,48z M39.2,47.8
				L39.2,47.8l-0.4-0.1c-0.1,0-0.1,0-0.1-0.1l0.1-0.1l0.4,0.1C39.2,47.7,39.3,47.7,39.2,47.8z M38.6,47.7L38.6,47.7l-0.4-0.1
				l-0.1-0.1l0.1-0.1l0.4,0.1C38.7,47.6,38.7,47.6,38.6,47.7L38.6,47.7z M37.9,47.5L37.9,47.5l-0.4-0.1c-0.1,0-0.1,0-0.1-0.1
				l0.1-0.1l0.4,0.1C37.9,47.3,37.9,47.5,37.9,47.5z M37.2,47.4L37.2,47.4l-0.4-0.1c-0.1,0-0.1,0-0.1-0.1s0-0.1,0.1-0.1l0.4,0.1
				C37.3,47.2,37.3,47.3,37.2,47.4z M36.6,47.2L36.6,47.2l-0.4-0.1c-0.1,0-0.1,0-0.1-0.1l0.1-0.1l0.4,0.1
				C36.6,47.1,36.7,47.1,36.6,47.2z M35.9,47.1L35.9,47.1L35.6,47h-0.1c0-0.1,0-0.1,0.1-0.1L35.9,47.1C35.9,47,36,47,35.9,47.1z
				 M35.2,47L35.2,47l-0.4-0.1c-0.1,0-0.1,0-0.1-0.1s0-0.1,0.1-0.1l0,0l0.4,0.1C35.3,46.8,35.3,46.9,35.2,47z M34.5,46.9L34.5,46.9
				l-0.4-0.1L34,46.7l0.1-0.1l0.4,0.1C34.6,46.7,34.6,46.7,34.5,46.9C34.6,46.8,34.6,46.9,34.5,46.9L34.5,46.9z M33.9,46.7
				L33.9,46.7l-0.4-0.1l-0.1-0.1l0.1-0.1l0.4,0.1C34,46.5,34,46.6,33.9,46.7z M33.2,46.6L33.2,46.6l-0.4-0.1c-0.1,0-0.1,0-0.1-0.1
				l0.1-0.1l0.4,0.1C33.2,46.4,33.3,46.4,33.2,46.6z M32.5,46.4L32.5,46.4l-0.3-0.1l-0.1-0.1l0.1-0.1l0.4,0.1
				C32.6,46.3,32.6,46.3,32.5,46.4z M31.9,46.3L31.9,46.3l-0.4-0.1c-0.1,0-0.1,0-0.1-0.1l0.1-0.1l0.4,0.1
				C31.9,46.1,31.9,46.3,31.9,46.3z M31.2,46.1L31.2,46.1L30.8,46c-0.1,0-0.1,0-0.1-0.1l0.1-0.1l0.4,0.1
				C31.3,45.9,31.3,46,31.2,46.1z M30.6,46h-0.4l-0.1-0.1c0-0.1,0-0.1,0.1-0.1L30.6,46C30.6,45.8,30.7,45.8,30.6,46z M29.8,45.8
				h-0.4v-0.1l0.1-0.1l0.4,0.1C29.9,45.8,29.9,45.8,29.8,45.8z M29.2,45.8L29.2,45.8l-0.4-0.1c-0.1,0-0.1,0-0.1-0.1l0.1-0.1l0.4,0.1
				C29.3,45.6,29.3,45.6,29.2,45.8C29.3,45.7,29.3,45.8,29.2,45.8L29.2,45.8z M28.5,45.6L28.5,45.6l-0.4-0.1L28,45.4
				c0-0.1,0-0.1,0.1-0.1l0.4,0.1C28.6,45.4,28.6,45.5,28.5,45.6z M27.9,45.5L27.9,45.5l-0.4-0.1l-0.1-0.1l0.1-0.1l0.4,0.1
				C27.9,45.3,28,45.3,27.9,45.5z M27.2,45.3L27.2,45.3l-0.4-0.1c-0.1,0-0.1,0-0.1-0.1l0.1-0.1l0.4,0.1
				C27.2,45.1,27.2,45.3,27.2,45.3z M26.5,45.2L26.5,45.2l-0.4-0.1c-0.1,0-0.1,0-0.1-0.1l0,0l0.1-0.1l0.4,0.1
				C26.6,45,26.6,45,26.5,45.2C26.6,45.1,26.6,45.2,26.5,45.2L26.5,45.2z M25.9,45L25.9,45l-0.4-0.1l-0.1-0.1l0.1-0.1l0.4,0.1V45
				L25.9,45z M25.2,44.9L25.2,44.9l-0.4-0.1c-0.1,0-0.1,0-0.1-0.1l0.1-0.1l0.4,0.1C25.2,44.7,25.3,44.7,25.2,44.9z M24.6,44.7
				L24.6,44.7l-0.4-0.1c-0.1,0-0.1,0-0.1-0.1l0.1-0.1l0.4,0.1C24.6,44.5,24.6,44.7,24.6,44.7z M23.8,44.7L23.8,44.7l-0.4-0.1v-0.1
				l0.1-0.1l0.4,0.1L23.8,44.7C23.9,44.6,23.9,44.7,23.8,44.7L23.8,44.7z M23.2,44.5L23.2,44.5l-0.4-0.1c-0.1,0-0.1,0-0.1-0.1
				l0.1-0.1l0.4,0.1C23.3,44.3,23.3,44.4,23.2,44.5z M22.5,44.3L22.5,44.3l-0.4-0.1L22,44.1l0.1-0.1l0.4,0.1
				C22.5,44.2,22.6,44.2,22.5,44.3z M21.9,44.2L21.9,44.2l-0.4-0.1c-0.1,0-0.1,0-0.1-0.1s0-0.1,0.1-0.1l0.4,0.1
				C22,44.1,22,44.1,21.9,44.2L21.9,44.2z"/>
		</g>
		<g id="XMLID_304_">
			<path id="XMLID_213_" class="st0" d="M65.2,54.1h-0.3c-0.1,0-0.1,0-0.1-0.1s0-0.1,0.1-0.1h0.4c0.1,0,0.1,0,0.1,0.1
				S65.4,54.1,65.2,54.1z M65.6,54.1L65.6,54.1c-0.1-0.1-0.1-0.2,0-0.2H66c0.1,0,0.1,0,0.1,0.1s0,0.1-0.1,0.1L65.6,54.1z M66.3,54.1
				L66.3,54.1c-0.1-0.1-0.1-0.2,0-0.2h0.4c0.1,0,0.1,0,0.1,0.1s0,0.1-0.1,0.1L66.3,54.1z M64.6,54.1h-0.4c-0.1,0-0.1,0-0.1-0.1
				s0-0.1,0.1-0.1h0.4C64.7,54,64.7,54,64.6,54.1L64.6,54.1z M67,54.1C66.9,54.1,66.9,54,67,54.1c-0.1-0.1-0.1-0.2,0-0.2h0.4
				c0.1,0,0.1,0,0.1,0.1s0,0.1-0.1,0.1C67.2,54,67.1,54,67,54.1z M63.9,54L63.9,54c-0.1,0-0.3,0-0.4-0.1c-0.1,0-0.1,0-0.1-0.1
				s0-0.1,0.1-0.1l0,0c0.1,0,0.3,0,0.4,0.1C64,53.8,64,53.9,63.9,54z M67.7,54C67.6,54,67.6,53.9,67.7,54c-0.1-0.1-0.1-0.2,0-0.2
				s0.3,0,0.4-0.1c0.1,0,0.1,0,0.1,0.1s0,0.1-0.1,0.1C67.9,53.9,67.8,54,67.7,54z M63.2,53.9L63.2,53.9c-0.1,0-0.3,0-0.4-0.1
				c-0.1,0-0.1,0-0.1-0.1s0-0.1,0.1-0.1l0,0c0.1,0,0.3,0,0.4,0.1C63.3,53.7,63.3,53.8,63.2,53.9z M68.3,53.9L68.3,53.9
				c-0.1-0.1-0.1-0.2,0-0.2s0.3,0,0.4-0.1c0.1,0,0.1,0,0.1,0.1s0,0.1-0.1,0.1C68.6,53.8,68.4,53.8,68.3,53.9z M62.6,53.8L62.6,53.8
				c-0.1,0-0.3,0-0.4-0.1c-0.1,0-0.1,0-0.1-0.1s0-0.1,0.1-0.1l0,0c0.1,0,0.3,0,0.4,0.1C62.6,53.6,62.7,53.6,62.6,53.8z M69,53.7
				L69,53.7c-0.1-0.1-0.1-0.2,0-0.2s0.2-0.1,0.4-0.1c0.1,0,0.1,0,0.1,0.1s0,0.1-0.1,0.1C69.3,53.7,69.1,53.7,69,53.7z M61.9,53.6
				L61.9,53.6c-0.1,0-0.3-0.1-0.4-0.1c-0.1,0-0.1,0-0.1-0.1s0-0.1,0.1-0.1l0,0c0.1,0,0.3,0,0.4,0.1C62,53.5,62,53.5,61.9,53.6z
				 M69.7,53.5L69.7,53.5c-0.1-0.1-0.1-0.2,0-0.2s0.2-0.1,0.3-0.1h0.1v0.1C69.9,53.4,69.8,53.5,69.7,53.5z M61.2,53.5L61.2,53.5
				c-0.1,0-0.3-0.1-0.4-0.1l-0.1-0.1c0-0.1,0-0.1,0.1-0.1s0.2,0.1,0.4,0.1C61.3,53.3,61.3,53.4,61.2,53.5z M60.6,53.3L60.6,53.3
				l-0.4-0.1l-0.1-0.1l0.1-0.1l0.4,0.1C60.7,53.2,60.7,53.2,60.6,53.3z M70.3,53.2L70.3,53.2c-0.1-0.1-0.1-0.1,0-0.2
				s0.2-0.1,0.3-0.2h0.1V53C70.5,53.2,70.5,53.2,70.3,53.2z M59.9,53.2L59.9,53.2l-0.4-0.1L59.4,53l0.1-0.1l0.4,0.1
				C59.9,53,60,53,59.9,53.2z M59.2,53h-0.3l-0.1-0.1l0.1-0.1l0.4,0.1C59.3,53,59.3,53,59.2,53z M58.5,52.9L58.5,52.9l-0.4-0.1
				L58,52.7l0.1-0.1l0.4,0.1C58.6,52.8,58.6,52.8,58.5,52.9z M70.8,52.9L70.8,52.9c-0.1-0.1-0.1-0.1-0.1-0.2
				c0.1-0.1,0.1-0.2,0.2-0.3c0,0,0.1-0.1,0.1,0c0,0,0.1,0.1,0,0.1C71,52.6,71,52.7,70.8,52.9z M57.9,52.8L57.9,52.8l-0.4-0.1
				l-0.1-0.1l0.1-0.1l0.4,0.1C58,52.6,58,52.6,57.9,52.8z M57.2,52.6L57.2,52.6l-0.4-0.1l-0.1-0.1l0.1-0.1l0.4,0.1
				C57.3,52.4,57.3,52.5,57.2,52.6z M56.6,52.4L56.6,52.4l-0.4-0.1l-0.1-0.1l0.1-0.1l0.4,0.1C56.7,52.3,56.7,52.3,56.6,52.4
				L56.6,52.4z M55.9,52.2L55.9,52.2l-0.4-0.1L55.4,52l0.1-0.1l0.4,0.1V52.2z M71.1,52.2L71.1,52.2C71,52.2,71,52.1,71.1,52.2L71,52
				v-0.2c0-0.1,0-0.1,0.1-0.1s0.1,0,0.1,0.1C71.2,51.9,71.2,52.1,71.1,52.2C71.2,52,71.2,52.1,71.1,52.2z M55.2,52h-0.3l-0.1-0.1
				l0.1-0.1l0.4,0.1C55.3,52,55.3,52,55.2,52z M54.6,51.8L54.6,51.8l-0.4-0.1l-0.1-0.1l0.1-0.1l0.4,0.1
				C54.7,51.8,54.7,51.8,54.6,51.8z M53.9,51.8L53.9,51.8l-0.4-0.1l-0.1-0.1l0.1-0.1l0.4,0.1C54,51.6,54,51.6,53.9,51.8z M71,51.6
				L71,51.6c-0.1-0.2-0.2-0.3-0.3-0.4v-0.1h0.1c0.1,0.1,0.1,0.2,0.2,0.3S71.1,51.6,71,51.6z M53.3,51.6L53.3,51.6l-0.4-0.1l-0.1-0.1
				l0.1-0.1l0.4,0.1C53.3,51.4,53.4,51.4,53.3,51.6z M52.5,51.4L52.5,51.4l-0.4-0.1L52,51.2l0.1-0.1l0.4,0.1
				C52.6,51.2,52.7,51.3,52.5,51.4z M51.9,51.3L51.9,51.3l-0.4-0.1c-0.1,0-0.1,0-0.1-0.1s0-0.1,0.1-0.1l0,0l0.4,0.1
				C52,51.1,52,51.1,51.9,51.3C52,51.2,52,51.3,51.9,51.3z M51.2,51.1L51.2,51.1L50.9,51c-0.1,0-0.1,0-0.1-0.1l0.1-0.1l0.4,0.1
				C51.3,51,51.3,51,51.2,51.1z M50.6,51L50.6,51l-0.4-0.1c-0.1,0-0.1,0-0.1-0.1l0.1-0.1l0.4,0.1C50.6,50.8,50.7,50.8,50.6,51z
				 M70.6,51L70.6,51l-0.3-0.3v-0.1h0.1C70.5,50.7,70.6,50.8,70.6,51C70.7,50.8,70.7,50.9,70.6,51z M49.9,50.8L49.9,50.8l-0.4-0.1
				c-0.1,0-0.1,0-0.1-0.1l0.1-0.1l0.4,0.1C49.9,50.7,50.1,50.8,49.9,50.8z M49.2,50.8L49.2,50.8l-0.4-0.1c-0.1,0-0.1,0-0.1-0.1
				l0.1-0.1l0.4,0.1C49.3,50.6,49.3,50.6,49.2,50.8C49.3,50.7,49.3,50.8,49.2,50.8z M48.6,50.6L48.6,50.6l-0.4-0.1l-0.1-0.1
				c0-0.1,0-0.1,0.1-0.1l0.4,0.1C48.7,50.4,48.7,50.5,48.6,50.6z M70.2,50.5L70.2,50.5l-0.3-0.3v-0.1H70
				C70.1,50.2,70.2,50.3,70.2,50.5z M47.9,50.5L47.9,50.5l-0.4-0.1c-0.1,0-0.1,0-0.1-0.1l0.1-0.1l0.4,0.1C48,50.3,48,50.3,47.9,50.5
				z M47.3,50.3L47.3,50.3l-0.4-0.1c-0.1,0-0.1,0-0.1-0.1s0-0.1,0.1-0.1l0.4,0.1C47.4,50.2,47.4,50.2,47.3,50.3L47.3,50.3z
				 M46.5,50.2L46.5,50.2l-0.4-0.1c-0.1,0-0.1,0-0.1-0.1l0,0l0.1-0.1l0.4,0.1C46.6,50,46.6,50,46.5,50.2
				C46.6,50.1,46.6,50.2,46.5,50.2z M45.9,50L45.9,50l-0.4-0.1c-0.1,0-0.1,0-0.1-0.1l0.1-0.1l0.4,0.1C46,49.8,46,49.9,45.9,50z
				 M69.7,50L69.7,50l-0.3-0.3v-0.1h0.1c0.1,0.1,0.2,0.2,0.3,0.2C69.8,49.9,69.8,49.9,69.7,50z M45.2,49.9L45.2,49.9l-0.4-0.1
				c-0.1,0-0.1,0-0.1-0.1l0.1-0.1l0.4,0.1C45.3,49.7,45.3,49.7,45.2,49.9z M44.6,49.7L44.6,49.7l-0.4-0.1l-0.1-0.1
				c0-0.1,0-0.1,0.1-0.1l0.4,0.1C44.7,49.6,44.7,49.6,44.6,49.7L44.6,49.7z M43.9,49.6L43.9,49.6l-0.4-0.1h-0.1l0.1-0.1L43.9,49.6z
				 M69.2,49.5L69.2,49.5L69,49.4v-0.1h0.1C69.1,49.3,69.2,49.5,69.2,49.5z M43.2,49.5L43.2,49.5l-0.4-0.1c-0.1,0-0.1,0-0.1-0.1
				s0-0.1,0.1-0.1l0,0l0.4,0.1C43.3,49.3,43.3,49.4,43.2,49.5z M42.6,49.4L42.6,49.4l-0.4-0.1c-0.1,0-0.1,0-0.1-0.1s0-0.1,0.1-0.1
				l0,0l0.4,0.1C42.7,49.2,42.7,49.2,42.6,49.4z M41.9,49.2L41.9,49.2l-0.4-0.1V49l0.1-0.1L42,49C41.9,49,42,49.1,41.9,49.2z
				 M41.2,49L41.2,49l-0.4-0.1l-0.1-0.1l0.1-0.1l0.4,0.1C41.3,48.9,41.3,48.9,41.2,49z M40.5,48.9L40.5,48.9l-0.4-0.1L40,48.7
				l0.1-0.1l0.4,0.1C40.6,48.7,40.6,48.8,40.5,48.9z M39.9,48.7L39.9,48.7l-0.4-0.1l-0.1-0.1l0.1-0.1l0.4,0.1
				C40,48.6,40,48.6,39.9,48.7z M39.2,48.6L39.2,48.6l-0.4-0.1c-0.1,0-0.1,0-0.1-0.1l0.1-0.1l0.4,0.1C39.3,48.5,39.3,48.5,39.2,48.6
				L39.2,48.6z M38.6,48.4L38.6,48.4l-0.4-0.1c-0.1,0-0.1,0-0.1-0.1l0.1-0.1l0.4,0.1C38.6,48.3,38.7,48.3,38.6,48.4z M37.9,48.3
				L37.9,48.3l-0.4-0.1h-0.1c0-0.1,0-0.1,0.1-0.1C37.5,48.1,37.9,48.3,37.9,48.3z M37.2,48.2h-0.4l-0.1-0.1l0.1-0.1
				C36.8,48,37.2,48.2,37.2,48.2z M36.6,48.1L36.6,48.1L36.2,48c-0.1,0-0.1,0-0.1-0.1l0.1-0.1l0.4,0.1C36.7,48,36.7,48,36.6,48.1
				L36.6,48.1z M35.9,47.9L35.9,47.9l-0.4-0.1l-0.1-0.1l0.1-0.1l0.4,0.1C35.9,47.8,36,47.8,35.9,47.9z M35.2,47.8L35.2,47.8
				l-0.4-0.1l-0.1-0.1c0-0.1,0-0.1,0.1-0.1l0.4,0.1C35.3,47.6,35.3,47.7,35.2,47.8z M34.5,47.6L34.5,47.6l-0.4-0.1L34,47.4
				c0-0.1,0-0.1,0.1-0.1l0.4,0.1C34.6,47.5,34.6,47.5,34.5,47.6z M33.9,47.5L33.9,47.5l-0.4-0.1l-0.1-0.1l0.1-0.1l0.4,0.1
				C34,47.3,34,47.4,33.9,47.5z M33.2,47.3L33.2,47.3l-0.4-0.1c-0.1,0-0.1,0-0.1-0.1s0-0.1,0.1-0.1l0,0l0.4,0.1
				C33.2,47.2,33.3,47.2,33.2,47.3z M32.5,47.2L32.5,47.2l-0.3-0.1c-0.1,0-0.1,0-0.1-0.1s0-0.1,0.1-0.1l0,0l0.4,0.1
				C32.6,47.1,32.6,47.1,32.5,47.2C32.6,47.1,32.6,47.2,32.5,47.2L32.5,47.2z M31.9,47h-0.4c-0.1,0-0.1,0-0.1-0.1l0.1-0.1
				C31.5,46.8,31.9,47,31.9,47z M31.2,47L31.2,47l-0.4-0.1l-0.1-0.1c0-0.1,0-0.1,0.1-0.1l0.4,0.1C31.3,46.8,31.3,46.9,31.2,47z
				 M30.6,46.8L30.6,46.8l-0.4-0.1l-0.1-0.1l0.1-0.1l0.4,0.1C30.6,46.7,30.7,46.7,30.6,46.8z M29.8,46.7L29.8,46.7l-0.4-0.1v-0.1
				l0.1-0.1l0.4,0.1C29.9,46.6,29.9,46.6,29.8,46.7C29.9,46.6,29.9,46.7,29.8,46.7L29.8,46.7z M29.2,46.5L29.2,46.5l-0.4-0.1
				l-0.1-0.1c0-0.1,0-0.1,0.1-0.1l0.4,0.1C29.3,46.4,29.3,46.4,29.2,46.5z M28.5,46.4L28.5,46.4l-0.4-0.1c-0.1,0-0.1,0-0.1-0.1
				s0-0.1,0.1-0.1l0.4,0.1C28.6,46.2,28.6,46.2,28.5,46.4z M27.9,46.2L27.9,46.2l-0.4-0.1c-0.1,0-0.1,0-0.1-0.1l0.1-0.1l0.4,0.1
				C28,46.1,28,46.1,27.9,46.2L27.9,46.2z M27.2,46.1L27.2,46.1L26.8,46c-0.1,0-0.1,0-0.1-0.1l0.1-0.1l0.4,0.1
				C27.2,45.9,27.2,45.9,27.2,46.1z M26.5,45.9L26.5,45.9l-0.4-0.1c-0.1,0-0.1,0-0.1-0.1l0.1-0.1l0.4,0.1
				C26.6,45.8,26.6,45.8,26.5,45.9z M25.9,45.8L25.9,45.8l-0.4-0.1h-0.1c0-0.1,0-0.1,0.1-0.1C25.5,45.6,25.9,45.8,25.9,45.8z
				 M25.2,45.7L25.2,45.7l-0.4-0.1l-0.1-0.1l0.1-0.1l0.4,0.1C25.3,45.6,25.3,45.6,25.2,45.7L25.2,45.7z M24.6,45.6L24.6,45.6
				l-0.4-0.1l-0.1-0.1l0.1-0.1l0.4,0.1V45.6z M23.8,45.4L23.8,45.4l-0.4-0.1c-0.1,0-0.1,0-0.1-0.1l0.1-0.1l0.4,0.1
				C23.9,45.2,23.9,45.3,23.8,45.4z M23.2,45.3L23.2,45.3l-0.4-0.1c-0.1,0-0.1,0-0.1-0.1l0.1-0.1l0.4,0.1
				C23.3,45.1,23.3,45.1,23.2,45.3z M22.5,45.1L22.5,45.1L22.2,45c-0.1,0-0.1,0-0.1-0.1l0.1-0.1l0.4,0.1
				C22.5,44.9,22.6,45,22.5,45.1z M21.9,45L21.9,45l-0.4-0.1c-0.1,0-0.1,0-0.1-0.1l0.1-0.1l0.4,0.1C21.9,44.8,22,44.8,21.9,45z"/>
		</g>
		<g id="XMLID_303_">
			<path id="XMLID_159_" class="st0" d="M21.5,30.6L21.5,30.6c-0.1-0.1-0.1-0.2,0-0.2h0.4c0.1,0,0.1,0,0.1,0.1s0,0.1-0.1,0.1H21.5z
				 M22.2,30.5L22.2,30.5c-0.1-0.1-0.1-0.2,0-0.2h0.4c0.1,0,0.1,0,0.1,0.1s0,0.1-0.1,0.1H22.2z M22.9,30.4L22.9,30.4
				c-0.1-0.1-0.1-0.2,0-0.2h0.4c0.1,0,0.1,0,0.1,0.1s0,0.1-0.1,0.1H22.9z M23.5,30.4L23.5,30.4c-0.1-0.1-0.1-0.2,0-0.2h0.4
				c0.1,0,0.1,0,0.1,0.1l0,0c0,0.1,0,0.1-0.1,0.1H23.5z M24.3,30.3L24.3,30.3c-0.1-0.1-0.1-0.2,0-0.2h0.4c0.1,0,0.1,0,0.1,0.1
				s0,0.1-0.1,0.1H24.3z M24.9,30.2L24.9,30.2c-0.1-0.1-0.1-0.2,0-0.2h0.4c0.1,0,0.1,0,0.1,0.1s0,0.1-0.1,0.1H24.9z M25.6,30.2
				L25.6,30.2c-0.1-0.1-0.1-0.2,0-0.2H26c0.1,0,0.1,0,0.1,0.1s0,0.1-0.1,0.1H25.6z M26.3,30.1L26.3,30.1c-0.1-0.1-0.1-0.2,0-0.2h0.4
				c0.1,0,0.1,0,0.1,0.1s0,0.1-0.1,0.1H26.3z M27,30.1L27,30.1c-0.1-0.1-0.1-0.2,0-0.2h0.4c0.1,0,0.1,0,0.1,0.1s0,0.1-0.1,0.1H27z
				 M27.6,30L27.6,30C27.5,29.9,27.6,29.9,27.6,30l0.4-0.1c0.1,0,0.1,0,0.1,0.1s0,0.1-0.1,0.1L27.6,30z M28.4,30
				C28.3,30,28.3,29.9,28.4,30c-0.1-0.1-0.1-0.2,0-0.2h0.4c0.1,0,0.1,0,0.1,0.1s0,0.1-0.1,0.1H28.4z M29,29.9L29,29.9
				c-0.1-0.1-0.1-0.2,0-0.2h0.4c0.1,0,0.1,0,0.1,0.1s0,0.1-0.1,0.1H29z M29.6,29.8L29.6,29.8c-0.1-0.1-0.1-0.2,0-0.2H30
				c0.1,0,0.1,0,0.1,0.1s0,0.1-0.1,0.1H29.6z M30.4,29.7L30.4,29.7c-0.1-0.1-0.1-0.2,0-0.2h0.4c0.1,0,0.1,0,0.1,0.1s0,0.1-0.1,0.1
				H30.4z M31,29.7L31,29.7c-0.1-0.1-0.1-0.2,0-0.2h0.4c0.1,0,0.1,0,0.1,0.1l0,0c0,0.1,0,0.1-0.1,0.1H31z M31.8,29.6L31.8,29.6
				c-0.1-0.1-0.1-0.2,0-0.2h0.4c0.1,0,0.1,0,0.1,0.1s0,0.1-0.1,0.1H31.8z M32.4,29.5L32.4,29.5c-0.1-0.1-0.1-0.2,0-0.2h0.4
				c0.1,0,0.1,0,0.1,0.1s0,0.1-0.1,0.1H32.4z M33.1,29.4L33.1,29.4c-0.1-0.1-0.1-0.2,0-0.2h0.3c0.1,0,0.1,0,0.1,0.1s0,0.1-0.1,0.1
				H33.1z M33.8,29.4C33.7,29.4,33.7,29.3,33.8,29.4c-0.1-0.1-0.1-0.2,0-0.2h0.4c0.1,0,0.1,0,0.1,0.1s0,0.1-0.1,0.1H33.8z
				 M34.4,29.3L34.4,29.3c-0.1-0.1-0.1-0.2,0-0.2h0.4c0.1,0,0.1,0,0.1,0.1s0,0.1-0.1,0.1H34.4z M35.1,29.2L35.1,29.2
				C35,29.1,35,29,35.1,29h0.4c0.1,0,0.1,0,0.1,0.1s0,0.1-0.1,0.1H35.1z M35.8,29.1L35.8,29.1c-0.1-0.1-0.1-0.2,0-0.2h0.4
				c0.1,0,0.1,0,0.1,0.1s0,0.1-0.1,0.1H35.8z M36.5,29L36.5,29c-0.1-0.1-0.1-0.2,0-0.2h0.4c0.1,0,0.1,0,0.1,0.1s0,0.1-0.1,0.1H36.5z
				 M37.1,29L37.1,29c-0.1-0.1-0.1-0.2,0-0.2h0.4c0.1,0,0.1,0,0.1,0.1s0,0.1-0.1,0.1H37.1z M37.9,28.9L37.9,28.9
				c-0.1-0.1-0.1-0.2,0-0.2h0.4c0.1,0,0.1,0,0.1,0.1s0,0.1-0.1,0.1H37.9z M38.5,28.8L38.5,28.8c-0.1-0.1-0.1-0.2,0-0.2
				s0.3,0,0.4-0.1c0.1,0,0.1,0,0.1,0.1s0,0.1-0.1,0.1C38.8,28.8,38.7,28.8,38.5,28.8z M39.2,28.7L39.2,28.7c-0.1-0.1-0.1-0.2,0-0.2
				s0.3,0,0.4-0.1c0.1,0,0.1,0,0.1,0.1s0,0.1-0.1,0.1C39.5,28.7,39.3,28.7,39.2,28.7z M39.9,28.6L39.9,28.6c-0.1-0.1-0.1-0.2,0-0.2
				s0.3-0.1,0.4-0.1c0.1,0,0.1,0,0.1,0.1s0,0.1-0.1,0.1C40.2,28.5,40,28.6,39.9,28.6z M40.5,28.4L40.5,28.4c-0.1-0.1-0.1-0.2,0-0.2
				l0.3-0.1c0.1,0,0.1,0,0.1,0.1s0,0.1-0.1,0.1L40.5,28.4z M41.2,28.1L41.2,28.1c-0.1-0.1-0.1-0.2,0-0.2s0.2-0.1,0.3-0.1
				s0.1,0,0.1,0.1s0,0.1-0.1,0.1S41.3,28.1,41.2,28.1z M41.8,27.9L41.8,27.9c-0.1-0.1-0.1-0.2,0-0.2s0.2-0.1,0.3-0.2h0.1v0.1
				C42,27.9,41.9,27.9,41.8,27.9z M42.4,27.6L42.4,27.6c-0.1-0.1-0.1-0.1,0-0.2s0.2-0.1,0.3-0.2h0.1v0.1
				C42.7,27.5,42.6,27.5,42.4,27.6z M42.9,27.2L42.9,27.2c-0.1-0.1-0.1-0.1-0.1-0.2l0.3-0.3h0.1v0.1C43.2,27,43.1,27.1,42.9,27.2z
				 M43.4,26.6L43.4,26.6c0-0.2,0-0.3,0.1-0.4c0,0,0.1-0.1,0.1,0c0,0,0.1,0.1,0,0.1C43.6,26.5,43.6,26.5,43.4,26.6z M43.8,26.1
				L43.8,26.1C43.7,26.1,43.7,26,43.8,26.1c-0.1-0.2,0-0.3,0-0.4l0.1-0.1l0.1,0.1C43.9,25.8,43.9,25.9,43.8,26.1z M43.9,25.5
				L43.9,25.5c-0.1-0.2-0.1-0.3,0-0.5c0-0.1,0-0.1,0.1-0.1s0.1,0,0.1,0.1C44,25.2,44,25.3,43.9,25.5z M43.9,24.7L43.9,24.7
				c-0.1-0.1-0.1-0.3-0.1-0.4s0-0.1,0.1-0.1l0,0c0.1,0,0.1,0,0.1,0.1C44,24.4,44,24.6,43.9,24.7z M43.9,24.1L43.9,24.1
				c-0.1-0.2-0.1-0.3-0.1-0.5c0-0.1,0-0.1,0.1-0.1s0.1,0,0.1,0.1C44,23.8,44,23.9,43.9,24.1z M43.9,23.4L43.9,23.4
				c-0.1-0.2-0.1-0.3-0.1-0.5c0-0.1,0-0.1,0.1-0.1s0.1,0,0.1,0.1C44,23.1,44,23.2,43.9,23.4C44,23.3,44,23.4,43.9,23.4z M43.9,22.7
				L43.9,22.7c-0.1-0.2-0.1-0.3-0.1-0.5c0-0.1,0-0.1,0.1-0.1s0.1,0,0.1,0.1C44,22.4,44,22.5,43.9,22.7z M43.9,22L43.9,22
				c-0.1-0.2-0.1-0.3-0.1-0.5c0-0.1,0-0.1,0.1-0.1s0.1,0,0.1,0.1C43.9,21.7,43.9,21.8,43.9,22z M43.9,21.3L43.9,21.3l-0.1-0.5
				c0-0.1,0-0.1,0.1-0.1s0.1,0,0.1,0.1L43.9,21.3z M43.8,20.6L43.8,20.6l-0.1-0.5c0-0.1,0-0.1,0.1-0.1s0.1,0,0.1,0.1L43.8,20.6z
				 M43.7,20L43.7,20l-0.1-0.5c0-0.1,0-0.1,0.1-0.1s0.1,0,0.1,0.1L43.7,20C43.8,19.9,43.8,20,43.7,20z M43.7,19.3L43.7,19.3
				l-0.1-0.5c0-0.1,0-0.1,0.1-0.1s0.1,0,0.1,0.1L43.7,19.3z M43.6,18.6L43.6,18.6l-0.1-0.5c0-0.1,0-0.1,0.1-0.1s0.1,0,0.1,0.1
				L43.6,18.6C43.7,18.5,43.7,18.6,43.6,18.6z M43.5,18L43.5,18l-0.1-0.4c0-0.1,0-0.1,0.1-0.1s0.1,0,0.1,0.1L43.5,18z M43.4,17.2
				L43.4,17.2l-0.1-0.4c0-0.1,0-0.1,0.1-0.1s0.1,0,0.1,0.1L43.4,17.2z M43.3,16.6L43.3,16.6l-0.1-0.4c0-0.1,0-0.1,0.1-0.1
				s0.1,0,0.1,0.1L43.3,16.6C43.4,16.5,43.4,16.6,43.3,16.6z M43.3,15.8L43.3,15.8l-0.1-0.4c0-0.1,0-0.1,0.1-0.1s0.1,0,0.1,0.1
				L43.3,15.8z M43.2,15.2L43.2,15.2l-0.1-0.4c0-0.1,0-0.1,0.1-0.1s0.1,0,0.1,0.1L43.2,15.2z M43.1,14.6C43,14.6,43,14.5,43.1,14.6
				L43,14.2c0-0.1,0-0.1,0.1-0.1s0.1,0,0.1,0.1L43.1,14.6z M43,13.8L43,13.8l-0.1-0.4l0,0c0-0.1,0-0.1,0.1-0.1s0.1,0,0.1,0.1
				C43.1,13.4,43,13.8,43,13.8z"/>
		</g>
		<g id="XMLID_302_">
			<path id="XMLID_153_" class="st0" d="M23.8,60.7L23.8,60.7c-0.1,0-0.2-0.1-0.3-0.4v-0.1h0.1c0.1,0.1,0.1,0.2,0.2,0.3
				C23.9,60.6,23.8,60.6,23.8,60.7z M23.4,60.1L23.4,60.1c-0.1-0.1-0.2-0.2-0.2-0.4v-0.1h0.2c0.1,0.1,0.1,0.2,0.2,0.3
				C23.5,60,23.5,60.1,23.4,60.1z M23.2,59.5L23.2,59.5c-0.1-0.2-0.2-0.3-0.2-0.4V59h0.1c0.1,0.1,0.1,0.2,0.2,0.3
				C23.3,59.4,23.2,59.4,23.2,59.5z M22.9,58.9L22.9,58.9c-0.1-0.2-0.2-0.3-0.2-0.4c0-0.1,0-0.1,0.1-0.1s0.1,0,0.1,0.1
				S23,58.7,22.9,58.9z M22.6,58.2L22.6,58.2c-0.1-0.1-0.1-0.2-0.2-0.3c0-0.1,0-0.1,0.1-0.1s0.1,0,0.1,0.1l0,0
				C22.6,58,22.7,58,22.6,58.2C22.7,58.1,22.7,58.2,22.6,58.2z M22.3,57.6L22.3,57.6c-0.1-0.2-0.2-0.3-0.2-0.4c0-0.1,0-0.1,0.1-0.1
				s0.1,0,0.1,0.1C22.3,57.3,22.4,57.4,22.3,57.6C22.4,57.5,22.4,57.6,22.3,57.6z M22.2,56.9L22.2,56.9c-0.1-0.2-0.2-0.3-0.2-0.4
				c0-0.1,0-0.1,0.1-0.1s0.1,0,0.1,0.1S22.3,56.7,22.2,56.9C22.3,56.8,22.3,56.9,22.2,56.9z M22,56.3L22,56.3
				c-0.1-0.2-0.2-0.3-0.2-0.4c0-0.1,0-0.1,0.1-0.1s0.1,0,0.1,0.1l0,0C22,56,22.1,56.1,22,56.3C22.1,56.2,22.1,56.3,22,56.3z
				 M21.8,55.6L21.8,55.6c-0.1-0.2-0.2-0.3-0.2-0.4c0-0.1,0-0.1,0.1-0.1s0.1,0,0.1,0.1l0,0C21.8,55.3,21.9,55.5,21.8,55.6
				C21.9,55.5,21.9,55.6,21.8,55.6z M21.6,55L21.6,55c-0.1-0.2-0.1-0.3-0.2-0.4c0-0.1,0-0.1,0.1-0.1s0.1,0,0.1,0.1l0,0
				C21.6,54.7,21.7,54.8,21.6,55C21.7,54.9,21.7,55,21.6,55z M21.4,54.3L21.4,54.3c-0.1-0.2-0.1-0.3-0.2-0.4c0-0.1,0-0.1,0.1-0.1
				s0.1,0,0.1,0.1l0,0C21.4,54,21.5,54.2,21.4,54.3z M21.3,53.6L21.3,53.6c-0.2-0.2-0.2-0.3-0.2-0.4s0-0.1,0.1-0.1s0.1,0,0.1,0.1
				C21.3,53.3,21.4,53.4,21.3,53.6z M21.1,53L21.1,53c-0.1-0.2-0.1-0.3-0.2-0.4c0-0.1,0-0.1,0.1-0.1s0.1,0,0.1,0.1V53z M21,52.3
				L21,52.3c-0.1-0.2-0.1-0.3-0.2-0.4c0-0.1,0-0.1,0.1-0.1s0.1,0,0.1,0.1V52.3z M20.9,51.7L20.9,51.7c-0.1-0.2-0.1-0.3-0.2-0.4
				c0-0.1,0-0.1,0.1-0.1s0.1,0,0.1,0.1V51.7z M20.8,50.9L20.8,50.9c-0.1-0.1-0.1-0.3-0.1-0.4c0-0.1,0-0.1,0.1-0.1s0.1,0,0.1,0.1
				s0,0.3,0.1,0.4H20.8z M20.7,50.3L20.7,50.3c-0.1-0.1-0.1-0.3-0.1-0.4c0-0.1,0-0.1,0.1-0.1s0.1,0,0.1,0.1s0,0.3,0.1,0.4
				C20.8,50.2,20.8,50.3,20.7,50.3z M20.6,49.6L20.6,49.6c-0.1-0.1-0.1-0.3-0.1-0.4c0-0.1,0-0.1,0.1-0.1s0.1,0,0.1,0.1
				C20.7,49.3,20.7,49.5,20.6,49.6C20.7,49.5,20.7,49.6,20.6,49.6z M20.5,48.9L20.5,48.9l-0.1-0.4c0-0.1,0-0.1,0.1-0.1
				s0.1,0,0.1,0.1L20.5,48.9z"/>
		</g>
		<g id="XMLID_301_">
			<path id="XMLID_152_" class="st0" d="M73.7,67.4L73.7,67.4c-0.1,0-0.2,0-0.2-0.1s0-0.1,0.1-0.1H74c0.1,0,0.1,0,0.1,0.1
				s0,0.1-0.1,0.1H73.7z M73.3,67.4h-0.4c-0.1,0-0.1,0-0.1-0.1s0-0.1,0.1-0.1h0.4C73.4,67.2,73.4,67.2,73.3,67.4
				C73.4,67.3,73.4,67.4,73.3,67.4z M74.3,67.4L74.3,67.4c-0.1-0.1-0.1-0.2,0-0.2h0.4c0.1,0,0.1,0,0.1,0.1s0,0.1-0.1,0.1
				C74.6,67.3,74.4,67.3,74.3,67.4z M72.7,67.3h-0.4c-0.1,0-0.1,0-0.1-0.1s0-0.1,0.1-0.1h0.4C72.7,67.2,72.8,67.2,72.7,67.3z
				 M75.1,67.3L75.1,67.3c-0.1-0.1-0.1-0.2,0-0.2h0.4c0.1,0,0.1,0,0.1,0.1s0,0.1-0.1,0.1H75.1z M71.9,67.3h-0.4
				c-0.1,0-0.1,0-0.1-0.1s0-0.1,0.1-0.1h0.4C72,67.1,72,67.2,71.9,67.3z M75.7,67.3L75.7,67.3c-0.1-0.1-0.1-0.2,0-0.2h0.4
				c0.1,0,0.1,0,0.1,0.1s0,0.1-0.1,0.1H75.7z M71.3,67.3h-0.4c-0.1,0-0.1,0-0.1-0.1s0-0.1,0.1-0.1h0.4
				C71.4,67.2,71.4,67.2,71.3,67.3L71.3,67.3z M76.4,67.3L76.4,67.3c-0.1-0.1-0.1-0.2,0-0.2h0.4c0.1,0,0.1,0,0.1,0.1s0,0.1-0.1,0.1
				H76.4z M70.5,67.3h-0.4c-0.1,0-0.1,0-0.1-0.1s0-0.1,0.1-0.1h0.4C70.6,67.1,70.6,67.1,70.5,67.3C70.6,67.2,70.6,67.3,70.5,67.3z
				 M77.1,67.2L77.1,67.2C77,67.1,77,67,77.1,67h0.4c0.1,0,0.1,0,0.1,0.1s0,0.1-0.1,0.1H77.1z M69.9,67.2h-0.4c-0.1,0-0.1,0-0.1-0.1
				s0-0.1,0.1-0.1h0.4C70,67,70,67.1,69.9,67.2z M77.7,67.2L77.7,67.2c-0.1-0.1-0.1-0.2,0-0.2h0.4c0.1,0,0.1,0,0.1,0.1
				s0,0.1-0.1,0.1H77.7z M69.2,67.1h-0.4c-0.1,0-0.1,0-0.1-0.1s0-0.1,0.1-0.1h0.4C69.2,67,69.3,67,69.2,67.1z M78.4,67.1L78.4,67.1
				c-0.1-0.1-0.1-0.2,0-0.2h0.4c0.1,0,0.1,0,0.1,0.1s0,0.1-0.1,0.1H78.4z M68.5,67.1h-0.4c-0.1,0-0.1,0-0.1-0.1s0-0.1,0.1-0.1h0.4
				C68.6,66.9,68.6,66.9,68.5,67.1C68.6,67,68.6,67.1,68.5,67.1z M79.1,67L79.1,67c-0.1-0.1-0.1-0.2,0-0.2h0.4c0.1,0,0.1,0,0.1,0.1
				s0,0.1-0.1,0.1H79.1z M67.9,67h-0.4c-0.1,0-0.1,0-0.1-0.1s0-0.1,0.1-0.1h0.4C68,66.8,68,66.9,67.9,67z M79.8,67L79.8,67
				c-0.1-0.1-0.1-0.2,0-0.2h0.4c0.1,0,0.1,0,0.1,0.1s0,0.1-0.1,0.1C80.1,66.9,79.9,66.9,79.8,67z M67.2,66.9h-0.4
				c-0.1,0-0.1,0-0.1-0.1s0-0.1,0.1-0.1h0.4C67.3,66.8,67.3,66.8,67.2,66.9L67.2,66.9z M80.4,66.9L80.4,66.9c-0.1-0.1-0.1-0.2,0-0.2
				s0.3,0,0.4-0.1c0.1,0,0.1,0,0.1,0.1s0,0.1-0.1,0.1C80.7,66.8,80.5,66.8,80.4,66.9z M66.5,66.8L66.5,66.8c-0.1,0-0.3,0-0.4-0.1
				c-0.1,0-0.1,0-0.1-0.1s0-0.1,0.1-0.1s0.3,0,0.4,0.1C66.6,66.6,66.6,66.7,66.5,66.8z M81.2,66.8C81.1,66.8,81.1,66.7,81.2,66.8
				c-0.1-0.1-0.1-0.2,0-0.2s0.3,0,0.4-0.1c0.1,0,0.1,0,0.1,0.1s0,0.1-0.1,0.1C81.3,66.7,81.2,66.7,81.2,66.8z M65.8,66.7h-0.4
				c-0.1,0-0.1,0-0.1-0.1s0-0.1,0.1-0.1L65.8,66.7C65.9,66.5,65.9,66.6,65.8,66.7z M81.8,66.6L81.8,66.6c-0.1-0.1-0.1-0.2,0-0.2
				s0.3,0,0.4-0.1c0.1,0,0.1,0,0.1,0.1s0,0.1-0.1,0.1C82.1,66.6,81.9,66.6,81.8,66.6z M65.2,66.6L65.2,66.6l-0.4-0.1
				c-0.1,0-0.1,0-0.1-0.1s0-0.1,0.1-0.1l0.4,0.1C65.3,66.5,65.3,66.5,65.2,66.6L65.2,66.6z M82.5,66.5L82.5,66.5
				c-0.1-0.1-0.1-0.2,0-0.2s0.3,0,0.4-0.1c0.1,0,0.1,0,0.1,0.1s0,0.1-0.1,0.1C82.8,66.5,82.6,66.5,82.5,66.5z M64.5,66.5h-0.4
				c-0.1,0-0.1,0-0.1-0.1s0-0.1,0.1-0.1h0.4V66.5z M63.8,66.4L63.8,66.4c-0.1,0-0.3,0-0.4-0.1c-0.1,0-0.1,0-0.1-0.1l0.1-0.1
				c0.1,0,0.3,0.1,0.4,0.1C63.9,66.3,63.9,66.3,63.8,66.4z M83.2,66.4C83.1,66.4,83.1,66.3,83.2,66.4c-0.1-0.1-0.1-0.2,0-0.2
				s0.3,0,0.4-0.1c0.1,0,0.1,0,0.1,0.1s0,0.1-0.1,0.1C83.4,66.3,83.3,66.4,83.2,66.4z M83.8,66.3L83.8,66.3c-0.1-0.1-0.1-0.2,0-0.2
				S84,66,84.2,66c0.1,0,0.1,0,0.1,0.1s0,0.1-0.1,0.1C84.1,66.3,83.9,66.3,83.8,66.3z M63.2,66.3L63.2,66.3c-0.1,0-0.3-0.1-0.4-0.1
				l-0.1-0.1l0.1-0.1c0.1,0,0.2,0.1,0.4,0.1V66.3z M84.5,66.2L84.5,66.2c-0.1-0.1-0.1-0.2,0-0.2s0.2-0.1,0.4-0.1
				c0.1,0,0.1,0,0.1,0.1s0,0.1-0.1,0.1S84.6,66.1,84.5,66.2z M62.5,66.2L62.5,66.2l-0.4-0.1V66l0.1-0.1l0.4,0.1
				C62.5,66,62.6,66,62.5,66.2L62.5,66.2z M85.1,66L85.1,66c-0.1-0.1-0.1-0.2,0-0.2s0.2-0.1,0.4-0.1c0.1,0,0.1,0,0.1,0.1
				s0,0.1-0.1,0.1S85.3,66,85.1,66z M61.8,66L61.8,66l-0.3-0.1l-0.1-0.1l0.1-0.1l0.4,0.1C61.9,65.9,61.9,65.9,61.8,66z M85.8,65.8
				L85.8,65.8c-0.1-0.1-0.1-0.2,0-0.2s0.2-0.1,0.4-0.1c0.1,0,0.1,0,0.1,0.1s0,0.1-0.1,0.1C86.1,65.8,86,65.8,85.8,65.8z M61.1,65.8
				L61.1,65.8l-0.4-0.1l-0.1-0.1l0.1-0.1l0.4,0.1C61.2,65.6,61.2,65.7,61.1,65.8z M60.5,65.6L60.5,65.6l-0.4-0.1L60,65.4l0.1-0.1
				l0.4,0.1C60.6,65.5,60.6,65.5,60.5,65.6z M86.5,65.6L86.5,65.6c-0.1-0.1-0.1-0.2,0-0.2s0.2-0.1,0.4-0.1c0.1,0,0.1,0,0.1,0.1
				s0,0.1-0.1,0.1C86.8,65.6,86.6,65.6,86.5,65.6z M59.8,65.5L59.8,65.5l-0.4-0.1v-0.1l0.1-0.1l0.4,0.1L59.8,65.5z M87.2,65.4
				L87.2,65.4c-0.1-0.1-0.1-0.2,0-0.2s0.2-0.1,0.4-0.1c0.1,0,0.1,0,0.1,0.1s0,0.1-0.1,0.1C87.3,65.4,87.3,65.4,87.2,65.4z
				 M59.2,65.3L59.2,65.3l-0.4-0.1l-0.1-0.1l0.1-0.1l0.4,0.1C59.2,65.2,59.3,65.2,59.2,65.3z M87.8,65.2L87.8,65.2
				c-0.1-0.1-0.1-0.2,0-0.2s0.2-0.1,0.4-0.1c0.1,0,0.1,0,0.1,0.1s0,0.1-0.1,0.1C88.1,65.2,87.9,65.2,87.8,65.2z M58.4,65.2
				L58.4,65.2L58,65.1c-0.1,0-0.1,0-0.1-0.1l0.1-0.1l0.4,0.1C58.5,65.1,58.5,65.1,58.4,65.2z M57.8,65.1L57.8,65.1L57.4,65
				c-0.1,0-0.1,0-0.1-0.1s0-0.1,0.1-0.1l0,0l0.4,0.1C57.9,64.9,57.9,65,57.8,65.1z M88.5,65.1L88.5,65.1c-0.1-0.1-0.1-0.2,0-0.2
				s0.2-0.1,0.4-0.1c0.1,0,0.1,0,0.1,0.1s0,0.1-0.1,0.1C88.6,65,88.6,65,88.5,65.1z M57.2,64.9L57.2,64.9l-0.4-0.1
				c-0.1,0-0.1,0-0.1-0.1s0-0.1,0.1-0.1l0.4,0.1V64.9z M89.1,64.9C89,64.9,89,64.8,89.1,64.9c-0.1-0.1-0.1-0.2,0-0.2
				s0.2-0.1,0.3-0.1c0.1,0,0.1,0,0.1,0.1s0,0.1-0.1,0.1S89.2,64.8,89.1,64.9z M56.5,64.8L56.5,64.8l-0.4-0.1c-0.1,0-0.1,0-0.1-0.1
				s0-0.1,0.1-0.1l0.4,0.1C56.6,64.7,56.6,64.7,56.5,64.8L56.5,64.8z M55.8,64.7L55.8,64.7l-0.4-0.1c-0.1,0-0.1,0-0.1-0.1
				s0-0.1,0.1-0.1l0.4,0.1C55.9,64.5,55.9,64.5,55.8,64.7C55.9,64.6,55.9,64.7,55.8,64.7L55.8,64.7z M89.7,64.6L89.7,64.6
				c-0.1-0.1-0.1-0.2,0-0.2s0.2-0.1,0.3-0.1c0.1,0,0.1,0,0.1,0.1s0,0.1-0.1,0.1S89.8,64.6,89.7,64.6z M55.1,64.5L55.1,64.5l-0.4-0.1
				c-0.1,0-0.1,0-0.1-0.1s0-0.1,0.1-0.1l0,0l0.4,0.1C55.2,64.4,55.2,64.4,55.1,64.5z M54.5,64.4L54.5,64.4l-0.4-0.1
				c-0.1,0-0.1,0-0.1-0.1s0-0.1,0.1-0.1l0.4,0.1C54.6,64.2,54.6,64.3,54.5,64.4z M90.4,64.3L90.4,64.3c-0.1-0.1-0.1-0.2,0-0.2
				s0.2-0.1,0.3-0.1c0.1,0,0.1,0,0.1,0.1s0,0.1-0.1,0.1C90.6,64.2,90.5,64.3,90.4,64.3z M53.8,64.3L53.8,64.3l-0.4-0.1
				c-0.1,0-0.1,0-0.1-0.1l0.1-0.1l0.4,0.1C53.9,64.2,53.9,64.2,53.8,64.3L53.8,64.3z M53.1,64.2L53.1,64.2c-0.1,0-0.3,0-0.4-0.1
				c-0.1,0-0.1,0-0.1-0.1s0-0.1,0.1-0.1l0,0c0.1,0,0.3,0,0.4,0.1C53.2,64,53.2,64,53.1,64.2C53.2,64.1,53.2,64.2,53.1,64.2
				L53.1,64.2z M91,64.1L91,64.1c-0.1-0.1-0.1-0.2,0-0.2s0.2-0.1,0.3-0.1c0.1,0,0.1,0,0.1,0.1s0,0.1-0.1,0.1
				C91.2,64,91.1,64,91,64.1z M52.4,64.1L52.4,64.1L52.1,64C52,64,52,64,52,63.9s0-0.1,0.1-0.1L52.4,64.1z M51.8,64L51.8,64
				l-0.4-0.1c-0.1,0-0.1,0-0.1-0.1s0-0.1,0.1-0.1l0,0l0.4,0.1C51.8,63.9,51.9,63.9,51.8,64z M51.1,63.9h-0.4c-0.1,0-0.1,0-0.1-0.1
				s0-0.1,0.1-0.1l0,0h0.4C51.2,63.8,51.2,63.8,51.1,63.9z M91.6,63.9L91.6,63.9c-0.1-0.1-0.1-0.2,0-0.2s0.2-0.1,0.3-0.1H92v0.1
				C91.9,63.8,91.8,63.8,91.6,63.9z M50.4,63.9H50c-0.1,0-0.1,0-0.1-0.1s0-0.1,0.1-0.1l0,0h0.4C50.5,63.7,50.5,63.7,50.4,63.9z
				 M49.8,63.8h-0.4c-0.1,0-0.1,0-0.1-0.1s0-0.1,0.1-0.1l0,0h0.4C49.8,63.6,49.9,63.6,49.8,63.8z M49,63.7h-0.4
				c-0.1,0-0.1,0-0.1-0.1s0-0.1,0.1-0.1H49C49.1,63.5,49.1,63.5,49,63.7C49.1,63.6,49.1,63.7,49,63.7z M92.2,63.6L92.2,63.6
				c-0.1-0.1-0.1-0.2,0-0.2s0.2-0.1,0.3-0.1h0.1v0.1C92.5,63.5,92.4,63.5,92.2,63.6z M48.4,63.6H48c-0.1,0-0.1,0-0.1-0.1l0.1-0.1
				h0.4C48.5,63.4,48.5,63.5,48.4,63.6L48.4,63.6z M47.7,63.5h-0.4c-0.1,0-0.1,0-0.1-0.1s0-0.1,0.1-0.1h0.4
				C47.8,63.4,47.8,63.4,47.7,63.5L47.7,63.5z M47,63.5h-0.4c-0.1,0-0.1,0-0.1-0.1s0-0.1,0.1-0.1H47C47.1,63.3,47.1,63.3,47,63.5
				C47.1,63.4,47.1,63.5,47,63.5L47,63.5z M46.4,63.4H46c-0.1,0-0.1,0-0.1-0.1s0-0.1,0.1-0.1h0.4V63.4L46.4,63.4z M45.6,63.3h-0.4
				c-0.1,0-0.1,0-0.1-0.1s0-0.1,0.1-0.1h0.4C45.7,63.2,45.7,63.2,45.6,63.3z M92.9,63.3L92.9,63.3c-0.1-0.1-0.1-0.2,0-0.2
				c0.1-0.1,0.2-0.1,0.3-0.2h0.1V63C93.2,63.2,93.1,63.2,92.9,63.3L92.9,63.3z M45,63.3h-0.4c-0.1,0-0.1,0-0.1-0.1s0-0.1,0.1-0.1H45
				C45.1,63.1,45.1,63.1,45,63.3C45.1,63.2,45.1,63.3,45,63.3z M44.3,63.2h-0.4c-0.1,0-0.1,0-0.1-0.1s0-0.1,0.1-0.1h0.4
				C44.4,63.1,44.4,63.1,44.3,63.2L44.3,63.2z M43.6,63.2h-0.4c-0.1,0-0.1,0-0.1-0.1s0-0.1,0.1-0.1h0.4C43.7,63,43.7,63,43.6,63.2
				C43.7,63.1,43.7,63.2,43.6,63.2z M42.9,63.1h-0.4c-0.1,0-0.1,0-0.1-0.1s0-0.1,0.1-0.1h0.4C43,63,43,63,42.9,63.1z M42.3,63.1
				h-0.4c-0.1,0-0.1,0-0.1-0.1s0-0.1,0.1-0.1h0.4C42.4,63,42.4,63,42.3,63.1L42.3,63.1z M41.6,63.1h-0.4c-0.1,0-0.1,0-0.1-0.1
				s0-0.1,0.1-0.1h0.4V63.1z M40.9,63.1h-0.4c-0.1,0-0.1,0-0.1-0.1s0-0.1,0.1-0.1h0.4C40.9,62.9,41,62.9,40.9,63.1z M40.2,63h-0.4
				c-0.1,0-0.1,0-0.1-0.1s0-0.1,0.1-0.1h0.4C40.3,62.8,40.3,62.9,40.2,63z M39.5,63h-0.4C39,63,39,63,39,62.9s0-0.1,0.1-0.1h0.4
				C39.6,62.8,39.6,62.9,39.5,63z M38.9,63h-0.4c-0.1,0-0.1,0-0.1-0.1s0-0.1,0.1-0.1h0.4C39,62.9,39,62.9,38.9,63L38.9,63z M38.1,63
				h-0.4c-0.1,0-0.1,0-0.1-0.1s0-0.1,0.1-0.1h0.4C38.2,62.8,38.2,62.9,38.1,63z M36.6,63L36.6,63c-0.2,0-0.2,0-0.2-0.1
				s0-0.1,0.1-0.1h0.4c0.1,0,0.1,0,0.1,0.1s0,0.1-0.1,0.1H36.6z M36.1,63h-0.4c-0.1,0-0.1,0-0.1-0.1s0-0.1,0.1-0.1h0.4
				C36.2,62.8,36.2,62.9,36.1,63z M37.1,63L37.1,63c-0.1-0.1-0.1-0.2,0-0.2h0.4c0.1,0,0.1,0,0.1,0.1s0,0.1-0.1,0.1L37.1,63z
				 M35.5,63h-0.4C35,63,35,63,35,62.9s0-0.1,0.1-0.1h0.4C35.6,62.9,35.6,62.9,35.5,63L35.5,63z M34.7,63h-0.3c-0.1,0-0.1,0-0.1-0.1
				s0-0.1,0.1-0.1h0.4L34.7,63C34.8,62.9,34.8,63,34.7,63z M93.5,63L93.5,63c-0.1-0.1-0.1-0.2,0-0.2c0.1-0.1,0.2-0.1,0.3-0.2h0.1
				v0.1C93.7,62.9,93.6,62.9,93.5,63z M34.1,63h-0.4c-0.1,0-0.1,0-0.1-0.1s0-0.1,0.1-0.1h0.4C34.1,62.8,34.2,62.8,34.1,63z M33.3,63
				h-0.4c-0.1,0-0.1,0-0.1-0.1s0-0.1,0.1-0.1h0.4C33.4,62.8,33.4,62.8,33.3,63C33.4,62.9,33.4,63,33.3,63z M32.7,62.9h-0.4
				c-0.1,0-0.1,0-0.1-0.1s0-0.1,0.1-0.1h0.4C32.8,62.8,32.8,62.8,32.7,62.9z M32,62.9h-0.4c-0.1,0-0.1,0-0.1-0.1s0-0.1,0.1-0.1H32
				C32,62.8,32.1,62.8,32,62.9z M31.3,62.9h-0.4c-0.1,0-0.1,0-0.1-0.1s0-0.1,0.1-0.1h0.4C31.4,62.8,31.4,62.8,31.3,62.9
				C31.4,62.8,31.4,62.9,31.3,62.9z M30.7,62.8h-0.4c-0.1,0-0.1,0-0.1-0.1s0-0.1,0.1-0.1h0.4C30.7,62.7,30.8,62.8,30.7,62.8z
				 M30,62.8h-0.4c-0.1,0-0.1,0-0.1-0.1s0-0.1,0.1-0.1H30C30,62.7,30.1,62.7,30,62.8z M29.3,62.8h-0.4c-0.1,0-0.1,0-0.1-0.1
				s0-0.1,0.1-0.1h0.4C29.4,62.7,29.4,62.7,29.3,62.8z M28.6,62.8h-0.4c-0.1,0-0.1,0-0.1-0.1s0-0.1,0.1-0.1h0.4
				C28.6,62.6,28.7,62.6,28.6,62.8z M94.1,62.8L94.1,62.8c-0.1-0.1-0.1-0.2,0-0.2c0.1-0.1,0.2-0.1,0.3-0.2h0.1v0.1
				C94.4,62.6,94.3,62.7,94.1,62.8z M27.9,62.7h-0.4c-0.1,0-0.1,0-0.1-0.1s0-0.1,0.1-0.1h0.4C28,62.5,28,62.6,27.9,62.7z M27.2,62.6
				h-0.4c-0.1,0-0.1,0-0.1-0.1s0-0.1,0.1-0.1h0.4C27.3,62.5,27.3,62.5,27.2,62.6z M26.6,62.5h-0.4c-0.1,0-0.1,0-0.1-0.1
				s0-0.1,0.1-0.1h0.4C26.6,62.4,26.7,62.4,26.6,62.5z M25.9,62.5L25.9,62.5c-0.1,0-0.3,0-0.4-0.1c-0.1,0-0.1,0-0.1-0.1
				s0-0.1,0.1-0.1l0,0c0.1,0,0.3,0,0.4,0.1V62.5z M94.7,62.4L94.7,62.4c-0.1-0.1-0.1-0.2,0-0.2c0.1-0.1,0.2-0.1,0.3-0.2h0.1v0.1
				C95,62.3,94.9,62.4,94.7,62.4z M25.2,62.3L25.2,62.3c-0.1,0-0.3,0-0.4-0.1c0,0.1-0.1,0,0,0c0-0.1,0-0.1,0.1-0.1
				C25,62.1,25.1,62.1,25.2,62.3z M24.6,62.2L24.6,62.2c-0.1,0-0.3,0-0.4-0.1c-0.1,0-0.1,0-0.1-0.1s0-0.1,0.1-0.1l0,0
				c0.1,0,0.3,0,0.4,0.1V62.2z M23.9,62.1L23.9,62.1c-0.1,0-0.3-0.1-0.4-0.1s-0.1,0-0.1-0.1s0-0.1,0.1-0.1l0,0c0.1,0,0.3,0,0.4,0.1
				S24,62,23.9,62.1L23.9,62.1z M95.3,62.1L95.3,62.1c-0.1-0.1-0.1-0.1,0-0.2s0.2-0.1,0.3-0.2h0.1v0.1C95.6,61.9,95.5,62,95.3,62.1z
				 M23.2,61.9L23.2,61.9c-0.1,0-0.3-0.1-0.4-0.1l-0.1-0.1c0-0.1,0-0.1,0.1-0.1s0.2,0.1,0.4,0.1C23.3,61.8,23.3,61.8,23.2,61.9z
				 M22.5,61.8L22.5,61.8c-0.1,0-0.3-0.1-0.4-0.1L22,61.6l0.1-0.1c0.1,0,0.2,0.1,0.4,0.1C22.6,61.6,22.6,61.7,22.5,61.8
				C22.6,61.7,22.6,61.8,22.5,61.8L22.5,61.8z M95.9,61.7L95.9,61.7c-0.1-0.1-0.1-0.1,0-0.2s0.2-0.1,0.3-0.2h0.1v0.1
				C96.2,61.6,96,61.6,95.9,61.7z M21.9,61.6L21.9,61.6c-0.1,0-0.3-0.1-0.4-0.1h-0.1l0.1-0.1C21.6,61.4,21.7,61.5,21.9,61.6z
				 M21.2,61.5L21.2,61.5c-0.2,0-0.3-0.1-0.4-0.1l-0.1-0.1l0.1-0.1c0.1,0,0.2,0.1,0.3,0.1C21.3,61.3,21.3,61.4,21.2,61.5z
				 M96.5,61.4L96.5,61.4c-0.1-0.1-0.1-0.1,0-0.2s0.2-0.1,0.3-0.2h0.1v0.1C96.8,61.3,96.7,61.4,96.5,61.4z M20.6,61.2L20.6,61.2
				c-0.2-0.1-0.3-0.1-0.4-0.2c0,0-0.1-0.1,0-0.1c0,0,0.1-0.1,0.1,0c0.1,0,0.2,0.1,0.3,0.1C20.7,61.1,20.7,61.1,20.6,61.2z
				 M97.1,61.1L97.1,61.1C97,61,97,61,97.1,60.9s0.2-0.1,0.3-0.2h0.1v0.1C97.3,60.9,97.2,61,97.1,61.1z M19.9,60.9L19.9,60.9
				c-0.2-0.1-0.3-0.1-0.4-0.2c0,0-0.1-0.1,0-0.1c0,0,0.1-0.1,0.1,0C19.8,60.7,19.8,60.7,19.9,60.9z M97.7,60.7L97.7,60.7
				c-0.1-0.1-0.1-0.1,0-0.2s0.2-0.1,0.3-0.2h0.1v0.1C98,60.5,97.9,60.6,97.7,60.7z M19.4,60.5L19.4,60.5c-0.3-0.2-0.3-0.3-0.4-0.3
				v-0.1h0.1c0.1,0.1,0.2,0.1,0.3,0.2C19.5,60.4,19.5,60.5,19.4,60.5z M98.2,60.3L98.2,60.3c-0.1-0.1-0.1-0.1-0.1-0.2
				c0.1-0.1,0.2-0.1,0.3-0.2h0.1V60C98.5,60.1,98.4,60.3,98.2,60.3C98.3,60.3,98.2,60.3,98.2,60.3L98.2,60.3z M98.8,60L98.8,60
				c-0.1-0.1-0.1-0.1-0.1-0.2c0.1-0.1,0.2-0.1,0.3-0.2h0.1v0.1C99.1,59.8,99,59.9,98.8,60z"/>
		</g>
		<g id="XMLID_276_">
			<g id="XMLID_296_">
				<path id="XMLID_630_" class="st1" d="M33,50c0-0.2,0.2-0.4,0.4-0.4s0.4,0.2,0.4,0.4s-0.2,0.4-0.4,0.4S33,50.2,33,50 M33.3,50.3
					c0.2,0,0.3-0.1,0.3-0.3s-0.1-0.3-0.3-0.3S33,49.8,33,50l0,0C33,50.2,33.1,50.3,33.3,50.3 M33.2,50.2L33.2,50.2v-0.4h0.2
					c0.1,0,0.2,0,0.2,0.1s0,0.1-0.1,0.1l0.1,0.2h-0.1L33.4,50h-0.1L33.2,50.2z M33.3,50L33.3,50c0.1-0.2,0.1-0.2,0-0.2h-0.1L33.3,50
					z"/>
			</g>
			<g id="XMLID_279_">
				<path id="XMLID_612_" class="st1" d="M30,49.9h0.2c0,0-0.3-0.7-0.4-0.9h0.3c0.1,0.2,0.2,0.5,0.4,0.7c0.3-0.1,0.5-0.2,0.7-0.4
					c0.1,0,0.1,0.1,0.2,0.1L30.7,50l0.2,0.5c0,0,0.5-0.7,0.7-0.9c0.1,0,0.2,0.1,0.2,0.2c-0.1,0.2-0.3,0.3-0.4,0.5
					c0.3,0,0.5,0,0.8,0.1c0.1,0.1,0.2,0.2,0.2,0.3h-0.7l-0.4,0.5l0.5-0.1c0.2-0.1,0.5-0.2,0.7-0.3c0.1,0.1,0.1,0.2,0.1,0.3l-0.8,0.3
					l-0.5,0.2c-0.1,0.1-0.2,0.3-0.3,0.4c0.6-0.1,1.3-0.3,1.9-0.4c0.2,0.9,0.1,1.9-0.5,2.7c-1.8,0.4-3.5-0.3-5.3-0.1h-0.5
					c-0.3-0.4-0.5-1-0.5-1.5c-0.1-0.6,0-1.2,0.3-1.8h0.8l-0.5-0.7c0-0.1,0.1-0.2,0.2-0.3c0.2,0.2,0.4,0.5,0.6,0.8h0.3l-0.7-0.9
					c0.1-0.1,0.2-0.3,0.4-0.3l0.6,0.2v-0.5c0.2-0.1,0.3-0.1,0.5-0.2c0.1,0.3,0.2,0.5,0.4,0.7c0.2-0.2,0.4-0.5,0.5-0.8h0.1L30,49.9z
					 M29.4,49.5L29,50.2l0.2,0.7l0.4-0.2l0.1-0.5C29.6,50,29.5,49.7,29.4,49.5 M28.4,49.5v0.4l0.2,0.1
					C28.5,49.8,28.4,49.7,28.4,49.5 M27.5,49.9L27.5,49.9c0.2,0.2,0.4,0.5,0.5,0.7v-0.5L27.5,49.9z M30.3,50.2l-0.2,0.1v0.1
					C30.1,50.4,30.3,50.2,30.3,50.2z M28.4,50.3V51l0.3-0.5L28.4,50.3z M31.4,50.7h-0.3l-0.4,0.5H31L31.4,50.7z M29.9,51v0.7
					l0.5-0.5c0.1,0,0.1,0,0.1-0.1l-0.1-0.3L29.9,51z M28.9,50.8l-0.2,0.3l0.3,0.4C28.9,51.3,28.9,51,28.9,50.8 M29.5,51.2l-0.1,0.1
					v0.3l0.2,0.1v-0.5C29.6,51.2,29.5,51.2,29.5,51.2z M27.5,51.1l-0.3,0.4l0.5,0.2l0.5-0.4L28,51.1H27.5z M26.4,51.1l0.5,0.3
					l0.2-0.3H26.4z M30.5,51.7L30.2,52h0.3l0.3-0.4h-0.3V51.7z M28.5,51.7l-0.9,0.7h-0.4l0.3-0.3c-0.2-0.1-0.3-0.2-0.5-0.2l-0.4,0.4
					h-0.3c0,0.3,0,0.6,0.1,0.9c0,0.1,0,0.2,0.2,0.2c0.8,0.1,1.7,0.2,2.5,0.3l0.1-1.2c0-0.1-0.2-0.3-0.2-0.3l-0.4,0.2h-0.7
					c0,0,0.6-0.3,0.9-0.5C28.7,51.8,28.6,51.7,28.5,51.7 M26.5,51.6c-0.1,0.1-0.1,0.3-0.1,0.4l0.3-0.3L26.5,51.6z M32.6,52h-0.4
					c0.1,0.2,0.3,0.5,0.3,0.5h-0.4l-0.3-0.4c-0.2,0-0.3,0-0.5,0.1l0.1,0.3h-0.3l-0.2-0.3c0,0-0.7,0.2-1.1,0.3l0,0v1.3
					c0.7,0.1,1.4,0.2,2.1,0.3H32c0.2-0.3,0.4-0.6,0.5-0.9C32.7,52.8,32.7,52.4,32.6,52"/>
			</g>
			<g id="XMLID_278_">
				<path id="XMLID_575_" class="st1" d="M32.2,54.4c-0.2,0.3-0.5,0.5-0.8,0.7c-1.6-0.1-3-0.5-4.6-0.7c-0.1,0-0.1-0.1-0.1-0.2
					c1.2-0.1,2.5-0.1,3.7,0.2C31,54.5,31.6,54.5,32.2,54.4z"/>
			</g>
			<g id="XMLID_277_">
				<path id="XMLID_151_" class="st1" d="M29.8,55.1c0.5,0.1,0.9,0.1,1.4,0.2c-1.1,0.6-2.4,0.6-3.5-0.1c-0.3-0.2-0.5-0.4-0.7-0.7
					h0.1l0.6,0.1L29.8,55.1z"/>
			</g>
		</g>
		<g id="XMLID_275_">
			<path id="XMLID_150_" class="st1" d="M51.4,19.4c-0.1,0-0.2-0.1-0.2-0.2c-1.4-2.9-5.3-2.1-5.4-2.1s-0.3-0.1-0.3-0.2
				c0-0.2,0.1-0.3,0.2-0.3c0,0,4.3-0.8,5.9,2.4c0.1,0.1,0,0.3-0.1,0.4L51.4,19.4z"/>
		</g>
		<g id="XMLID_274_">
			<path id="XMLID_149_" class="st1" d="M53.6,26c-0.1,0-0.2-0.1-0.3-0.2c-1.7-3.9-6.8-3.4-6.9-3.3c-0.2,0-0.3-0.1-0.3-0.2
				c0-0.2,0.1-0.3,0.2-0.3s5.6-0.5,7.4,3.7c0.1,0.1,0,0.3-0.1,0.4C53.7,26,53.6,26,53.6,26z"/>
		</g>
		<g id="XMLID_273_">
			<path id="XMLID_148_" class="st1" d="M52.8,27.9L52.8,27.9c-1.5-0.7-3.3-0.7-4.8,0c-0.1,0.1-0.3,0-0.4-0.1s0-0.3,0.1-0.4
				c1.6-0.8,3.5-0.8,5.1,0c0.1,0.1,0.2,0.2,0.2,0.4C52.9,27.9,52.9,27.9,52.8,27.9z"/>
		</g>
		<g id="XMLID_272_">
			<path id="XMLID_147_" class="st1" d="M56.3,32.9c-0.1,0-0.2,0-0.2-0.1c-1.8-2.1-5.5,0-5.5,0.1c-0.1,0.1-0.3,0-0.4-0.1
				s0-0.3,0.1-0.4c0.7-0.4,1.5-0.7,2.3-0.9c1.8-0.4,3-0.1,3.9,0.9c0.1,0.1,0.1,0.3,0,0.4C56.4,32.9,56.4,32.9,56.3,32.9z"/>
		</g>
		<g id="XMLID_271_">
			<path id="XMLID_146_" class="st1" d="M54.6,37.2c-0.1,0-0.2-0.1-0.2-0.2c-0.1-0.1,0-0.3,0.1-0.4c0.5-0.3,1.1-0.5,1.7-0.7
				c0.9-0.5,1.9-0.5,2.8-0.2c0.1,0.1,0.2,0.2,0.1,0.4c-0.1,0.1-0.2,0.2-0.4,0.1c-0.9-0.5-3.1,0.5-4,0.8
				C54.7,37.1,54.7,37.1,54.6,37.2z"/>
		</g>
		<g id="XMLID_270_">
			<path id="XMLID_145_" class="st1" d="M58.7,40.8c-0.1,0-0.1,0-0.2-0.1c-0.1-0.1-0.1-0.3-0.1-0.4c0.7-0.9,1.8-1.4,3-1.5
				c0.2,0,0.3,0.1,0.3,0.3s-0.1,0.3-0.3,0.3C60.4,39.5,59.4,40,58.7,40.8z"/>
		</g>
		<g id="XMLID_269_">
			<path id="XMLID_144_" class="st1" d="M63.6,43.5c-0.1,0-0.2-0.1-0.3-0.2c0-0.2,0.1-0.3,0.2-0.4c0.5-0.2,0.8-0.6,1.1-1
				c0.1-0.1,0.2-0.2,0.4-0.1c0.1,0.1,0.2,0.2,0.1,0.4C64.8,42.8,64.3,43.3,63.6,43.5z"/>
		</g>
		<g id="XMLID_268_">
			<path id="XMLID_143_" class="st1" d="M45.2,18.2L45.2,18.2l-1.1-1.3v-1.2c0-0.1,0-0.1,0.1-0.1l1-0.8h1.1l1.2,0.9
				c0.1,0.1,0.1,0.2,0,0.3c-0.1,0.1-0.2,0.1-0.3,0L46,15.1h-0.8l-0.9,0.7v0.9l0.9,1.1l1.7-0.2c0.1,0,0.2,0.1,0.2,0.2S47,18,46.9,18
				l0,0L45.2,18.2z"/>
		</g>
		<g id="XMLID_267_">
			<path id="XMLID_142_" class="st1" d="M47,23.8L47,23.8l-1.7-0.4c-0.1,0-0.1,0-0.1-0.1l-0.7-1.6v-0.2l1.2-1.2l0.1-0.1h1.4l1,0.5
				c0.1,0,0.1,0.1,0.1,0.2v0.5c0,0.1-0.1,0.2-0.2,0.2s-0.2-0.1-0.2-0.2v-0.5L47,20.4h-1.2l-1.1,1.1l0.5,1.4l1.7,0.4l0.9-0.6
				c0.1-0.1,0.2,0,0.3,0c0.1,0.1,0,0.2,0,0.3l-0.9,0.7C47.1,23.8,47.1,23.8,47,23.8z"/>
		</g>
		<g id="XMLID_266_">
			<path id="XMLID_141_" class="st1" d="M48.3,29c-0.2,0-0.4,0-0.5-0.1h-0.7c-0.1,0-0.1,0-0.2-0.1l-0.5-0.5v-0.1l-0.2-1.1V27
				l0.4-0.6l0.1-0.1l1.5-0.5h0.1l1.1,0.5c0.1,0,0.1,0.1,0.1,0.2s-0.1,0.1-0.2,0.1l-1-0.4l-1.4,0.4l-0.3,0.5l0.2,1.1l0.5,0.5
				c0.3,0,0.7-0.1,0.8,0h1l0.7-0.8c0.1-0.1,0.2-0.1,0.3,0s0.1,0.2,0,0.3L49.3,29l-0.1,0.1C48.9,29,48.6,29,48.3,29z"/>
		</g>
		<g id="XMLID_265_">
			<path id="XMLID_140_" class="st1" d="M50.4,34.3L50.4,34.3l-1.1-0.4c-0.1,0-0.1,0-0.1-0.1l-0.5-1.1v-0.1l0.4-1.3
				c0-0.1,0-0.1,0.1-0.1l0.5-0.3h0.1l1.8,0.3c0.1,0,0.2,0.1,0.2,0.2s-0.1,0.2-0.2,0.2l0,0l-1.8-0.3l-0.4,0.3l-0.5,1l0.5,1l1,0.3
				l0.9-0.3v-0.5c0-0.1,0.1-0.2,0.2-0.2s0.2,0.1,0.2,0.2l0,0v0.7c0,0.1,0,0.1-0.1,0.2C51.6,34,50.4,34.3,50.4,34.3z"/>
		</g>
		<g id="XMLID_264_">
			<path id="XMLID_139_" class="st1" d="M54.7,38.3c-0.3,0-0.5,0-0.5-0.1c-0.3-0.1-0.6-0.2-0.8-0.3c-0.4-0.2-0.5-0.7-0.5-1.3
				c0-0.3,0.1-0.6,0.2-0.9c0-0.1,0.1-0.1,0.1-0.2c0.1-0.3,0.5-0.4,1.4-0.4c0.5,0,1,0.2,1.3,0.5c0.1,0.1,0.1,0.2,0,0.3
				s-0.2,0.1-0.3,0l0,0c-0.3-0.3-0.7-0.5-1.1-0.5c-0.9,0-1,0.1-1,0.1c0,0.1,0,0.1-0.1,0.2c-0.1,0.2-0.2,0.5-0.2,0.7
				c0.1,0.5,0.2,0.9,0.5,1c0.2,0.1,0.5,0.2,0.7,0.3c0.3,0,0.7,0.1,0.7,0c0.2-0.1,0.5-0.5,0.8-0.7c0.1-0.1,0.2-0.1,0.3,0
				s0.1,0.2,0,0.3c-0.3,0.3-0.6,0.5-0.9,0.7C55,38.3,54.9,38.3,54.7,38.3z"/>
		</g>
		<g id="XMLID_263_">
			<path id="XMLID_138_" class="st1" d="M59.7,41.4h-1.2L57.6,41c-0.1,0-0.1-0.1-0.1-0.2v-1l0.7-0.7l0.1-0.1h1.2
				c0.1,0,0.2,0.1,0.2,0.2s-0.1,0.2-0.2,0.2h-1.1L57.8,40v0.8l0.7,0.5h1l0.5-0.7c0.1-0.1,0.2-0.1,0.3,0s0.1,0.2,0,0.3l0,0L59.7,41.4
				L59.7,41.4z"/>
		</g>
		<g id="XMLID_262_">
			<path id="XMLID_137_" class="st1" d="M64.3,44.6L64.3,44.6l-1.1-0.3c-0.1,0-0.1,0-0.1-0.1l-0.7-0.8l-0.1-0.1v-1.1
				c0-0.1,0.1-0.2,0.2-0.2h1c0.1,0,0.2,0.1,0.2,0.2s-0.1,0.2-0.2,0.2h-0.8v0.9l0.7,0.7l0.9,0.3l0.2-0.2v-0.4c0-0.1,0.1-0.2,0.2-0.2
				s0.2,0.1,0.2,0.2l0,0v0.6C64.9,44.3,64.3,44.6,64.3,44.6z"/>
		</g>
	</g>
	<g class="st2">
		<path d="M41.3,91.2v-7.8h2.6c0.4,0,0.8,0,1.1,0.1c0.3,0.1,0.6,0.2,0.9,0.3c0.3,0.2,0.5,0.4,0.6,0.6c0.1,0.2,0.2,0.6,0.2,0.9
			c0,0.2,0,0.4-0.1,0.5c-0.1,0.2-0.1,0.3-0.2,0.5c-0.1,0.2-0.3,0.3-0.4,0.4S45.7,87,45.5,87v0c0.6,0.1,1,0.3,1.3,0.6
			s0.4,0.7,0.4,1.2c0,0.4-0.1,0.7-0.2,1c-0.2,0.3-0.4,0.5-0.6,0.7c-0.3,0.2-0.6,0.3-1,0.4c-0.4,0.1-0.8,0.1-1.2,0.1H41.3z
			 M43.1,86.5h0.8c0.4,0,0.7-0.1,0.9-0.3c0.2-0.2,0.3-0.4,0.3-0.7c0-0.3-0.1-0.5-0.3-0.6c-0.2-0.1-0.5-0.2-0.9-0.2h-0.8V86.5z
			 M43.1,89.8H44c0.9,0,1.4-0.4,1.4-1.1c0-0.3-0.1-0.6-0.3-0.7c-0.2-0.2-0.6-0.2-1.1-0.2h-0.9V89.8z"/>
		<path d="M51.2,91.4c-0.5,0-0.9-0.1-1.3-0.3c-0.4-0.2-0.7-0.4-1-0.8c-0.3-0.3-0.5-0.8-0.6-1.3c-0.2-0.5-0.2-1.1-0.2-1.8
			c0-0.7,0.1-1.2,0.2-1.7c0.2-0.5,0.4-0.9,0.6-1.3c0.3-0.3,0.6-0.6,1-0.8c0.4-0.2,0.8-0.3,1.3-0.3c0.5,0,0.9,0.1,1.3,0.3
			s0.7,0.4,1,0.8c0.3,0.3,0.5,0.8,0.6,1.3c0.2,0.5,0.2,1.1,0.2,1.7c0,0.7-0.1,1.3-0.2,1.8c-0.2,0.5-0.4,0.9-0.6,1.3
			c-0.3,0.3-0.6,0.6-1,0.8S51.7,91.4,51.2,91.4z M51.2,89.8c0.4,0,0.7-0.2,1-0.6c0.2-0.4,0.4-1.1,0.4-1.9c0-0.8-0.1-1.4-0.4-1.9
			c-0.2-0.4-0.6-0.6-1-0.6c-0.4,0-0.7,0.2-1,0.6c-0.2,0.4-0.4,1-0.4,1.9c0,0.8,0.1,1.5,0.4,1.9C50.5,89.6,50.8,89.8,51.2,89.8z"/>
		<path d="M57.5,91.2v-6.3h-2.3v-1.5h6.5v1.5h-2.3v6.3H57.5z"/>
		<path d="M62.1,91.2l2.4-7.8h2.1l2.4,7.8h-1.9l-0.5-1.9h-2.4l-0.5,1.9H62.1z M65,87.3L64.8,88h1.6l-0.2-0.7
			c-0.1-0.4-0.2-0.8-0.3-1.2c-0.1-0.4-0.2-0.9-0.3-1.3h0c-0.1,0.4-0.2,0.8-0.3,1.3C65.2,86.5,65.1,86.9,65,87.3z"/>
		<path d="M72.8,91.4c-0.5,0-1-0.1-1.6-0.3c-0.5-0.2-1-0.5-1.4-0.8l1-1.2c0.3,0.2,0.6,0.4,1,0.6c0.4,0.2,0.7,0.2,1.1,0.2
			c0.4,0,0.7-0.1,0.8-0.2s0.3-0.3,0.3-0.5c0-0.1,0-0.2-0.1-0.3c-0.1-0.1-0.1-0.2-0.2-0.2c-0.1-0.1-0.2-0.1-0.4-0.2
			c-0.2-0.1-0.3-0.1-0.5-0.2l-1-0.4c-0.2-0.1-0.4-0.2-0.6-0.3c-0.2-0.1-0.4-0.3-0.5-0.4s-0.3-0.4-0.4-0.6c-0.1-0.2-0.1-0.5-0.1-0.8
			c0-0.3,0.1-0.6,0.2-0.9s0.3-0.5,0.6-0.7s0.6-0.4,0.9-0.5c0.4-0.1,0.7-0.2,1.2-0.2c0.5,0,0.9,0.1,1.4,0.3s0.9,0.4,1.2,0.8l-0.9,1.1
			c-0.3-0.2-0.5-0.4-0.8-0.5c-0.3-0.1-0.6-0.2-1-0.2c-0.3,0-0.5,0.1-0.7,0.2c-0.2,0.1-0.3,0.3-0.3,0.5c0,0.2,0.1,0.4,0.4,0.5
			c0.2,0.1,0.5,0.3,0.9,0.4l0.9,0.4c0.5,0.2,0.9,0.5,1.2,0.8s0.5,0.8,0.5,1.3c0,0.3-0.1,0.6-0.2,0.9c-0.1,0.3-0.3,0.5-0.6,0.8
			c-0.3,0.2-0.6,0.4-0.9,0.5S73.3,91.4,72.8,91.4z"/>
	</g>
	<g class="st2">
		<path d="M37.6,105.2v-7.8h1.8v3h2.1v-3h1.8v7.8h-1.8V102h-2.1v3.3H37.6z"/>
		<path d="M47.6,105.4c-0.5,0-0.9-0.1-1.3-0.3c-0.4-0.2-0.7-0.4-1-0.8c-0.3-0.3-0.5-0.8-0.6-1.3c-0.2-0.5-0.2-1.1-0.2-1.8
			c0-0.7,0.1-1.2,0.2-1.7c0.2-0.5,0.4-0.9,0.6-1.3c0.3-0.3,0.6-0.6,1-0.8c0.4-0.2,0.8-0.3,1.3-0.3c0.5,0,0.9,0.1,1.3,0.3
			s0.7,0.4,1,0.8c0.3,0.3,0.5,0.8,0.6,1.3c0.2,0.5,0.2,1.1,0.2,1.7c0,0.7-0.1,1.3-0.2,1.8c-0.2,0.5-0.4,0.9-0.6,1.3
			c-0.3,0.3-0.6,0.6-1,0.8S48.1,105.4,47.6,105.4z M47.6,103.8c0.4,0,0.7-0.2,1-0.6c0.2-0.4,0.4-1.1,0.4-1.9c0-0.8-0.1-1.4-0.4-1.9
			c-0.2-0.4-0.6-0.6-1-0.6c-0.4,0-0.7,0.2-1,0.6c-0.2,0.4-0.4,1-0.4,1.9c0,0.8,0.1,1.5,0.4,1.9C46.9,103.6,47.2,103.8,47.6,103.8z"
			/>
		<path d="M51.9,105.2v-7.8h1.8l0.8,2.8l0.3,1.1h0l0.3-1.1l0.8-2.8h1.8v7.8h-1.5v-2.4c0-0.2,0-0.5,0-0.8s0-0.7,0.1-1s0-0.7,0.1-1
			c0-0.3,0-0.6,0.1-0.8h0l-0.6,2.1l-0.6,1.9h-0.9l-0.6-1.9l-0.6-2.1h0c0,0.2,0,0.5,0.1,0.8s0,0.7,0.1,1c0,0.3,0,0.7,0.1,1
			c0,0.3,0,0.6,0,0.8v2.4H51.9z"/>
		<path d="M59.3,105.2v-7.8h2.6c0.4,0,0.8,0,1.1,0.1c0.3,0.1,0.6,0.2,0.9,0.3s0.5,0.4,0.6,0.6c0.1,0.2,0.2,0.6,0.2,0.9
			c0,0.2,0,0.4-0.1,0.5c-0.1,0.2-0.1,0.3-0.2,0.5c-0.1,0.2-0.3,0.3-0.4,0.4s-0.4,0.2-0.6,0.3v0c0.6,0.1,1,0.3,1.3,0.6
			c0.3,0.3,0.4,0.7,0.4,1.2c0,0.4-0.1,0.7-0.2,1c-0.2,0.3-0.4,0.5-0.6,0.7c-0.3,0.2-0.6,0.3-1,0.4s-0.8,0.1-1.2,0.1H59.3z
			 M61.1,100.5h0.8c0.4,0,0.7-0.1,0.9-0.3c0.2-0.2,0.3-0.4,0.3-0.7c0-0.3-0.1-0.5-0.3-0.6c-0.2-0.1-0.5-0.2-0.9-0.2h-0.8V100.5z
			 M61.1,103.8H62c0.9,0,1.4-0.4,1.4-1.1c0-0.3-0.1-0.6-0.3-0.7c-0.2-0.2-0.6-0.2-1.1-0.2h-0.9V103.8z"/>
		<path d="M66.5,105.2v-7.8h2.8c0.4,0,0.8,0,1.2,0.1c0.4,0.1,0.7,0.2,1,0.4c0.3,0.2,0.5,0.4,0.7,0.8c0.2,0.3,0.2,0.7,0.2,1.2
			c0,0.6-0.1,1-0.4,1.4s-0.6,0.6-1,0.8l1.8,3.1h-2l-1.5-2.8h-0.9v2.8H66.5z M68.2,101h0.9c1,0,1.4-0.4,1.4-1.2
			c0-0.4-0.1-0.7-0.4-0.8c-0.2-0.2-0.6-0.2-1.1-0.2h-0.9V101z"/>
		<path d="M73.9,105.2v-7.8h5.2v1.5h-3.4v1.6h2.9v1.5h-2.9v1.8h3.5v1.5H73.9z"/>
	</g>
</g>
</svg>
