<?xml version="1.0" encoding="utf-8"?>
<!-- Generator: Adobe Illustrator 24.3.0, SVG Export Plug-In . SVG Version: 6.00 Build 0)  -->
<svg version="1.1" id="Layer_1" xmlns="http://www.w3.org/2000/svg" xmlns:xlink="http://www.w3.org/1999/xlink" x="0px" y="0px"
	 viewBox="0 0 120 126" style="enable-background:new 0 0 120 126;" xml:space="preserve">
<style type="text/css">
	.st0{enable-background:new    ;}
</style>
<g id="expanded_1_">
	<path d="M54.6,44.6L54.6,44.6c0.2,0.2,0.2,0.1,0.2,0.1l0.3-0.3l0-0.2l-0.2,0L54.6,44.6z M54.7,44.7L54.7,44.7L54.7,44.7z M61,37.3
		l0.3-0.3l0.2,0l0,0.2l-0.3,0.3C61.1,37.3,61,37.4,61,37.3L61,37.3z M55.2,44L55.2,44L55.2,44z M53,46.4L53,46.4L53,46.4z M53.5,46
		l0,0.2c0,0.1-0.2,0.2-0.3,0.3c0,0.1,0,0.1-0.2-0.1c0-0.1,0.2-0.2,0.3-0.3L53.5,46z M53.6,45.9L53.6,45.9L53.6,45.9z M53.6,45.8
		L53.6,45.8L53.6,45.8z M53.6,45.9L53.6,45.9L53.6,45.9z M61,37.2L61,37.2L61,37.2z M61,37.2L61,37.2L61,37.2z M54,45.4l0,0.2
		l-0.3,0.3c0,0.1,0,0.1-0.2-0.1l0.3-0.3L54,45.4z M54.1,45.2L54.1,45.2L54.1,45.2z M54.5,44.8l0,0.2l-0.3,0.3c0,0.1,0,0.1-0.2-0.1
		l0.3-0.3L54.5,44.8z M59.8,38.7l0,0.2l-0.3,0.3c0,0.1-0.2,0-0.2-0.1l0.3-0.3L59.8,38.7z M55.2,44l0.3-0.3l0.2,0l0,0.2l-0.3,0.3
		C55.3,44.2,55.2,44.1,55.2,44L55.2,44z M60.9,37.5l0,0.2L60.6,38c-0.1,0-0.2,0-0.2-0.1l0.3-0.3L60.9,37.5z M60.3,38.1l0,0.2
		l-0.3,0.3c0,0.1-0.2,0-0.2-0.1l0.3-0.3L60.3,38.1z M60.4,37.9L60.4,37.9L60.4,37.9z M57.8,41.1l0,0.2l-0.3,0.3
		c-0.2,0-0.2,0-0.2-0.1l0.3-0.3L57.8,41.1z M58.8,39.9l0,0.2l-0.3,0.3c-0.2,0-0.2,0-0.2-0.1l0.3-0.3L58.8,39.9z M58.3,40.5l0,0.2
		L58.1,41c-0.2,0-0.2,0-0.2-0.1l0.3-0.3L58.3,40.5z M55.7,43.4l0.3-0.3l0.2,0l0,0.2l-0.3,0.3C55.8,43.6,55.7,43.5,55.7,43.4
		L55.7,43.4L55.7,43.4z M57.2,41.7l0,0.2L57,42.2c0,0.1-0.2,0-0.2-0.1l0.3-0.3L57.2,41.7z M56.7,42.3l0,0.2l-0.3,0.3
		c0,0.1-0.2,0-0.2-0.1l0.3-0.3L56.7,42.3z M58.8,39.7L58.8,39.7L58.8,39.7z M58.8,39.7L58.8,39.7L58.8,39.7z M58.8,39.7L58.8,39.7
		L58.8,39.7z M59.3,39.3l0,0.2L59,39.8c0,0.1,0,0.1-0.2-0.1l0.3-0.3L59.3,39.3z M59.1,38.6l0.3-0.3l0.2,0l0,0.2l-0.3,0.3
		C59.3,38.8,59.2,38.7,59.1,38.6L59.1,38.6z M58.6,39.2l0.3-0.3l0.2,0l0,0.2l-0.3,0.3C58.7,39.4,58.6,39.3,58.6,39.2L58.6,39.2z
		 M59.6,38l0.3-0.3l0.2,0l0,0.2l-0.3,0.3C59.7,38.1,59.7,38.1,59.6,38L59.6,38z M60.6,36.7L60.6,36.7L60.6,36.7z M60.2,37.4l0.3-0.3
		l0.2,0l0,0.2l-0.3,0.3C60.3,37.4,60.2,37.5,60.2,37.4z M60.8,36.8l0.3-0.3l0-0.2l-0.2,0l-0.3,0.3C60.7,36.8,60.7,36.8,60.8,36.8
		L60.8,36.8z M60.6,36.7L60.6,36.7L60.6,36.7z M53.8,45.1l-0.3,0.3c0,0.1-0.2,0-0.2-0.1l0.3-0.3l0.2,0L53.8,45.1z M54.4,44.1
		l0.3-0.3l0.2,0l0,0.2l-0.3,0.3C54.5,44.3,54.4,44.2,54.4,44.1C54.4,44.2,54.4,44.1,54.4,44.1L54.4,44.1z M53.8,44.8l0.3-0.3l0.2,0
		l0,0.2L54,44.9C54,44.9,53.9,44.8,53.8,44.8L53.8,44.8L53.8,44.8z M53,46c0,0.1-0.2,0-0.2-0.1c0-0.1,0.2-0.2,0.3-0.3l0.2,0l0,0.2
		C53.2,45.8,53.1,45.8,53,46L53,46z M55.5,42.8l0.3-0.3l0.2,0l0,0.2l-0.3,0.3C55.6,43,55.5,43.1,55.5,42.8L55.5,42.8z M56,42.2
		l0.3-0.3l0.2,0l0,0.2l-0.3,0.3C56.1,42.4,56.1,42.4,56,42.2L56,42.2z M54.4,44.1L54.4,44.1L54.4,44.1z M54.4,44.1L54.4,44.1
		L54.4,44.1z M52.8,46L52.8,46L52.8,46z M58.1,39.8L58.1,39.8L58.1,39.8z M58.1,39.8l0.3-0.3l0.2,0l0,0.2l-0.3,0.3
		C58.2,40,58.1,39.9,58.1,39.8L58.1,39.8z M54.9,43.5l0.3-0.3l0.2,0l0,0.2l-0.3,0.3C55,43.7,54.9,43.6,54.9,43.5L54.9,43.5z
		 M56.5,41.6l0.3-0.3l0.2,0l0,0.2l-0.3,0.3C56.6,41.8,56.6,41.8,56.5,41.6z M57.5,40.4l0.3-0.3l0.2,0l0,0.1l-0.3,0.3
		C57.7,40.6,57.7,40.6,57.5,40.4L57.5,40.4z M57.1,41l0.2-0.4l0.2,0l0,0.2L57.1,41C57.1,41.2,57.1,41.2,57.1,41z M52.8,46.7
		l-0.3,0.3l0,0l0,0c0.2,0.2,0.2,0.1,0.2,0.1l0.3-0.3l0-0.2L52.8,46.7z M52.5,47.1L52.5,47.1L52.5,47.1z M50.9,48.9L50.9,48.9
		L50.9,48.9z M51.2,48.6h0.2v0.2c-0.1,0.1-0.2,0.1-0.4,0.2c-0.1,0.1-0.1,0.1-0.2-0.2C50.9,48.7,51.2,48.7,51.2,48.6L51.2,48.6z
		 M51.4,48.3L51.4,48.3L51.4,48.3z M51.4,48.3L51.4,48.3L51.4,48.3z M51.4,48.3L51.4,48.3L51.4,48.3z M51.8,47.9l0,0.2l-0.3,0.3
		c0,0.1,0,0.1-0.2-0.1l0.3-0.3L51.8,47.9z M51.9,47.7L51.9,47.7L51.9,47.7z M52.4,47.3l0,0.2l-0.3,0.3c0,0.1,0,0.1-0.2-0.1l0.3-0.3
		L52.4,47.3z M51.2,47.8l0.3-0.3l0.2,0l0,0.2l-0.3,0.3C51.4,48,51.3,47.9,51.2,47.8L51.2,47.8z M52.2,46.6l0.3-0.3l0.2,0l0,0.2
		l-0.3,0.3C52.3,46.7,52.2,46.7,52.2,46.6C52.2,46.6,52.2,46.6,52.2,46.6L52.2,46.6z M51.7,47.2l0.3-0.3l0.2,0l0,0.2l-0.3,0.3
		C51.8,47.3,51.7,47.3,51.7,47.2C51.7,47.2,51.7,47.2,51.7,47.2L51.7,47.2z M51.2,48.1c-0.1,0.1-0.2,0.1-0.4,0.2
		c-0.1,0.1-0.2,0-0.2-0.2c0.1-0.1,0.2-0.1,0.4-0.2h0.2V48.1z M52.2,46.6L52.2,46.6L52.2,46.6z M52.2,46.6L52.2,46.6L52.2,46.6z
		 M50.6,48.4L50.6,48.4L50.6,48.4z M48.3,47L48.3,47L48.3,47c-0.2,0.2-0.1,0.2-0.1,0.2l0.4,0.3l0.1-0.1l-0.1-0.1L48.3,47z
		 M48.3,47.1L48.3,47.1L48.3,47.1z M46.4,45.6L46.4,45.6L46.4,45.6z M46.7,45.8l0.1,0.1L46.7,46c-0.1,0-0.2-0.2-0.4-0.3
		c-0.1,0-0.1,0,0.1-0.2C46.5,45.6,46.6,45.8,46.7,45.8L46.7,45.8z M47,46.1L47,46.1L47,46.1z M47,46.1L47,46.1L47,46.1z M47.4,46.3
		l0.1,0.1l-0.1,0.1l-0.4-0.3c-0.1,0-0.1,0,0.1-0.2L47.4,46.3z M47.6,46.6L47.6,46.6L47.6,46.6z M46.9,46.1L46.9,46.1L46.9,46.1z
		 M48,46.8l0.1,0.1L47.9,47l-0.4-0.3c-0.1,0-0.1,0,0.1-0.2L48,46.8z M49.3,47.8l0.1,0.1L49.2,48l-0.4-0.3c0-0.1,0-0.2,0.1-0.2
		L49.3,47.8z M49.9,48.3l0.1,0.1l-0.1,0.1l-0.4-0.3c0-0.1,0-0.2,0.1-0.2h0L49.9,48.3z M47.5,45.8l0.4,0.3l0.1,0.1l-0.1,0.1L47.4,46
		C47.3,45.9,47.3,45.8,47.5,45.8L47.5,45.8z M48.7,46.8l0.4,0.3l0.1,0.1L49,47.2L48.7,47C48.6,46.9,48.7,46.8,48.7,46.8
		C48.7,46.8,48.7,46.8,48.7,46.8L48.7,46.8z M48.1,46.3l0.4,0.3l0.1,0.1l-0.1,0.1L48,46.5C48,46.4,48,46.3,48.1,46.3L48.1,46.3z
		 M46.8,45.3c0.1,0,0.2,0.2,0.4,0.3l0.1,0.1l-0.1,0.1c-0.1,0-0.2-0.2-0.4-0.3C46.7,45.4,46.7,45.3,46.8,45.3L46.8,45.3z M50.4,48.3
		L50,48c-0.1,0-0.2-0.2,0.1-0.2l0.4,0.3l0.1,0.1L50.4,48.3z M48.7,46.8L48.7,46.8L48.7,46.8z M48.8,46.8L48.8,46.8L48.8,46.8z
		 M46.8,45.3L46.8,45.3L46.8,45.3z M49.3,47.5c0-0.1,0-0.2,0.1-0.2h0l0.4,0.3l0.1,0.1l-0.1,0.1L49.3,47.5z M45.7,45L45.7,45L45.7,45
		c-0.2,0.2-0.1,0.2-0.1,0.2l0.4,0.3l0.1-0.1L46,45.3L45.7,45z M45.7,45.1L45.7,45.1L45.7,45.1z M44.4,44.1L44.4,44.1L44.4,44.1z
		 M44.8,44.3l0.1,0.1l-0.1,0.1l-0.4-0.3c-0.1,0-0.1,0,0.1-0.2L44.8,44.3z M45,44.6L45,44.6L45,44.6z M44.4,44.1L44.4,44.1L44.4,44.1
		z M45.4,44.8l0.1,0.1L45.3,45L45,44.8c-0.1,0-0.1,0,0.1-0.2L45.4,44.8z M44.9,43.8l0.4,0.3l0.1,0.1l-0.1,0.1L44.8,44
		C44.7,43.9,44.7,43.8,44.9,43.8z M46.1,44.8l0.4,0.3l0.1,0.1l-0.1,0.1L46.1,45C46,44.9,46.1,44.8,46.1,44.8L46.1,44.8L46.1,44.8z
		 M45.9,44.5l0.1,0.1l-0.1,0.1l-0.4-0.3c0-0.1,0-0.2,0.1-0.2c0,0,0,0,0,0L45.9,44.5z M46.1,44.8L46.1,44.8L46.1,44.8z M44.3,43.2
		L44.3,43.2L44.3,43.2z M50.5,48.8l0.1,0.1L50.5,49c-0.1,0-0.2-0.1-0.4-0.1c-0.1,0-0.1,0,0-0.2C50.2,48.6,50.5,48.7,50.5,48.8
		L50.5,48.8z M44,43.8l0,0.2l-0.2,0c-0.1-0.1-0.1-0.2-0.3-0.4c-0.1-0.1-0.1-0.1,0.1-0.2C43.8,43.5,43.9,43.8,44,43.8L44,43.8z
		 M44.5,43.7c-0.1-0.1-0.1-0.2-0.3-0.4c-0.1-0.1,0-0.2,0.1-0.2c0.1,0.1,0.1,0.2,0.3,0.4l0,0.2L44.5,43.7z M44.2,43l0.2-0.4
		c0-0.1,0.2-0.2,0.2,0.1L44.4,43l-0.1,0.1L44.2,43z M43.6,43.3l-0.1-0.1c0-0.1,0.1-0.2,0.2-0.4c0-0.1,0-0.1,0.2,0
		c0,0.1-0.1,0.3-0.2,0.4L43.6,43.3z M48.1,38.6L48.1,38.6c0.2,0.2,0.2,0.1,0.2,0.1l0.3-0.3l0-0.2l-0.2,0L48.1,38.6L48.1,38.6z
		 M48.1,38.6L48.1,38.6L48.1,38.6z M46.5,40.3L46.5,40.3L46.5,40.3z M46.5,40.4L46.5,40.4L46.5,40.4z M46.5,40.3
		c0-0.1,0.2-0.2,0.3-0.3l0.2,0l0,0.2c0,0.1-0.2,0.2-0.3,0.3C46.6,40.5,46.6,40.5,46.5,40.3L46.5,40.3z M47,39.8L47,39.8L47,39.8z
		 M47,39.7L47,39.7L47,39.7z M47,39.7l0.3-0.3l0.2,0l0,0.2l-0.3,0.3C47.2,39.9,47.2,39.9,47,39.7L47,39.7z M47.6,39.2L47.6,39.2
		L47.6,39.2z M47.6,39.2l0.3-0.3l0.1-0.1l0,0.2l-0.3,0.3C47.7,39.3,47.7,39.3,47.6,39.2L47.6,39.2z M53,33.1l0.3-0.3l0.2,0l0,0.2
		l-0.3,0.3C53.2,33.3,53.1,33.3,53,33.1L53,33.1z M48.7,38l0.3-0.3l0.2,0l0,0.2l-0.3,0.3C48.8,38.1,48.7,38.1,48.7,38
		C48.7,38,48.7,38,48.7,38z M54.1,32l0.3-0.3l0.2,0l0,0.1L54.3,32C54.2,32,54.2,32.1,54.1,32L54.1,32z M53.6,32.5l0.3-0.3l0.2,0
		l0,0.2l-0.3,0.3C53.7,32.7,53.6,32.7,53.6,32.5L53.6,32.5z M54.1,32L54.1,32L54.1,32z M51.4,35.3l-0.3,0.3c-0.2,0-0.2,0-0.2-0.1
		l0.3-0.3l0.2,0L51.4,35.3z M52.2,34.5c-0.2,0-0.2,0-0.2-0.1l0.3-0.3l0.2,0l0,0.2L52.2,34.5z M51.5,34.9l0.3-0.3l0.2,0l0,0.2
		L51.7,35C51.5,35.1,51.5,35.1,51.5,34.9L51.5,34.9z M49.2,37.4l0.3-0.3l0.2,0l0,0.2l-0.3,0.3C49.3,37.5,49.2,37.5,49.2,37.4
		C49.2,37.4,49.2,37.4,49.2,37.4z M50.4,36.1l0.3-0.3l0.2,0l0,0.2l-0.3,0.3C50.5,36.3,50.4,36.2,50.4,36.1L50.4,36.1z M49.8,36.7
		l0.3-0.3l0.2,0l0,0.2L50,36.8C50,36.9,49.9,36.8,49.8,36.7L49.8,36.7z M52.5,33.7L52.5,33.7L52.5,33.7z M53,33.5l-0.3,0.3
		c0,0.1,0,0.1-0.2-0.1l0.3-0.3l0.2,0L53,33.5z M52.8,32.6l0.3-0.3l0.2,0l0,0.2L53,32.7C52.9,32.8,52.8,32.8,52.8,32.6L52.8,32.6z
		 M52.2,33.2l0.3-0.3l0.2,0l0,0.2l-0.3,0.3C52.4,33.4,52.3,33.4,52.2,33.2L52.2,33.2z M53.6,31.7l0.2,0l0,0.1l-0.3,0.3
		c-0.2,0-0.2,0-0.2-0.1L53.6,31.7z M53.9,31.4l0.3-0.3l0.2,0l0,0.1l-0.3,0.3C54,31.5,53.9,31.6,53.9,31.4L53.9,31.4z M46.8,39.2
		l0.3-0.3l0.2,0l0,0.2L47,39.3C46.9,39.4,46.8,39.4,46.8,39.2L46.8,39.2z M47.9,38l0.3-0.3l0.2,0l0,0.2l-0.3,0.3
		C48,38.2,47.9,38.1,47.9,38C47.9,38.1,47.9,38.1,47.9,38L47.9,38z M47.3,38.6l0.3-0.3l0.2,0l0,0.2l-0.3,0.3
		C47.5,38.8,47.4,38.7,47.3,38.6C47.3,38.7,47.3,38.7,47.3,38.6L47.3,38.6z M46.2,39.8c0-0.1,0.2-0.2,0.3-0.3l0.2,0l0,0.2
		c0,0.1-0.2,0.2-0.3,0.3C46.4,40,46.3,40,46.2,39.8L46.2,39.8z M49,36.8l0.3-0.3l0.2,0l0,0.2l-0.3,0.3C49.2,37,49,37,49,36.8
		L49,36.8z M49.6,36.2l0.3-0.3l0.2,0l0,0.2l-0.3,0.3C49.6,36.3,49.6,36.3,49.6,36.2L49.6,36.2z M47.9,38L47.9,38L47.9,38z
		 M46.2,39.8L46.2,39.8L46.2,39.8z M46.2,39.8L46.2,39.8L46.2,39.8z M51.7,33.8L51.7,33.8L51.7,33.8z M51.7,33.8l0.3-0.3l0.2,0
		l0,0.2l-0.3,0.3C51.8,34,51.7,33.9,51.7,33.8L51.7,33.8z M48.4,37.5l0.3-0.3l0.2,0l0,0.2l-0.3,0.3C48.6,37.6,48.5,37.6,48.4,37.5
		C48.4,37.5,48.4,37.5,48.4,37.5L48.4,37.5z M50.1,35.6l0.3-0.3l0.2,0l0,0.2l-0.3,0.3C50.2,35.8,50.2,35.8,50.1,35.6L50.1,35.6z
		 M51.1,34.4l0.3-0.3l0.2,0l0,0.2l-0.3,0.3C51.3,34.6,51.3,34.6,51.1,34.4L51.1,34.4z M50.7,35l0.2-0.4l0.2,0l0,0.2l-0.3,0.3
		C50.7,35.2,50.7,35.2,50.7,35L50.7,35z M45.9,41L45.9,41c0.2,0.2,0.2,0.1,0.2,0.1l0.3-0.3l0-0.2l-0.2,0L45.9,41L45.9,41z M45.9,41
		L45.9,41L45.9,41z M44.8,42.1l0.3-0.3l0.2,0l0,0.2L45,42.2C44.9,42.3,44.9,42.3,44.8,42.1L44.8,42.1z M45.4,41.6L45.4,41.6
		L45.4,41.6z M45.3,41.5l0.3-0.3l0.2,0l0,0.2l-0.3,0.3C45.5,41.7,45.5,41.7,45.3,41.5L45.3,41.5z M44.5,41.7l0.3-0.3l0.2,0l0,0.2
		l-0.3,0.3C44.7,41.9,44.6,41.9,44.5,41.7L44.5,41.7z M45.7,40.5l0.3-0.3l0.2,0l0,0.2l-0.3,0.3C45.8,40.6,45.7,40.6,45.7,40.5
		C45.7,40.5,45.7,40.5,45.7,40.5L45.7,40.5z M45.1,41l0.3-0.3l0.2,0l0,0.2l-0.3,0.3C45.2,41.2,45.1,41.2,45.1,41
		C45.1,41.1,45.1,41.1,45.1,41L45.1,41z M45.7,40.4L45.7,40.4L45.7,40.4z M44.4,42.1l-0.3,0.3c0,0.1,0,0.1-0.2-0.1l0.3-0.3l0.2,0
		L44.4,42.1z M43,46.1L43,46.1L43,46.1z M47.1,54.3L47,54.1l0.3-0.4c0.2-0.1,0.2-0.1,0.2,0.1l-0.3,0.4L47.1,54.3z M41.5,48.1
		l-0.3,0.4l-0.1,0.1l-0.1-0.1l0.3-0.4C41.5,48,41.5,48,41.5,48.1L41.5,48.1z M40.5,49.4l-0.2,0.4l-0.1,0.1l-0.1-0.1l0.3-0.4
		C40.5,49.3,40.5,49.3,40.5,49.4L40.5,49.4z M39.2,51.3L39.2,51.3L39.2,51.3z M38.7,52l-0.3,0.4l-0.1,0.1l-0.1-0.1l0.3-0.4
		C38.5,51.8,38.6,51.9,38.7,52L38.7,52z M42.5,46.7l-0.3,0.4l-0.1,0.1L42.1,47l0.3-0.4C42.4,46.6,42.5,46.7,42.5,46.7L42.5,46.7z
		 M41,48.8l-0.3,0.4l-0.1,0.1L40.6,49l0.3-0.4C41,48.6,41,48.6,41,48.8L41,48.8z M39.2,51.3l-0.3,0.4l-0.1,0.1l-0.1-0.1l0.3-0.4
		C39,51.2,39.1,51.2,39.2,51.3L39.2,51.3z M42,47.5l-0.3,0.4l-0.2,0.1l-0.1-0.1l0.3-0.4C41.8,47.3,42,47.2,42,47.5L42,47.5z
		 M47.5,53.8L47.5,53.8L47.5,53.8z M49.6,51.2L49.6,51l0.3-0.4c0-0.1,0-0.1,0.1,0l-0.2,0.4L49.6,51.2z M43,46.1l-0.3,0.4l-0.1,0.1
		l-0.1-0.1l0.3-0.4C42.9,46,43,46,43,46.1L43,46.1z M49,52L49,52L49,52z M49.1,51.8L49,51.6l0.3-0.4c0-0.1,0-0.1,0.2,0.1l-0.3,0.4
		L49.1,51.8z M49,51.9L49,51.9L49,51.9z M48.6,52.4l-0.1-0.1l0.3-0.4c0-0.1,0.2-0.1,0.2,0.1l-0.3,0.4L48.6,52.4z M43.5,45.5
		l-0.3,0.4l-0.1,0.1L43,45.8l0.3-0.4C43.4,45.3,43.5,45.4,43.5,45.5L43.5,45.5L43.5,45.5z M47.5,53.8L47.5,53.8L47.5,53.8z
		 M47.6,53.7l-0.1-0.1l0.3-0.4c0-0.1,0.2-0.1,0.2,0.1l-0.3,0.4L47.6,53.7z M40.2,50.1l-0.3,0.4l-0.1,0.1l-0.1-0.1L40,50
		C40,49.9,40,49.9,40.2,50.1L40.2,50.1z M50,50.5l-0.1-0.2l0.3-0.4c0.1-0.1,0.1-0.1,0.2,0.1l-0.3,0.4L50,50.5z M48.5,52.6L48.5,52.6
		L48.5,52.6z M38.2,52.6L37.9,53l-0.1,0.1l-0.1-0.1l0.3-0.4C38.1,52.5,38.1,52.5,38.2,52.6L38.2,52.6z M37.7,53.3l-0.3,0.4l-0.1,0.1
		l-0.1-0.1l0.3-0.4C37.6,53.2,37.6,53.1,37.7,53.3L37.7,53.3z M37.3,54L37.3,54L37.3,54z M38.2,52.6L38.2,52.6L38.2,52.6z M37.3,54
		L37.3,54L37.3,54l-0.3,0.4l-0.1,0.1l-0.1-0.1l0.3-0.4C37.2,53.8,37.3,53.9,37.3,54C37.3,53.9,37.3,54,37.3,54L37.3,54z M38.7,52
		L38.7,52L38.7,52z M48,53.2L48,53.2L48,53.2z M39.7,50.7l-0.3,0.4l-0.1,0.1L39.2,51l0.3-0.4C39.5,50.5,39.6,50.6,39.7,50.7
		L39.7,50.7z M48,53.2L48,53.2L48,53.2z M36.8,54.7L36.5,55l-0.1,0.1L36.3,55l0.3-0.4C36.6,54.5,36.7,54.5,36.8,54.7L36.8,54.7z
		 M48.1,53L48,52.9l0.3-0.4c0-0.1,0.1-0.1,0.2,0.1L48.2,53L48.1,53z M88.8,49.5L88.8,49.5L88.8,49.5z M88.8,49.6L88.8,49.6
		L88.8,49.6z M88.8,50.4l0.1-0.4l-0.1-0.1l-0.1,0.1l-0.1,0.4l0,0C88.8,50.5,88.8,50.4,88.8,50.4L88.8,50.4z M87.8,52.7L87.8,52.7
		L87.8,52.7z M88.2,52.2l0.1,0.1c0,0.1-0.2,0.2-0.3,0.4c0,0.1,0,0.1-0.2-0.1c0-0.1,0.2-0.3,0.3-0.4L88.2,52.2z M88.1,51.9L88.1,51.9
		L88.1,51.9z M88.3,51.3l0.1,0.1l-0.1,0.4c0,0.1,0,0.1-0.2,0l0.1-0.4L88.3,51.3z M88.3,51.2L88.3,51.2L88.3,51.2z M88.4,50.7
		l0.1-0.1l0.1,0.1l-0.1,0.4c0,0.1,0,0.1-0.2,0L88.4,50.7z M87.7,51.4l0.1-0.4l0.1-0.1L88,51l-0.1,0.4C87.9,51.5,87.8,51.5,87.7,51.4
		z M88.1,49.9l0.1-0.4l0.1-0.1l0.1,0.1l-0.1,0.4C88.3,50,88.2,50,88.1,49.9C88.1,49.9,88.1,49.9,88.1,49.9z M87.9,50.7l0.1-0.4
		l0.1-0.1l0.1,0.1l-0.1,0.4C88,50.8,87.9,50.8,87.9,50.7C87.9,50.7,87.9,50.7,87.9,50.7L87.9,50.7z M87.3,52c0-0.1,0.2-0.2,0.3-0.4
		l0.1-0.1l0.1,0.1c0,0.1-0.2,0.2-0.3,0.4C87.4,52.2,87.3,52.2,87.3,52L87.3,52z M84.4,52.1l0.4,0.1l0.1-0.1L84.9,52l-0.4-0.1
		C84.3,52.2,84.4,52.1,84.4,52.1z M82.6,51.4L82.6,51.4L82.6,51.4z M82.6,51.4c0.1,0,0.3,0.1,0.4,0.1l0.1,0.1L83,51.7
		c-0.1,0-0.2-0.1-0.4-0.1C82.5,51.6,82.5,51.6,82.6,51.4L82.6,51.4z M83.3,51.7L83.3,51.7L83.3,51.7z M85.7,52.2l0.1,0.1l-0.1,0.1
		l-0.4-0.1c-0.1-0.1-0.1-0.2,0-0.2l0,0L85.7,52.2z M84.9,51.7c-0.1-0.1-0.1-0.2,0-0.2l0,0l0.4,0.1l0.1,0.1l-0.1,0.1L84.9,51.7z
		 M84.2,51.5c-0.1-0.1-0.1-0.2,0-0.2l0,0l0.4,0.1l0.1,0.1l-0.1,0.1L84.2,51.5z M83.3,51.1c0.1,0,0.2,0.1,0.4,0.1l0.1,0.1l-0.1,0.1
		c-0.1,0-0.2-0.1-0.4-0.1C83.2,51.3,83.2,51.2,83.3,51.1L83.3,51.1z M86.6,51.9L87,52l0.1,0.1L87,52.2l-0.4-0.1
		C86.5,52.1,86.4,52,86.6,51.9L86.6,51.9z M85.7,51.9c-0.1-0.1-0.1-0.2,0-0.2l0,0l0.4,0.1l0.1,0.1L86.2,52L85.7,51.9z M81.7,51.2
		L81.7,51.2c-0.1,0.2,0,0.2,0,0.2l0.4,0.1l0.1-0.1l-0.1-0.1L81.7,51.2z M80.1,50.8L80.1,50.8L80.1,50.8z M80.6,50.9l0.1,0.1
		l-0.1,0.1L80.2,51c-0.1,0-0.1,0,0-0.2L80.6,50.9z M80.9,51L80.9,51L80.9,51z M81.4,51.1l0.1,0.1l-0.1,0.1l-0.4-0.1
		c-0.1,0-0.1,0,0-0.2L81.4,51.1z M80.9,50.5l0.4,0.1l0.1,0.1l-0.1,0.1l-0.4-0.1C80.8,50.7,80.8,50.6,80.9,50.5z M82.4,51.1
		c-0.1-0.1-0.1-0.2,0-0.2l0,0l0.4,0.1h0l0.1,0.1l-0.1,0.1L82.4,51.1z M81.7,50.9c-0.1-0.1-0.1-0.2,0-0.2c0,0,0,0,0,0l0.4,0.1
		l0.1,0.1L82.1,51L81.7,50.9z M79.7,50.1L79.7,50.1L79.7,50.1z M79.7,50.1L79.7,50.1L79.7,50.1z M79.8,50.7l0.1,0.1l-0.1,0.1
		c-0.1,0-0.2-0.2-0.4-0.2c-0.1,0-0.1,0,0.1-0.2C79.5,50.5,79.7,50.7,79.8,50.7L79.8,50.7z M80.1,50.3c-0.1,0-0.1-0.1,0.1-0.2
		c0.1,0,0.2,0.2,0.4,0.2l0.1,0.1l-0.1,0.1C80.4,50.5,80.3,50.4,80.1,50.3L80.1,50.3z M80,50l-0.1,0.1l-0.1-0.1l0.1-0.5
		c0-0.1,0.1-0.2,0.2,0L80,50z M79.3,50.2l-0.1,0.1l-0.1-0.1c0-0.1,0-0.2,0-0.5c0-0.1,0-0.1,0.2-0.1C79.3,49.9,79.3,50.1,79.3,50.2
		L79.3,50.2z M81.2,47.1L81.2,47.1L81.2,47.1z M81.2,47.1L81.2,47.1L81.2,47.1z M80.8,47.8l0.2-0.4l0.1-0.1l0.1,0.1L81,47.8
		C81,47.8,81,47.9,80.8,47.8L80.8,47.8z M80.3,48.8l0.1-0.1l0.1,0.1l-0.2,0.4c0,0.1,0,0.1-0.2,0L80.3,48.8z M80.4,48.5L80.4,48.5
		L80.4,48.5z M80.4,48.5l0.2-0.4l0.1-0.1l0.1,0.1l-0.2,0.4C80.6,48.6,80.6,48.6,80.4,48.5L80.4,48.5z M79.7,48.4l0.1-0.1l0.1,0.1
		l-0.2,0.4c0,0.1-0.1,0.1-0.2,0L79.7,48.4z M79.9,48l0.2-0.4l0.1-0.1l0.1,0.1l-0.2,0.4C80,48.1,79.9,48.1,79.9,48
		C79.9,48,79.9,48,79.9,48L79.9,48z M80.5,47.5L80.5,47.5L80.5,47.5z M79.2,49.5l0.2-0.4l0.1-0.1l0.1,0.1l-0.2,0.4
		C79.4,49.6,79.4,49.6,79.2,49.5L79.2,49.5z M83.5,51.7c0.1,0,0.3,0.1,0.4,0.1l0.1,0.1L83.9,52c-0.1,0-0.2-0.1-0.4-0.1
		C83.4,51.9,83.4,51.9,83.5,51.7L83.5,51.7z M85.6,58.6l0,0.4l-0.1,0.1l-0.1-0.1l0.1-0.4C85.5,58.5,85.5,58.5,85.6,58.6L85.6,58.6z
		 M85.2,60.2L85,60.6l-0.1,0.1l-0.1-0.1l0.1-0.4C85,60,85.1,60,85.2,60.2z M79.2,51.6L79.1,52l-0.1,0.1L78.8,52l0.1-0.4
		C79,51.5,79.1,51.5,79.2,51.6L79.2,51.6z M85.6,58.4l-0.1-0.1l0.1-0.4c0.1-0.1,0.1-0.1,0.2,0l-0.2,0.4L85.6,58.4z M85.4,59.4
		l-0.1,0.4l-0.1,0.1l-0.1-0.1l0.1-0.4C85.2,59.3,85.2,59.3,85.4,59.4L85.4,59.4z M85.2,60.2L85.2,60.2L85.2,60.2z M86.5,56l-0.1-0.1
		l0.1-0.4c0.1-0.1,0.2,0,0.2,0c0,0,0,0,0,0l-0.1,0.4L86.5,56z M85.9,57.7l-0.1-0.1l0.1-0.4c0.1-0.1,0.1-0.1,0.2,0L86,57.6L85.9,57.7
		z M86.2,56.9l-0.1-0.1l0.1-0.4c0-0.1,0.1-0.2,0.2,0l-0.1,0.4L86.2,56.9z M86.8,55.3l-0.1-0.1l0.1-0.4c0.1-0.1,0.2,0,0.2,0
		c0,0,0,0,0,0l-0.1,0.4L86.8,55.3z M87,54.5l-0.1-0.1l0.1-0.4c0.1-0.1,0.2,0,0.2,0c0,0,0,0,0,0l-0.1,0.4L87,54.5z M76.8,58.5
		l-0.1,0.4L76.5,59l-0.1-0.1l0.1-0.4C76.6,58.4,76.7,58.4,76.8,58.5L76.8,58.5z M78.4,53.8l-0.1,0.4l-0.1,0.1L78,54.3l0.1-0.4
		C78.2,53.8,78.3,53.8,78.4,53.8C78.4,53.8,78.4,53.8,78.4,53.8L78.4,53.8z M77.2,57l0,0.4l-0.1,0.1L77,57.4l0.1-0.4
		C77.2,56.8,77.2,56.8,77.2,57L77.2,57z M78.1,54.7l-0.1,0.4l-0.1,0.1l-0.1-0.1l0.1-0.4C77.9,54.6,78,54.5,78.1,54.7L78.1,54.7z
		 M78.9,52.3l-0.1,0.4l-0.1,0.1l-0.1-0.1l0.1-0.4C78.8,52.3,78.9,52.3,78.9,52.3C78.9,52.3,78.9,52.3,78.9,52.3L78.9,52.3z
		 M77.5,56.2l-0.1,0.4l-0.1,0.1l-0.1-0.1l0.1-0.4C77.4,56.1,77.4,56.1,77.5,56.2L77.5,56.2z M77.8,55.5l-0.1,0.4L77.5,56l-0.1-0.1
		l0.1-0.4C77.7,55.3,77.7,55.3,77.8,55.5L77.8,55.5z M76.5,59.2l-0.1,0.4l-0.1,0.1l-0.1-0.1l0.1-0.4C76.3,59.1,76.4,59.1,76.5,59.2
		L76.5,59.2z M76.2,60l-0.1,0.4L76,60.5l-0.1-0.1L76,60C76.1,59.9,76.2,59.9,76.2,60L76.2,60z M77.1,57.7l-0.1,0.4l-0.1,0.1
		l-0.1-0.1l0.1-0.4C76.9,57.6,76.9,57.6,77.1,57.7L77.1,57.7z M78.7,53.1l-0.1,0.4l-0.1,0.1l-0.1-0.1l0.1-0.4
		C78.5,53,78.6,53,78.7,53.1C78.7,53.1,78.7,53.1,78.7,53.1L78.7,53.1z M76.8,58.5L76.8,58.5L76.8,58.5z M108.6,56.1v-0.6
		c0-0.6-0.3-1.3-1.6-1.3c-0.6,0-0.8,0.3-1.1,0.6c-0.3,0.4-0.9,1.1-2.7,2c-2.4,1.3-9.2,3-14.9,3.8c0.1-0.6,0.3-1.9,0.6-3
		c0.3-1.4,1.2-3.5,1.6-4.2l0.1-0.2c0.5-1,0.7-1.6,0.4-2c-0.1-0.1-0.2-0.2-1-0.5c0-0.2,0.1-0.4,0.2-0.7c0.2-0.8,0.2-1.4-0.6-1.7
		L89,48.1c-1.5-0.5-3-1-4.5-1.4c-0.6-0.1-1.1-0.3-1.6-0.4c-2.2-0.5-2.8-0.7-3-0.2c-0.1,0.2-0.6,0.8-1.1,1.5c-0.8-0.1-1,0-1.1,0.1
		c-0.2,0.1-0.3,0.3-0.3,0.5c0,0,0,0.1,0,0.1c-0.1,0.2-1.7,4.2-4.7,11.9c-2.2-0.3-4.4-0.7-6.8-1.2c-2.9-0.6-5.1-1.2-7.2-1.8
		c-2.5-0.7-4.9-1.4-8.1-1.9l-0.3,0c1-1.3,5.9-7.6,7-8.9c0.2-0.3,0.6-0.7,1.1-1.3c4.7-5.5,4.9-5.9,4.8-6.3c0-0.1-0.1-0.2-0.2-0.3l0,0
		c0-0.1,0.1-0.2,0.2-0.2c0.2-0.4,0.4-0.8,0.3-1.3c-0.1-0.3-0.2-0.6-0.5-0.8c-0.3-0.2-0.7-0.5-1-0.8c-0.4-0.4-0.8-0.7-1.2-1
		c-0.5-0.3-4.2-3.1-4.9-3.7c-1.2-1-1.8-0.8-2.1-0.6c-0.1,0.1-0.2,0.1-0.3,0.2c-0.1,0-0.2-0.1-0.3-0.1c-0.3,0-0.6,0.1-1.3,1.1
		c-0.4,0.5-4,4-5.6,5.2l-0.1,0.1c-1.5,1.1-2.5,1.9-5,2.4c-2,0.3-5.7-0.7-7.9-1.3c-0.5-0.2-1-0.3-1.4-0.4l-0.2,0
		c-3.2-0.8-7.5-1.8-8.5-1.9c-1.7-0.3-2.8-0.4-2.9,0.4c0,0.2-0.1,0.4-0.1,0.6c-0.2,0.1-0.3,0.3-0.3,0.6c0,0.1,0,0.2,0,0.3
		c0,0.2,0,0.3,0,0.5c0,0.1-0.1,0.2-0.1,0.4c-0.2,0.5-0.4,0.9-0.5,1.4c0,0.2-0.1,0.4-0.1,0.7l0,0c-0.3,0.1-0.8,0.2-1,0.7
		c-0.2,0.5,0,1.2,0.4,1.6l0.1,0.1c0.1,0.1,0.3,0.3,0.3,0.3c0,0.2-0.4,2-0.5,2.6l-0.1,0.4c-0.1,0.3-0.1,0.7,0.1,0.9l0,0.3
		c-0.1,0.8,0.2,1.2,1.2,1.7c0.6,0.3,1.2,0.4,2.5,0.7c0.7,0.1,1.6,0.3,2.9,0.6c2.9,0.6,4.2,1.3,5.4,1.9c0.3,0.2,0.6,0.3,0.9,0.4
		c1.5,0.7,1.5,0.9,1.6,1.4c0,0.4-0.1,1.4-0.3,2.2c-3.8,0.4-8.9,0.8-10.4,0.7c-1.9-0.2-5.4-2.3-6.1-2.8c-0.3-0.2-0.3-0.3-0.4-0.3
		c-0.1-0.2-0.3-0.4-0.5-0.5c-0.5-0.3-1-0.1-1.5,0.1l-0.2,0.1c-0.2,0-0.3,0.2-0.3,0.3c0,0-1.4,4.2-1.7,5c-0.6,1.7,0.3,3.6,0.7,4.1
		c0.4,0.5,3.3,3.5,4.6,4.2c0,0,4.6,2.1,5.8,1.8c0.2-0.1,0.5-0.2,0.6-0.5c0.4,0,1,0,1.4,0.1c0,0,0,0,0,0c0,0.2,0.2,0.6,0.6,0.7
		c0.6,0.1,2.4,0.2,2.5,0.2l0,0c0.5,0,0.9-0.3,1-0.7c0.2,0,0.5,0,0.7,0c0.1,0,0.1,0,0.2,0c0,0.3,0.2,0.7,0.7,0.8c0.1,0,2,0.1,2.4,0.1
		c0.8,0,0.9-0.8,0.9-1.1c0,0,0,0,0-0.1c0.3,0,0.7,0,1,0c0,0,0,0.1,0,0.1c0,0.4,0.1,1.1,0.8,1.1c0.1,0,0.5,0,0.9,0c0.7,0,1.5,0,1.7,0
		c0.6,0,0.7-0.5,0.8-0.7c0.3,0,0.7,0,1,0c0.1,0.6,0.3,0.9,0.8,0.9c0.3,0,0.6,0,0.9,0c0.5,0,0.9,0.1,1.3-0.1c0.7-0.3,1-0.8,1.4-1.3
		c0.1-0.2,0.2-0.4,0.4-0.6c0.1,0,0.2,0,0.2,0c0.1,0,0.2,0,0.3,0h0c0.2,0.3,0.5,0.4,1.1,0.4c0.7-0.1,1.7-0.1,2.7-0.2
		c1.3-0.1,2.7-0.2,3.3-0.2l0.6,0c3-0.2,3.2-0.3,3.4-0.4c0.1-0.1,0.2-0.2,0.3-0.4c0.3,0,0.5,0.1,0.8,0.2c0,0,0,0.1,0,0.1
		c0,0.6,0.3,0.9,0.6,0.9c0.2,0.1,1.7,0.4,2.3,0.4c0.2,0,0.7,0,1-0.4c0.2,0,0.3,0,0.5,0l0.4,0c0,0.2,0.1,0.5,0.7,0.8
		c0.5,0.2,1.9,0.4,2.4,0.4c1.1,0,1.1-1,1.1-1.3c0-0.1,0-0.1,0-0.2c0.1,0,0.1,0,0.2,0c0.3,0,0.8,0,1,0.1c0,0,0,0,0.1,0v0.6
		c0,0.3,0.1,1.1,1.1,1.1c0.1,0,0.4,0,0.8,0.1c0.8,0.1,1.8,0.1,2.1,0.1c0.7,0,0.8-0.4,0.9-0.7h1.1c0,0.1,0,0.1,0,0.2
		c0,0.5,0.4,0.9,0.9,0.9c0,0,0,0,0,0H77c0.3,0,0.6-0.1,0.8-0.3c0.2-0.2,0.2-0.5,0.2-0.7c0-0.1,0-0.2,0-0.3h1.7v0.1
		c0,0.1,0,0.1,0,0.2v0.2c0,0,0,0,0,0.1c0,0.3,0.1,0.6,0.3,0.8c0.1,0.1,0.2,0.2,0.4,0.2c0,0,0.6,0,2.4-0.2c1.3-0.1,1.6-0.2,1.8-0.5
		c0.1-0.2,0.2-0.3,0.1-0.5c0.2,0,0.4-0.1,0.6-0.1c0.2,0,0.3,0,0.5,0v0.1c0,0.2,0.1,0.5,0.2,0.6c0.2,0.1,0.4,0.2,0.6,0.1
		c0.1,0,0.2,0,0.3,0c0.6,0,2.7-0.4,3.3-0.6c0.8-0.3,0.9-0.6,0.9-0.9V67c0.1-0.1,0.4-0.2,1-0.3c0.1,0,0.2,0,0.3,0v0.8
		c0,0.2,0.1,0.4,0.3,0.6c0.3,0.2,0.7,0.1,1.2,0l2.7-0.9c0.1,0,0.2-0.1,0.2-0.1l0,0c0.1,0,0.2,0,0.3,0l2.6-0.9
		c0.1-0.1,0.2-0.2,0.3-0.3l0-0.1h0.2c0.1,0,0.2,0,0.2-0.1c0.1-0.1,3.5-1.7,4.8-2.6c1-0.7,1.9-1.5,2.8-2.4c0.6-0.6,0.9-1.4,0.9-2.2
		v-1.5C109,56.4,108.8,56.2,108.6,56.1L108.6,56.1z M90.1,51.6c-0.1,0.4-0.3,0.7-0.4,1.1l-0.1,0.2c-0.3,0.7-1.3,3-1.6,4.5
		c-0.2,1.3-0.5,2.9-0.6,3.2c-0.4,0-0.8,0.1-1.2,0.1c0.8-2.6,1.6-5.2,2.5-7.8c0,0,0,0,0,0c0.1-0.2,0.2-0.5,0.3-0.7
		c0.1-0.3,0.2-0.6,0.3-0.8C89.6,51.5,89.8,51.5,90.1,51.6z M84.8,60.8c-0.1,0-0.1,0-0.1,0c-0.2,0-0.5,0-0.7,0
		c-2.9,0.1-5.9-0.1-8.8-0.4c1.1-3.1,2.3-6.2,3.3-9.3c0.4,0.2,0.9,0.3,1.3,0.4c1,0.3,2.1,0.5,3.1,0.8c1.4,0.3,3,0.8,4.4,0.9l0,0
		l-0.1,0.4l0.1,0.1l0.1-0.1l0.1-0.4l0.2,0c0.1,0,0.2,0,0.3,0c-0.8,2.5-1.6,5-2.4,7.5C85.4,60.8,85.1,60.8,84.8,60.8z M80.3,47.1
		l-0.1,0.2c0.1,0.1,0.1,0.1,0.2,0c0,0,0,0,0,0l0.2-0.4l-0.1-0.1l0,0l0.1-0.2l0.1,0c0,0,0.1,0,0.1,0h0l0,0c0.1,0,0.3,0,0.4,0.1
		c0,0.1-0.1,0.1-0.1,0.2c0.2,0.2,0.2,0.2,0.2,0c0-0.1,0-0.1,0.1-0.2c0.4,0.1,0.8,0.2,1.2,0.3c0.5,0.1,1.1,0.3,1.6,0.4
		c1.4,0.3,2.8,0.8,4.1,1.3c0,0.1-0.1,0.2-0.1,0.3c0.1,0.1,0.2,0.1,0.2,0c0-0.1,0-0.1,0-0.2l0.1,0L89,49l-0.1,0.1
		c0,0.1-0.1,0.3-0.1,0.4c0.2,0.1,0.2,0.1,0.2,0c0-0.2,0.1-0.3,0.1-0.4l0,0l0,0c0.1,0,0.1,0,0.1,0c0,0.2-0.1,0.3-0.1,0.5
		c-0.1,0.4-0.2,0.8-0.3,1.3V51c-0.2,0.4-0.3,0.8-0.4,1.2c-0.2,0.5-0.2,0.7-0.8,0.7c-0.1,0-0.1,0-0.2,0c0,0,0,0,0.1,0l0.1-0.1
		l-0.1-0.1c-0.1,0-0.3,0-0.4,0.1c0,0,0,0,0,0c-0.1,0-0.2,0-0.3-0.1l0.1-0.1l-0.1-0.1l-0.4-0.1c-0.1,0-0.1,0.1,0,0.2
		c-1-0.2-2.1-0.4-3.1-0.6c-1.3-0.3-2.7-0.6-4-1c-0.2,0-0.4-0.1-0.6-0.2c0,0,0,0,0,0c-0.1-0.1-0.1-0.2-0.1-0.3c0-0.3,0.3-0.7,0.4-1
		c0.2-0.5,0.5-0.9,0.8-1.3C79.9,47.7,80.2,47.4,80.3,47.1L80.3,47.1z M78.1,48.7c0.1-0.1,0.1-0.2,0.1-0.3c0.1,0,0.3,0,0.5,0
		c-0.6,0.8-1.2,1.9-0.7,2.4c-1,3.2-2.2,6.4-3.3,9.5c-0.4,0-0.7-0.1-1.1-0.2C75.4,55.7,77.9,49.2,78.1,48.7L78.1,48.7z M57.6,44.5
		c-0.5,0.5-0.8,1-1.1,1.3c-1.2,1.5-7,8.8-7.2,9.2c0,0-0.1,0.1-0.1,0.2c-0.3,0-0.7-0.1-1-0.1l12.9-15.2l0.8-0.9l0,0l0.1,0.1
		C61.5,39.9,58.9,42.9,57.6,44.5z M46.8,54.4l-0.3,0.4l0,0.1c-3.9-0.2-7.7,0.1-10.3,0.4h0l-1,0.1c2.6-3.7,5.2-7.3,7.8-11
		c0.3,0.2,0.5,0.3,0.7,0.5l0.1,0.1l-0.2,0.2l0.1,0.1l0.1-0.1l0.1-0.2l2.1,1.7c0.8,0.6,1.6,1.3,2.4,1.9c0.5,0.4,1,0.8,1.6,1.1
		c1.3,0.5,2-0.5,2.7-1.4c1.1-1.3,2.2-2.6,3.3-3.8c2.1-2.5,4.3-4.9,6.4-7.4c0,0,0,0,0,0c0,0.2,0,0.3-0.1,0.5L49.3,53
		c-0.5,0.6-1.1,1.3-1.6,1.9c-0.3,0-0.7,0-1-0.1l0,0l0.3-0.4C46.9,54.3,46.9,54.4,46.8,54.4L46.8,54.4z M54.9,31.2l-0.2,0.2
		c0,0.1,0.1,0,0.2,0.1l0.2-0.2l0.1,0.1c0.8,0.6,4.5,3.5,5,3.8c0.4,0.3,0.7,0.6,1.1,0.9l0,0.1c0,0.2,0.1,0,0.2,0.1l0,0l0.2,0.2
		l-0.2,0.2c0,0.1,0.1,0.1,0.2,0.1c0,0,0,0,0,0l0.2-0.2c0.2,0.2,0.3,0.3,0.5,0.4c0,0,0,0-0.1,0c-1.7,1.9-3.4,3.9-5.1,5.8
		c-1.2,1.4-2.4,2.7-3.5,4.1c-0.6,0.7-1.2,1.7-2,2.3c-0.9,0.8-1.6,0.1-2.4-0.5S47.8,47.5,47,47c-1.3-1-2.5-2-3.8-3l0,0c0,0,0,0,0,0
		c-0.4-0.4-0.3-0.7,0.1-1.1c0.3-0.4,0.7-0.8,1-1.1c1.1-1.2,2.3-2.5,3.4-3.7c2-2.2,4-4.4,6-6.6c0,0,0,0,0,0s0.3-0.2,0.5-0.4
		C54.2,30.9,54.4,30.8,54.9,31.2L54.9,31.2z M22.9,36.2c1.1,0.2,6.6,1.5,8.5,1.9l0.2,0c0.3,0.1,0.8,0.2,1.3,0.4
		c2.3,0.6,6.1,1.7,8.3,1.3c2.7-0.5,4-1.4,5.4-2.5l0.1-0.1c1.5-1.2,5.3-4.8,5.7-5.4c0.2-0.2,0.4-0.5,0.6-0.7c0,0,0.1,0.1,0.1,0.1
		c-1.9,2-3.7,4-5.6,6.1L46.1,39c-0.1,0-0.2,0-0.3,0.1c-1.6,1.7-4.2,1.8-6.4,1.5s-4.3-0.7-6.5-1.1c-2.1-0.4-4.3-0.9-6.5-1.4
		c-1.9-0.4-3.8-0.8-5.6-1.6c0-0.1,0-0.3,0-0.4C21.4,36,22.5,36.2,22.9,36.2z M18.8,41.1c0,0,0.1-0.1,0.4-0.1c0.1,0,0.1,0,0.2,0
		c0.5-0.2,0.6-0.8,0.7-1.4c0.1-0.4,0.2-0.8,0.4-1.2c0-0.1,0.1-0.2,0.1-0.3c0.1,0,0.2,0,0.3,0.1c0.1,0,0.1-0.1,0.1-0.2c0,0,0,0,0,0
		c-0.1,0-0.2-0.1-0.3-0.1c0-0.1,0-0.2,0-0.3c0,0,0.1,0,0.1,0c0.1,0,0.1-0.1,0.1-0.2c0,0,0,0,0,0c-0.1,0-0.2,0-0.2-0.1
		c0-0.1,0-0.2,0-0.2c0.1,0,0.1-0.1,0.2-0.2c1.8,0.8,3.8,1.1,5.6,1.6c2.4,0.6,4.8,1.1,7.2,1.6c2.3,0.4,4.6,0.9,6.9,1.1
		c1.5,0.1,3.1-0.1,4.5-0.9c-0.4,0.4-0.8,0.9-1.2,1.3l0,0c0,0,0,0-0.1-0.1c-0.2,0-0.4,0.1-0.5,0.1c0,0-0.1,0.1,0,0.1
		c0,0,0.1,0.1,0.1,0c0.1-0.1,0.2,0,0.4-0.1c0,0,0,0,0.1,0c-0.2,0.2-0.4,0.4-0.7,0.7c0,0,0,0,0-0.1c-0.2,0-0.4,0.1-0.5,0.1
		c0,0-0.1,0.1,0,0.1c0,0,0.1,0.1,0.1,0c0.1-0.1,0.2,0,0.4-0.1l0,0c-0.4,0.4-0.8,1-0.8,1.3c0,0.2,0.2,0.3,0.3,0.5l-6.5,9.2h0
		c-0.1-0.1-0.1-0.2-0.2-0.3h-0.1V53l0.3,0.3l0,0l0,0l-0.8,1.2c0-0.4,0-0.8,0-1.1c-0.1-0.8-0.5-1.2-1.1-1.6c-1.5-1.3-3.3-1.9-5.1-2.5
		c-1.9-0.5-3.8-1-5.7-1.5c-1.5-0.4-3-0.8-4.3-1.6l0,0l0.4,0.1c0.1-0.1,0-0.1,0-0.2l-0.4-0.1l0,0c0,0,0,0,0,0l0.1-0.3l0.4,0.1
		c0.1-0.1,0-0.1,0-0.2l-0.3-0.1c0.4-1.7,0.5-2.4,0.5-2.6c0-0.4-0.3-0.7-0.5-1l-0.1-0.1C18.8,41.5,18.7,41.2,18.8,41.1z M33.5,53.3
		c-0.1-1-0.6-1.4-2.1-2.1c-0.3-0.1-0.6-0.3-0.9-0.4c-1.2-0.6-2.6-1.3-5.6-1.9c-1.3-0.3-2.2-0.5-3-0.6c-1.3-0.2-1.8-0.3-2.3-0.6
		c-0.7-0.4-0.7-0.4-0.7-0.7l0.1-0.4c1,0.5,2,0.9,3.1,1.2c1.8,0.5,3.7,1,5.5,1.5c1.9,0.5,3.8,1,5.4,2.2c0.6,0.5,1.3,1,1.5,1.7
		c0.1,0.7,0.1,1.3,0,2c0,0,0,0.1,0.1,0.1l-0.1,0.1l-0.2,0l-1.1,0.1C33.4,54.9,33.6,53.8,33.5,53.3L33.5,53.3z M13.9,53.8
		c0.3-0.1,0.5-0.2,0.6-0.1c0.1,0.2,0.2,0.4,0.7,0.7c0.6,0.5,4.4,2.8,6.7,3c2.4,0.2,11.6-0.8,12.7-0.9c2.7-0.3,10-1.1,15.9-0.2
		c3.1,0.5,5.5,1.2,8,1.8c2.1,0.6,4.4,1.2,7.3,1.8c6.9,1.4,12.3,2.2,18.3,2c5.3-0.2,16-2.3,19.8-4.3c2-1,2.6-1.8,3-2.3
		c0.1-0.1,0.2-0.2,0.2-0.2h0c0.4,0,0.5,0.1,0.5,0.1l0,0c0,0,0,0.1,0,0.1v1.1c0,0.1,0,0.1,0,0.2c0,0-0.1,0.1-0.1,0.1
		c-0.4,0.5-0.9,1-1.4,1.4c-1.4,1.1-3.2,1.7-4.9,2.2c-3.2,1.1-6.4,1.9-9.7,2.5c-6.6,1.1-13.4,1.2-20.1,0.2c-3.2-0.5-6.5-1.2-9.8-1
		c-1.8,0.1-3.5,0.6-5.3,0.4c-1.6-0.2-3-0.8-4.6-1c-3.2-0.3-6.2,1.5-9.4,1.4c-3.2-0.1-6.1-1.3-9.2-1.8c-1.6-0.2-3.2-0.2-4.7,0.2
		c-2.2,0.5-4.2,0.9-6.4,0c-1.6-0.7-3.1-1.7-4.6-2.6c-1.4-0.9-2.8-1.9-4.2-3C13.5,54.9,13.8,54.2,13.9,53.8z M92.4,66.5
		c0,0,0-0.1,0-0.1l0.3,0.1H92.4z M92.9,66.5L93,66c0.2,0,0.4,0.2,0.5,0.5H92.9z M107.9,58.3c0,0.5-0.2,1.1-0.6,1.4
		c-0.8,0.8-1.7,1.6-2.7,2.3c-1.1,0.8-3.9,2.2-4.6,2.4h-0.4c-0.2,0-0.4,0.1-0.5,0.3L99.1,65l-2,0.7c-0.2-0.2-0.5-0.1-0.7,0.1L96.1,66
		l-2.6,0.9l0,0v-0.3c0-0.2,0-0.4-0.1-0.6c-0.1-0.2-0.5-0.6-1.4-0.5c-1.2,0.2-1.9,0.7-1.9,1.3v0.9c-0.1,0-0.1,0.1-0.2,0.1
		c-1,0.2-1.9,0.4-2.9,0.5h0c0-0.2-0.1-0.4-0.3-0.5c-0.4-0.3-0.9-0.3-1.4-0.2c-1.1,0.2-1.5,0.2-1.6,1c-0.3,0-0.7,0.1-1,0.1
		c-1,0.1-1.6,0.1-1.9,0.2v-0.1c0-0.3,0.1-0.8-0.2-1.1c-0.2-0.2-0.4-0.3-0.7-0.3h-2c-0.8,0-0.9,0.4-0.9,1.1c0,0.1,0,0.1,0,0.2h-2.6
		c0-0.4-0.1-1.1-0.9-1.1H72c-0.7,0-0.8,0.4-0.9,0.7c-0.4,0-1.3-0.1-1.9-0.1s-0.8-0.1-0.9-0.1v-0.6c0-0.4-0.2-0.9-0.7-1
		c-0.5-0.2-1.1-0.2-1.5-0.2c-1.3,0-1.3,0.9-1.3,1.3c0,0.1,0,0.1,0,0.2c-0.5,0-1.7-0.2-1.9-0.3l0,0c0-0.2,0-0.4-0.2-0.6
		c-0.2-0.2-0.4-0.3-0.7-0.3c-0.2,0-0.3,0-0.5,0c-0.3,0-0.6,0-0.8,0c-0.3,0-0.5,0.1-0.6,0.4h-0.1c-0.6-0.1-1.2-0.2-1.8-0.3l0,0
		c0-0.3,0-0.8-0.7-1c-0.4-0.1-0.8-0.2-1.3-0.3c-0.4,0-0.8,0.2-0.9,0.6c-0.5,0.1-2.2,0.2-2.8,0.3l-0.6,0c-0.6,0.1-2,0.1-3.3,0.2
		c-1,0.1-2,0.1-2.7,0.2h-0.1c-0.2-0.4-0.6-0.4-0.9-0.4c-0.1,0-0.2,0-0.3,0c-0.3,0-0.8,0-1.2,0.4c-0.2,0.2-0.3,0.5-0.5,0.7
		c-0.3,0.5-0.5,0.7-0.9,0.9c-0.2,0.1-0.4,0.1-0.8,0c-0.2,0-0.4,0-0.6,0c-0.1-0.6-0.3-0.9-0.8-0.9h-0.3c-0.4,0-0.9,0-1.2,0
		c-0.6,0-0.7,0.5-0.8,0.7c-0.3,0-0.9,0-1.4,0l-0.6,0c0-0.1,0-0.1,0-0.2c0-0.4-0.1-1.1-0.7-1.1c-0.6,0-1.2,0-1.8,0
		c-0.5,0.1-0.6,0.6-0.7,0.9c0,0.1,0,0.1,0,0.2c-0.5,0-1.4-0.1-1.8-0.1v0c0-0.2-0.2-0.8-0.8-0.8c-0.1,0-0.2,0-0.4,0
		c-0.4,0-0.8,0-1.1,0c-0.5,0.1-0.6,0.5-0.6,0.7l0,0c-0.3,0-1.4-0.1-2-0.2c-0.1-0.4-0.4-0.7-0.8-0.7c-0.6-0.1-1.2-0.1-1.8-0.1
		c-0.3,0-0.6,0.2-0.8,0.5c-0.7,0-3.3-1-4.9-1.7c-1.1-0.5-3.9-3.3-4.2-3.8c-0.2-0.3-1-1.9-0.6-3.2c0.1-0.3,0.5-1.4,0.8-2.4
		c2.4,1.8,4.9,3.5,7.5,4.9c1.4,0.7,2.8,1.2,4.3,1.1c1.8-0.1,3.5-0.7,5.3-0.9c3.5-0.2,6.8,1.2,10.1,1.7c1.5,0.2,3.1,0.2,4.7-0.1
		c1.8-0.4,3.6-1.1,5.5-1.2c1.9-0.1,3.7,0.7,5.6,1c1.6,0.2,3.2-0.2,4.8-0.3c3.8-0.4,7.6,0.6,11.3,1.1c6.9,1,13.9,0.8,20.8-0.6
		c3.8-0.8,7.5-1.8,11.1-3.3c1.4-0.5,2.6-1.4,3.6-2.6l0.1-0.1c0,0,0,0,0,0L107.9,58.3z M24,38.6L24,38.6L24,38.6z M24.3,38.9l0-0.2
		l0.1,0c0.1,0,0.3,0.1,0.4,0.1c0,0.2,0,0.2-0.1,0.2C24.5,38.9,24.4,39,24.3,38.9L24.3,38.9z M25,39.2l0-0.2l0.1,0l0.4,0.1
		c0,0.2,0,0.2-0.1,0.2L25,39.2z M39.2,42.5l0-0.2l0.2,0c0.1,0,0.2,0,0.2,0h0.2c0,0.2,0,0.2-0.2,0.1l-0.2,0
		C39.4,42.5,39.3,42.5,39.2,42.5L39.2,42.5z M24,38.7L24,38.7L24,38.7z M23.5,38.7l0-0.2l0.1,0c0.1,0,0.2,0,0.4,0.1
		c0,0.2,0,0.2-0.1,0.2C23.8,38.8,23.6,38.8,23.5,38.7L23.5,38.7z M23.2,38.5L23.2,38.5L23.2,38.5z M39,42.1L39,42.1L39,42.1z
		 M27.4,39.8l0-0.2l0.1,0l0.4,0.1c0,0.2,0,0.1-0.1,0.2L27.4,39.8z M28.2,40l0-0.2l0.1,0l0.4,0.1c0,0.2,0,0.2-0.1,0.2L28.2,40z
		 M36.1,41.7l0-0.2l0.2,0l0.4,0.1c0,0.1,0,0.2-0.1,0.2l0,0L36.1,41.7z M27.2,39.4L27.2,39.4L27.2,39.4z M27.1,39.6
		c0.1,0,0.1-0.1,0.1-0.2l0,0l-0.4-0.1l-0.1,0l0,0.2L27.1,39.6z M27.2,39.5L27.2,39.5L27.2,39.5z M25.8,39.3l0-0.1l0.1,0l0.4,0.1
		c0,0.2,0,0.2-0.1,0.2L25.8,39.3z M37.7,42l0-0.2l0.2,0l0.4,0.1c0,0.2,0,0.2-0.1,0.2L37.7,42z M21.9,38.3l0-0.2l0.1,0
		c0.1,0,0.3,0,0.4,0.1c0,0.1,0,0.2-0.1,0.2l0,0C22.2,38.3,22,38.4,21.9,38.3L21.9,38.3z M21.7,38.1L21.7,38.1L21.7,38.1z M21.7,38
		L21.7,38L21.7,38z M36.9,41.9l0-0.2l0.1,0l0.4,0.1c0,0.1,0,0.2-0.1,0.2c0,0,0,0,0,0L36.9,41.9z M38.3,42L38.3,42L38.3,42z
		 M22.7,38.6l0-0.2l0.1,0c0.1,0,0.3,0.1,0.4,0.1c0,0.2,0,0.2-0.1,0.2C22.9,38.6,22.8,38.6,22.7,38.6L22.7,38.6z M23.3,38.5
		L23.3,38.5L23.3,38.5z M38.5,42.2l0-0.2l0.2,0c0.2,0.1,0.3,0.1,0.4,0.1c0,0.2,0,0.2-0.1,0.2C38.7,42.2,38.6,42.3,38.5,42.2
		L38.5,42.2z M36.7,41.6L36.7,41.6L36.7,41.6z M36.6,41.6L36.6,41.6L36.6,41.6z M39,42.1L39,42.1L39,42.1z M38.2,42L38.2,42L38.2,42
		z M41.4,42.4L41.4,42.4L41.4,42.4z M40.9,42.3c0.2,0,0.2,0,0.5,0c0,0.2,0,0.2,0,0.1c-0.2,0-0.2,0-0.4,0
		C40.9,42.6,40.8,42.4,40.9,42.3C40.7,42.4,40.9,42.3,40.9,42.3L40.9,42.3z M32.1,40.8l0-0.2l0.2,0l0.4,0.2c0,0.2,0,0.2,0,0.1
		L32.1,40.8z M31.3,40.6l0-0.2l0.1,0l0.4,0.1c0,0.2,0,0.2-0.1,0.2L31.3,40.6z M40.1,42.3c0.2,0,0.2,0,0.5,0c0,0.1,0,0.2-0.1,0.2h0
		c-0.1,0-0.2,0-0.3,0C40.1,42.6,40.1,42.4,40.1,42.3C40,42.4,40.2,42.3,40.1,42.3L40.1,42.3z M41.4,42.4L41.4,42.4L41.4,42.4z
		 M20.9,37.9L20.9,37.9L20.9,37.9z M31.1,40.3L31.1,40.3L31.1,40.3z M20.9,37.9L20.9,37.9L20.9,37.9z M21.2,38.2l0-0.2l0.1,0
		c0.1,0,0.3,0,0.4,0.1c0,0.1,0,0.2-0.1,0.2l0,0C21.4,38.2,21.3,38.2,21.2,38.2L21.2,38.2z M33.7,41.2l0-0.2l0.2,0l0.4,0.1
		c0,0.2,0,0.2-0.1,0.2L33.7,41.2z M35.3,41.6l0-0.2l0.2,0l0.4,0.1c0,0.1,0,0.2-0.1,0.2l0,0L35.3,41.6z M32.9,41l0-0.2l0.2,0l0.4,0.1
		c0,0.2,0,0.2-0.1,0.2L32.9,41z M34.4,41.3l0-0.2l0.2,0l0.4,0.1c0.2,0.2,0,0.2-0.1,0.2L34.4,41.3z M29.5,40L29.5,40L29.5,40z
		 M39.8,42.3L39.8,42.3L39.8,42.3z M39.8,42.3L39.8,42.3L39.8,42.3z M29,40.1l0-0.2l0.1,0l0.4,0.1c0,0.2,0,0.2-0.1,0.2L29,40.1z
		 M28.8,39.9L28.8,39.9L28.8,39.9z M28.7,39.9L28.7,39.9L28.7,39.9z M29.8,40.3l0-0.2l0.1,0l0.4,0.1c0,0.2,0,0.2-0.1,0.2L29.8,40.3z
		 M29.5,40L29.5,40L29.5,40z M30.3,40.2L30.3,40.2L30.3,40.2z M41.8,42.3c0.2,0,0.2,0,0.5,0c0,0.2,0,0.1,0,0.1c-0.2,0-0.2,0-0.4,0
		C41.8,42.6,41.7,42.4,41.8,42.3C41.6,42.4,41.8,42.3,41.8,42.3z M30.5,40.5l0-0.2l0.1,0l0.4,0.1c0,0.2,0,0.2-0.1,0.2L30.5,40.5z
		 M30.3,40.2L30.3,40.2L30.3,40.2z M31.1,40.4L31.1,40.4L31.1,40.4z M25.6,47.3l-0.4-0.1L25,47.1l0.1-0.1l0.4,0.1
		C25.7,47.2,25.7,47.2,25.6,47.3L25.6,47.3z M26.4,47.3c0.1,0,0.2,0.1,0,0.2l-0.4-0.1l-0.1-0.1l0.1-0.1L26.4,47.3z M32.6,49.5
		c-0.2-0.1-0.3-0.1-0.4-0.2c0,0-0.1-0.1,0-0.1c0,0,0.1-0.1,0.1,0c0.1,0.1,0.2,0.1,0.3,0.2C32.7,49.4,32.7,49.4,32.6,49.5L32.6,49.5z
		 M24.8,47.1L24.4,47l-0.1-0.1l0.1-0.1l0.4,0.1C24.9,46.9,24.9,46.9,24.8,47.1z M33.3,49.9c-0.2-0.1-0.3-0.1-0.4-0.2
		c0,0-0.1-0.1,0-0.1c0,0,0.1-0.1,0.1,0c0.1,0.1,0.2,0.1,0.3,0.2C33.3,49.8,33.4,49.8,33.3,49.9z M30.4,48.4c0.1,0,0.1,0.1,0,0.2
		c-0.1,0-0.2-0.1-0.4-0.1l-0.1-0.1l0.1-0.1C30,48.3,30.1,48.4,30.4,48.4L30.4,48.4z M20.5,46l-0.1-0.1l0.1-0.1l0.4,0.1
		c0.1,0,0.1,0.1,0,0.2L20.5,46z M34,50.4c-0.2-0.1-0.3-0.2-0.4-0.2c0,0-0.1-0.1,0-0.1c0,0,0.1-0.1,0.1,0c0.1,0.1,0.2,0.1,0.3,0.2
		C34.1,50.3,34.1,50.3,34,50.4L34,50.4z M31.9,48.9c0.1,0.1,0.1,0.2,0,0.2c0,0,0,0,0,0c-0.2-0.1-0.3-0.1-0.4-0.2c0,0-0.1-0.1,0-0.1
		c0,0,0.1-0.1,0.1,0C31.7,48.8,31.8,48.9,31.9,48.9L31.9,48.9z M22.5,46.5L22.5,46.5L22.5,46.5z M31,48.6c0.2,0.1,0.2,0.1,0.1,0.2
		l-0.2-0.1c-0.1,0-0.2,0-0.2-0.1l-0.1-0.1l0.1-0.1c0.1,0,0.2,0,0.2,0.1L31,48.6z M26.8,47.4l0.4,0.1c0.1,0.1,0.1,0.2,0,0.2
		c0,0,0,0,0,0l-0.4-0.1l-0.1-0.1L26.8,47.4z M24,46.7c0.1,0,0.1,0,0,0.1h-0.4l-0.1-0.1l0.1-0.1L24,46.7z M22.8,46.4l0.4,0.1
		c0.1,0,0.1,0,0,0.2l-0.4-0.1l-0.1-0.1L22.8,46.4z M21.3,46l0.4,0.1c0.1,0,0.1,0.1,0,0.2l-0.4-0.1l-0.1-0.1L21.3,46z M22.1,46.2
		l0.4,0.1c0.1,0,0.1,0.1,0,0.2l-0.4-0.1l-0.1-0.1L22.1,46.2z M19.8,45.7l-0.1-0.1l0.1-0.1l0.4,0.1c0.1,0.1,0.1,0.1,0,0.2L19.8,45.7z
		 M36.2,52.7l-0.3-0.3v-0.1H36c0.1,0.1,0.1,0.2,0.2,0.3C36.3,52.6,36.3,52.6,36.2,52.7L36.2,52.7z M29.1,48l0.4,0.1
		c0.1,0,0.1,0.1,0,0.2l-0.4-0.1L29,48.2L29.1,48z M34.3,50.5c0.1,0.1,0.2,0.2,0.3,0.2c0,0.1,0,0.2-0.1,0.2c-0.2-0.1-0.2-0.2-0.3-0.3
		v-0.1H34.3z M35.3,51.4L35.3,51.4C35.3,51.3,35.3,51.3,35.3,51.4L35.3,51.4z M28.4,47.8l0.4,0.1c0.1,0.1,0.1,0.2,0,0.2c0,0,0,0,0,0
		L28.4,48l-0.1-0.1L28.4,47.8z M35,51l0.3,0.3c0,0,0,0.1-0.1,0.1c-0.1,0-0.1,0-0.1,0c-0.1-0.1-0.2-0.2-0.2-0.3V51L35,51z M35.8,52
		l-0.3-0.3v-0.1h0.1c0.1,0.1,0.2,0.2,0.2,0.3C35.9,51.9,35.9,51.9,35.8,52z M27.6,47.6l0.4,0.1c0.1,0.1,0.1,0.2,0,0.2c0,0,0,0,0,0
		l-0.4-0.1l-0.1-0.1L27.6,47.6z M29,39.6l0-0.2l0.1,0l0.4,0.1c0,0.2,0,0.2-0.1,0.2L29,39.6z M28.7,39.3L28.7,39.3L28.7,39.3z
		 M30.3,39.7L30.3,39.7L30.3,39.7z M21.2,37.6l0-0.2l0.1,0c0.1,0,0.3,0,0.4,0.1c0,0.1,0,0.2-0.1,0.2l0,0
		C21.4,37.6,21.3,37.7,21.2,37.6L21.2,37.6z M27.4,39.2l0-0.2l0.1,0l0.4,0.1c0,0.2,0,0.1-0.1,0.2L27.4,39.2z M29.5,39.5L29.5,39.5
		L29.5,39.5z M34.4,40.8l0-0.2l0.2,0l0.4,0.1c0.2,0.2,0,0.2-0.1,0.2L34.4,40.8z M29.8,39.7l0-0.2l0.1,0l0.4,0.1c0,0.2,0,0.2-0.1,0.2
		L29.8,39.7z M20.9,37.3L20.9,37.3L20.9,37.3z M29.6,39.5L29.6,39.5L29.6,39.5z M20.9,37.3L20.9,37.3L20.9,37.3z M28.8,39.3
		L28.8,39.3L28.8,39.3z M24.3,38.3l0-0.2l0.1,0c0.1,0,0.3,0.1,0.4,0.1c0,0.2,0,0.2-0.1,0.2C24.5,38.3,24.4,38.4,24.3,38.3L24.3,38.3
		z M36.6,41.1L36.6,41.1L36.6,41.1z M25,38.6l0-0.2l0.1,0l0.4,0.1c0,0.2,0,0.2-0.1,0.2L25,38.6z M23.2,37.9L23.2,37.9L23.2,37.9z
		 M24,38.1L24,38.1L24,38.1z M24,38.1L24,38.1L24,38.1z M23.5,38.2l0-0.2l0.1,0c0.1,0,0.2,0,0.4,0.1c0,0.2,0,0.2-0.1,0.2
		C23.8,38.3,23.6,38.3,23.5,38.2L23.5,38.2z M21.7,37.5L21.7,37.5L21.7,37.5z M23.3,38L23.3,38L23.3,38z M22,37.8l0-0.2l0.1,0
		c0.1,0,0.3,0,0.4,0.1c0,0.1,0,0.2-0.1,0.2l0,0C22.2,37.8,22,37.8,22,37.8L22,37.8z M21.7,37.5L21.7,37.5L21.7,37.5z M27.2,38.9
		L27.2,38.9L27.2,38.9z M22.7,38l0-0.2l0.1,0c0.1,0,0.3,0.1,0.4,0.1c0,0.2,0,0.2-0.1,0.2C22.9,38,22.8,38.1,22.7,38L22.7,38z
		 M27.1,39.1c0.1,0,0.1-0.1,0.1-0.2l0,0l-0.4-0.1l-0.1,0l0,0.2L27.1,39.1z M27.2,38.9L27.2,38.9L27.2,38.9z M25.8,38.8l0-0.2l0.1,0
		l0.4,0.1c0,0.2,0,0.2-0.1,0.2L25.8,38.8z M28.2,39.4l0-0.2l0.1,0l0.4,0.1c0,0.2,0,0.2-0.1,0.2L28.2,39.4z M38.5,41.7l0-0.2l0.2,0
		c0.2,0.1,0.3,0.1,0.4,0.1c0,0.2,0,0.2-0.1,0.2C38.7,41.7,38.6,41.7,38.5,41.7L38.5,41.7z M40.2,41.8c0.2,0,0.2,0,0.5,0
		c0,0.1,0,0.2-0.1,0.2h0c-0.1,0-0.2,0-0.3,0C40.2,42,40.1,41.9,40.2,41.8C40,41.8,40.2,41.8,40.2,41.8L40.2,41.8z M38.2,41.4
		L38.2,41.4L38.2,41.4z M32.1,40.2l0-0.2l0.2,0l0.4,0.2c0,0.2,0,0.2,0,0.1L32.1,40.2z M32.9,40.5l0-0.2l0.2,0l0.4,0.1
		c0,0.2,0,0.2-0.1,0.2L32.9,40.5z M39.8,41.7L39.8,41.7L39.8,41.7z M39.2,41.9l0-0.2l0.2,0c0.1,0,0.2,0,0.2,0h0.2
		c0,0.2,0,0.2-0.2,0.1l-0.2,0C39.4,42,39.3,42,39.2,41.9L39.2,41.9z M38.3,41.4L38.3,41.4L38.3,41.4z M35.3,41l0-0.2l0.2,0l0.4,0.1
		c0,0.1,0,0.2-0.1,0.2l0,0L35.3,41z M31.1,39.8L31.1,39.8L31.1,39.8z M31.1,39.8L31.1,39.8L31.1,39.8z M39,41.6L39,41.6L39,41.6z
		 M39,41.6L39,41.6L39,41.6z M40.9,41.8c0.2,0,0.2,0,0.5,0c0,0.2,0,0.2,0,0.1c-0.2,0-0.2,0-0.4,0C40.9,42,40.8,41.9,40.9,41.8
		C40.7,41.8,40.9,41.8,40.9,41.8L40.9,41.8z M31.3,40l0-0.2l0.1,0l0.4,0.1c0,0.2,0,0.2-0.1,0.2L31.3,40z M41.4,41.8L41.4,41.8
		L41.4,41.8z M30.5,39.9l0-0.2l0.1,0l0.4,0.1c0,0.2,0,0.2-0.1,0.2L30.5,39.9z M36.7,41.1L36.7,41.1L36.7,41.1z M42.6,41.8
		c0.1,0,0.2,0,0.5-0.1c0.1,0.1,0.1,0.1,0,0.1c-0.1,0.1-0.2,0-0.4,0.1C42.6,42.1,42.5,41.9,42.6,41.8C42.4,41.9,42.6,41.8,42.6,41.8
		L42.6,41.8z M41.4,41.8L41.4,41.8L41.4,41.8z M41.8,41.8c0.2,0,0.2,0,0.5,0c0,0.2,0,0.1,0,0.1c-0.2,0-0.2,0-0.4,0
		C41.8,42,41.7,41.9,41.8,41.8C41.6,41.8,41.8,41.8,41.8,41.8L41.8,41.8z M36.1,41.2l0-0.2l0.2,0l0.4,0.1c0,0.1,0,0.2-0.1,0.2l0,0
		L36.1,41.2z M33.7,40.6l0-0.2l0.2,0l0.4,0.1c0,0.2,0,0.2-0.1,0.2L33.7,40.6z M36.9,41.3l0-0.2l0.1,0l0.4,0.1c0,0.1,0,0.2-0.1,0.2
		c0,0,0,0,0,0L36.9,41.3z M30.3,39.6L30.3,39.6L30.3,39.6z M37.7,41.5l0-0.2l0.2,0l0.4,0.1c0,0.2,0,0.2-0.1,0.2L37.7,41.5z
		 M39.8,41.8L39.8,41.8L39.8,41.8z M28,48.3c0.1,0.1,0.1,0.2,0,0.2c0,0,0,0,0,0l-0.4-0.1l-0.1-0.1l0.1-0.1L28,48.3z M27.2,48.1
		c0.1,0.1,0.1,0.2,0,0.2c0,0,0,0,0,0l-0.4-0.1l-0.1-0.1l0.1-0.1L27.2,48.1z M25.6,47.8l-0.4-0.1L25,47.6l0.1-0.1l0.4,0.1
		C25.7,47.7,25.7,47.7,25.6,47.8L25.6,47.8z M26.4,48.1L25.9,48l-0.1-0.1l0.1-0.1l0.4,0.1C26.5,47.8,26.6,48,26.4,48.1L26.4,48.1z
		 M30.4,49.2c-0.1,0-0.2-0.1-0.4-0.1L29.8,49l0.1-0.1c0.1,0,0.2,0.1,0.4,0.1C30.5,49,30.5,49.1,30.4,49.2L30.4,49.2z M32.5,50.1
		c-0.2-0.1-0.3-0.1-0.4-0.2c0,0-0.1-0.1,0-0.1c0,0,0.1-0.1,0.1,0c0.1,0.1,0.2,0.1,0.3,0.2C32.7,50,32.7,50,32.5,50.1L32.5,50.1z
		 M31.1,49.4l-0.2-0.1c-0.1,0-0.2,0-0.2-0.1l-0.1-0.1l0.1-0.1c0.1,0,0.2,0,0.2,0.1l0.1,0.1C31.2,49.3,31.2,49.3,31.1,49.4L31.1,49.4
		z M31.9,49.5c0.1,0.1,0.1,0.2,0,0.2c0,0,0,0,0,0c-0.2-0.1-0.3-0.1-0.4-0.2c0,0-0.1-0.1,0-0.1c0,0,0.1-0.1,0.1,0
		C31.7,49.4,31.8,49.5,31.9,49.5L31.9,49.5z M33.3,50.5c-0.2-0.1-0.3-0.1-0.4-0.2c0,0-0.1-0.1,0-0.1c0,0,0.1-0.1,0.1,0
		c0.1,0.1,0.2,0.1,0.3,0.2C33.3,50.4,33.4,50.4,33.3,50.5L33.3,50.5z M28.8,48.5c0.1,0.1,0.1,0.2,0,0.2c0,0,0,0,0,0l-0.4-0.1
		l-0.1-0.1l0.1-0.1L28.8,48.5z M34,50.9c-0.2-0.1-0.3-0.2-0.4-0.2c0,0-0.1-0.1,0-0.1c0,0,0.1-0.1,0.1,0c0.1,0.1,0.2,0.1,0.3,0.2
		C34.1,50.8,34.1,50.8,34,50.9L34,50.9z M29.6,49l-0.4-0.1L29,48.7l0.1-0.1l0.4,0.1C29.7,48.7,29.7,48.8,29.6,49L29.6,49z
		 M35.7,52.7l-0.3-0.4l0-0.1h0.1c0.1,0.1,0.2,0.2,0.2,0.3C35.8,52.5,35.8,52.5,35.7,52.7z M20.5,46.5l-0.1-0.1l0.1-0.1l0.4,0.1
		c0.1,0,0.1,0.1,0,0.2L20.5,46.5z M19.8,46.3l-0.1-0.1l0.1-0.1l0.4,0.1c0.1,0.1,0.1,0.1,0,0.2L19.8,46.3z M22.5,47.1L22.5,47.1
		L22.5,47.1z M34.7,51.3c0,0.1,0,0.2-0.1,0.2c-0.2-0.1-0.2-0.2-0.3-0.3V51h0.1C34.4,51.2,34.5,51.3,34.7,51.3L34.7,51.3z M35,51.6
		l0.3,0.3c0,0,0,0.1-0.1,0.1c-0.1,0-0.1,0-0.1,0c-0.1-0.1-0.2-0.2-0.2-0.3v-0.1L35,51.6z M24,47.4h-0.4l-0.1-0.1l0.1-0.1l0.4,0.1
		C24.2,47.3,24.2,47.3,24,47.4L24,47.4z M23.3,47.3l-0.4-0.1l-0.1-0.1l0.1-0.1l0.4,0.1C23.4,47.1,23.4,47.1,23.3,47.3L23.3,47.3z
		 M22.5,47.1L22.1,47L22,46.9l0.1-0.1l0.4,0.1C22.6,46.9,22.6,47,22.5,47.1L22.5,47.1z M24.8,47.6l-0.4-0.1l-0.1-0.1l0.1-0.1
		l0.4,0.1C24.9,47.5,24.9,47.5,24.8,47.6z M35.3,51.9L35.3,51.9C35.3,51.9,35.3,51.9,35.3,51.9z M21.7,46.8l-0.4-0.1l-0.1-0.1
		l0.1-0.1l0.4,0.1C21.8,46.7,21.8,46.8,21.7,46.8L21.7,46.8z M33.5,58.7c-0.1-0.1,0.2-0.2,0.3-0.2l6.7-0.6c2-0.2,4.1-0.5,6.1-0.4
		c2.1,0.1,4.2,0.6,6.2,1c2.2,0.4,4.3,0.8,6.4,1.4c0.3,0.1-0.2,0.3-0.3,0.3c-2.1-0.5-4.1-1-6.2-1.3s-4.2-0.8-6.3-1
		c-2.1-0.2-4.4,0.2-6.5,0.4l-5.6,0.5c0.7,0.7,1.6,0.9,2.5,1.2c0.3,0.1-0.2,0.3-0.3,0.3C35.3,59.8,34.3,59.5,33.5,58.7L33.5,58.7z
		 M38.5,44C38.5,44.1,38.5,44.1,38.5,44c0.1,0,0.2,0,0.2,0l-0.1,0.3l0-0.1l0.1,0l0,0.1l0.1,0l-0.1-0.1c0.1,0,0.1,0,0.1-0.1
		c0,0,0,0,0-0.1c0.1,0,0.1,0.1,0.1,0.2c0,0.1-0.2,0.2-0.3,0.2l0,0c0.2,0,0.3-0.1,0.4-0.2s-0.1-0.3-0.2-0.4
		C38.8,43.8,38.6,43.9,38.5,44L38.5,44z M38.9,44.1L38.9,44.1L38.9,44.1L38.8,44c0,0,0.1,0,0.1,0c0,0,0,0,0,0
		C38.9,44,38.9,44.1,38.9,44.1L38.9,44.1z M38.8,44.5c-0.2,0-0.3-0.2-0.3-0.3h0C38.5,44.3,38.6,44.4,38.8,44.5
		C38.8,44.5,38.8,44.5,38.8,44.5z M32.3,43.4c-0.3,0.5-0.5,1-0.6,1.6c0,0.6,0,1,0.2,1.5l0.4,0.1c1.7,0.2,3.2,1,4.7,1.1
		c0.7-0.5,1-1.4,1-2.3c-0.7,0-1.2,0-1.8-0.1c0.1-0.1,0.2-0.2,0.3-0.3l0.7,0l0.8,0c0-0.1,0-0.2-0.1-0.2l-0.7,0.1l-0.5,0l0.6-0.5
		l0.7,0.2c-0.1,0-0.1-0.1-0.2-0.3l-0.8-0.2c0.1-0.1,0.3-0.3,0.4-0.4c-0.1,0-0.1-0.1-0.2-0.2c-0.3,0.3-0.8,0.7-0.8,0.7l-0.1-0.6
		l0.8-0.4c-0.1-0.1-0.1-0.1-0.2-0.2l-0.7,0.2c0,0-0.1-0.5-0.2-0.7l-0.2,0c0,0.3,0.1,0.9,0.1,0.9l-0.2,0l-0.3-1.2l-0.1,0
		c-0.2,0.2-0.3,0.5-0.6,0.7c-0.1-0.2-0.1-0.5-0.2-0.7c-0.2,0-0.3,0-0.5,0l-0.1,0.5l-0.6-0.2l-0.4,0.2l0.6,1l-0.2,0
		c0,0-0.3-0.6-0.5-0.9c0,0.1-0.1,0.1-0.2,0.2l0.3,0.6L32.3,43.4z M36.8,44.3l0.2,0l-0.4,0.5l-0.2,0L36.8,44.3z M36,43.8l0.1-0.1
		L36,43.9L36,43.8z M36.1,44.2l0.1,0.2l-0.1,0.1l-0.5,0.4l0.1-0.5L36.1,44.2z M36.2,45.1L36,45.4l-0.2,0l0.3-0.3L36.2,45.1z
		 M35.5,43c0,0.2,0.1,0.4,0.2,0.6l-0.2,0.5l-0.4,0.1L35,43.6L35.5,43z M35,44.5l0.2,0l-0.2,0.2l-0.1,0L35,44.5z M35,46.9l0.2-1.1
		c0.3,0,0.7,0,1,0l0.2,0.3l0.2,0l-0.1-0.2c0.2,0,0.3,0,0.5,0l0.2,0.4l0.3,0.1c0-0.2,0-0.3-0.1-0.5l0.3,0c0,0.4-0.1,0.8-0.3,1.2
		c-0.2,0.2-0.3,0.5-0.6,0.7l-0.1,0c-0.7-0.2-1.3-0.4-1.9-0.7L35,46.9z M33,44l-0.2,0.2l-0.4-0.3L33,44z M32.4,44.2l0.2,0
		c-0.1,0.1-0.2,0.2-0.3,0.3L32.4,44.2z M34.7,44.1c0,0.2,0,0.5,0,0.7l-0.1-0.4L34.7,44.1z M34.5,42.8c0,0.1,0.1,0.2,0,0.3l-0.1,0
		L34.5,42.8z M34.4,43.5l0.2,0.2L34.2,44L34.4,43.5z M34.3,44.7c0,0.1,0.1,0.1,0.2,0.2c-0.2,0.1-0.8,0.3-0.8,0.3l0.7,0.2l0.4-0.1
		c0.1,0.1,0.2,0.3,0.1,0.4l-0.2,1.1c-0.7-0.3-1.5-0.5-2.2-0.7c-0.1,0-0.1-0.1-0.1-0.2c0-0.3,0-0.6,0.1-0.9l0.2,0l0.4-0.2
		c0.1,0.1,0.3,0.2,0.4,0.3L33.1,45l0.3,0.1L34.3,44.7z M33.6,43l0.4,0.2l-0.1,0.4C33.8,43.4,33.7,43.2,33.6,43L33.6,43z M33.5,44
		l0.5,0.2l0.1,0.1l-0.5,0.2l-0.4-0.3L33.5,44z M35.2,47.6c0.6,0.2,1.2,0.2,1.8,0.3c-0.3,0.2-0.5,0.4-0.9,0.5
		c-1.4-0.4-2.7-1.1-4.1-1.5l-0.1-0.1C33,46.9,34.2,47.3,35.2,47.6L35.2,47.6z M35.9,48.6c-1,0.3-2.4,0-3.1-0.7
		c-0.2-0.2-0.4-0.4-0.5-0.7l0.1,0l0.6,0.2l1.7,0.6C35.1,48.3,35.5,48.4,35.9,48.6L35.9,48.6z"/>
</g>
<g class="st0">
	<path d="M29.7,102.4c-0.6,0-1.1-0.1-1.6-0.3c-0.5-0.2-1-0.5-1.3-0.9l0.8-0.9c0.3,0.3,0.6,0.5,1,0.6c0.4,0.2,0.8,0.2,1.2,0.2
		c0.5,0,0.8-0.1,1-0.3c0.2-0.2,0.4-0.4,0.4-0.7c0-0.2,0-0.3-0.1-0.4c-0.1-0.1-0.2-0.2-0.3-0.3c-0.1-0.1-0.3-0.2-0.4-0.2
		c-0.2-0.1-0.3-0.1-0.5-0.2l-1.1-0.5c-0.2-0.1-0.4-0.2-0.6-0.3c-0.2-0.1-0.4-0.3-0.5-0.4c-0.2-0.2-0.3-0.4-0.4-0.6
		c-0.1-0.2-0.1-0.5-0.1-0.8c0-0.3,0.1-0.6,0.2-0.9c0.1-0.3,0.3-0.5,0.6-0.7c0.2-0.2,0.5-0.4,0.9-0.5c0.3-0.1,0.7-0.2,1.1-0.2
		c0.5,0,0.9,0.1,1.4,0.3c0.4,0.2,0.8,0.4,1.1,0.7l-0.7,0.9c-0.3-0.2-0.5-0.4-0.8-0.5c-0.3-0.1-0.6-0.2-1-0.2c-0.4,0-0.7,0.1-0.9,0.2
		s-0.3,0.4-0.3,0.7c0,0.2,0,0.3,0.1,0.4c0.1,0.1,0.2,0.2,0.3,0.3s0.3,0.2,0.4,0.2c0.2,0.1,0.3,0.1,0.5,0.2l1,0.4
		c0.2,0.1,0.5,0.2,0.7,0.3s0.4,0.3,0.5,0.4s0.3,0.4,0.4,0.6c0.1,0.2,0.1,0.5,0.1,0.8c0,0.3-0.1,0.6-0.2,0.9
		c-0.1,0.3-0.3,0.5-0.6,0.7s-0.6,0.4-0.9,0.5C30.5,102.4,30.1,102.4,29.7,102.4z"/>
	<path d="M33.5,102.3l2.5-7.8h1.6l2.5,7.8h-1.5l-0.6-2.1h-2.6l-0.6,2.1H33.5z M36.1,98.1l-0.3,1h2l-0.3-1c-0.1-0.4-0.2-0.8-0.3-1.3
		c-0.1-0.4-0.2-0.9-0.3-1.3h0c-0.1,0.4-0.2,0.9-0.3,1.3C36.3,97.3,36.2,97.7,36.1,98.1z"/>
	<path d="M41.3,102.3v-7.8h1.5l2.1,4.4l0.7,1.7h0c0-0.4-0.1-0.8-0.1-1.3c0-0.5-0.1-0.9-0.1-1.4v-3.4h1.3v7.8h-1.5l-2.1-4.4l-0.7-1.7
		h0c0,0.4,0.1,0.9,0.1,1.3c0,0.5,0.1,0.9,0.1,1.3v3.4H41.3z"/>
	<path d="M48.6,102.3v-7.8h2.1c1.2,0,2.1,0.3,2.7,1c0.7,0.6,1,1.6,1,2.9c0,0.6-0.1,1.2-0.3,1.7s-0.4,0.9-0.7,1.2s-0.7,0.6-1.1,0.8
		c-0.4,0.2-1,0.3-1.5,0.3H48.6z M50,101.2h0.6c0.8,0,1.3-0.2,1.7-0.7c0.4-0.5,0.6-1.2,0.6-2.1c0-1-0.2-1.7-0.6-2.1
		c-0.4-0.4-1-0.7-1.7-0.7H50V101.2z"/>
	<path d="M55.1,102.3l2.5-7.8h1.6l2.5,7.8h-1.5l-0.6-2.1h-2.6l-0.6,2.1H55.1z M57.7,98.1l-0.3,1h2l-0.3-1c-0.1-0.4-0.2-0.8-0.3-1.3
		c-0.1-0.4-0.2-0.9-0.3-1.3h0c-0.1,0.4-0.2,0.9-0.3,1.3C57.9,97.3,57.8,97.7,57.7,98.1z"/>
	<path d="M63.5,102.3v-7.8h1.4v6.7h3.7v1.2H63.5z"/>
	<path d="M70.3,102.3v-1.2h1.9v-5.5h-1.9v-1.2h5.2v1.2h-1.9v5.5h1.9v1.2H70.3z"/>
	<path d="M76.7,102.3l2.5-7.8h1.6l2.5,7.8h-1.5l-0.6-2.1h-2.6l-0.6,2.1H76.7z M79.3,98.1l-0.3,1h2l-0.3-1c-0.1-0.4-0.2-0.8-0.3-1.3
		c-0.1-0.4-0.2-0.9-0.3-1.3h0c-0.1,0.4-0.2,0.9-0.3,1.3C79.5,97.3,79.4,97.7,79.3,98.1z"/>
	<path d="M87.3,102.4c-0.6,0-1.1-0.1-1.6-0.3c-0.5-0.2-1-0.5-1.3-0.9l0.8-0.9c0.3,0.3,0.6,0.5,1,0.6c0.4,0.2,0.8,0.2,1.2,0.2
		c0.5,0,0.8-0.1,1-0.3s0.4-0.4,0.4-0.7c0-0.2,0-0.3-0.1-0.4s-0.2-0.2-0.3-0.3c-0.1-0.1-0.3-0.2-0.4-0.2s-0.3-0.1-0.5-0.2l-1.1-0.5
		c-0.2-0.1-0.4-0.2-0.6-0.3c-0.2-0.1-0.4-0.3-0.5-0.4s-0.3-0.4-0.4-0.6c-0.1-0.2-0.1-0.5-0.1-0.8c0-0.3,0.1-0.6,0.2-0.9
		c0.1-0.3,0.3-0.5,0.6-0.7c0.2-0.2,0.5-0.4,0.9-0.5c0.3-0.1,0.7-0.2,1.1-0.2c0.5,0,0.9,0.1,1.4,0.3c0.4,0.2,0.8,0.4,1.1,0.7
		l-0.7,0.9c-0.3-0.2-0.5-0.4-0.8-0.5c-0.3-0.1-0.6-0.2-1-0.2c-0.4,0-0.7,0.1-0.9,0.2s-0.3,0.4-0.3,0.7c0,0.2,0,0.3,0.1,0.4
		c0.1,0.1,0.2,0.2,0.3,0.3c0.1,0.1,0.3,0.2,0.4,0.2c0.2,0.1,0.3,0.1,0.5,0.2l1,0.4c0.2,0.1,0.5,0.2,0.7,0.3s0.4,0.3,0.5,0.4
		s0.3,0.4,0.4,0.6c0.1,0.2,0.1,0.5,0.1,0.8c0,0.3-0.1,0.6-0.2,0.9c-0.1,0.3-0.3,0.5-0.6,0.7s-0.6,0.4-0.9,0.5
		C88.1,102.4,87.7,102.4,87.3,102.4z"/>
</g>
</svg>
