<?xml version="1.0" encoding="utf-8"?>
<!-- Generator: Adobe Illustrator 24.3.0, SVG Export Plug-In . SVG Version: 6.00 Build 0)  -->
<svg version="1.1" id="Layer_1" xmlns="http://www.w3.org/2000/svg" xmlns:xlink="http://www.w3.org/1999/xlink" x="0px" y="0px"
	 viewBox="0 0 120 100" style="enable-background:new 0 0 120 100;" xml:space="preserve">
<style type="text/css">
	.st0{fill:#050505;}
	.st1{fill:#090909;}
	.st2{enable-background:new    ;}
</style>
<g id="XMLID_293_">
	<g id="XMLID_363_">
		<path id="XMLID_546_" class="st0" d="M34.2,60.1c-0.9,0-1.2-0.1-1.4-0.2c-0.2-0.1-0.4-0.3-0.6-0.5c-0.1,0.2-0.4,0.4-0.8,0.4
			c-0.8,0.2-5.1,0-5.7-0.1c-0.1,0-0.2,0-0.2,0c-0.3-0.1-0.8-0.1-1.1-0.4l-0.1-0.1c-0.2,0.2-0.4,0.4-0.8,0.5
			c-0.5,0.1-10.6-0.1-12-2.8c0-0.1-0.1-0.2-0.1-0.2c0-0.1,0-3.5,0.4-5.2c-0.2-0.2-0.4-0.6-0.4-1.2c0-0.6,0.3-1.2,1-1.6l0.1-0.1
			c0-0.4-0.1-1,0.2-1.4c0-0.1,0.1-0.1,0.2-0.2c-0.4-1.6-1.4-7.1,1.1-13.1c0.1-0.3,1.3-4,1.6-4.9c0.4-1.1,1.6-1.9,1.6-2
			c0.1-0.1,0.3-0.1,0.5-0.1c0.2,0.1,1.6,0.6,2.1,1c0.5,0.3,10.1,4.1,15.2,3h0.1c1.4,0.1,5.6-0.9,11.9-4.7c0.2-0.3,1.1-1.6,2-2.9
			c2-2.8,2.8-3.2,3.3-3.2c0.1,0,0.3,0.1,0.4,0.2c1.7,1.9,3.8,4.1,4.5,4.5c0.5,0,2.6,0,3.2,1.2c0.2,0.3,0.3,0.9,0.1,1.5l0.2,0.2
			c0.4-0.1,1.2-0.1,1.8,0.3c0.5,0.3,0.8,1,0.9,1.7l1.5,1.1c0.4-0.1,1.4-0.2,1.9,0.3c0.3,0.3,0.5,0.8,0.5,1.3
			c0.6-0.1,1.7-0.2,2.2,0.5c0.2,0.3,0.3,0.9,0.1,1.4c0.4,0.3,1.3,1,1.7,1.6c1,0.4,6.6,3,10.5,3.5c0.5,0,8.8,0.4,12.6,0.3
			c0.3,0,8.6-0.1,9.3,3.8c0.2,0.1,0.5,0.2,0.8,0.5c0.1,0.1,0.1,0.3,0.2,0.5c0.4,0.1,1,0.2,1.3,0.8s0.3,1.2,0,1.9
			c0.1,0.4,0.3,1.6-0.2,2.3c0,0.1-0.1,0.1-0.1,0.2c-0.5,0.8-1.4,2.1-9.3,5.1l0,0L96,55.1c-3.3,1.9-3.8,1.8-4.1,1.7h-0.1L91.7,57
			c-0.1,0.1-0.2,0.2-0.3,0.2l-2,0.5c-0.1,0-0.2,0-0.3,0l-0.8-0.9l-0.8,0.3c0,0.1,0,0.2-0.1,0.3c-0.1,0.2-0.3,0.4-0.9,0.5
			c-0.3,0-1.1,0.2-1.9,0.4c-2.4,0.5-3.1,0.6-3.4,0.5c-0.4-0.1-1-0.5-1.3-0.9l0,0c-0.2,0.2-0.5,0.5-1,0.8c-0.6,0.4-5.1,0.6-6.6,0.8
			c-0.1,0-0.2,0-0.3-0.1l-0.9-0.4c-0.1,0-0.1-0.1-0.2-0.2l-0.2-0.2c-0.2,0.3-0.6,0.9-1.3,1c-0.4,0-2.9-0.2-3.5-0.2
			c-3.2-0.2-3.3-0.3-3.4-0.4c-0.1-0.1-0.4-0.3-0.6-0.6l-1-0.3c-3-0.4-7.5-1.2-8.1-1.2c-0.4,0-2.3-0.1-4.4-0.2
			c-1.9-0.1-4.1-0.2-4.5-0.2c-0.5,0-1.1-0.1-1.6-0.2c0.1,3.2-0.6,3.4-1,3.5h-0.1c-0.1,0-3.5,0.3-4.1,0.3c-0.1,0-0.4,0-0.8,0
			C35.5,60,34.8,60.1,34.2,60.1z M33.5,58.9c0.4,0.1,2.2,0,3,0c0.4,0,0.6,0,0.9,0c0.4,0,2.8-0.2,3.8-0.2c0.2-0.4,0.3-1.8,0.2-3.2
			c0-0.2,0.1-0.3,0.2-0.4c0.1-0.1,0.3-0.1,0.5-0.1c0.3,0.1,1.4,0.4,2,0.4c0.4,0,2.5,0.1,4.5,0.2c1.9,0.1,3.8,0.2,4.3,0.2
			c0.9,0,7.6,1.1,8.4,1.2h0.1l1.1,0.4c0.1,0,0.1,0.1,0.2,0.1c0.2,0.2,0.4,0.4,0.5,0.5c0.9,0.1,5.9,0.5,6.3,0.5
			c0.1,0,0.4-0.3,0.5-0.6c0.1-0.2,0.3-0.3,0.5-0.3h0.5c0.2,0,0.3,0.1,0.4,0.2l0.3,0.4l0.6,0.3c2.6-0.1,5.3-0.3,5.9-0.5
			c0.4-0.3,1-0.9,1-0.9c0.1-0.1,0.2-0.1,0.3-0.1l0.5-0.1c0.2,0,0.4,0,0.5,0.2c0.3,0.3,0.8,0.8,0.9,0.8l0,0c0.3,0,2-0.3,3-0.5
			c0.9-0.2,1.6-0.3,2-0.4l0,0c-0.1-0.1,0-0.3,0-0.4c0.1-0.1,0.2-0.2,0.3-0.3l1.4-0.4c0.1,0,0.2,0,0.4,0l1,0.4l1.6-0.4l0.2-0.3
			c0.1-0.2,0.3-0.3,0.6-0.2l0.4,0.1c0.4-0.1,2-0.9,3.3-1.7h0.1l0.8-0.2c7.6-2.9,8.3-4.1,8.8-4.7c0-0.1,0.1-0.2,0.1-0.2
			c0.2-0.3,0.1-1.2,0-1.5c0-0.1,0-0.3,0-0.4c0.2-0.5,0.3-0.9,0.1-1.1s-0.8-0.3-1.1-0.3c-0.2,0-0.3-0.1-0.5-0.2
			c-0.1-0.1-0.1-0.3-0.1-0.5c0.1-0.1,0-0.2,0-0.2c0-0.1-0.2-0.1-0.4-0.1c-0.3,0-0.5-0.2-0.5-0.5c-0.2-2.8-6.1-3.3-8.3-3.3
			c-3.8,0.2-12.2-0.2-12.6-0.2l0,0c-4.4-0.6-10.7-3.5-11-3.8c-0.1,0-0.2-0.1-0.2-0.2c-0.4-0.8-1.5-1.5-1.8-1.7
			c-0.2-0.1-0.3-0.5-0.2-0.8c0.2-0.4,0.2-0.6,0.2-0.6c-0.1-0.1-0.9-0.2-1.5,0c-0.1,0-0.2,0-0.3,0l-0.4-0.1c-0.3-0.1-0.4-0.3-0.4-0.6
			c0.1-0.4,0.1-0.8-0.1-0.9c-0.2-0.2-0.9-0.1-1.2,0c-0.2,0.1-0.3,0-0.5-0.1l-1.9-1.4c-0.1-0.1-0.2-0.3-0.2-0.4c0-0.5-0.1-1-0.4-1.2
			C61.6,28,61,28.2,61,28.2c-0.1,0-0.3,0-0.4-0.1l-0.9-0.5c-0.2-0.1-0.3-0.4-0.2-0.8c0.2-0.4,0.2-0.8,0.1-0.9
			c-0.3-0.4-1.6-0.6-2.3-0.6c-0.1,0-0.1,0-0.2,0c-1-0.3-3.6-3.2-4.8-4.5c-0.8,0.5-2.8,3.2-4.3,5.7c0,0.1-0.1,0.1-0.2,0.2
			c-7.7,4.8-11.9,5-12.5,4.9c-0.8,0.1-1.5,0.2-2.2,0.2c-5.7,0-13.3-3.1-13.7-3.3c-0.3-0.2-1.1-0.5-1.6-0.8c-0.3,0.3-0.9,0.9-1.1,1.4
			C16.3,30,15,33.9,15,33.9l0,0c-2.8,6.5-1,12.7-1,12.8c0,0.1,0,0.3-0.1,0.4s-0.2,0.2-0.3,0.2c-0.1,0.1-0.1,0.5,0,0.9
			c0,0.2,0,0.4-0.2,0.5l-0.4,0.3c-0.3,0.3-0.5,0.5-0.5,0.8c0,0.3,0.3,0.5,0.3,0.5c0.2,0.1,0.3,0.4,0.2,0.6c-0.3,1.1-0.4,4-0.4,5.1
			c1.2,1.7,9.9,2.2,10.8,2.1c0,0,0.1-0.3,0.1-0.5c0-0.3,0.2-0.5,0.5-0.5h0.4c0.2,0,0.4,0.2,0.5,0.4c0.1,0.3,0.2,0.6,0.2,0.8
			c0,0,0.2,0,0.3,0.1c0.1,0,0.2,0,0.3,0c0.4,0.1,4.6,0.2,5.1,0.1c0.1,0,0.1-0.3,0.1-0.5s0.1-0.4,0.3-0.5c0.1,0,0.5-0.2,0.9,0.1
			c0.1,0.1,0.3,0.3,0.3,0.8C33,58.5,33.3,58.7,33.5,58.9z"/>
	</g>
	<g id="XMLID_361_">
		<path id="XMLID_362_" class="st0" d="M71.4,51.9c-9,0-16.8-1.7-16.9-1.8c-7.4-1.5-19-1.5-25.4-1.5h-0.8c-5.9,0-14.6-1.6-14.6-1.6
			l-0.1-0.1l0.1-0.1c0.1,0,8.7,1.6,14.6,1.6h0.8c6.3,0,18,0,25.4,1.5c0.1,0,13.2,3,24.9,1.2c0.2,0,16.5-1.7,24.1-7.2h0.1V44
			c-7.6,5.6-24,7.2-24.1,7.2C76.7,51.8,73.9,51.9,71.4,51.9z"/>
	</g>
	<g id="XMLID_360_">
		<path id="XMLID_506_" class="st0" d="M71.2,53.5L71.2,53.5c-0.4,0-0.9,0-1.3,0c-0.1,0-0.2-0.1-0.2-0.2c0-0.1,0.1-0.2,0.2-0.2
			c0.4,0,0.9,0,1.3,0c0.1,0,0.2,0.1,0.2,0.2C71.4,53.5,71.3,53.5,71.2,53.5z M72.4,53.5c-0.1,0-0.2-0.1-0.2-0.2
			c0-0.1,0.1-0.2,0.2-0.2c0.4,0,0.9,0,1.3,0c0.1,0,0.2,0.1,0.2,0.2c0,0.1-0.1,0.2-0.2,0.2C73.3,53.5,72.9,53.5,72.4,53.5L72.4,53.5z
			 M68.6,53.5L68.6,53.5c-0.4,0-0.9,0-1.3-0.1c-0.1,0-0.2-0.1-0.2-0.2c0-0.1,0.1-0.2,0.2-0.2c0.4,0,0.9,0,1.3,0.1
			c0.1,0,0.2,0.1,0.2,0.2C68.8,53.4,68.7,53.5,68.6,53.5z M75,53.4c-0.1,0-0.2-0.1-0.2-0.2c0-0.1,0.1-0.2,0.2-0.2
			c0.4,0,0.9-0.1,1.3-0.1c0.1,0,0.2,0.1,0.2,0.2c0,0.1-0.1,0.2-0.2,0.2C75.9,53.4,75.4,53.4,75,53.4L75,53.4z M66,53.4L66,53.4
			c-0.4,0-0.9-0.1-1.3-0.1c-0.1,0-0.2-0.1-0.2-0.2c0-0.1,0.1-0.2,0.2-0.2c0.4,0,0.9,0.1,1.3,0.1c0.1,0,0.2,0.1,0.2,0.2
			C66.2,53.3,66.1,53.4,66,53.4z M77.6,53.2c-0.1,0-0.2-0.1-0.2-0.2c0-0.1,0.1-0.2,0.2-0.2c0.4,0,0.9-0.1,1.3-0.1
			c0.1,0,0.2,0.1,0.2,0.1c0,0.1-0.1,0.2-0.1,0.2C78.4,53.1,78,53.2,77.6,53.2L77.6,53.2z M63.5,53.2L63.5,53.2
			c-0.4,0-0.9-0.1-1.3-0.1c-0.1,0-0.2-0.1-0.2-0.2c0-0.1,0.1-0.2,0.2-0.2c0.4,0,0.9,0.1,1.3,0.1c0.1,0,0.2,0.1,0.2,0.2
			C63.7,53.1,63.6,53.2,63.5,53.2z M80.2,52.9c-0.1,0-0.2-0.1-0.2-0.1c0-0.1,0.1-0.2,0.1-0.2c0.3,0,0.8-0.1,1.3-0.2
			c0.1,0,0.2,0,0.2,0.1s0,0.2-0.1,0.2C80.9,52.8,80.5,52.9,80.2,52.9L80.2,52.9z M61,52.9C60.9,52.9,60.9,52.9,61,52.9
			c-0.4-0.1-0.9-0.1-1.3-0.2c-0.1,0-0.2-0.1-0.1-0.2c0-0.1,0.1-0.2,0.2-0.1c0.4,0.1,0.9,0.1,1.3,0.2c0.1,0,0.2,0.1,0.1,0.2
			C61.1,52.8,61,52.9,61,52.9z M82.6,52.6c-0.1,0-0.2-0.1-0.2-0.1c0-0.1,0-0.2,0.1-0.2c0.4-0.1,0.9-0.1,1.3-0.2c0.1,0,0.2,0,0.2,0.1
			s0,0.2-0.1,0.2C83.5,52.4,83,52.5,82.6,52.6C82.7,52.6,82.7,52.6,82.6,52.6z M58.4,52.6L58.4,52.6c-0.5-0.1-1-0.1-1.3-0.2
			c-0.1,0-0.2-0.1-0.1-0.2c0-0.1,0.1-0.2,0.2-0.1c0.4,0.1,0.9,0.1,1.3,0.2c0.1,0,0.2,0.1,0.1,0.2C58.5,52.5,58.5,52.6,58.4,52.6z
			 M55.8,52L55.8,52c-0.6-0.1-1.1-0.2-1.3-0.2c-0.1,0-0.2-0.1-0.1-0.2c0-0.1,0.1-0.2,0.2-0.1c0.2,0,0.6,0.1,1.3,0.2
			c0.1,0,0.2,0.1,0.1,0.2C56.1,52,56,52,55.8,52z M85.2,52c-0.1,0-0.2-0.1-0.2-0.1c0-0.1,0-0.2,0.1-0.2c0.4-0.1,0.9-0.2,1.3-0.2
			c0.1,0,0.2,0,0.2,0.1s0,0.2-0.1,0.2C86,51.9,85.6,52,85.2,52L85.2,52z M53.4,51.6C53.4,51.6,53.3,51.6,53.4,51.6
			c-0.4-0.1-0.9-0.1-1.3-0.2c-0.1,0-0.2-0.1-0.1-0.2c0-0.1,0.1-0.2,0.2-0.1c0.4,0.1,0.9,0.1,1.3,0.2c0.1,0,0.2,0.1,0.1,0.2
			C53.5,51.5,53.4,51.6,53.4,51.6z M87.8,51.6c-0.1,0-0.1-0.1-0.2-0.1c0-0.1,0-0.2,0.1-0.2c0.4-0.1,0.9-0.2,1.3-0.3
			c0.1,0,0.2,0,0.2,0.1s0,0.2-0.1,0.2C88.6,51.4,88.2,51.5,87.8,51.6L87.8,51.6z M50.8,51.2L50.8,51.2c-0.4-0.1-0.9-0.1-1.3-0.1
			c-0.1,0-0.2-0.1-0.2-0.2c0-0.1,0.1-0.2,0.2-0.2c0.4,0,0.9,0.1,1.3,0.1c0.1,0,0.2,0.1,0.1,0.2C51,51.2,50.9,51.2,50.8,51.2z
			 M90.2,51c-0.1,0-0.1-0.1-0.2-0.1c0-0.1,0-0.2,0.1-0.2c0.4-0.1,0.9-0.2,1.3-0.3c0.1,0,0.2,0,0.2,0.1s0,0.2-0.1,0.2
			C91.1,50.8,90.6,50.9,90.2,51L90.2,51z M48.2,50.9L48.2,50.9c-0.4,0-0.9-0.1-1.3-0.1c-0.1,0-0.2-0.1-0.2-0.2
			c0-0.1,0.1-0.2,0.2-0.2c0.4,0,0.9,0.1,1.3,0.1c0.1,0,0.2,0.1,0.2,0.2C48.5,50.9,48.4,50.9,48.2,50.9z M45.7,50.7L45.7,50.7
			c-0.4,0-0.9-0.1-1.3-0.1c-0.1,0-0.2-0.1-0.2-0.2c0-0.1,0.1-0.2,0.2-0.2c0.4,0,0.9,0.1,1.3,0.1c0.1,0,0.2,0.1,0.2,0.2
			C45.9,50.7,45.8,50.7,45.7,50.7z M43.1,50.5L43.1,50.5c-0.4,0-0.9,0-1.3-0.1c-0.1,0-0.2-0.1-0.2-0.2c0-0.1,0.1-0.2,0.2-0.2
			c0.4,0,0.9,0,1.3,0.1c0.1,0,0.2,0.1,0.2,0.2C43.3,50.4,43.2,50.5,43.1,50.5z M40.5,50.4L40.5,50.4c-0.4,0-0.9,0-1.3,0
			c-0.1,0-0.2-0.1-0.2-0.2c0-0.1,0.1-0.2,0.2-0.2c0.4,0,0.9,0,1.3,0c0.1,0,0.2,0.1,0.2,0.2C40.8,50.3,40.7,50.4,40.5,50.4z M38,50.3
			L38,50.3c-0.4,0-0.9,0-1.3,0c-0.1,0-0.2-0.1-0.2-0.2c0-0.1,0.1-0.2,0.2-0.2c0.4,0,0.9,0,1.3,0c0.1,0,0.2,0.1,0.2,0.2
			C38.2,50.3,38.1,50.3,38,50.3z M92.7,50.3c-0.1,0-0.1,0-0.2-0.1c0-0.1,0-0.2,0.1-0.2c0.4-0.1,0.9-0.2,1.2-0.3c0.1,0,0.2,0,0.2,0.1
			s0,0.2-0.1,0.2C93.5,50.1,93.1,50.2,92.7,50.3L92.7,50.3z M35.4,50.3L35.4,50.3c-0.4,0-0.9,0-1.3,0c-0.1,0-0.2-0.1-0.2-0.2
			c0-0.1,0.1-0.2,0.2-0.2l0,0c0.4,0,0.9,0,1.3,0c0.1,0,0.2,0.1,0.2,0.2S35.5,50.3,35.4,50.3z M33,50.3L33,50.3c-0.4,0-0.9,0-1.3,0
			c-0.1,0-0.2-0.1-0.2-0.2c0-0.1,0.1-0.2,0.2-0.2l0,0c0.4,0,0.9,0,1.3,0c0.1,0,0.2,0.1,0.2,0.2C33.1,50.2,33,50.3,33,50.3z
			 M29.1,50.2c-0.1,0-0.2-0.1-0.2-0.2c0-0.1,0.1-0.2,0.2-0.2h1.3c0.1,0,0.2,0.1,0.2,0.2c0,0.1-0.1,0.2-0.2,0.2H29.1z M27.8,50.2
			L27.8,50.2c-0.4,0-0.9,0-1.3,0c-0.1,0-0.2-0.1-0.2-0.2c0-0.1,0.1-0.2,0.2-0.2c0.4,0,0.9,0,1.3,0c0.1,0,0.2,0.1,0.2,0.2
			C27.9,50.2,27.9,50.2,27.8,50.2z M25.2,50.1L25.2,50.1c-0.4,0-0.9-0.1-1.3-0.1c-0.1,0-0.2-0.1-0.2-0.2c0-0.1,0.1-0.2,0.2-0.2
			c0.4,0,0.9,0.1,1.3,0.1c0.1,0,0.2,0.1,0.2,0.2C25.4,50.1,25.4,50.1,25.2,50.1z M22.7,49.9L22.7,49.9c-0.4,0-0.9-0.1-1.3-0.1
			c-0.1,0-0.2-0.1-0.2-0.2c0-0.1,0.1-0.2,0.2-0.2c0.4,0,0.9,0.1,1.3,0.1c0.1,0,0.2,0.1,0.2,0.2C22.8,49.9,22.8,49.9,22.7,49.9z
			 M20.1,49.7L20.1,49.7c-0.4-0.1-0.9-0.1-1.3-0.2c-0.1,0-0.2-0.1-0.1-0.2c0-0.1,0.1-0.2,0.2-0.1c0.4,0.1,0.9,0.1,1.3,0.2
			c0.1,0,0.2,0.1,0.1,0.2C20.3,49.6,20.2,49.7,20.1,49.7z M95.1,49.6c-0.1,0-0.1,0-0.2-0.1c0-0.1,0-0.2,0.1-0.2
			c0.4-0.1,0.9-0.3,1.2-0.4c0.1,0,0.2,0,0.2,0.1s0,0.2-0.1,0.2C96,49.3,95.7,49.5,95.1,49.6L95.1,49.6z M17.5,49.3L17.5,49.3
			c-0.4-0.1-0.9-0.1-1.3-0.2c-0.1,0-0.2-0.1-0.1-0.2c0-0.1,0.1-0.2,0.2-0.1c0.4,0.1,0.9,0.1,1.3,0.2c0.1,0,0.2,0.1,0.1,0.2
			C17.8,49.3,17.6,49.3,17.5,49.3z M15,48.9L15,48.9c-0.9-0.1-1.3-0.2-1.3-0.2c-0.1,0-0.2-0.1-0.1-0.2c0.1-0.1,0.1-0.2,0.2-0.1
			c0,0,0.4,0.1,1.3,0.2c0.1,0,0.2,0.1,0.1,0.2C15.2,48.8,15.1,48.9,15,48.9z M97.6,48.7c-0.1,0-0.1,0-0.2-0.1c0-0.1,0-0.2,0.1-0.2
			c0.4-0.1,0.9-0.3,1.2-0.4c0.1,0,0.2,0,0.2,0.1s0,0.2-0.1,0.2C98.4,48.4,98,48.6,97.6,48.7L97.6,48.7z M99.9,47.8
			c-0.1,0-0.1,0-0.2-0.1c0-0.1,0-0.2,0.1-0.2c0.4-0.2,0.8-0.3,1.2-0.5c0.1,0,0.2,0,0.2,0.1s0,0.2-0.1,0.2
			C100.8,47.3,100.4,47.5,99.9,47.8L99.9,47.8z M102.2,46.6c-0.1,0-0.1,0-0.1-0.1s0-0.2,0.1-0.2c0.4-0.2,0.8-0.4,1.1-0.6
			c0.1-0.1,0.2,0,0.2,0.1c0.1,0.1,0,0.2,0,0.2C103.1,46.2,102.7,46.4,102.2,46.6C102.3,46.6,102.3,46.6,102.2,46.6z"/>
	</g>
	<g id="XMLID_358_">
		<path id="XMLID_359_" class="st0" d="M70.6,55.4c-5.3,0-8.8-0.5-8.8-0.5l0,0c-7.7-2.3-23.9-2.6-24-2.6c-13.8,0.1-22.9-1.3-25.7-2
			c-0.2,0-0.3-0.2-0.2-0.4c0-0.2,0.2-0.3,0.4-0.2c2.8,0.8,11.7,2.1,25.5,2c0.2,0,16.4,0.2,24.2,2.6c0.4,0.1,5.8,0.9,13.5,0.4
			c7.4-0.4,18.5-2.2,29.7-7.9c0.2-0.1,0.4,0,0.5,0.1c0.1,0.2,0,0.4-0.1,0.5c-11.2,5.8-22.5,7.6-30,8C73.7,55.4,72,55.4,70.6,55.4z"
			/>
	</g>
	<g id="XMLID_356_">
		<path id="XMLID_357_" class="st0" d="M43.8,48.8h-0.1c-0.2-0.1-0.3-0.3-0.2-0.4c0-0.1,0.9-2.3,2.9-4.6c1.8-2,5.1-4.5,10.3-4.3l0,0
			c0.1,0,9.3,1.1,14.3,2.1c0.1,0,0.1,0.1,0.2,0.1c0,0,0,0,0.1,0c0.1-0.1,0.5-0.8,0.3-5c0-0.2,0.1-0.4,0.3-0.4s0.4,0.1,0.4,0.3
			c0.3,4.7-0.2,5.6-0.8,5.8c-0.3,0.1-0.6,0-0.8-0.1c-4.9-1.1-13.8-2-14.1-2.1c-3.8-0.2-7.2,1.2-9.6,4c-1.9,2.1-2.7,4.4-2.7,4.4
			C44.1,48.7,44,48.8,43.8,48.8z"/>
	</g>
	<g id="XMLID_353_">
		<path id="XMLID_355_" class="st0" d="M15.1,46.9c-0.1,0-0.2,0-0.3-0.1c-0.1-0.2-3.2-4.3,3.4-12.4c-0.3-0.9-1.6-4.4,0.1-6.4
			c0.1-0.1,0.3-0.2,0.5,0c0.1,0.1,0.2,0.3,0,0.5c-1.7,1.9,0,5.9,0.1,5.9c0.1,0.1,0,0.3,0,0.4c-6.3,7.8-3.5,11.7-3.5,11.7
			c0.1,0.1,0.1,0.4-0.1,0.5C15.3,46.9,15.2,46.9,15.1,46.9z"/>
	</g>
	<g id="XMLID_351_">
		<path id="XMLID_352_" class="st0" d="M34.3,54.8c-9.5,0-21.2-1.6-21.3-1.6c0,0-0.1,0-0.1-0.1c0,0,0-0.1,0.1-0.1
			c0.2,0,17.2,2.3,26.9,1.4c0,0,0.1,0,0.1,0.1c0,0,0,0.1-0.1,0.1C38.2,54.7,36.3,54.8,34.3,54.8z"/>
	</g>
	<g id="XMLID_349_">
		<path id="XMLID_350_" class="st0" d="M34.1,56c-9.5,0-21.2-1.6-21.3-1.6s-0.2-0.1-0.1-0.2c0-0.1,0.1-0.2,0.2-0.1
			c0.2,0,17.2,2.3,26.8,1.4c0.1,0,0.2,0.1,0.2,0.2c0,0.1-0.1,0.2-0.2,0.2C38.1,55.9,36.2,56,34.1,56z"/>
	</g>
	<g id="XMLID_347_">
		<path id="XMLID_348_" class="st0" d="M56.2,25.8C56.2,25.8,56.1,25.8,56.2,25.8c-0.1,0-0.1-0.1-0.1-0.1c0.3-0.4,0.9-0.6,0.9-0.6
			H57v0.1C56.9,25.3,56.5,25.4,56.2,25.8L56.2,25.8z"/>
	</g>
	<g id="XMLID_344_">
		<path id="XMLID_345_" class="st0" d="M57.2,26.8L57.2,26.8c-0.1,0-0.1-0.1-0.1-0.1s0.2-0.4,0.8-0.6s1.3,0,2.1,0.4
			c0,0,0.1,0.1,0,0.1c0,0-0.1,0.1-0.1,0c-0.8-0.4-1.4-0.5-1.9-0.4C57.6,26.4,57.3,26.8,57.2,26.8C57.3,26.8,57.2,26.8,57.2,26.8z"/>
	</g>
	<g id="XMLID_342_">
		<path id="XMLID_343_" class="st0" d="M59.8,28.8C59.8,28.8,59.7,28.7,59.8,28.8c-0.1-0.1-0.1-0.1-0.1-0.1s0.5-0.5,1.2-0.6
			c0,0,0.1,0,0.1,0.1c0,0,0,0.1-0.1,0.1C60.3,28.2,59.8,28.7,59.8,28.8C59.8,28.7,59.8,28.8,59.8,28.8z"/>
	</g>
	<g id="XMLID_340_">
		<path id="XMLID_341_" class="st0" d="M61,29.6C60.9,29.6,60.9,29.5,61,29.6c-0.1-0.1-0.1-0.1-0.1-0.1s1.2-1.2,1.9-0.4v0.1h-0.1
			C62.1,28.5,61,29.5,61,29.6C61,29.5,61,29.6,61,29.6z"/>
	</g>
	<g id="XMLID_338_">
		<path id="XMLID_339_" class="st0" d="M64.1,31.7L64.1,31.7C64,31.6,64,31.6,64,31.6s0.5-0.4,0.9-0.5c0,0,0.1,0,0.1,0.1
			c0,0,0,0.1-0.1,0.1C64.6,31.3,64.2,31.7,64.1,31.7L64.1,31.7z"/>
	</g>
	<g id="XMLID_336_">
		<path id="XMLID_337_" class="st0" d="M65.3,32.8L65.3,32.8c-0.1,0-0.1-0.1-0.1-0.1s0.4-0.6,1-0.6c0.2,0,0.4,0,0.5,0.2v0.1h-0.1
			c-0.1-0.1-0.3-0.1-0.4-0.1C65.7,32.1,65.4,32.7,65.3,32.8C65.4,32.7,65.3,32.8,65.3,32.8z"/>
	</g>
	<g id="XMLID_334_">
		<path id="XMLID_335_" class="st0" d="M68.1,34.4L68.1,34.4c-0.1-0.1-0.1-0.1-0.1-0.2c0,0,0.8-0.6,0.3-1.1V33h0.1
			C68.9,33.4,68.5,34.1,68.1,34.4C68.2,34.4,68.2,34.4,68.1,34.4z"/>
	</g>
	<g id="XMLID_332_">
		<path id="XMLID_333_" class="st0" d="M68.9,35C68.9,35,68.8,35,68.9,35c-0.1-0.1-0.1-0.1-0.1-0.1s0.3-0.3,0.4-0.6l0.1-0.1l0.1,0.1
			C69.3,34.6,69,35,68.9,35L68.9,35z"/>
	</g>
	<g id="XMLID_330_">
		<path id="XMLID_331_" class="st0" d="M56.8,27.5c-0.4,0-0.6-0.2-1.1-0.8c0-0.1-0.1-0.1-0.2-0.2c-0.2-0.3-0.3-0.6-0.3-0.9
			c0.1-0.3,0.3-0.4,0.4-0.5s0.3,0,0.3,0.1c0.1,0.1,0,0.3-0.1,0.3c0,0-0.1,0-0.1,0.1s0,0.2,0.2,0.4c0.1,0.1,0.1,0.1,0.2,0.2
			c0.4,0.5,0.5,0.5,0.8,0.5c0.3,0,0.3-0.2,0.3-0.2c0-0.1,0.2-0.2,0.3-0.2s0.2,0.2,0.2,0.3C57.8,27,57.6,27.4,56.8,27.5
			C56.9,27.5,56.8,27.5,56.8,27.5z"/>
	</g>
	<g id="XMLID_328_">
		<path id="XMLID_329_" class="st0" d="M60.5,30.2c-0.3,0-0.5-0.2-0.9-0.4c-0.1,0-0.1-0.1-0.2-0.2C59.1,29.4,59,29,59,28.8
			c0-0.4,0.3-0.8,0.4-0.8c0.1-0.1,0.3-0.1,0.4,0s0.1,0.3,0,0.4c-0.1,0-0.2,0.2-0.2,0.3s0.1,0.2,0.2,0.3c0.1,0.1,0.1,0.1,0.2,0.2
			c0.4,0.3,0.5,0.4,1,0.2c0.1-0.1,0.3,0,0.3,0.1c0.1,0.1,0,0.3-0.1,0.3C60.8,30.2,60.6,30.2,60.5,30.2z"/>
	</g>
	<g id="XMLID_326_">
		<path id="XMLID_327_" class="st0" d="M64.6,33.4c-0.2,0-0.4-0.1-0.8-0.3c-0.1-0.1-0.3-0.2-0.5-0.3c-0.4-0.3-0.4-0.5-0.4-0.8
			c0-0.5,0.8-1,0.9-1.1s0.3,0,0.3,0.1c0.1,0.1,0,0.3-0.1,0.3c-0.2,0.1-0.5,0.4-0.5,0.5s0.1,0.2,0.2,0.3c0.2,0.1,0.4,0.3,0.5,0.3
			c0.3,0.3,0.3,0.3,0.8,0.2c0.1,0,0.3,0,0.3,0.2c0,0.1,0,0.3-0.2,0.3C64.9,33.4,64.8,33.4,64.6,33.4z"/>
	</g>
	<g id="XMLID_324_">
		<path id="XMLID_325_" class="st0" d="M69,35.8c-0.1,0-0.2,0-0.2,0c-0.1,0-0.1,0-0.2,0c-0.6,0-1-0.4-1.3-1.1
			c-0.2-0.3-0.1-0.5-0.1-0.6c0.2-0.3,0.6-0.4,0.8-0.4s0.3,0.1,0.3,0.2c0,0.1-0.1,0.3-0.2,0.3s-0.2,0.1-0.2,0.1l0,0c0,0,0,0,0.1,0.1
			c0.4,0.6,0.5,0.8,0.9,0.8c0.1,0,0.2,0,0.2,0c0.1,0,0.3,0,0.4,0c0,0,0-0.1,0-0.2c0-0.1,0.1-0.3,0.2-0.3s0.3,0.1,0.3,0.2
			c0.1,0.3,0,0.5-0.1,0.6C69.4,35.8,69.2,35.8,69,35.8z"/>
	</g>
	<g id="XMLID_323_">
		<path id="XMLID_436_" class="st0" d="M37.9,48.1L37.9,48.1C37.8,48.1,37.8,48.1,37.9,48.1c-0.1-0.2-0.1-0.3-0.1-0.3s0-0.1,0.1-0.1
			l0,0c0,0,0.1,0,0.1,0.1C38,47.9,38,48,37.9,48.1C38,48.1,37.9,48.1,37.9,48.1z M37.9,47.4C37.8,47.4,37.8,47.4,37.9,47.4
			c-0.1-0.2-0.1-0.3-0.1-0.4c0,0,0-0.1,0.1-0.1c0,0,0.1,0,0.1,0.1S38,47.2,37.9,47.4C38,47.4,37.9,47.4,37.9,47.4L37.9,47.4z
			 M37.8,46.7C37.8,46.7,37.7,46.7,37.8,46.7c-0.1-0.2-0.1-0.3-0.1-0.4c0,0,0-0.1,0.1-0.1c0,0,0.1,0,0.1,0.1
			C37.9,46.4,37.9,46.5,37.8,46.7C37.9,46.7,37.9,46.7,37.8,46.7L37.8,46.7z M37.7,46C37.5,46,37.5,46,37.7,46
			c-0.1-0.2-0.1-0.3-0.2-0.4c0,0,0-0.1,0.1-0.1c0,0,0.1,0,0.1,0.1s0.1,0.2,0.1,0.3C37.8,45.9,37.7,46,37.7,46L37.7,46z M37.4,45.3
			C37.3,45.3,37.3,45.3,37.4,45.3c-0.1-0.2-0.2-0.3-0.2-0.4v-0.1h0.1c0,0.1,0.1,0.2,0.1,0.3C37.5,45.3,37.4,45.3,37.4,45.3
			L37.4,45.3z M37.1,44.7C37,44.7,37,44.7,37.1,44.7c-0.2-0.1-0.2-0.2-0.3-0.3v-0.1h0.1c0.1,0.1,0.1,0.2,0.2,0.3
			C37.2,44.5,37.2,44.7,37.1,44.7L37.1,44.7z M36.7,44L36.7,44c-0.1-0.1-0.2-0.2-0.3-0.3v-0.1h0.1c0.1,0.1,0.1,0.2,0.2,0.3
			C36.8,43.9,36.8,44,36.7,44C36.8,44,36.7,44,36.7,44z M36.3,43.5C36.3,43.5,36.3,43.4,36.3,43.5c-0.1-0.1-0.2-0.2-0.3-0.3V43h0.1
			c0.1,0.1,0.1,0.2,0.2,0.3C36.4,43.4,36.4,43.4,36.3,43.5C36.4,43.4,36.4,43.5,36.3,43.5z M35.8,42.8L35.8,42.8
			c-0.1-0.1-0.2-0.2-0.3-0.3v-0.1h0.1c0.1,0.1,0.2,0.2,0.2,0.3C36,42.7,36,42.8,35.8,42.8C36,42.8,35.8,42.8,35.8,42.8z M35.4,42.3
			C35.3,42.3,35.3,42.3,35.4,42.3c-0.1-0.1-0.2-0.2-0.3-0.3v-0.1h0.1c0.1,0.1,0.2,0.2,0.2,0.2C35.4,42.2,35.4,42.3,35.4,42.3
			L35.4,42.3z M34.9,41.8C34.8,41.8,34.8,41.8,34.9,41.8c-0.1-0.1-0.2-0.2-0.3-0.2v-0.1h0.1c0.1,0.1,0.2,0.2,0.3,0.2
			C35,41.7,35,41.8,34.9,41.8L34.9,41.8z M34.2,41.3L34.2,41.3c-0.1-0.1-0.2-0.2-0.3-0.2V41H34c0.1,0.1,0.2,0.1,0.3,0.2
			C34.3,41.2,34.3,41.2,34.2,41.3C34.3,41.3,34.3,41.3,34.2,41.3z M33.7,40.9L33.7,40.9c-0.1-0.1-0.2-0.2-0.3-0.2v-0.1h0.1
			c0.1,0.1,0.2,0.1,0.3,0.2C33.8,40.7,33.8,40.8,33.7,40.9C33.8,40.9,33.7,40.9,33.7,40.9z M33.2,40.5
			C33.1,40.5,33.1,40.5,33.2,40.5c-0.1-0.1-0.2-0.1-0.3-0.2v-0.1H33c0.1,0.1,0.2,0.1,0.3,0.2C33.2,40.3,33.2,40.4,33.2,40.5
			L33.2,40.5z M32.5,40L32.5,40c-0.1-0.1-0.2-0.1-0.3-0.2c0,0-0.1-0.1,0-0.1c0,0,0.1-0.1,0.1,0c0.1,0.1,0.2,0.1,0.3,0.2
			C32.6,40,32.6,40,32.5,40L32.5,40z M31.9,39.6L31.9,39.6c-0.1-0.1-0.2-0.1-0.3-0.2c0,0-0.1-0.1,0-0.1c0,0,0.1-0.1,0.1,0
			c0.1,0.1,0.2,0.1,0.3,0.2C32,39.5,32,39.5,31.9,39.6C32,39.6,31.9,39.6,31.9,39.6z M31.2,39.3L31.2,39.3c-0.1-0.1-0.2-0.1-0.3-0.2
			c0,0-0.1-0.1,0-0.1c0,0,0.1-0.1,0.1,0c0.1,0.1,0.2,0.1,0.3,0.2C31.3,39.1,31.3,39.2,31.2,39.3C31.3,39.3,31.2,39.3,31.2,39.3z
			 M30.6,38.9L30.6,38.9c-0.1-0.1-0.2-0.1-0.3-0.2c0,0-0.1-0.1,0-0.1c0,0,0.1-0.1,0.1,0c0.1,0.1,0.2,0.1,0.3,0.2
			C30.7,38.8,30.7,38.9,30.6,38.9C30.7,38.9,30.6,38.9,30.6,38.9z M30,38.6L30,38.6c-0.1-0.1-0.2-0.1-0.3-0.2c0,0-0.1-0.1,0-0.1
			c0,0,0.1-0.1,0.1,0c0.1,0.1,0.2,0.1,0.3,0.2C30.1,38.5,30.1,38.5,30,38.6C30.1,38.6,30,38.6,30,38.6z M29.3,38.2L29.3,38.2
			c-0.1-0.1-0.2-0.1-0.3-0.2c0,0-0.1-0.1,0-0.1c0,0,0.1-0.1,0.1,0c0.1,0,0.2,0.1,0.3,0.1C29.4,38.1,29.4,38.1,29.3,38.2
			C29.4,38.2,29.3,38.2,29.3,38.2z M28.7,37.9C28.7,37.9,28.6,37.9,28.7,37.9c-0.1-0.1-0.2-0.1-0.3-0.1c0,0-0.1-0.1,0-0.1
			c0,0,0.1-0.1,0.1,0c0.1,0,0.2,0.1,0.3,0.1C28.7,37.8,28.8,37.8,28.7,37.9L28.7,37.9z M27.9,37.7L27.9,37.7
			c-0.1-0.1-0.2-0.1-0.3-0.1c0,0-0.1-0.1,0-0.1c0,0,0.1-0.1,0.1,0c0.1,0,0.2,0.1,0.3,0.1C28,37.5,28,37.6,27.9,37.7
			C28,37.6,28,37.7,27.9,37.7z M27.3,37.4L27.3,37.4c-0.1,0-0.2-0.1-0.3-0.1c0,0-0.1-0.1,0-0.1c0,0,0.1-0.1,0.1,0
			c0.1,0,0.2,0.1,0.3,0.1C27.4,37.2,27.4,37.3,27.3,37.4C27.4,37.4,27.3,37.4,27.3,37.4z M26.6,37.1L26.6,37.1
			c-0.1,0-0.2-0.1-0.3-0.1c0,0-0.1-0.1,0-0.1c0,0,0.1-0.1,0.1,0c0.1,0,0.2,0.1,0.3,0.1C26.7,37,26.7,37,26.6,37.1L26.6,37.1z
			 M25.9,36.8L25.9,36.8c-0.1,0-0.2-0.1-0.4-0.1l-0.1-0.1l0.1-0.1c0.1,0,0.2,0.1,0.3,0.1C26,36.6,26,36.7,25.9,36.8
			C26,36.8,26,36.8,25.9,36.8z M25.2,36.6C25.2,36.6,25.2,36.5,25.2,36.6c-0.1,0-0.2-0.1-0.4-0.1l-0.1-0.1l0.1-0.1
			c0.1,0,0.2,0.1,0.3,0.1C25.4,36.4,25.4,36.4,25.2,36.6C25.4,36.5,25.2,36.6,25.2,36.6z M24.5,36.3L24.5,36.3
			c-0.1,0-0.2-0.1-0.4-0.1l-0.1-0.1l0.1-0.1c0.1,0,0.2,0.1,0.3,0.1C24.6,36.2,24.6,36.2,24.5,36.3C24.6,36.3,24.6,36.3,24.5,36.3z
			 M23.9,36.1L23.9,36.1c-0.1,0-0.2-0.1-0.4-0.1l-0.1-0.1l0.1-0.1c0.1,0,0.2,0.1,0.3,0.1C24,36,24,36,23.9,36.1
			C24,36.1,23.9,36.1,23.9,36.1z M23.1,35.9L23.1,35.9c-0.1,0-0.2-0.1-0.4-0.1l-0.1-0.1l0.1-0.1c0.1,0,0.2,0.1,0.3,0.1
			C23.2,35.7,23.2,35.8,23.1,35.9C23.2,35.9,23.2,35.9,23.1,35.9z M22.5,35.7L22.5,35.7c-0.1,0-0.2-0.1-0.4-0.1l-0.1-0.1l0.1-0.1
			c0.1,0,0.2,0.1,0.3,0.1C22.6,35.5,22.6,35.6,22.5,35.7C22.6,35.7,22.5,35.7,22.5,35.7z M21.7,35.5L21.7,35.5
			c-0.1,0-0.2-0.1-0.4-0.1l-0.1-0.1l0.1-0.1c0.1,0,0.2,0.1,0.3,0.1C21.8,35.3,21.8,35.3,21.7,35.5C21.8,35.5,21.8,35.5,21.7,35.5z
			 M21.1,35.2L21.1,35.2c-0.1,0-0.2-0.1-0.4-0.1L20.5,35l0.1-0.1c0.1,0,0.2,0.1,0.3,0.1C21.1,35.1,21.2,35.1,21.1,35.2L21.1,35.2z
			 M20.3,35.1L20.3,35.1c-0.1,0-0.3-0.1-0.4-0.1l-0.1-0.1l0.1-0.1c0.1,0,0.2,0.1,0.3,0.1C20.4,34.9,20.4,34.9,20.3,35.1
			C20.4,35,20.3,35.1,20.3,35.1z M19.6,34.9L19.6,34.9c-0.2-0.1-0.4-0.1-0.4-0.1L19,34.7l0.1-0.1c0,0,0.1,0,0.3,0.1
			C19.7,34.7,19.7,34.8,19.6,34.9C19.7,34.9,19.7,34.9,19.6,34.9z"/>
	</g>
	<g id="XMLID_322_">
		<path id="XMLID_386_" class="st0" d="M32.7,33.5L32.7,33.5c-0.1,0-0.2,0-0.3,0c0,0-0.1,0-0.1-0.1c0,0,0-0.1,0.1-0.1l0,0
			c0.1,0,0.2,0,0.3,0C32.7,33.4,32.7,33.4,32.7,33.5L32.7,33.5z M33.1,33.5C33.1,33.5,33,33.5,33.1,33.5c-0.1-0.1,0-0.2,0-0.2
			c0.1,0,0.2,0,0.3,0c0,0,0.1,0,0.1,0.1c0,0,0,0.1-0.1,0.1C33.3,33.5,33.2,33.5,33.1,33.5L33.1,33.5z M32,33.5L32,33.5
			c-0.1,0-0.2,0-0.3,0c0,0-0.1,0-0.1-0.1c0,0,0-0.1,0.1-0.1s0.2,0,0.3,0C32,33.4,32.1,33.4,32,33.5C32.1,33.5,32,33.5,32,33.5z
			 M33.8,33.5C33.7,33.5,33.7,33.5,33.8,33.5c-0.1-0.1,0-0.2,0-0.2c0.1,0,0.2,0,0.3,0c0,0,0.1,0,0.1,0.1c0,0,0,0.1-0.1,0.1
			C34,33.5,33.9,33.5,33.8,33.5L33.8,33.5z M31.2,33.5L31.2,33.5c-0.1,0-0.2,0-0.3,0c0,0-0.1,0-0.1-0.1c0,0,0-0.1,0.1-0.1
			s0.2,0,0.3,0C31.2,33.3,31.3,33.4,31.2,33.5C31.3,33.5,31.2,33.5,31.2,33.5z M34.5,33.5C34.5,33.5,34.5,33.5,34.5,33.5
			c-0.1-0.1-0.1-0.2,0-0.2s0.2,0,0.3,0c0,0,0.1,0,0.1,0.1c0,0,0,0.1-0.1,0.1C34.8,33.5,34.7,33.5,34.5,33.5L34.5,33.5z M30.5,33.5
			L30.5,33.5c-0.1,0-0.2,0-0.3,0c0,0-0.1,0-0.1-0.1c0,0,0-0.1,0.1-0.1s0.2,0,0.3,0C30.6,33.3,30.6,33.3,30.5,33.5
			C30.6,33.4,30.5,33.5,30.5,33.5z M35.2,33.5C35.2,33.5,35.2,33.4,35.2,33.5c-0.1-0.1-0.1-0.2,0-0.2s0.2,0,0.3,0c0,0,0.1,0,0.1,0.1
			c0,0,0,0.1-0.1,0.1C35.5,33.4,35.4,33.4,35.2,33.5C35.3,33.5,35.3,33.5,35.2,33.5z M29.7,33.4L29.7,33.4c-0.1,0-0.2,0-0.3,0
			c0,0-0.1,0-0.1-0.1c0,0,0-0.1,0.1-0.1s0.2,0,0.3,0C29.9,33.2,29.9,33.3,29.7,33.4C29.9,33.4,29.9,33.4,29.7,33.4z M36,33.4
			L36,33.4c-0.1-0.1-0.1-0.2,0-0.2s0.2,0,0.3,0c0,0,0.1,0,0.1,0.1c0,0,0,0.1-0.1,0.1C36.3,33.4,36.2,33.4,36,33.4L36,33.4z M29,33.3
			L29,33.3c-0.1,0-0.2,0-0.4,0c0,0-0.1,0-0.1-0.1c0,0,0-0.1,0.1-0.1s0.2,0,0.3,0C29.1,33.2,29.1,33.2,29,33.3
			C29.1,33.3,29.1,33.3,29,33.3z M36.7,33.3C36.7,33.3,36.6,33.3,36.7,33.3c-0.1-0.1-0.1-0.2,0-0.2s0.2,0,0.3,0c0,0,0.1,0,0.1,0.1
			c0,0,0,0.1-0.1,0.1C36.9,33.3,36.8,33.3,36.7,33.3L36.7,33.3z M28.4,33.2L28.4,33.2c-0.1,0-0.2,0-0.4-0.1L27.8,33l0.1-0.1
			c0.1,0,0.2,0,0.3,0.1C28.4,33.1,28.5,33.1,28.4,33.2L28.4,33.2z M37.4,33.2C37.3,33.2,37.3,33.2,37.4,33.2c-0.1-0.1-0.1-0.2,0-0.2
			s0.2,0,0.3-0.1c0,0,0.1,0,0.1,0.1c0,0,0,0.1-0.1,0.1C37.7,33.2,37.5,33.2,37.4,33.2L37.4,33.2z M27.6,33.1L27.6,33.1
			c-0.1,0-0.2,0-0.4-0.1l-0.1-0.1l0.1-0.1c0.1,0,0.2,0,0.3,0.1C27.6,33,27.7,33,27.6,33.1C27.7,33.1,27.6,33.1,27.6,33.1z
			 M38.2,33.1C38.1,33.1,38.1,33.1,38.2,33.1c-0.1-0.1-0.1-0.2,0-0.2s0.2,0,0.3-0.1c0,0,0.1,0,0.1,0.1c0,0,0,0.1-0.1,0.1
			C38.4,33.1,38.3,33.1,38.2,33.1L38.2,33.1z M26.9,33L26.9,33c-0.1,0-0.2,0-0.4-0.1l-0.1-0.1l0.1-0.1c0.1,0,0.2,0,0.3,0.1
			C27,32.9,27,32.9,26.9,33C27,33,27,33,26.9,33z M38.8,33C38.8,33,38.8,32.9,38.8,33c-0.1-0.1-0.1-0.2,0-0.2s0.2,0,0.3-0.1
			c0,0,0.1,0,0.1,0.1c0,0,0,0.1-0.1,0.1C39.2,32.9,39,32.9,38.8,33L38.8,33z M26.1,32.9L26.1,32.9c-0.1,0-0.2-0.1-0.4-0.1l-0.1-0.1
			l0.1-0.1c0.1,0,0.2,0,0.3,0.1C26.2,32.7,26.2,32.8,26.1,32.9C26.2,32.9,26.2,32.9,26.1,32.9z M39.6,32.8
			C39.6,32.8,39.5,32.8,39.6,32.8c-0.1-0.1-0.1-0.2,0-0.2s0.2-0.1,0.3-0.1c0,0,0.1,0,0.1,0.1c0,0,0,0.1-0.1,0.1
			C39.8,32.8,39.7,32.8,39.6,32.8L39.6,32.8z M25.5,32.7L25.5,32.7c-0.1,0-0.2-0.1-0.4-0.1l-0.1-0.1l0.1-0.1c0.1,0,0.2,0.1,0.3,0.1
			C25.5,32.6,25.6,32.6,25.5,32.7L25.5,32.7z M40.3,32.7C40.2,32.7,40.2,32.6,40.3,32.7c-0.1-0.1-0.1-0.2,0-0.2s0.2-0.1,0.3-0.1
			c0,0,0.1,0,0.1,0.1c0,0,0,0.1-0.1,0.1C40.5,32.6,40.4,32.6,40.3,32.7L40.3,32.7z M24.7,32.6L24.7,32.6c-0.1,0-0.2-0.1-0.4-0.1
			l-0.1-0.1l0.1-0.1c0.1,0,0.2,0.1,0.3,0.1C24.8,32.3,24.8,32.5,24.7,32.6C24.8,32.6,24.7,32.6,24.7,32.6z M41,32.5L41,32.5
			c-0.1-0.1-0.1-0.2,0-0.2s0.2-0.1,0.3-0.1c0,0,0.1,0,0.1,0.1c0,0,0,0.1-0.1,0.1C41.3,32.3,41.2,32.3,41,32.5L41,32.5z M24,32.3
			L24,32.3c-0.1,0-0.2-0.1-0.4-0.1l-0.1-0.1l0.1-0.1c0.1,0,0.2,0.1,0.3,0.1C24.1,32.1,24.1,32.2,24,32.3
			C24.1,32.3,24.1,32.3,24,32.3z M41.7,32.2C41.6,32.2,41.6,32.2,41.7,32.2c-0.1-0.1-0.1-0.2,0-0.2s0.2-0.1,0.3-0.1
			c0,0,0.1,0,0.1,0.1c0,0,0,0.1-0.1,0.1C41.9,32.1,41.8,32.1,41.7,32.2L41.7,32.2z M23.3,32.1L23.3,32.1c-0.1,0-0.2-0.1-0.4-0.1
			l-0.1-0.1l0.1-0.1c0.1,0,0.2,0.1,0.3,0.1C23.4,32,23.4,32,23.3,32.1C23.4,32.1,23.3,32.1,23.3,32.1z M42.4,32L42.4,32
			c-0.1-0.1-0.1-0.2,0-0.2s0.2-0.1,0.3-0.1c0,0,0.1,0,0.1,0.1c0,0,0,0.1-0.1,0.1C42.7,31.9,42.6,31.9,42.4,32
			C42.5,32,42.4,32,42.4,32z M22.6,31.9L22.6,31.9c-0.1,0-0.2-0.1-0.4-0.1L22,31.7l0.1-0.1c0.1,0,0.2,0.1,0.3,0.1
			C22.7,31.7,22.7,31.8,22.6,31.9C22.7,31.9,22.7,31.9,22.6,31.9z M43.1,31.7C43,31.7,43,31.7,43.1,31.7c-0.1-0.1-0.1-0.1,0-0.2
			c0.1,0,0.2-0.1,0.3-0.1h0.1v0.1C43.3,31.7,43.2,31.7,43.1,31.7L43.1,31.7z M21.9,31.7L21.9,31.7c-0.1,0-0.2-0.1-0.4-0.1l-0.1-0.1
			l0.1-0.1c0.1,0,0.2,0.1,0.3,0.1C22,31.5,22,31.6,21.9,31.7C22,31.7,21.9,31.7,21.9,31.7z M43.8,31.5L43.8,31.5
			c-0.1-0.1-0.1-0.1,0-0.2c0.1,0,0.2-0.1,0.3-0.1h0.1v0.1C44.1,31.4,44,31.5,43.8,31.5L43.8,31.5z M21.2,31.4L21.2,31.4
			c-0.1,0-0.2-0.1-0.4-0.1c0,0-0.1-0.1,0-0.1c0,0,0.1-0.1,0.1,0c0.1,0,0.2,0.1,0.3,0.1C21.3,31.3,21.3,31.3,21.2,31.4
			C21.3,31.4,21.3,31.4,21.2,31.4z M44.5,31.2C44.4,31.2,44.4,31.2,44.5,31.2c-0.1-0.1-0.1-0.1,0-0.2c0.1,0,0.2-0.1,0.3-0.1h0.1V31
			C44.7,31.1,44.6,31.2,44.5,31.2L44.5,31.2z M20.5,31.2L20.5,31.2c-0.1-0.1-0.2-0.1-0.3-0.1c0,0-0.1-0.1,0-0.1c0,0,0.1-0.1,0.1,0
			c0.1,0,0.2,0.1,0.3,0.1C20.6,31,20.6,31.1,20.5,31.2C20.6,31.2,20.5,31.2,20.5,31.2z M45.2,31C45,31,45,30.9,45.2,31
			c-0.1-0.1-0.1-0.1,0-0.2c0.1,0,0.2-0.1,0.3-0.1h0.1v0.1C45.4,30.9,45.3,30.9,45.2,31L45.2,31z M19.9,30.9L19.9,30.9
			c-0.1-0.1-0.2-0.1-0.3-0.1c0,0-0.1-0.1,0-0.1c0,0,0.1-0.1,0.1,0c0.1,0,0.2,0.1,0.3,0.1C20,30.7,20,30.7,19.9,30.9L19.9,30.9z
			 M45.8,30.6C45.8,30.6,45.7,30.6,45.8,30.6c-0.1-0.1-0.1-0.1,0-0.2c0.1,0,0.2-0.1,0.3-0.1h0.1v0.1C46,30.5,45.9,30.5,45.8,30.6
			L45.8,30.6z M19.2,30.5C19.1,30.5,19.1,30.5,19.2,30.5c-0.1-0.1-0.3-0.1-0.3-0.2c0,0-0.1-0.1,0-0.1c0,0,0.1-0.1,0.1,0
			c0.1,0,0.2,0.1,0.3,0.1C19.2,30.4,19.4,30.4,19.2,30.5L19.2,30.5z M46.4,30.3C46.4,30.3,46.3,30.3,46.4,30.3
			c-0.1-0.1-0.1-0.1,0-0.2c0.1-0.1,0.2-0.1,0.3-0.2h0.1V30C46.8,30.2,46.7,30.2,46.4,30.3L46.4,30.3z M18.5,30.2L18.5,30.2
			c-0.2-0.1-0.3-0.2-0.3-0.2s-0.1-0.1,0-0.1c0,0,0.1-0.1,0.1,0c0,0,0.1,0.1,0.3,0.2C18.6,30.1,18.6,30.1,18.5,30.2
			C18.6,30.2,18.6,30.2,18.5,30.2z M47.1,30C47.1,30,47.1,29.9,47.1,30c-0.1-0.1-0.1-0.1,0-0.2c0.1-0.1,0.2-0.1,0.3-0.2h0.1v0.1
			C47.4,29.8,47.3,29.9,47.1,30L47.1,30z M47.7,29.6L47.7,29.6c-0.1-0.1-0.1-0.1,0-0.2c0.1-0.1,0.2-0.1,0.3-0.2h0.1v0.1
			C48,29.5,47.9,29.6,47.7,29.6L47.7,29.6z M48.4,29.2C48.4,29.2,48.2,29.2,48.4,29.2c-0.1-0.1-0.1-0.1,0-0.2
			c0.1-0.1,0.2-0.1,0.3-0.2h0.1v0.1C48.6,29,48.5,29.1,48.4,29.2L48.4,29.2z M49,28.8C49,28.8,48.9,28.8,49,28.8
			c-0.1-0.1-0.1-0.1,0-0.2c0.1-0.1,0.2-0.1,0.3-0.2h0.1v0.1C49.2,28.7,49.1,28.7,49,28.8L49,28.8z M49.6,28.4
			C49.5,28.4,49.5,28.4,49.6,28.4c-0.1-0.1-0.1-0.1,0-0.2c0.1-0.1,0.2-0.1,0.3-0.2h0.1v0.1C49.9,28.3,49.8,28.4,49.6,28.4L49.6,28.4
			z M50.2,28.1L50.2,28.1c-0.1-0.1-0.1-0.1,0-0.2c0.1-0.1,0.2-0.1,0.3-0.2h0.1v0.1C50.5,27.9,50.4,28,50.2,28.1
			C50.3,28.1,50.2,28.1,50.2,28.1z M50.8,27.6C50.8,27.6,50.7,27.6,50.8,27.6c-0.1-0.1-0.1-0.1-0.1-0.2c0.1-0.1,0.2-0.1,0.3-0.2h0.1
			v0.1C51,27.4,50.9,27.5,50.8,27.6L50.8,27.6z"/>
	</g>
	<g id="XMLID_321_">
		<path id="XMLID_354_" class="st0" d="M62.2,39.5l-0.1-0.2L62.2,39.5l-0.1-0.1l0.1-0.2c0,0,0.1-0.1,0.1,0c0,0,0.1,0.1,0,0.1v0.1
			C62.2,39.5,62.2,39.5,62.2,39.5z M62.4,39L62.4,39c-0.1,0-0.1-0.1-0.1-0.1l0.1-0.3c0,0,0.1-0.1,0.1,0c0,0,0.1,0.1,0,0.1L62.4,39
			L62.4,39z M62.6,38.3L62.6,38.3c-0.1,0-0.1-0.1-0.1-0.1l0.1-0.3c0,0,0.1-0.1,0.1,0c0,0,0.1,0.1,0,0.1L62.6,38.3
			C62.7,38.3,62.7,38.3,62.6,38.3z M62.9,37.7L62.9,37.7c-0.1,0-0.1-0.1-0.1-0.1c0-0.1,0.1-0.2,0.1-0.3c0,0,0.1-0.1,0.1,0
			c0,0,0.1,0.1,0,0.1C63,37.4,63,37.5,62.9,37.7C62.9,37.6,62.9,37.7,62.9,37.7z M63.1,37L63.1,37C63,37,63,36.8,63,36.8l0.1-0.1
			c0-0.1,0-0.1,0.1-0.2l0.1-0.1l0.1,0.1c0,0.1,0,0.1-0.1,0.2L63.1,37C63.2,37,63.2,37,63.1,37z M63.3,36.3
			C63.3,36.3,63.2,36.2,63.3,36.3c-0.1-0.2-0.1-0.3-0.1-0.4c0,0,0-0.1,0.1-0.1c0,0,0.1,0,0.1,0.1C63.5,35.9,63.5,36.1,63.3,36.3
			C63.5,36.2,63.3,36.3,63.3,36.3L63.3,36.3z M63.2,35.6C63.1,35.6,63.1,35.6,63.2,35.6c-0.1-0.2-0.2-0.3-0.2-0.4V35h0.1
			c0.1,0.1,0.1,0.2,0.1,0.3C63.3,35.5,63.2,35.6,63.2,35.6L63.2,35.6z M62.9,34.9C62.8,34.9,62.8,34.9,62.9,34.9
			c-0.1-0.1-0.2-0.2-0.2-0.2l-0.1-0.1v-0.1h0.1l0.1,0.1l0,0c0,0,0.1,0.1,0.1,0.2C63,34.8,62.9,34.8,62.9,34.9L62.9,34.9z M62.3,34.4
			L62.3,34.4L62,34.2v-0.1h0.1l0.3,0.2C62.4,34.3,62.4,34.4,62.3,34.4C62.4,34.4,62.4,34.4,62.3,34.4z M61.7,34.1
			C61.7,34.1,61.6,34,61.7,34.1l-0.3-0.2v-0.1h0.1l0.3,0.2C61.8,33.8,61.8,34,61.7,34.1C61.7,34,61.7,34.1,61.7,34.1z M61.1,33.6
			L61.1,33.6l-0.3-0.2v-0.1h0.1l0.3,0.2C61.2,33.4,61.2,33.5,61.1,33.6C61.2,33.6,61.1,33.6,61.1,33.6z M60.6,33.2
			C60.5,33.2,60.5,33.2,60.6,33.2L60.2,33v-0.1h0.1l0.3,0.2C60.6,33.1,60.6,33.1,60.6,33.2L60.6,33.2z M59.9,32.8L59.9,32.8
			l-0.3-0.2v-0.1h0.1l0.3,0.2C60,32.7,60,32.7,59.9,32.8L59.9,32.8z M59.3,32.3L59.3,32.3L59,32.1V32h0.1l0.3,0.2
			C59.4,32.2,59.4,32.2,59.3,32.3C59.4,32.3,59.3,32.3,59.3,32.3z M58.7,31.9C58.6,31.9,58.6,31.9,58.7,31.9l-0.4-0.2v-0.1h0.1
			l0.3,0.2C58.7,31.8,58.8,31.8,58.7,31.9L58.7,31.9z M58.1,31.5L58.1,31.5l-0.3-0.2v-0.1h0.1l0.3,0.2
			C58.2,31.4,58.2,31.5,58.1,31.5L58.1,31.5z M57.5,31.2C57.5,31.2,57.5,31.1,57.5,31.2L57.1,31v-0.1h0.1l0.3,0.2
			C57.6,31,57.6,31.1,57.5,31.2C57.6,31.1,57.6,31.2,57.5,31.2z M56.9,30.7C56.8,30.7,56.8,30.7,56.9,30.7l-0.3-0.2v-0.1h0.1
			l0.3,0.2C56.9,30.5,57,30.6,56.9,30.7L56.9,30.7z M56.3,30.3L56.3,30.3L56,30.1V30h0.1l0.3,0.2C56.4,30.2,56.4,30.2,56.3,30.3
			L56.3,30.3z M55.6,29.9L55.6,29.9l-0.3-0.2v-0.1h0.1l0.3,0.2C55.8,29.8,55.8,29.8,55.6,29.9C55.8,29.9,55.8,29.9,55.6,29.9z
			 M55.1,29.5C55,29.5,55,29.5,55.1,29.5l-0.3-0.2v-0.1h0.1l0.2,0.2C55.2,29.4,55.2,29.4,55.1,29.5L55.1,29.5z M54.5,29L54.5,29
			l-0.3-0.2v-0.1h0.1l0.3,0.2C54.6,28.9,54.6,28.9,54.5,29C54.6,29,54.5,29,54.5,29z M53.8,28.6L53.8,28.6l-0.3-0.2v-0.1h0.1
			l0.3,0.2C53.9,28.5,53.9,28.6,53.8,28.6C53.9,28.6,53.9,28.6,53.8,28.6z M53.3,28.3C53.3,28.3,53.2,28.2,53.3,28.3L53,28.1V28h0.1
			l0.3,0.2C53.4,28.1,53.4,28.2,53.3,28.3C53.3,28.2,53.3,28.3,53.3,28.3z M52.6,27.9L52.6,27.9l-0.3-0.2v-0.1h0.1l0.3,0.2
			C52.8,27.6,52.8,27.8,52.6,27.9C52.8,27.9,52.6,27.9,52.6,27.9z M52,27.4L52,27.4l-0.3-0.2v-0.1h0.1l0.3,0.2
			C52.1,27.3,52.1,27.3,52,27.4C52.1,27.4,52.1,27.4,52,27.4z M51.5,27C51.5,27,51.4,27,51.5,27l-0.3-0.2v-0.1h0.1l0.3,0.2
			C51.6,26.9,51.6,26.9,51.5,27L51.5,27z M50.8,26.6L50.8,26.6l-0.3-0.2v-0.1h0.1l0.3,0.2C50.9,26.5,50.9,26.5,50.8,26.6
			C50.9,26.6,50.8,26.6,50.8,26.6z M50.2,26.1L50.2,26.1l-0.3-0.2v-0.1H50l0.3,0.2C50.3,26,50.3,26,50.2,26.1
			C50.3,26.1,50.3,26.1,50.2,26.1z M49.6,25.7C49.6,25.7,49.5,25.7,49.6,25.7l-0.3-0.2v-0.1h0.1l0.3,0.2
			C49.8,25.6,49.8,25.7,49.6,25.7L49.6,25.7z"/>
	</g>
	<g id="XMLID_319_">
		<path id="XMLID_320_" class="st0" d="M42.5,48.6C42.5,48.6,42.4,48.6,42.5,48.6c-0.1,0-0.1-0.1-0.1-0.1s0-0.1,0.1-0.3
			c0,0,0.1-0.1,0.1,0c0,0,0.1,0.1,0,0.1C42.6,48.4,42.5,48.5,42.5,48.6L42.5,48.6z M42.7,47.9L42.7,47.9c-0.1,0-0.1-0.1-0.1-0.1
			c0-0.1,0.1-0.2,0.1-0.3c0,0,0.1-0.1,0.1,0c0,0,0.1,0.1,0,0.1C42.9,47.7,42.8,47.8,42.7,47.9C42.8,47.9,42.8,47.9,42.7,47.9z
			 M43,47.2L43,47.2c-0.1,0-0.1-0.1-0.1-0.1c0-0.1,0.1-0.2,0.2-0.3c0,0,0.1-0.1,0.1,0c0,0,0.1,0.1,0,0.1C43.2,47,43.1,47.1,43,47.2
			C43.1,47.2,43,47.2,43,47.2z M43.3,46.6L43.3,46.6c-0.1,0-0.1-0.1-0.1-0.1c0.1-0.1,0.1-0.2,0.2-0.3c0,0,0.1-0.1,0.1,0
			c0,0,0.1,0.1,0,0.1C43.5,46.4,43.5,46.5,43.3,46.6C43.4,46.6,43.4,46.6,43.3,46.6z M43.8,45.9C43.8,45.9,43.7,45.9,43.8,45.9
			c-0.1,0-0.1-0.1-0.1-0.1c0.1-0.1,0.1-0.2,0.2-0.3c0,0,0.1-0.1,0.1,0c0,0,0.1,0.1,0,0.1C44,45.7,43.9,45.8,43.8,45.9L43.8,45.9z
			 M44.1,45.3L44.1,45.3c-0.1,0-0.1-0.1-0.1-0.1c0.1-0.1,0.1-0.2,0.2-0.3h0.1V45C44.3,45.1,44.3,45.2,44.1,45.3
			C44.2,45.3,44.2,45.3,44.1,45.3z M44.5,44.8L44.5,44.8c-0.1,0-0.1-0.1-0.1-0.1c0.1-0.1,0.1-0.2,0.2-0.3h0.1v0.1
			C44.7,44.5,44.7,44.5,44.5,44.8C44.6,44.8,44.6,44.8,44.5,44.8z M44.9,44.1L44.9,44.1c-0.1,0-0.1-0.1-0.1-0.1
			c0.1-0.1,0.1-0.2,0.2-0.3h0.1v0.1C45.3,43.9,45.2,44,44.9,44.1C45,44.1,45,44.1,44.9,44.1z M45.5,43.6
			C45.5,43.6,45.4,43.6,45.5,43.6c-0.1-0.1-0.1-0.1-0.1-0.1c0.1-0.1,0.2-0.2,0.2-0.3h0.1v0.1C45.7,43.4,45.6,43.5,45.5,43.6
			L45.5,43.6z M45.9,43L45.9,43c-0.1-0.1-0.1-0.1-0.1-0.1c0.1-0.1,0.2-0.2,0.2-0.2h0.1v0.1C46.2,42.8,46.1,42.9,45.9,43
			C46,43,46,43,45.9,43z M46.4,42.5L46.4,42.5c-0.1-0.1-0.1-0.1-0.1-0.1c0.1-0.1,0.2-0.2,0.3-0.2h0.1v0.1
			C46.7,42.3,46.7,42.4,46.4,42.5C46.5,42.5,46.4,42.5,46.4,42.5z M47,42L47,42c-0.1-0.1-0.1-0.1-0.1-0.2c0.1-0.1,0.2-0.1,0.3-0.2
			h0.1v0.1C47.3,41.9,47.2,42,47,42C47.1,42,47,42,47,42z M47.6,41.5C47.5,41.5,47.5,41.5,47.6,41.5c-0.1-0.1-0.1-0.1-0.1-0.2
			c0.1-0.1,0.2-0.1,0.3-0.2h0.1v0.1C47.8,41.4,47.7,41.4,47.6,41.5L47.6,41.5z M48.2,41.1L48.2,41.1C48,41,48,41,48.2,40.9
			c0.1-0.1,0.2-0.1,0.3-0.2h0.1v0.1C48.4,41,48.4,41,48.2,41.1L48.2,41.1z M48.8,40.7C48.8,40.7,48.7,40.7,48.8,40.7
			c-0.1-0.1-0.1-0.1,0-0.2c0.1-0.1,0.2-0.1,0.3-0.2h0.1v0.1C49,40.6,48.9,40.7,48.8,40.7L48.8,40.7z M70.6,40.7L70.6,40.7l-0.4-0.1
			l-0.1-0.1l0.1-0.1l0.3,0.1C70.6,40.5,70.7,40.6,70.6,40.7L70.6,40.7z M69.9,40.6L69.9,40.6l-0.4-0.1l-0.1-0.1l0.1-0.1l0.3,0.1
			C70,40.4,70,40.4,69.9,40.6C70,40.5,69.9,40.6,69.9,40.6z M69.1,40.4L69.1,40.4l-0.4-0.1l-0.1-0.1l0.1-0.1l0.3,0.1
			C69.2,40.2,69.2,40.3,69.1,40.4C69.2,40.4,69.2,40.4,69.1,40.4z M49.4,40.4C49.3,40.4,49.3,40.4,49.4,40.4c-0.1-0.1-0.1-0.1,0-0.2
			c0.1-0.1,0.2-0.1,0.3-0.2h0.1v0.1C49.6,40.3,49.5,40.3,49.4,40.4L49.4,40.4z M68.5,40.3L68.5,40.3l-0.4-0.1L67.9,40l0.1-0.1
			l0.3,0.1C68.5,40,68.6,40.2,68.5,40.3C68.5,40.2,68.5,40.3,68.5,40.3z M67.7,40L67.7,40h-0.4l-0.1-0.1l0.1-0.1l0.3,0.1
			C67.8,40,67.8,40,67.7,40C67.8,40,67.7,40,67.7,40z M50.1,40C50.1,40,50,40,50.1,40c-0.1-0.1-0.1-0.1,0-0.2c0.1,0,0.2-0.1,0.3-0.1
			h0.1v0.1C50.3,40,50.2,40,50.1,40L50.1,40z M67,40L67,40l-0.4-0.1l-0.1-0.1l0.1-0.1l0.3,0.1C67.1,39.7,67.1,39.8,67,40
			C67.1,40,67.1,40,67,40z M66.2,39.8L66.2,39.8l-0.4-0.1l-0.1-0.1l0.1-0.1l0.3,0.1C66.3,39.6,66.3,39.7,66.2,39.8
			C66.3,39.8,66.3,39.8,66.2,39.8z M50.7,39.7C50.7,39.7,50.6,39.7,50.7,39.7c-0.1-0.1-0.1-0.1,0-0.2c0.1,0,0.2-0.1,0.3-0.1
			c0,0,0.1,0,0.1,0.1c0,0,0,0.1-0.1,0.1C51,39.6,50.9,39.7,50.7,39.7L50.7,39.7z M65.6,39.7L65.6,39.7c-0.1,0-0.2,0-0.4-0.1L65,39.5
			l0.1-0.1c0.1,0,0.2,0,0.3,0.1C65.6,39.5,65.7,39.5,65.6,39.7C65.7,39.6,65.6,39.7,65.6,39.7z M64.8,39.5L64.8,39.5l-0.4-0.1
			l-0.1-0.1l0.1-0.1l0.3,0.1C64.9,39.4,64.9,39.4,64.8,39.5C64.9,39.5,64.8,39.5,64.8,39.5z M51.5,39.5
			C51.4,39.5,51.4,39.5,51.5,39.5c-0.1-0.1-0.1-0.2,0-0.2s0.2-0.1,0.3-0.1c0,0,0.1,0,0.1,0.1c0,0,0,0.1-0.1,0.1
			C51.7,39.4,51.6,39.4,51.5,39.5L51.5,39.5z M64.1,39.4L64.1,39.4c-0.1,0-0.2,0-0.4-0.1l-0.1-0.1l0.1-0.1c0.1,0,0.2,0,0.3,0.1
			C64.2,39.3,64.2,39.3,64.1,39.4C64.2,39.4,64.2,39.4,64.1,39.4z M63.3,39.3L63.3,39.3h-0.4c0,0-0.1,0-0.1-0.1l0.1-0.1h0.3
			C63.5,39.2,63.5,39.2,63.3,39.3C63.5,39.3,63.5,39.3,63.3,39.3z M52.1,39.3C52.1,39.3,52,39.3,52.1,39.3c-0.1-0.1-0.1-0.2,0-0.2
			s0.2-0.1,0.3-0.1c0,0,0.1,0,0.1,0.1c0,0,0,0.1-0.1,0.1C52.4,39.2,52.2,39.3,52.1,39.3L52.1,39.3z M62.7,39.2L62.7,39.2
			c-0.1,0-0.2,0-0.4,0c0,0-0.1,0-0.1-0.1c0,0,0-0.1,0.1-0.1s0.2,0,0.3,0C62.7,39.1,62.8,39.1,62.7,39.2
			C62.8,39.2,62.7,39.2,62.7,39.2z M62,39.2L62,39.2c-0.1,0-0.2,0-0.3,0c0,0-0.1,0-0.1-0.1c0,0,0-0.1,0.1-0.1s0.2,0,0.3,0
			S62.1,39,62,39.2C62.1,39.1,62,39.2,62,39.2z M52.9,39.1C52.8,39.1,52.8,39.1,52.9,39.1c-0.1-0.1-0.1-0.2,0-0.2s0.2,0,0.3-0.1
			c0,0,0.1,0,0.1,0.1c0,0,0,0.1-0.1,0.1C53.1,39.1,53,39.1,52.9,39.1L52.9,39.1z M61.2,39.1L61.2,39.1c-0.1,0-0.2,0-0.3,0
			c0,0-0.1,0-0.1-0.1c0,0,0-0.1,0.1-0.1s0.2,0,0.3,0C61.3,38.9,61.3,39,61.2,39.1C61.3,39,61.3,39.1,61.2,39.1z M53.6,39
			C53.5,39,53.5,39,53.6,39c-0.1-0.1-0.1-0.2,0-0.2s0.2,0,0.3,0c0,0,0.1,0,0.1,0.1c0,0,0,0.1-0.1,0.1C53.8,39,53.7,39,53.6,39
			L53.6,39z M60.5,39L60.5,39c-0.1,0-0.2,0-0.3,0c0,0-0.1,0-0.1-0.1c0,0,0-0.1,0.1-0.1s0.2,0,0.3,0C60.6,38.8,60.6,38.9,60.5,39
			C60.6,39,60.6,39,60.5,39z M59.8,38.9C59.7,38.9,59.7,38.9,59.8,38.9c-0.1,0-0.2,0-0.3,0c0,0-0.1,0-0.1-0.1c0,0,0-0.1,0.1-0.1
			s0.2,0,0.3,0C59.8,38.8,59.8,38.8,59.8,38.9L59.8,38.9z M54.2,38.9C54.2,38.9,54.1,38.9,54.2,38.9c-0.1-0.1-0.1-0.2,0-0.2
			s0.2,0,0.3,0c0,0,0.1,0,0.1,0.1c0,0,0,0.1-0.1,0.1C54.5,38.9,54.3,38.9,54.2,38.9L54.2,38.9z M59.1,38.9L59.1,38.9
			c-0.1,0-0.2,0-0.3,0c0,0-0.1,0-0.1-0.1c0,0,0-0.1,0.1-0.1s0.2,0,0.3,0C59.1,38.7,59.2,38.8,59.1,38.9
			C59.2,38.9,59.1,38.9,59.1,38.9z M55,38.8C55,38.8,54.9,38.8,55,38.8c-0.1-0.1-0.1-0.2,0-0.2s0.2,0,0.3,0c0,0,0.1,0,0.1,0.1
			c0,0,0,0.1-0.1,0.1S55.1,38.8,55,38.8L55,38.8z M58.3,38.8L58.3,38.8c-0.1,0-0.2,0-0.3,0c0,0-0.1,0-0.1-0.1c0,0,0-0.1,0.1-0.1
			s0.2,0,0.3,0C58.3,38.7,58.4,38.7,58.3,38.8C58.4,38.8,58.3,38.8,58.3,38.8z M57.6,38.8L57.6,38.8c-0.1,0-0.2,0-0.3,0
			c0,0-0.1,0-0.1-0.1c0,0,0-0.1,0.1-0.1s0.2,0,0.3,0C57.7,38.6,57.7,38.7,57.6,38.8C57.7,38.8,57.6,38.8,57.6,38.8z M55.8,38.8
			C55.6,38.8,55.6,38.8,55.8,38.8c-0.1-0.1,0-0.2,0-0.2c0.1,0,0.2,0,0.3,0l0,0c0,0,0.1,0,0.1,0.1c0,0,0,0.1-0.1,0.1
			C56,38.8,55.8,38.8,55.8,38.8L55.8,38.8z M56.8,38.8L56.8,38.8c-0.1,0-0.2,0-0.3,0h-0.1l0,0c0,0-0.1,0-0.1-0.1c0,0,0-0.1,0.1-0.1
			h0.1c0.1,0,0.2,0,0.3,0C56.9,38.6,56.9,38.7,56.8,38.8C56.9,38.8,56.9,38.8,56.8,38.8z"/>
	</g>
	<g id="XMLID_317_">
		<path id="XMLID_318_" class="st0" d="M48.7,25.8C48.6,25.8,48.6,25.8,48.7,25.8c-0.1-0.1-0.1-0.1-0.1-0.2c0.1-0.1,3.3-2.8,5.8-2.7
			c0,0,0.1,0,0.1,0.1c0,0,0,0.1-0.1,0.1C52,23,48.8,25.8,48.7,25.8L48.7,25.8z"/>
	</g>
	<g id="XMLID_295_">
		<g id="XMLID_315_">
			<path id="XMLID_316_" class="st1" d="M27.1,42c0-0.1,0.1-0.2,0.3-0.2c0.1,0,0.3,0.1,0.3,0.2c0,0.1-0.1,0.2-0.3,0.2
				S27.1,42.1,27.1,42 M27.4,42.2c0.1,0,0.2-0.1,0.2-0.2c0-0.1-0.1-0.2-0.2-0.2c-0.1,0-0.2,0.1-0.2,0.2
				C27.2,42.1,27.3,42.2,27.4,42.2 M27.3,42.1L27.3,42.1v-0.3h0.1c0.1,0,0.1,0,0.1,0.1c0,0,0,0.1-0.1,0.1l0.1,0.1l0,0L27.4,42
				L27.3,42.1L27.3,42.1z M27.4,42L27.4,42C27.4,41.9,27.4,41.9,27.4,42L27.4,42L27.4,42L27.4,42z"/>
		</g>
		<g id="XMLID_313_">
			<path id="XMLID_314_" class="st1" d="M24.8,42h0.1c0,0-0.2-0.4-0.3-0.6c0.1,0,0.1,0,0.2,0c0.1,0.2,0.3,0.5,0.3,0.5
				s0.3-0.2,0.5-0.2c0,0,0.1,0,0.1,0.1l-0.5,0.4l0.1,0.4c0,0,0.3-0.5,0.5-0.8C26,41.9,26,42,26,42c-0.1,0.1-0.2,0.2-0.2,0.3
				c0.2,0,0.4,0,0.6,0c0.1,0.1,0.1,0.1,0.1,0.2H26L25.8,43l0.3-0.1c0,0,0.3-0.1,0.5-0.2c0,0.1,0.1,0.1,0.1,0.2l-0.6,0.2l-0.5,0.1
				c-0.1,0.1-0.1,0.2-0.2,0.2c0.4-0.1,1-0.2,1.4-0.3c0.2,0.6,0.1,1.4-0.3,2c-1.3,0.3-2.7-0.1-4,0.1h-0.4c-0.3-0.3-0.4-0.8-0.5-1.1
				c-0.1-0.4,0-0.9,0.1-1.3l0.6-0.1L22,42.3c0-0.1,0.1-0.1,0.1-0.2c0.2,0.2,0.5,0.5,0.5,0.5h0.2L22.2,42c0.1-0.1,0.2-0.2,0.2-0.2
				l0.5,0.1c0,0,0-0.2,0-0.4c0.1-0.1,0.2-0.1,0.3-0.1c0.1,0.2,0.2,0.3,0.3,0.5c0.1-0.2,0.2-0.4,0.3-0.6c0,0,0,0,0.1,0L24.8,42z
				 M24.5,41.8l-0.3,0.5l0.2,0.5l0.2-0.1l0.1-0.4C24.6,42.1,24.5,41.9,24.5,41.8 M23.6,41.8V42h0.1C23.7,42,23.7,41.9,23.6,41.8
				 M23,42.1L23,42.1c0.1,0.1,0.4,0.4,0.4,0.4v-0.3L23,42.1z M25,42.2l-0.1,0.1v0.1L25,42.2L25,42.2z M23.6,42.3v0.4l0.2-0.4H23.6z
				 M25.9,42.5h-0.2L25.4,43h0.2L25.9,42.5z M24.8,42.8v0.4l0.4-0.4v-0.1l-0.1-0.2L24.8,42.8z M24.1,42.7L24,42.9l0.2,0.2
				C24.1,43,24.1,42.9,24.1,42.7 M24.6,42.9L24.5,43v0.2h0.1V42.9z M23.1,42.9l-0.2,0.3l0.4,0.1l0.3-0.3l-0.1-0.1H23.1z M22.2,43
				l0.3,0.1l0.1-0.2L22.2,43z M25.2,43.3l-0.1,0.3h0.2l0.2-0.3H25.2z M23.9,43.3l-0.6,0.5h-0.3c0,0,0.1-0.1,0.2-0.2
				c-0.1,0-0.2-0.1-0.3-0.1l-0.2,0.3c-0.1,0-0.1,0-0.2,0c0,0.2,0,0.4,0.1,0.6c0,0.1,0,0.1,0.1,0.1c0.6,0,1.3,0.1,1.8,0.1v-1
				c0-0.1-0.1-0.2-0.1-0.2L24,43.7h-0.5c0,0,0.4-0.2,0.6-0.3C24,43.4,23.9,43.4,23.9,43.3 M22.2,43.3c0,0.1,0,0.2,0,0.3
				c0-0.1,0.2-0.2,0.2-0.2L22.2,43.3z M26.9,43.5l-0.2,0.1c0.1,0.1,0.2,0.3,0.2,0.3h-0.3l-0.2-0.3c-0.1,0-0.4,0.1-0.4,0.1l0.1,0.2
				h-0.2l-0.1-0.2c0,0-0.5,0.1-0.9,0.2l0,0c0,0.3,0,0.5,0.1,0.9v0.1C25.5,45,26,45,26.5,45l0,0c0.1-0.2,0.2-0.4,0.3-0.6
				C27,44,27,43.7,26.9,43.5"/>
		</g>
		<g id="XMLID_299_">
			<path id="XMLID_300_" class="st1" d="M26.6,45.3c-0.1,0.2-0.3,0.4-0.6,0.5c-1.2,0-2.4-0.3-3.5-0.4l-0.1-0.1c1-0.1,1.8-0.1,2.8,0
				C25.8,45.3,26.2,45.3,26.6,45.3L26.6,45.3z"/>
		</g>
		<g id="XMLID_297_">
			<path id="XMLID_298_" class="st1" d="M24.9,45.8c0.3,0,0.8,0.1,1.1,0.1c-0.8,0.4-1.9,0.5-2.7,0.1c-0.2-0.1-0.4-0.2-0.6-0.4
				c0,0,0,0,0.1,0h0.5L24.9,45.8z"/>
		</g>
	</g>
	<g id="XMLID_1847_">
		<path id="XMLID_294_" class="st0" d="M60.3,30.2c-0.1,0-0.1,0-0.2-0.1c-0.1-0.1-0.1-0.3,0-0.4l0.9-0.9c0.1-0.1,0.3-0.1,0.4,0
			s0.1,0.3,0,0.4l-0.9,0.9C60.5,30.2,60.5,30.2,60.3,30.2z M61,28.4c-0.1,0-0.1,0-0.2-0.1l-0.5-0.5c-0.1-0.1-0.1-0.3,0-0.4
			s0.3-0.1,0.4,0l0.5,0.5c0.1,0.1,0.1,0.3,0,0.4C61.2,28.4,61.1,28.4,61,28.4z"/>
	</g>
</g>
<g class="st2">
	<path d="M41.1,91.5c-0.5,0-0.9-0.1-1.4-0.3c-0.4-0.2-0.8-0.4-1.1-0.8c-0.3-0.3-0.6-0.8-0.8-1.3s-0.3-1.1-0.3-1.7
		c0-0.6,0.1-1.2,0.3-1.7s0.4-0.9,0.8-1.3c0.3-0.4,0.7-0.6,1.1-0.8c0.4-0.2,0.9-0.3,1.4-0.3c0.5,0,0.9,0.1,1.3,0.3
		c0.4,0.2,0.7,0.4,0.9,0.7l-0.8,0.9c-0.2-0.2-0.4-0.3-0.7-0.5c-0.2-0.1-0.5-0.2-0.8-0.2c-0.3,0-0.6,0.1-0.9,0.2
		c-0.3,0.1-0.5,0.3-0.7,0.6c-0.2,0.2-0.3,0.5-0.4,0.9C39.1,86.6,39,87,39,87.4c0,0.4,0.1,0.8,0.2,1.2c0.1,0.4,0.3,0.7,0.4,0.9
		c0.2,0.2,0.4,0.4,0.7,0.6c0.3,0.1,0.6,0.2,0.9,0.2c0.3,0,0.6-0.1,0.9-0.2c0.3-0.1,0.5-0.3,0.7-0.6l0.8,0.9
		c-0.3,0.4-0.7,0.7-1.1,0.8C42.1,91.4,41.6,91.5,41.1,91.5z"/>
	<path d="M44.3,91.4l2.5-7.8h1.6l2.5,7.8h-1.5l-0.6-2.1h-2.6l-0.6,2.1H44.3z M46.9,87.2l-0.3,1h2l-0.3-1c-0.1-0.4-0.2-0.8-0.3-1.3
		c-0.1-0.4-0.2-0.9-0.3-1.3h0c-0.1,0.4-0.2,0.9-0.3,1.3C47.1,86.4,47,86.8,46.9,87.2z"/>
	<path d="M54.9,91.5c-0.6,0-1.1-0.1-1.6-0.3c-0.5-0.2-1-0.5-1.3-0.9l0.8-0.9c0.3,0.3,0.6,0.5,1,0.6c0.4,0.2,0.8,0.2,1.2,0.2
		c0.5,0,0.8-0.1,1-0.3c0.2-0.2,0.4-0.4,0.4-0.7c0-0.2,0-0.3-0.1-0.4c-0.1-0.1-0.2-0.2-0.3-0.3c-0.1-0.1-0.3-0.2-0.4-0.2
		c-0.2-0.1-0.3-0.1-0.5-0.2L54,87.7c-0.2-0.1-0.4-0.2-0.6-0.3c-0.2-0.1-0.4-0.3-0.5-0.4c-0.2-0.2-0.3-0.4-0.4-0.6
		c-0.1-0.2-0.1-0.5-0.1-0.8c0-0.3,0.1-0.6,0.2-0.9c0.1-0.3,0.3-0.5,0.6-0.7c0.2-0.2,0.5-0.4,0.9-0.5c0.3-0.1,0.7-0.2,1.1-0.2
		c0.5,0,0.9,0.1,1.4,0.3c0.4,0.2,0.8,0.4,1.1,0.7l-0.7,0.9c-0.3-0.2-0.5-0.4-0.8-0.5c-0.3-0.1-0.6-0.2-1-0.2c-0.4,0-0.7,0.1-0.9,0.2
		s-0.3,0.4-0.3,0.7c0,0.2,0,0.3,0.1,0.4c0.1,0.1,0.2,0.2,0.3,0.3s0.3,0.2,0.4,0.2c0.2,0.1,0.3,0.1,0.5,0.2l1,0.4
		c0.2,0.1,0.5,0.2,0.7,0.3s0.4,0.3,0.5,0.4s0.3,0.4,0.4,0.6c0.1,0.2,0.1,0.5,0.1,0.8c0,0.3-0.1,0.6-0.2,0.9
		c-0.1,0.3-0.3,0.5-0.6,0.7s-0.6,0.4-0.9,0.5C55.7,91.5,55.3,91.5,54.9,91.5z"/>
	<path d="M62.1,91.5c-0.9,0-1.5-0.3-2-0.8c-0.5-0.5-0.7-1.3-0.7-2.4v-4.8h1.4v5c0,0.6,0.1,1.1,0.4,1.4c0.2,0.3,0.6,0.4,1,0.4
		c0.4,0,0.8-0.1,1-0.4s0.4-0.8,0.4-1.4v-5h1.3v4.8c0,1.1-0.2,1.9-0.7,2.4C63.6,91.3,62.9,91.5,62.1,91.5z"/>
	<path d="M65.9,91.4l2.5-7.8h1.6l2.5,7.8h-1.5l-0.6-2.1h-2.6l-0.6,2.1H65.9z M68.5,87.2l-0.3,1h2l-0.3-1c-0.1-0.4-0.2-0.8-0.3-1.3
		c-0.1-0.4-0.2-0.9-0.3-1.3h0c-0.1,0.4-0.2,0.9-0.3,1.3C68.7,86.4,68.6,86.8,68.5,87.2z"/>
	<path d="M74.3,91.4v-7.8h1.4v6.7h3.7v1.2H74.3z"/>
</g>
</svg>
