<?xml version="1.0" encoding="utf-8"?>
<!-- Generator: Adobe Illustrator 24.3.0, SVG Export Plug-In . SVG Version: 6.00 Build 0)  -->
<svg version="1.1" id="Layer_1" xmlns="http://www.w3.org/2000/svg" xmlns:xlink="http://www.w3.org/1999/xlink" x="0px" y="0px"
	 viewBox="0 0 120 100" style="enable-background:new 0 0 120 100;" xml:space="preserve">
<style type="text/css">
	.st0{enable-background:new    ;}
</style>
<g id="expanded">
	<path d="M54.6,33.3L54.6,33.3c0.2,0.2,0.2,0.1,0.2,0.1l0.3-0.3l0-0.2l-0.2,0L54.6,33.3z M54.7,33.3L54.7,33.3L54.7,33.3z M61,25.9
		l0.3-0.4l0.2,0l0,0.1L61.2,26C61.1,26,61,26.1,61,25.9L61,25.9z M55.2,32.7L55.2,32.7L55.2,32.7z M53,35.1L53,35.1L53,35.1z
		 M53.5,34.7l0,0.2c0,0.1-0.2,0.2-0.3,0.3c0,0.1,0,0.1-0.2-0.1c0-0.1,0.2-0.2,0.3-0.3L53.5,34.7z M53.6,34.5L53.6,34.5L53.6,34.5z
		 M53.6,34.5L53.6,34.5L53.6,34.5z M53.6,34.5L53.6,34.5L53.6,34.5z M61,25.9L61,25.9L61,25.9z M61,25.9L61,25.9L61,25.9z M54,34.1
		l0,0.2l-0.3,0.3c0,0.1,0,0.1-0.2-0.1l0.3-0.3L54,34.1z M54.1,33.9L54.1,33.9L54.1,33.9z M54.5,33.5l0,0.2L54.3,34
		c0,0.1,0,0.1-0.2-0.1l0.3-0.3L54.5,33.5z M59.8,27.3l0,0.1l-0.3,0.4c0,0.1-0.2,0-0.2-0.1l0.3-0.4L59.8,27.3z M55.2,32.7l0.3-0.3
		l0.2,0l0,0.2l-0.3,0.3C55.3,32.8,55.2,32.8,55.2,32.7C55.2,32.7,55.2,32.7,55.2,32.7z M60.9,26.1l0,0.1l-0.3,0.4
		c-0.1,0-0.2,0-0.2-0.1l0.3-0.4L60.9,26.1z M60.3,26.7l0,0.1l-0.3,0.4c0,0.1-0.2,0-0.2-0.1l0.3-0.4L60.3,26.7z M60.4,26.5L60.4,26.5
		L60.4,26.5z M57.8,29.8l0,0.1l-0.3,0.3c-0.2,0-0.2,0-0.2-0.1l0.3-0.4L57.8,29.8z M58.8,28.6l0,0.1l-0.3,0.4c-0.2,0-0.2,0-0.2-0.1
		l0.3-0.4L58.8,28.6z M58.3,29.2l0,0.1l-0.3,0.4c-0.2,0-0.2,0-0.2-0.1l0.3-0.4L58.3,29.2z M55.7,32.1l0.3-0.3l0.2,0l0,0.2l-0.3,0.3
		C55.8,32.2,55.7,32.2,55.7,32.1L55.7,32.1L55.7,32.1z M57.2,30.4l0,0.2L57,30.9c0,0.1-0.2,0-0.2-0.1l0.3-0.3L57.2,30.4z M56.7,31
		l0,0.2l-0.3,0.3c0,0.1-0.2,0-0.2-0.1l0.3-0.3L56.7,31z M58.8,28.4L58.8,28.4L58.8,28.4z M58.8,28.4L58.8,28.4L58.8,28.4z
		 M58.8,28.3L58.8,28.3L58.8,28.3z M59.3,27.9l0,0.1L59,28.4c0,0.1,0,0.1-0.2-0.1l0.3-0.4L59.3,27.9z M59.1,27.2l0.3-0.4l0.2,0
		l0,0.1l-0.3,0.4C59.3,27.4,59.2,27.4,59.1,27.2L59.1,27.2z M58.6,27.8l0.3-0.4l0.2,0l0,0.1l-0.3,0.4C58.7,28,58.6,28,58.6,27.8
		L58.6,27.8z M59.6,26.6l0.3-0.4l0.2,0l0,0.1l-0.3,0.4C59.7,26.8,59.7,26.8,59.6,26.6L59.6,26.6z M60.6,25.4L60.6,25.4L60.6,25.4z
		 M60.2,26l0.3-0.4l0.2,0l0,0.1l-0.3,0.4C60.3,26.1,60.2,26.2,60.2,26z M60.8,25.5l0.3-0.4l0-0.1l-0.2,0l-0.3,0.4
		C60.7,25.5,60.7,25.5,60.8,25.5L60.8,25.5z M60.6,25.4L60.6,25.4L60.6,25.4z M53.8,33.8l-0.3,0.3c0,0.1-0.2,0-0.2-0.1l0.3-0.3
		l0.2,0L53.8,33.8z M54.4,32.8l0.3-0.3l0.2,0l0,0.2l-0.3,0.3C54.5,32.9,54.4,32.9,54.4,32.8C54.4,32.8,54.4,32.8,54.4,32.8
		L54.4,32.8z M53.8,33.4l0.3-0.3l0.1-0.1l0,0.2L54,33.5C54,33.5,53.9,33.5,53.8,33.4C53.8,33.4,53.8,33.4,53.8,33.4L53.8,33.4z
		 M53,34.7c0,0.1-0.2,0-0.2-0.1c0-0.1,0.2-0.2,0.3-0.3l0.2,0l0,0.2C53.2,34.4,53.1,34.5,53,34.7L53,34.7z M55.5,31.5l0.3-0.3l0.2,0
		l0,0.2l-0.3,0.3C55.6,31.7,55.5,31.7,55.5,31.5L55.5,31.5z M56,30.9l0.3-0.3l0.2,0l0,0.2L56.2,31C56.1,31,56.1,31,56,30.9L56,30.9z
		 M54.4,32.8L54.4,32.8L54.4,32.8z M54.4,32.8L54.4,32.8L54.4,32.8z M52.8,34.6L52.8,34.6L52.8,34.6z M58.1,28.4L58.1,28.4
		L58.1,28.4z M58.1,28.4l0.3-0.4l0.2,0l0,0.1l-0.3,0.4C58.2,28.6,58.1,28.6,58.1,28.4L58.1,28.4z M54.9,32.2l0.3-0.3l0.2,0l0,0.2
		l-0.3,0.3C55,32.3,54.9,32.3,54.9,32.2L54.9,32.2z M56.5,30.3l0.3-0.4l0.2,0l0,0.1l-0.3,0.3C56.6,30.4,56.6,30.4,56.5,30.3z
		 M57.5,29l0.3-0.4l0.2,0l0,0.1l-0.3,0.4C57.7,29.2,57.7,29.2,57.5,29L57.5,29z M57.1,29.7l0.2-0.4l0.2,0l0,0.1L57.1,29.7
		C57.1,29.8,57.1,29.8,57.1,29.7z M52.8,35.4l-0.3,0.3l0,0l0,0c0.2,0.2,0.2,0.1,0.2,0.1l0.3-0.3l0-0.2L52.8,35.4z M52.5,35.8
		L52.5,35.8L52.5,35.8z M50.9,37.6L50.9,37.6L50.9,37.6z M51.2,37.2h0.2v0.2c-0.1,0.1-0.2,0.1-0.4,0.2c-0.1,0.1-0.1,0.1-0.2-0.2
		C50.9,37.4,51.2,37.3,51.2,37.2L51.2,37.2z M51.4,37L51.4,37L51.4,37z M51.4,37L51.4,37L51.4,37z M51.4,37L51.4,37L51.4,37z
		 M51.8,36.5l0,0.2L51.6,37c0,0.1,0,0.1-0.2-0.1l0.3-0.3L51.8,36.5z M51.9,36.3L51.9,36.3L51.9,36.3z M52.4,35.9l0,0.2l-0.3,0.3
		c0,0.1,0,0.1-0.2-0.1l0.3-0.3L52.4,35.9z M51.2,36.4l0.3-0.3l0.2,0l0,0.2l-0.3,0.3C51.4,36.6,51.3,36.6,51.2,36.4L51.2,36.4z
		 M52.2,35.2l0.3-0.3l0.2,0l0,0.1l-0.3,0.3C52.3,35.4,52.2,35.3,52.2,35.2C52.2,35.3,52.2,35.3,52.2,35.2L52.2,35.2z M51.7,35.9
		l0.3-0.3l0.2,0l0,0.2L51.9,36C51.8,36,51.7,36,51.7,35.9C51.7,35.9,51.7,35.9,51.7,35.9L51.7,35.9z M51.2,36.8
		c-0.1,0.1-0.2,0.1-0.4,0.2c-0.1,0.1-0.2,0-0.2-0.2c0.1-0.1,0.2-0.1,0.4-0.2h0.2V36.8z M52.2,35.2L52.2,35.2L52.2,35.2z M52.2,35.2
		L52.2,35.2L52.2,35.2z M50.6,37.1L50.6,37.1L50.6,37.1z M48.3,35.7L48.3,35.7L48.3,35.7c-0.2,0.2-0.1,0.2-0.1,0.2l0.4,0.3l0.1-0.1
		L48.6,36L48.3,35.7z M48.3,35.7L48.3,35.7L48.3,35.7z M46.4,34.2L46.4,34.2L46.4,34.2z M46.7,34.5l0.1,0.1l-0.1,0.1
		c-0.1,0-0.2-0.2-0.4-0.3c-0.1,0-0.1,0,0.1-0.2C46.5,34.3,46.6,34.5,46.7,34.5L46.7,34.5z M47,34.7L47,34.7L47,34.7z M47,34.7
		L47,34.7L47,34.7z M47.4,35l0.1,0.1l-0.1,0.1l-0.4-0.3c-0.1,0-0.1,0,0.1-0.2L47.4,35z M47.6,35.2L47.6,35.2L47.6,35.2z M46.9,34.7
		L46.9,34.7L46.9,34.7z M48,35.5l0.1,0.1l-0.1,0.1l-0.4-0.3c-0.1,0-0.1,0,0.1-0.2L48,35.5z M49.3,36.5l0.1,0.1l-0.1,0.1l-0.4-0.3
		c0-0.1,0-0.2,0.1-0.2L49.3,36.5z M49.9,37l0.1,0.1l-0.1,0.1l-0.4-0.3c0-0.1,0-0.2,0.1-0.2h0L49.9,37z M47.5,34.4l0.4,0.3l0.1,0.1
		l-0.1,0.1l-0.4-0.3C47.3,34.6,47.3,34.5,47.5,34.4L47.5,34.4z M48.7,35.4l0.4,0.3l0.1,0.1L49,35.9l-0.4-0.3
		C48.6,35.5,48.7,35.5,48.7,35.4C48.7,35.4,48.7,35.4,48.7,35.4L48.7,35.4z M48.1,34.9l0.4,0.3l0.1,0.1l-0.1,0.1L48,35.1
		C48,35.1,48,35,48.1,34.9L48.1,34.9z M46.8,33.9c0.1,0,0.2,0.2,0.4,0.3l0.1,0.1l-0.1,0.1c-0.1,0-0.2-0.2-0.4-0.3
		C46.7,34.1,46.7,34,46.8,33.9L46.8,33.9z M50.4,36.9L50,36.7c-0.1,0-0.2-0.2,0.1-0.2l0.4,0.3l0.1,0.1L50.4,36.9z M48.7,35.4
		L48.7,35.4L48.7,35.4z M48.8,35.5L48.8,35.5L48.8,35.5z M46.8,33.9L46.8,33.9L46.8,33.9z M49.3,36.1c0-0.1,0-0.2,0.1-0.2h0l0.4,0.3
		l0.1,0.1l-0.1,0.1L49.3,36.1z M45.7,33.7L45.7,33.7L45.7,33.7c-0.2,0.2-0.1,0.2-0.1,0.2l0.4,0.3l0.1-0.1L46,34L45.7,33.7z
		 M45.7,33.7L45.7,33.7L45.7,33.7z M44.4,32.7L44.4,32.7L44.4,32.7z M44.8,33l0.1,0.1l-0.1,0.1l-0.4-0.3c-0.1,0-0.1,0,0.1-0.2
		L44.8,33z M45,33.2L45,33.2L45,33.2z M44.4,32.7L44.4,32.7L44.4,32.7z M45.4,33.5l0.1,0.1l-0.1,0.1L45,33.4c-0.1,0-0.1,0,0.1-0.2
		L45.4,33.5z M44.9,32.4l0.4,0.3l0.1,0.1l-0.1,0.1l-0.4-0.3C44.7,32.6,44.7,32.5,44.9,32.4z M46.1,33.4l0.4,0.3l0.1,0.1l-0.1,0.1
		l-0.4-0.3C46,33.5,46.1,33.5,46.1,33.4L46.1,33.4L46.1,33.4z M45.9,33.2l0.1,0.1l-0.1,0.1l-0.4-0.3c0-0.1,0-0.2,0.1-0.2
		c0,0,0,0,0,0L45.9,33.2z M46.1,33.4L46.1,33.4L46.1,33.4z M44.3,31.9L44.3,31.9L44.3,31.9z M50.5,37.4l0.1,0.1l-0.1,0.1
		c-0.1,0-0.2-0.1-0.4-0.1c-0.1,0-0.1,0,0-0.2C50.2,37.3,50.5,37.4,50.5,37.4L50.5,37.4z M44,32.5l0,0.2l-0.2,0
		c-0.1-0.1-0.1-0.2-0.3-0.4c-0.1-0.1-0.1-0.1,0.1-0.2C43.8,32.2,43.9,32.4,44,32.5L44,32.5z M44.5,32.4c-0.1-0.1-0.1-0.2-0.3-0.4
		c-0.1-0.1,0-0.2,0.1-0.2c0.1,0.1,0.1,0.2,0.3,0.4l0,0.2L44.5,32.4z M44.2,31.6l0.2-0.4c0-0.1,0.2-0.2,0.2,0.1l-0.2,0.4l-0.1,0.1
		L44.2,31.6z M43.6,31.9l-0.1-0.1c0-0.1,0.1-0.2,0.2-0.4c0-0.1,0-0.1,0.2,0c0,0.1-0.1,0.3-0.2,0.4L43.6,31.9z M48.1,27.2L48.1,27.2
		c0.2,0.2,0.2,0.1,0.2,0.1l0.3-0.3l0-0.1l-0.2,0L48.1,27.2L48.1,27.2z M48.1,27.2L48.1,27.2L48.1,27.2z M46.5,29L46.5,29L46.5,29z
		 M46.5,29L46.5,29L46.5,29z M46.5,29c0-0.1,0.2-0.2,0.3-0.3l0.2,0l0,0.1c0,0.1-0.2,0.1-0.3,0.3C46.6,29.2,46.6,29.2,46.5,29
		L46.5,29z M47,28.4L47,28.4L47,28.4z M47,28.4L47,28.4L47,28.4z M47,28.4l0.3-0.3l0.2,0l0,0.1l-0.3,0.3
		C47.2,28.6,47.2,28.6,47,28.4L47,28.4z M47.6,27.8L47.6,27.8L47.6,27.8z M47.6,27.8l0.3-0.3l0.1,0l0,0.1l-0.3,0.3
		C47.7,28,47.7,28,47.6,27.8L47.6,27.8z M53,21.8l0.3-0.3l0.2,0l0,0.1l-0.3,0.3C53.2,22,53.1,21.9,53,21.8L53,21.8z M48.7,26.6
		l0.3-0.3l0.2,0l0,0.1l-0.3,0.4C48.8,26.8,48.7,26.7,48.7,26.6C48.7,26.6,48.7,26.6,48.7,26.6z M54.1,20.6l0.3-0.3l0.2,0l0,0.1
		l-0.3,0.3C54.2,20.6,54.2,20.8,54.1,20.6L54.1,20.6z M53.6,21.2l0.3-0.3l0.2,0l0,0.1l-0.3,0.3C53.7,21.4,53.6,21.3,53.6,21.2
		L53.6,21.2z M54.1,20.6L54.1,20.6L54.1,20.6z M51.4,23.9l-0.3,0.3c-0.2,0-0.2,0-0.2-0.1l0.3-0.3l0.2,0L51.4,23.9z M52.2,23.1
		c-0.2,0-0.2,0-0.2-0.1l0.3-0.3l0.2,0l0,0.1L52.2,23.1z M51.5,23.6l0.3-0.3l0.2,0l0,0.1l-0.3,0.3C51.5,23.7,51.5,23.7,51.5,23.6
		L51.5,23.6z M49.2,26l0.3-0.3l0.2,0l0,0.1l-0.3,0.3C49.3,26.2,49.2,26.1,49.2,26C49.2,26,49.2,26,49.2,26z M50.4,24.8l0.3-0.3
		l0.2,0l0,0.1l-0.3,0.3C50.5,25,50.4,24.9,50.4,24.8L50.4,24.8z M49.8,25.4l0.3-0.3l0.2,0l0,0.1L50,25.5
		C50,25.5,49.9,25.5,49.8,25.4L49.8,25.4z M52.5,22.4L52.5,22.4L52.5,22.4z M53,22.1l-0.3,0.3c0,0.1,0,0.1-0.2-0.1l0.3-0.3l0.2,0
		L53,22.1z M52.8,21.3l0.3-0.3l0.2,0l0,0.1L53,21.4C52.9,21.5,52.8,21.4,52.8,21.3L52.8,21.3z M52.2,21.9l0.3-0.3l0.2,0l0,0.1
		L52.4,22C52.4,22.1,52.3,22,52.2,21.9L52.2,21.9z M53.6,20.3l0.2,0l0,0.1l-0.3,0.3c-0.2,0-0.2,0-0.2-0.1L53.6,20.3z M53.9,20.1
		l0.3-0.3l0.2,0l0,0.1l-0.3,0.3C54,20.2,53.9,20.2,53.9,20.1L53.9,20.1z M46.8,27.9l0.3-0.3l0.2,0l0,0.1L47,28
		C46.9,28.1,46.8,28,46.8,27.9L46.8,27.9z M47.9,26.7l0.3-0.3l0.2,0l0,0.1l-0.3,0.3C48,26.8,47.9,26.8,47.9,26.7
		C47.9,26.7,47.9,26.7,47.9,26.7L47.9,26.7z M47.3,27.3l0.3-0.3l0.2,0l0,0.1l-0.3,0.3C47.5,27.4,47.4,27.4,47.3,27.3
		C47.3,27.3,47.3,27.3,47.3,27.3L47.3,27.3z M46.2,28.5c0-0.1,0.2-0.1,0.3-0.3l0.2,0l0,0.1c0,0.1-0.2,0.1-0.3,0.3
		C46.4,28.7,46.3,28.6,46.2,28.5L46.2,28.5z M49,25.4l0.3-0.3l0.2,0l0,0.1l-0.3,0.3C49.2,25.6,49,25.7,49,25.4L49,25.4z M49.6,24.9
		l0.3-0.3l0.2,0l0,0.1L49.8,25C49.6,25,49.6,25,49.6,24.9L49.6,24.9z M47.9,26.7L47.9,26.7L47.9,26.7z M46.2,28.5L46.2,28.5
		L46.2,28.5z M46.2,28.5L46.2,28.5L46.2,28.5z M51.7,22.5L51.7,22.5L51.7,22.5z M51.7,22.5l0.3-0.3l0.2,0l0,0.1l-0.3,0.3
		C51.8,22.7,51.7,22.6,51.7,22.5L51.7,22.5z M48.4,26.1l0.3-0.3l0.2,0l0,0.1l-0.3,0.3C48.6,26.3,48.5,26.2,48.4,26.1
		C48.4,26.1,48.4,26.1,48.4,26.1L48.4,26.1z M50.1,24.3l0.3-0.3l0.2,0l0,0.1l-0.3,0.3C50.2,24.4,50.2,24.4,50.1,24.3L50.1,24.3z
		 M51.1,23l0.3-0.3l0.2,0l0,0.1l-0.3,0.3C51.3,23.2,51.3,23.2,51.1,23L51.1,23z M50.7,23.7l0.2-0.4l0.2,0l0,0.1l-0.3,0.3
		C50.7,23.8,50.7,23.8,50.7,23.7L50.7,23.7z M45.9,29.6L45.9,29.6c0.2,0.2,0.2,0.1,0.2,0.1l0.3-0.3l0-0.1l-0.2,0L45.9,29.6
		L45.9,29.6z M45.9,29.6L45.9,29.6L45.9,29.6z M44.8,30.8l0.3-0.3l0.2,0l0,0.2L45,30.9C44.9,31,44.9,31,44.8,30.8L44.8,30.8z
		 M45.4,30.2L45.4,30.2L45.4,30.2z M45.3,30.2l0.3-0.3l0.2,0l0,0.1l-0.3,0.3C45.5,30.4,45.5,30.4,45.3,30.2L45.3,30.2z M44.5,30.4
		l0.3-0.3l0.2,0l0,0.2l-0.3,0.3C44.7,30.6,44.6,30.5,44.5,30.4L44.5,30.4z M45.7,29.1l0.3-0.3l0.2,0l0,0.1l-0.3,0.3
		C45.8,29.3,45.7,29.2,45.7,29.1C45.7,29.1,45.7,29.1,45.7,29.1L45.7,29.1z M45.1,29.7l0.3-0.3l0.2,0l0,0.1l-0.3,0.3
		C45.2,29.8,45.1,29.8,45.1,29.7C45.1,29.7,45.1,29.7,45.1,29.7L45.1,29.7z M45.7,29.1L45.7,29.1L45.7,29.1z M44.4,30.8l-0.3,0.3
		c0,0.1,0,0.1-0.2-0.1l0.3-0.3l0.2,0L44.4,30.8z M43,34.8L43,34.8L43,34.8z M47.1,42.9L47,42.8l0.3-0.4c0.2-0.1,0.2-0.1,0.2,0.1
		l-0.3,0.4L47.1,42.9z M41.5,36.8l-0.3,0.4l-0.1,0.1l-0.1-0.1l0.3-0.4C41.5,36.6,41.5,36.6,41.5,36.8L41.5,36.8z M40.5,38l-0.2,0.4
		l-0.1,0.1l-0.1-0.1l0.3-0.4C40.5,37.9,40.5,37.9,40.5,38L40.5,38z M39.2,40L39.2,40L39.2,40z M38.7,40.7L38.4,41l-0.1,0.1l-0.1-0.1
		l0.3-0.4C38.5,40.5,38.6,40.5,38.7,40.7L38.7,40.7z M42.5,35.4l-0.3,0.4l-0.1,0.1l-0.1-0.1l0.3-0.4C42.4,35.3,42.5,35.3,42.5,35.4
		L42.5,35.4z M41,37.4l-0.3,0.4l-0.1,0.1l-0.1-0.1l0.3-0.4C41,37.3,41,37.3,41,37.4L41,37.4z M39.2,40l-0.3,0.4l-0.1,0.1l-0.1-0.1
		l0.3-0.4C39,39.8,39.1,39.9,39.2,40L39.2,40z M42,36.1l-0.3,0.4l-0.2,0.1l-0.1-0.1l0.3-0.4C41.8,36,42,35.9,42,36.1L42,36.1z
		 M47.5,42.5L47.5,42.5L47.5,42.5z M49.6,39.8l-0.1-0.2l0.3-0.4c0-0.1,0-0.1,0.1,0l-0.2,0.4L49.6,39.8z M43,34.8l-0.3,0.4l-0.1,0.1
		L42.6,35l0.3-0.4C42.9,34.7,43,34.7,43,34.8L43,34.8z M49,40.6L49,40.6L49,40.6z M49.1,40.4L49,40.3l0.3-0.4c0-0.1,0-0.1,0.2,0.1
		l-0.3,0.4L49.1,40.4z M49,40.6L49,40.6L49,40.6z M48.6,41.1l-0.1-0.1l0.3-0.4c0-0.1,0.2-0.1,0.2,0.1L48.7,41L48.6,41.1z M43.5,34.1
		l-0.3,0.4l-0.1,0.1L43,34.4l0.3-0.4C43.4,34,43.5,34,43.5,34.1C43.5,34.1,43.5,34.1,43.5,34.1L43.5,34.1z M47.5,42.5L47.5,42.5
		L47.5,42.5z M47.6,42.3l-0.1-0.1l0.3-0.4c0-0.1,0.2-0.1,0.2,0.1l-0.3,0.4L47.6,42.3z M40.2,38.7l-0.3,0.4l-0.1,0.1L39.7,39l0.3-0.4
		C40,38.6,40,38.6,40.2,38.7L40.2,38.7z M50,39.2L49.9,39l0.3-0.4c0.1-0.1,0.1-0.1,0.2,0.1l-0.3,0.4L50,39.2z M48.5,41.3L48.5,41.3
		L48.5,41.3z M38.2,41.3l-0.3,0.4l-0.1,0.1l-0.1-0.1l0.3-0.4C38.1,41.2,38.1,41.2,38.2,41.3L38.2,41.3z M37.7,41.9l-0.3,0.4
		l-0.1,0.1l-0.1-0.1l0.3-0.4C37.6,41.9,37.6,41.8,37.7,41.9L37.7,41.9z M37.3,42.6L37.3,42.6L37.3,42.6z M38.2,41.3L38.2,41.3
		L38.2,41.3z M37.3,42.6L37.3,42.6L37.3,42.6L37.1,43L36.9,43l-0.1-0.1l0.3-0.4C37.2,42.5,37.3,42.5,37.3,42.6
		C37.3,42.6,37.3,42.6,37.3,42.6L37.3,42.6z M38.7,40.7L38.7,40.7L38.7,40.7z M48,41.9L48,41.9L48,41.9z M39.7,39.4l-0.3,0.4
		l-0.1,0.1l-0.1-0.1l0.3-0.4C39.5,39.2,39.6,39.2,39.7,39.4L39.7,39.4z M48,41.9L48,41.9L48,41.9z M36.8,43.3l-0.3,0.4l-0.1,0.1
		l-0.1-0.1l0.3-0.4C36.6,43.2,36.7,43.2,36.8,43.3L36.8,43.3z M48.1,41.7L48,41.5l0.3-0.4c0-0.1,0.1-0.1,0.2,0.1l-0.3,0.4L48.1,41.7
		z M88.8,38.2L88.8,38.2L88.8,38.2z M88.8,38.2L88.8,38.2L88.8,38.2z M88.8,39l0.1-0.4l-0.1-0.1l-0.1,0.1L88.6,39l0,0
		C88.8,39.1,88.8,39,88.8,39L88.8,39z M87.8,41.3L87.8,41.3L87.8,41.3z M88.2,40.8l0.1,0.1c0,0.1-0.2,0.2-0.3,0.4
		c0,0.1,0,0.1-0.2-0.1c0-0.1,0.2-0.3,0.3-0.4L88.2,40.8z M88.1,40.5L88.1,40.5L88.1,40.5z M88.3,40l0.1,0.1l-0.1,0.4
		c0,0.1,0,0.1-0.2,0l0.1-0.4L88.3,40z M88.3,39.8L88.3,39.8L88.3,39.8z M88.4,39.3l0.1-0.1l0.1,0.1l-0.1,0.4c0,0.1,0,0.1-0.2,0
		L88.4,39.3z M87.7,40l0.1-0.4l0.1-0.1l0.1,0.1L87.9,40C87.9,40.2,87.8,40.2,87.7,40z M88.1,38.6l0.1-0.4l0.1-0.1l0.1,0.1l-0.1,0.4
		C88.3,38.7,88.2,38.7,88.1,38.6C88.1,38.6,88.1,38.6,88.1,38.6z M87.9,39.3l0.1-0.4l0.1-0.1l0.1,0.1l-0.1,0.4
		C88,39.4,87.9,39.4,87.9,39.3C87.9,39.3,87.9,39.3,87.9,39.3L87.9,39.3z M87.3,40.7c0-0.1,0.2-0.2,0.3-0.4l0.1-0.1l0.1,0.1
		c0,0.1-0.2,0.2-0.3,0.4C87.4,40.9,87.3,40.8,87.3,40.7L87.3,40.7z M84.4,40.8l0.4,0.1l0.1-0.1l-0.1-0.1l-0.4-0.1
		C84.3,40.8,84.4,40.8,84.4,40.8z M82.6,40.1L82.6,40.1L82.6,40.1z M82.6,40.1c0.1,0,0.3,0.1,0.4,0.1l0.1,0.1L83,40.4
		c-0.1,0-0.2-0.1-0.4-0.1C82.5,40.3,82.5,40.3,82.6,40.1L82.6,40.1z M83.3,40.3L83.3,40.3L83.3,40.3z M85.7,40.9l0.1,0.1l-0.1,0.1
		L85.3,41c-0.1-0.1-0.1-0.2,0-0.2l0,0L85.7,40.9z M84.9,40.4c-0.1-0.1-0.1-0.2,0-0.2l0,0l0.4,0.1l0.1,0.1l-0.1,0.1L84.9,40.4z
		 M84.2,40.2c-0.1-0.1-0.1-0.2,0-0.2l0,0l0.4,0.1l0.1,0.1l-0.1,0.1L84.2,40.2z M83.3,39.7c0.1,0,0.2,0.1,0.4,0.1l0.1,0.1l-0.1,0.1
		c-0.1,0-0.2-0.1-0.4-0.1C83.2,40,83.2,39.9,83.3,39.7L83.3,39.7z M86.6,40.6l0.4,0.1l0.1,0.1L87,40.9l-0.4-0.1
		C86.5,40.8,86.4,40.7,86.6,40.6L86.6,40.6z M85.7,40.6c-0.1-0.1-0.1-0.2,0-0.2l0,0l0.4,0.1l0.1,0.1l-0.1,0.1L85.7,40.6z M81.7,39.9
		L81.7,39.9c-0.1,0.2,0,0.2,0,0.2l0.4,0.1l0.1-0.1L82.2,40L81.7,39.9z M80.1,39.5L80.1,39.5L80.1,39.5z M80.6,39.6l0.1,0.1l-0.1,0.1
		l-0.4-0.1c-0.1,0-0.1,0,0-0.2L80.6,39.6z M80.9,39.7L80.9,39.7L80.9,39.7z M81.4,39.8l0.1,0.1L81.4,40l-0.4-0.1c-0.1,0-0.1,0,0-0.2
		L81.4,39.8z M80.9,39.1l0.4,0.1l0.1,0.1l-0.1,0.1l-0.4-0.1C80.8,39.4,80.8,39.2,80.9,39.1z M82.4,39.8c-0.1-0.1-0.1-0.2,0-0.2l0,0
		l0.4,0.1h0l0.1,0.1l-0.1,0.1L82.4,39.8z M81.7,39.5c-0.1-0.1-0.1-0.2,0-0.2c0,0,0,0,0,0l0.4,0.1l0.1,0.1l-0.1,0.1L81.7,39.5z
		 M79.7,38.7L79.7,38.7L79.7,38.7z M79.7,38.7L79.7,38.7L79.7,38.7z M79.8,39.3l0.1,0.1l-0.1,0.1c-0.1,0-0.2-0.2-0.4-0.2
		c-0.1,0-0.1,0,0.1-0.2C79.5,39.2,79.7,39.3,79.8,39.3L79.8,39.3z M80.1,39c-0.1,0-0.1-0.1,0.1-0.2c0.1,0,0.2,0.2,0.4,0.2l0.1,0.1
		l-0.1,0.1C80.4,39.2,80.3,39,80.1,39L80.1,39z M80,38.7l-0.1,0.1l-0.1-0.1l0.1-0.5c0-0.1,0.1-0.2,0.2,0L80,38.7z M79.3,38.9
		L79.2,39l-0.1-0.1c0-0.1,0-0.2,0-0.5c0-0.1,0-0.1,0.2-0.1C79.3,38.5,79.3,38.8,79.3,38.9L79.3,38.9z M81.2,35.8L81.2,35.8
		L81.2,35.8z M81.2,35.8L81.2,35.8L81.2,35.8z M80.8,36.4L81,36l0.1-0.1l0.1,0.1L81,36.5C81,36.5,81,36.6,80.8,36.4L80.8,36.4z
		 M80.3,37.5l0.1-0.1l0.1,0.1l-0.2,0.4c0,0.1,0,0.1-0.2,0L80.3,37.5z M80.4,37.1L80.4,37.1L80.4,37.1z M80.4,37.1l0.2-0.4l0.1-0.1
		l0.1,0.1l-0.2,0.4C80.6,37.3,80.6,37.3,80.4,37.1L80.4,37.1z M79.7,37.1l0.1-0.1l0.1,0.1l-0.2,0.4c0,0.1-0.1,0.1-0.2,0L79.7,37.1z
		 M79.9,36.7l0.2-0.4l0.1-0.1l0.1,0.1l-0.2,0.4C80,36.8,79.9,36.8,79.9,36.7C79.9,36.7,79.9,36.7,79.9,36.7L79.9,36.7z M80.5,36.1
		L80.5,36.1L80.5,36.1z M79.2,38.1l0.2-0.4l0.1-0.1l0.1,0.1l-0.2,0.4C79.4,38.3,79.4,38.3,79.2,38.1L79.2,38.1z M83.5,40.3
		c0.1,0,0.3,0.1,0.4,0.1l0.1,0.1l-0.1,0.1c-0.1,0-0.2-0.1-0.4-0.1C83.4,40.6,83.4,40.6,83.5,40.3L83.5,40.3z M85.6,47.3l0,0.4
		l-0.1,0.1l-0.1-0.1l0.1-0.4C85.5,47.2,85.5,47.2,85.6,47.3L85.6,47.3z M85.2,48.8L85,49.2l-0.1,0.1l-0.1-0.1l0.1-0.4
		C85,48.7,85.1,48.7,85.2,48.8z M79.2,40.2l-0.1,0.4l-0.1,0.1l-0.1-0.1l0.1-0.4C79,40.1,79.1,40.1,79.2,40.2L79.2,40.2z M85.6,47.1
		L85.5,47l0.1-0.4c0.1-0.1,0.1-0.1,0.2,0L85.8,47L85.6,47.1z M85.4,48.1l-0.1,0.4l-0.1,0.1l-0.1-0.1l0.1-0.4
		C85.2,47.9,85.2,47.9,85.4,48.1L85.4,48.1z M85.2,48.8L85.2,48.8L85.2,48.8z M86.5,44.7l-0.1-0.1l0.1-0.4c0.1-0.1,0.2,0,0.2,0
		c0,0,0,0,0,0l-0.1,0.4L86.5,44.7z M85.9,46.3l-0.1-0.1l0.1-0.4c0.1-0.1,0.1-0.1,0.2,0L86,46.2L85.9,46.3z M86.2,45.6l-0.1-0.1
		l0.1-0.4c0-0.1,0.1-0.2,0.2,0l-0.1,0.4L86.2,45.6z M86.8,44l-0.1-0.1l0.1-0.4c0.1-0.1,0.2,0,0.2,0c0,0,0,0,0,0l-0.1,0.4L86.8,44z
		 M87,43.2l-0.1-0.1l0.1-0.4c0.1-0.1,0.2,0,0.2,0c0,0,0,0,0,0l-0.1,0.4L87,43.2z M76.8,47.1l-0.1,0.4l-0.1,0.1l-0.1-0.1l0.1-0.4
		C76.6,47,76.7,47,76.8,47.1L76.8,47.1z M78.4,42.5l-0.1,0.4L78.1,43L78,42.9l0.1-0.4C78.2,42.4,78.3,42.4,78.4,42.5
		C78.4,42.5,78.4,42.5,78.4,42.5L78.4,42.5z M77.2,45.6l0,0.4l-0.1,0.1L77,46l0.1-0.4C77.2,45.5,77.2,45.5,77.2,45.6L77.2,45.6z
		 M78.1,43.4l-0.1,0.4l-0.1,0.1l-0.1-0.1l0.1-0.4C77.9,43.2,78,43.1,78.1,43.4L78.1,43.4z M78.9,41l-0.1,0.4l-0.1,0.1l-0.1-0.1
		l0.1-0.4C78.8,40.9,78.9,40.9,78.9,41C78.9,41,78.9,41,78.9,41L78.9,41z M77.5,44.9l-0.1,0.4l-0.1,0.1l-0.1-0.1l0.1-0.4
		C77.4,44.8,77.4,44.8,77.5,44.9L77.5,44.9z M77.8,44.1l-0.1,0.4l-0.1,0.1l-0.1-0.1l0.1-0.4C77.7,44,77.7,44,77.8,44.1L77.8,44.1z
		 M76.5,47.9l-0.1,0.4l-0.1,0.1l-0.1-0.1l0.1-0.4C76.3,47.8,76.4,47.8,76.5,47.9L76.5,47.9z M76.2,48.7l-0.1,0.4L76,49.2l-0.1-0.1
		l0.1-0.4C76.1,48.5,76.2,48.5,76.2,48.7L76.2,48.7z M77.1,46.4l-0.1,0.4l-0.1,0.1l-0.1-0.1l0.1-0.4C76.9,46.3,76.9,46.3,77.1,46.4
		L77.1,46.4z M78.7,41.8l-0.1,0.4l-0.1,0.1l-0.1-0.1l0.1-0.4C78.5,41.7,78.6,41.7,78.7,41.8C78.7,41.7,78.7,41.7,78.7,41.8
		L78.7,41.8z M76.8,47.2L76.8,47.2L76.8,47.2z M108.6,44.7v-0.6c0-0.6-0.3-1.3-1.6-1.3c-0.6,0-0.8,0.3-1.1,0.6
		c-0.3,0.4-0.9,1.1-2.7,2c-2.4,1.3-9.2,3-14.9,3.8c0.1-0.6,0.3-1.9,0.6-3c0.3-1.4,1.2-3.5,1.6-4.2l0.1-0.2c0.5-1,0.7-1.6,0.4-2
		c-0.1-0.1-0.2-0.2-1-0.5c0-0.2,0.1-0.4,0.2-0.7c0.2-0.8,0.2-1.4-0.6-1.7L89,36.7c-1.5-0.5-3-1-4.5-1.4c-0.6-0.1-1.1-0.3-1.6-0.4
		c-2.2-0.5-2.8-0.7-3-0.2c-0.1,0.2-0.6,0.8-1.1,1.5c-0.8-0.1-1,0-1.1,0.1c-0.2,0.1-0.3,0.3-0.3,0.5c0,0,0,0.1,0,0.1
		c-0.1,0.2-1.7,4.2-4.7,11.9c-2.2-0.3-4.4-0.7-6.8-1.2c-2.9-0.6-5.1-1.2-7.2-1.8c-2.5-0.7-4.9-1.4-8.1-1.9l-0.3,0
		c1-1.3,5.9-7.6,7-8.9c0.2-0.3,0.6-0.7,1.1-1.3c4.7-5.5,4.9-5.9,4.8-6.3c0-0.1-0.1-0.2-0.2-0.3l0,0c0-0.1,0.1-0.1,0.2-0.2
		c0.2-0.4,0.4-0.8,0.3-1.3c-0.1-0.3-0.2-0.6-0.5-0.8c-0.3-0.2-0.7-0.5-1-0.8c-0.4-0.4-0.8-0.7-1.2-1c-0.5-0.3-4.2-3.1-4.9-3.7
		c-1.2-1-1.8-0.8-2.1-0.6c-0.1,0.1-0.2,0.1-0.3,0.2c-0.1,0-0.2-0.1-0.3-0.1c-0.3,0-0.6,0.1-1.3,1.1c-0.4,0.5-4,4-5.6,5.2l-0.1,0.1
		c-1.5,1.1-2.5,1.9-5,2.4c-2,0.4-5.7-0.7-7.9-1.3c-0.5-0.1-1-0.3-1.4-0.4l-0.2,0C28.4,25.2,24,24.2,23,24c-1.7-0.3-2.8-0.4-2.9,0.4
		c0,0.2-0.1,0.4-0.1,0.6c-0.2,0.1-0.3,0.3-0.3,0.6c0,0.1,0,0.2,0,0.3c0,0.2,0,0.3,0,0.5c0,0.1-0.1,0.2-0.1,0.4
		c-0.2,0.5-0.4,0.9-0.5,1.4c0,0.2-0.1,0.4-0.1,0.6l0,0c-0.3,0.1-0.8,0.2-1,0.6c-0.2,0.5,0,1.2,0.4,1.6l0.1,0.1
		c0.1,0.1,0.3,0.3,0.3,0.3c0,0.2-0.4,2-0.5,2.6l-0.1,0.4C18,34.6,18,35,18.1,35.2l0,0.3c-0.1,0.8,0.2,1.2,1.2,1.7
		c0.6,0.3,1.2,0.4,2.5,0.7c0.7,0.1,1.6,0.3,2.9,0.6c2.9,0.6,4.2,1.3,5.4,1.9c0.3,0.2,0.6,0.3,0.9,0.4c1.5,0.7,1.5,0.9,1.6,1.4
		c0,0.4-0.1,1.4-0.3,2.2c-3.8,0.4-8.9,0.8-10.4,0.7c-1.9-0.2-5.4-2.3-6.1-2.8c-0.3-0.2-0.3-0.3-0.4-0.3c-0.1-0.2-0.3-0.4-0.5-0.5
		c-0.5-0.3-1-0.1-1.5,0.1l-0.2,0.1c-0.2,0-0.3,0.2-0.3,0.3c0,0-1.4,4.2-1.7,5c-0.6,1.7,0.3,3.6,0.7,4.1c0.4,0.5,3.3,3.5,4.6,4.2
		c0,0,4.6,2.1,5.8,1.8c0.2-0.1,0.5-0.2,0.6-0.5c0.4,0,1,0,1.4,0.1c0,0,0,0,0,0c0,0.2,0.2,0.6,0.6,0.7c0.6,0.1,2.4,0.2,2.5,0.2l0,0
		c0.5,0,0.9-0.3,1-0.7c0.2,0,0.5,0,0.7,0c0.1,0,0.1,0,0.2,0c0,0.3,0.2,0.7,0.7,0.8c0.1,0,2,0.1,2.4,0.1c0.8,0,0.9-0.8,0.9-1.1
		c0,0,0,0,0,0c0.3,0,0.7,0,1,0c0,0,0,0.1,0,0.1c0,0.4,0.1,1.1,0.8,1.1c0.1,0,0.5,0,0.9,0c0.7,0,1.5,0,1.7,0c0.6,0,0.7-0.5,0.8-0.7
		c0.3,0,0.7,0,1,0c0.1,0.6,0.3,0.9,0.8,0.9c0.3,0,0.6,0,0.9,0c0.5,0,0.9,0,1.3-0.1c0.7-0.3,1-0.8,1.4-1.3c0.1-0.2,0.2-0.4,0.4-0.6
		c0.1,0,0.2,0,0.2,0c0.1,0,0.2,0,0.3,0h0c0.2,0.3,0.5,0.4,1.1,0.4c0.7,0,1.7-0.1,2.7-0.2c1.3-0.1,2.7-0.2,3.3-0.2l0.6,0
		c3-0.2,3.2-0.3,3.4-0.5c0.1-0.1,0.2-0.2,0.3-0.4c0.3,0,0.5,0.1,0.8,0.2c0,0,0,0.1,0,0.1c0,0.6,0.3,0.9,0.6,0.9
		c0.2,0,1.7,0.4,2.3,0.4c0.2,0,0.7,0,1-0.4c0.2,0,0.3,0,0.5,0l0.4,0c0,0.2,0.1,0.5,0.7,0.8c0.5,0.2,1.9,0.4,2.4,0.4
		c1.1,0,1.1-1,1.1-1.3c0,0,0-0.1,0-0.2c0.1,0,0.1,0,0.2,0c0.3,0,0.8,0,1,0.1c0,0,0,0,0.1,0v0.6c0,0.3,0.1,1.1,1.1,1.1
		c0.1,0,0.4,0,0.8,0c0.8,0.1,1.8,0.1,2.1,0.1c0.7,0,0.8-0.4,0.9-0.7h1.1c0,0.1,0,0.1,0,0.2c0,0.5,0.4,0.9,0.9,0.9c0,0,0,0,0,0H77
		c0.3,0,0.6-0.1,0.8-0.3c0.2-0.2,0.2-0.5,0.2-0.7c0-0.1,0-0.2,0-0.3h1.7v0.1c0,0,0,0.1,0,0.2v0.2c0,0,0,0,0,0c0,0.3,0.1,0.6,0.3,0.8
		c0.1,0.1,0.2,0.2,0.4,0.2c0,0,0.6,0,2.4-0.2c1.3-0.1,1.6-0.2,1.8-0.5c0.1-0.2,0.2-0.3,0.1-0.5c0.2,0,0.4-0.1,0.6-0.1
		c0.2,0,0.3,0,0.5,0v0c0,0.2,0.1,0.5,0.2,0.6c0.2,0.1,0.4,0.2,0.6,0.1c0.1,0,0.2,0,0.3,0c0.6,0,2.7-0.4,3.3-0.6
		c0.8-0.3,0.9-0.6,0.9-0.9v-1c0.1-0.1,0.4-0.2,1-0.3c0.1,0,0.2,0,0.3,0v0.8c0,0.2,0.1,0.4,0.3,0.5c0.3,0.2,0.7,0.1,1.2,0l2.7-0.9
		c0.1,0,0.2-0.1,0.2-0.1l0,0c0.1,0,0.2,0,0.3,0l2.6-0.9c0.1,0,0.2-0.2,0.3-0.3l0-0.1h0.2c0.1,0,0.2,0,0.2,0c0.1-0.1,3.5-1.7,4.8-2.6
		c1-0.7,1.9-1.5,2.8-2.4c0.6-0.6,0.9-1.4,0.9-2.2v-1.5C109,45,108.8,44.8,108.6,44.7L108.6,44.7z M90.1,40.3
		c-0.1,0.4-0.3,0.7-0.4,1.1l-0.1,0.2c-0.3,0.7-1.3,3-1.6,4.5c-0.2,1.3-0.5,2.9-0.6,3.2c-0.4,0-0.8,0.1-1.2,0.1
		c0.8-2.6,1.6-5.2,2.5-7.8c0,0,0,0,0,0c0.1-0.2,0.2-0.5,0.3-0.7c0.1-0.3,0.2-0.6,0.3-0.8C89.6,40.1,89.8,40.2,90.1,40.3z M84.8,49.5
		c-0.1,0-0.1,0-0.1,0c-0.2,0-0.5,0-0.7,0c-2.9,0.1-5.9-0.1-8.8-0.4c1.1-3.1,2.3-6.2,3.3-9.3c0.4,0.2,0.9,0.3,1.3,0.4
		c1,0.3,2.1,0.5,3.1,0.8c1.4,0.3,3,0.8,4.4,0.9l0,0l-0.1,0.4l0.1,0.1l0.1-0.1l0.1-0.4l0.2,0c0.1,0,0.2,0,0.3,0
		c-0.8,2.5-1.6,5-2.4,7.5C85.4,49.5,85.1,49.5,84.8,49.5z M80.3,35.8L80.2,36c0.1,0.1,0.1,0.1,0.2,0c0,0,0,0,0,0l0.2-0.4l-0.1-0.1
		l0,0l0.1-0.2l0.1,0c0,0,0.1,0,0.1,0h0l0,0c0.1,0,0.3,0,0.4,0.1c0,0.1-0.1,0.1-0.1,0.2c0.2,0.2,0.2,0.2,0.2,0c0-0.1,0-0.1,0.1-0.2
		c0.4,0.1,0.8,0.2,1.2,0.3c0.5,0.1,1.1,0.3,1.6,0.4c1.4,0.3,2.8,0.8,4.1,1.3c0,0.1-0.1,0.2-0.1,0.3c0.1,0.1,0.2,0.1,0.2,0
		c0-0.1,0-0.1,0-0.2l0.1,0l0.3,0.1l-0.1,0.1c0,0.1-0.1,0.3-0.1,0.4c0.2,0.1,0.2,0.1,0.2,0c0-0.2,0.1-0.3,0.1-0.4l0,0l0,0
		c0.1,0,0.1,0,0.1,0c0,0.2-0.1,0.3-0.1,0.5c-0.1,0.4-0.2,0.8-0.3,1.3v0.1c-0.2,0.4-0.3,0.8-0.4,1.2c-0.2,0.5-0.2,0.7-0.8,0.7
		c-0.1,0-0.1,0-0.2,0c0,0,0,0,0.1,0l0.1-0.1l-0.1-0.1c-0.1,0-0.3,0-0.4,0.1c0,0,0,0,0,0c-0.1,0-0.2,0-0.3-0.1l0.1-0.1l-0.1-0.1
		L86.3,41c-0.1,0-0.1,0.1,0,0.2c-1-0.2-2.1-0.4-3.1-0.6c-1.3-0.3-2.7-0.6-4-1c-0.2,0-0.4-0.1-0.6-0.2c0,0,0,0,0,0
		c-0.1-0.1-0.1-0.2-0.1-0.3c0-0.3,0.3-0.7,0.4-1c0.2-0.5,0.5-0.9,0.8-1.3C79.9,36.3,80.2,36,80.3,35.8L80.3,35.8z M78.1,37.4
		c0.1-0.1,0.1-0.2,0.1-0.3c0.1,0,0.3,0,0.5,0c-0.6,0.8-1.2,1.9-0.7,2.4c-1,3.2-2.2,6.4-3.3,9.5c-0.4,0-0.7-0.1-1.1-0.2
		C75.4,44.3,77.9,37.9,78.1,37.4L78.1,37.4z M57.6,33.1c-0.5,0.5-0.8,1-1.1,1.3c-1.2,1.5-7,8.8-7.2,9.2c0,0-0.1,0.1-0.1,0.2
		c-0.3,0-0.7-0.1-1-0.1l12.9-15.2l0.8-0.9l0,0l0.2,0.1C61.5,28.6,58.9,31.6,57.6,33.1z M46.8,43l-0.3,0.4l0,0.1
		c-3.9-0.2-7.7,0.1-10.3,0.4h0l-1,0.1c2.6-3.7,5.2-7.3,7.8-11c0.3,0.2,0.5,0.3,0.7,0.5l0.1,0.1l-0.2,0.2l0.1,0.1l0.1-0.1l0.1-0.2
		l2.1,1.7c0.8,0.6,1.6,1.3,2.4,1.9c0.5,0.4,1,0.8,1.6,1.1c1.3,0.5,2-0.5,2.7-1.4c1.1-1.3,2.2-2.6,3.3-3.8c2.1-2.5,4.3-4.9,6.4-7.4
		c0,0,0,0,0,0c0,0.2,0,0.3-0.1,0.5L49.3,41.7c-0.5,0.6-1.1,1.3-1.6,1.9c-0.3,0-0.7,0-1-0.1l0,0l0.3-0.4C46.9,43,46.9,43.1,46.8,43
		L46.8,43z M54.9,19.8l-0.2,0.2c0,0.1,0.1,0,0.2,0.1l0.2-0.2l0.1,0.1c0.8,0.6,4.5,3.5,5,3.8c0.4,0.3,0.7,0.6,1.1,0.9l0,0.1
		c0,0.1,0.1,0,0.2,0.1l0,0l0.2,0.1l-0.2,0.2c0,0.1,0.1,0.1,0.2,0.1c0,0,0,0,0,0l0.2-0.2c0.2,0.1,0.3,0.3,0.5,0.4c0,0,0,0-0.1,0
		c-1.7,1.9-3.4,3.9-5.1,5.8c-1.2,1.4-2.4,2.7-3.5,4.1c-0.6,0.7-1.2,1.7-2,2.3c-0.9,0.8-1.6,0.1-2.4-0.5s-1.5-1.1-2.2-1.7
		c-1.3-1-2.5-2-3.8-3l0,0c0,0,0,0,0,0c-0.4-0.4-0.3-0.7,0.1-1.1c0.3-0.4,0.7-0.8,1-1.1c1.1-1.2,2.3-2.5,3.4-3.7c2-2.2,4-4.4,6-6.6
		c0,0,0,0,0,0c0,0,0.3-0.2,0.5-0.4C54.2,19.5,54.4,19.5,54.9,19.8L54.9,19.8z M22.9,24.9c1.1,0.2,6.6,1.5,8.5,1.9l0.2,0
		c0.3,0.1,0.8,0.2,1.3,0.4c2.3,0.6,6.1,1.7,8.3,1.3c2.7-0.5,4-1.4,5.4-2.5l0.1-0.1c1.5-1.2,5.3-4.8,5.7-5.4c0.2-0.2,0.4-0.5,0.6-0.7
		c0,0,0.1,0.1,0.1,0.1c-1.9,2-3.7,4-5.6,6.1l-1.5,1.6c-0.1,0-0.2,0-0.3,0.1c-1.6,1.7-4.2,1.8-6.4,1.5s-4.3-0.7-6.5-1.1
		c-2.1-0.4-4.3-0.9-6.5-1.4c-1.9-0.4-3.8-0.8-5.6-1.6c0-0.1,0-0.3,0-0.4C21.4,24.6,22.5,24.8,22.9,24.9z M18.8,29.7
		c0,0,0.1-0.1,0.4-0.1c0.1,0,0.1,0,0.2,0c0.5-0.1,0.6-0.8,0.7-1.4c0.1-0.4,0.2-0.8,0.4-1.2c0-0.1,0.1-0.2,0.1-0.3
		c0.1,0,0.2,0,0.3,0.1c0.1,0,0.1-0.1,0.1-0.2c0,0,0,0,0,0c-0.1,0-0.2-0.1-0.3-0.1c0-0.1,0-0.2,0-0.3c0,0,0.1,0,0.1,0
		c0.1,0,0.1-0.1,0.1-0.2c0,0,0,0,0,0c-0.1,0-0.2,0-0.2-0.1c0-0.1,0-0.2,0-0.2c0.1,0,0.1-0.1,0.2-0.2c1.8,0.8,3.8,1.1,5.6,1.6
		c2.4,0.6,4.8,1.1,7.2,1.6c2.3,0.4,4.6,0.9,6.9,1.1c1.5,0.1,3.1-0.1,4.5-0.9c-0.4,0.4-0.8,0.9-1.2,1.3l0,0c0,0,0,0-0.1-0.1
		c-0.2,0-0.4,0.1-0.5,0.1c0,0-0.1,0.1,0,0.1c0,0,0.1,0.1,0.1,0c0.1-0.1,0.2,0,0.4-0.1c0,0,0,0,0.1,0c-0.2,0.2-0.4,0.4-0.7,0.7
		c0,0,0,0,0-0.1c-0.2,0-0.4,0.1-0.5,0.1c0,0-0.1,0.1,0,0.1c0,0,0.1,0.1,0.1,0c0.1-0.1,0.2,0,0.4-0.1l0,0c-0.4,0.4-0.8,1-0.8,1.3
		c0,0.2,0.2,0.3,0.3,0.5l-6.5,9.2h0c-0.1-0.1-0.1-0.2-0.2-0.3h-0.1v0.1L36,42l0,0l0,0l-0.8,1.2c0-0.4,0-0.8,0-1.1
		c-0.1-0.8-0.5-1.2-1.1-1.6c-1.5-1.3-3.3-1.9-5.1-2.5c-1.9-0.5-3.8-1-5.7-1.5c-1.5-0.4-3-0.8-4.3-1.6l0,0l0.4,0.1
		c0.1-0.1,0-0.1,0-0.2L19,34.5l0,0c0,0,0,0,0,0l0.1-0.3l0.4,0.1c0.1-0.1,0-0.1,0-0.2L19.1,34c0.4-1.7,0.5-2.4,0.5-2.6
		c0-0.4-0.3-0.7-0.5-1L19,30.3C18.8,30.1,18.7,29.8,18.8,29.7z M33.5,42c-0.1-1-0.6-1.4-2.1-2.1c-0.3-0.1-0.6-0.3-0.9-0.4
		c-1.2-0.6-2.6-1.3-5.6-1.9c-1.3-0.3-2.2-0.5-3-0.6c-1.3-0.2-1.8-0.3-2.3-0.6C18.9,36,18.9,36,19,35.7l0.1-0.4c1,0.5,2,0.9,3.1,1.2
		c1.8,0.5,3.7,1,5.5,1.5c1.9,0.5,3.8,1,5.4,2.2c0.6,0.5,1.3,1,1.5,1.7c0.1,0.7,0.1,1.3,0,2c0,0,0,0.1,0.1,0.1L34.6,44l-0.2,0
		l-1.1,0.1C33.4,43.5,33.6,42.5,33.5,42L33.5,42z M13.9,42.5c0.3-0.1,0.5-0.2,0.6-0.1c0.1,0.2,0.2,0.4,0.7,0.7
		c0.6,0.5,4.4,2.8,6.7,3c2.4,0.2,11.6-0.8,12.7-0.9c2.7-0.3,10-1.1,15.9-0.2c3.1,0.5,5.5,1.2,8,1.8c2.1,0.6,4.4,1.2,7.3,1.8
		c6.9,1.4,12.3,2.2,18.3,2c5.3-0.2,16-2.3,19.8-4.3c2-1,2.6-1.8,3-2.3c0.1-0.1,0.2-0.2,0.2-0.2h0c0.4,0,0.5,0.1,0.5,0.1l0,0
		c0,0,0,0.1,0,0.1v1.1c0,0.1,0,0.1,0,0.2c0,0-0.1,0.1-0.1,0.1c-0.4,0.5-0.9,1-1.4,1.4c-1.4,1.1-3.2,1.7-4.9,2.2
		c-3.2,1.1-6.4,1.9-9.7,2.5c-6.6,1.1-13.4,1.2-20.1,0.2c-3.2-0.5-6.5-1.2-9.8-1c-1.8,0.1-3.5,0.6-5.3,0.4c-1.6-0.2-3-0.8-4.6-1
		c-3.2-0.3-6.2,1.5-9.4,1.4c-3.2-0.1-6.1-1.3-9.2-1.8c-1.6-0.2-3.2-0.2-4.7,0.2c-2.2,0.5-4.2,0.9-6.4,0c-1.6-0.7-3.1-1.7-4.6-2.6
		c-1.4-0.9-2.8-1.9-4.2-3C13.5,43.6,13.8,42.8,13.9,42.5z M92.4,55.2c0,0,0-0.1,0-0.1l0.3,0.1H92.4z M92.9,55.2l0.1-0.5
		c0.2,0,0.4,0.2,0.5,0.5H92.9z M107.9,47c0,0.5-0.2,1.1-0.6,1.4c-0.8,0.8-1.7,1.6-2.7,2.3c-1.1,0.8-3.9,2.2-4.6,2.5h-0.4
		c-0.2,0-0.4,0.1-0.5,0.3l-0.1,0.2l-2,0.7c-0.2-0.2-0.5-0.1-0.7,0.1l-0.3,0.3l-2.6,0.9l0,0v-0.3c0-0.2,0-0.4-0.1-0.5
		c-0.1-0.2-0.5-0.6-1.4-0.5c-1.2,0.2-1.9,0.7-1.9,1.3v0.9c-0.1,0-0.1,0-0.2,0.1c-1,0.2-1.9,0.4-2.9,0.5h0c0-0.2-0.1-0.4-0.3-0.5
		c-0.4-0.3-0.9-0.3-1.4-0.2c-1.1,0.2-1.5,0.2-1.6,1c-0.3,0-0.7,0.1-1,0.1c-1,0.1-1.6,0.1-1.9,0.2v0c0-0.3,0.1-0.8-0.2-1.1
		c-0.2-0.2-0.4-0.3-0.7-0.3h-2c-0.8,0-0.9,0.5-0.9,1.1c0,0.1,0,0.1,0,0.2h-2.6c0-0.4-0.1-1.1-0.9-1.1H72c-0.7,0-0.8,0.4-0.9,0.7
		c-0.4,0-1.3-0.1-1.9-0.1s-0.8-0.1-0.9-0.1v-0.5c0-0.5-0.2-0.9-0.7-1C67.2,55,66.5,55,66.1,55c-1.3,0-1.3,0.9-1.3,1.3
		c0,0,0,0.1,0,0.2c-0.5,0-1.7-0.2-1.9-0.3l0,0c0-0.2,0-0.4-0.2-0.6c-0.2-0.2-0.4-0.3-0.7-0.3c-0.2,0-0.3,0-0.5,0c-0.3,0-0.6,0-0.8,0
		c-0.3,0-0.5,0.1-0.6,0.4h-0.1c-0.6-0.1-1.2-0.2-1.8-0.3l0,0c0-0.3,0-0.8-0.7-1c-0.4-0.1-0.8-0.2-1.3-0.3c-0.4,0-0.8,0.2-0.9,0.6
		c-0.5,0.1-2.2,0.2-2.8,0.3l-0.6,0c-0.6,0-2,0.1-3.3,0.2c-1,0.1-2,0.1-2.7,0.2h-0.1c-0.2-0.4-0.6-0.4-0.9-0.4c-0.1,0-0.2,0-0.3,0
		c-0.3,0-0.8,0-1.2,0.4c-0.2,0.2-0.3,0.5-0.5,0.7c-0.3,0.5-0.5,0.7-0.9,0.9c-0.2,0.1-0.4,0-0.8,0c-0.2,0-0.4,0-0.6,0
		c-0.1-0.6-0.3-0.9-0.8-0.9h-0.3c-0.4,0-0.9,0-1.2,0c-0.6,0-0.7,0.5-0.8,0.7c-0.3,0-0.9,0-1.4,0l-0.6,0c0-0.1,0-0.1,0-0.2
		c0-0.4-0.1-1-0.7-1.1c-0.6,0-1.2,0-1.8,0c-0.5,0.1-0.6,0.6-0.7,0.9c0,0,0,0.1,0,0.2c-0.5,0-1.4,0-1.8-0.1v0c0-0.2-0.2-0.8-0.8-0.8
		c-0.1,0-0.2,0-0.4,0c-0.4,0-0.8,0-1.1,0c-0.5,0-0.6,0.5-0.6,0.7l0,0c-0.3,0-1.4-0.1-2-0.2c-0.1-0.4-0.4-0.7-0.8-0.7
		c-0.6,0-1.2-0.1-1.8-0.1c-0.3,0-0.6,0.2-0.8,0.5c-0.7,0-3.3-1-4.9-1.7c-1.1-0.5-3.9-3.3-4.2-3.8c-0.2-0.3-1-1.9-0.6-3.2
		c0.1-0.3,0.5-1.4,0.8-2.4c2.4,1.8,4.9,3.5,7.5,4.9c1.4,0.7,2.8,1.2,4.3,1.1c1.8-0.1,3.5-0.7,5.3-0.9c3.5-0.2,6.8,1.2,10.1,1.7
		c1.5,0.2,3.1,0.2,4.7-0.1c1.8-0.4,3.6-1.1,5.5-1.2c1.9-0.1,3.7,0.7,5.6,1c1.6,0.2,3.2-0.2,4.8-0.3c3.8-0.4,7.6,0.6,11.3,1.1
		c6.9,1,13.9,0.8,20.8-0.6c3.8-0.8,7.5-1.8,11.1-3.3c1.4-0.5,2.6-1.4,3.6-2.6l0.1-0.1c0,0,0,0,0,0L107.9,47z M24,27.3L24,27.3
		L24,27.3z M24.3,27.5l0-0.1l0.1,0c0.1,0,0.3,0.1,0.4,0.1c0,0.2,0,0.2-0.1,0.2C24.5,27.6,24.4,27.6,24.3,27.5L24.3,27.5z M25,27.8
		l0-0.1l0.1,0l0.4,0.1c0,0.1,0,0.1-0.1,0.2L25,27.8z M39.2,31.1l0-0.2l0.2,0c0.1,0,0.2,0,0.2,0h0.2c0,0.2,0,0.2-0.2,0.1l-0.2,0
		C39.4,31.2,39.3,31.2,39.2,31.1L39.2,31.1z M24,27.3L24,27.3L24,27.3z M23.5,27.4l0-0.1l0.1,0c0.1,0,0.2,0,0.4,0.1
		c0,0.1,0,0.2-0.1,0.2C23.8,27.5,23.6,27.5,23.5,27.4L23.5,27.4z M23.2,27.1L23.2,27.1L23.2,27.1z M39,30.8L39,30.8L39,30.8z
		 M27.4,28.5l0-0.1l0.1,0l0.4,0.1c0,0.1,0,0.1-0.1,0.2L27.4,28.5z M28.2,28.6l0-0.1l0.1,0l0.4,0.1c0,0.1,0,0.1-0.1,0.2L28.2,28.6z
		 M36.1,30.4l0-0.2l0.2,0l0.4,0.1c0,0.1,0,0.2-0.1,0.2l0,0L36.1,30.4z M27.2,28.1L27.2,28.1L27.2,28.1z M27.1,28.3
		c0.1,0,0.1-0.1,0.1-0.2l0,0L26.8,28l-0.1,0l0,0.1L27.1,28.3z M27.2,28.1L27.2,28.1L27.2,28.1z M25.8,28l0-0.1l0.1,0l0.4,0.1
		c0,0.1,0,0.2-0.1,0.2L25.8,28z M37.7,30.7l0-0.2l0.2,0l0.4,0.1c0,0.2,0,0.2-0.1,0.2L37.7,30.7z M21.9,27l0-0.1l0.1,0
		c0.1,0,0.3,0,0.4,0.1c0,0.1,0,0.2-0.1,0.2l0,0C22.2,27,22,27,21.9,27L21.9,27z M21.7,26.7L21.7,26.7L21.7,26.7z M21.7,26.7
		L21.7,26.7L21.7,26.7z M36.9,30.5l0-0.2l0.1,0l0.4,0.1c0,0.1,0,0.2-0.1,0.2c0,0,0,0,0,0L36.9,30.5z M38.3,30.6L38.3,30.6L38.3,30.6
		z M22.7,27.2l0-0.1l0.1,0c0.1,0,0.3,0.1,0.4,0.1c0,0.1,0,0.1-0.1,0.2C22.9,27.2,22.8,27.3,22.7,27.2L22.7,27.2z M23.3,27.1
		L23.3,27.1L23.3,27.1z M38.5,30.9l0-0.2l0.2,0c0.2,0.1,0.3,0.1,0.4,0.1c0,0.2,0,0.2-0.1,0.2C38.7,30.9,38.6,30.9,38.5,30.9
		L38.5,30.9z M36.7,30.3L36.7,30.3L36.7,30.3z M36.6,30.3L36.6,30.3L36.6,30.3z M39,30.8L39,30.8L39,30.8z M38.2,30.6L38.2,30.6
		L38.2,30.6z M41.4,31L41.4,31L41.4,31z M40.9,31c0.2,0,0.2,0,0.5,0c0,0.2,0,0.2,0,0.1c-0.2,0-0.2,0-0.4,0
		C40.9,31.3,40.8,31.1,40.9,31C40.7,31,40.9,31,40.9,31L40.9,31z M32.1,29.4l0-0.1l0.2,0l0.4,0.2c0,0.1,0,0.1,0,0.1L32.1,29.4z
		 M31.3,29.3l0-0.1l0.1,0l0.4,0.1c0,0.2,0,0.2-0.1,0.2L31.3,29.3z M40.1,31c0.2,0,0.2,0,0.5,0c0,0.1,0,0.2-0.1,0.2h0
		c-0.1,0-0.2,0-0.3,0C40.1,31.2,40.1,31.1,40.1,31C40,31,40.2,31,40.1,31L40.1,31z M41.4,31L41.4,31L41.4,31z M20.9,26.5L20.9,26.5
		L20.9,26.5z M31.1,29L31.1,29L31.1,29z M20.9,26.5L20.9,26.5L20.9,26.5z M21.2,26.8l0-0.1l0.1,0c0.1,0,0.3,0,0.4,0.1
		c0,0.1,0,0.2-0.1,0.2l0,0C21.4,26.8,21.3,26.9,21.2,26.8L21.2,26.8z M33.7,29.8l0-0.1l0.2,0l0.4,0.1c0,0.1,0,0.1-0.1,0.2L33.7,29.8
		z M35.3,30.2l0-0.2l0.2,0l0.4,0.1c0,0.1,0,0.2-0.1,0.2l0,0L35.3,30.2z M32.9,29.7l0-0.1l0.2,0l0.4,0.1c0,0.1,0,0.1-0.1,0.2
		L32.9,29.7z M34.4,30l0-0.1l0.2,0l0.4,0.1c0.2,0.2,0,0.3-0.1,0.2L34.4,30z M29.5,28.7L29.5,28.7L29.5,28.7z M39.8,31L39.8,31
		L39.8,31z M39.8,30.9L39.8,30.9L39.8,30.9z M29,28.8l0-0.1l0.1,0l0.4,0.1c0,0.1,0,0.2-0.1,0.2L29,28.8z M28.8,28.5L28.8,28.5
		L28.8,28.5z M28.7,28.5L28.7,28.5L28.7,28.5z M29.8,28.9l0-0.1l0.1,0l0.4,0.1c0,0.1,0,0.2-0.1,0.2L29.8,28.9z M29.5,28.7L29.5,28.7
		L29.5,28.7z M30.3,28.8L30.3,28.8L30.3,28.8z M41.8,31c0.2,0,0.2,0,0.5,0c0,0.2,0,0.1,0,0.1c-0.2,0-0.2,0-0.4,0
		C41.8,31.2,41.7,31.1,41.8,31C41.6,31,41.8,31,41.8,31z M30.5,29.1l0-0.1l0.1,0l0.4,0.1c0,0.1,0,0.2-0.1,0.2L30.5,29.1z M30.3,28.9
		L30.3,28.9L30.3,28.9z M31.1,29L31.1,29L31.1,29z M25.6,35.9l-0.4-0.1L25,35.7l0.1-0.1l0.4,0.1C25.7,35.8,25.7,35.8,25.6,35.9
		L25.6,35.9z M26.4,35.9c0.1,0,0.2,0.1,0,0.2L25.9,36l-0.1-0.1l0.1-0.1L26.4,35.9z M32.6,38.1c-0.2-0.1-0.3-0.1-0.4-0.2
		c0,0-0.1-0.1,0-0.1c0,0,0.1-0.1,0.1,0c0.1,0.1,0.2,0.1,0.3,0.2C32.7,38,32.7,38,32.6,38.1L32.6,38.1z M24.8,35.7l-0.4-0.1l-0.1-0.1
		l0.1-0.1l0.4,0.1C24.9,35.6,24.9,35.6,24.8,35.7z M33.3,38.6c-0.2-0.1-0.3-0.1-0.4-0.2c0,0-0.1-0.1,0-0.1c0,0,0.1-0.1,0.1,0
		c0.1,0.1,0.2,0.1,0.3,0.2C33.3,38.5,33.4,38.5,33.3,38.6z M30.4,37c0.1,0,0.1,0.1,0,0.2c-0.1,0-0.2-0.1-0.4-0.1L29.8,37l0.1-0.1
		C30,36.9,30.1,37,30.4,37L30.4,37z M20.5,34.6l-0.1-0.1l0.1-0.1l0.4,0.1c0.1,0,0.1,0.1,0,0.2L20.5,34.6z M34,39
		c-0.2-0.1-0.3-0.2-0.4-0.2c0,0-0.1-0.1,0-0.1c0,0,0.1-0.1,0.1,0c0.1,0.1,0.2,0.1,0.3,0.2C34.1,38.9,34.1,38.9,34,39L34,39z
		 M31.9,37.6c0.1,0.1,0.1,0.2,0,0.2c0,0,0,0,0,0c-0.2-0.1-0.3-0.1-0.4-0.2c0,0-0.1-0.1,0-0.1c0,0,0.1-0.1,0.1,0
		C31.7,37.5,31.8,37.6,31.9,37.6L31.9,37.6z M22.5,35.2L22.5,35.2L22.5,35.2z M31,37.3c0.2,0.1,0.2,0.1,0.1,0.2l-0.2-0.1
		c-0.1,0-0.2,0-0.2-0.1l-0.1-0.1l0.1-0.1c0.1,0,0.2,0,0.2,0.1L31,37.3z M26.8,36l0.4,0.1c0.1,0.1,0.1,0.2,0,0.2c0,0,0,0,0,0
		l-0.4-0.1l-0.1-0.1L26.8,36z M24,35.4c0.1,0,0.1,0,0,0.1h-0.4l-0.1-0.1l0.1-0.1L24,35.4z M22.8,35l0.4,0.1c0.1,0,0.1,0,0,0.2
		l-0.4-0.1l-0.1-0.1L22.8,35z M21.3,34.6l0.4,0.1c0.1,0,0.1,0.1,0,0.2l-0.4-0.1l-0.1-0.1L21.3,34.6z M22.1,34.8l0.4,0.1
		c0.1,0,0.1,0.1,0,0.2l-0.4-0.1l-0.1-0.1L22.1,34.8z M19.8,34.4l-0.1-0.1l0.1-0.1l0.4,0.1c0.1,0.1,0.1,0.1,0,0.2L19.8,34.4z
		 M36.2,41.3L35.9,41v-0.1H36c0.1,0.1,0.1,0.2,0.2,0.3C36.3,41.2,36.3,41.2,36.2,41.3L36.2,41.3z M29.1,36.7l0.4,0.1
		c0.1,0,0.1,0.1,0,0.2l-0.4-0.1L29,36.8L29.1,36.7z M34.3,39.1c0.1,0.1,0.2,0.2,0.3,0.2c0,0.1,0,0.2-0.1,0.2
		c-0.2-0.1-0.2-0.2-0.3-0.3v-0.1H34.3z M35.3,40L35.3,40C35.3,40,35.3,40,35.3,40L35.3,40z M28.4,36.5l0.4,0.1
		c0.1,0.1,0.1,0.2,0,0.2c0,0,0,0,0,0l-0.4-0.1l-0.1-0.1L28.4,36.5z M35,39.7l0.3,0.3c0,0,0,0.1-0.1,0.1c-0.1,0-0.1,0-0.1,0
		C35,40,35,39.9,34.9,39.8v-0.1L35,39.7z M35.8,40.7l-0.3-0.3v-0.1h0.1c0.1,0.1,0.2,0.2,0.2,0.3C35.9,40.6,35.9,40.6,35.8,40.7z
		 M27.6,36.3l0.4,0.1c0.1,0.1,0.1,0.2,0,0.2c0,0,0,0,0,0l-0.4-0.1l-0.1-0.1L27.6,36.3z M29,28.2l0-0.1l0.1,0l0.4,0.1
		c0,0.1,0,0.2-0.1,0.2L29,28.2z M28.7,28L28.7,28L28.7,28z M30.3,28.3L30.3,28.3L30.3,28.3z M21.2,26.3l0-0.1l0.1,0
		c0.1,0,0.3,0,0.4,0.1c0,0.1,0,0.2-0.1,0.2l0,0C21.4,26.3,21.3,26.3,21.2,26.3L21.2,26.3z M27.4,27.9l0-0.1l0.1,0l0.4,0.1
		c0,0.1,0,0.1-0.1,0.2L27.4,27.9z M29.5,28.1L29.5,28.1L29.5,28.1z M34.4,29.5l0-0.2l0.2,0l0.4,0.1c0.2,0.2,0,0.2-0.1,0.2L34.4,29.5
		z M29.8,28.4l0-0.1l0.1,0l0.4,0.1c0,0.1,0,0.2-0.1,0.2L29.8,28.4z M20.9,26L20.9,26L20.9,26z M29.6,28.1L29.6,28.1L29.6,28.1z
		 M20.9,26L20.9,26L20.9,26z M28.8,28L28.8,28L28.8,28z M24.3,27l0-0.1l0.1,0c0.1,0,0.3,0.1,0.4,0.1c0,0.2,0,0.2-0.1,0.2
		C24.5,27,24.4,27.1,24.3,27L24.3,27z M36.6,29.7L36.6,29.7L36.6,29.7z M25,27.3l0-0.1l0.1,0l0.4,0.1c0,0.1,0,0.1-0.1,0.2L25,27.3z
		 M23.2,26.6L23.2,26.6L23.2,26.6z M24,26.8L24,26.8L24,26.8z M24,26.8L24,26.8L24,26.8z M23.5,26.9l0-0.1l0.1,0
		c0.1,0,0.2,0,0.4,0.1c0,0.1,0,0.2-0.1,0.2C23.8,27,23.6,26.9,23.5,26.9L23.5,26.9z M21.7,26.2L21.7,26.2L21.7,26.2z M23.3,26.6
		L23.3,26.6L23.3,26.6z M22,26.4l0-0.1l0.1,0c0.1,0,0.3,0,0.4,0.1c0,0.1,0,0.2-0.1,0.2l0,0C22.2,26.4,22,26.5,22,26.4L22,26.4z
		 M21.7,26.2L21.7,26.2L21.7,26.2z M27.2,27.5L27.2,27.5L27.2,27.5z M22.7,26.7l0-0.1l0.1,0c0.1,0,0.3,0.1,0.4,0.1
		c0,0.1,0,0.1-0.1,0.2C22.9,26.7,22.8,26.7,22.7,26.7L22.7,26.7z M27.1,27.8c0.1,0,0.1-0.1,0.1-0.2l0,0l-0.4-0.1l-0.1,0l0,0.1
		L27.1,27.8z M27.2,27.6L27.2,27.6L27.2,27.6z M25.8,27.4l0-0.1l0.1,0l0.4,0.1c0,0.1,0,0.2-0.1,0.2L25.8,27.4z M28.2,28.1l0-0.1
		l0.1,0l0.4,0.1c0,0.1,0,0.1-0.1,0.2L28.2,28.1z M38.5,30.3l0-0.2l0.2,0c0.2,0.1,0.3,0.1,0.4,0.1c0,0.2,0,0.2-0.1,0.2
		C38.7,30.3,38.6,30.4,38.5,30.3L38.5,30.3z M40.2,30.5c0.2,0,0.2,0,0.5,0c0,0.1,0,0.2-0.1,0.2h0c-0.1,0-0.2,0-0.3,0
		C40.2,30.7,40.1,30.5,40.2,30.5C40,30.5,40.2,30.5,40.2,30.5L40.2,30.5z M38.2,30.1L38.2,30.1L38.2,30.1z M32.1,28.9l0-0.1l0.2,0
		l0.4,0.2c0,0.1,0,0.1,0,0.1L32.1,28.9z M32.9,29.1l0-0.1l0.2,0l0.4,0.1c0,0.1,0,0.1-0.1,0.2L32.9,29.1z M39.8,30.4L39.8,30.4
		L39.8,30.4z M39.2,30.6l0-0.2l0.2,0c0.1,0,0.2,0,0.2,0h0.2c0,0.2,0,0.2-0.2,0.1l-0.2,0C39.4,30.6,39.3,30.6,39.2,30.6L39.2,30.6z
		 M38.3,30.1L38.3,30.1L38.3,30.1z M35.3,29.7l0-0.1l0.2,0l0.4,0.1c0,0.1,0,0.2-0.1,0.2l0,0L35.3,29.7z M31.1,28.5L31.1,28.5
		L31.1,28.5z M31.1,28.5L31.1,28.5L31.1,28.5z M39,30.2L39,30.2L39,30.2z M39,30.2L39,30.2L39,30.2z M40.9,30.5c0.2,0,0.2,0,0.5,0
		c0,0.2,0,0.2,0,0.1c-0.2,0-0.2,0-0.4,0C40.9,30.7,40.8,30.6,40.9,30.5C40.7,30.5,40.9,30.5,40.9,30.5L40.9,30.5z M31.3,28.7l0-0.1
		l0.1,0l0.4,0.1c0,0.2,0,0.2-0.1,0.2L31.3,28.7z M41.4,30.5L41.4,30.5L41.4,30.5z M30.5,28.6l0-0.1l0.1,0l0.4,0.1
		c0,0.1,0,0.2-0.1,0.2L30.5,28.6z M36.7,29.8L36.7,29.8L36.7,29.8z M42.6,30.5c0.1,0,0.2,0,0.5-0.1c0.1,0.1,0.1,0.1,0,0.1
		c-0.1,0.1-0.2,0-0.4,0.1C42.6,30.7,42.5,30.6,42.6,30.5C42.4,30.5,42.6,30.5,42.6,30.5L42.6,30.5z M41.4,30.5L41.4,30.5L41.4,30.5z
		 M41.8,30.4c0.2,0,0.2,0,0.5,0c0,0.2,0,0.1,0,0.1c-0.2,0-0.2,0-0.4,0C41.8,30.7,41.7,30.5,41.8,30.4C41.6,30.5,41.8,30.4,41.8,30.4
		L41.8,30.4z M36.1,29.8l0-0.1l0.2,0l0.4,0.1c0,0.1,0,0.2-0.1,0.2l0,0L36.1,29.8z M33.7,29.3l0-0.1l0.2,0l0.4,0.1
		c0,0.1,0,0.1-0.1,0.2L33.7,29.3z M36.9,30l0-0.1l0.1,0l0.4,0.1c0,0.1,0,0.2-0.1,0.2c0,0,0,0,0,0L36.9,30z M30.3,28.3L30.3,28.3
		L30.3,28.3z M37.7,30.2l0-0.2l0.2,0l0.4,0.1c0,0.2,0,0.2-0.1,0.2L37.7,30.2z M39.8,30.4L39.8,30.4L39.8,30.4z M28,37
		c0.1,0.1,0.1,0.2,0,0.2c0,0,0,0,0,0l-0.4-0.1l-0.1-0.1l0.1-0.1L28,37z M27.2,36.7c0.1,0.1,0.1,0.2,0,0.2c0,0,0,0,0,0l-0.4-0.1
		l-0.1-0.1l0.1-0.1L27.2,36.7z M25.6,36.5l-0.4-0.1L25,36.3l0.1-0.1l0.4,0.1C25.7,36.4,25.7,36.4,25.6,36.5L25.6,36.5z M26.4,36.7
		l-0.4-0.1l-0.1-0.1l0.1-0.1l0.4,0.1C26.5,36.5,26.6,36.6,26.4,36.7L26.4,36.7z M30.4,37.8c-0.1,0-0.2-0.1-0.4-0.1l-0.1-0.1l0.1-0.1
		c0.1,0,0.2,0.1,0.4,0.1C30.5,37.6,30.5,37.7,30.4,37.8L30.4,37.8z M32.5,38.7c-0.2-0.1-0.3-0.1-0.4-0.2c0,0-0.1-0.1,0-0.1
		c0,0,0.1-0.1,0.1,0c0.1,0.1,0.2,0.1,0.3,0.2C32.7,38.6,32.7,38.6,32.5,38.7L32.5,38.7z M31.1,38l-0.2-0.1c-0.1,0-0.2,0-0.2-0.1
		l-0.1-0.1l0.1-0.1c0.1,0,0.2,0,0.2,0.1l0.1,0.1C31.2,37.9,31.2,37.9,31.1,38L31.1,38z M31.9,38.2c0.1,0.1,0.1,0.2,0,0.2
		c0,0,0,0,0,0c-0.2-0.1-0.3-0.1-0.4-0.2c0,0-0.1-0.1,0-0.1c0,0,0.1-0.1,0.1,0C31.7,38,31.8,38.2,31.9,38.2L31.9,38.2z M33.3,39.2
		C33.1,39,33,39,32.9,38.9c0,0-0.1-0.1,0-0.1c0,0,0.1-0.1,0.1,0c0.1,0.1,0.2,0.1,0.3,0.2C33.3,39,33.4,39,33.3,39.2L33.3,39.2z
		 M28.8,37.2c0.1,0.1,0.1,0.2,0,0.2c0,0,0,0,0,0l-0.4-0.1l-0.1-0.1l0.1-0.1L28.8,37.2z M34,39.6c-0.2-0.1-0.3-0.2-0.4-0.2
		c0,0-0.1-0.1,0-0.1c0,0,0.1-0.1,0.1,0c0.1,0.1,0.2,0.1,0.3,0.2C34.1,39.5,34.1,39.5,34,39.6L34,39.6z M29.6,37.6l-0.4-0.1L29,37.4
		l0.1-0.1l0.4,0.1C29.7,37.4,29.7,37.5,29.6,37.6L29.6,37.6z M35.7,41.3L35.3,41l0-0.1h0.1c0.1,0.1,0.2,0.2,0.2,0.3
		C35.8,41.2,35.8,41.2,35.7,41.3z M20.5,35.2l-0.1-0.1l0.1-0.1l0.4,0.1c0.1,0,0.1,0.1,0,0.2L20.5,35.2z M19.8,35l-0.1-0.1l0.1-0.1
		l0.4,0.1c0.1,0.1,0.1,0.1,0,0.2L19.8,35z M22.5,35.7L22.5,35.7L22.5,35.7z M34.7,39.9c0,0.1,0,0.2-0.1,0.2
		c-0.2-0.1-0.2-0.2-0.3-0.3v-0.1h0.1C34.4,39.8,34.5,39.9,34.7,39.9L34.7,39.9z M35,40.3l0.3,0.3c0,0,0,0.1-0.1,0.1
		c-0.1,0-0.1,0-0.1,0c-0.1-0.1-0.2-0.2-0.2-0.3v-0.1L35,40.3z M24,36.1h-0.4L23.5,36l0.1-0.1L24,36C24.2,36,24.2,36,24,36.1L24,36.1
		z M23.3,36l-0.4-0.1l-0.1-0.1l0.1-0.1l0.4,0.1C23.4,35.7,23.4,35.7,23.3,36L23.3,36z M22.5,35.7l-0.4-0.1L22,35.5l0.1-0.1l0.4,0.1
		C22.6,35.5,22.6,35.6,22.5,35.7L22.5,35.7z M24.8,36.3l-0.4-0.1l-0.1-0.1l0.1-0.1l0.4,0.1C24.9,36.2,24.9,36.2,24.8,36.3z
		 M35.3,40.6L35.3,40.6C35.3,40.5,35.3,40.5,35.3,40.6z M21.7,35.5l-0.4-0.1l-0.1-0.1l0.1-0.1l0.4,0.1
		C21.8,35.3,21.8,35.4,21.7,35.5L21.7,35.5z M33.5,47.3c-0.1-0.1,0.2-0.2,0.3-0.2l6.7-0.6c2-0.2,4.1-0.5,6.1-0.4
		c2.1,0.1,4.2,0.6,6.2,1c2.2,0.4,4.3,0.8,6.4,1.4c0.3,0.1-0.2,0.3-0.3,0.3c-2.1-0.5-4.1-1-6.2-1.3s-4.2-0.8-6.3-1
		c-2.1-0.2-4.4,0.2-6.5,0.4l-5.6,0.5c0.7,0.7,1.6,0.9,2.5,1.2c0.3,0.1-0.2,0.3-0.3,0.3C35.3,48.5,34.3,48.2,33.5,47.3L33.5,47.3z
		 M38.5,32.7C38.5,32.7,38.5,32.8,38.5,32.7c0.1,0,0.2,0,0.2,0L38.7,33l0-0.1l0.1,0l0,0.1l0.1,0l-0.1-0.1c0.1,0,0.1,0,0.1-0.1
		c0,0,0,0,0-0.1c0.1,0,0.1,0.1,0.1,0.2c0,0.1-0.2,0.2-0.3,0.2l0,0c0.2,0,0.3-0.1,0.4-0.2s-0.1-0.3-0.2-0.4
		C38.8,32.4,38.6,32.5,38.5,32.7L38.5,32.7z M38.9,32.8L38.9,32.8L38.9,32.8l-0.1-0.1c0,0,0.1,0,0.1,0c0,0,0,0,0,0
		C38.9,32.7,38.9,32.7,38.9,32.8L38.9,32.8z M38.8,33.1c-0.2,0-0.3-0.2-0.3-0.3h0C38.5,33,38.6,33.1,38.8,33.1
		C38.8,33.1,38.8,33.1,38.8,33.1z M32.3,32.1c-0.3,0.5-0.5,1-0.6,1.6c0,0.6,0,1,0.2,1.5l0.4,0.1c1.7,0.2,3.2,1,4.7,1.1
		c0.7-0.5,1-1.4,1-2.3c-0.7,0-1.2,0-1.8-0.1c0.1-0.1,0.2-0.2,0.3-0.3l0.7,0l0.8,0c0-0.1,0-0.2-0.1-0.2l-0.7,0.1l-0.5,0l0.6-0.5
		l0.7,0.2c-0.1,0-0.1-0.1-0.2-0.3l-0.8-0.2c0.1-0.1,0.3-0.3,0.4-0.4c-0.1,0-0.1-0.1-0.2-0.2c-0.3,0.3-0.8,0.7-0.8,0.7l-0.1-0.6
		l0.8-0.4c-0.1-0.1-0.1-0.1-0.2-0.2L36.3,32c0,0-0.1-0.5-0.2-0.7l-0.2,0c0,0.3,0.1,0.9,0.1,0.9l-0.2,0l-0.3-1.2l-0.1,0
		c-0.2,0.2-0.3,0.5-0.6,0.7c-0.1-0.2-0.1-0.5-0.2-0.7c-0.2,0-0.3,0-0.5,0l-0.1,0.5l-0.6-0.2l-0.4,0.2l0.6,1l-0.2,0
		c0,0-0.3-0.6-0.5-0.9c0,0.1-0.1,0.1-0.2,0.2l0.3,0.6L32.3,32.1z M36.8,33l0.2,0l-0.4,0.5l-0.2,0L36.8,33z M36,32.5l0.1-0.1L36,32.6
		L36,32.5z M36.1,32.8l0.1,0.2l-0.1,0.1l-0.5,0.4l0.1-0.5L36.1,32.8z M36.2,33.8L36,34l-0.2,0l0.3-0.3L36.2,33.8z M35.5,31.7
		c0,0.2,0.1,0.4,0.2,0.6l-0.2,0.5l-0.4,0.1L35,32.2L35.5,31.7z M35,33.2l0.2,0l-0.2,0.2l-0.1,0L35,33.2z M35,35.5l0.2-1.1
		c0.3,0,0.7,0,1,0l0.2,0.3l0.2,0l-0.1-0.2c0.2,0,0.3,0,0.5,0l0.2,0.4l0.3,0.1c0-0.2,0-0.3-0.1-0.5l0.3,0c0,0.4-0.1,0.8-0.3,1.2
		c-0.2,0.2-0.3,0.5-0.6,0.7l-0.1,0c-0.7-0.2-1.3-0.4-1.9-0.7L35,35.5z M33,32.7l-0.2,0.2l-0.4-0.3L33,32.7z M32.4,32.9l0.2,0
		c-0.1,0.1-0.2,0.2-0.3,0.3L32.4,32.9z M34.7,32.8c0,0.2,0,0.5,0,0.7l-0.1-0.4L34.7,32.8z M34.5,31.5c0,0.1,0.1,0.2,0,0.3l-0.1,0
		L34.5,31.5z M34.4,32.1l0.2,0.2l-0.3,0.4L34.4,32.1z M34.3,33.3c0,0.1,0.1,0.1,0.2,0.2c-0.2,0.1-0.8,0.3-0.8,0.3l0.7,0.2l0.4-0.1
		c0.1,0.1,0.2,0.3,0.1,0.4l-0.2,1.1c-0.7-0.3-1.5-0.5-2.2-0.7c-0.1,0-0.1-0.1-0.1-0.2c0-0.3,0-0.6,0.1-0.9l0.2,0l0.4-0.2
		c0.1,0.1,0.3,0.2,0.4,0.3l-0.3,0.2l0.3,0.1L34.3,33.3z M33.6,31.6l0.4,0.2l-0.1,0.4C33.8,32,33.7,31.8,33.6,31.6L33.6,31.6z
		 M33.5,32.7l0.5,0.2l0.1,0.1l-0.5,0.2L33.2,33L33.5,32.7z M35.2,36.3c0.6,0.2,1.2,0.2,1.8,0.3c-0.3,0.2-0.5,0.4-0.9,0.5
		c-1.4-0.4-2.7-1.1-4.1-1.5l-0.1-0.1C33,35.5,34.2,35.9,35.2,36.3L35.2,36.3z M35.9,37.2c-1,0.3-2.4,0-3.1-0.7
		c-0.2-0.2-0.4-0.4-0.5-0.7l0.1,0l0.6,0.2l1.7,0.6C35.1,36.9,35.5,37,35.9,37.2L35.9,37.2z"/>
</g>
<g class="st0">
	<path d="M29.7,89.5c-0.6,0-1.1-0.1-1.6-0.3c-0.5-0.2-1-0.5-1.3-0.9l0.8-0.9c0.3,0.3,0.6,0.5,1,0.6c0.4,0.2,0.8,0.2,1.2,0.2
		c0.5,0,0.8-0.1,1-0.3c0.2-0.2,0.4-0.4,0.4-0.7c0-0.2,0-0.3-0.1-0.4c-0.1-0.1-0.2-0.2-0.3-0.3c-0.1-0.1-0.3-0.2-0.4-0.2
		c-0.2-0.1-0.3-0.1-0.5-0.2l-1.1-0.5c-0.2-0.1-0.4-0.2-0.6-0.3c-0.2-0.1-0.4-0.3-0.5-0.4c-0.2-0.2-0.3-0.4-0.4-0.6
		c-0.1-0.2-0.1-0.5-0.1-0.8c0-0.3,0.1-0.6,0.2-0.9c0.1-0.3,0.3-0.5,0.6-0.7c0.2-0.2,0.5-0.4,0.9-0.5c0.3-0.1,0.7-0.2,1.1-0.2
		c0.5,0,0.9,0.1,1.4,0.3c0.4,0.2,0.8,0.4,1.1,0.7l-0.7,0.9c-0.3-0.2-0.5-0.4-0.8-0.5c-0.3-0.1-0.6-0.2-1-0.2c-0.4,0-0.7,0.1-0.9,0.2
		s-0.3,0.4-0.3,0.7c0,0.2,0,0.3,0.1,0.4c0.1,0.1,0.2,0.2,0.3,0.3s0.3,0.2,0.4,0.2c0.2,0.1,0.3,0.1,0.5,0.2l1,0.4
		c0.2,0.1,0.5,0.2,0.7,0.3s0.4,0.3,0.5,0.4s0.3,0.4,0.4,0.6c0.1,0.2,0.1,0.5,0.1,0.8c0,0.3-0.1,0.6-0.2,0.9
		c-0.1,0.3-0.3,0.5-0.6,0.7s-0.6,0.4-0.9,0.5C30.5,89.5,30.1,89.5,29.7,89.5z"/>
	<path d="M33.5,89.4l2.5-7.8h1.6l2.5,7.8h-1.5l-0.6-2.1h-2.6l-0.6,2.1H33.5z M36.1,85.2l-0.3,1h2l-0.3-1c-0.1-0.4-0.2-0.8-0.3-1.3
		c-0.1-0.4-0.2-0.9-0.3-1.3h0c-0.1,0.4-0.2,0.9-0.3,1.3C36.3,84.4,36.2,84.8,36.1,85.2z"/>
	<path d="M41.3,89.4v-7.8h1.5l2.1,4.4l0.7,1.7h0c0-0.4-0.1-0.8-0.1-1.3c0-0.5-0.1-0.9-0.1-1.4v-3.4h1.3v7.8h-1.5L43.2,85l-0.7-1.7h0
		c0,0.4,0.1,0.9,0.1,1.3c0,0.5,0.1,0.9,0.1,1.3v3.4H41.3z"/>
	<path d="M48.6,89.4v-7.8h2.1c1.2,0,2.1,0.3,2.7,1c0.7,0.6,1,1.6,1,2.9c0,0.6-0.1,1.2-0.3,1.7s-0.4,0.9-0.7,1.2s-0.7,0.6-1.1,0.8
		c-0.4,0.2-1,0.3-1.5,0.3H48.6z M50,88.2h0.6c0.8,0,1.3-0.2,1.7-0.7c0.4-0.5,0.6-1.2,0.6-2.1c0-1-0.2-1.7-0.6-2.1
		c-0.4-0.4-1-0.7-1.7-0.7H50V88.2z"/>
	<path d="M55.1,89.4l2.5-7.8h1.6l2.5,7.8h-1.5l-0.6-2.1h-2.6l-0.6,2.1H55.1z M57.7,85.2l-0.3,1h2l-0.3-1c-0.1-0.4-0.2-0.8-0.3-1.3
		c-0.1-0.4-0.2-0.9-0.3-1.3h0c-0.1,0.4-0.2,0.9-0.3,1.3C57.9,84.4,57.8,84.8,57.7,85.2z"/>
	<path d="M63.5,89.4v-7.8h1.4v6.7h3.7v1.2H63.5z"/>
	<path d="M70.3,89.4v-1.2h1.9v-5.5h-1.9v-1.2h5.2v1.2h-1.9v5.5h1.9v1.2H70.3z"/>
	<path d="M76.7,89.4l2.5-7.8h1.6l2.5,7.8h-1.5l-0.6-2.1h-2.6l-0.6,2.1H76.7z M79.3,85.2l-0.3,1h2l-0.3-1c-0.1-0.4-0.2-0.8-0.3-1.3
		c-0.1-0.4-0.2-0.9-0.3-1.3h0c-0.1,0.4-0.2,0.9-0.3,1.3C79.5,84.4,79.4,84.8,79.3,85.2z"/>
	<path d="M87.3,89.5c-0.6,0-1.1-0.1-1.6-0.3c-0.5-0.2-1-0.5-1.3-0.9l0.8-0.9c0.3,0.3,0.6,0.5,1,0.6c0.4,0.2,0.8,0.2,1.2,0.2
		c0.5,0,0.8-0.1,1-0.3s0.4-0.4,0.4-0.7c0-0.2,0-0.3-0.1-0.4s-0.2-0.2-0.3-0.3c-0.1-0.1-0.3-0.2-0.4-0.2s-0.3-0.1-0.5-0.2l-1.1-0.5
		c-0.2-0.1-0.4-0.2-0.6-0.3c-0.2-0.1-0.4-0.3-0.5-0.4s-0.3-0.4-0.4-0.6c-0.1-0.2-0.1-0.5-0.1-0.8c0-0.3,0.1-0.6,0.2-0.9
		c0.1-0.3,0.3-0.5,0.6-0.7c0.2-0.2,0.5-0.4,0.9-0.5c0.3-0.1,0.7-0.2,1.1-0.2c0.5,0,0.9,0.1,1.4,0.3c0.4,0.2,0.8,0.4,1.1,0.7
		l-0.7,0.9c-0.3-0.2-0.5-0.4-0.8-0.5c-0.3-0.1-0.6-0.2-1-0.2c-0.4,0-0.7,0.1-0.9,0.2s-0.3,0.4-0.3,0.7c0,0.2,0,0.3,0.1,0.4
		c0.1,0.1,0.2,0.2,0.3,0.3c0.1,0.1,0.3,0.2,0.4,0.2c0.2,0.1,0.3,0.1,0.5,0.2l1,0.4c0.2,0.1,0.5,0.2,0.7,0.3s0.4,0.3,0.5,0.4
		s0.3,0.4,0.4,0.6c0.1,0.2,0.1,0.5,0.1,0.8c0,0.3-0.1,0.6-0.2,0.9c-0.1,0.3-0.3,0.5-0.6,0.7s-0.6,0.4-0.9,0.5
		C88.1,89.5,87.7,89.5,87.3,89.5z"/>
</g>
</svg>
