<?xml version="1.0" encoding="utf-8"?>
<!-- Generator: Adobe Illustrator 24.3.0, SVG Export Plug-In . SVG Version: 6.00 Build 0)  -->
<svg version="1.1" id="Layer_1" xmlns="http://www.w3.org/2000/svg" xmlns:xlink="http://www.w3.org/1999/xlink" x="0px" y="0px"
	 viewBox="0 0 120 126" style="enable-background:new 0 0 120 126;" xml:space="preserve">
<style type="text/css">
	.st0{fill:#050505;}
	.st1{fill:#050606;}
	.st2{enable-background:new    ;}
</style>
<g id="XMLID_155_">
	<g id="XMLID_218_">
		<path id="XMLID_219_" class="st0" d="M40.4,83.8c-0.2,0-0.4-0.1-0.5-0.3l-0.4-0.7l-0.3,0.7c-0.1,0.2-0.3,0.3-0.5,0.3h-3.2
			c-0.2,0-0.4-0.1-0.5-0.3L34.9,83l-0.3,0.6c-0.1,0.2-0.3,0.3-0.5,0.3h-3.4c-0.3,0-0.5-0.2-0.5-0.4l-0.1,0.2
			c-0.1,0.2-0.3,0.3-0.5,0.3h-2.9c-0.2,0-0.3-0.1-0.4-0.2l-0.7-0.8h-1.1c-0.4,0-4.2,0.4-6-2.1c-0.1-0.1-0.1-0.2-0.1-0.3v-8.2
			c-0.1-0.4-0.1-1.4,1.2-2.9c-0.1-0.8-0.5-3.9,0-7.2c0.5-3.7,1.6-17.1,1.5-19.2c-0.1-1.6-0.5-2-0.6-2.1c-0.2-0.1-0.2-0.2-0.2-0.4
			c-0.3-1.9-1.1-8.2-0.8-9.1c0.5-1.8,1.9-2.7,4-2.8c1.4-0.1,4.2-0.5,6.7-1c2.3-0.4,4.2-0.7,5-0.7c1.3,0,5.5-1.2,6.3-1.7
			c0.2-0.6,1.1-3,3.3-4.4c2.4-1.5,4.4-2.5,4.4-2.5c0.2-0.1,0.3-0.1,0.5,0s0.3,0.2,0.3,0.4c0,0,0.1,0.6,0.7,2.1
			c0.5,1.6,1.7,6.6,1.8,7.9c0.3,0.5,1,1.8,1.1,2.5c0.1,0.4,0,1,0,1.6c0,0.5-0.1,0.9,0,1.2c0,0.2,0.3,0.5,0.5,0.8s0.4,0.5,0.5,0.9
			c0,0.1,0.1,0.2,0.2,0.4c0.3,0.5,0.7,1.1,0.5,1.8c-0.1,0.2-0.1,0.4-0.3,0.5c0.5,0.4,1.2,1,1.2,1.8c0,0.5-0.2,0.9-0.5,1.3
			c0.9,0.8,2.6,2.4,2.7,3.6c0,0.2,0,0.3-0.1,0.4l-0.1,0.1c0.2,0,0.3,0.1,0.5,0.1c0.7,0.3,1.8,0.9,1.9,2.5l0.7,0.7
			c0.9,0,2.5,0.5,2.9,2.3v0.1v0.1c0.6-0.1,1.4,0,1.8,0.5c0.2,0.2,0.3,0.5,0.3,0.8c0.7,0.5,2.7,2.3,2.7,4.9c0.8,0.7,4.6,3.4,8.5,3.6
			c0.1,0,6.6,0.4,9.6,0.2c5.2-0.2,8.9,0.7,10.8,2.9c1.2,1.3,1.8,3.1,1.6,5.2l0.9,0.5c0.2,0.1,0.3,0.2,0.3,0.4l1,3.9
			c0,0.1,0,0.2,0,0.3l-0.6,1.5c0,0.1-0.1,0.2-0.2,0.2l-0.9,0.7c-0.1,0-0.1,0.1-0.2,0.1L98.2,77l-0.3,0.7c-0.1,0.2-0.2,0.3-0.4,0.4
			l-3.1,1c-0.1,0-0.1,0-0.2,0h-0.9l-0.2,0.6c-0.1,0.2-0.2,0.3-0.3,0.3l-2.8,0.9c-0.1,0-0.1,0-0.2,0h-0.8l-2.5,1c-0.1,0-0.1,0-0.2,0
			h-1.2l-2.9,0.7l-1.1,0.3c0,0,0,0-0.1,0l-2.9,0.6c-0.3,0-0.5-0.1-0.6-0.4l-0.1-0.4l-0.4,0.6c-0.1,0.2-0.3,0.2-0.5,0.2h-2.8
			c-0.2,0-0.4-0.1-0.5-0.3l-0.3-0.5L73,83c-0.1,0.2-0.3,0.3-0.5,0.3h-2.5c-0.2,0-0.4-0.1-0.5-0.3l-0.1-0.4L69.3,83
			c-0.1,0.3-0.3,0.4-0.5,0.4l-3.2-0.5c-0.2,0-0.3-0.1-0.4-0.2L65,82.2l-0.4,0.3c-0.1,0.1-0.3,0.1-0.4,0.1c-0.7-0.1-2.3-0.3-2.8-0.8
			c-0.5-0.5-0.4-1-0.3-1.5c-1.9-0.6-9.2-2.7-16.7-2.2c-0.1,1.1-0.2,2.9-0.5,3.5c-0.4,0.6-0.9,1.5-0.9,1.5c-0.2,0.2-0.3,0.3-0.4,0.3
			L40.4,83.8L40.4,83.8L40.4,83.8z M36,82.8h2.5l0.7-1.4c0.1-0.2,0.3-0.3,0.5-0.3s0.4,0.1,0.5,0.3l0.7,1.3l1.7-0.4
			c0.2-0.3,0.5-0.9,0.8-1.3c0.2-0.3,0.4-2,0.4-3.5c0-0.3,0.2-0.5,0.5-0.5c9-0.7,17.9,2.4,18,2.4c0.1,0.1,0.3,0.2,0.3,0.3
			c0.1,0.1,0.1,0.3,0,0.4c-0.2,0.3-0.2,0.8-0.1,0.9c0.2,0.3,1.1,0.5,2,0.6l0.7-0.6C65,81,65.2,81,65.2,81c0.2,0,0.3,0.1,0.4,0.2
			l0.5,0.7l2.6,0.4l0.6-1c0.1-0.2,0.3-0.3,0.5-0.3s0.4,0.1,0.5,0.3l0.5,1h1.8l0.5-1c0.1-0.2,0.3-0.3,0.5-0.3s0.4,0.1,0.5,0.3
			l0.7,1.1h2.1l0.7-1.1c0.1-0.2,0.3-0.3,0.5-0.2c0.2,0,0.4,0.2,0.5,0.4l0.3,0.9l2.9-0.5l1.1-0.3l2.9-0.7h0.1h1.1l2.5-1
			c0.1,0,0.1,0,0.2,0h0.8l2.4-0.8l0.3-0.7c0.1-0.2,0.3-0.4,0.5-0.4h1.2l2.9-0.9l0.3-0.7c0.1-0.2,0.2-0.3,0.4-0.4l1.6-0.5l0.7-0.5
			l0.5-1.2l-0.9-3.5l-1-0.5c-0.2-0.1-0.3-0.3-0.3-0.6c0.2-1.9-0.2-3.5-1.3-4.7c-1.8-1.8-5.1-2.8-10-2.6c-3.1,0.1-9.4-0.2-9.7-0.2
			c-4.8-0.3-9.1-3.8-9.2-4c-0.1-0.1-0.2-0.3-0.2-0.5c0.2-2.7-2.5-4.4-2.5-4.4c-0.2-0.1-0.3-0.4-0.2-0.7c0.1-0.2,0.1-0.2,0.1-0.2
			c-0.1-0.1-0.7-0.1-1.4,0c-0.2,0-0.3,0-0.5-0.1c-0.1-0.1-0.2-0.3-0.2-0.4V51c-0.5-1.6-2.1-1.5-2.2-1.5c-0.2,0-0.3-0.1-0.4-0.2
			l-0.9-1c-0.1-0.1-0.1-0.2-0.1-0.3c-0.3-2.1-2.3-1.9-2.5-1.9s-0.5-0.1-0.5-0.3c-0.1-0.2-0.1-0.5,0.1-0.5l0.7-0.7
			c-0.3-0.8-1.8-2.3-2.8-3c-0.1-0.1-0.2-0.3-0.2-0.5s0.1-0.3,0.3-0.4c0.3-0.2,0.7-0.5,0.7-0.8c0-0.5-0.9-1.2-1.4-1.4
			c-0.2-0.1-0.3-0.3-0.3-0.5s0.1-0.4,0.3-0.5c0.2-0.1,0.4-0.2,0.4-0.4c0.1-0.3-0.2-0.7-0.4-1c-0.1-0.2-0.2-0.4-0.3-0.5
			c-0.1-0.2-0.3-0.5-0.5-0.7c-0.3-0.4-0.5-0.8-0.7-1.2c-0.1-0.4,0-0.8,0-1.5c0-0.5,0.1-1,0-1.3c-0.1-0.4-0.7-1.6-1.1-2.2
			c0-0.1-0.1-0.1-0.1-0.2c-0.1-0.8-1.2-6.2-1.8-7.8c-0.3-0.7-0.5-1.2-0.5-1.6c-0.7,0.4-2.2,1.2-3.9,2.2c-2.2,1.4-3,4-3,4.1
			s0,0.1-0.1,0.2s-0.3,0.5-3.1,1.2c-0.7,0.2-3,0.8-4,0.8c-0.7,0-2.7,0.4-4.8,0.7c-2.5,0.5-5.5,0.9-6.8,1c-2.3,0.1-2.9,1.2-3,2
			c-0.1,0.5,0.4,4.7,0.8,8.6c0.3,0.3,0.8,1.1,0.9,2.8c0.1,2.1-0.9,15.7-1.5,19.4c-0.5,3.6,0,7.1,0,7.1c0,0.2,0,0.3-0.1,0.5
			c-1.2,1.3-1.1,2.1-1.1,2.2s0,0.1,0,0.2v8c1.6,1.9,5,1.6,5,1.6s0,0,0.1,0h1.4c0.2,0,0.3,0.1,0.4,0.2l0.7,0.8h2.3l0.8-1.5
			c0.1-0.2,0.4-0.3,0.5-0.2c0.2,0.1,0.4,0.3,0.4,0.5V83h2.6l0.7-1.2c0.1-0.2,0.3-0.3,0.5-0.3s0.4,0.1,0.5,0.3L36,82.8z"/>
	</g>
	<g id="XMLID_216_">
		<path id="XMLID_217_" class="st0" d="M22.1,40.9c-0.2,0-0.3-0.1-0.4-0.3c0-0.2,0.1-0.4,0.3-0.4s15.1-1.5,16.8-1.8
			c0.3-0.1,0.5-0.1,0.8-0.1c1.6-0.2,3.1-0.5,3.5-2.9L42.2,26c0-0.2,0.1-0.4,0.3-0.4c0.2,0,0.4,0.1,0.4,0.3l1,9.4v0.1
			c-0.5,3-2.6,3.2-4.1,3.4c-0.3,0-0.5,0.1-0.8,0.1C37.3,39.4,22.8,40.8,22.1,40.9L22.1,40.9z"/>
	</g>
	<g id="XMLID_214_">
		<path id="XMLID_215_" class="st0" d="M74.6,77.4c-2.3,0-4.2-0.2-5.4-0.4c-1.5-0.2-3.7-0.6-6.2-1c-3.3-0.7-7-1.3-10.2-1.7
			c-5.5-0.7-18.3-1.4-23.5-1.6c-5.4-0.2-8.6-2.2-8.7-2.3c-0.2-0.1-0.2-0.3-0.1-0.5s0.3-0.2,0.5-0.1c0,0,3.1,2,8.3,2.2
			c5.4,0.2,18.1,0.9,23.6,1.6c3.2,0.4,6.9,1.1,10.2,1.7c2.5,0.5,4.6,0.8,6.2,1c4.8,0.7,17.2,1.2,29.3-6.6c0.2-0.1,0.4-0.1,0.5,0.1
			s0.1,0.4-0.1,0.5C89.9,76.2,80.8,77.4,74.6,77.4z"/>
	</g>
	<g id="XMLID_211_">
		<path id="XMLID_212_" class="st0" d="M74.9,80.4c-2.7,0-5.5-0.3-7.8-0.7c-3.5-0.6-6.2-1.2-6.2-1.2c-5-1.4-11.1-1.9-23.2-1.9
			c-11.6,0-18.1-2.3-18.2-2.3c-0.2-0.1-0.3-0.3-0.2-0.5c0.1-0.2,0.3-0.3,0.5-0.2c2.2,0.8,8.8,2.3,17.9,2.3c12.2,0,18.3,0.6,23.4,1.9
			c0.1,0,10.7,2.6,17.4,1.6c0.2,0,12.7-1.4,21.3-7.1c0.2-0.1,0.4-0.1,0.5,0.1s0.1,0.4-0.1,0.5c-8.7,5.7-21.5,7.2-21.6,7.2
			C77.4,80.3,76.2,80.4,74.9,80.4z"/>
	</g>
	<g id="XMLID_209_">
		<path id="XMLID_210_" class="st0" d="M25.6,71.9c-0.1,0-0.1,0-0.2-0.1c-1.2-0.8-2.2-3.1-3-6.7c-0.6-2.9-1-5.6-1-6.5
			c-0.1-1.7,0.5-13.3,0.5-13.8c0-0.2,0.1-0.3,0.3-0.3c0.2,0,0.3,0.1,0.3,0.3c0,0.1-0.5,12-0.5,13.7c0.1,0.8,0.4,3.6,1,6.4
			c0.8,3.4,1.8,5.7,2.9,6.5c0.1,0.1,0.1,0.3,0.1,0.4C25.8,71.8,25.7,71.9,25.6,71.9z"/>
	</g>
	<g id="XMLID_207_">
		<path id="XMLID_208_" class="st0" d="M67.8,62.6L67.8,62.6c-0.2,0-0.2,0-0.2-0.1s0-0.1,0.1-0.1s0.3,0,0.4,0s0.1,0,0.1,0.1
			s0,0.1-0.1,0.1C67.9,62.6,67.9,62.6,67.8,62.6z M67.4,62.6L67.4,62.6c-0.1,0-0.2,0-0.4,0c-0.1,0-0.1-0.1-0.1-0.1
			c0-0.1,0.1-0.1,0.1-0.1c0.1,0,0.3,0,0.4,0C67.4,62.4,67.4,62.5,67.4,62.6C67.4,62.6,67.4,62.6,67.4,62.6z M68.4,62.5
			C68.3,62.5,68.3,62.5,68.4,62.5c-0.1-0.1-0.1-0.2,0-0.2h0.1c0.1,0,0.2-0.1,0.3-0.1c0,0,0.1,0,0.1,0.1s0,0.1-0.1,0.1
			S68.6,62.4,68.4,62.5L68.4,62.5L68.4,62.5z M66.6,62.5L66.6,62.5c-0.1,0-0.2,0-0.4,0c-0.1,0-0.1-0.1-0.1-0.1
			c0-0.1,0.1-0.1,0.1-0.1c0.1,0,0.3,0,0.4,0C66.7,62.3,66.7,62.4,66.6,62.5C66.7,62.5,66.7,62.5,66.6,62.5z M69,62.4
			C69,62.4,68.9,62.4,69,62.4c-0.1-0.1-0.1-0.2,0-0.2h0.1c0.1,0,0.2,0,0.3,0c0,0,0.1,0,0.1,0.1s0,0.1-0.1,0.1S69.2,62.4,69,62.4
			L69,62.4L69,62.4z M66,62.4L66,62.4h-0.4c-0.1,0-0.1-0.1-0.1-0.1c0-0.1,0.1-0.1,0.1-0.1H66C66.1,62.2,66.1,62.3,66,62.4
			C66.1,62.4,66.1,62.4,66,62.4z M65.3,62.3L65.3,62.3H65c-0.1,0-0.1-0.1-0.1-0.1c0-0.1,0.1-0.1,0.1-0.1h0.4
			C65.3,62.2,65.4,62.2,65.3,62.3C65.4,62.3,65.3,62.3,65.3,62.3z M69.7,62.2L69.7,62.2C69.6,62.2,69.6,62.1,69.7,62.2
			c-0.1-0.1-0.1-0.1-0.1-0.2s0-0.1,0-0.2c0,0,0-0.1,0.1-0.1c0,0,0.1,0,0.1,0.1s0.1,0.2,0.1,0.3C69.8,62.1,69.8,62.1,69.7,62.2
			L69.7,62.2z M64.6,62.2L64.6,62.2h-0.4v-0.1c0-0.1,0.1-0.1,0.1-0.1h0.4C64.7,62.1,64.7,62.1,64.6,62.2
			C64.7,62.2,64.7,62.2,64.6,62.2z M63.9,62.1L63.9,62.1h-0.4c-0.1,0-0.1-0.1-0.1-0.1c0-0.1,0.1-0.1,0.1-0.1h0.4
			C64,62,64,62,63.9,62.1C64,62.1,64,62.1,63.9,62.1z M63.3,62.1L63.3,62.1h-0.4c-0.1,0-0.1-0.1-0.1-0.1c0-0.1,0.1-0.1,0.1-0.1h0.4
			C63.3,61.9,63.4,61.9,63.3,62.1C63.4,62,63.3,62.1,63.3,62.1z M62.6,62L62.6,62c-0.1,0-0.2,0-0.4-0.1c-0.1,0-0.1-0.1-0.1-0.1
			c0-0.1,0.1-0.1,0.1-0.1c0.1,0,0.3,0,0.4,0.1C62.7,61.8,62.7,61.8,62.6,62C62.7,61.9,62.7,62,62.6,62z M61.9,61.8L61.9,61.8
			l-0.4-0.1c-0.1,0-0.1-0.1-0.1-0.1c0-0.1,0.1-0.1,0.1-0.1l0.4,0.1C62,61.8,62,61.8,61.9,61.8C62,61.8,62,61.8,61.9,61.8z
			 M61.3,61.8L61.3,61.8l-0.4-0.1c-0.1,0-0.1-0.1-0.1-0.1c0-0.1,0.1-0.1,0.1-0.1l0.4,0.1C61.3,61.6,61.4,61.7,61.3,61.8
			C61.4,61.8,61.3,61.8,61.3,61.8z M60.5,61.7l-0.4-0.1c-0.1,0-0.1-0.1-0.1-0.1l0.1-0.1l0.4,0.1V61.7L60.5,61.7z M69.5,61.6
			C69.5,61.6,69.4,61.6,69.5,61.6c-0.1-0.2-0.2-0.3-0.2-0.4v-0.1h0.1c0.1,0.1,0.1,0.2,0.2,0.3C69.6,61.6,69.6,61.6,69.5,61.6
			L69.5,61.6z M59.9,61.5L59.9,61.5l-0.4-0.1c-0.1,0-0.1-0.1-0.1-0.1c0-0.1,0.1-0.1,0.1-0.1l0.4,0.1C60,61.4,60,61.4,59.9,61.5
			C60,61.5,60,61.5,59.9,61.5z M59.2,61.4L59.2,61.4l-0.4-0.1c-0.1,0-0.1-0.1-0.1-0.1c0-0.1,0.1-0.1,0.1-0.1l0.4,0.1
			C59.3,61.2,59.3,61.3,59.2,61.4C59.3,61.4,59.2,61.4,59.2,61.4z M58.6,61.3L58.6,61.3l-0.4-0.1c-0.1,0-0.1-0.1-0.1-0.1l0.1-0.1
			l0.4,0.1C58.6,61.1,58.7,61.1,58.6,61.3C58.7,61.2,58.6,61.3,58.6,61.3z M57.8,61.1L57.8,61.1L57.5,61c-0.1,0-0.1-0.1-0.1-0.1
			c0-0.1,0.1-0.1,0.1-0.1l0.4,0.1C57.9,60.9,57.9,61,57.8,61.1C57.9,61.1,57.9,61.1,57.8,61.1z M69.2,61C69.1,61,69.1,61,69.2,61
			c-0.1-0.2-0.2-0.3-0.3-0.3v-0.1H69C69.1,60.7,69.1,60.8,69.2,61C69.3,60.9,69.3,60.9,69.2,61L69.2,61z M57.2,61L57.2,61l-0.4-0.1
			c-0.1,0-0.1-0.1-0.1-0.1c0-0.1,0.1-0.1,0.1-0.1l0.4,0.1C57.3,60.8,57.3,60.8,57.2,61C57.3,60.9,57.3,61,57.2,61z M56.5,60.8
			L56.5,60.8l-0.4-0.1c-0.1,0-0.1-0.1-0.1-0.1c0-0.1,0.1-0.1,0.1-0.1l0.4,0.1C56.7,60.6,56.7,60.7,56.5,60.8
			C56.7,60.8,56.5,60.8,56.5,60.8z M55.9,60.7L55.9,60.7l-0.4-0.1c-0.1,0-0.1-0.1-0.1-0.1c0-0.1,0.1-0.1,0.1-0.1l0.4,0.1
			C55.9,60.5,56,60.5,55.9,60.7C55.9,60.6,55.9,60.7,55.9,60.7z M55.2,60.5L55.2,60.5l-0.4-0.1c-0.1,0-0.1-0.1-0.1-0.1
			c0-0.1,0.1-0.1,0.1-0.1l0.4,0.1C55.3,60.5,55.3,60.5,55.2,60.5C55.3,60.5,55.3,60.5,55.2,60.5z M54.5,60.5L54.5,60.5l-0.4-0.1
			c-0.1,0-0.1-0.1-0.1-0.1c0-0.1,0.1-0.1,0.1-0.1l0.4,0.1C54.6,60.3,54.6,60.4,54.5,60.5C54.6,60.4,54.6,60.5,54.5,60.5z M53.9,60.3
			L53.9,60.3h-0.4c-0.1,0-0.1-0.1-0.1-0.1c0-0.1,0.1-0.1,0.1-0.1L53.9,60.3C54,60.2,54,60.2,53.9,60.3C54,60.3,53.9,60.3,53.9,60.3z
			 M53.2,60.2L53.2,60.2l-0.4-0.1c-0.1,0-0.1-0.1-0.1-0.1c0-0.1,0.1-0.1,0.1-0.1l0.4,0.1C53.2,60,53.3,60.1,53.2,60.2
			C53.2,60.1,53.2,60.2,53.2,60.2z M52.5,60L52.5,60h-0.3c-0.1,0-0.1-0.1-0.1-0.1c0-0.1,0.1-0.1,0.1-0.1L52.5,60
			C52.6,59.9,52.6,59.9,52.5,60C52.6,60,52.6,60,52.5,60z M51.8,59.9L51.8,59.9l-0.4-0.1l-0.1-0.1c0-0.1,0.1-0.1,0.1-0.1l0.4,0.1
			C51.9,59.7,51.9,59.8,51.8,59.9C51.9,59.8,51.9,59.9,51.8,59.9z M51.2,59.7L51.2,59.7l-0.4-0.1c-0.1,0-0.1-0.1-0.1-0.1l0.1-0.1
			l0.4,0.1C51.3,59.6,51.3,59.6,51.2,59.7C51.3,59.7,51.2,59.7,51.2,59.7z M50.5,59.6L50.5,59.6l-0.4-0.1c-0.1,0-0.1-0.1-0.1-0.1
			c0-0.1,0.1-0.1,0.1-0.1l0.4,0.1C50.5,59.4,50.7,59.5,50.5,59.6C50.5,59.5,50.5,59.6,50.5,59.6z M49.8,59.4L49.8,59.4l-0.3-0.1
			c-0.1,0-0.1,0-0.1-0.1l0.1-0.1l0.4,0.1C49.9,59.3,49.9,59.3,49.8,59.4C49.9,59.4,49.9,59.4,49.8,59.4z M49.2,59.3L49.2,59.3
			l-0.4-0.1c-0.1,0-0.1-0.1-0.1-0.1l0.1-0.1l0.4,0.1C49.3,59.2,49.3,59.2,49.2,59.3C49.3,59.2,49.3,59.3,49.2,59.3z M48.5,59.2
			L48.5,59.2l-0.4-0.1L48.1,59c0-0.1,0.1-0.1,0.1-0.1l0.4,0.1C48.6,59.1,48.6,59.1,48.5,59.2C48.6,59.2,48.5,59.2,48.5,59.2z
			 M47.9,59.1L47.9,59.1L47.5,59l-0.1-0.1c0-0.1,0.1-0.1,0.1-0.1l0.4,0.1C47.9,58.9,48,58.9,47.9,59.1C48,59,47.9,59.1,47.9,59.1z
			 M47.1,58.9L47.1,58.9l-0.4-0.1l-0.1-0.1c0-0.1,0.1-0.1,0.1-0.1l0.4,0.1C47.2,58.7,47.2,58.8,47.1,58.9
			C47.2,58.9,47.2,58.9,47.1,58.9z M46.5,58.8L46.5,58.8l-0.4-0.1L46,58.6l0.1-0.1l0.4,0.1C46.6,58.6,46.6,58.6,46.5,58.8
			C46.6,58.7,46.6,58.8,46.5,58.8z M45.8,58.6L45.8,58.6l-0.4-0.1c-0.1,0-0.1-0.1-0.1-0.1c0-0.1,0.1-0.1,0.1-0.1l0.4,0.1
			C45.9,58.4,45.9,58.5,45.8,58.6C45.9,58.6,45.8,58.6,45.8,58.6z M45.2,58.5L45.2,58.5l-0.4-0.1c-0.1,0-0.1-0.1-0.1-0.1l0.1-0.1
			l0.4,0.1C45.2,58.3,45.3,58.3,45.2,58.5C45.3,58.4,45.2,58.5,45.2,58.5z M44.5,58.3C44.5,58.3,44.5,58.3,44.5,58.3l-0.4-0.1
			l-0.1-0.1l0.1-0.1l0.4,0.1C44.5,58.1,44.6,58.2,44.5,58.3L44.5,58.3z M43.8,58.2L43.8,58.2l-0.4-0.1l-0.1-0.1
			c0-0.1,0.1-0.1,0.1-0.1l0.4,0.1C43.9,58,43.9,58,43.8,58.2C43.9,58.1,43.9,58.2,43.8,58.2z M43.2,58L43.2,58L42.8,58l-0.1-0.1
			c0-0.1,0.1-0.1,0.1-0.1l0.4,0.1C43.3,57.9,43.3,58,43.2,58C43.3,58,43.2,58,43.2,58z M42.5,57.9L42.5,57.9l-0.4-0.1l-0.1-0.1
			c0-0.1,0.1-0.1,0.1-0.1l0.4,0.1C42.5,57.8,42.6,57.8,42.5,57.9C42.6,57.9,42.5,57.9,42.5,57.9z M41.9,57.8
			C41.8,57.8,41.8,57.8,41.9,57.8l-0.4-0.1c-0.1,0-0.1-0.1-0.1-0.1l0.1-0.1l0.4,0.1C41.9,57.6,42,57.7,41.9,57.8L41.9,57.8z
			 M41.1,57.6L41.1,57.6l-0.4-0.1l-0.1-0.1l0.1-0.1L41.1,57.6C41.2,57.5,41.2,57.5,41.1,57.6C41.2,57.6,41.2,57.6,41.1,57.6z
			 M40.5,57.5L40.5,57.5l-0.4-0.1c-0.1,0-0.1-0.1-0.1-0.1l0.1-0.1l0.4,0.1C40.6,57.3,40.6,57.4,40.5,57.5
			C40.6,57.5,40.5,57.5,40.5,57.5z M39.8,57.3L39.8,57.3l-0.4-0.1l-0.1-0.1l0.1-0.1l0.4,0.1C39.9,57.2,39.9,57.2,39.8,57.3
			C39.9,57.3,39.8,57.3,39.8,57.3z M39.2,57.2C39.2,57.2,39.1,57.2,39.2,57.2l-0.4-0.1L38.7,57l0.1-0.1l0.4,0.1
			C39.2,57,39.3,57.1,39.2,57.2C39.2,57.1,39.2,57.2,39.2,57.2z M38.5,57L38.5,57L38.1,57L38,56.8c0-0.1,0.1-0.1,0.1-0.1l0.4,0.1
			C38.5,56.9,38.5,56.9,38.5,57C38.5,57,38.5,57,38.5,57z M37.8,56.9L37.8,56.9l-0.4-0.1l-0.1-0.1c0-0.1,0.1-0.1,0.1-0.1l0.4,0.1
			C37.9,56.8,37.9,56.8,37.8,56.9C37.9,56.8,37.9,56.9,37.8,56.9z M37.2,56.8L37.2,56.8l-0.4-0.1l-0.1-0.1c0-0.1,0.1-0.1,0.1-0.1
			l0.4,0.1C37.3,56.6,37.3,56.7,37.2,56.8C37.3,56.8,37.2,56.8,37.2,56.8z M36.5,56.7L36.5,56.7l-0.4-0.1l-0.1-0.1
			c0-0.1,0.1-0.1,0.1-0.1l0.4,0.1C36.5,56.5,36.6,56.5,36.5,56.7C36.5,56.6,36.5,56.7,36.5,56.7z M35.8,56.5L35.8,56.5l-0.4-0.1
			l-0.1-0.1c0-0.1,0.1-0.1,0.1-0.1l0.4,0.1C35.9,56.3,35.9,56.4,35.8,56.5C35.9,56.5,35.9,56.5,35.8,56.5z M35.1,56.3L35.1,56.3
			l-0.4-0.1l-0.1-0.1l0.1-0.1l0.4,0.1C35.2,56.2,35.2,56.2,35.1,56.3C35.2,56.3,35.2,56.3,35.1,56.3z M34.5,56.2L34.5,56.2l-0.4-0.1
			L34,56l0.1-0.1l0.4,0.1C34.6,56,34.6,56.1,34.5,56.2C34.6,56.2,34.5,56.2,34.5,56.2z M33.8,56L33.8,56l-0.4-0.1l-0.1-0.1l0.1-0.1
			l0.4,0.1C33.8,55.9,33.9,55.9,33.8,56C33.9,56,33.8,56,33.8,56z M33.1,55.9L33.1,55.9l-0.3-0.1l-0.1-0.1l0.1-0.1l0.4,0.1
			C33.2,55.7,33.3,55.8,33.1,55.9C33.2,55.9,33.2,55.9,33.1,55.9z M32.5,55.7L32.5,55.7l-0.4-0.1L32,55.6l0.1-0.1l0.4,0.1
			C32.5,55.7,32.5,55.7,32.5,55.7C32.5,55.7,32.5,55.7,32.5,55.7z M31.8,55.7L31.8,55.7l-0.4-0.1l-0.1-0.1l0.1-0.1l0.4,0.1
			C31.9,55.5,31.9,55.5,31.8,55.7C31.9,55.6,31.8,55.7,31.8,55.7z M31.2,55.5L31.2,55.5l-0.4-0.1l-0.1-0.1l0.1-0.1l0.4,0.1
			C31.2,55.3,31.3,55.4,31.2,55.5C31.3,55.5,31.2,55.5,31.2,55.5z M30.5,55.4C30.4,55.4,30.4,55.4,30.5,55.4l-0.4-0.1l-0.1-0.1
			l0.1-0.1l0.4,0.1C30.5,55.2,30.6,55.2,30.5,55.4C30.5,55.3,30.5,55.4,30.5,55.4z M29.8,55.2L29.8,55.2l-0.4-0.1L29.3,55
			c0-0.1,0.1-0.1,0.1-0.1l0.4,0.1C29.9,55,29.9,55.1,29.8,55.2C29.9,55.2,29.9,55.2,29.8,55.2z M29.1,55L29.1,55l-0.4-0.1l-0.1-0.1
			c0-0.1,0.1-0.1,0.1-0.1l0.4,0.1C29.2,54.9,29.2,54.9,29.1,55C29.2,55,29.2,55,29.1,55z M28.5,54.9L28.5,54.9l-0.4-0.1L28,54.7
			c0-0.1,0.1-0.1,0.1-0.1l0.4,0.1C28.6,54.7,28.6,54.8,28.5,54.9C28.6,54.9,28.5,54.9,28.5,54.9z M27.8,54.7
			C27.8,54.7,27.8,54.7,27.8,54.7h-0.4l-0.1-0.1l0.1-0.1L27.8,54.7C27.8,54.6,27.9,54.6,27.8,54.7L27.8,54.7z M27.1,54.6L27.1,54.6
			l-0.4-0.1l-0.1-0.1c0-0.1,0.1-0.1,0.1-0.1l0.4,0.1C27.2,54.5,27.2,54.5,27.1,54.6C27.2,54.5,27.2,54.6,27.1,54.6z M26.5,54.5
			L26.5,54.5l-0.4-0.1L26,54.3l0.1-0.1l0.4,0.1C26.5,54.4,26.5,54.4,26.5,54.5C26.5,54.5,26.5,54.5,26.5,54.5z M25.8,54.4L25.8,54.4
			l-0.4-0.1l-0.1-0.1l0.1-0.1l0.4,0.1C25.9,54.2,25.9,54.2,25.8,54.4C25.9,54.3,25.8,54.4,25.8,54.4z M25.2,54.2L25.2,54.2l-0.4-0.1
			L24.7,54l0.1-0.1l0.4,0.1C25.2,54,25.2,54.1,25.2,54.2L25.2,54.2z M24.4,54.1L24.4,54.1L24,54L24,53.9c0-0.1,0.1-0.1,0.1-0.1
			l0.4,0.1C24.5,53.9,24.5,53.9,24.4,54.1C24.5,54,24.5,54.1,24.4,54.1z M23.8,53.9L23.8,53.9l-0.4-0.1l-0.1-0.1l0.1-0.1l0.4,0.1
			C23.9,53.7,23.9,53.8,23.8,53.9C23.9,53.9,23.9,53.9,23.8,53.9z M23.1,53.7L23.1,53.7l-0.4-0.1l-0.1-0.1l0.1-0.1l0.4,0.1
			C23.2,53.6,23.2,53.6,23.1,53.7C23.2,53.7,23.1,53.7,23.1,53.7z M22.5,53.6L22.5,53.6l-0.4-0.1L22,53.4l0.1-0.1l0.4,0.1
			C22.5,53.4,22.6,53.5,22.5,53.6C22.5,53.5,22.5,53.6,22.5,53.6z"/>
	</g>
	<g id="XMLID_205_">
		<path id="XMLID_206_" class="st0" d="M68.7,63.6L68.7,63.6c-0.1,0-0.2,0-0.4,0c-0.1,0-0.1,0-0.1-0.1s0-0.1,0.1-0.1s0.2,0,0.3,0
			l0,0C68.7,63.4,68.7,63.4,68.7,63.6C68.7,63.5,68.7,63.6,68.7,63.6z M69,63.5C69,63.5,68.9,63.5,69,63.5c-0.1-0.1-0.1-0.2,0-0.2
			s0.2-0.1,0.3-0.1h0.1v0.1C69.3,63.5,69.2,63.5,69,63.5L69,63.5z M68,63.5L68,63.5c-0.1,0-0.3,0-0.4,0c-0.1,0-0.1-0.1-0.1-0.1
			c0-0.1,0.1-0.1,0.1-0.1c0.1,0,0.2,0,0.4,0C68.1,63.3,68.1,63.4,68,63.5C68.1,63.5,68,63.5,68,63.5z M67.4,63.4L67.4,63.4H67
			c-0.1,0-0.1-0.1-0.1-0.1c0-0.1,0.1-0.1,0.1-0.1h0.4C67.4,63.2,67.4,63.3,67.4,63.4C67.4,63.4,67.4,63.4,67.4,63.4z M66.6,63.3
			L66.6,63.3c-0.1,0-0.3,0-0.4,0c-0.1,0-0.1-0.1-0.1-0.1c0-0.1,0.1-0.1,0.1-0.1c0.1,0,0.2,0,0.4,0C66.7,63.1,66.7,63.2,66.6,63.3
			C66.7,63.3,66.7,63.3,66.6,63.3z M66,63.2L66,63.2c-0.1,0-0.3,0-0.4,0s-0.1,0-0.1-0.1s0.1-0.1,0.1-0.1c0.1,0,0.2,0,0.4,0
			C66.1,63.1,66.1,63.1,66,63.2C66.1,63.2,66,63.2,66,63.2z M69.6,63.2L69.6,63.2c-0.1-0.1-0.1-0.1-0.1-0.2l0,0h0.1V63.2
			C69.7,63.1,69.7,63.1,69.6,63.2C69.7,63.2,69.7,63.2,69.6,63.2z M65.3,63.2L65.3,63.2c-0.1,0-0.2,0-0.4,0c-0.1,0-0.1,0-0.1-0.1
			s0-0.1,0.1-0.1s0.2,0,0.4,0C65.3,63,65.4,63,65.3,63.2C65.4,63.1,65.3,63.2,65.3,63.2z M64.6,63.1L64.6,63.1c-0.1,0-0.2,0-0.4,0
			V63c0-0.1,0.1-0.1,0.1-0.1c0.1,0,0.3,0,0.4,0C64.7,63,64.7,63,64.6,63.1C64.7,63.1,64.7,63.1,64.6,63.1z M63.9,63L63.9,63
			c-0.1,0-0.3,0-0.4-0.1c-0.1,0-0.1-0.1-0.1-0.1c0-0.1,0.1-0.1,0.1-0.1c0.1,0,0.3,0,0.4,0.1S64,63,63.9,63C64,63,63.9,63,63.9,63z
			 M63.3,63C63.3,63,63.2,63,63.3,63l-0.4-0.1c-0.1,0-0.1-0.1-0.1-0.1c0-0.1,0.1-0.1,0.1-0.1l0.4,0.1C63.3,62.8,63.4,62.8,63.3,63
			L63.3,63z M62.6,62.8L62.6,62.8l-0.4-0.1c-0.1,0-0.1-0.1-0.1-0.1c0-0.1,0.1-0.1,0.1-0.1l0.4,0.1C62.7,62.7,62.7,62.8,62.6,62.8
			C62.7,62.8,62.7,62.8,62.6,62.8z M61.9,62.8L61.9,62.8l-0.4-0.1c-0.1,0-0.1-0.1-0.1-0.1c0-0.1,0.1-0.1,0.1-0.1l0.4,0.1
			C62,62.6,62,62.6,61.9,62.8C62,62.7,61.9,62.8,61.9,62.8z M61.3,62.6L61.3,62.6l-0.4-0.1c-0.1,0-0.1-0.1-0.1-0.1
			c0-0.1,0.1-0.1,0.1-0.1l0.4,0.1C61.3,62.4,61.4,62.5,61.3,62.6C61.4,62.6,61.3,62.6,61.3,62.6z M60.5,62.5L60.5,62.5l-0.4-0.1
			c-0.1,0-0.1-0.1-0.1-0.1c0-0.1,0.1-0.1,0.1-0.1l0.4,0.1C60.6,62.3,60.6,62.4,60.5,62.5C60.6,62.4,60.6,62.5,60.5,62.5z M59.9,62.3
			L59.9,62.3l-0.4-0.1c-0.1,0-0.1-0.1-0.1-0.1c0-0.1,0.1-0.1,0.1-0.1l0.4,0.1C60,62.2,60,62.2,59.9,62.3C60,62.3,60,62.3,59.9,62.3z
			 M59.2,62.2L59.2,62.2l-0.4-0.1c-0.1,0-0.1-0.1-0.1-0.1c0-0.1,0.1-0.1,0.1-0.1l0.4,0.1C59.3,62,59.3,62.1,59.2,62.2
			C59.3,62.2,59.2,62.2,59.2,62.2z M58.6,62.1L58.6,62.1L58.2,62c-0.1,0-0.1-0.1-0.1-0.1c0-0.1,0.1-0.1,0.1-0.1l0.4,0.1
			C58.6,61.9,58.7,61.9,58.6,62.1C58.6,62,58.6,62.1,58.6,62.1z M57.8,61.9L57.8,61.9l-0.4-0.1c-0.1,0-0.1-0.1-0.1-0.1
			c0-0.1,0.1-0.1,0.1-0.1l0.4,0.1C57.9,61.8,57.9,61.8,57.8,61.9C57.9,61.9,57.9,61.9,57.8,61.9z M57.2,61.8L57.2,61.8l-0.4-0.1
			c-0.1,0-0.1-0.1-0.1-0.1c0-0.1,0.1-0.1,0.1-0.1l0.4,0.1C57.3,61.7,57.3,61.7,57.2,61.8C57.3,61.8,57.3,61.8,57.2,61.8z M56.5,61.7
			L56.5,61.7l-0.4-0.1c-0.1,0-0.1-0.1-0.1-0.1c0-0.1,0.1-0.1,0.1-0.1l0.4,0.1C56.7,61.5,56.7,61.6,56.5,61.7
			C56.7,61.7,56.5,61.7,56.5,61.7z M55.9,61.6C55.9,61.6,55.8,61.6,55.9,61.6l-0.4-0.1c-0.1,0-0.1-0.1-0.1-0.1
			c0-0.1,0.1-0.1,0.1-0.1l0.4,0.1C55.9,61.4,56,61.4,55.9,61.6C55.9,61.5,55.9,61.6,55.9,61.6z M55.2,61.4L55.2,61.4l-0.4-0.1
			c-0.1,0-0.1-0.1-0.1-0.1c0-0.1,0.1-0.1,0.1-0.1l0.4,0.1C55.3,61.2,55.3,61.3,55.2,61.4C55.3,61.4,55.3,61.4,55.2,61.4z M54.5,61.3
			L54.5,61.3l-0.4-0.1c-0.1,0-0.1-0.1-0.1-0.1l0.1-0.1l0.4,0.1C54.6,61.1,54.6,61.1,54.5,61.3C54.6,61.2,54.6,61.3,54.5,61.3z
			 M53.9,61.1L53.9,61.1L53.5,61c-0.1,0-0.1-0.1-0.1-0.1c0-0.1,0.1-0.1,0.1-0.1l0.4,0.1C54,60.9,54,61,53.9,61.1
			C54,61.1,53.9,61.1,53.9,61.1z M53.2,61C53.2,61,53.1,61,53.2,61l-0.4-0.1l-0.1-0.1c0-0.1,0.1-0.1,0.1-0.1l0.4,0.1
			C53.2,60.8,53.3,60.8,53.2,61C53.2,60.9,53.2,61,53.2,61z M52.5,60.8L52.5,60.8l-0.3-0.1l-0.1-0.1c0-0.1,0.1-0.1,0.1-0.1l0.4,0.1
			C52.6,60.6,52.6,60.7,52.5,60.8C52.6,60.8,52.6,60.8,52.5,60.8z M51.8,60.7L51.8,60.7l-0.4-0.1c-0.1,0-0.1-0.1-0.1-0.1
			c0-0.1,0.1-0.1,0.1-0.1l0.4,0.1C51.9,60.5,51.9,60.5,51.8,60.7C51.9,60.6,51.9,60.7,51.8,60.7z M51.2,60.5L51.2,60.5l-0.4-0.1
			c-0.1,0-0.1-0.1-0.1-0.1l0.1-0.1l0.4,0.1C51.3,60.4,51.3,60.5,51.2,60.5C51.3,60.5,51.2,60.5,51.2,60.5z M50.5,60.5L50.5,60.5
			l-0.4-0.1c-0.1,0-0.1-0.1-0.1-0.1l0.1-0.1l0.4,0.1C50.5,60.3,50.7,60.3,50.5,60.5C50.5,60.4,50.5,60.5,50.5,60.5z M49.8,60.3
			L49.8,60.3l-0.4-0.1c-0.1,0-0.1-0.1-0.1-0.1l0.1-0.1l0.4,0.1C49.9,60.1,49.9,60.2,49.8,60.3C49.9,60.3,49.9,60.3,49.8,60.3z
			 M49.2,60.2L49.2,60.2l-0.4-0.1L48.7,60c0-0.1,0.1-0.1,0.1-0.1l0.4,0.1C49.3,60,49.3,60,49.2,60.2C49.3,60.1,49.3,60.2,49.2,60.2z
			 M48.5,60L48.5,60l-0.4-0.1l-0.1-0.1c0-0.1,0.1-0.1,0.1-0.1l0.4,0.1C48.6,59.8,48.6,59.9,48.5,60C48.6,60,48.5,60,48.5,60z
			 M47.9,59.9L47.9,59.9l-0.4-0.1l-0.1-0.1c0-0.1,0.1-0.1,0.1-0.1l0.4,0.1C47.9,59.7,48,59.7,47.9,59.9
			C47.9,59.8,47.9,59.9,47.9,59.9z M47.1,59.7L47.1,59.7l-0.4-0.1c-0.1,0-0.1-0.1-0.1-0.1c0-0.1,0.1-0.1,0.1-0.1l0.4,0.1
			C47.2,59.5,47.2,59.6,47.1,59.7C47.2,59.7,47.2,59.7,47.1,59.7z M46.5,59.6L46.5,59.6l-0.4-0.1L46,59.4c0-0.1,0.1-0.1,0.1-0.1
			l0.4,0.1C46.6,59.4,46.6,59.4,46.5,59.6C46.6,59.5,46.6,59.6,46.5,59.6z M45.8,59.4L45.8,59.4l-0.4-0.1l-0.1-0.1l0.1-0.1l0.4,0.1
			C45.9,59.2,45.9,59.3,45.8,59.4C45.9,59.4,45.8,59.4,45.8,59.4z M45.2,59.3C45.2,59.3,45.2,59.2,45.2,59.3l-0.4-0.1l-0.1-0.1
			c0-0.1,0.1-0.1,0.1-0.1l0.4,0.1C45.2,59.2,45.3,59.2,45.2,59.3C45.3,59.2,45.2,59.3,45.2,59.3z M44.5,59.2L44.5,59.2l-0.4-0.1
			L44,59c0-0.1,0.1-0.1,0.1-0.1l0.4,0.1C44.5,59,44.5,59.1,44.5,59.2C44.5,59.2,44.5,59.2,44.5,59.2z M43.8,59L43.8,59l-0.4-0.1
			l-0.1-0.1c0-0.1,0.1-0.1,0.1-0.1l0.4,0.1C43.9,58.9,43.9,58.9,43.8,59C43.9,59,43.9,59,43.8,59z M43.2,58.9L43.2,58.9l-0.4-0.1
			c-0.1,0-0.1-0.1-0.1-0.1l0.1-0.1l0.4,0.1C43.3,58.7,43.3,58.8,43.2,58.9C43.3,58.9,43.2,58.9,43.2,58.9z M42.5,58.7L42.5,58.7
			l-0.4-0.1l-0.1-0.1c0-0.1,0.1-0.1,0.1-0.1l0.4,0.1C42.5,58.6,42.6,58.6,42.5,58.7C42.6,58.7,42.5,58.7,42.5,58.7z M41.8,58.6
			L41.8,58.6l-0.4-0.1c-0.1,0-0.1-0.1-0.1-0.1c0-0.1,0.1-0.1,0.1-0.1l0.4,0.1C41.9,58.4,41.9,58.5,41.8,58.6
			C41.9,58.5,41.9,58.6,41.8,58.6z M41.1,58.4L41.1,58.4l-0.4-0.1l-0.1-0.1l0.1-0.1l0.4,0.1C41.2,58.3,41.2,58.3,41.1,58.4
			C41.2,58.4,41.2,58.4,41.1,58.4z M40.5,58.3L40.5,58.3l-0.4-0.1L40,58.2c0-0.1,0.1-0.1,0.1-0.1l0.4,0.1
			C40.6,58.1,40.6,58.1,40.5,58.3C40.6,58.2,40.5,58.3,40.5,58.3z M39.8,58.1L39.8,58.1L39.5,58L39.4,58c0-0.1,0.1-0.1,0.1-0.1
			l0.4,0.1C39.8,58,39.9,58,39.8,58.1C39.9,58.1,39.8,58.1,39.8,58.1z M39.2,58C39.2,58,39.1,58,39.2,58L38.8,58l-0.1-0.1
			c0-0.1,0.1-0.1,0.1-0.1l0.4,0.1C39.2,57.9,39.3,57.9,39.2,58C39.2,58,39.2,58,39.2,58z M38.5,57.9L38.5,57.9l-0.4-0.1L38,57.7
			c0-0.1,0.1-0.1,0.1-0.1l0.4,0.1C38.5,57.7,38.5,57.8,38.5,57.9C38.5,57.9,38.5,57.9,38.5,57.9z M37.8,57.8
			C37.8,57.8,37.8,57.7,37.8,57.8l-0.4-0.1l-0.1-0.1c0.1-0.1,0.1-0.1,0.2-0.1l0.4,0.1C37.9,57.6,37.9,57.6,37.8,57.8
			C37.9,57.7,37.9,57.8,37.8,57.8z M37.2,57.6L37.2,57.6l-0.4-0.1l-0.1-0.1c0-0.1,0.1-0.1,0.1-0.1l0.4,0.1
			C37.3,57.4,37.3,57.5,37.2,57.6C37.3,57.6,37.2,57.6,37.2,57.6z M36.5,57.4L36.5,57.4l-0.4-0.1l-0.1-0.1c0-0.1,0.1-0.1,0.1-0.1
			l0.4,0.1C36.5,57.3,36.6,57.3,36.5,57.4L36.5,57.4z M35.8,57.3L35.8,57.3l-0.4-0.1l-0.1-0.1c0-0.1,0.1-0.1,0.1-0.1l0.4,0.1
			C35.9,57.1,35.9,57.2,35.8,57.3C35.9,57.3,35.9,57.3,35.8,57.3z M35.1,57.1L35.1,57.1L34.8,57L34.7,57c0-0.1,0.1-0.1,0.1-0.1
			l0.4,0.1C35.2,57,35.2,57,35.1,57.1C35.2,57.1,35.2,57.1,35.1,57.1z M34.5,57L34.5,57L34.1,57L34,56.9l0.1-0.1l0.4,0.1
			C34.6,56.8,34.6,56.8,34.5,57C34.6,56.9,34.5,57,34.5,57z M33.8,56.8L33.8,56.8l-0.4-0.1l-0.1-0.1l0.1-0.1l0.4,0.1
			C33.8,56.7,33.9,56.8,33.8,56.8C33.9,56.8,33.8,56.8,33.8,56.8z M33.1,56.8L33.1,56.8l-0.3-0.1l-0.1-0.1l0.1-0.1l0.4,0.1
			C33.2,56.6,33.2,56.6,33.1,56.8C33.2,56.7,33.2,56.8,33.1,56.8z M32.5,56.6L32.5,56.6l-0.4-0.1L32,56.4c0-0.1,0.1-0.1,0.1-0.1
			l0.4,0.1C32.5,56.4,32.5,56.5,32.5,56.6C32.5,56.6,32.5,56.6,32.5,56.6z M31.8,56.4L31.8,56.4l-0.4-0.1l-0.1-0.1l0.1-0.1l0.4,0.1
			C31.9,56.3,31.9,56.3,31.8,56.4C31.9,56.4,31.8,56.4,31.8,56.4z M31.2,56.3L31.2,56.3l-0.4-0.1l-0.1-0.1l0.1-0.1l0.4,0.1
			C31.2,56.1,31.3,56.2,31.2,56.3C31.3,56.3,31.2,56.3,31.2,56.3z M30.5,56.1C30.4,56.1,30.4,56.1,30.5,56.1L30.1,56l-0.1-0.1
			l0.1-0.1l0.4,0.1C30.5,56,30.6,56,30.5,56.1L30.5,56.1z M29.8,56L29.8,56l-0.4-0.1l-0.1-0.1l0.1-0.1l0.4,0.1
			C29.9,55.8,29.9,55.9,29.8,56C29.9,55.9,29.9,56,29.8,56z M29.1,55.8L29.1,55.8l-0.4-0.1l-0.1-0.1l0.1-0.1l0.4,0.1
			C29.2,55.7,29.2,55.7,29.1,55.8C29.2,55.8,29.1,55.8,29.1,55.8z M28.5,55.7L28.5,55.7l-0.4-0.1L28,55.6c0-0.1,0.1-0.1,0.1-0.1
			l0.4,0.1C28.6,55.6,28.6,55.6,28.5,55.7C28.6,55.7,28.5,55.7,28.5,55.7z M27.8,55.6C27.8,55.6,27.8,55.6,27.8,55.6l-0.4-0.1
			l-0.1-0.1c0-0.1,0.1-0.1,0.1-0.1l0.4,0.1C27.8,55.4,27.9,55.5,27.8,55.6L27.8,55.6z M27.1,55.4L27.1,55.4l-0.4-0.1l-0.1-0.1
			l0.1-0.1l0.4,0.1C27.2,55.3,27.2,55.3,27.1,55.4C27.2,55.4,27.2,55.4,27.1,55.4z M26.5,55.3L26.5,55.3l-0.4-0.1L26,55.1l0.1-0.1
			l0.4,0.1C26.5,55.1,26.5,55.2,26.5,55.3C26.5,55.3,26.5,55.3,26.5,55.3z M25.8,55.1L25.8,55.1h-0.4L25.3,55c0-0.1,0.1-0.1,0.1-0.1
			L25.8,55.1C25.9,55,25.9,55,25.8,55.1C25.9,55.1,25.8,55.1,25.8,55.1z M25.2,55L25.2,55l-0.4-0.1l-0.1-0.1c0-0.1,0.1-0.1,0.1-0.1
			l0.4,0.1C25.2,54.8,25.2,54.9,25.2,55C25.2,54.9,25.2,55,25.2,55z M24.4,54.8L24.4,54.8l-0.3-0.1L24,54.6c0-0.1,0.1-0.1,0.1-0.1
			l0.4,0.1C24.5,54.6,24.5,54.7,24.4,54.8C24.5,54.8,24.5,54.8,24.4,54.8z M23.8,54.7L23.8,54.7l-0.4-0.1l-0.1-0.1
			c0-0.1,0.1-0.1,0.1-0.1l0.4,0.1C23.9,54.5,23.9,54.5,23.8,54.7C23.9,54.6,23.9,54.7,23.8,54.7z M23.1,54.5L23.1,54.5l-0.4-0.1
			l-0.1-0.1c0-0.1,0.1-0.1,0.1-0.1l0.4,0.1C23.2,54.4,23.2,54.5,23.1,54.5C23.2,54.5,23.1,54.5,23.1,54.5z M22.5,54.4L22.5,54.4
			l-0.4-0.1L22,54.2l0.1-0.1l0.4,0.1C22.5,54.3,22.6,54.3,22.5,54.4L22.5,54.4z"/>
	</g>
	<g id="XMLID_203_">
		<path id="XMLID_204_" class="st0" d="M67.2,64.2c-0.1,0-0.2,0-0.3,0s-0.1,0-0.1-0.1s0-0.1,0.1-0.1s0.2,0,0.3,0h0.1l0,0
			c0.1,0,0.1,0,0.1,0.1S67.3,64.2,67.2,64.2L67.2,64.2z M67.6,64.2C67.5,64.2,67.5,64.2,67.6,64.2c-0.1-0.1-0.1-0.2,0-0.2
			s0.2,0,0.4,0c0,0,0.1,0,0.1,0.1s0,0.1-0.1,0.1C67.8,64.2,67.7,64.2,67.6,64.2L67.6,64.2z M66.6,64.2L66.6,64.2c-0.1,0-0.3,0-0.4,0
			c-0.1,0-0.1,0-0.1-0.1s0-0.1,0.1-0.1s0.2,0,0.4,0C66.6,64.1,66.7,64.1,66.6,64.2C66.7,64.2,66.6,64.2,66.6,64.2z M65.9,64.2
			L65.9,64.2c-0.1,0-0.3,0-0.4,0c-0.1,0-0.1-0.1-0.1-0.1c0-0.1,0.1-0.1,0.1-0.1c0.1,0,0.2,0,0.4,0C66,64,66,64.1,65.9,64.2
			C66,64.2,66,64.2,65.9,64.2z M68.3,64.2C68.3,64.2,68.2,64.2,68.3,64.2c-0.1-0.1-0.1-0.2,0-0.2s0.2,0,0.4,0c0,0,0.1,0,0.1,0.1
			c0,0.1,0,0.1-0.1,0.1S68.4,64.2,68.3,64.2L68.3,64.2z M65.2,64.2L65.2,64.2c-0.1,0-0.3,0-0.4,0c-0.1,0-0.1-0.1-0.1-0.1
			c0-0.1,0.1-0.1,0.1-0.1c0.1,0,0.2,0,0.4,0C65.2,64,65.3,64,65.2,64.2C65.3,64.1,65.2,64.2,65.2,64.2z M68.9,64.1L68.9,64.1
			c-0.1-0.1-0.1-0.2,0-0.2s0.2-0.1,0.4-0.1c0.1,0,0.1,0,0.1,0.1s0,0.1-0.1,0.1C69.2,64,69.1,64.1,68.9,64.1
			C69,64.1,68.9,64.1,68.9,64.1z M64.6,64.1C64.5,64.1,64.5,64.1,64.6,64.1c-0.1,0-0.3,0-0.4-0.1c-0.1,0-0.1-0.1-0.1-0.1
			c0-0.1,0.1-0.1,0.1-0.1c0.1,0,0.2,0,0.4,0.1C64.6,63.9,64.7,63.9,64.6,64.1C64.6,64,64.6,64.1,64.6,64.1z M63.8,63.9L63.8,63.9
			c-0.1,0-0.3,0-0.4-0.1c-0.1,0-0.1-0.1-0.1-0.1c0-0.1,0.1-0.1,0.1-0.1c0.1,0,0.2,0,0.4,0.1C63.9,63.8,63.9,63.8,63.8,63.9
			C63.9,63.9,63.9,63.9,63.8,63.9z M69.7,63.9C69.6,63.9,69.6,63.9,69.7,63.9c-0.1-0.1-0.1-0.2,0-0.2s0.2-0.1,0.3-0.1H70v0.1
			C69.8,63.8,69.8,63.9,69.7,63.9L69.7,63.9z M63.2,63.8L63.2,63.8c-0.1,0-0.3,0-0.4-0.1c-0.1,0-0.1-0.1-0.1-0.1
			c0-0.1,0.1-0.1,0.1-0.1c0.1,0,0.2,0,0.4,0.1C63.3,63.6,63.3,63.7,63.2,63.8C63.3,63.8,63.2,63.8,63.2,63.8z M62.6,63.7L62.6,63.7
			c-0.1,0-0.3-0.1-0.4-0.1l-0.1-0.1l0.1-0.1c0.1,0,0.2,0.1,0.4,0.1C62.6,63.5,62.7,63.5,62.6,63.7C62.6,63.6,62.6,63.7,62.6,63.7z
			 M70.2,63.6L70.2,63.6c-0.1-0.1-0.1-0.1-0.1-0.2l0,0h0.1C70.3,63.5,70.3,63.5,70.2,63.6L70.2,63.6L70.2,63.6z M61.8,63.5
			L61.8,63.5c-0.1,0-0.3-0.1-0.4-0.1l-0.1-0.1l0.1-0.1c0.1,0,0.2,0.1,0.4,0.1C61.9,63.3,61.9,63.4,61.8,63.5
			C61.9,63.5,61.9,63.5,61.8,63.5z M61.2,63.3L61.2,63.3c-0.2,0-0.3-0.1-0.4-0.1l-0.1-0.1l0.1-0.1c0.1,0,0.2,0.1,0.4,0.1
			C61.3,63.2,61.3,63.2,61.2,63.3C61.3,63.3,61.3,63.3,61.2,63.3z M60.5,63.2C60.5,63.2,60.5,63.1,60.5,63.2c-0.2,0-0.3-0.1-0.4-0.1
			L60.1,63l0.1-0.1c0.1,0,0.2,0.1,0.4,0.1C60.6,63,60.6,63,60.5,63.2C60.6,63.1,60.5,63.2,60.5,63.2z M59.9,63L59.9,63L59.5,63
			c-0.1,0-0.1-0.1-0.1-0.1l0.1-0.1l0.4,0.1C60,62.8,60,62.8,59.9,63C60,63,59.9,63,59.9,63z M59.2,62.8L59.2,62.8l-0.4-0.1
			c-0.1,0-0.1-0.1-0.1-0.1l0.1-0.1l0.4,0.1C59.2,62.7,59.3,62.8,59.2,62.8L59.2,62.8z M58.5,62.8L58.5,62.8l-0.4-0.1
			c-0.1,0-0.1-0.1-0.1-0.1l0.1-0.1l0.4,0.1C58.6,62.6,58.6,62.6,58.5,62.8C58.6,62.7,58.6,62.8,58.5,62.8z M57.8,62.6L57.8,62.6
			l-0.4-0.1c-0.1,0-0.1-0.1-0.1-0.1l0.1-0.1l0.4,0.1C57.9,62.4,57.9,62.5,57.8,62.6C57.9,62.6,57.9,62.6,57.8,62.6z M57.2,62.5
			L57.2,62.5l-0.4-0.1c-0.1,0-0.1-0.1-0.1-0.1l0.1-0.1l0.4,0.1C57.3,62.3,57.3,62.3,57.2,62.5C57.3,62.4,57.2,62.5,57.2,62.5z
			 M56.5,62.3L56.5,62.3l-0.4-0.1l-0.1-0.1l0.1-0.1l0.4,0.1C56.5,62.1,56.7,62.2,56.5,62.3C56.7,62.3,56.5,62.3,56.5,62.3z
			 M55.8,62.2L55.8,62.2l-0.3-0.1L55.5,62l0.1-0.1l0.4,0.1C55.9,62,55.9,62,55.8,62.2C55.9,62.1,55.9,62.2,55.8,62.2z M55.2,62
			L55.2,62l-0.4-0.1l-0.1-0.1c0-0.1,0.1-0.1,0.1-0.1l0.4,0.1C55.3,61.8,55.3,61.9,55.2,62C55.3,62,55.3,62,55.2,62z M54.5,61.9
			L54.5,61.9l-0.4-0.1c-0.1,0-0.1-0.1-0.1-0.1l0.1-0.1l0.4,0.1C54.6,61.8,54.6,61.8,54.5,61.9C54.6,61.8,54.5,61.9,54.5,61.9z
			 M53.9,61.8L53.9,61.8l-0.4-0.1l-0.1-0.1l0.1-0.1l0.4,0.1C53.9,61.6,54,61.7,53.9,61.8C54,61.8,53.9,61.8,53.9,61.8z M53.2,61.7
			C53.1,61.7,53.1,61.7,53.2,61.7l-0.4-0.1l-0.1-0.1l0.1-0.1l0.4,0.1C53.2,61.5,53.3,61.5,53.2,61.7C53.2,61.6,53.2,61.7,53.2,61.7z
			 M52.5,61.5L52.5,61.5l-0.4-0.1c-0.1,0-0.1-0.1-0.1-0.1l0.1-0.1l0.4,0.1C52.6,61.3,52.6,61.4,52.5,61.5
			C52.6,61.5,52.6,61.5,52.5,61.5z M51.8,61.4L51.8,61.4l-0.4-0.1l-0.1-0.1l0.1-0.1l0.4,0.1C51.9,61.2,51.9,61.2,51.8,61.4
			C51.9,61.3,51.8,61.4,51.8,61.4z M51.2,61.2L51.2,61.2l-0.4-0.1L50.7,61l0.1-0.1l0.4,0.1C51.2,61,51.3,61.1,51.2,61.2
			C51.3,61.2,51.2,61.2,51.2,61.2z M50.5,61.1C50.5,61.1,50.5,61.1,50.5,61.1L50.2,61c-0.1,0-0.1-0.1-0.1-0.1l0.1-0.1l0.4,0.1
			C50.5,60.9,50.7,60.9,50.5,61.1C50.5,61,50.5,61.1,50.5,61.1z M49.8,60.9L49.8,60.9l-0.4-0.1l-0.1-0.1l0.1-0.1l0.4,0.1
			C49.9,60.7,49.9,60.8,49.8,60.9C49.9,60.9,49.9,60.9,49.8,60.9z M49.2,60.7L49.2,60.7l-0.4-0.1l-0.1-0.1l0.1-0.1l0.4,0.1
			C49.3,60.6,49.3,60.6,49.2,60.7C49.3,60.7,49.3,60.7,49.2,60.7z M48.5,60.6L48.5,60.6l-0.4-0.1c-0.1,0-0.1-0.1-0.1-0.1l0.1-0.1
			l0.4,0.1C48.6,60.5,48.6,60.5,48.5,60.6C48.6,60.6,48.5,60.6,48.5,60.6z M47.9,60.5C47.9,60.5,47.8,60.5,47.9,60.5l-0.4-0.1
			c-0.1,0-0.1-0.1-0.1-0.1l0.1-0.1l0.4,0.1C47.9,60.4,48,60.4,47.9,60.5L47.9,60.5z M47.1,60.4L47.1,60.4l-0.3-0.1l-0.1-0.1l0.1-0.1
			l0.4,0.1C47.2,60.2,47.2,60.3,47.1,60.4C47.2,60.4,47.2,60.4,47.1,60.4z M46.5,60.2L46.5,60.2l-0.4-0.1C46,60.1,46,60,46,60
			l0.1-0.1l0.4,0.1C46.6,60.1,46.6,60.1,46.5,60.2C46.6,60.2,46.6,60.2,46.5,60.2z M45.8,60.1L45.8,60.1L45.5,60l-0.1-0.1l0.1-0.1
			l0.4,0.1C45.9,59.9,45.9,60,45.8,60.1C45.9,60.1,45.8,60.1,45.8,60.1z M45.2,59.9L45.2,59.9h-0.4l-0.1-0.1l0.1-0.1L45.2,59.9
			C45.2,59.8,45.3,59.8,45.2,59.9L45.2,59.9z M44.5,59.8L44.5,59.8l-0.4-0.1L44,59.6c0-0.1,0.1-0.1,0.1-0.1l0.4,0.1
			C44.5,59.6,44.5,59.7,44.5,59.8C44.5,59.8,44.5,59.8,44.5,59.8z M43.8,59.6L43.8,59.6l-0.4-0.1c-0.1,0-0.1-0.1-0.1-0.1l0.1-0.1
			l0.4,0.1C43.9,59.5,43.9,59.5,43.8,59.6C43.9,59.6,43.9,59.6,43.8,59.6z M43.2,59.5L43.2,59.5l-0.4-0.1c-0.1,0-0.1-0.1-0.1-0.1
			l0.1-0.1l0.4,0.1C43.3,59.3,43.3,59.4,43.2,59.5C43.3,59.5,43.2,59.5,43.2,59.5z M42.5,59.3L42.5,59.3h-0.4l-0.1-0.1l0.1-0.1
			L42.5,59.3C42.5,59.2,42.6,59.2,42.5,59.3C42.6,59.3,42.5,59.3,42.5,59.3z M41.8,59.2L41.8,59.2l-0.4-0.1c-0.1,0-0.1-0.1-0.1-0.1
			l0.1-0.1l0.4,0.1C41.9,59.1,41.9,59.2,41.8,59.2C41.9,59.2,41.9,59.2,41.8,59.2z M41.1,59.1L41.1,59.1L40.8,59l-0.1-0.1l0.1-0.1
			l0.4,0.1C41.2,59,41.2,59,41.1,59.1C41.2,59.1,41.2,59.1,41.1,59.1z M40.5,59L40.5,59l-0.4-0.1L40,58.8l0.1-0.1l0.4,0.1
			C40.6,58.8,40.6,58.9,40.5,59C40.6,59,40.5,59,40.5,59z M39.8,58.8L39.8,58.8l-0.4-0.1c-0.1,0-0.1-0.1-0.1-0.1l0.1-0.1l0.4,0.1
			C39.8,58.7,39.9,58.7,39.8,58.8C39.9,58.8,39.8,58.8,39.8,58.8z M39.2,58.7C39.1,58.7,39.1,58.7,39.2,58.7l-0.4-0.1l-0.1-0.1
			l0.1-0.1l0.4,0.1C39.2,58.5,39.3,58.6,39.2,58.7C39.2,58.6,39.2,58.7,39.2,58.7z M38.5,58.5L38.5,58.5l-0.4-0.1
			c-0.1,0-0.1-0.1-0.1-0.1l0.1-0.1l0.4,0.1C38.5,58.4,38.5,58.4,38.5,58.5C38.5,58.5,38.5,58.5,38.5,58.5z M37.8,58.4L37.8,58.4
			l-0.4-0.1c-0.1,0-0.1-0.1-0.1-0.1c0-0.1,0.1-0.1,0.1-0.1l0.4,0.1C37.9,58.2,37.9,58.3,37.8,58.4C37.9,58.3,37.8,58.4,37.8,58.4z
			 M37.2,58.2L37.2,58.2l-0.4-0.1c-0.1,0-0.1-0.1-0.1-0.1l0.1-0.1l0.4,0.1C37.2,58.1,37.3,58.1,37.2,58.2
			C37.3,58.2,37.2,58.2,37.2,58.2z M36.5,58.1C36.4,58.1,36.4,58.1,36.5,58.1L36.2,58L36.1,58c0-0.1,0.1-0.1,0.1-0.1l0.4,0.1
			C36.5,58,36.6,58,36.5,58.1C36.5,58,36.5,58.1,36.5,58.1z M35.8,58L35.8,58l-0.4-0.1c-0.1,0-0.1-0.1-0.1-0.1
			c0-0.1,0.1-0.1,0.1-0.1l0.4,0.1C35.9,57.8,35.9,57.9,35.8,58C35.9,58,35.9,58,35.8,58z M35.1,57.9L35.1,57.9l-0.4-0.1l-0.1-0.1
			l0.1-0.1l0.4,0.1C35.2,57.7,35.2,57.7,35.1,57.9C35.2,57.8,35.2,57.9,35.1,57.9z M34.5,57.7L34.5,57.7l-0.4-0.1L34,57.5l0.1-0.1
			l0.4,0.1C34.6,57.5,34.6,57.6,34.5,57.7C34.6,57.7,34.5,57.7,34.5,57.7z M33.8,57.6C33.8,57.6,33.8,57.6,33.8,57.6l-0.4-0.1
			c-0.1,0-0.1-0.1-0.1-0.1l0.1-0.1l0.4,0.1C33.8,57.4,33.9,57.4,33.8,57.6C33.8,57.5,33.8,57.6,33.8,57.6z M33.1,57.4L33.1,57.4
			l-0.3-0.1l-0.1-0.1l0.1-0.1l0.4,0.1C33.2,57.2,33.2,57.3,33.1,57.4C33.2,57.4,33.2,57.4,33.1,57.4z M32.5,57.3L32.5,57.3l-0.4-0.1
			c-0.1,0-0.1-0.1-0.1-0.1l0.1-0.1l0.4,0.1C32.5,57.1,32.5,57.1,32.5,57.3C32.5,57.2,32.5,57.3,32.5,57.3z M31.8,57.1L31.8,57.1
			L31.4,57c-0.1,0-0.1-0.1-0.1-0.1l0.1-0.1l0.4,0.1C31.9,56.9,31.9,57,31.8,57.1C31.9,57.1,31.8,57.1,31.8,57.1z M31.2,57L31.2,57
			L30.8,57l-0.1-0.1c0-0.1,0.1-0.1,0.1-0.1l0.4,0.1C31.2,56.8,31.3,56.8,31.2,57C31.2,56.9,31.2,57,31.2,57z M30.4,56.8L30.4,56.8
			L30,56.8L30,56.7l0.1-0.1l0.4,0.1C30.5,56.7,30.5,56.8,30.4,56.8C30.5,56.8,30.5,56.8,30.4,56.8z M29.8,56.8L29.8,56.8l-0.4-0.1
			c-0.1,0-0.1-0.1-0.1-0.1l0.1-0.1l0.4,0.1C29.9,56.6,29.9,56.6,29.8,56.8C29.9,56.7,29.9,56.8,29.8,56.8z M29.1,56.6L29.1,56.6
			l-0.4-0.1l-0.1-0.1c0-0.1,0.1-0.1,0.1-0.1l0.4,0.1C29.2,56.4,29.2,56.5,29.1,56.6C29.2,56.6,29.1,56.6,29.1,56.6z M28.5,56.5
			L28.5,56.5l-0.4-0.1L28,56.3l0.1-0.1l0.4,0.1C28.5,56.3,28.6,56.3,28.5,56.5C28.6,56.4,28.5,56.5,28.5,56.5z M27.8,56.3L27.8,56.3
			l-0.4-0.1c-0.1,0-0.1-0.1-0.1-0.1l0.1-0.1l0.4,0.1C27.8,56.1,27.8,56.2,27.8,56.3C27.8,56.3,27.8,56.3,27.8,56.3z M27.1,56.2
			L27.1,56.2l-0.4-0.1c-0.1,0-0.1-0.1-0.1-0.1l0.1-0.1l0.4,0.1C27.2,56,27.2,56,27.1,56.2C27.2,56.1,27.2,56.2,27.1,56.2z M26.5,56
			L26.5,56l-0.4-0.1L26,55.8l0.1-0.1l0.4,0.1C26.5,55.8,26.5,55.9,26.5,56C26.5,56,26.5,56,26.5,56z M25.8,55.9L25.8,55.9l-0.4-0.1
			c-0.1,0-0.1-0.1-0.1-0.1l0.1-0.1l0.4,0.1C25.8,55.7,25.9,55.7,25.8,55.9C25.9,55.8,25.8,55.9,25.8,55.9z M25.2,55.7
			C25.1,55.7,25.1,55.7,25.2,55.7l-0.4-0.1c-0.1,0-0.1-0.1-0.1-0.1l0.1-0.1l0.4,0.1C25.2,55.6,25.2,55.7,25.2,55.7L25.2,55.7z
			 M24.4,55.7C24.4,55.7,24.4,55.6,24.4,55.7L24,55.6L24,55.5l0.1-0.1l0.4,0.1C24.5,55.5,24.5,55.5,24.4,55.7
			C24.5,55.6,24.5,55.7,24.4,55.7z M23.8,55.5L23.8,55.5l-0.4-0.1c-0.1,0-0.1-0.1-0.1-0.1l0.1-0.1l0.4,0.1
			C23.9,55.3,23.9,55.4,23.8,55.5C23.9,55.5,23.8,55.5,23.8,55.5z M23.1,55.3L23.1,55.3l-0.4-0.1l-0.1-0.1l0.1-0.1l0.4,0.1
			C23.1,55.2,23.2,55.2,23.1,55.3C23.2,55.3,23.1,55.3,23.1,55.3z M22.5,55.2C22.4,55.2,22.4,55.2,22.5,55.2l-0.4-0.1
			C22,55.1,22,55,22,55c0-0.1,0.1-0.1,0.1-0.1l0.4,0.1C22.5,55,22.6,55.1,22.5,55.2L22.5,55.2z"/>
	</g>
	<g id="XMLID_201_">
		<path id="XMLID_202_" class="st0" d="M65.8,65.1c-0.1,0-0.2,0-0.3,0s-0.1,0-0.1-0.1c0-0.1,0-0.1,0.1-0.1s0.2,0,0.3,0h0.1
			c0.1,0,0.1,0,0.1,0.1C66,65.1,66,65.1,65.8,65.1L65.8,65.1z M66.2,65.1C66.2,65.1,66.2,65.1,66.2,65.1c-0.1-0.1-0.1-0.2,0-0.2
			s0.2,0,0.4,0l0,0c0,0,0.1,0,0.1,0.1c0,0.1,0,0.1-0.1,0.1C66.4,65.1,66.3,65.1,66.2,65.1L66.2,65.1z M66.9,65.1
			C66.9,65.1,66.8,65.1,66.9,65.1c-0.1-0.1-0.1-0.2,0-0.2s0.2,0,0.4,0c0,0,0.1,0,0.1,0.1c0,0.1,0,0.1-0.1,0.1
			C67.2,65.1,67,65.1,66.9,65.1L66.9,65.1z M65.2,65.1L65.2,65.1c-0.1,0-0.3,0-0.4,0c-0.1,0-0.1-0.1-0.1-0.1c0-0.1,0.1-0.1,0.1-0.1
			c0.1,0,0.2,0,0.4,0C65.2,64.9,65.3,65,65.2,65.1C65.3,65.1,65.2,65.1,65.2,65.1z M67.6,65.1C67.5,65.1,67.5,65,67.6,65.1
			c-0.1-0.1-0.1-0.2,0-0.2s0.2,0,0.4,0c0,0,0.1,0,0.1,0.1c0,0.1,0,0.1-0.1,0.1C67.8,65,67.7,65,67.6,65.1L67.6,65.1z M64.5,65
			L64.5,65c-0.1,0-0.3,0-0.4-0.1c-0.1,0-0.1-0.1-0.1-0.1c0-0.1,0.1-0.1,0.1-0.1c0.1,0,0.2,0,0.4,0.1C64.6,64.8,64.6,64.9,64.5,65
			C64.6,65,64.6,65,64.5,65z M68.3,65C68.2,65,68.2,64.9,68.3,65c-0.1-0.1-0.1-0.2,0-0.2s0.2,0,0.4-0.1c0,0,0.1,0,0.1,0.1
			c0,0.1,0,0.1-0.1,0.1C68.5,64.9,68.4,65,68.3,65L68.3,65z M63.8,64.9L63.8,64.9c-0.1,0-0.3,0-0.4-0.1c-0.1,0-0.1-0.1-0.1-0.1
			c0-0.1,0.1-0.1,0.1-0.1c0.1,0,0.2,0,0.4,0.1C63.9,64.7,63.9,64.8,63.8,64.9C63.9,64.9,63.8,64.9,63.8,64.9z M68.9,64.9
			C68.9,64.9,68.8,64.8,68.9,64.9c-0.1-0.1-0.1-0.2,0-0.2s0.2,0,0.4-0.1c0.1,0,0.1,0,0.1,0.1c0,0.1,0,0.1-0.1,0.1
			C69.2,64.8,69.1,64.8,68.9,64.9L68.9,64.9z M63.2,64.8L63.2,64.8c-0.1,0-0.3,0-0.4-0.1c-0.1,0-0.1-0.1-0.1-0.1
			c0-0.1,0.1-0.1,0.1-0.1c0.1,0,0.2,0,0.4,0.1C63.2,64.6,63.3,64.6,63.2,64.8C63.2,64.7,63.2,64.8,63.2,64.8z M69.6,64.7L69.6,64.7
			c-0.1-0.1-0.1-0.2,0-0.2s0.2-0.1,0.4-0.1c0,0,0.1,0,0.1,0.1c0,0,0,0.1-0.1,0.1C69.8,64.7,69.8,64.7,69.6,64.7
			C69.7,64.7,69.7,64.7,69.6,64.7z M62.5,64.6L62.5,64.6c-0.1,0-0.3-0.1-0.4-0.1S62,64.4,62,64.4c0-0.1,0.1-0.1,0.1-0.1
			c0.1,0,0.2,0,0.4,0.1C62.6,64.5,62.6,64.5,62.5,64.6C62.6,64.6,62.6,64.6,62.5,64.6z M70.3,64.5C70.2,64.5,70.2,64.5,70.3,64.5
			c-0.1-0.1-0.1-0.2,0-0.2s0.2-0.1,0.3-0.1h0.1v0.1C70.5,64.4,70.4,64.5,70.3,64.5L70.3,64.5z M61.8,64.5L61.8,64.5
			c-0.1,0-0.3-0.1-0.4-0.1l-0.1-0.1c0-0.1,0.1-0.1,0.1-0.1c0.1,0,0.2,0.1,0.4,0.1C61.9,64.3,61.9,64.4,61.8,64.5
			C61.9,64.5,61.9,64.5,61.8,64.5z M61.2,64.3L61.2,64.3l-0.4-0.1l-0.1-0.1l0.1-0.1l0.4,0.1C61.3,64.2,61.3,64.2,61.2,64.3
			C61.3,64.3,61.2,64.3,61.2,64.3z M70.9,64.2L70.9,64.2c-0.1-0.1-0.1-0.1,0-0.2c0.1-0.1,0.2-0.1,0.3-0.2h0.1V64
			C71.1,64.2,71.1,64.2,70.9,64.2C71,64.2,70.9,64.2,70.9,64.2z M60.5,64.2L60.5,64.2l-0.4-0.1l-0.1-0.1l0.1-0.1l0.4,0.1
			C60.5,64.1,60.6,64.1,60.5,64.2C60.5,64.2,60.5,64.2,60.5,64.2z M59.8,64.1L59.8,64.1L59.5,64l-0.1-0.1l0.1-0.1l0.4,0.1
			C59.9,63.9,59.9,64,59.8,64.1C59.9,64.1,59.9,64.1,59.8,64.1z M59.1,63.9L59.1,63.9l-0.4-0.1l-0.1-0.1l0.1-0.1l0.4,0.1
			C59.2,63.8,59.2,63.8,59.1,63.9C59.2,63.9,59.2,63.9,59.1,63.9z M71.4,63.9C71.4,63.9,71.4,63.8,71.4,63.9
			c-0.1-0.1-0.1-0.1-0.1-0.2c0.1-0.1,0.1-0.2,0.2-0.3c0,0,0.1-0.1,0.1,0c0,0,0.1,0.1,0,0.1C71.6,63.6,71.6,63.7,71.4,63.9
			C71.5,63.8,71.4,63.9,71.4,63.9z M58.5,63.8L58.5,63.8l-0.4-0.1L58,63.6l0.1-0.1l0.4,0.1C58.6,63.6,58.6,63.6,58.5,63.8
			C58.6,63.7,58.5,63.8,58.5,63.8z M57.8,63.6L57.8,63.6l-0.4-0.1l-0.1-0.1l0.1-0.1l0.4,0.1C57.9,63.4,57.9,63.5,57.8,63.6
			C57.9,63.6,57.8,63.6,57.8,63.6z M57.2,63.4L57.2,63.4l-0.4-0.1l-0.1-0.1l0.1-0.1l0.4,0.1C57.2,63.2,57.3,63.3,57.2,63.4
			L57.2,63.4z M56.5,63.2L56.5,63.2l-0.4-0.1L56,63l0.1-0.1l0.4,0.1C56.5,63.1,56.5,63.1,56.5,63.2C56.5,63.2,56.5,63.2,56.5,63.2z
			 M71.7,63.2L71.7,63.2C71.6,63.2,71.6,63.1,71.7,63.2L71.6,63c0-0.1,0-0.2,0-0.2c0-0.1,0-0.1,0.1-0.1s0.1,0,0.1,0.1
			S71.8,63,71.7,63.2C71.8,63,71.8,63.1,71.7,63.2C71.8,63.2,71.8,63.2,71.7,63.2z M55.8,63L55.8,63L55.5,63l-0.1-0.1l0.1-0.1
			l0.4,0.1C55.9,63,55.9,63,55.8,63C55.9,63,55.9,63,55.8,63z M55.2,62.8L55.2,62.8l-0.4-0.1l-0.1-0.1l0.1-0.1l0.4,0.1
			C55.3,62.8,55.3,62.8,55.2,62.8C55.3,62.8,55.3,62.8,55.2,62.8z M54.5,62.8L54.5,62.8l-0.4-0.1l-0.1-0.1l0.1-0.1l0.4,0.1
			C54.6,62.6,54.6,62.6,54.5,62.8C54.6,62.7,54.5,62.8,54.5,62.8z M71.6,62.6C71.6,62.6,71.5,62.6,71.6,62.6
			c-0.1-0.2-0.2-0.3-0.3-0.4v-0.1h0.1c0.1,0.1,0.1,0.2,0.2,0.3C71.7,62.5,71.7,62.6,71.6,62.6L71.6,62.6z M53.9,62.6L53.9,62.6
			l-0.4-0.1l-0.1-0.1l0.1-0.1l0.4,0.1C53.9,62.4,54,62.4,53.9,62.6C54,62.5,53.9,62.6,53.9,62.6z M53.1,62.4L53.1,62.4l-0.4-0.1
			l-0.1-0.1l0.1-0.1l0.4,0.1C53.2,62.2,53.3,62.3,53.1,62.4C53.2,62.4,53.2,62.4,53.1,62.4z M52.5,62.3L52.5,62.3l-0.4-0.1
			c-0.1,0-0.1-0.1-0.1-0.1c0-0.1,0.1-0.1,0.1-0.1l0.4,0.1C52.6,62.1,52.6,62.1,52.5,62.3C52.6,62.2,52.6,62.3,52.5,62.3z M51.8,62.1
			L51.8,62.1L51.5,62c-0.1,0-0.1-0.1-0.1-0.1l0.1-0.1l0.4,0.1C51.9,61.9,51.9,62,51.8,62.1C51.9,62.1,51.8,62.1,51.8,62.1z M51.2,62
			L51.2,62l-0.4-0.1c-0.1,0-0.1-0.1-0.1-0.1l0.1-0.1l0.4,0.1C51.2,61.8,51.3,61.8,51.2,62C51.3,61.9,51.2,62,51.2,62z M71.2,62
			C71.2,62,71.2,61.9,71.2,62c-0.1-0.1-0.2-0.2-0.3-0.3v-0.1H71C71.1,61.7,71.2,61.8,71.2,62C71.3,61.8,71.3,61.9,71.2,62
			C71.2,61.9,71.2,62,71.2,62z M50.5,61.8C50.5,61.8,50.5,61.8,50.5,61.8l-0.4-0.1c-0.1,0-0.1-0.1-0.1-0.1l0.1-0.1l0.4,0.1
			C50.5,61.7,50.7,61.8,50.5,61.8L50.5,61.8z M49.8,61.8L49.8,61.8l-0.4-0.1c-0.1,0-0.1-0.1-0.1-0.1l0.1-0.1l0.4,0.1
			C49.9,61.6,49.9,61.6,49.8,61.8C49.9,61.7,49.9,61.8,49.8,61.8z M49.2,61.6L49.2,61.6l-0.4-0.1l-0.1-0.1c0-0.1,0.1-0.1,0.1-0.1
			l0.4,0.1C49.3,61.4,49.3,61.5,49.2,61.6C49.3,61.6,49.3,61.6,49.2,61.6z M70.8,61.5L70.8,61.5c-0.1-0.1-0.2-0.2-0.3-0.3v-0.1h0.1
			C70.7,61.2,70.8,61.3,70.8,61.5C70.9,61.4,70.9,61.4,70.8,61.5C70.9,61.5,70.8,61.5,70.8,61.5z M48.5,61.5L48.5,61.5l-0.4-0.1
			c-0.1,0-0.1-0.1-0.1-0.1l0.1-0.1l0.4,0.1C48.6,61.3,48.6,61.3,48.5,61.5C48.6,61.4,48.5,61.5,48.5,61.5z M47.9,61.3
			C47.9,61.3,47.8,61.3,47.9,61.3l-0.4-0.1c-0.1,0-0.1-0.1-0.1-0.1c0-0.1,0.1-0.1,0.1-0.1l0.4,0.1C47.9,61.1,48,61.2,47.9,61.3
			L47.9,61.3z M47.1,61.2L47.1,61.2l-0.4-0.1c-0.1,0-0.1-0.1-0.1-0.1l0.1-0.1l0.4,0.1C47.2,61,47.2,61,47.1,61.2
			C47.2,61.1,47.2,61.2,47.1,61.2z M46.5,61L46.5,61l-0.4-0.1c-0.1,0-0.1-0.1-0.1-0.1l0.1-0.1l0.4,0.1C46.6,60.8,46.6,60.9,46.5,61
			C46.6,61,46.6,61,46.5,61z M70.3,61C70.2,61,70.2,61,70.3,61c-0.1-0.1-0.2-0.2-0.3-0.3v-0.1h0.1c0.1,0.1,0.2,0.2,0.3,0.2
			C70.4,60.9,70.4,60.9,70.3,61L70.3,61z M45.8,60.9L45.8,60.9l-0.4-0.1c-0.1,0-0.1-0.1-0.1-0.1l0.1-0.1l0.4,0.1
			C45.9,60.7,45.9,60.7,45.8,60.9C45.9,60.8,45.8,60.9,45.8,60.9z M45.2,60.7L45.2,60.7l-0.4-0.1l-0.1-0.1c0-0.1,0.1-0.1,0.1-0.1
			l0.4,0.1C45.2,60.5,45.3,60.6,45.2,60.7L45.2,60.7z M44.5,60.6L44.5,60.6l-0.4-0.1L44,60.5l0.1-0.1l0.4,0.1
			C44.5,60.5,44.5,60.5,44.5,60.6C44.5,60.5,44.5,60.6,44.5,60.6z M69.8,60.5L69.8,60.5l-0.2-0.1v-0.1h0.1L69.8,60.5
			C69.8,60.5,69.8,60.5,69.8,60.5L69.8,60.5z M43.8,60.5L43.8,60.5l-0.4-0.1c-0.1,0-0.1-0.1-0.1-0.1c0-0.1,0.1-0.1,0.1-0.1l0.4,0.1
			C43.9,60.3,43.9,60.4,43.8,60.5C43.9,60.5,43.9,60.5,43.8,60.5z M43.2,60.4L43.2,60.4l-0.4-0.1c-0.1,0-0.1-0.1-0.1-0.1
			c0-0.1,0.1-0.1,0.1-0.1l0.4,0.1C43.3,60.2,43.3,60.2,43.2,60.4C43.3,60.3,43.2,60.4,43.2,60.4z M42.5,60.2L42.5,60.2l-0.4-0.1
			L42.1,60l0.1-0.1l0.4,0.1C42.5,60,42.6,60.1,42.5,60.2C42.6,60.2,42.5,60.2,42.5,60.2z M41.8,60L41.8,60l-0.4-0.1l-0.1-0.1
			l0.1-0.1l0.4,0.1C41.9,59.9,41.9,59.9,41.8,60C41.9,60,41.9,60,41.8,60z M41.1,59.9L41.1,59.9l-0.4-0.1l-0.1-0.1l0.1-0.1l0.4,0.1
			C41.2,59.7,41.2,59.8,41.1,59.9C41.2,59.9,41.2,59.9,41.1,59.9z M40.5,59.7L40.5,59.7l-0.4-0.1L40,59.5l0.1-0.1l0.4,0.1
			C40.6,59.6,40.6,59.6,40.5,59.7C40.6,59.7,40.5,59.7,40.5,59.7z M39.8,59.6L39.8,59.6l-0.4-0.1c-0.1,0-0.1-0.1-0.1-0.1l0.1-0.1
			l0.4,0.1C39.8,59.4,39.9,59.5,39.8,59.6C39.9,59.6,39.8,59.6,39.8,59.6z M39.2,59.4C39.1,59.4,39.1,59.4,39.2,59.4l-0.4-0.1
			c-0.1,0-0.1-0.1-0.1-0.1l0.1-0.1l0.4,0.1C39.2,59.3,39.3,59.3,39.2,59.4L39.2,59.4z M38.5,59.3L38.5,59.3l-0.4-0.1L38,59.2
			c0-0.1,0.1-0.1,0.1-0.1l0.4,0.1C38.5,59.2,38.5,59.2,38.5,59.3C38.5,59.3,38.5,59.3,38.5,59.3z M37.8,59.2L37.8,59.2h-0.4
			l-0.1-0.1l0.1-0.1L37.8,59.2C37.9,59.1,37.9,59.1,37.8,59.2C37.9,59.2,37.8,59.2,37.8,59.2z M37.2,59.1L37.2,59.1L36.8,59
			c-0.1,0-0.1-0.1-0.1-0.1l0.1-0.1l0.4,0.1C37.2,58.9,37.3,59,37.2,59.1C37.3,59.1,37.2,59.1,37.2,59.1z M36.5,58.9
			C36.4,58.9,36.4,58.9,36.5,58.9l-0.4-0.1l-0.1-0.1l0.1-0.1l0.4,0.1C36.5,58.8,36.6,58.8,36.5,58.9L36.5,58.9z M35.8,58.8
			L35.8,58.8l-0.4-0.1l-0.1-0.1c0-0.1,0.1-0.1,0.1-0.1l0.4,0.1C35.9,58.6,35.9,58.7,35.8,58.8C35.9,58.8,35.9,58.8,35.8,58.8z
			 M35.1,58.6L35.1,58.6l-0.4-0.1l-0.1-0.1c0-0.1,0.1-0.1,0.1-0.1l0.4,0.1C35.2,58.5,35.2,58.5,35.1,58.6
			C35.2,58.6,35.2,58.6,35.1,58.6z M34.5,58.5L34.5,58.5l-0.4-0.1L34,58.3l0.1-0.1l0.4,0.1C34.6,58.3,34.6,58.4,34.5,58.5
			C34.6,58.5,34.5,58.5,34.5,58.5z M33.8,58.3C33.8,58.3,33.8,58.3,33.8,58.3l-0.4-0.1c-0.1,0-0.1-0.1-0.1-0.1
			c0-0.1,0.1-0.1,0.1-0.1l0.4,0.1C33.8,58.2,33.9,58.2,33.8,58.3L33.8,58.3z M33.1,58.2L33.1,58.2l-0.3-0.1c-0.1,0-0.1-0.1-0.1-0.1
			c0-0.1,0.1-0.1,0.1-0.1l0.4,0.1C33.2,58,33.2,58.1,33.1,58.2C33.2,58.1,33.2,58.2,33.1,58.2z M32.5,58L32.5,58L32.1,58
			C32,58,32,57.9,32,57.9l0.1-0.1l0.4,0.1C32.5,58,32.5,58,32.5,58C32.5,58,32.5,58,32.5,58z M31.8,58L31.8,58l-0.4-0.1l-0.1-0.1
			c0-0.1,0.1-0.1,0.1-0.1l0.4,0.1C31.9,57.8,31.9,57.9,31.8,58C31.9,57.9,31.8,58,31.8,58z M31.2,57.8L31.2,57.8l-0.4-0.1l-0.1-0.1
			l0.1-0.1l0.4,0.1C31.2,57.7,31.3,57.7,31.2,57.8L31.2,57.8z M30.4,57.7L30.4,57.7L30,57.6L30,57.5l0.1-0.1l0.4,0.1
			C30.5,57.5,30.5,57.6,30.4,57.7C30.5,57.6,30.5,57.7,30.4,57.7z M29.8,57.5L29.8,57.5l-0.4-0.1l-0.1-0.1c0-0.1,0.1-0.1,0.1-0.1
			l0.4,0.1C29.9,57.4,29.9,57.4,29.8,57.5C29.9,57.5,29.9,57.5,29.8,57.5z M29.1,57.4L29.1,57.4l-0.4-0.1c-0.1,0-0.1-0.1-0.1-0.1
			c0-0.1,0.1-0.1,0.1-0.1l0.4,0.1C29.2,57.2,29.2,57.2,29.1,57.4C29.2,57.3,29.1,57.4,29.1,57.4z M28.5,57.2L28.5,57.2l-0.4-0.1
			C28,57.1,28,57,28,57l0.1-0.1l0.4,0.1C28.5,57,28.6,57.1,28.5,57.2C28.6,57.2,28.5,57.2,28.5,57.2z M27.8,57.1L27.8,57.1L27.4,57
			c-0.1,0-0.1-0.1-0.1-0.1l0.1-0.1l0.4,0.1C27.8,56.9,27.8,56.9,27.8,57.1C27.8,57,27.8,57.1,27.8,57.1z M27.1,56.9L27.1,56.9
			l-0.4-0.1c-0.1,0-0.1-0.1-0.1-0.1l0.1-0.1l0.4,0.1C27.2,56.8,27.2,56.8,27.1,56.9C27.2,56.9,27.2,56.9,27.1,56.9z M26.5,56.8
			L26.5,56.8l-0.4-0.1L26,56.7c0-0.1,0.1-0.1,0.1-0.1l0.4,0.1C26.5,56.7,26.5,56.7,26.5,56.8C26.5,56.8,26.5,56.8,26.5,56.8z
			 M25.8,56.7L25.8,56.7l-0.4-0.1l-0.1-0.1l0.1-0.1l0.4,0.1C25.8,56.5,25.9,56.6,25.8,56.7C25.9,56.7,25.8,56.7,25.8,56.7z
			 M25.2,56.6C25.1,56.6,25.1,56.6,25.2,56.6l-0.4-0.1l-0.1-0.1l0.1-0.1l0.4,0.1C25.2,56.4,25.2,56.4,25.2,56.6
			C25.2,56.5,25.2,56.6,25.2,56.6z M24.4,56.4L24.4,56.4L24,56.3c-0.1,0-0.1-0.1-0.1-0.1l0.1-0.1l0.4,0.1
			C24.5,56.2,24.5,56.3,24.4,56.4C24.5,56.4,24.5,56.4,24.4,56.4z M23.8,56.3L23.8,56.3l-0.4-0.1c-0.1,0-0.1-0.1-0.1-0.1l0.1-0.1
			l0.4,0.1C23.9,56.1,23.9,56.1,23.8,56.3C23.9,56.2,23.8,56.3,23.8,56.3z M23.1,56.1L23.1,56.1L22.8,56c-0.1,0-0.1-0.1-0.1-0.1
			l0.1-0.1l0.4,0.1C23.1,55.9,23.2,56,23.1,56.1C23.2,56.1,23.1,56.1,23.1,56.1z M22.5,56C22.4,56,22.4,56,22.5,56l-0.4-0.1
			c-0.1,0-0.1-0.1-0.1-0.1l0.1-0.1l0.4,0.1C22.5,55.8,22.6,55.8,22.5,56C22.5,55.9,22.5,56,22.5,56z"/>
	</g>
	<g id="XMLID_199_">
		<path id="XMLID_200_" class="st0" d="M22.1,41.6C22,41.6,22,41.6,22.1,41.6c-0.1-0.1-0.1-0.2,0-0.2h0.4c0.1,0,0.1,0,0.1,0.1
			s0,0.1-0.1,0.1H22.1L22.1,41.6z M22.8,41.5L22.8,41.5c-0.1-0.1-0.1-0.2,0-0.2h0.4c0.1,0,0.1,0,0.1,0.1s0,0.1-0.1,0.1H22.8
			L22.8,41.5z M23.5,41.4C23.4,41.4,23.4,41.4,23.5,41.4c-0.1-0.1-0.1-0.2,0-0.2h0.4c0.1,0,0.1,0,0.1,0.1s0,0.1-0.1,0.1H23.5
			L23.5,41.4z M24.1,41.4C24.1,41.4,24,41.3,24.1,41.4c-0.1-0.1-0.1-0.2,0-0.2h0.4c0,0,0.1,0,0.1,0.1s0,0.1-0.1,0.1H24.1L24.1,41.4z
			 M24.9,41.3C24.8,41.3,24.8,41.3,24.9,41.3c-0.1-0.1-0.1-0.2,0-0.2h0.4c0.1,0,0.1,0,0.1,0.1s0,0.1-0.1,0.1H24.9L24.9,41.3z
			 M25.5,41.2C25.4,41.2,25.4,41.2,25.5,41.2c-0.1-0.1-0.1-0.2,0-0.2h0.4c0.1,0,0.1,0,0.1,0.1s0,0.1-0.1,0.1H25.5L25.5,41.2z
			 M26.2,41.2C26.2,41.2,26.1,41.2,26.2,41.2c-0.1-0.1-0.1-0.2,0-0.2h0.4c0.1,0,0.1,0,0.1,0.1s0,0.1-0.1,0.1H26.2L26.2,41.2z
			 M26.9,41.2C26.8,41.2,26.8,41.2,26.9,41.2c-0.1-0.1-0.1-0.2,0-0.2h0.4c0.1,0,0.1,0,0.1,0.1s0,0.1-0.1,0.1H26.9L26.9,41.2z
			 M27.6,41.1C27.6,41.1,27.5,41.1,27.6,41.1c-0.1-0.1-0.1-0.2,0-0.2h0.4c0.1,0,0.1,0,0.1,0.1s0,0.1-0.1,0.1H27.6L27.6,41.1z
			 M28.2,41L28.2,41C28.1,40.9,28.2,40.9,28.2,41l0.4-0.1c0.1,0,0.1,0,0.1,0.1s0,0.1-0.1,0.1L28.2,41L28.2,41z M29,41
			C28.9,41,28.9,40.9,29,41c-0.1-0.1-0.1-0.2,0-0.2h0.4c0.1,0,0.1,0,0.1,0.1s0,0.1-0.1,0.1H29L29,41z M29.6,40.9
			C29.6,40.9,29.5,40.9,29.6,40.9c-0.1-0.1-0.1-0.2,0-0.2H30c0.1,0,0.1,0,0.1,0.1s0,0.1-0.1,0.1H29.6L29.6,40.9z M30.2,40.8
			L30.2,40.8c-0.1-0.1-0.1-0.2,0-0.2h0.4c0.1,0,0.1,0,0.1,0.1s0,0.1-0.1,0.1H30.2C30.3,40.8,30.3,40.8,30.2,40.8z M31,40.7
			C30.9,40.7,30.9,40.7,31,40.7c-0.1-0.1-0.1-0.2,0-0.2h0.4c0.1,0,0.1,0,0.1,0.1s0,0.1-0.1,0.1H31L31,40.7z M31.6,40.7
			C31.6,40.7,31.5,40.6,31.6,40.7c-0.1-0.1-0.1-0.2,0-0.2H32c0,0,0.1,0,0.1,0.1s0,0.1-0.1,0.1H31.6L31.6,40.7z M32.4,40.6
			C32.3,40.6,32.3,40.6,32.4,40.6c-0.1-0.1-0.1-0.2,0-0.2h0.4c0.1,0,0.1,0,0.1,0.1s0,0.1-0.1,0.1H32.4L32.4,40.6z M33,40.5
			C32.9,40.5,32.9,40.5,33,40.5c-0.1-0.1-0.1-0.2,0-0.2h0.4c0.1,0,0.1,0,0.1,0.1s0,0.1-0.1,0.1H33L33,40.5z M33.7,40.4
			C33.7,40.4,33.6,40.4,33.7,40.4c-0.1-0.1-0.1-0.2,0-0.2H34c0.1,0,0.1,0,0.1,0.1s0,0.1-0.1,0.1H33.7L33.7,40.4z M34.4,40.4
			C34.3,40.4,34.3,40.3,34.4,40.4c-0.1-0.1-0.1-0.2,0-0.2h0.4c0,0,0.1,0,0.1,0.1s0,0.1-0.1,0.1H34.4L34.4,40.4z M35,40.3
			C35,40.3,35,40.2,35,40.3c-0.1-0.1-0.1-0.2,0-0.2h0.4c0,0,0.1,0,0.1,0.1s0,0.1-0.1,0.1H35L35,40.3z M35.7,40.2
			C35.7,40.2,35.7,40.1,35.7,40.2c-0.1-0.1-0.1-0.2,0-0.2h0.4c0,0,0.1,0,0.1,0.1s0,0.1-0.1,0.1H35.7L35.7,40.2z M36.4,40.1
			C36.3,40.1,36.3,40.1,36.4,40.1c-0.1-0.1-0.1-0.2,0-0.2h0.4c0.1,0,0.1,0,0.1,0.1s0,0.1-0.1,0.1H36.4L36.4,40.1z M37.1,40
			C37.1,40,37,40,37.1,40c-0.1-0.1-0.1-0.2,0-0.2h0.4c0.1,0,0.1,0,0.1,0.1s0,0.1-0.1,0.1H37.1L37.1,40z M37.7,40L37.7,40
			c-0.1-0.1-0.1-0.2,0-0.2h0.4c0.1,0,0.1,0,0.1,0.1s0,0.1-0.1,0.1H37.7C37.8,40,37.7,40,37.7,40z M38.5,39.9
			C38.4,39.9,38.4,39.9,38.5,39.9c-0.1-0.1-0.1-0.2,0-0.2h0.4c0.1,0,0.1,0,0.1,0.1s0,0.1-0.1,0.1H38.5L38.5,39.9z M39.1,39.8
			C39.1,39.8,39,39.8,39.1,39.8c-0.1-0.1-0.1-0.2,0-0.2s0.2,0,0.4-0.1c0.1,0,0.1,0,0.1,0.1s0,0.1-0.1,0.1
			C39.4,39.8,39.3,39.8,39.1,39.8L39.1,39.8z M39.8,39.7L39.8,39.7c-0.1-0.1-0.1-0.2,0-0.2s0.3,0,0.4-0.1c0,0,0.1,0,0.1,0.1
			s0,0.1-0.1,0.1C40,39.7,39.9,39.7,39.8,39.7C39.8,39.7,39.8,39.7,39.8,39.7z M40.5,39.6C40.4,39.6,40.4,39.6,40.5,39.6
			c-0.1-0.1-0.1-0.2,0-0.2s0.3-0.1,0.4-0.1c0,0,0.1,0,0.1,0.1c0,0,0,0.1-0.1,0.1C40.8,39.5,40.6,39.6,40.5,39.6L40.5,39.6z
			 M41.1,39.4C41.1,39.4,41,39.4,41.1,39.4c-0.1-0.1-0.1-0.2,0-0.2l0.3-0.1c0,0,0.1,0,0.1,0.1s0,0.1-0.1,0.1L41.1,39.4L41.1,39.4z
			 M41.8,39.1C41.8,39.1,41.7,39.1,41.8,39.1c-0.1-0.1-0.1-0.2,0-0.2s0.2-0.1,0.3-0.1c0,0,0.1,0,0.1,0.1c0,0,0,0.1-0.1,0.1
			C42.1,39,41.9,39.1,41.8,39.1L41.8,39.1z M42.4,38.9C42.3,38.9,42.3,38.8,42.4,38.9c-0.1-0.1-0.1-0.2,0-0.2s0.2-0.1,0.3-0.2h0.1
			v0.1C42.6,38.8,42.5,38.8,42.4,38.9L42.4,38.9z M43,38.6L43,38.6c-0.1-0.1-0.1-0.1,0-0.2s0.2-0.1,0.3-0.2h0.1v0.1
			C43.3,38.5,43.2,38.5,43,38.6C43.1,38.6,43.1,38.6,43,38.6z M43.5,38.2L43.5,38.2c-0.1-0.1-0.1-0.1-0.1-0.2
			c0.1-0.1,0.2-0.2,0.3-0.3h0.1v0.1C43.8,38,43.7,38.1,43.5,38.2C43.6,38.2,43.5,38.2,43.5,38.2z M44,37.7L44,37.7
			C43.9,37.7,43.9,37.6,44,37.7c0-0.2,0-0.3,0.1-0.4c0,0,0.1-0.1,0.1,0c0,0,0.1,0.1,0,0.1C44.2,37.5,44.2,37.5,44,37.7
			C44.1,37.7,44,37.7,44,37.7z M44.4,37.1C44.3,37.1,44.3,37.1,44.4,37.1C44.3,37.1,44.3,37,44.4,37.1c-0.1-0.2,0-0.3,0-0.4l0.1-0.1
			l0.1,0.1C44.5,36.8,44.5,36.9,44.4,37.1L44.4,37.1z M44.5,36.5C44.5,36.5,44.5,36.5,44.5,36.5C44.5,36.5,44.5,36.4,44.5,36.5
			c-0.1-0.2-0.1-0.3,0-0.5c0-0.1,0.1-0.1,0.1-0.1c0.1,0,0.1,0.1,0.1,0.1C44.6,36.2,44.6,36.3,44.5,36.5
			C44.5,36.3,44.5,36.5,44.5,36.5z M44.5,35.7L44.5,35.7C44.5,35.7,44.5,35.7,44.5,35.7L44.5,35.7c-0.1-0.2-0.1-0.3-0.1-0.4
			s0-0.1,0.1-0.1l0,0c0.1,0,0.1,0,0.1,0.1S44.6,35.5,44.5,35.7L44.5,35.7C44.6,35.7,44.6,35.7,44.5,35.7z M44.5,35.1L44.5,35.1
			c-0.1-0.2-0.1-0.3-0.1-0.5c0-0.1,0-0.1,0.1-0.1s0.1,0,0.1,0.1C44.6,34.8,44.6,34.9,44.5,35.1C44.6,35.1,44.6,35.1,44.5,35.1
			L44.5,35.1z M44.5,34.4C44.5,34.4,44.5,34.3,44.5,34.4c-0.1-0.2-0.1-0.3-0.1-0.5c0-0.1,0-0.1,0.1-0.1c0,0,0.1,0,0.1,0.1
			S44.6,34.1,44.5,34.4C44.6,34.3,44.6,34.4,44.5,34.4L44.5,34.4z M44.5,33.7C44.5,33.7,44.5,33.7,44.5,33.7
			c-0.1-0.2-0.1-0.3-0.1-0.5c0-0.1,0-0.1,0.1-0.1s0.1,0,0.1,0.1C44.6,33.4,44.6,33.5,44.5,33.7C44.6,33.7,44.5,33.7,44.5,33.7
			L44.5,33.7z M44.5,33C44.5,33,44.4,32.9,44.5,33c-0.1-0.2-0.1-0.3-0.1-0.5c0-0.1,0-0.1,0.1-0.1c0,0,0.1,0,0.1,0.1
			C44.5,32.7,44.5,32.8,44.5,33C44.5,32.9,44.5,33,44.5,33L44.5,33z M44.5,32.3C44.4,32.3,44.4,32.3,44.5,32.3l-0.1-0.5
			c0-0.1,0-0.1,0.1-0.1s0.1,0,0.1,0.1L44.5,32.3C44.5,32.3,44.5,32.3,44.5,32.3L44.5,32.3z M44.4,31.6
			C44.4,31.6,44.3,31.6,44.4,31.6l-0.1-0.5c0-0.1,0-0.1,0.1-0.1s0.1,0,0.1,0.1L44.4,31.6C44.5,31.6,44.5,31.6,44.4,31.6L44.4,31.6z
			 M44.3,31C44.3,31,44.3,30.9,44.3,31l-0.1-0.5c0-0.1,0-0.1,0.1-0.1s0.1,0,0.1,0.1L44.3,31C44.4,30.9,44.4,31,44.3,31
			C44.4,31,44.3,31,44.3,31z M44.3,30.3C44.2,30.3,44.2,30.3,44.3,30.3l-0.1-0.5c0-0.1,0-0.1,0.1-0.1s0.1,0,0.1,0.1L44.3,30.3
			C44.4,30.3,44.3,30.3,44.3,30.3L44.3,30.3z M44.2,29.6C44.1,29.6,44.1,29.6,44.2,29.6l-0.1-0.5c0-0.1,0-0.1,0.1-0.1
			c0,0,0.1,0,0.1,0.1L44.2,29.6C44.3,29.5,44.3,29.6,44.2,29.6L44.2,29.6z M44.1,29C44.1,29,44,28.9,44.1,29L44,28.6
			c0-0.1,0-0.1,0.1-0.1s0.1,0,0.1,0.1L44.1,29C44.2,28.9,44.2,28.9,44.1,29L44.1,29z M44,28.2C44,28.2,43.9,28.2,44,28.2l-0.1-0.4
			c0-0.1,0-0.1,0.1-0.1s0.1,0,0.1,0.1L44,28.2C44.1,28.2,44.1,28.2,44,28.2L44,28.2z M43.9,27.6C43.9,27.6,43.9,27.5,43.9,27.6
			l-0.1-0.4c0-0.1,0-0.1,0.1-0.1s0.1,0,0.1,0.1L43.9,27.6C44,27.5,44,27.6,43.9,27.6C44,27.6,43.9,27.6,43.9,27.6z M43.9,26.8
			C43.8,26.8,43.8,26.8,43.9,26.8l-0.1-0.4c0-0.1,0-0.1,0.1-0.1s0.1,0,0.1,0.1L43.9,26.8L43.9,26.8L43.9,26.8z M43.8,26.2
			C43.7,26.2,43.7,26.2,43.8,26.2l-0.1-0.4c0-0.1,0-0.1,0.1-0.1s0.1,0,0.1,0.1L43.8,26.2L43.8,26.2L43.8,26.2z M43.7,25.5
			C43.6,25.5,43.6,25.5,43.7,25.5l-0.1-0.4c0-0.1,0-0.1,0.1-0.1s0.1,0,0.1,0.1L43.7,25.5C43.8,25.5,43.7,25.5,43.7,25.5L43.7,25.5z
			 M43.6,24.8C43.5,24.8,43.5,24.8,43.6,24.8l-0.1-0.4l0,0c0,0,0-0.1,0.1-0.1c0,0,0.1,0,0.1,0.1L43.6,24.8
			C43.7,24.8,43.6,24.8,43.6,24.8L43.6,24.8z"/>
	</g>
	<g id="XMLID_197_">
		<path id="XMLID_198_" class="st0" d="M24.4,71.7C24.3,71.7,24.3,71.7,24.4,71.7c-0.1,0-0.2-0.1-0.3-0.4v-0.1h0.1
			c0.1,0.2,0.2,0.3,0.2,0.3C24.5,71.6,24.4,71.6,24.4,71.7L24.4,71.7z M24,71.1C24,71.1,24,71.1,24,71.1c-0.1-0.1-0.2-0.3-0.2-0.4
			v-0.1H24c0.1,0.1,0.1,0.2,0.2,0.3C24.1,71,24.1,71.1,24,71.1L24,71.1z M23.8,70.5C23.7,70.5,23.7,70.5,23.8,70.5
			c-0.1-0.2-0.2-0.3-0.2-0.4v-0.1h0.1c0.1,0.1,0.1,0.2,0.2,0.3C23.9,70.4,23.8,70.4,23.8,70.5L23.8,70.5z M23.5,69.9
			C23.4,69.9,23.4,69.9,23.5,69.9c-0.1-0.2-0.2-0.3-0.2-0.4c0,0,0-0.1,0.1-0.1c0,0,0.1,0,0.1,0.1S23.6,69.7,23.5,69.9L23.5,69.9
			L23.5,69.9z M23.2,69.2C23.2,69.2,23.1,69.2,23.2,69.2C23.1,69,23,68.9,23,68.8c0,0,0-0.1,0.1-0.1c0,0,0.1,0,0.1,0.1
			S23.3,69,23.2,69.2C23.3,69.1,23.3,69.2,23.2,69.2L23.2,69.2z M22.9,68.6L22.9,68.6c-0.1-0.2-0.2-0.3-0.2-0.4c0,0,0-0.1,0.1-0.1
			c0,0,0.1,0,0.1,0.1S23,68.4,22.9,68.6C23,68.5,23,68.6,22.9,68.6C23,68.6,23,68.6,22.9,68.6z M22.8,67.9
			C22.8,67.9,22.7,67.9,22.8,67.9c-0.1-0.2-0.2-0.3-0.2-0.4c0,0,0-0.1,0.1-0.1c0,0,0.1,0,0.1,0.1S22.9,67.7,22.8,67.9
			C22.9,67.8,22.9,67.9,22.8,67.9L22.8,67.9z M22.6,67.3C22.6,67.3,22.5,67.3,22.6,67.3c-0.1-0.2-0.2-0.3-0.2-0.4c0,0,0-0.1,0.1-0.1
			c0,0,0.1,0,0.1,0.1C22.6,67,22.7,67.1,22.6,67.3C22.7,67.2,22.7,67.3,22.6,67.3L22.6,67.3z M22.4,66.6
			C22.3,66.6,22.3,66.6,22.4,66.6c-0.1-0.2-0.2-0.3-0.2-0.4c0,0,0-0.1,0.1-0.1c0,0,0.1,0,0.1,0.1C22.4,66.4,22.5,66.4,22.4,66.6
			C22.5,66.6,22.5,66.6,22.4,66.6L22.4,66.6z M22.2,66C22.2,66,22.1,65.9,22.2,66c-0.1-0.2-0.1-0.3-0.2-0.4c0,0,0-0.1,0.1-0.1
			c0,0,0.1,0,0.1,0.1S22.3,65.8,22.2,66C22.3,65.9,22.3,66,22.2,66L22.2,66z M22,65.3C22,65.3,21.9,65.2,22,65.3
			c-0.1-0.2-0.1-0.3-0.2-0.4c0,0,0-0.1,0.1-0.1c0,0,0.1,0,0.1,0.1C22,65.1,22.1,65.2,22,65.3C22.1,65.2,22.1,65.2,22,65.3L22,65.3z
			 M21.9,64.6C21.8,64.6,21.8,64.6,21.9,64.6c-0.2-0.2-0.2-0.3-0.2-0.4c0-0.1,0-0.1,0.1-0.1c0,0,0.1,0,0.1,0.1
			C21.9,64.3,22,64.4,21.9,64.6L21.9,64.6L21.9,64.6z M21.7,64C21.7,64,21.6,64,21.7,64c-0.1-0.2-0.1-0.3-0.2-0.4
			c0-0.1,0-0.1,0.1-0.1s0.1,0,0.1,0.1S21.7,63.8,21.7,64C21.8,64,21.8,64,21.7,64L21.7,64z M21.6,63.3
			C21.6,63.3,21.6,63.3,21.6,63.3c-0.1-0.2-0.1-0.3-0.2-0.4c0-0.1,0-0.1,0.1-0.1s0.1,0,0.1,0.1S21.6,63.1,21.6,63.3
			C21.7,63.2,21.6,63.3,21.6,63.3L21.6,63.3z M21.5,62.7C21.5,62.7,21.5,62.6,21.5,62.7c-0.1-0.2-0.1-0.3-0.2-0.4
			c0-0.1,0-0.1,0.1-0.1s0.1,0,0.1,0.1S21.5,62.5,21.5,62.7C21.6,62.6,21.6,62.6,21.5,62.7C21.6,62.7,21.6,62.7,21.5,62.7z
			 M21.4,61.9C21.4,61.9,21.3,61.9,21.4,61.9c-0.1-0.2-0.1-0.3-0.1-0.4s0-0.1,0.1-0.1s0.1,0,0.1,0.1s0,0.2,0.1,0.4
			C21.5,61.9,21.5,61.9,21.4,61.9L21.4,61.9z M21.3,61.3C21.3,61.3,21.2,61.3,21.3,61.3c-0.1-0.2-0.1-0.3-0.1-0.4s0-0.1,0.1-0.1
			s0.1,0,0.1,0.1s0,0.2,0.1,0.4C21.4,61.2,21.4,61.3,21.3,61.3L21.3,61.3z M21.2,60.6C21.2,60.6,21.1,60.5,21.2,60.6
			c-0.1-0.2-0.1-0.3-0.1-0.4s0-0.1,0.1-0.1s0.1,0,0.1,0.1S21.3,60.5,21.2,60.6C21.3,60.5,21.3,60.6,21.2,60.6L21.2,60.6z M21.1,59.9
			C21.1,59.9,21,59.9,21.1,59.9L21,59.5c0-0.1,0-0.1,0.1-0.1s0.1,0,0.1,0.1L21.1,59.9C21.2,59.9,21.2,59.9,21.1,59.9L21.1,59.9z"/>
	</g>
	<g id="XMLID_195_">
		<path id="XMLID_196_" class="st0" d="M74.3,78.4L74.3,78.4c-0.1,0-0.2,0-0.2-0.1s0-0.1,0.1-0.1h0.1h0.3c0,0,0.1,0,0.1,0.1
			s0,0.1-0.1,0.1H74.3z M73.9,78.4L73.9,78.4c-0.1,0-0.2,0-0.4,0c-0.1,0-0.1,0-0.1-0.1s0-0.1,0.1-0.1l0,0c0.1,0,0.2,0,0.4,0
			C74,78.2,74,78.2,73.9,78.4C74,78.3,74,78.4,73.9,78.4z M74.9,78.4C74.9,78.4,74.8,78.3,74.9,78.4c-0.1-0.1-0.1-0.2,0-0.2
			s0.2,0,0.4,0l0,0c0.1,0,0.1,0,0.1,0.1s0,0.1-0.1,0.1C75.2,78.3,75,78.3,74.9,78.4L74.9,78.4z M73.3,78.3L73.3,78.3
			c-0.1,0-0.2,0-0.4,0c-0.1,0-0.1,0-0.1-0.1s0-0.1,0.1-0.1s0.2,0,0.4,0C73.3,78.2,73.4,78.2,73.3,78.3
			C73.4,78.3,73.3,78.3,73.3,78.3z M75.7,78.3C75.6,78.3,75.6,78.3,75.7,78.3c-0.1-0.1-0.1-0.2,0-0.2s0.2,0,0.4,0c0,0,0.1,0,0.1,0.1
			s0,0.1-0.1,0.1C75.8,78.3,75.8,78.3,75.7,78.3L75.7,78.3z M72.5,78.3L72.5,78.3c-0.1,0-0.3,0-0.4,0c-0.1,0-0.1,0-0.1-0.1
			s0-0.1,0.1-0.1s0.2,0,0.4,0C72.6,78.1,72.6,78.2,72.5,78.3C72.6,78.3,72.6,78.3,72.5,78.3z M76.3,78.3
			C76.2,78.3,76.2,78.3,76.3,78.3c-0.1-0.1-0.1-0.2,0-0.2s0.2,0,0.4,0c0.1,0,0.1,0,0.1,0.1s0,0.1-0.1,0.1
			C76.5,78.3,76.4,78.3,76.3,78.3L76.3,78.3z M71.9,78.3L71.9,78.3c-0.1,0-0.3,0-0.4,0c-0.1,0-0.1,0-0.1-0.1s0-0.1,0.1-0.1
			s0.2,0,0.4,0C71.9,78.1,72,78.2,71.9,78.3C72,78.3,71.9,78.3,71.9,78.3z M77,78.3C77,78.3,76.9,78.2,77,78.3
			c-0.1-0.1-0.1-0.2,0-0.2s0.2,0,0.4,0c0.1,0,0.1,0,0.1,0.1s0,0.1-0.1,0.1S77.2,78.3,77,78.3L77,78.3z M71.1,78.3L71.1,78.3
			c-0.1,0-0.3,0-0.4,0s-0.1,0-0.1-0.1s0.1-0.1,0.1-0.1c0.1,0,0.2,0,0.4,0C71.2,78.1,71.2,78.1,71.1,78.3
			C71.2,78.2,71.2,78.3,71.1,78.3z M77.7,78.2C77.6,78.2,77.6,78.2,77.7,78.2c-0.1-0.1-0.1-0.2,0-0.2s0.2,0,0.4,0
			c0.1,0,0.1,0,0.1,0.1s0,0.1-0.1,0.1C77.9,78.2,77.8,78.2,77.7,78.2L77.7,78.2z M70.5,78.2L70.5,78.2h-0.4c-0.1,0-0.1,0-0.1-0.1
			s0.1-0.1,0.1-0.1h0.4C70.6,78,70.6,78.1,70.5,78.2C70.6,78.2,70.6,78.2,70.5,78.2z M78.3,78.2C78.3,78.2,78.2,78.1,78.3,78.2
			c-0.1-0.1-0.1-0.2,0-0.2s0.2,0,0.4,0c0,0,0.1,0,0.1,0.1s0,0.1-0.1,0.1C78.6,78.2,78.4,78.2,78.3,78.2L78.3,78.2z M69.8,78.1
			L69.8,78.1c-0.1,0-0.3,0-0.4,0c-0.1,0-0.1,0-0.1-0.1s0.1-0.1,0.1-0.1c0.1,0,0.2,0,0.4,0C69.8,78,69.9,78,69.8,78.1
			C69.9,78.1,69.8,78.1,69.8,78.1z M79,78.1L79,78.1c-0.1-0.1-0.1-0.2,0-0.2s0.2,0,0.4,0c0,0,0.1,0,0.1,0.1s0,0.1-0.1,0.1
			S79.2,78.1,79,78.1L79,78.1z M69.1,78.1L69.1,78.1c-0.1,0-0.3,0-0.4,0c-0.1,0-0.1-0.1-0.1-0.1c0-0.1,0.1-0.1,0.1-0.1
			c0.1,0,0.2,0,0.4,0C69.2,77.9,69.2,77.9,69.1,78.1C69.2,78,69.2,78.1,69.1,78.1z M79.7,78C79.6,78,79.6,78,79.7,78
			c-0.1-0.1-0.1-0.2,0-0.2s0.2,0,0.4,0c0,0,0.1,0,0.1,0.1s0,0.1-0.1,0.1C79.9,78,79.8,78,79.7,78L79.7,78z M68.5,78L68.5,78
			c-0.1,0-0.3,0-0.4,0C68,78,68,77.9,68,77.9c0-0.1,0.1-0.1,0.1-0.1c0.1,0,0.2,0,0.4,0C68.6,77.8,68.6,77.9,68.5,78
			C68.6,78,68.5,78,68.5,78z M80.4,78C80.4,78,80.3,77.9,80.4,78c-0.1-0.1-0.1-0.2,0-0.2s0.2,0,0.4,0c0.1,0,0.1,0,0.1,0.1
			s0,0.1-0.1,0.1C80.7,77.9,80.5,77.9,80.4,78L80.4,78z M67.8,77.9L67.8,77.9c-0.1,0-0.3,0-0.4,0c-0.1,0-0.1-0.1-0.1-0.1
			c0-0.1,0.1-0.1,0.1-0.1c0.1,0,0.2,0,0.4,0C67.8,77.7,67.9,77.8,67.8,77.9C67.9,77.9,67.8,77.9,67.8,77.9z M81,77.9
			C81,77.9,81,77.8,81,77.9c-0.1-0.1-0.1-0.2,0-0.2s0.2,0,0.4-0.1c0,0,0.1,0,0.1,0.1s0,0.1-0.1,0.1S81.2,77.8,81,77.9
			C81.1,77.9,81.1,77.9,81,77.9z M67.1,77.8L67.1,77.8c-0.1,0-0.3,0-0.4-0.1c-0.1,0-0.1-0.1-0.1-0.1c0-0.1,0.1-0.1,0.1-0.1
			c0.1,0,0.2,0,0.4,0.1C67.2,77.6,67.2,77.7,67.1,77.8C67.2,77.8,67.2,77.8,67.1,77.8z M81.8,77.8C81.7,77.8,81.7,77.7,81.8,77.8
			c-0.1-0.1-0.1-0.2,0-0.2s0.2,0,0.4-0.1c0,0,0.1,0,0.1,0.1s0,0.1-0.1,0.1C81.9,77.7,81.8,77.7,81.8,77.8L81.8,77.8z M66.4,77.7
			L66.4,77.7h-0.4c-0.1,0-0.1-0.1-0.1-0.1c0-0.1,0.1-0.1,0.1-0.1L66.4,77.7C66.5,77.5,66.5,77.6,66.4,77.7
			C66.5,77.7,66.4,77.7,66.4,77.7z M82.4,77.6C82.4,77.6,82.3,77.6,82.4,77.6c-0.1-0.1-0.1-0.2,0-0.2s0.2,0,0.4-0.1
			c0,0,0.1,0,0.1,0.1s0,0.1-0.1,0.1C82.7,77.6,82.5,77.6,82.4,77.6L82.4,77.6z M65.8,77.6L65.8,77.6l-0.4-0.1
			c-0.1,0-0.1-0.1-0.1-0.1c0-0.1,0.1-0.1,0.1-0.1l0.4,0.1C65.8,77.4,65.9,77.5,65.8,77.6C65.9,77.6,65.8,77.6,65.8,77.6z M83.1,77.5
			L83.1,77.5c-0.1-0.1-0.1-0.2,0-0.2s0.2,0,0.4-0.1c0,0,0.1,0,0.1,0.1s0,0.1-0.1,0.1C83.3,77.5,83.2,77.5,83.1,77.5L83.1,77.5z
			 M65.1,77.5L65.1,77.5c-0.1,0-0.2,0-0.3,0h-0.1c-0.1,0-0.1-0.1-0.1-0.1c0-0.1,0.1-0.1,0.1-0.1h0.1c0.1,0,0.2,0,0.3,0
			C65.1,77.3,65.1,77.4,65.1,77.5C65.1,77.5,65.1,77.5,65.1,77.5z M64.4,77.4L64.4,77.4c-0.1,0-0.3,0-0.4-0.1
			c-0.1,0-0.1-0.1-0.1-0.1l0.1-0.1c0.1,0,0.3,0.1,0.4,0.1C64.5,77.3,64.5,77.3,64.4,77.4C64.5,77.4,64.5,77.4,64.4,77.4z M83.8,77.4
			C83.7,77.4,83.7,77.3,83.8,77.4c-0.1-0.1-0.1-0.2,0-0.2s0.2,0,0.4-0.1c0,0,0.1,0,0.1,0.1s0,0.1-0.1,0.1
			C84,77.3,83.9,77.4,83.8,77.4L83.8,77.4z M84.4,77.3C84.3,77.3,84.3,77.3,84.4,77.3c-0.1-0.1-0.1-0.2,0-0.2s0.2-0.1,0.4-0.1
			c0.1,0,0.1,0,0.1,0.1s0,0.1-0.1,0.1C84.6,77.3,84.5,77.3,84.4,77.3L84.4,77.3z M63.8,77.3L63.8,77.3c-0.1,0-0.3-0.1-0.4-0.1
			l-0.1-0.1l0.1-0.1c0.1,0,0.2,0.1,0.4,0.1C63.8,77.2,63.8,77.2,63.8,77.3C63.8,77.3,63.8,77.3,63.8,77.3z M85.1,77.2
			C85.1,77.2,85,77.1,85.1,77.2C85,77.1,85,77,85.1,77s0.2-0.1,0.4-0.1c0.1,0,0.1,0,0.1,0.1c0,0,0,0.1-0.1,0.1
			C85.4,77.1,85.3,77.1,85.1,77.2L85.1,77.2z M63.1,77.2C63.1,77.2,63,77.2,63.1,77.2l-0.4-0.1L62.7,77l0.1-0.1l0.4,0.1
			C63.1,77,63.2,77,63.1,77.2C63.1,77.1,63.1,77.2,63.1,77.2z M85.7,77L85.7,77c-0.1-0.1-0.1-0.2,0-0.2s0.2-0.1,0.4-0.1
			c0.1,0,0.1,0,0.1,0.1c0,0,0,0.1-0.1,0.1C86,76.9,85.9,77,85.7,77L85.7,77z M62.4,77L62.4,77l-0.3-0.1L62,76.8l0.1-0.1l0.4,0.1
			C62.5,76.8,62.5,76.9,62.4,77C62.5,77,62.5,77,62.4,77z M86.4,76.8L86.4,76.8c-0.1-0.1-0.1-0.2,0-0.2s0.2-0.1,0.4-0.1
			c0,0,0.1,0,0.1,0.1c0,0,0,0.1-0.1,0.1C86.7,76.8,86.6,76.8,86.4,76.8C86.5,76.8,86.5,76.8,86.4,76.8z M61.7,76.8L61.7,76.8
			l-0.4-0.1l-0.1-0.1l0.1-0.1l0.4,0.1C61.8,76.6,61.8,76.7,61.7,76.8C61.8,76.8,61.8,76.8,61.7,76.8z M61.1,76.6L61.1,76.6l-0.4-0.1
			l-0.1-0.1l0.1-0.1l0.4,0.1C61.2,76.5,61.2,76.5,61.1,76.6C61.2,76.6,61.1,76.6,61.1,76.6z M87.1,76.6C87,76.6,87,76.6,87.1,76.6
			c-0.1-0.1-0.1-0.2,0-0.2s0.2-0.1,0.4-0.1c0,0,0.1,0,0.1,0.1c0,0,0,0.1-0.1,0.1C87.3,76.6,87.2,76.6,87.1,76.6L87.1,76.6z
			 M60.4,76.5L60.4,76.5l-0.4-0.1L60,76.3l0.1-0.1l0.4,0.1C60.5,76.3,60.5,76.3,60.4,76.5C60.5,76.4,60.4,76.5,60.4,76.5z
			 M87.8,76.4C87.7,76.4,87.7,76.4,87.8,76.4c-0.1-0.1-0.1-0.2,0-0.2s0.2-0.1,0.4-0.1c0,0,0.1,0,0.1,0.1c0,0,0,0.1-0.1,0.1
			C87.9,76.4,87.9,76.4,87.8,76.4L87.8,76.4z M59.8,76.3L59.8,76.3l-0.4-0.1l-0.1-0.1l0.1-0.1l0.4,0.1
			C59.8,76.2,59.9,76.2,59.8,76.3L59.8,76.3z M88.4,76.2C88.3,76.2,88.3,76.2,88.4,76.2c-0.1-0.1-0.1-0.2,0-0.2s0.2-0.1,0.4-0.1
			c0,0,0.1,0,0.1,0.1c0,0,0,0.1-0.1,0.1C88.6,76.2,88.5,76.2,88.4,76.2L88.4,76.2z M59,76.2L59,76.2l-0.4-0.1
			c-0.1,0-0.1-0.1-0.1-0.1l0.1-0.1L59,76C59.1,76.1,59.1,76.1,59,76.2C59.1,76.2,59.1,76.2,59,76.2z M58.4,76.1L58.4,76.1L58,76
			c-0.1,0-0.1-0.1-0.1-0.1c0-0.1,0.1-0.1,0.1-0.1l0.4,0.1C58.5,75.9,58.5,76,58.4,76.1C58.5,76.1,58.5,76.1,58.4,76.1z M89.1,76.1
			C89,76.1,89,76.1,89.1,76.1c-0.1-0.1-0.1-0.2,0-0.2s0.2-0.1,0.4-0.1c0,0,0.1,0,0.1,0.1s0,0.1-0.1,0.1C89.2,76,89.2,76,89.1,76.1
			L89.1,76.1z M57.8,75.9L57.8,75.9l-0.4-0.1c-0.1,0-0.1-0.1-0.1-0.1c0-0.1,0.1-0.1,0.1-0.1l0.4,0.1C57.8,75.8,57.8,75.8,57.8,75.9
			C57.8,75.9,57.8,75.9,57.8,75.9z M89.7,75.9C89.6,75.9,89.6,75.8,89.7,75.9c-0.1-0.1-0.1-0.2,0-0.2s0.2-0.1,0.3-0.1
			c0,0,0.1,0,0.1,0.1c0,0,0,0.1-0.1,0.1S89.8,75.8,89.7,75.9C89.7,75.8,89.7,75.9,89.7,75.9z M57.1,75.8L57.1,75.8l-0.4-0.1
			c-0.1,0-0.1-0.1-0.1-0.1c0-0.1,0.1-0.1,0.1-0.1l0.4,0.1C57.1,75.6,57.2,75.7,57.1,75.8C57.2,75.8,57.1,75.8,57.1,75.8z M56.4,75.7
			L56.4,75.7L56,75.6c-0.1,0-0.1-0.1-0.1-0.1c0-0.1,0.1-0.1,0.1-0.1l0.4,0.1C56.5,75.5,56.5,75.5,56.4,75.7
			C56.5,75.6,56.5,75.7,56.4,75.7z M90.3,75.6C90.3,75.6,90.3,75.6,90.3,75.6c-0.1-0.1-0.1-0.2,0-0.2s0.2-0.1,0.3-0.1
			c0,0,0.1,0,0.1,0.1c0,0,0,0.1-0.1,0.1C90.5,75.5,90.4,75.6,90.3,75.6L90.3,75.6z M55.7,75.5L55.7,75.5l-0.4-0.1
			c-0.1,0-0.1-0.1-0.1-0.1c0-0.1,0.1-0.1,0.1-0.1l0.4,0.1C55.8,75.4,55.8,75.4,55.7,75.5C55.8,75.5,55.8,75.5,55.7,75.5z M55.1,75.4
			L55.1,75.4l-0.4-0.1c-0.1,0-0.1-0.1-0.1-0.1c0-0.1,0.1-0.1,0.1-0.1l0.4,0.1C55.2,75.2,55.2,75.3,55.1,75.4
			C55.2,75.4,55.1,75.4,55.1,75.4z M91,75.3C90.9,75.3,90.9,75.3,91,75.3c-0.1-0.1-0.1-0.2,0-0.2s0.2-0.1,0.3-0.1c0,0,0.1,0,0.1,0.1
			c0,0,0,0.1-0.1,0.1C91.2,75.2,91.1,75.3,91,75.3L91,75.3z M54.4,75.3C54.4,75.3,54.3,75.3,54.4,75.3l-0.4-0.1
			c-0.1,0-0.1-0.1-0.1-0.1l0.1-0.1l0.4,0.1C54.4,75.1,54.5,75.2,54.4,75.3L54.4,75.3z M53.7,75.2L53.7,75.2c-0.1,0-0.3,0-0.4-0.1
			c-0.1,0-0.1-0.1-0.1-0.1c0-0.1,0.1-0.1,0.1-0.1c0.1,0,0.2,0,0.4,0.1C53.8,75,53.8,75,53.7,75.2C53.8,75.1,53.8,75.2,53.7,75.2z
			 M91.6,75.1C91.6,75.1,91.6,75.1,91.6,75.1c-0.1-0.1-0.1-0.2,0-0.2s0.2-0.1,0.3-0.1c0,0,0.1,0,0.1,0.1c0,0,0,0.1-0.1,0.1
			C91.8,75,91.7,75,91.6,75.1L91.6,75.1z M53,75.1L53,75.1L52.7,75c-0.1,0-0.1-0.1-0.1-0.1c0-0.1,0.1-0.1,0.1-0.1L53,75
			C53.1,74.9,53.1,74.9,53,75.1C53.1,75,53,75.1,53,75.1z M52.4,74.9L52.4,74.9L52,74.9c-0.1,0-0.1-0.1-0.1-0.1
			c0-0.1,0.1-0.1,0.1-0.1l0.4,0.1C52.4,74.9,52.5,74.9,52.4,74.9L52.4,74.9z M51.7,74.9L51.7,74.9h-0.4c-0.1,0-0.1-0.1-0.1-0.1
			c0-0.1,0.1-0.1,0.1-0.1h0.4C51.8,74.8,51.8,74.8,51.7,74.9C51.8,74.9,51.8,74.9,51.7,74.9z M92.2,74.9L92.2,74.9
			c-0.1-0.1-0.1-0.2,0-0.2s0.2-0.1,0.3-0.1h0.1v0.1C92.5,74.8,92.4,74.8,92.2,74.9C92.3,74.9,92.3,74.9,92.2,74.9z M51,74.9L51,74.9
			h-0.4c-0.1,0-0.1-0.1-0.1-0.1c0-0.1,0.1-0.1,0.1-0.1H51C51.1,74.7,51.1,74.7,51,74.9C51.1,74.8,51,74.9,51,74.9z M50.4,74.8
			L50.4,74.8H50c-0.1,0-0.1-0.1-0.1-0.1c0-0.1,0.1-0.1,0.1-0.1h0.4C50.4,74.6,50.5,74.6,50.4,74.8C50.5,74.7,50.4,74.8,50.4,74.8z
			 M49.6,74.7L49.6,74.7h-0.4c-0.1,0-0.1-0.1-0.1-0.1c0-0.1,0.1-0.1,0.1-0.1h0.4C49.7,74.5,49.7,74.5,49.6,74.7
			C49.7,74.6,49.7,74.7,49.6,74.7z M92.8,74.6L92.8,74.6c-0.1-0.1-0.1-0.2,0-0.2s0.2-0.1,0.3-0.1h0.1v0.1
			C93.1,74.5,93,74.5,92.8,74.6C92.9,74.6,92.8,74.6,92.8,74.6z M49,74.6L49,74.6h-0.4c-0.1,0-0.1-0.1-0.1-0.1l0.1-0.1H49
			C49.1,74.4,49.1,74.5,49,74.6C49.1,74.6,49,74.6,49,74.6z M48.3,74.5L48.3,74.5c-0.1,0-0.3,0-0.4,0s-0.1,0-0.1-0.1s0-0.1,0.1-0.1
			s0.2,0,0.4,0C48.3,74.3,48.4,74.4,48.3,74.5L48.3,74.5z M47.6,74.5L47.6,74.5h-0.4c-0.1,0-0.1,0-0.1-0.1s0-0.1,0.1-0.1h0.4
			C47.7,74.3,47.7,74.3,47.6,74.5C47.7,74.4,47.7,74.5,47.6,74.5z M47,74.4L47,74.4h-0.4c-0.1,0-0.1,0-0.1-0.1s0-0.1,0.1-0.1H47
			C47,74.2,47,74.3,47,74.4C47,74.4,47,74.4,47,74.4z M46.2,74.3L46.2,74.3h-0.4c-0.1,0-0.1,0-0.1-0.1s0-0.1,0.1-0.1h0.4
			C46.3,74.2,46.3,74.2,46.2,74.3C46.3,74.3,46.3,74.3,46.2,74.3z M93.5,74.3C93.5,74.3,93.4,74.3,93.5,74.3c-0.1-0.1-0.1-0.2,0-0.2
			c0.1-0.1,0.2-0.1,0.3-0.2h0.1V74C93.8,74.2,93.7,74.2,93.5,74.3L93.5,74.3z M45.6,74.3L45.6,74.3h-0.4c-0.1,0-0.1,0-0.1-0.1
			s0-0.1,0.1-0.1h0.4C45.7,74.1,45.7,74.1,45.6,74.3C45.7,74.2,45.7,74.3,45.6,74.3z M44.9,74.2L44.9,74.2h-0.4
			c-0.1,0-0.1,0-0.1-0.1s0-0.1,0.1-0.1h0.4C44.9,74,45,74.1,44.9,74.2C45,74.2,44.9,74.2,44.9,74.2z M44.2,74.2L44.2,74.2h-0.4
			c-0.1,0-0.1,0-0.1-0.1s0-0.1,0.1-0.1h0.4C44.3,74,44.3,74,44.2,74.2C44.3,74.1,44.3,74.2,44.2,74.2z M43.5,74.1L43.5,74.1h-0.4
			c-0.1,0-0.1,0-0.1-0.1s0-0.1,0.1-0.1h0.4C43.6,74,43.6,74,43.5,74.1C43.6,74.1,43.5,74.1,43.5,74.1z M42.9,74.1L42.9,74.1h-0.4
			c-0.1,0-0.1,0-0.1-0.1s0-0.1,0.1-0.1h0.4C42.9,73.9,43,74,42.9,74.1L42.9,74.1z M42.2,74.1L42.2,74.1h-0.4c-0.1,0-0.1,0-0.1-0.1
			s0-0.1,0.1-0.1h0.4C42.2,73.9,42.2,73.9,42.2,74.1C42.2,74,42.2,74.1,42.2,74.1z M41.5,74.1L41.5,74.1h-0.4c-0.1,0-0.1,0-0.1-0.1
			s0.1-0.1,0.1-0.1h0.4C41.5,73.9,41.6,73.9,41.5,74.1C41.6,74,41.5,74.1,41.5,74.1z M40.8,74L40.8,74h-0.4c-0.1,0-0.1,0-0.1-0.1
			s0-0.1,0.1-0.1h0.4C40.9,73.8,40.9,73.9,40.8,74C40.9,74,40.9,74,40.8,74z M40.1,74L40.1,74h-0.4c-0.1,0-0.1,0-0.1-0.1
			s0-0.1,0.1-0.1l0,0h0.4C40.2,73.8,40.2,73.9,40.1,74C40.2,74,40.2,74,40.1,74z M39.5,74L39.5,74h-0.4C39,74,39,74,39,73.9
			s0-0.1,0.1-0.1h0.4C39.5,73.8,39.6,73.9,39.5,74C39.6,74,39.5,74,39.5,74z M38.7,74L38.7,74h-0.4c-0.1,0-0.1,0-0.1-0.1
			s0-0.1,0.1-0.1l0,0h0.4C38.8,73.8,38.8,73.9,38.7,74C38.8,74,38.8,74,38.7,74z M37.2,74L37.2,74C37,74,37,74,37,73.9
			s0-0.1,0.1-0.1h0.4l0,0c0.1,0,0.1,0,0.1,0.1s0,0.1-0.1,0.1H37.2z M36.7,74L36.7,74h-0.4c-0.1,0-0.1,0-0.1-0.1s0-0.1,0.1-0.1l0,0
			h0.4C36.8,73.8,36.8,73.9,36.7,74C36.8,74,36.8,74,36.7,74z M37.7,74C37.7,74,37.6,74,37.7,74c-0.1-0.1-0.1-0.2,0-0.2h0.4
			c0.1,0,0.1,0,0.1,0.1s0,0.1-0.1,0.1L37.7,74L37.7,74z M36.1,74L36.1,74h-0.4c-0.1,0-0.1,0-0.1-0.1s0-0.1,0.1-0.1h0.4
			C36.1,73.8,36.2,73.9,36.1,74C36.2,74,36.1,74,36.1,74z M35.3,74L35.3,74H35c-0.1,0-0.1,0-0.1-0.1s0-0.1,0.1-0.1h0.4
			C35.4,73.8,35.4,73.8,35.3,74C35.4,73.9,35.4,74,35.3,74z M94.1,74C94,74,94,74,94.1,74c-0.1-0.1-0.1-0.2,0-0.2
			c0.1-0.1,0.2-0.1,0.3-0.2h0.1v0.1C94.3,73.9,94.2,73.9,94.1,74L94.1,74z M34.7,74L34.7,74h-0.4c-0.1,0-0.1,0-0.1-0.1
			s0-0.1,0.1-0.1h0.4C34.7,73.8,34.8,73.8,34.7,74C34.8,73.9,34.7,74,34.7,74z M33.9,74L33.9,74h-0.4c-0.1,0-0.1,0-0.1-0.1
			s0-0.1,0.1-0.1h0.4C34,73.8,34,73.8,33.9,74C34,73.9,34,74,33.9,74z M33.3,73.9L33.3,73.9h-0.4c-0.1,0-0.1,0-0.1-0.1
			s0-0.1,0.1-0.1h0.4C33.4,73.8,33.4,73.8,33.3,73.9C33.4,73.9,33.4,73.9,33.3,73.9z M32.6,73.9L32.6,73.9h-0.4
			c-0.1,0-0.1,0-0.1-0.1s0-0.1,0.1-0.1h0.4C32.6,73.8,32.7,73.8,32.6,73.9C32.7,73.9,32.6,73.9,32.6,73.9z M31.9,73.9L31.9,73.9
			c-0.1,0-0.3,0-0.4,0s-0.1,0-0.1-0.1s0-0.1,0.1-0.1s0.2,0,0.4,0C32,73.8,32,73.8,31.9,73.9C32,73.8,32,73.9,31.9,73.9z M31.3,73.8
			L31.3,73.8h-0.4c-0.1,0-0.1,0-0.1-0.1s0-0.1,0.1-0.1h0.4C31.3,73.7,31.4,73.8,31.3,73.8C31.4,73.8,31.3,73.8,31.3,73.8z
			 M30.6,73.8L30.6,73.8h-0.4c-0.1,0-0.1,0-0.1-0.1s0-0.1,0.1-0.1h0.4C30.6,73.7,30.7,73.7,30.6,73.8C30.6,73.8,30.6,73.8,30.6,73.8
			z M29.9,73.8L29.9,73.8h-0.4c-0.1,0-0.1,0-0.1-0.1s0-0.1,0.1-0.1h0.4C30,73.7,30,73.7,29.9,73.8C30,73.8,30,73.8,29.9,73.8z
			 M29.2,73.8L29.2,73.8h-0.4c-0.1,0-0.1,0-0.1-0.1s0-0.1,0.1-0.1h0.4C29.2,73.6,29.3,73.6,29.2,73.8C29.3,73.7,29.2,73.8,29.2,73.8
			z M94.7,73.8C94.7,73.8,94.7,73.7,94.7,73.8c-0.1-0.1-0.1-0.2,0-0.2c0.1-0.1,0.2-0.1,0.3-0.2h0.1v0.1C95,73.6,94.9,73.7,94.7,73.8
			C94.8,73.8,94.7,73.8,94.7,73.8z M28.5,73.7L28.5,73.7c-0.1,0-0.3,0-0.4,0S28,73.6,28,73.6c0-0.1,0-0.1,0.1-0.1s0.2,0,0.4,0
			C28.6,73.5,28.6,73.6,28.5,73.7C28.6,73.7,28.6,73.7,28.5,73.7z M27.8,73.6L27.8,73.6c-0.1,0-0.3,0-0.4,0s-0.1-0.1-0.1-0.1
			c0-0.1,0.1-0.1,0.1-0.1c0.1,0,0.2,0,0.4,0C27.9,73.5,27.9,73.5,27.8,73.6C27.9,73.6,27.9,73.6,27.8,73.6z M27.2,73.5L27.2,73.5
			c-0.1,0-0.3,0-0.4,0s-0.1-0.1-0.1-0.1c0-0.1,0.1-0.1,0.1-0.1c0.1,0,0.2,0,0.4,0C27.2,73.4,27.3,73.4,27.2,73.5
			C27.3,73.5,27.2,73.5,27.2,73.5z M26.5,73.5L26.5,73.5c-0.1,0-0.3,0-0.4-0.1c-0.1,0-0.1-0.1-0.1-0.1c0-0.1,0.1-0.1,0.1-0.1
			c0.1,0,0.2,0,0.4,0.1C26.5,73.3,26.5,73.3,26.5,73.5C26.5,73.4,26.5,73.5,26.5,73.5z M95.3,73.4C95.3,73.4,95.2,73.4,95.3,73.4
			c-0.1-0.1-0.1-0.2,0-0.2c0.1-0.1,0.2-0.1,0.3-0.2h0.1v0.1C95.6,73.3,95.4,73.4,95.3,73.4L95.3,73.4z M25.8,73.3L25.8,73.3
			c-0.1,0-0.3,0-0.4-0.1c0,0.1-0.1,0,0,0c0-0.1,0.1-0.1,0.1-0.1C25.6,73.1,25.7,73.1,25.8,73.3C25.9,73.2,25.9,73.2,25.8,73.3
			C25.9,73.3,25.9,73.3,25.8,73.3z M25.2,73.2L25.2,73.2c-0.1,0-0.3,0-0.4-0.1c-0.1,0-0.1-0.1-0.1-0.1c0-0.1,0.1-0.1,0.1-0.1
			c0.1,0,0.2,0,0.4,0.1C25.2,73.1,25.2,73.1,25.2,73.2C25.2,73.2,25.2,73.2,25.2,73.2z M24.5,73.1C24.4,73.1,24.4,73.1,24.5,73.1
			c-0.1,0-0.3-0.1-0.4-0.1S24,72.9,24,72.9c0-0.1,0.1-0.1,0.1-0.1c0.1,0,0.2,0,0.4,0.1C24.5,72.9,24.6,73,24.5,73.1L24.5,73.1z
			 M95.9,73.1L95.9,73.1c-0.1-0.1-0.1-0.1,0-0.2c0.1-0.1,0.2-0.1,0.3-0.2h0.1v0.1C96.2,72.9,96.1,73,95.9,73.1
			C96,73.1,96,73.1,95.9,73.1z M23.8,72.9L23.8,72.9c-0.1,0-0.3-0.1-0.4-0.1l-0.1-0.1c0-0.1,0.1-0.1,0.1-0.1c0.1,0,0.2,0.1,0.4,0.1
			C23.9,72.8,23.9,72.8,23.8,72.9C23.9,72.9,23.9,72.9,23.8,72.9z M23.1,72.8L23.1,72.8c-0.1,0-0.3-0.1-0.4-0.1l-0.1-0.1l0.1-0.1
			c0.1,0,0.2,0.1,0.4,0.1C23.2,72.6,23.2,72.7,23.1,72.8C23.2,72.7,23.2,72.8,23.1,72.8z M96.5,72.7C96.5,72.7,96.4,72.7,96.5,72.7
			c-0.1-0.1-0.1-0.1,0-0.2c0.1-0.1,0.2-0.1,0.3-0.2h0.1v0.1C96.8,72.6,96.6,72.6,96.5,72.7L96.5,72.7z M22.5,72.6L22.5,72.6
			c-0.1,0-0.3-0.1-0.4-0.1L22,72.5l0.1-0.1c0.1,0,0.2,0.1,0.4,0.1C22.6,72.5,22.6,72.6,22.5,72.6C22.6,72.6,22.5,72.6,22.5,72.6z
			 M21.8,72.5L21.8,72.5c-0.2,0-0.3-0.1-0.4-0.1l-0.1-0.1l0.1-0.1c0.1,0,0.2,0.1,0.3,0.1C21.9,72.3,21.9,72.4,21.8,72.5
			C21.9,72.4,21.8,72.5,21.8,72.5z M97.1,72.4L97.1,72.4c-0.1-0.1-0.1-0.1,0-0.2s0.2-0.1,0.3-0.2h0.1v0.1
			C97.4,72.3,97.3,72.4,97.1,72.4C97.2,72.4,97.2,72.4,97.1,72.4z M21.2,72.2L21.2,72.2c-0.2-0.1-0.3-0.1-0.4-0.2c0,0-0.1-0.1,0-0.1
			c0,0,0.1-0.1,0.1,0c0.1,0,0.2,0.1,0.3,0.1C21.3,72.1,21.3,72.1,21.2,72.2C21.3,72.2,21.2,72.2,21.2,72.2z M97.7,72.1
			C97.6,72.1,97.6,72.1,97.7,72.1c-0.1-0.1-0.1-0.1,0-0.2c0.1-0.1,0.2-0.1,0.3-0.2h0.1v0.1C97.9,71.9,97.8,72,97.7,72.1L97.7,72.1z
			 M20.5,71.9L20.5,71.9c-0.2-0.1-0.3-0.1-0.4-0.2c0,0-0.1-0.1,0-0.1c0,0,0.1-0.1,0.1,0C20.4,71.7,20.4,71.7,20.5,71.9
			C20.6,71.8,20.6,71.8,20.5,71.9C20.6,71.9,20.6,71.9,20.5,71.9z M98.3,71.7C98.3,71.7,98.2,71.7,98.3,71.7c-0.1-0.1-0.1-0.1,0-0.2
			c0.1-0.1,0.2-0.1,0.3-0.2h0.1v0.1C98.6,71.5,98.5,71.6,98.3,71.7L98.3,71.7z M20,71.5L20,71.5c-0.3-0.2-0.3-0.3-0.4-0.3v-0.1h0.1
			l0,0c0,0,0.1,0.1,0.3,0.2C20.1,71.4,20.1,71.5,20,71.5L20,71.5z M98.8,71.3L98.8,71.3c-0.1-0.1-0.1-0.1-0.1-0.2
			c0.1-0.1,0.2-0.1,0.3-0.2h0.1v0.1C99.1,71.2,99,71.3,98.8,71.3C98.9,71.3,98.8,71.3,98.8,71.3z M99.4,71L99.4,71
			c-0.1-0.1-0.1-0.1-0.1-0.2c0.1-0.1,0.2-0.1,0.3-0.2h0.1v0.1C99.7,70.8,99.6,70.9,99.4,71C99.5,71,99.5,71,99.4,71z M100,70.5
			L100,70.5L100,70.5L100,70.5C100.1,70.4,100,70.5,100,70.5z"/>
	</g>
	<g id="XMLID_186_">
		<g id="XMLID_193_">
			<path id="XMLID_194_" class="st1" d="M33.6,61c0-0.2,0.2-0.4,0.4-0.4c0.2,0,0.4,0.2,0.4,0.4c0,0.2-0.2,0.4-0.4,0.4
				C33.8,61.4,33.6,61.2,33.6,61 M33.9,61.3c0.2,0,0.3-0.1,0.3-0.3c0-0.2-0.1-0.3-0.3-0.3c-0.2,0-0.3,0.1-0.3,0.3
				S33.8,61.3,33.9,61.3 M33.8,61.2L33.8,61.2v-0.4H34c0.1,0,0.2,0,0.2,0.1S34.1,61,34.1,61l0.1,0.2h-0.1L34,61h-0.1L33.8,61.2z
				 M33.9,61C34,61,34,61,33.9,61c0.1-0.2,0.1-0.2,0-0.2h-0.1L33.9,61L33.9,61z"/>
		</g>
		<g id="XMLID_191_">
			<path id="XMLID_192_" class="st1" d="M30.6,60.9h0.2c0,0-0.3-0.7-0.4-0.9c0.1,0,0.2,0,0.3,0c0.1,0.3,0.4,0.7,0.4,0.7
				s0.5-0.2,0.7-0.4c0.1,0,0.1,0.1,0.2,0.1L31.3,61l0.2,0.5c0,0,0.5-0.7,0.7-0.9c0.1,0,0.2,0.1,0.2,0.2c-0.1,0.2-0.3,0.3-0.4,0.5
				c0.3,0,0.6,0,0.8,0.1c0.1,0.1,0.2,0.2,0.2,0.3h-0.7l-0.4,0.5l0.5-0.1c0,0,0.4-0.1,0.7-0.3c0.1,0.1,0.1,0.2,0.1,0.3l-0.8,0.3
				l-0.5,0.2c-0.1,0.1-0.2,0.3-0.3,0.4c0.6-0.1,1.3-0.3,1.9-0.4c0.3,0.9,0,1.9-0.5,2.7c-1.8,0.4-3.5-0.3-5.3-0.1h-0.5
				c-0.4-0.5-0.5-1-0.5-1.5c-0.1-0.5,0-1.2,0.3-1.8c0.1,0,0.8,0,0.8,0l-0.5-0.7c0-0.1,0.1-0.2,0.2-0.3c0.3,0.3,0.6,0.8,0.6,0.8h0.3
				l-0.7-0.9c0.1-0.1,0.2-0.3,0.4-0.3l0.6,0.2c0,0,0-0.4,0-0.5c0.2-0.1,0.3-0.1,0.5-0.2c0.1,0.3,0.2,0.5,0.4,0.7
				c0.2-0.3,0.4-0.5,0.5-0.8h0.1L30.6,60.9z M30,60.5l-0.4,0.7l0.2,0.7l0.4-0.2l0.1-0.5C30.2,60.9,30.1,60.7,30,60.5 M29,60.5v0.4
				l0.2,0.1C29.1,60.8,29,60.6,29,60.5 M28.1,60.9L28.1,60.9c0.2,0.2,0.5,0.7,0.5,0.7v-0.5L28.1,60.9z M30.9,61.2l-0.2,0.1v0.1
				L30.9,61.2L30.9,61.2z M29,61.3v0.7l0.3-0.5L29,61.3z M32,61.7h-0.3l-0.4,0.5h0.3L32,61.7z M30.5,62v0.7l0.5-0.5
				c0.1,0,0.1-0.1,0.1-0.1l-0.1-0.3L30.5,62z M29.5,61.8l-0.2,0.3l0.3,0.4C29.5,62.3,29.5,62.1,29.5,61.8 M30.1,62.2L30,62.3v0.3
				l0.2,0.1V62.2z M28.1,62.1l-0.3,0.4l0.5,0.2l0.5-0.4l-0.2-0.2H28.1z M27,62.1l0.5,0.3l0.2-0.3H27z M31.1,62.7L30.8,63h0.3
				l0.3-0.4H31.1z M29.1,62.7l-0.9,0.7h-0.4c0,0,0.2-0.2,0.3-0.3c-0.2-0.1-0.3-0.2-0.5-0.2l-0.4,0.4c-0.1,0-0.2,0-0.3,0
				c0,0.4,0,0.7,0.1,0.9c0,0.1,0,0.2,0.2,0.2c0.8,0,1.7,0.2,2.5,0.3l0.1-1.2c0-0.1-0.2-0.3-0.2-0.3l-0.4,0.2h-0.7
				c0,0,0.6-0.3,0.9-0.5C29.3,62.8,29.2,62.7,29.1,62.7 M27.1,62.6C27,62.7,27,62.9,27,63c0.1-0.1,0.3-0.3,0.3-0.3L27.1,62.6z
				 M33.2,63L32.8,63c0.1,0.2,0.3,0.5,0.3,0.5h-0.4l-0.3-0.4c-0.2,0-0.5,0.1-0.5,0.1l0.1,0.3h-0.3l-0.2-0.3c0,0-0.7,0.2-1.1,0.3l0,0
				c0,0.4,0,0.8,0,1.2v0.1c0.7,0.2,1.4,0.2,2.1,0.3h0.1c0.2-0.3,0.4-0.5,0.5-0.9C33.3,63.9,33.3,63.3,33.2,63"/>
		</g>
		<g id="XMLID_189_">
			<path id="XMLID_190_" class="st1" d="M32.8,65.4c-0.2,0.3-0.5,0.5-0.8,0.7c-1.6-0.1-3-0.5-4.6-0.7c-0.1,0-0.1-0.1-0.1-0.2
				c1.2-0.2,2.5,0,3.7,0.2C31.5,65.5,32.3,65.5,32.8,65.4L32.8,65.4z"/>
		</g>
		<g id="XMLID_187_">
			<path id="XMLID_188_" class="st1" d="M30.4,66.1c0.5,0.1,0.9,0.1,1.4,0.2c-1,0.6-2.6,0.5-3.5-0.1c-0.3-0.2-0.5-0.4-0.7-0.7h0.1
				l0.6,0.1L30.4,66.1z"/>
		</g>
	</g>
	<g id="XMLID_184_">
		<path id="XMLID_185_" class="st1" d="M52,30.4c-0.1,0-0.2-0.1-0.2-0.2c-1.4-2.9-5.3-2.1-5.4-2.1c-0.1,0-0.3-0.1-0.3-0.2
			c0-0.2,0.1-0.3,0.2-0.3c0,0,4.3-0.8,5.9,2.4c0.1,0.1,0,0.3-0.1,0.4C52.1,30.4,52,30.4,52,30.4z"/>
	</g>
	<g id="XMLID_182_">
		<path id="XMLID_183_" class="st1" d="M54.2,37c-0.1,0-0.2-0.1-0.3-0.2c-1.7-3.9-6.8-3.4-6.9-3.3c-0.2,0-0.3-0.1-0.3-0.2
			c0-0.2,0.1-0.3,0.2-0.3s5.6-0.6,7.4,3.7C54.4,36.8,54.3,37,54.2,37C54.3,37,54.2,37,54.2,37z"/>
	</g>
	<g id="XMLID_180_">
		<path id="XMLID_181_" class="st1" d="M53.4,38.8L53.4,38.8c-2.8-1.1-4.7,0-4.8,0c-0.1,0.1-0.3,0-0.4-0.1s0-0.3,0.1-0.4
			s2.2-1.2,5.1,0c0.1,0.1,0.2,0.2,0.2,0.4C53.6,38.8,53.5,38.8,53.4,38.8z"/>
	</g>
	<g id="XMLID_178_">
		<path id="XMLID_179_" class="st1" d="M56.9,43.9c-0.1,0-0.2,0-0.2-0.1c-1.8-2.1-5.5,0-5.5,0.1c-0.1,0.1-0.3,0-0.4-0.1
			s0-0.3,0.1-0.4c0,0,1-0.5,2.3-0.9c1.8-0.4,3-0.1,3.9,0.9c0.1,0.1,0.1,0.3,0,0.4S56.9,43.9,56.9,43.9z"/>
	</g>
	<g id="XMLID_176_">
		<path id="XMLID_177_" class="st1" d="M55.2,48.2c-0.1,0-0.2-0.1-0.2-0.2c-0.1-0.1,0-0.3,0.1-0.4c0,0,0.7-0.4,1.7-0.7
			c1.3-0.5,2.2-0.5,2.8-0.2c0.1,0.1,0.2,0.2,0.1,0.4c-0.1,0.1-0.2,0.2-0.4,0.1c-0.9-0.5-3.1,0.5-4,0.8
			C55.3,48.1,55.2,48.2,55.2,48.2z"/>
	</g>
	<g id="XMLID_174_">
		<path id="XMLID_175_" class="st1" d="M59.3,51.8c-0.1,0-0.1,0-0.2-0.1S59,51.4,59,51.3c0.1-0.1,1.2-1.5,3-1.5
			c0.2,0,0.3,0.1,0.3,0.3s-0.1,0.3-0.3,0.3C60.5,50.4,59.5,51.7,59.3,51.8C59.5,51.8,59.4,51.8,59.3,51.8z"/>
	</g>
	<g id="XMLID_172_">
		<path id="XMLID_173_" class="st1" d="M64.2,54.5c-0.1,0-0.2-0.1-0.3-0.2c0-0.1,0-0.3,0.2-0.4c0,0,0.7-0.3,1.1-1
			c0.1-0.1,0.2-0.2,0.4-0.1c0.1,0.1,0.2,0.2,0.1,0.4C65.2,54.2,64.3,54.5,64.2,54.5C64.3,54.5,64.2,54.5,64.2,54.5z"/>
	</g>
	<g id="XMLID_170_">
		<path id="XMLID_171_" class="st1" d="M45.8,29.2C45.8,29.2,45.8,29.2,45.8,29.2l-1.1-1.3v-0.1v-1.1c0-0.1,0-0.1,0.1-0.1l1-0.8h0.1
			h0.9h0.1l1.2,0.9c0.1,0.1,0.1,0.2,0,0.3s-0.2,0.1-0.3,0l-1.2-0.9h-0.8l-0.9,0.7v0.9l0.9,1.1l1.7-0.2c0.1,0,0.2,0.1,0.2,0.2
			s-0.1,0.2-0.2,0.2L45.8,29.2C45.9,29.2,45.8,29.2,45.8,29.2z"/>
	</g>
	<g id="XMLID_168_">
		<path id="XMLID_169_" class="st1" d="M47.6,34.8L47.6,34.8l-1.7-0.4c-0.1,0-0.1-0.1-0.1-0.1l-0.7-1.6c0-0.1,0-0.1,0-0.2l1.2-1.2
			l0.1-0.1h1.3h0.1l1,0.5c0.1,0,0.1,0.1,0.1,0.2v0.5c0,0.1-0.1,0.2-0.2,0.2s-0.2-0.1-0.2-0.2v-0.5l-0.9-0.5h-1.2l-1.1,1.1l0.5,1.4
			l1.7,0.4l0.9-0.6c0.1-0.1,0.2,0,0.3,0c0.1,0.1,0,0.2,0,0.3l-0.9,0.7C47.7,34.8,47.7,34.8,47.6,34.8z"/>
	</g>
	<g id="XMLID_166_">
		<path id="XMLID_167_" class="st1" d="M48.9,40c-0.2,0-0.4,0-0.5-0.1c-0.1,0-0.4,0-0.7,0c-0.1,0-0.1,0-0.2-0.1L47,39.3v-0.1
			l-0.2-1.1V38l0.4-0.7l0.1-0.1l1.5-0.5h0.1l1.1,0.5c0.1,0,0.1,0.1,0.1,0.2s-0.1,0.1-0.2,0.1l-1-0.4l-1.4,0.4l-0.3,0.5l0.2,1.1
			l0.5,0.5c0.3,0,0.7-0.1,0.8,0c0.1,0,0.5,0,1,0l0.7-0.8c0.1-0.1,0.2-0.1,0.3,0c0.1,0.1,0.1,0.2,0,0.3L49.9,40l-0.1,0.1
			C49.5,40,49.1,40,48.9,40z"/>
	</g>
	<g id="XMLID_164_">
		<path id="XMLID_165_" class="st1" d="M51,45.3L51,45.3l-1.1-0.4c-0.1,0-0.1-0.1-0.1-0.1l-0.5-1.1v-0.1l0.4-1.3c0,0,0-0.1,0.1-0.1
			l0.5-0.3h0.1l1.8,0.3c0.1,0,0.2,0.1,0.2,0.2s-0.1,0.2-0.2,0.2l-1.8-0.3l-0.4,0.3l-0.5,1l0.5,1l1,0.3l0.9-0.3v-0.5
			c0-0.1,0.1-0.2,0.2-0.2s0.2,0.1,0.2,0.2v0.7c0,0.1-0.1,0.2-0.1,0.2L51,45.3L51,45.3z"/>
	</g>
	<g id="XMLID_162_">
		<path id="XMLID_163_" class="st1" d="M55.3,49.3c-0.3,0-0.5,0-0.5-0.1c0,0-0.5-0.1-0.8-0.3c-0.4-0.2-0.5-0.7-0.5-1.3
			c0-0.4,0.1-0.7,0.2-0.9c0-0.1,0.1-0.1,0.1-0.2c0.1-0.3,0.5-0.4,1.4-0.4s1.3,0.5,1.3,0.5c0.1,0.1,0.1,0.2,0,0.3
			c-0.1,0.1-0.2,0.1-0.3,0l0,0c0,0-0.4-0.5-1.1-0.5c-0.9,0-1,0.1-1,0.1c0,0.1,0,0.1-0.1,0.2c-0.1,0.2-0.2,0.5-0.2,0.7
			c0.1,0.5,0.2,0.9,0.5,1c0.3,0.2,0.7,0.3,0.7,0.3c0.3,0,0.7,0.1,0.7,0c0.2-0.1,0.5-0.5,0.8-0.7c0.1-0.1,0.2-0.1,0.3,0
			s0.1,0.2,0,0.3s-0.7,0.6-0.9,0.7C55.6,49.3,55.5,49.3,55.3,49.3z"/>
	</g>
	<g id="XMLID_160_">
		<path id="XMLID_161_" class="st1" d="M60.3,52.4h-1.1h-0.1L58.2,52c-0.1,0-0.1-0.1-0.1-0.2v-0.9v-0.1l0.7-0.7l0.1-0.1h1.2
			c0.1,0,0.2,0.1,0.2,0.2s-0.1,0.2-0.2,0.2H59L58.4,51v0.8l0.7,0.5h1l0.5-0.7c0.1-0.1,0.2-0.1,0.3,0c0.1,0.1,0.1,0.2,0,0.3l-0.5,0.5
			C60.4,52.4,60.4,52.4,60.3,52.4z"/>
	</g>
	<g id="XMLID_156_">
		<path id="XMLID_158_" class="st1" d="M64.9,55.6L64.9,55.6l-1.1-0.3c0,0-0.1,0-0.1-0.1l-0.7-0.8l-0.1-0.1v-1.1
			c0-0.1,0.1-0.2,0.2-0.2h1c0.1,0,0.2,0.1,0.2,0.2s-0.1,0.2-0.2,0.2h-0.8v0.9l0.7,0.7l0.9,0.3l0.2-0.2v-0.4c0-0.1,0.1-0.2,0.2-0.2
			c0.1,0,0.2,0.1,0.2,0.2v0.5v0.1L65,55.6C65,55.5,64.9,55.6,64.9,55.6z"/>
	</g>
</g>
<g class="st2">
	<path d="M41.5,105.3v-7.8h2.4c0.4,0,0.8,0,1.1,0.1c0.3,0.1,0.6,0.2,0.9,0.3s0.4,0.3,0.6,0.6c0.1,0.2,0.2,0.6,0.2,0.9
		c0,0.4-0.1,0.7-0.3,1c-0.2,0.3-0.6,0.5-1,0.7v0c0.6,0.1,1,0.3,1.3,0.6c0.3,0.3,0.5,0.7,0.5,1.3c0,0.4-0.1,0.7-0.2,1
		s-0.4,0.5-0.6,0.7c-0.3,0.2-0.6,0.3-0.9,0.4c-0.4,0.1-0.8,0.1-1.2,0.1H41.5z M42.9,100.7h0.9c0.6,0,0.9-0.1,1.2-0.3
		c0.2-0.2,0.4-0.5,0.4-0.8c0-0.4-0.1-0.6-0.4-0.8c-0.2-0.1-0.6-0.2-1.1-0.2h-0.9V100.7z M42.9,104.2H44c0.6,0,1-0.1,1.3-0.3
		c0.3-0.2,0.5-0.5,0.5-1c0-0.4-0.1-0.7-0.4-0.9s-0.7-0.3-1.3-0.3h-1.1V104.2z"/>
	<path d="M51.3,105.4c-0.5,0-0.9-0.1-1.3-0.3c-0.4-0.2-0.7-0.4-1-0.8s-0.5-0.8-0.6-1.3c-0.2-0.5-0.2-1.1-0.2-1.8
		c0-0.6,0.1-1.2,0.2-1.7c0.2-0.5,0.4-0.9,0.6-1.3c0.3-0.3,0.6-0.6,1-0.8c0.4-0.2,0.8-0.3,1.3-0.3s0.9,0.1,1.3,0.3
		c0.4,0.2,0.7,0.4,1,0.8c0.3,0.3,0.5,0.8,0.6,1.3c0.2,0.5,0.2,1.1,0.2,1.7c0,0.7-0.1,1.2-0.2,1.8c-0.2,0.5-0.4,0.9-0.6,1.3
		c-0.3,0.3-0.6,0.6-1,0.8S51.7,105.4,51.3,105.4z M51.3,104.2c0.5,0,0.9-0.2,1.2-0.8c0.3-0.5,0.4-1.2,0.4-2.1c0-0.9-0.1-1.6-0.4-2.1
		c-0.3-0.5-0.7-0.7-1.2-0.7s-0.9,0.2-1.2,0.7s-0.5,1.2-0.5,2.1c0,0.9,0.2,1.6,0.5,2.1S50.7,104.2,51.3,104.2z"/>
	<path d="M57.8,105.3v-6.7h-2.5v-1.2h6.3v1.2h-2.5v6.7H57.8z"/>
	<path d="M62.3,105.3l2.5-7.8h1.6l2.5,7.8h-1.5l-0.6-2.1h-2.6l-0.6,2.1H62.3z M64.9,101.1l-0.3,1h2l-0.3-1c-0.1-0.4-0.2-0.8-0.3-1.3
		c-0.1-0.4-0.2-0.9-0.3-1.3h0c-0.1,0.4-0.2,0.9-0.3,1.3C65.1,100.3,65,100.7,64.9,101.1z"/>
	<path d="M72.9,105.4c-0.6,0-1.1-0.1-1.6-0.3c-0.5-0.2-1-0.5-1.3-0.9l0.8-0.9c0.3,0.3,0.6,0.5,1,0.6c0.4,0.2,0.8,0.2,1.2,0.2
		c0.5,0,0.8-0.1,1-0.3c0.2-0.2,0.4-0.4,0.4-0.7c0-0.2,0-0.3-0.1-0.4c-0.1-0.1-0.2-0.2-0.3-0.3s-0.3-0.2-0.4-0.2
		c-0.2-0.1-0.3-0.1-0.5-0.2l-1.1-0.5c-0.2-0.1-0.4-0.2-0.6-0.3c-0.2-0.1-0.4-0.3-0.5-0.4c-0.2-0.2-0.3-0.4-0.4-0.6
		c-0.1-0.2-0.1-0.5-0.1-0.8c0-0.3,0.1-0.6,0.2-0.9c0.1-0.3,0.3-0.5,0.6-0.7c0.2-0.2,0.5-0.4,0.9-0.5c0.3-0.1,0.7-0.2,1.1-0.2
		c0.5,0,0.9,0.1,1.4,0.3c0.4,0.2,0.8,0.4,1.1,0.7l-0.7,0.9c-0.3-0.2-0.5-0.4-0.8-0.5c-0.3-0.1-0.6-0.2-1-0.2c-0.4,0-0.7,0.1-0.9,0.2
		s-0.3,0.4-0.3,0.7c0,0.2,0,0.3,0.1,0.4c0.1,0.1,0.2,0.2,0.3,0.3c0.1,0.1,0.3,0.2,0.4,0.2c0.2,0.1,0.3,0.1,0.5,0.2l1,0.4
		c0.2,0.1,0.5,0.2,0.7,0.3s0.4,0.3,0.5,0.4s0.3,0.4,0.4,0.6c0.1,0.2,0.1,0.5,0.1,0.8c0,0.3-0.1,0.6-0.2,0.9
		c-0.1,0.3-0.3,0.5-0.6,0.7s-0.6,0.4-0.9,0.5C73.7,105.4,73.3,105.4,72.9,105.4z"/>
</g>
</svg>
