<?xml version="1.0" encoding="utf-8"?>
<!-- Generator: Adobe Illustrator 24.3.0, SVG Export Plug-In . SVG Version: 6.00 Build 0)  -->
<svg version="1.1" id="Layer_1" xmlns="http://www.w3.org/2000/svg" xmlns:xlink="http://www.w3.org/1999/xlink" x="0px" y="0px"
	 viewBox="0 0 120 100" style="enable-background:new 0 0 120 100;" xml:space="preserve">
<style type="text/css">
	.st0{fill:none;}
	.st1{fill:#FFFFFF;}
	.st2{enable-background:new    ;}
</style>
<g id="expanded_2_">
	<path class="st0" d="M74.5,28l0-0.4c-0.1-1.9-0.1-2.8-1.8-5.1c-1.8-2.6-3.5-3.9-5.9-4.4c-0.6-0.1-1.2-0.3-1.7-0.4
		c-1.7-0.4-3-0.8-5.4-0.8c-3.2,0-6.4,0.7-8.4,1.9c-3,1.8-4,3.1-4.7,4.8c-1,2.4-1.9,11.7-1.8,13.3c0,0.7,0.2,1.5,0.3,2.2
		c0.1,0.9,0.3,1.8,0.3,2.5c0,0.8,0,2.6,0,4.2c0,0.7,0,1.4,0,1.9c0.9,0.1,5,0.5,6.9,0.6c2.2,0.1,8.7,0.3,11.2,0.2
		c2.5,0,9.3-0.1,9.3-0.1l1.7-0.1c0-0.7,0-1.3,0.1-2c0.1-1.6,0.3-6.8,0.3-9C74.8,35.2,74.6,30.1,74.5,28z M45.7,47.4l-0.4-0.1
		c0,0,0,0.1,0,0.1s0,0,0-0.1v0l0,0v0l0.4-0.1c0,0,0.1,0,0.1,0.1l0,0C45.8,47.4,45.8,47.4,45.7,47.4L45.7,47.4z M46.3,47.5l-0.4-0.1
		l0,0l0.4-0.1c0,0,0.1,0,0.1,0.1C46.4,47.5,46.3,47.5,46.3,47.5L46.3,47.5z M46.9,47.6l-0.4-0.1l0,0l0,0l0,0c0-0.1,0.1-0.1,0,0
		l0.4-0.1c0,0,0.1,0,0.1,0.1C47,47.5,47,47.6,46.9,47.6L46.9,47.6z M47.6,47.6l-0.4-0.1v0c0,0,0,0,0,0v0c0,0,0,0,0,0v0l0.4-0.1
		c0,0,0.1,0,0.1,0.1C47.7,47.5,47.7,47.6,47.6,47.6C47.6,47.6,47.6,47.6,47.6,47.6L47.6,47.6z M48.2,47.7l-0.4-0.1c0,0,0,0.1,0,0.1
		s0,0,0-0.1v0c0,0,0,0,0,0v0l0.4-0.1c0,0,0.1,0,0.1,0.1l0,0C48.3,47.7,48.2,47.7,48.2,47.7L48.2,47.7L48.2,47.7z M53.3,32.9
		l-0.1,0.4l0,0l-0.1-0.4c0,0,0-0.1,0.1-0.1S53.3,32.8,53.3,32.9C53.3,32.9,53.3,32.9,53.3,32.9L53.3,32.9z M53.1,41.5
		C53,41.3,53,41.3,53,41.2v-0.1c0,0,0-0.1,0.1-0.1c0,0,0.1,0,0.1,0.1v0.1C53.2,41.3,53.2,41.4,53.1,41.5
		C53.2,41.4,53.2,41.5,53.1,41.5z M53,43.9L53,43.9l-0.1-0.4c0,0,0-0.1,0.1-0.1c0,0,0.1,0,0.1,0.1L53,43.9L53,43.9z M53,43.3
		C52.9,43.3,52.9,43.2,53,43.3L53,42.9c0,0,0-0.1,0.1-0.1c0,0,0.1,0,0.1,0.1c0,0,0,0,0,0L53,43.3z M53,42.7L53,42.7L53,42.3
		c0,0,0-0.1,0.1-0.1c0,0,0.1,0,0.1,0.1L53,42.7z M53.1,42.1L53.1,42.1L53,41.7c0,0,0-0.1,0.1-0.1c0,0,0.1,0,0.1,0.1c0,0,0,0,0,0
		L53.1,42.1L53.1,42.1z M53.2,25.8L53.2,25.8L53,25.4c0,0,0-0.1,0.1-0.1c0,0,0.1,0,0.1,0.1L53.2,25.8L53.2,25.8z M53.1,26.6
		c0,0,0.1,0,0.1,0.1c0,0,0,0,0,0l-0.1,0.4c0.1-0.1,0.1,0,0,0v0l0,0L53,26.7C53,26.7,53,26.6,53.1,26.6L53.1,26.6z M53.1,30.2
		L53.1,30.2L53,29.8c0,0,0-0.1,0.1-0.1c0,0,0.1,0,0.1,0.1c0,0,0,0,0,0L53.1,30.2L53.1,30.2z M53.1,32.7L53.1,32.7L53.1,32.7
		L53.1,32.7L53,32.3c0,0,0-0.1,0.1-0.1l0,0c0.1,0,0.1,0,0.1,0.1L53.1,32.7C53.2,32.6,53.2,32.7,53.1,32.7L53.1,32.7z M53.2,32
		L53.2,32l-0.1-0.3c0,0,0-0.1,0.1-0.1c0,0,0.1,0,0.1,0.1L53.2,32z M53.2,31.4L53.2,31.4L53.1,31c0,0,0-0.1,0.1-0.1
		c0,0,0.1,0,0.1,0.1c0,0,0,0,0,0L53.2,31.4z M53.1,29.6L53.1,29.6C53,29.4,53,29.3,53,29.2c0,0,0-0.1,0.1-0.1c0,0,0.1,0,0.1,0.1
		C53.2,29.3,53.2,29.5,53.1,29.6L53.1,29.6z M53.1,29L53.1,29L53.1,29L53.1,29C53,29,53,28.9,53.1,29L53,28.6c0,0,0-0.1,0.1-0.1
		c0,0,0.1,0,0.1,0.1L53.1,29z M53.1,28.3L53.1,28.3L53,27.9c0,0,0-0.1,0.1-0.1c0,0,0.1,0,0.1,0.1c0,0,0,0,0,0L53.1,28.3z M53.1,40.8
		L53.1,40.8L53,40.4c0,0,0-0.1,0.1-0.1c0,0,0.1,0,0.1,0.1c0,0,0,0,0,0L53.1,40.8z M53.1,40.2L53.1,40.2L53,39.8c0,0,0-0.1,0.1-0.1
		c0,0,0.1,0,0.1,0.1L53.1,40.2z M53.1,39.6C53,39.6,53,39.5,53.1,39.6L53,39.2c0,0,0-0.1,0.1-0.1s0.1,0,0.1,0.1c0,0,0,0,0,0
		L53.1,39.6z M53.1,38.9L53.1,38.9L53,38.5c0,0,0-0.1,0.1-0.1c0,0,0.1,0,0.1,0.1L53.1,38.9z M53.1,38.3L53.1,38.3L53,37.9
		c0,0,0-0.1,0.1-0.1c0,0,0.1,0,0.1,0.1L53.1,38.3z M53.1,37.7C53,37.7,53,37.6,53.1,37.7L53,37.3c0,0,0-0.1,0.1-0.1s0.1,0,0.1,0.1
		c0,0,0,0,0,0L53.1,37.7z M53.2,37L53.2,37l-0.2-0.4c0,0,0-0.1,0.1-0.1c0,0,0.1,0,0.1,0.1L53.2,37L53.2,37z M53.2,36.5l-0.1-0.4
		c0,0,0-0.1,0.1-0.1c0,0,0,0,0,0c0,0,0.1,0,0.1,0.1l0,0L53.2,36.5C53.3,36.4,53.3,36.5,53.2,36.5L53.2,36.5z M53.2,35.9l-0.1-0.4
		c0,0,0-0.1,0.1-0.1l0,0c0,0,0.1,0,0.1,0.1l0,0L53.2,35.9C53.3,35.8,53.3,35.9,53.2,35.9L53.2,35.9z M53.1,30.8L53.1,30.8L53.1,30.8
		L53.1,30.8L53.1,30.8L53.1,30.8L53.1,30.8L53,30.4c0,0,0-0.1,0.1-0.1s0.1,0,0.1,0.1c0,0,0,0,0,0L53.1,30.8z M53.1,27.7L53.1,27.7
		L53,27.3c0,0,0-0.1,0.1-0.1c0,0,0.1,0,0.1,0.1c0,0,0,0,0,0L53.1,27.7z M53.1,26.4L53.1,26.4L53.1,26.4L53,26.1c0,0,0-0.1,0.1-0.1
		c0,0,0.1,0,0.1,0.1L53.1,26.4z M53.1,25.2C53.2,25.1,53.2,25.2,53.1,25.2L53.1,25.2L53.1,25.2L53.1,25.2L53,24.8c0,0,0-0.1,0.1-0.1
		c0,0,0.1,0,0.1,0.1c0,0,0,0,0,0L53.1,25.2z M53.2,24.2l-0.1,0.4l0,0L53,24.2c0,0,0-0.1,0.1-0.1C53.2,24.1,53.2,24.2,53.2,24.2
		L53.2,24.2z M53,24L53,24l-0.1-0.4c0,0,0-0.1,0.1-0.1c0,0,0.1,0,0.1,0.1c0,0,0,0,0,0L53,24z M53,22.9c0,0,0.1,0,0.1,0.1v0L53,23.4
		v0c0.1-0.1,0,0,0,0v0c-0.1,0-0.1-0.1,0,0L52.9,23C52.9,22.9,52.9,22.9,53,22.9L53,22.9L53,22.9z M52.6,22.5c0,0,0.1,0,0.1,0l0,0
		l0.1,0.4l0,0c0,0,0,0,0,0l0,0c-0.1,0-0.1,0,0,0l-0.3-0.3C52.6,22.5,52.6,22.5,52.6,22.5L52.6,22.5L52.6,22.5z M52,22.3l0.4,0l0-0.1
		l0,0.1l-0.4,0.1c0,0-0.1,0-0.1-0.1C51.9,22.4,52,22.3,52,22.3C52,22.3,52,22.3,52,22.3L52,22.3z M51.5,22.3l0.4,0l0,0.1l0-0.1
		l-0.4,0.1c0,0-0.1,0-0.1-0.1C51.3,22.4,51.4,22.3,51.5,22.3C51.4,22.3,51.4,22.3,51.5,22.3L51.5,22.3z M50.9,22.4l0.4,0l0,0l0,0
		c0,0,0,0,0,0l0,0l0,0c0,0.1-0.1,0.1,0,0l-0.4,0.1c0,0-0.1,0-0.1-0.1c0,0,0,0,0,0C50.8,22.4,50.8,22.4,50.9,22.4L50.9,22.4
		L50.9,22.4z M50.4,22.8l0.2-0.3l-0.1,0l0.1,0h0l0,0h0l0,0.4c0,0-0.1,0.1-0.1,0.1C50.4,22.9,50.3,22.9,50.4,22.8L50.4,22.8z
		 M50.3,23.1L50.3,23.1l0.1,0.4c0,0,0,0.1-0.1,0.1c0,0-0.1,0-0.1-0.1c0,0,0,0,0,0L50.3,23.1L50.3,23.1z M50.3,23.7
		C50.4,23.7,50.4,23.8,50.3,23.7l0.1,0.4c0,0,0,0.1-0.1,0.1c0,0-0.1,0-0.1-0.1c0,0,0,0,0,0L50.3,23.7z M50.3,24.4L50.3,24.4l0.1,0.4
		c0,0,0,0.1-0.1,0.1l0,0c0,0-0.1,0-0.1-0.1l0,0L50.3,24.4z M50.3,25L50.3,25l0.1,0.4c0,0,0,0.1-0.1,0.1c0,0-0.1,0-0.1-0.1
		c0,0,0,0,0,0L50.3,25z M50.1,25.9c0-0.1,0-0.2,0.1-0.3c-0.1,0.1-0.1,0,0,0c0.1,0.2,0.1,0.2,0.1,0.3V26c0,0,0,0.1-0.1,0.1
		c0,0-0.1,0-0.1-0.1l0,0V25.9z M50.2,26.3L50.2,26.3l0.1,0.4c0,0,0,0.1-0.1,0.1c0,0-0.1,0-0.1-0.1c0,0,0,0,0,0L50.2,26.3z
		 M50.2,26.9L50.2,26.9l0.1,0.4c0,0,0,0.1-0.1,0.1l0,0c0,0-0.1,0-0.1-0.1c0,0,0,0,0,0L50.2,26.9z M48.8,47.7l-0.4-0.1
		c0.1,0.1,0,0.1,0,0l0.4-0.1C48.8,47.5,48.9,47.6,48.8,47.7C48.9,47.7,48.8,47.7,48.8,47.7L48.8,47.7L48.8,47.7z M49.5,30
		c0.2-0.7,0.3-1.4,0.6-2.1c0,0-0.1,0-0.1-0.1l0.1-0.4c0.1,0,0.1,0.1,0,0l0.1,0.3c0.1-0.1,0.1-0.2,0.2-0.3c0-1.4,0-2.7,0-4
		c-0.1-0.4,0.6-0.6,0.8-0.6c0.3,0,0.9,0,1.2,0.1c0.3,0.1,0.2,0.4,0.2,0.7c0,2,0,4,0,6c0,3.4,0,6.8,0,10.2c0,1,0,2.1,0,3.1
		c0,0.4,0,0.8-0.3,1c-0.4,0.2-0.9,0.2-1.3,0.1c-0.4-0.1-0.5-0.4-0.5-0.8c0-0.8,0-1.7,0-2.5c0-2,0-4,0-5.9c0-0.1,0-0.2,0-0.3
		c-0.2,0.5-1,0.2-1.4,0.1c0,0-0.1,0-0.1-0.1C49,33,49.2,31.5,49.5,30L49.5,30z M52,44.5L52,44.5L52,44.5C51.9,44.4,52,44.4,52,44.5
		l0.4-0.1c0,0,0.1,0,0.1,0.1c0,0,0,0.1-0.1,0.1c0,0,0,0,0,0L52,44.5L52,44.5L52,44.5L52,44.5z M51.7,44.6l-0.4-0.1v-0.1v0.1l0.4-0.1
		c0,0,0.1,0,0.1,0.1C51.8,44.5,51.8,44.6,51.7,44.6C51.8,44.6,51.8,44.6,51.7,44.6L51.7,44.6z M50.6,44.1c0,0,0,0.1-0.1,0.1
		c0,0,0,0,0,0c0,0-0.1,0-0.1-0.1l0,0l0-0.4l0,0l0,0l0,0l0,0l0,0c0.1,0,0.1,0.1,0,0L50.6,44.1z M50.1,35L50.1,35l0.2,0.3
		c0,0,0,0.1-0.1,0.1c0,0-0.1,0-0.1-0.1l0,0L50.1,35L50.1,35z M50.3,37.3c0,0,0,0.1-0.1,0.1s-0.1,0-0.1-0.1c0,0,0,0,0,0l0.1-0.4l0,0
		L50.3,37.3z M50.2,38.8L50.2,38.8l0.1,0.4c0,0,0,0.1-0.1,0.1c0,0-0.1,0-0.1-0.1L50.2,38.8L50.2,38.8z M50.2,38.6
		C50.2,38.6,50.1,38.5,50.2,38.6L50.2,38.6v-0.5l0,0l0,0l0,0c0.1,0,0.1,0.1,0,0V38.6C50.3,38.5,50.3,38.6,50.2,38.6L50.2,38.6
		L50.2,38.6z M50.2,38C50.2,38,50.1,37.9,50.2,38L50.2,38c-0.1-0.2-0.1-0.4,0-0.5l0,0C50.3,37.6,50.3,37.7,50.2,38
		C50.3,37.9,50.3,38,50.2,38L50.2,38z M50.2,35.6L50.2,35.6l0.1,0.4c0,0,0,0.1-0.1,0.1c0,0-0.1,0-0.1-0.1L50.2,35.6z M50.2,36.2
		L50.2,36.2L50.2,36.2L50.2,36.2L50.2,36.2L50.2,36.2L50.2,36.2l0.1,0.4c0,0,0,0.1-0.1,0.1s-0.1,0-0.1-0.1c0,0,0,0,0,0L50.2,36.2z
		 M50.2,39.3L50.2,39.3l0.1,0.4c0,0,0,0.1-0.1,0.1c0,0-0.1,0-0.1-0.1l0,0L50.2,39.3z M50.2,40.6L50.2,40.6L50.2,40.6l0.1,0.4
		c0,0,0,0.1-0.1,0.1s-0.1,0-0.1-0.1l0,0L50.2,40.6z M50.2,41.8L50.2,41.8L50.2,41.8L50.2,41.8l0.1,0.4c0,0,0,0.1-0.1,0.1
		c0,0-0.1,0-0.1-0.1L50.2,41.8C50.1,41.9,50.1,41.8,50.2,41.8L50.2,41.8z M50.2,41.7C50.2,41.7,50.1,41.7,50.2,41.7L50.2,41.7v-0.5
		l0,0V41.7C50.3,41.7,50.3,41.7,50.2,41.7L50.2,41.7z M50.3,40.4c0,0-0.1,0-0.1-0.1l0,0l0.1-0.4c-0.1,0.1-0.1,0,0,0v0l0,0l0.1,0.3
		C50.3,40.3,50.3,40.4,50.3,40.4L50.3,40.4z M49.5,47.8l-0.4-0.1l0,0l0.4-0.1c0,0,0.1,0,0.1,0.1S49.5,47.8,49.5,47.8
		C49.5,47.8,49.5,47.8,49.5,47.8L49.5,47.8z M50,47.8l-0.4-0.1v0c0,0,0,0,0,0v0l0.4-0.1c0,0,0.1,0,0.1,0.1
		C50.1,47.8,50.1,47.8,50,47.8L50,47.8z M50.2,42.8l0.1-0.4l0,0l0.1,0.4c0,0,0,0.1-0.1,0.1C50.2,42.9,50.2,42.9,50.2,42.8L50.2,42.8
		z M50.3,43.1L50.3,43.1l0.1,0.4c0,0,0,0.1-0.1,0.1c0,0-0.1,0-0.1-0.1c0,0,0,0,0,0L50.3,43.1z M50.6,47.8l-0.4-0.1
		c0.1,0.1,0,0.1,0,0l0,0l0,0l0,0l0.4-0.1c0,0,0.1,0,0.1,0.1S50.7,47.8,50.6,47.8C50.7,47.8,50.7,47.8,50.6,47.8L50.6,47.8z
		 M50.8,44.5l0.4-0.1c0,0,0.1,0,0.1,0.1c0,0,0,0.1-0.1,0.1L50.8,44.5L50.8,44.5L50.8,44.5z M51.3,47.8l-0.4-0.1c0,0,0,0.1,0,0.1
		s0,0,0-0.1l0.4-0.1c0,0,0.1,0,0.1,0.1S51.4,47.8,51.3,47.8C51.3,47.8,51.3,47.8,51.3,47.8L51.3,47.8z M51.9,48l-0.4-0.1l0,0
		l0.4-0.1c0,0,0.1,0,0.1,0.1C52,47.9,52,48,51.9,48C51.9,48,51.9,48,51.9,48L51.9,48z M52.5,48l-0.4-0.1l0,0c0-0.1,0.1-0.1,0,0
		l0.4-0.1c0,0,0.1,0,0.1,0.1C52.6,47.9,52.5,48,52.5,48L52.5,48z M52.6,44.5L52.6,44.5L52.6,44.5L52.6,44.5l0.1-0.4
		c0,0,0.1-0.1,0.1,0l0,0c0,0,0.1,0.1,0,0.1l0,0L52.6,44.5L52.6,44.5L52.6,44.5z M53.2,48l-0.4-0.1c0,0,0,0.1,0,0.1s0,0,0-0.1v0
		c0,0,0,0,0,0v0l0.4-0.1c0,0,0.1,0,0.1,0.1C53.3,47.9,53.2,48,53.2,48L53.2,48z M53.3,34.8l-0.1,0.4l0,0l-0.1-0.4
		C53.1,34.7,53.1,34.7,53.3,34.8L53.3,34.8C53.3,34.7,53.3,34.7,53.3,34.8L53.3,34.8z M53.2,34.6C53.3,34.5,53.3,34.6,53.2,34.6
		l-0.1-0.4c0,0,0-0.1,0.1-0.1c0,0,0,0,0,0c0,0,0.1,0,0.1,0.1l0,0L53.2,34.6z M53.2,33.9L53.2,33.9l-0.1-0.3c0,0,0-0.1,0.1-0.1l0,0
		c0,0,0.1,0,0.1,0.1l0,0L53.2,33.9z M53.8,48.1l-0.4-0.2c0,0,0,0.1,0,0.1s0,0,0-0.1l0.4,0C53.8,47.9,53.9,47.9,53.8,48.1
		C53.9,48,53.8,48.1,53.8,48.1L53.8,48.1L53.8,48.1z M54.4,48.1L54,48c0-0.1,0.1-0.1,0,0l0.4-0.1c0,0,0.1,0,0.1,0.1l0,0
		C54.5,48,54.4,48.1,54.4,48.1C54.4,48.1,54.4,48.1,54.4,48.1L54.4,48.1z M55.1,48.1L54.7,48v0l0,0v0l0.4-0.1
		C55.1,47.9,55.2,48,55.1,48.1C55.2,48.1,55.1,48.1,55.1,48.1L55.1,48.1z M55.7,48.1L55.3,48v0l0,0v0l0.4-0.1c0,0,0.1,0,0.1,0.1
		C55.8,48.1,55.7,48.1,55.7,48.1C55.7,48.1,55.7,48.1,55.7,48.1L55.7,48.1z M56.2,48.1L56.2,48.1c-0.2,0-0.3,0-0.4-0.1
		c0.1,0.1,0,0.1,0,0c0.2-0.1,0.2-0.1,0.3-0.1h0.1c0,0,0.1,0,0.1,0.1S56.3,48.1,56.2,48.1C56.3,48.1,56.2,48.1,56.2,48.1L56.2,48.1z
		 M56.9,48.1L56.5,48l0,0l0.4-0.1c0,0,0.1,0,0.1,0.1C57,48.1,57,48.1,56.9,48.1L56.9,48.1z M57.5,48.1L57.1,48l0,0l0.4-0.1
		c0,0,0.1,0,0.1,0.1C57.6,48.1,57.6,48.1,57.5,48.1L57.5,48.1z M58.1,48.2l-0.4-0.1c0-0.1,0.1-0.1,0,0l0.4-0.1c0,0,0.1,0,0.1,0.1
		C58.2,48.1,58.2,48.2,58.1,48.2C58.1,48.2,58.1,48.2,58.1,48.2L58.1,48.2z M58.8,48.2l-0.4-0.1l0,0l0.4-0.1c0,0,0.1,0,0.1,0.1
		C58.9,48.1,58.9,48.2,58.8,48.2C58.8,48.2,58.8,48.2,58.8,48.2L58.8,48.2z M59.4,48.2L59,48.1l0,0l0.4-0.1c0,0,0.1,0,0.1,0.1
		C59.5,48.1,59.5,48.2,59.4,48.2C59.4,48.2,59.4,48.2,59.4,48.2L59.4,48.2z M60,48.2l-0.4-0.1c0-0.1,0.1-0.1,0,0L60,48
		c0,0,0.1,0,0.1,0.1C60.1,48.1,60.1,48.2,60,48.2C60,48.2,60,48.2,60,48.2L60,48.2z M60.7,48.2l-0.4-0.1c0,0,0,0.1,0,0.1s0,0,0-0.1
		l0.4-0.1c0,0,0.1,0,0.1,0.1S60.8,48.2,60.7,48.2C60.7,48.2,60.7,48.2,60.7,48.2L60.7,48.2z M61.3,48.2l-0.4-0.1c0.1,0.1,0,0.1,0,0
		l0.4-0.1c0,0,0.1,0,0.1,0.1C61.4,48.2,61.3,48.2,61.3,48.2L61.3,48.2z M61.8,48.2l-0.4-0.1c0.1,0.1,0,0.1,0,0l0.4-0.1
		c0,0,0.1,0,0.1,0.1C62,48.2,61.9,48.2,61.8,48.2C61.9,48.2,61.9,48.2,61.8,48.2L61.8,48.2z M62.5,48.2l-0.4-0.1c0,0,0,0.1,0,0.1
		s0,0,0-0.1l0.4-0.1c0,0,0.1,0,0.1,0.1l0,0C62.6,48.2,62.6,48.2,62.5,48.2L62.5,48.2z M63.1,48.2l-0.4-0.1c0.1,0.1,0,0.1,0,0
		l0.4-0.1c0,0,0.1,0,0.1,0.1C63.2,48.2,63.2,48.2,63.1,48.2L63.1,48.2z M63.7,48.2l-0.3-0.1c0,0,0,0.1,0,0.1s0,0,0-0.1v0l0,0v0
		l0.3-0.1c0,0,0.1,0,0.1,0.1C63.8,48.2,63.8,48.2,63.7,48.2C63.7,48.2,63.7,48.2,63.7,48.2L63.7,48.2z M64.4,48.2L64,48.2
		c0,0,0,0.1,0,0.1s0,0,0-0.1v0l0,0v0l0.4-0.1c0.1,0,0.1,0,0.1,0.1C64.5,48.2,64.5,48.2,64.4,48.2L64.4,48.2z M65,48.2l-0.4-0.1
		c0.1,0.1,0,0.1,0,0l0,0l0,0l0,0L65,48c0.1,0,0.1,0,0.1,0.1c0,0,0,0,0,0C65.1,48.2,65.1,48.2,65,48.2L65,48.2z M65.6,48.2l-0.3-0.1
		v0l0,0v0l0.3-0.1c0.1,0,0.1,0,0.1,0.1S65.7,48.2,65.6,48.2C65.6,48.2,65.6,48.2,65.6,48.2L65.6,48.2z M66.3,48.2l-0.4-0.1v0
		c0,0,0,0,0,0v0c0,0,0,0,0,0v0l0.4-0.1C66.3,48,66.4,48.1,66.3,48.2C66.4,48.2,66.3,48.2,66.3,48.2L66.3,48.2z M66.9,48.2l-0.4-0.1
		l0,0l0,0l0,0l0,0l0,0l0,0l0.4-0.1C66.9,48,67,48.1,66.9,48.2C67,48.2,66.9,48.2,66.9,48.2L66.9,48.2z M67.6,48.2l-0.4-0.1v0l0,0v0
		l0.4-0.1c0.1,0,0.1,0,0.1,0.1C67.7,48.1,67.6,48.2,67.6,48.2C67.6,48.2,67.6,48.2,67.6,48.2L67.6,48.2z M68.2,48.2
		c-0.1,0-0.3,0-0.4-0.1v0c0,0,0,0,0,0v0C67.9,48,68,48,68.2,48C68.2,48,68.2,48,68.2,48.2C68.2,48.2,68.2,48.2,68.2,48.2L68.2,48.2z
		 M68.7,48.2l-0.4-0.1l0,0l0,0l0,0l0,0l0,0c0-0.1,0.1-0.1,0,0l0.4-0.1c0.1,0,0.1,0,0.1,0.1S68.8,48.2,68.7,48.2
		C68.8,48.2,68.8,48.2,68.7,48.2L68.7,48.2z M69.4,48.2L69,48.1v0c0,0,0,0,0,0v0l0.4-0.1c0.1,0,0.1,0,0.1,0.1
		C69.5,48.2,69.5,48.2,69.4,48.2C69.4,48.2,69.4,48.2,69.4,48.2L69.4,48.2z M70,48.2l-0.4-0.1l0,0L70,48C70.1,48,70.1,48.1,70,48.2
		C70.1,48.2,70.1,48.2,70,48.2L70,48.2z M70.6,48.2l-0.4-0.1c0.1,0.1,0,0.1,0,0l0,0h0l0.3-0.1c0.1,0,0.1,0,0.1,0.1l0,0
		C70.7,48.1,70.7,48.2,70.6,48.2L70.6,48.2z M71.3,48.2l-0.4-0.1l0,0.1l0-0.1l0.4-0.1c0.1,0,0.1,0,0.1,0.1
		C71.4,48.1,71.4,48.2,71.3,48.2L71.3,48.2z M71.9,48.2l-0.4-0.1c0,0,0,0.1,0,0.1s0,0,0-0.1v0l0,0v0l0.4-0.1c0.1,0,0.1,0,0.1,0.1
		S72,48.2,71.9,48.2C71.9,48.2,71.9,48.2,71.9,48.2L71.9,48.2z M72.5,48.2L72.1,48c0.1,0.1,0,0.1,0,0l0,0l0,0l0,0l0.4-0.1
		c0.1,0,0.1,0,0.1,0.1C72.6,48.1,72.5,48.2,72.5,48.2L72.5,48.2z M73.1,48.1L72.7,48v0l0,0V48l0,0v0l0.4-0.1c0.1,0,0.1,0,0.1,0.1
		C73.3,48.1,73.2,48.1,73.1,48.1C73.1,48.1,73.1,48.1,73.1,48.1L73.1,48.1z M73.8,48L73.4,48v0l0,0v0l0.4-0.1c0.1,0,0.1,0,0.1,0.1
		C73.9,48,73.8,48,73.8,48L73.8,48z M74.4,48L74,48l0,0l0,0l0,0c0-0.1,0.1-0.1,0,0l0.4-0.1c0.1,0,0.1,0,0.1,0.1
		C74.4,48,74.4,48,74.4,48L74.4,48z"/>
	<path class="st0" d="M41.3,41.2c0,0-0.1,0.3-0.1,0.3c0,0.3,0.4,0.5,0.8,0.6c0-0.2,0-0.5,0-0.7c0.1-2.4,0.4-4.8,0.4-7.3
		c0-1.8,0.1-3.7,0.4-5.5c0.1-0.6,0.2-1.1,0.2-1.7c-0.3-0.1-0.5-0.3-0.7-0.5c0,0,0,0,0-0.1c-0.1,0.7-0.1,1.4-0.2,2
		c-0.1,2.1-0.2,4.7-0.3,6c0,0.5,0,0.9,0,1c0,0.4-0.1,2.2-0.1,2.7c0,0.4,0,2.5-0.1,2.6c0,0.1-0.1,0.2-0.2,0.3l0,0
		C41.3,41,41.3,41.1,41.3,41.2z"/>
	<path class="st0" d="M43.3,24.3c0.3-0.6,0.7-1.2,1-1.9c0,0,0-0.1,0-0.1c0.3-0.5,0.6-1,0.9-1.5c0.1-0.2,0.2-0.3,0.4-0.5l0-0.1
		c0,0,0,0,0.1-0.1c1.6-1.9,3.8-3.2,6.2-4.1c1.5-0.6,3.1-1.1,4.8-1.2c1.8-0.1,3.7,0,5.5,0.3c3.4,0.5,6.9,1.2,9.8,3.1
		c2.2,1.4,4.3,3.2,5.2,5.7c0.8,2.1,0.9,4.4,1,6.6c0.1,2.2,0.3,4.3,0.4,6.5c0,1.8,0,3.5,0,5.2c0.4-0.2,0.7-0.5,0.9-1c0,0,0,0-0.1-0.1
		c-0.1-0.1-0.2-0.2-0.3-0.3c-0.1,0-0.1-0.1-0.1-0.2c0,0-0.1-1.1-0.3-2.3c-0.1-1.2-0.2-1.9-0.2-3v-0.3c0.1-4.4,0.1-7,0.1-7.8
		c-0.1-1.3-0.5-3.4-0.8-4.3c0-0.1-0.1-0.4-0.2-0.6c-0.3-1.3-1-4.1-2.6-6.4c-2.1-3.1-5.5-5.3-9.8-6.2c-3.5-0.7-8.6-0.9-12.1,0.5
		c-2.3,0.9-5.6,2.4-8,5.9c-1.8,2.5-2.5,6.6-2.9,9.8C42.5,25.5,43,24.9,43.3,24.3z"/>
	<path class="st0" d="M77.8,44c0.4-0.1,1-0.3,1.3-0.6c0.1-0.1,0.2-0.3,0.3-0.4v0l-0.3,0.1l0,0l0,0l0,0l0-0.1l0,0.1l0.3-0.3
		c0-0.2,0-0.5,0-0.7c0-0.1,0-0.2,0-0.3c-0.3,0.5-0.8,0.7-1.4,0.9c-0.9,0.3-1.8,0.5-2.8,0.4h0c0,0.4,0,0.7,0,1.1
		C76.1,44.2,76.9,44.3,77.8,44z M78.6,43.5l0.3-0.3c0,0,0.1,0,0.1,0s0,0.1,0,0.1c0,0,0,0,0,0L78.6,43.5
		C78.5,43.4,78.6,43.3,78.6,43.5L78.6,43.5z M78.3,43.5c0.1,0,0.1,0,0.1,0c0,0,0,0.1,0,0.1L78,43.7l0,0.1l0-0.1L78.3,43.5z
		 M77.3,43.8l0.4-0.2c0.1,0,0.1,0,0.1,0.1c0,0,0,0.1-0.1,0.1L77.3,43.8L77.3,43.8L77.3,43.8L77.3,43.8L77.3,43.8L77.3,43.8
		L77.3,43.8L77.3,43.8z M76.6,43.9l0.4-0.1c0.1,0,0.1,0,0.1,0.1s0,0.1-0.1,0.1c0,0,0,0,0,0L76.6,43.9L76.6,43.9L76.6,43.9L76.6,43.9
		L76.6,43.9L76.6,43.9C76.6,43.8,76.7,43.8,76.6,43.9L76.6,43.9z M75.8,44l-0.4-0.1V44v-0.1l0.4-0.1c0.1,0,0.1,0,0.1,0.1
		C75.9,43.9,75.8,44,75.8,44C75.8,44,75.8,44,75.8,44z M76,43.8L76,43.8l0.4,0c0.1,0,0.1,0,0.1,0.1c0,0,0,0.1-0.1,0.1L76,43.8
		C76,43.9,76,43.8,76,43.8z"/>
	<path class="st0" d="M40.4,42.4c0,0.1,0,0.2,0.1,0.3c0,0,0,0,0,0.1l0,0c0.4,0.7,1.2,0.8,1.9,0.9c0.8,0.2,1.5,0.5,2.3,0.4
		c0,0,0-0.1,0-0.2h0c0,0-0.1-0.1-0.1-0.1s0-0.1,0.1-0.1l0,0c0-0.4,0-0.7,0-1c-0.9,0.1-1.8,0-2.7-0.3c-0.3-0.1-0.8-0.2-1.1-0.5
		c-0.3-0.3,0-0.5,0-0.8l-0.1,0c-0.2,0-0.4,0.3-0.4,0.4s0,0.2,0,0.4C40.4,42.1,40.4,42.2,40.4,42.4z M43.9,43.8
		C43.9,43.7,44,43.7,43.9,43.8L43.9,43.8l0.5,0v-0.1v0.1L44,43.9C43.9,43.9,43.9,43.8,43.9,43.8C43.9,43.8,43.9,43.8,43.9,43.8z
		 M43.2,43.6c0,0,0.1-0.1,0.1-0.1l0.4,0.2c-0.1-0.1,0-0.1,0,0h0l0,0h0l0,0h0l0,0h0l-0.4,0C43.2,43.7,43.2,43.7,43.2,43.6
		C43.2,43.6,43.2,43.6,43.2,43.6L43.2,43.6z M42.6,43.5C42.6,43.5,42.6,43.4,42.6,43.5c0.1-0.1,0.1-0.1,0.1-0.1l0.4,0.1v0l0,0v0v0.1
		v-0.1l-0.4,0.1C42.6,43.6,42.6,43.6,42.6,43.5L42.6,43.5L42.6,43.5z M41.9,43.3c0,0,0.1-0.1,0.1,0c0,0,0,0,0,0l0.3,0.2l0,0.1l0-0.1
		h-0.4C41.9,43.4,41.9,43.3,41.9,43.3C41.9,43.3,41.9,43.3,41.9,43.3L41.9,43.3z M41.3,43c0,0,0.1-0.1,0.1,0l0,0l0.3,0.3
		c0-0.1,0-0.1,0,0l-0.4-0.1C41.3,43.2,41.3,43.1,41.3,43L41.3,43L41.3,43z M40.7,42.7c0,0,0.1-0.1,0.1,0l0,0l0.3,0.3l0-0.1l0,0.1
		l0,0v0v0l0,0v0v0l0,0l-0.4-0.1C40.7,42.8,40.7,42.8,40.7,42.7L40.7,42.7z"/>
	<path class="st0" d="M78.6,43.4L78.6,43.4L78.6,43.4z"/>
	<path class="st0" d="M70.2,48.1L70.2,48.1L70.2,48.1L70.2,48.1z"/>
	<path class="st0" d="M75.1,28c0.1,2.1,0.3,7.2,0.3,9.3c0,1.3-0.1,3.6-0.1,5.6c0,0,0.1,0,0.1,0c0.8,0,1.9,0,2.7-0.4
		c0-0.2,0-0.3,0-0.5c0-2,0.1-4,0-5.9c-0.1-2.2-0.4-4.3-0.4-6.5c0-2.2-0.4-4.5-1.3-6.5c-0.6-1.2-1.5-2.1-2.5-3
		c-0.9-0.9-2-1.6-3.1-2.2c-1.5-0.8-3.2-1.3-4.8-1.7c-1.9-0.4-3.8-0.8-5.7-1c-1.9-0.2-3.8-0.2-5.6,0.2c-1.7,0.3-3.3,1.1-4.8,1.9
		C48.4,18,47.1,19,46,20.3c0,0,0,0,0,0c0,1-0.4,2-0.7,3c-0.3,0.9-0.5,2-1,2.8c-0.2,0.3-0.6,0.9-1,0.9c-0.2,1.3-0.3,2.6-0.4,3.9
		c-0.1,1.8-0.1,3.7-0.2,5.5c-0.1,1.1-0.2,2.2-0.3,3.3c0,0.8-0.1,1.6-0.1,2.4c0,0,0,0,0,0l0.1,0c0.8,0.3,1.7,0.4,2.5,0.3
		c0-0.4,0-0.7,0-0.9c0-0.7-0.1-1.6-0.3-2.5c-0.1-0.8-0.2-1.5-0.3-2.3c-0.1-1.6,0.8-11.1,1.8-13.5c1-2.4,2.5-3.6,4.9-5
		c2.1-1.2,5.3-2,8.7-2c2.5,0,3.8,0.4,5.6,0.8c0.5,0.1,1.1,0.3,1.7,0.4c2.6,0.6,4.3,1.9,6.3,4.7c1.7,2.5,1.8,3.5,1.9,5.4L75.1,28z"/>
	<path class="st0" d="M50.2,39.9L50.2,39.9L50.2,39.9L50.2,39.9z"/>
	<path class="st0" d="M78.6,43.5L78.6,43.5L78.6,43.5z"/>
	<path class="st0" d="M57.9,51.4c0.9,0,2.3,0,3.7,0c3.3,0,7.1,0.1,7.9,0c1-0.1,4.1-0.2,5-0.2c0-0.3,0-0.8,0-1.2c0-0.5,0-1,0-1.6
		l-1.7,0.1c-0.1,0-6.9,0.1-9.3,0.1c-0.3,0-0.8,0-1.2,0c-3,0-8.1-0.1-10-0.2c-2-0.1-6-0.5-6.9-0.6c0,0.3,0,0.5,0,0.7
		c0,0.5,0,1-0.1,1.4c0,0.2,0,0.4,0,0.5c0,0,0,0.1,0,0.2c0.4,0,0.9,0,1.5,0.1c0,0,0.1,0,0.2,0c0.3,0,0.7,0,1,0.1h0.1c0,0,0.1,0,0.1,0
		l0.3,0C50.2,50.9,55.1,51.4,57.9,51.4z"/>
	<path class="st0" d="M45.8,55.2c0,0.2-0.1,0.5-0.1,0.7c0,0.4,0.2,0.5,0.5,0.5s0.3-0.1,0.4-0.5c0.1-0.3,0.1-0.6,0.2-0.8
		c0.1-0.5,0.2-1,0.3-1.5c0.2-1,0.4-2,0.7-2.9v0c-0.3,0-0.6,0-0.9-0.1c-0.2,1-0.5,2-0.7,3.1C46,54.3,45.9,54.8,45.8,55.2z M47.4,50.9
		c0.1,0,0.1,0,0.1,0.1l-0.2,0.4l0.1,0l-0.1,0l0-0.4C47.3,51,47.3,50.9,47.4,50.9L47.4,50.9z M47.3,51.6c0,0,0.1,0.1,0.1,0.1l0,0
		l-0.2,0.4c0.1-0.1,0.1,0,0,0l0-0.4C47.2,51.6,47.2,51.6,47.3,51.6L47.3,51.6L47.3,51.6z M47.2,52.2c0,0,0.1,0.1,0.1,0.1l-0.2,0.4
		c0.1-0.1,0.1,0,0,0l0-0.4C47.1,52.2,47.1,52.2,47.2,52.2L47.2,52.2L47.2,52.2z M47,52.8c0,0,0.1,0.1,0.1,0.1L47,53.2l0.1,0l-0.1,0
		l0-0.4C47,52.8,47,52.8,47,52.8L47,52.8z M46.8,53.9l0-0.4c0,0,0.1-0.1,0.1-0.1s0.1,0.1,0.1,0.1L46.8,53.9
		C46.7,53.9,46.7,53.8,46.8,53.9L46.8,53.9z M46.7,54.1c0,0,0.1-0.1,0.1-0.1s0.1,0.1,0.1,0.1l0,0l-0.2,0.4l-0.1,0l0.1,0L46.7,54.1z
		 M46.6,54.7c0,0,0-0.1,0.1-0.1c0,0,0.1,0,0.1,0.1c0,0,0,0,0,0l-0.2,0.4l-0.1,0l0.1,0L46.6,54.7z M46.5,55.8l0-0.4
		c0,0,0-0.1,0.1-0.1c0,0,0.1,0,0.1,0.1c0,0,0,0,0,0L46.5,55.8C46.4,55.7,46.4,55.6,46.5,55.8L46.5,55.8z M46.3,55.9
		c0,0,0.1-0.1,0.1-0.1s0.1,0.1,0.1,0.1l0,0l-0.2,0.4l-0.1,0l0.1,0L46.3,55.9z"/>
	<path class="st0" d="M43.8,64.8c0.1-0.9,0.4-2.4,0.5-2.9c0.1-0.4,0-1.7,0-2.7c0-0.7-0.1-1.3-0.1-1.7c0-1.2,0.3-4.9,0.4-5.7
		c0-0.4,0.1-0.7,0-1.1c0-0.1,0-0.2,0-0.3c0-0.1,0-0.3,0-0.6c0-0.4,0.1-0.8,0.1-1.3c0-0.4,0-1.4,0-2.7c0-0.5,0-1,0-1.5
		c-0.9,0.1-1.8-0.2-2.7-0.5c-0.5-0.1-1.1-0.2-1.5-0.6c0,0.8-0.1,2.5,0,3.5c0,0.8,0.3,2.1,0.4,3.1c0.1,0.4,0.1,0.8,0.2,1.1
		c0,0.4,0.2,6.7,0.4,8.2c0.2,1.6,0.3,3.2,0.8,4c0.3,0.6,0.8,1.1,1.3,1.4l0,0C43.7,64.7,43.7,64.7,43.8,64.8z"/>
	<path class="st0" d="M47.2,52.1L47.2,52.1L47.2,52.1z"/>
	<path class="st0" d="M49.7,34.5c0.2,0.1,0.4,0.1,0.5,0c0-0.1,0-0.3,0-0.4c0-0.8,0.1-1.7,0.3-2.5c0-0.9,0-1.7,0-2.6l-0.1,0.3l0.1,0
		l-0.1,0h0l0,0h0l0-0.4c0,0,0.1-0.1,0.1-0.1l0,0c0,0,0,0,0,0c0-0.3,0-0.6,0-0.9c-0.3,0.5-0.4,1.1-0.5,1.6c-0.2,1-0.4,2-0.5,3
		c0,0.5-0.2,1.1-0.1,1.6C49.4,34.3,49.4,34.4,49.7,34.5z M49.7,34L49.7,34L49.7,34l-0.1-0.4c0,0,0-0.1,0.1-0.1s0.1,0,0.1,0.1
		c0,0,0,0,0,0L49.7,34z M50.2,29.5c0,0,0.1-0.1,0.1-0.1c0,0,0.1,0.1,0.1,0.1l0,0l-0.2,0.4l0.1,0l-0.1,0l0,0l0,0l0,0L50.2,29.5z
		 M50.1,30c0,0,0.1,0.1,0.1,0.1c0,0,0,0,0,0L50,30.5c0.1-0.1,0.1,0,0,0l0-0.4C50,30.1,50.1,30,50.1,30C50.1,30,50.1,30,50.1,30
		L50.1,30z M49.9,30.8c0,0,0.1-0.1,0.1,0c0,0,0.1,0.1,0,0.1l-0.2,0.4l-0.1,0l0.1,0L49.9,30.8z M49.9,31.5
		C49.9,31.5,50,31.5,49.9,31.5L49.9,31.5v0.5l0,0V31.5C49.8,31.5,49.8,31.5,49.9,31.5L49.9,31.5L49.9,31.5z M49.8,32.1
		c0,0,0.1,0,0.1,0.1c0,0,0,0,0,0l-0.1,0.4c0.1-0.1,0.1,0,0,0l0,0l0,0l0,0l0,0l0,0L49.8,32.1C49.7,32.1,49.8,32.1,49.8,32.1
		C49.8,32.1,49.8,32.1,49.8,32.1L49.8,32.1z M49.7,32.8C49.7,32.8,49.8,32.9,49.7,32.8L49.7,32.8l0,0.5l0,0l-0.1-0.4
		C49.5,32.8,49.6,32.8,49.7,32.8L49.7,32.8L49.7,32.8z"/>
	<path class="st0" d="M50.2,40L50.2,40C50.2,40,50.2,40,50.2,40z"/>
	<path class="st0" d="M50,30.5L50,30.5L50,30.5z"/>
	<polygon class="st0" points="59.3,58.8 59.3,59.1 59.5,58.9 	"/>
	<path class="st0" d="M59,58.7l-0.3-0.1c0.1,0.1,0.2,0.2,0.3,0.3V58.7z"/>
	<polygon class="st0" points="59.8,59.5 59.9,59.5 60,59.3 59.8,59.3 	"/>
	<polygon class="st0" points="60.3,58.9 60.4,58.7 60.3,58.8 	"/>
	<path class="st0" d="M59.9,58.4l-0.2,0.4l0.1,0.4l0.2-0.1l0.1-0.3C60,58.6,60,58.5,59.9,58.4z"/>
	<polygon class="st0" points="60.4,59.8 60.5,59.8 60.7,59.5 60.5,59.5 	"/>
	<polygon class="st0" points="60.2,59.5 60.5,59.2 60.5,59.2 60.5,59 60.2,59.2 	"/>
	<path class="st0" d="M59.3,58.4v0.2h0.1C59.4,58.5,59.3,58.5,59.3,58.4z"/>
	<path class="st0" d="M59.5,59.9h-0.4c0,0,0.3-0.2,0.5-0.3c-0.1,0-0.1,0-0.1-0.1L59,59.9h-0.2l0.1-0.1c-0.1-0.1-0.2-0.1-0.3-0.1
		l-0.2,0.2h-0.1c0,0.2,0,0.4,0.1,0.5c0,0.1,0,0.1,0.1,0.1c0.5,0,1,0.1,1.4,0.2l0-0.7c0-0.1-0.1-0.1-0.1-0.2L59.5,59.9z"/>
	<path class="st0" d="M58.2,59.5c0,0.1,0,0.1,0,0.2c0-0.1,0.1-0.1,0.1-0.2H58.2z"/>
	<polygon class="st0" points="58.6,59.3 58.2,59.3 58.5,59.5 	"/>
	<path class="st0" d="M75.5,65.7c-0.1-0.3-0.3-1.3-0.3-1.9c0-0.4-0.1-2.4-0.2-4.4c0-1.3-0.1-2.5-0.1-3c0-0.5-0.1-1.2-0.2-2
		c-0.1-1.1-0.2-2.3-0.2-3c-0.9,0-4,0.1-5,0.2c-0.4,0-1.5,0-2.9,0c-1.5,0-3.3,0-5,0c-1.4,0-2.8,0-3.7,0c-2.7,0-7.7-0.5-9.5-0.7
		l-0.3,0c-0.3,1.3-0.6,2.6-0.9,3.9c-0.1,0.3-0.2,0.7-0.2,1c0,0.2,0,0.6-0.2,0.8c-0.1,0.2-0.3,0.2-0.5,0.2c-0.3,0-0.8,0-1-0.4
		c-0.2-0.5,0.1-1.2,0.2-1.7c0.3-1.3,0.6-2.7,1-4l0,0c-0.5,0-1-0.1-1.4-0.1c0,0,0,0,0,0c0,0.4,0,0.8,0,1.2c-0.1,0.7-0.4,4.4-0.4,5.6
		c0,0.4,0,1,0.1,1.7c0.1,1.5,0.2,2.5,0,2.9c-0.2,0.6-0.6,3.4-0.6,3.4c0,0.1-0.1,0.2-0.1,0.2c0,0,0,0,0,0c0,0.1,0,0.5,1.6,0.4
		c0.4,0,0.7,0,1,0c1.2,0,2,0.1,2.8,0.1l0.5,0c1.3,0.1,7.7,0.3,7.9,0.4c2.9,0,5.4-0.2,7.4-0.3c1.8-0.1,3.2-0.2,4.1-0.1
		c1.8,0.1,5.1,0.1,5.5,0c0.2-0.1,0.3-0.2,0.4-0.3C75.4,65.9,75.5,65.8,75.5,65.7C75.5,65.7,75.5,65.7,75.5,65.7z M62.2,59.3l-0.2,0
		c0-0.1,0-0.2-0.1-0.2l0.2-0.1C62.2,59.1,62.2,59.2,62.2,59.3z M62,58.8l-0.1,0.1c0-0.1-0.1-0.2-0.1-0.2l0.1-0.1
		C62,58.7,62,58.7,62,58.8L62,58.8z M61.6,58.2c0.1,0.1,0.1,0.1,0.2,0.2l-0.1,0.1c0-0.1-0.1-0.1-0.2-0.2L61.6,58.2z M61.2,57.9
		c0.1,0,0.2,0.1,0.2,0.2l-0.1,0.1c-0.1,0-0.1-0.1-0.2-0.2L61.2,57.9z M60.8,57.7c0.1,0,0.2,0.1,0.3,0.1l-0.1,0.2
		c-0.1,0-0.2-0.1-0.2-0.1L60.8,57.7z M60.3,57.5c0,0,0.1,0,0.1,0l0.1,0l0,0.2l-0.1,0c0,0-0.1,0-0.1,0L60.3,57.5z M60.3,58.1l0.2,0.4
		l0.4-0.2c0.1,0,0.1,0,0.1,0.1l-0.4,0.3l0.1,0.3c0,0,0.3-0.3,0.4-0.5c0.1,0,0.1,0.1,0.1,0.1c-0.1,0.1-0.1,0.2-0.2,0.3h0.5
		c0.1,0.1,0.1,0.1,0.1,0.1h-0.4L61,59.4l0.3-0.1l0.4-0.1c0,0,0.1,0.1,0.1,0.1l-0.5,0.1l-0.4,0.1c-0.1,0.1-0.1,0.1-0.1,0.2
		c0.3-0.1,0.7-0.1,1.1-0.2c0.1,0.5,0.1,1.1-0.3,1.5c-0.9,0.2-2-0.2-3,0h-0.3c-0.2-0.3-0.3-0.5-0.3-0.9c0-0.3,0-0.7,0.2-1l0.5,0
		l-0.3-0.3c0-0.1,0.1-0.1,0.1-0.1c0.1,0.1,0.4,0.5,0.4,0.5h0.1l-0.5-0.5l0.2-0.2l0.4,0.1c0,0,0-0.2,0-0.3c0.1,0,0.2-0.1,0.3-0.1
		c0.1,0.1,0.1,0.3,0.2,0.4c0.1-0.1,0.2-0.3,0.3-0.5h0.1l0.3,0.7h0.1c0,0-0.1-0.3-0.2-0.5L60.3,58.1z M59.9,57.5l0.1,0l0,0.2l-0.1,0
		l-0.1,0l0-0.2L59.9,57.5z M59.4,57.5c0,0,0.1,0,0.1,0l0,0.2c0,0-0.1,0-0.1,0l-0.1,0l0-0.2L59.4,57.5z M59,57.7l0.1,0.2
		c-0.1,0-0.2,0.1-0.2,0.1l-0.1-0.2C58.9,57.7,59,57.7,59,57.7L59,57.7z M58.6,57.9l0.1,0.1c-0.1,0-0.1,0.1-0.2,0.2L58.4,58
		C58.5,58,58.5,57.9,58.6,57.9L58.6,57.9z M58.2,58.2l0.1,0.1c-0.1,0.1-0.1,0.1-0.2,0.2L58,58.4C58.1,58.3,58.1,58.2,58.2,58.2
		L58.2,58.2z M57.9,58.6l0.1,0.1c0,0.1-0.1,0.2-0.1,0.2l-0.2-0.1C57.8,58.7,57.8,58.7,57.9,58.6L57.9,58.6z M57.7,59l0.2,0.1
		c0,0.1-0.1,0.2-0.1,0.2l-0.2,0C57.6,59.2,57.6,59.1,57.7,59L57.7,59z M57.5,59.6l0-0.1l0.2,0l0,0.1c0,0,0,0.1,0,0.1l-0.2,0
		C57.5,59.7,57.5,59.7,57.5,59.6L57.5,59.6z M57.5,60.2l0-0.1l0.2,0l0,0.1l0,0.1l-0.2,0L57.5,60.2z M57.6,60.5l0.2,0
		c0,0.1,0,0.2,0.1,0.2l-0.2,0.1C57.6,60.7,57.6,60.6,57.6,60.5L57.6,60.5z M57.9,61.2c0-0.1-0.1-0.2-0.1-0.2l0.2-0.1
		c0,0.1,0.1,0.2,0.1,0.2L57.9,61.2z M58.2,61.6c-0.1-0.1-0.1-0.1-0.2-0.2l0.1-0.1c0,0.1,0.1,0.1,0.2,0.2L58.2,61.6z M58.6,61.9
		c-0.1,0-0.2-0.1-0.2-0.2l0.1-0.1c0.1,0,0.1,0.1,0.2,0.2L58.6,61.9z M58.5,61.3L58.5,61.3l0.5,0.1l1.1,0.2c0.3,0.1,0.5,0.1,0.8,0.1
		c-0.5,0.3-1.4,0.3-2,0C58.8,61.5,58.7,61.4,58.5,61.3L58.5,61.3z M59,62.2c-0.1,0-0.2-0.1-0.3-0.1l0.1-0.2c0.1,0,0.2,0.1,0.2,0.1
		L59,62.2z M59.5,62.3c0,0-0.1,0-0.1,0l-0.1,0l0-0.2l0.1,0c0,0,0.1,0,0.1,0L59.5,62.3z M59.9,62.3l-0.1,0l0-0.2l0.1,0l0.1,0l0,0.2
		L59.9,62.3z M60.4,62.3c0,0-0.1,0-0.1,0l0-0.2c0,0,0.1,0,0.1,0l0.1,0l0,0.2L60.4,62.3z M60.7,62.2L60.7,62c0.1,0,0.2-0.1,0.2-0.1
		L61,62C60.9,62.1,60.8,62.1,60.7,62.2L60.7,62.2z M61.2,61.9l-0.1-0.1c0.1,0,0.1-0.1,0.2-0.2l0.1,0.1
		C61.3,61.8,61.3,61.9,61.2,61.9L61.2,61.9z M61,61.5c-0.9-0.1-1.8-0.3-2.6-0.4l-0.1-0.1c0.7-0.1,1.4,0,2.1,0.1c0.4,0,0.7,0,1.1-0.1
		C61.3,61.2,61.2,61.4,61,61.5L61,61.5z M61.6,61.6l-0.1-0.1c0.1-0.1,0.1-0.1,0.2-0.2l0.1,0.1C61.7,61.5,61.7,61.5,61.6,61.6
		L61.6,61.6z M61.9,61.2l-0.1-0.1c0-0.1,0.1-0.2,0.1-0.2l0.2,0.1C62,61.1,62,61.2,61.9,61.2L61.9,61.2z M62.1,60.8L62,60.7
		c0-0.1,0.1-0.2,0.1-0.2l0.2,0C62.2,60.6,62.2,60.7,62.1,60.8L62.1,60.8z M62.3,60.2l0,0.1l-0.2,0l0-0.1c0,0,0-0.1,0-0.1l0.2,0
		C62.3,60.1,62.3,60.1,62.3,60.2L62.3,60.2z M62.1,59.8l0-0.1l0-0.1l0.2,0l0,0.1l0,0.1L62.1,59.8z"/>
	<path class="st0" d="M79.2,43.6c-0.4,0.2-0.8,0.4-1.2,0.5c-0.9,0.3-1.9,0.3-2.8,0.2c0,0.8-0.1,1.5-0.1,2c-0.1,1.2-0.1,2.5,0,3.6
		c0,0.5,0,0.9,0,1.2c0,0.7,0.1,1.9,0.2,3c0.1,0.8,0.2,1.5,0.2,2c0,0.5,0.1,1.7,0.1,3c0.1,1.9,0.1,4,0.2,4.4c0,0.4,0.2,1.2,0.2,1.6
		c0.3-0.1,0.6-0.3,0.7-0.5c0.2-0.3,0.4-0.6,0.6-0.9c0-0.1,0.1-0.2,0.1-0.4c0.1-0.3,0.1-0.6,0.2-0.8c0.1-0.3,0.5-2,0.7-2.6l0-0.2
		c0.1-0.4,0.2-1.4,0.2-2.2c0-0.2,0-0.3,0-0.5c0.1-1,0.3-4,0.5-4.9c0.1-0.9,0.2-3.6,0.2-4.3c0-0.6,0-1.3,0.2-1.9
		c0.1-0.4,0.1-0.8,0.2-1.2c0-0.1,0-0.3,0-0.4c0-0.4,0-0.8-0.1-1.2C79.4,43.4,79.3,43.5,79.2,43.6z"/>
	<polygon class="st0" points="59.2,59.4 59.2,59.3 58.8,59.3 58.7,59.5 59,59.6 	"/>
	<path class="st0" d="M60.1,60.1c0,0.2,0,0.5,0,0.7v0.1c0.4,0.1,0.8,0.1,1.2,0.2h0.1c0.1-0.1,0.2-0.3,0.3-0.5c0.1-0.2,0.1-0.5,0-0.7
		l-0.2,0.1c0.1,0.1,0.1,0.2,0.1,0.3h-0.2l-0.2-0.2c-0.1,0-0.2,0-0.3,0.1l0.1,0.1h-0.1L60.7,60C60.5,60,60.3,60.1,60.1,60.1z"/>
	<polygon class="st0" points="61,59 60.9,59 60.7,59.3 60.8,59.3 	"/>
	<path class="st0" d="M59.6,59.1l-0.1,0.2l0.1,0.2C59.7,59.4,59.6,59.3,59.6,59.1z"/>
	<path class="st1" d="M50.8,23.2L50.8,23.2c0,0.1,0,0.1,0,0.1c0,0,0,0,0,0.1c0,3.7,0,7.4,0,11c0,1.7,0,3.4,0,5.1c0,0.8,0,1.6,0,2.4
		c0,0.4-0.1,1.2,0,1.6c0.2,0.6,1.3,0.6,1.4-0.1c0-0.4,0-0.8,0-1.2c0-0.9,0-1.8,0-2.7c0-2.8,0-5.7,0-8.5c0-1.4,0-2.8,0-4.1
		c0-0.8,0-1.6,0-2.5c0-0.3,0.1-0.9,0-1.2C52.2,23,50.9,22.9,50.8,23.2z"/>
	<path class="st1" d="M44.2,25L44.2,25L44.2,25z"/>
	<path class="st1" d="M44.3,25.2c0.3-0.8,0.6-1.6,0.8-2.5c0,0-0.1,0-0.1,0c0,0-0.1-0.1-0.1-0.1l0,0l0.2-0.4l-0.1,0l0.1,0l0,0.4
		c0.1-0.2,0.1-0.4,0.2-0.6c0,0-0.1,0-0.1,0c0,0-0.1-0.1-0.1-0.1l0,0l0.2-0.4l0.1,0c0.1-0.3,0.1-0.6,0.1-0.8
		c-0.3,0.4-0.6,0.8-0.8,1.2c-0.5,1-1,2-1.6,3c-0.2,0.3-0.4,0.6-0.6,0.9c-0.2,0.3-0.2,0.3,0.1,0.5c0.3,0.2,0.6,0.4,0.9,0
		C43.9,26.2,44.1,25.7,44.3,25.2z M44.7,23.3L45,23c-0.1,0-0.1,0,0,0l0,0l0,0l0,0l-0.1,0.4c0,0-0.1,0.1-0.1,0
		C44.7,23.4,44.7,23.4,44.7,23.3z M44.5,24l0.2-0.4l0,0l0,0l0,0l0.1,0l-0.1,0l0,0.4c0,0-0.1,0.1-0.1,0.1l0,0
		C44.5,24.1,44.5,24.1,44.5,24L44.5,24L44.5,24z M44.2,24.6l0.2-0.3l0.1,0l-0.1,0l-0.1,0.4c0,0-0.1,0-0.1,0
		C44.2,24.7,44.2,24.6,44.2,24.6z M44.2,25l-0.1,0.4c0,0-0.1,0.1-0.1,0c0,0-0.1-0.1,0-0.1l0,0L44.2,25C44.1,25,44.1,24.9,44.2,25
		L44.2,25z M43.4,26l-0.1,0.4c0,0-0.1,0.1-0.1,0c0,0,0,0,0,0c0,0-0.1-0.1,0-0.1l0,0L43.4,26L43.4,26L43.4,26L43.4,26L43.4,26
		L43.4,26L43.4,26L43.4,26L43.4,26L43.4,26L43.4,26L43.4,26z M43.6,25.9l0.3-0.3l-0.1,0l0.1,0l0,0l0,0l0,0l0,0l0,0l0,0l0,0L43.8,26
		c0,0-0.1,0.1-0.1,0l0,0C43.6,26,43.6,25.9,43.6,25.9L43.6,25.9L43.6,25.9z"/>
	<path class="st1" d="M45.4,21.9c0-0.1,0-0.2,0.1-0.3l-0.1,0L45.4,21.9z"/>
	<path class="st1" d="M44.2,25L44.2,25L44.2,25z"/>
	<path class="st0" d="M70.9,48.1L70.9,48.1"/>
	<path class="st0" d="M51.8,22.4L51.8,22.4"/>
	<path class="st0" d="M52.5,22.4L52.5,22.4"/>
	<path class="st0" d="M50.6,22.5L50.6,22.5"/>
	<path class="st0" d="M53.1,26.4L53.1,26.4"/>
	<path class="st0" d="M76.6,43.9L76.6,43.9"/>
	<path class="st0" d="M50.1,40.6L50.1,40.6"/>
	<path class="st0" d="M77.3,43.8L77.3,43.8"/>
	<path class="st0" d="M52.7,44.5L52.7,44.5"/>
	<path class="st0" d="M78,43.7L78,43.7"/>
	<path class="st0" d="M41.1,43L41.1,43"/>
	<path class="st0" d="M42.3,43.5L42.3,43.5"/>
	<path class="st0" d="M79.1,43L79.1,43"/>
	<path class="st0" d="M49.9,31.3L49.9,31.3"/>
	<path class="st0" d="M50.2,29.9L50.2,29.9"/>
	<path class="st0" d="M50.4,29.2L50.4,29.2"/>
	<path class="st0" d="M45.4,21.6L45.4,21.6"/>
	<path class="st0" d="M45.2,22.3L45.2,22.3"/>
	<path class="st0" d="M44.8,23.7L44.8,23.7"/>
	<path class="st0" d="M44.5,24.4L44.5,24.4"/>
	<path class="st0" d="M43.8,25.5L43.8,25.5"/>
	<path class="st0" d="M43.4,26L43.4,26"/>
	<path d="M60.2,58.6l-0.3-0.7h-0.1c-0.1,0.1-0.1,0.3-0.3,0.5c-0.1-0.1-0.1-0.3-0.2-0.4c-0.1,0-0.2,0-0.3,0.1c0,0.1,0,0.3,0,0.3
		l-0.4-0.1l-0.2,0.2l0.5,0.5h-0.1c0,0-0.3-0.3-0.4-0.5c0,0.1-0.1,0.1-0.1,0.1l0.3,0.3l-0.5,0c-0.2,0.3-0.2,0.7-0.2,1
		c0.1,0.3,0.1,0.6,0.3,0.9h0.3c1-0.1,2,0.2,3,0c0.3-0.4,0.4-0.9,0.3-1.5c-0.4,0.1-0.7,0.1-1.1,0.2c0.1-0.1,0.1-0.1,0.1-0.2l0.4-0.1
		l0.5-0.1c0,0,0-0.1-0.1-0.1l-0.4,0.1L61,59.3l0.3-0.4h0.4c-0.1,0-0.1-0.1-0.1-0.1h-0.5c0.1-0.1,0.1-0.2,0.2-0.3
		c-0.1,0-0.1-0.1-0.1-0.1C61,58.6,60.7,59,60.7,59l-0.1-0.3l0.4-0.3c-0.1-0.1-0.1-0.1-0.1-0.1l-0.4,0.2l-0.2-0.4h-0.1
		c0.1,0.2,0.2,0.5,0.2,0.5L60.2,58.6z M59.6,59.1c0,0.1,0.1,0.3,0.1,0.4l-0.1-0.2L59.6,59.1z M59.3,58.4c0,0.1,0.1,0.1,0.1,0.2h-0.1
		L59.3,58.4z M59.3,58.8l0.1,0.1l-0.1,0.3L59.3,58.8z M58.8,58.6l0.3,0.1v0.3C59,58.8,58.9,58.7,58.8,58.6z M58.8,59.3l0.3,0.1
		l0.1,0.1L59,59.6l-0.3-0.1L58.8,59.3z M58.6,59.3l-0.1,0.1l-0.3-0.1L58.6,59.3z M58.2,59.7c0-0.1,0-0.1,0-0.2h0.1
		C58.3,59.6,58.3,59.7,58.2,59.7L58.2,59.7z M59.8,60.6c-0.5-0.1-0.9-0.1-1.4-0.2c-0.1,0-0.1-0.1-0.1-0.1c0-0.2-0.1-0.4-0.1-0.5h0.1
		l0.2-0.2c0.1,0.1,0.2,0.1,0.3,0.1l-0.1,0.1H59l0.5-0.3c0,0.1,0.1,0.1,0.1,0.1c-0.1,0.1-0.5,0.3-0.5,0.3h0.4l0.2-0.1
		c0.1,0.1,0.1,0.1,0.1,0.2L59.8,60.6z M59.9,59.5L59.9,59.5l-0.1-0.1H60L59.9,59.5z M59.8,59.2l-0.1-0.4l0.2-0.4
		c0,0.1,0.1,0.2,0.2,0.3l-0.1,0.3L59.8,59.2z M60.8,60.1H61L60.9,60c0.1,0,0.2,0,0.3-0.1l0.2,0.2h0.2c0-0.1-0.1-0.2-0.1-0.3l0.2-0.1
		c0.1,0.2,0.1,0.5,0,0.7c-0.1,0.1-0.1,0.3-0.3,0.5h-0.1c-0.4,0-0.8-0.1-1.2-0.2v-0.1c0-0.2,0-0.5,0-0.7c0.2,0,0.4-0.1,0.6-0.1
		L60.8,60.1z M60.9,59H61l-0.2,0.3h-0.1L60.9,59z M60.7,59.5l-0.1,0.2h-0.1l0.1-0.2H60.7z M60.5,59.1L60.5,59.1l-0.3,0.4v-0.3
		l0.3-0.2L60.5,59.1z M60.3,58.9L60.3,58.9l0.1-0.1L60.3,58.9z M61.5,61.1c-0.1,0.1-0.3,0.3-0.5,0.4c-0.9-0.1-1.8-0.3-2.6-0.4
		l-0.1-0.1c0.7-0.1,1.4,0,2.1,0.1C60.7,61.2,61.1,61.2,61.5,61.1z M59,61.6c-0.2-0.1-0.3-0.2-0.4-0.3h0.1l0.4,0.1l1.1,0.2
		c0.3,0.1,0.5,0.1,0.8,0.1C60.4,62,59.5,62,59,61.6L59,61.6z M61.9,60.9l0.2,0.1c0,0.1-0.1,0.2-0.1,0.2l-0.1-0.1
		C61.8,61.1,61.9,61,61.9,60.9L61.9,60.9z M62.1,60.5l0.2,0c0,0.1,0,0.2-0.1,0.3L62,60.7C62,60.6,62,60.6,62.1,60.5L62.1,60.5z
		 M62.1,60l0.2,0c0,0,0,0.1,0,0.1l0,0.1l-0.2,0l0-0.1C62.1,60.1,62.1,60,62.1,60L62.1,60z M60.9,61.9L61,62c-0.1,0-0.2,0.1-0.3,0.1
		L60.7,62C60.8,62,60.8,61.9,60.9,61.9L60.9,61.9z M61.3,61.6l0.1,0.1c-0.1,0-0.2,0.1-0.2,0.2l-0.1-0.1
		C61.2,61.8,61.2,61.7,61.3,61.6L61.3,61.6z M61.7,61.3l0.1,0.1c-0.1,0.1-0.1,0.1-0.2,0.2l-0.1-0.1C61.5,61.4,61.6,61.4,61.7,61.3
		L61.7,61.3z M59.4,62.1c0,0,0.1,0,0.1,0l0,0.2c0,0-0.1,0-0.1,0l-0.1,0l0-0.2L59.4,62.1z M60,62.1l0,0.2l-0.1,0l-0.1,0l0-0.2l0.1,0
		L60,62.1z M60.5,62.1l0,0.2l-0.1,0c0,0-0.1,0-0.1,0l0-0.2c0,0,0.1,0,0.1,0L60.5,62.1z M58.1,61.3c0,0.1,0.1,0.1,0.2,0.2l-0.1,0.1
		c-0.1-0.1-0.1-0.1-0.2-0.2L58.1,61.3z M58.5,61.6c0.1,0,0.1,0.1,0.2,0.2l-0.1,0.1c-0.1,0-0.2-0.1-0.2-0.2L58.5,61.6z M58.9,61.9
		c0.1,0,0.2,0.1,0.2,0.1L59,62.2c-0.1,0-0.2-0.1-0.3-0.1L58.9,61.9z M57.7,60.3l-0.2,0l0-0.1l0-0.1l0.2,0l0,0.1L57.7,60.3z
		 M57.8,60.7l-0.2,0.1c0-0.1-0.1-0.2-0.1-0.3l0.2,0C57.8,60.6,57.8,60.6,57.8,60.7z M58,61.1l-0.1,0.1c0-0.1-0.1-0.2-0.1-0.2
		l0.2-0.1C57.9,61,58,61.1,58,61.1z M57.9,58.9l-0.2-0.1c0-0.1,0.1-0.2,0.1-0.2l0.1,0.1C58,58.7,57.9,58.8,57.9,58.9z M57.7,59.3
		l-0.2,0c0-0.1,0-0.2,0.1-0.3l0.2,0.1C57.8,59.2,57.8,59.2,57.7,59.3L57.7,59.3z M57.7,59.8l-0.2,0c0,0,0-0.1,0-0.1l0-0.1l0.2,0
		l0,0.1C57.7,59.7,57.7,59.8,57.7,59.8L57.7,59.8z M58.9,57.9l-0.1-0.2c0.1,0,0.2-0.1,0.3-0.1l0.1,0.2C59,57.8,58.9,57.9,58.9,57.9
		L58.9,57.9z M58.5,58.2L58.4,58c0.1,0,0.2-0.1,0.2-0.2l0.1,0.1C58.6,58.1,58.5,58.1,58.5,58.2L58.5,58.2z M58.2,58.5L58,58.4
		c0.1-0.1,0.1-0.1,0.2-0.2l0.1,0.1C58.3,58.4,58.2,58.4,58.2,58.5L58.2,58.5z M60.4,57.7c0,0-0.1,0-0.1,0l0-0.2c0,0,0.1,0,0.1,0
		l0.1,0l0,0.2L60.4,57.7z M59.8,57.7l0-0.2l0.1,0l0.1,0l0,0.2l-0.1,0L59.8,57.7z M59.3,57.7l0-0.2l0.1,0c0,0,0.1,0,0.1,0l0,0.2
		c0,0-0.1,0-0.1,0L59.3,57.7z M61.7,58.5c0-0.1-0.1-0.1-0.2-0.2l0.1-0.1c0.1,0.1,0.1,0.1,0.2,0.2L61.7,58.5z M61.3,58.2
		c-0.1,0-0.1-0.1-0.2-0.2l0.1-0.1c0.1,0,0.2,0.1,0.2,0.2L61.3,58.2z M60.9,57.9c-0.1,0-0.2-0.1-0.2-0.1l0.1-0.2
		c0.1,0,0.2,0.1,0.3,0.1L60.9,57.9z M62.3,59.7l0,0.1l-0.2,0l0-0.1l0-0.1l0.2,0L62.3,59.7z M62,59.1l0.2-0.1c0,0.1,0.1,0.2,0.1,0.3
		l-0.2,0C62,59.3,62,59.2,62,59.1L62,59.1z M61.8,58.7l0.1-0.1c0,0.1,0.1,0.2,0.1,0.2l-0.2,0.1C61.9,58.8,61.8,58.8,61.8,58.7
		L61.8,58.7z M80,42.8c0,0,0-0.1,0-0.2c0,0,0,0,0,0c0-0.2,0-0.3,0-0.5c0.1-0.4,0-0.9-0.2-1.2c-0.1-0.1-0.2-0.2-0.4-0.3
		c0-0.3-0.1-1.2-0.2-2.2C79,37.3,79,36.6,79,35.6v-0.3c0-1.6,0.1-6.6,0.1-7.9c-0.1-1.4-0.5-3.5-0.8-4.5c0-0.1-0.1-0.3-0.2-0.6
		c-0.3-1.4-1.1-4.1-2.7-6.6c-2.2-3.2-5.7-5.5-10.1-6.4c-5.3-1.1-10-0.4-12.4,0.5c-2.3,0.9-5.7,2.5-8.3,6.1c-2.3,3.2-3,9.2-3.2,12.4
		c-0.1,2.1-0.2,4.7-0.3,6.1c0,0.5,0,0.8,0,1c0,0.5-0.1,2.2-0.1,2.7c0,0.3,0,1.8,0,2.4c-0.1,0-0.2,0-0.3,0c-0.5,0.1-0.9,0.7-0.9,1
		c0,0.1,0,0.3,0,0.4c0,0.2,0,0.3,0,0.4c0,0.2,0,0.3,0.1,0.5c0,0.4-0.1,2.7,0,3.9c0,0.9,0.3,2.2,0.4,3.2c0.1,0.5,0.2,0.9,0.2,1
		c0,0.4,0.2,6.7,0.4,8.3c0.2,1.7,0.3,3.3,0.9,4.2c0.3,0.6,0.8,1.2,1.4,1.6l0,0c0.1,0.1,0.2,0.3,0.2,0.5c0,0.1,0,0.1,0,0.1
		c0,0,0,0,0,0c0.1,0.8,1.1,0.9,2.2,0.9c1.3,0,2.5,0,3.8,0.1l0.5,0c1.3,0.1,7.7,0.3,8,0.4h0c2.9,0,5.5-0.2,7.5-0.3
		c1.8-0.1,3.1-0.2,4.1-0.1c2,0.2,5.6,0,5.6,0c0,0,0.1,0,0.1,0c0.2-0.1,0.5-0.2,0.7-0.4c0.1-0.1,0.2-0.3,0.3-0.5
		c0.3-0.1,0.8-0.4,1.1-0.7c0.3-0.3,0.6-0.8,0.7-1c0.1-0.2,0.1-0.3,0.1-0.5c0-0.2,0.1-0.5,0.2-0.8c0.1-0.3,0.4-1.6,0.7-2.7l0-0.2
		c0.1-0.4,0.2-1.4,0.2-2.3c0-0.2,0-0.3,0-0.5c0.1-1,0.3-3.9,0.5-4.9c0.2-1,0.2-3.9,0.2-4.4c0-0.5,0-1.2,0.2-1.7
		c0.2-0.5,0.2-0.9,0.2-1.3c0-0.1,0-0.3,0-0.4C80.2,44,80,42.9,80,42.8z M47.7,50.8L47.7,50.8c-0.2,1-0.5,2-0.7,2.9
		c-0.1,0.5-0.2,1-0.3,1.5c-0.1,0.3-0.1,0.6-0.2,0.8c-0.1,0.3,0,0.5-0.4,0.5s-0.5-0.1-0.5-0.5c0-0.2,0-0.5,0.1-0.7
		c0.1-0.5,0.2-1,0.3-1.5c0.2-1,0.5-2,0.7-3.1C47.2,50.7,47.4,50.8,47.7,50.8z M48,50.7c0,0-0.1,0-0.1,0h-0.1c-0.3,0-0.7-0.1-1-0.1
		c0,0-0.1,0-0.2,0c-0.6,0-1.2-0.1-1.5-0.1c0-0.1,0-0.1,0-0.2c0-0.1,0-0.3,0-0.5c0-0.4,0.1-0.8,0.1-1.4c0-0.1,0-0.4,0-0.7
		c0.9,0.1,5,0.5,6.9,0.6c1.9,0.1,7,0.2,10,0.2c0.5,0,0.9,0,1.2,0c2.5,0,9.3-0.1,9.3-0.1l1.7-0.1c0,0.6,0,1.1,0,1.6
		c0,0.4,0,0.9,0,1.2c-0.9,0-4,0.1-5,0.2c-0.8,0.1-4.6,0-7.9,0c-1.4,0-2.8,0-3.7,0c-2.7,0-7.7-0.5-9.5-0.7L48,50.7z M74.5,46.3
		c0,0.6-0.1,1.3-0.1,2l-1.7,0.1c-0.1,0-6.9,0.1-9.3,0.1c-2.5,0.1-9.1-0.1-11.2-0.2c-2-0.1-6.1-0.5-6.9-0.6c0-0.5,0-1.2,0-1.9
		c0-1.6,0-3.4,0-4.2c0-0.8-0.1-1.6-0.3-2.5c-0.1-0.7-0.2-1.5-0.3-2.2c-0.1-1.6,0.8-10.9,1.8-13.3c0.7-1.7,1.7-3,4.7-4.8
		c2-1.2,5.2-1.9,8.4-1.9c2.4,0,3.7,0.4,5.4,0.8c0.5,0.1,1.1,0.3,1.7,0.4c2.4,0.6,4.1,1.8,5.9,4.4c1.6,2.4,1.7,3.2,1.8,5.1l0,0.4
		c0.1,2.1,0.3,7.2,0.3,9.3C74.8,39.5,74.6,44.7,74.5,46.3L74.5,46.3z M45.1,43.9L45.1,43.9L45.1,43.9z M73.2,22.2
		c-1.9-2.8-3.7-4.1-6.3-4.7c-0.6-0.1-1.2-0.3-1.7-0.4c-1.7-0.5-3.1-0.8-5.6-0.8c-3.3,0-6.6,0.7-8.7,2c-2.3,1.4-3.9,2.6-4.9,5
		c-1,2.4-2,11.9-1.8,13.5c0,0.8,0.2,1.5,0.3,2.3c0.1,0.9,0.3,1.7,0.3,2.5c0,0.2,0,0.5,0,0.9c-0.8,0.1-1.7,0-2.5-0.3l-0.1,0
		c0,0,0,0,0,0c0-0.8,0-1.6,0.1-2.4c0-1.1,0.2-2.2,0.3-3.3c0.1-1.8,0-3.7,0.2-5.5c0.1-1.3,0.2-2.6,0.4-3.9c0.4,0,0.8-0.5,1-0.9
		c0.5-0.8,0.7-1.9,1-2.8c0.3-1,0.7-2,0.7-3c0,0,0,0,0,0c1.1-1.3,2.4-2.3,3.9-3.1c1.5-0.8,3.2-1.5,4.8-1.9c1.8-0.4,3.7-0.4,5.6-0.2
		c1.9,0.2,3.8,0.6,5.7,1c1.7,0.4,3.3,0.9,4.8,1.7c1.1,0.6,2.2,1.4,3.1,2.2c1,0.9,1.9,1.8,2.5,3c0.9,2,1.3,4.3,1.3,6.5
		c0,2.2,0.2,4.3,0.4,6.5c0.1,2,0.1,4,0,5.9c0,0.2,0,0.3,0,0.5c-0.9,0.4-1.9,0.4-2.7,0.4c-0.1,0-0.1,0-0.1,0c0.1-2,0.1-4.3,0.1-5.6
		c0-2.2-0.2-7.2-0.3-9.3l0-0.4C75,25.7,74.9,24.7,73.2,22.2L73.2,22.2z M42.7,26.5c-0.3-0.2-0.3-0.2-0.1-0.5s0.4-0.6,0.6-0.9
		c0.6-1,1.1-2,1.6-3c0.2-0.4,0.5-0.9,0.8-1.2c0,0.3-0.1,0.6-0.1,0.8h0h0c0,0.1,0,0.2-0.1,0.3l0-0.3L45.2,22c0,0,0,0.1,0.1,0.1l0,0
		c0,0,0.1,0,0.1,0c0,0.2-0.1,0.4-0.2,0.6l0-0.4L45,22.7c0,0,0,0.1,0.1,0.1l0,0c0,0,0.1,0,0.1,0c-0.3,0.8-0.6,1.7-0.8,2.5
		c-0.2,0.5-0.3,0.9-0.7,1.3C43.3,26.8,43.1,26.7,42.7,26.5L42.7,26.5z M75.2,43.1L75.2,43.1c1,0.1,1.9-0.1,2.8-0.4
		c0.6-0.2,1.1-0.5,1.4-0.9c0,0.1,0,0.2,0,0.3c0,0.2-0.1,0.5,0,0.7l-0.3,0.3l0.3-0.1v0c-0.1,0.2-0.2,0.3-0.3,0.4
		c-0.3,0.3-0.9,0.5-1.3,0.6c-0.8,0.2-1.7,0.2-2.6,0.2C75.2,43.8,75.2,43.5,75.2,43.1z M45.1,16.3c2.5-3.5,5.8-5,8-5.9
		c3.5-1.3,8.6-1.2,12.1-0.5c4.2,0.9,7.7,3.1,9.8,6.2c1.6,2.4,2.3,5.1,2.6,6.4c0.1,0.3,0.1,0.5,0.2,0.6c0.3,1,0.8,3,0.8,4.3
		c0,0.9,0,3.5-0.1,7.8v0.3c0,1.1,0,1.8,0.2,3s0.3,2.3,0.3,2.3c0,0.1,0.1,0.2,0.1,0.2c0.1,0.1,0.2,0.2,0.3,0.3c0,0,0,0,0.1,0.1
		c-0.2,0.4-0.5,0.8-0.9,1c0-1.8,0.1-3.5,0-5.2c0-2.2-0.3-4.3-0.4-6.5c-0.1-2.3-0.2-4.5-1-6.6c-0.9-2.5-3-4.3-5.2-5.7
		c-2.9-1.8-6.5-2.5-9.8-3.1c-1.8-0.3-3.6-0.4-5.5-0.3c-1.7,0.1-3.2,0.6-4.8,1.2c-2.3,1-4.5,2.2-6.2,4.1c0,0,0,0-0.1,0.1l0,0.1
		c-0.1,0.2-0.3,0.3-0.4,0.5c-0.3,0.5-0.6,1-0.9,1.5c0,0,0,0.1,0,0.1c-0.3,0.6-0.6,1.2-1,1.9s-0.8,1.2-1.1,1.8
		C42.5,22.9,43.3,18.7,45.1,16.3z M41.5,40.7c0-0.1,0.1-2.2,0.1-2.6s0.1-2.2,0.1-2.7c0-0.1,0-0.5,0-1c0-1.4,0.1-3.9,0.3-6
		c0-0.6,0.1-1.3,0.2-2c0,0,0,0,0,0.1c0.2,0.2,0.4,0.4,0.7,0.5c-0.1,0.6-0.2,1.1-0.2,1.7c-0.2,1.8-0.4,3.7-0.4,5.5
		c0,2.4-0.3,4.8-0.4,7.3c0,0.2,0,0.5,0,0.7c-0.3-0.1-0.7-0.3-0.8-0.6c0,0,0.1-0.3,0.1-0.3c0-0.1,0-0.1,0-0.2l0,0
		C41.4,40.9,41.5,40.8,41.5,40.7L41.5,40.7z M40.8,41.1l0.1,0c0,0.3-0.3,0.6,0,0.8c0.3,0.2,0.8,0.4,1.1,0.5c0.9,0.3,1.8,0.4,2.7,0.3
		c0,0.3,0,0.7,0,1l0,0c0,0-0.1,0-0.1,0.1c0,0,0,0.1,0.1,0.1h0c0,0,0,0.1,0,0.2c-0.8,0-1.6-0.2-2.3-0.4c-0.7-0.2-1.5-0.3-1.9-0.9l0,0
		c0,0,0,0,0-0.1c0-0.1-0.1-0.2-0.1-0.3c0-0.1,0-0.3,0-0.5c0-0.2,0-0.3,0-0.4S40.6,41.1,40.8,41.1L40.8,41.1z M43.6,64.6
		c-0.5-0.4-1-0.9-1.3-1.4c-0.5-0.9-0.6-2.5-0.8-4c-0.2-1.6-0.4-7.8-0.4-8.2c0-0.4-0.1-0.8-0.2-1.1c-0.2-1-0.4-2.2-0.4-3.1
		c0-1,0-2.8,0-3.5c0.4,0.3,1,0.5,1.5,0.6c0.9,0.2,1.8,0.5,2.7,0.5c0,0.5,0,1,0,1.5c0,1.2,0,2.3,0,2.7c0,0.5,0,1-0.1,1.3
		c0,0.2,0,0.4,0,0.6c0,0.1,0,0.2,0,0.3c0,0.4,0,0.7,0,1.1c-0.1,0.8-0.4,4.5-0.4,5.7c0,0.4,0,1.1,0.1,1.7c0.1,1,0.2,2.3,0,2.7
		c-0.2,0.5-0.4,2-0.5,2.9C43.7,64.8,43.7,64.7,43.6,64.6L43.6,64.6z M75.4,66c-0.1,0.1-0.3,0.2-0.4,0.3c-0.4,0-3.7,0.1-5.5,0
		c-0.9-0.1-2.4,0-4.1,0.1c-2,0.1-4.5,0.3-7.4,0.3c-0.2,0-6.6-0.2-7.9-0.4l-0.5,0c-0.9-0.1-1.7-0.1-2.8-0.1c-0.3,0-0.6,0-1,0
		c-1.5,0-1.6-0.3-1.6-0.4c0,0,0,0,0,0c0.1,0,0.1-0.1,0.1-0.2c0,0,0.4-2.8,0.6-3.4c0.2-0.4,0.1-1.4,0-2.9c0-0.7-0.1-1.3-0.1-1.7
		c0-1.2,0.3-5,0.4-5.6c0.1-0.4,0.1-0.8,0-1.2c0,0,0,0,0,0c0.3,0,0.8,0,1.4,0.1l0,0c-0.3,1.3-0.6,2.7-1,4c-0.1,0.5-0.4,1.2-0.2,1.7
		c0.1,0.3,0.7,0.3,1,0.4c0.2,0,0.3,0,0.5-0.2c0.1-0.2,0.1-0.5,0.2-0.8c0.1-0.3,0.2-0.7,0.2-1c0.3-1.3,0.6-2.6,0.9-3.9l0.3,0
		c1.9,0.2,6.8,0.7,9.5,0.7c0.9,0,2.3,0,3.7,0c1.7,0,3.5,0,5,0c1.4,0,2.5,0,2.9,0c1-0.1,4.1-0.2,5-0.2c0,0.7,0.1,1.9,0.2,3
		c0.1,0.8,0.1,1.5,0.2,2c0,0.5,0.1,1.7,0.1,3c0.1,2,0.1,4,0.2,4.4c0.1,0.6,0.2,1.6,0.3,1.9c0,0,0,0.1,0,0.1
		C75.5,65.8,75.5,65.9,75.4,66L75.4,66z M79.6,44.5c0,0.1,0,0.3,0,0.4c0,0.4,0,0.8-0.2,1.2c-0.2,0.6-0.2,1.3-0.2,1.9
		c0,0.7,0,3.4-0.2,4.3c-0.2,0.9-0.4,3.9-0.5,4.9c0,0.2,0,0.3,0,0.5c-0.1,0.9-0.1,1.9-0.2,2.2l0,0.2c-0.1,0.6-0.5,2.3-0.7,2.6
		c-0.1,0.3-0.2,0.6-0.2,0.8c0,0.1-0.1,0.2-0.1,0.4c-0.2,0.3-0.4,0.6-0.6,0.9c-0.1,0.2-0.4,0.3-0.7,0.5c-0.1-0.4-0.2-1.2-0.2-1.6
		c0-0.4-0.1-2.5-0.2-4.4c0-1.3-0.1-2.6-0.1-3c0-0.5-0.1-1.2-0.2-2c-0.1-1.1-0.2-2.3-0.2-3c0-0.3,0-0.8,0-1.2c0-1.1-0.1-2.5,0-3.6
		c0-0.4,0.1-1.1,0.1-2c0.9,0.1,1.9,0.1,2.8-0.2c0.4-0.1,0.8-0.3,1.2-0.5c0.1-0.1,0.2-0.2,0.3-0.3C79.6,43.7,79.6,44.1,79.6,44.5
		L79.6,44.5z M49.1,34.5c0.4,0.1,1.2,0.4,1.4-0.1c0,0.1,0,0.2,0,0.3c0,2,0,4,0,5.9c0,0.8,0,1.7,0,2.5c0,0.4,0.1,0.6,0.5,0.8
		c0.4,0.1,1,0.2,1.3-0.1s0.3-0.6,0.3-1c0-1,0-2.1,0-3.1c0-3.4,0-6.8,0-10.2c0-2,0-4,0-6c0-0.3,0.1-0.5-0.2-0.7
		c-0.3-0.1-0.9-0.1-1.2-0.1c-0.2,0-0.9,0.2-0.8,0.6c0,1.4,0,2.7,0,4.1c-0.1,0.1-0.2,0.2-0.2,0.3l-0.1-0.3l0,0l-0.1,0.4
		c0,0,0,0.1,0.1,0.1c-0.3,0.6-0.5,1.4-0.6,2.1C49.2,31.5,49,33,49.1,34.5C49,34.5,49.1,34.5,49.1,34.5z M52.3,23.2
		c0.1,0.2,0,0.9,0,1.2c0,0.8,0,1.6,0,2.5c0,1.4,0,2.8,0,4.1c0,2.8,0,5.7,0,8.5c0,0.9,0,1.8,0,2.7c0,0.4,0,0.8,0,1.2
		c-0.1,0.7-1.2,0.7-1.4,0.1c-0.1-0.4,0-1.1,0-1.6c0-0.8,0-1.6,0-2.4c0-1.7,0-3.4,0-5.1c0-3.7,0-7.4,0-11c0,0,0,0,0-0.1
		c0,0,0,0,0-0.1v0C50.9,22.9,52.2,23,52.3,23.2z M49.5,32.5c0.1-1,0.3-2,0.5-3c0.1-0.5,0.3-1.1,0.5-1.6c0,0.3,0,0.6,0,0.9
		c0,0,0,0,0,0c0,0-0.1,0-0.1,0.1l0,0l0,0.4l0.1-0.3c0,0.9,0,1.7,0,2.6c-0.2,0.8-0.2,1.7-0.3,2.5c0,0.1,0,0.3,0,0.4
		c-0.2,0.1-0.4,0.1-0.5,0c-0.3-0.1-0.3-0.2-0.3-0.5C49.3,33.5,49.4,32.9,49.5,32.5z M73.2,48C73.2,48.1,73.2,48.1,73.2,48L73.2,48
		h-0.5H73.2C73.2,47.9,73.2,48,73.2,48L73.2,48z M73.9,48C73.9,48,73.8,48,73.9,48L73.9,48h-0.5H73.9C73.8,47.8,73.9,47.9,73.9,48
		C73.9,47.9,73.9,48,73.9,48z M74,48L74,48L74,48z M72,48C72,48.1,71.9,48.1,72,48L72,48h-0.5H72C71.9,48,72,48,72,48
		C72,48,72,48,72,48L72,48z M72.1,48L72.1,48L72.1,48z M72.6,48.1C72.6,48.1,72.5,48.2,72.6,48.1L72.6,48.1l-0.5,0l0.4-0.1
		C72.5,48,72.6,48,72.6,48.1C72.6,48,72.6,48,72.6,48.1L72.6,48.1z M46.4,47.5C46.4,47.5,46.4,47.5,46.4,47.5
		C46.3,47.5,46.3,47.5,46.4,47.5h-0.5H46.4C46.4,47.3,46.4,47.4,46.4,47.5L46.4,47.5L46.4,47.5z M46.5,47.5L46.5,47.5L46.5,47.5z
		 M47,47.5C47,47.5,47,47.6,47,47.5L47,47.5l-0.5,0l0.4-0.1C47,47.4,47,47.4,47,47.5L47,47.5L47,47.5z M45.8,47.3
		C45.8,47.4,45.8,47.4,45.8,47.3L45.8,47.3h-0.5H45.8C45.8,47.2,45.8,47.3,45.8,47.3L45.8,47.3L45.8,47.3z M47.7,47.5
		C47.7,47.5,47.6,47.6,47.7,47.5L47.7,47.5h-0.5H47.7C47.6,47.4,47.7,47.4,47.7,47.5L47.7,47.5L47.7,47.5z M48.3,47.6
		C48.3,47.6,48.2,47.7,48.3,47.6C48.2,47.7,48.2,47.7,48.3,47.6h-0.5H48.3C48.2,47.5,48.3,47.5,48.3,47.6L48.3,47.6L48.3,47.6z
		 M74.4,47.9c0,0,0,0.1-0.1,0.1c0,0,0,0,0,0L74,48l0.4-0.1C74.4,47.8,74.4,47.9,74.4,47.9L74.4,47.9z M58.9,48.1
		C58.9,48.1,58.9,48.2,58.9,48.1L58.9,48.1h-0.5H58.9C58.8,48,58.9,48,58.9,48.1L58.9,48.1z M48.8,47.5l-0.4,0.1l0.4,0.1
		C48.8,47.7,48.9,47.6,48.8,47.5C48.9,47.5,48.8,47.5,48.8,47.5L48.8,47.5L48.8,47.5z M53.9,48C53.9,48,53.8,48.1,53.9,48L53.9,48
		l-0.5-0.1L53.9,48C53.8,47.9,53.9,47.9,53.9,48C53.9,48,53.9,48,53.9,48L53.9,48z M53.3,47.9C53.3,47.9,53.2,48,53.3,47.9
		L53.3,47.9h-0.5H53.3C53.2,47.8,53.3,47.8,53.3,47.9C53.3,47.9,53.3,47.9,53.3,47.9L53.3,47.9z M63.8,48.2
		C63.8,48.2,63.8,48.2,63.8,48.2L63.8,48.2h-0.4H63.8C63.8,48,63.8,48.1,63.8,48.2L63.8,48.2L63.8,48.2z M54.4,47.9L54,48l0,0
		l0.4,0.1C54.4,48.1,54.5,48,54.4,47.9L54.4,47.9C54.5,47.9,54.4,47.9,54.4,47.9L54.4,47.9z M64.6,48L64.6,48L64.6,48z M65.1,48.1
		C65.1,48.2,65.1,48.2,65.1,48.1h-0.5H65.1C65.1,48,65.1,48,65.1,48.1L65.1,48.1L65.1,48.1z M52.6,47.8
		C52.6,47.9,52.6,47.9,52.6,47.8L52.6,47.8h-0.5H52.6C52.6,47.8,52.6,47.8,52.6,47.8C52.6,47.8,52.6,47.9,52.6,47.8L52.6,47.8z
		 M64.5,48.1C64.5,48.2,64.5,48.2,64.5,48.1L64.5,48.1H64H64.5C64.5,48,64.5,48.1,64.5,48.1C64.5,48.1,64.5,48.1,64.5,48.1
		L64.5,48.1z M56.2,47.9L56.2,47.9c-0.2,0-0.2,0-0.4,0.1c0.1,0,0.2,0.1,0.3,0.1h0.1c0,0,0.1,0,0.1-0.1S56.3,47.9,56.2,47.9
		C56.2,47.9,56.2,47.9,56.2,47.9L56.2,47.9z M55.8,48C55.8,48,55.7,48.1,55.8,48L55.8,48l-0.5,0l0.4-0.1C55.7,47.9,55.8,48,55.8,48
		L55.8,48L55.8,48z M57,48C57,48.1,57,48.1,57,48L57,48h-0.5H57C57,47.9,57,48,57,48C57,48,57,48,57,48L57,48z M55.2,48
		C55.2,48,55.1,48.1,55.2,48L55.2,48h-0.5H55.2C55.1,47.9,55.2,47.9,55.2,48L55.2,48L55.2,48z M65.7,48.1
		C65.7,48.1,65.7,48.2,65.7,48.1C65.6,48.2,65.6,48.2,65.7,48.1h-0.4H65.7C65.7,48,65.7,48,65.7,48.1L65.7,48.1L65.7,48.1z M57.6,48
		C57.6,48.1,57.6,48.1,57.6,48L57.6,48h-0.5H57.6C57.6,47.9,57.6,48,57.6,48L57.6,48L57.6,48z M59.5,48.1
		C59.5,48.1,59.5,48.2,59.5,48.1L59.5,48.1H59H59.5C59.4,48,59.5,48,59.5,48.1L59.5,48.1L59.5,48.1z M62.6,48.1
		C62.6,48.2,62.6,48.2,62.6,48.1h-0.5H62.6C62.6,48,62.6,48.1,62.6,48.1L62.6,48.1L62.6,48.1z M61.8,48l-0.4,0.1l0.4,0.1
		C61.9,48.2,61.9,48.2,61.8,48C62,48.1,61.9,48,61.8,48C61.9,48,61.9,48,61.8,48L61.8,48z M63.1,48l-0.4,0.1l0.4,0.1
		c0,0,0.1,0,0.1-0.1C63.2,48.1,63.2,48,63.1,48L63.1,48z M60,48l-0.4,0.1l0,0l0.4,0.1C60,48.2,60.1,48.1,60,48C60.1,48,60,48,60,48
		C60,48,60,48,60,48L60,48z M60.8,48.1C60.8,48.1,60.7,48.2,60.8,48.1L60.8,48.1h-0.5H60.8C60.7,48,60.8,48,60.8,48.1L60.8,48.1
		L60.8,48.1z M61.3,48l-0.4,0.1l0.4,0.1c0,0,0.1,0,0.1-0.1C61.4,48.1,61.3,48,61.3,48L61.3,48z M58.1,48L57.7,48l0,0l0.4,0.1
		C58.1,48.1,58.2,48.1,58.1,48C58.2,48,58.2,48,58.1,48C58.1,48,58.1,48,58.1,48L58.1,48z M50.3,47.7L50.3,47.7L50.3,47.7z
		 M50.1,47.7C50.1,47.8,50.1,47.8,50.1,47.7L50.1,47.7h-0.5H50.1C50.1,47.6,50.1,47.7,50.1,47.7L50.1,47.7z M51.4,47.7
		C51.4,47.8,51.4,47.8,51.4,47.7L51.4,47.7h-0.5H51.4C51.4,47.7,51.4,47.7,51.4,47.7L51.4,47.7z M68.8,48.1
		C68.8,48.1,68.8,48.2,68.8,48.1L68.8,48.1h-0.5H68.8C68.8,48,68.8,48,68.8,48.1L68.8,48.1z M68.4,48.1L68.4,48.1L68.4,48.1z
		 M68.2,48.1C68.2,48.1,68.2,48.2,68.2,48.1L68.2,48.1c-0.2,0.1-0.4,0.1-0.5,0C67.9,48,68,48,68.2,48.1C68.2,48,68.2,48,68.2,48.1
		L68.2,48.1L68.2,48.1z M68.4,48.1L68.4,48.1L68.4,48.1z M52,47.8C52,47.9,52,47.9,52,47.8L52,47.8h-0.5H52C52,47.8,52,47.8,52,47.8
		L52,47.8z M70.2,48.1L70.2,48.1L70.2,48.1z M70.1,48.1C70.1,48.2,70.1,48.2,70.1,48.1L70.1,48.1h-0.5H70.1
		C70.1,48,70.1,48.1,70.1,48.1C70.1,48.1,70.1,48.1,70.1,48.1L70.1,48.1z M70.2,48.1L70.2,48.1L70.2,48.1L70.2,48.1z M70.7,48.1
		c0,0,0,0.1-0.1,0.1l0,0l-0.4-0.1l0,0l0,0l0.3-0.1C70.6,48,70.7,48,70.7,48.1L70.7,48.1L70.7,48.1z M69.5,48.1
		C69.5,48.2,69.5,48.2,69.5,48.1L69.5,48.1l-0.5,0l0.4-0.1C69.5,48,69.5,48,69.5,48.1L69.5,48.1L69.5,48.1z M49.5,47.7
		C49.5,47.8,49.5,47.8,49.5,47.7L49.5,47.7h-0.5H49.5C49.5,47.6,49.5,47.7,49.5,47.7L49.5,47.7z M50.7,47.7
		C50.7,47.8,50.7,47.8,50.7,47.7C50.7,47.8,50.7,47.8,50.7,47.7h-0.5H50.7C50.7,47.6,50.7,47.7,50.7,47.7L50.7,47.7z M66.5,48.1
		L66.5,48.1L66.5,48.1z M66.5,48.2L66.5,48.2L66.5,48.2z M67,48.1C67,48.2,66.9,48.2,67,48.1L67,48.1h-0.5H67
		C66.9,48,67,48.1,67,48.1L67,48.1z M66.4,48.1C66.4,48.2,66.3,48.2,66.4,48.1L66.4,48.1h-0.5H66.4C66.3,48,66.4,48.1,66.4,48.1
		L66.4,48.1L66.4,48.1z M71.4,48c0,0,0,0.1-0.1,0.1l0,0l-0.4-0.1l0.4-0.1C71.3,48,71.4,48,71.4,48L71.4,48z M67.7,48.1
		C67.7,48.1,67.6,48.2,67.7,48.1L67.7,48.1l-0.5,0l0.4-0.1C67.6,48,67.7,48,67.7,48.1L67.7,48.1z M50.2,24.8l0.1-0.4l0.1,0.4
		c0,0,0,0.1-0.1,0.1l0,0C50.2,24.9,50.2,24.8,50.2,24.8L50.2,24.8z M50.2,25.4l0.1-0.4l0.1,0.4c0,0,0,0.1-0.1,0.1
		C50.2,25.5,50.2,25.5,50.2,25.4C50.2,25.4,50.2,25.4,50.2,25.4L50.2,25.4z M50.1,26.6l0.1-0.4l0.1,0.4c0,0,0,0.1-0.1,0.1
		C50.1,26.8,50.1,26.7,50.1,26.6C50.1,26.7,50.1,26.7,50.1,26.6L50.1,26.6z M50.8,22.5c0,0,0-0.1,0.1-0.1l0,0l0.4,0l-0.4,0.1
		C50.8,22.6,50.8,22.5,50.8,22.5L50.8,22.5L50.8,22.5z M50.6,22.5L50.6,22.5L50.6,22.5z M50.2,24.1l0.1-0.4l0,0l0.1,0.4
		c0,0,0,0.1-0.1,0.1C50.2,24.2,50.2,24.2,50.2,24.1C50.2,24.1,50.2,24.1,50.2,24.1L50.2,24.1z M50.2,23.5l0.2-0.4l0,0.4
		c0,0,0,0.1-0.1,0.1C50.3,23.6,50.2,23.6,50.2,23.5C50.2,23.5,50.2,23.5,50.2,23.5L50.2,23.5z M50.4,22.8l0.2-0.3l0,0.4
		c0,0-0.1,0.1-0.1,0.1C50.4,22.9,50.3,22.9,50.4,22.8L50.4,22.8z M50.1,26v-0.1c0-0.1,0-0.2,0.1-0.3c0.1,0.2,0.1,0.2,0.1,0.3V26
		c0,0,0,0.1-0.1,0.1S50.1,26,50.1,26C50.1,26,50.1,26,50.1,26L50.1,26z M50.4,44.2l0-0.4l0.2,0.3c0,0,0,0.1-0.1,0.1c0,0,0,0,0,0
		C50.5,44.3,50.4,44.2,50.4,44.2C50.4,44.2,50.4,44.2,50.4,44.2L50.4,44.2z M50.4,43.8L50.4,43.8L50.4,43.8z M50.1,27.2l0.1-0.4
		l0.1,0.4c0,0,0,0.1-0.1,0.1l0,0C50.1,27.3,50.1,27.3,50.1,27.2C50.1,27.2,50.1,27.2,50.1,27.2L50.1,27.2z M52.3,44.6l-0.4-0.1
		l0.4-0.1c0,0,0.1,0,0.1,0.1C52.4,44.5,52.4,44.5,52.3,44.6C52.3,44.6,52.3,44.6,52.3,44.6L52.3,44.6z M51.8,44.5
		C51.8,44.5,51.8,44.6,51.8,44.5C51.7,44.6,51.7,44.6,51.8,44.5l-0.5,0l0.4-0.1C51.8,44.4,51.8,44.4,51.8,44.5
		C51.8,44.5,51.8,44.5,51.8,44.5L51.8,44.5z M50.1,35.3l0.1-0.3l0.1,0.3c0,0,0,0.1-0.1,0.1C50.1,35.4,50.1,35.4,50.1,35.3L50.1,35.3
		L50.1,35.3z M50.4,43.8L50.4,43.8L50.4,43.8z M51.9,44.5L51.9,44.5L51.9,44.5z M51.9,44.5L51.9,44.5L51.9,44.5z M50.1,37.3l0.1-0.4
		l0.1,0.4c0,0,0,0.1-0.1,0.1S50.1,37.4,50.1,37.3C50.1,37.3,50.1,37.3,50.1,37.3L50.1,37.3z M41.1,43L41.1,43L41.1,43z M41.1,43
		L41.1,43L41.1,43z M40.7,42.7c0,0,0.1-0.1,0.1,0l0,0l0.3,0.3l-0.4-0.1C40.7,42.8,40.7,42.8,40.7,42.7L40.7,42.7z M53.1,25.2
		L53.1,25.2L53.1,25.2z M53.2,26l-0.1,0.4L53,26.1c0,0,0-0.1,0.1-0.1C53.2,25.9,53.2,26,53.2,26z M53.3,30.5l-0.1,0.4l-0.1-0.4
		c0,0,0-0.1,0.1-0.1C53.2,30.3,53.2,30.4,53.3,30.5C53.3,30.4,53.3,30.4,53.3,30.5L53.3,30.5z M53.2,27.3l-0.1,0.4L53,27.3
		c0,0,0-0.1,0.1-0.1C53.2,27.2,53.2,27.2,53.2,27.3C53.2,27.3,53.2,27.3,53.2,27.3L53.2,27.3z M53.2,24.8l-0.1,0.4L53,24.8
		c0,0,0-0.1,0.1-0.1C53.2,24.7,53.2,24.8,53.2,24.8C53.2,24.8,53.2,24.8,53.2,24.8L53.2,24.8z M53.3,36.7L53.2,37l-0.1-0.4
		C53.1,36.6,53.1,36.6,53.3,36.7C53.2,36.5,53.3,36.6,53.3,36.7L53.3,36.7z M53.1,30.8L53.1,30.8L53.1,30.8z M51.2,22.4L51.2,22.4
		L51.2,22.4z M53.3,36.1l-0.1,0.4l-0.1-0.4C53.1,36,53.1,36,53.3,36.1C53.2,36,53.2,36,53.3,36.1C53.2,36,53.3,36,53.3,36.1
		L53.3,36.1L53.3,36.1z M53.2,30.8L53.2,30.8L53.2,30.8z M53.3,35.5l-0.1,0.4l-0.1-0.4c0,0,0-0.1,0.1-0.1l0,0
		C53.2,35.4,53.3,35.4,53.3,35.5C53.3,35.5,53.3,35.5,53.3,35.5L53.3,35.5z M53.3,37.3l-0.1,0.4l0,0l-0.1-0.4c0,0,0-0.1,0.1-0.1
		C53.2,37.2,53.3,37.3,53.3,37.3C53.3,37.3,53.3,37.3,53.3,37.3L53.3,37.3z M52.9,22.9L52.9,22.9L52.9,22.9z M52.9,23
		c0,0,0-0.1,0.1-0.1c0,0,0.1,0,0.1,0.1L53,23.4L52.9,23z M52,22.5c0,0,0-0.1,0.1-0.1c0,0,0,0,0,0l0.4,0l-0.4,0.1
		C52,22.5,52,22.5,52,22.5L52,22.5z M51.4,22.4c0,0,0-0.1,0.1-0.1c0,0,0,0,0,0l0.4,0l-0.4,0.1C51.4,22.5,51.4,22.5,51.4,22.4
		L51.4,22.4z M51.3,22.4L51.3,22.4L51.3,22.4z M52.6,22.6c0,0,0-0.1,0-0.1c0,0,0.1,0,0.1,0c0,0,0,0,0,0l0.1,0.4L52.6,22.6z
		 M53.1,24.1C53.1,24.1,53.2,24.2,53.1,24.1c0.1,0.1,0.1,0.1,0.1,0.1l-0.1,0.4V24.1C53,24.1,53,24.1,53.1,24.1L53.1,24.1L53.1,24.1z
		 M53,23.4L53,23.4L53,23.4z M53.1,23.6L53,24l-0.1-0.4c0,0,0-0.1,0.1-0.1C53,23.4,53.1,23.5,53.1,23.6
		C53.1,23.5,53.1,23.5,53.1,23.6L53.1,23.6z M43.9,43.8C43.9,43.7,44,43.7,43.9,43.8L43.9,43.8l0.5,0L44,43.9
		C43.9,43.9,43.9,43.8,43.9,43.8C43.9,43.8,43.9,43.8,43.9,43.8z M77.8,43.8l-0.4,0l0.4-0.2C77.8,43.7,77.8,43.7,77.8,43.8
		C77.8,43.8,77.8,43.8,77.8,43.8z M77.3,43.8L77.3,43.8L77.3,43.8z M77.3,43.8L77.3,43.8L77.3,43.8z M78.4,43.6L78,43.7l0.3-0.2
		c0.1,0,0.1,0,0.1,0C78.5,43.5,78.4,43.6,78.4,43.6L78.4,43.6z M79,43.2c0,0-0.1-0.1-0.1,0l0,0l-0.3,0.3l0,0l0,0l0.4-0.1
		C79,43.3,79,43.2,79,43.2L79,43.2L79,43.2z M78.6,43.5L78.6,43.5L78.6,43.5z M43.7,43.7L43.7,43.7L43.7,43.7z M43.7,43.7L43.7,43.7
		L43.7,43.7z M43.7,43.7L43.7,43.7L43.7,43.7z M79.2,43.1L79.2,43.1L79.2,43.1z M76.4,44L76,43.9l0.4-0.1c0.1,0,0.1,0,0.1,0.1
		C76.5,44,76.5,44,76.4,44z M76.7,43.9L76.7,43.9L76.7,43.9z M75.8,43.9C75.8,43.9,75.8,44,75.8,43.9L75.8,43.9l-0.5,0l0.4-0.1
		C75.8,43.8,75.8,43.8,75.8,43.9C75.8,43.9,75.8,43.9,75.8,43.9L75.8,43.9z M77,44l-0.4-0.1l0.4-0.1c0.1,0,0.1,0,0.1,0.1
		C77.1,43.9,77.1,44,77,44C77,44,77,44,77,44L77,44z M53.3,34.8l-0.1,0.4l-0.1-0.4C53.1,34.7,53.1,34.7,53.3,34.8L53.3,34.8
		C53.3,34.7,53.3,34.7,53.3,34.8z M50.2,43.5l0.1-0.4l0.1,0.4c0,0,0,0.1-0.1,0.1C50.3,43.6,50.2,43.6,50.2,43.5
		C50.2,43.5,50.2,43.5,50.2,43.5L50.2,43.5z M51.2,44.5l-0.4-0.1l0.4-0.1c0,0,0.1,0,0.1,0.1C51.2,44.5,51.2,44.5,51.2,44.5z
		 M52.8,44.2l-0.2,0.3l0.1-0.4c0,0,0.1-0.1,0.1,0l0,0C52.8,44.1,52.9,44.1,52.8,44.2L52.8,44.2L52.8,44.2z M52.6,44.5L52.6,44.5
		L52.6,44.5z M50.2,42.9C50.2,42.9,50.1,42.9,50.2,42.9C50.1,42.8,50.1,42.8,50.2,42.9v-0.5V42.9C50.3,42.9,50.3,42.9,50.2,42.9
		C50.2,42.9,50.2,42.9,50.2,42.9L50.2,42.9z M53.3,34.2l-0.1,0.4l-0.1-0.4C53.1,34.1,53.2,34.1,53.3,34.2
		C53.2,34.1,53.2,34.1,53.3,34.2C53.2,34.1,53.3,34.1,53.3,34.2L53.3,34.2L53.3,34.2z M53.3,33.6l-0.1,0.3l-0.1-0.3
		c0,0,0-0.1,0.1-0.1l0,0C53.3,33.5,53.3,33.5,53.3,33.6L53.3,33.6L53.3,33.6z M50.1,36l0.1-0.4l0.1,0.4C50.3,36,50.2,36.1,50.1,36
		C50.1,36.1,50.1,36,50.1,36L50.1,36z M50.1,36.2L50.1,36.2L50.1,36.2z M50.1,39.7l0.1-0.4l0.1,0.4C50.3,39.8,50.3,39.8,50.1,39.7
		C50.2,39.8,50.1,39.8,50.1,39.7L50.1,39.7L50.1,39.7z M50.1,36.6l0.1-0.4l0.1,0.4c0,0,0,0.1-0.1,0.1S50.1,36.7,50.1,36.6
		C50.1,36.6,50.1,36.6,50.1,36.6L50.1,36.6z M50.2,36.2L50.2,36.2L50.2,36.2z M50.1,39.2l0.1-0.4l0.1,0.4
		C50.3,39.2,50.3,39.2,50.1,39.2C50.2,39.2,50.1,39.2,50.1,39.2L50.1,39.2z M50.1,41l0.1-0.4l0.1,0.4c0,0,0,0.1-0.1,0.1
		C50.2,41.1,50.1,41.1,50.1,41L50.1,41L50.1,41z M50.2,38.1L50.2,38.1L50.2,38.1z M50.3,37.9C50.3,37.9,50.3,38,50.3,37.9
		c-0.1,0.1-0.2,0.1-0.2,0l0,0c0-0.1,0-0.3,0.1-0.4C50.3,37.6,50.3,37.7,50.3,37.9L50.3,37.9z M50.3,38.5c0,0,0,0.1-0.1,0.1
		c0,0-0.1,0-0.1-0.1c0,0,0,0,0,0l0.1-0.4L50.3,38.5z M41.1,43L41.1,43L41.1,43z M41.3,43.2l0.4,0.1L41.4,43c0,0-0.1,0-0.1,0l0,0
		C41.3,43.1,41.3,43.2,41.3,43.2C41.3,43.2,41.3,43.2,41.3,43.2L41.3,43.2z M43.2,43.6c0,0,0.1-0.1,0.1-0.1l0.4,0.2l-0.4,0
		C43.2,43.7,43.2,43.7,43.2,43.6L43.2,43.6L43.2,43.6z M50.2,40L50.2,40L50.2,40L50.2,40L50.2,40z M50.3,40.4c0,0-0.1,0-0.1-0.1l0,0
		l0.1-0.4l0,0v0l0,0c0,0,0,0,0,0l0.1,0.3C50.3,40.3,50.3,40.4,50.3,40.4C50.3,40.4,50.3,40.4,50.3,40.4L50.3,40.4z M41.9,43.3
		c0,0,0.1-0.1,0.1,0c0,0,0,0,0,0l0.3,0.2h-0.4C41.9,43.4,41.9,43.3,41.9,43.3C41.9,43.3,41.9,43.3,41.9,43.3L41.9,43.3z M42.6,43.5
		C42.6,43.5,42.6,43.4,42.6,43.5c0.1-0.1,0.1-0.1,0.1-0.1l0.4,0.1l-0.4,0.1C42.6,43.6,42.6,43.6,42.6,43.5L42.6,43.5L42.6,43.5z
		 M50.2,40L50.2,40L50.2,40z M50.1,42.2l0.1-0.4l0.1,0.4c0,0,0,0.1-0.1,0.1C50.2,42.3,50.1,42.2,50.1,42.2L50.1,42.2z M50.3,41.8
		L50.3,41.8L50.3,41.8z M50.3,41.6C50.3,41.7,50.3,41.7,50.3,41.6c-0.1,0.1-0.2,0.1-0.2,0l0.1-0.4L50.3,41.6z M53.1,27.1L53.1,27.1
		L53.1,27.1L53.1,27.1L53.1,27.1z M53.1,32.7L53.1,32.7L53.1,32.7z M53.2,32.3l-0.1,0.4L53,32.3c0,0,0-0.1,0.1-0.1l0,0
		C53.2,32.2,53.2,32.2,53.2,32.3L53.2,32.3z M53.1,26.6c0,0,0.1,0,0.1,0.1c0,0,0,0,0,0l-0.1,0.4v0v0v0L53,26.7
		C53,26.7,53,26.6,53.1,26.6L53.1,26.6z M53.2,29.8l-0.1,0.4L53,29.8c0,0,0-0.1,0.1-0.1S53.2,29.7,53.2,29.8
		C53.2,29.8,53.2,29.8,53.2,29.8L53.2,29.8z M53.1,27.1L53.1,27.1L53.1,27.1z M53.1,29L53.1,29L53.1,29z M53.2,28.6L53.1,29L53,28.6
		C53,28.5,53.1,28.5,53.2,28.6C53.2,28.5,53.2,28.5,53.2,28.6L53.2,28.6z M53.2,29.2c0,0.1,0,0.3-0.1,0.4C53,29.4,53,29.3,53,29.2
		c0,0,0-0.1,0.1-0.1C53.2,29.1,53.2,29.1,53.2,29.2L53.2,29.2z M53.2,31.7L53.2,32l-0.1-0.3c0,0,0-0.1,0.1-0.1
		C53.2,31.6,53.2,31.7,53.2,31.7L53.2,31.7z M53.2,31l-0.1,0.4L53.1,31c0,0,0-0.1,0.1-0.1S53.2,31,53.2,31C53.2,31,53.2,31,53.2,31
		L53.2,31z M53.2,32.8C53.2,32.8,53.3,32.9,53.2,32.8L53.2,32.8v0.5V32.8C53.1,32.9,53.1,32.8,53.2,32.8L53.2,32.8z M53.1,43.5
		l-0.2,0.4l0-0.4C52.9,43.5,53,43.5,53.1,43.5C53.1,43.5,53.1,43.5,53.1,43.5L53.1,43.5z M53,42.9C53,42.9,53,42.9,53,42.9L53,42.9
		l0,0.5l0,0l0.1-0.4C53.1,42.9,53.1,42.9,53,42.9C53,42.9,53,42.9,53,42.9L53,42.9z M53.2,41.2c0,0.1,0,0.2-0.1,0.3
		C53,41.3,53,41.3,53,41.2v-0.1c0,0,0-0.1,0.1-0.1c0,0,0.1,0,0.1,0.1V41.2z M53.2,41.7l-0.1,0.4L53,41.7c0,0,0-0.1,0.1-0.1
		S53.2,41.6,53.2,41.7C53.2,41.7,53.2,41.7,53.2,41.7L53.2,41.7z M53.2,25.4l-0.1,0.4L53,25.4c0,0,0-0.1,0.1-0.1
		C53.2,25.3,53.2,25.4,53.2,25.4L53.2,25.4z M53.2,42.3l-0.1,0.4L53,42.3c0,0,0-0.1,0.1-0.1C53.1,42.2,53.2,42.2,53.2,42.3
		L53.2,42.3z M53.2,40.4l-0.1,0.4L53,40.4c0,0,0-0.1,0.1-0.1S53.2,40.3,53.2,40.4C53.2,40.4,53.2,40.4,53.2,40.4L53.2,40.4z
		 M53.2,38l-0.1,0.4L53.1,38C53.1,37.9,53.1,37.9,53.2,38C53.2,37.8,53.2,37.9,53.2,38L53.2,38z M53.2,27.9l-0.1,0.4L53,27.9
		c0,0,0-0.1,0.1-0.1S53.2,27.8,53.2,27.9C53.2,27.9,53.2,27.9,53.2,27.9L53.2,27.9z M53.2,38.5l-0.1,0.4l-0.1-0.4c0,0,0-0.1,0.1-0.1
		C53.2,38.4,53.2,38.5,53.2,38.5L53.2,38.5z M53.2,39.2l-0.1,0.4l0,0l-0.1-0.4c0,0,0-0.1,0.1-0.1S53.2,39.1,53.2,39.2
		C53.2,39.2,53.2,39.2,53.2,39.2L53.2,39.2z M53.2,39.8l-0.1,0.4L53,39.8C53,39.8,53.1,39.7,53.2,39.8
		C53.2,39.7,53.2,39.8,53.2,39.8L53.2,39.8z M49.8,33.6L49.7,34l-0.1-0.4c0,0,0-0.1,0.1-0.1C49.7,33.5,49.8,33.6,49.8,33.6
		C49.8,33.6,49.8,33.6,49.8,33.6L49.8,33.6z M49.7,33.3l-0.1-0.4c0,0,0-0.1,0.1-0.1s0.1,0,0.1,0.1c0,0,0,0,0,0L49.7,33.3z
		 M49.8,32.6l0-0.4c0,0,0-0.1,0.1-0.1l0,0c0,0,0.1,0,0.1,0.1c0,0,0,0,0,0L49.8,32.6z M49.7,32.6L49.7,32.6L49.7,32.6z M49.7,32.6
		L49.7,32.6L49.7,32.6z M49.9,32l-0.1-0.4c0,0,0-0.1,0.1-0.1c0,0,0.1,0,0.1,0.1c0,0,0,0,0,0L49.9,32z M50.1,30.9l-0.2,0.4l0-0.4
		c0,0,0.1-0.1,0.1,0C50.1,30.8,50.1,30.9,50.1,30.9L50.1,30.9z M50,30.5l0-0.4c0,0,0.1-0.1,0.1-0.1c0,0,0.1,0.1,0.1,0.1c0,0,0,0,0,0
		L50,30.5L50,30.5L50,30.5z M50.4,29.5l-0.2,0.4l0-0.4c0,0,0.1-0.1,0.1-0.1C50.3,29.4,50.4,29.4,50.4,29.5z M50.2,29.9L50.2,29.9
		L50.2,29.9z M50.4,29.2L50.4,29.2L50.4,29.2z M44.8,23.3L45,23l-0.1,0.4c0,0-0.1,0.1-0.1,0C44.8,23.4,44.7,23.4,44.8,23.3z M45,23
		L45,23L45,23z M44.5,24l0.2-0.4l0,0.4c0,0-0.1,0.1-0.1,0.1l0,0C44.5,24.1,44.5,24.1,44.5,24C44.5,24,44.5,24,44.5,24L44.5,24z
		 M44.7,23.6L44.7,23.6L44.7,23.6z M44.2,24.8c0,0,0-0.1,0-0.1l0,0l0.2-0.3l-0.1,0.4C44.3,24.8,44.3,24.8,44.2,24.8
		C44.2,24.8,44.2,24.8,44.2,24.8z M44,25.4c0,0,0.1,0,0.1,0l0,0l0.1-0.4l0,0l0,0l-0.3,0.3C43.9,25.3,43.9,25.4,44,25.4L44,25.4
		L44,25.4z M44.2,25L44.2,25L44.2,25z M43.9,25.6L43.9,25.6L43.9,25.6z M43.9,25.6L43.9,25.6L43.9,25.6z M43.6,25.9l0.3-0.3L43.8,26
		c0,0-0.1,0.1-0.1,0l0,0C43.6,26,43.6,25.9,43.6,25.9L43.6,25.9L43.6,25.9z M43.4,26L43.4,26L43.4,26z M43.4,26L43.4,26L43.4,26z
		 M43.4,26L43.4,26L43.4,26z M43.4,26L43.4,26L43.4,26z M43.4,26l-0.1,0.4c0,0-0.1,0.1-0.1,0c0,0,0,0,0,0c0,0-0.1-0.1,0-0.1l0,0
		L43.4,26z M46.5,56l-0.2,0.4l0-0.4c0,0,0.1-0.1,0.1-0.1C46.5,55.9,46.5,55.9,46.5,56C46.5,56,46.5,56,46.5,56z M46.6,55.3
		c0,0-0.1,0-0.1,0.1l0,0.4l0.2-0.4C46.7,55.3,46.6,55.3,46.6,55.3L46.6,55.3L46.6,55.3z M46.5,55.7L46.5,55.7L46.5,55.7z M46.8,54.7
		l-0.2,0.4l0-0.4c0,0,0-0.1,0.1-0.1C46.7,54.6,46.8,54.6,46.8,54.7C46.8,54.7,46.8,54.7,46.8,54.7z M46.9,54.1l-0.2,0.4l0-0.4
		c0,0,0.1-0.1,0.1-0.1C46.8,54,46.9,54.1,46.9,54.1L46.9,54.1L46.9,54.1z M46.9,53.4c0,0-0.1,0-0.1,0.1l0,0.4l0.2-0.4
		C47,53.5,47,53.5,46.9,53.4L46.9,53.4L46.9,53.4z M46.8,53.9L46.8,53.9L46.8,53.9z M47,53.2l0-0.4c0,0,0.1-0.1,0.1-0.1
		s0.1,0.1,0.1,0.1L47,53.2z M47.1,52.7L47.1,52.7l0.2-0.4c0,0,0-0.1-0.1-0.1c0,0-0.1,0-0.1,0.1c0,0,0,0,0,0L47.1,52.7L47.1,52.7z
		 M47.2,52.1l0-0.4c0,0,0.1-0.1,0.1-0.1s0.1,0.1,0.1,0.1l0,0L47.2,52.1L47.2,52.1L47.2,52.1z M47.3,51.4l0-0.4c0,0,0.1-0.1,0.1-0.1
		c0.1,0,0.1,0,0.1,0.1L47.3,51.4z"/>
</g>
<g class="st2">
	<path d="M22.7,91.4l2.5-7.8h1.6l2.5,7.8h-1.5l-0.6-2.1h-2.6l-0.6,2.1H22.7z M25.3,87.2l-0.3,1h2l-0.3-1c-0.1-0.4-0.2-0.8-0.3-1.3
		c-0.1-0.4-0.2-0.9-0.3-1.3h0c-0.1,0.4-0.2,0.9-0.3,1.3C25.5,86.4,25.4,86.8,25.3,87.2z"/>
	<path d="M33.9,91.5c-0.5,0-0.9-0.1-1.4-0.3c-0.4-0.2-0.8-0.4-1.1-0.8c-0.3-0.3-0.6-0.8-0.8-1.3s-0.3-1.1-0.3-1.7
		c0-0.6,0.1-1.2,0.3-1.7s0.4-0.9,0.8-1.3c0.3-0.4,0.7-0.6,1.1-0.8c0.4-0.2,0.9-0.3,1.4-0.3c0.5,0,0.9,0.1,1.3,0.3
		c0.4,0.2,0.7,0.4,0.9,0.7l-0.8,0.9c-0.2-0.2-0.4-0.3-0.7-0.5c-0.2-0.1-0.5-0.2-0.8-0.2c-0.3,0-0.6,0.1-0.9,0.2
		c-0.3,0.1-0.5,0.3-0.7,0.6c-0.2,0.2-0.3,0.5-0.4,0.9c-0.1,0.4-0.2,0.7-0.2,1.2c0,0.4,0.1,0.8,0.2,1.2c0.1,0.4,0.3,0.7,0.4,0.9
		c0.2,0.2,0.4,0.4,0.7,0.6c0.3,0.1,0.6,0.2,0.9,0.2c0.3,0,0.6-0.1,0.9-0.2c0.3-0.1,0.5-0.3,0.7-0.6l0.8,0.9
		c-0.3,0.4-0.7,0.7-1.1,0.8C34.9,91.4,34.4,91.5,33.9,91.5z"/>
	<path d="M41.1,91.5c-0.5,0-0.9-0.1-1.4-0.3c-0.4-0.2-0.8-0.4-1.1-0.8c-0.3-0.3-0.6-0.8-0.8-1.3s-0.3-1.1-0.3-1.7
		c0-0.6,0.1-1.2,0.3-1.7s0.4-0.9,0.8-1.3c0.3-0.4,0.7-0.6,1.1-0.8c0.4-0.2,0.9-0.3,1.4-0.3c0.5,0,0.9,0.1,1.3,0.3
		c0.4,0.2,0.7,0.4,0.9,0.7l-0.8,0.9c-0.2-0.2-0.4-0.3-0.7-0.5c-0.2-0.1-0.5-0.2-0.8-0.2c-0.3,0-0.6,0.1-0.9,0.2
		c-0.3,0.1-0.5,0.3-0.7,0.6c-0.2,0.2-0.3,0.5-0.4,0.9C39.1,86.6,39,87,39,87.4c0,0.4,0.1,0.8,0.2,1.2c0.1,0.4,0.3,0.7,0.4,0.9
		c0.2,0.2,0.4,0.4,0.7,0.6c0.3,0.1,0.6,0.2,0.9,0.2c0.3,0,0.6-0.1,0.9-0.2c0.3-0.1,0.5-0.3,0.7-0.6l0.8,0.9
		c-0.3,0.4-0.7,0.7-1.1,0.8C42.1,91.4,41.6,91.5,41.1,91.5z"/>
	<path d="M45.3,91.4v-7.8h5v1.2h-3.6v2h3.1v1.2h-3.1v2.3h3.8v1.2H45.3z"/>
	<path d="M54.9,91.5c-0.6,0-1.1-0.1-1.6-0.3c-0.5-0.2-1-0.5-1.3-0.9l0.8-0.9c0.3,0.3,0.6,0.5,1,0.6c0.4,0.2,0.8,0.2,1.2,0.2
		c0.5,0,0.8-0.1,1-0.3c0.2-0.2,0.4-0.4,0.4-0.7c0-0.2,0-0.3-0.1-0.4c-0.1-0.1-0.2-0.2-0.3-0.3c-0.1-0.1-0.3-0.2-0.4-0.2
		c-0.2-0.1-0.3-0.1-0.5-0.2L54,87.7c-0.2-0.1-0.4-0.2-0.6-0.3c-0.2-0.1-0.4-0.3-0.5-0.4c-0.2-0.2-0.3-0.4-0.4-0.6
		c-0.1-0.2-0.1-0.5-0.1-0.8c0-0.3,0.1-0.6,0.2-0.9c0.1-0.3,0.3-0.5,0.6-0.7c0.2-0.2,0.5-0.4,0.9-0.5c0.3-0.1,0.7-0.2,1.1-0.2
		c0.5,0,0.9,0.1,1.4,0.3c0.4,0.2,0.8,0.4,1.1,0.7l-0.7,0.9c-0.3-0.2-0.5-0.4-0.8-0.5c-0.3-0.1-0.6-0.2-1-0.2c-0.4,0-0.7,0.1-0.9,0.2
		s-0.3,0.4-0.3,0.7c0,0.2,0,0.3,0.1,0.4c0.1,0.1,0.2,0.2,0.3,0.3s0.3,0.2,0.4,0.2c0.2,0.1,0.3,0.1,0.5,0.2l1,0.4
		c0.2,0.1,0.5,0.2,0.7,0.3s0.4,0.3,0.5,0.4s0.3,0.4,0.4,0.6c0.1,0.2,0.1,0.5,0.1,0.8c0,0.3-0.1,0.6-0.2,0.9
		c-0.1,0.3-0.3,0.5-0.6,0.7s-0.6,0.4-0.9,0.5C55.7,91.5,55.3,91.5,54.9,91.5z"/>
	<path d="M62.1,91.5c-0.5,0-0.9-0.1-1.3-0.3c-0.4-0.2-0.7-0.4-1-0.8s-0.5-0.8-0.6-1.3C59,88.6,59,88.1,59,87.4
		c0-0.6,0.1-1.2,0.2-1.7c0.2-0.5,0.4-0.9,0.6-1.3c0.3-0.3,0.6-0.6,1-0.8c0.4-0.2,0.8-0.3,1.3-0.3s0.9,0.1,1.3,0.3
		c0.4,0.2,0.7,0.4,1,0.8c0.3,0.3,0.5,0.8,0.6,1.3s0.2,1.1,0.2,1.7c0,0.7-0.1,1.2-0.2,1.8s-0.4,0.9-0.6,1.3c-0.3,0.3-0.6,0.6-1,0.8
		S62.5,91.5,62.1,91.5z M62.1,90.3c0.5,0,0.9-0.2,1.2-0.8s0.5-1.2,0.5-2.1c0-0.9-0.2-1.6-0.5-2.1s-0.7-0.7-1.2-0.7s-0.9,0.2-1.2,0.7
		s-0.5,1.2-0.5,2.1c0,0.9,0.2,1.6,0.5,2.1S61.5,90.3,62.1,90.3z"/>
	<path d="M66.7,91.4v-7.8h2.6c0.4,0,0.8,0,1.1,0.1s0.7,0.2,0.9,0.4s0.5,0.4,0.6,0.7s0.2,0.7,0.2,1.1c0,0.6-0.1,1.1-0.4,1.5
		c-0.3,0.4-0.7,0.6-1.1,0.8l1.9,3.3h-1.6l-1.7-3.1h-1.2v3.1H66.7z M68.1,87.2h1.1c0.5,0,1-0.1,1.2-0.3c0.3-0.2,0.4-0.6,0.4-1
		c0-0.5-0.1-0.8-0.4-0.9c-0.3-0.2-0.7-0.3-1.2-0.3h-1.1V87.2z"/>
	<path d="M73.9,91.4v-1.2h1.9v-5.5h-1.9v-1.2H79v1.2h-1.9v5.5H79v1.2H73.9z"/>
	<path d="M83.7,91.5c-0.5,0-0.9-0.1-1.3-0.3c-0.4-0.2-0.7-0.4-1-0.8c-0.3-0.3-0.5-0.8-0.6-1.3c-0.2-0.5-0.2-1.1-0.2-1.8
		c0-0.6,0.1-1.2,0.2-1.7c0.2-0.5,0.4-0.9,0.6-1.3c0.3-0.3,0.6-0.6,1-0.8c0.4-0.2,0.8-0.3,1.3-0.3s0.9,0.1,1.3,0.3
		c0.4,0.2,0.7,0.4,1,0.8c0.3,0.3,0.5,0.8,0.6,1.3s0.2,1.1,0.2,1.7c0,0.7-0.1,1.2-0.2,1.8s-0.4,0.9-0.6,1.3c-0.3,0.3-0.6,0.6-1,0.8
		S84.1,91.5,83.7,91.5z M83.7,90.3c0.5,0,0.9-0.2,1.2-0.8s0.5-1.2,0.5-2.1c0-0.9-0.2-1.6-0.5-2.1s-0.7-0.7-1.2-0.7s-0.9,0.2-1.2,0.7
		S82,86.5,82,87.4c0,0.9,0.2,1.6,0.5,2.1S83.1,90.3,83.7,90.3z"/>
	<path d="M90.9,91.5c-0.6,0-1.1-0.1-1.6-0.3c-0.5-0.2-1-0.5-1.3-0.9l0.8-0.9c0.3,0.3,0.6,0.5,1,0.6c0.4,0.2,0.8,0.2,1.2,0.2
		c0.5,0,0.8-0.1,1-0.3s0.4-0.4,0.4-0.7c0-0.2,0-0.3-0.1-0.4s-0.2-0.2-0.3-0.3c-0.1-0.1-0.3-0.2-0.4-0.2s-0.3-0.1-0.5-0.2L90,87.7
		c-0.2-0.1-0.4-0.2-0.6-0.3c-0.2-0.1-0.4-0.3-0.5-0.4s-0.3-0.4-0.4-0.6c-0.1-0.2-0.1-0.5-0.1-0.8c0-0.3,0.1-0.6,0.2-0.9
		c0.1-0.3,0.3-0.5,0.6-0.7c0.2-0.2,0.5-0.4,0.9-0.5c0.3-0.1,0.7-0.2,1.1-0.2c0.5,0,0.9,0.1,1.4,0.3c0.4,0.2,0.8,0.4,1.1,0.7
		l-0.7,0.9c-0.3-0.2-0.5-0.4-0.8-0.5c-0.3-0.1-0.6-0.2-1-0.2c-0.4,0-0.7,0.1-0.9,0.2s-0.3,0.4-0.3,0.7c0,0.2,0,0.3,0.1,0.4
		c0.1,0.1,0.2,0.2,0.3,0.3c0.1,0.1,0.3,0.2,0.4,0.2c0.2,0.1,0.3,0.1,0.5,0.2l1,0.4c0.2,0.1,0.5,0.2,0.7,0.3s0.4,0.3,0.5,0.4
		s0.3,0.4,0.4,0.6c0.1,0.2,0.1,0.5,0.1,0.8c0,0.3-0.1,0.6-0.2,0.9c-0.1,0.3-0.3,0.5-0.6,0.7s-0.6,0.4-0.9,0.5
		C91.7,91.5,91.3,91.5,90.9,91.5z"/>
</g>
</svg>
