<?xml version="1.0" encoding="utf-8"?>
<!-- Generator: Adobe Illustrator 24.3.0, SVG Export Plug-In . SVG Version: 6.00 Build 0)  -->
<svg version="1.1" id="Layer_1" xmlns="http://www.w3.org/2000/svg" xmlns:xlink="http://www.w3.org/1999/xlink" x="0px" y="0px"
	 viewBox="0 0 120 100" style="enable-background:new 0 0 120 100;" xml:space="preserve">
<style type="text/css">
	.st0{fill:#050505;}
	.st1{fill:#231F20;}
	.st2{fill:#070707;}
	.st3{enable-background:new    ;}
</style>
<g>
	<g id="XMLID_528_">
		<path class="st0" d="M76.6,72.8c-0.8,0-1.4,0-1.5-0.1c-0.4-0.1-1.6-0.3-1.6-1.3c0-0.7-0.1-3.5-0.1-3.6c0-0.3-0.2-8.5-0.1-9.7
			c-0.1-0.4-0.5-3.1-0.3-7.5c-0.1-0.4-0.6-3.3-0.3-6.7c0-0.3-0.1-1.6-0.2-3.3c-0.1,2.3-0.3,4.2-0.3,4.4c-0.1,0.3-0.1,2.2,0.1,5.8
			c0.3,3.2,0.4,8.6,0.5,9c0.1,0.2,0.3,1.6,0.3,3.3c0.1,2.5-0.3,4.6-1.2,6.2l-0.1,0.1c-0.1,0.1-3.3,3.3-12,3c0,0,0,0-0.1,0
			c-1.7-0.3-5-0.8-5.4-0.9c0,0-3.3-0.5-3.8-0.8c-0.1,0-0.1-0.1-0.3-0.1c-0.9-0.3-3.3-1.2-3.3-4.6c-0.1-0.4-0.5-5,0.3-8.8
			c-0.1-0.7-0.5-6.3-0.3-8.4c0.3-2.1,0.4-5.7,0.3-6.7c0-0.1-0.1-0.5-0.1-1c-0.1-0.9-0.2-1.8-0.3-2.7c-0.1,2.9-0.1,5.2-0.1,5.4
			c0.1,0.4-0.1,2.7-0.3,5.3c-0.1,0.7-0.1,1.3-0.1,1.4c0,0,0,0.1,0,0.3c0.1,4,0.1,6.5-0.1,7.8c-0.1,1-0.1,2.4-0.1,3.6
			c0,1.8,0,2.7-0.2,3.1c-0.2,0.4-0.2,1.6-0.1,2.3v0.1l-0.1,4.4c0,0.2-0.2,0.3-0.3,0.3c-5.5,0.1-5.8,0-5.9-0.1s-0.2-0.2-0.2-0.3
			c0-1.4,0-4.3-0.1-4.9c-0.1-0.5-0.7-12.2-0.6-23.7c0.1-6.9,0.3-12.5,0.8-16.6c0.6-5.4,1.6-8.4,3-9.2l0,0c0,0,4.8-2.9,5.9-3.6
			c1.4-0.8,3.5-2.4,4-3v-0.5c0,0,0,0,0-0.1c0-0.1,0.4-3.2,2.4-3.3c1.6-0.1,9.1,0,9.5,0c0.5,0,1.6,0.3,1.9,1.7l0,0
			c0.1,0.6,0.5,2.2,1,2.7c0.6,0.5,6.3,3.9,8.5,5.2c0,0,0,0,0.1,0.1c0.2,0.1,4.7,4,4.5,14.1c0.1,1.1,0.8,24.2,0.5,27.3l-0.3,9.2
			l-0.1,4.8c0,0.2-0.1,0.3-0.4,0.3C79.4,72.7,77.8,72.8,76.6,72.8z M72.7,32.3L72.7,32.3c0.2,0,0.4,0.2,0.4,0.4
			C73,35,73.6,43.8,73.6,43.9V44c-0.3,3.5,0.3,6.5,0.3,6.5v0.1c-0.3,4.6,0.3,7.4,0.3,7.4c0,0.1,0,0.1,0,0.1c-0.1,0.8,0,6.7,0.1,9.7
			c0,0.1,0.1,2.9,0.1,3.6c0,0.3,0.3,0.4,0.9,0.5c0.3,0.1,2.3,0,4.2,0l0.1-4.4l0.3-9.2l0,0c0.3-2.9-0.5-26.9-0.5-27.2l0,0
			c0.1-9.4-3.9-13.2-4.2-13.5c-0.6-0.3-7.8-4.6-8.6-5.3c-0.9-0.8-1.2-2.9-1.3-3.1c-0.3-1.2-1.1-1.1-1.2-1.1l0,0
			c-0.1,0-7.8-0.1-9.5,0c-1.1,0.1-1.6,2-1.7,2.7v0.5c0,0.1,0,0.1-0.1,0.2c-0.5,0.9-3.4,2.8-4.3,3.4c-1.2,0.7-5.9,3.6-5.9,3.6
			c-1.2,0.8-3.3,5-3.4,25.2c-0.1,11.8,0.6,23.3,0.6,23.7C40,68,40,71,40,72c0.8,0.1,3.2,0,5-0.1l0.3-4.2c0-0.3-0.1-2,0.2-2.7
			c0.1-0.3,0.1-1.7,0.1-2.9c0-1.2,0-2.7,0.1-3.7c0.1-0.8,0.2-2.9,0.1-7.7c0-0.1,0-0.3,0-0.3c0-0.1,0-0.4,0.1-1.4
			c0.1-1.7,0.3-4.8,0.3-5.2c-0.1-0.5,0.3-9,0.3-12.5c0-0.7,0-1.2,0.1-1.4c0.1-0.2,0.2-0.3,0.4-0.3c0.2,0,0.3,0.2,0.3,0.4
			c0,0.5,0,0.9-0.1,1.4c0.1,2.5,0.6,7.6,0.8,9.5c0.1,0.5,0.1,0.9,0.1,1c0.1,1.2-0.1,4.7-0.3,6.9c-0.3,2.1,0.3,8.2,0.3,8.2
			c0,0.1,0,0.1,0,0.1C47.4,61.1,48,65.9,48,66c0,0,0,0,0,0.1c0.1,2.8,2,3.5,2.9,3.9c0.1,0.1,0.2,0.1,0.3,0.2
			c0.3,0.2,2.9,0.6,3.5,0.7c0.4,0.1,4.9,0.8,5.4,0.9c4.4,0.1,7.2-0.6,8.9-1.3c1.6-0.6,2.4-1.3,2.5-1.4c1.8-3.5,0.8-8.9,0.8-9v-0.1
			c0-0.1-0.2-5.7-0.5-9c-0.2-3-0.3-5.4-0.1-6c0.1-0.4,0.5-7.5,0.7-12.1C72.3,32.4,72.5,32.3,72.7,32.3z"/>
	</g>
	<g id="XMLID_527_">
		<path class="st0" d="M47,29.5C47,29.5,47,29.4,47,29.5c-0.6-2.9-2.4-7.1-3.1-8.8c-0.1-0.3-0.2-0.4-0.3-0.5c-0.4-1-1-1.5-1-1.5
			v-0.1h0.1c0,0,0.5,0.5,1,1.5c0.1,0.1,0.1,0.3,0.2,0.5c0.7,1.6,2.5,5.8,3.1,8.7C47.1,29.4,47.1,29.5,47,29.5
			C47.1,29.5,47,29.5,47,29.5z"/>
	</g>
	<g id="XMLID_526_">
		<path class="st0" d="M72.7,31.6L72.7,31.6C72.7,31.6,72.7,31.5,72.7,31.6c-0.1-0.1,1.1-3.8,1.4-4.5c0.3-0.9,2-6.5,1.8-8
			c0-0.1,0-0.1,0.1-0.1s0.1,0,0.1,0.1c0.2,1.5-1.6,7.4-1.8,8C74,27.8,72.8,31.5,72.7,31.6C72.8,31.6,72.7,31.6,72.7,31.6z"/>
	</g>
	<g id="XMLID_525_">
		<path class="st0" d="M59.7,71.5c-0.1,0-0.1,0-0.1-0.1l-0.3-0.8v-0.1c0-0.1,0.1-15.4,0-16.7c-0.1-1.4-0.6-21-0.5-22.5
			c0-0.3,0-1.2,0.1-2.3c0-4.8,0.1-9.9,0.4-10.6c0.2-0.5,0.4-0.9,0.6-1.2c0.1-0.2,0.3-0.3,0.3-0.6c0-0.1,0.1-0.1,0.1-0.3
			c0.2-0.5,0.5-1.2,0.4-1.6c-0.1-0.5,0.1-3.1,2.2-3.3c0.6-0.1,2.2-0.3,2.7-0.8c0.1-0.1,0.1-0.1,0.2,0s0.1,0.1,0,0.2
			c-0.6,0.7-2.7,0.9-2.8,0.9c-1.8,0.3-2,2.6-1.9,3.1c0.1,0.5-0.2,1.2-0.5,1.7c-0.1,0.1-0.1,0.2-0.1,0.3c-0.1,0.3-0.2,0.4-0.3,0.6
			c-0.2,0.3-0.3,0.5-0.5,1.1c-0.3,0.7-0.3,7.1-0.4,10.5c0,1.1,0,2-0.1,2.3c-0.1,1.4,0.4,21.1,0.5,22.4c0.1,1.2,0,15.7,0,16.7
			l0.3,0.7C59.8,71.4,59.8,71.4,59.7,71.5C59.7,71.5,59.7,71.5,59.7,71.5z"/>
	</g>
	<g id="XMLID_524_">
		<path class="st0" d="M63.1,16.2C63.1,16.2,63.1,16.2,63.1,16.2c-0.1,0-0.1-0.1-0.1-0.1c0.1-1.4,0.1-3.8,0-4.1c0-0.1,0-0.1,0.1-0.1
			s0.1,0,0.1,0.1c0.1,0.3,0.1,2.8,0,3.8l3.1-3.4c0.1-0.1,0.1-0.1,0.2,0c0.1,0.1,0.1,0.1,0,0.2L63.1,16.2
			C63.2,16.2,63.1,16.2,63.1,16.2z"/>
	</g>
	<g id="XMLID_523_">
		<path class="st0" d="M60,15.1C60,15.1,59.9,15.1,60,15.1c-0.1-0.1-1.6-1.6-2.3-2.2c-0.4-0.3-0.8-0.5-1-0.5
			c-0.1-0.1-0.3-0.1-0.3-0.2c0,0-0.1-0.1-0.1-0.1c-0.5-0.4-1.9-1.8-2-3.8c0-0.1,0.1-0.1,0.1-0.1s0.1,0.1,0.1,0.1
			c0.1,1.9,1.5,3.2,2,3.6c0.1,0.1,0.1,0.1,0.1,0.1c0.1,0.1,0.1,0.1,0.3,0.1c0.2,0.1,0.5,0.3,1,0.6c0.8,0.5,2.2,2,2.2,2.1
			s0.1,0.1,0,0.2C60.1,15,60,15.1,60,15.1z"/>
	</g>
	<g id="XMLID_522_">
		<path class="st0" d="M56.6,16c-0.1,0-0.3,0-3.6-3.9c-0.1-0.1-0.1-0.1,0-0.2c0.1-0.1,0.1-0.1,0.2,0c1.1,1.3,2.9,3.3,3.3,3.7
			c0.1-0.4,0.1-1.8,0-3.1c0-0.1,0.1-0.1,0.1-0.1s0.1,0.1,0.1,0.1c0.1,1.4,0.1,3.2-0.1,3.3C56.7,16,56.7,16,56.6,16z"/>
	</g>
	<g id="XMLID_521_">
		<path class="st0" d="M65,10.7L65,10.7c-0.5-0.1-5.9-0.1-9.5,0c-0.1,0-0.2-0.1-0.2-0.2s0.1-0.2,0.2-0.2c2.1-0.1,9.1-0.2,9.6,0
			c0.1,0.1,0.1,0.1,0.1,0.3C65.2,10.7,65.1,10.7,65,10.7z"/>
	</g>
	<g id="XMLID_520_">
		<ellipse class="st1" cx="60" cy="18.6" rx="0.3" ry="0.4"/>
	</g>
	<g id="XMLID_519_">
		<ellipse class="st1" cx="59.9" cy="26.7" rx="0.5" ry="0.4"/>
	</g>
	<g id="XMLID_518_">
		<ellipse class="st1" cx="59.9" cy="35" rx="0.5" ry="0.4"/>
	</g>
	<g id="XMLID_517_">
		<ellipse class="st1" cx="60.2" cy="43.2" rx="0.5" ry="0.4"/>
	</g>
	<g id="XMLID_516_">
		<ellipse class="st1" cx="60.3" cy="51.4" rx="0.5" ry="0.4"/>
	</g>
	<g id="XMLID_515_">
		<ellipse class="st1" cx="60.3" cy="59.7" rx="0.5" ry="0.4"/>
	</g>
	<g id="XMLID_510_">
		<g id="XMLID_514_">
			<path class="st2" d="M68.9,23.2c0-0.1,0.1-0.1,0.1-0.1s0.1,0.1,0.1,0.1s-0.1,0.1-0.1,0.1C68.9,23.3,68.9,23.3,68.9,23.2
				 M68.9,23.3C69,23.3,69,23.2,68.9,23.3c0.1-0.1,0-0.1,0-0.1C68.9,23.1,68.9,23.2,68.9,23.3C68.9,23.3,68.9,23.3,68.9,23.3
				 M68.9,23.3L68.9,23.3v-0.1H69c0,0,0.1,0,0.1,0.1C69,23.2,69,23.2,68.9,23.3L68.9,23.3L68.9,23.3L68.9,23.3L68.9,23.3L68.9,23.3z
				 M68.9,23.2C69,23.2,69,23.2,68.9,23.2C69,23.1,69,23.1,68.9,23.2L68.9,23.2L68.9,23.2L68.9,23.2z"/>
		</g>
		<g id="XMLID_513_">
			<path class="st2" d="M67.8,23.2L67.8,23.2c0.1,0,0-0.2-0.1-0.3c0.1,0,0.1,0,0.1,0c0.1,0.1,0.1,0.2,0.1,0.2s0.1-0.1,0.2-0.1
				c0,0,0.1,0,0.1,0.1L68,23.2l0.1,0.2c0,0,0.1-0.2,0.3-0.3c0,0,0.1,0,0.1,0.1s-0.1,0.1-0.1,0.1c0.1,0,0.2,0,0.3,0l0.1,0.1h-0.3
				l-0.1,0.2h0.1c0,0,0.1-0.1,0.3-0.1l0.1,0.1l-0.3,0.1l-0.2,0.1c0,0.1,0,0.1-0.1,0.1c0.2-0.1,0.4-0.1,0.6-0.1
				c0.1,0.3,0.1,0.6-0.1,0.9c-0.5,0.1-1.2-0.1-1.8,0.1h-0.2c-0.1-0.1-0.2-0.3-0.2-0.5c0-0.2,0-0.4,0.1-0.6h0.3l-0.1-0.2l0.1-0.1
				c0.1,0.1,0.3,0.3,0.3,0.3h0.1l-0.3-0.3c0-0.1,0.1-0.1,0.1-0.1l0.2,0.1c0,0,0-0.1,0-0.2c0.1,0,0.1-0.1,0.1-0.1
				c0.1,0.1,0.1,0.1,0.1,0.3c0.1-0.1,0.1-0.2,0.1-0.3l0,0L67.8,23.2z M67.6,23.1l-0.1,0.3l0.1,0.2l0.1-0.1v-0.2
				C67.7,23.2,67.7,23.1,67.6,23.1 M67.3,23.1v0.1h0.1C67.4,23.2,67.3,23.1,67.3,23.1 M67,23.3L67,23.3c0.1,0.1,0.2,0.2,0.2,0.2
				v-0.2H67z M67.9,23.3L67.9,23.3L67.9,23.3L67.9,23.3L67.9,23.3z M67.3,23.3v0.2V23.3L67.3,23.3z M68.3,23.4L68.3,23.4l-0.2,0.2
				h0.1L68.3,23.4z M67.8,23.5v0.2l0.1-0.2v-0.1v-0.1L67.8,23.5z M67.5,23.5L67.5,23.5v0.2C67.5,23.7,67.5,23.6,67.5,23.5
				 M67.7,23.6L67.7,23.6l-0.1,0.1h0.1V23.6z M67,23.6L67,23.7l0.2,0.1l0.1-0.1l-0.1-0.1H67z M66.7,23.7l0.1,0.1l0.1-0.1H66.7z
				 M68,23.7L68,23.9H68V23.7L68,23.7z M67.4,23.8L67.1,24H67l0.1-0.1c-0.1,0-0.1-0.1-0.1-0.1L66.7,24h-0.1c0,0.1,0,0.2,0.1,0.3
				c0,0,0,0.1,0.1,0.1c0.3,0,0.5,0.1,0.8,0.1V24l-0.1-0.1L67.4,24h-0.3C67.2,24,67.4,23.9,67.4,23.8C67.4,23.8,67.4,23.8,67.4,23.8
				 M66.7,23.8c0,0.1,0,0.1,0,0.1C66.7,23.9,66.7,23.8,66.7,23.8L66.7,23.8z M68.7,23.8h-0.1c0,0.1,0.1,0.1,0.1,0.1h-0.1l-0.1-0.1
				c-0.1,0-0.2,0.1-0.2,0.1l0.1,0.1V24l-0.1-0.1c0,0-0.3,0.1-0.4,0.1l0,0c0,0.1,0,0.3,0,0.4l0,0c0.2,0.1,0.5,0.1,0.8,0.1l0,0
				c0.1-0.1,0.1-0.2,0.1-0.3C68.8,24.1,68.8,23.9,68.7,23.8"/>
		</g>
		<g id="XMLID_512_">
			<path class="st2" d="M68.7,24.6c-0.1,0.1-0.1,0.2-0.3,0.3c-0.5,0-1-0.1-1.6-0.1c0,0-0.1,0-0.1-0.1c0.4-0.1,0.8,0,1.2,0
				C68.2,24.7,68.5,24.7,68.7,24.6L68.7,24.6z"/>
		</g>
		<g id="XMLID_511_">
			<path class="st2" d="M67.8,24.9c0.1,0,0.3,0,0.5,0.1c-0.3,0.2-0.8,0.2-1.2,0c-0.1-0.1-0.2-0.1-0.3-0.2c0,0,0,0,0.1,0h0.2
				L67.8,24.9z"/>
		</g>
	</g>
	<g id="XMLID_509_">
		<path class="st0" d="M45,67.5h-0.3c-0.1,0-0.1,0-0.1-0.1s0-0.1,0.1-0.1H45C45.1,67.3,45.1,67.4,45,67.5
			C45.1,67.5,45.1,67.5,45,67.5z M44.6,67.5h-0.3c-0.1,0-0.1,0-0.1-0.1s0-0.1,0.1-0.1h0.3C44.6,67.3,44.6,67.4,44.6,67.5
			C44.6,67.5,44.6,67.5,44.6,67.5z M44,67.5h-0.3c-0.1,0-0.1,0-0.1-0.1s0-0.1,0.1-0.1H44C44.1,67.3,44.1,67.4,44,67.5
			C44.1,67.5,44.1,67.5,44,67.5z M43.6,67.5h-0.3c-0.1,0-0.1,0-0.1-0.1s0-0.1,0.1-0.1h0.3C43.6,67.3,43.6,67.4,43.6,67.5
			C43.6,67.5,43.6,67.5,43.6,67.5z M43,67.5h-0.3c-0.1,0-0.1,0-0.1-0.1s0-0.1,0.1-0.1H43C43.1,67.3,43.1,67.4,43,67.5
			C43.1,67.5,43.1,67.5,43,67.5z M42.5,67.5h-0.3c-0.1,0-0.1,0-0.1-0.1s0-0.1,0.1-0.1h0.3C42.5,67.3,42.6,67.4,42.5,67.5
			C42.6,67.5,42.5,67.5,42.5,67.5z M42,67.5h-0.3c-0.1,0-0.1,0-0.1-0.1s0-0.1,0.1-0.1H42C42.1,67.3,42.1,67.4,42,67.5
			C42.1,67.5,42.1,67.5,42,67.5z M41.5,67.5h-0.3c-0.1,0-0.1,0-0.1-0.1s0-0.1,0.1-0.1h0.3C41.5,67.3,41.6,67.4,41.5,67.5
			C41.6,67.5,41.5,67.5,41.5,67.5z M41,67.5h-0.3c-0.1,0-0.1,0-0.1-0.1s0-0.1,0.1-0.1H41C41,67.3,41,67.4,41,67.5
			C41,67.5,41,67.5,41,67.5z M40.5,67.5h-0.3c-0.1,0-0.1,0-0.1-0.1s0-0.1,0.1-0.1h0.3C40.5,67.3,40.6,67.4,40.5,67.5
			C40.6,67.5,40.5,67.5,40.5,67.5z"/>
	</g>
	<g id="XMLID_505_">
		<path class="st0" d="M77.3,67.9C77.3,67.9,77.2,67.9,77.3,67.9c-0.1-0.1-0.1-0.1,0-0.1l0,0c0.1,0,0.1,0,0.3,0l0,0
			c0.1,0,0.1,0,0.1,0.1s0,0.1-0.1,0.1S77.4,67.9,77.3,67.9z M77,67.9L77,67.9h-0.3c-0.1,0-0.1,0-0.1-0.1s0-0.1,0.1-0.1l0,0H77
			C77.1,67.8,77.1,67.8,77,67.9C77.1,67.9,77.1,67.9,77,67.9z M77.8,67.9C77.8,67.9,77.8,67.9,77.8,67.9c-0.1-0.1-0.1-0.1,0-0.1
			s0.2,0,0.3,0c0,0,0.1,0,0.1,0.1s0,0.1-0.1,0.1C78,67.9,77.9,67.9,77.8,67.9L77.8,67.9z M76.5,67.9L76.5,67.9h-0.3
			c-0.1,0-0.1,0-0.1-0.1s0-0.1,0.1-0.1h0.3C76.5,67.8,76.6,67.8,76.5,67.9C76.6,67.9,76.5,67.9,76.5,67.9z M76,67.9L76,67.9h-0.3
			c-0.1,0-0.1,0-0.1-0.1s0-0.1,0.1-0.1H76C76.1,67.8,76.1,67.8,76,67.9C76.1,67.9,76.1,67.9,76,67.9z M78.3,67.9
			C78.3,67.9,78.2,67.9,78.3,67.9c-0.1-0.1-0.1-0.1,0-0.1s0.2,0,0.3,0s0.1,0,0.1,0.1s0,0.1-0.1,0.1S78.4,67.9,78.3,67.9L78.3,67.9z
			 M75.5,67.9L75.5,67.9h-0.3c-0.1,0-0.1,0-0.1-0.1s0-0.1,0.1-0.1h0.3C75.5,67.8,75.6,67.8,75.5,67.9C75.6,67.8,75.5,67.9,75.5,67.9
			z M75,67.9L75,67.9h-0.3c-0.1,0-0.1,0-0.1-0.1s0-0.1,0.1-0.1H75C75,67.8,75,67.8,75,67.9C75,67.8,75,67.9,75,67.9z M78.8,67.8
			L78.8,67.8c-0.1-0.1-0.1-0.1,0-0.1s0.1,0,0.1,0s0.1,0,0.1,0.1s0,0.1-0.1,0.1C78.9,67.8,78.9,67.8,78.8,67.8
			C78.9,67.8,78.9,67.8,78.8,67.8z M74.5,67.8L74.5,67.8h-0.3c-0.1,0-0.1,0-0.1-0.1s0-0.1,0.1-0.1h0.3
			C74.6,67.7,74.6,67.8,74.5,67.8C74.6,67.8,74.5,67.8,74.5,67.8z"/>
	</g>
	<g id="XMLID_504_">
		<ellipse class="st1" cx="56.3" cy="14.8" rx="0.3" ry="0.4"/>
	</g>
	<g id="XMLID_503_">
		<ellipse class="st1" cx="63.7" cy="14.8" rx="0.3" ry="0.4"/>
	</g>
	<g id="XMLID_507_">
		<path class="st0" d="M59.4,17.5L59.4,17.5c-0.1-0.1-1.4-2.1-2.2-2.1c-0.1,0-0.1,0-0.1-0.1s0-0.1,0.1-0.1
			C58,15.2,59.4,17.3,59.4,17.5C59.5,17.4,59.5,17.5,59.4,17.5C59.5,17.5,59.4,17.5,59.4,17.5z"/>
	</g>
	<g id="XMLID_508_">
		<path class="st0" d="M60,17.5C59.9,17.5,59.9,17.5,60,17.5c-0.1-0.1-0.1-0.2-0.1-0.3s2.1-1.8,2.9-2.2c0.1,0,0.1,0,0.1,0.1
			s0,0.1-0.1,0.1c-0.8,0.3-2.7,2.1-2.8,2.1C60.1,17.5,60,17.5,60,17.5z"/>
	</g>
</g>
<g class="st3">
	<path d="M46,91.4v-7.8h2.6c0.4,0,0.8,0,1.1,0.1c0.4,0.1,0.7,0.2,0.9,0.4c0.3,0.2,0.5,0.4,0.6,0.7s0.2,0.7,0.2,1.1
		c0,0.6-0.1,1.1-0.4,1.5c-0.3,0.4-0.7,0.6-1.1,0.8l1.9,3.3h-1.6l-1.7-3.1h-1.2v3.1H46z M47.3,87.2h1.1c0.5,0,1-0.1,1.2-0.3
		c0.3-0.2,0.4-0.6,0.4-1c0-0.5-0.1-0.8-0.4-0.9c-0.3-0.2-0.7-0.3-1.2-0.3h-1.1V87.2z"/>
	<path d="M55.7,91.5c-0.5,0-0.9-0.1-1.3-0.3c-0.4-0.2-0.7-0.4-1-0.8s-0.5-0.8-0.6-1.3c-0.2-0.5-0.2-1.1-0.2-1.8
		c0-0.6,0.1-1.2,0.2-1.7c0.2-0.5,0.4-0.9,0.6-1.3c0.3-0.3,0.6-0.6,1-0.8c0.4-0.2,0.8-0.3,1.3-0.3s0.9,0.1,1.3,0.3
		c0.4,0.2,0.7,0.4,1,0.8c0.3,0.3,0.5,0.8,0.6,1.3c0.2,0.5,0.2,1.1,0.2,1.7c0,0.7-0.1,1.2-0.2,1.8c-0.2,0.5-0.4,0.9-0.6,1.3
		c-0.3,0.3-0.6,0.6-1,0.8S56.2,91.5,55.7,91.5z M55.7,90.3c0.5,0,0.9-0.2,1.2-0.8c0.3-0.5,0.4-1.2,0.4-2.1c0-0.9-0.1-1.6-0.4-2.1
		c-0.3-0.5-0.7-0.7-1.2-0.7s-0.9,0.2-1.2,0.7s-0.5,1.2-0.5,2.1c0,0.9,0.2,1.6,0.5,2.1S55.2,90.3,55.7,90.3z"/>
	<path d="M60.4,91.4v-7.8H63c0.4,0,0.8,0,1.2,0.1c0.4,0.1,0.7,0.2,0.9,0.4c0.3,0.2,0.5,0.4,0.6,0.8c0.2,0.3,0.2,0.7,0.2,1.1
		c0,0.4-0.1,0.8-0.2,1.1s-0.4,0.6-0.6,0.8s-0.6,0.4-0.9,0.5c-0.4,0.1-0.8,0.2-1.2,0.2h-1.2v2.9H60.4z M61.8,87.4h1.1
		c1.2,0,1.7-0.5,1.7-1.4c0-0.5-0.1-0.8-0.4-1c-0.3-0.2-0.7-0.3-1.3-0.3h-1.1V87.4z"/>
	<path d="M66.8,91.4l2.5-7.8H71l2.5,7.8H72l-0.6-2.1h-2.6l-0.6,2.1H66.8z M69.4,87.2l-0.3,1h2l-0.3-1c-0.1-0.4-0.2-0.8-0.3-1.3
		c-0.1-0.4-0.2-0.9-0.3-1.3h0c-0.1,0.4-0.2,0.9-0.3,1.3C69.6,86.4,69.5,86.8,69.4,87.2z"/>
</g>
</svg>
