<?xml version="1.0" encoding="utf-8"?>
<!-- Generator: Adobe Illustrator 24.3.0, SVG Export Plug-In . SVG Version: 6.00 Build 0)  -->
<svg version="1.1" id="Layer_1" xmlns="http://www.w3.org/2000/svg" xmlns:xlink="http://www.w3.org/1999/xlink" x="0px" y="0px"
	 viewBox="0 0 120 100" style="enable-background:new 0 0 120 100;" xml:space="preserve">
<style type="text/css">
	.st0{fill:#050505;}
	.st1{enable-background:new    ;}
</style>
<g>
	<g id="XMLID_1062_">
		<path id="XMLID_237_" class="st0" d="M51.9,73.5c-1.3,0-2.6-0.3-3.4-1.2c-0.1-0.1-0.1-0.2-0.1-0.3c0-0.1-0.1-5.6-0.2-7.3
			c-0.1-0.9-0.2-5.6-0.2-10.2c-0.1-4.2-0.2-8.1-0.2-9.3c-0.1-2.4-0.8-29-0.7-30.7c0-0.3,0.2-4.1,0.2-5s0.4-2.2,0.5-2.3
			C48,7.2,48.1,7,48.3,7c2.2,0.1,5.4,0.2,5.6,0.2c0.1,0,0.2,0,0.4,0c0.5-0.1,0.9-0.1,1.1-0.1s1.8,0.1,2.8,0.1h3.7c0.1,0,0.2,0,0.4,0
			C68.3,7,69.6,7.3,70,7.5c0.1,0.1,0.2,0.2,0.2,0.2c0,0.1,0.3,0.9,0.3,1.6c0.1,0.6,0.2,4.1,0.2,4.4v4.4c0,0.7-0.1,18.9-0.3,20.4
			c-0.1,1-0.2,4.3-0.2,6.7c0,1.7,0,2.6-0.1,2.7c0,0.2,0,0.9,0,1.8c0,2.3,0,5.7-0.2,7.2c-0.2,2.1-0.3,8.7-0.2,9.3
			c0.1,0.7-0.2,4.1-0.2,4.4v0.1l-0.3,1c0,0.1-0.1,0.2-0.1,0.2c-0.1,0.1-2.3,2.3-7.4,0.4c-0.2-0.1-0.2-0.2-0.2-0.3s-0.2-1.6-0.2-2.2
			c0.1-0.6,0-14.2-0.1-15.8s-0.7-17.2-0.8-18.5c0-1-0.4-4.1-0.5-5.9c-0.1-0.8-0.2-1.4-0.2-1.6c-0.1-0.5-0.4-2.4-0.5-3.1h-0.4
			c-0.2,1.3-0.8,5.4-0.9,7.9c-0.2,2.9-1,13.4-1,13.8s-0.2,12.8-0.2,13.8c0,1-0.2,7.7-0.3,8l0,0l-0.3,3.7c0,0.2-0.2,0.3-0.3,0.4
			C55.9,72.8,53.9,73.5,51.9,73.5z M49.2,71.9c1.4,1.3,4.8,0.7,6.4,0.2l0.3-3.5c0-0.3,0.2-7,0.2-8s0.2-13.7,0.2-13.8l0,0
			c0-0.1,0.8-11,1-13.8c0.2-3,1-8.3,1-8.4c0-0.2,0.2-0.4,0.4-0.4l1,0.1c0.2,0,0.4,0.1,0.4,0.3s0.5,2.8,0.6,3.6
			c0,0.2,0.1,0.8,0.2,1.6c0.2,2,0.5,5,0.5,6c0.1,1.2,0.7,16.7,0.8,18.5c0.1,1.7,0.2,15.4,0.1,15.9c0,0.3,0.1,1.1,0.2,1.7
			c4.1,1.5,5.9,0.1,6.3-0.2l0.3-0.8c0.1-1.1,0.2-3.8,0.2-4.3c-0.1-0.7,0-7.4,0.3-9.6c0.2-1.5,0.2-5,0.2-7.1c0-1.2,0-1.7,0-1.8
			c0-0.2,0-1.4,0.1-2.7c0-2.4,0.1-5.8,0.2-6.8C69.9,37,70,18.3,70,18.2v-4.4c0-0.2-0.2-3.8-0.2-4.3c0-0.4-0.2-0.9-0.2-1.2
			c-0.4-0.1-2-0.4-7.3-0.1c-0.2,0-0.4,0-0.4,0h-3.7c-0.3,0-2.5-0.1-2.9-0.1c-0.2,0-0.7,0-1,0.1c-0.2,0-0.4,0-0.4,0
			c-0.2,0-4.1-0.2-5.3-0.2c-0.2,0.4-0.4,1.3-0.4,1.8c-0.1,0.7-0.2,4.9-0.2,4.9l0,0c-0.2,1.5,0.6,27.9,0.7,30.6
			c0.1,1.2,0.2,5.1,0.2,9.3c0.1,4.6,0.2,9.3,0.2,10.2C49.1,66.2,49.2,71,49.2,71.9z"/>
	</g>
	<g id="XMLID_1064_">
		<path id="XMLID_236_" class="st0" d="M58.9,24.3c-0.2,0-0.2-0.1-0.3-0.2c0-0.1-0.4-3.9-0.3-6.7c0-0.8,0-1.6,0-2.3
			c0-2.3,0-3.1,0.2-3.4c0.1-0.2,0-0.7,0-1c0-0.1,0-0.1,0-0.1c0-0.1-0.2-0.7-0.4-1.3V9.2V8c0-0.2,0.2-0.3,0.3-0.3s0.3,0.2,0.3,0.3
			v1.1c0.4,1.2,0.4,1.3,0.4,1.3v0.1c0.1,0.5,0.2,1-0.1,1.3c-0.1,0.2-0.1,1.7-0.1,3.2c0,0.7,0,1.5,0,2.3c-0.1,2.7,0.3,6.7,0.3,6.7
			C59.1,24.2,59,24.3,58.9,24.3L58.9,24.3z"/>
	</g>
	<g id="XMLID_1063_">
		<path id="XMLID_235_" class="st0" d="M59.2,24.2c-0.1,0-0.2-0.1-0.2-0.1c0-0.3-0.2-2.6,0-3.1s0.9-1.3,1.3-1.8
			c0.4-0.5,0.8-2.7,0.8-4.5v-4.3c0-0.1,0.1-0.1,0.2-0.1s0.2,0.1,0.2,0.1v4.3c0,1.7-0.4,4.1-0.9,4.7c-0.4,0.4-1.1,1.3-1.3,1.7
			c-0.2,0.3-0.1,1.9,0,3C59.3,24.2,59.3,24.2,59.2,24.2C59.2,24.2,59.2,24.2,59.2,24.2z"/>
	</g>
	<g id="XMLID_1066_">
		<path id="XMLID_234_" class="st0" d="M58.9,20.6L58.9,20.6C58.9,20.6,58.9,20.6,58.9,20.6C58.9,20.5,58.9,20.5,58.9,20.6v-0.1
			C58.9,20.5,59,20.5,58.9,20.6L58.9,20.6L58.9,20.6L58.9,20.6z M59,20.4L59,20.4C58.9,20.4,58.9,20.3,59,20.4
			c-0.1-0.1,0-0.2,0.1-0.3c0,0,0.1-0.1,0.1,0c0,0,0.1,0.1,0,0.1C59.2,20.2,59.1,20.2,59,20.4L59,20.4z M59.3,19.9
			C59.2,19.9,59.2,19.9,59.3,19.9C59.2,19.9,59.2,19.9,59.3,19.9c0-0.1,0-0.2,0.1-0.3h0.1v0.1C59.5,19.7,59.4,19.8,59.3,19.9
			L59.3,19.9z M59.6,19.5L59.6,19.5c-0.1-0.1-0.1-0.1-0.1-0.1c0.1-0.1,0.2-0.1,0.2-0.2h0.1v0.1C59.8,19.4,59.8,19.4,59.6,19.5
			C59.7,19.5,59.6,19.5,59.6,19.5z M60,19.1L60,19.1c-0.1-0.1-0.1-0.1-0.1-0.1c0.1-0.1,0.1-0.1,0.2-0.2c0,0,0.1-0.1,0.1,0
			c0,0,0.1,0.1,0,0.1C60.2,19,60.1,19,60,19.1C60,19.1,60,19.1,60,19.1z M60.3,18.7L60.3,18.7C60.2,18.7,60.2,18.6,60.3,18.7
			c-0.1-0.1,0-0.2,0-0.3l0.1-0.1l0.1,0.1C60.4,18.5,60.3,18.6,60.3,18.7C60.3,18.7,60.3,18.7,60.3,18.7z M60.4,18.2L60.4,18.2
			C60.3,18.2,60.3,18.1,60.4,18.2c-0.1-0.1,0-0.2,0-0.3l0.1-0.1l0.1,0.1C60.6,17.9,60.6,18.1,60.4,18.2
			C60.5,18.2,60.5,18.2,60.4,18.2z M60.6,17.6L60.6,17.6C60.5,17.6,60.5,17.6,60.6,17.6c-0.1-0.1-0.1-0.2,0-0.4l0.1-0.1l0.1,0.1
			C60.6,17.4,60.6,17.5,60.6,17.6C60.6,17.6,60.6,17.6,60.6,17.6z M60.6,17.1L60.6,17.1C60.6,17.1,60.6,17.1,60.6,17.1
			c-0.1-0.1-0.1-0.2,0-0.4l0.1-0.1l0.1,0.1C60.8,16.9,60.7,17,60.6,17.1C60.7,17.1,60.7,17.1,60.6,17.1z M60.7,16.6L60.7,16.6
			C60.6,16.6,60.6,16.5,60.7,16.6c-0.1-0.1-0.1-0.2-0.1-0.4l0.1-0.1l0.1,0.1C60.9,16.4,60.8,16.5,60.7,16.6
			C60.8,16.6,60.8,16.6,60.7,16.6z M60.8,16.1L60.8,16.1C60.8,16.1,60.7,16,60.8,16.1c-0.1-0.1-0.1-0.1-0.1-0.1c0-0.1,0-0.1,0-0.1
			c0,0,0-0.1,0.1-0.1c0,0,0.1,0,0.1,0.1s0,0.1,0,0.1S60.9,16,60.8,16.1C60.9,16.1,60.9,16.1,60.8,16.1z M60.9,15.6L60.9,15.6
			C60.8,15.6,60.8,15.5,60.9,15.6c-0.1-0.1-0.1-0.2-0.1-0.4c0,0,0-0.1,0.1-0.1c0,0,0.1,0,0.1,0.1C60.9,15.4,60.9,15.4,60.9,15.6
			C60.9,15.5,60.9,15.6,60.9,15.6z M60.9,15.1L60.9,15.1C60.8,15.1,60.8,15,60.9,15.1l-0.1-0.4c0,0,0-0.1,0.1-0.1l0,0
			c0,0,0.1,0,0.1,0.1L60.9,15.1C60.9,15,60.9,15.1,60.9,15.1z M60.9,14.5L60.9,14.5C60.8,14.5,60.8,14.5,60.9,14.5l-0.1-0.4
			c0,0,0-0.1,0.1-0.1l0,0c0,0,0.1,0,0.1,0.1L60.9,14.5C60.9,14.5,60.9,14.5,60.9,14.5z M60.9,13.9C60.8,13.9,60.8,13.9,60.9,13.9
			l-0.1-0.3c0,0,0-0.1,0.1-0.1l0,0c0,0,0.1,0,0.1,0.1L60.9,13.9C60.9,13.9,60.9,13.9,60.9,13.9L60.9,13.9z M60.9,13.4
			C60.8,13.4,60.8,13.4,60.9,13.4l-0.1-0.4c0,0,0-0.1,0.1-0.1l0,0c0,0,0.1,0,0.1,0.1L60.9,13.4C60.9,13.4,60.9,13.4,60.9,13.4
			L60.9,13.4z M60.9,12.9C60.8,12.9,60.8,12.8,60.9,12.9l-0.1-0.4c0,0,0-0.1,0.1-0.1l0,0c0,0,0.1,0,0.1,0.1L60.9,12.9
			C60.9,12.8,60.9,12.9,60.9,12.9L60.9,12.9z M60.9,12.3C60.8,12.3,60.8,12.3,60.9,12.3l-0.1-0.4c0,0,0-0.1,0.1-0.1l0,0
			c0,0,0.1,0,0.1,0.1L60.9,12.3C60.9,12.3,60.9,12.3,60.9,12.3L60.9,12.3z M60.9,11.8C60.8,11.8,60.8,11.8,60.9,11.8l-0.1-0.3
			c0,0,0-0.1,0.1-0.1c0,0,0.1,0,0.1,0.1L60.9,11.8L60.9,11.8L60.9,11.8z M60.8,11.3L60.8,11.3L60.7,11c0,0,0-0.1,0.1-0.1l0,0
			c0,0,0.1,0,0.1,0.1L60.8,11.3C60.9,11.3,60.9,11.3,60.8,11.3L60.8,11.3z M60.8,10.8C60.8,10.8,60.7,10.7,60.8,10.8l-0.1-0.4
			c0,0,0-0.1,0.1-0.1l0,0c0,0,0.1,0,0.1,0.1L60.8,10.8C60.9,10.7,60.9,10.8,60.8,10.8L60.8,10.8z"/>
	</g>
	<g id="XMLID_1067_">
		<path id="XMLID_233_" class="st0" d="M48.2,15.1L48.2,15.1c-0.2,0-0.3,0-0.3,0s-0.1,0-0.1-0.1c0,0,0-0.1,0.1-0.1c0,0,0.1,0,0.2,0
			l0,0C48.2,15,48.3,15,48.2,15.1C48.3,15.1,48.2,15.1,48.2,15.1z M48.4,15.1C48.4,15.1,48.3,15.1,48.4,15.1c-0.1-0.1-0.1-0.1,0-0.1
			s0.2,0,0.3,0c0.1,0,0.1,0,0.1,0.1c0,0,0,0.1-0.1,0.1C48.6,15.1,48.5,15.1,48.4,15.1L48.4,15.1z M48.9,15.1L48.9,15.1
			c-0.1-0.1-0.1-0.1,0-0.1s0.2,0,0.3-0.1c0,0,0.1,0,0.1,0.1c0,0,0,0.1-0.1,0.1C49.2,15.1,49.1,15.1,48.9,15.1
			C49,15.1,49,15.1,48.9,15.1z M49.5,15C49.5,15,49.5,15,49.5,15c-0.1-0.1-0.1-0.1,0-0.1s0.2-0.1,0.2-0.1c0,0,0.1,0,0.1,0.1
			c0,0,0,0.1-0.1,0.1C49.7,14.9,49.6,15,49.5,15L49.5,15z M50,14.8C50,14.8,50,14.8,50,14.8c-0.1-0.1-0.1-0.1,0-0.1s0.2-0.1,0.2-0.1
			c0,0,0.1,0,0.1,0.1c0,0,0,0.1-0.1,0.1C50.2,14.8,50.1,14.8,50,14.8L50,14.8z M50.5,14.6L50.5,14.6c-0.1-0.1-0.1-0.1,0-0.1
			s0.2-0.1,0.2-0.1h0.1v0.1C50.7,14.5,50.6,14.6,50.5,14.6C50.6,14.6,50.5,14.6,50.5,14.6z M51,14.4C50.9,14.4,50.9,14.4,51,14.4
			c-0.1-0.1-0.1-0.1,0-0.1c0.1-0.1,0.2-0.1,0.2-0.1h0.1v0.1C51.2,14.3,51.1,14.3,51,14.4L51,14.4z M51.5,14.1
			C51.4,14.1,51.4,14.1,51.5,14.1c-0.1-0.1-0.1-0.1-0.1-0.1c0.1-0.1,0.2-0.1,0.2-0.1h0.1v0.1C51.6,13.9,51.5,14,51.5,14.1L51.5,14.1
			z M51.8,13.7C51.8,13.7,51.8,13.7,51.8,13.7c-0.1-0.1-0.1-0.1-0.1-0.1c0.1-0.1,0.2-0.1,0.2-0.2H52v0.1
			C52,13.6,51.9,13.6,51.8,13.7L51.8,13.7z M52.2,13.4C52.1,13.4,52.1,13.4,52.2,13.4C52.1,13.4,52.1,13.3,52.2,13.4
			c0-0.1,0-0.2,0.1-0.3c0,0,0.1-0.1,0.1,0c0,0,0.1,0.1,0,0.1C52.3,13.1,52.3,13.2,52.2,13.4C52.2,13.3,52.2,13.4,52.2,13.4z
			 M52.4,12.9C52.4,12.9,52.4,12.8,52.4,12.9C52.3,12.9,52.3,12.8,52.4,12.9c0-0.1,0-0.2,0.1-0.3c0,0,0.1-0.1,0.1,0
			c0,0,0.1,0.1,0,0.1C52.6,12.7,52.6,12.8,52.4,12.9C52.5,12.8,52.5,12.9,52.4,12.9z M52.7,12.4C52.6,12.4,52.6,12.4,52.7,12.4
			C52.6,12.4,52.6,12.3,52.7,12.4c-0.1-0.1,0-0.2,0-0.3l0.1-0.1l0.1,0.1C52.8,12.2,52.8,12.2,52.7,12.4L52.7,12.4z M52.9,11.9
			L52.9,11.9C52.8,11.9,52.8,11.8,52.9,11.9c-0.1-0.1,0-0.2,0-0.3l0.1-0.1l0.1,0.1C52.9,11.6,52.9,11.7,52.9,11.9
			C52.9,11.9,52.9,11.9,52.9,11.9z M53,11.4L53,11.4C52.9,11.4,52.9,11.3,53,11.4c-0.1-0.1-0.1-0.2,0-0.4l0.1-0.1l0.1,0.1
			C53.1,11.1,53.1,11.2,53,11.4L53,11.4z M53.1,10.8L53.1,10.8C53,10.8,53,10.8,53.1,10.8C53,10.7,53,10.6,53,10.5
			c0,0,0-0.1,0.1-0.1c0,0,0.1,0,0.1,0.1C53.2,10.6,53.2,10.7,53.1,10.8C53.2,10.8,53.1,10.8,53.1,10.8z"/>
	</g>
	<g id="XMLID_1068_">
		<path id="XMLID_232_" class="st0" d="M69.9,15.3h-0.2c0,0-0.1,0-0.1-0.1c0,0,0-0.1,0.1-0.1h0.2C70,15.1,70,15.2,69.9,15.3
			C70,15.3,70,15.3,69.9,15.3z M69.4,15.3h-0.3c0,0-0.1,0-0.1-0.1c0,0,0-0.1,0.1-0.1h0.3C69.5,15.1,69.5,15.2,69.4,15.3
			C69.5,15.3,69.5,15.3,69.4,15.3z M68.9,15.3h-0.3c0,0-0.1,0-0.1-0.1c0,0,0-0.1,0.1-0.1h0.3C68.9,15.1,68.9,15.2,68.9,15.3
			C68.9,15.3,68.9,15.3,68.9,15.3z M68.3,15.3H68c0,0-0.1,0-0.1-0.1c0,0,0-0.1,0.1-0.1h0.3C68.4,15.1,68.4,15.2,68.3,15.3
			C68.4,15.3,68.4,15.3,68.3,15.3z M67.8,15.3L67.8,15.3c-0.1,0-0.2-0.1-0.3-0.1l-0.1-0.1l0.1-0.1c0.1,0,0.2,0.1,0.2,0.1
			S67.9,15.2,67.8,15.3C67.9,15.2,67.8,15.3,67.8,15.3z M67.3,15.1L67.3,15.1c-0.1,0-0.2-0.1-0.3-0.1L66.9,15l0.1-0.1
			c0.1,0,0.2,0.1,0.2,0.1C67.4,15,67.4,15.1,67.3,15.1C67.4,15.1,67.3,15.1,67.3,15.1z M66.8,15L66.8,15c-0.1,0-0.2-0.1-0.3-0.1
			c0,0-0.1-0.1,0-0.1c0,0,0.1-0.1,0.1,0C66.6,14.8,66.7,14.9,66.8,15C66.9,14.8,66.9,14.8,66.8,15C66.9,14.9,66.8,15,66.8,15z
			 M66.3,14.8L66.3,14.8c-0.1-0.1-0.2-0.1-0.3-0.1c0,0-0.1-0.1,0-0.1c0,0,0.1-0.1,0.1,0C66.1,14.6,66.2,14.6,66.3,14.8
			C66.3,14.6,66.3,14.7,66.3,14.8C66.3,14.8,66.3,14.8,66.3,14.8z M65.8,14.5L65.8,14.5c-0.2-0.1-0.2-0.1-0.3-0.1c0,0-0.1-0.1,0-0.1
			c0,0,0.1-0.1,0.1,0C65.7,14.4,65.7,14.4,65.8,14.5C65.9,14.4,65.9,14.5,65.8,14.5C65.8,14.5,65.8,14.5,65.8,14.5z M65.4,14.2
			C65.4,14.2,65.3,14.2,65.4,14.2c-0.2-0.1-0.2-0.1-0.2-0.1V14h0.1C65.3,14.1,65.4,14.1,65.4,14.2C65.5,14.2,65.5,14.2,65.4,14.2
			L65.4,14.2z M64.9,13.9L64.9,13.9c-0.1-0.1-0.2-0.1-0.2-0.2v-0.1h0.1C64.9,13.6,64.9,13.7,64.9,13.9C65,13.8,65,13.9,64.9,13.9
			C65,13.9,64.9,13.9,64.9,13.9z M64.6,13.5C64.6,13.5,64.6,13.4,64.6,13.5c-0.1-0.1-0.2-0.2-0.2-0.3v-0.1h0.1
			c0.1,0.1,0.1,0.1,0.2,0.2C64.7,13.4,64.7,13.4,64.6,13.5C64.6,13.4,64.6,13.5,64.6,13.5z M64.4,13C64.3,13,64.3,13,64.4,13
			c-0.1-0.1-0.2-0.2-0.2-0.3v-0.1h0.1c0,0.1,0.1,0.1,0.1,0.2C64.5,12.9,64.4,13,64.4,13L64.4,13z M64.2,12.5
			C64.1,12.5,64.1,12.5,64.2,12.5C64,12.4,64,12.3,64,12.2c0,0,0-0.1,0.1-0.1c0,0,0.1,0,0.1,0.1S64.3,12.3,64.2,12.5
			C64.3,12.5,64.3,12.5,64.2,12.5L64.2,12.5z M64,12C64,12,64,11.9,64,12c-0.1-0.1-0.2-0.2-0.2-0.3c0,0,0-0.1,0.1-0.1
			c0,0,0.1,0,0.1,0.1S64,11.9,64,12C64,11.9,64,11.9,64,12C64,12,64,12,64,12z M63.8,11.5C63.8,11.5,63.8,11.4,63.8,11.5
			c-0.1-0.1-0.2-0.2-0.2-0.3c0,0,0-0.1,0.1-0.1c0,0,0.1,0,0.1,0.1S63.9,11.3,63.8,11.5C63.9,11.4,63.9,11.5,63.8,11.5
			C63.9,11.5,63.8,11.5,63.8,11.5z M63.8,11C63.7,11,63.7,10.9,63.8,11c-0.1-0.2-0.2-0.3-0.2-0.3s0-0.1,0.1-0.1c0,0,0.1,0,0.1,0.1
			C63.7,10.7,63.7,10.7,63.8,11C63.8,10.9,63.8,11,63.8,11L63.8,11z"/>
	</g>
	<g id="XMLID_1069_">
		<path id="XMLID_231_" class="st0" d="M48,14.6c-0.1,0-0.2,0-0.2,0c-0.1,0-0.2-0.1-0.2-0.1s0.1-0.1,0.2-0.1c0.2,0,3.8,0.3,4.5-4.2
			c0-0.1,0.1-0.1,0.2-0.1c0.1,0,0.2,0.1,0.1,0.1C52,14.3,48.8,14.6,48,14.6z"/>
	</g>
	<g id="XMLID_1065_">
		<path id="XMLID_230_" class="st0" d="M69.2,14.6c-0.7,0-1.8-0.1-3-0.5c-0.8-0.3-1.4-1-1.8-2.1c-0.3-0.8-0.3-1.6-0.3-1.6
			c0-0.1,0.1-0.1,0.2-0.1c0.1,0,0.2,0.1,0.2,0.1c0,0,0.2,2.9,1.9,3.5c1.8,0.6,3.6,0.4,3.6,0.4s0.2,0.1,0.2,0.1s-0.1,0.1-0.2,0.1
			C69.9,14.6,69.7,14.6,69.2,14.6z"/>
	</g>
	<g id="XMLID_1077_">
		<path id="XMLID_229_" class="st0" d="M53.4,10.3L53.4,10.3c-0.9-0.1-5.3-0.2-5.3-0.2s-0.2-0.1-0.2-0.1c0-0.1,0.1-0.1,0.2-0.1
			c0.2,0,4.5,0.1,5.3,0.2c0.1,0,0.2,0.1,0.2,0.1C53.5,10.3,53.5,10.3,53.4,10.3z"/>
	</g>
	<g id="XMLID_1078_">
		<path id="XMLID_228_" class="st0" d="M58.6,10.8L58.6,10.8l-4.2-0.1c-0.2,0-0.3-0.1-0.3-0.3c0-0.1,0.2-0.3,0.3-0.3l4.2,0.1
			c0.2,0,0.3,0.1,0.3,0.3C58.9,10.7,58.8,10.8,58.6,10.8z"/>
	</g>
	<g id="XMLID_1079_">
		<path id="XMLID_227_" class="st0" d="M58.9,10.7c-0.1,0-0.2-0.1-0.2-0.1c0-0.1,0.1-0.1,0.2-0.1c0.5-0.1,3.3-0.4,3.6-0.3
			c0.1,0,0.2,0.1,0.1,0.1c0,0.1-0.1,0.1-0.2,0.1C62.2,10.3,60.1,10.5,58.9,10.7L58.9,10.7z"/>
	</g>
	<g id="XMLID_1080_">
		<path id="XMLID_226_" class="st0" d="M69.8,10.3L69.8,10.3c-0.4,0-6.2,0-6.3,0l0,0c-0.1,0-0.2-0.1-0.2-0.1s0.1-0.1,0.2-0.1
			c0.2,0,5.8,0,6.3,0c0.1,0,0.2,0.1,0.2,0.1C69.8,10.3,69.8,10.3,69.8,10.3z"/>
	</g>
	<g id="XMLID_1076_">
		<path id="XMLID_225_" class="st0" d="M54.3,11.7h-0.8c-0.1,0-0.1,0-0.1-0.1c0,0-0.1-0.1,0-0.1l0.2-1.6l0.3-2.2
			c0-0.1,0.1-0.2,0.2-0.2c0.1,0,0.2,0.1,0.2,0.2L53.7,10l-0.2,1.5h0.6c0-0.7,0.2-3.2,0.7-3.8c0.1-0.1,0.2-0.1,0.2,0s0.1,0.2,0,0.2
			c-0.4,0.5-0.6,2.9-0.7,3.7C54.3,11.6,54.3,11.7,54.3,11.7z"/>
	</g>
	<g id="XMLID_1081_">
		<path id="XMLID_224_" class="st0" d="M63.5,11.9h-0.7c0,0-0.1,0-0.1-0.1l-0.2-0.1l-0.1-0.1v-1c0-0.4-0.4-2.1-0.6-2.8
			c0-0.1,0-0.2,0.1-0.2s0.2,0,0.2,0.1s0.6,2.4,0.6,2.9v0.9l0.1,0.1h0.5c0-0.4,0-1.8-0.2-2.2c-0.2-0.6-0.4-1.6-0.4-1.6s0-0.2,0.1-0.2
			s0.2,0,0.2,0.1c0,0,0.3,1,0.4,1.6c0.2,0.6,0.2,2.4,0.2,2.4C63.6,11.9,63.5,11.9,63.5,11.9z"/>
	</g>
	<g id="XMLID_1083_">
		<path id="XMLID_223_" class="st0" d="M60.2,9.3C60.2,9.3,60.1,9.3,60.2,9.3c-0.1-0.1-0.1-0.1,0-0.1L60.9,9l-0.7-0.1
			c0,0-0.1,0-0.1-0.1c0,0,0-0.1,0.1-0.1l1.3,0.1c0,0,0.1,0,0.1,0.1c0,0,0,0.1-0.1,0.1L60.2,9.3L60.2,9.3z"/>
	</g>
	<g id="XMLID_1082_">
		<ellipse id="XMLID_222_" cx="59.5" cy="9.1" rx="0.6" ry="0.7"/>
	</g>
</g>
<g class="st1">
	<path d="M16.8,91.4v-7.8h2.6c0.4,0,0.8,0,1.2,0.1c0.4,0.1,0.7,0.2,0.9,0.4c0.3,0.2,0.5,0.4,0.6,0.8c0.2,0.3,0.2,0.7,0.2,1.1
		c0,0.4-0.1,0.8-0.2,1.1s-0.4,0.6-0.6,0.8s-0.6,0.4-0.9,0.5c-0.4,0.1-0.8,0.2-1.2,0.2h-1.2v2.9H16.8z M18.2,87.4h1.1
		c1.2,0,1.7-0.5,1.7-1.4c0-0.5-0.1-0.8-0.4-1c-0.3-0.2-0.7-0.3-1.3-0.3h-1.1V87.4z"/>
	<path d="M23.2,91.4l2.5-7.8h1.6l2.5,7.8h-1.5l-0.6-2.1h-2.6l-0.6,2.1H23.2z M25.8,87.2l-0.3,1h2l-0.3-1c-0.1-0.4-0.2-0.8-0.3-1.3
		c-0.1-0.4-0.2-0.9-0.3-1.3h0c-0.1,0.4-0.2,0.9-0.3,1.3C26.1,86.4,25.9,86.8,25.8,87.2z"/>
	<path d="M31.2,91.4v-7.8h2.6c0.4,0,0.8,0,1.1,0.1c0.4,0.1,0.7,0.2,0.9,0.4c0.3,0.2,0.5,0.4,0.6,0.7s0.2,0.7,0.2,1.1
		c0,0.6-0.1,1.1-0.4,1.5c-0.3,0.4-0.7,0.6-1.1,0.8l1.9,3.3h-1.6l-1.7-3.1h-1.2v3.1H31.2z M32.6,87.2h1.1c0.5,0,1-0.1,1.2-0.3
		c0.3-0.2,0.4-0.6,0.4-1c0-0.5-0.1-0.8-0.4-0.9c-0.3-0.2-0.7-0.3-1.2-0.3h-1.1V87.2z"/>
	<path d="M40.3,91.4v-6.7h-2.5v-1.2h6.3v1.2h-2.5v6.7H40.3z"/>
	<path d="M45.8,91.4v-7.8h5v1.2h-3.6v2h3.1v1.2h-3.1v2.3h3.8v1.2H45.8z"/>
	<path d="M55.4,91.5c-0.6,0-1.1-0.1-1.6-0.3c-0.5-0.2-1-0.5-1.3-0.9l0.8-0.9c0.3,0.3,0.6,0.5,1,0.6c0.4,0.2,0.8,0.2,1.2,0.2
		c0.5,0,0.8-0.1,1-0.3c0.2-0.2,0.4-0.4,0.4-0.7c0-0.2,0-0.3-0.1-0.4c-0.1-0.1-0.2-0.2-0.3-0.3c-0.1-0.1-0.3-0.2-0.4-0.2
		c-0.2-0.1-0.3-0.1-0.5-0.2l-1.1-0.5c-0.2-0.1-0.4-0.2-0.6-0.3c-0.2-0.1-0.4-0.3-0.5-0.4c-0.2-0.2-0.3-0.4-0.4-0.6
		c-0.1-0.2-0.1-0.5-0.1-0.8c0-0.3,0.1-0.6,0.2-0.9c0.1-0.3,0.3-0.5,0.6-0.7c0.2-0.2,0.5-0.4,0.9-0.5c0.3-0.1,0.7-0.2,1.1-0.2
		c0.5,0,0.9,0.1,1.4,0.3c0.4,0.2,0.8,0.4,1.1,0.7l-0.7,0.9c-0.3-0.2-0.5-0.4-0.8-0.5c-0.3-0.1-0.6-0.2-1-0.2c-0.4,0-0.7,0.1-0.9,0.2
		s-0.3,0.4-0.3,0.7c0,0.2,0,0.3,0.1,0.4c0.1,0.1,0.2,0.2,0.3,0.3s0.3,0.2,0.4,0.2c0.2,0.1,0.3,0.1,0.5,0.2l1,0.4
		c0.2,0.1,0.5,0.2,0.7,0.3s0.4,0.3,0.5,0.4s0.3,0.4,0.4,0.6c0.1,0.2,0.1,0.5,0.1,0.8c0,0.3-0.1,0.6-0.2,0.9
		c-0.1,0.3-0.3,0.5-0.6,0.7s-0.6,0.4-0.9,0.5C56.3,91.5,55.8,91.5,55.4,91.5z"/>
	<path d="M67.2,91.4v-7.8h2.4c0.4,0,0.8,0,1.1,0.1c0.3,0.1,0.6,0.2,0.9,0.3s0.4,0.3,0.6,0.6c0.1,0.2,0.2,0.6,0.2,0.9
		c0,0.4-0.1,0.7-0.3,1c-0.2,0.3-0.6,0.5-1,0.7v0c0.6,0.1,1,0.3,1.3,0.6c0.3,0.3,0.5,0.7,0.5,1.3c0,0.4-0.1,0.7-0.2,1
		c-0.1,0.3-0.4,0.5-0.6,0.7c-0.3,0.2-0.6,0.3-0.9,0.4c-0.4,0.1-0.8,0.1-1.2,0.1H67.2z M68.6,86.7h0.9c0.6,0,0.9-0.1,1.2-0.3
		c0.2-0.2,0.4-0.5,0.4-0.8c0-0.4-0.1-0.6-0.4-0.8c-0.2-0.1-0.6-0.2-1.1-0.2h-0.9V86.7z M68.6,90.3h1.1c0.6,0,1-0.1,1.3-0.3
		s0.5-0.5,0.5-1c0-0.4-0.1-0.7-0.4-0.9s-0.7-0.3-1.3-0.3h-1.1V90.3z"/>
	<path d="M73.6,91.4l2.5-7.8h1.6l2.5,7.8h-1.5l-0.6-2.1h-2.6L75,91.4H73.6z M76.2,87.2l-0.3,1h2l-0.3-1c-0.1-0.4-0.2-0.8-0.3-1.3
		c-0.1-0.4-0.2-0.9-0.3-1.3h0c-0.1,0.4-0.2,0.9-0.3,1.3C76.5,86.4,76.3,86.8,76.2,87.2z"/>
	<path d="M83.9,91.5c-0.2,0-0.4,0-0.7-0.1c-0.2,0-0.4-0.1-0.7-0.2c-0.2-0.1-0.4-0.2-0.6-0.4c-0.2-0.2-0.4-0.4-0.5-0.6l0.8-0.9
		c0.2,0.3,0.5,0.6,0.8,0.7c0.3,0.2,0.6,0.2,0.8,0.2c0.5,0,0.8-0.1,1.1-0.4c0.2-0.2,0.3-0.7,0.3-1.3v-4h-3.2v-1.2h4.6v5.3
		c0,0.4,0,0.7-0.1,1.1c-0.1,0.3-0.3,0.6-0.5,0.9c-0.2,0.2-0.5,0.4-0.9,0.6C84.8,91.4,84.4,91.5,83.9,91.5z"/>
	<path d="M88,91.4l2.5-7.8h1.6l2.5,7.8h-1.5l-0.6-2.1H90l-0.6,2.1H88z M90.6,87.2l-0.3,1h2l-0.3-1c-0.1-0.4-0.2-0.8-0.3-1.3
		c-0.1-0.4-0.2-0.9-0.3-1.3h0c-0.1,0.4-0.2,0.9-0.3,1.3C90.9,86.4,90.7,86.8,90.6,87.2z"/>
	<path d="M98.6,91.5c-0.6,0-1.1-0.1-1.6-0.3c-0.5-0.2-1-0.5-1.3-0.9l0.8-0.9c0.3,0.3,0.6,0.5,1,0.6c0.4,0.2,0.8,0.2,1.2,0.2
		c0.5,0,0.8-0.1,1-0.3c0.2-0.2,0.4-0.4,0.4-0.7c0-0.2,0-0.3-0.1-0.4c-0.1-0.1-0.2-0.2-0.3-0.3s-0.3-0.2-0.4-0.2s-0.3-0.1-0.5-0.2
		l-1.1-0.5c-0.2-0.1-0.4-0.2-0.6-0.3s-0.4-0.3-0.5-0.4s-0.3-0.4-0.4-0.6c-0.1-0.2-0.1-0.5-0.1-0.8c0-0.3,0.1-0.6,0.2-0.9
		c0.1-0.3,0.3-0.5,0.6-0.7c0.2-0.2,0.5-0.4,0.9-0.5c0.3-0.1,0.7-0.2,1.1-0.2c0.5,0,0.9,0.1,1.4,0.3c0.4,0.2,0.8,0.4,1.1,0.7
		l-0.7,0.9c-0.3-0.2-0.5-0.4-0.8-0.5c-0.3-0.1-0.6-0.2-1-0.2c-0.4,0-0.7,0.1-0.9,0.2c-0.2,0.2-0.3,0.4-0.3,0.7c0,0.2,0,0.3,0.1,0.4
		c0.1,0.1,0.2,0.2,0.3,0.3s0.3,0.2,0.4,0.2c0.2,0.1,0.3,0.1,0.5,0.2l1,0.4c0.2,0.1,0.5,0.2,0.7,0.3s0.4,0.3,0.5,0.4
		c0.2,0.2,0.3,0.4,0.4,0.6c0.1,0.2,0.1,0.5,0.1,0.8c0,0.3-0.1,0.6-0.2,0.9c-0.1,0.3-0.3,0.5-0.6,0.7s-0.6,0.4-0.9,0.5
		C99.5,91.5,99,91.5,98.6,91.5z"/>
</g>
</svg>
