<?xml version="1.0" encoding="utf-8"?>
<!-- Generator: Adobe Illustrator 24.3.0, SVG Export Plug-In . SVG Version: 6.00 Build 0)  -->
<svg version="1.1" id="Layer_1" xmlns="http://www.w3.org/2000/svg" xmlns:xlink="http://www.w3.org/1999/xlink" x="0px" y="0px"
	 viewBox="0 0 120 126" style="enable-background:new 0 0 120 126;" xml:space="preserve">
<style type="text/css">
	.st0{fill:#050505;}
	.st1{enable-background:new    ;}
</style>
<g id="XMLID_444_">
	<g id="XMLID_501_">
		<path id="XMLID_502_" class="st0" d="M41.7,75.8l-5.5-0.6l-0.1-0.1c0-0.1-1.2-1.4-2.9-1c-0.3,0.2-1.8,0.9-3.6,0.7
			c-1.8-0.2-4.7-0.7-4.7-0.7h-0.2l-0.1-0.2c0,0-0.4-0.5-1.2-1h-0.1l0,0c0,0-0.6-0.5-1.3-0.5c-0.6,0-1.2-0.2-1.9-0.4
			c-0.4-0.1-0.8-0.3-1.3-0.3c-1.4-0.2-3.2-1.9-3.7-3.8c0-0.1-0.7-2.8,0-4.9c0.8-2.2,2.6-3.7,3.8-3.8c0.1-1,0.4-3.5,1-6
			c0.6-2.2,0.5-2.9,0.4-3l-0.1-0.1v-0.3c0-0.3,1-6.6,1.1-7.5c0-0.1-0.2-0.4-0.3-0.7c-0.8-1.7-2.4-5.3-1.3-9.4l0,0l0,0
			c0.1-0.2,1.1-2,2.3-2l0,0c0.7,0,1.3,0.6,1.8,1.6l0.1,0.1l0.8-0.5l0.2,0.1c0.1,0,6.6,2.4,8.9,2.4h0.3l0.1,0.1c0,0,0.2,0.2,0.6,0.1
			c0.6-0.1,1.7-0.8,3.3-4.3c0.1-0.3,2.9-5.8,11.4-5.7c0.2-0.2,0.5-0.4,0.9-0.5c0.5,0,0.9,0.2,1.4,0.6v0.1l1.3,1.4
			c0.5,0.3,1.8,1.1,1.9,2.1c0,0.2,0,0.6-0.3,0.9c0.8,1.2,2.6,4.2,1.9,5.8c0.5,0.4,1.5,1.3,1.8,2.3l0.9,0.7c0.5,0.1,1.9,0.3,2.8,1.3
			c0.5,0.6,0.7,1.3,0.7,2.1l1.6,1.7c0.6-0.1,1.8-0.1,2.6,0.6c0.5,0.5,0.6,1.1,0.5,1.9l1.2,0.7c1.5,0,4.1,0.7,4.7,3.2l0.9,0.7
			c0.5-0.2,1.4-0.5,2.1-0.1c0.4,0.2,0.8,0.6,1,1.5c0.1,0.1,0.4,0.4,0.8,0.4c0.9,0,2.8,0.3,4.3,1.2c0,0,1.8,1,4.5,1.3
			c0.1,0,12.5,1.4,14.3,3c0.4,0.2,1.6,0.7,2.2,1.9c0.3,0.6,0.3,1.3,0.1,1.9c-0.1,0.4-0.4,2.7-2.3,4.6c-0.2,0.4-1.5,2.1-4.5,2
			c-0.5,0.2-1.6,0.6-2.1,0.9c-0.1,0.1-0.1,0.1-0.1,0.1v0.1l0.5,0.5l-0.7,0.2l-3.7,1.5h-0.2c0,0-1.7-0.5-2.6-0.5s-1.7,0.5-1.8,0.7
			c-0.1,0.1-0.2,0.6-0.2,0.9V72L85,72.9l-4,0.7l-1.6-0.8c-1.1,0-2.8,0.2-3.3,0.4c-0.5,0.2-1,1-1.2,1.3l-0.1,0.2l-4.5,0.5l-0.1-0.4
			c0-0.1-0.6-1.5-3-1.4c-1.2,0.3-2.5,0.9-2.7,1.4l-0.1,0.3l-17.1,0.6v-0.5c0,0,0-0.3-0.3-0.5c-0.2-0.2-0.6-0.2-1-0.2h-0.1l-0.1-0.1
			c-0.1,0-2.1-0.9-3.8,1L41.7,75.8z M46.2,73.7c0.5,0,1,0.1,1.4,0.4c0.3,0.2,0.4,0.5,0.5,0.7l15.6-0.6c0.7-1,2.8-1.6,3.2-1.7H67h0.1
			c2.5-0.1,3.5,1.1,3.9,1.7l3.3-0.3c0.2-0.4,0.8-1.2,1.6-1.5c0.9-0.3,3.4-0.4,3.7-0.4h0.1l1.4,0.7l3.4-0.6l0.5-0.5
			c0-0.3,0.2-0.9,0.4-1.2c0.3-0.5,1.5-1.1,2.7-1.1c0.9,0,2.3,0.4,2.7,0.5l3-1.2c0-0.1,0-0.2,0-0.3c0-0.2,0.2-0.5,0.5-0.8
			c0.7-0.4,2.3-1,2.3-1.1h0.1h0.1c2.7,0.1,3.7-1.5,3.7-1.6v-0.1h0.1c1.9-1.8,2.1-4,2.1-4.1v-0.1v-0.1c0.2-0.5,0.2-0.9,0-1.2
			c-0.4-0.9-1.7-1.4-1.7-1.4h-0.1l-0.1-0.1c-0.8-0.9-8.5-2.2-13.8-2.8c-2.9-0.2-4.8-1.3-4.9-1.3c-1.3-0.7-3-1.1-3.8-1.1
			c-1.1,0-1.6-0.9-1.7-1v-0.1v-0.1c-0.1-0.4-0.2-0.7-0.4-0.8c-0.5-0.2-1.3,0.1-1.5,0.2l-0.3,0.1l-1.8-1.1v-0.2
			c-0.5-2.6-3.8-2.6-3.9-2.6h-0.1l-2.1-1.2l0.1-0.4c0.1-0.6,0.1-1.1-0.2-1.4c-0.5-0.5-1.6-0.4-2-0.3l-0.3,0.2l-2.3-2.4v-0.2
			c0.1-0.7-0.1-1.2-0.4-1.6c-0.8-0.9-2.3-1-2.3-1h-0.2l-1.4-1.1v-0.1c-0.4-1.1-1.8-2.2-1.9-2.2l-0.4-0.3l0.4-0.4
			c0.7-0.8-0.8-3.7-2-5.4l-0.3-0.4l0.4-0.3c0.2-0.2,0.2-0.3,0.2-0.4c0-0.4-0.9-1.1-1.5-1.4l-0.1-0.1l-1.2-1.7
			c-0.1-0.1-0.4-0.3-0.6-0.3c-0.2,0-0.4,0.3-0.4,0.3L49.9,25h-0.3c-8-0.2-10.7,5.1-10.7,5.1c-1.4,3-2.8,4.7-4.1,4.9
			c-0.6,0.1-1-0.1-1.2-0.2c-2.4-0.1-7.7-2-8.9-2.4l-1.1,0.7l-0.5-0.9v-0.1c-0.3-0.7-0.6-1.1-0.9-1.1l0,0c-0.5,0-1.1,0.8-1.4,1.4
			c-0.9,3.7,0.6,7.1,1.3,8.7c0.3,0.7,0.4,1,0.4,1.2c-0.1,0.4-0.7,4.9-1.1,7.4c0.2,0.5,0.2,1.5-0.3,3.7c-0.8,3-1.1,6.2-1.1,6.2v0.6
			l-0.6-0.1c-0.8-0.2-2.6,1.3-3.2,3.2c-0.7,1.8,0,4.3,0,4.3c0.4,1.6,2,3,2.9,3.1c0.5,0.1,1,0.2,1.4,0.4c0.6,0.2,1.1,0.3,1.6,0.3
			c1,0,1.7,0.5,1.9,0.7c0.8,0.4,1.2,0.8,1.4,1.1c0.7,0.1,2.9,0.5,4.5,0.7c1.7,0.2,3.1-0.6,3.1-0.6h0.1h0.1c1.9-0.5,3.4,0.7,3.8,1.1
			l4.6,0.5c1.6-1.7,3.7-1.5,4.7-1.1C46,73.7,46.1,73.7,46.2,73.7z"/>
	</g>
	<g id="XMLID_499_">
		<path id="XMLID_500_" class="st0" d="M76.2,66.7c-8.2,0-14.3-1.3-14.4-1.3l0,0c-10.5-3.5-22.9-2.3-23-2.3
			c-15,1.2-18.4-2.1-18.5-2.2s-0.1-0.3,0-0.5c0.1-0.1,0.3-0.1,0.5,0c0,0,0.8,0.8,3.5,1.5c2.4,0.6,6.9,1.2,14.5,0.6
			c0.1,0,12.6-1.2,23.3,2.3c0.6,0.1,16.1,3.3,30.8-0.7c0.1,0,7.6-1.8,8-5.7c0-0.2,0.2-0.3,0.4-0.3c0.2,0,0.3,0.2,0.3,0.4
			c-0.5,4.3-8.2,6.2-8.5,6.3C87.2,66.2,81.3,66.7,76.2,66.7z"/>
	</g>
	<g id="XMLID_497_">
		<path id="XMLID_498_" class="st0" d="M48.7,62.6c-0.1,0-0.1,0-0.2-0.1c0,0-4.2-3.7-7.6-5.8c-4.1-2.5-2.7-5.9-1.9-7.2
			c1.1-1.8,12.7-13,13.2-13.5c0.1-0.1,0.3-0.1,0.3,0c0.1,0.1,0.1,0.3,0,0.3C52.4,36.4,40.4,48,39.4,49.8c-2.1,3.6,0.5,5.8,1.8,6.5
			c3.5,2.1,7.7,5.8,7.7,5.9c0.1,0.1,0.1,0.2,0,0.3S48.8,62.6,48.7,62.6z"/>
	</g>
	<g id="XMLID_495_">
		<path id="XMLID_496_" class="st0" d="M58.8,57c-2.7,0-5.1-1-6.8-1.8c-0.3-0.1-0.6-0.3-0.8-0.4c-2.5-1-11.3-2.7-11.4-2.7
			c-0.2,0-0.3-0.2-0.3-0.4s0.2-0.3,0.4-0.3c0.4,0.1,9,1.7,11.6,2.8c0.3,0.1,0.6,0.2,0.9,0.4c2.7,1.2,6.7,2.9,11.4,0.4
			c2.7-1.9,7.2-5,7.5-5.5c0.1-0.1,0.2-0.2,0.4-0.2c0.2,0.1,0.3,0.2,0.2,0.4c-0.1,0.2-0.1,0.4-4,3.2c-1.9,1.3-3.8,2.6-3.8,2.6l0,0
			C62.2,56.6,60.4,57,58.8,57z"/>
	</g>
	<g id="XMLID_492_">
		<path id="XMLID_494_" class="st0" d="M91.7,63.8L91.7,63.8l-3.3-1c-0.2,0-2.2-0.4-4.2-1c-3-0.8-4.7-1.5-5.3-2.2
			c-0.6-0.7-0.6-2-0.2-3.8c0.3-1.3,0.8-2.3,0.8-2.4c0.1-0.2,0.3-0.2,0.4-0.2c0.2,0.1,0.2,0.3,0.2,0.4c-0.5,1.1-1.6,4.4-0.7,5.5
			c0.9,1.2,6.9,2.6,9.2,3l0,0l3.2,1c0.2,0.1,0.3,0.2,0.2,0.4C92,63.7,91.9,63.8,91.7,63.8z"/>
	</g>
	<g id="XMLID_472_">
		<g id="XMLID_490_">
			<path id="XMLID_491_" class="st0" d="M32,50c0-0.2,0.2-0.3,0.3-0.3c0.2,0,0.3,0.1,0.3,0.3s-0.2,0.3-0.3,0.3
				C32.2,50.3,32,50.1,32,50 M32.4,50.2c0.1,0,0.3-0.1,0.3-0.3c0-0.1-0.1-0.3-0.3-0.3c-0.1,0-0.3,0.1-0.3,0.3S32.2,50.2,32.4,50.2
				 M32.3,50.1L32.3,50.1l-0.1-0.4h0.1c0.1,0,0.1,0,0.1,0.1s0,0.1-0.1,0.1V50.1L32.3,50.1l-0.1-0.2h-0.1v0.2H32.3z M32.4,49.9
				C32.4,49.9,32.5,49.9,32.4,49.9C32.5,49.8,32.4,49.8,32.4,49.9L32.4,49.9L32.4,49.9L32.4,49.9z"/>
		</g>
		<g id="XMLID_488_">
			<path id="XMLID_489_" class="st0" d="M29.3,50h0.2c0,0-0.3-0.5-0.4-0.8c0.1,0,0.2,0,0.3,0c0.1,0.2,0.4,0.6,0.4,0.6
				s0.4-0.2,0.6-0.3c0.1,0,0.1,0,0.2,0.1L30,50.1l0.2,0.5c0,0,0.4-0.6,0.7-0.9c0.1,0,0.1,0.1,0.2,0.1c-0.1,0.2-0.2,0.3-0.3,0.4
				c0.3,0,0.5,0,0.8,0c0.1,0.1,0.1,0.2,0.2,0.3h-0.7L30.8,51l0.4-0.1c0,0,0.3-0.1,0.7-0.3c0.1,0.1,0.1,0.2,0.1,0.3l-0.7,0.3
				l-0.6,0.1c-0.1,0.1-0.1,0.2-0.2,0.3c0.6-0.1,1.1-0.3,1.7-0.4c0.3,0.8,0.1,1.7-0.4,2.4c-1.5,0.4-3.2-0.1-4.8,0.1l-0.5,0.1
				c-0.3-0.4-0.5-0.8-0.6-1.3s0-1.1,0.2-1.6l0.8-0.1l-0.4-0.5c0-0.1,0.1-0.1,0.2-0.2c0.2,0.2,0.7,0.7,0.7,0.7h0.2L26.9,50
				c0.1-0.1,0.2-0.2,0.3-0.3l0.6,0.1c0,0,0-0.3,0-0.5c0.1-0.1,0.3-0.1,0.4-0.2c0.1,0.2,0.2,0.4,0.4,0.6c0.2-0.2,0.3-0.5,0.4-0.8
				c0,0,0,0,0.1,0L29.3,50z M28.9,49.7l-0.3,0.6l0.2,0.6l0.3-0.2l0.1-0.5C29,50,29,49.9,28.9,49.7 M27.9,49.7V50h0.2
				C28,49.9,28,49.8,27.9,49.7 M27.1,50.1L27.1,50.1c0.2,0.2,0.5,0.5,0.5,0.5v-0.4L27.1,50.1z M29.6,50.2l-0.1,0.1v0.1L29.6,50.2
				L29.6,50.2z M27.9,50.4V51l0.2-0.5L27.9,50.4z M30.6,50.6h-0.2l-0.3,0.5h0.2L30.6,50.6z M29.3,51v0.6l0.5-0.5l0.1-0.1l-0.1-0.3
				L29.3,51z M28.4,50.9l-0.1,0.3l0.3,0.3C28.5,51.2,28.4,51.1,28.4,50.9 M29,51.1l-0.2,0.1v0.2h0.1L29,51.1z M27.2,51.2L27,51.6
				l0.5,0.2l0.4-0.3l-0.2-0.2L27.2,51.2z M26.2,51.2l0.4,0.2l0.1-0.2H26.2z M29.9,51.5l-0.2,0.4H30l0.2-0.4H29.9z M28.1,51.6
				l-0.8,0.6h-0.4l0.2-0.2c-0.1-0.1-0.3-0.1-0.4-0.2l-0.3,0.3c-0.1,0-0.2,0-0.3,0c0,0.3,0,0.6,0.1,0.8c0,0.1,0,0.2,0.2,0.2
				c0.8,0,1.5,0.1,2.3,0.2v-1.1c0-0.1-0.1-0.2-0.2-0.3l-0.4,0.2h-0.6c0,0,0.5-0.3,0.8-0.4C28.2,51.7,28.2,51.6,28.1,51.6 M26.3,51.6
				c0,0.1,0,0.2,0,0.3c0.1-0.1,0.2-0.3,0.2-0.3H26.3z M31.7,51.7l-0.3,0.1c0.1,0.1,0.2,0.4,0.2,0.4h-0.3l-0.2-0.3
				c-0.1,0-0.5,0.1-0.5,0.1l0.1,0.2h-0.2L30.3,52c0,0-0.7,0.2-1,0.3l0,0c0,0.4,0,0.7,0.1,1v0.1c0.6,0.1,1.3,0.1,1.9,0.2h0.1
				c0.2-0.2,0.3-0.5,0.4-0.8C31.9,52.5,31.9,52,31.7,51.7"/>
		</g>
		<g id="XMLID_486_">
			<path id="XMLID_487_" class="st0" d="M31.6,53.9c-0.2,0.2-0.4,0.5-0.7,0.7c-1.5,0-2.8-0.4-4.2-0.5L26.6,54c1.1-0.2,2.2-0.1,3.3,0
				C30.4,54,31,54,31.6,53.9L31.6,53.9z"/>
		</g>
		<g id="XMLID_473_">
			<path id="XMLID_485_" class="st0" d="M29.4,54.6c0.4,0,0.8,0.1,1.3,0.1c-0.9,0.6-2.3,0.6-3.2,0.1c-0.2-0.1-0.5-0.3-0.7-0.5h0.1
				h0.6L29.4,54.6z"/>
		</g>
	</g>
	<g id="XMLID_465_">
		<g id="XMLID_470_">
			<path id="XMLID_471_" class="st0" d="M45.3,61.7c0,0-0.1,0-0.2-0.1l0.2-0.4c0.1,0.1,0.2,0.1,0.2,0.1L45.3,61.7z"/>
		</g>
		<g id="XMLID_468_">
			<path id="XMLID_469_" class="st0" d="M44.6,61.3c-0.1-0.1-0.3-0.2-0.4-0.2l0.2-0.4c0.2,0.1,0.3,0.2,0.4,0.2L44.6,61.3z
				 M43.7,60.8c-0.1-0.1-0.3-0.2-0.4-0.3l0.3-0.4c0.1,0.1,0.3,0.2,0.4,0.3L43.7,60.8z M42.9,60.3c-0.1-0.1-0.3-0.2-0.4-0.3l0.3-0.4
				c0.1,0.1,0.3,0.2,0.4,0.3L42.9,60.3z M42.1,59.8c-0.1-0.1-0.3-0.2-0.4-0.3l0.3-0.4c0.1,0.1,0.3,0.2,0.4,0.3L42.1,59.8z
				 M41.3,59.2c-0.1-0.1-0.3-0.2-0.4-0.3l0.3-0.4c0.1,0.1,0.3,0.2,0.4,0.3L41.3,59.2z M40.5,58.6c-0.1-0.1-0.3-0.2-0.4-0.3l0.3-0.4
				c0.1,0.1,0.2,0.2,0.4,0.3L40.5,58.6z M39.7,57.9c-0.1-0.1-0.2-0.2-0.4-0.3l0.3-0.4c0.1,0.1,0.2,0.2,0.4,0.3L39.7,57.9z M39,57.3
				c-0.1-0.1-0.2-0.2-0.3-0.4l0.4-0.3c0.1,0.1,0.2,0.2,0.3,0.3L39,57.3z M38.3,56.5c-0.1-0.1-0.2-0.3-0.3-0.4l0.4-0.3
				c0.1,0.1,0.2,0.2,0.3,0.4L38.3,56.5z M37.7,55.7c-0.1-0.1-0.2-0.3-0.3-0.4l0.4-0.3c0.1,0.1,0.2,0.3,0.3,0.4L37.7,55.7z
				 M37.2,54.9c-0.1-0.1-0.2-0.3-0.2-0.4l0.4-0.2c0.1,0.1,0.1,0.3,0.2,0.4L37.2,54.9z M36.7,54c-0.1-0.2-0.1-0.3-0.2-0.5l0.5-0.1
				c0,0.1,0.1,0.3,0.2,0.4L36.7,54z M36.4,53c0-0.2-0.1-0.3-0.1-0.5l0.5-0.1c0,0.2,0,0.3,0.1,0.5L36.4,53z M36.3,52L36.3,52L36.3,52
				L36.3,52c0-0.1,0-0.1,0-0.2s0-0.2,0-0.3l0.5,0.1c0,0.1,0,0.2,0,0.2c0,0.1,0,0.1,0,0.1V52v0.1L36.3,52z M36.9,51.1L36.4,51
				c0-0.2,0.1-0.3,0.2-0.5l0.5,0.2C37,50.8,37,51,36.9,51.1z M37.3,50.2L36.9,50c0.1-0.1,0.2-0.3,0.2-0.4l0.4,0.2
				C37.5,49.9,37.4,50.1,37.3,50.2z M37.8,49.4l-0.4-0.3c0.1-0.1,0.2-0.3,0.3-0.4l0.4,0.3C38,49.1,37.9,49.3,37.8,49.4z M38.3,48.6
				l-0.4-0.3c0.1-0.1,0.2-0.3,0.3-0.4l0.4,0.3C38.5,48.4,38.4,48.5,38.3,48.6z M38.9,47.9l-0.4-0.3c0.1-0.1,0.2-0.2,0.3-0.4l0.4,0.3
				C39.1,47.6,39,47.7,38.9,47.9z M39.6,47.1l-0.4-0.3c0.1-0.1,0.2-0.2,0.3-0.4l0.4,0.3C39.8,46.9,39.7,47,39.6,47.1z M40.2,46.4
				l-0.4-0.3c0.1-0.1,0.2-0.2,0.3-0.4l0.4,0.3C40.4,46.1,40.3,46.3,40.2,46.4z M40.9,45.7l-0.4-0.3l0.3-0.4l0.4,0.3L40.9,45.7z
				 M41.6,44.9l-0.4-0.3l0.3-0.4l0.4,0.3L41.6,44.9z M42.2,44.2l-0.4-0.3l0.3-0.4l0.4,0.3L42.2,44.2z M42.9,43.5l-0.4-0.3l0.3-0.4
				l0.4,0.3L42.9,43.5z M43.6,42.8l-0.4-0.3l0.3-0.4l0.4,0.3L43.6,42.8z M44.3,42.1l-0.4-0.3l0.3-0.4l0.4,0.3L44.3,42.1z M44.9,41.4
				l-0.4-0.3l0.3-0.4l0.4,0.3L44.9,41.4z M45.6,40.7l-0.4-0.3l0.3-0.4l0.4,0.3L45.6,40.7z M46.3,40L46,39.7l0.3-0.4l0.4,0.3L46.3,40
				z M47,39.3L46.6,39l0.3-0.3l0.3,0.3L47,39.3z M47.7,38.6l-0.3-0.3l0.3-0.3l0.3,0.3L47.7,38.6z M48.4,37.9l-0.3-0.3l0.3-0.3
				l0.3,0.3L48.4,37.9z M49.1,37.2l-0.3-0.3l0.3-0.3l0.3,0.3L49.1,37.2z M49.8,36.5l-0.3-0.3c0.2-0.2,0.2-0.2,0.3-0.2
				c0,0,0.1,0,0.2-0.1l0.2,0.4c-0.1,0-0.1,0.1-0.2,0.1S49.8,36.4,49.8,36.5z M50.5,36l-0.2-0.4c0.1-0.1,0.3-0.1,0.4-0.2l0.2,0.4
				C50.8,35.9,50.7,36,50.5,36z M51.4,35.5l-0.3-0.4c0.1-0.1,0.3-0.2,0.4-0.3l0.3,0.4C51.7,35.4,51.5,35.4,51.4,35.5z M52.2,35
				l-0.3-0.4c0.1-0.1,0.3-0.2,0.4-0.3l0.3,0.4C52.5,34.8,52.3,34.9,52.2,35z M53,34.3l-0.3-0.4c0.1-0.1,0.2-0.2,0.3-0.3l0.3,0.3
				C53.3,34.1,53.1,34.2,53,34.3z M53.7,33.6l-0.4-0.3c0.1-0.1,0.2-0.2,0.3-0.4l0.4,0.3C53.9,33.4,53.8,33.5,53.7,33.6z M54.3,32.8
				l-0.4-0.2c0.1-0.1,0.1-0.3,0.2-0.4l0.5,0.1C54.4,32.4,54.4,32.6,54.3,32.8z M54.6,31.8l-0.5-0.1l0,0c0-0.1,0-0.2,0-0.3v-0.1h0.5
				v0.1C54.6,31.5,54.6,31.6,54.6,31.8L54.6,31.8z M54.1,30.8c0-0.2-0.1-0.3-0.1-0.4l0.5-0.1c0.1,0.2,0.1,0.3,0.1,0.5H54.1z
				 M53.8,30c-0.1-0.1-0.2-0.2-0.3-0.3l0.3-0.4c0.1,0.1,0.2,0.3,0.3,0.4L53.8,30z"/>
		</g>
		<g id="XMLID_466_">
			<path id="XMLID_467_" class="st0" d="M53.3,29.4c-0.1,0-0.2-0.1-0.2-0.1l0.1-0.5c0,0,0.1,0,0.3,0.1L53.3,29.4z"/>
		</g>
	</g>
	<g id="XMLID_463_">
		<path id="XMLID_464_" class="st0" d="M57.3,58.5c-0.2,0-0.3,0-0.5,0v-0.3c0.2,0,0.3,0,0.5,0V58.5z M57.8,58.5v-0.3
			c0.2,0,0.3,0,0.5,0v0.3C58.1,58.5,57.9,58.5,57.8,58.5z M58.8,58.5v-0.3c0.2,0,0.3,0,0.5,0v0.3C59.1,58.5,58.9,58.5,58.8,58.5z
			 M59.7,58.4v-0.3c0.2,0,0.3,0,0.5,0v0.3C60.1,58.4,59.9,58.4,59.7,58.4z M56.3,58.4c-0.2,0-0.3-0.1-0.5-0.1l0.1-0.3
			c0.2,0,0.3,0.1,0.5,0.1L56.3,58.4z M60.7,58.4v-0.3c0.2,0,0.3,0,0.5-0.1v0.3C61.1,58.3,60.9,58.3,60.7,58.4z M55.3,58.2
			c-0.2,0-0.3-0.1-0.5-0.1l0.1-0.3c0.2,0,0.3,0.1,0.5,0.1L55.3,58.2z M61.7,58.2l-0.1-0.3c0.2,0,0.3-0.1,0.5-0.1l0.1,0.3
			C62,58.1,61.9,58.2,61.7,58.2z M62.7,58l-0.1-0.3c0.2,0,0.3-0.1,0.5-0.1l0.1,0.3C63,57.9,62.8,58,62.7,58z M54.3,58
			c-0.2,0-0.3-0.1-0.5-0.1l0.1-0.3c0.2,0,0.3,0.1,0.5,0.1L54.3,58z M63.6,57.7l-0.1-0.3c0.1-0.1,0.3-0.1,0.4-0.2l0.1,0.3
			C63.9,57.6,63.8,57.6,63.6,57.7z M53.4,57.7c-0.2-0.1-0.3-0.1-0.5-0.2l0.1-0.3c0.2,0.1,0.3,0.1,0.5,0.2L53.4,57.7z M52.5,57.3
			c-0.2-0.1-0.3-0.1-0.5-0.2l0.1-0.3c0.1,0.1,0.3,0.1,0.5,0.2L52.5,57.3z M64.5,57.3L64.4,57c0.1-0.1,0.3-0.1,0.4-0.2l0.2,0.3
			C64.8,57.1,64.7,57.2,64.5,57.3z M51.6,57c-0.2-0.1-0.3-0.1-0.5-0.2l0.1-0.3c0.1,0.1,0.3,0.1,0.4,0.2V57z M65.4,56.8l-0.2-0.3h0.1
			c0.1-0.1,0.2-0.1,0.4-0.2l0.2,0.3C65.7,56.6,65.6,56.7,65.4,56.8L65.4,56.8z M50.6,56.6c-0.2-0.1-0.3-0.1-0.4-0.2l0.1-0.3
			c0.1,0.1,0.3,0.1,0.4,0.2L50.6,56.6z M66.3,56.3L66.1,56c0.1-0.1,0.3-0.2,0.4-0.3l0.2,0.3C66.5,56.1,66.4,56.2,66.3,56.3z
			 M49.8,56.1C49.7,56.1,49.7,56.1,49.8,56.1c-0.2-0.1-0.3-0.2-0.4-0.2l0.1-0.3c0.2,0.1,0.3,0.1,0.4,0.2H50L49.8,56.1z M48.9,55.7
			c-0.1,0-0.3-0.1-0.5-0.1l0.1-0.3c0.2,0.1,0.3,0.1,0.5,0.2L48.9,55.7z M67.1,55.7l-0.2-0.3c0.1-0.1,0.3-0.2,0.4-0.3l0.2,0.3
			C67.3,55.5,67.2,55.6,67.1,55.7z M48,55.5c-0.2,0-0.3-0.1-0.5-0.1l0.1-0.3c0.2,0,0.3,0.1,0.5,0.1L48,55.5z M47,55.2
			c-0.2,0-0.3-0.1-0.5-0.1l0.1-0.3c0.2,0,0.3,0.1,0.5,0.1L47,55.2z M67.9,55.1l-0.2-0.3c0.1-0.1,0.3-0.2,0.4-0.3l0.2,0.3
			C68.1,54.9,68,55,67.9,55.1z M46.1,55c-0.2,0-0.3-0.1-0.5-0.1l0.1-0.3c0.2,0,0.3,0.1,0.5,0.1L46.1,55z M45.1,54.8
			c-0.2,0-0.3-0.1-0.5-0.1l0.1-0.3c0.2,0,0.3,0.1,0.5,0.1L45.1,54.8z M44.1,54.6l-0.5-0.1l0.1-0.3l0.5,0.1L44.1,54.6z M68.6,54.5
			l-0.2-0.3c0.1-0.1,0.3-0.2,0.4-0.3l0.2,0.3C68.9,54.3,68.8,54.4,68.6,54.5z M43.2,54.4c-0.2,0-0.3-0.1-0.5-0.1l0.1-0.3
			c0.2,0,0.3,0.1,0.5,0.1L43.2,54.4z M42.2,54.2l-0.5-0.1l0.1-0.3l0.5,0.1L42.2,54.2z M41.2,54l-0.5-0.1l0.1-0.3l0.5,0.1L41.2,54z
			 M69.4,53.9l-0.2-0.2l0.4-0.3l0.2,0.3L69.4,53.9z M40.3,53.9c-0.3-0.1-0.5-0.1-0.5-0.1l0.1-0.3c0,0,0.2,0,0.5,0.1L40.3,53.9z
			 M70.2,53.3L70,53l0.4-0.3l0.2,0.3L70.2,53.3z M71,52.7l-0.2-0.3c0.1-0.1,0.3-0.2,0.4-0.3l0.2,0.3C71.2,52.5,71.1,52.6,71,52.7z
			 M71.8,52.1l-0.2-0.3c0.1-0.1,0.3-0.2,0.4-0.3l0.2,0.3C72,51.9,71.9,52,71.8,52.1z M72.5,51.6l-0.2-0.3c0.1-0.1,0.3-0.2,0.4-0.3
			l0.2,0.3C72.8,51.4,72.7,51.5,72.5,51.6z M73.4,51l-0.2-0.3c0.2-0.1,0.3-0.2,0.5-0.2l0.1,0.3C73.7,50.9,73.5,51,73.4,51z"/>
	</g>
	<g id="XMLID_461_">
		<path id="XMLID_462_" class="st0" d="M89.5,64.3c0,0-0.1-0.1-0.3-0.2l0.1-0.3c0.2,0.1,0.4,0.2,0.5,0.3L89.5,64.3z M88.7,63.9
			c-0.1,0-0.3-0.1-0.5-0.1l0.1-0.3c0.2,0,0.3,0.1,0.5,0.1L88.7,63.9z M87.7,63.7c-0.2,0-0.3-0.1-0.5-0.1l0.1-0.3
			c0.2,0,0.3,0.1,0.5,0.1L87.7,63.7z M86.8,63.4c-0.2,0-0.3-0.1-0.5-0.1l0.1-0.3c0.2,0,0.3,0.1,0.5,0.1L86.8,63.4z M85.8,63.2
			l-0.5-0.1l0.1-0.3l0.5,0.1L85.8,63.2z M84.9,63l-0.5-0.1l0.1-0.3l0.5,0.1L84.9,63z M83.9,62.8c-0.2,0-0.3-0.1-0.5-0.1l0.1-0.3
			c0.2,0,0.3,0.1,0.5,0.1L83.9,62.8z M82.9,62.6c-0.2,0-0.3-0.1-0.5-0.1l0.1-0.3c0.2,0,0.3,0.1,0.5,0.1L82.9,62.6z M82,62.4
			c-0.2,0-0.3-0.1-0.5-0.1l0.1-0.3c0.2,0,0.3,0.1,0.5,0.1L82,62.4z M81,62.1c-0.2,0-0.3-0.1-0.5-0.1l0.1-0.3c0.1,0,0.3,0.1,0.5,0.1
			L81,62.1z M80.1,61.8c-0.2-0.1-0.3-0.1-0.5-0.2l0.1-0.3c0.1,0.1,0.3,0.1,0.4,0.2V61.8z M79.2,61.4c-0.2-0.1-0.3-0.2-0.4-0.3
			l0.2-0.3c0.1,0.1,0.3,0.2,0.4,0.3L79.2,61.4z M78.4,60.8c-0.1-0.1-0.3-0.2-0.4-0.4l0.3-0.2c0.1,0.1,0.2,0.2,0.3,0.3L78.4,60.8z
			 M77.7,60c-0.1-0.2-0.1-0.3-0.2-0.5l0.3-0.1c0,0.2,0.1,0.3,0.2,0.4L77.7,60z M77.4,59L77.4,59c0-0.2-0.1-0.3-0.1-0.5l0.3-0.1
			c0,0.2,0.1,0.3,0.1,0.5l0,0L77.4,59z M77.2,58.1c-0.1-0.1-0.2-0.2-0.3-0.3l0.2-0.3c0.2,0.1,0.3,0.2,0.4,0.4L77.2,58.1z M76.5,57.6
			c-0.1,0-0.2-0.1-0.3-0.1c-0.1,0-0.1,0-0.2-0.1l0.1-0.3c0.1,0,0.1,0,0.2,0.1c0.1,0,0.2,0.1,0.3,0.1L76.5,57.6z M75.6,57.3
			c-0.1,0-0.3-0.1-0.5-0.1l0.1-0.3c0.2,0,0.3,0.1,0.5,0.1L75.6,57.3z M74.6,57.1c-0.2,0-0.3,0-0.5-0.1v-0.3c0.2,0,0.3,0,0.5,0.1
			V57.1z M73.7,56.9c-0.2,0-0.3,0-0.5,0v-0.3c0.2,0,0.3,0,0.5,0V56.9z M72.7,56.9c-0.2,0-0.3,0-0.5,0v-0.3c0.2,0,0.3,0,0.5,0V56.9z
			 M68.3,56.8v-0.3c0,0,0.2,0,0.5,0v0.3C68.5,56.8,68.3,56.8,68.3,56.8z M71.7,56.8c-0.2,0-0.3,0-0.5,0v-0.3c0.2,0,0.3,0,0.5,0V56.8
			z M69.3,56.8v-0.3c0.2,0,0.3,0,0.5,0v0.3C69.6,56.8,69.4,56.8,69.3,56.8z M70.8,56.8c-0.2,0-0.3,0-0.5,0v-0.3c0.2,0,0.3,0,0.5,0
			V56.8z"/>
	</g>
	<g id="XMLID_459_">
		<path id="XMLID_460_" class="st0" d="M34.3,37.6v-0.5c0.2,0,0.3,0,0.5,0v0.5C34.6,37.6,34.4,37.6,34.3,37.6z M33.8,37.6
			c-0.2,0-0.3,0-0.5,0v-0.5c0.2,0,0.3,0,0.5,0V37.6z M35.3,37.6v-0.5c0.2,0,0.3,0,0.5-0.1l0.1,0.5C35.6,37.5,35.4,37.6,35.3,37.6z
			 M32.8,37.6c-0.2,0-0.3,0-0.5,0l0.1-0.5c0.2,0,0.3,0,0.5,0L32.8,37.6z M31.8,37.4c-0.2,0-0.3-0.1-0.5-0.1l0.1-0.5
			c0.2,0,0.3,0.1,0.5,0.1L31.8,37.4z M36.3,37.4l-0.1-0.5c0.2,0,0.3-0.1,0.5-0.1l0.1,0.5C36.6,37.4,36.4,37.4,36.3,37.4z M30.8,37.3
			c-0.2,0-0.3-0.1-0.5-0.1l0.1-0.5c0.2,0,0.3,0.1,0.5,0.1L30.8,37.3z M37.2,37.2l-0.1-0.5c0.2,0,0.3-0.1,0.4-0.2l0.2,0.5
			C37.6,37.1,37.4,37.2,37.2,37.2z M29.8,37.1c-0.2,0-0.3-0.1-0.5-0.1l0.1-0.5c0.2,0,0.3,0.1,0.5,0.1L29.8,37.1z M38.2,36.8L38,36.4
			c0.1-0.1,0.3-0.1,0.4-0.2l0.3,0.4C38.5,36.7,38.3,36.8,38.2,36.8z M28.9,36.8c-0.2,0-0.3-0.1-0.5-0.1l0.1-0.5
			c0.2,0,0.3,0.1,0.5,0.1L28.9,36.8z M27.9,36.6c-0.2,0-0.3-0.1-0.5-0.1l0.1-0.5c0.2,0,0.3,0.1,0.5,0.1L27.9,36.6z M39.1,36.3
			l-0.3-0.4c0.1-0.1,0.2-0.2,0.3-0.3l0.4,0.3C39.3,36.1,39.2,36.2,39.1,36.3z M27,36.3c-0.2,0-0.3-0.1-0.5-0.1l0.1-0.5
			c0.2,0,0.3,0.1,0.5,0.1L27,36.3z M26,36c-0.2-0.1-0.3-0.1-0.5-0.2l0.2-0.5c0.1,0.1,0.3,0.1,0.5,0.2L26,36z M25.1,35.7
			c-0.2-0.1-0.3-0.1-0.5-0.2l0.2-0.5c0.1,0.1,0.3,0.1,0.5,0.2L25.1,35.7z M39.8,35.5l-0.4-0.3c0.1-0.1,0.1-0.2,0.2-0.3l0.1-0.1
			l0.4,0.2c0,0,0,0.1-0.1,0.1C39.9,35.3,39.9,35.4,39.8,35.5z M24.1,35.3c-0.3-0.1-0.5-0.2-0.5-0.2l0.2-0.5c0,0,0.2,0.1,0.5,0.2
			L24.1,35.3z M40.3,34.7l-0.4-0.2c0.1-0.1,0.1-0.3,0.2-0.4l0.4,0.2C40.4,34.4,40.4,34.5,40.3,34.7z M40.7,33.7l-0.5-0.2
			c0.1-0.2,0.1-0.3,0.2-0.5l0.5,0.2C40.8,33.4,40.8,33.6,40.7,33.7z M41.1,32.8l-0.5-0.2c0.1-0.2,0.1-0.3,0.2-0.5l0.5,0.2
			C41.2,32.5,41.1,32.7,41.1,32.8z M41.4,31.9L41,31.7c0.1-0.2,0.2-0.3,0.2-0.5l0.4,0.2C41.6,31.6,41.5,31.8,41.4,31.9z M41.9,31.1
			l-0.4-0.3c0.1-0.1,0.2-0.3,0.3-0.4l0.4,0.3C42.1,30.9,42,31,41.9,31.1z M42.5,30.4L42.2,30c0.1-0.1,0.3-0.2,0.4-0.3l0.3,0.4
			C42.7,30.2,42.6,30.3,42.5,30.4z M43.3,29.9l-0.2-0.4c0.1-0.1,0.3-0.1,0.5-0.2l0.2,0.5C43.5,29.8,43.4,29.9,43.3,29.9z M44.2,29.6
			L44,29.1c0.1-0.1,0.3-0.1,0.5-0.2l0.2,0.5C44.5,29.5,44.3,29.5,44.2,29.6z M45.1,29.3l-0.2-0.5c0.2-0.1,0.3-0.1,0.5-0.2l0.1,0.5
			C45.4,29.2,45.2,29.2,45.1,29.3z M46,29l-0.1-0.5c0.2,0,0.3-0.1,0.5-0.1l0.1,0.5C46.3,28.9,46.2,28.9,46,29z M47,28.7l-0.1-0.5
			c0.2,0,0.3-0.1,0.5-0.1l0.1,0.5C47.3,28.6,47.1,28.6,47,28.7z M47.9,28.4l-0.1-0.5l0.5-0.1l0.1,0.5L47.9,28.4z M48.8,28.1
			l-0.1-0.4c0.2,0,0.3-0.1,0.5-0.1l0.1,0.5C49.2,28.1,49,28.1,48.8,28.1z M49.8,27.9l-0.1-0.5l0.5-0.1l0.1,0.5L49.8,27.9z
			 M50.7,27.6l-0.1-0.5c0.3-0.1,0.5-0.1,0.5-0.1l0.1,0.5C51.2,27.5,51,27.6,50.7,27.6z"/>
	</g>
	<g id="XMLID_457_">
		<path id="XMLID_458_" class="st0" d="M57.5,36.5c-0.1,0-0.2,0-0.3-0.1c-1.2-1.4-5.8-1.8-7.5-1.9c0,0,0,0-0.1,0
			c-1.8-0.4-2.7-1-2.8-1.9c-0.1-1,1-2.2,3.2-3.6c1.6-1,3.2-1.7,3.3-1.7c0.2-0.1,0.4,0,0.5,0.2s0,0.4-0.2,0.5c0,0-1.6,0.7-3.2,1.7
			c-2.7,1.6-2.9,2.5-2.9,2.9c0.1,0.5,0.8,0.9,2.2,1.2c0.6,0,6.3,0.2,8,2.1c0.1,0.2,0.1,0.4,0,0.5C57.7,36.5,57.6,36.5,57.5,36.5z"/>
	</g>
	<g id="XMLID_455_">
		<path id="XMLID_456_" class="st0" d="M61.9,40c-0.1,0-0.1,0-0.2-0.1c-2.5-1.8-4.4-0.1-4.5,0s-0.3,0.1-0.5,0
			c-0.1-0.1-0.1-0.3,0-0.5c0,0,2.4-2.2,5.3,0c0.1,0.1,0.2,0.3,0.1,0.5C62.1,40,62,40,61.9,40z"/>
	</g>
	<g id="XMLID_453_">
		<path id="XMLID_454_" class="st0" d="M61.9,44.9c-0.1,0-0.2,0-0.3-0.1s-0.1-0.4,0.1-0.5c0,0,2.9-2,5.3,0c0.1,0.1,0.2,0.3,0,0.5
			s-0.3,0.2-0.5,0C64.5,43.1,62,44.8,61.9,44.9C62,44.9,61.9,44.9,61.9,44.9z"/>
	</g>
	<g id="XMLID_451_">
		<path id="XMLID_452_" class="st0" d="M72.4,48.3c-0.1,0-0.2,0-0.3-0.1c-1.8-2.1-5.5,0-5.5,0.1c-0.2,0.1-0.4,0-0.4-0.1
			c-0.1-0.2,0-0.4,0.1-0.4c0,0,1-0.6,2.3-0.9c1.7-0.4,3.1-0.1,4,1c0.1,0.1,0.1,0.3,0,0.5C72.6,48.3,72.5,48.3,72.4,48.3z"/>
	</g>
	<g id="XMLID_449_">
		<path id="XMLID_450_" class="st0" d="M20.6,59.8h-0.2c0-0.1,1.1-6,1.7-8.3c0.6-2.2,1.5-6.9,1.5-7.9c0-1.3-0.4-2.3-0.8-3.3
			c-0.2-0.5-0.4-1-0.6-1.6c0-0.2-0.1-0.3-0.2-0.6c-0.2-0.4-0.5-1-0.6-1.9c-0.2-1.3-0.3-4.1,0.4-4.3c0.3-0.1,0.7,0.4,1.3,1.7
			l-0.2,0.1c-0.6-1.5-1-1.6-1.1-1.6c-0.4,0.1-0.5,2.3-0.3,4.1c0.1,0.8,0.4,1.4,0.6,1.8c0.1,0.2,0.2,0.4,0.2,0.6
			c0.1,0.5,0.4,1,0.6,1.5c0.4,1,0.9,2,0.8,3.4c0,1-0.9,5.7-1.5,7.9C21.7,53.8,20.6,59.7,20.6,59.8z"/>
	</g>
	<g id="XMLID_447_">
		<path id="XMLID_448_" class="st0" d="M67,51.2L67,51.2l0.1-0.3l0,0L67,51.2z M66.5,50.9c-0.1-0.1-0.3-0.2-0.4-0.2l0.2-0.3
			c0.2,0.1,0.3,0.2,0.4,0.2L66.5,50.9z M65.7,50.4c-0.1-0.1-0.3-0.2-0.4-0.3l0.2-0.3c0.1,0.1,0.3,0.2,0.4,0.3L65.7,50.4z M64.9,49.9
			c-0.1-0.1-0.3-0.2-0.4-0.3l0.2-0.3c0.1,0.1,0.3,0.2,0.4,0.3L64.9,49.9z M64,49.4l-0.4-0.3l0.2-0.3l0.4,0.3L64,49.4z M63.2,48.8
			l-0.4-0.3l0.2-0.3l0.4,0.3L63.2,48.8z M62.4,48.3L62,48l0.2-0.3l0,0l0.4,0.3L62.4,48.3z M61.6,47.7l-0.4-0.3l0.2-0.3l0.4,0.3
			L61.6,47.7z M60.8,47.2l-0.4-0.3l0.2-0.3l0.4,0.3L60.8,47.2z M59.9,46.6l-0.4-0.3l0.2-0.3l0.4,0.3L59.9,46.6z M59.1,46.1
			c-0.1-0.1-0.3-0.2-0.4-0.3l0.2-0.3c0.1,0.1,0.3,0.2,0.4,0.3L59.1,46.1z M58.3,45.5l-0.2-0.1c-0.1,0-0.1-0.1-0.2-0.1l0.2-0.3
			c0.1,0,0.1,0.1,0.2,0.1l0.2,0.1L58.3,45.5z M57.5,45c-0.1-0.1-0.3-0.2-0.4-0.3l0.2-0.3c0.1,0.1,0.3,0.2,0.4,0.3L57.5,45z
			 M56.7,44.3c-0.1-0.1-0.2-0.2-0.4-0.3l0.2-0.2c0.1,0.1,0.2,0.2,0.4,0.3L56.7,44.3z M56,43.7c-0.1-0.1-0.2-0.2-0.3-0.4l0.2-0.2
			c0.1,0.1,0.2,0.2,0.3,0.3L56,43.7z M55.3,43c-0.1-0.1-0.2-0.2-0.3-0.4l0.2-0.2c0.1,0.1,0.2,0.2,0.3,0.4L55.3,43z M54.7,42.2
			c-0.1-0.1-0.2-0.2-0.3-0.4l0.2-0.2c0.1,0.1,0.2,0.2,0.3,0.4L54.7,42.2z M54,41.5c-0.1-0.1-0.2-0.3-0.3-0.4l0.3-0.2
			c0.1,0.1,0.2,0.3,0.3,0.4L54,41.5z M53.4,40.7c-0.1-0.1-0.2-0.3-0.3-0.4l0.3-0.2c0.1,0.1,0.2,0.3,0.3,0.4L53.4,40.7z M52.8,39.9
			c-0.1-0.1-0.2-0.3-0.3-0.4l0.3-0.2c0.1,0.1,0.2,0.3,0.3,0.4L52.8,39.9z M52.2,39.1c-0.2-0.3-0.3-0.4-0.3-0.4l0.3-0.2
			c0,0,0.1,0.1,0.3,0.4L52.2,39.1z"/>
	</g>
	<g id="XMLID_445_">
		<path id="XMLID_446_" class="st0" d="M66.8,51.7L66.8,51.7v-0.2l0,0V51.7z M66.3,51.4c-0.1-0.1-0.3-0.2-0.4-0.2l0.1-0.1
			C66.2,51.2,66.3,51.3,66.3,51.4L66.3,51.4z M65.4,50.9c-0.1-0.1-0.3-0.2-0.4-0.3l0.1-0.1C65.2,50.6,65.4,50.7,65.4,50.9L65.4,50.9
			z M64.6,50.4c-0.1-0.1-0.3-0.2-0.4-0.3l0.1-0.1C64.4,50.1,64.6,50.2,64.6,50.4L64.6,50.4z M63.8,49.9l-0.4-0.3l0.1-0.1L63.8,49.9
			L63.8,49.9z M63,49.3L62.6,49l0.1-0.1L63,49.3L63,49.3z M62.2,48.8l-0.4-0.3l0.1-0.1L62.2,48.8L62.2,48.8z M61.3,48.2l-0.4-0.3
			l0.1-0.1L61.3,48.2L61.3,48.2z M60.5,47.7l-0.4-0.3l0.1-0.1L60.5,47.7L60.5,47.7z M59.7,47.1l-0.4-0.3l0.1-0.1L59.7,47.1
			L59.7,47.1z M58.9,46.6c-0.1-0.1-0.3-0.2-0.4-0.3l0.1-0.1C58.7,46.3,58.9,46.4,58.9,46.6L58.9,46.6z M58.1,46l-0.2-0.1
			c-0.1,0-0.1-0.1-0.2-0.1l0.1-0.1c0.1,0,0.1,0.1,0.2,0.1L58.1,46L58.1,46z M57.2,45.5c-0.1-0.1-0.3-0.2-0.4-0.3l0.1-0.1
			C57,45.2,57.2,45.3,57.2,45.5L57.2,45.5z M56.5,44.8c-0.1-0.1-0.2-0.2-0.4-0.3l0.1-0.1C56.3,44.5,56.4,44.6,56.5,44.8L56.5,44.8z
			 M55.8,44.2c-0.1-0.1-0.2-0.2-0.3-0.4l0.1-0.1c0.1,0.1,0.2,0.2,0.3,0.3L55.8,44.2z M55.1,43.4c-0.1-0.1-0.2-0.2-0.3-0.4l0.1-0.1
			C55,43,55.1,43.1,55.1,43.4L55.1,43.4z M54.4,42.7c-0.1-0.1-0.2-0.2-0.3-0.4l0.1-0.1C54.3,42.3,54.4,42.4,54.4,42.7L54.4,42.7z
			 M53.8,42c-0.1-0.1-0.2-0.3-0.3-0.4l0.1-0.1C53.7,41.6,53.8,41.8,53.8,42L53.8,42z M53.2,41.2c-0.1-0.1-0.2-0.3-0.3-0.4l0.1-0.1
			C53.1,40.8,53.2,41,53.2,41.2L53.2,41.2z M52.6,40.4c-0.1-0.1-0.2-0.3-0.3-0.4l0.1-0.1C52.5,40,52.6,40.2,52.6,40.4L52.6,40.4z
			 M52,39.6c-0.2-0.3-0.3-0.4-0.3-0.4l0.1-0.1C51.8,39.1,51.9,39.2,52,39.6L52,39.6z"/>
	</g>
</g>
<g class="st1">
	<path d="M38.5,104.3v-7.8h1.4v3.2h2.7v-3.2h1.4v7.8h-1.4v-3.5h-2.7v3.5H38.5z"/>
	<path d="M45.8,104.3v-1.2h1.9v-5.5h-1.9v-1.2H51v1.2h-1.9v5.5H51v1.2H45.8z"/>
	<path d="M53,104.3v-7.8h1.4v3.6h0l2.8-3.6h1.6l-2.4,3l2.7,4.8h-1.5l-2-3.7l-1.1,1.4v2.3H53z"/>
	<path d="M60.2,104.3v-1.2h1.9v-5.5h-1.9v-1.2h5.2v1.2h-1.9v5.5h1.9v1.2H60.2z"/>
	<path d="M67.3,104.3v-7.8h1.5l2.1,4.4l0.7,1.7h0c0-0.4-0.1-0.8-0.1-1.3c0-0.5-0.1-0.9-0.1-1.4v-3.4h1.3v7.8h-1.5l-2.1-4.4l-0.7-1.7
		h0c0,0.4,0.1,0.9,0.1,1.3c0,0.5,0.1,0.9,0.1,1.3v3.4H67.3z"/>
	<path d="M77.7,104.4c-0.5,0-1-0.1-1.4-0.3s-0.8-0.4-1.1-0.8c-0.3-0.3-0.6-0.8-0.7-1.3c-0.2-0.5-0.3-1.1-0.3-1.7
		c0-0.6,0.1-1.2,0.3-1.7c0.2-0.5,0.4-0.9,0.7-1.3c0.3-0.4,0.7-0.6,1.1-0.8c0.4-0.2,0.9-0.3,1.4-0.3c0.5,0,1,0.1,1.3,0.3
		c0.4,0.2,0.7,0.4,0.9,0.7l-0.8,0.9c-0.2-0.2-0.4-0.3-0.6-0.5c-0.2-0.1-0.5-0.2-0.8-0.2c-0.3,0-0.6,0.1-0.9,0.2s-0.5,0.3-0.7,0.6
		c-0.2,0.2-0.3,0.5-0.4,0.9c-0.1,0.4-0.2,0.7-0.2,1.2c0,0.9,0.2,1.6,0.5,2.1c0.4,0.5,0.9,0.8,1.6,0.8c0.2,0,0.4,0,0.6-0.1
		c0.2-0.1,0.3-0.1,0.5-0.3v-1.7h-1.4V100h2.6v3.5c-0.3,0.3-0.6,0.5-1,0.7C78.6,104.3,78.2,104.4,77.7,104.4z"/>
</g>
</svg>
