<?xml version="1.0" encoding="utf-8"?>
<!-- Generator: Adobe Illustrator 24.3.0, SVG Export Plug-In . SVG Version: 6.00 Build 0)  -->
<svg version="1.1" id="Layer_1" xmlns="http://www.w3.org/2000/svg" xmlns:xlink="http://www.w3.org/1999/xlink" x="0px" y="0px"
	 viewBox="0 0 120 126" style="enable-background:new 0 0 120 126;" xml:space="preserve">
<style type="text/css">
	.st0{fill:#050505;}
	.st1{fill:#231F20;}
	.st2{fill:#070707;}
	.st3{enable-background:new    ;}
</style>
<g>
	<g id="XMLID_548_">
		<path class="st0" d="M75.1,79.1c-0.8,0-1.4,0-1.5-0.1c-0.5,0-1.6-0.2-1.6-1.3c0-0.7-0.1-3.5-0.1-3.6c0-0.3-0.2-8.5-0.1-9.7
			c-0.1-0.4-0.5-3.1-0.3-7.5c-0.1-0.4-0.6-3.3-0.3-6.7c0-0.3-0.1-1.6-0.2-3.3c-0.1,2.3-0.3,4.2-0.3,4.4c-0.1,0.3-0.1,2.2,0.1,5.8
			c0.3,3.2,0.4,8.6,0.5,9.1c0.1,0.2,0.3,1.6,0.3,3.3c0.1,2.5-0.3,4.6-1.2,6.2l-0.1,0.1c-0.1,0.1-3.3,3.3-12,3c0,0,0,0-0.1,0
			c-1.7-0.3-5-0.8-5.4-0.9c0,0-3.3-0.5-3.8-0.8c-0.1,0-0.1-0.1-0.3-0.1c-0.9-0.3-3.3-1.2-3.3-4.6c-0.1-0.4-0.5-5,0.3-8.8
			c-0.1-0.7-0.5-6.3-0.3-8.4c0.3-2.1,0.4-5.7,0.3-6.7c0-0.1-0.1-0.5-0.1-1c-0.1-0.9-0.2-1.8-0.3-2.7c-0.1,2.9-0.1,5.2-0.1,5.4
			c0.1,0.4-0.1,2.7-0.3,5.3C45,56.2,45,56.8,45,57c0,0,0,0.1,0,0.3c0.1,4,0.1,6.5-0.1,7.8c-0.1,0.9-0.1,2.4-0.1,3.6
			c0,1.8,0,2.7-0.2,3.1s-0.2,1.6-0.1,2.3v0.1l-0.1,4.4c0,0.2-0.2,0.3-0.3,0.3c-5.5,0.1-5.8,0-5.9-0.1S38,78.6,38,78.5
			c0-1.4,0-4.3-0.1-4.9c-0.1-0.5-0.7-12.2-0.6-23.7c0.1-6.9,0.3-12.5,0.8-16.6c0.6-5.4,1.6-8.4,3-9.2l0,0c0,0,4.8-2.9,5.9-3.6
			c1.4-0.8,3.5-2.4,4-3V17c0,0,0,0,0-0.1s0.4-3.2,2.4-3.3c1.6-0.1,9.1,0,9.5,0c0.5,0,1.6,0.3,1.9,1.7l0,0c0.1,0.6,0.5,2.2,1,2.7
			c0.6,0.5,6.3,4,8.5,5.2c0,0,0,0,0.1,0.1c0.2,0.1,4.7,4,4.5,14.1c0.1,1.1,0.8,24.2,0.5,27.3l-0.3,9.2L79,78.7
			c0,0.2-0.1,0.3-0.4,0.3C77.8,79,76.3,79.1,75.1,79.1z M71.1,38.6L71.1,38.6c0.2,0,0.4,0.2,0.4,0.4C71.4,41.2,72,50.1,72,50.2v0.1
			c-0.3,3.5,0.3,6.5,0.3,6.5v0.1c-0.3,4.6,0.3,7.4,0.3,7.4c0,0.1,0,0.1,0,0.1c-0.1,0.8,0,6.7,0.1,9.7c0,0.1,0.1,2.9,0.1,3.6
			c0,0.3,0.3,0.4,0.9,0.5c0.3,0.1,2.3,0,4.2,0l0.1-4.4l0.3-9.2l0,0c0.3-2.9-0.5-26.9-0.5-27.2l0,0C78,28,74,24.2,73.7,24
			c-0.6-0.3-7.8-4.6-8.6-5.3c-0.9-0.8-1.2-2.9-1.3-3.1c-0.3-1.2-1.1-1.1-1.2-1.1l0,0c-0.1,0-7.8-0.1-9.5,0c-1.1,0.1-1.6,2-1.7,2.7
			v0.5c0,0.1,0,0.1-0.1,0.2c-0.5,0.9-3.4,2.8-4.3,3.4c-1.2,0.7-5.9,3.6-5.9,3.6c-1.2,0.8-3.3,5-3.4,25.2
			c-0.1,11.8,0.5,23.3,0.6,23.7c0.1,0.7,0.1,3.7,0.1,4.7c0.8,0.1,3.2,0,5-0.1l0.3-4.2c0-0.3-0.1-2,0.2-2.7c0.1-0.3,0.1-1.7,0.1-2.9
			c0-1.2,0-2.7,0.1-3.7c0.1-0.8,0.2-2.9,0.1-7.7c0-0.1,0-0.3,0-0.3c0-0.1,0-0.4,0.1-1.4c0.1-1.7,0.3-4.8,0.3-5.2
			c-0.1-0.5,0.3-9,0.3-12.5c0-0.7,0-1.2,0.1-1.4s0.2-0.3,0.4-0.3s0.3,0.2,0.3,0.4c0,0.5,0,0.9-0.1,1.4c0.1,2.5,0.6,7.6,0.8,9.5
			c0.1,0.5,0.1,0.9,0.1,1c0.1,1.2-0.1,4.7-0.3,6.9c-0.3,2.1,0.3,8.2,0.3,8.2c0,0.1,0,0.1,0,0.1c-0.9,3.8-0.3,8.6-0.3,8.6s0,0,0,0.1
			c0.1,2.8,2,3.5,2.9,3.9c0.1,0.1,0.3,0.1,0.3,0.1c0.3,0.2,2.9,0.6,3.5,0.7c0.4,0.1,4.9,0.8,5.4,0.9c4.4,0.1,7.2-0.6,8.9-1.3
			c1.6-0.6,2.4-1.3,2.5-1.4c1.8-3.5,0.8-8.9,0.8-9v-0.1c0-0.1-0.2-5.7-0.5-9c-0.2-3-0.3-5.4-0.1-6c0.1-0.4,0.5-7.5,0.7-12.1
			C70.7,38.8,70.9,38.6,71.1,38.6z"/>
	</g>
	<g id="XMLID_547_">
		<path class="st0" d="M45.5,35.8C45.5,35.8,45.5,35.7,45.5,35.8c-0.6-2.9-2.4-7.1-3.1-8.8c-0.1-0.3-0.2-0.4-0.3-0.5
			c-0.4-1-1-1.5-1-1.5v-0.1h0.1c0,0,0.5,0.5,1,1.5c0.1,0.1,0.1,0.3,0.2,0.5c0.7,1.6,2.5,5.8,3.1,8.7C45.5,35.7,45.5,35.8,45.5,35.8
			L45.5,35.8z"/>
	</g>
	<g id="XMLID_545_">
		<path class="st0" d="M71.2,37.9L71.2,37.9C71.1,37.9,71.1,37.8,71.2,37.9c-0.1-0.1,1.1-3.8,1.4-4.5c0.3-0.9,2-6.5,1.8-8
			c0-0.1,0-0.1,0.1-0.1s0.1,0,0.1,0.1c0.2,1.5-1.6,7.4-1.8,8C72.4,34.1,71.2,37.8,71.2,37.9L71.2,37.9z"/>
	</g>
	<g id="XMLID_544_">
		<path class="st0" d="M58.1,77.8C58,77.8,58,77.8,58.1,77.8L57.6,77v-0.1c0-0.1,0.1-15.4,0-16.7c-0.1-1.4-0.6-21-0.5-22.5
			c0-0.3,0-1.2,0.1-2.3c0-4.8,0.1-9.9,0.4-10.6c0.2-0.5,0.4-0.9,0.6-1.2c0.1-0.2,0.3-0.3,0.3-0.6c0-0.1,0.1-0.1,0.1-0.3
			c0.2-0.5,0.5-1.2,0.4-1.6c-0.1-0.5,0.1-3.1,2.2-3.3c0.6-0.1,2.2-0.3,2.7-0.8c0.1-0.1,0.1-0.1,0.2,0s0.1,0.1,0,0.2
			c-0.6,0.7-2.7,0.9-2.8,0.9c-1.8,0.3-2,2.6-1.9,3.1s-0.2,1.2-0.5,1.7c-0.1,0.1-0.1,0.2-0.1,0.3c-0.1,0.3-0.2,0.4-0.3,0.6
			c-0.2,0.3-0.3,0.5-0.5,1.1c-0.3,0.7-0.3,7.1-0.4,10.5c0,1.1,0,2-0.1,2.3c-0.1,1.4,0.4,21.1,0.5,22.4c0.1,1.2,0,15.7,0,16.7
			l0.3,0.7C58.3,77.7,58.3,77.7,58.1,77.8C58.2,77.8,58.1,77.8,58.1,77.8z"/>
	</g>
	<g id="XMLID_543_">
		<path class="st0" d="M61.6,22.6C61.6,22.6,61.5,22.6,61.6,22.6c-0.1,0-0.1-0.1-0.1-0.1c0.1-1.4,0.1-3.8,0-4.1c0-0.1,0-0.1,0.1-0.1
			s0.1,0,0.1,0.1c0.1,0.3,0.1,2.8,0,3.8l3.1-3.4c0.1-0.1,0.1-0.1,0.2,0s0.1,0.1,0,0.2L61.6,22.6C61.7,22.6,61.6,22.6,61.6,22.6z"/>
	</g>
	<g id="XMLID_542_">
		<path class="st0" d="M58.5,21.4C58.5,21.4,58.4,21.4,58.5,21.4c-0.1-0.1-1.6-1.6-2.3-2.2c-0.4-0.3-0.8-0.5-1-0.5
			c-0.1-0.1-0.3-0.1-0.3-0.2l-0.1-0.1c-0.5-0.4-1.9-1.8-2-3.8c0-0.1,0.1-0.1,0.1-0.1l0.1,0.1c0.1,1.9,1.5,3.2,2,3.6
			c0.1,0.1,0.1,0.1,0.1,0.1c0.1,0.1,0.1,0.1,0.3,0.1c0.2,0.1,0.5,0.3,1,0.6c0.8,0.5,2.2,2,2.2,2.1c0.1,0.1,0.1,0.1,0,0.2
			S58.5,21.4,58.5,21.4z"/>
	</g>
	<g id="XMLID_541_">
		<path class="st0" d="M55.1,22.3c-0.1,0-0.3,0-3.6-3.9c-0.1-0.1-0.1-0.1,0-0.2s0.1-0.1,0.2,0c1.1,1.3,2.9,3.3,3.3,3.7
			c0.1-0.4,0.1-1.8,0-3.1c0-0.1,0.1-0.1,0.1-0.1l0.1,0.1c0.1,1.4,0.1,3.2-0.1,3.3C55.1,22.3,55.1,22.3,55.1,22.3z"/>
	</g>
	<g id="XMLID_540_">
		<path class="st0" d="M63.5,17.1L63.5,17.1C63,17,57.6,17,54,17.1c-0.1,0-0.2-0.1-0.2-0.2c0-0.1,0.1-0.2,0.2-0.2
			c2.1-0.1,9.1-0.2,9.6,0c0.1,0.1,0.1,0.1,0.1,0.3C63.6,17,63.6,17.1,63.5,17.1z"/>
	</g>
	<g id="XMLID_539_">
		<ellipse class="st1" cx="58.5" cy="25" rx="0.3" ry="0.4"/>
	</g>
	<g id="XMLID_538_">
		<ellipse class="st1" cx="58.3" cy="33" rx="0.5" ry="0.4"/>
	</g>
	<g id="XMLID_537_">
		<ellipse class="st1" cx="58.3" cy="41.3" rx="0.5" ry="0.4"/>
	</g>
	<g id="XMLID_536_">
		<ellipse class="st1" cx="58.6" cy="49.5" rx="0.5" ry="0.4"/>
	</g>
	<g id="XMLID_535_">
		<ellipse class="st1" cx="58.7" cy="57.7" rx="0.5" ry="0.4"/>
	</g>
	<g id="XMLID_534_">
		<ellipse class="st1" cx="58.7" cy="66" rx="0.5" ry="0.4"/>
	</g>
	<g id="XMLID_529_">
		<g id="XMLID_533_">
			<path class="st2" d="M67.3,29.5c0-0.1,0.1-0.1,0.1-0.1l0.1,0.1l-0.1,0.1C67.3,29.6,67.3,29.6,67.3,29.5 M67.4,29.6
				C67.4,29.6,67.4,29.5,67.4,29.6c0.1-0.1,0-0.1,0-0.1C67.3,29.4,67.3,29.5,67.4,29.6C67.3,29.6,67.4,29.6,67.4,29.6 M67.4,29.6
				L67.4,29.6v-0.1h0.1c0,0,0.1,0,0.1,0.1C67.4,29.5,67.4,29.5,67.4,29.6L67.4,29.6L67.4,29.6L67.4,29.6L67.4,29.6L67.4,29.6z
				 M67.4,29.5L67.4,29.5C67.4,29.4,67.4,29.4,67.4,29.5L67.4,29.5L67.4,29.5L67.4,29.5z"/>
		</g>
		<g id="XMLID_532_">
			<path class="st2" d="M66.3,29.5L66.3,29.5c0.1,0,0-0.2-0.1-0.3c0.1,0,0.1,0,0.1,0C66.4,29.3,66.4,29.4,66.3,29.5
				c0.1-0.1,0.2-0.2,0.3-0.2c0,0,0.1,0,0.1,0.1l-0.2,0.2l0.1,0.2c0,0,0.1-0.2,0.3-0.3c0,0,0.1,0,0.1,0.1s-0.1,0.1-0.1,0.1
				c0.1,0,0.2,0,0.3,0l0.1,0.1H67L66.9,30H67c0,0,0.1-0.1,0.3-0.1l0.1,0.1l-0.3,0.1L66.7,30c0,0.1,0,0.1-0.1,0.1
				C66.8,30,67,30,67.2,30c0.1,0.3,0.1,0.6-0.1,0.9c-0.5,0.1-1.2-0.1-1.8,0.1h-0.2c-0.1-0.1-0.2-0.3-0.2-0.5s0-0.4,0.1-0.6h0.3
				l-0.1-0.2l0.1-0.1c0.1,0.1,0.3,0.3,0.3,0.3h0.1l-0.3-0.3c0-0.1,0.1-0.1,0.1-0.1l0.2,0.1c0,0,0-0.1,0-0.2c0.1,0,0.1-0.1,0.1-0.1
				c0.1,0.1,0.1,0.1,0.1,0.3c0.1-0.1,0.1-0.2,0.1-0.3l0,0L66.3,29.5z M66.1,29.4L66,29.6l0.1,0.2l0.1-0.1v-0.2
				C66.1,29.5,66.1,29.4,66.1,29.4 M65.7,29.4v0.1h0.1C65.8,29.5,65.7,29.4,65.7,29.4 M65.5,29.6L65.5,29.6c0.1,0.1,0.2,0.2,0.2,0.2
				v-0.2H65.5z M66.3,29.6L66.3,29.6L66.3,29.6L66.3,29.6L66.3,29.6z M65.7,29.6v0.2V29.6L65.7,29.6z M66.8,29.7L66.8,29.7l-0.2,0.2
				h0.1L66.8,29.7z M66.3,29.9v0.2V29.9l0.1-0.1v-0.1L66.3,29.9z M65.9,29.9L65.9,29.9v0.2C65.9,30,65.9,29.9,65.9,29.9 M66.1,29.9
				L66.1,29.9L66,30h0.1V29.9z M65.5,29.9L65.4,30l0.2,0.1l0.1-0.1L65.5,29.9L65.5,29.9z M65.1,30l0.1,0.1l0.1-0.1H65.1z M66.5,30
				l-0.1,0.1h0.1V30L66.5,30z M65.8,30.1l-0.3,0.2h-0.1l0.1-0.1c-0.1,0-0.1-0.1-0.1-0.1l-0.1,0.1h-0.1c0,0.1,0,0.2,0.1,0.3
				c0,0,0,0.1,0.1,0.1c0.3,0,0.5,0.1,0.8,0.1v-0.5L66,30.3l-0.1,0.1h-0.3C65.6,30.3,65.8,30.2,65.8,30.1
				C65.9,30.1,65.9,30.1,65.8,30.1 M65.1,30.1c0,0.1,0,0.1,0,0.1S65.2,30.1,65.1,30.1L65.1,30.1z M67.2,30.1H67
				c0,0.1,0.1,0.1,0.1,0.1H67l-0.1-0.1c-0.1,0-0.2,0.1-0.2,0.1l0.1,0.1v0.1l-0.1-0.1c0,0-0.3,0.1-0.4,0.1l0,0c0,0.1,0,0.3,0,0.4l0,0
				c0.2,0.1,0.5,0.1,0.8,0.1l0,0c0.1-0.1,0.1-0.2,0.1-0.3C67.2,30.5,67.2,30.3,67.2,30.1"/>
		</g>
		<g id="XMLID_531_">
			<path class="st2" d="M67.1,30.9C67,31,67,31.1,66.8,31.2c-0.5,0-1-0.1-1.6-0.1c0,0-0.1,0-0.1-0.1c0.4-0.1,0.8,0,1.2,0
				S66.9,31,67.1,30.9L67.1,30.9z"/>
		</g>
		<g id="XMLID_530_">
			<path class="st2" d="M66.3,31.2c0.1,0,0.3,0,0.5,0.1c-0.3,0.2-0.8,0.2-1.2,0c-0.1-0.1-0.2-0.1-0.3-0.2c0,0,0,0,0.1,0h0.2
				L66.3,31.2z"/>
		</g>
	</g>
	<g id="XMLID_292_">
		<path class="st0" d="M43.5,73.8h-0.3c-0.1,0-0.1,0-0.1-0.1s0-0.1,0.1-0.1h0.3C43.6,73.7,43.6,73.7,43.5,73.8
			C43.6,73.8,43.6,73.8,43.5,73.8z M43,73.8h-0.3c-0.1,0-0.1,0-0.1-0.1s0-0.1,0.1-0.1H43C43,73.7,43.1,73.7,43,73.8
			C43.1,73.8,43,73.8,43,73.8z M42.5,73.8h-0.3c-0.1,0-0.1,0-0.1-0.1s0-0.1,0.1-0.1h0.3C42.5,73.7,42.5,73.7,42.5,73.8L42.5,73.8z
			 M42,73.8h-0.3c-0.1,0-0.1,0-0.1-0.1s0-0.1,0.1-0.1H42C42,73.7,42.1,73.7,42,73.8C42.1,73.8,42,73.8,42,73.8z M41.4,73.8h-0.3
			c-0.1,0-0.1,0-0.1-0.1s0-0.1,0.1-0.1h0.3C41.5,73.7,41.5,73.7,41.4,73.8C41.5,73.8,41.5,73.8,41.4,73.8z M41,73.8h-0.3
			c-0.1,0-0.1,0-0.1-0.1s0-0.1,0.1-0.1H41C41,73.7,41,73.7,41,73.8L41,73.8z M40.4,73.8h-0.3c-0.1,0-0.1,0-0.1-0.1s0-0.1,0.1-0.1
			h0.3C40.5,73.7,40.5,73.7,40.4,73.8C40.5,73.8,40.5,73.8,40.4,73.8z M40,73.8h-0.3c-0.1,0-0.1,0-0.1-0.1s0-0.1,0.1-0.1H40
			C40,73.7,40,73.7,40,73.8L40,73.8z M39.4,73.8h-0.3c-0.1,0-0.1,0-0.1-0.1s0-0.1,0.1-0.1h0.3C39.5,73.7,39.5,73.7,39.4,73.8
			C39.5,73.8,39.5,73.8,39.4,73.8z M38.9,73.8h-0.3c-0.1,0-0.1,0-0.1-0.1s0-0.1,0.1-0.1h0.3C38.9,73.7,39,73.7,38.9,73.8
			C39,73.8,38.9,73.8,38.9,73.8z"/>
	</g>
	<g id="XMLID_291_">
		<path class="st0" d="M75.7,74.2L75.7,74.2C75.6,74.1,75.6,74.1,75.7,74.2L75.7,74.2c0.1-0.1,0.1-0.1,0.3-0.1l0,0
			c0.1,0,0.1,0,0.1,0.1s0,0.1-0.1,0.1S75.8,74.2,75.7,74.2z M75.5,74.2L75.5,74.2h-0.3c-0.1,0-0.1,0-0.1-0.1s0-0.1,0.1-0.1l0,0h0.3
			C75.5,74.1,75.5,74.1,75.5,74.2L75.5,74.2z M76.3,74.2C76.2,74.2,76.2,74.2,76.3,74.2C76.2,74.1,76.2,74.1,76.3,74.2
			c0.1-0.1,0.2-0.1,0.3-0.1c0,0,0.1,0,0.1,0.1s0,0.1-0.1,0.1C76.4,74.2,76.3,74.2,76.3,74.2L76.3,74.2z M75,74.2L75,74.2h-0.3
			c-0.1,0-0.1,0-0.1-0.1s0-0.1,0.1-0.1H75C75,74.1,75.1,74.1,75,74.2C75.1,74.2,75,74.2,75,74.2z M74.4,74.2L74.4,74.2h-0.3
			c-0.1,0-0.1,0-0.1-0.1s0-0.1,0.1-0.1h0.3C74.5,74.1,74.5,74.1,74.4,74.2C74.5,74.2,74.5,74.2,74.4,74.2z M76.8,74.2
			C76.8,74.2,76.7,74.2,76.8,74.2C76.7,74.1,76.7,74.1,76.8,74.2c0.1-0.1,0.2-0.1,0.3-0.1s0.1,0,0.1,0.1s0,0.1-0.1,0.1
			S76.8,74.2,76.8,74.2L76.8,74.2z M74,74.2L74,74.2h-0.3c-0.1,0-0.1,0-0.1-0.1s0-0.1,0.1-0.1H74C74,74.1,74,74.1,74,74.2
			C74,74.1,74,74.2,74,74.2z M73.4,74.2L73.4,74.2h-0.3c-0.1,0-0.1,0-0.1-0.1s0-0.1,0.1-0.1h0.3C73.5,74.1,73.5,74.1,73.4,74.2
			C73.5,74.1,73.5,74.2,73.4,74.2z M77.2,74.1L77.2,74.1C77.1,74,77.1,74,77.2,74.1C77.3,74,77.3,74,77.2,74.1
			c0.1-0.1,0.2-0.1,0.2,0S77.4,74.2,77.2,74.1C77.4,74.1,77.3,74.1,77.2,74.1C77.3,74.1,77.3,74.1,77.2,74.1z M72.9,74.1L72.9,74.1
			h-0.3c-0.1,0-0.1,0-0.1-0.1s0-0.1,0.1-0.1h0.3C73,74,73,74.1,72.9,74.1C73,74.1,72.9,74.1,72.9,74.1z"/>
	</g>
	<g id="XMLID_290_">
		<ellipse class="st1" cx="54.7" cy="21.1" rx="0.3" ry="0.4"/>
	</g>
	<g id="XMLID_289_">
		<ellipse class="st1" cx="62.1" cy="21.1" rx="0.3" ry="0.4"/>
	</g>
	<g id="XMLID_288_">
		<path class="st0" d="M57.8,23.8L57.8,23.8c-0.1-0.1-1.4-2.1-2.2-2.1c-0.1,0-0.1,0-0.1-0.1s0-0.1,0.1-0.1
			C56.5,21.5,57.8,23.6,57.8,23.8C57.9,23.7,57.9,23.8,57.8,23.8C57.9,23.8,57.8,23.8,57.8,23.8z"/>
	</g>
	<g id="XMLID_287_">
		<path class="st0" d="M58.5,23.8C58.4,23.8,58.4,23.8,58.5,23.8c-0.1-0.1-0.1-0.2-0.1-0.3s2.1-1.8,2.9-2.2c0.1,0,0.1,0,0.1,0.1
			s0,0.1-0.1,0.1c-0.8,0.3-2.7,2.1-2.8,2.1C58.5,23.8,58.5,23.8,58.5,23.8z"/>
	</g>
</g>
<g class="st3">
	<path d="M44.6,104.3v-7.8h2.6c0.4,0,0.8,0,1.1,0.1c0.4,0.1,0.7,0.2,0.9,0.4c0.3,0.2,0.5,0.4,0.6,0.7s0.2,0.7,0.2,1.1
		c0,0.6-0.1,1.1-0.4,1.5c-0.3,0.4-0.7,0.6-1.1,0.8l1.9,3.3h-1.6l-1.7-3.1h-1.2v3.1L44.6,104.3L44.6,104.3z M46,100.1h1.1
		c0.5,0,1-0.1,1.2-0.3c0.3-0.2,0.4-0.6,0.4-1c0-0.5-0.1-0.8-0.4-0.9c-0.3-0.2-0.7-0.3-1.2-0.3H46V100.1z"/>
	<path d="M54.4,104.4c-0.5,0-0.9-0.1-1.3-0.3c-0.4-0.2-0.7-0.4-1-0.8s-0.5-0.8-0.6-1.3c-0.2-0.5-0.2-1.1-0.2-1.8
		c0-0.6,0.1-1.2,0.2-1.7c0.2-0.5,0.4-0.9,0.6-1.3c0.3-0.3,0.6-0.6,1-0.8c0.4-0.2,0.8-0.3,1.3-0.3s0.9,0.1,1.3,0.3
		c0.4,0.2,0.7,0.4,1,0.8c0.3,0.3,0.5,0.8,0.6,1.3c0.2,0.5,0.2,1.1,0.2,1.7c0,0.7-0.1,1.2-0.2,1.8c-0.2,0.5-0.4,0.9-0.6,1.3
		c-0.3,0.3-0.6,0.6-1,0.8S54.8,104.4,54.4,104.4z M54.4,103.2c0.5,0,0.9-0.2,1.2-0.8c0.3-0.5,0.4-1.2,0.4-2.1s-0.1-1.6-0.4-2.1
		c-0.3-0.5-0.7-0.7-1.2-0.7s-0.9,0.2-1.2,0.7s-0.5,1.2-0.5,2.1s0.2,1.6,0.5,2.1S53.9,103.2,54.4,103.2z"/>
	<path d="M59,104.3v-7.8h2.6c0.4,0,0.8,0,1.2,0.1s0.7,0.2,0.9,0.4c0.3,0.2,0.5,0.4,0.6,0.8c0.2,0.3,0.2,0.7,0.2,1.1
		s-0.1,0.8-0.2,1.1c-0.2,0.3-0.4,0.6-0.6,0.8c-0.3,0.2-0.6,0.4-0.9,0.5c-0.4,0.1-0.8,0.2-1.2,0.2h-1.2v2.9L59,104.3L59,104.3z
		 M60.4,100.3h1.1c1.2,0,1.7-0.5,1.7-1.4c0-0.5-0.1-0.8-0.4-1c-0.3-0.2-0.7-0.3-1.3-0.3h-1.1C60.4,97.6,60.4,100.3,60.4,100.3z"/>
	<path d="M65.4,104.3l2.5-7.8h1.6l2.5,7.8h-1.5l-0.6-2.1h-2.6l-0.6,2.1H65.4z M68,100.1l-0.3,1h2l-0.3-1c-0.1-0.4-0.2-0.8-0.3-1.3
		c-0.1-0.4-0.2-0.9-0.3-1.3l0,0c-0.1,0.4-0.2,0.9-0.3,1.3C68.3,99.3,68.2,99.7,68,100.1z"/>
</g>
</svg>
