<?xml version="1.0" encoding="utf-8"?>
<!-- Generator: Adobe Illustrator 24.3.0, SVG Export Plug-In . SVG Version: 6.00 Build 0)  -->
<svg version="1.1" id="Layer_1" xmlns="http://www.w3.org/2000/svg" xmlns:xlink="http://www.w3.org/1999/xlink" x="0px" y="0px"
	 viewBox="0 0 120 126" style="enable-background:new 0 0 120 126;" xml:space="preserve">
<style type="text/css">
	.st0{fill:none;}
	.st1{fill:#FFFFFF;}
	.st2{enable-background:new    ;}
</style>
<g id="expanded_3_">
	<path class="st0" d="M73.4,35.8v-0.4c-0.1-1.9-0.1-2.8-1.8-5.1c-1.8-2.6-3.5-3.9-5.9-4.4c-0.6-0.1-1.2-0.3-1.7-0.4
		c-1.7-0.4-3-0.8-5.4-0.8c-3.2,0-6.4,0.7-8.4,1.9c-3,1.8-4,3.1-4.7,4.8c-1,2.4-1.9,11.7-1.8,13.3c0,0.7,0.2,1.5,0.3,2.2
		c0.1,0.9,0.3,1.8,0.3,2.5c0,0.8,0,2.6,0,4.2c0,0.7,0,1.4,0,1.9c0.9,0.1,5,0.5,6.9,0.6c2.2,0.1,8.7,0.3,11.2,0.2
		c2.5,0,9.3-0.1,9.3-0.1l1.7-0.1c0-0.7,0-1.3,0.1-2c0.1-1.6,0.3-6.8,0.3-9C73.7,43,73.5,37.9,73.4,35.8z M44.6,55.2l-0.4-0.1v0.1
		c0,0,0,0,0-0.1l0,0l0,0l0,0l0.4-0.1C44.6,55,44.7,55,44.6,55.2L44.6,55.2C44.7,55.2,44.7,55.2,44.6,55.2L44.6,55.2z M45.2,55.3
		l-0.4-0.1l0,0l0.4-0.1C45.2,55.1,45.3,55.1,45.2,55.3C45.3,55.3,45.2,55.3,45.2,55.3L45.2,55.3z M45.8,55.3l-0.4-0.1l0,0l0,0l0,0
		c0-0.1,0.1-0.1,0,0l0.4-0.1C45.8,55.1,45.9,55.1,45.8,55.3C45.9,55.3,45.8,55.3,45.8,55.3L45.8,55.3z M46.5,55.3l-0.4-0.1l0,0l0,0
		l0,0l0,0l0,0l0.4-0.1C46.5,55.1,46.6,55.1,46.5,55.3C46.6,55.3,46.6,55.4,46.5,55.3L46.5,55.3L46.5,55.3z M47.1,55.5l-0.4-0.1v0.1
		c0,0,0,0,0-0.1l0,0l0,0l0,0l0.4-0.1C47.1,55.3,47.2,55.3,47.1,55.5L47.1,55.5C47.2,55.4,47.1,55.5,47.1,55.5L47.1,55.5L47.1,55.5z
		 M52.2,40.7l-0.1,0.4l0,0L52,40.7c0,0,0-0.1,0.1-0.1S52.2,40.6,52.2,40.7L52.2,40.7L52.2,40.7z M52,49.2C51.9,49,51.9,49,51.9,49
		v-0.1c0,0,0-0.1,0.1-0.1c0,0,0.1,0,0.1,0.1V49C52.1,49.1,52.1,49.2,52,49.2C52.1,49.2,52.1,49.2,52,49.2z M51.9,51.7L51.9,51.7
		l-0.1-0.4c0,0,0-0.1,0.1-0.1c0,0,0.1,0,0.1,0.1L51.9,51.7L51.9,51.7z M51.9,51.1C51.8,51.1,51.8,51,51.9,51.1l-0.1-0.4
		c0,0,0-0.1,0.1-0.1s0.1,0,0.1,0.1l0,0L51.9,51.1z M51.9,50.4L51.9,50.4L51.8,50c0,0,0-0.1,0.1-0.1c0,0,0.1,0,0.1,0.1L51.9,50.4z
		 M52,49.8L52,49.8l-0.2-0.4c0,0,0-0.1,0.1-0.1c0,0,0.1,0,0.1,0.1l0,0L52,49.8L52,49.8z M52.1,33.6L52.1,33.6l-0.2-0.4
		c0,0,0-0.1,0.1-0.1c0,0,0.1,0,0.1,0.1L52.1,33.6L52.1,33.6z M52,34.4C52,34.4,52.1,34.4,52,34.4L52,34.4v0.5c0.1-0.1,0.1,0,0,0l0,0
		l0,0l-0.1-0.3C51.9,34.5,51.9,34.4,52,34.4L52,34.4z M52,37.9L52,37.9l-0.1-0.4c0,0,0-0.1,0.1-0.1c0,0,0.1,0,0.1,0.1l0,0L52,37.9
		L52,37.9z M52,40.5L52,40.5L52,40.5L52,40.5l-0.1-0.4c0,0,0-0.1,0.1-0.1l0,0c0.1,0,0.1,0,0.1,0.1L52,40.5
		C52.1,40.4,52.1,40.5,52,40.5L52,40.5z M52,39.8L52,39.8l-0.1-0.3c0,0,0-0.1,0.1-0.1c0,0,0.1,0,0.1,0.1L52,39.8z M52,39.2L52,39.2
		l-0.1-0.4c0,0,0-0.1,0.1-0.1s0.1,0,0.1,0.1l0,0L52,39.2z M52,37.3L52,37.3c-0.1-0.1-0.1-0.3-0.1-0.4c0,0,0-0.1,0.1-0.1
		c0,0,0.1,0,0.1,0.1C52.1,37.1,52.1,37.2,52,37.3L52,37.3z M52,36.7L52,36.7L52,36.7L52,36.7C51.9,36.7,51.9,36.6,52,36.7l-0.1-0.4
		c0,0,0-0.1,0.1-0.1c0,0,0.1,0,0.1,0.1L52,36.7z M52,36L52,36l-0.1-0.4c0,0,0-0.1,0.1-0.1c0,0,0.1,0,0.1,0.1l0,0L52,36z M52,48.6
		L52,48.6l-0.1-0.4c0,0,0-0.1,0.1-0.1c0,0,0.1,0,0.1,0.1l0,0L52,48.6z M52,48L52,48l-0.1-0.4c0,0,0-0.1,0.1-0.1c0,0,0.1,0,0.1,0.1
		L52,48z M52,47.4C51.9,47.4,51.9,47.3,52,47.4L51.9,47c0,0,0-0.1,0.1-0.1c0,0,0.1,0,0.1,0.1l0,0L52,47.4z M52,46.7L52,46.7
		l-0.1-0.4c0,0,0-0.1,0.1-0.1c0,0,0.1,0,0.1,0.1L52,46.7z M52,46.1L52,46.1l-0.1-0.4c0,0,0-0.1,0.1-0.1c0,0,0.1,0,0.1,0.1L52,46.1z
		 M52,45.5C51.9,45.5,51.9,45.4,52,45.5l-0.1-0.4c0,0,0-0.1,0.1-0.1s0.1,0,0.1,0.1l0,0L52,45.5z M52.1,44.8L52.1,44.8l-0.2-0.4
		c0,0,0-0.1,0.1-0.1c0,0,0.1,0,0.1,0.1L52.1,44.8L52.1,44.8z M52,44.2v-0.4c0,0,0-0.1,0.1-0.1l0,0c0,0,0.1,0,0.1,0.1l0,0L52,44.2
		C52.2,44.1,52.2,44.2,52,44.2L52,44.2z M52.1,43.6L52,43.2c0,0,0-0.1,0.1-0.1l0,0c0,0,0.1,0,0.1,0.1l0,0L52.1,43.6
		C52.2,43.5,52.2,43.6,52.1,43.6L52.1,43.6z M52,38.6L52,38.6L52,38.6L52,38.6L52,38.6L52,38.6L52,38.6l-0.1-0.4c0,0,0-0.1,0.1-0.1
		s0.1,0,0.1,0.1l0,0L52,38.6z M52,35.5L52,35.5l-0.1-0.4c0,0,0-0.1,0.1-0.1c0,0,0.1,0,0.1,0.1l0,0L52,35.5z M52,34.2L52,34.2
		L52,34.2l-0.1-0.4c0,0,0-0.1,0.1-0.1c0,0,0.1,0,0.1,0.1L52,34.2z M52,33C52.1,32.9,52.1,33,52,33L52,33L52,33L52,33l-0.1-0.4
		c0,0,0-0.1,0.1-0.1c0,0,0.1,0,0.1,0.1l0,0L52,33z M52.1,32L52,32.4l0,0L51.9,32c0,0,0-0.1,0.1-0.1C52,31.9,52.1,31.9,52.1,32
		L52.1,32z M51.9,31.7L51.9,31.7l-0.1-0.4c0,0,0-0.1,0.1-0.1c0,0,0.1,0,0.1,0.1l0,0L51.9,31.7z M51.9,30.6c0,0,0.1,0,0.1,0.1l0,0
		l-0.1,0.4l0,0c0.1-0.1,0,0,0,0l0,0c-0.1,0-0.1-0.1,0,0l-0.1-0.4C51.8,30.7,51.8,30.6,51.9,30.6L51.9,30.6L51.9,30.6z M51.5,30.2
		L51.5,30.2L51.5,30.2l0.2,0.4l0,0l0,0l0,0c-0.1,0-0.1,0,0,0l-0.3-0.3C51.4,30.3,51.5,30.3,51.5,30.2L51.5,30.2L51.5,30.2z
		 M50.9,30.1h0.4V30v0.1L51,30.3C51,30.3,50.9,30.3,50.9,30.1C50.8,30.2,50.9,30.1,50.9,30.1L50.9,30.1L50.9,30.1z M50.3,30.1h0.4
		v0.1v-0.1l-0.4,0.1C50.3,30.2,50.2,30.2,50.3,30.1C50.2,30.2,50.3,30.1,50.3,30.1L50.3,30.1L50.3,30.1z M49.7,30.2h0.4l0,0l0,0l0,0
		l0,0l0,0c0,0.1-0.1,0.1,0,0l-0.4,0.1C49.7,30.3,49.6,30.3,49.7,30.2L49.7,30.2C49.7,30.2,49.7,30.2,49.7,30.2L49.7,30.2L49.7,30.2z
		 M49.3,30.6l0.2-0.3h-0.1h0.1l0,0l0,0l0,0v0.4l-0.1,0.1C49.3,30.7,49.2,30.6,49.3,30.6L49.3,30.6z M49.2,30.9L49.2,30.9l0.1,0.4
		c0,0,0,0.1-0.1,0.1c0,0-0.1,0-0.1-0.1l0,0L49.2,30.9L49.2,30.9z M49.2,31.5C49.3,31.5,49.3,31.6,49.2,31.5l0.1,0.4
		c0,0,0,0.1-0.1,0.1c0,0-0.1,0-0.1-0.1l0,0L49.2,31.5z M49.2,32.2L49.2,32.2l0.1,0.4c0,0,0,0.1-0.1,0.1l0,0c0,0-0.1,0-0.1-0.1l0,0
		L49.2,32.2z M49.2,32.8L49.2,32.8l0.1,0.4c0,0,0,0.1-0.1,0.1c0,0-0.1,0-0.1-0.1l0,0L49.2,32.8z M49,33.6c0-0.1,0-0.2,0.1-0.3
		c-0.1,0.1-0.1,0,0,0c0.1,0.2,0.1,0.2,0.1,0.3v0.1c0,0,0,0.1-0.1,0.1c0,0-0.1,0-0.1-0.1l0,0V33.6z M49.1,34L49.1,34l0.1,0.4
		c0,0,0,0.1-0.1,0.1s-0.1,0-0.1-0.1l0,0L49.1,34z M49.1,34.6L49.1,34.6l0.1,0.4c0,0,0,0.1-0.1,0.1l0,0c0,0-0.1,0-0.1-0.1l0,0
		L49.1,34.6z M47.6,55.5l-0.4-0.1c0.1,0.1,0,0.1,0,0l0.4-0.1C47.7,55.3,47.7,55.3,47.6,55.5C47.7,55.4,47.7,55.5,47.6,55.5
		L47.6,55.5L47.6,55.5z M48.4,37.8c0.2-0.7,0.3-1.4,0.6-2.1c0,0-0.1,0-0.1-0.1l0.1-0.4c0.1,0,0.1,0.1,0,0l0.1,0.3
		c0.1-0.1,0.1-0.2,0.2-0.3c0-1.4,0-2.7,0-4.1c-0.1-0.4,0.6-0.6,0.8-0.6c0.3,0,0.9,0,1.2,0.1s0.2,0.4,0.2,0.7c0,2,0,4,0,6
		c0,3.4,0,6.8,0,10.2c0,1,0,2.1,0,3.1c0,0.4,0,0.8-0.3,1c-0.4,0.2-0.9,0.2-1.3,0.1c-0.4-0.1-0.5-0.4-0.5-0.8c0-0.8,0-1.7,0-2.5
		c0-2,0-4,0-5.9c0-0.1,0-0.2,0-0.3c-0.2,0.5-1,0.2-1.4,0.1c0,0-0.1,0-0.1-0.1C47.9,40.7,48.1,39.2,48.4,37.8L48.4,37.8z M50.9,52.3
		L50.9,52.3L50.9,52.3C50.8,52.2,50.9,52.2,50.9,52.3l0.4-0.1c0,0,0.1,0,0.1,0.1c0,0,0,0.1-0.1,0.1l0,0L50.9,52.3L50.9,52.3
		L50.9,52.3L50.9,52.3z M50.6,52.4l-0.4-0.1v-0.1v0.1l0.4-0.1C50.6,52.2,50.7,52.2,50.6,52.4C50.7,52.3,50.7,52.3,50.6,52.4
		L50.6,52.4L50.6,52.4z M49.5,51.9C49.5,51.9,49.5,52,49.5,51.9L49.5,51.9c-0.1,0.1-0.2,0.1-0.2,0l0,0v-0.4l0,0l0,0l0,0l0,0l0,0
		c0.1,0,0.1,0.1,0,0L49.5,51.9z M49,42.8L49,42.8l0.2,0.3c0,0,0,0.1-0.1,0.1c0,0-0.1,0-0.1-0.1l0,0L49,42.8L49,42.8z M49.2,45
		C49.2,45,49.2,45.1,49.2,45C49,45.1,49,45.1,49,45l0,0l0.1-0.4l0,0L49.2,45z M49.1,46.5L49.1,46.5l0.1,0.4c0,0,0,0.1-0.1,0.1
		c0,0-0.1,0-0.1-0.1L49.1,46.5L49.1,46.5z M49.1,46.3C49.1,46.3,49,46.3,49.1,46.3L49.1,46.3v-0.5l0,0l0,0l0,0c0.1,0,0.1,0.1,0,0
		V46.3C49.2,46.3,49.2,46.3,49.1,46.3L49.1,46.3L49.1,46.3z M49.1,45.7C49.1,45.7,49,45.7,49.1,45.7L49.1,45.7
		c-0.1-0.2-0.1-0.4,0-0.5l0,0C49.2,45.4,49.2,45.5,49.1,45.7C49.2,45.7,49.2,45.7,49.1,45.7L49.1,45.7z M49.1,43.4L49.1,43.4
		l0.1,0.4c0,0,0,0.1-0.1,0.1c0,0-0.1,0-0.1-0.1L49.1,43.4z M49.1,44L49.1,44L49.1,44L49.1,44L49.1,44L49.1,44L49.1,44l0.1,0.4
		c0,0,0,0.1-0.1,0.1s-0.1,0-0.1-0.1l0,0L49.1,44z M49.1,47.1L49.1,47.1l0.1,0.4c0,0,0,0.1-0.1,0.1c0,0-0.1,0-0.1-0.1l0,0L49.1,47.1z
		 M49.1,48.4L49.1,48.4L49.1,48.4l0.1,0.4c0,0,0,0.1-0.1,0.1s-0.1,0-0.1-0.1l0,0L49.1,48.4z M49.1,49.6L49.1,49.6L49.1,49.6
		L49.1,49.6l0.1,0.4c0,0,0,0.1-0.1,0.1c0,0-0.1,0-0.1-0.1L49.1,49.6C49,49.7,49,49.6,49.1,49.6L49.1,49.6z M49.1,49.5
		C49.1,49.5,49,49.4,49.1,49.5L49.1,49.5V49l0,0V49.5C49.2,49.4,49.2,49.5,49.1,49.5L49.1,49.5z M49.1,48.2
		C49.1,48.2,49,48.2,49.1,48.2L49.1,48.2v-0.5c-0.1,0.1-0.1,0,0,0l0,0l0,0l0.1,0.3C49.2,48.1,49.2,48.2,49.1,48.2L49.1,48.2z
		 M48.3,55.6l-0.4-0.1l0,0l0.4-0.1C48.3,55.4,48.4,55.4,48.3,55.6C48.4,55.6,48.4,55.6,48.3,55.6C48.4,55.6,48.3,55.6,48.3,55.6
		L48.3,55.6z M48.9,55.6l-0.4-0.1l0,0l0,0l0,0l0.4-0.1C48.9,55.4,49,55.4,48.9,55.6C49,55.5,49,55.6,48.9,55.6L48.9,55.6z M49,50.6
		l0.1-0.4l0,0l0.1,0.4C49.2,50.6,49.2,50.7,49,50.6C49.1,50.7,49,50.7,49,50.6L49,50.6z M49.2,50.9L49.2,50.9l0.1,0.4
		c0,0,0,0.1-0.1,0.1s-0.1,0-0.1-0.1l0,0L49.2,50.9z M49.5,55.6l-0.4-0.1c0.1,0.1,0,0.1,0,0l0,0l0,0l0,0l0.4-0.1
		C49.5,55.4,49.6,55.4,49.5,55.6C49.6,55.6,49.6,55.6,49.5,55.6L49.5,55.6L49.5,55.6z M49.6,52.2l0.4-0.1c0,0,0.1,0,0.1,0.1
		c0,0,0,0.1-0.1,0.1L49.6,52.2L49.6,52.2L49.6,52.2z M50.2,55.6l-0.4-0.1v0.1c0,0,0,0,0-0.1l0.4-0.1C50.2,55.4,50.3,55.4,50.2,55.6
		C50.3,55.6,50.3,55.6,50.2,55.6L50.2,55.6L50.2,55.6z M50.8,55.7l-0.4-0.1l0,0l0.4-0.1C50.8,55.5,50.9,55.5,50.8,55.7
		C50.9,55.7,50.9,55.7,50.8,55.7L50.8,55.7L50.8,55.7z M51.4,55.7L51,55.6l0,0c0-0.1,0.1-0.1,0,0l0.4-0.1c0,0,0.1,0,0.1,0.1
		C51.5,55.7,51.4,55.7,51.4,55.7L51.4,55.7z M51.5,52.3L51.5,52.3L51.5,52.3L51.5,52.3l0.1-0.4c0,0,0.1-0.1,0.1,0l0,0
		c0,0,0.1,0.1,0,0.1l0,0L51.5,52.3L51.5,52.3L51.5,52.3z M52.1,55.8l-0.4-0.1v0.1c0,0,0,0,0-0.1l0,0l0,0l0,0l0.4-0.1
		C52.1,55.6,52.2,55.6,52.1,55.8C52.2,55.7,52.1,55.8,52.1,55.8L52.1,55.8z M52.2,42.6L52.1,43l0,0L52,42.6
		C52,42.5,52,42.5,52.2,42.6L52.2,42.6C52.2,42.5,52.2,42.5,52.2,42.6L52.2,42.6z M52.1,42.4C52.2,42.3,52.2,42.4,52.1,42.4L52,42
		c0,0,0-0.1,0.1-0.1l0,0c0,0,0.1,0,0.1,0.1l0,0L52.1,42.4z M52.1,41.7L52.1,41.7L52,41.4c0,0,0-0.1,0.1-0.1l0,0c0,0,0.1,0,0.1,0.1
		l0,0L52.1,41.7z M52.7,55.8l-0.4-0.2v0.1c0,0,0,0,0-0.1h0.4C52.7,55.7,52.8,55.7,52.7,55.8C52.8,55.8,52.7,55.8,52.7,55.8
		L52.7,55.8L52.7,55.8z M53.3,55.9l-0.4-0.1c0-0.1,0.1-0.1,0,0l0.4-0.1C53.3,55.7,53.4,55.7,53.3,55.9L53.3,55.9
		C53.4,55.8,53.3,55.9,53.3,55.9C53.3,55.8,53.3,55.8,53.3,55.9L53.3,55.9z M53.9,55.9l-0.4-0.1l0,0l0,0l0,0l0.4-0.1
		C53.9,55.7,54,55.7,53.9,55.9C54,55.8,54,55.9,53.9,55.9L53.9,55.9z M54.5,55.9l-0.4-0.1l0,0l0,0l0,0l0.4-0.1
		C54.5,55.7,54.6,55.7,54.5,55.9C54.6,55.8,54.6,55.9,54.5,55.9L54.5,55.9L54.5,55.9z M55.1,55.9L55.1,55.9c-0.2,0-0.3,0-0.4-0.1
		c0.1,0.1,0,0.1,0,0c0.2-0.1,0.2-0.1,0.3-0.1h0.1C55.1,55.7,55.2,55.7,55.1,55.9C55.3,55.8,55.2,55.9,55.1,55.9L55.1,55.9L55.1,55.9
		z M55.8,55.9l-0.4-0.1l0,0l0.4-0.1C55.8,55.7,55.9,55.7,55.8,55.9C55.9,55.9,55.9,55.9,55.8,55.9L55.8,55.9z M56.4,55.9L56,55.8
		l0,0l0.4-0.1c0,0,0.1,0,0.1,0.1C56.5,55.9,56.5,55.9,56.4,55.9L56.4,55.9z M57,55.9l-0.4-0.1c0-0.1,0.1-0.1,0,0l0.4-0.1
		C57,55.7,57.1,55.7,57,55.9C57.1,55.9,57.1,55.9,57,55.9L57,55.9L57,55.9z M57.7,55.9l-0.4-0.1l0,0l0.4-0.1
		C57.7,55.7,57.8,55.7,57.7,55.9C57.8,55.9,57.8,55.9,57.7,55.9L57.7,55.9L57.7,55.9z M58.3,56l-0.4-0.1l0,0l0.4-0.1
		C58.3,55.8,58.4,55.8,58.3,56C58.4,56,58.4,55.9,58.3,56L58.3,56L58.3,56z M58.9,56l-0.4-0.1c0-0.1,0.1-0.1,0,0l0.4-0.1
		C58.9,55.8,59,55.8,58.9,56C59,56,59,56,58.9,56L58.9,56L58.9,56z M59.6,56l-0.4-0.1V56c0,0,0,0,0-0.1l0.4-0.1
		C59.6,55.8,59.7,55.8,59.6,56C59.7,55.9,59.6,56,59.6,56L59.6,56L59.6,56z M60.1,56l-0.4-0.1c0.1,0.1,0,0.1,0,0l0.4-0.1
		C60.1,55.8,60.2,55.8,60.1,56C60.2,55.9,60.2,56,60.1,56L60.1,56z M60.7,56l-0.4-0.1c0.1,0.1,0,0.1,0,0l0.4-0.1
		C60.7,55.8,60.8,55.8,60.7,56C60.8,56,60.8,56,60.7,56C60.8,56,60.7,56,60.7,56L60.7,56z M61.4,56L61,55.9V56c0,0,0,0,0-0.1
		l0.4-0.1C61.4,55.8,61.5,55.8,61.4,56L61.4,56C61.5,56,61.5,56,61.4,56L61.4,56z M62,56l-0.4-0.1c0.1,0.1,0,0.1,0,0l0.4-0.1
		C62,55.8,62.1,55.8,62,56C62.1,56,62.1,56,62,56L62,56z M62.6,56l-0.3-0.1V56c0,0,0,0,0-0.1l0,0l0,0l0,0l0.3-0.1
		C62.6,55.8,62.7,55.8,62.6,56C62.7,56,62.7,56,62.6,56L62.6,56L62.6,56z M63.3,56l-0.4-0.1V56c0,0,0,0,0-0.1l0,0l0,0l0,0l0.4-0.1
		C63.4,55.8,63.4,55.8,63.3,56C63.4,56,63.4,56,63.3,56L63.3,56z M63.9,56l-0.4-0.1c0.1,0.1,0,0.1,0,0l0,0l0,0l0,0l0.4-0.1
		C64,55.8,64,55.8,63.9,56C64,55.9,64,55.9,63.9,56C64,56,64,56,63.9,56L63.9,56z M64.5,56l-0.3-0.1l0,0l0,0l0,0l0.3-0.1
		C64.6,55.8,64.6,55.8,64.5,56C64.6,55.9,64.6,56,64.5,56L64.5,56L64.5,56z M65.2,56l-0.4-0.1l0,0l0,0l0,0l0,0l0,0l0.4-0.1
		C65.2,55.8,65.3,55.9,65.2,56C65.3,55.9,65.2,56,65.2,56L65.2,56z M65.8,56l-0.4-0.1l0,0l0,0l0,0l0,0l0,0l0,0l0.4-0.1
		C65.8,55.8,65.9,55.9,65.8,56L65.8,56L65.8,56z M66.4,56L66,55.9l0,0l0,0l0,0l0.4-0.1C66.5,55.8,66.5,55.8,66.4,56
		C66.5,56,66.5,56,66.4,56C66.5,56,66.5,56,66.4,56L66.4,56z M67,56c-0.1,0-0.3,0-0.4-0.1l0,0l0,0l0,0c0.1-0.1,0.3-0.1,0.4-0.1
		C67.1,55.8,67.1,55.8,67,56C67.1,55.9,67.1,56,67,56L67,56z M67.6,56l-0.4-0.1l0,0l0,0l0,0l0,0l0,0c0-0.1,0.1-0.1,0,0l0.4-0.1
		C67.7,55.8,67.7,55.8,67.6,56C67.7,56,67.7,56,67.6,56L67.6,56L67.6,56z M68.3,56l-0.4-0.1l0,0l0,0l0,0l0.4-0.1
		C68.4,55.8,68.4,55.8,68.3,56C68.4,56,68.4,56,68.3,56L68.3,56L68.3,56z M68.9,56l-0.4-0.1l0,0l0.4-0.1C69,55.8,69,55.9,68.9,56
		C69,56,69,56,68.9,56L68.9,56z M69.5,56l-0.4-0.1c0.1,0.1,0,0.1,0,0l0,0l0,0l0.3-0.1C69.5,55.8,69.5,55.8,69.5,56L69.5,56
		C69.6,55.9,69.6,55.9,69.5,56L69.5,56z M70.2,55.9l-0.4-0.1v0.1v-0.1l0.4-0.1C70.3,55.7,70.3,55.7,70.2,55.9
		C70.3,55.9,70.3,55.9,70.2,55.9L70.2,55.9z M70.8,55.9l-0.4-0.1v0.1c0,0,0,0,0-0.1l0,0l0,0l0,0l0.4-0.1
		C70.9,55.7,70.9,55.7,70.8,55.9C70.9,55.9,70.9,55.9,70.8,55.9L70.8,55.9L70.8,55.9z M71.4,55.9L71,55.8c0.1,0.1,0,0.1,0,0l0,0l0,0
		l0,0l0.4-0.1c0.1,0,0.1,0,0.1,0.1C71.5,55.9,71.4,55.9,71.4,55.9L71.4,55.9z M72,55.9l-0.4-0.1l0,0l0,0l0,0l0,0l0,0l0.4-0.1
		C72.1,55.7,72.1,55.7,72,55.9C72.1,55.9,72.1,55.9,72,55.9L72,55.9L72,55.9z M72.7,55.8l-0.4-0.1l0,0l0,0l0,0l0.4-0.1
		C72.8,55.6,72.8,55.6,72.7,55.8C72.8,55.8,72.7,55.8,72.7,55.8L72.7,55.8z M73.3,55.8l-0.4-0.1l0,0l0,0l0,0c0-0.1,0.1-0.1,0,0
		l0.4-0.1C73.4,55.6,73.4,55.6,73.3,55.8C73.3,55.8,73.3,55.8,73.3,55.8L73.3,55.8z"/>
	<path class="st0" d="M40.2,48.9l-0.1,0.3c0,0.3,0.4,0.5,0.8,0.6c0-0.2,0-0.5,0-0.7c0.1-2.4,0.4-4.8,0.4-7.3c0-1.8,0.1-3.7,0.4-5.5
		c0.1-0.6,0.2-1.1,0.2-1.7c-0.3-0.1-0.5-0.3-0.7-0.5c0,0,0,0,0-0.1c-0.1,0.7-0.1,1.4-0.2,2c-0.1,2.1-0.2,4.7-0.3,6c0,0.5,0,0.9,0,1
		c0,0.4-0.1,2.2-0.1,2.7c0,0.4,0,2.5-0.1,2.6c0,0.1-0.1,0.2-0.2,0.3l0,0C40.2,48.8,40.2,48.9,40.2,48.9z"/>
	<path class="st0" d="M42.2,32.1c0.3-0.6,0.7-1.2,1-1.9v-0.1c0.3-0.5,0.6-1,0.9-1.5c0.1-0.2,0.2-0.3,0.4-0.5V28c0,0,0,0,0.1-0.1
		c1.6-1.9,3.8-3.2,6.2-4.1c1.5-0.6,3.1-1.1,4.8-1.2c1.8-0.1,3.7,0,5.5,0.3c3.4,0.5,6.9,1.2,9.8,3c2.2,1.4,4.3,3.2,5.2,5.7
		c0.8,2.1,0.9,4.4,1,6.6c0.1,2.2,0.3,4.3,0.4,6.5c0,1.8,0,3.5,0,5.2c0.4-0.2,0.7-0.5,0.9-1c0,0,0,0-0.1-0.1s-0.2-0.2-0.3-0.3
		c-0.1,0-0.1-0.1-0.1-0.2c0,0-0.1-1.1-0.3-2.3s-0.2-1.9-0.2-3l0,0c0.1-4.3,0.1-7,0.1-7.8c-0.1-1.3-0.5-3.4-0.8-4.3
		c0-0.1-0.1-0.4-0.2-0.6c-0.3-1.3-1-4.1-2.6-6.4c-2.1-3.1-5.5-5.3-9.8-6.2c-3.5-0.7-8.6-0.9-12.1,0.5c-2.3,0.9-5.6,2.4-8,5.9
		c-1.8,2.5-2.5,6.6-2.9,9.8C41.3,33.2,41.8,32.7,42.2,32.1z"/>
	<path class="st0" d="M76.7,51.8c0.4-0.1,1-0.3,1.3-0.6c0.1-0.1,0.2-0.3,0.3-0.4l0,0H78l0,0l0,0l0,0v-0.1v0.1l0.3-0.3
		c0-0.2,0-0.5,0-0.7c0-0.1,0-0.2,0-0.3c-0.3,0.5-0.8,0.7-1.4,0.9c-0.9,0.3-1.8,0.5-2.8,0.4l0,0c0,0.4,0,0.7,0,1.1
		C74.9,52,75.8,52,76.7,51.8z M77.5,51.2l0.3-0.3h0.1V51l0,0L77.5,51.2C77.4,51.2,77.5,51.1,77.5,51.2L77.5,51.2z M77.2,51.2
		C77.3,51.2,77.3,51.2,77.2,51.2L77.2,51.2l-0.3,0.2v0.1v-0.1L77.2,51.2z M76.2,51.6l0.4-0.2c0.1,0,0.1,0,0.1,0.1c0,0,0,0.1-0.1,0.1
		L76.2,51.6L76.2,51.6L76.2,51.6L76.2,51.6L76.2,51.6L76.2,51.6L76.2,51.6L76.2,51.6z M75.5,51.7l0.4-0.1c0.1,0,0.1,0,0.1,0.1
		s0,0.1-0.1,0.1l0,0L75.5,51.7L75.5,51.7L75.5,51.7L75.5,51.7L75.5,51.7L75.5,51.7C75.5,51.6,75.6,51.5,75.5,51.7L75.5,51.7z
		 M74.6,51.8l-0.4-0.1v0.1v-0.1l0.4-0.1C74.7,51.6,74.7,51.6,74.6,51.8C74.7,51.7,74.7,51.7,74.6,51.8L74.6,51.8z M74.9,51.6
		L74.9,51.6h0.4c0.1,0,0.1,0,0.1,0.1c0,0,0,0.1-0.1,0.1L74.9,51.6C74.9,51.7,74.9,51.6,74.9,51.6z"/>
	<path class="st0" d="M39.3,50.1c0,0.1,0,0.2,0.1,0.3c0,0,0,0,0,0.1l0,0c0.4,0.7,1.2,0.8,1.9,0.9c0.8,0.2,1.5,0.5,2.3,0.4
		c0,0,0-0.1,0-0.2l0,0l-0.1-0.1c0,0,0-0.1,0.1-0.1l0,0c0-0.4,0-0.7,0-1c-0.9,0.1-1.8,0-2.7-0.3c-0.3-0.1-0.8-0.2-1.1-0.5
		s0-0.5,0-0.8h-0.1c-0.2,0-0.4,0.3-0.4,0.4s0,0.2,0,0.4C39.3,49.8,39.3,50,39.3,50.1z M42.8,51.6C42.8,51.5,42.8,51.5,42.8,51.6
		L42.8,51.6h0.5v-0.1v0.1H42.8C42.8,51.7,42.8,51.6,42.8,51.6L42.8,51.6z M42.1,51.4L42.1,51.4l0.5,0.1c-0.1-0.1,0-0.1,0,0l0,0l0,0
		l0,0l0,0l0,0l0,0l0,0h-0.4C42.1,51.5,42.1,51.4,42.1,51.4L42.1,51.4L42.1,51.4z M41.5,51.3C41.5,51.2,41.5,51.2,41.5,51.3
		C41.6,51.2,41.6,51.2,41.5,51.3H42l0,0l0,0l0,0v0.1v-0.1H41.5C41.5,51.4,41.5,51.3,41.5,51.3L41.5,51.3L41.5,51.3z M40.8,51.1
		C40.8,51.1,40.9,51,40.8,51.1L40.8,51.1l0.4,0.2v0.1v-0.1h-0.4C40.8,51.2,40.7,51.1,40.8,51.1L40.8,51.1L40.8,51.1z M40.2,50.8
		C40.2,50.8,40.3,50.7,40.2,50.8L40.2,50.8l0.4,0.3c0-0.1,0-0.1,0,0L40.2,51C40.2,50.9,40.2,50.9,40.2,50.8L40.2,50.8L40.2,50.8z
		 M39.6,50.5C39.6,50.5,39.7,50.4,39.6,50.5L39.6,50.5l0.4,0.3v-0.1v0.1l0,0l0,0l0,0l0,0l0,0l0,0l0,0l-0.4-0.1
		C39.6,50.6,39.5,50.6,39.6,50.5L39.6,50.5z"/>
	<path class="st0" d="M77.5,51.2L77.5,51.2L77.5,51.2z"/>
	<path class="st0" d="M69.1,55.8L69.1,55.8L69.1,55.8L69.1,55.8z"/>
	<path class="st0" d="M74,35.8c0.1,2.1,0.3,7.2,0.3,9.3c0,1.3-0.1,3.6-0.1,5.6h0.1c0.8,0,1.9,0,2.7-0.4c0-0.2,0-0.3,0-0.5
		c0-2,0.1-4,0-5.9c-0.1-2.2-0.4-4.3-0.4-6.5s-0.4-4.5-1.3-6.5c-0.6-1.2-1.5-2.1-2.5-3c-0.9-0.9-2-1.6-3.1-2.2
		c-1.5-0.8-3.2-1.3-4.8-1.7c-1.9-0.4-3.8-0.8-5.7-1s-3.8-0.2-5.6,0.2c-1.7,0.3-3.3,1.1-4.8,1.9s-2.8,1.8-3.9,3.1l0,0
		c0,1-0.4,2-0.7,3c-0.3,0.9-0.5,2-1,2.8c-0.2,0.3-0.6,0.9-1,0.9c-0.2,1.3-0.3,2.6-0.4,3.9c-0.1,1.8-0.1,3.7-0.2,5.5
		c-0.1,1.1-0.2,2.2-0.3,3.3c0,0.8-0.1,1.6-0.1,2.4l0,0h0.1c0.8,0.3,1.7,0.4,2.5,0.3c0-0.4,0-0.7,0-0.9c0-0.7-0.1-1.6-0.3-2.5
		c-0.1-0.8-0.2-1.5-0.3-2.3c-0.2-1.6,0.7-11,1.7-13.5c1-2.4,2.5-3.6,4.9-5c2.1-1.2,5.3-2,8.7-2c2.5,0,3.8,0.4,5.6,0.8
		c0.5,0.1,1.1,0.3,1.7,0.4c2.6,0.6,4.3,1.9,6.3,4.7c1.7,2.5,1.8,3.5,1.9,5.4L74,35.8z"/>
	<path class="st0" d="M49.1,47.7L49.1,47.7L49.1,47.7L49.1,47.7z"/>
	<path class="st0" d="M77.5,51.2L77.5,51.2L77.5,51.2z"/>
	<path class="st0" d="M56.8,59.2c0.9,0,2.3,0,3.7,0c3.3,0,7.1,0.1,7.9,0c1-0.1,4.1-0.2,5-0.2c0-0.3,0-0.8,0-1.2c0-0.5,0-1,0-1.6
		l-1.7,0.1c-0.1,0-6.9,0.1-9.3,0.1c-0.3,0-0.8,0-1.2,0c-3,0-8.1-0.1-10-0.2c-2-0.1-6-0.5-6.9-0.6c0,0.3,0,0.5,0,0.7
		c0,0.5,0,1-0.1,1.4c0,0.2,0,0.4,0,0.5c0,0,0,0.1,0,0.2c0.4,0,0.9,0,1.5,0.1c0,0,0.1,0,0.2,0c0.3,0,0.7,0,1,0.1H47h0.1h0.3
		C49.1,58.7,54,59.2,56.8,59.2z"/>
	<path class="st0" d="M44.6,63c0,0.2-0.1,0.5-0.1,0.7c0,0.4,0.2,0.5,0.5,0.5c0.4,0,0.3-0.1,0.4-0.5c0.1-0.3,0.1-0.6,0.2-0.8
		c0.1-0.5,0.2-1,0.3-1.5c0.2-1,0.4-2,0.7-2.9l0,0c-0.3,0-0.6,0-0.9-0.1c-0.2,1-0.5,2-0.7,3.1C44.9,62,44.7,62.5,44.6,63z M46.3,58.7
		C46.4,58.7,46.4,58.7,46.3,58.7l-0.1,0.5h0.1h-0.1v-0.4C46.2,58.7,46.2,58.7,46.3,58.7L46.3,58.7z M46.2,59.4L46.2,59.4L46.2,59.4
		l-0.1,0.5c0.1-0.1,0.1,0,0,0v-0.4C46.1,59.4,46.1,59.4,46.2,59.4L46.2,59.4L46.2,59.4z M46,60L46,60v0.4c0.1-0.1,0.1,0,0,0V60
		C45.9,60,46,59.9,46,60L46,60L46,60z M45.9,60.5L45.9,60.5L45.8,61h0.1h-0.1v-0.4L45.9,60.5L45.9,60.5z M45.7,61.7v-0.4l0.1-0.1
		l0.1,0.1L45.7,61.7C45.6,61.7,45.6,61.6,45.7,61.7L45.7,61.7z M45.6,61.9L45.6,61.9h0.2l0,0l-0.2,0.4h-0.1h0.1L45.6,61.9z
		 M45.5,62.5C45.5,62.5,45.5,62.4,45.5,62.5c0.1-0.1,0.2-0.1,0.2,0l0,0l-0.2,0.4h-0.1h0.1L45.5,62.5z M45.3,63.5v-0.4
		c0,0,0-0.1,0.1-0.1c0,0,0.1,0,0.1,0.1l0,0L45.3,63.5C45.3,63.5,45.3,63.4,45.3,63.5L45.3,63.5z M45.2,63.7L45.2,63.7h0.2l0,0
		l-0.2,0.4h-0.1h0.1L45.2,63.7z"/>
	<path class="st0" d="M42.6,72.6c0.1-0.9,0.4-2.4,0.5-2.9c0.1-0.4,0-1.7,0-2.7c0-0.7-0.1-1.3-0.1-1.7c0-1.2,0.3-4.9,0.4-5.7
		c0-0.4,0.1-0.7,0-1.1c0-0.1,0-0.2,0-0.3s0-0.3,0-0.6c0-0.4,0.1-0.8,0.1-1.3c0-0.4,0-1.4,0-2.7c0-0.5,0-1,0-1.5
		c-0.9,0.1-1.8-0.2-2.7-0.5c-0.5-0.1-1.1-0.2-1.5-0.6c0,0.8-0.1,2.5,0,3.5c0,0.8,0.3,2.1,0.4,3.1c0.1,0.4,0.1,0.8,0.2,1.1
		c0,0.4,0.2,6.7,0.4,8.2c0.2,1.6,0.3,3.2,0.8,4c0.3,0.6,0.8,1.1,1.3,1.4l0,0C42.6,72.5,42.6,72.5,42.6,72.6z"/>
	<path class="st0" d="M46.1,59.9L46.1,59.9L46.1,59.9z"/>
	<path class="st0" d="M48.6,42.2c0.2,0.1,0.4,0.1,0.5,0c0-0.1,0-0.3,0-0.4c0-0.8,0.1-1.7,0.3-2.5c0-0.9,0-1.7,0-2.6L49.3,37h0.1
		h-0.1l0,0l0,0l0,0v-0.4l0.1-0.1l0,0l0,0c0-0.3,0-0.6,0-0.9c-0.3,0.5-0.4,1.1-0.5,1.6c-0.2,1-0.4,2-0.5,3c0,0.5-0.2,1.1-0.1,1.6
		C48.3,42.1,48.3,42.1,48.6,42.2z M48.6,41.8L48.6,41.8L48.6,41.8l-0.1-0.4c0,0,0-0.1,0.1-0.1s0.1,0,0.1,0.1l0,0L48.6,41.8z
		 M49,37.2L49,37.2h0.2l0,0L49,37.6h0.1H49l0,0l0,0l0,0L49,37.2z M49,37.8L49,37.8L49,37.8l-0.1,0.5c0.1-0.1,0.1,0,0,0v-0.4
		C48.9,37.8,49,37.8,49,37.8L49,37.8L49,37.8z M48.8,38.6C48.8,38.6,48.9,38.5,48.8,38.6C48.9,38.6,49,38.7,48.8,38.6V39h-0.1h0.1
		V38.6z M48.7,39.2C48.8,39.2,48.8,39.3,48.7,39.2L48.7,39.2v0.5l0,0V39.2C48.6,39.3,48.7,39.2,48.7,39.2L48.7,39.2L48.7,39.2z
		 M48.7,39.9C48.7,39.9,48.8,39.9,48.7,39.9L48.7,39.9v0.5c0.1-0.1,0.1,0,0,0l0,0l0,0l0,0l0,0l0,0V39.9
		C48.6,39.9,48.6,39.9,48.7,39.9L48.7,39.9L48.7,39.9z M48.5,40.6C48.6,40.6,48.6,40.6,48.5,40.6L48.5,40.6v0.5l0,0V40.6
		C48.4,40.6,48.5,40.6,48.5,40.6L48.5,40.6L48.5,40.6z"/>
	<path class="st0" d="M49.1,47.7L49.1,47.7L49.1,47.7z"/>
	<path class="st0" d="M48.9,38.3L48.9,38.3L48.9,38.3z"/>
	<polygon class="st0" points="58.2,66.6 58.2,66.9 58.3,66.6 	"/>
	<path class="st0" d="M57.9,66.4l-0.3-0.1c0.1,0.1,0.2,0.2,0.3,0.3V66.4z"/>
	<polygon class="st0" points="58.7,67.2 58.8,67.2 58.9,67.1 58.7,67.1 	"/>
	<polygon class="st0" points="59.2,66.7 59.3,66.5 59.2,66.6 	"/>
	<path class="st0" d="M58.8,66.2l-0.2,0.4l0.1,0.4l0.2-0.1l0.1-0.3C58.9,66.4,58.9,66.3,58.8,66.2z"/>
	<polygon class="st0" points="59.3,67.5 59.4,67.5 59.5,67.3 59.4,67.3 	"/>
	<polygon class="st0" points="59.1,67.3 59.3,67 59.4,66.9 59.3,66.8 59.1,67 	"/>
	<path class="st0" d="M58.2,66.2v0.2h0.1C58.3,66.3,58.2,66.2,58.2,66.2z"/>
	<path class="st0" d="M58.4,67.7H58c0,0,0.3-0.2,0.5-0.3c-0.1,0-0.1,0-0.1-0.1l-0.5,0.3h-0.2l0.1-0.1c-0.1-0.1-0.2-0.1-0.3-0.1
		l-0.2,0.2h-0.1c0,0.2,0,0.4,0.1,0.5c0,0.1,0,0.1,0.1,0.1c0.5,0,1,0.1,1.4,0.2v-0.7c0-0.1-0.1-0.1-0.1-0.2L58.4,67.7z"/>
	<path class="st0" d="M57.1,67.3c0,0.1,0,0.1,0,0.2C57.1,67.4,57.2,67.4,57.1,67.3L57.1,67.3z"/>
	<polygon class="st0" points="57.5,67.1 57.1,67.1 57.4,67.2 	"/>
	<path class="st0" d="M74.4,73.4c-0.1-0.3-0.3-1.3-0.3-1.9c0-0.4-0.1-2.4-0.2-4.4c0-1.3-0.1-2.5-0.1-3s-0.1-1.2-0.2-2
		c-0.1-1.1-0.2-2.3-0.2-3c-0.9,0-4,0.1-5,0.2c-0.4,0-1.5,0-2.9,0c-1.5,0-3.3,0-5,0c-1.4,0-2.8,0-3.7,0c-2.7,0-7.7-0.5-9.5-0.7H47
		c-0.3,1.3-0.6,2.6-0.9,3.9c-0.1,0.3-0.2,0.7-0.2,1c0,0.2,0,0.6-0.2,0.8c-0.1,0.2-0.3,0.2-0.5,0.2c-0.3,0-0.8,0-1-0.4
		c-0.2-0.5,0.1-1.2,0.2-1.7c0.3-1.3,0.6-2.7,1-4l0,0c-0.5,0-1-0.1-1.4-0.1l0,0c0,0.4,0,0.8,0,1.2c-0.1,0.7-0.4,4.4-0.4,5.6
		c0,0.4,0,1,0.1,1.7c0.1,1.5,0.2,2.5,0,2.9c-0.2,0.6-0.6,3.4-0.6,3.4c0,0.1-0.1,0.2-0.1,0.2l0,0c0,0.1,0,0.5,1.6,0.4
		c0.4,0,0.7,0,1,0c1.2,0,2,0.1,2.8,0.1h0.5c1.3,0.1,7.7,0.3,7.9,0.4c2.9,0,5.4-0.2,7.4-0.3c1.8-0.1,3.2-0.2,4.1-0.1
		c1.8,0.1,5.1,0.1,5.5,0c0.2-0.1,0.3-0.2,0.4-0.3C74.3,73.7,74.4,73.6,74.4,73.4C74.4,73.5,74.4,73.5,74.4,73.4z M61.1,67.1h-0.2
		c0-0.1,0-0.2-0.1-0.2l0.2-0.1C61.1,66.9,61.1,67,61.1,67.1z M60.9,66.6l-0.2,0.1c0-0.1-0.1-0.2-0.1-0.2l0.1-0.1
		C60.8,66.4,60.9,66.5,60.9,66.6L60.9,66.6z M60.5,66c0.1,0.1,0.1,0.1,0.2,0.2l-0.1,0.1C60.6,66.2,60.5,66.2,60.5,66L60.5,66z
		 M60.1,65.7c0.1,0,0.2,0.1,0.2,0.2L60.2,66c-0.1,0-0.1-0.1-0.2-0.2L60.1,65.7z M59.6,65.4c0.1,0,0.2,0.1,0.3,0.1l-0.1,0.2
		c-0.1,0-0.2-0.1-0.2-0.1V65.4z M59.1,65.3L59.1,65.3h0.2v0.2h-0.1h-0.1V65.3z M59.2,65.8l0.2,0.4l0.4-0.2c0.1,0,0.1,0,0.1,0.1
		l-0.4,0.3l0.1,0.3c0,0,0.3-0.3,0.4-0.5c0.1,0,0.1,0.1,0.1,0.1c-0.1,0.1-0.1,0.2-0.2,0.3h0.5c0.1,0.1,0.1,0.1,0.1,0.1h-0.4l-0.3,0.4
		l0.3-0.1l0.4-0.1l0.1,0.1l-0.5,0.1l-0.4,0.1c-0.1,0.1-0.1,0.1-0.1,0.2c0.3-0.1,0.7-0.1,1.1-0.2c0.1,0.5,0.1,1.1-0.3,1.5
		c-0.9,0.2-2-0.2-3,0h-0.3c-0.2-0.3-0.3-0.5-0.3-0.9c0-0.3,0-0.7,0.2-1h0.5l-0.3-0.3c0-0.1,0.1-0.1,0.1-0.1c0.1,0.1,0.4,0.5,0.4,0.5
		h0.1l-0.5-0.5l0.2-0.2l0.4,0.1c0,0,0-0.2,0-0.3c0.1,0,0.2-0.1,0.3-0.1c0.1,0.1,0.1,0.3,0.2,0.4c0.1-0.1,0.2-0.3,0.3-0.5h0.1
		l0.3,0.7h0.1c0,0-0.1-0.3-0.2-0.5h0.2V65.8z M58.8,65.3L58.8,65.3l0.1,0.2h-0.1h-0.1L58.8,65.3L58.8,65.3z M58.3,65.3L58.3,65.3
		l0.1,0.2h-0.1h-0.1L58.3,65.3L58.3,65.3z M57.9,65.4l0.1,0.2c-0.1,0-0.2,0.1-0.2,0.1l-0.1-0.2C57.8,65.5,57.8,65.5,57.9,65.4
		L57.9,65.4z M57.5,65.6L57.5,65.6c0,0.1,0,0.2-0.1,0.3l-0.1-0.1C57.3,65.8,57.4,65.7,57.5,65.6L57.5,65.6z M57.1,66L57.1,66
		c0,0.2,0,0.2-0.1,0.3l-0.1-0.1C57,66.1,57,66,57.1,66L57.1,66z M56.8,66.3L56.8,66.3c0.1,0.2,0,0.3,0,0.3l-0.2-0.1
		C56.7,66.5,56.7,66.4,56.8,66.3L56.8,66.3z M56.5,66.8l0.2,0.1c0,0.1-0.1,0.2-0.1,0.2h-0.2C56.5,67,56.5,66.9,56.5,66.8L56.5,66.8z
		 M56.4,67.4L56.4,67.4l0.2-0.1v0.1v0.1L56.4,67.4C56.4,67.5,56.4,67.5,56.4,67.4L56.4,67.4z M56.4,67.9L56.4,67.9l0.2-0.1v0.1V68
		L56.4,67.9L56.4,67.9z M56.4,68.3h0.2c0,0.1,0,0.2,0.1,0.2l-0.2,0.1C56.5,68.5,56.5,68.4,56.4,68.3L56.4,68.3z M56.8,69
		c0-0.1-0.1-0.2-0.1-0.2l0.2-0.1c0,0.1,0.1,0.2,0.1,0.2L56.8,69z M57.1,69.4c-0.1-0.1-0.1-0.1-0.2-0.2l0.1-0.1
		C57,69.2,57.1,69.2,57.1,69.4L57.1,69.4z M57.5,69.7c-0.1-0.1-0.2-0.1-0.2-0.2l0.1-0.1C57.5,69.5,57.5,69.5,57.5,69.7L57.5,69.7z
		 M57.4,69L57.4,69l0.5,0.1l1.1,0.2c0.3,0.1,0.5,0.1,0.8,0.1c-0.5,0.3-1.4,0.3-2,0C57.7,69.3,57.5,69.2,57.4,69L57.4,69z M57.9,69.9
		c-0.1,0-0.2-0.1-0.3-0.1l0.1-0.2c0.1,0,0.2,0.1,0.2,0.1V69.9z M58.4,70.1L58.4,70.1h-0.2v-0.2h0.1h0.1V70.1z M58.8,70.1L58.8,70.1
		l-0.1-0.2h0.1h0.1L58.8,70.1L58.8,70.1z M59.3,70L59.3,70l-0.1-0.2h0.1h0.1L59.3,70L59.3,70z M59.6,69.9l-0.1-0.2
		c0.1,0,0.2-0.1,0.2-0.1l0.1,0.2C59.8,69.8,59.7,69.9,59.6,69.9L59.6,69.9z M60.1,69.7L60.1,69.7c0-0.1,0-0.2,0.1-0.3l0.1,0.1
		C60.2,69.6,60.2,69.7,60.1,69.7L60.1,69.7z M59.9,69.3c-0.9-0.1-1.8-0.3-2.6-0.4l-0.1-0.1c0.7-0.1,1.4,0,2.1,0.1
		c0.4,0,0.7,0,1.1-0.1C60.2,69,60.1,69.2,59.9,69.3L59.9,69.3z M60.5,69.4L60.5,69.4c0-0.2,0-0.2,0.1-0.3l0.1,0.1
		C60.6,69.3,60.5,69.3,60.5,69.4L60.5,69.4z M60.8,69L60.8,69c-0.1-0.2,0-0.3,0-0.3l0.2,0.1C60.9,68.8,60.8,68.9,60.8,69L60.8,69z
		 M61,68.6l-0.2-0.1c0-0.1,0.1-0.2,0.1-0.2h0.2C61.1,68.4,61.1,68.5,61,68.6L61,68.6z M61.2,67.9L61.2,67.9L61,68v-0.1v-0.1
		L61.2,67.9C61.2,67.8,61.2,67.9,61.2,67.9L61.2,67.9z M61,67.6L61,67.6v-0.2h0.2v0.1v0.1H61z"/>
	<path class="st0" d="M78.1,51.4c-0.4,0.2-0.8,0.4-1.2,0.5c-0.9,0.3-1.9,0.3-2.8,0.2c0,0.8-0.1,1.5-0.1,2c-0.1,1.2-0.1,2.5,0,3.6
		c0,0.5,0,0.9,0,1.2c0,0.7,0.1,1.9,0.2,3c0.1,0.8,0.2,1.5,0.2,2s0.1,1.7,0.1,3c0.1,1.9,0.1,4,0.2,4.4c0,0.4,0.2,1.2,0.2,1.6
		c0.3-0.1,0.6-0.3,0.7-0.5c0.2-0.3,0.4-0.6,0.6-0.9c0-0.1,0.1-0.2,0.1-0.4c0.1-0.3,0.1-0.6,0.2-0.8c0.1-0.3,0.5-2,0.7-2.6v-0.2
		c0.1-0.4,0.2-1.4,0.2-2.2c0-0.2,0-0.3,0-0.5c0.1-1,0.3-4,0.5-4.9c0.1-0.9,0.2-3.6,0.2-4.3c0-0.6,0-1.3,0.2-1.9
		c0.1-0.4,0.1-0.8,0.2-1.2c0-0.1,0-0.3,0-0.4c0-0.4,0-0.8-0.1-1.2C78.3,51.2,78.2,51.3,78.1,51.4z"/>
	<polygon class="st0" points="58.1,67.2 58.1,67.1 57.7,67 57.6,67.2 57.9,67.4 	"/>
	<path class="st0" d="M59,67.9c0,0.2,0,0.5,0,0.7v0.1c0.4,0.1,0.8,0.1,1.2,0.2h0.1c0.1-0.1,0.2-0.3,0.3-0.5s0.1-0.5,0-0.7l-0.2,0.1
		c0.1,0.1,0.1,0.2,0.1,0.3h-0.2l-0.2-0.2c-0.1,0-0.2,0-0.3,0.1l0.1,0.1h-0.1L59.7,68C59.4,67.8,59.2,67.8,59,67.9z"/>
	<polygon class="st0" points="59.9,66.8 59.7,66.8 59.5,67.1 59.7,67.1 	"/>
	<path class="st0" d="M58.5,66.9l-0.1,0.2l0.1,0.2C58.5,67.2,58.5,67,58.5,66.9z"/>
	<path class="st1" d="M49.7,31L49.7,31c0,0.1,0,0.1,0,0.1s0,0,0,0.1c0,3.7,0,7.4,0,11c0,1.7,0,3.4,0,5.1c0,0.8,0,1.6,0,2.4
		c0,0.4-0.1,1.2,0,1.6c0.2,0.6,1.3,0.6,1.4-0.1c0-0.4,0-0.8,0-1.2c0-0.9,0-1.8,0-2.7c0-2.8,0-5.7,0-8.5c0-1.4,0-2.8,0-4.1
		c0-0.8,0-1.6,0-2.5c0-0.3,0.1-0.9,0-1.2C51.1,30.8,49.8,30.7,49.7,31z"/>
	<path class="st1" d="M43.1,32.8L43.1,32.8L43.1,32.8z"/>
	<path class="st1" d="M43.2,33c0.3-0.8,0.6-1.6,0.8-2.5h-0.1l-0.1-0.1l0,0L44,30h-0.1H44v0.4c0.1-0.2,0.1-0.4,0.2-0.6h-0.1L44,29.7
		l0,0l0.2-0.4h0.1c0.1-0.3,0.1-0.6,0.1-0.8c-0.3,0.4-0.6,0.8-0.8,1.2c-0.5,1-1,2-1.6,3c-0.2,0.3-0.4,0.6-0.6,0.9
		c-0.2,0.3-0.2,0.3,0.1,0.5c0.3,0.2,0.6,0.4,0.9,0C42.8,33.9,43,33.5,43.2,33z M43.6,31.1l0.2-0.3c-0.1,0-0.1,0,0,0l0,0l0,0l0,0
		l-0.1,0.4c0,0-0.1,0.1-0.1,0C43.6,31.2,43.6,31.1,43.6,31.1z M43.4,31.8l0.2-0.4l0,0l0,0l0,0h0.1h-0.1v0.4l-0.1,0.1l0,0
		C43.4,31.9,43.4,31.8,43.4,31.8L43.4,31.8L43.4,31.8z M43.1,32.4l0.2-0.3h0.1h-0.1l-0.1,0.4L43.1,32.4
		C43.1,32.5,43.1,32.4,43.1,32.4z M43.1,32.8L43,33.1c0,0-0.1,0.1-0.1,0c0,0-0.1-0.1,0-0.1l0,0L43.1,32.8C43,32.8,43,32.7,43.1,32.8
		L43.1,32.8z M42.3,33.8l-0.1,0.4c0,0-0.1,0.1-0.1,0l0,0c0,0-0.1-0.1,0-0.1l0,0L42.3,33.8L42.3,33.8L42.3,33.8L42.3,33.8L42.3,33.8
		L42.3,33.8L42.3,33.8L42.3,33.8L42.3,33.8L42.3,33.8L42.3,33.8L42.3,33.8z M42.5,33.6l0.3-0.3h-0.1h0.1l0,0l0,0l0,0l0,0l0,0l0,0
		l0,0l-0.1,0.4c0,0-0.1,0.1-0.1,0l0,0C42.5,33.8,42.5,33.7,42.5,33.6L42.5,33.6L42.5,33.6z"/>
	<path class="st1" d="M44.3,29.7c0-0.1,0-0.2,0.1-0.3h-0.1V29.7z"/>
	<path class="st1" d="M43.1,32.8L43.1,32.8L43.1,32.8z"/>
	<path class="st0" d="M69.8,55.9L69.8,55.9"/>
	<path class="st0" d="M50.7,30.1L50.7,30.1"/>
	<path class="st0" d="M51.3,30.2L51.3,30.2"/>
	<path class="st0" d="M49.5,30.2L49.5,30.2"/>
	<path class="st0" d="M52,34.2L52,34.2"/>
	<path class="st0" d="M75.5,51.7L75.5,51.7"/>
	<path class="st0" d="M49,48.4L49,48.4"/>
	<path class="st0" d="M76.2,51.6L76.2,51.6"/>
	<path class="st0" d="M51.6,52.3L51.6,52.3"/>
	<path class="st0" d="M76.9,51.5L76.9,51.5"/>
	<path class="st0" d="M40,50.7L40,50.7"/>
	<path class="st0" d="M41.2,51.2L41.2,51.2"/>
	<path class="st0" d="M78,50.8L78,50.8"/>
	<path class="st0" d="M48.8,39L48.8,39"/>
	<path class="st0" d="M49.1,37.6L49.1,37.6"/>
	<path class="st0" d="M49.3,37L49.3,37"/>
	<path class="st0" d="M44.3,29.4L44.3,29.4"/>
	<path class="st0" d="M44.1,30.1L44.1,30.1"/>
	<path class="st0" d="M43.6,31.5L43.6,31.5"/>
	<path class="st0" d="M43.4,32.1L43.4,32.1"/>
	<path class="st0" d="M42.7,33.3L42.7,33.3"/>
	<path class="st0" d="M42.3,33.8L42.3,33.8"/>
	<path d="M59.1,66.4l-0.3-0.7h-0.1c-0.1,0.1-0.1,0.3-0.3,0.5c-0.1-0.1-0.1-0.3-0.2-0.4c-0.1,0-0.2,0-0.3,0.1c0,0.1,0,0.3,0,0.3
		l-0.4-0.1l-0.2,0.2l0.5,0.5h-0.1c0,0-0.3-0.3-0.4-0.5c0,0.1-0.1,0.1-0.1,0.1l0.3,0.3H57c-0.2,0.3-0.2,0.7-0.2,1
		c0.1,0.3,0.1,0.6,0.3,0.9h0.3c1-0.1,2,0.2,3,0c0.3-0.4,0.4-0.9,0.3-1.5c-0.4,0.1-0.7,0.1-1.1,0.2c0.1-0.1,0.1-0.1,0.1-0.2l0.4-0.1
		l0.5-0.1c0,0,0-0.1-0.1-0.1L60.2,67l-0.3,0.1l0.3-0.4h0.4c-0.1,0-0.1-0.1-0.1-0.1H60c0.1-0.1,0.1-0.2,0.2-0.3
		c-0.1,0-0.1-0.1-0.1-0.1c-0.1,0.2-0.4,0.5-0.4,0.5l-0.1-0.3l0.4-0.3C59.8,66,59.8,66,59.8,66l-0.4,0.2l-0.2-0.4H59
		c0.1,0.2,0.2,0.5,0.2,0.5L59.1,66.4z M58.5,66.9c0,0.1,0.1,0.3,0.1,0.4l-0.1-0.2V66.9z M58.2,66.2c0,0.1,0.1,0.1,0.1,0.2h-0.1V66.2
		z M58.2,66.6L58.2,66.6V67V66.6z M57.7,66.4l0.3,0.1v0.3C57.8,66.6,57.7,66.5,57.7,66.4z M57.7,67l0.3,0.1l0.1,0.1l-0.3,0.2
		l-0.3-0.1L57.7,67z M57.5,67.1L57.5,67.1h-0.4H57.5z M57.1,67.5c0-0.1,0-0.1,0-0.2h0.1C57.2,67.4,57.2,67.4,57.1,67.5L57.1,67.5z
		 M58.7,68.4c-0.5-0.1-0.9-0.1-1.4-0.2c-0.1,0-0.1-0.1-0.1-0.1c0-0.2-0.1-0.4-0.1-0.5h0.1l0.2-0.2c0.1,0.1,0.2,0.1,0.3,0.1l-0.1,0.1
		h0.2l0.5-0.3c0,0.1,0.1,0.1,0.1,0.1c-0.1,0.1-0.5,0.3-0.5,0.3h0.4l0.2-0.1c0.1,0.1,0.1,0.1,0.1,0.2L58.7,68.4z M58.8,67.2
		L58.8,67.2L58.8,67.2L58.8,67.2L58.8,67.2z M58.7,67l-0.1-0.4l0.2-0.4c0,0.1,0.1,0.2,0.2,0.3l-0.1,0.3L58.7,67z M59.7,67.9
		L59.7,67.9L59.7,67.9c0.1-0.1,0.2-0.1,0.3-0.2l0.2,0.2h0.2c0-0.1-0.1-0.2-0.1-0.3l0.2-0.1c0.1,0.2,0.1,0.5,0,0.7
		c-0.1,0.1-0.1,0.3-0.3,0.5h-0.1c-0.4,0-0.8-0.1-1.2-0.2v-0.1c0-0.2,0-0.5,0-0.7c0.2,0,0.4-0.1,0.6-0.1L59.7,67.9z M59.8,66.8
		L59.8,66.8l-0.1,0.3h-0.1L59.8,66.8z M59.5,67.3l-0.1,0.2h-0.1L59.5,67.3L59.5,67.3z M59.4,66.9L59.4,66.9l-0.3,0.4V67L59.4,66.9
		L59.4,66.9z M59.2,66.6L59.2,66.6L59.2,66.6L59.2,66.6z M60.3,68.9c-0.1,0.1-0.3,0.3-0.5,0.4c-0.9-0.1-1.8-0.3-2.6-0.4l-0.1-0.1
		c0.7-0.1,1.4,0,2.1,0.1C59.6,68.9,60,68.9,60.3,68.9z M57.8,69.4c-0.2-0.1-0.3-0.2-0.4-0.3h0.1l0.4,0.1l1.1,0.2
		c0.3,0.1,0.5,0.1,0.8,0.1C59.2,69.7,58.4,69.7,57.8,69.4L57.8,69.4z M60.8,68.7l0.2,0.1c0,0.1-0.1,0.2-0.1,0.2l-0.1-0.1
		C60.7,68.8,60.7,68.8,60.8,68.7L60.8,68.7z M61,68.2h0.2c0,0.1,0,0.2-0.1,0.3l-0.2-0.1C60.9,68.4,60.9,68.3,61,68.2L61,68.2z
		 M61,67.8h0.2v0.1V68H61V67.8L61,67.8L61,67.8z M59.8,69.7l0.1,0.2c-0.1,0-0.2,0.1-0.3,0.1l-0.1-0.2C59.7,69.7,59.7,69.7,59.8,69.7
		L59.8,69.7z M60.2,69.4L60.2,69.4c0,0.2-0.1,0.2-0.1,0.3L60,69.6C60.1,69.5,60.1,69.5,60.2,69.4L60.2,69.4z M60.5,69.1L60.5,69.1
		c0,0.2,0,0.2-0.1,0.3l-0.1-0.1C60.4,69.2,60.5,69.2,60.5,69.1L60.5,69.1z M58.3,69.9L58.3,69.9l0.1,0.2h-0.1h-0.1L58.3,69.9
		L58.3,69.9z M58.9,69.9v0.2h-0.1h-0.1v-0.2H58.9L58.9,69.9z M59.4,69.8V70h-0.1h-0.1v-0.2H59.4L59.4,69.8z M57,69.1
		c0,0.1,0.1,0.1,0.2,0.2l-0.1,0.1C57,69.3,57,69.3,57,69.1L57,69.1z M57.4,69.4c0.1,0.1,0.1,0.1,0.2,0.2l-0.1,0.1
		C57.4,69.6,57.3,69.6,57.4,69.4L57.4,69.4z M57.8,69.7c0.1,0,0.2,0.1,0.2,0.1L57.9,70c-0.1,0-0.2-0.1-0.3-0.1L57.8,69.7z M56.6,68
		h-0.2v-0.1v-0.1h0.2V68L56.6,68z M56.7,68.5l-0.2,0.1c0-0.1-0.1-0.2-0.1-0.3h0.2C56.6,68.3,56.7,68.4,56.7,68.5z M56.9,68.9
		L56.8,69c0-0.1-0.1-0.2-0.1-0.2l0.2-0.1C56.8,68.8,56.9,68.8,56.9,68.9z M56.8,66.7l-0.2-0.1c0-0.1,0.1-0.2,0.1-0.2l0.1,0.1
		C56.9,66.5,56.8,66.6,56.8,66.7z M56.6,67.1h-0.2c0-0.1,0-0.2,0.1-0.3l0.2,0.1C56.7,66.9,56.6,67,56.6,67.1L56.6,67.1z M56.5,67.6
		h-0.2v-0.1v-0.1h0.2V67.6C56.5,67.5,56.5,67.5,56.5,67.6L56.5,67.6z M57.8,65.7l-0.1-0.2c0.1,0,0.2-0.1,0.3-0.1l0.1,0.2
		C57.9,65.6,57.8,65.6,57.8,65.7L57.8,65.7z M57.4,65.9L57.4,65.9c0-0.1,0.1-0.2,0.1-0.3l0.1,0.1C57.5,65.8,57.4,65.9,57.4,65.9
		L57.4,65.9z M57,66.3l-0.1-0.1C57,66.1,57,66,57.1,66l0.1,0.1C57.1,66.1,57.1,66.2,57,66.3L57,66.3z M59.3,65.5L59.3,65.5l-0.1-0.2
		h0.1h0.1L59.3,65.5L59.3,65.5z M58.7,65.4v-0.2h0.1h0.1v0.2H58.7L58.7,65.4z M58.2,65.5v-0.2h0.1h0.1v0.2H58.2L58.2,65.5z
		 M60.5,66.3c0-0.1-0.1-0.1-0.2-0.2l0.1-0.1c0.1,0.1,0.1,0.1,0.2,0.2L60.5,66.3z M60.2,66c-0.1,0-0.1-0.1-0.2-0.2l0.1-0.1
		C60.2,65.7,60.3,65.8,60.2,66L60.2,66z M59.8,65.7c-0.1,0-0.2-0.1-0.2-0.1l0.1-0.2c0.1,0,0.2,0.1,0.3,0.1L59.8,65.7z M61.2,67.4
		L61.2,67.4L61,67.5v-0.1v-0.1L61.2,67.4L61.2,67.4z M60.9,66.9l0.2-0.1c0,0.1,0.1,0.2,0.1,0.3H61C60.9,67,60.9,66.9,60.9,66.9
		L60.9,66.9z M60.7,66.5L60.7,66.5c0.1,0,0.2,0.1,0.2,0.1l-0.2,0.1C60.8,66.6,60.7,66.5,60.7,66.5L60.7,66.5z M78.9,50.6
		c0,0,0-0.1,0-0.2l0,0c0-0.2,0-0.3,0-0.5c0.1-0.4,0-0.9-0.2-1.2c-0.1-0.1-0.2-0.2-0.4-0.3c0-0.3-0.1-1.2-0.2-2.2
		c-0.1-1.2-0.2-1.9-0.2-2.9V43c0-1.6,0.1-6.6,0.1-7.9c-0.1-1.4-0.5-3.5-0.8-4.5c0-0.1-0.1-0.3-0.2-0.6c-0.3-1.4-1.1-4.1-2.7-6.6
		c-2.2-3.2-5.7-5.5-10.1-6.4c-5.3-1.1-10-0.4-12.4,0.5c-2.3,0.9-5.7,2.5-8.3,6.1c-2.3,3.2-3,9.2-3.2,12.4c-0.1,2.1-0.2,4.7-0.3,6.1
		c0,0.5,0,0.8,0,1c0,0.5-0.1,2.2-0.1,2.7c0,0.3,0,1.8,0,2.4c-0.1,0-0.2,0-0.3,0c-0.5,0.1-0.9,0.7-0.9,1c0,0.1,0,0.3,0,0.4
		c0,0.2,0,0.3,0,0.4c0,0.2,0,0.3,0.1,0.5c0,0.4-0.1,2.7,0,3.9c0,0.9,0.3,2.2,0.4,3.2c0.1,0.5,0.2,0.9,0.2,1c0,0.4,0.2,6.7,0.4,8.3
		c0.2,1.7,0.3,3.3,0.9,4.2c0.3,0.6,0.8,1.2,1.4,1.6l0,0c0.1,0.1,0.2,0.3,0.2,0.5c0,0.1,0,0.1,0,0.1l0,0c0.1,0.8,1.1,0.9,2.2,0.9
		c1.3,0,2.5,0,3.8,0.1h0.5c1.3,0.1,7.7,0.3,8,0.4l0,0c2.9,0,5.5-0.2,7.5-0.3c1.8-0.1,3.1-0.2,4.1-0.1c2,0.2,5.6,0,5.6,0h0.1
		c0.2-0.1,0.5-0.2,0.7-0.4c0.1-0.1,0.2-0.3,0.3-0.5c0.3-0.1,0.8-0.4,1.1-0.7c0.3-0.3,0.6-0.8,0.7-1s0.1-0.3,0.1-0.5s0.1-0.5,0.2-0.8
		s0.4-1.6,0.7-2.7v-0.2c0.1-0.4,0.2-1.4,0.2-2.3c0-0.2,0-0.3,0-0.5c0.1-1,0.3-3.9,0.5-4.9s0.2-3.9,0.2-4.4s0-1.2,0.2-1.7
		s0.2-0.9,0.2-1.3c0-0.1,0-0.3,0-0.4C79.1,51.8,78.9,50.6,78.9,50.6z M46.6,58.5L46.6,58.5c-0.2,1-0.5,2-0.7,2.9
		c-0.1,0.5-0.2,1-0.3,1.5c-0.1,0.3-0.1,0.6-0.2,0.8c-0.1,0.3,0,0.5-0.4,0.5s-0.5-0.1-0.5-0.5c0-0.2,0-0.5,0.1-0.7
		c0.1-0.5,0.2-1,0.3-1.5c0.2-1,0.5-2,0.7-3.1C46,58.5,46.3,58.5,46.6,58.5z M46.9,58.5L46.9,58.5h-0.2c-0.3,0-0.7-0.1-1-0.1
		c0,0-0.1,0-0.2,0c-0.6,0-1.2-0.1-1.5-0.1c0-0.1,0-0.1,0-0.2c0-0.1,0-0.3,0-0.5c0-0.4,0.1-0.8,0.1-1.4c0-0.1,0-0.4,0-0.7
		c0.9,0.1,5,0.5,6.9,0.6s7,0.2,10,0.2c0.5,0,0.9,0,1.2,0c2.5,0,9.3-0.1,9.3-0.1l1.7-0.1c0,0.6,0,1.1,0,1.6c0,0.4,0,0.9,0,1.2
		c-0.9,0-4,0.1-5,0.2c-0.8,0.1-4.6,0-7.9,0c-1.4,0-2.8,0-3.7,0c-2.7,0-7.7-0.5-9.5-0.7L46.9,58.5z M73.4,54.1c0,0.6-0.1,1.3-0.1,2
		l-1.7,0.1c-0.1,0-6.9,0.1-9.3,0.1c-2.5,0.1-9.1-0.1-11.2-0.2c-2-0.1-6.1-0.5-6.9-0.6c0-0.5,0-1.2,0-1.9c0-1.6,0-3.4,0-4.2
		s-0.1-1.6-0.3-2.5c-0.1-0.7-0.2-1.5-0.3-2.2c-0.1-1.6,0.8-10.9,1.8-13.3c0.7-1.7,1.7-3,4.7-4.8c2-1.2,5.2-1.9,8.4-1.9
		c2.4,0,3.7,0.4,5.4,0.8c0.5,0.1,1.1,0.3,1.7,0.4c2.4,0.6,4.1,1.8,5.9,4.4c1.6,2.4,1.7,3.2,1.8,5.1v0.4c0.1,2.1,0.3,7.2,0.3,9.3
		C73.7,47.3,73.5,52.5,73.4,54.1L73.4,54.1z M44,51.7L44,51.7L44,51.7z M72.1,30c-1.9-2.8-3.7-4.1-6.3-4.7c-0.6-0.1-1.2-0.3-1.7-0.4
		c-1.7-0.5-3.1-0.8-5.6-0.8c-3.3,0-6.6,0.7-8.7,2c-2.3,1.4-3.9,2.6-4.9,5s-2,11.9-1.8,13.5c0,0.8,0.2,1.5,0.3,2.3
		c0.1,0.9,0.3,1.7,0.3,2.5c0,0.2,0,0.5,0,0.9c-0.8,0.1-1.7,0-2.5-0.3h-0.1l0,0c0-0.8,0-1.6,0.1-2.4c0-1.1,0.2-2.2,0.3-3.3
		c0.1-1.8,0-3.7,0.2-5.5c0.1-1.3,0.2-2.6,0.4-3.9c0.4,0,0.8-0.5,1-0.9c0.5-0.8,0.7-1.9,1-2.8c0.3-1,0.7-2,0.7-3l0,0
		c1.1-1.3,2.4-2.3,3.9-3.1c1.5-0.8,3.2-1.5,4.8-1.9c1.8-0.4,3.7-0.4,5.6-0.2c1.9,0.2,3.8,0.6,5.7,1c1.7,0.4,3.3,0.9,4.8,1.7
		c1.1,0.6,2.2,1.4,3.1,2.2c1,0.9,1.9,1.8,2.5,3c0.9,2,1.3,4.3,1.3,6.5s0.2,4.3,0.4,6.5c0.1,2,0.1,4,0,5.9c0,0.2,0,0.3,0,0.5
		c-0.9,0.4-1.9,0.4-2.7,0.4c-0.1,0-0.1,0-0.1,0c0.1-2,0.1-4.3,0.1-5.6c0-2.2-0.2-7.2-0.3-9.3v-0.4C73.9,33.5,73.8,32.5,72.1,30
		L72.1,30z M41.6,34.2c-0.3-0.2-0.3-0.2-0.1-0.5s0.4-0.6,0.6-0.9c0.6-1,1.1-2,1.6-3c0.2-0.4,0.5-0.9,0.8-1.2c0,0.3-0.1,0.6-0.1,0.8
		l0,0l0,0c0,0.1,0,0.2-0.1,0.3v-0.3l-0.2,0.4c0,0,0,0.1,0.1,0.1l0,0h0.1c0,0.2-0.1,0.4-0.2,0.6v-0.4l-0.2,0.4c0,0,0,0.1,0.1,0.1l0,0
		h0.1c-0.3,0.8-0.6,1.7-0.8,2.5c-0.2,0.5-0.3,0.9-0.7,1.3C42.2,34.6,41.9,34.5,41.6,34.2L41.6,34.2z M74.1,50.9L74.1,50.9
		c1,0.1,1.9-0.1,2.8-0.4c0.6-0.2,1.1-0.5,1.4-0.9c0,0.1,0,0.2,0,0.3c0,0.2-0.1,0.5,0,0.7L78,50.9l0.3-0.1l0,0
		c-0.1,0.2-0.2,0.3-0.3,0.4c-0.3,0.3-0.9,0.5-1.3,0.6C75.8,52,75,52,74.1,51.9C74.1,51.6,74.1,51.2,74.1,50.9z M44,24
		c2.5-3.5,5.8-5,8-5.9c3.5-1.3,8.6-1.2,12.1-0.5c4.2,0.9,7.7,3.1,9.8,6.2c1.6,2.4,2.3,5.1,2.6,6.4c0.1,0.3,0.1,0.5,0.2,0.6
		c0.3,1,0.8,3,0.8,4.3c0,0.8,0,3.5-0.1,7.8v0.3c0,1.1,0,1.8,0.2,3s0.3,2.3,0.3,2.3c0,0.1,0.1,0.2,0.1,0.2c0.1,0.1,0.2,0.2,0.3,0.3
		c0,0,0,0,0.1,0.1c-0.2,0.4-0.5,0.8-0.9,1c0-1.8,0.1-3.5,0-5.2c0-2.2-0.3-4.3-0.4-6.5c-0.1-2.3-0.2-4.5-1-6.6
		c-0.9-2.5-3-4.3-5.2-5.7c-2.9-1.8-6.5-2.5-9.8-3c-1.8-0.3-3.6-0.4-5.5-0.3c-1.7,0.1-3.2,0.6-4.8,1.2c-2.3,1-4.5,2.2-6.2,4.1
		c0,0,0,0-0.1,0.1v0.1c-0.1,0.2-0.3,0.3-0.4,0.5c-0.3,0.5-0.6,1-0.9,1.5v0.1c-0.3,0.6-0.6,1.2-1,1.9c-0.4,0.7-0.8,1.2-1.1,1.8
		C41.4,30.6,42.2,26.5,44,24z M40.4,48.5c0-0.1,0.1-2.2,0.1-2.6s0.1-2.2,0.1-2.7c0-0.1,0-0.5,0-1c0-1.4,0.1-3.9,0.3-6
		c0-0.6,0.1-1.3,0.2-2c0,0,0,0,0,0.1c0.2,0.2,0.4,0.4,0.7,0.5c-0.1,0.6-0.2,1.1-0.2,1.7c-0.2,1.8-0.4,3.7-0.4,5.5
		c0,2.4-0.3,4.8-0.4,7.3c0,0.2,0,0.5,0,0.7c-0.3-0.1-0.7-0.3-0.8-0.6l0.1-0.3c0-0.1,0-0.1,0-0.2l0,0C40.3,48.7,40.4,48.6,40.4,48.5
		L40.4,48.5z M39.7,48.8L39.7,48.8c0.1,0.3-0.2,0.6,0.1,0.8s0.8,0.4,1.1,0.5c0.9,0.3,1.8,0.4,2.7,0.3c0,0.3,0,0.7,0,1l0,0
		c0,0-0.1,0-0.1,0.1c0,0,0,0.1,0.1,0.1l0,0c0,0,0,0.1,0,0.2c-0.8,0-1.6-0.2-2.3-0.4s-1.5-0.3-1.9-0.9l0,0c0,0,0,0,0-0.1
		s-0.1-0.2-0.1-0.3s0-0.3,0-0.5s0-0.3,0-0.4C39.3,49.2,39.4,48.9,39.7,48.8L39.7,48.8z M42.5,72.4c-0.5-0.4-1-0.9-1.3-1.4
		c-0.5-0.9-0.6-2.5-0.8-4c-0.2-1.6-0.4-7.8-0.4-8.2s-0.1-0.8-0.2-1.1c-0.2-1-0.4-2.2-0.4-3.1c0-1,0-2.8,0-3.5c0.4,0.3,1,0.5,1.5,0.6
		c0.9,0.2,1.8,0.5,2.7,0.5c0,0.5,0,1,0,1.5c0,1.2,0,2.3,0,2.7c0,0.5,0,1-0.1,1.3c0,0.2,0,0.4,0,0.6c0,0.1,0,0.2,0,0.3
		c0,0.4,0,0.7,0,1.1c-0.1,0.8-0.4,4.5-0.4,5.7c0,0.4,0,1.1,0.1,1.7c0.1,1,0.2,2.3,0,2.7c-0.2,0.5-0.4,2-0.5,2.9
		C42.6,72.5,42.6,72.5,42.5,72.4L42.5,72.4z M74.3,73.7C74.2,73.9,74,74,73.9,74c-0.4,0-3.7,0.1-5.5,0c-0.9-0.1-2.4,0-4.1,0.1
		c-2,0.1-4.5,0.3-7.4,0.3c-0.2,0-6.6-0.2-7.9-0.4h-0.5c-0.9-0.1-1.7-0.1-2.8-0.1c-0.3,0-0.6,0-1,0c-1.5,0-1.6-0.3-1.6-0.4l0,0
		c0.1,0,0.1-0.1,0.1-0.2c0,0,0.4-2.8,0.6-3.4c0.2-0.4,0.1-1.4,0-2.9c0-0.7-0.1-1.3-0.1-1.7c0-1.2,0.3-5,0.4-5.6
		c0.1-0.4,0.1-0.8,0-1.2l0,0c0.3,0,0.8,0,1.4,0.1l0,0c-0.3,1.3-0.6,2.7-1,4c-0.1,0.5-0.4,1.2-0.2,1.7c0.1,0.3,0.7,0.3,1,0.4
		c0.2,0,0.3,0,0.5-0.2c0.1-0.2,0.1-0.5,0.2-0.8c0.1-0.3,0.2-0.7,0.2-1c0.3-1.3,0.6-2.6,0.9-3.9h0.3c1.9,0.2,6.8,0.7,9.5,0.7
		c0.9,0,2.3,0,3.7,0c1.7,0,3.5,0,5,0c1.4,0,2.5,0,2.9,0c1-0.1,4.1-0.2,5-0.2c0,0.7,0.1,1.9,0.2,3c0.1,0.8,0.1,1.5,0.2,2
		c0,0.5,0.1,1.7,0.1,3c0.1,2,0.1,4,0.2,4.4c0.1,0.6,0.2,1.6,0.3,1.9v0.1C74.4,73.6,74.4,73.7,74.3,73.7L74.3,73.7z M78.5,52.3
		c0,0.1,0,0.3,0,0.4c0,0.4,0,0.8-0.2,1.2c-0.2,0.6-0.2,1.3-0.2,1.9c0,0.7,0,3.4-0.2,4.3C77.7,61,77.5,64,77.4,65c0,0.2,0,0.3,0,0.5
		c-0.1,0.9-0.1,1.9-0.2,2.2v0.2c-0.1,0.6-0.5,2.3-0.7,2.6c-0.1,0.3-0.2,0.6-0.2,0.8c0,0.1-0.1,0.2-0.1,0.4c-0.2,0.3-0.4,0.6-0.6,0.9
		c-0.1,0.2-0.4,0.3-0.7,0.5c-0.1-0.4-0.2-1.2-0.2-1.6s-0.1-2.5-0.2-4.4c0-1.3-0.1-2.6-0.1-3c0-0.5-0.1-1.2-0.2-2
		c-0.1-1.1-0.2-2.3-0.2-3c0-0.3,0-0.8,0-1.2c0-1.1-0.1-2.5,0-3.6c0-0.4,0.1-1.1,0.1-2c0.9,0.1,1.9,0.1,2.8-0.2
		c0.4-0.1,0.8-0.3,1.2-0.5c0.1-0.1,0.2-0.2,0.3-0.3C78.5,51.5,78.5,51.9,78.5,52.3L78.5,52.3z M48,42.3c0.4,0.1,1.2,0.4,1.4-0.1
		c0,0.1,0,0.2,0,0.3c0,2,0,4,0,5.9c0,0.8,0,1.7,0,2.5c0,0.4,0.1,0.6,0.5,0.8c0.4,0.1,1,0.2,1.3-0.1s0.3-0.6,0.3-1c0-1,0-2.1,0-3.1
		c0-3.4,0-6.8,0-10.2c0-2,0-4,0-6c0-0.3,0.1-0.5-0.2-0.7c-0.3-0.1-0.9-0.1-1.2-0.1c-0.2,0-0.9,0.2-0.8,0.6c0,1.4,0,2.7,0,4.1
		c-0.1,0.1-0.2,0.2-0.2,0.3L49,35.2l0,0v0.4c0,0,0,0.1,0.1,0.1c-0.3,0.6-0.5,1.4-0.6,2.1C48.1,39.3,47.9,40.8,48,42.3
		C47.9,42.3,47.9,42.3,48,42.3z M51.2,31c0.1,0.2,0,0.9,0,1.2c0,0.8,0,1.6,0,2.5c0,1.4,0,2.8,0,4.1c0,2.8,0,5.7,0,8.5
		c0,0.9,0,1.8,0,2.7c0,0.4,0,0.8,0,1.2c-0.1,0.7-1.2,0.7-1.4,0.1c-0.1-0.4,0-1.1,0-1.6c0-0.8,0-1.6,0-2.4c0-1.7,0-3.4,0-5.1
		c0-3.7,0-7.4,0-11c0,0,0,0,0-0.1c0,0,0,0,0-0.1l0,0C49.8,30.7,51.1,30.8,51.2,31z M48.3,40.2c0.1-1,0.3-2,0.5-3
		c0.1-0.5,0.3-1.1,0.5-1.6c0,0.3,0,0.6,0,0.9l0,0c0,0-0.1,0-0.1,0.1l0,0V37l0.1-0.3c0,0.9,0,1.7,0,2.6c-0.2,0.8-0.2,1.7-0.3,2.5
		c0,0.1,0,0.3,0,0.4c-0.2,0.1-0.4,0.1-0.5,0c-0.3-0.1-0.3-0.2-0.3-0.5C48.2,41.3,48.3,40.7,48.3,40.2z M72.1,55.8
		C72.1,55.8,72.1,55.9,72.1,55.8L72.1,55.8h-0.5H72.1C72.1,55.7,72.1,55.8,72.1,55.8L72.1,55.8z M72.7,55.7
		C72.7,55.8,72.7,55.8,72.7,55.7L72.7,55.7h-0.5H72.7C72.7,55.6,72.7,55.7,72.7,55.7L72.7,55.7z M72.8,55.7L72.8,55.7L72.8,55.7z
		 M70.9,55.8C70.9,55.9,70.8,55.9,70.9,55.8L70.9,55.8h-0.5H70.9C70.8,55.7,70.9,55.8,70.9,55.8L70.9,55.8L70.9,55.8z M71,55.8
		L71,55.8L71,55.8z M71.5,55.8C71.5,55.9,71.4,55.9,71.5,55.8L71.5,55.8H71H71.5L71.5,55.8L71.5,55.8L71.5,55.8z M45.3,55.2
		C45.3,55.3,45.2,55.3,45.3,55.2C45.2,55.3,45.2,55.3,45.3,55.2h-0.5H45.3C45.2,55.1,45.3,55.2,45.3,55.2L45.3,55.2L45.3,55.2z
		 M45.4,55.2L45.4,55.2L45.4,55.2z M45.9,55.2C45.9,55.3,45.8,55.3,45.9,55.2L45.9,55.2h-0.5H45.9C45.8,55.1,45.9,55.2,45.9,55.2
		L45.9,55.2L45.9,55.2z M44.7,55.1C44.7,55.2,44.7,55.2,44.7,55.1L44.7,55.1h-0.5H44.7C44.7,55,44.7,55.1,44.7,55.1L44.7,55.1
		L44.7,55.1z M46.6,55.2C46.6,55.3,46.5,55.3,46.6,55.2L46.6,55.2h-0.5H46.6C46.5,55.1,46.6,55.2,46.6,55.2L46.6,55.2L46.6,55.2z
		 M47.2,55.4C47.2,55.4,47.1,55.5,47.2,55.4C47.1,55.5,47.1,55.5,47.2,55.4h-0.5H47.2C47.1,55.3,47.2,55.3,47.2,55.4L47.2,55.4
		L47.2,55.4z M73.3,55.7C73.3,55.7,73.3,55.8,73.3,55.7L73.3,55.7h-0.5H73.3C73.3,55.6,73.3,55.7,73.3,55.7L73.3,55.7z M57.8,55.8
		C57.8,55.9,57.7,55.9,57.8,55.8L57.8,55.8h-0.5H57.8C57.7,55.7,57.8,55.8,57.8,55.8L57.8,55.8z M47.6,55.3l-0.4,0.1l0.4,0.1
		C47.7,55.5,47.7,55.4,47.6,55.3C47.7,55.3,47.7,55.3,47.6,55.3L47.6,55.3L47.6,55.3z M52.8,55.8C52.8,55.8,52.7,55.8,52.8,55.8
		L52.8,55.8l-0.5-0.1L52.8,55.8C52.7,55.7,52.8,55.7,52.8,55.8C52.8,55.7,52.8,55.8,52.8,55.8L52.8,55.8z M52.2,55.6
		C52.2,55.7,52.1,55.7,52.2,55.6L52.2,55.6h-0.5H52.2C52.1,55.5,52.2,55.6,52.2,55.6L52.2,55.6L52.2,55.6z M62.7,55.9
		C62.7,56,62.7,56,62.7,55.9L62.7,55.9h-0.4H62.7C62.7,55.8,62.7,55.9,62.7,55.9L62.7,55.9L62.7,55.9z M53.3,55.7l-0.4,0.1l0,0
		l0.4,0.1C53.3,55.8,53.3,55.8,53.3,55.7L53.3,55.7C53.4,55.7,53.3,55.7,53.3,55.7L53.3,55.7z M63.5,55.8L63.5,55.8L63.5,55.8z
		 M64,55.9C64,56,64,56,64,55.9h-0.5H64C63.9,55.8,64,55.8,64,55.9L64,55.9L64,55.9z M51.5,55.6C51.5,55.7,51.4,55.7,51.5,55.6
		L51.5,55.6H51H51.5C51.4,55.5,51.5,55.6,51.5,55.6L51.5,55.6L51.5,55.6z M63.4,55.9C63.4,56,63.4,56,63.4,55.9L63.4,55.9h-0.5H63.4
		C63.4,55.8,63.4,55.8,63.4,55.9L63.4,55.9L63.4,55.9z M55.1,55.7L55.1,55.7c-0.2,0-0.2,0-0.4,0.1c0.1,0,0.2,0.1,0.3,0.1h0.1
		C55.1,55.9,55.2,55.9,55.1,55.7C55.2,55.7,55.2,55.7,55.1,55.7L55.1,55.7L55.1,55.7z M54.6,55.8C54.6,55.8,54.6,55.9,54.6,55.8
		L54.6,55.8h-0.5H54.6C54.6,55.7,54.6,55.7,54.6,55.8L54.6,55.8L54.6,55.8z M55.9,55.8C55.9,55.8,55.9,55.9,55.9,55.8L55.9,55.8
		h-0.5H55.9C55.9,55.7,55.9,55.7,55.9,55.8L55.9,55.8L55.9,55.8z M54,55.8C54,55.8,54,55.9,54,55.8L54,55.8h-0.5H54
		C54,55.7,54,55.7,54,55.8L54,55.8L54,55.8z M64.6,55.9C64.6,55.9,64.5,56,64.6,55.9C64.5,56,64.5,56,64.6,55.9h-0.4H64.6
		C64.5,55.8,64.6,55.8,64.6,55.9L64.6,55.9L64.6,55.9z M56.5,55.8C56.5,55.9,56.5,55.9,56.5,55.8L56.5,55.8H56H56.5
		C56.5,55.7,56.5,55.8,56.5,55.8L56.5,55.8L56.5,55.8z M58.4,55.8C58.4,55.9,58.3,55.9,58.4,55.8L58.4,55.8h-0.5H58.4
		C58.3,55.7,58.4,55.8,58.4,55.8L58.4,55.8L58.4,55.8z M61.5,55.9C61.5,56,61.5,56,61.5,55.9H61H61.5C61.5,55.8,61.5,55.8,61.5,55.9
		L61.5,55.9L61.5,55.9z M60.7,55.8l-0.4,0.1l0.4,0.1C60.8,56,60.8,56,60.7,55.8C60.8,55.8,60.8,55.8,60.7,55.8L60.7,55.8L60.7,55.8z
		 M62,55.8l-0.4,0.1L62,56c0,0,0.1,0,0.1-0.1C62.1,55.8,62.1,55.8,62,55.8L62,55.8z M58.9,55.8l-0.4,0.1l0,0l0.4,0.1
		C58.9,55.9,59,55.9,58.9,55.8C59,55.8,58.9,55.8,58.9,55.8L58.9,55.8L58.9,55.8z M59.7,55.9C59.7,55.9,59.6,56,59.7,55.9L59.7,55.9
		h-0.5H59.7C59.6,55.8,59.7,55.8,59.7,55.9L59.7,55.9L59.7,55.9z M60.1,55.8l-0.4,0.1l0.4,0.1C60.1,56,60.2,56,60.1,55.8
		C60.2,55.8,60.2,55.8,60.1,55.8L60.1,55.8z M57,55.7l-0.4,0.1l0,0l0.4,0.1C57,55.9,57.1,55.9,57,55.7C57.1,55.8,57.1,55.7,57,55.7
		L57,55.7L57,55.7z M49.2,55.5L49.2,55.5L49.2,55.5z M49,55.5C49,55.5,49,55.6,49,55.5L49,55.5h-0.5H49C49,55.4,49,55.4,49,55.5
		L49,55.5z M50.3,55.5C50.3,55.6,50.3,55.6,50.3,55.5L50.3,55.5h-0.5H50.3C50.3,55.4,50.3,55.5,50.3,55.5L50.3,55.5z M67.7,55.9
		C67.7,55.9,67.7,56,67.7,55.9L67.7,55.9h-0.5H67.7C67.7,55.8,67.7,55.8,67.7,55.9L67.7,55.9z M67.3,55.9L67.3,55.9L67.3,55.9z
		 M67.1,55.9C67.1,55.9,67.1,56,67.1,55.9L67.1,55.9c-0.2,0.1-0.4,0.1-0.5,0C66.8,55.8,66.9,55.8,67.1,55.9
		C67.1,55.8,67.1,55.8,67.1,55.9L67.1,55.9L67.1,55.9z M67.2,55.9L67.2,55.9L67.2,55.9z M50.9,55.6C50.9,55.7,50.9,55.7,50.9,55.6
		L50.9,55.6h-0.5H50.9C50.9,55.5,50.9,55.6,50.9,55.6L50.9,55.6z M69.1,55.9L69.1,55.9L69.1,55.9z M69,55.9C69,55.9,69,56,69,55.9
		L69,55.9h-0.5H69C69,55.8,69,55.8,69,55.9L69,55.9L69,55.9z M69.1,55.8L69.1,55.8L69.1,55.8L69.1,55.8z M69.6,55.8
		C69.6,55.8,69.6,55.9,69.6,55.8L69.6,55.8h-0.5l0,0l0,0l0.3-0.1C69.5,55.8,69.6,55.8,69.6,55.8L69.6,55.8L69.6,55.8z M68.4,55.9
		C68.4,55.9,68.4,56,68.4,55.9L68.4,55.9h-0.5H68.4C68.4,55.8,68.4,55.8,68.4,55.9L68.4,55.9L68.4,55.9z M48.4,55.5
		C48.4,55.5,48.4,55.6,48.4,55.5L48.4,55.5h-0.5H48.4C48.4,55.4,48.4,55.4,48.4,55.5L48.4,55.5z M49.6,55.5
		C49.6,55.6,49.6,55.6,49.6,55.5C49.5,55.6,49.5,55.6,49.6,55.5h-0.5H49.6C49.6,55.4,49.6,55.5,49.6,55.5L49.6,55.5z M65.4,55.9
		L65.4,55.9L65.4,55.9z M65.4,55.9L65.4,55.9L65.4,55.9z M65.9,55.9C65.9,56,65.8,56,65.9,55.9L65.9,55.9h-0.5H65.9
		C65.8,55.8,65.9,55.8,65.9,55.9L65.9,55.9z M65.3,55.9C65.3,55.9,65.2,56,65.3,55.9L65.3,55.9h-0.5H65.3
		C65.2,55.8,65.3,55.8,65.3,55.9L65.3,55.9L65.3,55.9z M70.3,55.8C70.3,55.8,70.3,55.9,70.3,55.8L70.3,55.8h-0.5H70.3
		C70.2,55.7,70.3,55.8,70.3,55.8L70.3,55.8z M66.6,55.8C66.6,55.9,66.5,55.9,66.6,55.8L66.6,55.8h-0.5H66.6
		C66.5,55.8,66.5,55.8,66.6,55.8L66.6,55.8z M49.1,32.5l0.1-0.4l0.1,0.4C49.3,32.5,49.3,32.6,49.1,32.5L49.1,32.5
		C49.1,32.6,49.1,32.6,49.1,32.5C49.1,32.6,49.1,32.5,49.1,32.5z M49.1,33.1l0.1-0.4l0.1,0.4c0,0,0,0.1-0.1,0.1
		C49.1,33.3,49.1,33.2,49.1,33.1C49.1,33.2,49.1,33.1,49.1,33.1L49.1,33.1z M49,34.4l0.1-0.4l0.1,0.4C49.2,34.4,49.2,34.5,49,34.4
		C49,34.6,49,34.5,49,34.4L49,34.4L49,34.4z M49.7,30.3c0,0,0-0.1,0.1-0.1l0,0h0.4L49.7,30.3C49.7,30.4,49.7,30.3,49.7,30.3
		L49.7,30.3L49.7,30.3z M49.5,30.2L49.5,30.2L49.5,30.2z M49.1,31.9l0.1-0.4l0,0l0.1,0.4c0,0,0,0.1-0.1,0.1S49.1,32,49.1,31.9
		L49.1,31.9L49.1,31.9z M49.1,31.3l0.2-0.4v0.4c0,0,0,0.1-0.1,0.1C49.1,31.4,49.1,31.4,49.1,31.3L49.1,31.3L49.1,31.3z M49.2,30.6
		l0.2-0.3v0.4l-0.1,0.1C49.3,30.7,49.2,30.6,49.2,30.6L49.2,30.6z M49,33.7v-0.1c0-0.1,0-0.2,0.1-0.3c0.1,0.2,0.1,0.2,0.1,0.3v0.1
		c0,0,0,0.1-0.1,0.1S49,33.8,49,33.7L49,33.7L49,33.7z M49.3,52v-0.4l0.2,0.3c0,0,0,0.1-0.1,0.1l0,0C49.4,52,49.3,52,49.3,52
		L49.3,52L49.3,52z M49.3,51.6L49.3,51.6L49.3,51.6z M49,35l0.1-0.4l0.1,0.4C49.2,35,49.2,35.1,49,35L49,35C49,35.1,49,35.1,49,35
		L49,35L49,35z M51.2,52.3l-0.4-0.1l0.4-0.1C51.2,52.1,51.3,52.1,51.2,52.3C51.3,52.3,51.3,52.3,51.2,52.3L51.2,52.3L51.2,52.3z
		 M50.7,52.3C50.7,52.3,50.7,52.4,50.7,52.3C50.6,52.4,50.6,52.4,50.7,52.3h-0.5H50.7C50.7,52.2,50.7,52.2,50.7,52.3L50.7,52.3
		L50.7,52.3z M49,43.1l0.1-0.3l0.1,0.3C49.2,43.1,49.2,43.2,49,43.1C49,43.2,49,43.1,49,43.1L49,43.1L49,43.1z M49.3,51.6L49.3,51.6
		L49.3,51.6z M50.8,52.3L50.8,52.3L50.8,52.3z M50.8,52.3L50.8,52.3L50.8,52.3z M49,45l0.1-0.4l0.1,0.4C49.2,45,49.2,45.1,49,45
		C49,45.1,49,45.1,49,45C49,45.1,49,45.1,49,45L49,45z M40,50.8L40,50.8L40,50.8z M40,50.7L40,50.7L40,50.7z M39.6,50.5
		C39.6,50.5,39.7,50.4,39.6,50.5L39.6,50.5l0.4,0.3l-0.4-0.1C39.6,50.6,39.5,50.6,39.6,50.5L39.6,50.5z M52,33L52,33L52,33z
		 M52.1,33.8L52,34.2l-0.1-0.4C51.9,33.8,51.9,33.7,52.1,33.8C52,33.7,52.1,33.7,52.1,33.8z M52.1,38.2L52,38.6l-0.1-0.4
		c0,0,0-0.1,0.1-0.1S52.1,38.1,52.1,38.2L52.1,38.2L52.1,38.2z M52.1,35.1L52,35.5l-0.1-0.4C51.9,35.1,51.9,35,52.1,35.1
		C52.1,35,52.1,35,52.1,35.1L52.1,35.1L52.1,35.1z M52.1,32.6L52,33l-0.1-0.4C51.9,32.6,51.9,32.5,52.1,32.6
		C52.1,32.5,52.1,32.5,52.1,32.6L52.1,32.6L52.1,32.6z M52.2,44.4l-0.1,0.4L52,44.4C52,44.4,52,44.3,52.2,44.4
		C52.1,44.3,52.2,44.4,52.2,44.4L52.2,44.4z M52,38.6L52,38.6L52,38.6z M50.1,30.2L50.1,30.2L50.1,30.2z M52.2,43.8l-0.1,0.4
		L52,43.8C52,43.8,52,43.7,52.2,43.8C52.1,43.7,52.1,43.7,52.2,43.8C52.1,43.7,52.2,43.8,52.2,43.8L52.2,43.8L52.2,43.8z M52.1,38.6
		L52.1,38.6L52.1,38.6z M52.2,43.2l-0.1,0.4L52,43.2c0,0,0-0.1,0.1-0.1l0,0C52.1,43.2,52.2,43.2,52.2,43.2L52.2,43.2L52.2,43.2z
		 M52.1,45.1L52,45.5l0,0L52.1,45.1C52,45.1,52,45,52.1,45.1C52.1,45,52.1,45,52.1,45.1L52.1,45.1L52.1,45.1z M51.8,30.6L51.8,30.6
		L51.8,30.6z M51.8,30.8c0,0,0-0.1,0.1-0.1c0,0,0.1,0,0.1,0.1l-0.1,0.4L51.8,30.8z M50.8,30.2c0,0,0-0.1,0.1-0.1l0,0h0.4L51,30.3
		C50.9,30.3,50.9,30.3,50.8,30.2L50.8,30.2z M50.2,30.2c0,0,0-0.1,0.1-0.1l0,0h0.4L50.2,30.2C50.3,30.3,50.3,30.2,50.2,30.2
		L50.2,30.2z M50.1,30.2L50.1,30.2L50.1,30.2z M51.5,30.4v-0.1h0.1l0,0l0.1,0.4L51.5,30.4z M52,31.9C52,31.9,52.1,31.9,52,31.9
		c0.1,0.1,0.1,0.1,0.1,0.1L52,32.4V31.9C51.9,31.9,51.9,31.9,52,31.9L52,31.9L52,31.9z M51.9,31.1L51.9,31.1L51.9,31.1z M52,31.3
		l-0.1,0.4l-0.1-0.4c0,0,0-0.1,0.1-0.1C51.9,31.2,52,31.2,52,31.3L52,31.3L52,31.3z M42.8,51.6C42.8,51.5,42.8,51.5,42.8,51.6
		L42.8,51.6h0.5H42.8C42.8,51.7,42.8,51.6,42.8,51.6L42.8,51.6z M76.6,51.6h-0.4l0.4-0.2C76.7,51.4,76.7,51.5,76.6,51.6
		C76.7,51.6,76.7,51.6,76.6,51.6z M76.2,51.6L76.2,51.6L76.2,51.6z M76.2,51.6L76.2,51.6L76.2,51.6z M77.3,51.4l-0.4,0.1l0.3-0.2
		c0.1,0,0.1,0,0.1,0C77.4,51.3,77.3,51.4,77.3,51.4L77.3,51.4z M77.9,51C77.9,51,77.8,50.9,77.9,51L77.9,51l-0.4,0.3l0,0l0,0
		l0.4-0.1C77.9,51.1,77.9,51,77.9,51L77.9,51L77.9,51z M77.5,51.2L77.5,51.2L77.5,51.2z M42.5,51.5L42.5,51.5L42.5,51.5z M42.6,51.5
		L42.6,51.5L42.6,51.5z M42.5,51.5L42.5,51.5L42.5,51.5z M78.1,50.9L78.1,50.9L78.1,50.9z M75.3,51.8l-0.4-0.1l0.4-0.1
		C75.4,51.6,75.4,51.6,75.3,51.8C75.4,51.7,75.4,51.8,75.3,51.8z M75.6,51.7L75.6,51.7L75.6,51.7z M74.7,51.7
		C74.7,51.7,74.7,51.8,74.7,51.7L74.7,51.7h-0.5H74.7C74.7,51.5,74.7,51.6,74.7,51.7L74.7,51.7L74.7,51.7z M75.9,51.7l-0.4-0.1
		l0.4-0.1C76,51.5,76,51.5,75.9,51.7C76,51.7,76,51.7,75.9,51.7L75.9,51.7L75.9,51.7z M52.2,42.6L52.1,43L52,42.6
		C52,42.5,52,42.5,52.2,42.6L52.2,42.6C52.2,42.5,52.2,42.5,52.2,42.6z M49.1,51.2l0.1-0.4l0.1,0.4C49.3,51.2,49.3,51.3,49.1,51.2
		C49.1,51.3,49.1,51.3,49.1,51.2C49.1,51.3,49.1,51.3,49.1,51.2L49.1,51.2z M50,52.3l-0.4-0.1l0.4-0.1C50,52.1,50.1,52.1,50,52.3
		C50.1,52.2,50.1,52.3,50,52.3z M51.7,52l-0.2,0.3l0.1-0.4c0,0,0.1-0.1,0.1,0l0,0C51.7,51.8,51.8,51.9,51.7,52L51.7,52L51.7,52z
		 M51.5,52.3L51.5,52.3L51.5,52.3z M49.1,50.7C49.1,50.7,49,50.7,49.1,50.7C49,50.6,49,50.6,49.1,50.7v-0.5V50.7
		C49.2,50.7,49.2,50.7,49.1,50.7L49.1,50.7L49.1,50.7z M52.2,42l-0.1,0.4L52,42C52,41.9,52,41.9,52.2,42
		C52.1,41.9,52.1,41.9,52.2,42C52.1,41.9,52.2,41.9,52.2,42L52.2,42L52.2,42z M52.2,41.4l-0.1,0.3L52,41.4c0,0,0-0.1,0.1-0.1l0,0
		C52.1,41.3,52.2,41.3,52.2,41.4L52.2,41.4L52.2,41.4z M49,43.8l0.1-0.4l0.1,0.4C49.1,43.8,49.1,43.9,49,43.8L49,43.8L49,43.8z
		 M49,44L49,44L49,44z M49,47.5l0.1-0.4l0.1,0.4C49.2,47.6,49.2,47.6,49,47.5C49,47.6,49,47.6,49,47.5L49,47.5L49,47.5z M49,44.4
		l0.1-0.4l0.1,0.4C49.2,44.4,49.2,44.5,49,44.4C49,44.5,49,44.4,49,44.4L49,44.4L49,44.4z M49.1,44L49.1,44L49.1,44z M49,46.9
		l0.1-0.4l0.1,0.4C49.2,47,49.1,47,49,46.9C49,47,49,47,49,46.9L49,46.9z M49,48.8l0.1-0.4l0.1,0.4C49.2,48.8,49.2,48.9,49,48.8
		C49.1,48.9,49,48.9,49,48.8L49,48.8L49,48.8z M49.1,45.9L49.1,45.9L49.1,45.9z M49.2,45.6C49.2,45.7,49.2,45.7,49.2,45.6
		c-0.1,0.1-0.2,0.1-0.2,0l0,0c0-0.1,0-0.3,0.1-0.4C49.2,45.4,49.2,45.5,49.2,45.6L49.2,45.6z M49.2,46.2
		C49.2,46.2,49.2,46.3,49.2,46.2c-0.1,0.1-0.2,0.1-0.2,0l0,0l0.1-0.4L49.2,46.2z M40,50.7L40,50.7L40,50.7z M40.2,51l0.4,0.1
		l-0.3-0.3h-0.1l0,0C40.2,50.9,40.2,50.9,40.2,51L40.2,51L40.2,51z M42.1,51.4L42.1,51.4l0.5,0.1h-0.4
		C42.1,51.5,42.1,51.4,42.1,51.4L42.1,51.4L42.1,51.4z M49.1,47.7L49.1,47.7L49.1,47.7L49.1,47.7L49.1,47.7z M49.2,48.2
		C49.2,48.2,49.1,48.2,49.2,48.2L49.2,48.2v-0.5l0,0l0,0l0,0l0,0l0.1,0.3C49.2,48.1,49.2,48.2,49.2,48.2L49.2,48.2L49.2,48.2z
		 M40.8,51.1C40.8,51.1,40.9,51,40.8,51.1L40.8,51.1l0.4,0.2h-0.4C40.8,51.2,40.7,51.1,40.8,51.1L40.8,51.1L40.8,51.1z M41.5,51.3
		C41.5,51.2,41.5,51.2,41.5,51.3C41.6,51.2,41.6,51.2,41.5,51.3H42H41.5C41.5,51.4,41.5,51.3,41.5,51.3L41.5,51.3L41.5,51.3z
		 M49.1,47.7L49.1,47.7L49.1,47.7z M49,50l0.1-0.4l0.1,0.4C49.2,50,49.2,50.1,49,50C49,50.1,49,50,49,50L49,50z M49.1,49.6
		L49.1,49.6L49.1,49.6z M49.2,49.4C49.2,49.4,49.2,49.5,49.2,49.4c-0.1,0.1-0.2,0.1-0.2,0l0.1-0.4L49.2,49.4z M52,34.9L52,34.9
		L52,34.9L52,34.9L52,34.9z M52,40.5L52,40.5L52,40.5z M52.1,40.1L52,40.5l-0.1-0.4C51.9,40.1,51.9,40,52.1,40.1L52.1,40.1
		C52.1,40,52.1,40,52.1,40.1L52.1,40.1z M52,34.4C52,34.4,52.1,34.4,52,34.4L52,34.4v0.5l0,0l0,0l0,0l-0.1-0.3
		C51.9,34.5,51.9,34.4,52,34.4L52,34.4z M52.1,37.5L52,37.9l-0.1-0.4C51.9,37.5,51.9,37.4,52.1,37.5C52.1,37.4,52.1,37.4,52.1,37.5
		L52.1,37.5L52.1,37.5z M52,34.9L52,34.9L52,34.9z M52,36.8L52,36.8L52,36.8z M52.1,36.3L52,36.7l-0.1-0.4
		C51.9,36.3,51.9,36.3,52.1,36.3L52.1,36.3L52.1,36.3z M52.1,36.9c0,0.1,0,0.3-0.1,0.4c-0.1-0.1-0.1-0.3-0.1-0.4
		C51.9,36.9,51.9,36.8,52.1,36.9C52.1,36.9,52.1,36.9,52.1,36.9L52.1,36.9z M52.1,39.5L52,39.8l-0.1-0.3
		C51.9,39.5,51.9,39.4,52.1,39.5C52.1,39.4,52.1,39.5,52.1,39.5L52.1,39.5z M52.1,38.8L52,39.2l-0.1-0.4
		C51.9,38.8,51.9,38.7,52.1,38.8C52.1,38.7,52.1,38.7,52.1,38.8L52.1,38.8L52.1,38.8z M52.1,40.6C52.1,40.6,52.2,40.6,52.1,40.6
		L52.1,40.6v0.5V40.6C52,40.6,52,40.6,52.1,40.6L52.1,40.6z M52,51.3l-0.2,0.4v-0.4C51.8,51.3,51.9,51.2,52,51.3
		C52,51.2,52,51.3,52,51.3L52,51.3z M51.9,50.6C51.9,50.6,51.8,50.7,51.9,50.6L51.9,50.6v0.5l0,0V50.6C52,50.7,52,50.6,51.9,50.6
		L51.9,50.6L51.9,50.6z M52.1,49c0,0.1,0,0.2-0.1,0.3C51.9,49,51.9,49,51.9,49v-0.1c0,0,0-0.1,0.1-0.1C52,48.8,52.1,48.8,52.1,49
		L52.1,49z M52,49.5l-0.1,0.4l-0.1-0.4C51.8,49.5,51.8,49.4,52,49.5C52,49.4,52,49.4,52,49.5C52,49.4,52,49.5,52,49.5L52,49.5z
		 M52.1,33.2L52,33.6l-0.1-0.4c0,0,0-0.1,0.1-0.1C52,33.1,52.1,33.1,52.1,33.2L52.1,33.2z M52,50l-0.1,0.4L51.8,50
		c0,0,0-0.1,0.1-0.1C52,50,52,50,52,50L52,50z M52.1,48.2L52,48.6l-0.1-0.4c0,0,0-0.1,0.1-0.1S52.1,48.1,52.1,48.2L52.1,48.2
		L52.1,48.2z M52.1,45.7L52,46.1l-0.1-0.4C51.9,45.7,52,45.6,52.1,45.7C52.1,45.6,52.1,45.7,52.1,45.7L52.1,45.7z M52.1,35.7L52,36
		l-0.1-0.4c0,0,0-0.1,0.1-0.1S52.1,35.6,52.1,35.7C52.1,35.6,52.1,35.6,52.1,35.7L52.1,35.7z M52.1,46.3L52,46.7l-0.1-0.4
		C51.9,46.3,51.9,46.2,52.1,46.3C52.1,46.2,52.1,46.2,52.1,46.3L52.1,46.3z M52.1,47L52,47.4l0,0L51.9,47C51.9,47,51.9,46.9,52.1,47
		C52.1,46.9,52.1,46.9,52.1,47L52.1,47L52.1,47z M52.1,47.6L52,48l-0.1-0.4C51.9,47.5,52,47.5,52.1,47.6
		C52.1,47.5,52.1,47.5,52.1,47.6L52.1,47.6z M48.7,41.4l-0.1,0.4l-0.1-0.4C48.5,41.4,48.5,41.3,48.7,41.4
		C48.6,41.3,48.6,41.3,48.7,41.4L48.7,41.4L48.7,41.4z M48.6,41.1l-0.1-0.4c0,0,0-0.1,0.1-0.1c0,0,0.1,0,0.1,0.1l0,0L48.6,41.1z
		 M48.6,40.4V40c0,0,0-0.1,0.1-0.1l0,0c0,0,0.1,0,0.1,0.1l0,0L48.6,40.4z M48.6,40.3L48.6,40.3L48.6,40.3z M48.6,40.3L48.6,40.3
		L48.6,40.3z M48.8,39.7l-0.1-0.4c0,0,0-0.1,0.1-0.1c0,0,0.1,0,0.1,0.1l0,0L48.8,39.7z M49,38.7L48.8,39v-0.4c0,0,0.1-0.1,0.1,0
		C49,38.6,49,38.6,49,38.7L49,38.7z M48.9,38.3v-0.4l0.1-0.1l0.1,0.1l0,0L48.9,38.3L48.9,38.3L48.9,38.3z M49.2,37.3L49,37.7v-0.4
		l0.1-0.1C49.2,37.2,49.3,37.2,49.2,37.3z M49,37.6L49,37.6L49,37.6z M49.3,37L49.3,37L49.3,37z M43.6,31.1l0.2-0.3l-0.1,0.4
		c0,0-0.1,0.1-0.1,0C43.6,31.2,43.6,31.1,43.6,31.1z M43.9,30.8L43.9,30.8L43.9,30.8z M43.4,31.8l0.2-0.4v0.4l-0.1,0.1l0,0
		C43.4,31.9,43.4,31.8,43.4,31.8L43.4,31.8L43.4,31.8z M43.6,31.4L43.6,31.4L43.6,31.4z M43.1,32.5L43.1,32.5L43.1,32.5l0.2-0.4
		l-0.1,0.4C43.2,32.5,43.2,32.6,43.1,32.5L43.1,32.5z M42.9,33.2L42.9,33.2L42.9,33.2l0.2-0.4l0,0l0,0l-0.3,0.3
		C42.8,33.1,42.8,33.1,42.9,33.2L42.9,33.2L42.9,33.2z M43.1,32.8L43.1,32.8L43.1,32.8z M42.8,33.4L42.8,33.4L42.8,33.4z M42.8,33.4
		L42.8,33.4L42.8,33.4z M42.5,33.6l0.3-0.3l-0.1,0.4c0,0-0.1,0.1-0.1,0l0,0C42.5,33.8,42.5,33.7,42.5,33.6L42.5,33.6L42.5,33.6z
		 M42.3,33.8L42.3,33.8L42.3,33.8z M42.3,33.8L42.3,33.8L42.3,33.8z M42.3,33.8L42.3,33.8L42.3,33.8z M42.3,33.8L42.3,33.8
		L42.3,33.8z M42.3,33.8l-0.1,0.4c0,0-0.1,0.1-0.1,0l0,0c0,0-0.1-0.1,0-0.1l0,0L42.3,33.8z M45.4,63.7l-0.2,0.4v-0.4l0.1-0.1
		C45.4,63.6,45.4,63.7,45.4,63.7L45.4,63.7z M45.4,63C45.4,63,45.3,63,45.4,63l-0.1,0.5l0.2-0.4C45.5,63.1,45.5,63.1,45.4,63
		L45.4,63L45.4,63z M45.4,63.5L45.4,63.5L45.4,63.5z M45.6,62.5l-0.2,0.4v-0.4c0,0,0-0.1,0.1-0.1S45.7,62.4,45.6,62.5
		C45.7,62.5,45.7,62.5,45.6,62.5z M45.8,61.9l-0.2,0.4v-0.4l0.1-0.1C45.7,61.8,45.8,61.8,45.8,61.9L45.8,61.9L45.8,61.9z M45.8,61.2
		C45.8,61.2,45.7,61.2,45.8,61.2l-0.1,0.5l0.2-0.4C45.9,61.3,45.9,61.2,45.8,61.2L45.8,61.2L45.8,61.2z M45.7,61.7L45.7,61.7
		L45.7,61.7z M45.8,61v-0.4l0.1-0.1l0.1,0.1L45.8,61z M46,60.4L46,60.4l0.2-0.4c0,0,0-0.1-0.1-0.1c0,0-0.1,0-0.1,0.1l0,0L46,60.4
		L46,60.4z M46.1,59.9v-0.4l0.1-0.1l0.1,0.1l0,0L46.1,59.9L46.1,59.9L46.1,59.9z M46.2,59.2v-0.4l0.1-0.1c0.1,0,0.1,0,0.1,0.1
		L46.2,59.2z"/>
</g>
<g class="st2">
	<path d="M23.4,106.3l2.5-7.8h1.6l2.5,7.8h-1.5l-0.6-2.1h-2.6l-0.6,2.1H23.4z M26,102.1l-0.3,1h2l-0.3-1c-0.1-0.4-0.2-0.8-0.3-1.3
		c-0.1-0.4-0.2-0.9-0.3-1.3l0,0c-0.1,0.4-0.2,0.9-0.3,1.3C26.2,101.3,26.1,101.7,26,102.1z"/>
	<path d="M34.6,106.4c-0.5,0-0.9-0.1-1.4-0.3c-0.4-0.2-0.8-0.4-1.1-0.8c-0.3-0.3-0.6-0.8-0.8-1.3s-0.3-1-0.3-1.6s0.1-1.2,0.3-1.7
		s0.4-0.9,0.8-1.3c0.3-0.4,0.7-0.6,1.1-0.8c0.4-0.2,0.9-0.3,1.4-0.3s0.9,0.1,1.3,0.3c0.4,0.2,0.7,0.4,0.9,0.7l-0.8,0.9
		c-0.2-0.2-0.4-0.3-0.7-0.5c-0.2-0.1-0.5-0.2-0.8-0.2s-0.6,0.1-0.9,0.2c-0.3,0.1-0.5,0.3-0.7,0.6c-0.2,0.2-0.3,0.5-0.4,0.9
		c-0.1,0.4-0.2,0.7-0.2,1.2c0,0.4,0.1,0.8,0.2,1.2c0.1,0.4,0.3,0.7,0.4,0.9c0.2,0.2,0.4,0.4,0.7,0.6c0.3,0.1,0.6,0.2,0.9,0.2
		c0.3,0,0.6-0.1,0.9-0.2c0.3-0.1,0.5-0.3,0.7-0.6l0.8,0.9c-0.3,0.4-0.7,0.7-1.1,0.8C35.6,106.3,35.1,106.4,34.6,106.4z"/>
	<path d="M41.8,106.4c-0.5,0-0.9-0.1-1.4-0.3c-0.4-0.2-0.8-0.4-1.1-0.8c-0.3-0.3-0.6-0.8-0.8-1.3s-0.3-1.1-0.3-1.7s0.1-1.2,0.3-1.7
		s0.4-0.9,0.8-1.3c0.3-0.4,0.7-0.6,1.1-0.8c0.4-0.2,0.9-0.3,1.4-0.3s0.9,0.1,1.3,0.3c0.4,0.2,0.7,0.4,0.9,0.7l-0.8,0.9
		c-0.2-0.2-0.4-0.3-0.7-0.5c-0.2-0.1-0.5-0.2-0.8-0.2s-0.6,0.1-0.9,0.2c-0.3,0.1-0.5,0.3-0.7,0.6c-0.2,0.2-0.3,0.5-0.4,0.9
		c-0.1,0.4-0.2,0.7-0.2,1.2c0,0.4,0.1,0.8,0.2,1.2c0.1,0.4,0.3,0.7,0.4,0.9c0.2,0.2,0.4,0.4,0.7,0.6c0.3,0.1,0.6,0.2,0.9,0.2
		c0.3,0,0.6-0.1,0.9-0.2c0.3-0.1,0.5-0.3,0.7-0.6l0.8,0.9c-0.3,0.4-0.7,0.7-1.1,0.8C42.8,106.3,42.3,106.4,41.8,106.4z"/>
	<path d="M46,106.3v-7.8h5v1.2h-3.6v2h3.1v1.2h-3.1v2.3h3.8v1.2L46,106.3L46,106.3z"/>
	<path d="M55.5,106.4c-0.6,0-1.1-0.1-1.6-0.3c-0.5-0.2-1-0.5-1.3-0.9l0.8-0.9c0.3,0.3,0.6,0.5,1,0.6c0.4,0.2,0.8,0.2,1.2,0.2
		c0.5,0,0.8-0.1,1-0.3c0.2-0.2,0.4-0.4,0.4-0.7c0-0.2,0-0.3-0.1-0.4s-0.2-0.2-0.3-0.3c-0.1-0.1-0.3-0.2-0.4-0.2
		c-0.2-0.1-0.3-0.1-0.5-0.2l-1.1-0.5c-0.2-0.1-0.4-0.2-0.6-0.3c-0.2-0.1-0.4-0.3-0.5-0.4c-0.2-0.2-0.3-0.4-0.4-0.6
		c-0.1-0.2-0.1-0.4-0.1-0.7s0.1-0.6,0.2-0.9c0.1-0.3,0.3-0.5,0.6-0.7c0.2-0.2,0.5-0.4,0.9-0.5c0.3-0.1,0.7-0.2,1.1-0.2
		c0.5,0,0.9,0.1,1.4,0.3c0.4,0.2,0.8,0.4,1.1,0.7l-0.7,0.9c-0.3-0.2-0.5-0.4-0.8-0.5s-0.6-0.2-1-0.2s-0.7,0.1-0.9,0.2
		s-0.3,0.4-0.3,0.7c0,0.2,0,0.3,0.1,0.4s0.2,0.2,0.3,0.3s0.3,0.2,0.4,0.2c0.2,0.1,0.3,0.1,0.5,0.2l1,0.4c0.2,0.1,0.5,0.2,0.7,0.3
		s0.4,0.3,0.5,0.4s0.3,0.4,0.4,0.6c0.1,0.2,0.1,0.5,0.1,0.8s-0.1,0.6-0.2,0.9c-0.1,0.3-0.3,0.5-0.6,0.7s-0.6,0.4-0.9,0.5
		C56.4,106.4,56,106.4,55.5,106.4z"/>
	<path d="M62.7,106.4c-0.5,0-0.9-0.1-1.3-0.3c-0.4-0.2-0.7-0.4-1-0.8s-0.5-0.8-0.6-1.3c-0.2-0.5-0.2-1.1-0.2-1.8
		c0-0.6,0.1-1.2,0.2-1.7c0.2-0.5,0.4-0.9,0.6-1.3c0.3-0.3,0.6-0.6,1-0.8c0.4-0.2,0.8-0.3,1.3-0.3s0.9,0.1,1.3,0.3
		c0.4,0.2,0.7,0.4,1,0.8c0.3,0.3,0.5,0.8,0.6,1.3s0.2,1.1,0.2,1.7c0,0.7-0.1,1.2-0.2,1.8s-0.4,0.9-0.6,1.3c-0.3,0.3-0.6,0.6-1,0.8
		C63.6,106.3,63.2,106.4,62.7,106.4z M62.7,105.2c0.5,0,0.9-0.2,1.2-0.8s0.5-1.2,0.5-2.1s-0.2-1.6-0.5-2.1c-0.3-0.5-0.7-0.7-1.2-0.7
		s-0.9,0.2-1.2,0.7s-0.5,1.2-0.5,2.1s0.2,1.6,0.5,2.1S62.2,105.2,62.7,105.2z"/>
	<path d="M67.3,106.3v-7.8h2.6c0.4,0,0.8,0,1.1,0.1s0.7,0.2,0.9,0.4s0.5,0.4,0.6,0.7s0.2,0.7,0.2,1.1c0,0.6-0.1,1.1-0.4,1.5
		s-0.7,0.6-1.1,0.8l1.9,3.3h-1.6l-1.7-3.1h-1.2v3.1L67.3,106.3L67.3,106.3z M68.7,102.1h1.1c0.5,0,1-0.1,1.2-0.3
		c0.3-0.2,0.4-0.6,0.4-1c0-0.5-0.1-0.8-0.4-0.9c-0.3-0.2-0.7-0.3-1.2-0.3h-1.1V102.1z"/>
	<path d="M74.5,106.3v-1.2h1.9v-5.5h-1.9v-1.2h5.2v1.2h-1.9v5.5h1.9v1.2H74.5z"/>
	<path d="M84.3,106.4c-0.5,0-0.9-0.1-1.3-0.3c-0.4-0.2-0.7-0.4-1-0.8c-0.3-0.3-0.5-0.8-0.6-1.3c-0.2-0.5-0.2-1.1-0.2-1.8
		c0-0.6,0.1-1.2,0.2-1.7c0.2-0.5,0.4-0.9,0.6-1.3c0.3-0.3,0.6-0.6,1-0.8c0.4-0.2,0.8-0.3,1.3-0.3s0.9,0.1,1.3,0.3
		c0.4,0.2,0.7,0.4,1,0.8c0.3,0.3,0.5,0.8,0.6,1.3s0.2,1.1,0.2,1.7c0,0.7-0.1,1.2-0.2,1.8s-0.4,0.9-0.6,1.3c-0.3,0.3-0.6,0.6-1,0.8
		S84.8,106.4,84.3,106.4z M84.3,105.2c0.5,0,0.9-0.2,1.2-0.8s0.5-1.2,0.5-2.1s-0.2-1.6-0.5-2.1s-0.7-0.7-1.2-0.7s-0.9,0.2-1.2,0.7
		s-0.5,1.2-0.5,2.1s0.2,1.6,0.5,2.1S83.8,105.2,84.3,105.2z"/>
	<path d="M91.5,106.4c-0.6,0-1.1-0.1-1.6-0.3c-0.5-0.2-1-0.5-1.3-0.9l0.8-0.9c0.3,0.3,0.6,0.5,1,0.6c0.4,0.2,0.8,0.2,1.2,0.2
		c0.5,0,0.8-0.1,1-0.3s0.4-0.4,0.4-0.7c0-0.2,0-0.3-0.1-0.4s-0.2-0.2-0.3-0.3c-0.1-0.1-0.3-0.2-0.4-0.2s-0.3-0.1-0.5-0.2l-1.1-0.5
		c-0.2-0.1-0.4-0.2-0.6-0.3c-0.2-0.1-0.4-0.3-0.5-0.4s-0.3-0.4-0.4-0.6c-0.1-0.2-0.1-0.4-0.1-0.7s0.1-0.6,0.2-0.9s0.3-0.5,0.6-0.7
		c0.2-0.2,0.5-0.4,0.9-0.5c0.3-0.1,0.7-0.2,1.1-0.2c0.5,0,0.9,0.1,1.4,0.3c0.4,0.2,0.8,0.4,1.1,0.7l-0.7,0.9
		c-0.3-0.2-0.5-0.4-0.8-0.5s-0.6-0.2-1-0.2s-0.7,0.1-0.9,0.2s-0.3,0.4-0.3,0.7c0,0.2,0,0.3,0.1,0.4s0.2,0.2,0.3,0.3
		c0.1,0.1,0.3,0.2,0.4,0.2c0.2,0.1,0.3,0.1,0.5,0.2l1,0.4c0.2,0.1,0.5,0.2,0.7,0.3s0.4,0.3,0.5,0.4s0.3,0.4,0.4,0.6s0.1,0.5,0.1,0.8
		s-0.1,0.6-0.2,0.9s-0.3,0.5-0.6,0.7s-0.6,0.4-0.9,0.5C92.4,106.4,92,106.4,91.5,106.4z"/>
</g>
</svg>
