<?xml version="1.0" encoding="utf-8"?>
<!-- Generator: Adobe Illustrator 24.3.0, SVG Export Plug-In . SVG Version: 6.00 Build 0)  -->
<svg version="1.1" id="Layer_1" xmlns="http://www.w3.org/2000/svg" xmlns:xlink="http://www.w3.org/1999/xlink" x="0px" y="0px"
	 viewBox="0 0 120 126" style="enable-background:new 0 0 120 126;" xml:space="preserve">
<style type="text/css">
	.st0{fill:#050505;}
	.st1{fill:#090909;}
	.st2{enable-background:new    ;}
</style>
<g id="XMLID_364_">
	<g id="XMLID_426_">
		<path id="XMLID_427_" class="st0" d="M34.2,71.3c-0.9,0-1.2-0.1-1.4-0.2s-0.4-0.3-0.6-0.5c-0.1,0.2-0.4,0.4-0.8,0.4
			c-0.8,0.2-5.1,0-5.7-0.1c-0.1,0-0.2,0-0.2,0c-0.3-0.1-0.8-0.1-1.1-0.4l-0.1-0.1c-0.2,0.2-0.4,0.4-0.8,0.5
			c-0.5,0.1-10.6-0.1-12-2.8c0-0.1-0.1-0.2-0.1-0.2c0-0.1,0-3.5,0.4-5.2c-0.2-0.2-0.4-0.6-0.4-1.2c0-0.6,0.3-1.2,1-1.6l0.1-0.1
			c0-0.4-0.1-1,0.2-1.4c0-0.1,0.1-0.1,0.2-0.2c-0.4-1.6-1.4-7.1,1.1-13.1c0.1-0.3,1.3-4,1.6-4.9c0.4-1.1,1.6-1.9,1.6-2
			c0.1-0.1,0.3-0.1,0.5-0.1c0.2,0.1,1.6,0.6,2.1,1c0.5,0.3,10.1,4.1,15.2,3h0.1c1.4,0.1,5.6-0.9,11.9-4.7c0.2-0.3,1.1-1.6,2-2.9
			c2-2.8,2.8-3.2,3.3-3.2c0.1,0,0.3,0.1,0.4,0.2c1.7,1.9,3.8,4.1,4.5,4.5c0.5,0,2.6,0,3.2,1.2c0.2,0.3,0.3,0.9,0.1,1.5l0.2,0.2
			c0.4-0.1,1.2-0.1,1.8,0.3c0.5,0.3,0.8,1,0.9,1.7l1.5,1.1c0.4-0.1,1.4-0.2,1.9,0.3c0.3,0.3,0.5,0.8,0.5,1.3
			c0.6-0.1,1.7-0.2,2.2,0.5c0.2,0.3,0.3,0.9,0.1,1.4c0.4,0.3,1.3,1,1.7,1.6c1,0.4,6.6,3,10.5,3.5c0.5,0,8.8,0.4,12.6,0.3
			c0.3,0,8.6-0.1,9.3,3.8c0.2,0.1,0.5,0.2,0.8,0.5c0.1,0.1,0.1,0.3,0.2,0.5c0.4,0.1,1,0.2,1.3,0.8s0.3,1.2,0,1.9
			c0.1,0.4,0.3,1.6-0.2,2.3c0,0.1-0.1,0.1-0.1,0.2c-0.5,0.8-1.4,2.1-9.3,5.1l0,0L96,66.4c-3.3,1.9-3.8,1.8-4.1,1.7h-0.1l-0.1,0.1
			c-0.1,0.1-0.2,0.2-0.3,0.2l-2,0.5c-0.1,0-0.2,0-0.3,0l-0.8-0.9l-0.8,0.3c0,0.1,0,0.2-0.1,0.3c-0.1,0.2-0.3,0.4-0.9,0.5
			c-0.3,0-1.1,0.2-1.9,0.4c-2.3,0.5-3.1,0.6-3.4,0.5c-0.4-0.1-1-0.5-1.3-0.9l0,0c-0.2,0.2-0.5,0.5-1,0.8c-0.6,0.4-5.1,0.6-6.6,0.8
			c-0.1,0-0.2,0-0.3-0.1l-0.9-0.4c-0.1,0-0.1-0.1-0.2-0.2L70.8,70c-0.2,0.3-0.6,0.9-1.3,1c-0.4,0-2.9-0.2-3.5-0.2
			c-3.2-0.2-3.3-0.3-3.4-0.4c-0.1-0.1-0.4-0.3-0.6-0.6l-1-0.3c-3-0.4-7.5-1.2-8.1-1.2c-0.4,0-2.3-0.1-4.4-0.2
			c-1.9-0.1-4.1-0.2-4.5-0.2c-0.5,0-1.1-0.1-1.6-0.2c0.1,3.2-0.6,3.4-1,3.5h-0.1c-0.1,0-3.5,0.3-4.1,0.3c-0.1,0-0.4,0-0.8,0
			C35.5,71.2,34.8,71.3,34.2,71.3z M33.5,70.2c0.4,0.1,2.2,0,3,0c0.4,0,0.6,0,0.9,0c0.4,0,2.8-0.2,3.8-0.2c0.2-0.4,0.3-1.8,0.2-3.2
			c0-0.2,0.1-0.3,0.2-0.4c0.1-0.1,0.3-0.1,0.5-0.1c0.3,0.1,1.4,0.4,2,0.4c0.4,0,2.5,0.1,4.5,0.2c1.9,0.1,3.8,0.2,4.3,0.2
			c0.9,0,7.6,1.1,8.4,1.2h0.1l1.1,0.4c0.1,0,0.1,0.1,0.2,0.1c0.2,0.2,0.4,0.4,0.5,0.5c0.9,0.1,5.9,0.5,6.3,0.5
			c0.1,0,0.4-0.3,0.5-0.6c0.1-0.2,0.3-0.3,0.5-0.3h0.5c0.2,0,0.3,0.1,0.4,0.2l0.3,0.4l0.6,0.3c2.6-0.1,5.3-0.3,5.9-0.5
			c0.4-0.3,1-0.9,1-0.9c0.1-0.1,0.2-0.1,0.3-0.1l0.5-0.1c0.2,0,0.4,0,0.5,0.2c0.3,0.3,0.8,0.8,0.9,0.8l0,0c0.3,0,2-0.3,3-0.5
			c0.9-0.2,1.6-0.3,2-0.4l0,0c-0.1-0.1,0-0.3,0-0.4c0.1-0.1,0.2-0.2,0.3-0.3l1.4-0.4c0.1,0,0.2,0,0.4,0l1,0.4l1.6-0.4l0.2-0.3
			c0.1-0.2,0.3-0.3,0.6-0.2l0.4,0.1c0.4-0.1,2-0.9,3.3-1.7h0.1l0.8-0.2c7.6-2.9,8.3-4.1,8.8-4.7c0-0.1,0.1-0.2,0.1-0.2
			c0.2-0.3,0.1-1.2,0-1.5c0-0.1,0-0.3,0-0.4c0.2-0.5,0.3-0.9,0.1-1.1s-0.8-0.3-1.1-0.3c-0.2,0-0.3-0.1-0.5-0.2
			c-0.1-0.1-0.1-0.3-0.1-0.5c0.1-0.1,0-0.2,0-0.2c0-0.1-0.2-0.1-0.4-0.1c-0.3,0-0.5-0.2-0.5-0.5c-0.2-2.8-6.1-3.3-8.3-3.3
			c-3.8,0.2-12.2-0.2-12.6-0.2l0,0c-4.4-0.6-10.7-3.5-11-3.8c-0.1,0-0.2-0.1-0.2-0.2c-0.4-0.8-1.5-1.5-1.8-1.7
			c-0.2-0.1-0.3-0.5-0.2-0.8c0.2-0.4,0.2-0.6,0.2-0.6c-0.1-0.1-0.9-0.2-1.5,0c-0.1,0-0.2,0-0.3,0l-0.4-0.1c-0.3-0.1-0.4-0.3-0.4-0.6
			c0.1-0.4,0.1-0.8-0.1-0.9c-0.2-0.2-0.9-0.1-1.2,0c-0.2,0.1-0.3,0-0.5-0.1l-1.9-1.4c-0.1-0.1-0.2-0.3-0.2-0.4c0-0.5-0.1-1-0.4-1.2
			c-0.4-0.3-1.1-0.1-1.1-0.1c-0.1,0-0.3,0-0.4-0.1l-0.9-0.5c-0.2-0.1-0.3-0.4-0.2-0.8c0.2-0.4,0.2-0.8,0.1-0.9
			c-0.3-0.4-1.6-0.6-2.3-0.6c-0.1,0-0.1,0-0.2,0c-1-0.3-3.6-3.2-4.8-4.5c-0.8,0.5-2.8,3.2-4.3,5.7c0,0.1-0.1,0.1-0.2,0.2
			c-7.7,4.8-11.9,5-12.5,4.9C34.5,42.9,33.7,43,33,43c-5.7,0-13.3-3.1-13.7-3.3c-0.3-0.2-1.1-0.5-1.6-0.8c-0.3,0.3-0.9,0.9-1.1,1.4
			c-0.3,0.9-1.6,4.8-1.6,4.8l0,0c-2.8,6.5-1,12.7-1,12.8c0,0.1,0,0.3-0.1,0.4s-0.2,0.2-0.3,0.2c-0.1,0.1-0.1,0.5,0,0.9
			c0,0.2,0,0.4-0.2,0.5l-0.4,0.3c-0.3,0.3-0.5,0.5-0.5,0.8c0,0.3,0.3,0.5,0.3,0.5c0.2,0.1,0.3,0.4,0.2,0.6c-0.3,1.1-0.4,4-0.4,5.1
			c1.2,1.7,9.9,2.2,10.8,2.1c0,0,0.1-0.3,0.1-0.5c0-0.3,0.2-0.5,0.5-0.5h0.4c0.2,0,0.4,0.2,0.5,0.4c0.1,0.3,0.2,0.6,0.2,0.8
			c0,0,0.2,0,0.3,0.1c0.1,0,0.2,0,0.3,0c0.4,0.1,4.6,0.2,5.1,0.1c0.1,0,0.1-0.3,0.1-0.5c0-0.2,0.1-0.4,0.3-0.5
			c0.1,0,0.5-0.2,0.9,0.1c0.1,0.1,0.3,0.3,0.3,0.8C33,69.7,33.3,69.9,33.5,70.2z"/>
	</g>
	<g id="XMLID_424_">
		<path id="XMLID_425_" class="st0" d="M71.4,63.2c-9,0-16.8-1.7-16.9-1.8c-7.4-1.5-19-1.5-25.4-1.5h-0.8c-5.9,0-14.6-1.6-14.6-1.6
			l-0.1-0.1l0.1-0.1c0.1,0,8.7,1.6,14.6,1.6h0.8c6.3,0,18,0,25.4,1.5c0.1,0,13.2,3,24.9,1.2c0.2,0,16.5-1.7,24.1-7.2h0.1v0.1
			c-7.6,5.6-24,7.2-24.1,7.2C76.7,63.1,73.9,63.2,71.4,63.2z"/>
	</g>
	<g id="XMLID_422_">
		<path id="XMLID_423_" class="st0" d="M71.2,64.8L71.2,64.8c-0.4,0-0.9,0-1.3,0c-0.1,0-0.2-0.1-0.2-0.2c0-0.1,0.1-0.2,0.2-0.2
			c0.4,0,0.9,0,1.3,0c0.1,0,0.2,0.1,0.2,0.2C71.4,64.8,71.3,64.8,71.2,64.8z M72.4,64.8c-0.1,0-0.2-0.1-0.2-0.2
			c0-0.1,0.1-0.2,0.2-0.2c0.4,0,0.9,0,1.3,0c0.1,0,0.2,0.1,0.2,0.2c0,0.1-0.1,0.2-0.2,0.2C73.3,64.8,72.9,64.8,72.4,64.8L72.4,64.8z
			 M68.6,64.8L68.6,64.8c-0.4,0-0.9,0-1.3-0.1c-0.1,0-0.2-0.1-0.2-0.2c0-0.1,0.1-0.2,0.2-0.2c0.4,0,0.9,0,1.3,0.1
			c0.1,0,0.2,0.1,0.2,0.2C68.8,64.7,68.7,64.8,68.6,64.8z M75,64.7c-0.1,0-0.2-0.1-0.2-0.2c0-0.1,0.1-0.2,0.2-0.2
			c0.4,0,0.9-0.1,1.3-0.1c0.1,0,0.2,0.1,0.2,0.2s-0.1,0.2-0.2,0.2C75.9,64.7,75.4,64.7,75,64.7L75,64.7z M66,64.7L66,64.7
			c-0.4,0-0.9-0.1-1.3-0.1c-0.1,0-0.2-0.1-0.2-0.2s0.1-0.2,0.2-0.2c0.4,0,0.9,0.1,1.3,0.1c0.1,0,0.2,0.1,0.2,0.2
			C66.2,64.6,66.1,64.7,66,64.7z M77.6,64.5c-0.1,0-0.2-0.1-0.2-0.2s0.1-0.2,0.2-0.2c0.4,0,0.9-0.1,1.3-0.1c0.1,0,0.2,0.1,0.2,0.1
			c0,0.1-0.1,0.2-0.1,0.2C78.4,64.4,78,64.5,77.6,64.5L77.6,64.5z M63.5,64.5L63.5,64.5c-0.4,0-0.9-0.1-1.3-0.1
			c-0.1,0-0.2-0.1-0.2-0.2c0-0.1,0.1-0.2,0.2-0.2c0.4,0,0.9,0.1,1.3,0.1c0.1,0,0.2,0.1,0.2,0.2C63.7,64.4,63.6,64.5,63.5,64.5z
			 M80.2,64.2c-0.1,0-0.2-0.1-0.2-0.1c0-0.1,0.1-0.2,0.1-0.2c0.3,0,0.8-0.1,1.3-0.2c0.1,0,0.2,0,0.2,0.1s0,0.2-0.1,0.2
			C80.9,64.1,80.5,64.2,80.2,64.2L80.2,64.2z M61,64.2C60.9,64.2,60.9,64.2,61,64.2c-0.4-0.1-0.9-0.1-1.3-0.2
			c-0.1,0-0.2-0.1-0.1-0.2c0-0.1,0.1-0.2,0.2-0.1c0.4,0.1,0.9,0.1,1.3,0.2c0.1,0,0.2,0.1,0.1,0.2C61.1,64.1,61,64.2,61,64.2z
			 M82.6,63.8c-0.1,0-0.2-0.1-0.2-0.1c0-0.1,0-0.2,0.1-0.2c0.4-0.1,0.9-0.1,1.3-0.2c0.1,0,0.2,0,0.2,0.1s0,0.2-0.1,0.2
			C83.5,63.6,83,63.7,82.6,63.8C82.7,63.8,82.7,63.8,82.6,63.8z M58.4,63.8L58.4,63.8c-0.5-0.1-1-0.1-1.3-0.2
			c-0.1,0-0.2-0.1-0.1-0.2c0-0.1,0.1-0.2,0.2-0.1c0.4,0.1,0.9,0.1,1.3,0.2c0.1,0,0.2,0.1,0.1,0.2C58.5,63.7,58.5,63.8,58.4,63.8z
			 M55.8,63.3L55.8,63.3c-0.6-0.1-1.1-0.2-1.3-0.2c-0.1,0-0.2-0.1-0.1-0.2c0-0.1,0.1-0.2,0.2-0.1c0.2,0,0.6,0.1,1.3,0.2
			c0.1,0,0.2,0.1,0.1,0.2C56.1,63.3,56,63.3,55.8,63.3z M85.2,63.3c-0.1,0-0.2-0.1-0.2-0.1c0-0.1,0-0.2,0.1-0.2
			c0.4-0.1,0.9-0.2,1.3-0.2c0.1,0,0.2,0,0.2,0.1s0,0.2-0.1,0.2C86,63.2,85.6,63.3,85.2,63.3L85.2,63.3z M53.4,62.9
			C53.4,62.9,53.3,62.9,53.4,62.9c-0.4-0.1-0.9-0.1-1.3-0.2c-0.1,0-0.2-0.1-0.1-0.2c0-0.1,0.1-0.2,0.2-0.1c0.4,0.1,0.9,0.1,1.3,0.2
			c0.1,0,0.2,0.1,0.1,0.2C53.5,62.8,53.4,62.9,53.4,62.9z M87.8,62.9c-0.1,0-0.1-0.1-0.2-0.1c0-0.1,0-0.2,0.1-0.2
			c0.4-0.1,0.9-0.2,1.3-0.3c0.1,0,0.2,0,0.2,0.1s0,0.2-0.1,0.2C88.6,62.7,88.2,62.8,87.8,62.9L87.8,62.9z M50.8,62.5L50.8,62.5
			c-0.4-0.1-0.9-0.1-1.3-0.1c-0.1,0-0.2-0.1-0.2-0.2c0-0.1,0.1-0.2,0.2-0.2c0.4,0,0.9,0.1,1.3,0.1c0.1,0,0.2,0.1,0.1,0.2
			C51,62.5,50.9,62.5,50.8,62.5z M90.2,62.2c-0.1,0-0.1-0.1-0.2-0.1c0-0.1,0-0.2,0.1-0.2c0.4-0.1,0.9-0.2,1.3-0.3
			c0.1,0,0.2,0,0.2,0.1s0,0.2-0.1,0.2C91.1,62,90.6,62.1,90.2,62.2L90.2,62.2z M48.2,62.1L48.2,62.1c-0.4,0-0.9-0.1-1.3-0.1
			c-0.1,0-0.2-0.1-0.2-0.2c0-0.1,0.1-0.2,0.2-0.2c0.4,0,0.9,0.1,1.3,0.1c0.1,0,0.2,0.1,0.2,0.2C48.5,62.1,48.4,62.1,48.2,62.1z
			 M45.7,61.9L45.7,61.9c-0.4,0-0.9-0.1-1.3-0.1c-0.1,0-0.2-0.1-0.2-0.2c0-0.1,0.1-0.2,0.2-0.2c0.4,0,0.9,0.1,1.3,0.1
			c0.1,0,0.2,0.1,0.2,0.2C45.9,61.9,45.8,61.9,45.7,61.9z M43.1,61.8L43.1,61.8c-0.4,0-0.9,0-1.3-0.1c-0.1,0-0.2-0.1-0.2-0.2
			c0-0.1,0.1-0.2,0.2-0.2c0.4,0,0.9,0,1.3,0.1c0.1,0,0.2,0.1,0.2,0.2C43.3,61.7,43.2,61.8,43.1,61.8z M40.5,61.7L40.5,61.7
			c-0.4,0-0.9,0-1.3,0c-0.1,0-0.2-0.1-0.2-0.2c0-0.1,0.1-0.2,0.2-0.2c0.4,0,0.9,0,1.3,0c0.1,0,0.2,0.1,0.2,0.2S40.7,61.7,40.5,61.7z
			 M38,61.6L38,61.6c-0.4,0-0.9,0-1.3,0c-0.1,0-0.2-0.1-0.2-0.2c0-0.1,0.1-0.2,0.2-0.2c0.4,0,0.9,0,1.3,0c0.1,0,0.2,0.1,0.2,0.2
			C38.2,61.6,38.1,61.6,38,61.6z M92.7,61.6c-0.1,0-0.1,0-0.2-0.1c0-0.1,0-0.2,0.1-0.2c0.4-0.1,0.9-0.2,1.2-0.3c0.1,0,0.2,0,0.2,0.1
			s0,0.2-0.1,0.2C93.5,61.4,93.1,61.5,92.7,61.6L92.7,61.6z M35.4,61.6L35.4,61.6c-0.4,0-0.9,0-1.3,0c-0.1,0-0.2-0.1-0.2-0.2
			c0-0.1,0.1-0.2,0.2-0.2l0,0c0.4,0,0.9,0,1.3,0c0.1,0,0.2,0.1,0.2,0.2C35.6,61.5,35.5,61.6,35.4,61.6z M33,61.6L33,61.6
			c-0.4,0-0.9,0-1.3,0c-0.1,0-0.2-0.1-0.2-0.2c0-0.1,0.1-0.2,0.2-0.2l0,0c0.4,0,0.9,0,1.3,0c0.1,0,0.2,0.1,0.2,0.2
			C33.1,61.5,33,61.6,33,61.6z M29.1,61.5c-0.1,0-0.2-0.1-0.2-0.2c0-0.1,0.1-0.2,0.2-0.2h1.3c0.1,0,0.2,0.1,0.2,0.2
			c0,0.1-0.1,0.2-0.2,0.2H29.1z M27.8,61.5L27.8,61.5c-0.4,0-0.9,0-1.3,0c-0.1,0-0.2-0.1-0.2-0.2c0-0.1,0.1-0.2,0.2-0.2
			c0.4,0,0.9,0,1.3,0c0.1,0,0.2,0.1,0.2,0.2C27.9,61.5,27.9,61.5,27.8,61.5z M25.2,61.4L25.2,61.4c-0.4,0-0.9-0.1-1.3-0.1
			c-0.1,0-0.2-0.1-0.2-0.2c0-0.1,0.1-0.2,0.2-0.2c0.4,0,0.9,0.1,1.3,0.1c0.1,0,0.2,0.1,0.2,0.2C25.4,61.4,25.4,61.4,25.2,61.4z
			 M22.7,61.2L22.7,61.2c-0.4,0-0.9-0.1-1.3-0.1c-0.1,0-0.2-0.1-0.2-0.2c0-0.1,0.1-0.2,0.2-0.2c0.4,0,0.9,0.1,1.3,0.1
			c0.1,0,0.2,0.1,0.2,0.2C22.8,61.2,22.8,61.2,22.7,61.2z M20.1,61L20.1,61c-0.4-0.1-0.9-0.1-1.3-0.2c-0.1,0-0.2-0.1-0.1-0.2
			c0-0.1,0.1-0.2,0.2-0.1c0.4,0.1,0.9,0.1,1.3,0.2c0.1,0,0.2,0.1,0.1,0.2C20.3,60.8,20.2,61,20.1,61z M95.1,60.8
			c-0.1,0-0.1,0-0.2-0.1c0-0.1,0-0.2,0.1-0.2c0.4-0.1,0.9-0.3,1.2-0.4c0.1,0,0.2,0,0.2,0.1s0,0.2-0.1,0.2
			C96,60.5,95.7,60.8,95.1,60.8L95.1,60.8z M17.5,60.5L17.5,60.5c-0.4-0.1-0.9-0.1-1.3-0.2c-0.1,0-0.2-0.1-0.1-0.2
			c0-0.1,0.1-0.2,0.2-0.1c0.4,0.1,0.9,0.1,1.3,0.2c0.1,0,0.2,0.1,0.1,0.2C17.8,60.5,17.6,60.5,17.5,60.5z M15,60.2L15,60.2
			c-0.9-0.1-1.3-0.2-1.3-0.2c-0.1,0-0.2-0.1-0.1-0.2c0.1-0.1,0.1-0.2,0.2-0.1c0,0,0.4,0.1,1.3,0.2c0.1,0,0.2,0.1,0.1,0.2
			C15.2,60.1,15.1,60.2,15,60.2z M97.6,60c-0.1,0-0.1,0-0.2-0.1c0-0.1,0-0.2,0.1-0.2c0.4-0.1,0.9-0.3,1.2-0.4c0.1,0,0.2,0,0.2,0.1
			s0,0.2-0.1,0.2C98.4,59.7,98,59.9,97.6,60L97.6,60z M99.9,59c-0.1,0-0.1,0-0.2-0.1c0-0.1,0-0.2,0.1-0.2c0.4-0.2,0.8-0.3,1.2-0.5
			c0.1,0,0.2,0,0.2,0.1s0,0.2-0.1,0.2C100.8,58.6,100.4,58.8,99.9,59L99.9,59z M102.2,57.9c-0.1,0-0.1,0-0.1-0.1s0-0.2,0.1-0.2
			c0.4-0.2,0.8-0.4,1.1-0.6c0.1-0.1,0.2,0,0.2,0.1c0.1,0.1,0,0.2,0,0.2C103.1,57.4,102.7,57.6,102.2,57.9
			C102.3,57.9,102.3,57.9,102.2,57.9z"/>
	</g>
	<g id="XMLID_419_">
		<path id="XMLID_421_" class="st0" d="M70.6,66.6c-5.3,0-8.8-0.5-8.8-0.5l0,0c-7.7-2.3-23.9-2.6-24-2.6c-13.8,0.1-22.9-1.3-25.7-2
			c-0.2,0-0.3-0.2-0.2-0.4c0-0.2,0.2-0.3,0.4-0.2c2.8,0.8,11.7,2.1,25.5,2c0.2,0,16.4,0.2,24.2,2.6c0.4,0.1,5.8,0.9,13.5,0.4
			c7.4-0.4,18.5-2.2,29.7-7.9c0.2-0.1,0.4,0,0.5,0.1c0.1,0.2,0,0.4-0.1,0.5c-11.2,5.8-22.5,7.6-30,8C73.7,66.6,72,66.6,70.6,66.6z"
			/>
	</g>
	<g id="XMLID_417_">
		<path id="XMLID_418_" class="st0" d="M43.8,60.1h-0.1c-0.2-0.1-0.3-0.3-0.2-0.4c0-0.1,0.9-2.3,2.9-4.6c1.8-2,5.1-4.5,10.3-4.3l0,0
			c0.1,0,9.3,1.1,14.3,2.1c0.1,0,0.1,0.1,0.2,0.1c0,0,0,0,0.1,0c0.1-0.1,0.5-0.8,0.3-5c0-0.2,0.1-0.4,0.3-0.4s0.4,0.1,0.4,0.3
			c0.3,4.7-0.2,5.6-0.8,5.8c-0.3,0.1-0.6,0-0.8-0.1c-4.9-1.1-13.8-2-14.1-2.1c-3.8-0.2-7.2,1.2-9.6,4c-1.9,2.1-2.7,4.4-2.7,4.4
			C44.1,60,44,60.1,43.8,60.1z"/>
	</g>
	<g id="XMLID_415_">
		<path id="XMLID_416_" class="st0" d="M15.1,58.2c-0.1,0-0.2,0-0.3-0.1c-0.1-0.2-3.2-4.3,3.4-12.4c-0.3-0.9-1.6-4.4,0.1-6.4
			c0.1-0.1,0.3-0.2,0.5,0c0.1,0.1,0.2,0.3,0,0.5c-1.7,1.9,0,5.9,0.1,5.9c0.1,0.1,0,0.3,0,0.4c-6.3,7.8-3.5,11.7-3.5,11.7
			c0.1,0.1,0.1,0.4-0.1,0.5C15.3,58.2,15.2,58.2,15.1,58.2z"/>
	</g>
	<g id="XMLID_413_">
		<path id="XMLID_414_" class="st0" d="M34.3,66.1c-9.5,0-21.2-1.6-21.3-1.6c0,0-0.1,0-0.1-0.1c0,0,0-0.1,0.1-0.1
			c0.2,0,17.2,2.3,26.9,1.4c0,0,0.1,0,0.1,0.1c0,0,0,0.1-0.1,0.1C38.2,66,36.3,66.1,34.3,66.1z"/>
	</g>
	<g id="XMLID_411_">
		<path id="XMLID_412_" class="st0" d="M34.1,67.3c-9.5,0-21.2-1.6-21.3-1.6s-0.2-0.1-0.1-0.2c0-0.1,0.1-0.2,0.2-0.1
			c0.2,0,17.2,2.3,26.8,1.4c0.1,0,0.2,0.1,0.2,0.2s-0.1,0.2-0.2,0.2C38.1,67.2,36.2,67.3,34.1,67.3z"/>
	</g>
	<g id="XMLID_409_">
		<path id="XMLID_410_" class="st0" d="M56.2,37.1C56.2,37.1,56.1,37.1,56.2,37.1c-0.1,0-0.1-0.1-0.1-0.1c0.3-0.4,0.9-0.6,0.9-0.6
			H57v0.1C56.9,36.6,56.5,36.7,56.2,37.1L56.2,37.1z"/>
	</g>
	<g id="XMLID_407_">
		<path id="XMLID_408_" class="st0" d="M57.2,38.1L57.2,38.1c-0.1,0-0.1-0.1-0.1-0.1s0.2-0.4,0.8-0.6s1.3,0,2.1,0.4
			c0,0,0.1,0.1,0,0.1c0,0-0.1,0.1-0.1,0c-0.8-0.4-1.4-0.5-1.9-0.4C57.6,37.6,57.3,38.1,57.2,38.1C57.3,38.1,57.2,38.1,57.2,38.1z"/>
	</g>
	<g id="XMLID_405_">
		<path id="XMLID_406_" class="st0" d="M59.8,40.1C59.8,40.1,59.7,40,59.8,40.1C59.7,40,59.7,40,59.7,40s0.5-0.5,1.2-0.6
			c0,0,0.1,0,0.1,0.1c0,0,0,0.1-0.1,0.1C60.3,39.5,59.8,40,59.8,40.1C59.8,40,59.8,40.1,59.8,40.1z"/>
	</g>
	<g id="XMLID_403_">
		<path id="XMLID_404_" class="st0" d="M61,40.8C60.9,40.8,60.9,40.7,61,40.8c-0.1-0.1-0.1-0.1-0.1-0.1s1.2-1.2,1.9-0.4v0.1h-0.1
			C62.1,39.8,61,40.7,61,40.8C61,40.7,61,40.8,61,40.8z"/>
	</g>
	<g id="XMLID_401_">
		<path id="XMLID_402_" class="st0" d="M64.1,43L64.1,43C64,42.9,64,42.9,64,42.9s0.5-0.4,0.9-0.5c0,0,0.1,0,0.1,0.1
			c0,0,0,0.1-0.1,0.1C64.6,42.5,64.2,43,64.1,43L64.1,43z"/>
	</g>
	<g id="XMLID_399_">
		<path id="XMLID_400_" class="st0" d="M65.3,44L65.3,44c-0.1,0-0.1-0.1-0.1-0.1s0.4-0.6,1-0.6c0.2,0,0.4,0,0.5,0.2v0.1h-0.1
			c-0.1-0.1-0.3-0.1-0.4-0.1C65.7,43.4,65.4,43.9,65.3,44C65.4,43.9,65.3,44,65.3,44z"/>
	</g>
	<g id="XMLID_397_">
		<path id="XMLID_398_" class="st0" d="M68.1,45.7L68.1,45.7c-0.1-0.1-0.1-0.1-0.1-0.2c0,0,0.8-0.6,0.3-1.1v-0.1h0.1
			C68.9,44.7,68.5,45.3,68.1,45.7C68.2,45.7,68.2,45.7,68.1,45.7z"/>
	</g>
	<g id="XMLID_395_">
		<path id="XMLID_396_" class="st0" d="M68.9,46.3C68.9,46.3,68.8,46.3,68.9,46.3c-0.1-0.1-0.1-0.1-0.1-0.1s0.3-0.3,0.4-0.6l0.1-0.1
			l0.1,0.1C69.3,45.9,69,46.3,68.9,46.3L68.9,46.3z"/>
	</g>
	<g id="XMLID_393_">
		<path id="XMLID_394_" class="st0" d="M56.8,38.8c-0.4,0-0.6-0.2-1.1-0.8c0-0.1-0.1-0.1-0.2-0.2c-0.2-0.3-0.3-0.6-0.3-0.9
			c0.1-0.3,0.3-0.4,0.4-0.5s0.3,0,0.3,0.1c0.1,0.1,0,0.3-0.1,0.3c0,0-0.1,0-0.1,0.1s0,0.2,0.2,0.4c0.1,0.1,0.1,0.1,0.2,0.2
			c0.4,0.5,0.5,0.5,0.8,0.5c0.3,0,0.3-0.2,0.3-0.2c0-0.1,0.2-0.2,0.3-0.2s0.2,0.2,0.2,0.3C57.8,38.3,57.6,38.7,56.8,38.8
			C56.9,38.8,56.8,38.8,56.8,38.8z"/>
	</g>
	<g id="XMLID_391_">
		<path id="XMLID_392_" class="st0" d="M60.5,41.5c-0.3,0-0.5-0.2-0.9-0.4c-0.1,0-0.1-0.1-0.2-0.2c-0.3-0.2-0.4-0.5-0.4-0.8
			c0-0.4,0.3-0.8,0.4-0.8c0.1-0.1,0.3-0.1,0.4,0s0.1,0.3,0,0.4c-0.1,0-0.2,0.2-0.2,0.3s0.1,0.2,0.2,0.3c0.1,0.1,0.1,0.1,0.2,0.2
			c0.4,0.3,0.5,0.4,1,0.2c0.1-0.1,0.3,0,0.3,0.1c0.1,0.1,0,0.3-0.1,0.3C60.8,41.5,60.6,41.5,60.5,41.5z"/>
	</g>
	<g id="XMLID_389_">
		<path id="XMLID_390_" class="st0" d="M64.6,44.7c-0.2,0-0.4-0.1-0.8-0.3c-0.1-0.1-0.3-0.2-0.5-0.3c-0.4-0.3-0.4-0.5-0.4-0.8
			c0-0.5,0.8-1,0.9-1.1s0.3,0,0.3,0.1c0.1,0.1,0,0.3-0.1,0.3c-0.2,0.1-0.5,0.4-0.5,0.5s0.1,0.2,0.2,0.3c0.2,0.1,0.4,0.3,0.5,0.3
			c0.3,0.3,0.3,0.3,0.8,0.2c0.1,0,0.3,0,0.3,0.2c0,0.1,0,0.3-0.2,0.3C64.9,44.7,64.8,44.7,64.6,44.7z"/>
	</g>
	<g id="XMLID_387_">
		<path id="XMLID_388_" class="st0" d="M69,47c-0.1,0-0.2,0-0.2,0c-0.1,0-0.1,0-0.2,0c-0.6,0-1-0.4-1.3-1.1
			c-0.2-0.3-0.1-0.5-0.1-0.6c0.2-0.3,0.6-0.4,0.8-0.4s0.3,0.1,0.3,0.2c0,0.1-0.1,0.3-0.2,0.3s-0.2,0.1-0.2,0.1l0,0c0,0,0,0,0.1,0.1
			c0.4,0.6,0.5,0.8,0.9,0.8c0.1,0,0.2,0,0.2,0c0.1,0,0.3,0,0.4,0c0,0,0-0.1,0-0.2c0-0.1,0.1-0.3,0.2-0.3S70,46,70,46.1
			c0.1,0.3,0,0.5-0.1,0.6C69.4,47,69.2,47,69,47z"/>
	</g>
	<g id="XMLID_384_">
		<path id="XMLID_385_" class="st0" d="M37.9,59.3L37.9,59.3C37.8,59.3,37.8,59.3,37.9,59.3c-0.1-0.2-0.1-0.3-0.1-0.3s0-0.1,0.1-0.1
			l0,0c0,0,0.1,0,0.1,0.1S38,59.2,37.9,59.3C38,59.3,37.9,59.3,37.9,59.3z M37.9,58.7C37.8,58.7,37.8,58.7,37.9,58.7
			c-0.1-0.2-0.1-0.3-0.1-0.4c0,0,0-0.1,0.1-0.1c0,0,0.1,0,0.1,0.1S38,58.5,37.9,58.7C38,58.7,37.9,58.7,37.9,58.7L37.9,58.7z
			 M37.8,58C37.8,58,37.7,58,37.8,58c-0.1-0.2-0.1-0.3-0.1-0.4c0,0,0-0.1,0.1-0.1c0,0,0.1,0,0.1,0.1C37.9,57.6,37.9,57.8,37.8,58
			C37.9,58,37.9,58,37.8,58L37.8,58z M37.7,57.3C37.5,57.3,37.5,57.3,37.7,57.3c-0.1-0.2-0.1-0.3-0.2-0.4c0,0,0-0.1,0.1-0.1
			c0,0,0.1,0,0.1,0.1s0.1,0.2,0.1,0.3C37.8,57.2,37.7,57.3,37.7,57.3L37.7,57.3z M37.4,56.6C37.3,56.6,37.3,56.6,37.4,56.6
			c-0.1-0.2-0.2-0.3-0.2-0.4V56h0.1c0,0.1,0.1,0.2,0.1,0.3C37.5,56.6,37.4,56.6,37.4,56.6L37.4,56.6z M37.1,55.9
			C37,55.9,37,55.9,37.1,55.9c-0.2-0.1-0.2-0.2-0.3-0.3v-0.1h0.1c0.1,0.1,0.1,0.2,0.2,0.3C37.2,55.8,37.2,55.9,37.1,55.9L37.1,55.9z
			 M36.7,55.3L36.7,55.3c-0.1-0.1-0.2-0.2-0.3-0.3v-0.1h0.1c0.1,0.1,0.1,0.2,0.2,0.3C36.8,55.2,36.8,55.3,36.7,55.3
			C36.8,55.3,36.7,55.3,36.7,55.3z M36.3,54.8C36.3,54.8,36.3,54.7,36.3,54.8c-0.1-0.1-0.2-0.2-0.3-0.3v-0.1h0.1
			c0.1,0.1,0.1,0.2,0.2,0.3C36.4,54.7,36.4,54.7,36.3,54.8C36.4,54.7,36.4,54.8,36.3,54.8z M35.8,54.1L35.8,54.1
			c-0.1-0.1-0.2-0.2-0.3-0.3v-0.1h0.1c0.1,0.1,0.2,0.2,0.2,0.3C36,54,36,54.1,35.8,54.1C36,54.1,35.8,54.1,35.8,54.1z M35.4,53.6
			C35.3,53.6,35.3,53.6,35.4,53.6c-0.1-0.1-0.2-0.2-0.3-0.3v-0.1h0.1c0.1,0.1,0.2,0.2,0.2,0.2C35.4,53.5,35.4,53.6,35.4,53.6
			L35.4,53.6z M34.9,53C34.8,53,34.8,53,34.9,53c-0.1-0.1-0.2-0.2-0.3-0.2v-0.1h0.1c0.1,0.1,0.2,0.2,0.3,0.2C35,52.9,35,53,34.9,53
			L34.9,53z M34.2,52.6L34.2,52.6c-0.1-0.1-0.2-0.2-0.3-0.2v-0.1H34c0.1,0.1,0.2,0.1,0.3,0.2C34.3,52.5,34.3,52.5,34.2,52.6
			C34.3,52.6,34.3,52.6,34.2,52.6z M33.7,52.2L33.7,52.2c-0.1-0.1-0.2-0.2-0.3-0.2v-0.1h0.1c0.1,0.1,0.2,0.1,0.3,0.2
			C33.8,52,33.8,52.1,33.7,52.2C33.8,52.2,33.7,52.2,33.7,52.2z M33.2,51.8C33.1,51.8,33.1,51.8,33.2,51.8c-0.1-0.1-0.2-0.1-0.3-0.2
			v-0.1H33c0.1,0.1,0.2,0.1,0.3,0.2C33.2,51.5,33.2,51.7,33.2,51.8L33.2,51.8z M32.5,51.3L32.5,51.3c-0.1-0.1-0.2-0.1-0.3-0.2
			c0,0-0.1-0.1,0-0.1c0,0,0.1-0.1,0.1,0c0.1,0.1,0.2,0.1,0.3,0.2C32.6,51.2,32.6,51.2,32.5,51.3L32.5,51.3z M31.9,50.9L31.9,50.9
			c-0.1-0.1-0.2-0.1-0.3-0.2c0,0-0.1-0.1,0-0.1c0,0,0.1-0.1,0.1,0c0.1,0.1,0.2,0.1,0.3,0.2C32,50.8,32,50.8,31.9,50.9
			C32,50.9,31.9,50.9,31.9,50.9z M31.2,50.6L31.2,50.6c-0.1-0.1-0.2-0.1-0.3-0.2c0,0-0.1-0.1,0-0.1c0,0,0.1-0.1,0.1,0
			c0.1,0.1,0.2,0.1,0.3,0.2C31.3,50.4,31.3,50.5,31.2,50.6C31.3,50.6,31.2,50.6,31.2,50.6z M30.6,50.2L30.6,50.2
			c-0.1-0.1-0.2-0.1-0.3-0.2c0,0-0.1-0.1,0-0.1c0,0,0.1-0.1,0.1,0c0.1,0.1,0.2,0.1,0.3,0.2C30.7,50,30.7,50.2,30.6,50.2
			C30.7,50.2,30.6,50.2,30.6,50.2z M30,49.8L30,49.8c-0.1-0.1-0.2-0.1-0.3-0.2c0,0-0.1-0.1,0-0.1c0,0,0.1-0.1,0.1,0
			c0.1,0.1,0.2,0.1,0.3,0.2C30.1,49.7,30.1,49.7,30,49.8C30.1,49.8,30,49.8,30,49.8z M29.3,49.5L29.3,49.5c-0.1-0.1-0.2-0.1-0.3-0.2
			c0,0-0.1-0.1,0-0.1c0,0,0.1-0.1,0.1,0c0.1,0,0.2,0.1,0.3,0.1C29.4,49.4,29.4,49.4,29.3,49.5C29.4,49.5,29.3,49.5,29.3,49.5z
			 M28.7,49.2C28.7,49.2,28.6,49.2,28.7,49.2c-0.1-0.1-0.2-0.1-0.3-0.1c0,0-0.1-0.1,0-0.1c0,0,0.1-0.1,0.1,0c0.1,0,0.2,0.1,0.3,0.1
			C28.7,49.1,28.8,49.1,28.7,49.2L28.7,49.2z M27.9,49L27.9,49c-0.1-0.1-0.2-0.1-0.3-0.1c0,0-0.1-0.1,0-0.1c0,0,0.1-0.1,0.1,0
			c0.1,0,0.2,0.1,0.3,0.1C28,48.8,28,48.9,27.9,49C28,48.9,28,49,27.9,49z M27.3,48.7L27.3,48.7c-0.1,0-0.2-0.1-0.3-0.1
			c0,0-0.1-0.1,0-0.1c0,0,0.1-0.1,0.1,0c0.1,0,0.2,0.1,0.3,0.1C27.4,48.4,27.4,48.5,27.3,48.7C27.4,48.7,27.3,48.7,27.3,48.7z
			 M26.6,48.3L26.6,48.3c-0.1,0-0.2-0.1-0.3-0.1c0,0-0.1-0.1,0-0.1c0,0,0.1-0.1,0.1,0c0.1,0,0.2,0.1,0.3,0.1
			C26.7,48.2,26.7,48.2,26.6,48.3L26.6,48.3z M25.9,48.1L25.9,48.1c-0.1,0-0.2-0.1-0.4-0.1l-0.1-0.1l0.1-0.1c0.1,0,0.2,0.1,0.3,0.1
			C26,47.9,26,48,25.9,48.1C26,48.1,26,48.1,25.9,48.1z M25.2,47.9C25.2,47.9,25.2,47.8,25.2,47.9c-0.1,0-0.2-0.1-0.4-0.1l-0.1-0.1
			l0.1-0.1c0.1,0,0.2,0.1,0.3,0.1C25.4,47.7,25.4,47.7,25.2,47.9C25.4,47.8,25.2,47.9,25.2,47.9z M24.5,47.6L24.5,47.6
			c-0.1,0-0.2-0.1-0.4-0.1l-0.1-0.1l0.1-0.1c0.1,0,0.2,0.1,0.3,0.1C24.6,47.5,24.6,47.5,24.5,47.6C24.6,47.6,24.6,47.6,24.5,47.6z
			 M23.9,47.4L23.9,47.4c-0.1,0-0.2-0.1-0.4-0.1l-0.1-0.1l0.1-0.1c0.1,0,0.2,0.1,0.3,0.1C24,47.3,24,47.3,23.9,47.4
			C24,47.4,23.9,47.4,23.9,47.4z M23.1,47.2L23.1,47.2c-0.1,0-0.2-0.1-0.4-0.1l-0.1-0.1l0.1-0.1c0.1,0,0.2,0.1,0.3,0.1
			C23.2,46.9,23.2,47,23.1,47.2C23.2,47.2,23.2,47.2,23.1,47.2z M22.5,46.9L22.5,46.9c-0.1,0-0.2-0.1-0.4-0.1l-0.1-0.1l0.1-0.1
			c0.1,0,0.2,0.1,0.3,0.1C22.6,46.7,22.6,46.8,22.5,46.9C22.6,46.9,22.5,46.9,22.5,46.9z M21.7,46.7L21.7,46.7
			c-0.1,0-0.2-0.1-0.4-0.1l-0.1-0.1l0.1-0.1c0.1,0,0.2,0.1,0.3,0.1C21.8,46.6,21.8,46.6,21.7,46.7C21.8,46.7,21.8,46.7,21.7,46.7z
			 M21.1,46.5L21.1,46.5c-0.1,0-0.2-0.1-0.4-0.1l-0.1-0.1l0.1-0.1c0.1,0,0.2,0.1,0.3,0.1C21.1,46.4,21.2,46.4,21.1,46.5L21.1,46.5z
			 M20.3,46.4L20.3,46.4c-0.1,0-0.3-0.1-0.4-0.1l-0.1-0.1l0.1-0.1c0.1,0,0.2,0.1,0.3,0.1C20.4,46.2,20.4,46.2,20.3,46.4
			C20.4,46.3,20.3,46.4,20.3,46.4z M19.6,46.2L19.6,46.2c-0.2-0.1-0.4-0.1-0.4-0.1L19,46l0.1-0.1c0,0,0.1,0,0.3,0.1
			C19.7,46,19.7,46.1,19.6,46.2C19.7,46.2,19.7,46.2,19.6,46.2z"/>
	</g>
	<g id="XMLID_382_">
		<path id="XMLID_383_" class="st0" d="M32.7,44.8L32.7,44.8c-0.1,0-0.2,0-0.3,0c0,0-0.1,0-0.1-0.1c0,0,0-0.1,0.1-0.1l0,0
			c0.1,0,0.2,0,0.3,0C32.7,44.7,32.7,44.7,32.7,44.8L32.7,44.8z M33.1,44.8C33.1,44.8,33,44.8,33.1,44.8c-0.1-0.1,0-0.2,0-0.2
			c0.1,0,0.2,0,0.3,0c0,0,0.1,0,0.1,0.1c0,0,0,0.1-0.1,0.1C33.3,44.8,33.2,44.8,33.1,44.8L33.1,44.8z M32,44.8L32,44.8
			c-0.1,0-0.2,0-0.3,0c0,0-0.1,0-0.1-0.1c0,0,0-0.1,0.1-0.1s0.2,0,0.3,0C32,44.7,32.1,44.7,32,44.8C32.1,44.8,32,44.8,32,44.8z
			 M33.8,44.8C33.7,44.8,33.7,44.8,33.8,44.8c-0.1-0.1,0-0.2,0-0.2c0.1,0,0.2,0,0.3,0c0,0,0.1,0,0.1,0.1c0,0,0,0.1-0.1,0.1
			C34,44.8,33.9,44.8,33.8,44.8L33.8,44.8z M31.2,44.8L31.2,44.8c-0.1,0-0.2,0-0.3,0c0,0-0.1,0-0.1-0.1c0,0,0-0.1,0.1-0.1
			s0.2,0,0.3,0C31.2,44.6,31.3,44.7,31.2,44.8C31.3,44.8,31.2,44.8,31.2,44.8z M34.5,44.8C34.5,44.8,34.5,44.8,34.5,44.8
			c-0.1-0.1-0.1-0.2,0-0.2s0.2,0,0.3,0c0,0,0.1,0,0.1,0.1c0,0,0,0.1-0.1,0.1C34.8,44.8,34.7,44.8,34.5,44.8L34.5,44.8z M30.5,44.8
			L30.5,44.8c-0.1,0-0.2,0-0.3,0c0,0-0.1,0-0.1-0.1c0,0,0-0.1,0.1-0.1s0.2,0,0.3,0C30.6,44.6,30.6,44.6,30.5,44.8
			C30.6,44.7,30.5,44.8,30.5,44.8z M35.2,44.8C35.2,44.8,35.2,44.7,35.2,44.8c-0.1-0.1-0.1-0.2,0-0.2s0.2,0,0.3,0c0,0,0.1,0,0.1,0.1
			c0,0,0,0.1-0.1,0.1C35.5,44.7,35.4,44.7,35.2,44.8C35.3,44.8,35.3,44.8,35.2,44.8z M29.7,44.7L29.7,44.7c-0.1,0-0.2,0-0.3,0
			c0,0-0.1,0-0.1-0.1c0,0,0-0.1,0.1-0.1s0.2,0,0.3,0C29.9,44.5,29.9,44.6,29.7,44.7C29.9,44.7,29.9,44.7,29.7,44.7z M36,44.7
			L36,44.7c-0.1-0.1-0.1-0.2,0-0.2s0.2,0,0.3,0c0,0,0.1,0,0.1,0.1c0,0,0,0.1-0.1,0.1C36.3,44.7,36.2,44.7,36,44.7L36,44.7z M29,44.6
			L29,44.6c-0.1,0-0.2,0-0.4,0c0,0-0.1,0-0.1-0.1c0,0,0-0.1,0.1-0.1s0.2,0,0.3,0C29.1,44.5,29.1,44.5,29,44.6
			C29.1,44.6,29.1,44.6,29,44.6z M36.7,44.6C36.7,44.6,36.6,44.6,36.7,44.6c-0.1-0.1-0.1-0.2,0-0.2s0.2,0,0.3,0c0,0,0.1,0,0.1,0.1
			c0,0,0,0.1-0.1,0.1C36.9,44.6,36.8,44.6,36.7,44.6L36.7,44.6z M28.4,44.5L28.4,44.5c-0.1,0-0.2,0-0.4-0.1l-0.1-0.1l0.1-0.1
			c0.1,0,0.2,0,0.3,0.1S28.5,44.4,28.4,44.5L28.4,44.5z M37.4,44.5C37.3,44.5,37.3,44.5,37.4,44.5c-0.1-0.1-0.1-0.2,0-0.2
			s0.2,0,0.3-0.1c0,0,0.1,0,0.1,0.1c0,0,0,0.1-0.1,0.1C37.7,44.5,37.5,44.5,37.4,44.5L37.4,44.5z M27.6,44.4L27.6,44.4
			c-0.1,0-0.2,0-0.4-0.1l-0.1-0.1l0.1-0.1c0.1,0,0.2,0,0.3,0.1S27.7,44.3,27.6,44.4C27.7,44.4,27.6,44.4,27.6,44.4z M38.2,44.4
			C38.1,44.4,38.1,44.4,38.2,44.4c-0.1-0.1-0.1-0.2,0-0.2s0.2,0,0.3-0.1c0,0,0.1,0,0.1,0.1c0,0,0,0.1-0.1,0.1
			C38.4,44.4,38.3,44.4,38.2,44.4L38.2,44.4z M26.9,44.3L26.9,44.3c-0.1,0-0.2,0-0.4-0.1L26.3,44l0.1-0.1c0.1,0,0.2,0,0.3,0.1
			C27,44.2,27,44.2,26.9,44.3C27,44.3,27,44.3,26.9,44.3z M38.8,44.3C38.8,44.3,38.8,44.2,38.8,44.3c-0.1-0.1-0.1-0.2,0-0.2
			s0.2,0,0.3-0.1c0,0,0.1,0,0.1,0.1c0,0,0,0.1-0.1,0.1C39.2,44.2,39,44.2,38.8,44.3L38.8,44.3z M26.1,44.2L26.1,44.2
			c-0.1,0-0.2-0.1-0.4-0.1l-0.1-0.1l0.1-0.1c0.1,0,0.2,0,0.3,0.1C26.2,43.9,26.2,44,26.1,44.2C26.2,44.2,26.2,44.2,26.1,44.2z
			 M39.6,44C39.6,44,39.5,44,39.6,44c-0.1-0.1-0.1-0.2,0-0.2s0.2-0.1,0.3-0.1c0,0,0.1,0,0.1,0.1c0,0,0,0.1-0.1,0.1
			C39.8,44,39.7,44,39.6,44L39.6,44z M25.5,43.9L25.5,43.9c-0.1,0-0.2-0.1-0.4-0.1l-0.1-0.1l0.1-0.1c0.1,0,0.2,0.1,0.3,0.1
			C25.5,43.8,25.6,43.8,25.5,43.9L25.5,43.9z M40.3,43.9C40.2,43.9,40.2,43.8,40.3,43.9c-0.1-0.1-0.1-0.2,0-0.2s0.2-0.1,0.3-0.1
			c0,0,0.1,0,0.1,0.1c0,0,0,0.1-0.1,0.1C40.5,43.8,40.4,43.8,40.3,43.9L40.3,43.9z M24.7,43.8L24.7,43.8c-0.1,0-0.2-0.1-0.4-0.1
			l-0.1-0.1l0.1-0.1c0.1,0,0.2,0.1,0.3,0.1C24.8,43.6,24.8,43.7,24.7,43.8C24.8,43.8,24.7,43.8,24.7,43.8z M41,43.7L41,43.7
			c-0.1-0.1-0.1-0.2,0-0.2s0.2-0.1,0.3-0.1c0,0,0.1,0,0.1,0.1c0,0,0,0.1-0.1,0.1C41.3,43.6,41.2,43.6,41,43.7L41,43.7z M24,43.6
			L24,43.6c-0.1,0-0.2-0.1-0.4-0.1l-0.1-0.1l0.1-0.1c0.1,0,0.2,0.1,0.3,0.1C24.1,43.4,24.1,43.5,24,43.6
			C24.1,43.6,24.1,43.6,24,43.6z M41.7,43.5C41.6,43.5,41.6,43.5,41.7,43.5c-0.1-0.1-0.1-0.2,0-0.2s0.2-0.1,0.3-0.1
			c0,0,0.1,0,0.1,0.1c0,0,0,0.1-0.1,0.1S41.8,43.4,41.7,43.5L41.7,43.5z M23.3,43.4L23.3,43.4c-0.1,0-0.2-0.1-0.4-0.1l-0.1-0.1
			l0.1-0.1c0.1,0,0.2,0.1,0.3,0.1C23.4,43.3,23.4,43.3,23.3,43.4C23.4,43.4,23.3,43.4,23.3,43.4z M42.4,43.3L42.4,43.3
			c-0.1-0.1-0.1-0.2,0-0.2s0.2-0.1,0.3-0.1c0,0,0.1,0,0.1,0.1c0,0,0,0.1-0.1,0.1C42.7,43.2,42.6,43.2,42.4,43.3
			C42.5,43.3,42.4,43.3,42.4,43.3z M22.6,43.2L22.6,43.2c-0.1,0-0.2-0.1-0.4-0.1L22,43l0.1-0.1c0.1,0,0.2,0.1,0.3,0.1
			C22.7,43,22.7,43.1,22.6,43.2C22.7,43.2,22.7,43.2,22.6,43.2z M43.1,43C43,43,43,43,43.1,43c-0.1-0.1-0.1-0.1,0-0.2
			c0.1,0,0.2-0.1,0.3-0.1h0.1v0.1C43.3,43,43.2,43,43.1,43L43.1,43z M21.9,43L21.9,43c-0.1,0-0.2-0.1-0.4-0.1l-0.1-0.1l0.1-0.1
			c0.1,0,0.2,0.1,0.3,0.1C22,42.8,22,42.9,21.9,43C22,43,21.9,43,21.9,43z M43.8,42.8L43.8,42.8c-0.1-0.1-0.1-0.1,0-0.2
			c0.1,0,0.2-0.1,0.3-0.1h0.1v0.1C44.1,42.7,44,42.8,43.8,42.8L43.8,42.8z M21.2,42.7L21.2,42.7c-0.1,0-0.2-0.1-0.4-0.1
			c0,0-0.1-0.1,0-0.1c0,0,0.1-0.1,0.1,0c0.1,0,0.2,0.1,0.3,0.1C21.3,42.5,21.3,42.5,21.2,42.7C21.3,42.7,21.3,42.7,21.2,42.7z
			 M44.5,42.4C44.4,42.4,44.4,42.4,44.5,42.4c-0.1-0.1-0.1-0.1,0-0.2c0.1,0,0.2-0.1,0.3-0.1h0.1v0.1C44.7,42.3,44.6,42.4,44.5,42.4
			L44.5,42.4z M20.5,42.4L20.5,42.4c-0.1-0.1-0.2-0.1-0.3-0.1c0,0-0.1-0.1,0-0.1c0,0,0.1-0.1,0.1,0c0.1,0,0.2,0.1,0.3,0.1
			C20.6,42.2,20.6,42.3,20.5,42.4C20.6,42.4,20.5,42.4,20.5,42.4z M45.2,42.2C45,42.2,45,42.1,45.2,42.2c-0.1-0.1-0.1-0.1,0-0.2
			c0.1,0,0.2-0.1,0.3-0.1h0.1V42C45.4,42.1,45.3,42.1,45.2,42.2L45.2,42.2z M19.9,42.1L19.9,42.1C19.8,42,19.7,42,19.6,42
			c0,0-0.1-0.1,0-0.1c0,0,0.1-0.1,0.1,0c0.1,0,0.2,0.1,0.3,0.1C20,42,20,42,19.9,42.1L19.9,42.1z M45.8,41.9
			C45.8,41.9,45.7,41.9,45.8,41.9c-0.1-0.1-0.1-0.1,0-0.2c0.1,0,0.2-0.1,0.3-0.1h0.1v0.1C46,41.8,45.9,41.8,45.8,41.9L45.8,41.9z
			 M19.2,41.8C19.1,41.8,19.1,41.8,19.2,41.8c-0.1-0.1-0.3-0.1-0.3-0.2c0,0-0.1-0.1,0-0.1c0,0,0.1-0.1,0.1,0c0.1,0,0.2,0.1,0.3,0.1
			C19.2,41.7,19.4,41.7,19.2,41.8L19.2,41.8z M46.4,41.6C46.4,41.6,46.3,41.6,46.4,41.6c-0.1-0.1-0.1-0.1,0-0.2
			c0.1-0.1,0.2-0.1,0.3-0.2h0.1v0.1C46.8,41.5,46.7,41.5,46.4,41.6L46.4,41.6z M18.5,41.5L18.5,41.5c-0.2-0.1-0.3-0.2-0.3-0.2
			s-0.1-0.1,0-0.1c0,0,0.1-0.1,0.1,0c0,0,0.1,0.1,0.3,0.2C18.6,41.4,18.6,41.4,18.5,41.5C18.6,41.5,18.6,41.5,18.5,41.5z M47.1,41.3
			C47.1,41.3,47.1,41.2,47.1,41.3c-0.1-0.1-0.1-0.1,0-0.2c0.1-0.1,0.2-0.1,0.3-0.2h0.1V41C47.4,41,47.3,41.2,47.1,41.3L47.1,41.3z
			 M47.7,40.8L47.7,40.8c-0.1-0.1-0.1-0.1,0-0.2c0.1-0.1,0.2-0.1,0.3-0.2h0.1v0.1C48,40.7,47.9,40.8,47.7,40.8L47.7,40.8z
			 M48.4,40.5C48.4,40.5,48.2,40.5,48.4,40.5c-0.1-0.1-0.1-0.1,0-0.2c0.1-0.1,0.2-0.1,0.3-0.2h0.1v0.1
			C48.6,40.3,48.5,40.4,48.4,40.5L48.4,40.5z M49,40.1C49,40.1,48.9,40.1,49,40.1c-0.1-0.1-0.1-0.1,0-0.2c0.1-0.1,0.2-0.1,0.3-0.2
			h0.1v0.1C49.2,40,49.1,40,49,40.1L49,40.1z M49.6,39.7C49.5,39.7,49.5,39.7,49.6,39.7c-0.1-0.1-0.1-0.1,0-0.2
			c0.1-0.1,0.2-0.1,0.3-0.2h0.1v0.1C49.9,39.5,49.8,39.7,49.6,39.7L49.6,39.7z M50.2,39.3L50.2,39.3c-0.1-0.1-0.1-0.1,0-0.2
			c0.1-0.1,0.2-0.1,0.3-0.2h0.1V39C50.5,39.1,50.4,39.2,50.2,39.3C50.3,39.3,50.2,39.3,50.2,39.3z M50.8,38.9
			C50.8,38.9,50.7,38.9,50.8,38.9c-0.1-0.1-0.1-0.1-0.1-0.2c0.1-0.1,0.2-0.1,0.3-0.2h0.1v0.1C51,38.7,50.9,38.8,50.8,38.9L50.8,38.9
			z"/>
	</g>
	<g id="XMLID_380_">
		<path id="XMLID_381_" class="st0" d="M62.2,50.8l-0.1-0.2L62.2,50.8l-0.1-0.1l0.1-0.2c0,0,0.1-0.1,0.1,0c0,0,0.1,0.1,0,0.1v0.1
			C62.2,50.8,62.2,50.8,62.2,50.8z M62.4,50.3L62.4,50.3c-0.1,0-0.1-0.1-0.1-0.1l0.1-0.3c0,0,0.1-0.1,0.1,0c0,0,0.1,0.1,0,0.1
			L62.4,50.3L62.4,50.3z M62.6,49.6L62.6,49.6c-0.1,0-0.1-0.1-0.1-0.1l0.1-0.3c0,0,0.1-0.1,0.1,0c0,0,0.1,0.1,0,0.1L62.6,49.6
			C62.7,49.6,62.7,49.6,62.6,49.6z M62.9,49L62.9,49c-0.1,0-0.1-0.1-0.1-0.1c0-0.1,0.1-0.2,0.1-0.3c0,0,0.1-0.1,0.1,0
			c0,0,0.1,0.1,0,0.1C63,48.7,63,48.8,62.9,49C62.9,48.9,62.9,49,62.9,49z M63.1,48.2L63.1,48.2c-0.1,0-0.1-0.1-0.1-0.1l0.1-0.1
			c0-0.1,0-0.1,0.1-0.2l0.1-0.1l0.1,0.1c0,0.1,0,0.1-0.1,0.2L63.1,48.2C63.2,48.2,63.2,48.2,63.1,48.2z M63.3,47.6
			C63.3,47.6,63.2,47.5,63.3,47.6c-0.1-0.2-0.1-0.3-0.1-0.4c0,0,0-0.1,0.1-0.1c0,0,0.1,0,0.1,0.1C63.5,47.2,63.5,47.4,63.3,47.6
			C63.5,47.5,63.3,47.6,63.3,47.6L63.3,47.6z M63.2,46.8C63.1,46.8,63.1,46.8,63.2,46.8c-0.1-0.2-0.2-0.3-0.2-0.4v-0.1h0.1
			c0.1,0.1,0.1,0.2,0.1,0.3C63.3,46.7,63.2,46.8,63.2,46.8L63.2,46.8z M62.9,46.2C62.8,46.2,62.8,46.2,62.9,46.2
			c-0.1-0.1-0.2-0.2-0.2-0.2l-0.1-0.1v-0.1h0.1l0.1,0.1l0,0c0,0,0.1,0.1,0.1,0.2C63,46.1,62.9,46.1,62.9,46.2L62.9,46.2z M62.3,45.7
			L62.3,45.7L62,45.5v-0.1h0.1l0.3,0.2C62.4,45.5,62.4,45.7,62.3,45.7C62.4,45.7,62.4,45.7,62.3,45.7z M61.7,45.3
			C61.7,45.3,61.6,45.2,61.7,45.3l-0.3-0.2V45h0.1l0.3,0.2C61.8,45.1,61.8,45.2,61.7,45.3C61.7,45.2,61.7,45.3,61.7,45.3z
			 M61.1,44.9L61.1,44.9l-0.3-0.2v-0.1h0.1l0.3,0.2C61.2,44.7,61.2,44.8,61.1,44.9C61.2,44.9,61.1,44.9,61.1,44.9z M60.6,44.5
			C60.5,44.5,60.5,44.5,60.6,44.5l-0.3-0.2v-0.1h0.1l0.3,0.2C60.6,44.4,60.6,44.4,60.6,44.5L60.6,44.5z M59.9,44L59.9,44l-0.3-0.2
			v-0.1h0.1l0.3,0.2C60,43.9,60,43.9,59.9,44L59.9,44z M59.3,43.6L59.3,43.6L59,43.4v-0.1h0.1l0.3,0.2
			C59.4,43.5,59.4,43.5,59.3,43.6C59.4,43.6,59.3,43.6,59.3,43.6z M58.7,43.2C58.6,43.2,58.6,43.2,58.7,43.2L58.3,43v-0.1h0.1
			l0.3,0.2C58.7,43.1,58.8,43.1,58.7,43.2L58.7,43.2z M58.1,42.8L58.1,42.8l-0.3-0.2v-0.1h0.1l0.3,0.2
			C58.2,42.7,58.2,42.8,58.1,42.8L58.1,42.8z M57.5,42.4C57.5,42.4,57.5,42.3,57.5,42.4l-0.3-0.2v-0.1h0.1l0.3,0.2
			C57.6,42.2,57.6,42.3,57.5,42.4C57.6,42.3,57.6,42.4,57.5,42.4z M56.9,42C56.8,42,56.8,42,56.9,42l-0.3-0.2v-0.1h0.1l0.3,0.2
			C56.9,41.8,57,41.9,56.9,42L56.9,42z M56.3,41.6L56.3,41.6L56,41.4v-0.1h0.1l0.3,0.2C56.4,41.5,56.4,41.5,56.3,41.6L56.3,41.6z
			 M55.6,41.2L55.6,41.2L55.3,41v-0.1h0.1l0.3,0.2C55.8,41,55.8,41,55.6,41.2C55.8,41.2,55.8,41.2,55.6,41.2z M55.1,40.7
			C55,40.7,55,40.7,55.1,40.7l-0.3-0.2v-0.1h0.1l0.2,0.2C55.2,40.6,55.2,40.6,55.1,40.7L55.1,40.7z M54.5,40.3L54.5,40.3l-0.3-0.2
			V40h0.1l0.3,0.2C54.6,40.2,54.6,40.2,54.5,40.3C54.6,40.3,54.5,40.3,54.5,40.3z M53.8,39.9L53.8,39.9l-0.3-0.2v-0.1h0.1l0.3,0.2
			C53.9,39.8,53.9,39.9,53.8,39.9C53.9,39.9,53.9,39.9,53.8,39.9z M53.3,39.5C53.3,39.5,53.2,39.5,53.3,39.5L53,39.3v-0.1h0.1
			l0.3,0.2C53.4,39.3,53.4,39.5,53.3,39.5C53.3,39.5,53.3,39.5,53.3,39.5z M52.6,39.1L52.6,39.1l-0.3-0.2v-0.1h0.1l0.3,0.2
			C52.8,38.9,52.8,39,52.6,39.1C52.8,39.1,52.6,39.1,52.6,39.1z M52,38.7L52,38.7l-0.3-0.2v-0.1h0.1l0.3,0.2
			C52.1,38.6,52.1,38.6,52,38.7C52.1,38.7,52.1,38.7,52,38.7z M51.5,38.3C51.5,38.3,51.4,38.3,51.5,38.3l-0.3-0.2V38h0.1l0.3,0.2
			C51.6,38.2,51.6,38.2,51.5,38.3L51.5,38.3z M50.8,37.8L50.8,37.8l-0.3-0.2v-0.1h0.1l0.3,0.2C50.9,37.7,50.9,37.7,50.8,37.8
			C50.9,37.8,50.8,37.8,50.8,37.8z M50.2,37.4L50.2,37.4l-0.3-0.2v-0.1H50l0.3,0.2C50.3,37.3,50.3,37.3,50.2,37.4
			C50.3,37.4,50.3,37.4,50.2,37.4z M49.6,37C49.6,37,49.5,37,49.6,37l-0.3-0.2v-0.1h0.1l0.3,0.2C49.8,36.9,49.8,37,49.6,37L49.6,37z
			"/>
	</g>
	<g id="XMLID_378_">
		<path id="XMLID_379_" class="st0" d="M42.5,59.9C42.5,59.9,42.4,59.9,42.5,59.9c-0.1,0-0.1-0.1-0.1-0.1s0-0.1,0.1-0.3
			c0,0,0.1-0.1,0.1,0c0,0,0.1,0.1,0,0.1C42.6,59.7,42.5,59.8,42.5,59.9L42.5,59.9z M42.7,59.1L42.7,59.1c-0.1,0-0.1-0.1-0.1-0.1
			c0-0.1,0.1-0.2,0.1-0.3c0,0,0.1-0.1,0.1,0c0,0,0.1,0.1,0,0.1C42.9,58.9,42.8,59,42.7,59.1C42.8,59.1,42.8,59.1,42.7,59.1z
			 M43,58.5L43,58.5c-0.1,0-0.1-0.1-0.1-0.1c0-0.1,0.1-0.2,0.2-0.3c0,0,0.1-0.1,0.1,0c0,0,0.1,0.1,0,0.1
			C43.2,58.3,43.1,58.4,43,58.5C43.1,58.5,43,58.5,43,58.5z M43.3,57.9L43.3,57.9c-0.1,0-0.1-0.1-0.1-0.1c0.1-0.1,0.1-0.2,0.2-0.3
			c0,0,0.1-0.1,0.1,0c0,0,0.1,0.1,0,0.1C43.5,57.6,43.5,57.8,43.3,57.9C43.4,57.9,43.4,57.9,43.3,57.9z M43.8,57.2
			C43.8,57.2,43.7,57.2,43.8,57.2c-0.1,0-0.1-0.1-0.1-0.1c0.1-0.1,0.1-0.2,0.2-0.3c0,0,0.1-0.1,0.1,0c0,0,0.1,0.1,0,0.1
			C44,57,43.9,57.1,43.8,57.2L43.8,57.2z M44.1,56.6L44.1,56.6c-0.1,0-0.1-0.1-0.1-0.1c0.1-0.1,0.1-0.2,0.2-0.3h0.1v0.1
			C44.3,56.4,44.3,56.5,44.1,56.6C44.2,56.6,44.2,56.6,44.1,56.6z M44.5,56L44.5,56c-0.1,0-0.1-0.1-0.1-0.1c0.1-0.1,0.1-0.2,0.2-0.3
			h0.1v0.1C44.7,55.8,44.7,55.8,44.5,56C44.6,56,44.6,56,44.5,56z M44.9,55.4L44.9,55.4c-0.1,0-0.1-0.1-0.1-0.1
			c0.1-0.1,0.1-0.2,0.2-0.3h0.1v0.1C45.3,55.2,45.2,55.3,44.9,55.4C45,55.4,45,55.4,44.9,55.4z M45.5,54.9
			C45.5,54.9,45.4,54.9,45.5,54.9c-0.1-0.1-0.1-0.1-0.1-0.1c0.1-0.1,0.2-0.2,0.2-0.3h0.1v0.1C45.7,54.7,45.6,54.8,45.5,54.9
			L45.5,54.9z M45.9,54.3L45.9,54.3c-0.1-0.1-0.1-0.1-0.1-0.1C45.9,54.1,46,54,46,54h0.1v0.1C46.2,54.1,46.1,54.2,45.9,54.3
			C46,54.3,46,54.3,45.9,54.3z M46.4,53.8L46.4,53.8c-0.1-0.1-0.1-0.1-0.1-0.1c0.1-0.1,0.2-0.2,0.3-0.2h0.1v0.1
			C46.7,53.6,46.7,53.7,46.4,53.8C46.5,53.8,46.4,53.8,46.4,53.8z M47,53.2L47,53.2c-0.1-0.1-0.1-0.1-0.1-0.2
			c0.1-0.1,0.2-0.1,0.3-0.2h0.1v0.1C47.3,53.2,47.2,53.2,47,53.2C47.1,53.2,47,53.2,47,53.2z M47.6,52.8
			C47.5,52.8,47.5,52.8,47.6,52.8c-0.1-0.1-0.1-0.1-0.1-0.2c0.1-0.1,0.2-0.1,0.3-0.2h0.1v0.1C47.8,52.7,47.7,52.7,47.6,52.8
			L47.6,52.8z M48.2,52.4L48.2,52.4c-0.1-0.1-0.1-0.1,0-0.2c0.1-0.1,0.2-0.1,0.3-0.2h0.1v0.1C48.4,52.3,48.4,52.3,48.2,52.4
			L48.2,52.4z M48.8,52C48.8,52,48.7,52,48.8,52c-0.1-0.1-0.1-0.1,0-0.2c0.1-0.1,0.2-0.1,0.3-0.2h0.1v0.1C49,51.9,48.9,52,48.8,52
			L48.8,52z M70.6,52L70.6,52l-0.4-0.1l-0.1-0.1l0.1-0.1l0.3,0.1C70.6,51.8,70.7,51.9,70.6,52L70.6,52z M69.9,51.9L69.9,51.9
			l-0.4-0.1l-0.1-0.1l0.1-0.1l0.3,0.1C70,51.7,70,51.7,69.9,51.9C70,51.8,69.9,51.9,69.9,51.9z M69.1,51.7L69.1,51.7l-0.4-0.1
			l-0.1-0.1l0.1-0.1l0.3,0.1C69.2,51.4,69.2,51.5,69.1,51.7C69.2,51.7,69.2,51.7,69.1,51.7z M49.4,51.7
			C49.3,51.7,49.3,51.7,49.4,51.7c-0.1-0.1-0.1-0.1,0-0.2c0.1-0.1,0.2-0.1,0.3-0.2h0.1v0.1C49.6,51.5,49.5,51.5,49.4,51.7L49.4,51.7
			z M68.5,51.5L68.5,51.5l-0.4-0.1l-0.1-0.1l0.1-0.1l0.3,0.1C68.5,51.3,68.6,51.4,68.5,51.5C68.5,51.4,68.5,51.5,68.5,51.5z
			 M67.7,51.3L67.7,51.3h-0.4l-0.1-0.1l0.1-0.1l0.3,0.1C67.8,51.2,67.8,51.2,67.7,51.3C67.8,51.3,67.7,51.3,67.7,51.3z M50.1,51.3
			C50.1,51.3,50,51.3,50.1,51.3c-0.1-0.1-0.1-0.1,0-0.2c0.1,0,0.2-0.1,0.3-0.1h0.1v0.1C50.3,51.2,50.2,51.2,50.1,51.3L50.1,51.3z
			 M67,51.2L67,51.2l-0.4-0.1L66.4,51l0.1-0.1l0.3,0.1C67.1,51,67.1,51.1,67,51.2C67.1,51.2,67.1,51.2,67,51.2z M66.2,51.1
			L66.2,51.1L65.8,51l-0.1-0.1l0.1-0.1l0.3,0.1C66.3,50.9,66.3,51,66.2,51.1C66.3,51.1,66.3,51.1,66.2,51.1z M50.7,51
			C50.7,51,50.6,51,50.7,51c-0.1-0.1-0.1-0.1,0-0.2c0.1,0,0.2-0.1,0.3-0.1c0,0,0.1,0,0.1,0.1c0,0,0,0.1-0.1,0.1
			C51,50.9,50.9,51,50.7,51L50.7,51z M65.6,51L65.6,51c-0.1,0-0.2,0-0.4-0.1L65,50.8l0.1-0.1c0.1,0,0.2,0,0.3,0.1
			C65.6,50.8,65.7,50.8,65.6,51C65.7,50.9,65.6,51,65.6,51z M64.8,50.8L64.8,50.8l-0.4-0.1l-0.1-0.1l0.1-0.1l0.3,0.1
			C64.9,50.7,64.9,50.7,64.8,50.8C64.9,50.8,64.8,50.8,64.8,50.8z M51.5,50.8C51.4,50.8,51.4,50.8,51.5,50.8c-0.1-0.1-0.1-0.2,0-0.2
			s0.2-0.1,0.3-0.1c0,0,0.1,0,0.1,0.1c0,0,0,0.1-0.1,0.1C51.7,50.7,51.6,50.7,51.5,50.8L51.5,50.8z M64.1,50.7L64.1,50.7
			c-0.1,0-0.2,0-0.4-0.1l-0.1-0.1l0.1-0.1c0.1,0,0.2,0,0.3,0.1C64.2,50.6,64.2,50.6,64.1,50.7C64.2,50.7,64.2,50.7,64.1,50.7z
			 M63.3,50.6L63.3,50.6h-0.4c0,0-0.1,0-0.1-0.1l0.1-0.1h0.3C63.5,50.5,63.5,50.5,63.3,50.6C63.5,50.6,63.5,50.6,63.3,50.6z
			 M52.1,50.6C52.1,50.6,52,50.6,52.1,50.6c-0.1-0.1-0.1-0.2,0-0.2s0.2-0.1,0.3-0.1c0,0,0.1,0,0.1,0.1c0,0,0,0.1-0.1,0.1
			C52.4,50.5,52.2,50.6,52.1,50.6L52.1,50.6z M62.7,50.5L62.7,50.5c-0.1,0-0.2,0-0.4,0c0,0-0.1,0-0.1-0.1c0,0,0-0.1,0.1-0.1
			s0.2,0,0.3,0C62.7,50.4,62.8,50.4,62.7,50.5C62.8,50.5,62.7,50.5,62.7,50.5z M62,50.5L62,50.5c-0.1,0-0.2,0-0.3,0
			c0,0-0.1,0-0.1-0.1c0,0,0-0.1,0.1-0.1s0.2,0,0.3,0C62.1,50.3,62.1,50.3,62,50.5C62.1,50.4,62,50.5,62,50.5z M52.9,50.4
			C52.8,50.4,52.8,50.4,52.9,50.4c-0.1-0.1-0.1-0.2,0-0.2s0.2,0,0.3-0.1c0,0,0.1,0,0.1,0.1c0,0,0,0.1-0.1,0.1
			C53.1,50.4,53,50.4,52.9,50.4L52.9,50.4z M61.2,50.4L61.2,50.4c-0.1,0-0.2,0-0.3,0c0,0-0.1,0-0.1-0.1c0,0,0-0.1,0.1-0.1
			s0.2,0,0.3,0C61.3,50.2,61.3,50.3,61.2,50.4C61.3,50.3,61.3,50.4,61.2,50.4z M53.6,50.3C53.5,50.3,53.5,50.3,53.6,50.3
			c-0.1-0.1-0.1-0.2,0-0.2s0.2,0,0.3,0c0,0,0.1,0,0.1,0.1c0,0,0,0.1-0.1,0.1C53.8,50.3,53.7,50.3,53.6,50.3L53.6,50.3z M60.5,50.3
			L60.5,50.3c-0.1,0-0.2,0-0.3,0c0,0-0.1,0-0.1-0.1c0,0,0-0.1,0.1-0.1s0.2,0,0.3,0C60.6,50,60.6,50.2,60.5,50.3
			C60.6,50.3,60.6,50.3,60.5,50.3z M59.8,50.2C59.7,50.2,59.7,50.2,59.8,50.2c-0.1,0-0.2,0-0.3,0c0,0-0.1,0-0.1-0.1
			c0,0,0-0.1,0.1-0.1s0.2,0,0.3,0C59.8,50,59.8,50,59.8,50.2L59.8,50.2z M54.2,50.2C54.2,50.2,54.1,50.2,54.2,50.2
			c-0.1-0.1-0.1-0.2,0-0.2s0.2,0,0.3,0c0,0,0.1,0,0.1,0.1c0,0,0,0.1-0.1,0.1C54.5,50.2,54.3,50.2,54.2,50.2L54.2,50.2z M59.1,50.2
			L59.1,50.2c-0.1,0-0.2,0-0.3,0c0,0-0.1,0-0.1-0.1c0,0,0-0.1,0.1-0.1s0.2,0,0.3,0C59.1,49.9,59.2,50,59.1,50.2
			C59.2,50.2,59.1,50.2,59.1,50.2z M55,50C55,50,54.9,50,55,50c-0.1-0.1-0.1-0.2,0-0.2s0.2,0,0.3,0c0,0,0.1,0,0.1,0.1
			c0,0,0,0.1-0.1,0.1S55.1,50,55,50L55,50z M58.3,50L58.3,50c-0.1,0-0.2,0-0.3,0c0,0-0.1,0-0.1-0.1c0,0,0-0.1,0.1-0.1s0.2,0,0.3,0
			C58.3,49.9,58.4,49.9,58.3,50C58.4,50,58.3,50,58.3,50z M57.6,50L57.6,50c-0.1,0-0.2,0-0.3,0c0,0-0.1,0-0.1-0.1c0,0,0-0.1,0.1-0.1
			s0.2,0,0.3,0C57.7,49.8,57.7,49.9,57.6,50C57.7,50,57.6,50,57.6,50z M55.8,50C55.6,50,55.6,50,55.8,50c-0.1-0.1,0-0.2,0-0.2
			c0.1,0,0.2,0,0.3,0l0,0c0,0,0.1,0,0.1,0.1c0,0,0,0.1-0.1,0.1C56,50,55.8,50,55.8,50L55.8,50z M56.8,50L56.8,50c-0.1,0-0.2,0-0.3,0
			h-0.1l0,0c0,0-0.1,0-0.1-0.1c0,0,0-0.1,0.1-0.1h0.1c0.1,0,0.2,0,0.3,0C56.9,49.8,56.9,49.9,56.8,50C56.9,50,56.9,50,56.8,50z"/>
	</g>
	<g id="XMLID_376_">
		<path id="XMLID_377_" class="st0" d="M48.7,37.1C48.6,37.1,48.6,37.1,48.7,37.1c-0.1-0.1-0.1-0.1-0.1-0.2c0.1-0.1,3.3-2.8,5.8-2.7
			c0,0,0.1,0,0.1,0.1c0,0,0,0.1-0.1,0.1C52,34.3,48.8,37.1,48.7,37.1L48.7,37.1z"/>
	</g>
	<g id="XMLID_367_">
		<g id="XMLID_374_">
			<path id="XMLID_375_" class="st1" d="M27.1,53.2c0-0.1,0.1-0.2,0.3-0.2c0.1,0,0.3,0.1,0.3,0.2c0,0.1-0.1,0.2-0.3,0.2
				C27.2,53.5,27.1,53.4,27.1,53.2 M27.4,53.5c0.1,0,0.2-0.1,0.2-0.2c0-0.1-0.1-0.2-0.2-0.2c-0.1,0-0.2,0.1-0.2,0.2
				S27.3,53.5,27.4,53.5 M27.3,53.4L27.3,53.4V53h0.1c0.1,0,0.1,0,0.1,0.1c0,0,0,0.1-0.1,0.1l0.1,0.1l0,0l-0.1-0.1L27.3,53.4
				L27.3,53.4z M27.4,53.2L27.4,53.2C27.4,53.2,27.4,53.2,27.4,53.2L27.4,53.2L27.4,53.2L27.4,53.2z"/>
		</g>
		<g id="XMLID_372_">
			<path id="XMLID_373_" class="st1" d="M24.8,53.2h0.1c0,0-0.2-0.4-0.3-0.6c0.1,0,0.1,0,0.2,0c0.1,0.2,0.3,0.5,0.3,0.5
				s0.3-0.2,0.5-0.2c0,0,0.1,0,0.1,0.1l-0.5,0.4l0.1,0.4c0,0,0.3-0.5,0.5-0.8c0.1,0,0.1,0.1,0.1,0.1c-0.1,0.1-0.2,0.2-0.2,0.3
				c0.2,0,0.4,0,0.6,0c0.1,0.1,0.1,0.1,0.1,0.2H26l-0.2,0.4l0.3-0.1c0,0,0.3-0.1,0.5-0.2c0,0.1,0.1,0.1,0.1,0.2l-0.6,0.2l-0.5,0.1
				c-0.1,0.1-0.1,0.2-0.2,0.2c0.4-0.1,1-0.2,1.4-0.3c0.2,0.6,0.1,1.4-0.3,2c-1.3,0.3-2.7-0.1-4,0.1h-0.4c-0.3-0.3-0.4-0.8-0.5-1.1
				c-0.1-0.4,0-0.9,0.1-1.3l0.6-0.1l-0.3-0.4c0-0.1,0.1-0.1,0.1-0.2c0.2,0.2,0.5,0.5,0.5,0.5h0.2l-0.6-0.6c0.1-0.1,0.2-0.2,0.2-0.2
				l0.5,0.1c0,0,0-0.2,0-0.4c0.1-0.1,0.2-0.1,0.3-0.1c0.1,0.2,0.2,0.3,0.3,0.5c0.1-0.2,0.2-0.4,0.3-0.6c0,0,0,0,0.1,0L24.8,53.2z
				 M24.5,53l-0.3,0.5l0.2,0.5l0.2-0.1l0.1-0.4C24.6,53.4,24.5,53.2,24.5,53 M23.6,53v0.2h0.1C23.7,53.2,23.7,53.2,23.6,53 M23,53.4
				L23,53.4c0.1,0.1,0.4,0.4,0.4,0.4v-0.3L23,53.4z M25,53.5l-0.1,0.1v0.1L25,53.5L25,53.5z M23.6,53.6V54l0.2-0.4L23.6,53.6
				L23.6,53.6z M25.9,53.8h-0.2l-0.3,0.4h0.2L25.9,53.8z M24.8,54.1v0.4l0.4-0.4V54l-0.1-0.2L24.8,54.1z M24.1,54L24,54.2l0.2,0.2
				C24.1,54.3,24.1,54.2,24.1,54 M24.6,54.2l-0.1,0.1v0.2h0.1V54.2z M23.1,54.2l-0.2,0.3l0.4,0.1l0.3-0.3l-0.1-0.1H23.1z M22.2,54.3
				l0.3,0.1l0.1-0.2L22.2,54.3z M25.2,54.5l-0.1,0.3h0.2l0.2-0.3H25.2z M23.9,54.5l-0.6,0.5h-0.3c0,0,0.1-0.1,0.2-0.2
				c-0.1,0-0.2-0.1-0.3-0.1l-0.2,0.3c-0.1,0-0.1,0-0.2,0c0,0.2,0,0.4,0.1,0.6c0,0.1,0,0.1,0.1,0.1c0.6,0,1.3,0.1,1.8,0.1v-1
				c0-0.1-0.1-0.2-0.1-0.2L24,55h-0.5c0,0,0.4-0.2,0.6-0.3C24,54.7,23.9,54.7,23.9,54.5 M22.2,54.5c0,0.1,0,0.2,0,0.3
				c0-0.1,0.2-0.2,0.2-0.2L22.2,54.5z M26.9,54.8l-0.2,0.1c0.1,0.1,0.2,0.3,0.2,0.3h-0.3l-0.2-0.3c-0.1,0-0.4,0.1-0.4,0.1l0.1,0.2
				h-0.2L25.7,55c0,0-0.5,0.1-0.9,0.2l0,0c0,0.3,0,0.5,0.1,0.9v0.1c0.5,0.1,1.1,0.1,1.6,0.1l0,0c0.1-0.2,0.2-0.4,0.3-0.6
				C27,55.3,27,55,26.9,54.8"/>
		</g>
		<g id="XMLID_370_">
			<path id="XMLID_371_" class="st1" d="M26.6,56.6c-0.1,0.2-0.3,0.4-0.6,0.5c-1.2,0-2.4-0.3-3.5-0.4l-0.1-0.1c1-0.1,1.8-0.1,2.8,0
				C25.8,56.6,26.2,56.6,26.6,56.6L26.6,56.6z"/>
		</g>
		<g id="XMLID_368_">
			<path id="XMLID_369_" class="st1" d="M24.9,57.1c0.3,0,0.8,0.1,1.1,0.1c-0.8,0.4-1.9,0.5-2.7,0.1c-0.2-0.1-0.4-0.2-0.6-0.4
				c0,0,0,0,0.1,0h0.5L24.9,57.1z"/>
		</g>
	</g>
	<g id="XMLID_365_">
		<path id="XMLID_366_" class="st0" d="M60.3,41.5c-0.1,0-0.1,0-0.2-0.1c-0.1-0.1-0.1-0.3,0-0.4l0.9-0.9c0.1-0.1,0.3-0.1,0.4,0
			s0.1,0.3,0,0.4l-0.9,0.9C60.5,41.5,60.5,41.5,60.3,41.5z M61,39.7c-0.1,0-0.1,0-0.2-0.1L60.2,39c-0.1-0.1-0.1-0.3,0-0.4
			s0.3-0.1,0.4,0l0.5,0.5c0.1,0.1,0.1,0.3,0,0.4C61.2,39.7,61.1,39.7,61,39.7z"/>
	</g>
</g>
<g class="st2">
	<path d="M41.1,102.4c-0.5,0-0.9-0.1-1.4-0.3c-0.4-0.2-0.8-0.4-1.1-0.8c-0.3-0.3-0.6-0.8-0.8-1.3s-0.3-1.1-0.3-1.7
		c0-0.6,0.1-1.2,0.3-1.7s0.4-0.9,0.8-1.3c0.3-0.4,0.7-0.6,1.1-0.8c0.4-0.2,0.9-0.3,1.4-0.3c0.5,0,0.9,0.1,1.3,0.3
		c0.4,0.2,0.7,0.4,0.9,0.7l-0.8,0.9c-0.2-0.2-0.4-0.3-0.7-0.5c-0.2-0.1-0.5-0.2-0.8-0.2c-0.3,0-0.6,0.1-0.9,0.2
		c-0.3,0.1-0.5,0.3-0.7,0.6c-0.2,0.2-0.3,0.5-0.4,0.9c-0.1,0.4-0.2,0.7-0.2,1.2c0,0.4,0.1,0.8,0.2,1.2c0.1,0.4,0.3,0.7,0.4,0.9
		c0.2,0.2,0.4,0.4,0.7,0.6c0.3,0.1,0.6,0.2,0.9,0.2c0.3,0,0.6-0.1,0.9-0.2c0.3-0.1,0.5-0.3,0.7-0.6l0.8,0.9
		c-0.3,0.4-0.7,0.7-1.1,0.8C42.1,102.3,41.6,102.4,41.1,102.4z"/>
	<path d="M44.3,102.3l2.5-7.8h1.6l2.5,7.8h-1.5l-0.6-2.1h-2.6l-0.6,2.1H44.3z M46.9,98.1l-0.3,1h2l-0.3-1c-0.1-0.4-0.2-0.8-0.3-1.3
		c-0.1-0.4-0.2-0.9-0.3-1.3h0c-0.1,0.4-0.2,0.9-0.3,1.3C47.1,97.3,47,97.7,46.9,98.1z"/>
	<path d="M54.9,102.4c-0.6,0-1.1-0.1-1.6-0.3c-0.5-0.2-1-0.5-1.3-0.9l0.8-0.9c0.3,0.3,0.6,0.5,1,0.6c0.4,0.2,0.8,0.2,1.2,0.2
		c0.5,0,0.8-0.1,1-0.3c0.2-0.2,0.4-0.4,0.4-0.7c0-0.2,0-0.3-0.1-0.4c-0.1-0.1-0.2-0.2-0.3-0.3c-0.1-0.1-0.3-0.2-0.4-0.2
		c-0.2-0.1-0.3-0.1-0.5-0.2L54,98.6c-0.2-0.1-0.4-0.2-0.6-0.3c-0.2-0.1-0.4-0.3-0.5-0.4c-0.2-0.2-0.3-0.4-0.4-0.6
		c-0.1-0.2-0.1-0.5-0.1-0.8c0-0.3,0.1-0.6,0.2-0.9c0.1-0.3,0.3-0.5,0.6-0.7c0.2-0.2,0.5-0.4,0.9-0.5c0.3-0.1,0.7-0.2,1.1-0.2
		c0.5,0,0.9,0.1,1.4,0.3c0.4,0.2,0.8,0.4,1.1,0.7l-0.7,0.9c-0.3-0.2-0.5-0.4-0.8-0.5c-0.3-0.1-0.6-0.2-1-0.2c-0.4,0-0.7,0.1-0.9,0.2
		s-0.3,0.4-0.3,0.7c0,0.2,0,0.3,0.1,0.4c0.1,0.1,0.2,0.2,0.3,0.3s0.3,0.2,0.4,0.2c0.2,0.1,0.3,0.1,0.5,0.2l1,0.4
		c0.2,0.1,0.5,0.2,0.7,0.3s0.4,0.3,0.5,0.4s0.3,0.4,0.4,0.6c0.1,0.2,0.1,0.5,0.1,0.8c0,0.3-0.1,0.6-0.2,0.9
		c-0.1,0.3-0.3,0.5-0.6,0.7s-0.6,0.4-0.9,0.5C55.7,102.4,55.3,102.4,54.9,102.4z"/>
	<path d="M62.1,102.4c-0.9,0-1.5-0.3-2-0.8c-0.5-0.5-0.7-1.3-0.7-2.4v-4.8h1.4v5c0,0.6,0.1,1.1,0.4,1.4c0.2,0.3,0.6,0.4,1,0.4
		c0.4,0,0.8-0.1,1-0.4s0.4-0.8,0.4-1.4v-5h1.3v4.8c0,1.1-0.2,1.9-0.7,2.4C63.6,102.2,62.9,102.4,62.1,102.4z"/>
	<path d="M65.9,102.3l2.5-7.8h1.6l2.5,7.8h-1.5l-0.6-2.1h-2.6l-0.6,2.1H65.9z M68.5,98.1l-0.3,1h2l-0.3-1c-0.1-0.4-0.2-0.8-0.3-1.3
		c-0.1-0.4-0.2-0.9-0.3-1.3h0c-0.1,0.4-0.2,0.9-0.3,1.3C68.7,97.3,68.6,97.7,68.5,98.1z"/>
	<path d="M74.3,102.3v-7.8h1.4v6.7h3.7v1.2H74.3z"/>
</g>
</svg>
