<?xml version="1.0" encoding="utf-8"?>
<!-- Generator: Adobe Illustrator 24.3.0, SVG Export Plug-In . SVG Version: 6.00 Build 0)  -->
<svg version="1.1" id="Layer_1" xmlns="http://www.w3.org/2000/svg" xmlns:xlink="http://www.w3.org/1999/xlink" x="0px" y="0px"
	 viewBox="0 0 120 126" style="enable-background:new 0 0 120 126;" xml:space="preserve">
<style type="text/css">
	.st0{fill:#050505;}
	.st1{enable-background:new    ;}
</style>
<g>
	<g id="XMLID_285_">
		<path id="XMLID_286_" class="st0" d="M52.1,82.2c-1.3,0-2.6-0.3-3.4-1.2c-0.1-0.1-0.1-0.2-0.1-0.3c0-0.1-0.1-5.6-0.2-7.3
			c-0.1-0.9-0.2-5.6-0.2-10.2c-0.1-4.1-0.1-8.1-0.2-9.2c-0.1-2.4-0.8-29-0.7-30.7c0-0.3,0.2-4.1,0.2-5c0.1-0.8,0.4-2.2,0.5-2.3
			c0.1-0.1,0.2-0.3,0.4-0.3c2.2,0.1,5.4,0.1,5.6,0.1c0.1,0,0.2,0,0.4,0c0.5-0.1,0.9-0.1,1.1-0.1s1.8,0.1,2.8,0.1H62
			c0.1,0,0.2,0,0.4,0c6.1-0.2,7.4,0.1,7.9,0.3c0.1,0.1,0.2,0.1,0.2,0.2c0,0.1,0.3,0.9,0.3,1.6c0.1,0.6,0.2,4.1,0.2,4.4v4.5
			c0,0.7-0.1,18.9-0.3,20.4c-0.1,1-0.2,4.3-0.2,6.7c0,1.7,0,2.6-0.1,2.7c0,0.2,0,0.9,0,1.8c0,2.3,0,5.7-0.2,7.2
			c-0.2,2.1-0.3,8.7-0.2,9.3c0.1,0.7-0.2,4.1-0.2,4.4v0.1l-0.3,1c0,0.1-0.1,0.2-0.1,0.2c-0.1,0.1-2.3,2.3-7.4,0.4
			c-0.2-0.1-0.2-0.2-0.2-0.3s-0.2-1.6-0.2-2.2c0.1-0.6,0-14.2-0.1-15.8c-0.1-1.6-0.7-17.2-0.8-18.5c0-1-0.4-4.1-0.5-5.9
			c-0.1-0.8-0.2-1.4-0.2-1.6c-0.1-0.5-0.4-2.4-0.5-3.1h-0.4c-0.2,1.3-0.8,5.4-0.9,7.9c-0.2,2.9-1,13.4-1,13.8S57,68.1,57,69.1
			s-0.2,7.7-0.3,8l0,0l-0.3,3.7c0,0.2-0.2,0.3-0.3,0.4C56.1,81.5,54.1,82.2,52.1,82.2z M49.3,80.6c1.4,1.3,4.8,0.7,6.4,0.2l0.3-3.5
			c0-0.3,0.2-7,0.2-8s0.2-13.7,0.2-13.8l0,0c0-0.1,0.8-11,1-13.8c0.2-3,1-8.3,1-8.4c0-0.2,0.2-0.4,0.4-0.4l1,0.1
			c0.2,0,0.4,0.1,0.4,0.3s0.5,2.8,0.6,3.6c0,0.2,0.1,0.8,0.2,1.6c0.2,2,0.5,5,0.5,6c0.1,1.2,0.7,16.7,0.8,18.5
			c0.1,1.7,0.2,15.4,0.1,15.9c0,0.3,0.1,1.1,0.2,1.7c4.1,1.5,5.9,0.1,6.3-0.2l0.3-0.8c0.1-1.1,0.2-3.8,0.2-4.3
			c-0.1-0.7,0-7.4,0.3-9.6c0.2-1.5,0.2-5,0.2-7.1c0-1.2,0-1.7,0-1.8c0-0.2,0-1.4,0.1-2.7c0-2.4,0.1-5.8,0.2-6.8
			c-0.1-1.6-0.1-20.3-0.1-20.4v-4.5c0-0.2-0.2-3.8-0.2-4.3c0-0.4-0.2-0.9-0.2-1.2c-0.4-0.1-2-0.4-7.3-0.1c-0.2,0-0.4,0-0.4,0h-3.7
			c-0.3,0-2.5-0.1-2.9-0.1c-0.2,0-0.7,0-1,0.1c-0.2,0-0.4,0-0.4,0c-0.2,0-4.1-0.1-5.3-0.1c-0.2,0.4-0.4,1.3-0.4,1.9
			c-0.1,0.7-0.2,4.9-0.2,4.9l0,0c-0.2,1.5,0.6,27.9,0.7,30.6c0.1,1.2,0.2,5.1,0.2,9.3c0.1,4.6,0.2,9.3,0.2,10.2
			C49.3,74.9,49.3,79.7,49.3,80.6z"/>
	</g>
	<g id="XMLID_283_">
		<path id="XMLID_284_" class="st0" d="M59,33c-0.2,0-0.2-0.1-0.3-0.2c0-0.1-0.4-3.9-0.3-6.7c0-0.8,0-1.6,0-2.3c0-2.3,0-3.1,0.2-3.4
			c0.1-0.2,0-0.7,0-1c0-0.1,0-0.2,0-0.2c0-0.1-0.2-0.7-0.4-1.3v-0.1v-1.2c0-0.1,0.2-0.3,0.3-0.3s0.3,0.1,0.3,0.3v1.1
			c0.4,1.2,0.4,1.3,0.4,1.3v0.1c0.1,0.5,0.2,1-0.1,1.3C59,20.6,59,22.1,59,23.6c0,0.7,0,1.5,0,2.3c-0.1,2.7,0.3,6.7,0.3,6.7
			C59.3,32.9,59.2,33,59,33L59,33z"/>
	</g>
	<g id="XMLID_281_">
		<path id="XMLID_282_" class="st0" d="M59.3,32.9c-0.1,0-0.2-0.1-0.2-0.1c0-0.3-0.2-2.6,0-3.1s0.9-1.3,1.3-1.8
			c0.4-0.5,0.8-2.7,0.8-4.5V19c0-0.1,0.1-0.1,0.2-0.1s0.2,0.1,0.2,0.1v4.3c0,1.7-0.4,4.1-0.9,4.7c-0.4,0.4-1.1,1.3-1.3,1.7
			c-0.2,0.3-0.1,1.9,0,3C59.5,32.9,59.5,32.9,59.3,32.9C59.4,32.9,59.4,32.9,59.3,32.9z"/>
	</g>
	<g id="XMLID_261_">
		<path id="XMLID_280_" class="st0" d="M59.1,29.3L59.1,29.3C59,29.3,59,29.3,59.1,29.3C59,29.2,59,29.2,59.1,29.3v-0.1
			C59.1,29.2,59.2,29.2,59.1,29.3L59.1,29.3L59.1,29.3L59.1,29.3z M59.2,29.1L59.2,29.1C59.1,29.1,59.1,29,59.2,29.1
			c-0.1-0.1,0-0.2,0.1-0.3c0,0,0.1-0.1,0.1,0c0,0,0.1,0.1,0,0.1C59.3,28.9,59.3,28.9,59.2,29.1L59.2,29.1z M59.5,28.6
			C59.4,28.6,59.4,28.6,59.5,28.6C59.4,28.6,59.4,28.6,59.5,28.6c0-0.1,0-0.2,0.1-0.3h0.1v0.1C59.6,28.4,59.6,28.5,59.5,28.6
			L59.5,28.6z M59.8,28.2L59.8,28.2c-0.1-0.1-0.1-0.1-0.1-0.1c0.1-0.1,0.2-0.1,0.2-0.2H60V28C59.9,28,59.9,28.1,59.8,28.2L59.8,28.2
			z M60.1,27.8L60.1,27.8C60.1,27.7,60.1,27.7,60.1,27.8c0.1-0.2,0.1-0.2,0.2-0.3c0,0,0.1-0.1,0.1,0c0,0,0.1,0.1,0,0.1
			C60.4,27.7,60.3,27.7,60.1,27.8C60.2,27.8,60.2,27.8,60.1,27.8z M60.4,27.4L60.4,27.4C60.4,27.4,60.4,27.3,60.4,27.4
			c-0.1-0.1,0-0.2,0-0.3l0.1-0.1l0.1,0.1C60.6,27.1,60.5,27.3,60.4,27.4C60.5,27.4,60.4,27.4,60.4,27.4z M60.6,26.9L60.6,26.9
			C60.5,26.9,60.5,26.8,60.6,26.9c-0.1-0.1,0-0.2,0-0.3l0.1-0.1l0.1,0.1C60.7,26.6,60.7,26.8,60.6,26.9
			C60.7,26.9,60.7,26.9,60.6,26.9z M60.7,26.3L60.7,26.3L60.7,26.3c-0.1-0.1-0.1-0.2,0-0.4l0.1-0.1l0.1,0.1
			C60.8,26.1,60.8,26.2,60.7,26.3C60.8,26.3,60.7,26.3,60.7,26.3z M60.8,25.8L60.8,25.8C60.7,25.8,60.7,25.7,60.8,25.8
			c-0.1-0.1-0.1-0.2,0-0.4l0.1-0.1l0.1,0.1C61,25.6,60.9,25.7,60.8,25.8C60.9,25.8,60.9,25.8,60.8,25.8z M60.9,25.3L60.9,25.3
			C60.8,25.3,60.8,25.2,60.9,25.3c-0.1-0.1-0.1-0.2-0.1-0.4l0.1-0.1l0.1,0.1C61,25.1,61,25.1,60.9,25.3C61,25.3,61,25.3,60.9,25.3z
			 M61,24.8L61,24.8C61,24.8,60.9,24.7,61,24.8c-0.1-0.1-0.1-0.1-0.1-0.1c0-0.1,0-0.1,0-0.1s0-0.1,0.1-0.1c0,0,0.1,0,0.1,0.1
			s0,0.1,0,0.1S61,24.7,61,24.8L61,24.8z M61,24.2L61,24.2L61,24.2c-0.1-0.1-0.1-0.2-0.1-0.4c0,0,0-0.1,0.1-0.1c0,0,0.1,0,0.1,0.1
			C61.1,24,61.1,24.1,61,24.2L61,24.2z M61,23.7L61,23.7L61,23.7l-0.1-0.4c0,0,0-0.1,0.1-0.1l0,0c0,0,0.1,0,0.1,0.1L61,23.7
			C61.1,23.7,61,23.7,61,23.7z M61,23.1L61,23.1L61,23.1l-0.1-0.4c0,0,0-0.1,0.1-0.1l0,0c0,0,0.1,0,0.1,0.1L61,23.1
			C61.1,23.1,61,23.1,61,23.1z M61,22.6L61,22.6l-0.1-0.3c0,0,0-0.1,0.1-0.1l0,0c0,0,0.1,0,0.1,0.1L61,22.6
			C61.1,22.6,61,22.6,61,22.6L61,22.6z M61,22.1C61,22.1,61,22,61,22.1l-0.1-0.4c0,0,0-0.1,0.1-0.1l0,0c0,0,0.1,0,0.1,0.1L61,22.1
			C61.1,22,61,22.1,61,22.1L61,22.1z M61,21.6C61,21.6,61,21.5,61,21.6l-0.1-0.4c0,0,0-0.1,0.1-0.1l0,0c0,0,0.1,0,0.1,0.1L61,21.6
			C61.1,21.5,61,21.6,61,21.6L61,21.6z M61,21L61,21l-0.1-0.4c0,0,0-0.1,0.1-0.1l0,0c0,0,0.1,0,0.1,0.1L61,21C61.1,21,61,21,61,21
			L61,21z M61,20.5L61,20.5l-0.1-0.3c0,0,0-0.1,0.1-0.1c0,0,0.1,0,0.1,0.1L61,20.5L61,20.5L61,20.5z M61,20L61,20l-0.1-0.3
			c0,0,0-0.1,0.1-0.1l0,0c0,0,0.1,0,0.1,0.1L61,20L61,20L61,20z M61,19.4C61,19.4,60.9,19.4,61,19.4L60.9,19c0,0,0-0.1,0.1-0.1l0,0
			c0,0,0.1,0,0.1,0.1L61,19.4L61,19.4L61,19.4z"/>
	</g>
	<g id="XMLID_259_">
		<path id="XMLID_260_" class="st0" d="M48.4,23.8L48.4,23.8c-0.2,0-0.3,0-0.3,0s-0.1,0-0.1-0.1c0,0,0-0.1,0.1-0.1c0,0,0.1,0,0.2,0
			l0,0C48.4,23.7,48.4,23.7,48.4,23.8C48.4,23.7,48.4,23.8,48.4,23.8z M48.6,23.8C48.6,23.8,48.5,23.7,48.6,23.8
			c-0.1-0.1-0.1-0.1,0-0.1s0.2,0,0.3,0s0.1,0,0.1,0.1c0,0,0,0.1-0.1,0.1C48.8,23.8,48.7,23.8,48.6,23.8L48.6,23.8z M49.1,23.7
			L49.1,23.7c-0.1-0.1-0.1-0.1,0-0.1s0.2,0,0.3-0.1c0,0,0.1,0,0.1,0.1c0,0,0,0.1-0.1,0.1S49.3,23.7,49.1,23.7
			C49.2,23.7,49.2,23.7,49.1,23.7z M49.7,23.7C49.6,23.7,49.6,23.7,49.7,23.7c-0.1-0.1-0.1-0.1,0-0.1s0.2-0.1,0.2-0.1s0.1,0,0.1,0.1
			c0,0,0,0.1-0.1,0.1C49.8,23.6,49.8,23.7,49.7,23.7L49.7,23.7z M50.2,23.5C50.1,23.5,50.1,23.5,50.2,23.5c-0.1-0.1-0.1-0.1,0-0.1
			s0.2-0.1,0.2-0.1s0.1,0,0.1,0.1c0,0,0,0.1-0.1,0.1C50.4,23.4,50.3,23.4,50.2,23.5L50.2,23.5z M50.7,23.3L50.7,23.3
			c-0.1-0.1-0.1-0.1,0-0.1s0.2-0.1,0.2-0.1H51v0.1C50.9,23.2,50.8,23.3,50.7,23.3L50.7,23.3z M51.2,23.1
			C51.1,23.1,51.1,23.1,51.2,23.1c-0.1-0.1-0.1-0.1,0-0.2s0.2-0.1,0.2-0.1h0.1v0.1C51.3,23,51.3,23,51.2,23.1L51.2,23.1z M51.6,22.8
			L51.6,22.8c-0.1-0.1-0.1-0.1-0.1-0.1c0.1-0.1,0.2-0.1,0.2-0.1h0.1v0.1C51.8,22.6,51.7,22.7,51.6,22.8L51.6,22.8z M52,22.4
			C52,22.4,51.9,22.4,52,22.4c-0.1-0.1-0.1-0.1-0.1-0.1c0.1-0.1,0.2-0.1,0.2-0.2h0v0.1C52.1,22.2,52.1,22.3,52,22.4L52,22.4z
			 M52.4,22C52.3,22,52.3,22,52.4,22C52.3,22,52.3,22,52.4,22c0-0.1,0-0.2,0.1-0.3c0,0,0.1-0.1,0.1,0c0,0,0.1,0.1,0,0.1
			C52.5,21.8,52.4,21.9,52.4,22L52.4,22z M52.6,21.6C52.6,21.6,52.6,21.5,52.6,21.6C52.5,21.6,52.5,21.5,52.6,21.6
			c0-0.1,0-0.2,0.1-0.3c0,0,0.1-0.1,0.1,0c0,0,0.1,0.1,0,0.1C52.7,21.4,52.7,21.4,52.6,21.6C52.7,21.5,52.7,21.6,52.6,21.6z
			 M52.9,21.1C52.8,21.1,52.8,21.1,52.9,21.1C52.8,21.1,52.8,21,52.9,21.1c-0.1-0.1,0-0.2,0-0.3l0.1-0.1l0.1,0.1
			C53,20.8,53,20.9,52.9,21.1L52.9,21.1z M53,20.5L53,20.5L53,20.5c-0.1-0.1,0-0.2,0-0.3l0.1-0.1l0.1,0.1
			C53.1,20.3,53.1,20.4,53,20.5C53.1,20.5,53,20.5,53,20.5z M53.2,20L53.2,20C53.1,20,53.1,20,53.2,20c-0.1-0.1-0.1-0.2,0-0.4
			l0.1-0.1l0.1,0.1C53.3,19.8,53.3,19.9,53.2,20L53.2,20z M53.3,19.5L53.3,19.5C53.2,19.5,53.2,19.5,53.3,19.5
			c-0.1-0.1-0.1-0.2-0.1-0.4c0,0,0-0.1,0.1-0.1c0,0,0.1,0,0.1,0.1C53.3,19.3,53.3,19.4,53.3,19.5L53.3,19.5z"/>
	</g>
	<g id="XMLID_257_">
		<path id="XMLID_258_" class="st0" d="M70.1,24h-0.2c0,0-0.1,0-0.1-0.1c0,0,0-0.1,0.1-0.1h0.2C70.1,23.8,70.1,23.9,70.1,24L70.1,24
			z M69.6,24h-0.3c0,0-0.1,0-0.1-0.1c0,0,0-0.1,0.1-0.1h0.3C69.6,23.8,69.6,23.9,69.6,24L69.6,24z M69,24h-0.3c0,0-0.1,0-0.1-0.1
			c0,0,0-0.1,0.1-0.1H69C69.1,23.8,69.1,23.9,69,24C69.1,24,69.1,24,69,24z M68.5,24h-0.3c0,0-0.1,0-0.1-0.1c0,0,0-0.1,0.1-0.1h0.3
			C68.6,23.8,68.6,23.9,68.5,24C68.6,24,68.6,24,68.5,24z M68,24L68,24c-0.1,0-0.2-0.1-0.3-0.1l-0.1-0.1l0.1-0.1
			c0.1,0,0.2,0.1,0.2,0.1S68.1,23.9,68,24C68.1,23.9,68,24,68,24z M67.5,23.8L67.5,23.8c-0.1,0-0.2-0.1-0.3-0.1l-0.1,0l0.1-0.1
			c0.1,0,0.2,0.1,0.2,0.1C67.6,23.7,67.6,23.7,67.5,23.8C67.6,23.8,67.5,23.8,67.5,23.8z M67,23.7L67,23.7c-0.1,0-0.2-0.1-0.3-0.1
			c0,0-0.1-0.1,0-0.1c0,0,0.1-0.1,0.1,0C66.8,23.5,66.9,23.6,67,23.7C67,23.5,67,23.5,67,23.7C67,23.6,67,23.7,67,23.7z M66.4,23.4
			L66.4,23.4c-0.1-0.1-0.2-0.1-0.3-0.1c0,0-0.1-0.1,0-0.1c0,0,0.1-0.1,0.1,0C66.3,23.3,66.4,23.3,66.4,23.4
			C66.5,23.3,66.5,23.4,66.4,23.4C66.5,23.4,66.5,23.4,66.4,23.4z M66,23.2L66,23.2c-0.2-0.1-0.2-0.1-0.3-0.1c0,0-0.1-0.1,0-0.1
			c0,0,0.1-0.1,0.1,0S65.9,23.1,66,23.2C66.1,23.1,66.1,23.1,66,23.2C66,23.1,66,23.2,66,23.2z M65.6,22.9
			C65.6,22.9,65.5,22.9,65.6,22.9c-0.2-0.1-0.2-0.1-0.2-0.1v-0.1h0.1C65.5,22.8,65.6,22.8,65.6,22.9L65.6,22.9L65.6,22.9z
			 M65.1,22.5L65.1,22.5c-0.1-0.1-0.2-0.1-0.2-0.2v-0.1H65C65,22.3,65,22.4,65.1,22.5C65.2,22.5,65.2,22.5,65.1,22.5
			C65.2,22.5,65.1,22.5,65.1,22.5z M64.8,22.2C64.8,22.2,64.7,22.1,64.8,22.2c-0.1-0.1-0.2-0.2-0.2-0.3v-0.1h0.1
			c0.1,0.1,0.1,0.1,0.2,0.2C64.9,22.1,64.9,22.1,64.8,22.2C64.8,22.1,64.8,22.2,64.8,22.2z M64.6,21.7
			C64.5,21.7,64.5,21.7,64.6,21.7c-0.1-0.1-0.2-0.2-0.2-0.3v-0.1h0.1c0,0.1,0.1,0.1,0.1,0.2C64.7,21.6,64.6,21.7,64.6,21.7
			L64.6,21.7z M64.4,21.1C64.3,21.1,64.3,21.1,64.4,21.1c-0.2-0.1-0.2-0.1-0.2-0.3c0,0,0-0.1,0.1-0.1c0,0,0.1,0,0.1,0.1
			S64.4,21,64.4,21.1L64.4,21.1L64.4,21.1z M64.1,20.7C64.1,20.7,64.1,20.6,64.1,20.7c-0.1-0.2-0.2-0.2-0.2-0.3c0,0,0-0.1,0.1-0.1
			c0,0,0.1,0,0.1,0.1S64.2,20.5,64.1,20.7C64.2,20.6,64.2,20.6,64.1,20.7C64.2,20.7,64.2,20.7,64.1,20.7z M64,20.2
			C64,20.2,64,20.1,64,20.2c-0.1-0.1-0.2-0.2-0.2-0.3c0,0,0-0.1,0.1-0.1c0,0,0.1,0,0.1,0.1S64.1,20,64,20.2
			C64.1,20.1,64.1,20.2,64,20.2C64.1,20.2,64,20.2,64,20.2z M63.9,19.7C63.8,19.7,63.8,19.6,63.9,19.7c-0.1-0.2-0.2-0.3-0.2-0.3
			s0-0.1,0.1-0.1c0,0,0.1,0,0.1,0.1C63.9,19.4,63.9,19.4,63.9,19.7C64,19.6,63.9,19.7,63.9,19.7L63.9,19.7z"/>
	</g>
	<g id="XMLID_255_">
		<path id="XMLID_256_" class="st0" d="M48.2,23.3c-0.1,0-0.2,0-0.2,0c-0.1,0-0.2-0.1-0.2-0.1S48,23,48.1,23c0.2,0,3.8,0.3,4.5-4.1
			c0-0.1,0.1-0.1,0.2-0.1c0.1,0,0.2,0.1,0.1,0.1C52.1,23,49,23.3,48.2,23.3z"/>
	</g>
	<g id="XMLID_252_">
		<path id="XMLID_254_" class="st0" d="M69.4,23.3c-0.7,0-1.8-0.1-3-0.5c-0.8-0.3-1.4-1-1.8-2.1c-0.3-0.8-0.3-1.6-0.3-1.6
			c0-0.1,0.1-0.2,0.2-0.2s0.2,0.1,0.2,0.2c0,0,0.2,2.9,1.9,3.5c1.8,0.6,3.6,0.4,3.6,0.4s0.2,0.1,0.2,0.2s-0.1,0.1-0.2,0.1
			C70.1,23.3,69.9,23.3,69.4,23.3z"/>
	</g>
	<g id="XMLID_250_">
		<path id="XMLID_251_" class="st0" d="M53.6,19L53.6,19c-0.9-0.1-5.3-0.2-5.3-0.2s-0.2-0.1-0.2-0.2s0.1-0.1,0.2-0.1
			c0.2,0,4.5,0.1,5.3,0.2c0.1,0,0.2,0.1,0.2,0.1C53.7,19,53.6,19,53.6,19z"/>
	</g>
	<g id="XMLID_248_">
		<path id="XMLID_249_" class="st0" d="M58.8,19.4L58.8,19.4l-4.2-0.1c-0.2,0-0.3-0.2-0.3-0.3s0.2-0.3,0.3-0.3l4.2,0.2
			c0.2,0,0.3,0.1,0.3,0.3S59,19.4,58.8,19.4z"/>
	</g>
	<g id="XMLID_246_">
		<path id="XMLID_247_" class="st0" d="M59,19.4c-0.1,0-0.2-0.1-0.2-0.2s0.1-0.1,0.2-0.1c0.5-0.1,3.3-0.4,3.6-0.3
			c0.1,0,0.2,0.1,0.1,0.1c0,0.1-0.1,0.1-0.2,0.1C62.4,19,60.3,19.2,59,19.4L59,19.4z"/>
	</g>
	<g id="XMLID_244_">
		<path id="XMLID_245_" class="st0" d="M69.9,19L69.9,19c-0.4,0-6.2,0-6.3,0l0,0c-0.1,0-0.2-0.1-0.2-0.1c0-0.1,0.1-0.1,0.2-0.1
			c0.2,0,5.8,0,6.3,0c0.1,0,0.2,0.1,0.2,0.1C70,19,70,19,69.9,19z"/>
	</g>
	<g id="XMLID_242_">
		<path id="XMLID_243_" class="st0" d="M54.4,20.4h-0.8c-0.1,0-0.1,0-0.1-0.1c0,0-0.1-0.1,0-0.1l0.2-1.6l0.3-2.2
			c0-0.1,0.1-0.1,0.2-0.1c0.1,0,0.2,0.1,0.2,0.1L54,18.6l-0.2,1.5h0.6c0-0.7,0.2-3.2,0.7-3.8c0.1-0.1,0.2-0.1,0.2,0
			c0,0.1,0.1,0.1,0,0.2c-0.4,0.5-0.6,2.9-0.7,3.7C54.5,20.3,54.5,20.4,54.4,20.4z"/>
	</g>
	<g id="XMLID_240_">
		<path id="XMLID_241_" class="st0" d="M63.6,20.6h-0.7c0,0-0.1,0-0.1-0.1l-0.2-0.1l-0.1-0.1v-1c0-0.4-0.4-2.1-0.6-2.8
			c0-0.1,0-0.1,0.1-0.1s0.2,0,0.2,0.1c0,0.1,0.6,2.4,0.6,2.9v0.9l0.1,0.1h0.5c0-0.4,0-1.8-0.2-2.2c-0.2-0.6-0.4-1.6-0.4-1.6
			c0-0.1,0-0.1,0.1-0.1s0.2,0,0.2,0.1c0,0,0.3,1,0.4,1.6S63.7,20.6,63.6,20.6C63.8,20.5,63.7,20.6,63.6,20.6z"/>
	</g>
	<g id="XMLID_238_">
		<path id="XMLID_239_" class="st0" d="M60.4,18C60.4,18,60.3,18,60.4,18c-0.1-0.1-0.1-0.1,0-0.1l0.7-0.2l-0.7-0.1
			c0,0-0.1,0-0.1-0.1c0,0,0-0.1,0.1-0.1l1.3,0.1c0,0,0.1,0,0.1,0.1c0,0,0,0.1-0.1,0.1L60.4,18L60.4,18z"/>
	</g>
	<g id="XMLID_220_">
		<ellipse id="XMLID_221_" cx="59.6" cy="17.7" rx="0.6" ry="0.7"/>
	</g>
</g>
<g class="st1">
	<path d="M16.6,109.3v-7.8h2.6c0.4,0,0.8,0,1.2,0.1c0.4,0.1,0.7,0.2,0.9,0.4c0.3,0.2,0.5,0.4,0.6,0.8c0.2,0.3,0.2,0.7,0.2,1.1
		s-0.1,0.8-0.2,1.1s-0.4,0.6-0.6,0.8s-0.6,0.4-0.9,0.5c-0.4,0.1-0.8,0.2-1.2,0.2H18v2.9L16.6,109.3L16.6,109.3z M18,105.3h1.1
		c1.2,0,1.7-0.5,1.7-1.4c0-0.5-0.1-0.8-0.4-1s-0.7-0.3-1.3-0.3H18C18,102.6,18,105.3,18,105.3z"/>
	<path d="M23,109.3l2.5-7.8h1.6l2.5,7.8h-1.5l-0.6-2.1h-2.6l-0.6,2.1H23z M25.6,105.1l-0.3,1h2l-0.3-1c-0.1-0.4-0.2-0.8-0.3-1.3
		c-0.1-0.4-0.2-0.9-0.3-1.3l0,0c-0.1,0.4-0.2,0.9-0.3,1.3C25.8,104.3,25.7,104.7,25.6,105.1z"/>
	<path d="M30.9,109.3v-7.8h2.6c0.4,0,0.8,0,1.1,0.1c0.4,0.1,0.7,0.2,0.9,0.4c0.3,0.2,0.5,0.4,0.6,0.7s0.2,0.7,0.2,1.1
		c0,0.6-0.1,1.1-0.4,1.5c-0.3,0.4-0.7,0.6-1.1,0.8l1.9,3.3h-1.6l-1.7-3.1h-1.2v3.1L30.9,109.3L30.9,109.3z M32.3,105.1h1.1
		c0.5,0,1-0.1,1.2-0.3c0.3-0.2,0.4-0.6,0.4-1c0-0.5-0.1-0.8-0.4-0.9c-0.3-0.2-0.7-0.3-1.2-0.3h-1.1V105.1z"/>
	<path d="M40,109.3v-6.7h-2.5v-1.2h6.4v1.2h-2.5v6.7H40z"/>
	<path d="M45.6,109.3v-7.8h5v1.2H47v2h3.1v1.2H47v2.3h3.8v1.2L45.6,109.3L45.6,109.3z"/>
	<path d="M55.2,109.4c-0.6,0-1.1-0.1-1.6-0.3c-0.5-0.2-1-0.5-1.3-0.9l0.8-0.9c0.3,0.3,0.6,0.5,1,0.6c0.4,0.2,0.8,0.2,1.2,0.2
		c0.5,0,0.8-0.1,1-0.3c0.2-0.2,0.4-0.4,0.4-0.7c0-0.2,0-0.3-0.1-0.4s-0.2-0.2-0.3-0.3c-0.1-0.1-0.3-0.2-0.4-0.2
		c-0.2-0.1-0.3-0.1-0.5-0.2l-1.1-0.5c-0.2-0.1-0.4-0.2-0.6-0.3c-0.2-0.1-0.4-0.3-0.5-0.4c-0.2-0.2-0.3-0.4-0.4-0.6
		c-0.1-0.2-0.1-0.5-0.1-0.8s0.1-0.6,0.2-0.9c0.1-0.3,0.3-0.5,0.6-0.7c0.2-0.2,0.5-0.4,0.9-0.5c0.3-0.1,0.7-0.2,1.1-0.2
		c0.5,0,0.9,0.1,1.4,0.3c0.4,0.2,0.8,0.4,1.1,0.7l-0.7,0.9c-0.3-0.2-0.5-0.4-0.8-0.5s-0.6-0.2-1-0.2s-0.7,0.1-0.9,0.2
		s-0.3,0.4-0.3,0.7c0,0.2,0,0.3,0.1,0.4s0.2,0.2,0.3,0.3s0.3,0.2,0.4,0.2c0.2,0.1,0.3,0.1,0.5,0.2l1,0.4c0.2,0.1,0.5,0.2,0.7,0.3
		s0.4,0.3,0.5,0.4s0.3,0.4,0.4,0.6c0.1,0.2,0.1,0.5,0.1,0.8s-0.1,0.6-0.2,0.9c-0.1,0.3-0.3,0.5-0.6,0.7s-0.6,0.4-0.9,0.5
		C56,109.4,55.6,109.4,55.2,109.4z"/>
	<path d="M67,109.3v-7.8h2.4c0.4,0,0.8,0,1.1,0.1c0.3,0.1,0.6,0.2,0.9,0.3s0.4,0.3,0.6,0.6c0.1,0.2,0.2,0.6,0.2,0.9
		c0,0.4-0.1,0.7-0.3,1c-0.2,0.3-0.6,0.5-1,0.7l0,0c0.6,0.1,1,0.3,1.3,0.6c0.3,0.3,0.5,0.7,0.5,1.3c0,0.4-0.1,0.7-0.2,1
		s-0.4,0.5-0.6,0.7c-0.3,0.2-0.6,0.3-0.9,0.4c-0.4,0.1-0.8,0.1-1.2,0.1H67V109.3z M68.4,104.7h0.9c0.6,0,0.9-0.1,1.2-0.3
		c0.2-0.2,0.4-0.5,0.4-0.8c0-0.4-0.1-0.6-0.4-0.8c-0.2-0.1-0.6-0.2-1.1-0.2h-0.9L68.4,104.7L68.4,104.7z M68.4,108.2h1.1
		c0.6,0,1-0.1,1.3-0.3s0.5-0.5,0.5-1c0-0.4-0.1-0.7-0.4-0.9s-0.7-0.3-1.3-0.3h-1.1L68.4,108.2L68.4,108.2z"/>
	<path d="M73.4,109.3l2.5-7.8h1.6l2.5,7.8h-1.5l-0.6-2.1h-2.6l-0.6,2.1H73.4z M76,105.1l-0.3,1h2l-0.3-1c-0.1-0.4-0.2-0.8-0.3-1.3
		c-0.1-0.4-0.2-0.9-0.3-1.3l0,0c-0.1,0.4-0.2,0.9-0.3,1.3C76.2,104.3,76.1,104.7,76,105.1z"/>
	<path d="M83.6,109.4c-0.2,0-0.4,0-0.7-0.1c-0.2,0-0.4-0.1-0.7-0.2c-0.2-0.1-0.4-0.2-0.6-0.4c-0.2-0.2-0.4-0.4-0.5-0.6l0.8-0.9
		c0.2,0.3,0.5,0.6,0.8,0.7c0.3,0.2,0.6,0.2,0.8,0.2c0.5,0,0.8-0.1,1.1-0.4c0.2-0.2,0.3-0.7,0.3-1.3v-4h-3.2v-1.2h4.6v5.3
		c0,0.4,0,0.7-0.1,1.1c-0.1,0.3-0.3,0.6-0.5,0.9c-0.2,0.2-0.5,0.4-0.9,0.6C84.6,109.4,84.1,109.4,83.6,109.4z"/>
	<path d="M87.8,109.3l2.5-7.8h1.6l2.5,7.8h-1.5l-0.6-2.1h-2.6l-0.6,2.1H87.8z M90.4,105.1l-0.3,1h2l-0.3-1c-0.1-0.4-0.2-0.8-0.3-1.3
		c-0.1-0.4-0.2-0.9-0.3-1.3l0,0c-0.1,0.4-0.2,0.9-0.3,1.3C90.6,104.3,90.5,104.7,90.4,105.1z"/>
	<path d="M98.4,109.4c-0.6,0-1.1-0.1-1.6-0.3c-0.5-0.2-1-0.5-1.3-0.9l0.8-0.9c0.3,0.3,0.6,0.5,1,0.6c0.4,0.2,0.8,0.2,1.2,0.2
		c0.5,0,0.8-0.1,1-0.3c0.2-0.2,0.4-0.4,0.4-0.7c0-0.2,0-0.3-0.1-0.4s-0.2-0.2-0.3-0.3s-0.3-0.2-0.4-0.2s-0.3-0.1-0.5-0.2l-1.1-0.5
		c-0.2-0.1-0.4-0.2-0.6-0.3s-0.4-0.3-0.5-0.4s-0.3-0.4-0.4-0.6s-0.1-0.5-0.1-0.8s0.1-0.6,0.2-0.9s0.3-0.5,0.6-0.7
		c0.2-0.2,0.5-0.4,0.9-0.5c0.3-0.1,0.7-0.2,1.1-0.2c0.5,0,0.9,0.1,1.4,0.3c0.4,0.2,0.8,0.4,1.1,0.7l-0.7,0.9
		c-0.3-0.2-0.5-0.4-0.8-0.5s-0.6-0.2-1-0.2s-0.7,0.1-0.9,0.2c-0.2,0.2-0.3,0.4-0.3,0.7c0,0.2,0,0.3,0.1,0.4s0.2,0.2,0.3,0.3
		s0.3,0.2,0.4,0.2c0.2,0.1,0.3,0.1,0.5,0.2l1,0.4c0.2,0.1,0.5,0.2,0.7,0.3s0.4,0.3,0.5,0.4c0.2,0.2,0.3,0.4,0.4,0.6s0.1,0.5,0.1,0.8
		s-0.1,0.6-0.2,0.9s-0.3,0.5-0.6,0.7s-0.6,0.4-0.9,0.5C99.2,109.4,98.8,109.4,98.4,109.4z"/>
</g>
</svg>
