<?xml version="1.0" encoding="utf-8"?>
<!-- Generator: Adobe Illustrator 24.3.0, SVG Export Plug-In . SVG Version: 6.00 Build 0)  -->
<svg version="1.1" id="Layer_1" xmlns="http://www.w3.org/2000/svg" xmlns:xlink="http://www.w3.org/1999/xlink" x="0px" y="0px"
	 viewBox="0 0 120 100" style="enable-background:new 0 0 120 100;" xml:space="preserve">
<style type="text/css">
	.st0{fill:#050505;}
	.st1{fill:#050606;}
	.st2{enable-background:new    ;}
</style>
<g id="XMLID_987_">
	<g id="XMLID_312_">
		<path id="XMLID_572_" class="st0" d="M39.8,72.8c-0.2,0-0.4-0.1-0.5-0.3l-0.4-0.7l-0.3,0.7c-0.1,0.2-0.3,0.3-0.5,0.3h-3.2
			c-0.2,0-0.4-0.1-0.5-0.3L34.3,72L34,72.6c-0.1,0.2-0.3,0.3-0.5,0.3h-3.4c-0.3,0-0.5-0.2-0.5-0.4l-0.1,0.2C29.4,72.9,29.2,73,29,73
			h-2.9c-0.2,0-0.3-0.1-0.4-0.2L25,72h-1.1c-0.4,0-4.2,0.4-6-2.1c-0.1-0.1-0.1-0.2-0.1-0.3v-8.2c-0.1-0.4-0.1-1.4,1.2-3
			c-0.1-0.8-0.5-3.9,0-7.2c0.5-3.7,1.6-17.1,1.5-19.2c-0.1-1.6-0.5-2-0.6-2.1c-0.2-0.1-0.2-0.2-0.2-0.4c-0.3-1.9-1.1-8.2-0.8-9.1
			c0.5-1.8,1.9-2.7,4-2.8c1.4-0.1,4.2-0.5,6.7-1c2.3-0.4,4.2-0.7,5-0.7c1.3,0,5.5-1.2,6.3-1.7c0.2-0.6,1.1-3.1,3.3-4.4
			c2.4-1.5,4.4-2.5,4.4-2.5c0.2-0.1,0.3-0.1,0.5,0c0.2,0,0.3,0,0.3,0.2c0,0,0.1,0.5,0.7,2.1c0.5,1.6,1.7,6.6,1.8,7.9
			c0.3,0.5,1,1.8,1.1,2.5c0.1,0.4,0,1,0,1.6c0,0.5-0.1,0.9,0,1.2c0,0.2,0.3,0.5,0.5,0.8s0.4,0.5,0.5,0.9c0,0.1,0.1,0.2,0.2,0.4
			c0.3,0.5,0.7,1.1,0.5,1.9c-0.1,0.2-0.1,0.4-0.3,0.5c0.5,0.4,1.2,1,1.2,1.9c0,0.5-0.2,0.9-0.5,1.3c0.9,0.8,2.6,2.4,2.7,3.6
			c0,0.2,0,0.3-0.1,0.4l-0.1,0.1c0.2,0,0.3,0.1,0.5,0.1c0.7,0.3,1.8,0.9,1.9,2.5l0.7,0.7c0.9,0,2.5,0.5,2.9,2.3v0.1v0.1
			c0.6-0.1,1.4,0,1.8,0.5c0.2,0.2,0.3,0.5,0.3,0.8c0.7,0.5,2.7,2.3,2.7,4.9c0.8,0.7,4.6,3.4,8.5,3.6c0.1,0,6.6,0.4,9.6,0.2
			c5.2-0.2,8.9,0.7,10.8,2.9c1.2,1.3,1.8,3,1.6,5.2l0.9,0.5c0.2,0.1,0.3,0.2,0.3,0.4l1,3.9c0,0.1,0,0.2,0,0.3l-0.6,1.5
			c0,0.1-0.1,0.2-0.2,0.2L99.4,66c-0.1,0-0.1,0.1-0.2,0.1L97.6,66l-0.3,0.7c-0.1,0.2-0.2,0.3-0.4,0.4l-3.1,1c-0.1,0-0.1,0-0.2,0
			h-0.9l-0.2,0.6c-0.1,0.2-0.2,0.3-0.3,0.3l-2.8,0.9c-0.1,0-0.1,0-0.2,0h-0.8l-2.5,1c-0.1,0-0.1,0-0.2,0h-1.2l-2.9,0.7l-1.1,0.3
			c0,0,0,0-0.1,0l-2.9,0.6c-0.3,0-0.5-0.1-0.6-0.4l-0.1-0.4l-0.4,0.6c-0.1,0.2-0.3,0.2-0.5,0.2h-2.8c-0.2,0-0.4-0.1-0.5-0.3
			l-0.3-0.5l0.1,0.3c-0.1,0.2-0.3,0.3-0.5,0.3h-2.5c-0.2,0-0.4-0.1-0.5-0.3l-0.1-0.4L68.7,72c-0.1,0.3-0.3,0.4-0.5,0.4L65,71.9
			c-0.2,0-0.3-0.1-0.4-0.2l-0.2-0.5L64,71.5c-0.1,0.1-0.3,0.1-0.4,0.1c-0.7-0.1-2.3-0.3-2.8-0.8s-0.4-1-0.3-1.5
			c-1.9-0.6-9.2-2.7-16.7-2.2c-0.1,1.1-0.2,2.9-0.5,3.5c-0.4,0.6-0.9,1.5-0.9,1.5c-0.2,0.2-0.3,0.3-0.4,0.3L39.8,72.8L39.8,72.8
			L39.8,72.8z M35.4,71.8h2.5l0.7-1.4c0.1-0.2,0.3-0.3,0.5-0.3s0.4,0.1,0.5,0.3l0.7,1.3l1.7-0.4c0.2-0.3,0.5-0.9,0.8-1.3
			c0.2-0.3,0.4-2,0.4-3.5c0-0.3,0.2-0.5,0.5-0.5c9-0.7,17.9,2.4,18,2.4c0.1,0.1,0.3,0.2,0.3,0.3c0.1,0.1,0.1,0.3,0,0.4
			c-0.2,0.3-0.2,0.8-0.1,0.9c0.2,0.3,1.1,0.5,2,0.6l0.7-0.6c-0.2,0,0,0,0,0c0.2,0,0.3,0.1,0.4,0.2l0.5,0.7l2.6,0.4l0.6-1
			c0.1-0.2,0.3-0.3,0.5-0.3s0.4,0.1,0.5,0.3l0.5,1H72l0.5-1c0.1-0.2,0.3-0.3,0.5-0.3s0.4,0.1,0.5,0.3l0.7,1.1h2.1l0.7-1.1
			c0.1-0.2,0.3-0.3,0.5-0.2c0.2,0,0.4,0.2,0.5,0.4l0.3,0.9l2.9-0.5l1.1-0.3l2.9-0.7h0.1h1.1l2.5-1c0.1,0,0.1,0,0.2,0h0.8l2.4-0.8
			l0.3-0.7c0.1-0.2,0.3-0.4,0.5-0.4h1.2l2.9-0.9l0.3-0.7c0.1-0.2,0.2-0.3,0.4-0.4l1.6-0.5l0.7-0.5l0.5-1.2l-0.9-3.5l-1-0.5
			c-0.2-0.1-0.3-0.3-0.3-0.5c0.2-1.9-0.2-3.5-1.3-4.7c-1.8-1.8-5.1-2.8-10-2.6c-3.1,0.1-9.4-0.2-9.7-0.2c-4.8-0.3-9.1-3.8-9.2-4
			c-0.1-0.1-0.2-0.3-0.2-0.5c0.2-2.7-2.5-4.4-2.5-4.4c-0.2-0.1-0.3-0.4-0.2-0.7c0.1-0.2,0.1-0.2,0.1-0.2c-0.1-0.1-0.7-0.1-1.4,0
			c-0.2,0-0.3,0-0.5-0.1c-0.1-0.1-0.2-0.3-0.2-0.4v-0.7c-0.5-1.6-2.1-1.5-2.2-1.5c-0.2,0-0.3-0.1-0.4-0.2l-0.9-1
			c-0.1-0.1-0.1-0.2-0.1-0.3c-0.3-2.1-2.3-1.9-2.5-1.9s-0.5-0.1-0.5-0.3c-0.1-0.2-0.1-0.5,0.1-0.5l0.7-0.7c-0.3-0.8-1.8-2.3-2.8-3
			c-0.1-0.1-0.2-0.3-0.2-0.5s0.1-0.3,0.3-0.4c0.3-0.2,0.7-0.5,0.7-0.8c0-0.5-0.9-1.2-1.4-1.4c-0.2-0.1-0.3-0.3-0.3-0.5
			s0.1-0.4,0.3-0.5s0.4-0.2,0.4-0.4c0.1-0.3-0.2-0.7-0.4-1c-0.1-0.2-0.2-0.4-0.3-0.5c-0.1-0.2-0.3-0.5-0.5-0.6
			c-0.3-0.4-0.5-0.8-0.7-1.2c-0.1-0.4,0-0.8,0-1.5c0-0.5,0.1-1,0-1.3c-0.1-0.4-0.7-1.6-1.1-2.2c0-0.1-0.1-0.1-0.1-0.2
			c-0.1-0.8-1.2-6.2-1.8-7.8c-0.3-0.7-0.5-1.2-0.5-1.6c-0.7,0.4-2.2,1.2-3.9,2.2c-2.2,1.4-3,4-3,4.1s0,0.1-0.1,0.2s-0.3,0.5-3.1,1.2
			c-0.7,0.2-3,0.8-4,0.8c-0.7,0-2.7,0.4-4.8,0.7c-2.5,0.5-5.5,0.9-6.8,1c-2.3,0.1-2.9,1.2-3,2c-0.1,0.5,0.4,4.7,0.8,8.6
			c0.3,0.3,0.8,1.1,0.9,2.8c0.1,2.1-0.9,15.7-1.5,19.4c-0.5,3.6,0,7.1,0,7.1c0,0.2,0,0.3-0.1,0.5c-1.2,1.3-1.1,2.1-1.1,2.2
			s0,0.1,0,0.2v8c1.6,1.9,5,1.6,5,1.6s0,0,0.1,0H26c0.2,0,0.3,0.1,0.4,0.2l0.7,0.8h2.3l0.8-1.5c0.1-0.2,0.4-0.3,0.5-0.2
			c0.2,0.1,0.4,0.3,0.4,0.5V72h2.6l0.7-1.2c0.1-0.2,0.3-0.3,0.5-0.3s0.4,0.1,0.5,0.3L35.4,71.8z"/>
	</g>
	<g id="XMLID_311_">
		<path id="XMLID_571_" class="st0" d="M21.5,29.9c-0.2,0-0.3-0.1-0.4-0.3c0-0.2,0.1-0.4,0.3-0.4s15.1-1.5,16.8-1.9
			c0.3-0.1,0.5-0.1,0.8-0.1c1.6-0.2,3.1-0.5,3.5-2.9L41.6,15c0-0.2,0.1-0.4,0.3-0.4s0.4,0.1,0.4,0.3l1,9.4v0.1
			c-0.5,3-2.6,3.2-4.1,3.4c-0.3,0-0.5,0.1-0.8,0.1C36.7,28.4,22.2,29.8,21.5,29.9L21.5,29.9z"/>
	</g>
	<g id="XMLID_310_">
		<path id="XMLID_570_" class="st0" d="M74,66.4c-2.3,0-4.2-0.2-5.4-0.4c-1.5-0.2-3.7-0.6-6.2-1c-3.3-0.7-7-1.3-10.2-1.7
			c-5.5-0.7-18.3-1.4-23.5-1.6c-5.4-0.2-8.6-2.2-8.7-2.3c-0.2-0.1-0.2-0.3-0.1-0.5s0.3-0.2,0.5-0.1c0,0,3.1,2,8.3,2.2
			c5.4,0.2,18.1,0.9,23.6,1.6c3.2,0.4,6.9,1.1,10.2,1.7c2.5,0.5,4.6,0.8,6.2,1c4.8,0.7,17.2,1.2,29.3-6.6c0.2-0.1,0.4-0.1,0.5,0.1
			s0.1,0.4-0.1,0.5C89.3,65.2,80.2,66.4,74,66.4z"/>
	</g>
	<g id="XMLID_309_">
		<path id="XMLID_569_" class="st0" d="M74.3,69.4c-2.7,0-5.5-0.3-7.8-0.7c-3.5-0.6-6.2-1.2-6.2-1.2c-5-1.4-11.1-1.9-23.2-1.9
			c-11.6,0-18.1-2.3-18.2-2.3c-0.2-0.1-0.3-0.3-0.2-0.5c0.1-0.2,0.3-0.3,0.5-0.2c2.2,0.8,8.8,2.3,17.9,2.3c12.2,0,18.3,0.6,23.4,1.9
			c0.1,0,10.7,2.6,17.4,1.6c0.2,0,12.7-1.4,21.3-7.1c0.2-0.1,0.4-0.1,0.5,0.1s0.1,0.4-0.1,0.5c-8.7,5.7-21.5,7.2-21.6,7.2
			C76.8,69.3,75.6,69.4,74.3,69.4z"/>
	</g>
	<g id="XMLID_308_">
		<path id="XMLID_154_" class="st0" d="M25,60.9c-0.1,0-0.1,0-0.2-0.1c-1.2-0.8-2.2-3.1-3-6.7c-0.6-2.9-1-5.6-1-6.5
			c-0.1-1.7,0.5-13.3,0.5-13.8c0-0.2,0.1-0.3,0.3-0.3c0.2,0,0.3,0.1,0.3,0.3c0,0.1-0.5,12-0.5,13.7c0.1,0.8,0.4,3.6,1,6.4
			c0.8,3.4,1.8,5.7,2.9,6.5c0.1,0.1,0.1,0.3,0.1,0.4C25.2,60.8,25.1,60.9,25,60.9z"/>
	</g>
	<g id="XMLID_307_">
		<path id="XMLID_493_" class="st0" d="M67.2,51.6L67.2,51.6c-0.2,0-0.2,0-0.2-0.1s0-0.1,0.1-0.1s0.3,0,0.4,0s0.1,0,0.1,0.1
			s0,0.1-0.1,0.1C67.3,51.6,67.3,51.6,67.2,51.6z M66.8,51.6L66.8,51.6c-0.1,0-0.2,0-0.4,0c-0.1,0-0.1-0.1-0.1-0.1
			c0-0.1,0.1-0.1,0.1-0.1c0.1,0,0.3,0,0.4,0C66.8,51.4,66.8,51.5,66.8,51.6L66.8,51.6z M67.8,51.5C67.7,51.5,67.7,51.5,67.8,51.5
			c-0.1-0.1-0.1-0.2,0-0.2h0.1c0.1,0,0.2-0.1,0.3-0.1c0,0,0.1,0,0.1,0.1s0,0.1-0.1,0.1S68,51.4,67.8,51.5L67.8,51.5L67.8,51.5z
			 M66,51.5L66,51.5c-0.1,0-0.2,0-0.4,0c-0.1,0-0.1-0.1-0.1-0.1c0-0.1,0.1-0.1,0.1-0.1c0.1,0,0.3,0,0.4,0
			C66.1,51.3,66.1,51.4,66,51.5C66.1,51.5,66.1,51.5,66,51.5z M68.4,51.4C68.4,51.4,68.3,51.4,68.4,51.4c-0.1-0.1-0.1-0.2,0-0.2h0.1
			c0.1,0,0.2,0,0.3,0c0,0,0.1,0,0.1,0.1s0,0.1-0.1,0.1S68.6,51.4,68.4,51.4L68.4,51.4L68.4,51.4z M65.4,51.4L65.4,51.4H65
			c-0.1,0-0.1-0.1-0.1-0.1c0-0.1,0.1-0.1,0.1-0.1h0.4C65.5,51.2,65.5,51.3,65.4,51.4C65.5,51.4,65.5,51.4,65.4,51.4z M64.7,51.3
			L64.7,51.3h-0.3c-0.1,0-0.1-0.1-0.1-0.1c0-0.1,0.1-0.1,0.1-0.1h0.4C64.7,51.2,64.8,51.2,64.7,51.3C64.8,51.3,64.7,51.3,64.7,51.3z
			 M69.1,51.2L69.1,51.2C69,51.2,69,51.1,69.1,51.2C69,51.1,69,51.1,69,51s0-0.1,0-0.2c0,0,0-0.1,0.1-0.1c0,0,0.1,0,0.1,0.1
			s0.1,0.2,0.1,0.3C69.2,51.1,69.2,51.1,69.1,51.2L69.1,51.2z M64,51.2L64,51.2h-0.4v-0.1c0-0.1,0.1-0.1,0.1-0.1h0.4
			C64.1,51.1,64.1,51.1,64,51.2C64.1,51.2,64.1,51.2,64,51.2z M63.3,51.1L63.3,51.1h-0.4c-0.1,0-0.1-0.1-0.1-0.1
			c0-0.1,0.1-0.1,0.1-0.1h0.4C63.4,51,63.4,51,63.3,51.1C63.4,51.1,63.4,51.1,63.3,51.1z M62.7,51.1L62.7,51.1h-0.4
			c-0.1,0-0.1-0.1-0.1-0.1c0-0.1,0.1-0.1,0.1-0.1h0.4C62.7,50.9,62.8,50.9,62.7,51.1C62.8,51,62.7,51.1,62.7,51.1z M62,51L62,51
			c-0.1,0-0.2,0-0.4-0.1c-0.1,0-0.1-0.1-0.1-0.1c0-0.1,0.1-0.1,0.1-0.1c0.1,0,0.3,0,0.4,0.1C62.1,50.8,62.1,50.8,62,51
			C62.1,50.9,62.1,51,62,51z M61.3,50.8L61.3,50.8l-0.4-0.1c-0.1,0-0.1-0.1-0.1-0.1c0-0.1,0.1-0.1,0.1-0.1l0.4,0.1
			C61.4,50.8,61.4,50.8,61.3,50.8C61.4,50.8,61.4,50.8,61.3,50.8z M60.7,50.8L60.7,50.8l-0.4-0.1c-0.1,0-0.1-0.1-0.1-0.1
			c0-0.1,0.1-0.1,0.1-0.1l0.4,0.1C60.7,50.6,60.8,50.7,60.7,50.8C60.8,50.8,60.7,50.8,60.7,50.8z M59.9,50.7l-0.4-0.1
			c-0.1,0-0.1-0.1-0.1-0.1l0.1-0.1l0.4,0.1V50.7L59.9,50.7z M68.9,50.6C68.9,50.6,68.8,50.6,68.9,50.6c-0.1-0.2-0.2-0.3-0.2-0.4
			v-0.1h0.1c0.1,0.1,0.1,0.2,0.2,0.3C69,50.6,69,50.6,68.9,50.6L68.9,50.6z M59.3,50.5L59.3,50.5l-0.4-0.1c-0.1,0-0.1-0.1-0.1-0.1
			c0-0.1,0.1-0.1,0.1-0.1l0.4,0.1C59.4,50.4,59.4,50.4,59.3,50.5C59.4,50.5,59.4,50.5,59.3,50.5z M58.6,50.4L58.6,50.4l-0.4-0.1
			c-0.1,0-0.1-0.1-0.1-0.1c0-0.1,0.1-0.1,0.1-0.1l0.4,0.1C58.7,50.2,58.7,50.3,58.6,50.4C58.7,50.4,58.6,50.4,58.6,50.4z M58,50.3
			L58,50.3l-0.4-0.1c-0.1,0-0.1-0.1-0.1-0.1l0.1-0.1l0.4,0.1C58,50.1,58.1,50.1,58,50.3C58.1,50.2,58,50.3,58,50.3z M57.2,50.1
			L57.2,50.1L56.9,50c-0.1,0-0.1-0.1-0.1-0.1c0-0.1,0.1-0.1,0.1-0.1l0.4,0.1C57.3,49.9,57.3,50,57.2,50.1
			C57.3,50.1,57.3,50.1,57.2,50.1z M68.6,50C68.5,50,68.5,50,68.6,50c-0.1-0.2-0.2-0.3-0.3-0.3v-0.1h0.1
			C68.5,49.7,68.5,49.8,68.6,50C68.7,49.9,68.7,49.9,68.6,50L68.6,50z M56.6,50L56.6,50l-0.4-0.1c-0.1,0-0.1-0.1-0.1-0.1
			c0-0.1,0.1-0.1,0.1-0.1l0.4,0.1C56.7,49.8,56.7,49.8,56.6,50C56.7,49.9,56.7,50,56.6,50z M55.9,49.8L55.9,49.8l-0.4-0.1
			c-0.1,0-0.1-0.1-0.1-0.1c0-0.1,0.1-0.1,0.1-0.1l0.4,0.1C56.1,49.6,56.1,49.7,55.9,49.8C56.1,49.8,55.9,49.8,55.9,49.8z M55.3,49.7
			L55.3,49.7l-0.4-0.1c-0.1,0-0.1-0.1-0.1-0.1c0-0.1,0.1-0.1,0.1-0.1l0.4,0.1C55.3,49.5,55.4,49.5,55.3,49.7
			C55.3,49.6,55.3,49.7,55.3,49.7z M54.6,49.5L54.6,49.5l-0.4-0.1c-0.1,0-0.1-0.1-0.1-0.1c0-0.1,0.1-0.1,0.1-0.1l0.4,0.1
			C54.7,49.5,54.7,49.5,54.6,49.5C54.7,49.5,54.7,49.5,54.6,49.5z M53.9,49.5L53.9,49.5l-0.4-0.1c-0.1,0-0.1-0.1-0.1-0.1
			c0-0.1,0.1-0.1,0.1-0.1l0.4,0.1C54,49.3,54,49.4,53.9,49.5C54,49.4,54,49.5,53.9,49.5z M53.3,49.3L53.3,49.3h-0.4
			c-0.1,0-0.1-0.1-0.1-0.1c0-0.1,0.1-0.1,0.1-0.1L53.3,49.3C53.4,49.2,53.4,49.2,53.3,49.3C53.4,49.3,53.3,49.3,53.3,49.3z
			 M52.6,49.2L52.6,49.2l-0.4-0.1c-0.1,0-0.1-0.1-0.1-0.1c0-0.1,0.1-0.1,0.1-0.1l0.4,0.1C52.6,49,52.7,49.1,52.6,49.2
			C52.6,49.1,52.6,49.2,52.6,49.2z M51.9,49L51.9,49h-0.3c-0.1,0-0.1-0.1-0.1-0.1c0-0.1,0.1-0.1,0.1-0.1L51.9,49
			C52,48.9,52,48.9,51.9,49C52,49,52,49,51.9,49z M51.2,48.9L51.2,48.9l-0.4-0.1l-0.1-0.1c0-0.1,0.1-0.1,0.1-0.1l0.4,0.1
			C51.3,48.7,51.3,48.8,51.2,48.9C51.3,48.8,51.3,48.9,51.2,48.9z M50.6,48.7L50.6,48.7l-0.4-0.1c-0.1,0-0.1-0.1-0.1-0.1l0.1-0.1
			l0.4,0.1C50.7,48.6,50.7,48.6,50.6,48.7C50.7,48.7,50.6,48.7,50.6,48.7z M49.9,48.6L49.9,48.6l-0.4-0.1c-0.1,0-0.1-0.1-0.1-0.1
			c0-0.1,0.1-0.1,0.1-0.1l0.4,0.1C49.9,48.4,50.1,48.5,49.9,48.6C49.9,48.5,49.9,48.6,49.9,48.6z M49.2,48.4L49.2,48.4l-0.3-0.1
			c-0.1,0-0.1,0-0.1-0.1l0.1-0.1l0.4,0.1C49.3,48.3,49.3,48.3,49.2,48.4C49.3,48.4,49.3,48.4,49.2,48.4z M48.6,48.3L48.6,48.3
			l-0.4-0.1c-0.1,0-0.1-0.1-0.1-0.1l0.1-0.1l0.4,0.1C48.7,48.2,48.7,48.2,48.6,48.3C48.7,48.2,48.7,48.3,48.6,48.3z M47.9,48.2
			L47.9,48.2l-0.4-0.1V48c0-0.1,0.1-0.1,0.1-0.1L48,48C48,48.1,48,48.1,47.9,48.2C48,48.2,47.9,48.2,47.9,48.2z M47.3,48.1
			L47.3,48.1L46.9,48l-0.1-0.1c0-0.1,0.1-0.1,0.1-0.1l0.4,0.1C47.3,47.9,47.4,47.9,47.3,48.1C47.4,48,47.3,48.1,47.3,48.1z
			 M46.5,47.9L46.5,47.9l-0.4-0.1L46,47.7c0-0.1,0.1-0.1,0.1-0.1l0.4,0.1C46.6,47.7,46.6,47.8,46.5,47.9
			C46.6,47.9,46.6,47.9,46.5,47.9z M45.9,47.8L45.9,47.8l-0.4-0.1l-0.1-0.1l0.1-0.1l0.4,0.1C46,47.6,46,47.6,45.9,47.8
			C46,47.7,46,47.8,45.9,47.8z M45.2,47.6L45.2,47.6l-0.4-0.1c-0.1,0-0.1-0.1-0.1-0.1c0-0.1,0.1-0.1,0.1-0.1l0.4,0.1
			C45.3,47.4,45.3,47.5,45.2,47.6C45.3,47.6,45.2,47.6,45.2,47.6z M44.6,47.5L44.6,47.5l-0.4-0.1c-0.1,0-0.1-0.1-0.1-0.1l0.1-0.1
			l0.4,0.1C44.6,47.3,44.7,47.3,44.6,47.5C44.7,47.4,44.6,47.5,44.6,47.5z M43.9,47.3L43.9,47.3l-0.4-0.1l-0.1-0.1l0.1-0.1l0.4,0.1
			C43.9,47.1,44,47.2,43.9,47.3L43.9,47.3z M43.2,47.2L43.2,47.2l-0.4-0.1L42.7,47c0-0.1,0.1-0.1,0.1-0.1l0.4,0.1
			C43.3,47,43.3,47,43.2,47.2C43.3,47.1,43.3,47.2,43.2,47.2z M42.6,47L42.6,47h-0.4l-0.1-0.1c0-0.1,0.1-0.1,0.1-0.1L42.6,47
			C42.7,46.9,42.7,47,42.6,47C42.7,47,42.6,47,42.6,47z M41.9,46.9L41.9,46.9l-0.4-0.1l-0.1-0.1c0-0.1,0.1-0.1,0.1-0.1l0.4,0.1
			C41.9,46.8,42,46.8,41.9,46.9C42,46.9,41.9,46.9,41.9,46.9z M41.3,46.8C41.2,46.8,41.2,46.8,41.3,46.8l-0.4-0.1
			c-0.1,0-0.1-0.1-0.1-0.1l0.1-0.1l0.4,0.1C41.3,46.6,41.4,46.7,41.3,46.8L41.3,46.8z M40.5,46.6L40.5,46.6l-0.4-0.1L40,46.4
			l0.1-0.1L40.5,46.6C40.6,46.5,40.6,46.5,40.5,46.6C40.6,46.6,40.6,46.6,40.5,46.6z M39.9,46.5L39.9,46.5l-0.4-0.1
			c-0.1,0-0.1-0.1-0.1-0.1l0.1-0.1l0.4,0.1C40,46.3,40,46.4,39.9,46.5C40,46.5,39.9,46.5,39.9,46.5z M39.2,46.3L39.2,46.3l-0.4-0.1
			l-0.1-0.1l0.1-0.1l0.4,0.1C39.3,46.2,39.3,46.2,39.2,46.3C39.3,46.3,39.2,46.3,39.2,46.3z M38.6,46.2
			C38.6,46.2,38.5,46.2,38.6,46.2l-0.4-0.1L38.1,46l0.1-0.1l0.4,0.1C38.6,46,38.7,46.1,38.6,46.2C38.6,46.1,38.6,46.2,38.6,46.2z
			 M37.9,46L37.9,46h-0.4l-0.1-0.2c0-0.1,0.1-0.1,0.1-0.1l0.4,0.1C37.9,45.9,37.9,45.9,37.9,46L37.9,46z M37.2,45.9L37.2,45.9
			l-0.4-0.1l-0.1-0.1c0-0.1,0.1-0.1,0.1-0.1l0.4,0.1C37.3,45.8,37.3,45.8,37.2,45.9C37.3,45.8,37.3,45.9,37.2,45.9z M36.6,45.8
			L36.6,45.8l-0.4-0.1l-0.1-0.1c0-0.1,0.1-0.1,0.1-0.1l0.4,0.1C36.7,45.6,36.7,45.7,36.6,45.8C36.7,45.8,36.6,45.8,36.6,45.8z
			 M35.9,45.7L35.9,45.7l-0.4-0.1l-0.1-0.1c0-0.1,0.1-0.1,0.1-0.1l0.4,0.1C35.9,45.5,36,45.5,35.9,45.7
			C35.9,45.6,35.9,45.7,35.9,45.7z M35.2,45.5L35.2,45.5l-0.4-0.1l-0.1-0.1c0-0.1,0.1-0.1,0.1-0.1l0.4,0.1
			C35.3,45.3,35.3,45.4,35.2,45.5C35.3,45.5,35.3,45.5,35.2,45.5z M34.5,45.3L34.5,45.3l-0.4-0.1L34,45.1l0.1-0.1l0.4,0.1
			C34.6,45.2,34.6,45.2,34.5,45.3C34.6,45.3,34.6,45.3,34.5,45.3z M33.9,45.2L33.9,45.2l-0.4-0.1L33.4,45l0.1-0.1l0.4,0.1
			C34,45,34,45.1,33.9,45.2C34,45.2,33.9,45.2,33.9,45.2z M33.2,45L33.2,45l-0.4-0.1l-0.1-0.1l0.1-0.1l0.4,0.1
			C33.2,44.9,33.3,44.9,33.2,45C33.3,45,33.2,45,33.2,45z M32.5,44.9L32.5,44.9l-0.3-0.1l-0.1-0.1l0.1-0.1l0.4,0.1
			C32.6,44.7,32.7,44.8,32.5,44.9C32.6,44.9,32.6,44.9,32.5,44.9z M31.9,44.7L31.9,44.7l-0.4-0.1l-0.1,0l0.1-0.1l0.4,0.1
			C31.9,44.7,31.9,44.7,31.9,44.7L31.9,44.7z M31.2,44.7L31.2,44.7l-0.4-0.1l-0.1-0.1l0.1-0.1l0.4,0.1
			C31.3,44.5,31.3,44.5,31.2,44.7C31.3,44.6,31.2,44.7,31.2,44.7z M30.6,44.5L30.6,44.5l-0.4-0.1l-0.1-0.1l0.1-0.1l0.4,0.1
			C30.6,44.3,30.7,44.4,30.6,44.5C30.7,44.5,30.6,44.5,30.6,44.5z M29.9,44.4C29.8,44.4,29.8,44.4,29.9,44.4l-0.4-0.1l-0.1-0.1
			l0.1-0.1l0.4,0.1C29.9,44.2,30,44.2,29.9,44.4C29.9,44.3,29.9,44.4,29.9,44.4z M29.2,44.2L29.2,44.2l-0.4-0.1L28.7,44
			c0-0.1,0.1-0.1,0.1-0.1l0.4,0.1C29.3,44,29.3,44.1,29.2,44.2C29.3,44.2,29.3,44.2,29.2,44.2z M28.5,44L28.5,44l-0.4-0.1L28,43.8
			c0-0.1,0.1-0.1,0.1-0.1l0.4,0.1C28.6,43.9,28.6,43.9,28.5,44C28.6,44,28.6,44,28.5,44z M27.9,43.9L27.9,43.9l-0.4-0.1l-0.1-0.1
			c0-0.1,0.1-0.1,0.1-0.1l0.4,0.1C28,43.7,28,43.8,27.9,43.9C28,43.9,27.9,43.9,27.9,43.9z M27.2,43.7L27.2,43.7h-0.4l-0.1-0.1
			l0.1-0.1L27.2,43.7C27.2,43.6,27.3,43.6,27.2,43.7L27.2,43.7z M26.5,43.6L26.5,43.6l-0.4-0.1L26,43.4c0-0.1,0.1-0.1,0.1-0.1
			l0.4,0.1C26.6,43.5,26.6,43.5,26.5,43.6C26.6,43.5,26.6,43.6,26.5,43.6z M25.9,43.5L25.9,43.5l-0.4-0.1l-0.1-0.1l0.1-0.1l0.4,0.1
			C25.9,43.4,25.9,43.4,25.9,43.5L25.9,43.5z M25.2,43.4L25.2,43.4l-0.4-0.1l-0.1-0.1l0.1-0.1l0.4,0.1
			C25.3,43.2,25.3,43.2,25.2,43.4C25.3,43.3,25.2,43.4,25.2,43.4z M24.6,43.2L24.6,43.2l-0.4-0.1L24.1,43l0.1-0.1l0.4,0.1
			C24.6,43,24.6,43.1,24.6,43.2L24.6,43.2z M23.8,43.1L23.8,43.1L23.4,43v-0.1c0-0.1,0.1-0.1,0.1-0.1l0.4,0.1
			C23.9,42.9,23.9,42.9,23.8,43.1C23.9,43,23.9,43.1,23.8,43.1z M23.2,42.9L23.2,42.9l-0.4-0.1l-0.1-0.1l0.1-0.1l0.4,0.1
			C23.3,42.7,23.3,42.8,23.2,42.9C23.3,42.9,23.3,42.9,23.2,42.9z M22.5,42.7L22.5,42.7l-0.4-0.1L22,42.5l0.1-0.1l0.4,0.1
			C22.6,42.6,22.6,42.6,22.5,42.7C22.6,42.7,22.5,42.7,22.5,42.7z M21.9,42.6L21.9,42.6l-0.4-0.1l-0.1-0.1l0.1-0.1l0.4,0.1
			C21.9,42.4,22,42.5,21.9,42.6C21.9,42.5,21.9,42.6,21.9,42.6z"/>
	</g>
	<g id="XMLID_306_">
		<path id="XMLID_420_" class="st0" d="M68.1,52.6L68.1,52.6c-0.1,0-0.2,0-0.4,0c-0.1,0-0.1,0-0.1-0.1s0-0.1,0.1-0.1s0.2,0,0.3,0
			l0,0C68.1,52.4,68.1,52.4,68.1,52.6C68.1,52.5,68.1,52.6,68.1,52.6z M68.4,52.5C68.4,52.5,68.3,52.5,68.4,52.5
			c-0.1-0.1-0.1-0.2,0-0.2s0.2-0.1,0.3-0.1h0.1v0.1C68.7,52.5,68.6,52.5,68.4,52.5L68.4,52.5z M67.4,52.5L67.4,52.5
			c-0.1,0-0.3,0-0.4,0s-0.1-0.1-0.1-0.1c0-0.1,0.1-0.1,0.1-0.1c0.1,0,0.2,0,0.4,0C67.5,52.3,67.5,52.4,67.4,52.5
			C67.5,52.5,67.4,52.5,67.4,52.5z M66.8,52.4L66.8,52.4h-0.4c-0.1,0-0.1-0.1-0.1-0.1c0-0.1,0.1-0.1,0.1-0.1h0.4
			C66.8,52.2,66.8,52.3,66.8,52.4L66.8,52.4z M66,52.3L66,52.3c-0.1,0-0.3,0-0.4,0s-0.1-0.1-0.1-0.1c0-0.1,0.1-0.1,0.1-0.1
			c0.1,0,0.2,0,0.4,0C66.1,52.1,66.1,52.2,66,52.3C66.1,52.3,66.1,52.3,66,52.3z M65.4,52.2L65.4,52.2c-0.1,0-0.3,0-0.4,0
			s-0.1,0-0.1-0.1S65,52,65,52c0.1,0,0.2,0,0.4,0C65.5,52.1,65.5,52.1,65.4,52.2C65.5,52.2,65.4,52.2,65.4,52.2z M69,52.2L69,52.2
			c-0.1-0.1-0.1-0.1-0.1-0.2l0,0H69V52.2C69.1,52.1,69.1,52.1,69,52.2C69.1,52.2,69.1,52.2,69,52.2z M64.7,52.2L64.7,52.2
			c-0.1,0-0.2,0-0.4,0c-0.1,0-0.1,0-0.1-0.1s0-0.1,0.1-0.1s0.2,0,0.4,0C64.7,52,64.8,52,64.7,52.2C64.8,52.1,64.7,52.2,64.7,52.2z
			 M64,52.1L64,52.1c-0.1,0-0.2,0-0.4,0V52c0-0.1,0.1-0.1,0.1-0.1c0.1,0,0.3,0,0.4,0C64.1,52,64.1,52,64,52.1
			C64.1,52.1,64.1,52.1,64,52.1z M63.3,52L63.3,52c-0.1,0-0.3,0-0.4-0.1c-0.1,0-0.1-0.1-0.1-0.1c0-0.1,0.1-0.1,0.1-0.1
			c0.1,0,0.3,0,0.4,0.1C63.4,51.9,63.4,52,63.3,52C63.4,52,63.3,52,63.3,52z M62.7,52C62.7,52,62.6,52,62.7,52l-0.4-0.1
			c-0.1,0-0.1-0.1-0.1-0.1c0-0.1,0.1-0.1,0.1-0.1l0.4,0.1C62.7,51.8,62.8,51.8,62.7,52L62.7,52z M62,51.8L62,51.8l-0.4-0.1
			c-0.1,0-0.1-0.1-0.1-0.1c0-0.1,0.1-0.1,0.1-0.1l0.4,0.1C62.1,51.7,62.1,51.8,62,51.8C62.1,51.8,62.1,51.8,62,51.8z M61.3,51.8
			L61.3,51.8l-0.4-0.1c-0.1,0-0.1-0.1-0.1-0.1c0-0.1,0.1-0.1,0.1-0.1l0.4,0.1C61.4,51.6,61.4,51.6,61.3,51.8
			C61.4,51.7,61.3,51.8,61.3,51.8z M60.7,51.6L60.7,51.6l-0.4-0.1c-0.1,0-0.1-0.1-0.1-0.1c0-0.1,0.1-0.1,0.1-0.1l0.4,0.1
			C60.7,51.4,60.8,51.5,60.7,51.6C60.8,51.6,60.7,51.6,60.7,51.6z M59.9,51.5L59.9,51.5l-0.4-0.1c-0.1,0-0.1-0.1-0.1-0.1
			c0-0.1,0.1-0.1,0.1-0.1l0.4,0.1C60,51.3,60,51.4,59.9,51.5C60,51.4,60,51.5,59.9,51.5z M59.3,51.3L59.3,51.3l-0.4-0.1
			c-0.1,0-0.1-0.1-0.1-0.1c0-0.1,0.1-0.1,0.1-0.1l0.4,0.1C59.4,51.2,59.4,51.2,59.3,51.3C59.4,51.3,59.4,51.3,59.3,51.3z M58.6,51.2
			L58.6,51.2l-0.4-0.1c-0.1,0-0.1-0.1-0.1-0.1c0-0.1,0.1-0.1,0.1-0.1l0.4,0.1C58.7,51,58.7,51.1,58.6,51.2
			C58.7,51.2,58.6,51.2,58.6,51.2z M58,51.1L58,51.1L57.6,51c-0.1,0-0.1-0.1-0.1-0.1c0-0.1,0.1-0.1,0.1-0.1l0.4,0.1
			C58,50.9,58.1,50.9,58,51.1C58,51,58,51.1,58,51.1z M57.2,50.9L57.2,50.9l-0.4-0.1c-0.1,0-0.1-0.1-0.1-0.1c0-0.1,0.1-0.1,0.1-0.1
			l0.4,0.1C57.3,50.8,57.3,50.8,57.2,50.9C57.3,50.9,57.3,50.9,57.2,50.9z M56.6,50.8L56.6,50.8l-0.4-0.1c-0.1,0-0.1-0.1-0.1-0.1
			c0-0.1,0.1-0.1,0.1-0.1l0.4,0.1C56.7,50.7,56.7,50.7,56.6,50.8C56.7,50.8,56.7,50.8,56.6,50.8z M55.9,50.7L55.9,50.7l-0.4-0.1
			c-0.1,0-0.1-0.1-0.1-0.1c0-0.1,0.1-0.1,0.1-0.1l0.4,0.1C56.1,50.5,56.1,50.6,55.9,50.7C56.1,50.7,55.9,50.7,55.9,50.7z M55.3,50.6
			C55.3,50.6,55.2,50.6,55.3,50.6l-0.4-0.1c-0.1,0-0.1-0.1-0.1-0.1c0-0.1,0.1-0.1,0.1-0.1l0.4,0.1C55.3,50.4,55.4,50.4,55.3,50.6
			C55.3,50.5,55.3,50.6,55.3,50.6z M54.6,50.4L54.6,50.4l-0.4-0.1c-0.1,0-0.1-0.1-0.1-0.1c0-0.1,0.1-0.1,0.1-0.1l0.4,0.1
			C54.7,50.2,54.7,50.3,54.6,50.4C54.7,50.4,54.7,50.4,54.6,50.4z M53.9,50.3L53.9,50.3l-0.4-0.1c-0.1,0-0.1-0.1-0.1-0.1l0.1-0.1
			l0.4,0.1C54,50.1,54,50.1,53.9,50.3C54,50.2,54,50.3,53.9,50.3z M53.3,50.1L53.3,50.1L52.9,50c-0.1,0-0.1-0.1-0.1-0.1
			c0-0.1,0.1-0.1,0.1-0.1l0.4,0.1C53.4,49.9,53.4,50,53.3,50.1C53.4,50.1,53.3,50.1,53.3,50.1z M52.6,50C52.6,50,52.5,50,52.6,50
			l-0.4-0.1l-0.1-0.1c0-0.1,0.1-0.1,0.1-0.1l0.4,0.1C52.6,49.8,52.7,49.8,52.6,50C52.6,49.9,52.6,50,52.6,50z M51.9,49.8L51.9,49.8
			l-0.3-0.1l-0.1-0.1c0-0.1,0.1-0.1,0.1-0.1l0.4,0.1C52,49.6,52,49.7,51.9,49.8C52,49.8,52,49.8,51.9,49.8z M51.2,49.7L51.2,49.7
			l-0.4-0.1c-0.1,0-0.1-0.1-0.1-0.1c0-0.1,0.1-0.1,0.1-0.1l0.4,0.1C51.3,49.5,51.3,49.5,51.2,49.7C51.3,49.6,51.3,49.7,51.2,49.7z
			 M50.6,49.5L50.6,49.5l-0.4-0.1c-0.1,0-0.1-0.1-0.1-0.1l0.1-0.1l0.4,0.1C50.7,49.4,50.7,49.5,50.6,49.5
			C50.7,49.5,50.6,49.5,50.6,49.5z M49.9,49.5L49.9,49.5l-0.4-0.1c-0.1,0-0.1-0.1-0.1-0.1l0.1-0.1l0.4,0.1
			C49.9,49.3,50.1,49.3,49.9,49.5C49.9,49.4,49.9,49.5,49.9,49.5z M49.2,49.3L49.2,49.3l-0.4-0.1c-0.1,0-0.1-0.1-0.1-0.1l0.1-0.1
			l0.4,0.1C49.3,49.1,49.3,49.2,49.2,49.3C49.3,49.3,49.3,49.3,49.2,49.3z M48.6,49.2L48.6,49.2l-0.4-0.1L48.1,49
			c0-0.1,0.1-0.1,0.1-0.1l0.4,0.1C48.7,49,48.7,49,48.6,49.2C48.7,49.1,48.7,49.2,48.6,49.2z M47.9,49L47.9,49l-0.4-0.1l-0.1-0.1
			c0-0.1,0.1-0.1,0.1-0.1l0.4,0.1C48,48.8,48,48.9,47.9,49C48,49,47.9,49,47.9,49z M47.3,48.9L47.3,48.9l-0.4-0.1l-0.1-0.1
			c0-0.1,0.1-0.1,0.1-0.1l0.4,0.1C47.3,48.7,47.4,48.7,47.3,48.9C47.3,48.8,47.3,48.9,47.3,48.9z M46.5,48.7L46.5,48.7l-0.4-0.1
			c-0.1,0-0.1-0.1-0.1-0.1c0-0.1,0.1-0.1,0.1-0.1l0.4,0.1C46.6,48.5,46.6,48.6,46.5,48.7C46.6,48.7,46.6,48.7,46.5,48.7z M45.9,48.6
			L45.9,48.6l-0.4-0.1l-0.1-0.1c0-0.1,0.1-0.1,0.1-0.1l0.4,0.1C46,48.4,46,48.4,45.9,48.6C46,48.5,46,48.6,45.9,48.6z M45.2,48.4
			L45.2,48.4l-0.4-0.1l-0.1-0.1l0.1-0.1l0.4,0.1C45.3,48.2,45.3,48.3,45.2,48.4C45.3,48.4,45.2,48.4,45.2,48.4z M44.6,48.3
			C44.6,48.3,44.6,48.2,44.6,48.3l-0.4-0.1l-0.1-0.1c0-0.1,0.1-0.1,0.1-0.1l0.4,0.1C44.6,48.2,44.7,48.2,44.6,48.3
			C44.7,48.2,44.6,48.3,44.6,48.3z M43.9,48.2L43.9,48.2l-0.4-0.1L43.4,48c0-0.1,0.1-0.1,0.1-0.1l0.4,0.1
			C43.9,48,43.9,48.1,43.9,48.2L43.9,48.2z M43.2,48L43.2,48l-0.4-0.1l-0.1-0.1c0-0.1,0.1-0.1,0.1-0.1l0.4,0.1
			C43.3,47.9,43.3,47.9,43.2,48C43.3,48,43.3,48,43.2,48z M42.6,47.9L42.6,47.9l-0.4-0.1c-0.1,0-0.1-0.1-0.1-0.1l0.1-0.1l0.4,0.1
			C42.7,47.7,42.7,47.8,42.6,47.9C42.7,47.9,42.6,47.9,42.6,47.9z M41.9,47.7L41.9,47.7l-0.4-0.1l-0.1-0.1c0-0.1,0.1-0.1,0.1-0.1
			l0.4,0.1C41.9,47.6,42,47.6,41.9,47.7C42,47.7,41.9,47.7,41.9,47.7z M41.2,47.6L41.2,47.6l-0.4-0.1c-0.1,0-0.1-0.1-0.1-0.1
			c0-0.1,0.1-0.1,0.1-0.1l0.4,0.1C41.3,47.4,41.3,47.5,41.2,47.6C41.3,47.5,41.3,47.6,41.2,47.6z M40.5,47.4L40.5,47.4l-0.4-0.1
			L40,47.2l0.1-0.1l0.4,0.1C40.6,47.3,40.6,47.3,40.5,47.4C40.6,47.4,40.6,47.4,40.5,47.4z M39.9,47.3L39.9,47.3l-0.4-0.1h-0.1
			c0-0.1,0.1-0.1,0.1-0.1L39.9,47.3C40,47.1,40,47.1,39.9,47.3C40,47.2,39.9,47.3,39.9,47.3z M39.2,47.1L39.2,47.1L38.9,47h-0.1
			c0-0.1,0.1-0.1,0.1-0.1l0.4,0.1C39.2,47,39.3,47,39.2,47.1C39.3,47.1,39.2,47.1,39.2,47.1z M38.6,47C38.6,47,38.5,47,38.6,47h-0.4
			l-0.1-0.1c0-0.1,0.1-0.1,0.1-0.1L38.6,47C38.6,46.9,38.7,46.9,38.6,47L38.6,47z M37.9,46.9L37.9,46.9l-0.4-0.1l-0.1-0.1
			c0-0.1,0.1-0.1,0.1-0.1l0.4,0.1C37.9,46.7,37.9,46.8,37.9,46.9L37.9,46.9z M37.2,46.8C37.2,46.8,37.2,46.7,37.2,46.8l-0.4-0.1
			l-0.1-0.1c0.1-0.1,0.1-0.1,0.2-0.1l0.4,0.1C37.3,46.6,37.3,46.6,37.2,46.8C37.3,46.7,37.3,46.8,37.2,46.8z M36.6,46.6L36.6,46.6
			l-0.4-0.1l-0.1-0.1c0-0.1,0.1-0.1,0.1-0.1l0.4,0.1C36.7,46.4,36.7,46.5,36.6,46.6C36.7,46.6,36.6,46.6,36.6,46.6z M35.9,46.4
			L35.9,46.4l-0.4-0.1l-0.1-0.1c0-0.1,0.1-0.1,0.1-0.1l0.4,0.1C35.9,46.3,36,46.3,35.9,46.4L35.9,46.4z M35.2,46.3L35.2,46.3
			l-0.4-0.1l-0.1-0.1c0-0.1,0.1-0.1,0.1-0.1l0.4,0.1C35.3,46.1,35.3,46.2,35.2,46.3C35.3,46.3,35.3,46.3,35.2,46.3z M34.5,46.1
			L34.5,46.1L34.2,46h-0.1c0-0.1,0.1-0.1,0.1-0.1l0.4,0.1C34.6,46,34.6,46,34.5,46.1C34.6,46.1,34.6,46.1,34.5,46.1z M33.9,46
			L33.9,46h-0.4l-0.1-0.1l0.1-0.1L33.9,46C34,45.8,34,45.8,33.9,46C34,45.9,33.9,46,33.9,46z M33.2,45.8L33.2,45.8l-0.4-0.1
			l-0.1-0.1l0.1-0.1l0.4,0.1C33.2,45.7,33.3,45.8,33.2,45.8C33.3,45.8,33.2,45.8,33.2,45.8z M32.5,45.8L32.5,45.8l-0.3-0.1l-0.1-0.1
			l0.1-0.1l0.4,0.1C32.6,45.6,32.6,45.6,32.5,45.8C32.6,45.7,32.6,45.8,32.5,45.8z M31.9,45.6L31.9,45.6l-0.4-0.1l-0.1-0.1
			c0-0.1,0.1-0.1,0.1-0.1l0.4,0.1C31.9,45.4,31.9,45.5,31.9,45.6L31.9,45.6z M31.2,45.4L31.2,45.4l-0.4-0.1l-0.1-0.1l0.1-0.1
			l0.4,0.1C31.3,45.3,31.3,45.3,31.2,45.4C31.3,45.4,31.2,45.4,31.2,45.4z M30.6,45.3L30.6,45.3l-0.4-0.1l-0.1-0.1l0.1-0.1l0.4,0.1
			C30.6,45.1,30.7,45.2,30.6,45.3C30.7,45.3,30.6,45.3,30.6,45.3z M29.9,45.1C29.8,45.1,29.8,45.1,29.9,45.1L29.5,45l-0.1-0.1
			l0.1-0.1l0.4,0.1C29.9,45,30,45,29.9,45.1L29.9,45.1z M29.2,45L29.2,45l-0.4-0.1l-0.1-0.1l0.1-0.1l0.4,0.1
			C29.3,44.8,29.3,44.9,29.2,45C29.3,44.9,29.3,45,29.2,45z M28.5,44.8L28.5,44.8l-0.4-0.1L28,44.6l0.1-0.1l0.4,0.1
			C28.6,44.7,28.6,44.7,28.5,44.8C28.6,44.8,28.5,44.8,28.5,44.8z M27.9,44.7L27.9,44.7l-0.4-0.1l-0.1,0c0-0.1,0.1-0.1,0.1-0.1
			l0.4,0.1C28,44.6,28,44.6,27.9,44.7C28,44.7,27.9,44.7,27.9,44.7z M27.2,44.6L27.2,44.6l-0.4-0.1l-0.1-0.1c0-0.1,0.1-0.1,0.1-0.1
			l0.4,0.1C27.2,44.4,27.3,44.5,27.2,44.6L27.2,44.6z M26.5,44.4L26.5,44.4l-0.4-0.1L26,44.2l0.1-0.1l0.4,0.1
			C26.6,44.3,26.6,44.3,26.5,44.4C26.6,44.4,26.6,44.4,26.5,44.4z M25.9,44.3L25.9,44.3l-0.4-0.1l-0.1-0.1l0.1-0.1l0.4,0.1
			C25.9,44.1,25.9,44.2,25.9,44.3L25.9,44.3z M25.2,44.1L25.2,44.1h-0.4L24.7,44c0-0.1,0.1-0.1,0.1-0.1L25.2,44.1
			C25.3,44,25.3,44,25.2,44.1C25.3,44.1,25.2,44.1,25.2,44.1z M24.6,44L24.6,44l-0.4-0.1l-0.1-0.1c0-0.1,0.1-0.1,0.1-0.1l0.4,0.1
			C24.6,43.8,24.6,43.9,24.6,44C24.6,43.9,24.6,44,24.6,44z M23.8,43.8L23.8,43.8l-0.3-0.1l-0.1-0.1c0-0.1,0.1-0.1,0.1-0.1l0.4,0.1
			C23.9,43.6,23.9,43.7,23.8,43.8C23.9,43.8,23.9,43.8,23.8,43.8z M23.2,43.7L23.2,43.7l-0.4-0.1l-0.1-0.1c0-0.1,0.1-0.1,0.1-0.1
			l0.4,0.1C23.3,43.5,23.3,43.5,23.2,43.7C23.3,43.6,23.3,43.7,23.2,43.7z M22.5,43.5L22.5,43.5l-0.4-0.1L22,43.3
			c0-0.1,0.1-0.1,0.1-0.1l0.4,0.1C22.6,43.4,22.6,43.5,22.5,43.5C22.6,43.5,22.5,43.5,22.5,43.5z M21.9,43.4L21.9,43.4l-0.4-0.1
			l-0.1-0.1l0.1-0.1l0.4,0.1C21.9,43.3,22,43.3,21.9,43.4L21.9,43.4z"/>
	</g>
	<g id="XMLID_305_">
		<path id="XMLID_346_" class="st0" d="M66.6,53.2c-0.1,0-0.2,0-0.3,0s-0.1,0-0.1-0.1s0-0.1,0.1-0.1s0.2,0,0.3,0h0.1l0,0
			c0.1,0,0.1,0,0.1,0.1S66.7,53.2,66.6,53.2L66.6,53.2z M67,53.2C66.9,53.2,66.9,53.2,67,53.2c-0.1-0.1-0.1-0.2,0-0.2s0.2,0,0.4,0
			c0,0,0.1,0,0.1,0.1s0,0.1-0.1,0.1C67.2,53.2,67.1,53.2,67,53.2L67,53.2z M66,53.2L66,53.2c-0.1,0-0.3,0-0.4,0s-0.1,0-0.1-0.1
			s0-0.1,0.1-0.1s0.2,0,0.4,0C66,53,66.1,53,66,53.2C66.1,53.2,66,53.2,66,53.2z M65.3,53.2L65.3,53.2c-0.1,0-0.3,0-0.4,0
			s-0.1-0.1-0.1-0.1c0-0.1,0.1-0.1,0.1-0.1c0.1,0,0.2,0,0.4,0C65.4,53,65.4,53,65.3,53.2C65.4,53.2,65.4,53.2,65.3,53.2z M67.7,53.2
			C67.7,53.2,67.6,53.2,67.7,53.2c-0.1-0.1-0.1-0.2,0-0.2s0.2,0,0.4,0c0,0,0.1,0,0.1,0.1s0,0.1-0.1,0.1S67.8,53.2,67.7,53.2
			L67.7,53.2z M64.6,53.2L64.6,53.2c-0.1,0-0.3,0-0.4,0s-0.1-0.1-0.1-0.1c0-0.1,0.1-0.1,0.1-0.1c0.1,0,0.2,0,0.4,0
			C64.6,53,64.7,53,64.6,53.2C64.7,53,64.6,53.2,64.6,53.2z M68.3,53L68.3,53c-0.1-0.1-0.1-0.2,0-0.2s0.2-0.1,0.4-0.1
			c0.1,0,0.1,0,0.1,0.1s0,0.1-0.1,0.1C68.6,53,68.5,53,68.3,53C68.4,53,68.3,53,68.3,53z M64,53C63.9,53,63.9,53,64,53
			c-0.1,0-0.3,0-0.4-0.1c-0.1,0-0.1-0.1-0.1-0.1c0-0.1,0.1-0.1,0.1-0.1c0.1,0,0.2,0,0.4,0.1C64,52.9,64.1,52.9,64,53L64,53z
			 M63.2,52.9L63.2,52.9c-0.1,0-0.3,0-0.4-0.1c-0.1,0-0.1-0.1-0.1-0.1c0-0.1,0.1-0.1,0.1-0.1c0.1,0,0.2,0,0.4,0.1
			C63.3,52.8,63.3,52.8,63.2,52.9C63.3,52.9,63.3,52.9,63.2,52.9z M69.1,52.9C69,52.9,69,52.9,69.1,52.9c-0.1-0.1-0.1-0.2,0-0.2
			s0.2-0.1,0.3-0.1l0,0v0.1C69.2,52.8,69.2,52.9,69.1,52.9L69.1,52.9z M62.6,52.8L62.6,52.8c-0.1,0-0.3,0-0.4-0.1
			c-0.1,0-0.1-0.1-0.1-0.1c0-0.1,0.1-0.1,0.1-0.1c0.1,0,0.2,0,0.4,0.1C62.7,52.6,62.7,52.7,62.6,52.8C62.7,52.8,62.6,52.8,62.6,52.8
			z M62,52.7L62,52.7c-0.1,0-0.3-0.1-0.4-0.1l-0.1-0.1l0.1-0.1c0.1,0,0.2,0.1,0.4,0.1C62,52.5,62.1,52.5,62,52.7
			C62,52.6,62,52.7,62,52.7z M69.6,52.6L69.6,52.6c-0.1-0.1-0.1-0.1-0.1-0.2l0,0h0.1C69.7,52.5,69.7,52.5,69.6,52.6L69.6,52.6
			L69.6,52.6z M61.2,52.5L61.2,52.5c-0.1,0-0.3-0.1-0.4-0.1l-0.1-0.1l0.1-0.1c0.1,0,0.2,0.1,0.4,0.1C61.3,52.3,61.3,52.4,61.2,52.5
			C61.3,52.5,61.3,52.5,61.2,52.5z M60.6,52.3L60.6,52.3c-0.2,0-0.3-0.1-0.4-0.1l-0.1-0.1l0.1-0.1c0.1,0,0.2,0.1,0.4,0.1
			C60.7,52.2,60.7,52.2,60.6,52.3C60.7,52.3,60.7,52.3,60.6,52.3z M59.9,52.2C59.9,52.2,59.9,52.1,59.9,52.2c-0.2,0-0.3-0.1-0.4-0.1
			V52l0.1-0.1c0.1,0,0.2,0.1,0.4,0.1C60,52,60,52,59.9,52.2C60,52.1,59.9,52.2,59.9,52.2z M59.3,52L59.3,52h-0.4
			c-0.1,0-0.1-0.1-0.1-0.1l0.1-0.1L59.3,52C59.4,51.8,59.4,51.8,59.3,52C59.4,52,59.3,52,59.3,52z M58.6,51.8L58.6,51.8l-0.4-0.1
			c-0.1,0-0.1-0.1-0.1-0.1l0.1-0.1l0.4,0.1C58.6,51.7,58.7,51.8,58.6,51.8L58.6,51.8z M57.9,51.8L57.9,51.8l-0.4-0.1
			c-0.1,0-0.1-0.1-0.1-0.1l0.1-0.1l0.4,0.1C58,51.6,58,51.6,57.9,51.8C58,51.7,58,51.8,57.9,51.8z M57.2,51.6L57.2,51.6l-0.4-0.1
			c-0.1,0-0.1-0.1-0.1-0.1l0.1-0.1l0.4,0.1C57.3,51.4,57.3,51.5,57.2,51.6C57.3,51.6,57.3,51.6,57.2,51.6z M56.6,51.5L56.6,51.5
			l-0.4-0.1c-0.1,0-0.1-0.1-0.1-0.1l0.1-0.1l0.4,0.1C56.7,51.3,56.7,51.3,56.6,51.5C56.7,51.4,56.6,51.5,56.6,51.5z M55.9,51.3
			L55.9,51.3l-0.4-0.1l-0.1-0.1l0.1-0.1l0.4,0.1C55.9,51.1,56.1,51.2,55.9,51.3C56.1,51.3,55.9,51.3,55.9,51.3z M55.2,51.2
			L55.2,51.2l-0.3-0.1V51l0.1-0.1l0.4,0.1C55.3,51,55.3,51,55.2,51.2C55.3,51.1,55.3,51.2,55.2,51.2z M54.6,51L54.6,51l-0.4-0.1
			l-0.1-0.1c0-0.1,0.1-0.1,0.1-0.1l0.4,0.1C54.7,50.8,54.7,50.9,54.6,51C54.7,51,54.7,51,54.6,51z M53.9,50.9L53.9,50.9l-0.4-0.1
			c-0.1,0-0.1-0.1-0.1-0.1l0.1-0.1l0.4,0.1C54,50.8,54,50.8,53.9,50.9C54,50.8,53.9,50.9,53.9,50.9z M53.3,50.8L53.3,50.8l-0.4-0.1
			l-0.1-0.1l0.1-0.1l0.4,0.1C53.3,50.6,53.4,50.7,53.3,50.8C53.4,50.8,53.3,50.8,53.3,50.8z M52.6,50.7
			C52.5,50.7,52.5,50.7,52.6,50.7l-0.4-0.1l-0.1-0.1l0.1-0.1l0.4,0.1C52.6,50.5,52.7,50.5,52.6,50.7C52.6,50.6,52.6,50.7,52.6,50.7z
			 M51.9,50.5L51.9,50.5l-0.4-0.1c-0.1,0-0.1-0.1-0.1-0.1l0.1-0.1l0.4,0.1C52,50.3,52,50.4,51.9,50.5C52,50.5,52,50.5,51.9,50.5z
			 M51.2,50.4L51.2,50.4l-0.4-0.1l-0.1-0.1l0.1-0.1l0.4,0.1C51.3,50.2,51.3,50.2,51.2,50.4C51.3,50.3,51.2,50.4,51.2,50.4z
			 M50.6,50.2L50.6,50.2l-0.4-0.1L50.1,50l0.1-0.1l0.4,0.1C50.6,50,50.7,50.1,50.6,50.2C50.7,50.2,50.6,50.2,50.6,50.2z M49.9,50.1
			L49.9,50.1L49.6,50c-0.1,0-0.1-0.1-0.1-0.1l0.1-0.1l0.4,0.1C49.9,49.9,50.1,49.9,49.9,50.1C49.9,50,49.9,50.1,49.9,50.1z
			 M49.2,49.9L49.2,49.9l-0.4-0.1l-0.1-0.1l0.1-0.1l0.4,0.1C49.3,49.7,49.3,49.8,49.2,49.9C49.3,49.9,49.3,49.9,49.2,49.9z
			 M48.6,49.7L48.6,49.7l-0.4-0.1l-0.1-0.1l0.1-0.1l0.4,0.1C48.7,49.6,48.7,49.6,48.6,49.7C48.7,49.7,48.7,49.7,48.6,49.7z
			 M47.9,49.6L47.9,49.6l-0.4-0.1c-0.1,0-0.1-0.1-0.1-0.1l0.1-0.1l0.4,0.1C48,49.5,48,49.5,47.9,49.6C48,49.6,47.9,49.6,47.9,49.6z
			 M47.3,49.5C47.3,49.5,47.2,49.5,47.3,49.5l-0.4-0.1c-0.1,0-0.1-0.1-0.1-0.1l0.1-0.1l0.4,0.1C47.3,49.4,47.4,49.4,47.3,49.5
			L47.3,49.5z M46.5,49.4L46.5,49.4l-0.3-0.1l-0.1-0.1l0.1-0.1l0.4,0.1C46.6,49.2,46.6,49.3,46.5,49.4
			C46.6,49.4,46.6,49.4,46.5,49.4z M45.9,49.2L45.9,49.2l-0.4-0.1c-0.1,0-0.1-0.1-0.1-0.1l0.1-0.1l0.4,0.1
			C46,49.1,46,49.1,45.9,49.2C46,49.2,46,49.2,45.9,49.2z M45.2,49.1L45.2,49.1L44.9,49l-0.1-0.1l0.1-0.1l0.4,0.1
			C45.3,48.9,45.3,49,45.2,49.1C45.3,49.1,45.2,49.1,45.2,49.1z M44.6,48.9L44.6,48.9h-0.4l-0.1-0.1l0.1-0.1L44.6,48.9
			C44.6,48.8,44.7,48.8,44.6,48.9L44.6,48.9z M43.9,48.8L43.9,48.8l-0.4-0.1l-0.1-0.1c0-0.1,0.1-0.1,0.1-0.1l0.4,0.1
			C43.9,48.6,43.9,48.7,43.9,48.8L43.9,48.8z M43.2,48.6L43.2,48.6l-0.4-0.1c-0.1,0-0.1-0.1-0.1-0.1l0.1-0.1l0.4,0.1
			C43.3,48.5,43.3,48.5,43.2,48.6C43.3,48.6,43.3,48.6,43.2,48.6z M42.6,48.5L42.6,48.5l-0.4-0.1c-0.1,0-0.1-0.1-0.1-0.1l0.1-0.1
			l0.4,0.1C42.7,48.3,42.7,48.4,42.6,48.5C42.7,48.5,42.6,48.5,42.6,48.5z M41.9,48.3L41.9,48.3h-0.4l-0.1-0.1l0.1-0.1L41.9,48.3
			C41.9,48.2,42,48.2,41.9,48.3C42,48.3,41.9,48.3,41.9,48.3z M41.2,48.2L41.2,48.2l-0.4-0.1c-0.1,0-0.1-0.1-0.1-0.1l0.1-0.1
			l0.4,0.1C41.3,48.1,41.3,48.2,41.2,48.2C41.3,48.2,41.3,48.2,41.2,48.2z M40.5,48.1L40.5,48.1L40.2,48l-0.1-0.1l0.1-0.1l0.4,0.1
			C40.6,48,40.6,48,40.5,48.1C40.6,48.1,40.6,48.1,40.5,48.1z M39.9,48L39.9,48l-0.4-0.1l-0.1-0.1l0.1-0.1l0.4,0.1
			C40,47.8,40,47.9,39.9,48C40,48,39.9,48,39.9,48z M39.2,47.8L39.2,47.8l-0.4-0.1c-0.1,0-0.1-0.1-0.1-0.1l0.1-0.1l0.4,0.1
			C39.2,47.7,39.3,47.7,39.2,47.8C39.3,47.8,39.2,47.8,39.2,47.8z M38.6,47.7C38.5,47.7,38.5,47.7,38.6,47.7l-0.4-0.1l-0.1-0.1
			l0.1-0.1l0.4,0.1C38.6,47.5,38.7,47.6,38.6,47.7C38.6,47.6,38.6,47.7,38.6,47.7z M37.9,47.5L37.9,47.5l-0.4-0.1
			c-0.1,0-0.1-0.1-0.1-0.1l0.1-0.1l0.4,0.1C37.9,47.4,37.9,47.4,37.9,47.5L37.9,47.5z M37.2,47.4L37.2,47.4l-0.4-0.1
			c-0.1,0-0.1-0.1-0.1-0.1c0-0.1,0.1-0.1,0.1-0.1l0.4,0.1C37.3,47.2,37.3,47.3,37.2,47.4C37.3,47.3,37.2,47.4,37.2,47.4z M36.6,47.2
			L36.6,47.2l-0.4-0.1c-0.1,0-0.1-0.1-0.1-0.1l0.1-0.1l0.4,0.1C36.6,47.1,36.7,47.1,36.6,47.2C36.7,47.2,36.6,47.2,36.6,47.2z
			 M35.9,47.1C35.8,47.1,35.8,47.1,35.9,47.1L35.6,47h-0.1c0-0.1,0.1-0.1,0.1-0.1L35.9,47.1C35.9,47,36,47,35.9,47.1
			C35.9,47,35.9,47.1,35.9,47.1z M35.2,47L35.2,47l-0.4-0.1c-0.1,0-0.1-0.1-0.1-0.1c0-0.1,0.1-0.1,0.1-0.1l0.4,0.1
			C35.3,46.8,35.3,46.9,35.2,47C35.3,47,35.3,47,35.2,47z M34.5,46.9L34.5,46.9l-0.4-0.1L34,46.7l0.1-0.1l0.4,0.1
			C34.6,46.7,34.6,46.7,34.5,46.9C34.6,46.8,34.6,46.9,34.5,46.9z M33.9,46.7L33.9,46.7l-0.4-0.1l-0.1-0.1l0.1-0.1l0.4,0.1
			C34,46.5,34,46.6,33.9,46.7C34,46.7,33.9,46.7,33.9,46.7z M33.2,46.6L33.2,46.6l-0.4-0.1c-0.1,0-0.1-0.1-0.1-0.1l0.1-0.1l0.4,0.1
			C33.2,46.4,33.3,46.4,33.2,46.6C33.2,46.5,33.2,46.6,33.2,46.6z M32.5,46.4L32.5,46.4l-0.3-0.1l-0.1-0.1l0.1-0.1l0.4,0.1
			C32.6,46.2,32.6,46.3,32.5,46.4C32.6,46.4,32.6,46.4,32.5,46.4z M31.9,46.3L31.9,46.3l-0.4-0.1c-0.1,0-0.1-0.1-0.1-0.1l0.1-0.1
			l0.4,0.1C31.9,46.1,31.9,46.1,31.9,46.3C31.9,46.2,31.9,46.3,31.9,46.3z M31.2,46.1L31.2,46.1L30.8,46c-0.1,0-0.1-0.1-0.1-0.1
			l0.1-0.1l0.4,0.1C31.3,45.9,31.3,46,31.2,46.1C31.3,46.1,31.2,46.1,31.2,46.1z M30.6,46L30.6,46h-0.4l-0.1-0.1
			c0-0.1,0.1-0.1,0.1-0.1L30.6,46C30.6,45.8,30.7,45.8,30.6,46C30.6,45.9,30.6,46,30.6,46z M29.8,45.8L29.8,45.8h-0.4v-0.1l0.1-0.1
			l0.4,0.1C29.9,45.7,29.9,45.8,29.8,45.8C29.9,45.8,29.9,45.8,29.8,45.8z M29.2,45.8L29.2,45.8l-0.4-0.1c-0.1,0-0.1-0.1-0.1-0.1
			l0.1-0.1l0.4,0.1C29.3,45.6,29.3,45.6,29.2,45.8C29.3,45.7,29.3,45.8,29.2,45.8z M28.5,45.6L28.5,45.6l-0.4-0.1L28,45.4
			c0-0.1,0.1-0.1,0.1-0.1l0.4,0.1C28.6,45.4,28.6,45.5,28.5,45.6C28.6,45.6,28.5,45.6,28.5,45.6z M27.9,45.5L27.9,45.5l-0.4-0.1
			l-0.1-0.1l0.1-0.1l0.4,0.1C27.9,45.3,28,45.3,27.9,45.5C28,45.4,27.9,45.5,27.9,45.5z M27.2,45.3L27.2,45.3l-0.4-0.1
			c-0.1,0-0.1-0.1-0.1-0.1l0.1-0.1l0.4,0.1C27.2,45.1,27.2,45.2,27.2,45.3L27.2,45.3z M26.5,45.2L26.5,45.2l-0.4-0.1
			C26,45.1,26,45,26,45l0.1-0.1l0.4,0.1C26.6,45,26.6,45,26.5,45.2C26.6,45.1,26.6,45.2,26.5,45.2z M25.9,45L25.9,45l-0.4-0.1
			l-0.1-0.1l0.1-0.1l0.4,0.1C25.9,44.8,25.9,44.9,25.9,45L25.9,45z M25.2,44.9L25.2,44.9l-0.4-0.1c-0.1,0-0.1-0.1-0.1-0.1l0.1-0.1
			l0.4,0.1C25.2,44.7,25.3,44.7,25.2,44.9C25.3,44.8,25.2,44.9,25.2,44.9z M24.6,44.7C24.5,44.7,24.5,44.7,24.6,44.7l-0.4-0.1
			c-0.1,0-0.1-0.1-0.1-0.1l0.1-0.1l0.4,0.1C24.6,44.6,24.6,44.7,24.6,44.7L24.6,44.7z M23.8,44.7C23.8,44.7,23.8,44.6,23.8,44.7
			l-0.4-0.1v-0.1l0.1-0.1l0.4,0.1C23.9,44.5,23.9,44.5,23.8,44.7C23.9,44.6,23.9,44.7,23.8,44.7z M23.2,44.5L23.2,44.5l-0.4-0.1
			c-0.1,0-0.1-0.1-0.1-0.1l0.1-0.1l0.4,0.1C23.3,44.3,23.3,44.4,23.2,44.5C23.3,44.5,23.2,44.5,23.2,44.5z M22.5,44.3L22.5,44.3
			l-0.4-0.1L22,44.1l0.1-0.1l0.4,0.1C22.5,44.2,22.6,44.2,22.5,44.3C22.6,44.3,22.5,44.3,22.5,44.3z M21.9,44.2
			C21.8,44.2,21.8,44.2,21.9,44.2l-0.4-0.1c-0.1,0-0.1-0.1-0.1-0.1c0-0.1,0.1-0.1,0.1-0.1l0.4,0.1C21.9,44,22,44.1,21.9,44.2
			L21.9,44.2z"/>
	</g>
	<g id="XMLID_304_">
		<path id="XMLID_213_" class="st0" d="M65.2,54.1c-0.1,0-0.2,0-0.3,0s-0.1,0-0.1-0.1s0-0.1,0.1-0.1s0.2,0,0.3,0h0.1
			c0.1,0,0.1,0,0.1,0.1S65.4,54.1,65.2,54.1L65.2,54.1z M65.6,54.1L65.6,54.1c-0.1-0.1-0.1-0.2,0-0.2s0.2,0,0.4,0l0,0
			c0,0,0.1,0,0.1,0.1s0,0.1-0.1,0.1C65.8,54.1,65.7,54.1,65.6,54.1L65.6,54.1z M66.3,54.1C66.3,54.1,66.2,54.1,66.3,54.1
			c-0.1-0.1-0.1-0.2,0-0.2s0.2,0,0.4,0c0,0,0.1,0,0.1,0.1s0,0.1-0.1,0.1C66.6,54.1,66.4,54.1,66.3,54.1L66.3,54.1z M64.6,54.1
			L64.6,54.1c-0.1,0-0.3,0-0.4,0S64.1,54,64.1,54c0-0.1,0.1-0.1,0.1-0.1c0.1,0,0.2,0,0.4,0C64.6,53.9,64.7,54,64.6,54.1
			C64.7,54.1,64.6,54.1,64.6,54.1z M67,54.1C66.9,54.1,66.9,54,67,54.1c-0.1-0.1-0.1-0.2,0-0.2s0.2,0,0.4,0c0,0,0.1,0,0.1,0.1
			s0,0.1-0.1,0.1C67.2,54,67.1,54,67,54.1L67,54.1z M63.9,54L63.9,54c-0.1,0-0.3,0-0.4-0.1c-0.1,0-0.1-0.1-0.1-0.1
			c0-0.1,0.1-0.1,0.1-0.1c0.1,0,0.2,0,0.4,0.1C64,53.8,64,53.9,63.9,54C64,54,64,54,63.9,54z M67.7,54C67.6,54,67.6,53.9,67.7,54
			c-0.1-0.1-0.1-0.2,0-0.2s0.2,0,0.4-0.1c0,0,0.1,0,0.1,0.1s0,0.1-0.1,0.1C67.9,53.9,67.8,54,67.7,54L67.7,54z M63.2,53.9L63.2,53.9
			c-0.1,0-0.3,0-0.4-0.1c-0.1,0-0.1-0.1-0.1-0.1c0-0.1,0.1-0.1,0.1-0.1c0.1,0,0.2,0,0.4,0.1C63.3,53.7,63.3,53.8,63.2,53.9
			C63.3,53.9,63.2,53.9,63.2,53.9z M68.3,53.9C68.3,53.9,68.2,53.8,68.3,53.9c-0.1-0.1-0.1-0.2,0-0.2s0.2,0,0.4-0.1
			c0.1,0,0.1,0,0.1,0.1s0,0.1-0.1,0.1C68.6,53.8,68.5,53.8,68.3,53.9L68.3,53.9z M62.6,53.8L62.6,53.8c-0.1,0-0.3,0-0.4-0.1
			c-0.1,0-0.1-0.1-0.1-0.1c0-0.1,0.1-0.1,0.1-0.1c0.1,0,0.2,0,0.4,0.1C62.6,53.6,62.7,53.6,62.6,53.8C62.6,53.7,62.6,53.8,62.6,53.8
			z M69,53.7L69,53.7c-0.1-0.1-0.1-0.2,0-0.2s0.2-0.1,0.4-0.1c0,0,0.1,0,0.1,0.1c0,0,0,0.1-0.1,0.1C69.2,53.7,69.2,53.7,69,53.7
			C69.1,53.7,69.1,53.7,69,53.7z M61.9,53.6L61.9,53.6c-0.1,0-0.3-0.1-0.4-0.1s-0.1-0.1-0.1-0.1c0-0.1,0.1-0.1,0.1-0.1
			c0.1,0,0.2,0,0.4,0.1C62,53.5,62,53.5,61.9,53.6C62,53.6,62,53.6,61.9,53.6z M69.7,53.5C69.6,53.5,69.6,53.5,69.7,53.5
			c-0.1-0.1-0.1-0.2,0-0.2s0.2-0.1,0.3-0.1h0.1v0.1C69.9,53.4,69.8,53.5,69.7,53.5L69.7,53.5z M61.2,53.5L61.2,53.5
			c-0.1,0-0.3-0.1-0.4-0.1l-0.1-0.1c0-0.1,0.1-0.1,0.1-0.1c0.1,0,0.2,0.1,0.4,0.1C61.3,53.3,61.3,53.4,61.2,53.5
			C61.3,53.5,61.3,53.5,61.2,53.5z M60.6,53.3L60.6,53.3l-0.4-0.1l-0.1-0.1l0.1-0.1l0.4,0.1C60.7,53.2,60.7,53.2,60.6,53.3
			C60.7,53.3,60.6,53.3,60.6,53.3z M70.3,53.2L70.3,53.2c-0.1-0.1-0.1-0.1,0-0.2s0.2-0.1,0.3-0.2h0.1V53
			C70.5,53.2,70.5,53.2,70.3,53.2C70.4,53.2,70.3,53.2,70.3,53.2z M59.9,53.2L59.9,53.2l-0.4-0.1L59.4,53l0.1-0.1l0.4,0.1
			C59.9,53,60,53,59.9,53.2L59.9,53.2z M59.2,53L59.2,53h-0.3l-0.1-0.1l0.1-0.1l0.4,0.1C59.3,52.9,59.3,53,59.2,53
			C59.3,53,59.3,53,59.2,53z M58.5,52.9L58.5,52.9l-0.4-0.1L58,52.7l0.1-0.1l0.4,0.1C58.6,52.8,58.6,52.8,58.5,52.9
			C58.6,52.9,58.6,52.9,58.5,52.9z M70.8,52.9C70.8,52.9,70.8,52.8,70.8,52.9c-0.1-0.1-0.1-0.1-0.1-0.2c0.1-0.1,0.1-0.2,0.2-0.3
			c0,0,0.1-0.1,0.1,0c0,0,0.1,0.1,0,0.1C71,52.6,71,52.7,70.8,52.9C70.9,52.8,70.8,52.9,70.8,52.9z M57.9,52.8L57.9,52.8l-0.4-0.1
			l-0.1-0.1l0.1-0.1l0.4,0.1C58,52.6,58,52.6,57.9,52.8C58,52.7,57.9,52.8,57.9,52.8z M57.2,52.6L57.2,52.6l-0.4-0.1l-0.1-0.1
			l0.1-0.1l0.4,0.1C57.3,52.4,57.3,52.5,57.2,52.6C57.3,52.6,57.2,52.6,57.2,52.6z M56.6,52.4L56.6,52.4l-0.4-0.1l-0.1-0.1l0.1-0.1
			l0.4,0.1C56.6,52.2,56.7,52.3,56.6,52.4L56.6,52.4z M55.9,52.2L55.9,52.2l-0.4-0.1L55.4,52l0.1-0.1l0.4,0.1
			C55.9,52.1,55.9,52.1,55.9,52.2L55.9,52.2z M71.1,52.2L71.1,52.2C71,52.2,71,52.1,71.1,52.2L71,52c0-0.1,0-0.2,0-0.2
			c0-0.1,0-0.1,0.1-0.1s0.1,0,0.1,0.1S71.2,52,71.1,52.2C71.2,52,71.2,52.1,71.1,52.2C71.2,52.2,71.2,52.2,71.1,52.2z M55.2,52
			L55.2,52h-0.3l-0.1-0.1l0.1-0.1l0.4,0.1C55.3,52,55.3,52,55.2,52C55.3,52,55.3,52,55.2,52z M54.6,51.8L54.6,51.8l-0.4-0.1
			l-0.1-0.1l0.1-0.1l0.4,0.1C54.7,51.8,54.7,51.8,54.6,51.8C54.7,51.8,54.7,51.8,54.6,51.8z M53.9,51.8L53.9,51.8l-0.4-0.1l-0.1-0.1
			l0.1-0.1l0.4,0.1C54,51.6,54,51.6,53.9,51.8C54,51.7,53.9,51.8,53.9,51.8z M71,51.6C71,51.6,70.9,51.6,71,51.6
			c-0.1-0.2-0.2-0.3-0.3-0.4v-0.1h0.1c0.1,0.1,0.1,0.2,0.2,0.3C71.1,51.5,71.1,51.6,71,51.6L71,51.6z M53.3,51.6L53.3,51.6l-0.4-0.1
			l-0.1-0.1l0.1-0.1l0.4,0.1C53.3,51.4,53.4,51.4,53.3,51.6C53.4,51.5,53.3,51.6,53.3,51.6z M52.5,51.4L52.5,51.4l-0.4-0.1L52,51.2
			l0.1-0.1l0.4,0.1C52.6,51.2,52.7,51.3,52.5,51.4C52.6,51.4,52.6,51.4,52.5,51.4z M51.9,51.3L51.9,51.3l-0.4-0.1
			c-0.1,0-0.1-0.1-0.1-0.1c0-0.1,0.1-0.1,0.1-0.1l0.4,0.1C52,51.1,52,51.1,51.9,51.3C52,51.2,52,51.3,51.9,51.3z M51.2,51.1
			L51.2,51.1L50.9,51c-0.1,0-0.1-0.1-0.1-0.1l0.1-0.1l0.4,0.1C51.3,50.9,51.3,51,51.2,51.1C51.3,51.1,51.2,51.1,51.2,51.1z M50.6,51
			L50.6,51l-0.4-0.1c-0.1,0-0.1-0.1-0.1-0.1l0.1-0.1l0.4,0.1C50.6,50.8,50.7,50.8,50.6,51C50.7,50.9,50.6,51,50.6,51z M70.6,51
			C70.6,51,70.6,50.9,70.6,51c-0.1-0.1-0.2-0.2-0.3-0.3v-0.1h0.1C70.5,50.7,70.6,50.8,70.6,51C70.7,50.8,70.7,50.9,70.6,51
			C70.6,50.9,70.6,51,70.6,51z M49.9,50.8L49.9,50.8l-0.4-0.1c-0.1,0-0.1-0.1-0.1-0.1l0.1-0.1l0.4,0.1
			C49.9,50.7,50.1,50.8,49.9,50.8L49.9,50.8z M49.2,50.8L49.2,50.8l-0.4-0.1c-0.1,0-0.1-0.1-0.1-0.1l0.1-0.1l0.4,0.1
			C49.3,50.6,49.3,50.6,49.2,50.8C49.3,50.7,49.3,50.8,49.2,50.8z M48.6,50.6L48.6,50.6l-0.4-0.1l-0.1-0.1c0-0.1,0.1-0.1,0.1-0.1
			l0.4,0.1C48.7,50.4,48.7,50.5,48.6,50.6C48.7,50.6,48.7,50.6,48.6,50.6z M70.2,50.5L70.2,50.5c-0.1-0.1-0.2-0.2-0.3-0.3v-0.1H70
			C70.1,50.2,70.2,50.3,70.2,50.5C70.3,50.4,70.3,50.4,70.2,50.5C70.3,50.5,70.2,50.5,70.2,50.5z M47.9,50.5L47.9,50.5l-0.4-0.1
			c-0.1,0-0.1-0.1-0.1-0.1l0.1-0.1l0.4,0.1C48,50.3,48,50.3,47.9,50.5C48,50.4,47.9,50.5,47.9,50.5z M47.3,50.3
			C47.3,50.3,47.2,50.3,47.3,50.3l-0.4-0.1c-0.1,0-0.1-0.1-0.1-0.1c0-0.1,0.1-0.1,0.1-0.1l0.4,0.1C47.3,50.1,47.4,50.2,47.3,50.3
			L47.3,50.3z M46.5,50.2L46.5,50.2l-0.4-0.1C46,50.1,46,50,46,50l0.1-0.1l0.4,0.1C46.6,50,46.6,50,46.5,50.2
			C46.6,50.1,46.6,50.2,46.5,50.2z M45.9,50L45.9,50l-0.4-0.1c-0.1,0-0.1-0.1-0.1-0.1l0.1-0.1l0.4,0.1C46,49.8,46,49.9,45.9,50
			C46,50,46,50,45.9,50z M69.7,50C69.6,50,69.6,50,69.7,50c-0.1-0.1-0.2-0.2-0.3-0.3v-0.1h0.1c0.1,0.1,0.2,0.2,0.3,0.2
			C69.8,49.9,69.8,49.9,69.7,50L69.7,50z M45.2,49.9L45.2,49.9l-0.4-0.1c-0.1,0-0.1-0.1-0.1-0.1l0.1-0.1l0.4,0.1
			C45.3,49.7,45.3,49.7,45.2,49.9C45.3,49.8,45.2,49.9,45.2,49.9z M44.6,49.7L44.6,49.7l-0.4-0.1l-0.1-0.1c0-0.1,0.1-0.1,0.1-0.1
			l0.4,0.1C44.6,49.5,44.7,49.6,44.6,49.7L44.6,49.7z M43.9,49.6L43.9,49.6l-0.4-0.1h-0.1l0.1-0.1L43.9,49.6
			C43.9,49.5,43.9,49.5,43.9,49.6C43.9,49.5,43.9,49.6,43.9,49.6z M69.2,49.5L69.2,49.5L69,49.4v-0.1h0.1L69.2,49.5L69.2,49.5
			L69.2,49.5z M43.2,49.5L43.2,49.5l-0.4-0.1c-0.1,0-0.1-0.1-0.1-0.1c0-0.1,0.1-0.1,0.1-0.1l0.4,0.1C43.3,49.3,43.3,49.4,43.2,49.5
			C43.3,49.5,43.3,49.5,43.2,49.5z M42.6,49.4L42.6,49.4l-0.4-0.1c-0.1,0-0.1-0.1-0.1-0.1c0-0.1,0.1-0.1,0.1-0.1l0.4,0.1
			C42.7,49.2,42.7,49.2,42.6,49.4C42.7,49.3,42.6,49.4,42.6,49.4z M41.9,49.2L41.9,49.2l-0.4-0.1V49l0.1-0.1L42,49
			C41.9,49,42,49.1,41.9,49.2C42,49.2,41.9,49.2,41.9,49.2z M41.2,49L41.2,49l-0.4-0.1l-0.1-0.1l0.1-0.1l0.4,0.1
			C41.3,48.9,41.3,48.9,41.2,49C41.3,49,41.3,49,41.2,49z M40.5,48.9L40.5,48.9l-0.4-0.1L40,48.7l0.1-0.1l0.4,0.1
			C40.6,48.7,40.6,48.8,40.5,48.9C40.6,48.9,40.6,48.9,40.5,48.9z M39.9,48.7L39.9,48.7l-0.4-0.1l-0.1-0.1l0.1-0.1l0.4,0.1
			C40,48.6,40,48.6,39.9,48.7C40,48.7,39.9,48.7,39.9,48.7z M39.2,48.6L39.2,48.6l-0.4-0.1c-0.1,0-0.1-0.1-0.1-0.1l0.1-0.1l0.4,0.1
			C39.2,48.4,39.3,48.5,39.2,48.6C39.3,48.6,39.2,48.6,39.2,48.6z M38.6,48.4C38.5,48.4,38.5,48.4,38.6,48.4l-0.4-0.1
			c-0.1,0-0.1-0.1-0.1-0.1l0.1-0.1l0.4,0.1C38.6,48.3,38.7,48.3,38.6,48.4L38.6,48.4z M37.9,48.3L37.9,48.3l-0.4-0.1h-0.1
			c0-0.1,0.1-0.1,0.1-0.1L37.9,48.3C37.9,48.2,37.9,48.2,37.9,48.3L37.9,48.3z M37.2,48.2L37.2,48.2h-0.4l-0.1-0.1l0.1-0.1
			L37.2,48.2C37.3,48.1,37.3,48.1,37.2,48.2C37.3,48.2,37.2,48.2,37.2,48.2z M36.6,48.1L36.6,48.1L36.2,48c-0.1,0-0.1-0.1-0.1-0.1
			l0.1-0.1l0.4,0.1C36.6,47.9,36.7,48,36.6,48.1C36.7,48.1,36.6,48.1,36.6,48.1z M35.9,47.9C35.8,47.9,35.8,47.9,35.9,47.9l-0.4-0.1
			l-0.1-0.1l0.1-0.1l0.4,0.1C35.9,47.8,36,47.8,35.9,47.9L35.9,47.9z M35.2,47.8L35.2,47.8l-0.4-0.1l-0.1-0.1c0-0.1,0.1-0.1,0.1-0.1
			l0.4,0.1C35.3,47.6,35.3,47.7,35.2,47.8C35.3,47.8,35.3,47.8,35.2,47.8z M34.5,47.6L34.5,47.6l-0.4-0.1L34,47.4
			c0-0.1,0.1-0.1,0.1-0.1l0.4,0.1C34.6,47.5,34.6,47.5,34.5,47.6C34.6,47.6,34.6,47.6,34.5,47.6z M33.9,47.5L33.9,47.5l-0.4-0.1
			l-0.1-0.1l0.1-0.1l0.4,0.1C34,47.3,34,47.4,33.9,47.5C34,47.5,33.9,47.5,33.9,47.5z M33.2,47.3L33.2,47.3l-0.4-0.1
			c-0.1,0-0.1-0.1-0.1-0.1c0-0.1,0.1-0.1,0.1-0.1l0.4,0.1C33.2,47.2,33.3,47.2,33.2,47.3L33.2,47.3z M32.5,47.2L32.5,47.2l-0.3-0.1
			c-0.1,0-0.1-0.1-0.1-0.1c0-0.1,0.1-0.1,0.1-0.1l0.4,0.1C32.6,47,32.6,47.1,32.5,47.2C32.6,47.1,32.6,47.2,32.5,47.2z M31.9,47
			L31.9,47h-0.4c-0.1,0-0.1-0.1-0.1-0.1l0.1-0.1L31.9,47C31.9,47,31.9,47,31.9,47L31.9,47z M31.2,47L31.2,47l-0.4-0.1l-0.1-0.1
			c0-0.1,0.1-0.1,0.1-0.1l0.4,0.1C31.3,46.8,31.3,46.9,31.2,47C31.3,46.9,31.2,47,31.2,47z M30.6,46.8L30.6,46.8l-0.4-0.1l-0.1-0.1
			l0.1-0.1l0.4,0.1C30.6,46.7,30.7,46.7,30.6,46.8L30.6,46.8z M29.8,46.7L29.8,46.7l-0.4-0.1v-0.1l0.1-0.1l0.4,0.1
			C29.9,46.5,29.9,46.6,29.8,46.7C29.9,46.6,29.9,46.7,29.8,46.7z M29.2,46.5L29.2,46.5l-0.4-0.1l-0.1-0.1c0-0.1,0.1-0.1,0.1-0.1
			l0.4,0.1C29.3,46.4,29.3,46.4,29.2,46.5C29.3,46.5,29.3,46.5,29.2,46.5z M28.5,46.4L28.5,46.4l-0.4-0.1c-0.1,0-0.1-0.1-0.1-0.1
			c0-0.1,0.1-0.1,0.1-0.1l0.4,0.1C28.6,46.2,28.6,46.2,28.5,46.4C28.6,46.3,28.5,46.4,28.5,46.4z M27.9,46.2L27.9,46.2l-0.4-0.1
			c-0.1,0-0.1-0.1-0.1-0.1l0.1-0.1l0.4,0.1C27.9,46,28,46.1,27.9,46.2C28,46.2,27.9,46.2,27.9,46.2z M27.2,46.1L27.2,46.1L26.8,46
			c-0.1,0-0.1-0.1-0.1-0.1l0.1-0.1l0.4,0.1C27.2,45.9,27.2,45.9,27.2,46.1C27.2,46,27.2,46.1,27.2,46.1z M26.5,45.9L26.5,45.9
			l-0.4-0.1c-0.1,0-0.1-0.1-0.1-0.1l0.1-0.1l0.4,0.1C26.6,45.8,26.6,45.8,26.5,45.9C26.6,45.9,26.6,45.9,26.5,45.9z M25.9,45.8
			L25.9,45.8l-0.4-0.1h-0.1c0-0.1,0.1-0.1,0.1-0.1L25.9,45.8C25.9,45.7,25.9,45.7,25.9,45.8L25.9,45.8z M25.2,45.7L25.2,45.7
			l-0.4-0.1l-0.1-0.1l0.1-0.1l0.4,0.1C25.2,45.5,25.3,45.6,25.2,45.7C25.3,45.7,25.2,45.7,25.2,45.7z M24.6,45.6
			C24.5,45.6,24.5,45.6,24.6,45.6l-0.4-0.1l-0.1-0.1l0.1-0.1l0.4,0.1C24.6,45.4,24.6,45.4,24.6,45.6C24.6,45.5,24.6,45.6,24.6,45.6z
			 M23.8,45.4L23.8,45.4l-0.4-0.1c-0.1,0-0.1-0.1-0.1-0.1l0.1-0.1l0.4,0.1C23.9,45.2,23.9,45.3,23.8,45.4
			C23.9,45.4,23.9,45.4,23.8,45.4z M23.2,45.3L23.2,45.3l-0.4-0.1c-0.1,0-0.1-0.1-0.1-0.1l0.1-0.1l0.4,0.1
			C23.3,45.1,23.3,45.1,23.2,45.3C23.3,45.2,23.2,45.3,23.2,45.3z M22.5,45.1L22.5,45.1L22.2,45c-0.1,0-0.1-0.1-0.1-0.1l0.1-0.1
			l0.4,0.1C22.5,44.9,22.6,45,22.5,45.1C22.6,45.1,22.5,45.1,22.5,45.1z M21.9,45C21.8,45,21.8,45,21.9,45l-0.4-0.1
			c-0.1,0-0.1-0.1-0.1-0.1l0.1-0.1l0.4,0.1C21.9,44.8,22,44.8,21.9,45C21.9,44.9,21.9,45,21.9,45z"/>
	</g>
	<g id="XMLID_303_">
		<path id="XMLID_159_" class="st0" d="M21.5,30.6C21.4,30.6,21.4,30.6,21.5,30.6c-0.1-0.1-0.1-0.2,0-0.2h0.4c0.1,0,0.1,0,0.1,0.1
			s0,0.1-0.1,0.1H21.5L21.5,30.6z M22.2,30.5L22.2,30.5c-0.1-0.1-0.1-0.2,0-0.2h0.4c0.1,0,0.1,0,0.1,0.1s0,0.1-0.1,0.1H22.2
			L22.2,30.5z M22.9,30.4C22.8,30.4,22.8,30.4,22.9,30.4c-0.1-0.1-0.1-0.2,0-0.2h0.4c0.1,0,0.1,0,0.1,0.1s0,0.1-0.1,0.1H22.9
			L22.9,30.4z M23.5,30.4C23.5,30.4,23.4,30.3,23.5,30.4c-0.1-0.1-0.1-0.2,0-0.2h0.4c0,0,0.1,0,0.1,0.1s0,0.1-0.1,0.1H23.5
			L23.5,30.4z M24.3,30.3C24.2,30.3,24.2,30.3,24.3,30.3c-0.1-0.1-0.1-0.2,0-0.2h0.4c0.1,0,0.1,0,0.1,0.1s0,0.1-0.1,0.1H24.3
			L24.3,30.3z M24.9,30.2C24.8,30.2,24.8,30.2,24.9,30.2c-0.1-0.1-0.1-0.2,0-0.2h0.4c0.1,0,0.1,0,0.1,0.1s0,0.1-0.1,0.1H24.9
			L24.9,30.2z M25.6,30.2C25.6,30.2,25.5,30.1,25.6,30.2c-0.1-0.1-0.1-0.2,0-0.2H26c0.1,0,0.1,0,0.1,0.1s0,0.1-0.1,0.1H25.6
			L25.6,30.2z M26.3,30.1C26.2,30.1,26.2,30.1,26.3,30.1c-0.1-0.1-0.1-0.2,0-0.2h0.4c0.1,0,0.1,0,0.1,0.1s0,0.1-0.1,0.1H26.3
			L26.3,30.1z M27,30.1C27,30.1,26.9,30.1,27,30.1c-0.1-0.1-0.1-0.2,0-0.2h0.4c0.1,0,0.1,0,0.1,0.1s0,0.1-0.1,0.1H27L27,30.1z
			 M27.6,30L27.6,30C27.5,29.9,27.6,29.9,27.6,30l0.4-0.1c0.1,0,0.1,0,0.1,0.1s0,0.1-0.1,0.1L27.6,30L27.6,30z M28.4,30
			C28.3,30,28.3,29.9,28.4,30c-0.1-0.1-0.1-0.2,0-0.2h0.4c0.1,0,0.1,0,0.1,0.1s0,0.1-0.1,0.1H28.4L28.4,30z M29,29.9
			C29,29.9,28.9,29.9,29,29.9c-0.1-0.1-0.1-0.2,0-0.2h0.4c0.1,0,0.1,0,0.1,0.1s0,0.1-0.1,0.1H29L29,29.9z M29.6,29.8L29.6,29.8
			c-0.1-0.1-0.1-0.2,0-0.2H30c0.1,0,0.1,0,0.1,0.1s0,0.1-0.1,0.1H29.6C29.7,29.8,29.7,29.8,29.6,29.8z M30.4,29.7
			C30.3,29.7,30.3,29.7,30.4,29.7c-0.1-0.1-0.1-0.2,0-0.2h0.4c0.1,0,0.1,0,0.1,0.1s0,0.1-0.1,0.1H30.4L30.4,29.7z M31,29.7
			C31,29.7,30.9,29.6,31,29.7c-0.1-0.1-0.1-0.2,0-0.2h0.4c0,0,0.1,0,0.1,0.1s0,0.1-0.1,0.1H31L31,29.7z M31.8,29.6
			C31.7,29.6,31.7,29.6,31.8,29.6c-0.1-0.1-0.1-0.2,0-0.2h0.4c0.1,0,0.1,0,0.1,0.1s0,0.1-0.1,0.1H31.8L31.8,29.6z M32.4,29.5
			C32.3,29.5,32.3,29.5,32.4,29.5c-0.1-0.1-0.1-0.2,0-0.2h0.4c0.1,0,0.1,0,0.1,0.1s0,0.1-0.1,0.1H32.4L32.4,29.5z M33.1,29.4
			C33.1,29.4,33,29.4,33.1,29.4c-0.1-0.1-0.1-0.2,0-0.2h0.3c0.1,0,0.1,0,0.1,0.1s0,0.1-0.1,0.1H33.1L33.1,29.4z M33.8,29.4
			C33.7,29.4,33.7,29.3,33.8,29.4c-0.1-0.1-0.1-0.2,0-0.2h0.4c0,0,0.1,0,0.1,0.1s0,0.1-0.1,0.1H33.8L33.8,29.4z M34.4,29.3
			C34.4,29.3,34.4,29.2,34.4,29.3c-0.1-0.1-0.1-0.2,0-0.2h0.4c0,0,0.1,0,0.1,0.1s0,0.1-0.1,0.1H34.4L34.4,29.3z M35.1,29.2
			C35.1,29.2,35.1,29.1,35.1,29.2C35,29.1,35,29,35.1,29h0.4c0,0,0.1,0,0.1,0.1s0,0.1-0.1,0.1H35.1L35.1,29.2z M35.8,29.1
			C35.7,29.1,35.7,29.1,35.8,29.1c-0.1-0.1-0.1-0.2,0-0.2h0.4c0.1,0,0.1,0,0.1,0.1s0,0.1-0.1,0.1H35.8L35.8,29.1z M36.5,29
			C36.5,29,36.4,29,36.5,29c-0.1-0.1-0.1-0.2,0-0.2h0.4c0.1,0,0.1,0,0.1,0.1s0,0.1-0.1,0.1H36.5L36.5,29z M37.1,29L37.1,29
			c-0.1-0.1-0.1-0.2,0-0.2h0.4c0.1,0,0.1,0,0.1,0.1s0,0.1-0.1,0.1H37.1C37.2,29,37.1,29,37.1,29z M37.9,28.9
			C37.8,28.9,37.8,28.9,37.9,28.9c-0.1-0.1-0.1-0.2,0-0.2h0.4c0.1,0,0.1,0,0.1,0.1s0,0.1-0.1,0.1H37.9L37.9,28.9z M38.5,28.8
			C38.5,28.8,38.4,28.8,38.5,28.8c-0.1-0.1-0.1-0.2,0-0.2s0.2,0,0.4-0.1c0.1,0,0.1,0,0.1,0.1s0,0.1-0.1,0.1
			C38.8,28.8,38.7,28.8,38.5,28.8L38.5,28.8z M39.2,28.7L39.2,28.7c-0.1-0.1-0.1-0.2,0-0.2s0.3,0,0.4-0.1c0,0,0.1,0,0.1,0.1
			s0,0.1-0.1,0.1C39.4,28.7,39.3,28.7,39.2,28.7L39.2,28.7z M39.9,28.6C39.8,28.6,39.8,28.6,39.9,28.6c-0.1-0.1-0.1-0.2,0-0.2
			s0.3-0.1,0.4-0.1c0,0,0.1,0,0.1,0.1c0,0,0,0.1-0.1,0.1C40.2,28.5,40,28.6,39.9,28.6L39.9,28.6z M40.5,28.4
			C40.5,28.4,40.4,28.4,40.5,28.4c-0.1-0.1-0.1-0.2,0-0.2l0.3-0.1c0,0,0.1,0,0.1,0.1s0,0.1-0.1,0.1L40.5,28.4L40.5,28.4z M41.2,28.1
			C41.2,28.1,41.1,28.1,41.2,28.1c-0.1-0.1-0.1-0.2,0-0.2s0.2-0.1,0.3-0.1c0,0,0.1,0,0.1,0.1c0,0,0,0.1-0.1,0.1
			C41.5,28,41.3,28.1,41.2,28.1L41.2,28.1z M41.8,27.9C41.7,27.9,41.7,27.9,41.8,27.9c-0.1-0.1-0.1-0.2,0-0.2s0.2-0.1,0.3-0.2h0.1
			v0.1C42,27.9,41.9,27.9,41.8,27.9L41.8,27.9z M42.4,27.6L42.4,27.6c-0.1-0.1-0.1-0.1,0-0.2s0.2-0.1,0.3-0.2h0.1v0.1
			C42.7,27.5,42.6,27.5,42.4,27.6C42.5,27.6,42.5,27.6,42.4,27.6z M42.9,27.2L42.9,27.2c-0.1-0.1-0.1-0.1-0.1-0.2
			c0.1-0.1,0.2-0.2,0.3-0.3h0.1v0.1C43.2,27,43.1,27.1,42.9,27.2C43,27.2,42.9,27.2,42.9,27.2z M43.4,26.6L43.4,26.6
			C43.3,26.6,43.3,26.6,43.4,26.6c0-0.2,0-0.3,0.1-0.4c0,0,0.1-0.1,0.1,0c0,0,0.1,0.1,0,0.1C43.6,26.5,43.6,26.5,43.4,26.6
			C43.5,26.6,43.4,26.6,43.4,26.6z M43.8,26.1C43.7,26.1,43.7,26.1,43.8,26.1C43.7,26.1,43.7,26,43.8,26.1c-0.1-0.2,0-0.3,0-0.4
			l0.1-0.1l0.1,0.1C43.9,25.8,43.9,25.9,43.8,26.1L43.8,26.1z M43.9,25.5L43.9,25.5C43.9,25.5,43.9,25.4,43.9,25.5
			c-0.1-0.2-0.1-0.3,0-0.5c0-0.1,0.1-0.1,0.1-0.1c0.1,0,0.1,0.1,0.1,0.1C44,25.2,44,25.3,43.9,25.5C43.9,25.4,43.9,25.5,43.9,25.5z
			 M43.9,24.7L43.9,24.7L43.9,24.7L43.9,24.7c-0.1-0.2-0.1-0.3-0.1-0.4s0-0.1,0.1-0.1l0,0c0.1,0,0.1,0,0.1,0.1S44,24.5,43.9,24.7
			L43.9,24.7C44,24.7,44,24.7,43.9,24.7z M43.9,24.1L43.9,24.1c-0.1-0.2-0.1-0.3-0.1-0.5c0-0.1,0-0.1,0.1-0.1s0.1,0,0.1,0.1
			C44,23.8,44,23.9,43.9,24.1C44,24.1,44,24.1,43.9,24.1L43.9,24.1z M43.9,23.4C43.9,23.4,43.9,23.3,43.9,23.4
			c-0.1-0.2-0.1-0.3-0.1-0.5c0-0.1,0-0.1,0.1-0.1c0,0,0.1,0,0.1,0.1S44,23.1,43.9,23.4C44,23.3,44,23.4,43.9,23.4L43.9,23.4z
			 M43.9,22.7L43.9,22.7c-0.1-0.2-0.1-0.3-0.1-0.5c0-0.1,0-0.1,0.1-0.1s0.1,0,0.1,0.1C44,22.4,44,22.5,43.9,22.7
			C44,22.7,43.9,22.7,43.9,22.7L43.9,22.7z M43.9,22C43.9,22,43.8,21.9,43.9,22c-0.1-0.2-0.1-0.3-0.1-0.5c0-0.1,0-0.1,0.1-0.1
			c0,0,0.1,0,0.1,0.1C43.9,21.7,43.9,21.8,43.9,22C43.9,21.9,43.9,22,43.9,22L43.9,22z M43.9,21.3C43.8,21.3,43.8,21.3,43.9,21.3
			l-0.1-0.5c0-0.1,0-0.1,0.1-0.1s0.1,0,0.1,0.1L43.9,21.3L43.9,21.3L43.9,21.3z M43.8,20.6C43.8,20.6,43.7,20.6,43.8,20.6l-0.1-0.5
			c0-0.1,0-0.1,0.1-0.1s0.1,0,0.1,0.1L43.8,20.6C43.9,20.6,43.9,20.6,43.8,20.6L43.8,20.6z M43.7,20C43.7,20,43.7,19.9,43.7,20
			l-0.1-0.5c0-0.1,0-0.1,0.1-0.1s0.1,0,0.1,0.1L43.7,20C43.8,19.9,43.8,20,43.7,20C43.8,20,43.7,20,43.7,20z M43.7,19.3
			C43.6,19.3,43.6,19.3,43.7,19.3l-0.1-0.5c0-0.1,0-0.1,0.1-0.1s0.1,0,0.1,0.1L43.7,19.3C43.8,19.3,43.7,19.3,43.7,19.3L43.7,19.3z
			 M43.6,18.6C43.5,18.6,43.5,18.6,43.6,18.6l-0.1-0.5c0-0.1,0-0.1,0.1-0.1c0,0,0.1,0,0.1,0.1L43.6,18.6
			C43.7,18.5,43.7,18.6,43.6,18.6L43.6,18.6z M43.5,18C43.5,18,43.4,17.9,43.5,18l-0.1-0.4c0-0.1,0-0.1,0.1-0.1s0.1,0,0.1,0.1
			L43.5,18C43.6,17.9,43.6,17.9,43.5,18L43.5,18z M43.4,17.2C43.4,17.2,43.3,17.2,43.4,17.2l-0.1-0.4c0-0.1,0-0.1,0.1-0.1
			s0.1,0,0.1,0.1L43.4,17.2C43.5,17.2,43.5,17.2,43.4,17.2L43.4,17.2z M43.3,16.6C43.3,16.6,43.3,16.5,43.3,16.6l-0.1-0.4
			c0-0.1,0-0.1,0.1-0.1s0.1,0,0.1,0.1L43.3,16.6C43.4,16.5,43.4,16.6,43.3,16.6C43.4,16.6,43.3,16.6,43.3,16.6z M43.3,15.8
			C43.2,15.8,43.2,15.8,43.3,15.8l-0.1-0.4c0-0.1,0-0.1,0.1-0.1s0.1,0,0.1,0.1L43.3,15.8L43.3,15.8L43.3,15.8z M43.2,15.2
			C43.1,15.2,43.1,15.2,43.2,15.2l-0.1-0.4c0-0.1,0-0.1,0.1-0.1s0.1,0,0.1,0.1L43.2,15.2L43.2,15.2L43.2,15.2z M43.1,14.6
			C43,14.6,43,14.5,43.1,14.6L43,14.2c0-0.1,0-0.1,0.1-0.1s0.1,0,0.1,0.1L43.1,14.6C43.2,14.5,43.1,14.6,43.1,14.6L43.1,14.6z
			 M43,13.8C42.9,13.8,42.9,13.8,43,13.8l-0.1-0.4l0,0c0,0,0-0.1,0.1-0.1c0,0,0.1,0,0.1,0.1L43,13.8C43.1,13.8,43,13.8,43,13.8
			L43,13.8z"/>
	</g>
	<g id="XMLID_302_">
		<path id="XMLID_153_" class="st0" d="M23.8,60.7C23.7,60.7,23.7,60.7,23.8,60.7c-0.1,0-0.2-0.1-0.3-0.4v-0.1h0.1
			c0.1,0.2,0.2,0.3,0.2,0.3C23.9,60.6,23.8,60.6,23.8,60.7L23.8,60.7z M23.4,60.1L23.4,60.1c-0.1-0.1-0.2-0.3-0.2-0.4v-0.1h0.2
			c0.1,0.1,0.1,0.2,0.2,0.3C23.5,60,23.5,60.1,23.4,60.1L23.4,60.1z M23.2,59.5C23.1,59.5,23.1,59.5,23.2,59.5
			c-0.1-0.2-0.2-0.3-0.2-0.4V59h0.1c0.1,0.1,0.1,0.2,0.2,0.3C23.3,59.4,23.2,59.4,23.2,59.5L23.2,59.5z M22.9,58.9
			C22.8,58.9,22.8,58.9,22.9,58.9c-0.1-0.2-0.2-0.3-0.2-0.4c0,0,0-0.1,0.1-0.1c0,0,0.1,0,0.1,0.1S23,58.7,22.9,58.9L22.9,58.9
			L22.9,58.9z M22.6,58.2C22.6,58.2,22.5,58.2,22.6,58.2c-0.1-0.2-0.2-0.3-0.2-0.3s0-0.1,0.1-0.1c0,0,0.1,0,0.1,0.1
			S22.7,58,22.6,58.2C22.7,58.1,22.7,58.2,22.6,58.2L22.6,58.2z M22.3,57.6L22.3,57.6c-0.1-0.2-0.2-0.3-0.2-0.4c0,0,0-0.1,0.1-0.1
			c0,0,0.1,0,0.1,0.1S22.4,57.4,22.3,57.6C22.4,57.5,22.4,57.6,22.3,57.6C22.4,57.6,22.4,57.6,22.3,57.6z M22.2,56.9
			C22.2,56.9,22.1,56.9,22.2,56.9c-0.1-0.2-0.2-0.3-0.2-0.4c0,0,0-0.1,0.1-0.1c0,0,0.1,0,0.1,0.1S22.3,56.7,22.2,56.9
			C22.3,56.8,22.3,56.9,22.2,56.9L22.2,56.9z M22,56.3C22,56.3,21.9,56.3,22,56.3c-0.1-0.2-0.2-0.3-0.2-0.4c0,0,0-0.1,0.1-0.1
			c0,0,0.1,0,0.1,0.1S22.1,56.1,22,56.3C22.1,56.2,22.1,56.3,22,56.3L22,56.3z M21.8,55.6C21.7,55.6,21.7,55.6,21.8,55.6
			c-0.1-0.2-0.2-0.3-0.2-0.4c0,0,0-0.1,0.1-0.1c0,0,0.1,0,0.1,0.1S21.9,55.5,21.8,55.6C21.9,55.5,21.9,55.6,21.8,55.6L21.8,55.6z
			 M21.6,55C21.6,55,21.5,54.9,21.6,55c-0.1-0.2-0.1-0.3-0.2-0.4c0,0,0-0.1,0.1-0.1c0,0,0.1,0,0.1,0.1S21.7,54.8,21.6,55
			C21.7,54.9,21.7,55,21.6,55L21.6,55z M21.4,54.3C21.4,54.3,21.3,54.2,21.4,54.3c-0.1-0.2-0.1-0.3-0.2-0.4c0,0,0-0.1,0.1-0.1
			c0,0,0.1,0,0.1,0.1S21.5,54.2,21.4,54.3C21.5,54.2,21.5,54.2,21.4,54.3L21.4,54.3z M21.3,53.6C21.2,53.6,21.2,53.6,21.3,53.6
			c-0.2-0.2-0.2-0.3-0.2-0.4s0-0.1,0.1-0.1c0,0,0.1,0,0.1,0.1S21.4,53.4,21.3,53.6L21.3,53.6L21.3,53.6z M21.1,53
			C21.1,53,21,53,21.1,53c-0.1-0.2-0.1-0.3-0.2-0.4c0-0.1,0-0.1,0.1-0.1s0.1,0,0.1,0.1S21.1,52.8,21.1,53C21.2,53,21.2,53,21.1,53
			L21.1,53z M21,52.3L21,52.3c-0.1-0.2-0.1-0.3-0.2-0.4c0-0.1,0-0.1,0.1-0.1s0.1,0,0.1,0.1S21,52.1,21,52.3
			C21.1,52.2,21,52.3,21,52.3L21,52.3z M20.9,51.7C20.9,51.7,20.9,51.6,20.9,51.7c-0.1-0.2-0.1-0.3-0.2-0.4c0-0.1,0-0.1,0.1-0.1
			s0.1,0,0.1,0.1S20.9,51.5,20.9,51.7C21,51.6,21,51.6,20.9,51.7C21,51.7,21,51.7,20.9,51.7z M20.8,50.9
			C20.8,50.9,20.7,50.9,20.8,50.9c-0.1-0.2-0.1-0.3-0.1-0.4s0-0.1,0.1-0.1s0.1,0,0.1,0.1s0,0.2,0.1,0.4
			C20.9,50.9,20.9,50.9,20.8,50.9L20.8,50.9z M20.7,50.3C20.7,50.3,20.6,50.3,20.7,50.3c-0.1-0.2-0.1-0.3-0.1-0.4s0-0.1,0.1-0.1
			s0.1,0,0.1,0.1s0,0.2,0.1,0.4C20.8,50.2,20.8,50.3,20.7,50.3L20.7,50.3z M20.6,49.6C20.6,49.6,20.5,49.5,20.6,49.6
			c-0.1-0.2-0.1-0.3-0.1-0.4s0-0.1,0.1-0.1s0.1,0,0.1,0.1S20.7,49.5,20.6,49.6C20.7,49.5,20.7,49.6,20.6,49.6L20.6,49.6z M20.5,48.9
			C20.5,48.9,20.4,48.9,20.5,48.9l-0.1-0.4c0-0.1,0-0.1,0.1-0.1s0.1,0,0.1,0.1L20.5,48.9C20.6,48.9,20.6,48.9,20.5,48.9L20.5,48.9z"
			/>
	</g>
	<g id="XMLID_301_">
		<path id="XMLID_152_" class="st0" d="M73.7,67.4L73.7,67.4c-0.1,0-0.2,0-0.2-0.1s0-0.1,0.1-0.1h0.1H74c0,0,0.1,0,0.1,0.1
			s0,0.1-0.1,0.1H73.7z M73.3,67.4L73.3,67.4c-0.1,0-0.2,0-0.4,0c-0.1,0-0.1,0-0.1-0.1s0-0.1,0.1-0.1l0,0c0.1,0,0.2,0,0.4,0
			C73.4,67.2,73.4,67.2,73.3,67.4C73.4,67.3,73.4,67.4,73.3,67.4z M74.3,67.4C74.3,67.4,74.2,67.3,74.3,67.4c-0.1-0.1-0.1-0.2,0-0.2
			s0.2,0,0.4,0l0,0c0.1,0,0.1,0,0.1,0.1s0,0.1-0.1,0.1C74.6,67.3,74.4,67.3,74.3,67.4L74.3,67.4z M72.7,67.3L72.7,67.3
			c-0.1,0-0.2,0-0.4,0c-0.1,0-0.1,0-0.1-0.1s0-0.1,0.1-0.1s0.2,0,0.4,0C72.7,67.2,72.8,67.2,72.7,67.3
			C72.8,67.3,72.7,67.3,72.7,67.3z M75.1,67.3C75,67.3,75,67.3,75.1,67.3c-0.1-0.1-0.1-0.2,0-0.2s0.2,0,0.4,0c0,0,0.1,0,0.1,0.1
			s0,0.1-0.1,0.1C75.2,67.3,75.2,67.3,75.1,67.3L75.1,67.3z M71.9,67.3L71.9,67.3c-0.1,0-0.3,0-0.4,0s-0.1,0-0.1-0.1s0-0.1,0.1-0.1
			s0.2,0,0.4,0C72,67.1,72,67.2,71.9,67.3C72,67.3,72,67.3,71.9,67.3z M75.7,67.3C75.6,67.3,75.6,67.3,75.7,67.3
			c-0.1-0.1-0.1-0.2,0-0.2s0.2,0,0.4,0c0.1,0,0.1,0,0.1,0.1s0,0.1-0.1,0.1C75.9,67.3,75.8,67.3,75.7,67.3L75.7,67.3z M71.3,67.3
			L71.3,67.3c-0.1,0-0.3,0-0.4,0s-0.1,0-0.1-0.1s0-0.1,0.1-0.1s0.2,0,0.4,0C71.3,67.1,71.4,67.2,71.3,67.3
			C71.4,67.3,71.3,67.3,71.3,67.3z M76.4,67.3C76.4,67.3,76.3,67.2,76.4,67.3c-0.1-0.1-0.1-0.2,0-0.2s0.2,0,0.4,0
			c0.1,0,0.1,0,0.1,0.1s0,0.1-0.1,0.1S76.6,67.3,76.4,67.3L76.4,67.3z M70.5,67.3L70.5,67.3c-0.1,0-0.3,0-0.4,0s-0.1,0-0.1-0.1
			s0.1-0.1,0.1-0.1c0.1,0,0.2,0,0.4,0C70.6,67.1,70.6,67.1,70.5,67.3C70.6,67.2,70.6,67.3,70.5,67.3z M77.1,67.2
			C77,67.2,77,67.2,77.1,67.2C77,67.1,77,67,77.1,67s0.2,0,0.4,0c0.1,0,0.1,0,0.1,0.1s0,0.1-0.1,0.1C77.3,67.2,77.2,67.2,77.1,67.2
			L77.1,67.2z M69.9,67.2L69.9,67.2h-0.4c-0.1,0-0.1,0-0.1-0.1s0.1-0.1,0.1-0.1h0.4C70,67,70,67.1,69.9,67.2
			C70,67.2,70,67.2,69.9,67.2z M77.7,67.2C77.7,67.2,77.6,67.1,77.7,67.2c-0.1-0.1-0.1-0.2,0-0.2s0.2,0,0.4,0c0,0,0.1,0,0.1,0.1
			s0,0.1-0.1,0.1C78,67.2,77.8,67.2,77.7,67.2L77.7,67.2z M69.2,67.1L69.2,67.1c-0.1,0-0.3,0-0.4,0s-0.1,0-0.1-0.1s0.1-0.1,0.1-0.1
			c0.1,0,0.2,0,0.4,0C69.2,67,69.3,67,69.2,67.1C69.3,67.1,69.2,67.1,69.2,67.1z M78.4,67.1L78.4,67.1c-0.1-0.1-0.1-0.2,0-0.2
			s0.2,0,0.4,0c0,0,0.1,0,0.1,0.1s0,0.1-0.1,0.1S78.6,67.1,78.4,67.1L78.4,67.1z M68.5,67.1L68.5,67.1c-0.1,0-0.3,0-0.4,0
			S68,67,68,67c0-0.1,0.1-0.1,0.1-0.1c0.1,0,0.2,0,0.4,0C68.6,66.9,68.6,66.9,68.5,67.1C68.6,67,68.6,67.1,68.5,67.1z M79.1,67
			C79,67,79,67,79.1,67c-0.1-0.1-0.1-0.2,0-0.2s0.2,0,0.4,0c0,0,0.1,0,0.1,0.1s0,0.1-0.1,0.1C79.3,67,79.2,67,79.1,67L79.1,67z
			 M67.9,67L67.9,67c-0.1,0-0.3,0-0.4,0s-0.1-0.1-0.1-0.1c0-0.1,0.1-0.1,0.1-0.1c0.1,0,0.2,0,0.4,0C68,66.8,68,66.9,67.9,67
			C68,67,67.9,67,67.9,67z M79.8,67C79.8,67,79.7,66.9,79.8,67c-0.1-0.1-0.1-0.2,0-0.2s0.2,0,0.4,0c0.1,0,0.1,0,0.1,0.1
			s0,0.1-0.1,0.1C80.1,66.9,79.9,66.9,79.8,67L79.8,67z M67.2,66.9L67.2,66.9c-0.1,0-0.3,0-0.4,0s-0.1-0.1-0.1-0.1
			c0-0.1,0.1-0.1,0.1-0.1c0.1,0,0.2,0,0.4,0C67.2,66.7,67.3,66.8,67.2,66.9C67.3,66.9,67.2,66.9,67.2,66.9z M80.4,66.9
			C80.4,66.9,80.4,66.8,80.4,66.9c-0.1-0.1-0.1-0.2,0-0.2s0.2,0,0.4-0.1c0,0,0.1,0,0.1,0.1s0,0.1-0.1,0.1S80.6,66.8,80.4,66.9
			C80.5,66.9,80.5,66.9,80.4,66.9z M66.5,66.8L66.5,66.8c-0.1,0-0.3,0-0.4-0.1c-0.1,0-0.1-0.1-0.1-0.1c0-0.1,0.1-0.1,0.1-0.1
			c0.1,0,0.2,0,0.4,0.1C66.6,66.6,66.6,66.7,66.5,66.8C66.6,66.8,66.6,66.8,66.5,66.8z M81.2,66.8C81.1,66.8,81.1,66.7,81.2,66.8
			c-0.1-0.1-0.1-0.2,0-0.2s0.2,0,0.4-0.1c0,0,0.1,0,0.1,0.1s0,0.1-0.1,0.1C81.3,66.7,81.2,66.7,81.2,66.8L81.2,66.8z M65.8,66.7
			L65.8,66.7h-0.4c-0.1,0-0.1-0.1-0.1-0.1c0-0.1,0.1-0.1,0.1-0.1L65.8,66.7C65.9,66.5,65.9,66.6,65.8,66.7
			C65.9,66.7,65.8,66.7,65.8,66.7z M81.8,66.6C81.8,66.6,81.7,66.6,81.8,66.6c-0.1-0.1-0.1-0.2,0-0.2s0.2,0,0.4-0.1
			c0,0,0.1,0,0.1,0.1s0,0.1-0.1,0.1C82.1,66.6,81.9,66.6,81.8,66.6L81.8,66.6z M65.2,66.6L65.2,66.6l-0.4-0.1
			c-0.1,0-0.1-0.1-0.1-0.1c0-0.1,0.1-0.1,0.1-0.1l0.4,0.1C65.2,66.4,65.3,66.5,65.2,66.6C65.3,66.6,65.2,66.6,65.2,66.6z M82.5,66.5
			L82.5,66.5c-0.1-0.1-0.1-0.2,0-0.2s0.2,0,0.4-0.1c0,0,0.1,0,0.1,0.1s0,0.1-0.1,0.1C82.7,66.5,82.6,66.5,82.5,66.5L82.5,66.5z
			 M64.5,66.5L64.5,66.5c-0.1,0-0.2,0-0.3,0h-0.1c-0.1,0-0.1-0.1-0.1-0.1c0-0.1,0.1-0.1,0.1-0.1h0.1c0.1,0,0.2,0,0.3,0
			C64.5,66.3,64.5,66.4,64.5,66.5L64.5,66.5z M63.8,66.4L63.8,66.4c-0.1,0-0.3,0-0.4-0.1c-0.1,0-0.1-0.1-0.1-0.1l0.1-0.1
			c0.1,0,0.3,0.1,0.4,0.1C63.9,66.3,63.9,66.3,63.8,66.4C63.9,66.4,63.9,66.4,63.8,66.4z M83.2,66.4C83.1,66.4,83.1,66.3,83.2,66.4
			c-0.1-0.1-0.1-0.2,0-0.2s0.2,0,0.4-0.1c0,0,0.1,0,0.1,0.1s0,0.1-0.1,0.1C83.4,66.3,83.3,66.4,83.2,66.4L83.2,66.4z M83.8,66.3
			C83.7,66.3,83.7,66.3,83.8,66.3c-0.1-0.1-0.1-0.2,0-0.2S84,66,84.2,66c0.1,0,0.1,0,0.1,0.1s0,0.1-0.1,0.1
			C84,66.3,83.9,66.3,83.8,66.3L83.8,66.3z M63.2,66.3L63.2,66.3c-0.1,0-0.3-0.1-0.4-0.1l-0.1-0.1l0.1-0.1c0.1,0,0.2,0.1,0.4,0.1
			C63.2,66.2,63.2,66.2,63.2,66.3L63.2,66.3z M84.5,66.2C84.5,66.2,84.4,66.1,84.5,66.2c-0.1-0.1-0.1-0.2,0-0.2s0.2-0.1,0.4-0.1
			c0.1,0,0.1,0,0.1,0.1c0,0,0,0.1-0.1,0.1S84.7,66.1,84.5,66.2L84.5,66.2z M62.5,66.2C62.5,66.2,62.4,66.2,62.5,66.2l-0.4-0.1l0-0.1
			l0.1-0.1l0.4,0.1C62.5,66,62.6,66,62.5,66.2C62.5,66.1,62.5,66.2,62.5,66.2z M85.1,66L85.1,66c-0.1-0.1-0.1-0.2,0-0.2
			s0.2-0.1,0.4-0.1c0.1,0,0.1,0,0.1,0.1c0,0,0,0.1-0.1,0.1S85.3,66,85.1,66L85.1,66z M61.8,66L61.8,66l-0.3-0.1l-0.1-0.1l0.1-0.1
			l0.4,0.1C61.9,65.8,61.9,65.9,61.8,66C61.9,66,61.9,66,61.8,66z M85.8,65.8L85.8,65.8c-0.1-0.1-0.1-0.2,0-0.2s0.2-0.1,0.4-0.1
			c0,0,0.1,0,0.1,0.1c0,0,0,0.1-0.1,0.1C86.1,65.8,86,65.8,85.8,65.8C85.9,65.8,85.9,65.8,85.8,65.8z M61.1,65.8L61.1,65.8l-0.4-0.1
			l-0.1-0.1l0.1-0.1l0.4,0.1C61.2,65.6,61.2,65.7,61.1,65.8C61.2,65.8,61.2,65.8,61.1,65.8z M60.5,65.6L60.5,65.6l-0.4-0.1L60,65.4
			l0.1-0.1l0.4,0.1C60.6,65.5,60.6,65.5,60.5,65.6C60.6,65.6,60.5,65.6,60.5,65.6z M86.5,65.6C86.4,65.6,86.4,65.6,86.5,65.6
			c-0.1-0.1-0.1-0.2,0-0.2s0.2-0.1,0.4-0.1c0,0,0.1,0,0.1,0.1c0,0,0,0.1-0.1,0.1C86.7,65.6,86.6,65.6,86.5,65.6L86.5,65.6z
			 M59.8,65.5L59.8,65.5l-0.4-0.1v-0.1l0.1-0.1l0.4,0.1C59.9,65.3,59.9,65.3,59.8,65.5C59.9,65.4,59.8,65.5,59.8,65.5z M87.2,65.4
			C87.1,65.4,87.1,65.4,87.2,65.4c-0.1-0.1-0.1-0.2,0-0.2s0.2-0.1,0.4-0.1c0,0,0.1,0,0.1,0.1c0,0,0,0.1-0.1,0.1
			C87.3,65.4,87.3,65.4,87.2,65.4L87.2,65.4z M59.2,65.3L59.2,65.3l-0.4-0.1l-0.1-0.1l0.1-0.1l0.4,0.1
			C59.2,65.2,59.3,65.2,59.2,65.3L59.2,65.3z M87.8,65.2C87.7,65.2,87.7,65.2,87.8,65.2c-0.1-0.1-0.1-0.2,0-0.2s0.2-0.1,0.4-0.1
			c0,0,0.1,0,0.1,0.1c0,0,0,0.1-0.1,0.1C88,65.2,87.9,65.2,87.8,65.2L87.8,65.2z M58.4,65.2L58.4,65.2L58,65.1
			c-0.1,0-0.1-0.1-0.1-0.1l0.1-0.1l0.4,0.1C58.5,65.1,58.5,65.1,58.4,65.2C58.5,65.2,58.5,65.2,58.4,65.2z M57.8,65.1L57.8,65.1
			L57.4,65c-0.1,0-0.1-0.1-0.1-0.1c0-0.1,0.1-0.1,0.1-0.1l0.4,0.1C57.9,64.9,57.9,65,57.8,65.1C57.9,65.1,57.9,65.1,57.8,65.1z
			 M88.5,65.1C88.4,65.1,88.4,65.1,88.5,65.1c-0.1-0.1-0.1-0.2,0-0.2s0.2-0.1,0.4-0.1c0,0,0.1,0,0.1,0.1s0,0.1-0.1,0.1
			C88.6,65,88.6,65,88.5,65.1L88.5,65.1z M57.2,64.9L57.2,64.9l-0.4-0.1c-0.1,0-0.1-0.1-0.1-0.1c0-0.1,0.1-0.1,0.1-0.1l0.4,0.1
			C57.2,64.8,57.2,64.8,57.2,64.9L57.2,64.9z M89.1,64.9C89,64.9,89,64.8,89.1,64.9c-0.1-0.1-0.1-0.2,0-0.2s0.2-0.1,0.3-0.1
			c0,0,0.1,0,0.1,0.1c0,0,0,0.1-0.1,0.1S89.2,64.8,89.1,64.9C89.1,64.8,89.1,64.9,89.1,64.9z M56.5,64.8L56.5,64.8l-0.4-0.1
			c-0.1,0-0.1-0.1-0.1-0.1c0-0.1,0.1-0.1,0.1-0.1l0.4,0.1C56.5,64.6,56.6,64.7,56.5,64.8C56.6,64.8,56.5,64.8,56.5,64.8z M55.8,64.7
			L55.8,64.7l-0.4-0.1c-0.1,0-0.1-0.1-0.1-0.1c0-0.1,0.1-0.1,0.1-0.1l0.4,0.1C55.9,64.5,55.9,64.5,55.8,64.7
			C55.9,64.6,55.9,64.7,55.8,64.7z M89.7,64.6L89.7,64.6c-0.1-0.1-0.1-0.2,0-0.2s0.2-0.1,0.3-0.1c0,0,0.1,0,0.1,0.1
			c0,0,0,0.1-0.1,0.1C89.9,64.5,89.8,64.6,89.7,64.6L89.7,64.6z M55.1,64.5L55.1,64.5l-0.4-0.1c-0.1,0-0.1-0.1-0.1-0.1
			c0-0.1,0.1-0.1,0.1-0.1l0.4,0.1C55.2,64.4,55.2,64.4,55.1,64.5C55.2,64.5,55.2,64.5,55.1,64.5z M54.5,64.4L54.5,64.4l-0.4-0.1
			c-0.1,0-0.1-0.1-0.1-0.1c0-0.1,0.1-0.1,0.1-0.1l0.4,0.1C54.6,64.2,54.6,64.3,54.5,64.4C54.6,64.4,54.5,64.4,54.5,64.4z M90.4,64.3
			C90.3,64.3,90.3,64.3,90.4,64.3c-0.1-0.1-0.1-0.2,0-0.2s0.2-0.1,0.3-0.1c0,0,0.1,0,0.1,0.1c0,0,0,0.1-0.1,0.1
			C90.6,64.2,90.5,64.3,90.4,64.3L90.4,64.3z M53.8,64.3C53.8,64.3,53.7,64.3,53.8,64.3l-0.4-0.1c-0.1,0-0.1-0.1-0.1-0.1l0.1-0.1
			l0.4,0.1C53.8,64.1,53.9,64.2,53.8,64.3L53.8,64.3z M53.1,64.2L53.1,64.2c-0.1,0-0.3,0-0.4-0.1c-0.1,0-0.1-0.1-0.1-0.1
			c0-0.1,0.1-0.1,0.1-0.1c0.1,0,0.2,0,0.4,0.1C53.2,64,53.2,64,53.1,64.2C53.2,64.1,53.2,64.2,53.1,64.2z M91,64.1L91,64.1
			c-0.1-0.1-0.1-0.2,0-0.2s0.2-0.1,0.3-0.1c0,0,0.1,0,0.1,0.1c0,0,0,0.1-0.1,0.1C91.2,64,91.1,64,91,64.1L91,64.1z M52.4,64.1
			L52.4,64.1L52.1,64C52,64,52,63.9,52,63.9c0-0.1,0.1-0.1,0.1-0.1L52.4,64.1C52.5,64,52.5,64,52.4,64.1
			C52.5,64,52.4,64.1,52.4,64.1z M51.8,64L51.8,64l-0.4-0.1c-0.1,0-0.1-0.1-0.1-0.1c0-0.1,0.1-0.1,0.1-0.1l0.4,0.1
			C51.8,63.9,51.9,63.9,51.8,64L51.8,64z M51.1,63.9L51.1,63.9h-0.4c-0.1,0-0.1-0.1-0.1-0.1c0-0.1,0.1-0.1,0.1-0.1h0.4
			C51.2,63.8,51.2,63.8,51.1,63.9C51.2,63.9,51.2,63.9,51.1,63.9z M91.6,63.9L91.6,63.9c-0.1-0.1-0.1-0.2,0-0.2s0.2-0.1,0.3-0.1H92
			v0.1C91.9,63.8,91.8,63.8,91.6,63.9C91.7,63.9,91.7,63.9,91.6,63.9z M50.4,63.9L50.4,63.9H50c-0.1,0-0.1-0.1-0.1-0.1
			c0-0.1,0.1-0.1,0.1-0.1h0.4C50.5,63.7,50.5,63.7,50.4,63.9C50.5,63.8,50.4,63.9,50.4,63.9z M49.8,63.8L49.8,63.8h-0.4
			c-0.1,0-0.1-0.1-0.1-0.1c0-0.1,0.1-0.1,0.1-0.1h0.4C49.8,63.6,49.9,63.6,49.8,63.8C49.9,63.7,49.8,63.8,49.8,63.8z M49,63.7
			L49,63.7h-0.4c-0.1,0-0.1-0.1-0.1-0.1c0-0.1,0.1-0.1,0.1-0.1H49C49.1,63.5,49.1,63.5,49,63.7C49.1,63.6,49.1,63.7,49,63.7z
			 M92.2,63.6L92.2,63.6c-0.1-0.1-0.1-0.2,0-0.2s0.2-0.1,0.3-0.1h0.1v0.1C92.5,63.5,92.4,63.5,92.2,63.6
			C92.3,63.6,92.2,63.6,92.2,63.6z M48.4,63.6L48.4,63.6H48c-0.1,0-0.1-0.1-0.1-0.1l0.1-0.1h0.4C48.5,63.4,48.5,63.5,48.4,63.6
			C48.5,63.6,48.4,63.6,48.4,63.6z M47.7,63.5L47.7,63.5c-0.1,0-0.3,0-0.4,0s-0.1,0-0.1-0.1s0-0.1,0.1-0.1s0.2,0,0.4,0
			C47.7,63.3,47.8,63.4,47.7,63.5L47.7,63.5z M47,63.5L47,63.5h-0.4c-0.1,0-0.1,0-0.1-0.1s0-0.1,0.1-0.1H47
			C47.1,63.3,47.1,63.3,47,63.5C47.1,63.4,47.1,63.5,47,63.5z M46.4,63.4L46.4,63.4H46c-0.1,0-0.1,0-0.1-0.1s0-0.1,0.1-0.1h0.4
			C46.4,63.2,46.4,63.3,46.4,63.4L46.4,63.4z M45.6,63.3L45.6,63.3h-0.4c-0.1,0-0.1,0-0.1-0.1s0-0.1,0.1-0.1h0.4
			C45.7,63.2,45.7,63.2,45.6,63.3C45.7,63.3,45.7,63.3,45.6,63.3z M92.9,63.3C92.9,63.3,92.8,63.3,92.9,63.3c-0.1-0.1-0.1-0.2,0-0.2
			c0.1-0.1,0.2-0.1,0.3-0.2h0.1V63C93.2,63.2,93.1,63.2,92.9,63.3L92.9,63.3z M45,63.3L45,63.3h-0.4c-0.1,0-0.1,0-0.1-0.1
			s0-0.1,0.1-0.1H45C45.1,63.1,45.1,63.1,45,63.3C45.1,63.2,45.1,63.3,45,63.3z M44.3,63.2L44.3,63.2h-0.4c-0.1,0-0.1,0-0.1-0.1
			s0-0.1,0.1-0.1h0.4C44.3,63,44.4,63.1,44.3,63.2C44.4,63.2,44.3,63.2,44.3,63.2z M43.6,63.2L43.6,63.2h-0.4c-0.1,0-0.1,0-0.1-0.1
			s0-0.1,0.1-0.1h0.4C43.7,63,43.7,63,43.6,63.2C43.7,63.1,43.7,63.2,43.6,63.2z M42.9,63.1L42.9,63.1h-0.4c-0.1,0-0.1,0-0.1-0.1
			s0-0.1,0.1-0.1h0.4C43,63,43,63,42.9,63.1C43,63.1,42.9,63.1,42.9,63.1z M42.3,63.1L42.3,63.1h-0.4c-0.1,0-0.1,0-0.1-0.1
			s0-0.1,0.1-0.1h0.4C42.3,62.9,42.4,63,42.3,63.1L42.3,63.1z M41.6,63.1L41.6,63.1h-0.4c-0.1,0-0.1,0-0.1-0.1s0-0.1,0.1-0.1h0.4
			C41.6,62.9,41.6,62.9,41.6,63.1C41.6,63,41.6,63.1,41.6,63.1z M40.9,63.1L40.9,63.1h-0.4c-0.1,0-0.1,0-0.1-0.1s0.1-0.1,0.1-0.1
			h0.4C40.9,62.9,41,62.9,40.9,63.1C41,63,40.9,63.1,40.9,63.1z M40.2,63L40.2,63h-0.4c-0.1,0-0.1,0-0.1-0.1s0-0.1,0.1-0.1h0.4
			C40.3,62.8,40.3,62.9,40.2,63C40.3,63,40.3,63,40.2,63z M39.5,63L39.5,63h-0.4C39,63,39,63,39,62.9s0-0.1,0.1-0.1l0,0h0.4
			C39.6,62.8,39.6,62.9,39.5,63C39.6,63,39.6,63,39.5,63z M38.9,63L38.9,63h-0.4c-0.1,0-0.1,0-0.1-0.1s0-0.1,0.1-0.1h0.4
			C38.9,62.8,39,62.9,38.9,63C39,63,38.9,63,38.9,63z M38.1,63L38.1,63h-0.4c-0.1,0-0.1,0-0.1-0.1s0-0.1,0.1-0.1l0,0h0.4
			C38.2,62.8,38.2,62.9,38.1,63C38.2,63,38.2,63,38.1,63z M36.6,63L36.6,63c-0.2,0-0.2,0-0.2-0.1s0-0.1,0.1-0.1h0.4l0,0
			c0.1,0,0.1,0,0.1,0.1s0,0.1-0.1,0.1H36.6z M36.1,63L36.1,63h-0.4c-0.1,0-0.1,0-0.1-0.1s0-0.1,0.1-0.1l0,0h0.4
			C36.2,62.8,36.2,62.9,36.1,63C36.2,63,36.2,63,36.1,63z M37.1,63C37.1,63,37,63,37.1,63c-0.1-0.1-0.1-0.2,0-0.2h0.4
			c0.1,0,0.1,0,0.1,0.1s0,0.1-0.1,0.1L37.1,63L37.1,63z M35.5,63L35.5,63h-0.4C35,63,35,63,35,62.9s0-0.1,0.1-0.1h0.4
			C35.5,62.8,35.6,62.9,35.5,63C35.6,63,35.5,63,35.5,63z M34.7,63L34.7,63h-0.3c-0.1,0-0.1,0-0.1-0.1s0-0.1,0.1-0.1h0.4
			C34.8,62.8,34.8,62.8,34.7,63C34.8,62.9,34.8,63,34.7,63z M93.5,63C93.4,63,93.4,63,93.5,63c-0.1-0.1-0.1-0.2,0-0.2
			c0.1-0.1,0.2-0.1,0.3-0.2h0.1v0.1C93.7,62.9,93.6,62.9,93.5,63L93.5,63z M34.1,63L34.1,63h-0.4c-0.1,0-0.1,0-0.1-0.1
			s0-0.1,0.1-0.1h0.4C34.1,62.8,34.2,62.8,34.1,63C34.2,62.9,34.1,63,34.1,63z M33.3,63L33.3,63h-0.4c-0.1,0-0.1,0-0.1-0.1
			s0-0.1,0.1-0.1h0.4C33.4,62.8,33.4,62.8,33.3,63C33.4,62.9,33.4,63,33.3,63z M32.7,62.9L32.7,62.9h-0.4c-0.1,0-0.1,0-0.1-0.1
			s0-0.1,0.1-0.1h0.4C32.8,62.8,32.8,62.8,32.7,62.9C32.8,62.9,32.8,62.9,32.7,62.9z M32,62.9L32,62.9h-0.4c-0.1,0-0.1,0-0.1-0.1
			s0-0.1,0.1-0.1H32C32,62.8,32.1,62.8,32,62.9C32.1,62.9,32,62.9,32,62.9z M31.3,62.9L31.3,62.9c-0.1,0-0.3,0-0.4,0s-0.1,0-0.1-0.1
			s0-0.1,0.1-0.1s0.2,0,0.4,0C31.4,62.8,31.4,62.8,31.3,62.9C31.4,62.8,31.4,62.9,31.3,62.9z M30.7,62.8L30.7,62.8h-0.4
			c-0.1,0-0.1,0-0.1-0.1s0-0.1,0.1-0.1h0.4C30.7,62.7,30.8,62.8,30.7,62.8C30.8,62.8,30.7,62.8,30.7,62.8z M30,62.8L30,62.8h-0.4
			c-0.1,0-0.1,0-0.1-0.1s0-0.1,0.1-0.1H30C30,62.7,30.1,62.7,30,62.8L30,62.8z M29.3,62.8L29.3,62.8h-0.4c-0.1,0-0.1,0-0.1-0.1
			s0-0.1,0.1-0.1h0.4C29.4,62.7,29.4,62.7,29.3,62.8C29.4,62.8,29.4,62.8,29.3,62.8z M28.6,62.8L28.6,62.8h-0.4
			c-0.1,0-0.1,0-0.1-0.1s0-0.1,0.1-0.1h0.4C28.6,62.6,28.7,62.6,28.6,62.8C28.7,62.7,28.6,62.8,28.6,62.8z M94.1,62.8
			C94.1,62.8,94.1,62.7,94.1,62.8c-0.1-0.1-0.1-0.2,0-0.2c0.1-0.1,0.2-0.1,0.3-0.2h0.1v0.1C94.4,62.6,94.3,62.7,94.1,62.8
			C94.2,62.8,94.1,62.8,94.1,62.8z M27.9,62.7L27.9,62.7c-0.1,0-0.3,0-0.4,0s-0.1-0.1-0.1-0.1c0-0.1,0-0.1,0.1-0.1s0.2,0,0.4,0
			C28,62.5,28,62.6,27.9,62.7C28,62.7,28,62.7,27.9,62.7z M27.2,62.6L27.2,62.6c-0.1,0-0.3,0-0.4,0s-0.1-0.1-0.1-0.1
			c0-0.1,0.1-0.1,0.1-0.1c0.1,0,0.2,0,0.4,0C27.3,62.5,27.3,62.5,27.2,62.6C27.3,62.6,27.3,62.6,27.2,62.6z M26.6,62.5L26.6,62.5
			c-0.1,0-0.3,0-0.4,0s-0.1-0.1-0.1-0.1c0-0.1,0.1-0.1,0.1-0.1c0.1,0,0.2,0,0.4,0C26.6,62.4,26.7,62.4,26.6,62.5
			C26.7,62.5,26.6,62.5,26.6,62.5z M25.9,62.5L25.9,62.5c-0.1,0-0.3,0-0.4-0.1c-0.1,0-0.1-0.1-0.1-0.1c0-0.1,0.1-0.1,0.1-0.1
			c0.1,0,0.2,0,0.4,0.1C25.9,62.3,25.9,62.3,25.9,62.5C25.9,62.4,25.9,62.5,25.9,62.5z M94.7,62.4C94.7,62.4,94.6,62.4,94.7,62.4
			c-0.1-0.1-0.1-0.2,0-0.2c0.1-0.1,0.2-0.1,0.3-0.2h0.1v0.1C95,62.3,94.8,62.4,94.7,62.4L94.7,62.4z M25.2,62.3L25.2,62.3
			c-0.1,0-0.3,0-0.4-0.1c0,0.1-0.1,0,0,0c0-0.1,0.1-0.1,0.1-0.1C25,62.1,25.1,62.1,25.2,62.3C25.3,62.2,25.3,62.2,25.2,62.3
			C25.3,62.3,25.3,62.3,25.2,62.3z M24.6,62.2L24.6,62.2c-0.1,0-0.3,0-0.4-0.1c-0.1,0-0.1-0.1-0.1-0.1c0-0.1,0.1-0.1,0.1-0.1
			c0.1,0,0.2,0,0.4,0.1C24.6,62.1,24.6,62.1,24.6,62.2L24.6,62.2z M23.9,62.1C23.8,62.1,23.8,62.1,23.9,62.1c-0.1,0-0.3-0.1-0.4-0.1
			s-0.1-0.1-0.1-0.1c0-0.1,0.1-0.1,0.1-0.1c0.1,0,0.2,0,0.4,0.1C23.9,61.9,24,62,23.9,62.1L23.9,62.1z M95.3,62.1L95.3,62.1
			c-0.1-0.1-0.1-0.1,0-0.2s0.2-0.1,0.3-0.2h0.1v0.1C95.6,61.9,95.5,62,95.3,62.1C95.4,62.1,95.4,62.1,95.3,62.1z M23.2,61.9
			L23.2,61.9c-0.1,0-0.3-0.1-0.4-0.1l-0.1-0.1c0-0.1,0.1-0.1,0.1-0.1c0.1,0,0.2,0.1,0.4,0.1C23.3,61.8,23.3,61.8,23.2,61.9
			C23.3,61.9,23.3,61.9,23.2,61.9z M22.5,61.8L22.5,61.8c-0.1,0-0.3-0.1-0.4-0.1L22,61.6l0.1-0.1c0.1,0,0.2,0.1,0.4,0.1
			C22.6,61.6,22.6,61.7,22.5,61.8C22.6,61.7,22.6,61.8,22.5,61.8z M95.9,61.7C95.9,61.7,95.8,61.7,95.9,61.7c-0.1-0.1-0.1-0.1,0-0.2
			s0.2-0.1,0.3-0.2h0.1v0.1C96.2,61.6,96,61.6,95.9,61.7L95.9,61.7z M21.9,61.6L21.9,61.6c-0.1,0-0.3-0.1-0.4-0.1h-0.1l0.1-0.1
			C21.6,61.4,21.7,61.5,21.9,61.6C22,61.5,22,61.5,21.9,61.6C22,61.6,21.9,61.6,21.9,61.6z M21.2,61.5L21.2,61.5
			c-0.2,0-0.3-0.1-0.4-0.1l-0.1-0.1l0.1-0.1c0.1,0,0.2,0.1,0.3,0.1C21.3,61.3,21.3,61.4,21.2,61.5C21.3,61.4,21.2,61.5,21.2,61.5z
			 M96.5,61.4L96.5,61.4c-0.1-0.1-0.1-0.1,0-0.2s0.2-0.1,0.3-0.2h0.1v0.1C96.8,61.3,96.7,61.4,96.5,61.4
			C96.6,61.4,96.6,61.4,96.5,61.4z M20.6,61.2L20.6,61.2c-0.2-0.1-0.3-0.1-0.4-0.2c0,0-0.1-0.1,0-0.1c0,0,0.1-0.1,0.1,0
			c0.1,0,0.2,0.1,0.3,0.1C20.7,61.1,20.7,61.1,20.6,61.2C20.7,61.2,20.6,61.2,20.6,61.2z M97.1,61.1C97,61.1,97,61.1,97.1,61.1
			C97,61,97,61,97.1,60.9s0.2-0.1,0.3-0.2h0.1v0.1C97.3,60.9,97.2,61,97.1,61.1L97.1,61.1z M19.9,60.9L19.9,60.9
			c-0.2-0.1-0.3-0.1-0.4-0.2c0,0-0.1-0.1,0-0.1c0,0,0.1-0.1,0.1,0C19.8,60.7,19.8,60.7,19.9,60.9C20,60.8,20,60.8,19.9,60.9
			C20,60.9,20,60.9,19.9,60.9z M97.7,60.7C97.7,60.7,97.6,60.7,97.7,60.7c-0.1-0.1-0.1-0.1,0-0.2s0.2-0.1,0.3-0.2h0.1v0.1
			C98,60.5,97.9,60.6,97.7,60.7L97.7,60.7z M19.4,60.5L19.4,60.5c-0.3-0.2-0.3-0.3-0.4-0.3v-0.1h0.1l0,0c0,0,0.1,0.1,0.3,0.2
			C19.5,60.4,19.5,60.5,19.4,60.5L19.4,60.5z M98.2,60.3L98.2,60.3c-0.1-0.1-0.1-0.1-0.1-0.2c0.1-0.1,0.2-0.1,0.3-0.2h0.1V60
			C98.5,60.2,98.4,60.3,98.2,60.3C98.3,60.3,98.2,60.3,98.2,60.3z M98.8,60L98.8,60c-0.1-0.1-0.1-0.1-0.1-0.2
			c0.1-0.1,0.2-0.1,0.3-0.2h0.1v0.1C99.1,59.8,99,59.9,98.8,60C98.9,60,98.9,60,98.8,60z M99.4,59.5L99.4,59.5L99.4,59.5L99.4,59.5
			C99.5,59.4,99.4,59.5,99.4,59.5z"/>
	</g>
	<g id="XMLID_276_">
		<g id="XMLID_296_">
			<path id="XMLID_630_" class="st1" d="M33,50c0-0.2,0.2-0.4,0.4-0.4s0.4,0.2,0.4,0.4s-0.2,0.4-0.4,0.4S33,50.2,33,50 M33.3,50.3
				c0.2,0,0.3-0.1,0.3-0.3s-0.1-0.3-0.3-0.3S33,49.8,33,50S33.2,50.3,33.3,50.3 M33.2,50.2L33.2,50.2v-0.4h0.2c0.1,0,0.2,0,0.2,0.1
				S33.5,50,33.5,50l0.1,0.2h-0.1L33.4,50h-0.1L33.2,50.2z M33.3,50C33.4,50,33.4,50,33.3,50c0.1-0.2,0.1-0.2,0-0.2h-0.1L33.3,50
				L33.3,50z"/>
		</g>
		<g id="XMLID_279_">
			<path id="XMLID_612_" class="st1" d="M30,49.9h0.2c0,0-0.3-0.7-0.4-0.9c0.1,0,0.2,0,0.3,0c0.1,0.3,0.4,0.7,0.4,0.7
				s0.5-0.2,0.7-0.4c0.1,0,0.1,0.1,0.2,0.1L30.7,50l0.2,0.5c0,0,0.5-0.7,0.7-0.9c0.1,0,0.2,0.1,0.2,0.2c-0.1,0.2-0.3,0.3-0.4,0.5
				c0.3,0,0.6,0,0.8,0.1c0.1,0.1,0.2,0.2,0.2,0.3h-0.7l-0.4,0.5l0.5-0.1c0,0,0.4-0.1,0.7-0.3c0.1,0.1,0.1,0.2,0.1,0.3l-0.8,0.3
				l-0.5,0.2c-0.1,0.1-0.2,0.3-0.3,0.4c0.6-0.1,1.3-0.3,1.9-0.4c0.3,0.9,0,1.9-0.5,2.7c-1.8,0.4-3.5-0.3-5.3-0.1h-0.5
				c-0.4-0.5-0.5-1-0.5-1.5c-0.1-0.5,0-1.2,0.3-1.8c0.1,0,0.8,0,0.8,0l-0.5-0.7c0-0.1,0.1-0.2,0.2-0.3c0.3,0.3,0.6,0.8,0.6,0.8h0.3
				l-0.7-0.9c0.1-0.1,0.2-0.3,0.4-0.3l0.6,0.2c0,0,0-0.4,0-0.5c0.2-0.1,0.3-0.1,0.5-0.2c0.1,0.3,0.2,0.5,0.4,0.7
				c0.2-0.3,0.4-0.5,0.5-0.8h0.1L30,49.9z M29.4,49.5L29,50.2l0.2,0.7l0.4-0.2l0.1-0.5C29.6,49.9,29.5,49.7,29.4,49.5 M28.4,49.5
				v0.4l0.2,0.1C28.5,49.8,28.4,49.6,28.4,49.5 M27.5,49.9L27.5,49.9c0.2,0.2,0.5,0.7,0.5,0.7v-0.5L27.5,49.9z M30.3,50.2l-0.2,0.1
				v0.1L30.3,50.2L30.3,50.2z M28.4,50.3V51l0.3-0.5L28.4,50.3z M31.4,50.7h-0.3l-0.4,0.5H31L31.4,50.7z M29.9,51v0.7l0.5-0.5
				c0.1,0,0.1-0.1,0.1-0.1l-0.1-0.3L29.9,51z M28.9,50.8l-0.2,0.3l0.3,0.4C28.9,51.3,28.9,51.1,28.9,50.8 M29.5,51.2l-0.1,0.1v0.3
				l0.2,0.1v-0.5H29.5z M27.5,51.1l-0.3,0.4l0.5,0.2l0.5-0.4L28,51.1H27.5z M26.4,51.1l0.5,0.3l0.2-0.3H26.4z M30.5,51.7L30.2,52
				h0.3l0.3-0.4h-0.3V51.7z M28.5,51.7l-0.9,0.7h-0.4c0,0,0.2-0.2,0.3-0.3c-0.2-0.1-0.3-0.2-0.5-0.2l-0.4,0.4c-0.1,0-0.2,0-0.3,0
				c0,0.4,0,0.7,0.1,0.9c0,0.1,0,0.2,0.2,0.2c0.8,0,1.7,0.2,2.5,0.3l0.1-1.2c0-0.1-0.2-0.3-0.2-0.3l-0.4,0.2h-0.7
				c0,0,0.6-0.3,0.9-0.5C28.7,51.8,28.6,51.7,28.5,51.7 M26.5,51.6c-0.1,0.1-0.1,0.3-0.1,0.4c0.1-0.1,0.3-0.3,0.3-0.3L26.5,51.6z
				 M32.6,52h-0.4c0.1,0.2,0.3,0.5,0.3,0.5h-0.4l-0.3-0.4c-0.2,0-0.5,0.1-0.5,0.1l0.1,0.3h-0.3l-0.2-0.3c0,0-0.7,0.2-1.1,0.3l0,0
				c0,0.4,0,0.8,0,1.2v0.1c0.7,0.2,1.4,0.2,2.1,0.3H32c0.2-0.3,0.4-0.5,0.5-0.9C32.7,52.9,32.7,52.3,32.6,52"/>
		</g>
		<g id="XMLID_278_">
			<path id="XMLID_575_" class="st1" d="M32.2,54.4c-0.2,0.3-0.5,0.5-0.8,0.7c-1.6-0.1-3-0.5-4.6-0.7c-0.1,0-0.1-0.1-0.1-0.2
				c1.2-0.2,2.5,0,3.7,0.2C30.9,54.5,31.7,54.5,32.2,54.4L32.2,54.4z"/>
		</g>
		<g id="XMLID_277_">
			<path id="XMLID_151_" class="st1" d="M29.8,55.1c0.5,0.1,0.9,0.1,1.4,0.2c-1,0.7-2.6,0.5-3.5-0.1c-0.3-0.2-0.5-0.4-0.7-0.7h0.1
				l0.6,0.1L29.8,55.1z"/>
		</g>
	</g>
	<g id="XMLID_275_">
		<path id="XMLID_150_" class="st1" d="M51.4,19.4c-0.1,0-0.2-0.1-0.2-0.2c-1.4-2.9-5.3-2.1-5.4-2.1c-0.1,0-0.3-0.1-0.3-0.2
			c0-0.2,0.1-0.3,0.2-0.3c0,0,4.3-0.8,5.9,2.4c0.1,0.1,0,0.3-0.1,0.4C51.5,19.4,51.4,19.4,51.4,19.4z"/>
	</g>
	<g id="XMLID_274_">
		<path id="XMLID_149_" class="st1" d="M53.6,26c-0.1,0-0.2-0.1-0.3-0.2c-1.7-3.9-6.8-3.4-6.9-3.3c-0.2,0-0.3-0.1-0.3-0.2
			c0-0.2,0.1-0.3,0.2-0.3s5.6-0.5,7.4,3.7c0.1,0.1,0,0.3-0.1,0.4C53.7,26,53.6,26,53.6,26z"/>
	</g>
	<g id="XMLID_273_">
		<path id="XMLID_148_" class="st1" d="M52.8,27.9L52.8,27.9c-2.8-1.1-4.7,0-4.8,0c-0.1,0.1-0.3,0-0.4-0.1s0-0.3,0.1-0.4
			s2.2-1.2,5.1,0c0.1,0.1,0.2,0.2,0.2,0.4C53,27.8,52.9,27.9,52.8,27.9z"/>
	</g>
	<g id="XMLID_272_">
		<path id="XMLID_147_" class="st1" d="M56.3,32.9c-0.1,0-0.2,0-0.2-0.1c-1.8-2.1-5.5,0-5.5,0.1c-0.1,0.1-0.3,0-0.4-0.1
			s0-0.3,0.1-0.4c0,0,1-0.5,2.3-0.9c1.8-0.4,3-0.1,3.9,0.9c0.1,0.1,0.1,0.3,0,0.4S56.3,32.9,56.3,32.9z"/>
	</g>
	<g id="XMLID_271_">
		<path id="XMLID_146_" class="st1" d="M54.6,37.2c-0.1,0-0.2-0.1-0.2-0.2c-0.1-0.1,0-0.3,0.1-0.4c0,0,0.7-0.4,1.7-0.7
			c1.3-0.5,2.2-0.5,2.8-0.2c0.1,0.1,0.2,0.2,0.1,0.4c-0.1,0.1-0.2,0.2-0.4,0.1c-0.9-0.5-3.1,0.5-4,0.8
			C54.7,37.1,54.6,37.2,54.6,37.2z"/>
	</g>
	<g id="XMLID_270_">
		<path id="XMLID_145_" class="st1" d="M58.7,40.8c-0.1,0-0.1,0-0.2-0.1s-0.1-0.3-0.1-0.4c0.1-0.1,1.2-1.5,3-1.5
			c0.2,0,0.3,0.1,0.3,0.3s-0.1,0.3-0.3,0.3C59.9,39.4,58.9,40.7,58.7,40.8C58.9,40.8,58.8,40.8,58.7,40.8z"/>
	</g>
	<g id="XMLID_269_">
		<path id="XMLID_144_" class="st1" d="M63.6,43.5c-0.1,0-0.2-0.1-0.3-0.2c0-0.1,0-0.3,0.2-0.4c0,0,0.7-0.3,1.1-1
			c0.1-0.1,0.2-0.2,0.4-0.1c0.1,0.1,0.2,0.2,0.1,0.4C64.6,43.2,63.7,43.5,63.6,43.5C63.7,43.5,63.6,43.5,63.6,43.5z"/>
	</g>
	<g id="XMLID_268_">
		<path id="XMLID_143_" class="st1" d="M45.2,18.2L45.2,18.2l-1.1-1.3v-0.1v-1.1c0-0.1,0-0.1,0.1-0.1l1-0.8h0.1h0.9h0.1l1.2,0.9
			c0.1,0.1,0.1,0.2,0,0.3s-0.2,0.1-0.3,0L46,15.1h-0.8l-0.9,0.7v0.9l0.9,1.1l1.7-0.2c0.1,0,0.2,0.1,0.2,0.2S47,18,46.9,18L45.2,18.2
			C45.3,18.2,45.2,18.2,45.2,18.2z"/>
	</g>
	<g id="XMLID_267_">
		<path id="XMLID_142_" class="st1" d="M47,23.8L47,23.8l-1.7-0.4c-0.1,0-0.1-0.1-0.1-0.1l-0.7-1.6c0-0.1,0-0.1,0-0.2l1.2-1.2
			l0.1-0.1h1.3h0.1l1,0.5c0.1,0,0.1,0.1,0.1,0.2v0.5c0,0.1-0.1,0.2-0.2,0.2s-0.2-0.1-0.2-0.2v-0.5L47,20.4h-1.2l-1.1,1.1l0.5,1.4
			l1.7,0.4l0.9-0.6c0.1-0.1,0.2,0,0.3,0c0.1,0.1,0,0.2,0,0.3l-0.9,0.7C47.1,23.8,47.1,23.8,47,23.8z"/>
	</g>
	<g id="XMLID_266_">
		<path id="XMLID_141_" class="st1" d="M48.3,29c-0.2,0-0.4,0-0.5-0.1c-0.1,0-0.4,0-0.7,0c-0.1,0-0.1,0-0.2-0.1l-0.5-0.5v-0.1
			l-0.2-1.1V27l0.4-0.6l0.1-0.1l1.5-0.5h0.1l1.1,0.5c0.1,0,0.1,0.1,0.1,0.2s-0.1,0.1-0.2,0.1l-1-0.4l-1.4,0.4l-0.3,0.5l0.2,1.1
			l0.5,0.5c0.3,0,0.7-0.1,0.8,0c0.1,0,0.5,0,1,0l0.7-0.8c0.1-0.1,0.2-0.1,0.3,0s0.1,0.2,0,0.3L49.3,29l-0.1,0.1
			C48.9,29,48.5,29,48.3,29z"/>
	</g>
	<g id="XMLID_265_">
		<path id="XMLID_140_" class="st1" d="M50.4,34.3L50.4,34.3l-1.1-0.4c-0.1,0-0.1-0.1-0.1-0.1l-0.5-1.1v-0.1l0.4-1.3
			c0,0,0-0.1,0.1-0.1l0.5-0.3h0.1l1.8,0.3c0.1,0,0.2,0.1,0.2,0.2s-0.1,0.2-0.2,0.2l-1.8-0.3l-0.4,0.3l-0.5,1l0.5,1l1,0.3l0.9-0.3
			v-0.5c0-0.1,0.1-0.2,0.2-0.2s0.2,0.1,0.2,0.2v0.7c0,0.1-0.1,0.2-0.1,0.2L50.4,34.3L50.4,34.3z"/>
	</g>
	<g id="XMLID_264_">
		<path id="XMLID_139_" class="st1" d="M54.7,38.3c-0.3,0-0.5,0-0.5-0.1c0,0-0.5-0.1-0.8-0.3c-0.4-0.2-0.5-0.7-0.5-1.3
			c0-0.4,0.1-0.7,0.2-0.9c0-0.1,0.1-0.1,0.1-0.2c0.1-0.3,0.5-0.4,1.4-0.4s1.3,0.5,1.3,0.5c0.1,0.1,0.1,0.2,0,0.3s-0.2,0.1-0.3,0l0,0
			c0,0-0.4-0.5-1.1-0.5c-0.9,0-1,0.1-1,0.1c0,0.1,0,0.1-0.1,0.2c-0.1,0.2-0.2,0.5-0.2,0.7c0.1,0.5,0.2,0.9,0.5,1
			c0.3,0.2,0.7,0.3,0.7,0.3c0.3,0,0.7,0.1,0.7,0c0.2-0.1,0.5-0.5,0.8-0.7c0.1-0.1,0.2-0.1,0.3,0s0.1,0.2,0,0.3s-0.7,0.6-0.9,0.7
			C55,38.3,54.9,38.3,54.7,38.3z"/>
	</g>
	<g id="XMLID_263_">
		<path id="XMLID_138_" class="st1" d="M59.7,41.4h-1.1h-0.1L57.6,41c-0.1,0-0.1-0.1-0.1-0.2v-0.9v-0.1l0.7-0.7l0.1-0.1h1.2
			c0.1,0,0.2,0.1,0.2,0.2s-0.1,0.2-0.2,0.2h-1.1L57.8,40v0.8l0.7,0.5h1l0.5-0.7c0.1-0.1,0.2-0.1,0.3,0s0.1,0.2,0,0.3l-0.5,0.5
			C59.8,41.4,59.8,41.4,59.7,41.4z"/>
	</g>
	<g id="XMLID_262_">
		<path id="XMLID_137_" class="st1" d="M64.3,44.6L64.3,44.6l-1.1-0.3c0,0-0.1,0-0.1-0.1l-0.7-0.8l-0.1-0.1v-1.1
			c0-0.1,0.1-0.2,0.2-0.2h1c0.1,0,0.2,0.1,0.2,0.2s-0.1,0.2-0.2,0.2h-0.8v0.9l0.7,0.7l0.9,0.3l0.2-0.2v-0.4c0-0.1,0.1-0.2,0.2-0.2
			s0.2,0.1,0.2,0.2v0.5v0.1L64.3,44.6C64.4,44.5,64.3,44.6,64.3,44.6z"/>
	</g>
</g>
<g class="st2">
	<path d="M42.1,91.4v-7.8h2.4c0.4,0,0.8,0,1.1,0.1s0.6,0.2,0.9,0.3s0.4,0.3,0.6,0.6c0.1,0.2,0.2,0.6,0.2,0.9c0,0.4-0.1,0.7-0.3,1
		s-0.6,0.5-1,0.7l0,0c0.6,0.1,1,0.3,1.3,0.6c0.3,0.3,0.5,0.7,0.5,1.3c0,0.4-0.1,0.7-0.2,1s-0.4,0.5-0.6,0.7
		c-0.3,0.2-0.6,0.3-0.9,0.4c-0.4,0.1-0.8,0.1-1.2,0.1h-2.8V91.4z M43.5,86.7h0.9c0.6,0,0.9-0.1,1.2-0.3c0.2-0.2,0.4-0.5,0.4-0.8
		c0-0.4-0.1-0.6-0.4-0.8c-0.2-0.1-0.6-0.2-1.1-0.2h-0.9v2.1H43.5z M43.5,90.3h1.1c0.6,0,1-0.1,1.3-0.3c0.3-0.2,0.5-0.5,0.5-1
		c0-0.4-0.1-0.7-0.4-0.9s-0.7-0.3-1.3-0.3h-1.1L43.5,90.3L43.5,90.3z"/>
	<path d="M51.9,91.5c-0.5,0-0.9-0.1-1.3-0.3c-0.4-0.2-0.7-0.4-1-0.8s-0.5-0.8-0.6-1.3c-0.2-0.5-0.2-1.1-0.2-1.8
		c0-0.6,0.1-1.2,0.2-1.7c0.2-0.5,0.4-0.9,0.6-1.3c0.3-0.3,0.6-0.6,1-0.8c0.4-0.2,0.8-0.3,1.3-0.3s0.9,0.1,1.3,0.3
		c0.4,0.2,0.7,0.4,1,0.8c0.3,0.3,0.5,0.8,0.6,1.3c0.2,0.5,0.2,1.1,0.2,1.7c0,0.7-0.1,1.2-0.2,1.8c-0.2,0.5-0.4,0.9-0.6,1.3
		c-0.3,0.3-0.6,0.6-1,0.8S52.3,91.5,51.9,91.5z M51.9,90.3c0.5,0,0.9-0.2,1.2-0.8c0.3-0.5,0.4-1.2,0.4-2.1s-0.1-1.6-0.4-2.1
		c-0.3-0.5-0.7-0.7-1.2-0.7s-0.9,0.2-1.2,0.7s-0.5,1.2-0.5,2.1s0.2,1.6,0.5,2.1S51.3,90.3,51.9,90.3z"/>
	<path d="M58.4,91.4v-6.7h-2.5v-1.2h6.3v1.2h-2.5v6.7H58.4z"/>
	<path d="M62.9,91.4l2.5-7.8H67l2.5,7.8H68l-0.6-2.1h-2.6l-0.6,2.1H62.9z M65.5,87.2l-0.3,1h2l-0.3-1c-0.1-0.4-0.2-0.8-0.3-1.3
		c-0.1-0.4-0.2-0.9-0.3-1.3l0,0c-0.1,0.4-0.2,0.9-0.3,1.3C65.7,86.4,65.6,86.8,65.5,87.2z"/>
	<path d="M73.5,91.5c-0.6,0-1.1-0.1-1.6-0.3c-0.5-0.2-1-0.5-1.3-0.9l0.8-0.9c0.3,0.3,0.6,0.5,1,0.6c0.4,0.2,0.8,0.2,1.2,0.2
		c0.5,0,0.8-0.1,1-0.3c0.2-0.2,0.4-0.4,0.4-0.7c0-0.2,0-0.3-0.1-0.4s-0.2-0.2-0.3-0.3s-0.3-0.2-0.4-0.2c-0.2-0.1-0.3-0.1-0.5-0.2
		l-1.1-0.4c-0.2-0.1-0.4-0.2-0.6-0.3c-0.2-0.1-0.4-0.3-0.5-0.4c-0.2-0.2-0.3-0.4-0.4-0.6S71,85.9,71,85.6s0.1-0.6,0.2-0.9
		s0.3-0.5,0.6-0.7c0.2-0.2,0.5-0.4,0.9-0.5c0.3-0.1,0.7-0.2,1.1-0.2c0.5,0,0.9,0.1,1.4,0.3c0.4,0.2,0.8,0.4,1.1,0.7l-0.7,0.9
		c-0.3-0.2-0.5-0.4-0.8-0.5s-0.6-0.2-1-0.2s-0.7,0.1-0.9,0.2s-0.3,0.4-0.3,0.7c0,0.2,0,0.3,0.1,0.4s0.2,0.2,0.3,0.3
		c0.1,0.1,0.3,0.2,0.4,0.2c0.2,0.1,0.3,0.1,0.5,0.2l1,0.4c0.2,0.1,0.5,0.2,0.7,0.3s0.4,0.3,0.5,0.4s0.3,0.4,0.4,0.6s0.1,0.5,0.1,0.8
		s-0.1,0.6-0.2,0.9s-0.3,0.5-0.6,0.7s-0.6,0.4-0.9,0.5C74.3,91.5,73.9,91.5,73.5,91.5z"/>
</g>
</svg>
