<svg xmlns="http://www.w3.org/2000/svg" width="317.062" height="36.014" viewBox="0 0 317.062 36.014"><defs><style>.a{fill:#fff;}</style></defs><g transform="translate(0 0)"><g transform="translate(56.699 3.662)"><path class="a" d="M97.824,153.29c-6.15-1.173-9.929-5.073-10.047-11.226-.132-6.906-.023-13.816-.019-20.724h9.93c.047.359.043,12.518.059,18.8a10.782,10.782,0,0,0,.215,2.189,3.181,3.181,0,0,0,3.16,2.717,11.466,11.466,0,0,0,1.249,0,3.181,3.181,0,0,0,3.16-2.717,10.781,10.781,0,0,0,.215-2.189c.016-6.287.011-18.446.059-18.8h9.93c0,6.908.114,13.818-.019,20.724-.118,6.153-3.936,10.054-10.087,11.226a19.6,19.6,0,0,1-3.832.355A20.338,20.338,0,0,1,97.824,153.29Z" transform="translate(-87.712 -121.34)"/></g><g transform="translate(0 3.646)"><path class="a" d="M48.674,121.349c5.04,0,11.805-.068,15.681,0,4.912.087,10.285,4.1,10.555,11.192a8.572,8.572,0,0,1-3.9,7.946c-.543.363-1.115.681-1.715,1.044,2.187,3.692,6.715,11.2,6.715,11.261.015-.019-10.182,0-10.182,0-1.584-2.853-5.291-9.571-5.424-9.832H57.972v9.832h-9.3C48.674,152.367,48.7,121.713,48.674,121.349ZM57.983,136.5c1.539,0,2.943.066,4.337-.015a3.272,3.272,0,0,0,3.313-3.5,3.556,3.556,0,0,0-3.313-3.655c-.014,0-4.314-.022-4.314,0C58.006,131.535,57.983,134.177,57.983,136.5Z" transform="translate(-20.838 -121.318)"/><path class="a" d="M36.284,121.359v7.8H28.611v23.627H19.383V129.232H11.025v-7.873Z" transform="translate(-11.025 -121.329)"/></g><g transform="translate(87.743 3.634)"><path class="a" d="M150.49,152.781H129.7V121.3h20.134v7.748H139.062v4.5h9.963v6.711h-9.967v4.687H150.49Z" transform="translate(-129.699 -121.302)"/></g><path class="a" d="M290.6,152.779H270.8V121.294h9.166v22.883H290.6Z" transform="translate(-78.732 -117.666)"/><path class="a" d="M232.255,140.061a8.489,8.489,0,0,1-4.937,3.981c-4.173,1.091-7.889-1.166-9.363-5.174a8.707,8.707,0,0,1,3.972-10.751,7.78,7.78,0,0,1,10.15,3.163c2.346-1.58,4.524-3.405,6.857-4.976a16.469,16.469,0,0,0-5.678-5.127,17.154,17.154,0,0,0-16.519.533,17.814,17.814,0,0,0-5.919,6.328A11.184,11.184,0,0,0,204,126.093a14.2,14.2,0,0,1-3.264.143c-.374-.1-2.2-4.527-6.131-7.151-3.375-2.252-6.553-2.594-9.887-2.693a16.1,16.1,0,0,0-8,2.055c-2.176,1.171-3.977,3.519-5.426,5.5-.543.742-.678.68-1.075.714a12.6,12.6,0,0,0-8,3.907,13.916,13.916,0,0,0-2.227,3.626,11.722,11.722,0,0,0-.115,8.73,11.287,11.287,0,0,0,3.767,5.152,15.093,15.093,0,0,0,6.893,2.377,15.874,15.874,0,0,0,6.549-.48,1.123,1.123,0,0,1,1.284.236c2.216,1.7,5.671,1.862,8.561,1.766,4.322-.145,6.129-1.711,8.354-2.831.539-.272.719-.181,1.222.1a17.917,17.917,0,0,0,2.858,1.646,12.614,12.614,0,0,0,7.65.4,14.888,14.888,0,0,0,1.786-.647,11.9,11.9,0,0,0,2.988-1.871,10.17,10.17,0,0,0,.76-.739,16.434,16.434,0,0,0,11.349,6.235c.512.054,1.243.07,1.759.074a15.615,15.615,0,0,0,1.689-.074c4.143-.41,9.676-3.161,12.159-7.932C239.5,144.334,232.216,140.154,232.255,140.061Zm-27.392,6.386c-3.223.261-5.745-1.014-8.24-2.954-.777-.777-1.039-.054-2.87.883-5.523,2.726-10.225,3.091-15.706-.266-.236-.117-.7.087-.954.164a13.427,13.427,0,0,1-8.543.09,7.521,7.521,0,0,1-5.163-4.2,10.108,10.108,0,0,1-.591-4.566,9.372,9.372,0,0,1,8.314-7.76c2.065.13,1.972-.711,2.681-1.655,4.984-7.832,15.928-7.673,21.338-2.211,1.382,1.4,1.821,2.182,3.228,5.069.7,1.756,1.612,1.517,2.224,1.229a8.477,8.477,0,0,1,2.768-.853c4.959-.485,8.521,3.212,8.931,7.967C212.538,141.427,209.312,146.087,204.863,146.447Z" transform="translate(-49.614 -116.387)"/><g transform="translate(212.029 2.92)"><path class="a" d="M314.478,153.261a17.779,17.779,0,0,1-11.753-4.827,16.21,16.21,0,0,1,3.062-25.617,17.419,17.419,0,0,1,5.525-2.06c6.638-1.266,12.548.272,17.206,5.293A15.83,15.83,0,0,1,332.66,136.1a16.2,16.2,0,0,1-3.265,10.482,16.4,16.4,0,0,1-4.46,4.006A18.807,18.807,0,0,1,314.478,153.261Zm.7-8.162a8.271,8.271,0,1,0,.2-16.536c-5.04-.017-8.65,3.377-8.723,8.2A8.218,8.218,0,0,0,315.177,145.1Z" transform="translate(-297.798 -120.337)"/></g><g transform="translate(305.507 3.66)"><path class="a" d="M425.921,122.47h-1.693v-1.132h4.68v1.132h-1.693v4.49h-1.294Zm4.184-1.132h1.365l1.493,2.373,1.493-2.373h1.325v5.622h-1.217v-3.8L433,125.626h-.108l-1.569-2.462v3.8h-1.217Z" transform="translate(-424.228 -121.338)"/></g><g transform="translate(248.843 3.707)"><path class="a" d="M357.7,153.352c-6.151-1.173-9.929-5.074-10.047-11.227-.133-6.906-.024-13.816-.019-20.724h9.93c.047.359.043,12.518.059,18.806a10.741,10.741,0,0,0,.214,2.189A3.183,3.183,0,0,0,361,145.113a11.474,11.474,0,0,0,1.249,0,3.183,3.183,0,0,0,3.16-2.717,10.789,10.789,0,0,0,.215-2.189c.016-6.287.011-18.447.059-18.806h9.93c0,6.909.113,13.818-.019,20.724-.118,6.153-3.936,10.054-10.086,11.227a19.661,19.661,0,0,1-3.833.355A20.4,20.4,0,0,1,357.7,153.352Z" transform="translate(-347.589 -121.401)"/></g><path class="a" d="M417.879,136.42a19.277,19.277,0,0,1-2.38,8.938,15.356,15.356,0,0,1-13,7.415c-2.229.047-12.286.019-12.286.019V121.356c.177-.021,8.4-.089,12.286.052,5.165.187,10.188,2.3,13,6.766A15.124,15.124,0,0,1,417.879,136.42ZM399.4,129.178v15.776c1.2,0,2.34.086,3.466-.016a6.068,6.068,0,0,0,5.709-4.717,12.2,12.2,0,0,0,.14-6.3c-.6-2.529-2.107-4.174-5.849-4.481A18.809,18.809,0,0,0,399.4,129.178Z" transform="translate(-109.856 -117.673)"/></g></svg>