<?xml version="1.0" encoding="utf-8"?>
<!-- Generator: Adobe Illustrator 25.2.1, SVG Export Plug-In . SVG Version: 6.00 Build 0)  -->
<svg version="1.1" id="Layer_1" xmlns="http://www.w3.org/2000/svg" xmlns:xlink="http://www.w3.org/1999/xlink" x="0px" y="0px"
	 viewBox="0 0 1008 612" style="enable-background:new 0 0 1008 612;" xml:space="preserve">
<style type="text/css">
	.st0{fill:#FFFFFF;}
</style>
<g>
	<g id="XMLID_1_">
		<g id="XMLID_4_">
			<path id="XMLID_8_" class="st0" d="M725.03,271.67l-22.05,6.24c5.83,11.66,19.18,34.97,19.18,34.97l-26.68,0.82l-23.72-28.3
				c-11.64,2.5-38.08,8.43-38.08,8.43l10.65,19.88l-19.19,2.27l-14.94-19.35c0,0-54.54,15.83-81.17,24.15l-1.67,2.5
				c0.43,29.96,2.5,59.53,5.84,88.22l2.51,6.26c50.76,9.57,101.93,12.07,155.63,14.97l4.99-2.07c14.56-20.82,22.89-44.11,30.8-67.85
				C735.44,335.34,737.51,297.46,725.03,271.67 M285.57,259.2c-3.74,8.31-3.33,20.37-2.5,29.12c4.99-7.91,16.92-23.67,16.92-23.67
				L285.57,259.2z M434.98,257.93l-62.43,51.19l-29.96,1.26c0,0,12.12-13.59,16.29-21.09c-10.82-4.99-22.95-10.12-34.18-13.47
				l-22.06,29.55c-7.08,0.84-14.95,0-20.39,2.5c-1.67,24.56,3.74,47.46,8.32,70.33c2.1,5.85,3.76,15.83,12.49,14.99
				c61.58,0,119.43,9.57,180.21,15.83v-93.23c-2.94-6.24-11.01-17.47-15.18-22.46l-28.13,16.63l-51.58,0.43
				c-0.44-0.84,42.47-24.58,62.01-37.46C444.96,267.5,441.63,261.27,434.98,257.93 M574.82,251.69l-18.32,29.96l20.82-1.93
				l18.63-30.7L574.82,251.69z M279.04,229.32l34.37,15.93l10.75-17.84L279.04,229.32z M360.38,223.38l-19.45,29.98l39.58,15.31
				l32.83-28.63l-12.49-13.31L360.38,223.38z M504.9,220.9L491,227.65l0.85,19.28l11.38,3.93L504.9,220.9z M454.14,200.51
				l-11.25,22.46l21.64,24.58C461.61,231.31,458.28,215.91,454.14,200.51 M532.35,206.75l2.09,48.28l36.2-46.2
				c3.28-3.42,4.36-9.66,4.36-9.66l-6.92-21.77L532.35,206.75z M636.21,176.05l-16.85,1.98l-26.46,41.82l17.11-0.51L636.21,176.05z
				 M418.74,156.43l1.68,46.98l17.91-40.78L418.74,156.43z M555.01,145.39l-11.61,7.73l2.44,8.65l10.63-9.84L555.01,145.39z
				 M352.16,133.49v1.67c13.33,13.31,39.99,43.07,39.99,43.07v-33.52L352.16,133.49z M417.5,103.12v25.38l12.48,2.92
				C427.08,121.43,422.08,112.28,417.5,103.12 M495.33,100.2l-26.71,50.69L484.49,203l23.35-16.37l6.22-43.55
				C507.8,128.5,501.99,113.53,495.33,100.2 M532.78,124.35l13.72-2.92c0,0-20.8-46.59-29.53-70.33c7.5-0.41,14.58,0,21.23,1.67
				c10.43,17.59,29.12,52.44,29.12,52.44s32.46-18.32,49.1-27.06c5.01,0.84,10,4.15,13.74,7.91l-49.84,44.2l14.6,41.27
				c0,0,35.24-49.68,52.73-73.41c6.24,0.82,11.25,6.26,14.97,10.82c-7.06,12.9-17.89,24.97-23.31,37.45
				c21.23,1.67,42.45,0.85,63.25,2.51c5.4,6.24,11.66,13.31,14.17,21.21l-52.86,4.17l-25.14,43.53l34.22-7.54
				c0,0,26.66-11.07,54.61-21.86c4.99,6.68,7.9,13.74,9.96,21.65l-56.98,22.88l-50.78,10.82c-7.5,8.34-11.66,17.89-17.48,26.64
				c45.36-8.32,89.47-22.88,135.28-32.05c20.39,68.67,8.72,146.08-28.32,203.93c-123.6,31.21-254.69-8.32-382.45,8.73l-37.05,4.56
				c-26.22-32.03-39.53-71.15-46.61-111.93c-6.25-44.54-1.25-92.82,14.99-132.35c3.67-0.55,60.08-5.57,60.08-5.57l-34.7-41.87
				c1.27-7.06,7.49-12.48,12.07-18.3c18.1,18.9,52.03,57.43,52.03,57.43l19.14-1.66l-59.51-67.85c5.81-9.14,15.81-18.71,24.56-24.95
				l50.35,9.14c0,0-0.43-27.04,0.43-42.03c10.39-5.83,22.03-10.8,33.28-12.9c10,17.89,17.48,37.04,28.32,54.93
				c12.85-20.8,24.12-44.09,35.77-66.59c1.25-0.84,3.76-1.66,5.42-0.41L532.78,124.35z"/>
			<path id="XMLID_7_" class="st0" d="M709.66,457.72c-15.42,20.8-35.4,42.03-57.84,57c-116.54-1.66-223.5-33.29-337.12-38.71
				c-3.74-3.32-7.49-7.06-8.72-12.05c88.63-15.43,178.5-6.67,266.33-1.25c45.79,2.07,94.07-0.85,137.74-9.16L709.66,457.72z"/>
			<path id="XMLID_5_" class="st0" d="M535.28,513.05c33.7,3.74,67.82,6.65,101.55,10.82c-70.35,49.09-182.31,49.94-255.13,7.06
				c-19.96-12.48-41.17-25.79-57.02-44.52c0.84-2.5,4.97-0.39,7.49-1.66l48.26,4.17L535.28,513.05z"/>
		</g>
	</g>
	<g id="XMLID_156_">
		<g id="XMLID_157_">
			<path id="XMLID_177_" class="st0" d="M717.79,111.16c2.13,0,4.02-0.15,4.02-2.68c0-2.05-1.84-2.42-3.6-2.42h-3.4v5.1H717.79z
				 M714.82,120.42h-2.5v-16.47h6.29c3.89,0,5.83,1.43,5.83,4.68c0,2.95-1.87,4.23-4.29,4.53l4.7,7.26h-2.8l-4.34-7.14h-2.88V120.42
				z M717.84,124.09c6.47,0,11.55-5.06,11.55-11.95c0-6.76-5.08-11.86-11.55-11.86c-6.53,0-11.63,5.1-11.63,11.86
				C706.21,119.03,711.31,124.09,717.84,124.09 M703.34,112.14c0-8.19,6.65-14.24,14.49-14.24c7.78,0,14.44,6.05,14.44,14.24
				c0,8.27-6.66,14.33-14.44,14.33C709.99,126.47,703.34,120.42,703.34,112.14"/>
		</g>
	</g>
</g>
<g>
	<g id="XMLID_29_">
		<g id="XMLID_30_">
			<path id="XMLID_33_" d="M725.03,1071.67l-22.05,6.24c5.83,11.66,19.18,34.97,19.18,34.97l-26.68,0.82l-23.72-28.3
				c-11.64,2.5-38.08,8.43-38.08,8.43l10.65,19.88l-19.19,2.27l-14.94-19.35c0,0-54.54,15.83-81.17,24.15l-1.67,2.5
				c0.43,29.96,2.5,59.53,5.84,88.22l2.51,6.26c50.76,9.57,101.93,12.07,155.63,14.97l4.99-2.07c14.56-20.82,22.89-44.11,30.8-67.85
				C735.44,1135.34,737.51,1097.46,725.03,1071.67 M285.57,1059.2c-3.74,8.31-3.33,20.37-2.5,29.12
				c4.99-7.91,16.92-23.67,16.92-23.67L285.57,1059.2z M434.98,1057.93l-62.43,51.19l-29.96,1.26c0,0,12.12-13.59,16.29-21.09
				c-10.82-4.99-22.95-10.12-34.18-13.47l-22.06,29.55c-7.08,0.84-14.95,0-20.39,2.5c-1.67,24.56,3.74,47.46,8.32,70.33
				c2.1,5.84,3.76,15.83,12.49,14.99c61.58,0,119.43,9.57,180.21,15.83v-93.23c-2.94-6.24-11.01-17.47-15.18-22.46l-28.13,16.63
				l-51.58,0.43c-0.44-0.84,42.47-24.58,62.01-37.46C444.96,1067.5,441.63,1061.27,434.98,1057.93 M574.82,1051.69l-18.32,29.96
				l20.82-1.93l18.63-30.7L574.82,1051.69z M279.04,1029.32l34.37,15.93l10.75-17.84L279.04,1029.32z M360.38,1023.38l-19.45,29.98
				l39.58,15.31l32.83-28.63l-12.49-13.31L360.38,1023.38z M504.9,1020.9l-13.89,6.75l0.85,19.28l11.38,3.93L504.9,1020.9z
				 M454.14,1000.51l-11.25,22.46l21.64,24.58C461.61,1031.31,458.28,1015.91,454.14,1000.51 M532.35,1006.75l2.09,48.28l36.2-46.2
				c3.28-3.42,4.36-9.66,4.36-9.66l-6.92-21.77L532.35,1006.75z M636.21,976.05l-16.85,1.98l-26.46,41.82l17.11-0.51L636.21,976.05z
				 M418.74,956.43l1.68,46.98l17.91-40.78L418.74,956.43z M555.01,945.39l-11.61,7.73l2.44,8.65l10.63-9.84L555.01,945.39z
				 M352.16,933.49v1.67c13.33,13.31,39.99,43.07,39.99,43.07v-33.52L352.16,933.49z M417.5,903.12v25.38l12.48,2.92
				C427.08,921.43,422.08,912.28,417.5,903.12 M495.33,900.2l-26.71,50.69l15.88,52.11l23.35-16.37l6.22-43.55
				C507.8,928.5,501.99,913.53,495.33,900.2 M532.78,924.35l13.72-2.92c0,0-20.8-46.59-29.53-70.33c7.5-0.41,14.58,0,21.23,1.67
				c10.43,17.59,29.12,52.44,29.12,52.44s32.46-18.32,49.1-27.06c5.01,0.84,10,4.15,13.74,7.91l-49.84,44.2l14.6,41.27
				c0,0,35.24-49.68,52.73-73.41c6.24,0.82,11.25,6.26,14.97,10.82c-7.06,12.9-17.89,24.97-23.31,37.45
				c21.23,1.67,42.45,0.85,63.25,2.51c5.4,6.24,11.66,13.31,14.17,21.21l-52.86,4.17l-25.14,43.53l34.22-7.54
				c0,0,26.66-11.07,54.61-21.86c4.99,6.68,7.9,13.74,9.96,21.65l-56.98,22.88l-50.78,10.82c-7.5,8.34-11.66,17.89-17.48,26.64
				c45.36-8.32,89.47-22.89,135.28-32.05c20.39,68.67,8.72,146.08-28.32,203.93c-123.6,31.21-254.69-8.32-382.45,8.73l-37.05,4.56
				c-26.22-32.03-39.53-71.15-46.61-111.93c-6.25-44.54-1.25-92.82,14.99-132.35c3.67-0.55,60.08-5.57,60.08-5.57l-34.7-41.87
				c1.27-7.06,7.49-12.48,12.07-18.3c18.1,18.9,52.03,57.43,52.03,57.43l19.14-1.66l-59.51-67.85c5.81-9.14,15.81-18.71,24.56-24.95
				l50.35,9.14c0,0-0.43-27.04,0.43-42.03c10.39-5.83,22.03-10.8,33.28-12.9c10,17.89,17.48,37.04,28.32,54.93
				c12.85-20.8,24.12-44.09,35.77-66.59c1.25-0.84,3.76-1.66,5.42-0.41L532.78,924.35z"/>
			<path id="XMLID_32_" d="M709.66,1257.72c-15.42,20.8-35.4,42.03-57.84,57c-116.54-1.66-223.5-33.29-337.12-38.71
				c-3.74-3.32-7.49-7.06-8.72-12.05c88.63-15.43,178.5-6.67,266.33-1.25c45.79,2.07,94.07-0.85,137.74-9.16L709.66,1257.72z"/>
			<path id="XMLID_31_" d="M535.28,1313.05c33.7,3.74,67.82,6.65,101.55,10.82c-70.35,49.09-182.31,49.94-255.13,7.06
				c-19.96-12.48-41.17-25.79-57.02-44.52c0.84-2.5,4.97-0.39,7.49-1.66l48.26,4.17L535.28,1313.05z"/>
		</g>
	</g>
	<g id="XMLID_2_">
		<g id="XMLID_3_">
			<path id="XMLID_6_" d="M717.79,911.16c2.13,0,4.02-0.15,4.02-2.68c0-2.05-1.84-2.42-3.6-2.42h-3.4v5.1H717.79z M714.82,920.42
				h-2.5v-16.47h6.29c3.89,0,5.83,1.43,5.83,4.68c0,2.95-1.87,4.23-4.29,4.53l4.7,7.26h-2.8l-4.34-7.14h-2.88V920.42z
				 M717.84,924.09c6.47,0,11.55-5.06,11.55-11.95c0-6.76-5.08-11.86-11.55-11.86c-6.53,0-11.63,5.1-11.63,11.86
				C706.21,919.03,711.31,924.09,717.84,924.09 M703.34,912.14c0-8.19,6.65-14.24,14.49-14.24c7.78,0,14.44,6.05,14.44,14.24
				c0,8.27-6.66,14.33-14.44,14.33C709.99,926.47,703.34,920.42,703.34,912.14"/>
		</g>
	</g>
</g>
</svg>
