<svg id="vtex" xmlns="http://www.w3.org/2000/svg" width="69.192" height="24.865" viewBox="0 0 69.192 24.865">
  <g id="vtex-logo">
    <path id="Shape" d="M252.482,44.132H250v8.49a.3.3,0,0,1-.293.293h-1.915a.3.3,0,0,1-.293-.293v-8.49h-2.5a.3.3,0,0,1-.207-.069.286.286,0,0,1-.086-.207v-1.5a.318.318,0,0,1,.086-.207.222.222,0,0,1,.207-.069h7.472a.316.316,0,0,1,.311.276v1.5A.288.288,0,0,1,252.482,44.132Z" transform="translate(-202.461 -34.814)"/>
    <path id="Trazado_89" data-name="Trazado 89" d="M304.788,52.21a18.831,18.831,0,0,1-2.951.19c-1.881,0-3.537-.483-3.537-3.14V44.411c0-2.657,1.674-3.123,3.555-3.123a18.48,18.48,0,0,1,2.933.19c.207.035.293.1.293.293v1.363a.3.3,0,0,1-.293.293h-3.071c-.673,0-.932.224-.932,1v1.329h3.9a.3.3,0,0,1,.293.293v1.38a.3.3,0,0,1-.293.293h-3.9v1.553c0,.759.242,1,.932,1h3.071a.3.3,0,0,1,.293.293v1.363C305.081,52.089,305,52.175,304.788,52.21Z" transform="translate(-246.812 -34.161)"/>
    <path id="Trazado_90" data-name="Trazado 90" d="M355.1,52.926h-2.312a.4.4,0,0,1-.38-.224l-2.019-3.175-1.812,3.123c-.1.173-.207.293-.362.293h-2.157a.166.166,0,0,1-.155-.035.219.219,0,0,1-.069-.155.245.245,0,0,1,.034-.1l3.158-5.263-3.192-5.021c-.017-.035-.035-.052-.035-.086a.2.2,0,0,1,.224-.19h2.347c.155,0,.276.138.362.276l1.864,2.951,1.812-2.951a.457.457,0,0,1,.362-.276h2.157a.191.191,0,0,1,.224.19.132.132,0,0,1-.035.086L351.943,47.4l3.313,5.228c.017.052.034.086.052.138A.181.181,0,0,1,355.1,52.926Z" transform="translate(-286.115 -34.825)"/>
    <path id="Trazado_91" data-name="Trazado 91" d="M188.989,42.2a.224.224,0,0,0-.224.173l-2.122,7.851c-.034.155-.069.224-.207.224s-.173-.052-.207-.224l-2.105-7.834a.208.208,0,0,0-.224-.173h-2.088a.277.277,0,0,0-.19.086.2.2,0,0,0-.052.19s2.588,8.99,2.623,9.093a2.2,2.2,0,0,0,2.243,1.587,2.269,2.269,0,0,0,2.243-1.587c.035-.121,2.571-9.093,2.571-9.093a.2.2,0,0,0-.052-.19.239.239,0,0,0-.173-.086Z" transform="translate(-150.218 -34.918)"/>
    <path id="Trazado_92" data-name="Trazado 92" d="M26.861,0H5.119A2.232,2.232,0,0,0,3.2,1.1a2.286,2.286,0,0,0-.069,2.209L5.309,7.454H1.357a1.421,1.421,0,0,0-1.242.673A1.428,1.428,0,0,0,.08,9.542L7.069,22.759a1.443,1.443,0,0,0,1.277.776,1.423,1.423,0,0,0,1.277-.776l1.9-3.589,2.381,4.5a2.249,2.249,0,0,0,3.969,0l10.905-20.5A2.15,2.15,0,0,0,26.861,0ZM17.146,8.662,12.384,17.6a.936.936,0,0,1-1.657,0L6,8.748a.878.878,0,0,1,.776-1.294H16.4a.784.784,0,0,1,.707.4A.8.8,0,0,1,17.146,8.662Z" transform="translate(0.09)"/>
  </g>
</svg>
