<svg xmlns="http://www.w3.org/2000/svg" width="47.996" height="46.338" viewBox="0 0 47.996 46.338"><defs><style>.a{fill:#dedede;}</style></defs><g transform="translate(0 -8.846)"><g transform="translate(0 14.286)"><g transform="translate(0 0)"><path class="a" d="M40.865,100.086a3.15,3.15,0,0,0-1.584-2.338l-8.3-4.67a3.276,3.276,0,0,0-3.909.537L24.156,96.53a1.717,1.717,0,0,1-2.224.173A54.339,54.339,0,0,1,11.011,85.782a1.717,1.717,0,0,1,.173-2.224L14.1,80.643a3.276,3.276,0,0,0,.537-3.909l-4.669-8.3a3.149,3.149,0,0,0-2.338-1.584,3.344,3.344,0,0,0-2.838.97L1.716,70.892c-2.172,2.172-2.286,6.061-.322,10.95A45.465,45.465,0,0,0,11.464,96.25a45.459,45.459,0,0,0,14.407,10.07,17,17,0,0,0,6.2,1.395A6.478,6.478,0,0,0,36.821,106l3.075-3.075A3.345,3.345,0,0,0,40.865,100.086ZM38.8,101.824l-.537.537L31.182,98.5a.777.777,0,0,0-.744,1.365l6.675,3.641L35.721,104.9c-1.679,1.679-5.058,1.671-9.27-.022a43.9,43.9,0,0,1-13.888-9.727A43.9,43.9,0,0,1,2.837,81.262c-1.693-4.213-1.7-7.592-.022-9.271L4.207,70.6l.744,1.364a.777.777,0,1,0,1.365-.745l-.963-1.766.537-.537a1.816,1.816,0,0,1,1.286-.545,1.785,1.785,0,0,1,.241.016,1.607,1.607,0,0,1,1.194.806l4.669,8.3A1.716,1.716,0,0,1,13,79.544l-1.387,1.387-3.64-6.674A.777.777,0,1,0,6.607,75l3.859,7.075-.382.382a3.28,3.28,0,0,0-.322,4.251A55.884,55.884,0,0,0,21,97.951a3.28,3.28,0,0,0,4.251-.322l.382-.382,1.765.963a.777.777,0,0,0,.744-1.365L26.783,96.1l1.387-1.387a1.716,1.716,0,0,1,2.048-.281l8.3,4.669a1.607,1.607,0,0,1,.806,1.194A1.8,1.8,0,0,1,38.8,101.824Z" transform="translate(0 -66.817)"/></g></g><g transform="translate(29.019 21.281)"><path class="a" d="M317.884,149.014H317v-6.693a.778.778,0,0,0-1.557,0v6.693h-4.063l1.45-6.524a.778.778,0,0,0-1.52-.338l-1.66,7.471a.778.778,0,0,0,.76.947h5.033v2.542a.778.778,0,0,0,1.557,0V150.57h.882a.778.778,0,0,0,0-1.557Z" transform="translate(-309.634 -141.542)"/></g><g transform="translate(19.9 21.281)"><path class="a" d="M219.743,152.336h-5.728c.339-.892,1.3-1.459,2.679-2.213,1.705-.931,3.828-2.089,3.828-4.718a4.106,4.106,0,0,0-8.2,0,.778.778,0,1,0,1.557,0,2.554,2.554,0,0,1,5.085,0c0,1.59-1.14,2.327-3.017,3.351-1.7.927-3.624,1.978-3.624,4.357a.778.778,0,0,0,.778.778h6.641a.778.778,0,0,0,0-1.557Z" transform="translate(-212.323 -141.544)"/></g><g transform="translate(13.234 8.846)"><path class="a" d="M172.061,41.237l-1.516.3a19.042,19.042,0,1,0-28.853-24.6.778.778,0,1,0,1.273.9,17.485,17.485,0,1,1,26.345,22.734l.347-1.735a.778.778,0,1,0-1.526-.305l-.83,4.151a.778.778,0,0,0,.916.916l4.151-.83a.778.778,0,1,0-.305-1.526Z" transform="translate(-141.55 -8.846)"/></g><g transform="translate(28.196 12.167)"><g transform="translate(0 0)"><path class="a" d="M301.567,44.232a.778.778,0,0,0-.778.778v1.66a.778.778,0,0,0,1.557,0V45.01A.778.778,0,0,0,301.567,44.232Z" transform="translate(-300.789 -44.232)"/></g></g><g transform="translate(41.459 27.09)"><path class="a" d="M444.771,203.47h-1.66a.778.778,0,0,0,0,1.557h1.66a.778.778,0,0,0,0-1.557Z" transform="translate(-442.333 -203.47)"/></g><g transform="translate(15.268 19.626)"><path class="a" d="M165.491,124.785l-1.438-.83a.778.778,0,1,0-.778,1.348l1.438.83a.778.778,0,0,0,.778-1.348Z" transform="translate(-162.886 -123.85)"/></g><g transform="translate(39.679 33.723)"><path class="a" d="M425.975,275.175l-1.438-.83a.778.778,0,1,0-.778,1.348l1.438.83a.778.778,0,0,0,.778-1.348Z" transform="translate(-423.369 -274.24)"/></g><g transform="translate(34.829 14.168)"><g transform="translate(0 0)"><path class="a" d="M373.559,65.67a.778.778,0,0,0-1.063.285l-.83,1.438a.778.778,0,1,0,1.348.778l.83-1.438A.778.778,0,0,0,373.559,65.67Z" transform="translate(-371.562 -65.565)"/></g></g><g transform="translate(20.732 38.579)"><path class="a" d="M223.167,326.154a.778.778,0,0,0-1.063.285l-.83,1.438a.778.778,0,1,0,1.348.778l.83-1.438A.778.778,0,0,0,223.167,326.154Z" transform="translate(-221.17 -326.049)"/></g><g transform="translate(39.679 19.626)"><path class="a" d="M426.26,124.239a.778.778,0,0,0-1.063-.285l-1.438.83a.778.778,0,1,0,.778,1.348l1.438-.83A.778.778,0,0,0,426.26,124.239Z" transform="translate(-423.37 -123.85)"/></g><g transform="translate(15.268 33.723)"><path class="a" d="M165.775,274.63a.778.778,0,0,0-1.063-.285l-1.438.83a.778.778,0,1,0,.778,1.348l1.438-.83A.779.779,0,0,0,165.775,274.63Z" transform="translate(-162.885 -274.24)"/></g><g transform="translate(20.732 14.168)"><g transform="translate(0 0)"><path class="a" d="M223.452,67.392l-.83-1.438a.778.778,0,1,0-1.348.778l.83,1.438a.778.778,0,1,0,1.348-.778Z" transform="translate(-221.17 -65.565)"/></g></g><g transform="translate(34.829 38.579)"><path class="a" d="M373.843,327.876l-.83-1.438a.778.778,0,1,0-1.348.778l.83,1.438a.778.778,0,1,0,1.348-.778Z" transform="translate(-371.561 -326.049)"/></g></g></svg>