<svg xmlns="http://www.w3.org/2000/svg" width="47.996" height="40.78" viewBox="0 0 47.996 40.78"><defs><style>.a{fill:#dedede;}</style></defs><g transform="translate(0 -38.486)"><g transform="translate(0 38.486)"><g transform="translate(0 0)"><path class="a" d="M44.636,61.777l-1.243-4.972a.752.752,0,0,0,.595-.735v-.8a3.16,3.16,0,0,0-3.156-3.156H35.17V50.459a1.555,1.555,0,0,0-1.553-1.553H23.091l6.4-2.559a.752.752,0,0,0-.558-1.4l-5.238,2.1a17.664,17.664,0,0,0,3.776-2.939A3.5,3.5,0,0,0,21.9,39.863c-.855,1.121-1.983,4.272-2.714,6.492-.73-2.22-1.859-5.371-2.714-6.492a3.5,3.5,0,0,0-5.566,4.245,17.659,17.659,0,0,0,3.776,2.939l-5.238-2.1a.752.752,0,1,0-.558,1.4l6.4,2.559H4.759a1.555,1.555,0,0,0-1.553,1.553V64.086a.752.752,0,0,0,1.5,0V50.459a.05.05,0,0,1,.05-.05H33.617a.05.05,0,0,1,.05.05V64.087a.752.752,0,0,0,1.5,0v-.852h8.87a2.459,2.459,0,0,1,2.335,1.7H44.038a.752.752,0,0,0-.752.752v1.6a2.357,2.357,0,0,0,2.355,2.355h.852v3.307H44.528a4.758,4.758,0,0,0-9,0H35.17V67.293a.752.752,0,1,0-1.5,0v5.661H18.075a4.758,4.758,0,0,0-9,0H4.759a.05.05,0,0,1-.05-.05V71.251H7.966a.752.752,0,1,0,0-1.5H.752a.752.752,0,1,0,0,1.5H3.206V72.9A1.555,1.555,0,0,0,4.76,74.457H8.819c0,.017,0,.033,0,.05a4.759,4.759,0,0,0,9.519,0c0-.017,0-.033,0-.05H35.272c0,.017,0,.033,0,.05a4.759,4.759,0,0,0,9.519,0c0-.017,0-.033,0-.05h2.456A.752.752,0,0,0,48,73.706V65.69A3.964,3.964,0,0,0,44.636,61.777ZM16.208,46.227c-2.964-1.842-3.844-2.69-4.1-3.031a2,2,0,0,1,3.176-2.422c.727.953,1.865,4.161,2.617,6.473C17.39,46.949,16.806,46.6,16.208,46.227Zm4.272,1.02c.752-2.312,1.89-5.52,2.617-6.473A2,2,0,0,1,26.273,43.2c-.26.341-1.14,1.189-4.1,3.031C21.571,46.6,20.987,46.948,20.48,47.247Zm14.69,6.368h5.661a1.655,1.655,0,0,1,1.653,1.653v.05H35.17Zm0,8.116v-4.91h6.678l1.227,4.91ZM13.577,77.764a3.257,3.257,0,1,1,3.257-3.257A3.26,3.26,0,0,1,13.577,77.764Zm26.453,0a3.257,3.257,0,1,1,3.257-3.257A3.26,3.26,0,0,1,40.03,77.764Zm6.463-9.619h-.852a.853.853,0,0,1-.852-.852v-.852h1.7v1.7Z" transform="translate(0 -38.486)"/></g></g><g transform="translate(12.033 73.024)"><path class="a" d="M129.8,406.172a1.536,1.536,0,1,0,1.536,1.536A1.538,1.538,0,0,0,129.8,406.172Z" transform="translate(-128.267 -406.172)"/></g><g transform="translate(38.582 73.024)"><path class="a" d="M411.991,406.172a1.536,1.536,0,1,0,1.536,1.536A1.538,1.538,0,0,0,411.991,406.172Z" transform="translate(-410.455 -406.172)"/></g><g transform="translate(19.315 69.761)"><path class="a" d="M217.069,371.967h-11.1a.743.743,0,1,0,0,1.487h11.1a.743.743,0,1,0,0-1.487Z" transform="translate(-205.227 -371.967)"/></g><g transform="translate(1.586 66.553)"><path class="a" d="M27.359,337.763H17.845a.743.743,0,1,0,0,1.487h9.513a.743.743,0,0,0,0-1.487Z" transform="translate(-17.102 -337.763)"/></g><g transform="translate(8.026 55.363)"><path class="a" d="M89.425,218.046H86.254a.743.743,0,0,0-.743.743v6.342a.743.743,0,0,0,1.487,0V222.7h1.635a.743.743,0,0,0,0-1.487H87v-1.685h2.428a.743.743,0,1,0,0-1.486Z" transform="translate(-85.511 -218.046)"/></g><g transform="translate(13.647 55.363)"><path class="a" d="M149.583,223.052a2.724,2.724,0,0,0-1.489-5.006h-1.982a.743.743,0,0,0-.743.743v6.342a.743.743,0,0,0,1.487,0V223.5h1.237l1.365,2.047a.743.743,0,1,0,1.237-.824Zm-1.489-1.042h-1.239v-2.477h1.239a1.239,1.239,0,0,1,0,2.477Z" transform="translate(-145.369 -218.046)"/></g><g transform="translate(20.064 55.363)"><path class="a" d="M217.692,224.388h-2.428V222.7l.049,0H216.9a.743.743,0,0,0,0-1.487h-1.586l-.049,0v-1.687h2.428a.743.743,0,1,0,0-1.486h-3.171a.743.743,0,0,0-.743.743v6.342a.743.743,0,0,0,.743.743h3.171a.743.743,0,1,0,0-1.486Z" transform="translate(-213.778 -218.046)"/></g><g transform="translate(25.682 55.363)"><path class="a" d="M277.55,224.388h-2.428V222.7h.842a.743.743,0,0,0,0-1.487h-.842v-1.685h2.428a.743.743,0,1,0,0-1.486h-3.171a.743.743,0,0,0-.743.743v6.342a.743.743,0,0,0,.743.743h3.171a.743.743,0,1,0,0-1.486Z" transform="translate(-273.636 -218.046)"/></g></g></svg>