<svg xmlns="http://www.w3.org/2000/svg" width="48.002" height="48.002" viewBox="0 0 48.002 48.002"><defs><style>.a{fill:#dedede;}</style></defs><g transform="translate(7.465 7.465)"><path class="a" d="M96.156,79.62a16.536,16.536,0,1,0,16.536,16.536A16.555,16.555,0,0,0,96.156,79.62Zm0,31.517a14.981,14.981,0,1,1,14.981-14.981A15,15,0,0,1,96.156,111.137Z" transform="translate(-79.62 -79.62)"/></g><g transform="translate(17.417 14.1)"><path class="a" d="M193.14,159.7v-6.062c2.541.2,4.251,1.386,4.251,2.457a.778.778,0,1,0,1.555,0c0-2.105-2.494-3.786-5.806-4.016v-.909a.778.778,0,0,0-1.555,0v.909c-3.312.23-5.806,1.91-5.806,4.016,0,2.82,2.682,3.921,5.806,4.792v6.062c-2.541-.2-4.251-1.386-4.251-2.457a.778.778,0,0,0-1.555,0c0,2.105,2.494,3.786,5.806,4.016v.909a.778.778,0,0,0,1.555,0v-.909c3.312-.23,5.806-1.91,5.806-4.016C198.946,161.672,196.264,160.572,193.14,159.7Zm-1.555-.432c-3.154-.932-4.251-1.778-4.251-3.173,0-1.071,1.71-2.253,4.251-2.457Zm1.555,7.682v-5.63c3.154.932,4.251,1.778,4.251,3.173C197.391,165.564,195.681,166.746,193.14,166.95Z" transform="translate(-185.779 -150.393)"/></g><g transform="translate(4.147 0)"><path class="a" d="M81.058,7.03a24,24,0,0,0-34.874.986l.426-2.981a.778.778,0,0,0-1.54-.22l-.829,5.806a.778.778,0,0,0,1.016.848l4.976-1.659a.778.778,0,0,0-.492-1.475l-2.5.833a22.446,22.446,0,1,1,32.717,30.7,22.3,22.3,0,0,1-15.872,6.574.778.778,0,1,0,0,1.555A24,24,0,0,0,81.058,7.03Z" transform="translate(-44.233 0)"/></g><g transform="translate(19.087 46.079)"><path class="a" d="M205.291,491.633c-.264-.038-.531-.081-.791-.128a.778.778,0,0,0-.275,1.531c.279.05.564.1.846.137a.778.778,0,1,0,.22-1.54Z" transform="translate(-203.585 -491.493)"/></g><g transform="translate(14.464 44.738)"><path class="a" d="M156.811,477.783c-.489-.161-.98-.341-1.457-.535a.778.778,0,1,0-.587,1.44c.511.208,1.036.4,1.559.573a.778.778,0,1,0,.485-1.478Z" transform="translate(-154.282 -477.19)"/></g><g transform="translate(0.246 26.617)"><path class="a" d="M4.451,286.1c-.11-.5-.2-1.017-.278-1.527a.777.777,0,0,0-1.539.225c.08.545.18,1.095.3,1.633a.777.777,0,1,0,1.519-.331Z" transform="translate(-2.626 -283.91)"/></g><g transform="translate(0.455 17.062)"><path class="a" d="M6.207,182.017a.778.778,0,0,0-.956.544c-.146.531-.275,1.075-.383,1.616a.778.778,0,1,0,1.525.306c.1-.506.222-1.014.359-1.511A.778.778,0,0,0,6.207,182.017Z" transform="translate(-4.853 -181.989)"/></g><g transform="translate(1.435 31.279)"><path class="a" d="M17.4,335.571c-.212-.47-.41-.953-.589-1.436a.778.778,0,1,0-1.459.54c.191.517.4,1.033.63,1.536a.778.778,0,0,0,1.418-.64Z" transform="translate(-15.306 -333.627)"/></g><g transform="translate(0 21.81)"><path class="a" d="M.866,232.635a.777.777,0,0,0-.823.73c-.029.483-.044.974-.044,1.46q0,.1,0,.2a.778.778,0,0,0,.777.771H.785a.778.778,0,0,0,.771-.784c0-.063,0-.125,0-.187,0-.455.014-.914.041-1.366A.778.778,0,0,0,.866,232.635Z" transform="translate(0 -232.633)"/></g><g transform="translate(10.221 42.468)"><path class="a" d="M111.55,453.94c-.445-.258-.888-.536-1.315-.825a.778.778,0,1,0-.872,1.288c.457.309.93.606,1.406.883a.778.778,0,0,0,.781-1.345Z" transform="translate(-109.021 -452.981)"/></g><g transform="translate(3.564 35.591)"><path class="a" d="M40.322,381.277c-.3-.416-.6-.848-.873-1.284a.778.778,0,0,0-1.315.829c.294.466.608.928.933,1.373a.778.778,0,0,0,1.255-.918Z" transform="translate(-38.014 -379.63)"/></g><g transform="translate(6.536 39.375)"><path class="a" d="M72.172,421.3c-.383-.345-.759-.708-1.118-1.078a.778.778,0,1,0-1.117,1.082c.383.4.785.784,1.195,1.152a.778.778,0,1,0,1.04-1.156Z" transform="translate(-69.718 -419.983)"/></g><g transform="translate(1.893 13.27)"><path class="a" d="M21.64,141.618a.778.778,0,0,0-1.036.369c-.122.257-.241.519-.354.78a.778.778,0,1,0,1.428.617c.105-.244.217-.489.331-.73A.778.778,0,0,0,21.64,141.618Z" transform="translate(-20.186 -141.542)"/></g></svg>