<svg xmlns="http://www.w3.org/2000/svg" width="47.999" height="37.691" viewBox="0 0 47.999 37.691"><defs><style>.a{fill:#dedede;}</style></defs><g transform="translate(0 -54.98)"><g transform="translate(0 54.98)"><path class="a" d="M42.04,54.98H2.523A2.526,2.526,0,0,0,0,57.5V83.275A2.526,2.526,0,0,0,2.523,85.8h27.49a.805.805,0,0,0,0-1.611H2.523a.914.914,0,0,1-.913-.913V57.5a.914.914,0,0,1,.913-.913H42.04a.914.914,0,0,1,.913.913V68.671a.805.805,0,0,0,1.611,0V57.5A2.526,2.526,0,0,0,42.04,54.98Z" transform="translate(0 -54.98)"/></g><g transform="translate(5.154 60.993)"><path class="a" d="M63.517,119.123H56.644a1.666,1.666,0,0,0-1.664,1.664v5.154a1.666,1.666,0,0,0,1.664,1.664h6.872a1.666,1.666,0,0,0,1.664-1.664v-5.154A1.666,1.666,0,0,0,63.517,119.123ZM58.416,126H56.644a.054.054,0,0,1-.054-.054v-5.154a.054.054,0,0,1,.054-.054h1.772Zm5.154-.054a.054.054,0,0,1-.054.054h-3.49V124.17h.913a.805.805,0,0,0,0-1.611h-.913v-1.825h3.49a.054.054,0,0,1,.054.054Z" transform="translate(-54.98 -119.123)"/></g><g transform="translate(24.912 60.134)"><g transform="translate(0 0)"><path class="a" d="M275.56,109.96a4.643,4.643,0,0,0-2.575.777,4.673,4.673,0,1,0,0,7.789,4.671,4.671,0,1,0,2.578-8.565Zm-3.785,7.407a3.06,3.06,0,1,1,0-5.471,4.66,4.66,0,0,0,0,5.471Zm3.785.325a3.063,3.063,0,0,1-1.371-.325,4.644,4.644,0,0,0,.888-2.735.805.805,0,0,0-1.611,0,3.041,3.041,0,0,1-.484,1.648,3.06,3.06,0,1,1,2.578,1.412Z" transform="translate(-265.735 -109.96)"/></g></g><g transform="translate(5.154 73.879)"><g transform="translate(0 0)"><path class="a" d="M62.657,256.573H55.784a.805.805,0,0,0,0,1.611h6.872a.805.805,0,0,0,0-1.611Z" transform="translate(-54.979 -256.573)"/></g></g><g transform="translate(5.154 79.033)"><path class="a" d="M80.7,311.553H55.784a.805.805,0,0,0,0,1.611H80.7a.805.805,0,0,0,0-1.611Z" transform="translate(-54.979 -311.553)"/></g><g transform="translate(15.463 73.879)"><g transform="translate(0 0)"><path class="a" d="M172.617,256.573h-6.872a.805.805,0,1,0,0,1.611h6.872a.805.805,0,0,0,0-1.611Z" transform="translate(-164.939 -256.573)"/></g></g><g transform="translate(25.772 73.879)"><g transform="translate(0 0)"><path class="a" d="M280.859,256.573H275.7a.805.805,0,0,0,0,1.611h5.154a.805.805,0,1,0,0-1.611Z" transform="translate(-274.899 -256.573)"/></g></g><g transform="translate(32.644 70.443)"><path class="a" d="M361.843,229.5V225.88a5.96,5.96,0,1,0-11.919,0V229.5a2.527,2.527,0,0,0-1.718,2.391v7.731a2.526,2.526,0,0,0,2.523,2.523h10.309a2.526,2.526,0,0,0,2.523-2.523v-7.731A2.527,2.527,0,0,0,361.843,229.5Zm-10.309-3.622a4.349,4.349,0,1,1,8.7,0v3.49h-8.7v-3.49Zm10.416,13.745a.914.914,0,0,1-.913.913H350.729a.914.914,0,0,1-.913-.913v-7.731a.914.914,0,0,1,.913-.913h10.309a.914.914,0,0,1,.913.913Z" transform="translate(-348.206 -219.92)"/></g><g transform="translate(38.228 83.329)"><path class="a" d="M409.861,357.369a2.094,2.094,0,0,0-.805,4.026v1.074a.805.805,0,1,0,1.611,0V361.4a2.094,2.094,0,0,0-.805-4.026Zm0,2.577a.483.483,0,1,1,.483-.483A.484.484,0,0,1,409.861,359.946Z" transform="translate(-407.767 -357.369)"/></g></g></svg>