<svg xmlns="http://www.w3.org/2000/svg" width="22.472" height="22.472" viewBox="0 0 22.472 22.472"><defs><style>.a{fill:#fff;}</style></defs><path class="a" d="M20.064,32H2.408A2.408,2.408,0,0,0,0,34.408V52.064a2.408,2.408,0,0,0,2.408,2.408H9.292v-7.64H6.132v-3.6h3.16V40.5c0-3.118,1.856-4.84,4.7-4.84a19.144,19.144,0,0,1,2.785.243v3.06H15.207A1.8,1.8,0,0,0,13.18,40.9v2.335h3.45l-.552,3.6h-2.9v7.64h6.885a2.408,2.408,0,0,0,2.408-2.408V34.408A2.408,2.408,0,0,0,20.064,32Z" transform="translate(0 -32)"/></svg>