<svg xmlns="http://www.w3.org/2000/svg" width="22.472" height="22.472" viewBox="0 0 22.472 22.472"><defs><style>.a{fill:#fff;}</style></defs><path class="a" d="M11.236,40.56a2.676,2.676,0,1,0,2.677,2.676A2.676,2.676,0,0,0,11.236,40.56ZM17.491,38.5a2.709,2.709,0,0,0-1.525-1.525c-1.053-.416-3.561-.323-4.73-.323s-3.674-.1-4.731.323A2.709,2.709,0,0,0,4.98,38.5c-.415,1.053-.323,3.564-.323,4.732s-.093,3.675.325,4.732a2.709,2.709,0,0,0,1.525,1.525c1.053.416,3.561.323,4.731.323s3.674.1,4.73-.323a2.709,2.709,0,0,0,1.525-1.525c.419-1.053.323-3.564.323-4.732s.1-3.675-.323-4.732Zm-6.256,8.845a4.108,4.108,0,1,1,2.91-1.2A4.113,4.113,0,0,1,11.236,47.349Zm4.283-7.439a.955.955,0,1,1,.681-.28.96.96,0,0,1-.681.28ZM20.064,32H2.408A2.408,2.408,0,0,0,0,34.408V52.064a2.408,2.408,0,0,0,2.408,2.408H20.064a2.408,2.408,0,0,0,2.408-2.408V34.408A2.408,2.408,0,0,0,20.064,32Zm-.859,14.547a4.773,4.773,0,0,1-1.3,3.361,4.775,4.775,0,0,1-3.361,1.3c-1.325.075-5.3.075-6.621,0a4.782,4.782,0,0,1-3.361-1.3,4.758,4.758,0,0,1-1.3-3.361c-.075-1.325-.075-5.3,0-6.621a4.757,4.757,0,0,1,1.3-3.361,4.784,4.784,0,0,1,3.361-1.293c1.325-.075,5.3-.075,6.621,0a4.776,4.776,0,0,1,3.361,1.3,4.775,4.775,0,0,1,1.3,3.363C19.28,41.252,19.28,45.22,19.205,46.547Z" transform="translate(0 -32)"/></svg>