<?xml version="1.0" encoding="UTF-8" standalone="no"?>
<svg
   xmlns:dc="http://purl.org/dc/elements/1.1/"
   xmlns:cc="http://creativecommons.org/ns#"
   xmlns:rdf="http://www.w3.org/1999/02/22-rdf-syntax-ns#"
   xmlns:svg="http://www.w3.org/2000/svg"
   xmlns="http://www.w3.org/2000/svg"
   xmlns:sodipodi="http://sodipodi.sourceforge.net/DTD/sodipodi-0.dtd"
   xmlns:inkscape="http://www.inkscape.org/namespaces/inkscape"
   id="Layer_1"
   viewBox="0 0 360 360"
   width="2500"
   height="2500"
   version="1.1"
   sodipodi:docname="pinterest.svg"
   inkscape:version="0.92.5 (2060ec1f9f, 2020-04-08)">
  <metadata
     id="metadata13">
    <rdf:RDF>
      <cc:Work
         rdf:about="">
        <dc:format>image/svg+xml</dc:format>
        <dc:type
           rdf:resource="http://purl.org/dc/dcmitype/StillImage" />
        <dc:title></dc:title>
      </cc:Work>
    </rdf:RDF>
  </metadata>
  <defs
     id="defs11" />
  <sodipodi:namedview
     pagecolor="#ffffff"
     bordercolor="#666666"
     borderopacity="1"
     objecttolerance="10"
     gridtolerance="10"
     guidetolerance="10"
     inkscape:pageopacity="0"
     inkscape:pageshadow="2"
     inkscape:window-width="1571"
     inkscape:window-height="990"
     id="namedview9"
     showgrid="false"
     inkscape:zoom="0.0944"
     inkscape:cx="1679.0254"
     inkscape:cy="1250"
     inkscape:window-x="0"
     inkscape:window-y="27"
     inkscape:window-maximized="0"
     inkscape:current-layer="Layer_1" />
  <style
     id="style2">.st0{fill:#ca2127}.st1{fill:#fff}</style>
  <path
     style="fill:#ffffff;stroke-width:6.94444466"
     d="M 1245.834 29.166016 C 573.61176 29.166016 28.472656 574.30512 28.472656 1246.5273 C 28.472656 1755.3592 340.81843 2191.3692 784.19336 2373.2656 C 732.92172 1976.1193 877.75218 1674.1505 945.83398 1354.166 C 827.77843 1164.5827 960.4171 781.94423 1209.7227 876.38867 C 1516.6671 992.36089 943.75043 1581.9436 1328.4727 1655.5547 C 1729.8615 1732.638 1893.7498 991.66753 1645.1387 750.69531 C 1284.722 403.47309 597.91645 743.05512 682.63867 1240.2773 C 693.05534 1302.0829 794.44531 1399.3047 794.44531 1399.3047 C 794.44531 1399.3047 789.5842 1458.3336 763.19531 1567.3613 C 532.63976 1518.7502 436.11089 1345.8329 445.13867 1115.2773 C 459.02756 737.49957 800.69444 473.61024 1143.75 436.80469 C 1577.0833 390.27691 1984.0282 588.1951 2040.9727 977.08398 C 2104.1671 1415.9729 1845.1389 1890.9731 1381.25 1856.9453 C 1255.5556 1847.9175 1202.7771 1788.1944 1104.166 1731.25 C 1051.8912 1992.6241 988.61563 2243.6445 807.61328 2382.5781 C 943.59623 2435.0817 1091.3552 2463.8887 1245.834 2463.8887 C 1918.0562 2463.8887 2463.1953 1918.7496 2463.1953 1246.5273 C 2463.1953 574.30512 1918.0562 29.166016 1245.834 29.166016 z "
     id="path4"
     transform="scale(0.144)" />
</svg>
