<svg xmlns="http://www.w3.org/2000/svg" width="26.104" height="18.277" viewBox="0 0 26.104 18.277">
  <path id="youtube_1_" data-name="youtube (1)" d="M25.566-3.222a3.27,3.27,0,0,0-2.3-2.3c-2.043-.559-10.214-.559-10.214-.559s-8.171,0-10.214.538a3.337,3.337,0,0,0-2.3,2.322A34.459,34.459,0,0,0,0,3.057,34.333,34.333,0,0,0,.538,9.335a3.271,3.271,0,0,0,2.3,2.3c2.064.559,10.214.559,10.214.559s8.171,0,10.214-.538a3.271,3.271,0,0,0,2.3-2.3A34.471,34.471,0,0,0,26.1,3.078,32.711,32.711,0,0,0,25.566-3.222ZM10.45,6.97V-.857l6.795,3.913Zm0,0" transform="translate(0 6.082)"/>
</svg>
