<?xml version="1.0" encoding="utf-8"?>
<!-- Generator: Adobe Illustrator 22.1.0, SVG Export Plug-In . SVG Version: 6.00 Build 0)  -->
<svg version="1.1" id="Icons" xmlns="http://www.w3.org/2000/svg" xmlns:xlink="http://www.w3.org/1999/xlink" x="0px" y="0px"
	 viewBox="0 0 44 48" style="enable-background:new 0 0 44 48;" xml:space="preserve">
<style type="text/css">
	.st0{fill:none;stroke:#000000;stroke-width:2;stroke-linecap:round;stroke-linejoin:round;}
	.st1{fill:none;stroke:#000000;stroke-width:2;stroke-linecap:round;stroke-miterlimit:10;}
	.st2{fill:none;stroke:#000000;stroke-width:2;stroke-miterlimit:10;}
</style>
<title>Icon_Stowability_white</title>
<path class="st0" d="M26,40.4c-0.1,0.9-0.8,1.6-1.8,1.6H6.8c-0.9,0-1.7-0.7-1.8-1.6v-8.8C5.1,30.7,5.8,30,6.8,30h17.4
	c0.9,0,1.7,0.7,1.8,1.6V40.4z"/>
<path class="st1" d="M31,18v24.6c0,2.4-1.9,4.4-4.3,4.4c0,0,0,0-0.1,0H5.4C3,47,1,45,1,42.6V18"/>
<line class="st2" x1="5" y1="36" x2="26" y2="36"/>
<line class="st2" x1="5" y1="39" x2="26" y2="39"/>
<line class="st2" x1="5" y1="33" x2="26" y2="33"/>
<polyline class="st0" points="12,22 16,26 20,22 "/>
<path class="st1" d="M16,25V14.5C16,7,22,1,29.5,1c7.3-0.1,13.3,5.7,13.4,13c0,0.1,0,0.1,0,0.2"/>
<line class="st0" x1="43" y1="18" x2="43" y2="20"/>
</svg>
