<svg xmlns="http://www.w3.org/2000/svg" viewBox="0 0 283.46 149.39"><defs><style>.cls-1{opacity:0.9;}.cls-2{fill:#010101;}</style></defs><g id="Layer_1" data-name="Layer 1"><path class="cls-2" d="M87.53,80.13l-.72-2.91c0-.17-.23-1.16-.28-1.36h-.07c0,.2-.25,1.16-.3,1.36l-.75,2.88a2.9,2.9,0,0,0-.12.5c0,.13.1.22.27.22h1.82c.17,0,.27-.09.27-.22a3,3,0,0,0-.12-.47M92,86.36h-2.5c-.13,0-.23,0-.25-.17l-.75-2.61c0-.12-.12-.15-.25-.15H84.69c-.12,0-.22,0-.24.15l-.75,2.61c0,.12-.12.17-.25.17H81c-.17,0-.27-.07-.27-.2a3.11,3.11,0,0,1,.12-.45l4.52-14.82c0-.12.12-.17.25-.17h1.79a.21.21,0,0,1,.24.17l4.52,14.82a2.13,2.13,0,0,1,.13.45c0,.13-.1.2-.28.2"/><path class="cls-2" d="M103.79,86.36h-2.06a.28.28,0,0,1-.23-.12l-4.44-8.1c-.1-.17-.45-1.07-.52-1.26l-.1,0c0,.6.15,4.17.15,6.13v3.08c0,.18-.08.25-.25.25H94c-.17,0-.25-.07-.25-.25V71c0-.18.08-.25.25-.25h2.09a.27.27,0,0,1,.22.12L100.73,79c.1.17.45,1.06.52,1.26l.1,0c0-.6-.15-4.17-.15-6.13V71c0-.18.08-.25.25-.25h2.34c.17,0,.25.07.25.25V86.11c0,.18-.08.25-.25.25"/><path class="cls-2" d="M115.08,73.33h-2.7c-.18,0-.25.07-.25.24V86.11c0,.18-.08.25-.25.25h-2.34c-.17,0-.24-.07-.24-.25V73.57c0-.17-.08-.24-.25-.24h-2.71a.22.22,0,0,1-.25-.25V71c0-.18.08-.25.25-.25h8.74c.18,0,.25.07.25.25v2.11c0,.17-.07.25-.25.25"/><path class="cls-2" d="M120,86.36h-2.36c-.17,0-.24-.07-.24-.25V71c0-.18.07-.25.24-.25H120c.18,0,.25.07.25.25V86.11c0,.18-.07.25-.25.25"/><path class="cls-2" d="M127.57,82.09H123.1c-.17,0-.25-.07-.25-.25V79.51c0-.18.08-.25.25-.25h4.47c.17,0,.25.07.25.25v2.33c0,.18-.08.25-.25.25"/><path class="cls-2" d="M139.46,73.33h-5.91c-.17,0-.25.07-.25.24v3.31c0,.17.08.24.25.24h4.84c.18,0,.25.08.25.25v2.11c0,.18-.07.25-.25.25h-4.84a.22.22,0,0,0-.25.25v6.13c0,.18-.07.25-.24.25H130.7c-.18,0-.25-.07-.25-.25V71c0-.18.07-.25.25-.25h8.76c.17,0,.25.07.25.25v2.11a.22.22,0,0,1-.25.25"/><path class="cls-2" d="M145.79,80.13l-.72-2.91c0-.17-.22-1.16-.27-1.36h-.08c-.05.2-.24,1.16-.29,1.36l-.75,2.88a2.9,2.9,0,0,0-.12.5c0,.13.1.22.27.22h1.81c.18,0,.28-.09.28-.22a2.26,2.26,0,0,0-.13-.47m4.47,6.23h-2.51a.23.23,0,0,1-.25-.17l-.74-2.61c0-.12-.12-.15-.25-.15H143c-.12,0-.22,0-.25.15L142,86.19a.23.23,0,0,1-.25.17h-2.48c-.18,0-.28-.07-.28-.2a3.5,3.5,0,0,1,.13-.45l4.52-14.82c0-.12.12-.17.25-.17h1.78c.13,0,.23,0,.25.17l4.52,14.82a2,2,0,0,1,.12.45c0,.13-.1.2-.27.2"/><path class="cls-2" d="M159.05,73.33h-2.71c-.17,0-.25.07-.25.24V86.11c0,.18-.07.25-.24.25h-2.34c-.17,0-.25-.07-.25-.25V73.57c0-.17-.07-.24-.24-.24h-2.71a.22.22,0,0,1-.25-.25V71c0-.18.08-.25.25-.25h8.74c.17,0,.25.07.25.25v2.11a.22.22,0,0,1-.25.25"/><path class="cls-2" d="M163.94,86.36h-2.36c-.17,0-.25-.07-.25-.25V71c0-.18.08-.25.25-.25h2.36c.17,0,.25.07.25.25V86.11c0,.18-.08.25-.25.25"/><path class="cls-2" d="M177.49,73.57l-2,1a.78.78,0,0,1-.3.13c-.07,0-.15,0-.2-.18-.44-1.07-1.09-1.46-1.76-1.46h-1.64a1.81,1.81,0,0,0-1.79,1.78v7.35A1.81,1.81,0,0,0,171.61,84h1.22a1.76,1.76,0,0,0,1.76-1.79V81.05c0-.18-.07-.25-.25-.25H172c-.18,0-.25-.08-.25-.25V78.44c0-.17.07-.25.25-.25h5.19c.17,0,.24.08.24.25v3.77a4.27,4.27,0,0,1-4.61,4.4h-1.22a4.26,4.26,0,0,1-4.62-4.4V74.86a4.26,4.26,0,0,1,4.62-4.39h1.64a4.22,4.22,0,0,1,3.92,2,3.26,3.26,0,0,1,.47.92c0,.07,0,.12-.15.17"/><path class="cls-2" d="M185.91,86.61h-1.22a4.25,4.25,0,0,1-4.61-4.4V71c0-.18.07-.25.25-.25h2.33c.17,0,.25.07.25.25V82.21A1.81,1.81,0,0,0,184.69,84h1.22a1.76,1.76,0,0,0,1.76-1.79V71c0-.18.08-.25.25-.25h2.36c.17,0,.25.07.25.25V82.21a4.27,4.27,0,0,1-4.62,4.4"/><path class="cls-2" d="M202.52,86.36h-8.76c-.18,0-.25-.07-.25-.25V71c0-.18.07-.25.25-.25h8.76c.17,0,.25.07.25.25v2.11a.22.22,0,0,1-.25.25h-5.91c-.17,0-.25.07-.25.25v3.3c0,.17.08.24.25.24h4.84c.18,0,.25.08.25.25v2.11c0,.18-.07.25-.25.25h-4.84a.22.22,0,0,0-.25.25v3.53c0,.17.08.24.25.24h5.91a.22.22,0,0,1,.25.25v2.11c0,.18-.08.25-.25.25"/><path class="cls-2" d="M102.36,91.79h-2.08c-.13,0-.19,0-.19.19v9.64c0,.14-.06.19-.19.19H98.1c-.13,0-.19,0-.19-.19V92c0-.14,0-.19-.19-.19H95.64a.17.17,0,0,1-.19-.19V90a.17.17,0,0,1,.19-.19h6.72c.14,0,.19.06.19.19V91.6c0,.13,0,.19-.19.19"/><path class="cls-2" d="M111.05,101.81h-6.74c-.13,0-.19,0-.19-.19V90a.17.17,0,0,1,.19-.19h6.74c.14,0,.19.06.19.19V91.6c0,.13,0,.19-.19.19h-4.54c-.14,0-.2,0-.2.19v2.54c0,.13.06.19.2.19h3.72a.17.17,0,0,1,.19.19v1.62c0,.14-.06.19-.19.19h-3.72c-.14,0-.2.06-.2.2v2.71c0,.13.06.19.2.19h4.54c.14,0,.19.06.19.19v1.62c0,.14,0,.19-.19.19"/><path class="cls-2" d="M120.49,100.46a3.27,3.27,0,0,1-3,1.54h-.94A3.28,3.28,0,0,1,113,98.62V93a3.28,3.28,0,0,1,3.55-3.38h.94a3.26,3.26,0,0,1,3,1.55,2.69,2.69,0,0,1,.36.7c0,.06,0,.1-.12.14l-1.52.78a.64.64,0,0,1-.23.1c-.06,0-.12,0-.16-.14-.34-.82-.84-1.12-1.35-1.12h-.94A1.39,1.39,0,0,0,115.16,93v5.65a1.39,1.39,0,0,0,1.37,1.38h.94c.51,0,1-.31,1.35-1.13a.18.18,0,0,1,.16-.13.84.84,0,0,1,.23.09l1.52.79c.08,0,.12.07.12.13a2.71,2.71,0,0,1-.36.71"/><path class="cls-2" d="M130.61,101.81h-1.8c-.13,0-.19,0-.19-.19V96.91c0-.14-.06-.2-.19-.2h-3.55c-.14,0-.19.06-.19.2v4.71c0,.14-.06.19-.19.19h-1.82c-.13,0-.19,0-.19-.19V90a.17.17,0,0,1,.19-.19h1.82a.17.17,0,0,1,.19.19v4.55c0,.13,0,.19.19.19h3.55a.17.17,0,0,0,.19-.19V90a.17.17,0,0,1,.19-.19h1.8a.17.17,0,0,1,.19.19v11.65c0,.14-.06.19-.19.19"/><path class="cls-2" d="M141.11,101.81h-1.59a.2.2,0,0,1-.17-.09l-3.42-6.23c-.07-.13-.34-.82-.4-1l-.07,0c0,.46.11,3.21.11,4.71v2.37c0,.14-.06.19-.19.19h-1.81c-.14,0-.19,0-.19-.19V90c0-.13.05-.19.19-.19h1.6a.19.19,0,0,1,.17.1l3.42,6.26c.08.13.34.82.4,1l.08,0c0-.46-.12-3.21-.12-4.72V90a.17.17,0,0,1,.19-.19h1.8a.17.17,0,0,1,.19.19v11.65c0,.14-.06.19-.19.19"/><path class="cls-2" d="M149.32,93A1.35,1.35,0,0,0,148,91.6H147A1.4,1.4,0,0,0,145.65,93v5.65A1.4,1.4,0,0,0,147,100H148a1.35,1.35,0,0,0,1.35-1.38ZM148,102H147a3.27,3.27,0,0,1-3.55-3.38V93A3.28,3.28,0,0,1,147,89.59H148A3.29,3.29,0,0,1,151.52,93v5.65A3.29,3.29,0,0,1,148,102"/><path class="cls-2" d="M160.61,101.81h-6.74c-.14,0-.19,0-.19-.19V90c0-.13,0-.19.19-.19h1.81c.14,0,.19.06.19.19v9.65a.17.17,0,0,0,.19.19h4.55a.17.17,0,0,1,.19.19v1.62c0,.14-.06.19-.19.19"/><path class="cls-2" d="M167.58,93a1.35,1.35,0,0,0-1.36-1.37h-.93A1.39,1.39,0,0,0,163.91,93v5.65a1.4,1.4,0,0,0,1.38,1.38h.93a1.35,1.35,0,0,0,1.36-1.38Zm-1.36,9h-.93a3.27,3.27,0,0,1-3.55-3.38V93a3.28,3.28,0,0,1,3.55-3.38h.93A3.29,3.29,0,0,1,169.78,93v5.65a3.29,3.29,0,0,1-3.56,3.38"/><path class="cls-2" d="M179.88,92l-1.53.78a.58.58,0,0,1-.23.1c-.06,0-.11,0-.15-.14-.35-.82-.84-1.12-1.36-1.12h-1.26A1.39,1.39,0,0,0,174,93v5.66a1.39,1.39,0,0,0,1.37,1.37h.94a1.35,1.35,0,0,0,1.35-1.37v-.9c0-.14,0-.19-.19-.19h-1.79c-.14,0-.19-.06-.19-.19V95.72c0-.13.05-.19.19-.19h4a.17.17,0,0,1,.19.19v2.91a3.28,3.28,0,0,1-3.55,3.37h-.94a3.27,3.27,0,0,1-3.55-3.37V93a3.28,3.28,0,0,1,3.55-3.38h1.26a3.24,3.24,0,0,1,3,1.55,2.86,2.86,0,0,1,.36.7c0,.06,0,.1-.11.14"/><path class="cls-2" d="M189.48,90.24l-3.11,5.83a1,1,0,0,0-.13.53v5c0,.14-.06.19-.19.19h-1.82c-.13,0-.19,0-.19-.19v-5a.94.94,0,0,0-.13-.51l-3.12-5.83a.82.82,0,0,1-.13-.31c0-.09.08-.15.21-.15H183a.21.21,0,0,1,.17.12L185,93.64a.24.24,0,0,0,.18.15.22.22,0,0,0,.17-.15l1.81-3.74a.23.23,0,0,1,.18-.12h2.1c.13,0,.21.06.21.15a.91.91,0,0,1-.14.31"/><path class="cls-2" d="M191.26,98.86h-.65a.05.05,0,0,0-.06.06v3a.05.05,0,0,1-.06.06h-.56s-.05,0-.05-.06v-3a.05.05,0,0,0-.06-.06h-.65a.05.05,0,0,1-.06-.06v-.5a.05.05,0,0,1,.06-.06h2.09s.05,0,.05.06v.5s0,.06-.05.06"/><path class="cls-2" d="M195,102h-.56a.05.05,0,0,1-.06-.06v-.62c0-.47.06-1.29.07-1.43h0c0,.05-.09.32-.16.47l-.49,1.1a.05.05,0,0,1,0,0h-.31a.05.05,0,0,1-.05,0l-.49-1.1a3,3,0,0,1-.15-.47h0c0,.14.07,1,.07,1.43v.62a.05.05,0,0,1-.06.06h-.56s-.06,0-.06-.06V98.3s0-.06.06-.06h.49a.07.07,0,0,1,.06,0l.78,1.89a2.58,2.58,0,0,1,.08.26h0a2.58,2.58,0,0,1,.08-.26l.79-1.89a.05.05,0,0,1,0,0h.5a.05.05,0,0,1,.06.06v3.61a.05.05,0,0,1-.06.06"/><polygon class="cls-2" points="132.91 68.2 100.73 68.2 93.41 50.42 125.33 50.42 132.91 68.2"/><polygon class="cls-2" points="115.51 104.02 134.81 104.02 125.16 127.23 115.51 104.02"/><polygon class="cls-2" points="135.12 104.02 125.33 127.7 157.24 127.7 167.13 104.02 135.12 104.02"/><polygon class="cls-2" points="180.66 21.68 150.06 50.44 157.25 50.46 149.92 68.2 182.1 68.2 189.62 50.22 198.14 50.22 180.66 21.68"/></g></svg>