<svg xmlns="http://www.w3.org/2000/svg" viewBox="0 0 283.46 149.39"><defs><style>.cls-1{opacity:0.9;}</style></defs><g id="Layer_1" data-name="Layer 1"><path d="M224.76,81.51a13.84,13.84,0,0,1,.92-5.57c.1-.24.18-.33.52-.3,1.88.19,2.65.17,3.69-1.88a2.79,2.79,0,0,0,0-2.69c-2.44-5.4-4.83-10.82-7.24-16.24-.06-.15-.11-.3-.22-.59a28.94,28.94,0,0,1,2.86-.85c1.14-.22,2.31-.29,3.46-.45.53-.08.72.18.89.63,1.25,3.18,2.53,6.36,3.79,9.54.06.14.14.26.27.51.26-.68.48-1.25.69-1.82,1-2.79,2.09-5.58,3.12-8.38.13-.36.29-.5.67-.48a18.21,18.21,0,0,1,5.48,1c.26.1.51.22.83.37l-1.35,3.42q-3.72,9.46-7.45,18.93a8.59,8.59,0,0,1-2.71,4,8,8,0,0,1-5.47,1.22C226.59,81.79,225.7,81.63,224.76,81.51Z"/><path d="M108.72,73.68v-.93c0-3.57,0-7.14,0-10.71a6,6,0,0,0-1.17-3.84,4.29,4.29,0,0,0-4.3-1.58,9.53,9.53,0,0,0-2.28.69,1.84,1.84,0,0,0-1.06,1.83q0,6.49,0,13c0,.46-.1.72-.56.81l-3.45.72v-.82c0-3.63,0-7.27,0-10.9a6.09,6.09,0,0,0-1.11-3.68,4.31,4.31,0,0,0-4.38-1.66,8.63,8.63,0,0,0-1.8.45,2.14,2.14,0,0,0-1.55,2.26q0,6.41,0,12.83c0,.45-.09.71-.56.8l-3.44.72v-.76c0-4.92,0-9.85,0-14.77a4,4,0,0,1,2.43-3.9A15.71,15.71,0,0,1,90.54,53a8.87,8.87,0,0,1,4.7.67c.58.26,1.08.68,1.65,1a.73.73,0,0,0,.61,0,12.89,12.89,0,0,1,5.58-1.67,9,9,0,0,1,5,.64,7.59,7.59,0,0,1,4.41,6,14.46,14.46,0,0,1,.16,2.46c0,3.35,0,6.7,0,10.05,0,.44-.12.69-.54.77Z"/><path d="M143.52,73.65c0-1.59,0-3,0-4.34,0-2.76,0-5.52-.1-8.28a4.48,4.48,0,0,0-3.56-4.37,6.14,6.14,0,0,0-4.15.67,1.89,1.89,0,0,0-1,1.8c0,4.33,0,8.67,0,13,0,.52-.19.75-.62.84l-3.4.69v-.8c0-3.63,0-7.26,0-10.9a6.11,6.11,0,0,0-1.11-3.68,4.31,4.31,0,0,0-4.38-1.67,8.63,8.63,0,0,0-1.8.45,2.14,2.14,0,0,0-1.55,2.25c0,4.27,0,8.55,0,12.83,0,.51-.17.74-.61.83l-3.4.69v-.8c0-4.9,0-9.8,0-14.71a4,4,0,0,1,2.41-3.9,15.53,15.53,0,0,1,5-1.24,8.92,8.92,0,0,1,4.71.66,8.65,8.65,0,0,1,1.58,1,.53.53,0,0,0,.74.05,11.89,11.89,0,0,1,5.22-1.64,10.13,10.13,0,0,1,4.24.23,7.68,7.68,0,0,1,5.49,6.38,22.57,22.57,0,0,1,.16,2.46c0,3.33,0,6.66,0,10,0,.53-.18.79-.65.89Z"/><path d="M170.23,52.91v.76c0,4.55,0,9.11,0,13.67,0,3.28-1.47,4.51-3.92,5.33a16.81,16.81,0,0,1-5.93.84c-4.07-.15-7.34-2.21-8.39-6.43a10,10,0,0,1-.3-2.32c0-3.3,0-6.61,0-9.92a.71.71,0,0,1,.53-.8,15,15,0,0,1,4.43-1l2-.15v.7c0,3.67,0,7.35,0,11A2.39,2.39,0,0,0,159.8,67a3.09,3.09,0,0,0,2.95-.09,1.11,1.11,0,0,0,.57-1.11c0-3.61,0-7.22,0-10.83a.79.79,0,0,1,.59-.88,14.45,14.45,0,0,1,4.5-1C169,53,169.55,53,170.23,52.91Z"/><path d="M174.23,73.54v-.69c0-4.58,0-9.16,0-13.74a8.55,8.55,0,0,1,.3-2.07,4.28,4.28,0,0,1,2.67-2.84A16.7,16.7,0,0,1,182,53.05a12.52,12.52,0,0,1,5,.37,8.05,8.05,0,0,1,5.78,6.79,22.56,22.56,0,0,1,.15,2.46c0,3,0,6,0,9,0,.38-.07.64-.47.79a15.44,15.44,0,0,1-4.5,1l-1.9.15V72.8c0-3.43,0-6.86,0-10.29a5.41,5.41,0,0,0-.2-1.6,2.74,2.74,0,0,0-4.28-1.15,1.82,1.82,0,0,0-.42,1.19c0,3.55,0,7.1,0,10.65a.79.79,0,0,1-.61.86A18.51,18.51,0,0,1,174.23,73.54Z"/><path d="M209.39,59.24h-3.14a12.46,12.46,0,0,1,1-5.71c0-.12.28-.2.44-.21.54,0,1.08,0,1.71,0v-2a20.71,20.71,0,0,0,0-2.23c-.07-.67.22-.93.78-1.12a15.62,15.62,0,0,1,4.28-.89c.59,0,1.19-.09,1.84-.14v6.3h5c-.11,1.08-.16,2.1-.33,3.09-.13.78-.44,1.53-.64,2.3a.7.7,0,0,1-.82.58c-1,0-2.09,0-3.21,0v3c0,.73,0,1.45,0,2.18a2.52,2.52,0,0,0,2.49,2.82c.72.08,1.44.12,2.22.18A12.37,12.37,0,0,1,220,73a.45.45,0,0,1-.3.27A9.86,9.86,0,0,1,212,71.94a5.33,5.33,0,0,1-2.33-4.11c-.2-2.51-.2-5-.27-7.54C209.38,60,209.39,59.65,209.39,59.24Z"/><path d="M58.17,63.24A10.4,10.4,0,0,1,79,63.05a10.4,10.4,0,0,1-20.79.19Zm4,0a6.37,6.37,0,1,0,6.35-6.55A6.34,6.34,0,0,0,62.2,63.24Z"/><path d="M126.89,95.49a9.86,9.86,0,1,1-9.75-9.77A9.58,9.58,0,0,1,126.89,95.49ZM111,95.5a6,6,0,0,0,6,6.21,6.24,6.24,0,0,0,.25-12.46A6,6,0,0,0,111,95.5Z"/><path d="M77.23,95.49a9.86,9.86,0,1,1-9.73-9.77A9.62,9.62,0,0,1,77.23,95.49Zm-9.85-6.22a6.08,6.08,0,0,0-6,5.88,6.07,6.07,0,1,0,6-5.88Z"/><path d="M143.79,105.41v-.89c0-3.39,0-6.78,0-10.17a7.49,7.49,0,0,0-.51-2.51,4,4,0,0,0-3.53-2.55,7.27,7.27,0,0,0-3.57.44,2.08,2.08,0,0,0-1.45,2.13c0,4,0,8,0,12,0,.52-.18.75-.62.84-1,.22-2,.41-3.16.64v-.86c0-4.64,0-9.28,0-13.92A3.82,3.82,0,0,1,133.12,87a13.38,13.38,0,0,1,4.29-1.15,12.49,12.49,0,0,1,4.09.1,7.08,7.08,0,0,1,5.89,6.62c.23,3.86.13,7.74.16,11.61a.62.62,0,0,1-.32.47C146.13,104.9,145,105.14,143.79,105.41Z"/><path d="M55.79,54l-.65,3.43a17,17,0,0,0-5.49-.86A6.41,6.41,0,0,0,43,63.17a6.19,6.19,0,0,0,5,6.43,13,13,0,0,0,6.36-.49l.73-.21a7.06,7.06,0,0,1,.63,3.34c0,.12-.2.28-.34.32a16.62,16.62,0,0,1-6.93.88,11.08,11.08,0,0,1-5.83-2.16,9.19,9.19,0,0,1-3.47-5.94,11.27,11.27,0,0,1,.63-6.44,9.46,9.46,0,0,1,7.51-5.72A17.11,17.11,0,0,1,55.79,54Z"/><path d="M203.56,52.91v.77q0,8.93,0,17.85a.82.82,0,0,1-.6.93,15.26,15.26,0,0,1-4.37,1l-1.94.15v-.71q0-9,0-18a.77.77,0,0,1,.55-.85,15,15,0,0,1,4.44-1C202.24,53,202.86,53,203.56,52.91Z"/><path d="M96.07,89.52H92.79a6.29,6.29,0,0,1,.53-3.26c.05-.12.31-.21.48-.22.72,0,1.45,0,2.27,0V85c0-1.27,0-2.54,0-3.81a.73.73,0,0,1,.27-.57A8.76,8.76,0,0,1,99.88,80V86h5.3c-.19,1-.36,1.94-.54,2.86-.08.45-.33.64-.84.62-1.27,0-2.54,0-3.91,0v.66c0,2.76,0,5.53,0,8.29a2.81,2.81,0,0,0,3,3.16l2.18.17c-.14.86-.27,1.71-.42,2.56a.89.89,0,0,1-.94.86c-2.23.11-4.34-.16-6-1.81a4.73,4.73,0,0,1-1.39-3.13c-.1-1.1-.15-2.21-.16-3.32,0-2.24,0-4.48,0-6.72Z"/><path d="M82.3,89.51H79a6.49,6.49,0,0,1,.57-3.3c0-.1.29-.17.45-.17.74,0,1.49,0,2.31,0v-1.6c0-1.09,0-2.18,0-3.27,0-.32.06-.54.4-.62l3.36-.75V86h5.21a7.29,7.29,0,0,1-.55,3.18.71.71,0,0,1-.56.29c-1.33,0-2.66,0-4.08,0v.68c0,2.74,0,5.49,0,8.23,0,2,1,3,3,3.2l2.21.18c-.21,1-.39,2-.62,3a.62.62,0,0,1-.4.34,8.1,8.1,0,0,1-5.1-.74,4.65,4.65,0,0,1-2.7-4.21c-.12-3.28-.11-6.57-.16-9.85Z"/><path d="M55.28,86.7l-.61,3.24a17.78,17.78,0,0,0-5.2-.8,6.18,6.18,0,0,0-6.22,7.51,6.07,6.07,0,0,0,6.12,5.07,14.31,14.31,0,0,0,4.86-.74c.37-.11.53-.07.6.3.15.84.32,1.68.43,2.53a.62.62,0,0,1-.34.5c-3.41,1.14-6.83,1.41-10.21-.09a8.63,8.63,0,0,1-5.18-7,10.81,10.81,0,0,1,.52-5.63,8.52,8.52,0,0,1,5.27-5.15C48.6,85.25,51.88,85.6,55.28,86.7Z"/><path d="M204.05,47.6a3.93,3.93,0,0,1-3.92,3.89,3.94,3.94,0,1,1,0-7.87A3.93,3.93,0,0,1,204.05,47.6Z"/><path d="M162.07,89.61h-1.52v-3.2l-.14,0c-.1.28-.22.55-.31.82-.23.64-.47,1.28-.65,1.94-.13.45-.41.51-.81.51s-.63-.09-.75-.5c-.27-.87-.59-1.73-.88-2.6l-.18,0v3h-1.58V84.12c.75,0,1.51,0,2.27,0,.16,0,.36.29.43.49a17.41,17.41,0,0,0,.84,2.26l.36-1.13c.6-2,.07-1.62,2.18-1.66h.74Z"/><path d="M151.19,85.49h-1.56V84.16h4.9v1.31h-1.64v4.12h-1.7v-4.1Z"/></g></svg>