<?xml version="1.0" encoding="utf-8"?>
<!-- Generator: Adobe Illustrator 25.0.0, SVG Export Plug-In . SVG Version: 6.00 Build 0)  -->
<svg version="1.1" xmlns="http://www.w3.org/2000/svg" xmlns:xlink="http://www.w3.org/1999/xlink" x="0px" y="0px"
	 viewBox="0 0 283.5 149.4" style="enable-background:new 0 0 283.5 149.4;" xml:space="preserve">
<style type="text/css">
	.st0{opacity:0.9;}
	.st1{fill:#FFFFFF;stroke:#010101;stroke-miterlimit:10;}
	.st2{fill:#010101;}
	.st3{fill:#231F20;}
	.st4{fill:none;stroke:#231F20;stroke-width:2.054;stroke-miterlimit:10;}
	.st5{fill:none;stroke:#231F20;stroke-width:1.711;stroke-miterlimit:10;}
	.st6{fill:none;stroke:#231F20;stroke-width:2.054;stroke-linejoin:bevel;stroke-miterlimit:10;}
	.st7{fill:none;stroke:#231F20;stroke-width:1.972;stroke-miterlimit:10;}
	.st8{fill:#FFFFFF;}
	.st9{fill:none;stroke:#231F20;stroke-width:1.369;stroke-linecap:round;stroke-linejoin:round;stroke-miterlimit:10;}
	.st10{fill:none;stroke:#231F20;stroke-width:1.369;stroke-linejoin:bevel;stroke-miterlimit:10;}
	.st11{fill:none;stroke:#231F20;stroke-width:0.685;stroke-miterlimit:10;}
	.st12{fill:none;stroke:#231F20;stroke-width:2.054;stroke-linecap:round;stroke-linejoin:round;stroke-miterlimit:10;}
	.st13{fill:none;stroke:#231F20;stroke-width:1.972;stroke-linecap:round;stroke-linejoin:round;stroke-miterlimit:10;}
	.st14{fill:none;stroke:#231F20;stroke-width:2.029;stroke-miterlimit:10;}
	.st15{fill:#E9282A;}
	.st16{fill:none;stroke:#231F20;stroke-width:1.691;stroke-linecap:round;stroke-linejoin:round;stroke-miterlimit:10;}
	.st17{fill:none;stroke:#231F20;stroke-width:2.031;stroke-miterlimit:10;}
	.st18{fill:none;stroke:#231F20;stroke-width:2.031;stroke-linejoin:round;stroke-miterlimit:10;}
	.st19{fill:none;stroke:#FFFFFF;stroke-width:7.454;stroke-linecap:round;stroke-linejoin:round;stroke-miterlimit:10;}
	.st20{fill:none;stroke:#020202;stroke-width:2.485;stroke-linecap:round;stroke-linejoin:round;stroke-miterlimit:10;}
	.st21{fill:none;stroke:#231F20;stroke-width:1.497;stroke-miterlimit:10;}
	.st22{fill:none;stroke:#231F20;stroke-width:2.054;stroke-miterlimit:10;stroke-dasharray:1.369,1.027;}
	.st23{fill:none;stroke:#231F20;stroke-width:1.369;stroke-miterlimit:10;}
	.st24{fill:#020202;}
	.st25{fill:none;}
	.st26{clip-path:url(#SVGID_2_);fill:#231F20;}
	.st27{clip-path:url(#SVGID_4_);fill:#010101;}
	.st28{clip-path:url(#SVGID_6_);fill:#010101;}
	.st29{clip-path:url(#SVGID_6_);fill:none;stroke:#010101;stroke-width:0.432;stroke-miterlimit:10;}
	.st30{fill-rule:evenodd;clip-rule:evenodd;fill:#010101;}
	.st31{clip-path:url(#SVGID_8_);fill:#010101;}
	.st32{clip-path:url(#SVGID_10_);fill:#010101;}
	.st33{clip-path:url(#SVGID_10_);fill:#97999B;}
	.st34{clip-path:url(#SVGID_10_);fill:none;stroke:#010101;stroke-width:0.367;}
	.st35{clip-path:url(#SVGID_12_);fill:none;stroke:#010101;stroke-width:0.367;}
	.st36{fill:#95979A;}
	.st37{fill:none;stroke:#010101;stroke-width:0.367;}
	.st38{fill:#231F20;stroke:#231F20;stroke-width:1.32;stroke-miterlimit:10;}
	.st39{fill:#231F20;stroke:#231F20;stroke-width:0.9;stroke-miterlimit:10;}
	.st40{fill-rule:evenodd;clip-rule:evenodd;fill:#231F20;}
	.st41{fill:none;stroke:#010101;stroke-width:0.349;}
	.st42{clip-path:url(#SVGID_14_);fill:#010101;}
	.st43{clip-path:url(#SVGID_16_);fill:#010101;}
	.st44{clip-path:url(#SVGID_18_);fill:#010101;}
	.st45{clip-path:url(#SVGID_20_);fill:#010101;}
	.st46{clip-path:url(#SVGID_22_);fill:#010101;}
	.st47{clip-path:url(#SVGID_24_);fill:#010101;}
	.st48{clip-path:url(#SVGID_26_);fill:#010101;}
	.st49{clip-path:url(#SVGID_28_);fill:none;stroke:#010101;stroke-width:0.274;}
	.st50{clip-path:url(#SVGID_30_);fill:#010101;}
	.st51{clip-path:url(#SVGID_32_);fill:#010101;}
	.st52{clip-path:url(#SVGID_34_);fill:#010101;}
	.st53{clip-path:url(#SVGID_36_);fill:#231F20;}
	.st54{clip-path:url(#SVGID_36_);fill:#FFFFFF;}
	.st55{clip-path:url(#SVGID_36_);fill:#415364;}
	.st56{clip-path:url(#SVGID_36_);fill-rule:evenodd;clip-rule:evenodd;fill:#FFFFFF;}
	.st57{fill-rule:evenodd;clip-rule:evenodd;fill:#FFFFFF;}
	.st58{fill:none;stroke:#231F20;stroke-width:1.6532;stroke-linecap:round;stroke-linejoin:round;stroke-miterlimit:10;}
	.st59{fill:none;stroke:#231F20;stroke-width:1.9928;stroke-miterlimit:10;}
</style>
<g id="Fondo" class="st0">
</g>
<g id="Layer_1">
	<g>
		<path class="st3" d="M170.1,87.2c1.1,0,1.8,0.3,1.8,1.3c0,1.2-0.9,1.5-1.7,1.5h-1v-2.8H170.1z M170.3,85.6h-2.6
			c-0.4,0-0.6,0.3-0.6,0.7v8.9c0,0.3,0.4,0.3,1,0.3s1,0,1-0.3v-3.7h0.6c1,0,1.4,0.8,1.7,1.6l0.9,2.1c0.1,0.3,0.5,0.3,1,0.3
			c0.8,0,1.1,0,1.1-0.3c0-0.1-0.1-0.3-0.2-0.7l-0.8-1.9c-0.4-1-0.6-1.3-1.4-1.8c1.5-0.5,1.9-1.4,1.9-2.5
			C174,86.7,173,85.6,170.3,85.6 M142.1,95.1l0-6.2l0-1.1l0.4,0.9l0.4,0.9l2.5,4.6c0.3,0.6,0.6,1.2,1.5,1.2h0.9
			c0.4,0,0.7-0.2,0.7-0.7v-8.8c0-0.3-0.4-0.3-0.9-0.3s-0.9,0-0.9,0.3c0,4.9,0,5.3,0,5.7c0,1,0,0.1,0,1.1h0l-0.3-0.6l-2.9-5.5
			c-0.4-0.7-0.6-1-1.4-1H141c-0.5,0-0.7,0.3-0.7,0.7v8.8c0,0.3,0.4,0.3,0.9,0.3C141.7,95.5,142.1,95.4,142.1,95.1 M120.6,85.9
			c0-0.3-0.4-0.3-1-0.3s-1,0-1,0.3v5.7c0,1.2-0.5,2.3-2,2.3c-1.6,0-2-1.2-2-2.3v-5.7c0-0.3-0.4-0.3-1-0.3c-0.6,0-1,0-1,0.3v5.9
			c0,2.8,1.8,3.8,4,3.8c2.2,0,4-0.9,4-3.8V85.9z M165,93.9h-3.5v-2.8h2.9c0.4,0,0.4-0.2,0.4-0.8c0-0.6,0-0.8-0.4-0.8h-2.9v-2.4h3.4
			c0.4,0,0.4-0.2,0.4-0.8c0-0.6,0-0.8-0.4-0.8h-4.9c-0.4,0-0.6,0.3-0.6,0.7v8.6c0,0.4,0.2,0.6,0.6,0.6h4.9c0.4,0,0.4-0.2,0.4-0.8
			C165.4,94.1,165.3,93.9,165,93.9 M138.2,93.9h-3.5v-2.8h2.9c0.4,0,0.4-0.2,0.4-0.8c0-0.6,0-0.8-0.4-0.8h-2.9v-2.4h3.4
			c0.4,0,0.4-0.2,0.4-0.8c0-0.6,0-0.8-0.4-0.8h-4.9c-0.4,0-0.6,0.3-0.6,0.7v8.6c0,0.4,0.2,0.6,0.6,0.6h4.9c0.4,0,0.4-0.2,0.4-0.8
			C138.6,94.1,138.6,93.9,138.2,93.9 M110.6,93.9h-3.5v-2.8h2.9c0.4,0,0.4-0.2,0.4-0.8c0-0.6,0-0.8-0.4-0.8h-2.9v-2.4h3.4
			c0.4,0,0.4-0.2,0.4-0.8c0-0.6,0-0.8-0.4-0.8h-4.9c-0.4,0-0.6,0.3-0.6,0.7v8.6c0,0.4,0.2,0.6,0.6,0.6h4.9c0.4,0,0.4-0.2,0.4-0.8
			C111.1,94.1,111,93.9,110.6,93.9 M94.1,91.5c0.4,0,0.4-0.2,0.4-0.8c0-0.6,0-0.8-0.4-0.8h-2.9v-2.6h3.1c0.4,0,0.4-0.2,0.4-0.8
			s0-0.8-0.4-0.8h-4.5c-0.5,0-0.7,0.2-0.7,0.7v8.9c0,0.3,0.4,0.3,1,0.3s1,0,1-0.3v-3.6H94.1z M180.6,85.4c-2.6,0-5.1,1.5-5.1,5.1
			c0,2.7,1.4,5.1,5.1,5.1c1.1,0,1.9-0.2,2.6-0.5c0.6-0.2,0.6-0.3,0.6-0.8v-3.2c0-0.4-0.3-0.4-1-0.4c-0.6,0-1,0-1,0.4v2.6
			c-0.3,0.2-0.7,0.3-1.1,0.3c-2.3,0-3.1-1.9-3.1-3.5c0-2.3,1.5-3.4,3.2-3.4c1.2,0,2,0.5,2.3,0.7c0.2,0.1,0.3,0.1,0.3,0.1
			c0.2,0,0.3-0.3,0.3-0.8c0-0.3,0-0.6-0.2-0.8C183.1,85.9,182,85.4,180.6,85.4 M153.7,87.1c1,0,1.6,0.3,1.6,1.2c0,1-0.6,1.3-1.5,1.3
			h-1.1v-2.5H153.7z M153.8,85.6h-2.5c-0.4,0-0.6,0.2-0.6,0.7v8.6c0,0.4,0.2,0.6,0.6,0.6h2.6c2.8,0,3.9-1.3,3.9-2.9
			c0-1.5-1-2.2-2-2.4c0.7-0.3,1.4-0.8,1.4-2.1C157.3,86.5,156.1,85.6,153.8,85.6 M153.8,91.1c1.4,0,1.9,0.5,1.9,1.4
			c0,1.2-0.8,1.4-1.6,1.4h-1.4v-2.8H153.8z M125.9,85.6h-2.5c-0.4,0-0.6,0.3-0.6,0.7v8.6c0,0.4,0.2,0.6,0.6,0.6h2.4
			c3.9,0,5.2-2,5.2-5C130.9,87.6,129.7,85.6,125.9,85.6 M125.8,87.2c1.9,0,3.1,0.9,3.1,3.4c0,2.4-1.1,3.4-3.1,3.4h-1v-6.7H125.8z
			 M99.3,87.2c1.1,0,1.8,0.3,1.8,1.3c0,1.2-0.9,1.5-1.7,1.5h-1v-2.8H99.3z M99.5,85.6h-2.6c-0.4,0-0.6,0.3-0.6,0.7v8.9
			c0,0.3,0.4,0.3,1,0.3s1,0,1-0.3v-3.7H99c1,0,1.3,0.8,1.6,1.6l0.9,2.1c0.1,0.3,0.5,0.3,1,0.3c0.8,0,1.1,0,1.1-0.3
			c0-0.1-0.1-0.3-0.2-0.7l-0.8-1.9c-0.4-1-0.6-1.3-1.4-1.8c1.5-0.5,1.9-1.4,1.9-2.5C103.2,86.7,102.2,85.6,99.5,85.6"/>
		<path class="st3" d="M71.5,88.6c-1.4,0-2.2,0.7-2.3,0.8v0c0.5-0.1,1-0.2,1.4-0.2c1.8,0,3.2,1.3,4.1,2.3l2.1,2.5
			c1,1.1,1.7,1.4,2.6,1.4c0.3,0,0.7,0,0.8-0.1v0c-0.1,0-0.8-0.3-1.9-1.6l-1.6-1.9C75.3,90.3,73.8,88.6,71.5,88.6"/>
		<path class="st3" d="M70.3,89.9c-0.4,0-0.7,0.1-0.9,0.2v0c1.1,0.2,2,0.6,3.1,1.9l2,2.3c0.6,0.7,1.5,1.2,2.4,1.2
			c0.2,0,0.5,0,0.6-0.1v0c-0.5-0.2-1.1-0.4-1.8-1.2l-2.1-2.4C72.9,90.9,71.6,89.9,70.3,89.9"/>
		<path class="st3" d="M83.2,85.6H60.6c-0.7,0-1.1,0.3-1.1,1.1v7.6c0,0.6,0.5,1.1,1.1,1.1h0.7c1.6,0,2.8-1.7,4.4-3.6
			c1.7-2,3.6-3.9,6.1-3.9c2.5,0,4.4,1.9,6.2,3.9c1.7,2,2.7,3.6,4.3,3.6H83c0.8,0,1.3-0.5,1.3-1.1v-7.6
			C84.3,85.9,83.8,85.6,83.2,85.6"/>
		<path class="st3" d="M211.9,67.9c0,3.7-1.6,5-3.7,5c-0.8,0-1.4-0.1-2-0.3v-4.1c0-2.5,1.2-4.8,3.2-4.8
			C211.1,63.7,211.9,65.2,211.9,67.9 M215.8,67.5c0-4.4-1.9-6.9-5.4-6.9c-2.2,0-3.8,1-4.6,2.8h-0.1c0.1-0.8,0.1-1.8,0.1-2.5h-3.5
			v21.9h3.8v-7.1c0.6,0.1,1.2,0.1,1.9,0.1C213.2,75.9,215.8,72.6,215.8,67.5 M198.6,75.7V65.5c0-3.3-1.6-4.9-4.4-4.9
			c-2.5,0-4.1,1.5-4.8,2.9c-0.4-1.4-1.5-2.9-4.1-2.9c-2.2,0-4,1.2-4.9,3l0,0c0.1-0.8,0.2-2,0.2-2.6H177v14.7h3.8v-7.1
			c0-2.8,1.6-4.8,3.4-4.8c1.5,0,1.8,1.1,1.8,2.5v9.3h3.7v-7.1c0-2.9,1.7-4.8,3.4-4.8c1.4,0,1.7,1,1.7,2.6v9.3H198.6z M170.3,66.4
			h-5.4c0.2-1.8,1.3-3,2.9-3C169.4,63.4,170.4,64.5,170.3,66.4 M174.1,66.9c0-3.5-1.8-6.3-6.1-6.3c-4.4,0-7,3.4-7,7.8
			c0,5.2,2.6,7.5,7.3,7.5c1.8,0,3.7-0.4,5.3-0.9l-0.4-2.9c-1.4,0.6-2.9,0.9-4.3,0.9c-2.8,0-4.1-1.3-4.1-4h9.1
			C174.1,68.3,174.1,67.4,174.1,66.9 M159.3,75.5l-0.3-3c-0.5,0.1-1.1,0.2-1.7,0.2c-1.3,0-1.8-0.5-1.8-2.4v-6.5h3.6v-2.9h-3.6v-5.5
			l-3.8,1v4.5h-2.6v2.9h2.6v7.5c0,3.4,1,4.6,4.3,4.6C157.2,76,158.4,75.8,159.3,75.5 M147.9,60.6c-2.6-0.2-4,1.4-4.7,3.3h-0.1
			c0.2-1,0.3-2.2,0.3-3h-3.6v14.7h3.8v-6c0-4.1,1.4-5.8,4.1-5.3L147.9,60.6z M133.8,68.2c0,3-1.4,4.5-3.3,4.5
			c-2.2,0-3.3-1.5-3.3-4.6s1.7-4.3,3.4-4.3C132.8,63.8,133.8,65.4,133.8,68.2 M137.7,68c0-5.1-2.7-7.4-6.9-7.4
			c-4.5,0-7.5,3.3-7.5,7.9c0,5.3,2.7,7.4,6.9,7.4C134.6,76,137.7,72.6,137.7,68 M123.6,54c-0.8-0.2-1.6-0.2-2.4-0.2
			c-4,0-5.9,2-5.9,5.9v1.2h-2.6v2.9h2.6v11.8h3.8V63.9h3.4v-2.9h-3.4v-1.2c0-2,0.7-2.8,2.4-2.8c0.6,0,1.2,0.1,1.8,0.3L123.6,54z
			 M110.8,75.7V65.5c0-3.3-1.6-4.9-4.4-4.9c-2.5,0-4.1,1.5-4.8,2.9c-0.4-1.4-1.5-2.9-4.1-2.9c-2.2,0-4,1.2-4.9,3l0,0
			c0.1-0.8,0.2-2,0.2-2.6h-3.6v14.7H93v-7.1c0-2.8,1.6-4.8,3.4-4.8c1.5,0,1.8,1.1,1.8,2.5v9.3h3.7v-7.1c0-2.9,1.7-4.8,3.4-4.8
			c1.4,0,1.8,1,1.8,2.6v9.3H110.8z M82.5,68.2c0,3-1.4,4.5-3.3,4.5c-2.2,0-3.3-1.5-3.3-4.6s1.7-4.3,3.4-4.3
			C81.5,63.8,82.5,65.4,82.5,68.2 M86.4,68c0-5.1-2.7-7.4-6.9-7.4c-4.5,0-7.5,3.3-7.5,7.9c0,5.3,2.7,7.4,6.9,7.4
			C83.3,76,86.4,72.6,86.4,68 M70.3,75.2l-0.5-3.2c-0.9,0.4-1.9,0.6-2.9,0.6c-2.5,0-3.4-1.8-3.4-4.3c0-2.7,1.2-4.5,3.4-4.5
			c1,0,2,0.2,2.8,0.6l0.6-3.3c-0.9-0.3-2.1-0.5-3.2-0.5c-5.1,0-7.5,3.5-7.5,8.1c0,5,2.6,7.2,6.6,7.2C67.6,75.9,69.1,75.7,70.3,75.2"
			/>
		<path class="st3" d="M221.5,64.5c-0.1-0.2-0.2-0.3-0.2-0.4c0.4-0.1,0.6-0.4,0.6-0.9c0-0.5-0.3-0.9-1.1-0.9h-1.3v3.2h0.9v-1.2h0.1
			l0.5,1.2h1L221.5,64.5z M220.4,63.7h-0.2V63h0.2c0.3,0,0.4,0.1,0.4,0.3C220.9,63.5,220.8,63.7,220.4,63.7"/>
		<path class="st3" d="M220.6,60.6c-1.9,0-3.4,1.5-3.4,3.3c0,1.9,1.5,3.3,3.4,3.3c1.8,0,3.4-1.5,3.4-3.3
			C224,62.1,222.5,60.6,220.6,60.6 M220.6,66.4c-1.4,0-2.5-1.1-2.5-2.5c0-1.4,1.1-2.5,2.5-2.5c1.4,0,2.5,1.1,2.5,2.5
			C223.1,65.3,222,66.4,220.6,66.4"/>
	</g>
</g>
</svg>
