<svg xmlns="http://www.w3.org/2000/svg" viewBox="0 0 283.46 149.39"><defs><style>.cls-1{opacity:0.9;}.cls-2{fill:#231f20;}</style></defs><g id="Layer_1" data-name="Layer 1"><path class="cls-2" d="M94.24,69.41l.63-3.55h-.52a11.49,11.49,0,0,0-6.67,2.27l.4-2.28H84.52L80.88,86.42l0,.2H84.4l1.93-10.88a7.91,7.91,0,0,1,7.45-6.33Z"/><path class="cls-2" d="M150.43,65.85a11.49,11.49,0,0,0-6.67,2.27l.4-2.27H140.6l-3.68,20.76h3.56l1.93-10.87a7.9,7.9,0,0,1,7.45-6.33,5.2,5.2,0,0,1,4.08,1.8A5.36,5.36,0,0,1,155,75.68l-1.94,10.93h3.56l1.93-10.87a8.44,8.44,0,0,0-1.71-7,8.19,8.19,0,0,0-6.43-2.85"/><path class="cls-2" d="M198.36,86.62h3.56l1.92-10.87a7.91,7.91,0,0,1,7.46-6.34h.45l.63-3.56h-.51a11.53,11.53,0,0,0-6.68,2.28l.41-2.28H202Z"/><polygon class="cls-2" points="211.14 86.62 214.7 86.62 218.38 65.85 214.82 65.85 211.14 86.62"/><path class="cls-2" d="M242.93,60.6h-3.57l-1.41,8a8.92,8.92,0,0,0-6.63-2.74,13.22,13.22,0,0,0-12.48,10.6A9.09,9.09,0,0,0,220.68,84a8.84,8.84,0,0,0,6.93,3.07,12.44,12.44,0,0,0,7.53-2.69l-.4,2.2h3.56Zm-6.39,15.85a8.86,8.86,0,0,1-8.36,7.11,5.84,5.84,0,0,1-4.58-2,6,6,0,0,1-1.21-5,8.86,8.86,0,0,1,8.36-7.1,5.85,5.85,0,0,1,4.58,2,6,6,0,0,1,1.21,5"/><path class="cls-2" d="M47.14,67.79c0-.13,0-.25,0-.38l0-.27c0-.15,0-.29,0-.44s0-.3-.06-.45l0-.18c0-.14-.05-.28-.07-.42s-.09-.39-.14-.59-.06-.28-.1-.42-.12-.4-.19-.6l-.12-.38c-.08-.2-.16-.41-.25-.61s-.09-.21-.13-.31-.2-.43-.31-.63-.09-.17-.13-.25-.25-.43-.38-.64L45,61c-.15-.22-.3-.43-.46-.64l-.1-.13c-.19-.25-.36-.46-.54-.66l-.06-.07c-.22-.23-.42-.45-.61-.62l0,0A12.37,12.37,0,0,0,40,56.65l-.07,0-.07,0a20.52,20.52,0,0,0-10.36,9.65,14.3,14.3,0,0,0-5.85-1.22,17.81,17.81,0,0,0-7.14,1.55l-.06,0,0,.06A18.29,18.29,0,0,0,15,71.17a13,13,0,0,0-.18,1.42,3.4,3.4,0,0,0,0,.45c0,.34,0,.7,0,1v.38c0,.41,0,.83.1,1.28,0,.11,0,.22,0,.33l0,.12c0,.32.11.62.17.92l0,.08c0,.11.05.22.08.33a12.56,12.56,0,0,0,.9,2.45l.09.18.05.09c.16.31.33.61.52.91l.16.26c.22.32.44.64.68.93l0,.05.06.08c.25.3.51.58.77.85l.08.07.36.33.18.16c.16.14.32.29.5.42s.25.19.38.28l.13.09c.21.15.41.29.62.42l.42.25.09.05.71.37.55.24q.36.17.75.3l.57.19c.27.08.54.15.82.21l.06,0,.51.11c.33.07.66.12.94.15l.17,0,.33,0c.53,0,1,.07,1.5.07a18.48,18.48,0,0,0,10.3-3.32l.78-.55.54-.43c.26-.2.51-.41.76-.63l.75-.69.47-.48.59-.64.39-.45c.3-.36.57-.71.82-1l.15-.22.08-.12c.22-.31.43-.63.62-.93l.26-.45c.18-.3.35-.61.53-1l.06-.12a1.51,1.51,0,0,0,.11-.22c.21-.42.4-.87.58-1.33l.08-.21.05-.14c.13-.36.25-.73.36-1.1l0-.12c0-.1,0-.19.08-.29.14-.54.25-1,.33-1.45s.12-.78.16-1.17a2.29,2.29,0,0,0,0-.25l0-.21c0-.23,0-.46,0-.69v-.6c0-.18,0-.35,0-.52m-18.4,15.8a10.42,10.42,0,0,1-7.48-2.94c-2.78-2.79-3.61-7.15-2.18-11.4a13.63,13.63,0,0,1,4.05-.64,10.81,10.81,0,0,1,5.08,1.24c-.13.49-.22.92-.29,1.32a15.32,15.32,0,0,0-.16,4.42,58.66,58.66,0,0,0-6.43-4.33l-.54-.3.3.53c.05.07,4.21,7.47,9.41,12a11.87,11.87,0,0,1-1.76.13M43.37,71.17a15.28,15.28,0,0,1-5.76,9.22,67.61,67.61,0,0,0,1.26-16.45l0-.75-.28.69c0,.09-3.72,9.06-4.58,16.55a10.48,10.48,0,0,1-2.5-9.2A15.64,15.64,0,0,1,39.32,60.6a10.34,10.34,0,0,1,4,10.57"/><path class="cls-2" d="M194.23,83a3.88,3.88,0,0,1-2,.58,2.75,2.75,0,0,1-2.16-.95,2.83,2.83,0,0,1-.57-2.37l1.92-10.84H199l.63-3.56h-7.55l.93-5.26h-3.56L186,80.19a5.92,5.92,0,0,0,1.2,4.94,5.74,5.74,0,0,0,4.51,2A7.91,7.91,0,0,0,195.73,86l.42-.25-1.48-3Z"/><path class="cls-2" d="M80.72,73.38a13.41,13.41,0,0,0,.36-1.67H63.14l-.63,3.55H76.39a14.69,14.69,0,0,1-12.7,8.33,9.66,9.66,0,0,1-7.59-3.36,10,10,0,0,1-2-8.32A14.65,14.65,0,0,1,67.91,60.17a9.44,9.44,0,0,1,9,5.68h4c-1.43-5.61-6.28-9.23-12.4-9.23-8.39,0-16.44,6.83-17.92,15.23a13,13,0,0,0,2.63,10.89,12.71,12.71,0,0,0,10,4.4,17.38,17.38,0,0,0,3.2-.33c.53-.11,1-.24,1.57-.4s1-.34,1.53-.54,1-.43,1.48-.68,1-.51,1.42-.8.91-.6,1.35-.93.87-.67,1.28-1,.81-.74,1.19-1.14.74-.81,1.09-1.23.67-.87,1-1.32.59-.92.86-1.39.52-1,.74-1.47.42-1,.6-1.52c.11-.32.21-.65.3-1"/><path class="cls-2" d="M186.13,65.85A12.57,12.57,0,0,0,186,63a7.56,7.56,0,0,0-.88-2.34,7.32,7.32,0,0,0-1.59-1.84,8.33,8.33,0,0,0-2.24-1.3,12,12,0,0,0-2.84-.73,17,17,0,0,0-2.29-.14c-6.27,0-11.1,3.44-12,8.56-.74,4.18,1.62,6.92,6.84,7.91l4.75,1c2.16.41,4.64,1.49,4.13,4.33-.55,3.11-3.64,5.13-7.86,5.13-2.55,0-4.48-.65-5.73-1.92a5.82,5.82,0,0,1-1.54-3.69h-4A8.8,8.8,0,0,0,163,84.2c1.79,1.92,4.68,2.93,8.35,2.93,6.57,0,11.63-3.63,12.59-9,.74-4.18-1.58-6.83-6.9-7.88l-4.14-.83c-3.45-.63-5-2.09-4.6-4.33.53-3,3.49-4.91,7.54-4.91s6.41,1.82,6.47,5.28c0,.14,0,.27,0,.41Z"/><path class="cls-2" d="M134.65,68.54a8,8,0,0,0-6.29-2.69,12.76,12.76,0,0,0-12.31,10.56,9.3,9.3,0,0,0,1.75,7.73,8.72,8.72,0,0,0,6.86,2.94,11.38,11.38,0,0,0,10.18-5.71l.21-.41h-4.12a6.59,6.59,0,0,1-5.64,2.7,5.62,5.62,0,0,1-4.16-1.55c-.1-.1-.2-.21-.29-.32s-.17-.23-.25-.35-.16-.24-.23-.37-.13-.26-.19-.39-.12-.28-.17-.42-.09-.29-.13-.44-.07-.31-.1-.46,0-.32-.07-.48l0-.5c0-.09,0-.18,0-.27a1.23,1.23,0,0,1,0-.27h16.37l0-.19a11.16,11.16,0,0,0,.27-1.26,9.49,9.49,0,0,0-1.72-7.85m-14.16,5.77a8,8,0,0,1,7.24-5c3,0,4.9,1.89,5,5Z"/><path class="cls-2" d="M112,68.54a8.05,8.05,0,0,0-6.29-2.69A12.78,12.78,0,0,0,93.37,76.42a9.28,9.28,0,0,0,1.76,7.72A8.72,8.72,0,0,0,102,87.08a11.38,11.38,0,0,0,10.18-5.71l.21-.41h-4.12a6.58,6.58,0,0,1-5.64,2.71,5.65,5.65,0,0,1-4.17-1.56c-.1-.1-.19-.21-.28-.32s-.18-.23-.26-.35-.15-.24-.22-.37-.14-.26-.2-.39-.11-.28-.16-.42-.09-.29-.13-.44-.07-.3-.1-.46,0-.32-.07-.48a4.07,4.07,0,0,1,0-.5,2.44,2.44,0,0,1,0-.27,2.17,2.17,0,0,1,0-.26h16.38l.05-.2a11.16,11.16,0,0,0,.27-1.26A9.49,9.49,0,0,0,112,68.54M97.82,74.31a8,8,0,0,1,7.24-5c3,0,4.9,1.88,5,5Z"/><path class="cls-2" d="M261.14,68.56a8,8,0,0,0-6.29-2.69,12.77,12.77,0,0,0-12.31,10.56,9.27,9.27,0,0,0,1.75,7.72,8.74,8.74,0,0,0,6.86,2.95,11.39,11.39,0,0,0,10.19-5.71l.21-.41h-4.12a6.62,6.62,0,0,1-5.65,2.7,5.66,5.66,0,0,1-4.16-1.55l-.28-.32c-.09-.12-.18-.23-.26-.35s-.15-.24-.22-.37-.14-.26-.2-.4-.11-.27-.16-.41a3.66,3.66,0,0,1-.13-.44,4.24,4.24,0,0,1-.1-.46c0-.16-.05-.32-.07-.48s0-.34,0-.5v-.27a1.22,1.22,0,0,1,0-.27h16.37l.06-.19c.11-.39.19-.82.27-1.27a9.47,9.47,0,0,0-1.73-7.84M247,74.33a8,8,0,0,1,7.24-5c3,0,4.9,1.88,5,5Z"/><path class="cls-2" d="M263.83,61.27h-.78l.17-.63h2.29l-.17.63h-.78l-.53,2h-.73Z"/><path class="cls-2" d="M265.89,60.64h.73l.35,1,.88-1h.82l-.7,2.61h-.73l.4-1.5-.94,1h0l-.39-1-.39,1.49h-.72Z"/></g></svg>