<svg xmlns="http://www.w3.org/2000/svg" xmlns:xlink="http://www.w3.org/1999/xlink" viewBox="0 0 283.46 149.39"><defs><style>.cls-1,.cls-7{fill:none;}.cls-2{opacity:0.9;}.cls-3{clip-path:url(#clip-path);}.cls-4{fill:#010101;}.cls-5{clip-path:url(#clip-path-2);}.cls-6{fill:#97999b;}.cls-7{stroke:#010101;stroke-width:0.37px;}.cls-8{fill:#95979a;}</style><clipPath id="clip-path"><rect class="cls-1" x="24.73" y="36.1" width="216.68" height="81.21"/></clipPath><clipPath id="clip-path-2"><rect class="cls-1" x="24.73" y="36.1" width="222.8" height="81.21"/></clipPath></defs><g id="Layer_1" data-name="Layer 1"><g class="cls-3"><path class="cls-4" d="M83.8,65.25v-8h18.4V73.64a37.59,37.59,0,0,1-9.33,4.87,31.6,31.6,0,0,1-9.62,1.29q-6.84,0-11.17-2.34a16,16,0,0,1-6.68-6.95A22.85,22.85,0,0,1,63,59.92,22,22,0,0,1,65.64,49a16.8,16.8,0,0,1,7.62-7.06q3.92-1.86,10.53-1.86a29.75,29.75,0,0,1,9.54,1.16,12.45,12.45,0,0,1,5.26,3.6A15.87,15.87,0,0,1,101.72,51L90.24,53a6.14,6.14,0,0,0-2.4-3.33,7.54,7.54,0,0,0-4.33-1.15,7.77,7.77,0,0,0-6.25,2.71q-2.34,2.7-2.34,8.57c0,4.17.79,7.14,2.35,8.92a8.23,8.23,0,0,0,6.55,2.68,12.34,12.34,0,0,0,3.81-.58,19.8,19.8,0,0,0,4.14-2V65.25Z"/><path class="cls-4" d="M111.65,67.77l12.47-.84a10.84,10.84,0,0,0,1.65,5,6.7,6.7,0,0,0,5.8,2.79,6,6,0,0,0,4.33-1.42,4.32,4.32,0,0,0,.07-6.54c-1-1-3.2-1.84-6.71-2.68-5.75-1.41-9.84-3.27-12.28-5.61a11.7,11.7,0,0,1-3.7-8.9,12.73,12.73,0,0,1,7.59-11.69q3.81-1.8,10.43-1.8,8.13,0,12.38,3.3c2.84,2.19,4.54,5.67,5.07,10.46l-12.31.77a7.4,7.4,0,0,0-2.08-4.54A6.33,6.33,0,0,0,130,44.67a5.05,5.05,0,0,0-3.47,1,3.35,3.35,0,0,0-1.16,2.57,2.63,2.63,0,0,0,1,2c.63.61,2.09,1.18,4.41,1.71,5.72,1.34,9.82,2.71,12.29,4.08a13.42,13.42,0,0,1,5.42,5.13A13.94,13.94,0,0,1,150.13,68a15.64,15.64,0,0,1-2.26,8.19,14.46,14.46,0,0,1-6.32,5.68,23.47,23.47,0,0,1-10.2,1.93q-10.83,0-15-4.53a18.72,18.72,0,0,1-4.71-11.52"/></g><g class="cls-5"><path class="cls-4" d="M160,79.21l0-38.47h19.77a28.62,28.62,0,0,1,8.4,1,8.93,8.93,0,0,1,4.68,3.51,10.63,10.63,0,0,1,1.78,6.24A10.66,10.66,0,0,1,193.31,57a10.52,10.52,0,0,1-3.73,3.77,14.23,14.23,0,0,1-4.15,1.52,11.67,11.67,0,0,1,3.08,1.42,12.14,12.14,0,0,1,1.9,2,15.61,15.61,0,0,1,1.66,2.39l3.5,11.14H182.14l-4.06-11.75a8.86,8.86,0,0,0-2.14-3,4.88,4.88,0,0,0-2.89-.9H172v15.6Zm12-22.87h5a16.9,16.9,0,0,0,3.1-.51A3.12,3.12,0,0,0,182,54.62a3.72,3.72,0,0,0,.73-2.25,3.56,3.56,0,0,0-1.16-2.85c-.78-.67-2.24-1-4.38-1H172Z"/><path class="cls-4" d="M210.09,39.29V41h-2.44v6.91h-2.11V41h-2.4V39.29Zm8.57,8.63-.21-4.11c0-.86,0-1.81-.07-2.94h0c-.23,1-.55,2.07-.8,2.94l-1.26,4h-1.64l-1.1-4c-.22-.84-.44-1.87-.7-2.88h0c0,1,0,2-.08,2.89l-.2,4.16H210.6l.58-8.64h2.89l1,3.37c.22.76.39,1.63.61,2.48h0c.24-.87.46-1.76.69-2.5l1-3.36h2.72l.59,8.64Z"/><path class="cls-6" d="M37.26,102.31a2.47,2.47,0,0,0-1.66-1.72,4.52,4.52,0,0,0-1.64-.28,3.89,3.89,0,0,0-2.86,1.1A4.46,4.46,0,0,0,30,104.72a3.71,3.71,0,0,0,1.2,3.15,4.44,4.44,0,0,0,2.74.94,4,4,0,0,0,2.48-.73,3,3,0,0,0,1.19-1.91H34.27v-2l6,0,0,6.49h-2L38,109.13a6.7,6.7,0,0,1-1.57,1.21,6.31,6.31,0,0,1-2.92.6,6.66,6.66,0,0,1-4.68-1.67,5.83,5.83,0,0,1-1.89-4.59,6.08,6.08,0,0,1,1.94-4.7,7.16,7.16,0,0,1,5.08-1.76,7.49,7.49,0,0,1,4.4,1.18,4.21,4.21,0,0,1,1.9,2.92Z"/><path class="cls-7" d="M37.26,102.31a2.47,2.47,0,0,0-1.66-1.72,4.52,4.52,0,0,0-1.64-.28,3.89,3.89,0,0,0-2.86,1.1A4.46,4.46,0,0,0,30,104.72a3.71,3.71,0,0,0,1.2,3.15,4.44,4.44,0,0,0,2.74.94,4,4,0,0,0,2.48-.73,3,3,0,0,0,1.19-1.91H34.27v-2l6,0,0,6.49h-2L38,109.13a6.7,6.7,0,0,1-1.57,1.21,6.31,6.31,0,0,1-2.92.6,6.66,6.66,0,0,1-4.68-1.67,5.83,5.83,0,0,1-1.89-4.59,6.08,6.08,0,0,1,1.94-4.7,7.16,7.16,0,0,1,5.08-1.76,7.49,7.49,0,0,1,4.4,1.18,4.21,4.21,0,0,1,1.9,2.92Z"/><path class="cls-6" d="M52.33,99.17a3.5,3.5,0,0,1,1.34.85,3.27,3.27,0,0,1,.72,1,2.86,2.86,0,0,1,.27,1.27,3.14,3.14,0,0,1-.53,1.69,2.74,2.74,0,0,1-1.71,1.17,2.67,2.67,0,0,1,1.41,1,3.49,3.49,0,0,1,.41,1.89v.81a5.54,5.54,0,0,0,.07,1.13,1,1,0,0,0,.56.69V111H51.55c-.09-.27-.16-.49-.2-.65a4.55,4.55,0,0,1-.12-1l0-1.13a2.07,2.07,0,0,0-.47-1.55A2.71,2.71,0,0,0,49,106.2H46.11l0,4.75H43.17l0-12.11,6.87,0a7.41,7.41,0,0,1,2.26.32M46.12,101v3.24h3.23a4,4,0,0,0,1.44-.2,1.31,1.31,0,0,0,.86-1.35,1.45,1.45,0,0,0-.82-1.47,3.32,3.32,0,0,0-1.39-.22Z"/><path class="cls-7" d="M52.33,99.17a3.5,3.5,0,0,1,1.34.85,3.27,3.27,0,0,1,.72,1,2.86,2.86,0,0,1,.27,1.27,3.14,3.14,0,0,1-.53,1.69,2.74,2.74,0,0,1-1.71,1.17,2.67,2.67,0,0,1,1.41,1,3.49,3.49,0,0,1,.41,1.89v.81a5.54,5.54,0,0,0,.07,1.13,1,1,0,0,0,.56.69V111H51.55c-.09-.27-.16-.49-.2-.65a4.55,4.55,0,0,1-.12-1l0-1.13a2.07,2.07,0,0,0-.47-1.55A2.71,2.71,0,0,0,49,106.2H46.11l0,4.75H43.17l0-12.11,6.87,0A7.41,7.41,0,0,1,52.33,99.17ZM46.12,101v3.24h3.23a4,4,0,0,0,1.44-.2,1.31,1.31,0,0,0,.86-1.35,1.45,1.45,0,0,0-.82-1.47,3.32,3.32,0,0,0-1.39-.22Z"/><rect class="cls-6" x="52.55" y="103.36" width="12.1" height="2.98" transform="translate(-46.44 163.11) rotate(-89.81)"/><rect class="cls-7" x="52.55" y="103.36" width="12.1" height="2.98" transform="translate(-46.44 163.11) rotate(-89.81)"/><path class="cls-6" d="M72.71,105.72a6.22,6.22,0,0,1-3.6.88h-3v4.35h-3l0-12.1,6.17,0a5.6,5.6,0,0,1,3.4.94A3.35,3.35,0,0,1,74,102.7a3.4,3.4,0,0,1-1.27,3m-2.28-4.36a2.71,2.71,0,0,0-1.59-.4H66.13v3.56h2.71a2.6,2.6,0,0,0,1.6-.43,1.63,1.63,0,0,0,.57-1.38,1.54,1.54,0,0,0-.57-1.35"/><path class="cls-7" d="M72.71,105.72a6.22,6.22,0,0,1-3.6.88h-3v4.35h-3l0-12.1,6.17,0a5.6,5.6,0,0,1,3.4.94A3.35,3.35,0,0,1,74,102.7,3.4,3.4,0,0,1,72.71,105.72Zm-2.28-4.36a2.71,2.71,0,0,0-1.59-.4H66.13v3.56h2.71a2.6,2.6,0,0,0,1.6-.43,1.63,1.63,0,0,0,.57-1.38A1.54,1.54,0,0,0,70.43,101.36Z"/><path class="cls-6" d="M78.55,107.05a2.23,2.23,0,0,0,.54,1.24,3.58,3.58,0,0,0,2.55.76,6.13,6.13,0,0,0,1.76-.2c.85-.25,1.28-.71,1.28-1.4a1,1,0,0,0-.62-.93,7.41,7.41,0,0,0-2-.57l-1.56-.29a11.08,11.08,0,0,1-3.15-.94,2.8,2.8,0,0,1-1.45-2.63,3.26,3.26,0,0,1,1.43-2.7,6.83,6.83,0,0,1,4.17-1.07,7.31,7.31,0,0,1,3.92,1,3.46,3.46,0,0,1,1.69,3H84.26a1.73,1.73,0,0,0-1.15-1.56,4.67,4.67,0,0,0-1.79-.31,4,4,0,0,0-1.91.39,1.22,1.22,0,0,0-.71,1.1,1,1,0,0,0,.7,1,10.46,10.46,0,0,0,1.9.51l2.52.51a7,7,0,0,1,2.48.88,2.81,2.81,0,0,1,1.28,2.48A3.33,3.33,0,0,1,86.05,110a7.31,7.31,0,0,1-4.31,1.08A8,8,0,0,1,77.28,110a3.38,3.38,0,0,1-1.61-3Z"/><path class="cls-7" d="M78.55,107.05a2.23,2.23,0,0,0,.54,1.24,3.58,3.58,0,0,0,2.55.76,6.13,6.13,0,0,0,1.76-.2c.85-.25,1.28-.71,1.28-1.4a1,1,0,0,0-.62-.93,7.41,7.41,0,0,0-2-.57l-1.56-.29a11.08,11.08,0,0,1-3.15-.94,2.8,2.8,0,0,1-1.45-2.63,3.26,3.26,0,0,1,1.43-2.7,6.83,6.83,0,0,1,4.17-1.07,7.31,7.31,0,0,1,3.92,1,3.46,3.46,0,0,1,1.69,3H84.26a1.73,1.73,0,0,0-1.15-1.56,4.67,4.67,0,0,0-1.79-.31,4,4,0,0,0-1.91.39,1.22,1.22,0,0,0-.71,1.1,1,1,0,0,0,.7,1,10.46,10.46,0,0,0,1.9.51l2.52.51a7,7,0,0,1,2.48.88,2.81,2.81,0,0,1,1.28,2.48A3.33,3.33,0,0,1,86.05,110a7.31,7.31,0,0,1-4.31,1.08A8,8,0,0,1,77.28,110a3.38,3.38,0,0,1-1.61-3Z"/><polygon class="cls-6" points="100.18 98.85 100.18 100.99 95.86 100.98 95.83 110.94 92.81 110.94 92.84 100.97 88.52 100.96 88.53 98.82 100.18 98.85"/><polygon class="cls-7" points="100.18 98.85 100.18 100.99 95.86 100.98 95.83 110.94 92.81 110.94 92.84 100.97 88.52 100.96 88.53 98.82 100.18 98.85"/><rect class="cls-6" x="97.07" y="103.4" width="12.11" height="2.98" transform="translate(-2.05 207.72) rotate(-89.84)"/><rect class="cls-7" x="97.07" y="103.4" width="12.11" height="2.98" transform="translate(-2.05 207.72) rotate(-89.84)"/><path class="cls-6" d="M108.8,99.74a6.59,6.59,0,0,1,4.43-1.48q3.58,0,5.24,2a3.92,3.92,0,0,1,1,2.26h-3a2.78,2.78,0,0,0-3.11-2.13,3.15,3.15,0,0,0-2.55,1.11,4.86,4.86,0,0,0-.94,3.16,4.32,4.32,0,0,0,1,3.07,3.29,3.29,0,0,0,2.48,1,3.05,3.05,0,0,0,2.36-.86,3.57,3.57,0,0,0,.75-1.41l3,0a5.23,5.23,0,0,1-2,3.21,6.38,6.38,0,0,1-4.07,1.22,6.69,6.69,0,0,1-4.82-1.69,6,6,0,0,1-1.74-4.62,6.13,6.13,0,0,1,2-4.89"/><path class="cls-7" d="M108.8,99.74a6.59,6.59,0,0,1,4.43-1.48q3.58,0,5.24,2a3.92,3.92,0,0,1,1,2.26h-3a2.78,2.78,0,0,0-3.11-2.13,3.15,3.15,0,0,0-2.55,1.11,4.86,4.86,0,0,0-.94,3.16,4.32,4.32,0,0,0,1,3.07,3.29,3.29,0,0,0,2.48,1,3.05,3.05,0,0,0,2.36-.86,3.57,3.57,0,0,0,.75-1.41l3,0a5.23,5.23,0,0,1-2,3.21,6.38,6.38,0,0,1-4.07,1.22,6.69,6.69,0,0,1-4.82-1.69,6,6,0,0,1-1.74-4.62A6.13,6.13,0,0,1,108.8,99.74Z"/><polygon class="cls-6" points="121.9 98.84 124.86 98.85 124.84 103.83 130.4 98.86 134.27 98.87 128.38 103.84 134.54 110.98 130.68 110.97 126.27 105.68 124.83 106.9 124.82 110.95 121.86 110.94 121.9 98.84"/><polygon class="cls-7" points="121.9 98.84 124.86 98.85 124.84 103.83 130.4 98.86 134.27 98.87 128.38 103.84 134.54 110.98 130.68 110.97 126.27 105.68 124.83 106.9 124.82 110.95 121.86 110.94 121.9 98.84"/><path class="cls-6" d="M167.63,99.18A3.49,3.49,0,0,1,169,100a3.41,3.41,0,0,1,.71,1,2.73,2.73,0,0,1,.26,1.27,3.12,3.12,0,0,1-.52,1.69,2.81,2.81,0,0,1-1.71,1.17,2.72,2.72,0,0,1,1.41,1,3.55,3.55,0,0,1,.41,1.9v.81a5.61,5.61,0,0,0,.07,1.13,1,1,0,0,0,.56.69V111h-3.32c-.09-.27-.16-.49-.2-.65a5.2,5.2,0,0,1-.13-1v-1.12a2.07,2.07,0,0,0-.47-1.55,2.73,2.73,0,0,0-1.71-.39H161.4V111h-2.92l0-12.1,6.87,0a7.11,7.11,0,0,1,2.26.32M161.42,101v3.23h3.23a3.84,3.84,0,0,0,1.44-.19,1.32,1.32,0,0,0,.86-1.35,1.47,1.47,0,0,0-.82-1.48,3.52,3.52,0,0,0-1.39-.21Z"/><path class="cls-7" d="M167.63,99.18A3.49,3.49,0,0,1,169,100a3.41,3.41,0,0,1,.71,1,2.73,2.73,0,0,1,.26,1.27,3.12,3.12,0,0,1-.52,1.69,2.81,2.81,0,0,1-1.71,1.17,2.72,2.72,0,0,1,1.41,1,3.55,3.55,0,0,1,.41,1.9v.81a5.61,5.61,0,0,0,.07,1.13,1,1,0,0,0,.56.69V111h-3.32c-.09-.27-.16-.49-.2-.65a5.2,5.2,0,0,1-.13-1v-1.12a2.07,2.07,0,0,0-.47-1.55,2.73,2.73,0,0,0-1.71-.39H161.4V111h-2.92l0-12.1,6.87,0A7.11,7.11,0,0,1,167.63,99.18ZM161.42,101v3.23h3.23a3.84,3.84,0,0,0,1.44-.19,1.32,1.32,0,0,0,.86-1.35,1.47,1.47,0,0,0-.82-1.48,3.52,3.52,0,0,0-1.39-.21Z"/><path class="cls-6" d="M172.82,98.51h3l0,7.44a3.65,3.65,0,0,0,.35,1.82c.36.68,1.15,1,2.38,1a2.43,2.43,0,0,0,2.37-1,3.65,3.65,0,0,0,.35-1.82l0-7.43h3l0,7.44a5.38,5.38,0,0,1-.72,3q-1.32,2-5.06,2c-2.49,0-4.17-.66-5.06-2a5.47,5.47,0,0,1-.7-3Z"/><path class="cls-7" d="M172.82,98.51h3l0,7.44a3.65,3.65,0,0,0,.35,1.82c.36.68,1.15,1,2.38,1a2.43,2.43,0,0,0,2.37-1,3.65,3.65,0,0,0,.35-1.82l0-7.43h3l0,7.44a5.38,5.38,0,0,1-.72,3q-1.32,2-5.06,2c-2.49,0-4.17-.66-5.06-2a5.47,5.47,0,0,1-.7-3Z"/><path class="cls-6" d="M198,100.16a2.75,2.75,0,0,1,.65,1.85,2.4,2.4,0,0,1-.67,1.78,3.24,3.24,0,0,1-1.09.68,3.19,3.19,0,0,1,1.65,1.08,2.82,2.82,0,0,1,.56,1.77,3.12,3.12,0,0,1-.65,1.93,3.57,3.57,0,0,1-1,1,4.23,4.23,0,0,1-1.62.6,11.77,11.77,0,0,1-2,.16l-6.47,0,0-12.1,6.94,0a4.83,4.83,0,0,1,3.72,1.3m-7.81,5.46v3.22h3.49a3.61,3.61,0,0,0,1.45-.21,1.48,1.48,0,0,0,.95-1.5,1.3,1.3,0,0,0-.91-1.3,4.37,4.37,0,0,0-1.43-.21Zm0-4.66v2.65h3.47a3.13,3.13,0,0,0,1.51-.29,1.09,1.09,0,0,0,.59-1.06,1.07,1.07,0,0,0-.76-1.11,6.15,6.15,0,0,0-1.69-.19Z"/><path class="cls-7" d="M198,100.16a2.75,2.75,0,0,1,.65,1.85,2.4,2.4,0,0,1-.67,1.78,3.24,3.24,0,0,1-1.09.68,3.19,3.19,0,0,1,1.65,1.08,2.82,2.82,0,0,1,.56,1.77,3.12,3.12,0,0,1-.65,1.93,3.57,3.57,0,0,1-1,1,4.23,4.23,0,0,1-1.62.6,11.77,11.77,0,0,1-2,.16l-6.47,0,0-12.1,6.94,0A4.83,4.83,0,0,1,198,100.16Zm-7.81,5.46v3.22h3.49a3.61,3.61,0,0,0,1.45-.21,1.48,1.48,0,0,0,.95-1.5,1.3,1.3,0,0,0-.91-1.3,4.37,4.37,0,0,0-1.43-.21Zm0-4.66v2.65h3.47a3.13,3.13,0,0,0,1.51-.29,1.09,1.09,0,0,0,.59-1.06,1.07,1.07,0,0,0-.76-1.11,6.15,6.15,0,0,0-1.69-.19Z"/><path class="cls-6" d="M212.37,100.16A2.75,2.75,0,0,1,213,102a2.41,2.41,0,0,1-.67,1.78,3.24,3.24,0,0,1-1.09.68,3.19,3.19,0,0,1,1.65,1.08,2.82,2.82,0,0,1,.56,1.77,3.17,3.17,0,0,1-.64,1.93,3.74,3.74,0,0,1-1,1,4.29,4.29,0,0,1-1.62.6,11.77,11.77,0,0,1-2,.16l-6.47,0,0-12.1,6.93,0a4.83,4.83,0,0,1,3.72,1.3m-7.81,5.46v3.22H208a3.61,3.61,0,0,0,1.45-.21,1.48,1.48,0,0,0,.95-1.5,1.3,1.3,0,0,0-.91-1.3,4.39,4.39,0,0,0-1.44-.21Zm0-4.66v2.65H208a3.15,3.15,0,0,0,1.51-.29,1.22,1.22,0,0,0-.17-2.17,6.2,6.2,0,0,0-1.69-.19Z"/><path class="cls-7" d="M212.37,100.16A2.75,2.75,0,0,1,213,102a2.41,2.41,0,0,1-.67,1.78,3.24,3.24,0,0,1-1.09.68,3.19,3.19,0,0,1,1.65,1.08,2.82,2.82,0,0,1,.56,1.77,3.17,3.17,0,0,1-.64,1.93,3.74,3.74,0,0,1-1,1,4.29,4.29,0,0,1-1.62.6,11.77,11.77,0,0,1-2,.16l-6.47,0,0-12.1,6.93,0A4.83,4.83,0,0,1,212.37,100.16Zm-7.81,5.46v3.22H208a3.61,3.61,0,0,0,1.45-.21,1.48,1.48,0,0,0,.95-1.5,1.3,1.3,0,0,0-.91-1.3,4.39,4.39,0,0,0-1.44-.21Zm0-4.66v2.65H208a3.15,3.15,0,0,0,1.51-.29,1.22,1.22,0,0,0-.17-2.17,6.2,6.2,0,0,0-1.69-.19Z"/><polygon class="cls-6" points="226.67 101.01 219.07 100.99 219.07 103.56 226.04 103.58 226.03 105.68 219.06 105.67 219.05 108.77 227 108.79 227 110.98 216.12 110.94 216.15 98.84 226.68 98.87 226.67 101.01"/><polygon class="cls-7" points="226.67 101.01 219.07 100.99 219.07 103.56 226.04 103.58 226.03 105.68 219.06 105.67 219.05 108.77 227 108.79 227 110.98 216.12 110.94 216.15 98.84 226.68 98.87 226.67 101.01"/><path class="cls-6" d="M238.58,99.18a3.38,3.38,0,0,1,1.34.85,3.57,3.57,0,0,1,.72,1,2.73,2.73,0,0,1,.26,1.27,3.12,3.12,0,0,1-.52,1.69,2.83,2.83,0,0,1-1.71,1.17,2.72,2.72,0,0,1,1.41,1,3.55,3.55,0,0,1,.41,1.9v.81a5.38,5.38,0,0,0,.08,1.13,1,1,0,0,0,.56.69V111h-3.33c-.09-.27-.15-.49-.19-.65a5.2,5.2,0,0,1-.13-1v-1.12a2.07,2.07,0,0,0-.47-1.55,2.73,2.73,0,0,0-1.71-.39h-2.93V111h-2.92l0-12.1,6.87,0a7.11,7.11,0,0,1,2.26.32M232.37,101v3.23h3.23A3.93,3.93,0,0,0,237,104a1.33,1.33,0,0,0,.85-1.35,1.47,1.47,0,0,0-.82-1.48,3.52,3.52,0,0,0-1.39-.21Z"/></g><g class="cls-3"><path class="cls-7" d="M238.58,99.18a3.38,3.38,0,0,1,1.34.85,3.57,3.57,0,0,1,.72,1,2.73,2.73,0,0,1,.26,1.27,3.12,3.12,0,0,1-.52,1.69,2.83,2.83,0,0,1-1.71,1.17,2.72,2.72,0,0,1,1.41,1,3.55,3.55,0,0,1,.41,1.9v.81a5.38,5.38,0,0,0,.08,1.13,1,1,0,0,0,.56.69V111h-3.33c-.09-.27-.15-.49-.19-.65a5.2,5.2,0,0,1-.13-1v-1.12a2.07,2.07,0,0,0-.47-1.55,2.73,2.73,0,0,0-1.71-.39h-2.93V111h-2.92l0-12.1,6.87,0A7.11,7.11,0,0,1,238.58,99.18ZM232.37,101v3.23h3.23A3.93,3.93,0,0,0,237,104a1.33,1.33,0,0,0,.85-1.35,1.47,1.47,0,0,0-.82-1.48,3.52,3.52,0,0,0-1.39-.21Z"/></g><polygon class="cls-8" points="139.2 94.8 139.2 95.72 137.65 95.72 137.65 99.99 136.56 99.99 136.56 95.72 135 95.72 135 94.8 139.2 94.8"/><polygon class="cls-7" points="139.2 94.8 139.2 95.72 137.65 95.72 137.65 99.99 136.56 99.99 136.56 95.72 135 95.72 135 94.8 139.2 94.8"/><path class="cls-8" d="M143.27,94.79h1.56V100h-1V96.47c0-.1,0-.24,0-.42v-.42l-1,4.36h-1.06l-1-4.36v.42c0,.18,0,.32,0,.42V100h-1v-5.2h1.58l1,4.09Z"/><path class="cls-7" d="M143.27,94.79h1.56V100h-1V96.47c0-.1,0-.24,0-.42v-.42l-1,4.36h-1.06l-1-4.36v.42c0,.18,0,.32,0,.42V100h-1v-5.2h1.58l1,4.09Z"/><rect class="cls-1" x="24.73" y="36.1" width="222.8" height="81.21"/><rect class="cls-1" x="24.73" y="36.1" width="216.68" height="81.21"/><rect class="cls-1" x="24.73" y="36.1" width="222.8" height="81.21"/><rect class="cls-1" x="24.73" y="36.1" width="216.68" height="81.21"/><rect class="cls-1" x="24.73" y="36.1" width="222.8" height="81.21"/><rect class="cls-1" x="24.73" y="36.1" width="216.68" height="81.21"/><rect class="cls-1" x="24.73" y="36.1" width="222.8" height="81.21"/></g></svg>