<?xml version="1.0" encoding="utf-8"?>
<!-- Generator: Adobe Illustrator 22.1.0, SVG Export Plug-In . SVG Version: 6.00 Build 0)  -->
<svg version="1.1" id="Icons" xmlns="http://www.w3.org/2000/svg" xmlns:xlink="http://www.w3.org/1999/xlink" x="0px" y="0px"
	 viewBox="0 0 46 39.2" style="enable-background:new 0 0 46 39.2;" xml:space="preserve">
<style type="text/css">
	.st0{fill:none;stroke:#000000;stroke-width:2;stroke-linecap:round;stroke-linejoin:round;}
</style>
<title>Icon_Fabric_Insulated_white</title>
<polyline class="st0" points="28,34.2 24,38.2 20,34.2 "/>
<polyline class="st0" points="40,34.2 36,38.2 32,34.2 "/>
<path class="st0" d="M22,17.5c-1.3,1.8-2,4-1.9,6.2c0,6.2,3.8,6.2,3.8,12.5"/>
<path class="st0" d="M23.9,11.2c0,0.8-0.1,1.7-0.2,2.5"/>
<path class="st0" d="M32.8,19.8c-0.5,1.3-0.7,2.6-0.7,4c0,6.2,3.8,6.2,3.8,12.5"/>
<path class="st0" d="M35.6,14.1c-0.2,0.8-0.5,1.5-0.9,2.2"/>
<polyline class="st0" points="16,34.2 12,38.2 8,34.2 "/>
<path class="st0" d="M8.8,19.8c-0.5,1.3-0.7,2.6-0.7,4c0,6.2,3.8,6.2,3.8,12.5"/>
<path class="st0" d="M11.6,14.1c-0.2,0.8-0.5,1.5-0.9,2.2"/>
<path class="st0" d="M45,6.1C36.5,6.1,31.2,1,23.3,1h-0.5C14.8,1,9.5,6.1,1,6.1"/>
<path class="st0" d="M45,12.2c-8.5,0-13.8-5.1-21.7-5.1h-0.5c-7.9,0-13.2,5.1-21.7,5.1"/>
</svg>
