<svg xmlns="http://www.w3.org/2000/svg" xmlns:xlink="http://www.w3.org/1999/xlink" viewBox="0 0 283.46 149.39"><defs><style>.cls-1{fill:none;}.cls-2{opacity:0.9;}.cls-3{clip-path:url(#clip-path);}.cls-4{fill:#010101;}</style><clipPath id="clip-path"><rect class="cls-1" x="36.07" y="30.16" width="219.32" height="85.93"/></clipPath></defs><g id="Layer_1" data-name="Layer 1"><g class="cls-3"><path class="cls-4" d="M125.73,49.16a14.55,14.55,0,0,0-8.13,2.39V31.79h-5.35l0,58.25h5.4l.05-27.74c0-5,4.07-7.71,8-7.71s8.06,2.71,8.06,7.71l0,27.74h5.57l-.1-27.74c0-8.9-6.7-13.14-13.48-13.14"/><rect class="cls-4" x="191.47" y="40.1" width="5.31" height="5.66"/><path class="cls-4" d="M98.86,76.63v-22h8.82V49.16H98.86V32H93.51V76.63c0,7.8,7,13.4,14.93,13.4V84.68c-5.17,0-9.58-3.64-9.58-8.05"/><path class="cls-4" d="M207.57,76.63v-22h8.82V49.16h-8.82V32h-5.34V76.63c0,7.8,7,13.4,14.92,13.4V84.68c-5.17,0-9.58-3.64-9.58-8.05"/><path class="cls-4" d="M178.26,76.76V32.08h-5.34V76.76c0,7.75,6.86,13.32,14.77,13.39v0l.15-5.34v0c-5.17,0-9.58-3.64-9.58-8"/><path class="cls-4" d="M87.91,49.29c-7.91.07-14.77,5.65-14.77,13.4V90h5.34V62.69c0-4.42,4.41-8.06,9.58-8.06v0h1.63V49.25H87.91Z"/><rect class="cls-4" x="191.46" y="49.33" width="5.34" height="40.7"/><path class="cls-4" d="M232,84.94a7.67,7.67,0,0,1-7.71-7.63V74.43H232C239,74.43,245,69.51,245,62A13.13,13.13,0,0,0,232,48.82,13.27,13.27,0,0,0,218.83,62V77.31A13,13,0,0,0,232,90.37a14.33,14.33,0,0,0,12-6.19L239.43,81a9.49,9.49,0,0,1-7.46,4m-7.71-22.81a7.71,7.71,0,0,1,7.71-7.8A7.59,7.59,0,0,1,239.6,62a7.69,7.69,0,0,1-7.63,7.8h-7.71Z"/><path class="cls-4" d="M156.1,49.16c-6.7,0-13.48,4.24-13.48,13.15V77.74c0,8.82,6.69,13.14,13.48,13.14s13.48-4.32,13.48-13.14V62.31c0-8.91-6.7-13.15-13.48-13.15m8.05,28.58c0,5.08-4,7.63-8.05,7.63S148,82.82,148,77.74V62.31c0-5,4.07-7.72,8.06-7.72s8.05,2.71,8.05,7.72Z"/><path class="cls-4" d="M53.82,30.16c-7.89,0-15.61,4.67-15.61,13.91V76.55c0,9.32,7.72,14,15.61,14s15.6-4.66,15.6-14V44.07c0-9.24-7.8-13.91-15.6-13.91M63.9,76.55c0,5.59-5,8.47-10.08,8.47s-10.18-2.88-10.18-8.47V44.07c0-5.51,5-8.4,10.18-8.4s10.08,2.89,10.08,8.4Z"/><path class="cls-4" d="M46.24,104.27c-.12-2.42-1.8-4.37-3.84-4.37a3.89,3.89,0,0,0-3.89,3.87v4.48a3.94,3.94,0,0,0,3.89,3.87c2.07,0,3.73-1.91,3.84-4.38H44.59c-.08,1.52-1,2.73-2.19,2.73a2.23,2.23,0,0,1-2.24-2.22v-4.48a2.25,2.25,0,0,1,2.24-2.19c1.18,0,2.11,1.17,2.19,2.69Z"/><path class="cls-4" d="M51.64,99.9a3.7,3.7,0,0,0-4,3.85v4.5a3.71,3.71,0,0,0,4,3.87,3.77,3.77,0,0,0,4-3.87v-4.5a3.71,3.71,0,0,0-4-3.85M54,108.25a2.33,2.33,0,0,1-4.65,0v-4.5a2.23,2.23,0,0,1,2.33-2.22A2.2,2.2,0,0,1,54,103.75Z"/><path class="cls-4" d="M72.43,112h1.62V104.4h2.54v-1.62H74.05v-4c0-1.19,1.27-2.21,2.83-2.29V94.84c-2.48.1-4.45,1.82-4.45,3.92Z"/><path class="cls-4" d="M81.9,99.9a3.7,3.7,0,0,0-4,3.85v4.5a3.71,3.71,0,0,0,4,3.87,3.77,3.77,0,0,0,4-3.87v-4.5a3.71,3.71,0,0,0-4-3.85m2.32,8.35a2.33,2.33,0,0,1-4.65,0v-4.5a2.23,2.23,0,0,1,2.33-2.22,2.2,2.2,0,0,1,2.32,2.22Z"/><path class="cls-4" d="M95.48,108v-6.38h2.57V100H95.48V95H93.85V108c0,2.15,1.93,3.85,4.43,3.94v-1.62c-1.57-.09-2.8-1.09-2.8-2.32"/><path class="cls-4" d="M104.56,112h1.62V104.4h2.55v-1.62h-2.55v-4c0-1.19,1.28-2.21,2.83-2.29V94.84c-2.47.1-4.45,1.82-4.45,3.92Z"/><path class="cls-4" d="M120.21,99.9a3.7,3.7,0,0,0-3.94,3.85v4.5a3.71,3.71,0,0,0,3.94,3.87,3.77,3.77,0,0,0,4-3.87v-4.5a3.72,3.72,0,0,0-4-3.85m2.33,8.35a2.33,2.33,0,0,1-4.65,0v-4.5a2.33,2.33,0,0,1,4.65,0Z"/><path class="cls-4" d="M147,108v-6.38h2.57V100H147V95h-1.62V108c0,2.15,1.92,3.85,4.42,3.94v-1.62c-1.56-.09-2.8-1.09-2.8-2.32"/><path class="cls-4" d="M155.4,100a2.05,2.05,0,0,0-1.84,1l-.4.57,0-6.49h-1.65v17h1.65v-8.14a2.3,2.3,0,0,1,2.23-2.25h.1a2.19,2.19,0,0,1,2.11,2.25V112h1.65l0-8.14c0-2-1.34-4.09-3.8-3.9"/><path class="cls-4" d="M164.65,107.21c1.86,0,3.85-1.08,3.85-3.44a3.87,3.87,0,0,0-3.85-3.87,4,4,0,0,0-3.87,3.9v4.45a3.87,3.87,0,0,0,3.87,3.84,4.36,4.36,0,0,0,3.53-1.84l-1.35-1a2.9,2.9,0,0,1-2.18,1.17,2.21,2.21,0,0,1-2.22-2.19v-1Zm-2.22-3.39a2.21,2.21,0,1,1,4.42,0,2.26,2.26,0,0,1-2.2,2.25h-2.22Z"/><rect class="cls-4" x="174.16" y="100.06" width="1.62" height="11.93"/><rect class="cls-4" x="174.16" y="96.99" width="1.62" height="1.52"/><path class="cls-4" d="M192.51,102.86l1.39-.92a4.25,4.25,0,0,0-3.44-2,4,4,0,0,0-2.85,1.14,3.53,3.53,0,0,0-1,2.57c0,2.52,2,3.09,3.64,3.13a2,2,0,0,1,2.15,1.84,2,2,0,0,1-2.23,1.94,2.92,2.92,0,0,1-2.36-1.37l-1.39.75a4.65,4.65,0,0,0,3.73,2.27,4.19,4.19,0,0,0,3-1.12,3.37,3.37,0,0,0,.92-2.47c0-2.36-1.89-3.47-3.77-3.51a2.36,2.36,0,0,1-1.69-.54,1.26,1.26,0,0,1-.32-.92,2,2,0,0,1,.52-1.37,2.34,2.34,0,0,1,1.7-.74,2.94,2.94,0,0,1,2,1.36"/><rect class="cls-4" x="195.9" y="96.99" width="1.62" height="1.52"/><rect class="cls-4" x="195.93" y="100.06" width="1.62" height="11.93"/><path class="cls-4" d="M203.23,100H203a3.81,3.81,0,0,0-3.65,3.76v4.91c0,2.24,1.42,3.64,3.87,3.53a2.26,2.26,0,0,0,2.17-1.26l.54,1.11h1.19V94.89h-1.65v6.23a2.72,2.72,0,0,0-2.21-1.17m2.21,3.64v4.89a2.18,2.18,0,0,1-2.2,2,2.05,2.05,0,0,1-2.27-1.91V103.7a2.19,2.19,0,0,1,2.27-2.1,2,2,0,0,1,2.2,2"/><path class="cls-4" d="M212.55,107.21c1.85,0,3.84-1.08,3.84-3.44a3.86,3.86,0,0,0-3.84-3.87,3.94,3.94,0,0,0-3.87,3.9v4.45a3.86,3.86,0,0,0,3.87,3.84,4.37,4.37,0,0,0,3.53-1.84l-1.35-1a2.93,2.93,0,0,1-2.18,1.17,2.2,2.2,0,0,1-2.22-2.19v-1Zm-2.22-3.39a2.21,2.21,0,1,1,4.41,0,2.25,2.25,0,0,1-2.19,2.25h-2.22Z"/><path class="cls-4" d="M225.3,99.9a3.7,3.7,0,0,0-4,3.85v4.5a3.71,3.71,0,0,0,4,3.87,3.77,3.77,0,0,0,4-3.87v-4.5a3.71,3.71,0,0,0-4-3.85m2.32,8.35a2.33,2.33,0,0,1-4.65,0v-4.5a2.23,2.23,0,0,1,2.33-2.22,2.2,2.2,0,0,1,2.32,2.22Z"/><path class="cls-4" d="M232.42,108.27v-8.21h-1.64v8.21a3.83,3.83,0,0,0,3.79,3.85,3.78,3.78,0,0,0,3.79-3.85v-8.21h-1.62v8.21a2.19,2.19,0,0,1-2.17,2.2,2.21,2.21,0,0,1-2.15-2.2"/><path class="cls-4" d="M181.24,99.9a3.78,3.78,0,0,0-3.79,3.85V112h1.62v-8.21a2.16,2.16,0,1,1,4.31,0V112H185v-8.21a3.83,3.83,0,0,0-3.79-3.85"/><path class="cls-4" d="M135.46,99.9a3.74,3.74,0,0,0-2.84,1.27l-.16.19-.16-.19a3.78,3.78,0,0,0-6.6,2.58V112h1.62v-8.21a2.16,2.16,0,1,1,4.31,0V112h1.66v-8.21a2.16,2.16,0,1,1,4.31,0V112h1.65v-8.21a3.83,3.83,0,0,0-3.79-3.85"/><path class="cls-4" d="M66.89,99.9a3.74,3.74,0,0,0-2.83,1.27l-.16.19-.17-.19a3.72,3.72,0,0,0-2.8-1.27,3.78,3.78,0,0,0-3.8,3.85V112h1.63v-8.21a2.16,2.16,0,1,1,4.31,0V112h1.65v-8.21a2.16,2.16,0,1,1,4.32,0V112h1.65v-8.21a3.83,3.83,0,0,0-3.8-3.85"/><path class="cls-4" d="M241.72,108v-6.38h2.57V100h-2.57V95H240.1V108c0,2.15,1.92,3.85,4.42,3.94v-1.62c-1.56-.09-2.8-1.09-2.8-2.32"/><path class="cls-4" d="M87.36,104.77v7.16h1.56v-7.16a3.55,3.55,0,0,1,3.56-3.21l0-1.55a5,5,0,0,0-5.07,4.76"/><path class="cls-4" d="M110.13,104.77v7.16h1.56v-7.16a3.55,3.55,0,0,1,3.56-3.21l0-1.55a5,5,0,0,0-5.07,4.76"/><path class="cls-4" d="M247.4,48.17a6,6,0,1,1,5.86-6,5.76,5.76,0,0,1-5.86,6m0-10.93a4.64,4.64,0,0,0-4.6,4.94c0,2.72,1.76,5,4.6,5a4.64,4.64,0,0,0,4.58-5,4.64,4.64,0,0,0-4.58-4.94m-1.18,8.37h-1.09V39h2.51c1.6,0,2.42.56,2.42,1.91a1.7,1.7,0,0,1-1.73,1.81l1.86,2.91H249l-1.72-2.83h-1Zm1.21-3.76c.82,0,1.54-.08,1.54-1,0-.8-.78-.9-1.44-.9h-1.31v1.94Z"/></g></g></svg>