<?xml version="1.0" encoding="utf-8"?>
<!-- Generator: Adobe Illustrator 25.0.0, SVG Export Plug-In . SVG Version: 6.00 Build 0)  -->
<svg version="1.1" xmlns="http://www.w3.org/2000/svg" xmlns:xlink="http://www.w3.org/1999/xlink" x="0px" y="0px"
	 viewBox="0 0 283.5 149.4" style="enable-background:new 0 0 283.5 149.4;" xml:space="preserve">
<style type="text/css">
	.st0{opacity:0.9;}
	.st1{fill:#FFFFFF;stroke:#010101;stroke-miterlimit:10;}
	.st2{fill:#010101;}
	.st3{fill:#231F20;}
	.st4{fill:none;stroke:#231F20;stroke-width:2.054;stroke-miterlimit:10;}
	.st5{fill:none;stroke:#231F20;stroke-width:1.711;stroke-miterlimit:10;}
	.st6{fill:none;stroke:#231F20;stroke-width:2.054;stroke-linejoin:bevel;stroke-miterlimit:10;}
	.st7{fill:none;stroke:#231F20;stroke-width:1.972;stroke-miterlimit:10;}
	.st8{fill:#FFFFFF;}
	.st9{fill:none;stroke:#231F20;stroke-width:1.369;stroke-linecap:round;stroke-linejoin:round;stroke-miterlimit:10;}
	.st10{fill:none;stroke:#231F20;stroke-width:1.369;stroke-linejoin:bevel;stroke-miterlimit:10;}
	.st11{fill:none;stroke:#231F20;stroke-width:0.685;stroke-miterlimit:10;}
	.st12{fill:none;stroke:#231F20;stroke-width:2.054;stroke-linecap:round;stroke-linejoin:round;stroke-miterlimit:10;}
	.st13{fill:none;stroke:#231F20;stroke-width:1.972;stroke-linecap:round;stroke-linejoin:round;stroke-miterlimit:10;}
	.st14{fill:none;stroke:#231F20;stroke-width:2.029;stroke-miterlimit:10;}
	.st15{fill:#E9282A;}
	.st16{fill:none;stroke:#231F20;stroke-width:1.691;stroke-linecap:round;stroke-linejoin:round;stroke-miterlimit:10;}
	.st17{fill:none;stroke:#231F20;stroke-width:2.031;stroke-miterlimit:10;}
	.st18{fill:none;stroke:#231F20;stroke-width:2.031;stroke-linejoin:round;stroke-miterlimit:10;}
	.st19{fill:none;stroke:#FFFFFF;stroke-width:7.454;stroke-linecap:round;stroke-linejoin:round;stroke-miterlimit:10;}
	.st20{fill:none;stroke:#020202;stroke-width:2.485;stroke-linecap:round;stroke-linejoin:round;stroke-miterlimit:10;}
	.st21{fill:none;stroke:#231F20;stroke-width:1.497;stroke-miterlimit:10;}
	.st22{fill:none;stroke:#231F20;stroke-width:2.054;stroke-miterlimit:10;stroke-dasharray:1.369,1.027;}
	.st23{fill:none;stroke:#231F20;stroke-width:1.369;stroke-miterlimit:10;}
	.st24{fill:#020202;}
	.st25{fill:none;}
	.st26{clip-path:url(#SVGID_2_);fill:#231F20;}
	.st27{clip-path:url(#SVGID_4_);fill:#010101;}
	.st28{clip-path:url(#SVGID_6_);fill:#010101;}
	.st29{clip-path:url(#SVGID_6_);fill:none;stroke:#010101;stroke-width:0.432;stroke-miterlimit:10;}
	.st30{fill-rule:evenodd;clip-rule:evenodd;fill:#010101;}
	.st31{clip-path:url(#SVGID_8_);fill:#010101;}
	.st32{clip-path:url(#SVGID_10_);fill:#010101;}
	.st33{clip-path:url(#SVGID_10_);fill:#97999B;}
	.st34{clip-path:url(#SVGID_10_);fill:none;stroke:#010101;stroke-width:0.367;}
	.st35{clip-path:url(#SVGID_12_);fill:none;stroke:#010101;stroke-width:0.367;}
	.st36{fill:#95979A;}
	.st37{fill:none;stroke:#010101;stroke-width:0.367;}
	.st38{fill:#231F20;stroke:#231F20;stroke-width:1.32;stroke-miterlimit:10;}
	.st39{fill:#231F20;stroke:#231F20;stroke-width:0.9;stroke-miterlimit:10;}
	.st40{fill-rule:evenodd;clip-rule:evenodd;fill:#231F20;}
	.st41{fill:none;stroke:#010101;stroke-width:0.349;}
	.st42{clip-path:url(#SVGID_14_);fill:#010101;}
	.st43{clip-path:url(#SVGID_16_);fill:#010101;}
	.st44{clip-path:url(#SVGID_18_);fill:#010101;}
	.st45{clip-path:url(#SVGID_20_);fill:#010101;}
	.st46{clip-path:url(#SVGID_22_);fill:#010101;}
	.st47{clip-path:url(#SVGID_24_);fill:#010101;}
	.st48{clip-path:url(#SVGID_26_);fill:#010101;}
	.st49{clip-path:url(#SVGID_28_);fill:none;stroke:#010101;stroke-width:0.274;}
	.st50{clip-path:url(#SVGID_30_);fill:#010101;}
	.st51{clip-path:url(#SVGID_32_);fill:#010101;}
	.st52{clip-path:url(#SVGID_34_);fill:#010101;}
	.st53{clip-path:url(#SVGID_36_);fill:#231F20;}
	.st54{clip-path:url(#SVGID_36_);fill:#FFFFFF;}
	.st55{clip-path:url(#SVGID_36_);fill:#415364;}
	.st56{clip-path:url(#SVGID_36_);fill-rule:evenodd;clip-rule:evenodd;fill:#FFFFFF;}
	.st57{fill-rule:evenodd;clip-rule:evenodd;fill:#FFFFFF;}
	.st58{fill:none;stroke:#231F20;stroke-width:1.6532;stroke-linecap:round;stroke-linejoin:round;stroke-miterlimit:10;}
	.st59{fill:none;stroke:#231F20;stroke-width:1.9928;stroke-miterlimit:10;}
</style>
<g id="Fondo" class="st0">
</g>
<g id="Layer_1">
	<g>
		<g>
			<defs>
				<rect id="SVGID_35_" x="99.5" y="32.4" width="84.5" height="84.5"/>
			</defs>
			<clipPath id="SVGID_2_">
				<use xlink:href="#SVGID_35_"  style="overflow:visible;"/>
			</clipPath>
			<path class="st26" d="M184,84.8v26.8c0,2.9-2.4,5.3-5.3,5.3h-73.9c-2.9,0-5.3-2.4-5.3-5.3V84.8C128.9,88.2,157.1,88.2,184,84.8"
				/>
			<path style="clip-path:url(#SVGID_2_);fill:#FFFFFF;" d="M161.6,97.3c-1.1,0-1.7,0.4-1.7,1c0,0.8,0.4,1.1,1,1.3
				c2.6,1.1,4.3,1,4.3,3.5c0,1.1-0.6,3.1-4,3.1h-5.1c-0.9,0-1.1-0.5-1.3-1.3c-1.4,1-2.2,1.3-3.2,1.3c-1.9,0-2.3-1.4-2.3-2.1
				c0-1.1,0.7-2.5,5.5-4.1l0-1.5c0-1.1-0.9-1.2-1.5-1.1c-0.6,0.2-1.1,0.4-1.4,0.7c-0.5,0.4-1.7,1.2-2.1,1.4c0,0-0.1,0-0.1,0
				c0,0-0.1,0-0.1,0c-0.3-0.2-0.4-0.5-0.4-0.6c0-0.6,0.2-0.9,2-2c1.8-1.1,2.1-1.1,2.6-1.1c0.8,0,3,0.5,3,2.5v6.1
				c0,0.4,0.2,0.7,0.5,0.8c0,0,1.9,0,3.9,0c1.3,0,2.2-1,2.2-1.7c0-2.3-5.3-1.6-5.3-4.6c0-1.8,1.7-3.1,3.7-3.1c1.1,0,2.5,0.3,2.6,0.3
				c0.6,0.1,0.4,1,0.2,1.3c0,0.1-0.1,0.2-0.2,0.1C164.4,97.7,162.2,97.3,161.6,97.3"/>
			<path class="st26" d="M99.5,37.7c0-2.9,2.4-5.3,5.3-5.3h73.9c2.9,0,5.3,2.4,5.3,5.3V83c-26.9,3.4-55,3.4-84.4,0V37.7z"/>
			<path style="clip-path:url(#SVGID_2_);fill:#FFFFFF;" d="M137.6,96.4l0,9.9h-2c0-0.6,0-1.2,0-1.3c-1.3,1-2.2,1.3-3.6,1.3
				c-2.4,0-3.2-1.7-3.2-4l0-5.9h2v6c0,1.6,0.6,2.6,2.4,2.6c0.9,0,2.4-0.5,2.4-1.2l0-7.4H137.6z"/>
			<path style="clip-path:url(#SVGID_2_);fill:#415364;" d="M154.8,103.9c0,0.4-1.3,1.3-2.2,1.3c-0.8,0-1.1-0.7-1.1-1.3
				c0-0.8,0.1-1.1,0.8-1.6c0.5-0.3,2.3-1,2.4-1.1c0.1,0,0.2,0,0.2,0.2V103.9z"/>
			<path style="clip-path:url(#SVGID_2_);fill-rule:evenodd;clip-rule:evenodd;fill:#FFFFFF;" d="M119.5,93.9c2.8,0,5,2.4,5,6.4
				c0,3.7-2.1,5.9-4.8,5.9c-2.8,0-5-2.4-5-6.4C114.7,96,116.9,93.9,119.5,93.9 M119.7,93.3c-4.2,0-7.7,2.9-7.7,6.7s3.5,6.7,7.7,6.7
				c4.3,0,7.7-2.9,7.7-6.7S123.8,93.3,119.7,93.3"/>
			<path style="clip-path:url(#SVGID_2_);fill:#FFFFFF;" d="M174.2,92.5c0.4,0.4,0.6,0.9,0.6,1.4c0,0.6-0.2,1-0.6,1.4
				c-0.4,0.4-0.9,0.6-1.4,0.6c-0.6,0-1-0.2-1.4-0.6c-0.4-0.4-0.6-0.9-0.6-1.4c0-0.6,0.2-1,0.6-1.4c0.4-0.4,0.9-0.6,1.4-0.6
				C173.3,91.9,173.8,92.1,174.2,92.5 M174,92.7c-0.3-0.3-0.8-0.5-1.2-0.5c-0.5,0-0.9,0.2-1.2,0.5c-0.3,0.3-0.5,0.8-0.5,1.2
				c0,0.5,0.2,0.9,0.5,1.2c0.3,0.3,0.7,0.5,1.2,0.5c0.5,0,0.9-0.2,1.2-0.5c0.3-0.3,0.5-0.8,0.5-1.2C174.5,93.4,174.3,93,174,92.7"/>
			<path style="clip-path:url(#SVGID_2_);fill:#FFFFFF;" d="M171.9,95v-2.2h0.8c0.3,0,0.5,0,0.6,0.1c0.2,0.1,0.3,0.3,0.3,0.6
				c0,0.2-0.1,0.3-0.2,0.4c-0.1,0.1-0.2,0.1-0.3,0.1c0.2,0,0.3,0.1,0.4,0.2c0.1,0.1,0.1,0.2,0.1,0.3v0.2l0,0.2c0,0.1,0,0.1,0,0.1
				l0,0h-0.4l0,0l0,0l0-0.1v-0.2c0-0.3-0.1-0.4-0.2-0.5c-0.1,0-0.2-0.1-0.4-0.1h-0.3V95H171.9z M173.1,93.8c0.2-0.1,0.2-0.2,0.2-0.3
				c0-0.2-0.1-0.3-0.1-0.3c-0.1-0.1-0.3-0.1-0.5-0.1h-0.3v0.8h0.4C172.9,93.9,173,93.8,173.1,93.8"/>
			<path style="clip-path:url(#SVGID_2_);fill:#FFFFFF;" d="M139.3,93.3c0.6-0.1,1.7-0.4,2-0.4v3.5l2.1,0v1.4h-2.1v4.7
				c0,2.1,0.1,3.1,2.2,2.8l0.4,0v0.9c-0.4,0.1-0.9,0.1-1.7,0.1c-2.8,0-2.8-2.2-2.8-2.7V93.3z"/>
			<path style="clip-path:url(#SVGID_2_);fill:#FFFFFF;" d="M147.1,106.3c-0.1,0-0.2,0-0.4,0c-0.8,0-1.6-0.4-1.6-1.6l0-12.9
				c0.7-0.2,1.3-0.4,2-0.8l0,13.4c0,1,0.6,0.8,1,0.8c0.1,0,0.2,0,0.4-0.1v0.9C148.1,106.2,147.7,106.3,147.1,106.3"/>
			<path style="clip-path:url(#SVGID_2_);fill:#FFFFFF;" d="M146.2,56.2c0.9,0.1,1.7,0.3,2.5,0.5c-1.2,9.2-17.4,14.3-25.3,14.1
				c-0.3-0.7-0.4-1.5-0.5-2.3C130.4,67.4,142.7,63.5,146.2,56.2"/>
			<path style="clip-path:url(#SVGID_2_);fill:#FFFFFF;" d="M159.8,64.8c0.4,1,0.8,2.2,0.7,3.4c-0.5,9-11.6,12-19,12.1
				c-1.2,0-2.4-0.1-3.6-0.2C146.6,79.1,159.1,74.8,159.8,64.8"/>
			<path style="clip-path:url(#SVGID_2_);fill:#FFFFFF;" d="M156.1,60.2c0.9,0.7,1.6,1.4,2.3,2.2c-0.2,11.7-16.3,16.6-25.8,16.3
				c-1.3-0.5-2.5-1.1-3.7-1.8C138.3,77.6,156.6,72.2,156.1,60.2"/>
			<path style="clip-path:url(#SVGID_2_);fill:#FFFFFF;" d="M150.9,57.4c1.1,0.4,2.2,0.9,3.2,1.5c0.9,11.8-19,17.1-27.9,16.1
				c-0.6-0.6-1.2-1.2-1.6-1.9C133.1,73.5,150.5,67.8,150.9,57.4"/>
			<path style="clip-path:url(#SVGID_2_);fill:#FFFFFF;" d="M166.7,93.3c0.6-0.1,1.7-0.4,2-0.4v3.5l2.1,0v1.4h-2.1v4.7
				c0,2.1,0.1,3.1,2.2,2.8l0.4,0v0.9c-0.4,0.1-0.9,0.1-1.7,0.1c-2.8,0-2.8-2.2-2.8-2.7V93.3z"/>
		</g>
	</g>
</g>
</svg>
