<svg xmlns="http://www.w3.org/2000/svg" viewBox="0 0 283.46 149.39"><defs><style>.cls-1{opacity:0.9;}.cls-2{fill:#231f20;}.cls-3{fill:#fff;}</style></defs><g id="Layer_1" data-name="Layer 1"><path class="cls-2" d="M124.63,107.36a20.37,20.37,0,0,0,34.35-.24l25.85-44.78a20.35,20.35,0,0,0-18.15-29.61h-49.9A20.36,20.36,0,0,0,98.63,62.34Z"/><path class="cls-3" d="M130.69,65.21a.83.83,0,0,0-1.56,0l-4.71,8.12a3,3,0,0,0,0,2.69l16.19,27.91a.83.83,0,0,0,1.56,0l4.71-8.12a3,3,0,0,0,0-2.68Z"/><path class="cls-3" d="M154.35,64.28A3,3,0,0,0,152,62.94h-18.8c-.85,0-1.2.61-.77,1.34l4.33,7.5a3,3,0,0,0,2.32,1.34h7.71c.86,0,1.21.61.78,1.35l-3.87,6.63a3,3,0,0,0,0,2.69l4.36,7.51a.83.83,0,0,0,1.56,0L159,75.08a3,3,0,0,0,0-2.69Z"/><path class="cls-3" d="M107,49.16c1.09,0,1.62-.66,1.62-1.88,0-.72-.34-1.11-1.17-1.11h-.81l-.53,3Zm-2.79-4.93H108c2.43,0,3.56,1.06,3.56,2.89,0,2.61-1.67,3.84-4.5,3.84h-1.18l-.6,3.34h-2.79Z"/><path class="cls-3" d="M115.92,48.94c1.13,0,1.53-.76,1.53-1.78,0-.7-.42-1-1.09-1h-.84L115,48.94Zm-2.85-4.71h4c2.16,0,3.3,1,3.3,2.69a2.9,2.9,0,0,1-2.15,3V50l1.58,4.31h-2.85l-1.23-3.66h-1l-.57,3.66h-2.83Z"/><polygon class="cls-3" points="122.38 44.23 125.22 44.23 123.42 54.3 120.6 54.3 122.38 44.23"/><polygon class="cls-3" points="126.7 44.23 130.42 44.23 131 50.31 131.05 50.31 133.84 44.23 137.67 44.23 135.89 54.3 133.11 54.3 134.31 47.49 134.26 47.49 131.17 54.3 129.16 54.3 128.54 47.48 128.48 47.48 127.27 54.3 124.93 54.3 126.7 44.23"/><path class="cls-3" d="M141,50.5h2.13L142.8,47h-.06Zm.92-6.27h3l1.4,10.07h-2.84l-.2-2h-3.17l-1,2h-2.6Z"/><polygon class="cls-3" points="148.9 44.23 151.74 44.23 150.32 52.29 154.05 52.29 153.69 54.3 147.13 54.3 148.9 44.23"/><path class="cls-3" d="M161.37,49.33a8.88,8.88,0,0,0,.15-1.51c0-1.13-.47-1.7-1.44-1.7s-1.86.93-2.24,3.08a7.41,7.41,0,0,0-.14,1.51c0,1.2.51,1.7,1.42,1.7,1.16,0,1.91-1.1,2.25-3.08m-6.63,1.13c0-3.64,2.16-6.4,5.57-6.4,2.51,0,4.16,1.41,4.16,4,0,3.66-2.12,6.39-5.58,6.39-2.5,0-4.15-1.41-4.15-4"/><polygon class="cls-3" points="166.36 44.23 164.58 54.3 167.41 54.3 168.08 50.51 171.03 50.51 171.38 48.53 168.43 48.53 168.84 46.25 174.56 46.25 173.13 54.3 175.96 54.3 177.4 46.25 179.94 46.25 180.3 44.23 166.36 44.23"/><path class="cls-3" d="M179.56,53c.11,0,.16,0,.16-.15s-.05-.14-.16-.14h-.14V53Zm-.62-.62h.69c.36,0,.58.15.58.44a.38.38,0,0,1-.22.36v0l.29.59h-.5l-.22-.48h-.14v.48h-.48Zm1.75.72a1.16,1.16,0,1,0-2.31,0,1.16,1.16,0,1,0,2.31,0m-2.64,0a1.49,1.49,0,1,1,1.48,1.46,1.47,1.47,0,0,1-1.48-1.46"/></g></svg>