<svg xmlns="http://www.w3.org/2000/svg" viewBox="0 0 283.46 149.39"><defs><style>.cls-1{opacity:0.9;}.cls-2{fill:#231f20;}</style></defs><g id="Layer_1" data-name="Layer 1"><path class="cls-2" d="M108.83,62.26V54.63h4.63c2.54,0,4.28,1.5,4.28,3.93s-1.74,3.7-4.28,3.7Zm8.33,11.91h3.7l-5.32-9.36A6.15,6.15,0,0,0,121,58.56,6.56,6.56,0,0,0,114,51.85h-8.33V74.17h3.12V65h3.24Z"/><polygon class="cls-2" points="138.9 74.17 138.9 71.4 128.38 71.4 128.38 64.46 137.86 64.46 137.86 61.57 128.38 61.57 128.38 54.74 138.9 54.74 138.9 51.85 125.37 51.85 125.37 74.17 138.9 74.17"/><polygon class="cls-2" points="146.88 74.17 146.88 64.81 156.48 64.81 156.48 61.91 146.88 61.91 146.88 54.74 157.4 54.74 157.4 51.85 143.87 51.85 143.87 74.17 146.88 74.17"/><rect class="cls-2" x="161.45" y="51.85" width="3.24" height="22.44"/><path class="cls-2" d="M173.47,71.51V64.23H178c2.77,0,4,1.5,4,3.7s-1.73,3.58-4.16,3.58Zm0-9.94V54.63h3.82c2.55,0,4.05,1.27,4.05,3.47s-1.5,3.47-3.93,3.47Zm-3-9.6v22.2h7.86c4,0,6.83-2.43,6.83-6a5.28,5.28,0,0,0-3.94-5.44,5,5,0,0,0,3.24-4.85c0-3.47-2.43-5.9-6.71-5.9Z"/><path class="cls-2" d="M192.79,62.26V54.63h4.74c2.54,0,4.16,1.5,4.16,3.93s-1.62,3.7-4.16,3.7Zm8.44,11.91h3.59l-5.32-9.36a6.15,6.15,0,0,0,5.43-6.25,6.53,6.53,0,0,0-6.82-6.71h-8.45V74.17h3.13V65h3.35Z"/><path class="cls-2" d="M217.42,55.09l3.93,10H213.6Zm7.4,19.08h3.36l-8.91-22.32h-3.58l-8.91,22.32h3.35l2.43-6.24h9.83Z"/><path class="cls-2" d="M241.24,56.13V50.47h-1.39l-1.73,3.93-1.74-3.93h-1.5v5.66H236V52.55l1.62,3.58h.92l1.62-3.7v3.7Zm-7.4-4.74v-.92H229.1v.92H231v4.74h1.16V51.39Z"/><path class="cls-2" d="M109.06,84.58h-1.73v1.5a1.23,1.23,0,0,1-1.39,1.39h-.46v1.62h1.73v5.09a2.37,2.37,0,0,0,2.55,2.54c.57,0,1-.11,1.27-.11V95.1h-.7c-.92,0-1.27-.34-1.27-1.15V89.09h2V87.47h-2Z"/><path class="cls-2" d="M119.47,93.48a2.43,2.43,0,0,1-2.54,1.85,2.81,2.81,0,0,1-2.78-2.77H121V92.1c0-3-1.5-4.86-4.28-4.86-2.31,0-4.27,2-4.27,4.86a4.37,4.37,0,0,0,4.51,4.74,4,4,0,0,0,4-2.78Zm-5.2-2.31a2.51,2.51,0,0,1,2.42-2.43,2.41,2.41,0,0,1,2.55,2.43Z"/><path class="cls-2" d="M126.87,88.86a2.41,2.41,0,0,1,2.43,2l1.62-.69a3.94,3.94,0,0,0-4-2.78,4.47,4.47,0,0,0-4.62,4.75,4.59,4.59,0,0,0,4.62,4.74,4.08,4.08,0,0,0,4-2.78l-1.5-.69a2.5,2.5,0,0,1-2.55,1.85c-1.5,0-2.77-1-2.77-3.12s1.27-3.24,2.77-3.24"/><path class="cls-2" d="M134.62,91.29c.12-1.39.81-2.43,2.08-2.43a2,2,0,0,1,2.2,2.31v5.44h1.73V90.82c0-2-1-3.58-3.24-3.58a3.15,3.15,0,0,0-2.77,1.39V83h-1.74V96.61h1.74Z"/><path class="cls-2" d="M145,91.4c0-1.39.69-2.54,2.08-2.54,1.62,0,2.08,1,2.08,2.31v5.44H151V90.83c0-2-1.15-3.59-3.24-3.59A3,3,0,0,0,145,88.86V87.47h-1.85v9.14H145Z"/><path class="cls-2" d="M157.4,87.24a4.62,4.62,0,0,0-4.62,4.86,4.68,4.68,0,1,0,9.36,0,4.64,4.64,0,0,0-4.74-4.86m0,8.09c-1.5,0-2.77-1.15-2.77-3.23s1.27-3.24,2.77-3.24a3.26,3.26,0,0,1,0,6.47"/><rect class="cls-2" x="164.11" y="82.96" width="1.97" height="13.76"/><path class="cls-2" d="M172.55,87.24a4.56,4.56,0,0,0-4.62,4.86,4.63,4.63,0,1,0,9.25,0,4.56,4.56,0,0,0-4.63-4.86m0,8.09a3.26,3.26,0,1,1,2.89-3.23,3,3,0,0,1-2.89,3.23"/><path class="cls-2" d="M183,94.64c-1.62,0-2.55-1.16-2.55-2.89s1-3,2.55-3a2.72,2.72,0,0,1,2.66,3A2.68,2.68,0,0,1,183,94.64m-4.4,2.43a3.88,3.88,0,0,0,4.17,3.35c3.47,0,4.62-2.19,4.62-4.51V87.47H185.5v1.27a2.86,2.86,0,0,0-2.77-1.5,4.23,4.23,0,0,0-4.17,4.51,4.14,4.14,0,0,0,4.17,4.39,2.84,2.84,0,0,0,2.77-1.5V96c0,2-.92,2.89-2.77,2.89a2.33,2.33,0,0,1-2.43-2.2Z"/><polygon class="cls-2" points="192.21 100.42 198.11 87.47 196.26 87.47 193.48 93.83 190.59 87.47 188.62 87.47 192.56 95.68 190.24 100.42 192.21 100.42"/><path class="cls-2" d="M67.43,99.38A25.21,25.21,0,1,1,92.64,74.17,25.27,25.27,0,0,1,67.43,99.38m0-49.72A24.52,24.52,0,1,0,92,74.17,24.53,24.53,0,0,0,67.43,49.66"/><path class="cls-2" d="M71.25,78.68a.45.45,0,0,0-.35-.11,5.44,5.44,0,0,1-4.05,1.73,5.88,5.88,0,0,1-5.78-5.78v-.58h2l.11-.11v-.24l-2-3.35c-.12-.12-.24-.23-.35-.12a7.46,7.46,0,0,0,5.67,11.8h.34a7.29,7.29,0,0,0,5-2c.11,0,.11-.11,0-.23Z"/><path class="cls-2" d="M67.32,67.12h-.47a7.3,7.3,0,0,0-4.51,1.5v.23l.7,1c0,.12.11.12.23.12a5.88,5.88,0,0,1,3.58-1.27,5.77,5.77,0,0,1,5.79,5.08v.24H70.9c-.11,0-.11.11-.23.11v.23L73,78.22c0,.11,0,.11.12.11s.11,0,.11-.11a6.63,6.63,0,0,0,1-3.93,7.4,7.4,0,0,0-6.93-7.17"/><path class="cls-2" d="M58.64,83a1.17,1.17,0,0,1-.92-.58c-6-8.44-3.13-22.2-1.28-23.82,1.62-1.27,9-.23,14,3.24a1.27,1.27,0,0,1,.23,1.73,1,1,0,0,1-1.62.23c-4.39-3-9.94-3.58-11.1-3.23-1,1.73-3.47,13.18,1.73,20.46a1.28,1.28,0,0,1-.34,1.74,1.61,1.61,0,0,1-.7.23"/><path class="cls-2" d="M69.51,89.21a12.81,12.81,0,0,1-8.9-3.71,1.15,1.15,0,0,1,1.62-1.62c.23.12,4,3.82,9.25,2.78a1.15,1.15,0,0,1,1.5.93A1.25,1.25,0,0,1,72.06,89a9.63,9.63,0,0,1-2.55.24"/><path class="cls-2" d="M79,90.71c-.24,0-.47,0-.58-.12a26.55,26.55,0,0,1-4.63-3.7,1.32,1.32,0,0,1-.35-.92,1.26,1.26,0,0,1,.35-.81c2.66-2.66,3.93-5.55,3.82-8.56-.12-4.39-3.12-8.33-5.9-10.75a1.15,1.15,0,0,1,1.5-1.74c1.51,1.27,6.59,6,6.83,12.37A13.54,13.54,0,0,1,76.33,86a21.2,21.2,0,0,0,3.36,2.54A1.14,1.14,0,0,1,80,90.13a1.22,1.22,0,0,1-1,.58"/></g></svg>