<?xml version="1.0" encoding="utf-8"?>
<!-- Generator: Adobe Illustrator 22.1.0, SVG Export Plug-In . SVG Version: 6.00 Build 0)  -->
<svg version="1.1" id="Icons" xmlns="http://www.w3.org/2000/svg" xmlns:xlink="http://www.w3.org/1999/xlink" x="0px" y="0px"
	 viewBox="0 0 46 40.1" style="enable-background:new 0 0 46 40.1;" xml:space="preserve">
<style type="text/css">
	.st0{fill:none;stroke:#000000;stroke-width:2;stroke-linecap:round;stroke-linejoin:round;}
</style>
<title>Icon_Fabric_Wind_Resistant_white</title>
<path class="st0" d="M14.2,19.9c-1,1.1-1,2.8,0,3.8c1.1,1,2.8,1,3.8,0c1-1,1-2.7,0-3.8l-8.5-8.5"/>
<path class="st0" d="M24.8,10.4c1.1-1.1,2.8-1.1,3.8,0c1.1,1.1,1.1,2.8,0,3.8c-1.1,1.1-2.8,1.1-3.8,0c0,0,0,0,0,0l-8.4-8.4"/>
<path class="st0" d="M26.3,18.3c1.1-1.1,2.8-1.1,3.8,0c1.1,1.1,1.1,2.8,0,3.8c-1.1,1.1-2.8,1.1-3.8,0c0,0,0,0,0,0L9.6,5.4"/>
<line class="st0" x1="5.1" y1="1" x2="7" y2="2.9"/>
<line class="st0" x1="12.3" y1="1.5" x2="14.2" y2="3.4"/>
<line class="st0" x1="5.3" y1="7.2" x2="7.2" y2="9.1"/>
<path class="st0" d="M45,33c-8.5,0-13.8-5.1-21.7-5.1h-0.5C14.8,27.9,9.5,33,1,33"/>
<path class="st0" d="M45,39.1c-8.5,0-13.8-5.1-21.7-5.1h-0.5c-7.9,0-13.2,5.1-21.7,5.1"/>
</svg>
