<?xml version="1.0" encoding="utf-8"?>
<!-- Generator: Adobe Illustrator 25.0.0, SVG Export Plug-In . SVG Version: 6.00 Build 0)  -->
<svg version="1.1" xmlns="http://www.w3.org/2000/svg" xmlns:xlink="http://www.w3.org/1999/xlink" x="0px" y="0px"
	 viewBox="0 0 283.5 149.4" style="enable-background:new 0 0 283.5 149.4;" xml:space="preserve">
<style type="text/css">
	.st0{opacity:0.9;}
	.st1{fill:#FFFFFF;stroke:#010101;stroke-miterlimit:10;}
	.st2{fill:#010101;}
	.st3{fill:#231F20;}
	.st4{fill:none;stroke:#231F20;stroke-width:2.054;stroke-miterlimit:10;}
	.st5{fill:none;stroke:#231F20;stroke-width:1.711;stroke-miterlimit:10;}
	.st6{fill:none;stroke:#231F20;stroke-width:2.054;stroke-linejoin:bevel;stroke-miterlimit:10;}
	.st7{fill:none;stroke:#231F20;stroke-width:1.972;stroke-miterlimit:10;}
	.st8{fill:#FFFFFF;}
	.st9{fill:none;stroke:#231F20;stroke-width:1.369;stroke-linecap:round;stroke-linejoin:round;stroke-miterlimit:10;}
	.st10{fill:none;stroke:#231F20;stroke-width:1.369;stroke-linejoin:bevel;stroke-miterlimit:10;}
	.st11{fill:none;stroke:#231F20;stroke-width:0.685;stroke-miterlimit:10;}
	.st12{fill:none;stroke:#231F20;stroke-width:2.054;stroke-linecap:round;stroke-linejoin:round;stroke-miterlimit:10;}
	.st13{fill:none;stroke:#231F20;stroke-width:1.972;stroke-linecap:round;stroke-linejoin:round;stroke-miterlimit:10;}
	.st14{fill:none;stroke:#231F20;stroke-width:2.029;stroke-miterlimit:10;}
	.st15{fill:#E9282A;}
	.st16{fill:none;stroke:#231F20;stroke-width:1.691;stroke-linecap:round;stroke-linejoin:round;stroke-miterlimit:10;}
	.st17{fill:none;stroke:#231F20;stroke-width:2.031;stroke-miterlimit:10;}
	.st18{fill:none;stroke:#231F20;stroke-width:2.031;stroke-linejoin:round;stroke-miterlimit:10;}
	.st19{fill:none;stroke:#FFFFFF;stroke-width:7.454;stroke-linecap:round;stroke-linejoin:round;stroke-miterlimit:10;}
	.st20{fill:none;stroke:#020202;stroke-width:2.485;stroke-linecap:round;stroke-linejoin:round;stroke-miterlimit:10;}
	.st21{fill:none;stroke:#231F20;stroke-width:1.497;stroke-miterlimit:10;}
	.st22{fill:none;stroke:#231F20;stroke-width:2.054;stroke-miterlimit:10;stroke-dasharray:1.369,1.027;}
	.st23{fill:none;stroke:#231F20;stroke-width:1.369;stroke-miterlimit:10;}
	.st24{fill:#020202;}
	.st25{fill:none;}
	.st26{clip-path:url(#SVGID_2_);fill:#231F20;}
	.st27{clip-path:url(#SVGID_4_);fill:#010101;}
	.st28{clip-path:url(#SVGID_6_);fill:#010101;}
	.st29{clip-path:url(#SVGID_6_);fill:none;stroke:#010101;stroke-width:0.432;stroke-miterlimit:10;}
	.st30{fill-rule:evenodd;clip-rule:evenodd;fill:#010101;}
	.st31{clip-path:url(#SVGID_8_);fill:#010101;}
	.st32{clip-path:url(#SVGID_10_);fill:#010101;}
	.st33{clip-path:url(#SVGID_10_);fill:#97999B;}
	.st34{clip-path:url(#SVGID_10_);fill:none;stroke:#010101;stroke-width:0.367;}
	.st35{clip-path:url(#SVGID_12_);fill:none;stroke:#010101;stroke-width:0.367;}
	.st36{fill:#95979A;}
	.st37{fill:none;stroke:#010101;stroke-width:0.367;}
	.st38{fill:#231F20;stroke:#231F20;stroke-width:1.32;stroke-miterlimit:10;}
	.st39{fill:#231F20;stroke:#231F20;stroke-width:0.9;stroke-miterlimit:10;}
	.st40{fill-rule:evenodd;clip-rule:evenodd;fill:#231F20;}
	.st41{fill:none;stroke:#010101;stroke-width:0.349;}
	.st42{clip-path:url(#SVGID_14_);fill:#010101;}
	.st43{clip-path:url(#SVGID_16_);fill:#010101;}
	.st44{clip-path:url(#SVGID_18_);fill:#010101;}
	.st45{clip-path:url(#SVGID_20_);fill:#010101;}
	.st46{clip-path:url(#SVGID_22_);fill:#010101;}
	.st47{clip-path:url(#SVGID_24_);fill:#010101;}
	.st48{clip-path:url(#SVGID_26_);fill:#010101;}
	.st49{clip-path:url(#SVGID_28_);fill:none;stroke:#010101;stroke-width:0.274;}
	.st50{clip-path:url(#SVGID_30_);fill:#010101;}
	.st51{clip-path:url(#SVGID_32_);fill:#010101;}
	.st52{clip-path:url(#SVGID_34_);fill:#010101;}
	.st53{clip-path:url(#SVGID_36_);fill:#231F20;}
	.st54{clip-path:url(#SVGID_36_);fill:#FFFFFF;}
	.st55{clip-path:url(#SVGID_36_);fill:#415364;}
	.st56{clip-path:url(#SVGID_36_);fill-rule:evenodd;clip-rule:evenodd;fill:#FFFFFF;}
	.st57{fill-rule:evenodd;clip-rule:evenodd;fill:#FFFFFF;}
	.st58{fill:none;stroke:#231F20;stroke-width:1.6532;stroke-linecap:round;stroke-linejoin:round;stroke-miterlimit:10;}
	.st59{fill:none;stroke:#231F20;stroke-width:1.9928;stroke-miterlimit:10;}
</style>
<g id="Fondo" class="st0">
</g>
<g id="Layer_1">
	<g>
		<g>
			<g>
				<path class="st3" d="M141.7,117.2c-23.4,0-42.5-19.1-42.5-42.5s19.1-42.5,42.5-42.5s42.5,19.1,42.5,42.5
					S165.2,117.2,141.7,117.2z M141.7,36C120.4,36,103,53.3,103,74.7s17.4,38.7,38.7,38.7s38.7-17.4,38.7-38.7S163.1,36,141.7,36z"
					/>
			</g>
			<g>
				<g>
					<path class="st3" d="M130.5,76.2l8.2,1.8l-13.5-17.5l-13.5,17.5l7.1-1.6c0.4,3.9,2.3,14.3,12,19.9c12.1,6.9,23.1-4.3,23.1-4.3
						S133.2,98.7,130.5,76.2z"/>
				</g>
				<g>
					<path class="st3" d="M158.3,90.1c-0.4,0-0.8-0.2-1-0.5l-13.5-17.5c-0.3-0.4-0.4-1-0.1-1.5s0.8-0.7,1.3-0.6l6.4,1.4
						c-1-5.4-3.2-9.3-6.7-11.5c-6.3-4.1-14.7-1.4-14.8-1.4c-0.6,0.2-1.2,0-1.5-0.5c-0.3-0.5-0.2-1.1,0.2-1.6
						c0.1-0.1,11.9-11.9,24.6-4.5c9.1,5.3,11.7,14.5,12.4,19.4l5.8-1.3c0.5-0.1,1.1,0.1,1.3,0.6s0.3,1-0.1,1.5l-13.5,17.5
						C159,89.9,158.7,90.1,158.3,90.1z M147.9,73.3l10.4,13.5l10.4-13.5l-3.7,0.8c-0.4,0.1-0.7,0-1-0.2c-0.3-0.2-0.5-0.5-0.5-0.9
						c-0.4-3.9-2.2-13.6-11.3-18.9c-6.9-4-13.6-1.4-17.6,1.1c3.4-0.2,7.8,0.1,11.7,2.6c4.5,2.9,7.2,8,8.1,15.1
						c0,0.4-0.1,0.8-0.4,1.1c-0.3,0.3-0.7,0.4-1.1,0.3L147.9,73.3z"/>
				</g>
			</g>
		</g>
	</g>
</g>
</svg>
