<?xml version="1.0" encoding="utf-8"?>
<!-- Generator: Adobe Illustrator 25.0.0, SVG Export Plug-In . SVG Version: 6.00 Build 0)  -->
<svg version="1.1" xmlns="http://www.w3.org/2000/svg" xmlns:xlink="http://www.w3.org/1999/xlink" x="0px" y="0px"
	 viewBox="0 0 283.5 149.4" style="enable-background:new 0 0 283.5 149.4;" xml:space="preserve">
<style type="text/css">
	.st0{opacity:0.9;}
	.st1{fill:#FFFFFF;stroke:#010101;stroke-miterlimit:10;}
	.st2{fill:#010101;}
	.st3{fill:#231F20;}
	.st4{fill:none;stroke:#231F20;stroke-width:2.054;stroke-miterlimit:10;}
	.st5{fill:none;stroke:#231F20;stroke-width:1.711;stroke-miterlimit:10;}
	.st6{fill:none;stroke:#231F20;stroke-width:2.054;stroke-linejoin:bevel;stroke-miterlimit:10;}
	.st7{fill:none;stroke:#231F20;stroke-width:1.972;stroke-miterlimit:10;}
	.st8{fill:#FFFFFF;}
	.st9{fill:none;stroke:#231F20;stroke-width:1.369;stroke-linecap:round;stroke-linejoin:round;stroke-miterlimit:10;}
	.st10{fill:none;stroke:#231F20;stroke-width:1.369;stroke-linejoin:bevel;stroke-miterlimit:10;}
	.st11{fill:none;stroke:#231F20;stroke-width:0.685;stroke-miterlimit:10;}
	.st12{fill:none;stroke:#231F20;stroke-width:2.054;stroke-linecap:round;stroke-linejoin:round;stroke-miterlimit:10;}
	.st13{fill:none;stroke:#231F20;stroke-width:1.972;stroke-linecap:round;stroke-linejoin:round;stroke-miterlimit:10;}
	.st14{fill:none;stroke:#231F20;stroke-width:2.029;stroke-miterlimit:10;}
	.st15{fill:#E9282A;}
	.st16{fill:none;stroke:#231F20;stroke-width:1.691;stroke-linecap:round;stroke-linejoin:round;stroke-miterlimit:10;}
	.st17{fill:none;stroke:#231F20;stroke-width:2.031;stroke-miterlimit:10;}
	.st18{fill:none;stroke:#231F20;stroke-width:2.031;stroke-linejoin:round;stroke-miterlimit:10;}
	.st19{fill:none;stroke:#FFFFFF;stroke-width:7.454;stroke-linecap:round;stroke-linejoin:round;stroke-miterlimit:10;}
	.st20{fill:none;stroke:#020202;stroke-width:2.485;stroke-linecap:round;stroke-linejoin:round;stroke-miterlimit:10;}
	.st21{fill:none;stroke:#231F20;stroke-width:1.497;stroke-miterlimit:10;}
	.st22{fill:none;stroke:#231F20;stroke-width:2.054;stroke-miterlimit:10;stroke-dasharray:1.369,1.027;}
	.st23{fill:none;stroke:#231F20;stroke-width:1.369;stroke-miterlimit:10;}
	.st24{fill:#020202;}
	.st25{fill:none;}
	.st26{clip-path:url(#SVGID_2_);fill:#231F20;}
	.st27{clip-path:url(#SVGID_4_);fill:#010101;}
	.st28{clip-path:url(#SVGID_6_);fill:#010101;}
	.st29{clip-path:url(#SVGID_6_);fill:none;stroke:#010101;stroke-width:0.432;stroke-miterlimit:10;}
	.st30{fill-rule:evenodd;clip-rule:evenodd;fill:#010101;}
	.st31{clip-path:url(#SVGID_8_);fill:#010101;}
	.st32{clip-path:url(#SVGID_10_);fill:#010101;}
	.st33{clip-path:url(#SVGID_10_);fill:#97999B;}
	.st34{clip-path:url(#SVGID_10_);fill:none;stroke:#010101;stroke-width:0.367;}
	.st35{clip-path:url(#SVGID_12_);fill:none;stroke:#010101;stroke-width:0.367;}
	.st36{fill:#95979A;}
	.st37{fill:none;stroke:#010101;stroke-width:0.367;}
	.st38{fill:#231F20;stroke:#231F20;stroke-width:1.32;stroke-miterlimit:10;}
	.st39{fill:#231F20;stroke:#231F20;stroke-width:0.9;stroke-miterlimit:10;}
	.st40{fill-rule:evenodd;clip-rule:evenodd;fill:#231F20;}
	.st41{fill:none;stroke:#010101;stroke-width:0.349;}
	.st42{clip-path:url(#SVGID_14_);fill:#010101;}
	.st43{clip-path:url(#SVGID_16_);fill:#010101;}
	.st44{clip-path:url(#SVGID_18_);fill:#010101;}
	.st45{clip-path:url(#SVGID_20_);fill:#010101;}
	.st46{clip-path:url(#SVGID_22_);fill:#010101;}
	.st47{clip-path:url(#SVGID_24_);fill:#010101;}
	.st48{clip-path:url(#SVGID_26_);fill:#010101;}
	.st49{clip-path:url(#SVGID_28_);fill:none;stroke:#010101;stroke-width:0.274;}
	.st50{clip-path:url(#SVGID_30_);fill:#010101;}
	.st51{clip-path:url(#SVGID_32_);fill:#010101;}
	.st52{clip-path:url(#SVGID_34_);fill:#010101;}
	.st53{clip-path:url(#SVGID_36_);fill:#231F20;}
	.st54{clip-path:url(#SVGID_36_);fill:#FFFFFF;}
	.st55{clip-path:url(#SVGID_36_);fill:#415364;}
	.st56{clip-path:url(#SVGID_36_);fill-rule:evenodd;clip-rule:evenodd;fill:#FFFFFF;}
	.st57{fill-rule:evenodd;clip-rule:evenodd;fill:#FFFFFF;}
	.st58{fill:none;stroke:#231F20;stroke-width:1.6532;stroke-linecap:round;stroke-linejoin:round;stroke-miterlimit:10;}
	.st59{fill:none;stroke:#231F20;stroke-width:1.9928;stroke-miterlimit:10;}
</style>
<g id="Fondo" class="st0">
</g>
<g id="Layer_1">
	<g>
		<g>
			<g>
				<path class="st2" d="M56.6,72.2c0,2.4-0.6,4.4-1.9,6.1c-0.9,1.1-2.1,2-3.7,2.4c-0.8,0.3-1.8,0.4-3,0.4c-2.1,0-3.8-0.5-5.2-1.5
					c-1.1-0.8-2.1-1.9-2.7-3.4c-0.7-1.4-1.1-3-1.2-4.9l5.1-0.4c0.2,2,0.8,3.4,1.6,4.3c0.6,0.7,1.4,1,2.2,1c1.2,0,2.1-0.6,2.8-1.7
					c0.4-0.5,0.5-1.3,0.5-2.3c0-1.4-0.7-2.8-2-4.2c-1.1-1-2.6-2.4-4.7-4.4c-1.8-1.7-3-3.2-3.8-4.5c-0.8-1.5-1.2-3.1-1.2-4.8
					c0-3.1,1.1-5.5,3.2-7.1c1.3-1,3-1.5,5-1.5c1.9,0,3.5,0.4,4.9,1.2c1.1,0.6,1.9,1.5,2.6,2.7c0.6,1.2,1,2.5,1.2,4l-5.1,0.9
					c-0.2-1.4-0.6-2.5-1.2-3.3c-0.5-0.6-1.2-0.8-2.1-0.8c-1,0-1.7,0.4-2.2,1.3c-0.4,0.7-0.6,1.5-0.6,2.5c0,1.6,0.7,3.2,2.1,4.8
					c0.5,0.6,1.3,1.4,2.4,2.2c1.2,1,2.1,1.7,2.5,2.1c1.3,1.3,2.3,2.5,3.1,3.8c0.3,0.6,0.6,1.1,0.8,1.6
					C56.4,70.1,56.6,71.2,56.6,72.2"/>
				<polygon class="st2" points="59.9,80.7 59.9,46.4 75.1,46.4 75.1,51.6 65.2,51.6 65.2,60.9 72.4,60.9 72.4,66.1 65.2,66.1 
					65.2,75.5 75.1,75.5 75.1,80.7 				"/>
				<polygon class="st2" points="85.2,46.4 92.3,69.4 92.3,46.4 97.6,46.4 97.6,80.7 91.9,80.7 84.6,58.7 84.6,80.7 79.2,80.7 
					79.2,46.4 				"/>
				<path class="st2" d="M118.6,72.2c0,2.4-0.6,4.4-1.9,6.1c-0.9,1.1-2.1,2-3.7,2.4c-0.9,0.3-1.8,0.4-3,0.4c-2.1,0-3.8-0.5-5.2-1.5
					c-1.2-0.8-2.1-1.9-2.7-3.4c-0.7-1.4-1.1-3-1.2-4.9L106,71c0.2,2,0.8,3.4,1.6,4.3c0.6,0.7,1.4,1,2.2,1c1.2,0,2.1-0.6,2.8-1.7
					c0.4-0.5,0.5-1.3,0.5-2.3c0-1.4-0.7-2.8-2-4.2c-1.1-1-2.6-2.4-4.8-4.4c-1.8-1.7-3-3.2-3.8-4.5c-0.8-1.5-1.2-3.1-1.2-4.8
					c0-3.1,1.1-5.5,3.2-7.1c1.3-1,3-1.5,5-1.5c1.9,0,3.5,0.4,4.9,1.2c1.1,0.6,1.9,1.5,2.6,2.7c0.6,1.2,1,2.5,1.2,4l-5.1,0.9
					c-0.2-1.4-0.6-2.5-1.2-3.3c-0.5-0.6-1.2-0.8-2.1-0.8c-1,0-1.7,0.4-2.2,1.3c-0.4,0.7-0.6,1.5-0.6,2.5c0,1.6,0.7,3.2,2.1,4.8
					c0.5,0.6,1.3,1.4,2.4,2.2c1.2,1,2.1,1.7,2.5,2.1c1.3,1.3,2.3,2.5,3,3.8c0.3,0.6,0.6,1.1,0.8,1.6
					C118.3,70.1,118.6,71.2,118.6,72.2"/>
				<path class="st2" d="M133.1,54.1c0-0.8-0.3-1.5-0.9-2.1c-0.6-0.6-1.3-0.9-2.2-0.9c-0.8,0-1.6,0.3-2.2,0.9
					c-0.6,0.6-0.9,1.3-0.9,2.1v18.8c0,0.8,0.3,1.5,0.9,2.1c0.6,0.6,1.3,0.9,2.2,0.9c0.8,0,1.6-0.3,2.2-0.9c0.6-0.6,0.9-1.3,0.9-2.1
					V54.1z M130.2,46c2.4,0,4.4,0.8,6,2.4c1.7,1.6,2.5,3.5,2.5,5.8v18.7c0,2.3-0.8,4.2-2.5,5.8c-1.7,1.6-3.7,2.4-6,2.4
					c-2.4,0-4.3-0.8-6-2.4c-1.6-1.6-2.5-3.5-2.5-5.8V54.2c0-2.3,0.8-4.2,2.5-5.8C125.9,46.8,127.9,46,130.2,46"/>
				<path class="st2" d="M155,54.7c0-2-1-3-3-3h-3.2v11h3.2c0.9,0,1.6-0.3,2.2-0.9c0.6-0.6,0.9-1.3,0.9-2.1V54.7z M151.8,46.4
					c3,0,5.2,0.8,6.6,2.4c1.2,1.4,1.8,3.3,1.8,5.8v5c0,2.4-1,4.5-2.9,6.2l4,15h-5.8l-3.2-12.9h-0.5h-3.1v12.9h-5.3V46.4H151.8z"/>
				<polygon class="st2" points="170.8,80.7 165.4,80.7 165.4,46.4 180.6,46.4 180.6,51.6 170.8,51.6 170.8,60.9 178,60.9 178,66.1 
					170.8,66.1 				"/>
				<polygon class="st2" points="198.9,80.7 184.3,80.7 184.3,46.4 189.6,46.4 189.6,75.6 198.9,75.6 				"/>
				<polygon class="st2" points="202.5,80.7 202.5,46.4 217.7,46.4 217.7,51.6 207.9,51.6 207.9,60.9 215.1,60.9 215.1,66.1 
					207.9,66.1 207.9,75.5 217.7,75.5 217.7,80.7 				"/>
				<polygon class="st2" points="241.1,80.7 235.4,80.7 231.3,69.8 227.1,80.7 221.4,80.7 228.4,63.5 221.4,46.4 227.3,46.4 
					231.3,57 235.2,46.4 241.1,46.4 234.1,63.5 				"/>
				<rect x="197" y="89.4" class="st2" width="45" height="1.1"/>
				<rect x="197" y="93.9" class="st2" width="45" height="1.1"/>
				<path class="st2" d="M238.5,103.3c-2.3,0-3.2-1.1-4.1-2.3c-0.8-1-1.5-1.9-3.3-1.9c-1.9,0-2.6,0.9-3.4,1.9
					c-0.9,1.1-1.8,2.3-4.1,2.3c-2.2,0-3.2-1.2-4.1-2.4c-0.8-1.1-1.6-2.1-3.6-2.1c0,0-0.1,0-0.1,0c-2,0-2.7,1-3.4,2.1
					c-0.8,1.2-1.7,2.4-4,2.4c-2.6,0-3.7-1.3-4.7-2.5c-0.8-0.9-1.4-1.6-2.5-1.7c-2.6-0.1-3.8,1.6-3.8,1.6l-0.5-1c0.1-0.1,1.3-2,4.1-2
					c0.1,0,0.1,0,0.2,0c1.4,0,2.2,0.9,3,1.9c1,1.1,2,2.3,4.3,2.3c2.1,0,2.8-1,3.5-2.1c0.8-1.2,1.6-2.4,3.9-2.4
					c2.3,0,3.2,1.2,4.1,2.4c0.8,1.1,1.6,2.1,3.6,2.1c2,0,2.8-1,3.6-2c0.9-1.1,1.8-2.2,3.9-2.2c2.1,0,3,1.1,3.8,2.2
					c0.8,1,1.6,2,3.6,2c1.9,0,3.4-2,3.4-2.1l0.5,1.1C242.3,101.1,240.6,103.3,238.5,103.3"/>
				<path class="st2" d="M48.1,100.1c0,1.8-1.4,3.3-3.2,3.3c-1.5,0-3.3-0.8-3.3-3.3v-7.8c0-1.9,1.3-3.3,3.3-3.3
					c1.9,0,3.2,1.4,3.2,3.4v0.8h-2v-0.7c0-0.8-0.5-1.5-1.2-1.5c-1,0-1.2,0.7-1.2,1.7v7.3c0,0.8,0.3,1.5,1.2,1.5
					c0.6,0,1.3-0.3,1.3-1.4v-0.7h2V100.1z"/>
				<path class="st2" d="M52.5,92.5c0-2.3,1.7-3.5,3.4-3.5c1.6,0,3.4,1.2,3.4,3.5v7.5c0,2.3-1.7,3.5-3.4,3.5c-1.6,0-3.4-1.2-3.4-3.5
					V92.5z M54.5,100c0,1,0.6,1.4,1.4,1.4c0.7,0,1.4-0.5,1.4-1.4v-7.5c0-1-0.6-1.4-1.4-1.4c-0.7,0-1.4,0.5-1.4,1.4V100z"/>
				<polygon class="st2" points="63.9,89.1 65.9,89.1 68.5,96.6 68.5,96.6 71.1,89.1 73,89.1 73,103.3 71,103.3 71,94.7 71,94.7 
					69,100.8 68,100.8 66,94.7 66,94.7 66,103.3 63.9,103.3 				"/>
				<polygon class="st2" points="77.8,89.1 83.9,89.1 83.9,91 79.9,91 79.9,95.3 83.3,95.3 83.3,97.2 79.9,97.2 79.9,103.3 
					77.8,103.3 				"/>
				<path class="st2" d="M87.9,92.5c0-2.3,1.7-3.5,3.4-3.5c1.6,0,3.4,1.2,3.4,3.5v7.5c0,2.3-1.7,3.5-3.4,3.5c-1.6,0-3.4-1.2-3.4-3.5
					V92.5z M89.9,100c0,1,0.6,1.4,1.4,1.4c0.7,0,1.4-0.5,1.4-1.4v-7.5c0-1-0.6-1.4-1.4-1.4c-0.7,0-1.4,0.5-1.4,1.4V100z"/>
				<path class="st2" d="M99.3,89.1h3.2c2.4,0,3.6,1.4,3.6,4.2c0,1.6-0.5,2.8-1.7,3.5l2.2,6.5h-2.1l-1.9-6.1h-1.2v6.1h-2V89.1z
					 M101.3,95.4h1.1c1.4,0,1.6-0.8,1.6-2.2c0-1.4-0.2-2.2-1.7-2.2h-1V95.4z"/>
				<polygon class="st2" points="112,91 109.7,91 109.7,89.1 116.4,89.1 116.4,91 114,91 114,103.3 112,103.3 				"/>
				<path class="st2" d="M133.5,93.2h-2v-0.5c0-0.9-0.4-1.7-1.4-1.7c-1.1,0-1.4,0.9-1.4,1.8c0,1.1,0.1,1.5,1.1,1.9l1.5,0.6
					c1.8,0.7,2.1,1.8,2.1,3.9c0,2.4-0.9,4.2-3.5,4.2c-2,0-3.4-1.5-3.4-3.4v-0.8h2v0.6c0,0.7,0.4,1.5,1.4,1.5c1.4,0,1.5-0.8,1.5-2.1
					c0-1.5-0.2-1.8-1.2-2.2l-1.4-0.6c-1.7-0.7-2.2-1.9-2.2-3.6c0-2.2,1.1-3.9,3.5-3.9c2,0,3.4,1.6,3.4,3.2V93.2z"/>
				<polygon class="st2" points="139.4,97.3 136.6,89.1 138.7,89.1 140.4,94.8 140.4,94.8 142,89.1 144.1,89.1 141.4,97.3 
					141.4,103.3 139.4,103.3 				"/>
				<path class="st2" d="M154.2,93.2h-2v-0.5c0-0.9-0.4-1.7-1.4-1.7c-1.1,0-1.4,0.9-1.4,1.8c0,1.1,0.1,1.5,1.1,1.9l1.5,0.6
					c1.8,0.7,2.1,1.8,2.1,3.9c0,2.4-0.9,4.2-3.5,4.2c-2,0-3.4-1.5-3.4-3.4v-0.8h2v0.6c0,0.7,0.4,1.5,1.4,1.5c1.4,0,1.5-0.8,1.5-2.1
					c0-1.5-0.2-1.8-1.2-2.2l-1.4-0.6c-1.7-0.7-2.2-1.9-2.2-3.6c0-2.2,1.1-3.9,3.5-3.9c2,0,3.4,1.6,3.4,3.2V93.2z"/>
				<polygon class="st2" points="159.9,91 157.6,91 157.6,89.1 164.3,89.1 164.3,91 162,91 162,103.3 159.9,103.3 				"/>
				<polygon class="st2" points="168.1,89.1 174.2,89.1 174.2,91 170.2,91 170.2,95.2 173.6,95.2 173.6,97.1 170.2,97.1 
					170.2,101.3 174.2,101.3 174.2,103.3 168.1,103.3 				"/>
				<polygon class="st2" points="178.4,89.1 180.4,89.1 182.9,96.6 183,96.6 185.6,89.1 187.5,89.1 187.5,103.3 185.5,103.3 
					185.5,94.7 185.5,94.7 183.5,100.8 182.4,100.8 180.5,94.7 180.4,94.7 180.4,103.3 178.4,103.3 				"/>
			</g>
		</g>
		<g>
			<path class="st2" d="M244.9,46.6h-1.5V46h3.6v0.6h-1.5v4.2h-0.7V46.6z"/>
			<path class="st2" d="M248.2,45.9L248.2,45.9l2.3,2.7l2.2-2.7h0.1v4.8h-0.7v-2.6c0-0.3,0.1-0.8,0.1-0.8s-0.2,0.5-0.5,0.7l-1.2,1.5
				h-0.1l-1.2-1.5c-0.2-0.3-0.5-0.7-0.5-0.7s0.1,0.5,0.1,0.8v2.6h-0.7V45.9z"/>
		</g>
	</g>
</g>
</svg>
