<svg xmlns="http://www.w3.org/2000/svg" viewBox="0 0 283.46 149.39"><defs><style>.cls-1{opacity:0.9;}.cls-2{fill:#010101;}</style></defs><g id="Layer_1" data-name="Layer 1"><path class="cls-2" d="M226.69,47.53a.63.63,0,0,1-.66.66.61.61,0,0,1-.53-.66V45h-.78a.48.48,0,0,1-.53-.52c0-.39.13-.66.53-.66h2.75a.61.61,0,0,1,.53.66.56.56,0,0,1-.53.52h-.78Zm3.41-3,.39,2.1.53-2.1a1,1,0,0,1,.79-.66.88.88,0,0,1,.92.79l.39,2.76a.55.55,0,0,1-.39.79.61.61,0,0,1-.66-.53l-.26-2.36-.53,2.23a.84.84,0,0,1-.79.66c-.26,0-.52-.27-.65-.66l-.53-2.23-.39,2.36a.61.61,0,0,1-.66.53.8.8,0,0,1-.39-.79l.52-2.76a.77.77,0,0,1,.79-.79,1,1,0,0,1,.92.66"/><polygon class="cls-2" points="125.79 111.64 125.79 99.82 133.02 99.82 133.02 101.26 127.37 101.26 127.37 105.07 132.49 105.07 132.49 106.65 127.37 106.65 127.37 111.64 125.79 111.64"/><path class="cls-2" d="M141.16,109.41a3.65,3.65,0,0,1-3.68,2.49,4.07,4.07,0,0,1-4.07-4.33,4,4,0,0,1,3.94-4.2c2.5,0,3.81,1.7,3.81,4.2v.52h-6a2.39,2.39,0,0,0,2.36,2.5,2.18,2.18,0,0,0,2.24-1.71Zm-1.57-2.63a2,2,0,0,0-2.24-2,2.17,2.17,0,0,0-2.23,2Z"/><path class="cls-2" d="M150,109.41a3.47,3.47,0,0,1-3.54,2.49,4.28,4.28,0,0,1-.27-8.53c2.5,0,3.95,1.7,3.95,4.2,0,.26-.14.39-.14.52h-6a2.42,2.42,0,0,0,2.5,2.5,2.17,2.17,0,0,0,2.23-1.71Zm-1.57-2.63c0-1.18-.79-2-2.24-2a2.17,2.17,0,0,0-2.23,2Z"/><rect class="cls-2" x="151.54" y="99.42" width="1.71" height="12.35"/><path class="cls-2" d="M156.4,109.14c0,.79.66,1.45,1.84,1.45.92,0,1.31-.53,1.31-1s-.26-.92-1.05-1.05l-1.31-.26a2.29,2.29,0,0,1-2-2.37,2.65,2.65,0,0,1,2.76-2.5,3,3,0,0,1,3.15,2.1l-1.45.53a1.51,1.51,0,0,0-1.7-1.31,1.2,1.2,0,0,0-1.32,1,1.12,1.12,0,0,0,.92,1l1.32.26a2.41,2.41,0,0,1,2.23,2.37,2.6,2.6,0,0,1-2.89,2.49,3,3,0,0,1-3.28-2.36Z"/><path class="cls-2" d="M167.57,109.14a1.8,1.8,0,0,0,2,1.45c.92,0,1.31-.53,1.31-1s-.39-.92-1-1.05l-1.31-.26a2.28,2.28,0,0,1-2-2.37,2.65,2.65,0,0,1,2.76-2.5,3,3,0,0,1,3.15,2.1L171,106a1.51,1.51,0,0,0-1.7-1.31,1.2,1.2,0,0,0-1.32,1,1,1,0,0,0,.92,1l1.32.26a2.41,2.41,0,0,1,2.23,2.37,2.6,2.6,0,0,1-2.89,2.49,3.05,3.05,0,0,1-3.29-2.36Z"/><path class="cls-2" d="M181.76,107.7a4,4,0,0,1-4.08,4.2,4.27,4.27,0,0,1,0-8.54,4.08,4.08,0,0,1,4.08,4.34m-1.58,0c0-2-1.18-2.89-2.5-2.89s-2.49.92-2.49,2.89a2.52,2.52,0,1,0,5,0"/><path class="cls-2" d="M192,105.2h-.65c-1.32,0-2.24.66-2.24,2.5v3.94h-1.57v-8h1.57v1.44a2.39,2.39,0,0,1,2.37-1.58H192Z"/><path class="cls-2" d="M194.24,99.42a1.08,1.08,0,0,1,1,1.19,1,1,0,0,1-1,1,1.17,1.17,0,0,1-1.19-1,1.19,1.19,0,0,1,1.19-1.19m-.79,4.21H195v8h-1.57Z"/><path class="cls-2" d="M198.44,111.77a2,2,0,0,0,2.1,2c1.71,0,2.5-.92,2.5-2.62v-1.19a2.69,2.69,0,0,1-2.5,1.32,3.63,3.63,0,0,1-3.68-3.81,3.67,3.67,0,0,1,3.68-4,2.49,2.49,0,0,1,2.5,1.19v-1.05h1.58v7.49a3.78,3.78,0,0,1-4.08,4.07,3.5,3.5,0,0,1-3.68-3Zm4.73-4.33a2.43,2.43,0,0,0-2.37-2.63,2.35,2.35,0,0,0-2.36,2.63,2.24,2.24,0,0,0,2.36,2.49,2.31,2.31,0,0,0,2.37-2.49"/><path class="cls-2" d="M208.16,111.64h-1.58V99.55h1.58v5a2.87,2.87,0,0,1,2.5-1.18c2,0,2.89,1.44,2.89,3.15v5.12H212v-4.86c0-1-.39-2-1.84-2-1.18,0-1.84.92-2,2.1Z"/><path class="cls-2" d="M217.88,103.63h1.84v1.44h-1.84v4.2c0,.66.4,1.06,1.18,1.06h.66v1.31a7,7,0,0,1-1.05.13,2.14,2.14,0,0,1-2.36-2.36v-4.34h-1.45v-1.44h.4c.91,0,1.18-.53,1.18-1.32V101h1.44Z"/><path class="cls-2" d="M83.75,63.69a19.13,19.13,0,0,0-1.57-5.78c-2.37-6.57-7.89-10.25-12.09-10.51A5.14,5.14,0,0,0,65,49.9c-2.37,4.46-1.58,9.45,2.1,14.45,3.94,5.12,7,4.2,8.14,3.41a4.45,4.45,0,0,0,1.45-5.65c-.66-1.44-3-5.25-3-5.38a1.57,1.57,0,0,0-2.24-.53,1.41,1.41,0,0,0-.52,2.1c0,.14,2.23,3.94,2.89,5.26.26.52.13,1.31-.26,1.44-.53.4-2-.13-3.81-2.62-2.11-2.76-4.08-6.83-1.84-11a2,2,0,0,1,2-.65c3.15.13,7.48,3.15,9.32,8.4h.14c0,.13,3.68,8.54-1.45,12.48a6.17,6.17,0,0,1-4.6,1.05C69.83,72,65.75,68.68,63,64.08a1.62,1.62,0,0,0-2.76,1.71c2.62,4.21,7.09,8.94,12.48,10a7.54,7.54,0,0,0,1.71.13,8.88,8.88,0,0,0,5.38-1.84c3-2.37,4.34-5.91,3.94-10.38"/><path class="cls-2" d="M57.35,38.86c3.15-.13,11.43-.13,17.34,5A2.41,2.41,0,0,0,78,43.59a2.34,2.34,0,0,0-.26-3.41c-9.2-7.63-21.94-5.79-22.47-5.79a2.53,2.53,0,0,0-1.83,1.45c-.27.92-8.41,21.28,2.76,37.57a2.23,2.23,0,0,0,3.15.66A2.49,2.49,0,0,0,60,70.78c-8.27-12-4.2-27.32-2.62-31.92"/><path class="cls-2" d="M226,86.81H104.77a24.62,24.62,0,0,1-18-7.75h-.14v-.13a19.87,19.87,0,0,0,3.81-5.39l.13-.13c4-9.85.92-20.1-8.53-28.77a2.33,2.33,0,0,0-3.16,3.42c7.89,7.35,10.51,15.5,7.36,23.51a17.26,17.26,0,0,1-4.2,5.26h-.14c0,.13,0,.13-.13.13s-.13.13-.13.26a.13.13,0,0,0-.13.13l-.13.13c0,.13-.13.13-.13.27a.39.39,0,0,1-.14.26v.53a.4.4,0,0,0-.13.26c.13.13.13.13.13.26v.39c.14.14.14.14.14.27l.13.13c0,.13,0,.13.13.26v.13a29.76,29.76,0,0,0,23.25,11.3H226a2.37,2.37,0,0,0,0-4.73"/><path class="cls-2" d="M67.33,45.56a1.61,1.61,0,0,0,1.32-1.84,1.59,1.59,0,0,0-1.71-1.44c-3.94.65-10.38,3.54-9.59,16.42v.13a1.5,1.5,0,0,0,.78,1.44,1.11,1.11,0,0,0,.93.27,1.86,1.86,0,0,0,1.31-.66,2.85,2.85,0,0,0,.26-1.45c-.39-5.38.53-12.08,6.7-12.87"/><path class="cls-2" d="M76.13,79.32c-2.1.53-8.41-.13-11.3-3.81a2.41,2.41,0,0,0-3.28-.26,2.32,2.32,0,0,0-.39,3.29c3.41,4.2,9.32,5.64,13.26,5.64a9,9,0,0,0,2.89-.39,2.31,2.31,0,1,0-1.18-4.47"/><path class="cls-2" d="M100.31,49.37h7.48V72.23a3,3,0,0,0,2.89,3.15,2.91,2.91,0,0,0,2.9-3.15V49.37h7.35a3.15,3.15,0,0,0,3.15-2.89,3,3,0,0,0-3.15-2.89H100.31a3,3,0,0,0-3.16,2.89,3.07,3.07,0,0,0,3.16,2.89"/><path class="cls-2" d="M130.91,56.07c2.9,0,4.6,1.84,4.47,4.47,0,.39-.13.52-.52.52h-8.68c0-2.89,1.58-5,4.73-5m-10.64,4.47c0,1.31-.13,3.81,0,5.51.53,5.65,4.73,9.59,10.91,9.59a16.54,16.54,0,0,0,7.36-1.57,3,3,0,0,0,1.57-2.5c0-1.71-1.57-3.28-3.94-2.36a16.93,16.93,0,0,1-5,.92c-3,0-5.26-1.58-5.26-4.34v-.65h12.22c2.1,0,2.89-1.06,2.89-2.76V61.32C141,55,137,51,130.91,51s-10.11,3.68-10.64,9.59"/><path class="cls-2" d="M146.94,75.51a3,3,0,0,0,2.89-3.15V57.91a10.56,10.56,0,0,1,4.47-1.18,4,4,0,0,1,4.33,4.33v11.3a3.07,3.07,0,0,0,2.89,3.15,3,3,0,0,0,3-3.15V60.8c0-6.31-3.42-9.85-10.12-9.85-4.86,0-8,1.44-9.46,2.49-.79.53-.92,1.05-.92,2.11V72.36a3.07,3.07,0,0,0,2.89,3.15"/><path class="cls-2" d="M178.21,75.64c6.57,0,10-4.33,10-6.83a2.89,2.89,0,0,0-3-3,2.5,2.5,0,0,0-2.36,1.31,4.92,4.92,0,0,1-9.33-1.83V60.93a4.5,4.5,0,0,1,4.86-4.33,4.73,4.73,0,0,1,4.47,2.75,2.75,2.75,0,0,0,2.36,1.32,2.94,2.94,0,0,0,2.89-3c0-2.63-3.28-6.7-9.85-6.7C172.3,51,168,54.62,167.57,60a49,49,0,0,0,0,6.18,10.31,10.31,0,0,0,10.64,9.45"/><path class="cls-2" d="M200.67,56.07c2.89,0,4.6,1.84,4.47,4.47,0,.39-.13.52-.52.52h-8.68c0-2.89,1.58-5,4.73-5m.27,19.57a17,17,0,0,0,7.35-1.57,3,3,0,0,0,1.58-2.5c0-1.7-1.58-3.28-4.07-2.36a13.8,13.8,0,0,1-4.6.92c-3,0-5.12-1.58-5.12-4.34v-.65H207.9c2.1,0,2.76-1.06,2.76-2.76V61.33C210.66,55,206.58,51,200.54,51s-10,3.67-10.51,9.59a38.86,38.86,0,0,0,0,5.51c.4,5.65,4.6,9.59,10.91,9.59"/><path class="cls-2" d="M216.57,75.51a3,3,0,0,0,2.89-3.15V46.22a2.9,2.9,0,1,0-5.78,0V72.36a3.06,3.06,0,0,0,2.89,3.15"/></g></svg>