<?xml version="1.0" encoding="utf-8"?>
<!-- Generator: Adobe Illustrator 25.0.0, SVG Export Plug-In . SVG Version: 6.00 Build 0)  -->
<svg version="1.1" xmlns="http://www.w3.org/2000/svg" xmlns:xlink="http://www.w3.org/1999/xlink" x="0px" y="0px"
	 viewBox="0 0 283.5 149.4" style="enable-background:new 0 0 283.5 149.4;" xml:space="preserve">
<style type="text/css">
	.st0{opacity:0.9;}
	.st1{fill:#FFFFFF;stroke:#010101;stroke-miterlimit:10;}
	.st2{fill:#010101;}
	.st3{fill:#231F20;}
	.st4{fill:none;stroke:#231F20;stroke-width:2.054;stroke-miterlimit:10;}
	.st5{fill:none;stroke:#231F20;stroke-width:1.711;stroke-miterlimit:10;}
	.st6{fill:none;stroke:#231F20;stroke-width:2.054;stroke-linejoin:bevel;stroke-miterlimit:10;}
	.st7{fill:none;stroke:#231F20;stroke-width:1.972;stroke-miterlimit:10;}
	.st8{fill:#FFFFFF;}
	.st9{fill:none;stroke:#231F20;stroke-width:1.369;stroke-linecap:round;stroke-linejoin:round;stroke-miterlimit:10;}
	.st10{fill:none;stroke:#231F20;stroke-width:1.369;stroke-linejoin:bevel;stroke-miterlimit:10;}
	.st11{fill:none;stroke:#231F20;stroke-width:0.685;stroke-miterlimit:10;}
	.st12{fill:none;stroke:#231F20;stroke-width:2.054;stroke-linecap:round;stroke-linejoin:round;stroke-miterlimit:10;}
	.st13{fill:none;stroke:#231F20;stroke-width:1.972;stroke-linecap:round;stroke-linejoin:round;stroke-miterlimit:10;}
	.st14{fill:none;stroke:#231F20;stroke-width:2.029;stroke-miterlimit:10;}
	.st15{fill:#E9282A;}
	.st16{fill:none;stroke:#231F20;stroke-width:1.691;stroke-linecap:round;stroke-linejoin:round;stroke-miterlimit:10;}
	.st17{fill:none;stroke:#231F20;stroke-width:2.031;stroke-miterlimit:10;}
	.st18{fill:none;stroke:#231F20;stroke-width:2.031;stroke-linejoin:round;stroke-miterlimit:10;}
	.st19{fill:none;stroke:#FFFFFF;stroke-width:7.454;stroke-linecap:round;stroke-linejoin:round;stroke-miterlimit:10;}
	.st20{fill:none;stroke:#020202;stroke-width:2.485;stroke-linecap:round;stroke-linejoin:round;stroke-miterlimit:10;}
	.st21{fill:none;stroke:#231F20;stroke-width:1.497;stroke-miterlimit:10;}
	.st22{fill:none;stroke:#231F20;stroke-width:2.054;stroke-miterlimit:10;stroke-dasharray:1.369,1.027;}
	.st23{fill:none;stroke:#231F20;stroke-width:1.369;stroke-miterlimit:10;}
	.st24{fill:#020202;}
	.st25{fill:none;}
	.st26{clip-path:url(#SVGID_2_);fill:#231F20;}
	.st27{clip-path:url(#SVGID_4_);fill:#010101;}
	.st28{clip-path:url(#SVGID_6_);fill:#010101;}
	.st29{clip-path:url(#SVGID_6_);fill:none;stroke:#010101;stroke-width:0.432;stroke-miterlimit:10;}
	.st30{fill-rule:evenodd;clip-rule:evenodd;fill:#010101;}
	.st31{clip-path:url(#SVGID_8_);fill:#010101;}
	.st32{clip-path:url(#SVGID_10_);fill:#010101;}
	.st33{clip-path:url(#SVGID_10_);fill:#97999B;}
	.st34{clip-path:url(#SVGID_10_);fill:none;stroke:#010101;stroke-width:0.367;}
	.st35{clip-path:url(#SVGID_12_);fill:none;stroke:#010101;stroke-width:0.367;}
	.st36{fill:#95979A;}
	.st37{fill:none;stroke:#010101;stroke-width:0.367;}
	.st38{fill:#231F20;stroke:#231F20;stroke-width:1.32;stroke-miterlimit:10;}
	.st39{fill:#231F20;stroke:#231F20;stroke-width:0.9;stroke-miterlimit:10;}
	.st40{fill-rule:evenodd;clip-rule:evenodd;fill:#231F20;}
	.st41{fill:none;stroke:#010101;stroke-width:0.349;}
	.st42{clip-path:url(#SVGID_14_);fill:#010101;}
	.st43{clip-path:url(#SVGID_16_);fill:#010101;}
	.st44{clip-path:url(#SVGID_18_);fill:#010101;}
	.st45{clip-path:url(#SVGID_20_);fill:#010101;}
	.st46{clip-path:url(#SVGID_22_);fill:#010101;}
	.st47{clip-path:url(#SVGID_24_);fill:#010101;}
	.st48{clip-path:url(#SVGID_26_);fill:#010101;}
	.st49{clip-path:url(#SVGID_28_);fill:none;stroke:#010101;stroke-width:0.274;}
	.st50{clip-path:url(#SVGID_30_);fill:#010101;}
	.st51{clip-path:url(#SVGID_32_);fill:#010101;}
	.st52{clip-path:url(#SVGID_34_);fill:#010101;}
	.st53{clip-path:url(#SVGID_36_);fill:#231F20;}
	.st54{clip-path:url(#SVGID_36_);fill:#FFFFFF;}
	.st55{clip-path:url(#SVGID_36_);fill:#415364;}
	.st56{clip-path:url(#SVGID_36_);fill-rule:evenodd;clip-rule:evenodd;fill:#FFFFFF;}
	.st57{fill-rule:evenodd;clip-rule:evenodd;fill:#FFFFFF;}
	.st58{fill:none;stroke:#231F20;stroke-width:1.6532;stroke-linecap:round;stroke-linejoin:round;stroke-miterlimit:10;}
	.st59{fill:none;stroke:#231F20;stroke-width:1.9928;stroke-miterlimit:10;}
</style>
<g id="Fondo" class="st0">
</g>
<g id="Layer_1">
	<g>
		<g>
			<defs>
				<rect id="SVGID_31_" x="57.6" y="46" width="168.2" height="57.5"/>
			</defs>
			<clipPath id="SVGID_2_">
				<use xlink:href="#SVGID_31_"  style="overflow:visible;"/>
			</clipPath>
			<polyline style="clip-path:url(#SVGID_2_);fill:#010101;" points="66.8,50.6 66.8,67.3 62.9,67.3 62.9,50.6 57.6,50.6 57.6,47.1 
				72.1,47.1 72.1,50.6 66.8,50.6 			"/>
		</g>
		<polyline class="st2" points="87.1,67.3 87.1,58.8 80.2,58.8 80.2,67.3 76.3,67.3 76.3,47.1 80.2,47.1 80.2,55.3 87.1,55.3 
			87.1,47.1 91,47.1 91,67.3 87.1,67.3 		"/>
		<polyline class="st2" points="96.7,67.3 96.7,47.1 110,47.1 110,50.6 100.6,50.6 100.6,55.3 108.6,55.3 108.6,58.8 100.6,58.8 
			100.6,63.7 110,63.7 110,67.3 96.7,67.3 		"/>
		<path class="st2" d="M125.5,67.3l-3.9-8h-2.8v8h-3.9V47.1h7.9c4.1,0,6.5,2.8,6.5,6.2c0,2.8-1.7,4.6-3.7,5.3l4.5,8.7H125.5
			 M122.5,50.6h-3.7v5.3h3.7c1.7,0,2.9-1.1,2.9-2.7S124.2,50.6,122.5,50.6z"/>
		<polyline class="st2" points="148.7,67.3 148.7,55.5 144.8,63.1 142.2,63.1 138.3,55.5 138.3,67.3 134.4,67.3 134.4,47.1 
			138.2,47.1 143.5,58 148.7,47.1 152.6,47.1 152.6,67.3 148.7,67.3 		"/>
		<path class="st2" d="M170.5,65.3c-1.4,1.4-3.1,2.1-5.4,2.1c-2.3,0-4.1-0.8-5.4-2.1c-2-2-2-4.3-2-8.1s0-6.1,2-8.1
			c1.4-1.4,3.1-2.1,5.4-2.1c2.3,0,4,0.8,5.4,2.1c2,2,2.1,4.3,2.1,8.1S172.5,63.3,170.5,65.3 M167.6,51.5c-0.6-0.7-1.4-1.1-2.5-1.1
			s-2,0.4-2.6,1.1c-0.7,0.9-1,1.8-1,5.7s0.2,4.8,1,5.6c0.6,0.7,1.5,1.1,2.6,1.1s2-0.5,2.5-1.1c0.7-0.9,1-1.8,1-5.6
			S168.4,52.4,167.6,51.5z"/>
		<path class="st2" d="M188.3,67.3l-3.9-8h-2.8v8h-3.9V47.1h7.9c4.1,0,6.5,2.8,6.5,6.2c0,2.8-1.7,4.6-3.7,5.3l4.5,8.7H188.3
			 M185.2,50.6h-3.7v5.3h3.7c1.7,0,2.9-1.1,2.9-2.7S186.9,50.6,185.2,50.6z"/>
		<g>
			<defs>
				<rect id="SVGID_33_" x="57.6" y="46" width="168.2" height="57.5"/>
			</defs>
			<clipPath id="SVGID_4_">
				<use xlink:href="#SVGID_33_"  style="overflow:visible;"/>
			</clipPath>
			<polyline class="st27" points="197.1,67.3 197.1,47.1 210.4,47.1 210.4,50.6 201,50.6 201,55.3 209,55.3 209,58.8 201,58.8 
				201,63.7 210.4,63.7 210.4,67.3 197.1,67.3 			"/>
			<path class="st27" d="M219.8,57.9c-3.3,0-6-2.7-6-6c0-3.3,2.7-6,6-6c3.3,0,6,2.7,6,6C225.8,55.2,223.1,57.9,219.8,57.9
				 M219.8,47.3c-2.6,0-4.6,2-4.6,4.6c0,2.7,2,4.6,4.6,4.6c2.6,0,4.6-2,4.6-4.6C224.4,49.3,222.4,47.3,219.8,47.3z M220.9,55.1
				l-1.2-2.5h-0.7v2.5h-1.4v-6.4h2.6c1.3,0,2.1,0.9,2.1,2c0,0.9-0.6,1.4-1.2,1.7l1.3,2.7H220.9z M220.1,49.9h-1v1.7h1
				c0.5,0,0.9-0.4,0.9-0.8C221,50.3,220.6,49.9,220.1,49.9z"/>
		</g>
		<polyline class="st2" points="59.9,103.2 59.9,78.1 77,78.1 77,83.6 66.1,83.6 66.1,87.8 75.4,87.8 75.4,93.3 66.1,93.3 
			66.1,97.7 77,97.7 77,103.2 59.9,103.2 		"/>
		<path class="st2" d="M90.4,103.4c-3.3,0-8.5-1.4-8.5-9.7s5.2-9.7,8.5-9.7c2.6,0,4.7,0.9,6.2,2.4l-3.9,3.9
			c-0.7-0.7-1.4-1.1-2.3-1.1c-0.8,0-1.3,0.2-1.8,0.7c-0.7,0.7-1,1.9-1,3.7s0.3,3,1,3.7c0.5,0.5,1,0.7,1.8,0.7c1,0,1.6-0.4,2.3-1.1
			l3.9,3.9C95,102.5,93,103.4,90.4,103.4"/>
		<path class="st2" d="M114.2,101c-1.1,1.2-3,2.4-6.1,2.4c-3.1,0-5-1.2-6.1-2.4c-1.6-1.7-2.1-3.5-2.1-7.3c0-3.7,0.5-5.5,2.1-7.3
			c1.1-1.2,3-2.4,6.1-2.4c3.1,0,5,1.2,6.1,2.4c1.6,1.7,2.1,3.6,2.1,7.3C116.2,97.5,115.7,99.3,114.2,101 M109.6,89.8
			c-0.4-0.4-0.8-0.5-1.5-0.5c-0.7,0-1.2,0.2-1.6,0.5c-0.7,0.7-0.8,2.1-0.8,3.9s0.1,3.2,0.8,3.9c0.4,0.4,0.8,0.5,1.6,0.5
			c0.7,0,1.2-0.2,1.5-0.5c0.7-0.7,0.8-2.1,0.8-3.9S110.4,90.5,109.6,89.8z"/>
		<path class="st2" d="M131.7,103.2v-1.5c-1.2,1.2-2.4,1.8-4.4,1.8c-1.8,0-3.5-0.6-4.6-1.7c-1.8-1.8-1.8-4.7-1.8-8
			c0-3.3,0-6.1,1.8-8c1.1-1.1,2.7-1.7,4.5-1.7c1.9,0,3.2,0.5,4.2,1.6v-7.5h5.8v25.1H131.7 M129.1,89.3c-2.1,0-2.4,1.7-2.4,4.5
			c0,2.7,0.2,4.5,2.4,4.5c2.1,0,2.4-1.7,2.4-4.5C131.5,91,131.3,89.3,129.1,89.3z"/>
		<path class="st2" d="M157,101c-1.1,1.2-3,2.4-6.1,2.4s-5-1.2-6.1-2.4c-1.6-1.7-2.1-3.5-2.1-7.3c0-3.7,0.5-5.5,2.1-7.3
			c1.1-1.2,3-2.4,6.1-2.4s5,1.2,6.1,2.4c1.6,1.7,2.1,3.6,2.1,7.3C159,97.5,158.5,99.3,157,101 M152.4,89.8c-0.4-0.4-0.8-0.5-1.5-0.5
			c-0.7,0-1.2,0.2-1.5,0.5c-0.7,0.7-0.8,2.1-0.8,3.9s0.1,3.2,0.8,3.9c0.4,0.4,0.8,0.5,1.5,0.5c0.7,0,1.2-0.2,1.5-0.5
			c0.7-0.7,0.8-2.1,0.8-3.9S153.2,90.5,152.4,89.8z"/>
		<polyline class="st2" points="183.8,103.2 179.2,103.2 175.8,92.8 172.4,103.2 167.8,103.2 162.1,84.3 168.2,84.3 170.5,94.1 
			173.8,84.3 177.8,84.3 181.1,94.1 183.4,84.3 189.5,84.3 183.8,103.2 		"/>
		<path class="st2" d="M203.8,103.2V91.9c0-2.2-1.5-2.6-2.3-2.6s-2.3,0.4-2.3,2.6v11.3h-5.8V84.3h5.6v1.5c1.2-1.2,2.9-1.8,4.4-1.8
			c1.8,0,3.2,0.6,4.3,1.6c1.6,1.6,1.9,3.4,1.9,5.4v12.1H203.8"/>
		<path class="st2" d="M219.4,88.7c-3,0-5.4-2.4-5.4-5.4c0-3,2.4-5.4,5.4-5.4s5.4,2.4,5.4,5.4C224.8,86.3,222.4,88.7,219.4,88.7
			 M219.4,79.4c-2.2,0-3.9,1.6-3.9,3.9c0,2.3,1.7,3.9,3.9,3.9c2.2,0,3.9-1.6,3.9-3.9C223.3,81,221.6,79.4,219.4,79.4z M220.2,86.2
			l-0.8-2.1h-0.5v2.1h-1.5v-5.6h2.5c1.2,0,1.9,0.9,1.9,1.8c0,0.8-0.5,1.2-0.9,1.5l1.1,2.3H220.2z M219.7,81.8h-0.8v1.1h0.8
			c0.4,0,0.6-0.3,0.6-0.6C220.2,82.1,220,81.8,219.7,81.8z"/>
	</g>
</g>
</svg>
