<?xml version="1.0" encoding="utf-8"?>
<!-- Generator: Adobe Illustrator 25.0.0, SVG Export Plug-In . SVG Version: 6.00 Build 0)  -->
<svg version="1.1" xmlns="http://www.w3.org/2000/svg" xmlns:xlink="http://www.w3.org/1999/xlink" x="0px" y="0px"
	 viewBox="0 0 283.5 149.4" style="enable-background:new 0 0 283.5 149.4;" xml:space="preserve">
<style type="text/css">
	.st0{opacity:0.9;}
	.st1{fill:#FFFFFF;stroke:#010101;stroke-miterlimit:10;}
	.st2{fill:#010101;}
	.st3{fill:#231F20;}
	.st4{fill:none;stroke:#231F20;stroke-width:2.054;stroke-miterlimit:10;}
	.st5{fill:none;stroke:#231F20;stroke-width:1.711;stroke-miterlimit:10;}
	.st6{fill:none;stroke:#231F20;stroke-width:2.054;stroke-linejoin:bevel;stroke-miterlimit:10;}
	.st7{fill:none;stroke:#231F20;stroke-width:1.972;stroke-miterlimit:10;}
	.st8{fill:#FFFFFF;}
	.st9{fill:none;stroke:#231F20;stroke-width:1.369;stroke-linecap:round;stroke-linejoin:round;stroke-miterlimit:10;}
	.st10{fill:none;stroke:#231F20;stroke-width:1.369;stroke-linejoin:bevel;stroke-miterlimit:10;}
	.st11{fill:none;stroke:#231F20;stroke-width:0.685;stroke-miterlimit:10;}
	.st12{fill:none;stroke:#231F20;stroke-width:2.054;stroke-linecap:round;stroke-linejoin:round;stroke-miterlimit:10;}
	.st13{fill:none;stroke:#231F20;stroke-width:1.972;stroke-linecap:round;stroke-linejoin:round;stroke-miterlimit:10;}
	.st14{fill:none;stroke:#231F20;stroke-width:2.029;stroke-miterlimit:10;}
	.st15{fill:#E9282A;}
	.st16{fill:none;stroke:#231F20;stroke-width:1.691;stroke-linecap:round;stroke-linejoin:round;stroke-miterlimit:10;}
	.st17{fill:none;stroke:#231F20;stroke-width:2.031;stroke-miterlimit:10;}
	.st18{fill:none;stroke:#231F20;stroke-width:2.031;stroke-linejoin:round;stroke-miterlimit:10;}
	.st19{fill:none;stroke:#FFFFFF;stroke-width:7.454;stroke-linecap:round;stroke-linejoin:round;stroke-miterlimit:10;}
	.st20{fill:none;stroke:#020202;stroke-width:2.485;stroke-linecap:round;stroke-linejoin:round;stroke-miterlimit:10;}
	.st21{fill:none;stroke:#231F20;stroke-width:1.497;stroke-miterlimit:10;}
	.st22{fill:none;stroke:#231F20;stroke-width:2.054;stroke-miterlimit:10;stroke-dasharray:1.369,1.027;}
	.st23{fill:none;stroke:#231F20;stroke-width:1.369;stroke-miterlimit:10;}
	.st24{fill:#020202;}
	.st25{fill:none;}
	.st26{clip-path:url(#SVGID_2_);fill:#231F20;}
	.st27{clip-path:url(#SVGID_4_);fill:#010101;}
	.st28{clip-path:url(#SVGID_6_);fill:#010101;}
	.st29{clip-path:url(#SVGID_6_);fill:none;stroke:#010101;stroke-width:0.432;stroke-miterlimit:10;}
	.st30{fill-rule:evenodd;clip-rule:evenodd;fill:#010101;}
	.st31{clip-path:url(#SVGID_8_);fill:#010101;}
	.st32{clip-path:url(#SVGID_10_);fill:#010101;}
	.st33{clip-path:url(#SVGID_10_);fill:#97999B;}
	.st34{clip-path:url(#SVGID_10_);fill:none;stroke:#010101;stroke-width:0.367;}
	.st35{clip-path:url(#SVGID_12_);fill:none;stroke:#010101;stroke-width:0.367;}
	.st36{fill:#95979A;}
	.st37{fill:none;stroke:#010101;stroke-width:0.367;}
	.st38{fill:#231F20;stroke:#231F20;stroke-width:1.32;stroke-miterlimit:10;}
	.st39{fill:#231F20;stroke:#231F20;stroke-width:0.9;stroke-miterlimit:10;}
	.st40{fill-rule:evenodd;clip-rule:evenodd;fill:#231F20;}
	.st41{fill:none;stroke:#010101;stroke-width:0.349;}
	.st42{clip-path:url(#SVGID_14_);fill:#010101;}
	.st43{clip-path:url(#SVGID_16_);fill:#010101;}
	.st44{clip-path:url(#SVGID_18_);fill:#010101;}
	.st45{clip-path:url(#SVGID_20_);fill:#010101;}
	.st46{clip-path:url(#SVGID_22_);fill:#010101;}
	.st47{clip-path:url(#SVGID_24_);fill:#010101;}
	.st48{clip-path:url(#SVGID_26_);fill:#010101;}
	.st49{clip-path:url(#SVGID_28_);fill:none;stroke:#010101;stroke-width:0.274;}
	.st50{clip-path:url(#SVGID_30_);fill:#010101;}
	.st51{clip-path:url(#SVGID_32_);fill:#010101;}
	.st52{clip-path:url(#SVGID_34_);fill:#010101;}
	.st53{clip-path:url(#SVGID_36_);fill:#231F20;}
	.st54{clip-path:url(#SVGID_36_);fill:#FFFFFF;}
	.st55{clip-path:url(#SVGID_36_);fill:#415364;}
	.st56{clip-path:url(#SVGID_36_);fill-rule:evenodd;clip-rule:evenodd;fill:#FFFFFF;}
	.st57{fill-rule:evenodd;clip-rule:evenodd;fill:#FFFFFF;}
	.st58{fill:none;stroke:#231F20;stroke-width:1.6532;stroke-linecap:round;stroke-linejoin:round;stroke-miterlimit:10;}
	.st59{fill:none;stroke:#231F20;stroke-width:1.9928;stroke-miterlimit:10;}
</style>
<g id="Fondo" class="st0">
</g>
<g id="Layer_1">
	<g>
		<g>
			<defs>
				<rect id="SVGID_13_" x="15.1" y="38.3" width="253.2" height="72.7"/>
			</defs>
			<clipPath id="SVGID_2_">
				<use xlink:href="#SVGID_13_"  style="overflow:visible;"/>
			</clipPath>
			<path style="clip-path:url(#SVGID_2_);fill:#010101;" d="M33.4,79.4c-1.3-1.9-3.5-3.2-6.1-3.2c-4.1,0-7.3,3.3-7.3,7.3
				c0,4.1,3.3,7.3,7.3,7.3c2.5,0,4.7-1.3,6.1-3.2h53v-8.3L33.4,79.4L33.4,79.4z M27.3,87c-1.9,0-3.5-1.6-3.5-3.5
				c0-1.9,1.6-3.5,3.5-3.5c1.9,0,3.5,1.6,3.5,3.5C30.8,85.5,29.3,87,27.3,87"/>
			<rect x="91.4" y="79.4" style="clip-path:url(#SVGID_2_);fill:#010101;" width="53.8" height="8.3"/>
			<rect x="150.3" y="79.4" style="clip-path:url(#SVGID_2_);fill:#010101;" width="53.7" height="8.3"/>
			<path style="clip-path:url(#SVGID_2_);fill:#010101;" d="M257.9,79.4h-48.9v8.3h48.9c2.3,0,4.1-1.9,4.1-4.1
				C262.1,81.2,260.2,79.4,257.9,79.4"/>
			<path style="clip-path:url(#SVGID_2_);fill:#010101;" d="M33.4,79.4c-1.3-1.9-3.5-3.2-6.1-3.2c-4.1,0-7.3,3.3-7.3,7.3
				c0,4.1,3.3,7.3,7.3,7.3c2.5,0,4.7-1.3,6.1-3.2h53v-8.3L33.4,79.4L33.4,79.4z M27.3,87c-1.9,0-3.5-1.6-3.5-3.5
				c0-1.9,1.6-3.5,3.5-3.5c1.9,0,3.5,1.6,3.5,3.5C30.8,85.5,29.3,87,27.3,87"/>
		</g>
		<g>
			<defs>
				<path id="SVGID_15_" d="M23.8,83.5c0-1.9,1.6-3.5,3.5-3.5c1.9,0,3.5,1.6,3.5,3.5c0,1.9-1.6,3.5-3.5,3.5
					C25.4,87,23.8,85.5,23.8,83.5 M20,83.5c0,4.1,3.3,7.3,7.3,7.3c2.5,0,4.7-1.3,6.1-3.2h53v-8.3h-53v0c-1.3-1.9-3.5-3.2-6.1-3.2
					C23.3,76.2,20,79.5,20,83.5"/>
			</defs>
			<clipPath id="SVGID_4_">
				<use xlink:href="#SVGID_15_"  style="overflow:visible;"/>
			</clipPath>
			<rect x="23.8" y="80" class="st27" width="7" height="7"/>
			<rect x="20" y="76.2" class="st27" width="66.4" height="14.7"/>
		</g>
		<g>
			<defs>
				<rect id="SVGID_17_" x="15.1" y="38.3" width="253.2" height="72.7"/>
			</defs>
			<clipPath id="SVGID_6_">
				<use xlink:href="#SVGID_17_"  style="overflow:visible;"/>
			</clipPath>
			<rect x="91.4" y="79.4" class="st28" width="53.8" height="8.3"/>
			<rect x="91.4" y="79.4" class="st28" width="0.8" height="8.3"/>
			<rect x="92.2" y="79.4" class="st28" width="1.2" height="8.3"/>
			<rect x="93.4" y="79.4" class="st28" width="1.2" height="8.3"/>
			<rect x="94.6" y="79.4" class="st28" width="1.2" height="8.3"/>
			<rect x="95.8" y="79.4" class="st28" width="1.2" height="8.3"/>
			<rect x="97" y="79.4" class="st28" width="1.2" height="8.3"/>
			<rect x="98.2" y="79.4" class="st28" width="1.2" height="8.3"/>
			<rect x="99.4" y="79.4" class="st28" width="1.2" height="8.3"/>
			<rect x="100.6" y="79.4" class="st28" width="1.2" height="8.3"/>
			<rect x="101.8" y="79.4" class="st28" width="1.2" height="8.3"/>
			<rect x="103" y="79.4" class="st28" width="1.2" height="8.3"/>
			<rect x="104.2" y="79.4" class="st28" width="1.2" height="8.3"/>
			<rect x="105.4" y="79.4" class="st28" width="1.2" height="8.3"/>
			<rect x="106.6" y="79.4" class="st28" width="1.2" height="8.3"/>
			<rect x="107.8" y="79.4" class="st28" width="1.2" height="8.3"/>
			<rect x="109" y="79.4" class="st28" width="1.2" height="8.3"/>
			<rect x="110.2" y="79.4" class="st28" width="1.2" height="8.3"/>
			<rect x="111.4" y="79.4" class="st28" width="1.2" height="8.3"/>
			<rect x="112.6" y="79.4" class="st28" width="1.2" height="8.3"/>
			<rect x="113.8" y="79.4" class="st28" width="1.2" height="8.3"/>
			<rect x="115" y="79.4" class="st28" width="1.2" height="8.3"/>
			<rect x="116.2" y="79.4" class="st28" width="1.2" height="8.3"/>
			<rect x="117.4" y="79.4" class="st28" width="1.2" height="8.3"/>
			<rect x="118.6" y="79.4" class="st28" width="1.2" height="8.3"/>
			<rect x="119.8" y="79.4" class="st28" width="1.2" height="8.3"/>
			<rect x="121" y="79.4" class="st28" width="1.2" height="8.3"/>
			<rect x="122.2" y="79.4" class="st28" width="1.2" height="8.3"/>
			<rect x="123.4" y="79.4" class="st28" width="1.2" height="8.3"/>
			<rect x="124.6" y="79.4" class="st28" width="1.2" height="8.3"/>
			<rect x="125.8" y="79.4" class="st28" width="1.2" height="8.3"/>
			<rect x="127" y="79.4" class="st28" width="1.2" height="8.3"/>
			<rect x="128.2" y="79.4" class="st28" width="1.2" height="8.3"/>
			<rect x="129.4" y="79.4" class="st28" width="1.2" height="8.3"/>
			<rect x="130.6" y="79.4" class="st28" width="1.2" height="8.3"/>
			<rect x="131.8" y="79.4" class="st28" width="1.2" height="8.3"/>
			<rect x="133" y="79.4" class="st28" width="1.2" height="8.3"/>
			<rect x="134.2" y="79.4" class="st28" width="1.2" height="8.3"/>
			<rect x="135.4" y="79.4" class="st28" width="1.2" height="8.3"/>
			<rect x="136.6" y="79.4" class="st28" width="1.2" height="8.3"/>
			<rect x="137.8" y="79.4" class="st28" width="1.2" height="8.3"/>
			<rect x="139" y="79.4" class="st28" width="1.2" height="8.3"/>
			<rect x="140.2" y="79.4" class="st28" width="1.2" height="8.3"/>
			<rect x="141.4" y="79.4" class="st28" width="1.2" height="8.3"/>
			<rect x="142.6" y="79.4" class="st28" width="1.2" height="8.3"/>
			<rect x="143.8" y="79.4" class="st28" width="1.2" height="8.3"/>
			<rect x="145" y="79.4" class="st28" width="0.1" height="8.3"/>
			<rect x="150.3" y="79.4" class="st28" width="53.7" height="8.3"/>
			<rect x="150.3" y="79.4" class="st28" width="0.8" height="8.3"/>
			<rect x="151" y="79.4" class="st28" width="1.2" height="8.3"/>
			<rect x="152.2" y="79.4" class="st28" width="1.2" height="8.3"/>
			<rect x="153.4" y="79.4" class="st28" width="1.2" height="8.3"/>
			<rect x="154.6" y="79.4" class="st28" width="1.2" height="8.3"/>
			<rect x="155.9" y="79.4" class="st28" width="1.2" height="8.3"/>
			<rect x="157.1" y="79.4" class="st28" width="1.2" height="8.3"/>
			<rect x="158.3" y="79.4" class="st28" width="1.2" height="8.3"/>
			<rect x="159.5" y="79.4" class="st28" width="1.2" height="8.3"/>
			<rect x="160.7" y="79.4" class="st28" width="1.2" height="8.3"/>
			<rect x="161.9" y="79.4" class="st28" width="1.2" height="8.3"/>
			<rect x="163.1" y="79.4" class="st28" width="1.2" height="8.3"/>
			<rect x="164.3" y="79.4" class="st28" width="1.2" height="8.3"/>
			<rect x="165.5" y="79.4" class="st28" width="1.2" height="8.3"/>
			<rect x="166.7" y="79.4" class="st28" width="1.2" height="8.3"/>
			<rect x="167.9" y="79.4" class="st28" width="1.2" height="8.3"/>
			<rect x="169.1" y="79.4" class="st28" width="1.2" height="8.3"/>
			<rect x="170.3" y="79.4" class="st28" width="1.2" height="8.3"/>
			<rect x="171.5" y="79.4" class="st28" width="1.2" height="8.3"/>
			<rect x="172.7" y="79.4" class="st28" width="1.2" height="8.3"/>
			<rect x="173.9" y="79.4" class="st28" width="1.2" height="8.3"/>
			<rect x="175.1" y="79.4" class="st28" width="1.2" height="8.3"/>
			<rect x="176.3" y="79.4" class="st28" width="1.2" height="8.3"/>
			<rect x="177.5" y="79.4" class="st28" width="1.2" height="8.3"/>
			<rect x="178.7" y="79.4" class="st28" width="1.2" height="8.3"/>
			<rect x="179.9" y="79.4" class="st28" width="1.2" height="8.3"/>
			<rect x="181.1" y="79.4" class="st28" width="1.2" height="8.3"/>
			<rect x="182.3" y="79.4" class="st28" width="1.2" height="8.3"/>
			<rect x="183.5" y="79.4" class="st28" width="1.2" height="8.3"/>
			<rect x="184.7" y="79.4" class="st28" width="1.2" height="8.3"/>
			<rect x="185.9" y="79.4" class="st28" width="1.2" height="8.3"/>
			<rect x="187.1" y="79.4" class="st28" width="1.2" height="8.3"/>
			<rect x="188.3" y="79.4" class="st28" width="1.2" height="8.3"/>
			<rect x="189.5" y="79.4" class="st28" width="1.2" height="8.3"/>
			<rect x="190.7" y="79.4" class="st28" width="1.2" height="8.3"/>
			<rect x="191.9" y="79.4" class="st28" width="1.2" height="8.3"/>
			<rect x="193.1" y="79.4" class="st28" width="1.2" height="8.3"/>
			<rect x="194.3" y="79.4" class="st28" width="1.2" height="8.3"/>
			<rect x="195.5" y="79.4" class="st28" width="1.2" height="8.3"/>
			<rect x="196.7" y="79.4" class="st28" width="1.2" height="8.3"/>
			<rect x="197.9" y="79.4" class="st28" width="1.2" height="8.3"/>
			<rect x="199.1" y="79.4" class="st28" width="1.2" height="8.3"/>
			<rect x="200.3" y="79.4" class="st28" width="1.2" height="8.3"/>
			<rect x="201.5" y="79.4" class="st28" width="1.2" height="8.3"/>
			<rect x="202.7" y="79.4" class="st28" width="1.2" height="8.3"/>
			<rect x="203.9" y="79.4" class="st28" width="0.1" height="8.3"/>
			<path class="st28" d="M257.9,79.4h-48.9v8.3h48.9c2.3,0,4.1-1.9,4.1-4.1C262.1,81.2,260.2,79.4,257.9,79.4"/>
		</g>
		<g>
			<defs>
				<path id="SVGID_19_" d="M209.1,79.4v8.3h48.9c2.3,0,4.1-1.9,4.1-4.1c0-2.3-1.9-4.1-4.1-4.1H209.1z"/>
			</defs>
			<clipPath id="SVGID_8_">
				<use xlink:href="#SVGID_19_"  style="overflow:visible;"/>
			</clipPath>
			<rect x="209.1" y="79.4" class="st31" width="53" height="8.3"/>
		</g>
		<g>
			<defs>
				<rect id="SVGID_21_" x="20" y="43.6" width="248.4" height="47.3"/>
			</defs>
			<clipPath id="SVGID_10_">
				<use xlink:href="#SVGID_21_"  style="overflow:visible;"/>
			</clipPath>
			<polygon class="st32" points="181.6,70 181.6,44.1 183.5,44.1 183.5,68.2 199.8,68.2 199.8,70 			"/>
			<path class="st32" d="M263.8,46.1L263.8,46.1c0-1.3,1-2.3,2.3-2.3c1.3,0,2.3,1.1,2.3,2.3v0c0,1.2-1,2.3-2.3,2.3
				C264.7,48.4,263.7,47.3,263.8,46.1 M268.1,46.1L268.1,46.1c0-1.2-0.9-2.1-2-2.1c-1.2,0-2.1,0.9-2.1,2.1v0c0,1.1,0.9,2.1,2,2.1
				C267.2,48.2,268.1,47.3,268.1,46.1 M265.2,44.8l1,0c0.3,0,0.5,0.1,0.7,0.3c0.1,0.1,0.2,0.3,0.2,0.5v0c0,0.4-0.3,0.6-0.6,0.7
				l0.7,1l-0.4,0l-0.7-0.9l0,0l-0.6,0l0,0.9l-0.3,0L265.2,44.8z M266.2,46c0.3,0,0.6-0.1,0.6-0.4l0,0c0-0.2-0.2-0.4-0.5-0.4l-0.7,0
				l0,0.8L266.2,46z"/>
		</g>
		<g>
			<defs>
				<rect id="SVGID_23_" x="15.1" y="38.3" width="253.2" height="72.7"/>
			</defs>
			<clipPath id="SVGID_12_">
				<use xlink:href="#SVGID_23_"  style="overflow:visible;"/>
			</clipPath>
			<rect x="206.3" y="44.1" style="clip-path:url(#SVGID_12_);fill:#010101;" width="1.9" height="25.9"/>
			<polygon style="clip-path:url(#SVGID_12_);fill:#010101;" points="226.8,45.9 226.8,70 224.9,70 224.9,45.9 215,45.9 215,44.1 
				236.7,44.1 236.7,45.9 			"/>
			<polygon style="clip-path:url(#SVGID_12_);fill:#010101;" points="261.7,68.2 244.6,68.2 244.6,57.4 261.3,57.4 261.3,55.6 
				244.6,55.6 244.6,45.9 261.7,45.9 261.7,44.1 242.7,44.1 242.7,70 261.7,70 			"/>
			<polygon style="clip-path:url(#SVGID_12_);fill:#010101;" points="28.2,49.3 20.3,49.3 20.3,44 41.7,44 41.7,49.3 33.9,49.3 
				33.9,69.9 28.2,69.9 			"/>
			<polygon style="clip-path:url(#SVGID_12_);fill:#010101;" points="45,44 50.7,44 50.7,54.2 61.1,54.2 61.1,44 66.8,44 66.8,69.9 
				61.1,69.9 61.1,59.5 50.7,59.5 50.7,69.9 45,69.9 			"/>
			<path style="clip-path:url(#SVGID_12_);fill:#010101;" d="M94.6,44h11.8c3.3,0,5.8,0.9,7.5,2.6c1.4,1.4,2.2,3.5,2.2,5.9v0.1
				c0,4.2-2.3,6.8-5.5,8l6.3,9.2h-6.6l-5.5-8.3h-0.1h-4.4v8.3h-5.7V44z M106.1,56.6c2.8,0,4.4-1.5,4.4-3.7v-0.1
				c0-2.4-1.7-3.7-4.5-3.7h-5.6v7.4H106.1z"/>
			<polygon style="clip-path:url(#SVGID_12_);fill:#010101;" points="120.2,44 126.4,44 133.2,54.9 139.9,44 146.1,44 146.1,69.9 
				140.4,69.9 140.4,53 133.2,64 133,64 125.8,53.1 125.8,69.9 120.2,69.9 			"/>
			<path style="clip-path:url(#SVGID_12_);fill:#010101;" d="M150,57L150,57c0-7.4,5.8-13.4,13.8-13.4c8,0,13.7,5.9,13.7,13.3v0.1
				c0,7.3-5.8,13.4-13.8,13.4C155.7,70.3,150,64.4,150,57 M171.5,57L171.5,57c0-4.5-3.2-8.2-7.8-8.2c-4.6,0-7.8,3.6-7.8,8v0.1
				c0,4.4,3.2,8.1,7.8,8.1C168.4,65.1,171.5,61.4,171.5,57"/>
			<polygon style="clip-path:url(#SVGID_12_);fill:#010101;" points="89.9,64.8 77.6,64.8 77.6,59.4 88.7,59.4 88.7,54.3 77.6,54.3 
				77.6,49.1 89.9,49.1 89.9,44 71.9,44 71.9,69.9 89.9,69.9 			"/>
		</g>
	</g>
</g>
</svg>
