<?xml version="1.0" encoding="utf-8"?>
<!-- Generator: Adobe Illustrator 25.0.0, SVG Export Plug-In . SVG Version: 6.00 Build 0)  -->
<svg version="1.1" xmlns="http://www.w3.org/2000/svg" xmlns:xlink="http://www.w3.org/1999/xlink" x="0px" y="0px"
	 viewBox="0 0 283.5 149.4" style="enable-background:new 0 0 283.5 149.4;" xml:space="preserve">
<style type="text/css">
	.st0{opacity:0.9;}
	.st1{fill:#FFFFFF;stroke:#010101;stroke-miterlimit:10;}
	.st2{fill:#010101;}
	.st3{fill:#231F20;}
	.st4{fill:none;stroke:#231F20;stroke-width:2.054;stroke-miterlimit:10;}
	.st5{fill:none;stroke:#231F20;stroke-width:1.711;stroke-miterlimit:10;}
	.st6{fill:none;stroke:#231F20;stroke-width:2.054;stroke-linejoin:bevel;stroke-miterlimit:10;}
	.st7{fill:none;stroke:#231F20;stroke-width:1.972;stroke-miterlimit:10;}
	.st8{fill:#FFFFFF;}
	.st9{fill:none;stroke:#231F20;stroke-width:1.369;stroke-linecap:round;stroke-linejoin:round;stroke-miterlimit:10;}
	.st10{fill:none;stroke:#231F20;stroke-width:1.369;stroke-linejoin:bevel;stroke-miterlimit:10;}
	.st11{fill:none;stroke:#231F20;stroke-width:0.685;stroke-miterlimit:10;}
	.st12{fill:none;stroke:#231F20;stroke-width:2.054;stroke-linecap:round;stroke-linejoin:round;stroke-miterlimit:10;}
	.st13{fill:none;stroke:#231F20;stroke-width:1.972;stroke-linecap:round;stroke-linejoin:round;stroke-miterlimit:10;}
	.st14{fill:none;stroke:#231F20;stroke-width:2.029;stroke-miterlimit:10;}
	.st15{fill:#E9282A;}
	.st16{fill:none;stroke:#231F20;stroke-width:1.691;stroke-linecap:round;stroke-linejoin:round;stroke-miterlimit:10;}
	.st17{fill:none;stroke:#231F20;stroke-width:2.031;stroke-miterlimit:10;}
	.st18{fill:none;stroke:#231F20;stroke-width:2.031;stroke-linejoin:round;stroke-miterlimit:10;}
	.st19{fill:none;stroke:#FFFFFF;stroke-width:7.454;stroke-linecap:round;stroke-linejoin:round;stroke-miterlimit:10;}
	.st20{fill:none;stroke:#020202;stroke-width:2.485;stroke-linecap:round;stroke-linejoin:round;stroke-miterlimit:10;}
	.st21{fill:none;stroke:#231F20;stroke-width:1.497;stroke-miterlimit:10;}
	.st22{fill:none;stroke:#231F20;stroke-width:2.054;stroke-miterlimit:10;stroke-dasharray:1.369,1.027;}
	.st23{fill:none;stroke:#231F20;stroke-width:1.369;stroke-miterlimit:10;}
	.st24{fill:#020202;}
	.st25{fill:none;}
	.st26{clip-path:url(#SVGID_2_);fill:#231F20;}
	.st27{clip-path:url(#SVGID_4_);fill:#010101;}
	.st28{clip-path:url(#SVGID_6_);fill:#010101;}
	.st29{clip-path:url(#SVGID_6_);fill:none;stroke:#010101;stroke-width:0.432;stroke-miterlimit:10;}
	.st30{fill-rule:evenodd;clip-rule:evenodd;fill:#010101;}
	.st31{clip-path:url(#SVGID_8_);fill:#010101;}
	.st32{clip-path:url(#SVGID_10_);fill:#010101;}
	.st33{clip-path:url(#SVGID_10_);fill:#97999B;}
	.st34{clip-path:url(#SVGID_10_);fill:none;stroke:#010101;stroke-width:0.367;}
	.st35{clip-path:url(#SVGID_12_);fill:none;stroke:#010101;stroke-width:0.367;}
	.st36{fill:#95979A;}
	.st37{fill:none;stroke:#010101;stroke-width:0.367;}
	.st38{fill:#231F20;stroke:#231F20;stroke-width:1.32;stroke-miterlimit:10;}
	.st39{fill:#231F20;stroke:#231F20;stroke-width:0.9;stroke-miterlimit:10;}
	.st40{fill-rule:evenodd;clip-rule:evenodd;fill:#231F20;}
	.st41{fill:none;stroke:#010101;stroke-width:0.349;}
	.st42{clip-path:url(#SVGID_14_);fill:#010101;}
	.st43{clip-path:url(#SVGID_16_);fill:#010101;}
	.st44{clip-path:url(#SVGID_18_);fill:#010101;}
	.st45{clip-path:url(#SVGID_20_);fill:#010101;}
	.st46{clip-path:url(#SVGID_22_);fill:#010101;}
	.st47{clip-path:url(#SVGID_24_);fill:#010101;}
	.st48{clip-path:url(#SVGID_26_);fill:#010101;}
	.st49{clip-path:url(#SVGID_28_);fill:none;stroke:#010101;stroke-width:0.274;}
	.st50{clip-path:url(#SVGID_30_);fill:#010101;}
	.st51{clip-path:url(#SVGID_32_);fill:#010101;}
	.st52{clip-path:url(#SVGID_34_);fill:#010101;}
	.st53{clip-path:url(#SVGID_36_);fill:#231F20;}
	.st54{clip-path:url(#SVGID_36_);fill:#FFFFFF;}
	.st55{clip-path:url(#SVGID_36_);fill:#415364;}
	.st56{clip-path:url(#SVGID_36_);fill-rule:evenodd;clip-rule:evenodd;fill:#FFFFFF;}
	.st57{fill-rule:evenodd;clip-rule:evenodd;fill:#FFFFFF;}
	.st58{fill:none;stroke:#231F20;stroke-width:1.6532;stroke-linecap:round;stroke-linejoin:round;stroke-miterlimit:10;}
	.st59{fill:none;stroke:#231F20;stroke-width:1.9928;stroke-miterlimit:10;}
</style>
<g id="Fondo" class="st0">
</g>
<g id="Layer_1">
	<g>
		<g>
			<g>
				<path class="st30" d="M236.8,51.7c0.4,0.8,0.2,2.4,0.8,3c1.1-0.3,2.1,0,3.3,0.1c-0.3,0.2-0.6,0.4-1,0.6
					c-0.8-0.7-1.9-0.3-2.5,0.4c0.2,1.7-0.2,3.3,0,5c0,0.3,0.2,0.5,0.3,0.7c0.4,1.8-0.2,4,0,6.1c0.1,0.9,0.4,1.8,0.5,2.6
					c0.2,1.9,0,3.8-0.1,5.6c0.1,0.2,0.5,0.4,0.5,0.7c0,0.3-0.4,0.5-0.4,0.8c-0.1,0.4,0.2,1.1,0.2,1.8c0.1,1.9-0.1,4.4,0.1,6.8
					c0.1,2.3,0,4.7,0.1,6.8c0.1,1.2-0.2,2.9,0.3,3.5c0.4,0.5,1.2,0.7,1.5,1c-0.8,0.1-1.6,0.1-1.7,0.7c-0.1,0.3,0.2,0.4,0.3,0.7
					c0.1,0.4-0.2,0.6-0.1,1c-1.1-0.3,0.3-2.5-1-2.6c-0.4,0.1-0.4,0.6-0.5,1.1c-0.2-0.3-0.3-0.7-0.7-0.9c-1.3-0.1-2.1,0.4-2.4,1.4
					c-0.2-0.3-0.4-0.7-0.8-0.8c-1.6-0.1-2.7,0.7-3.3,1.5c0-0.9-0.3-1.4-1.2-1.3c0-0.7,0.9-0.5,1.1-0.3c0.3-0.6-0.6-0.7-1-0.9
					c0.2-0.3,0.6-0.3,0.9-0.4c0.3-0.7-0.4-1.4-0.2-2.1c-0.5-0.2-0.9,0.2-1.2,0.4c-1,0.7-2.2,1.4-3,2.3c0.1,0.2,0.3,0.4,0.3,0.7
					c-0.5-0.1-0.8-0.3-1.3-0.5c-0.1,0.1,0.1,0.4,0.2,0.6c-0.5-0.2-0.7-0.6-1.1-0.8c-0.7,0.7-1.8,0.9-2.7,1.5
					c-0.6-0.4-1.7-1.3-2.1-0.2c-0.6,0-1.3-0.7-1.8-0.6c-0.4,0-0.4,0.4-0.8,0.6c0-1-1-1.4-1.6-0.6c-0.5-0.5-1-0.8-1.6-1.1
					c-0.3,0.3-0.4,0.6-0.5,1c-0.8-0.3-0.3-1.2-0.4-1.9c-0.1-0.5-0.6-1.2-0.9-1.7c-0.6-1.1-1.3-2-1.9-3.1c-0.3-0.6-0.4-1.1-0.6-1.9
					c-0.2-0.8-0.7-1.6-0.9-2.4c-0.3-0.9-0.7-1.9-0.7-3c0-0.8,0.5-1.4,0.6-2.3c0.1-1.5-0.9-2.9-0.5-4.8c0.2,0,0.3,0,0.3-0.2
					c0.2,0.2,0.4,0.3,0.7,0.4c0.5-0.8,0-1.8,0.2-2.6c0.1-0.9,1.5-1.2,1.2-2.2c0.6-0.3,1.1-1.2,0.8-2.2c0.2,0,0.3,0,0.5,0
					c1.3-1.5,2.4-3.1,4.2-4c0.2-0.3,0.3-0.7,0.4-1.1c0.3,0.1,0.4,0.4,0.8,0.5c0.3,0,0.2-0.4,0.4-0.5c0.6,0,0.7,0.5,1.4,0.5
					c0.3-0.4,0.1-1.2,0.2-1.8c0.7,0.1,0.5,1.1,0.9,1.5c0.6,0,0.6-0.5,1-0.6c0,0.3,0,0.5,0,0.8c0.6,0.4,0.9-0.2,1.4-0.4
					c0.9,0.7,2.8,0.5,3.4,1.5c2.1-0.4,3.7,1.5,4.5,2.9c0.2,0.1,0.4-0.3,0.5-0.4c-0.7-1.7-0.4-4.2-0.5-6.4c0-0.9-0.2-2-0.3-3.1
					c-0.1-1.1,0-2.4-0.2-3.1c-0.2-0.5-0.9-0.6-1.4-0.8c1.2-0.1,0.9-1.5,1-2.6c0.6,0.3,0.8,0.9,1.1,1.5c0.3,0.2,0.6-0.2,0.8-0.2
					c0,0.2,0.1,0.4,0.1,0.7c0.8,0.4,3.3,0.8,3.7-0.3c0.3,0.1,0.4,0.4,0.7,0.6c0.4-0.5,0.7,0,1.2-0.1
					C237.2,54.6,236.4,52.7,236.8,51.7z M230.9,55.9c0.1,0.1,0.3,0.1,0.5,0.1C231.5,55.3,231,55.6,230.9,55.9z M234.9,57.2
					c0.2,0,0.3,0.1,0.6,0.1c0-0.5,0-0.9,0-1.4c-0.1-0.1-0.2-0.2-0.5-0.2C234.9,56.2,234.9,56.7,234.9,57.2z M231.9,57.5
					c0.2-0.3,0-0.7,0-1.1c-0.1,0-0.1,0-0.2,0C231.8,56.8,231.7,57.3,231.9,57.5z M234.2,58.2c0-0.2-0.1-0.4-0.1-0.6
					c-0.1,0-0.1,0-0.2,0C234,57.8,233.9,58.2,234.2,58.2z M220.8,66.3c-0.4,0.2-0.5,0.8,0.1,0.8C220.8,66.9,221,66.4,220.8,66.3z
					 M223.7,67.7c0.1-0.2,0-0.9-0.2-1C223.6,67.1,223.5,67.5,223.7,67.7z M216.7,68c0.1-0.3,0-0.8,0.1-1.2c-0.1,0-0.1,0-0.2,0
					C216.7,67.2,216.5,67.8,216.7,68z M219.4,69.7c0-0.7-0.1-1.3-0.1-2c-0.1,0-0.1,0-0.2,0C219.3,68.4,219.2,69.3,219.4,69.7z
					 M232.5,68.8c0.1-0.1,0-0.4,0.1-0.5c-0.1,0-0.1,0-0.2,0C232.5,68.4,232.3,68.8,232.5,68.8z M212.1,71.2c0.4-0.2,0.7-0.6,1.1-0.8
					c0-0.3,0.1-0.8-0.2-0.9C212.7,70,212.3,70.5,212.1,71.2z M225.1,71.6c0.1-0.5,0-1.3,0.1-1.9c-0.1,0-0.1,0-0.2,0
					C225.1,70.3,224.9,71.2,225.1,71.6z M225.8,71.3c0.1,0.3,0.3,0.7,0.2,1c0.2,0,0.3-0.1,0.5-0.1c0.1-0.6-0.1-1-0.4-1.3
					C226,71.1,225.8,71,225.8,71.3z M211.5,71.9c0.2-0.1,0.6-0.5,0.4-0.6C211.8,71.5,211.3,71.6,211.5,71.9z M211.1,72.8
					c0.2-0.1,0-0.2,0-0.4c-0.1,0-0.2,0-0.2,0.1C211,72.5,210.9,72.8,211.1,72.8z M217.8,73.6c0.5,0,0.7-0.6,0.5-1.2
					C218.2,72.8,218,73.2,217.8,73.6z M220.4,73.8c-0.2,0-0.3-0.2-0.6-0.1c-0.6,0.1-1.6,1.3-2,1.9c-0.3,0.4-0.4,1.1-0.5,1.7
					c-0.1,0.6-0.4,1.2-0.5,1.8c-0.3,1.8,0.2,3.8,0,5.6c0.9,1.6,0.6,4.3,2.7,4.6c0.2-0.2,0.3-0.5,0.6-0.6c0.4,0.4,0.1,1,0.4,1.4
					c0.7,0.8,1.7-0.2,2.5-0.3c0.4-0.2,0.5-0.7,0.9-0.9c0.4,0.2,0.1,0.9,0.2,1.4c0.2,0,0.4-0.6,0.6-0.8c0.3,0.2,0.7,0.3,1.2,0.2
					c1.3-0.4,2.3-1.9,3-3c0.3-0.5,0.8-0.9,0.8-1.2c0.1-0.5-0.1-1,0-1.5c0-0.2,0.3-0.4,0.3-0.6c0.2-0.8-0.1-1.8-0.2-2.6
					c-0.1-0.8-0.1-1.8-0.4-2.4c-0.2-0.6-0.7-1.1-1-1.6c-0.4-0.6-0.7-1.2-1-1.7c-1.5-0.7-2.6-1.7-4.3-2.1c-0.6,0.3-0.5,1.7-1.4,1.5
					c-0.4-0.1-0.4-0.7-0.3-1.1C220.9,73.5,220.8,73.7,220.4,73.8z M227,74.2c-0.3-0.3-0.5-0.6-0.9-0.8
					C226.3,73.7,226.6,74.1,227,74.2z M210.3,75.7c0-0.8-0.1-1.5,0-2.3C209.1,73.7,210.2,75.1,210.3,75.7z M214.1,74.8
					c0-0.1,0.2-0.5,0-0.6C214.1,74.4,213.8,74.8,214.1,74.8z M228.8,75.3c0.1,0.4,0.3,0.7,0.5,0.9c0-0.3,0-0.6,0-0.8
					C229.2,75.2,229.1,75.3,228.8,75.3z M213.7,75.6c0.4,0.9,0.1,2.5,0.3,3.6c0.2-1.2,0.8-2.9,0.1-3.9
					C214,75.6,213.9,75.7,213.7,75.6z M215.5,77.4c-0.1,0.7,0,1.6,0,2.5c0,1.2-0.1,2.4,0.2,3c0-1.2,0.1-2.2,0.3-3.4
					c0.1-1.1,0.6-3,0.1-3.7C215.9,76.3,215.6,76.7,215.5,77.4z M211,81.2c0.2,0.6,0.2,1.3,0.3,2c0.3-1.3,0.2-3.1,0-4.2
					C211.4,79.9,211.2,80.6,211,81.2z M231,81.8c0-0.7-0.1-1.2-0.3-1.8C230.3,80.7,230.6,81.5,231,81.8z M208.7,81.9
					c0-0.2,0-0.3,0.3-0.3c0.6,1.4,0.3,3.7,0.3,5.5c0,0.6-0.1,1.5,0.5,1.8c-0.2-2.9,0.7-7-1.1-8.3C208.7,81,208.6,81.6,208.7,81.9z
					 M213.2,84.3c0.1-0.1,0-0.5,0.1-0.7c-0.1,0-0.1,0-0.2,0C213.1,83.9,212.9,84.3,213.2,84.3z M212.2,87.3c0.1-1.1,0.4-2.4-0.1-3.4
					C211.9,84.9,211.7,86.5,212.2,87.3z M215.5,88.4c0.1,0.1,0.4,0.6,0.5,0.4c0.1-1.7,0.2-3.2-0.3-4.5
					C215.3,85.4,215.6,87.1,215.5,88.4z M233.3,85.8c0,1.7-0.1,3.7,0.2,5.2c0.1-1.7,0.2-3.8-0.1-5.4c0,0-0.1,0-0.1,0
					C233.3,85.7,233.3,85.8,233.3,85.8z M212.9,86c0.1,1.8-0.1,3.8,0.1,5.3c0.2-1.6,0.2-3.9,0-5.5c0,0-0.1,0-0.1,0
					C212.9,85.9,212.9,86,212.9,86z M211.2,89.8c0.1-0.3,0-0.7,0.1-1.1c-0.1,0-0.1,0-0.2,0C211.1,89,210.9,89.6,211.2,89.8z
					 M227.7,93.2c0.6-0.6,0.3-2.2,0.4-3.3C227.4,90.2,227.3,92.3,227.7,93.2z M225.8,90.7c0.2,0,0.4,0.1,0.5-0.1
					c-0.1-0.1,0-0.3-0.2-0.4C226.1,90.4,225.7,90.5,225.8,90.7z M225.9,92.6c0.1-0.4,0.5-1.1,0-1.4
					C225.6,91.4,225.5,92.5,225.9,92.6z M219.4,93c0.1-0.4,0.2-1.3-0.1-1.6C219.3,91.8,219.2,92.7,219.4,93z M220.8,92
					c-0.3,0.6-0.3,1.9,0.2,2.3c0.1-0.7,0.4-1.2,0.5-2C221.3,92.2,221.1,92,220.8,92z M218,92.6c0.1,0,0-0.2,0.1-0.3
					c-0.1,0-0.1,0-0.2,0C217.9,92.4,217.8,92.7,218,92.6z M213.5,94.3c0-0.5,0-0.9,0-1.4C212.1,92.3,213.2,94,213.5,94.3z
					 M222.8,93.4c0.2,0,0.2-0.3,0.2-0.4C222.8,93,222.9,93.3,222.8,93.4z M217.6,94.6c0.2,0,0.4,0,0.5-0.2c-0.2-0.1-0.2-0.5-0.3-0.7
					C217.7,94.1,217.7,94.4,217.6,94.6z M219.1,94.3c0.2,0,0.3-0.5,0.2-0.5C219.2,94,219.1,94.1,219.1,94.3z M225.9,94.3
					c0.2,0,0.2-0.1,0.2-0.3C226,94.1,225.9,94.2,225.9,94.3z M233.8,94.9c-0.1-0.2,0.1-0.8-0.3-0.7
					C233.7,94.4,233.4,94.9,233.8,94.9z M235.1,96.2c0.1-0.4-0.2-0.8-0.4-1.2c-0.1,0-0.1,0-0.2,0C234.8,95.3,234.8,96.1,235.1,96.2z
					 M230.8,96.1c0.1,0.1,0.3,0.1,0.6,0.1c0-0.3,0-0.7-0.2-0.9C231,95.5,230.7,95.6,230.8,96.1z M232.2,96.3
					c0.1-0.1,0.1-0.4,0.1-0.6c-0.1,0-0.1,0-0.2,0C232.2,95.9,231.9,96.2,232.2,96.3z M222,97c0.3,0,0.2-0.3,0.4-0.5
					c-0.1,0-0.1-0.1-0.2-0.1C222.1,96.6,222,96.7,222,97z M221.2,97.2c0-0.2-0.2-0.2-0.4-0.3C220.8,97.2,221,97.2,221.2,97.2z"/>
			</g>
			<g>
				<path class="st30" d="M182.3,61.2c0.4,0.2,0.2,0.9,0.1,1.2c0.7,0.5,1.1-0.8,1.9-0.5c0.2,0.3,0.3,0.6,0.5,0.9
					c0.6-0.4,1.2-0.8,2-0.8c1.3,0.1,2.8,1.5,4.1,0.5c0.5,0.7,1.8,0.7,2.9,0.8c0.3-0.3,0.5-0.8,0.9-1c0.4,0.8,0.4,2,1.1,2.5
					c0.3-0.1,0.5-0.3,0.7-0.6c0.3,0.3,0.6,0.7,0.9,1c0.4-0.2,0.7-0.7,1-0.9c0.3,0.1,0.5,0.3,0.7,0.5c0.3-0.1,0.6-0.2,0.9-0.3
					c-0.2,0.5-0.4,1-0.7,1.4c0.5,0.9,1.2,1.4,1.8,2.2c-0.4,0.2-0.6-0.4-0.8-0.3c-0.3,0.2,0.4,1.4,0.6,1.9c0.4,0.8,0.6,1.4,0.8,1.9
					c-0.2,0.3-0.5,0.4-0.7,0.7c0,2.1,0,3.9,0,6c0,0.7-0.1,1.4,0,2c0.1,0.3,0.4,0.5,0.5,0.8c0.3,1,0,2.5,0.1,3.7
					c-0.2-0.1-0.3-0.7-0.4-1.1c-0.2-0.6-0.6-1.3-1-0.6c0.5,0.8,0.1,2.6,0.3,3.9c0.1,1.1,0.6,1.8,0.7,2.7c-0.7,0.3-0.5,1.8-0.3,2.6
					c0.3,1.2,0.8,2.1,1.5,3c0.5,0.6,1.2,0.8,1.1,2c-0.1,0.2-0.4-0.3-0.6-0.4c-0.5,0.1-1.4,0.5-1.8,0.1c-0.5,0.4-0.2,1.6-0.5,2.2
					c-0.2-0.8,0.2-2.3-0.6-2.3c-0.8,0-0.6,1.8-1.4,1.9c-0.1-0.5-0.2-1.1-0.2-1.7c-0.9,0.3-2.3-0.3-2.8,0.5c-0.3-0.3-0.8-0.4-1.5-0.4
					c-0.3,0.8-0.8,1.3-1.4,1.7c-1.3-0.7-0.1-2.3,0-3.5c-0.7-1.1-1.5,0.3-1.1,1.4c-0.3,0-1-1.1-1.3-1.1c-0.4,0-0.8,1-1.2,1.2
					c-0.4,0.2-1.1,0.4-1.7,0.5c-1.6,0.4-3.8,1-5.5,1.2c-0.4-0.3-0.8-0.7-1.3-1c-0.3,0.1-0.2,0.5-0.5,0.6c-1.4-0.3-2.1-1.3-3.1-2
					c-0.3,0.1-0.2,0.5-0.2,0.9c-0.3-0.1-0.5-0.2-0.6-0.4c0.5-1.3-0.8-1.5-1.5-2.1c-1-1-1.3-2.4-1.8-4c-0.9,0.6-0.2,2-0.6,2.9
					c-1.2-4,0-8.6,0.9-12.1c1.4,0.6,1.9-0.7,2.1-1.8c1.6,0.1,2.9-0.7,4.2-1.2c1.1-0.5,2.2-1.1,3.2-1.7c0.1-0.3,0.1-0.6-0.1-0.9
					c0.4,0.1,0.6,0.3,0.8,0.5c0.3-0.2,0.4-0.6,0.5-0.9c1.1,0.1,1.6,0.7,1.9,1.5c0.7-0.2,0.7-1.7,1.5-1.8c0.6-0.1,0.8,0.7,1.5,0.3
					c0-0.2,0-0.5,0-0.7c0.7,0.4,1.7,0.7,2.3-0.1c-0.1-0.2-0.3-0.3-0.3-0.6c0.4,0.1,0.7,0.3,1.1,0.5c-0.2-0.8,0.5-1.2,0.5-1.9
					c0-0.5-0.6-1.1-0.9-1.6c-0.4-0.5-0.7-1-1-1.5c-0.3,0-0.4,0.3-0.5,0.4c-0.5-0.3-0.9-0.7-1.4-1c-3.1-0.7-5.3,0.6-6,2.9
					c-0.1,0-0.5-0.2-0.7-0.1c-0.4,0.1-1,1.4-0.8,1.7c0.3,0,0.4-0.3,0.7-0.4c0.6-0.1,1.1,0.4,1.4,0.8c-1.9-0.1-3.3,0.3-3.7,1.8
					c-0.2-0.4,0.1-0.8,0.1-1.2c-0.2-0.3-0.5-0.1-0.8-0.1c-2.2,0.1-4.8,0.5-6.5,1.3c0.2-0.8-0.3-1.3-0.8-1.7c1.4-1,1.8-3.4,2.4-5.4
					c0.5-1.8,1.4-3.2,2-4.6c0.2,0,0.4,0,0.6,0c-0.2,0.4-0.5,0.8-0.7,1.2c1.3,0.7,2.7-0.4,3.7-1.1c0.9-0.5,1.8-1.1,2.4-1.6
					C181.9,62.1,182.1,61.7,182.3,61.2z M187.2,64.1c0-0.2,0.1-0.2,0.1-0.3C187.1,63.7,187,64,187.2,64.1z M191.3,64.4
					c0.1,0,0.1-0.4-0.1-0.3C191.1,64.1,191.1,64.5,191.3,64.4z M179.7,64.7c0.3-0.2,0.7-0.3,1-0.5C180.4,64.1,179.7,64.5,179.7,64.7
					z M189.4,65.1c0.1-0.1,0-0.3,0.1-0.5c-0.1,0-0.1,0-0.2,0C189.4,64.7,189.2,65.1,189.4,65.1z M191.3,66.5
					c0.1-0.3,0.2-1.1-0.1-1.3c0,0-0.1,0-0.1,0C191.2,65.6,190.9,66.3,191.3,66.5z M198.4,65.8c0.4,0.1,0.2-0.4,0.3-0.6
					c-0.1,0-0.1,0-0.2,0C198.5,65.4,198.5,65.6,198.4,65.8z M185.1,68.1c0.2,0,0.3,0.2,0.5,0.3c0.1-0.9,0.3-2,0.3-2.8
					C185.4,66.2,185.6,67.4,185.1,68.1z M182.7,66.1c0.1,0,0.1-0.4-0.1-0.3C182.5,65.8,182.5,66.2,182.7,66.1z M179.6,67.1
					c0-0.4,0.1-1-0.1-1.3C179.2,66.2,179.2,66.9,179.6,67.1z M189,67.1c0.1-0.1,0-0.4,0.1-0.6c-0.1,0-0.1,0-0.2,0
					C188.9,66.7,188.8,67.1,189,67.1z M195.8,70.1c0.1-0.9,0.6-1.3,1.1-1.8c0-0.2,0-0.4,0-0.6c-0.2,0-0.3,0.1-0.5,0.1
					c-0.3-0.2-0.1-0.8-0.3-1.1C196.1,67.9,195.4,68.9,195.8,70.1z M199.1,69c0.1-1.1-0.3-1.7-1-1.9C198.4,67.6,198.4,68.6,199.1,69z
					 M176.3,71.3c0.4-1,0.7-2.1,0.6-3.6c-0.2,0-0.4,0-0.6,0C176.8,68.8,176,70.2,176.3,71.3z M183.2,68.2c0.1-0.1,0.1-0.4,0.2-0.6
					c-0.1,0-0.1,0-0.2,0C183.1,67.8,182.9,68.2,183.2,68.2z M181.8,70.4c0,0.3-0.3,0.5-0.2,0.6c0.2,0,0.2-0.1,0.4-0.1
					c0-0.8,0.2-1.5,0.5-2c-0.3-0.2-0.5-0.5-0.7-0.7C181.6,68.9,181.9,69.8,181.8,70.4z M178.9,69c0.4,0.1,0.2-0.5,0.3-0.6
					c-0.1,0-0.1,0-0.2,0C179,68.6,178.9,68.8,178.9,69z M178.2,70c0.3,0,0.2-0.3,0.3-0.6c-0.1,0-0.1,0-0.2,0
					C178.3,69.6,178.2,69.7,178.2,70z M176.4,73.9c1,0.5,3.9,0.5,3.4-1c-0.6,0.1-0.4,1-1,1c-0.6,0-0.5-0.8-0.8-1.4
					C178.1,73.5,177.5,74,176.4,73.9z M196.6,73.9c0.1-0.2,0-0.7,0.1-1c-0.1,0-0.1,0-0.2,0C196.6,73.2,196.4,73.8,196.6,73.9z
					 M193.1,76.9c0.1-0.5,0.1-1,0.2-1.6c-0.1,0-0.1,0-0.2,0C193.1,75.8,192.8,76.5,193.1,76.9z M190.5,76.9c0.4,0,0.2-0.5,0.3-0.7
					c-0.1,0-0.1,0-0.2,0C190.6,76.5,190.5,76.7,190.5,76.9z M187.1,81c0.2,0.1,0.3,0.3,0.6,0.3c0-0.6,0-1.2,0-1.9
					c-0.2,0-0.4,0-0.6,0C187.3,79.8,187.3,80.7,187.1,81z M179.8,80.9c0-0.5,0.1-1.3-0.3-1.5C179.5,80.1,179.6,80.6,179.8,80.9z
					 M196.3,81.5c0.1-0.5,0-1.3,0.1-1.9c-0.1,0-0.1,0-0.2,0C196.2,80.2,196,81,196.3,81.5z M177.5,82.1c-0.2-0.3-0.1-1-0.2-1.2
					C176.6,81.1,176.9,82.1,177.5,82.1z M192.3,85.1c-0.1-0.7-0.6-1.1-0.7-1.7c-0.1-0.7,0.6-1.7-0.2-2.2c-0.9,0.2-1.8,0.4-2.6,0.7
					c0.2,0.8,0.4,2.3-0.8,1.9c-0.3-0.3-0.1-1.2,0-1.5c-0.7-0.3-1.5,0.2-2.3,0.4c-1.2,0.4-2.2,0.9-2.8,1.8c-0.3-0.2-0.5-0.6-0.8-0.6
					c-0.5,0.9-1.4,1.9-1.6,3.1c-0.1,0.9,0.6,2.6,1,3.1c0.5,0.6,1.3,0.6,2.1,0.9c-0.2-0.8,0.3-1.4,0.8-1.6c0.5,0.3,0.5,1,0.4,1.7
					c0.2,0,0.3,0,0.5,0c-0.4-0.8-0.1-1.9,0.8-2c0.5,0.5,0.8,1.3,1.1,2c1.6-0.6,3.4-0.9,3.4-3c0.5-0.2,0.9-0.5,1.6-0.6
					C192.2,86.6,192.4,85.9,192.3,85.1z M193.4,84.3c0.1-0.6,0-1.3,0.1-2c-0.1,0-0.1,0-0.2,0C193.4,82.9,193.2,83.8,193.4,84.3z
					 M194.5,84.5c0.1-0.4,0.2-1.2-0.1-1.5c0,0-0.1,0-0.1,0C194.4,83.4,194.1,84.3,194.5,84.5z M197.8,84.6c0.1-0.1,0.1-0.4,0.2-0.6
					c-0.1,0-0.1,0-0.2,0C197.9,84.2,197.6,84.6,197.8,84.6z M195.4,85.3c0.1-0.3,0.1-0.6,0.1-1c-0.1,0-0.1,0-0.2,0
					C195.4,84.6,195,85.2,195.4,85.3z M196.8,86.9c0.1-0.7,0.3-1.6-0.4-1.8C196.4,85.7,196.1,86.8,196.8,86.9z M177.6,86
					c0.1-0.2,0.1-0.5,0.2-0.7c-0.1,0-0.1,0-0.2,0C177.7,85.5,177.4,85.9,177.6,86z M194.3,86.1c0.1-0.2,0.3-0.7,0.1-0.8
					C194.3,85.5,194.1,86,194.3,86.1z M196.3,88c0.1,0,0.2,0,0.3,0c0-0.3,0-0.5,0.1-0.7C196.3,87.3,196.5,87.8,196.3,88z
					 M194.6,87.6c0,0.1,0,0.1,0,0.2c0,1.6-0.1,3.5,0,5c0,0.2-0.1,0.5,0.2,0.6c0.1-1.5,0.2-3.5,0.1-5.1c0-0.2,0.1-0.6-0.2-0.6
					C194.6,87.6,194.6,87.6,194.6,87.6z M199,88.5c0.1-0.1,0-0.4,0.1-0.6c-0.1,0-0.1,0-0.2,0C198.9,88.1,198.8,88.5,199,88.5z
					 M178.3,91.1c0.1-0.7,0.2-1.9,0.1-2.4c0,0-0.1,0-0.1,0C178.4,89.5,178.1,90.5,178.3,91.1z M175.6,91.1c-0.1-0.6,0.2-1.3,0-1.8
					C175.6,89.9,174.7,90.8,175.6,91.1z M177.2,93c0.1-1.1,0-2.4,0.1-3.5c-0.1,0-0.1,0-0.2,0C177.1,90.6,176.9,92,177.2,93z
					 M196.3,91.7c0.4,0.5,0.3,1.5,0.4,2.3c0.1-1.5,0.5-3.3-0.4-4.2C196.3,90.5,196.3,91.1,196.3,91.7z M199,91.1
					c0.1-0.2,0.4-0.2,0.5-0.5c-0.1-0.2-0.3-0.4-0.5-0.5C199,90.5,198.9,90.9,199,91.1z M180.4,95.9c0.4-1.3,0.6-4.2-0.4-5
					C180.3,92.4,180.3,94.2,180.4,95.9z M175,92.4c0.1,0,0.2,0,0.3,0c0-0.2,0-0.4,0.1-0.6c-0.1,0-0.2,0-0.3,0
					C175.1,92.1,175,92.3,175,92.4z M199.3,92.4c0.1-0.1,0.1-0.4,0.2-0.6c-0.1,0-0.1,0-0.2,0C199.3,92,199,92.4,199.3,92.4z
					 M181.5,96.8c0.9,0.1,0.4-0.9,0.3-1.4c-0.1-0.9,0-2.1-0.2-2.8C181.6,94,181.6,95.4,181.5,96.8z M187.5,95c0.2,0,0.3,0,0.5,0
					c0-0.9-0.1-1.7-0.4-2.4C187.6,93.4,187,94.4,187.5,95z M177.9,95.9c0.2,0,0.4,0.1,0.6,0.1c-0.2-1.3,0.7-2.4,0.1-3.3
					C178.6,93.9,178.2,94.9,177.9,95.9z M190,94.4c0.1-0.1,0-0.3,0.1-0.5c-0.1,0-0.1,0-0.2,0C189.9,94.1,189.8,94.4,190,94.4z
					 M184.8,95.3c0.2,0,0.1-0.3,0.1-0.5c-0.1,0-0.1,0-0.2,0C184.8,95,184.6,95.3,184.8,95.3z M198.2,96.1c0.3-0.1,0.1-0.7,0.2-1
					c-0.1,0-0.1,0-0.2,0C198.2,95.5,197.9,96,198.2,96.1z M197.1,96.1c0.2,0,0.1-0.3,0.1-0.4c-0.1,0-0.1,0-0.2,0
					C197.1,95.9,196.9,96.2,197.1,96.1z M201.8,96.3c-0.1-0.1,0-0.4-0.2-0.4C201.6,96,201.6,96.3,201.8,96.3z M185.2,96.3
					c0,0.3,0.1,0.5,0.3,0.6c0.1-0.2,0.2-0.4,0.2-0.7C185.5,96.2,185.4,96.3,185.2,96.3z"/>
			</g>
			<g>
				<path class="st30" d="M207,85.3c-0.1,1-0.4,2.2,0,3.3c0.1,0.1,0.4,0,0.5,0.1c-0.1,0.6-0.9,0.2-1.1,0.1
					C206.4,87.4,206.5,86.1,207,85.3z"/>
			</g>
			<g>
				<path class="st30" d="M59.7,69.8c0.1,1.1,1.9,1.1,2.7,0.9c0,0.2,0.1,0.4,0.1,0.6c-0.6,0.5-1.5,0-2.2,0.2c-1.1,0.3-0.4,2-0.7,3.1
					c-0.2,0-0.3,0-0.5,0c0-1-0.3-1.7-0.5-2.5c-1.1-0.5-2.1,0.3-2.1,1.5c-0.5-0.1-0.6-0.4-0.8-0.8c-0.5,0.1-0.6,0.8-1.2,0.9
					c-0.6,0.1-1.2-0.4-1.8-0.4c-0.4,0-0.6,0.2-0.9,0.5c-0.1,2.1-0.3,5-0.2,7.6c0,0.8,0,1.6,0.2,2.3c0.1,0.4,0.4,0.9,0.4,1.3
					c0,0.2,0,0.5-0.1,0.7c0,1.6,0.2,4,0.8,5.1c0.2,0.3,0.5,0.7,0.8,0.8c1,0.2,1.7-0.7,2.6-0.2c0.6-0.7,0.2-2.2,0.3-3.4
					c0.6,1.1,0.5,2.8,1.8,3.2c0.2,0.7-0.4,0.8-0.6,1.1c-0.2,0.4-0.5,1-0.4,1.6c0.1,0.7,0.8,1.3,1.6,1.6c-0.2,0.5-0.6,0.8-0.7,1.4
					c-0.1,0.8,0.4,1.8,0.1,2.8c-1,0-0.1-1.6-0.9-1.8c-0.4,0.1-0.4,0.5-0.8,0.6c-0.9-1.3-2.9-0.2-4.5-0.4c-1.1-0.1-1.6-1.1-2.7-1.2
					c-0.2,0-0.4,0.1-0.7,0.1c-1,0-2.1-0.5-2.7-1.1c-2-2-2.8-5.9-3-9.6c-0.1-2.4,0.3-5.3,0-7.6c0-0.2-0.2-0.5-0.2-0.7
					c-0.2-1.2,0.1-2.7,0-3.8c0-0.8-0.3-1.7-0.9-1.7c-0.9,0-1.9,1.5-2.7,0.5c-0.3,0.5-0.4,1.2-0.8,1.6c-0.5-0.4-0.1-1-0.2-1.6
					c-0.7-0.3-1.5-0.5-2-1.1c0.5-0.5,1.4,0.2,1.9-0.3c-0.2-2.2,0.2-5.3-1.4-6c0.3-0.7,0.9-1.3,1.4-1.8c0.3,0.5,0.4,1.2,0.9,1.4
					c0.5,0.2,2.4,0.4,2.8,0c0.5-0.5,0.2-2.7,0.2-4.1c0-1.8,0.5-4.7-1-4.8c-0.2,0-0.4,0.1-0.6,0.2c-0.8,0.1-1.2-0.1-1.9-0.7
					c1.1-0.8,3.3,0.6,3.6-0.6c0.2-1-0.9-1.4-0.3-2.3c0.4,0,0.6,0.3,0.9,0.4c0,0.3-0.3,0.6-0.3,0.9c0,0.9,1.2,2.3,2,1.7
					c0.5-0.4-0.2-1.7,0.6-1.9c0.3,0.8,0.3,2,1.1,2.2c1,0.2,2.2-0.5,3.4-0.1c0.5-0.4,0-1.6,0.7-1.8c0-0.3-0.3-0.5-0.3-0.6
					c0.5,0,0.8,0.3,1.2,0.4c0,0.7-0.2,1.4,0.2,1.8c0.6,0.1,1.3,0.2,1.3,0.8c-0.3,0.1-1.1,0.1-1.5,0.3c0,1.5,0.1,3,0.1,4.7
					c0,1,0.1,2.1,0,2.8c0,0.3-0.3,0.5-0.2,0.8c0.2,0.9,2.8,0.7,3.9,0.6c1.2-0.1,2.3,0,3.4-0.2c0.3-0.3,0.1-1,0-1.4
					c0.2,0,0.4,0.4,0.6,0.7c0.4,0.6,0.6,0.9,1.7,0.7c0.1,0.9-1.1,0.6-1.5,1c0.2,0.8,0.1,1.9,0.1,2.9c-0.3,0-0.4-0.2-0.7-0.2
					c-0.2,0.4,0.6,0.8,0.9,0.3c0.7,0.3,1.3,0.6,2.1,0.8C61.1,70.3,60.4,70,59.7,69.8z M44.5,59c0.3-0.7-0.1-1.8-0.1-2.6
					c-0.1,0-0.1,0-0.2,0C44.4,57.3,44.3,58.3,44.5,59z M45.9,61.7c0,0.5,0.2,1.1,0.5,1.4c0.4-0.1,0.5-0.4,0.5-0.9
					c-1.6-0.9,0-4.2-1-5.6C46,58.1,45.8,60.2,45.9,61.7z M47.4,56.8c0,1.7,0.2,3.4,0.6,4.7c0.2-1.7,0.3-3.6-0.3-5
					C47.6,56.6,47.5,56.7,47.4,56.8z M49.2,57.9c0-0.5,0.3-1.1-0.2-1.4C48.7,56.9,49,57.6,49.2,57.9z M43.1,63.7
					c0.1-0.2,0.1-0.8-0.2-0.9C43,63.1,42.9,63.5,43.1,63.7z M48.3,63.8c0.1-0.2,0.1-0.6-0.1-0.6C48.1,63.4,48.1,63.6,48.3,63.8z
					 M46.4,64.4c0-0.1,0-0.6-0.1-0.5C46.4,64,46.3,64.5,46.4,64.4z M44.8,65c0.2,0.1,0.2-0.4,0-0.4C44.8,64.7,44.8,64.8,44.8,65z
					 M56.7,67.1c-0.1-0.2,0.1-0.7-0.2-0.8C56.4,66.5,56.5,67,56.7,67.1z M52.8,66.5c0,0.1,0.5,0.1,0.4-0.1
					C53.2,66.3,52.8,66.3,52.8,66.5z M44.8,66.8c0.1,0.1,0.1,0.3,0.3,0.4c0-0.2,0.1-0.6-0.1-0.7C44.9,66.6,44.8,66.6,44.8,66.8z
					 M41.1,70.5c-0.1-1,0-2.2-0.1-3.1C40.3,68,40.5,69.9,41.1,70.5z M56.6,70.1c0.4,0,0.5-0.3,0.4-0.7c-0.2,0-0.3,0-0.5,0
					C56.5,69.6,56.4,69.9,56.6,70.1z M45.4,70.4c-0.1-0.2,0.1-0.6-0.1-0.7C45.4,69.9,45.2,70.3,45.4,70.4z M46.2,77.5
					c0.1-0.7,0-1.7,0.1-2.4c-0.1,0-0.1,0-0.2,0C46.1,75.7,45.9,76.8,46.2,77.5z M43.9,77.8c0.3-0.6,0-1.6,0.1-2.4
					c-0.1,0-0.1,0-0.2,0C43.8,76.2,43.9,77,43.9,77.8z M48.7,78.7c0-0.2,0-0.9-0.1-1.1c-0.1,0-0.1,0-0.2,0
					C48.7,77.9,48.4,78.6,48.7,78.7z M46,79.6c0,0.2,0.1,0.3,0.3,0.4c0.1-0.3,0.1-0.6-0.1-0.8C46.1,79.4,46,79.5,46,79.6z
					 M48.2,81.1c0.2,0,0.4,0.2,0.5,0.1c-0.2-0.3,0.1-0.7,0.1-1c-0.1-0.1-0.1-0.2-0.3-0.3C48.5,80.3,48.3,80.7,48.2,81.1z M48,84
					c0,1.8-0.1,4,0.2,5.6c0.2-2.3,0.2-5.1,0.2-7.4C48.2,82.6,48,83.3,48,84z M49.7,85.2c0.1-0.1,0.1-0.7-0.1-0.8
					C49.5,84.5,49.5,85.1,49.7,85.2z M49.8,87.5c-0.1-0.3,0-0.9-0.3-1.1C49.6,86.8,49.5,87.3,49.8,87.5z M46.4,91.9
					c0.6-1.1,0.4-3,0.5-4.6c-0.2-0.1-0.2-0.2-0.4-0.3C46.5,88.7,45.9,90.4,46.4,91.9z M44.5,88.8c0-0.4,0.2-1-0.1-1.2
					C44.3,87.9,44.1,88.6,44.5,88.8z M49.7,89.2c0.1-0.1,0-0.4,0.1-0.5c-0.1,0-0.1,0-0.2,0C49.6,88.9,49.4,89.2,49.7,89.2z
					 M51.3,89.2c0.2,0,0.1-0.2,0.1-0.4c-0.1,0-0.1,0-0.2,0C51.2,89,51.1,89.3,51.3,89.2z M50.7,90.2c0-0.2,0.1-0.2,0.1-0.3
					c-0.1,0-0.2,0-0.4,0C50.5,90,50.5,90.1,50.7,90.2z M48.3,91.2c-0.1-0.2,0.1-0.7-0.1-0.7C48.1,90.7,48.1,91.1,48.3,91.2z
					 M52.2,91.9c0-0.1,0.1-0.4-0.1-0.3C52.1,91.7,52,91.9,52.2,91.9z M49.7,91.8c-0.1,0.2-0.3,0.2-0.3,0.5c0.6,0.6,0.4,1.9,0.8,2.7
					c0.1,0,0.4,0.1,0.4-0.1C49.9,94.2,51.1,92,49.7,91.8z M52.9,94.8c0-0.9,0.3-1.9-0.5-2.4C52,93.1,51.9,94.9,52.9,94.8z
					 M46.5,94.7c0.1,0.1,0.2,0.1,0.2,0.3c0.2,0,0.3-0.1,0.5-0.1c0-0.4,0.1-0.9-0.1-1.1C46.9,94.1,46.6,94.4,46.5,94.7z"/>
			</g>
			<g>
				<path class="st30" d="M119.8,73.2c-1.5-0.4-3.5,1-4.6,1.8c-0.9,0.7-2.5,1.9-2.7,3.3c-0.1,0.9,0,1.8,0,2.8c0,1.2-0.2,2.7,0.3,3.3
					c0,4.1-0.2,8.2-0.2,12.3c0.4,0.3,1.1,0.4,1.8,0.5c-0.1,0.3-0.1,0.5-0.2,0.8c-0.5-0.1-1.1,0.1-1.6,0.2c0.5,0.6,0.1,1.2-0.1,1.9
					c-0.5,0-0.8-0.8-0.5-1.2c-0.1-0.8-2.7-1.8-2.8-0.5c0,0.5,0.9,1.2,0,1.5c-0.6-0.4-0.2-2.1-0.9-2.3c-1.1-0.2-1.2,1.3-1.6,2.1
					c-0.3,0-0.6,0-0.9,0c0-0.6,0-1.2,0-1.8c-0.7-0.3-1.9-0.1-2.5,0.2c0.6,0.6,0.1,1.3,0.1,2.1c-0.9-0.2-0.2-1.4-0.3-2
					c-0.2-1-1.3-1-2.4-1.1c0.5-0.6,1.8-0.4,2.4-0.9c0-4,0-7.7,0-11.7c0-1.3,0.1-2.6,0-3.9c-0.1-0.6-0.4-1.2-0.5-1.9
					c-0.2-1.3,0-2.9,0-4.5c0-1.5-0.2-3.2,0-4.5c0.1-0.5,0.4-1.1,0.5-1.7c0.1-0.8-0.1-1.5,0-2.2c-0.6-0.6-2.1-0.4-2.6-1
					c0.3-0.7,1.3-0.6,2.3-0.7c0.3-1,0.4-2,0.7-3c0.2,0.9,0.1,2.1,0.4,2.9c0.2,0.2,0.5,0.1,0.8,0.1c0.3-0.1,0.2-0.4,0.3-0.7
					c0.3,0,0.6,0,0.8,0.1c-0.1-0.3-0.1-0.8-0.1-1.2c0.3,0.2,0.6,0.4,1,0.5c-0.2,0.2-0.4,0.4-0.4,0.8c0.8,0.6,2.1,0.1,1.7-1.1
					c0.2,0,0.3,0.3,0.6,0.5c0.2,0.2,0.4,0.5,0.7,0.6c0.6,0.2,1.2,0,1.8-0.2c0.1-0.7,0.4-1.3,0.6-1.8c0.3,0.4,0.1,1.1,0.3,1.6
					c0.4,0.4,1.8,0.7,1.5,1.7c-0.1,0.4-0.6,0.4-1.2,0.4c-0.3,0.8-1,1.9-0.7,2.9c1.8-0.6,2.9-2.2,4.5-3.1c1.6-0.9,3.5-1.5,5.4-2.2
					c-0.2-0.9,0.3-1.3,0.9-1.7c-0.1,1,0.7,1.4,1.5,1.2c0.6,0.8-1,1.8,0.2,2.4c0,0.3-0.5,0.6-0.5,0.9c-0.1,0.7,0.8,1.6,0.4,2.3
					c-0.1,0.1-0.3,0.2-0.3,0.3c0,0.4,1.6,0.7,1.1,1.4c-0.2,0.3-0.4-0.3-0.7-0.4c-0.5,0.4-0.6,1.4-0.5,2.2c0,0.3,0.2,0.5,0.2,0.7
					c0,0.4-0.4,0.9-0.6,1.3c-0.3,0.7-0.7,1.8-0.4,2.4c-0.6-0.4-0.7-3.1-1.7-3.2C120.6,72.4,120.4,73.1,119.8,73.2z M107.2,66.2
					c0.6-0.2,0.4-0.9-0.1-1.1C106.6,65.3,107,65.9,107.2,66.2z M110.9,66.4c0.1-0.4-0.1-0.8-0.1-1.2c-0.1,0-0.1,0-0.2,0
					C110.8,65.6,110.7,66.2,110.9,66.4z M104.2,67.9c0.1-0.7,0.1-1.5,0.1-2.2c-0.1,0-0.1,0-0.2,0C104.2,66.4,103.9,67.3,104.2,67.9z
					 M106.4,67.8c0.1,0.4,0.1,0.9,0.1,1.3c0,0.4,0,0.9,0.3,1.2c0-0.8-0.2-1.8-0.2-2.7c-0.1,0-0.1,0-0.2,0
					C106.4,67.7,106.4,67.7,106.4,67.8z M119.3,68.2c0,0,0,0.1,0,0.1c0.4,0,0.9,0,1.4,0c0.4,0,1.1,0.1,1.2-0.2
					C121.1,68.1,119.9,68,119.3,68.2z M117.3,69.6c0.5-0.4,1.2-0.5,1.6-1C118.3,68.9,117.5,69.3,117.3,69.6z M113.9,68.8
					c-0.6,0.7-1.4,1.2-2,1.9c0.8-0.5,1.4-1.2,2.1-1.9C114,68.8,114,68.7,113.9,68.8z M113.4,72.3c1-0.6,1.8-1.4,2.8-2
					c0-0.1,0-0.1-0.1-0.2C115.2,70.9,114.2,71.5,113.4,72.3z M111.8,86c0-0.4,0.1-0.9-0.1-1.1C111.6,85.1,111.5,85.8,111.8,86z
					 M108.9,91.5c0.8-1,0.2-2.9-0.1-4.2C108.9,88.7,108.8,90.2,108.9,91.5z M111.9,90.5c0.1-0.7-0.1-1.4-0.1-2.1c-0.1,0-0.1,0-0.2,0
					C111.7,89,111.6,89.9,111.9,90.5z M107,96.1c0-0.8,0.2-1.3,0.3-2.1c-0.4-0.4-0.5-1.2-0.7-1.9C106.4,93.3,106,95.5,107,96.1z
					 M111.5,94.6c0-0.7,0.1-1.5-0.1-2.1C111.3,93.1,111.1,94.1,111.5,94.6z M108.5,94.7c0.3-0.4,0.5-1,0.4-1.6
					c-0.1,0-0.2-0.1-0.3-0.1C108.6,93.7,108.4,94.3,108.5,94.7z M103.5,96.1c0.2-0.7,0.1-1.7,0.2-2.5c-0.1,0-0.1,0-0.2,0
					C103.4,94.3,103.4,95.6,103.5,96.1z M104.8,96.5c0.3,0,0.6,0,0.9,0c0-0.6,0.1-1.3-0.6-1.2C105.4,95.7,105,96.1,104.8,96.5z"/>
			</g>
			<g>
				<path class="st30" d="M65.7,49.2c0.2,0,0.3,0,0.5,0c0.4,0.2,0.7,0.4,0.6,1.1c-0.1,0.2-0.5-0.2-0.5,0.1c0.4,0.7,0.5,1.6,0.5,2.7
					c1.6,0.8,2.4-0.7,2.9-1.3c0,0.5-0.4,0.8,0,1.1c0.3,0.2,0.3-0.5,0.5-0.4c0.4,0.2,0.8,0.4,1,0.8c0.4-0.2,0.5-0.7,1-0.9
					c0.3,0.4,0.4,0.9,0.8,0.9c0.4,0.1,1-0.4,1.5-0.4c0-0.3,0-0.6,0-0.8c0.2-0.2,1-1.6,1.2-1.4c0.4,0.4-0.8,1.1-0.8,1.7
					c0,0.7,0.7,0.6,1.1,1.1c-0.5,0-0.8,0.4-1.1,0.7c0,1,0,1.9,0,2.8c0,0.9-0.2,2,0,2.8c0.1,0.4,0.5,0.8,0.6,1.1
					c0.2,0.8-0.2,1.6-0.1,2.3c0.1,0.4,0.4,0.6,0.5,1c0.1,0.8-0.3,1.5,0.1,2.2c0.5-0.1,0.8-0.4,1.2-0.6c0.4-0.2,0.9-0.4,1.3-0.7
					c0.4-0.3,0.5-0.9,0.8-1.1c0.5-0.3,1.3-0.2,1.8-0.4c0.5-0.3,0.6-0.8,1-1c0.1,0.3,0.1,0.7,0.3,0.9c0.6,0.2,1.2,0.6,1.9,0.5
					c0.5-0.1,0.6-0.7,1-1c0.1,0.5,0.4,0.8,0.8,1c1.3,0.8,3.1,1.1,4.4,2.2c0.8,0.7,1.4,1.5,2.1,2.3c0.6,0.7,1.7,1.8,1.8,2.7
					c0.1,0.7,0,1.6,0,2.4c0,0.8,0,1.6-0.2,2.3c0.8,1.1,0.2,2.5,0.4,3.9c0.1,0.8,0.3,1.3,0.3,2c0,0.3-0.2,0.6-0.3,1
					c-0.1,1.5,1.3,2.3,1.2,3.6c0,0.6-0.5,1.2-0.5,1.8c0,1.2,1,2.4,0.1,3.5c-0.1-0.7-0.2-1.4-0.2-2.1c-0.6,0.4-0.6,1.6-0.4,2.4
					c0.1,0.4,0.3,0.6,0.4,1c0.2,0.9-0.3,2.4,0.1,3.1c0.5,0.8,1.6,0.2,2.6,0.3c0.6,0.1,1,0.4,1.2,0.8c-1.4,0.2-3-0.4-3.9,0.2
					c-0.7,0.5-0.4,1.8-0.9,2.4c-1-0.3,0.3-2.3-0.9-2.3c-0.4,0.8-0.6,1.9-1,2.7c-0.2-0.3,0.1-0.6,0.1-1c0-0.3-0.3-0.6-0.4-1
					c-0.1-0.3,0-0.7-0.2-0.9c-1.6,0-3.3-0.1-4.8,0.1c-0.4,0.3-0.4,1.1-0.6,1.6c-1.1-0.2,0.1-1.2-0.4-1.8c-0.8,0-0.6,1.4-0.8,2.2
					c-1.3-0.1,0.2-2.5-1.3-2.4c0.5-0.4,1-0.6,1.1-1.2c0.1-0.5-0.1-1.1-0.2-1.8c0-0.9,0.4-1.7,0.5-2.4c0.1-1.2-0.4-2.5-0.4-3.9
					c-0.2-4.1,0.2-8.7,0.1-12.8c-0.8-2-2.5-3.6-5.4-3.2c-0.3,0-0.1,0.6-0.2,0.7c-1.2-0.9-2.1,0.5-2.8,1.4c-0.5,0.7-1.2,1.4-1.3,2.2
					c-0.1,0.7,0,1.7,0,2.6c0,5.2,0,10.7,0,15.9c0,1-0.1,2,0,2.7c0.1,0.3,0.4,0.5,0.4,0.9c0,0.5-0.2,1.1-0.7,1.2
					c-0.1-0.3-0.2-0.8-0.1-1.1c-0.8-0.8-2.8-0.4-4.3-0.5c-0.3,0.2-0.2,0.7-0.6,0.8c-0.5-0.1-0.2-0.7-0.6-0.8c-0.1,0-0.4,0-0.7,0.1
					c-0.4,0.3,0.1,1.1-0.3,1.2c-0.6,0.3-0.4-0.8-0.8-0.9c-0.6,0.3-0.5,1.3-0.6,2.1c-0.8,0-0.6-1-0.6-1.7c-0.5-0.6-1.3-1.1-1.6-1.7
					c0.3-0.1,0.6-0.2,0.9-0.4c-0.7-1.9,0.6-3.9,0.6-6.3c0-1-0.1-2-0.1-3c0-1-0.2-2.1-0.1-3.1c0.1-0.6,0.5-1,0.5-1.6
					c0-0.4-0.2-1-0.3-1.6c-0.2-1.7-0.3-3.4-0.4-5.2c-0.3-6-0.3-12.1-0.6-18c-0.1-1.2,0-2.3-0.3-3.4c-0.6-0.2-1.7,0.4-2-0.2
					c0.4-0.5,1.5-0.4,2.1-0.7c0.1-0.6,0.5-1.9,0.3-2.8C65.9,49.9,65.1,49.5,65.7,49.2z M73.5,57c-0.1-0.4,0.1-0.8,0-1.2
					c-0.1-0.3-0.4-0.4-0.5-0.7c-0.1-0.4,0.1-0.9-0.3-1.1C72.7,55.2,73.1,56.1,73.5,57z M67.4,55.8c0.1-0.5,0-1.2,0.1-1.8
					c-0.1,0-0.1,0-0.2,0C67.4,54.6,67.2,55.4,67.4,55.8z M70.1,54.4c0.1,0,0-0.3,0.1-0.4c-0.1,0-0.1,0-0.2,0
					C70,54.2,69.9,54.5,70.1,54.4z M71.7,57.3c0.2-1.1-0.2-2.2-0.5-3.2C70.9,55.2,71.5,56.3,71.7,57.3z M74,54.8
					c0.2-0.1,0.3-0.4,0.3-0.7C73.9,54.1,73.9,54.5,74,54.8z M70.1,56.1c0.1-0.1,0-0.4,0.1-0.6c-0.1,0-0.1,0-0.2,0
					C70,55.7,69.8,56,70.1,56.1z M67.1,67.8c0-0.4,0.2-0.6,0.3-1c-0.3-3.2-0.4-6.6-0.7-9.8C66.3,60.5,66.9,64.3,67.1,67.8z
					 M68.1,61.3c0.3-1.2-0.1-2.7-0.3-3.9C67.4,58.8,67.6,60.3,68.1,61.3z M72.1,65.8c0,0.4,0,1,0.4,0.9c-0.1-1.7-0.2-3.9-0.4-5.2
					C72.1,62.8,72,64.5,72.1,65.8z M83.7,66.5c0.1-0.2,0.1-0.9-0.1-1c0,0-0.1,0-0.1,0C83.6,65.7,83.4,66.4,83.7,66.5z M74.3,68.3
					c0.2-0.8,0.9-2.1-0.1-2.6C74.3,66.5,74.2,67.5,74.3,68.3z M79.9,66.2c0.2,0.1,0.4,0.2,0.6,0.3c0-0.2,0-0.4,0-0.6
					C80.2,65.9,79.9,66,79.9,66.2z M69.6,69.7c-0.1-1.3-0.1-2.6-0.3-3.7C69.2,67.2,69,68.9,69.6,69.7z M86.9,67.8
					c0-0.4,0.2-1.4-0.1-1.6C86.8,66.6,86.6,67.7,86.9,67.8z M78.7,67.5c0.1-0.2,0.1-0.6,0.2-0.9c-0.1,0-0.1,0-0.2,0
					C78.8,66.9,78.5,67.3,78.7,67.5z M87.4,69.7c0.2,0,0.3,0,0.5,0c-0.1-1,0.2-1.7,0.4-2.4c-0.2,0-0.3-0.1-0.5-0.1
					C87.6,68,87.5,68.9,87.4,69.7z M85.6,70.9c0.1-0.9,0-2,0.1-3c-0.1,0-0.1,0-0.2,0C85.6,68.8,85.4,70.1,85.6,70.9z M84.1,68
					c-0.1,0.1-0.2,0.2-0.3,0.2c0,0.9-0.7,1.7-0.2,2.5c0.3,0,0.4-0.2,0.5-0.3C83.5,69.7,84.7,68.6,84.1,68z M88.8,70.7
					c0.2-0.8,0.7-1.5,0.3-2.4C88.8,68.9,88.6,69.8,88.8,70.7z M81.9,69.7c0.2,0,0.4,0,0.6,0c0-0.5,0.2-0.7,0.3-1.1
					C82.1,68.3,82.1,69.3,81.9,69.7z M76.1,68.9c0,0.4,0,1-0.1,1.6c0,0.4-0.2,1,0.3,0.9c0-0.9,0.1-1.7,0.1-2.6
					c-0.2,0-0.2-0.1-0.4-0.1C76.1,68.8,76.1,68.8,76.1,68.9z M67.6,70.3C67.1,70.4,67.5,70.8,67.6,70.3L67.6,70.3z M93.5,71
					c0.1-0.1,0-0.4,0.1-0.6c-0.1,0-0.1,0-0.2,0C93.5,70.6,93.3,71,93.5,71z M74.2,75.5c0.9-0.3,0.5-2.2,0.5-3.7
					c0-0.4,0.1-0.8,0.1-1.1c-0.2,0-0.4,0-0.6,0C74.5,72.1,74.3,73.8,74.2,75.5z M90.5,72.6c0.1,0,0.2,0.1,0.4,0.1
					c0-0.4,0.1-0.8,0.1-1.2c-0.1-0.2-0.3-0.3-0.5-0.5C90.6,71.5,90.5,72.2,90.5,72.6z M67.4,72.3c0.1-0.3,0-0.9,0.1-1.3
					c-0.1,0-0.1,0-0.2,0C67.4,71.5,67.2,72.1,67.4,72.3z M76.2,72.6c0.2,0,0.3,0,0.5,0c0-0.2-0.1-0.4-0.2-0.4
					C76.4,72.3,76.3,72.4,76.2,72.6z M72.6,74c0-0.1,0.1-0.3,0.2-0.4C72.5,73.6,72.4,74,72.6,74z M89.7,77c0,0.5,0,1.2,0.1,0.6
					c0.1-0.8-0.1-2.2-0.1-3.1C89.6,75.2,89.7,76.5,89.7,77z M72.6,75.2c0.1,1.7-0.1,3.6,0.1,5.1c0.1-1.6,0-3.5,0.1-5.2
					c-0.1,0-0.1,0-0.2,0C72.6,75.1,72.6,75.2,72.6,75.2z M68.8,77.6c0.1-0.7,0.1-1.5,0.2-2.2c-0.1,0-0.1,0-0.2,0
					C68.8,76,68.5,77,68.8,77.6z M91.9,78.6c0-1,0-2-0.2-3C91.1,76.3,91.3,78,91.9,78.6z M75.2,82c0-0.3-0.2-0.6-0.2-1
					c-0.1-1.3,0.4-2.9-0.3-3.2c-0.1,0-0.1,0-0.2,0c-0.7,1,0.2,2.2,0.3,3.7c0.1,0.8-0.1,1.5,0.1,2.3C74.8,83.2,75.2,82.7,75.2,82z
					 M86.4,81c0.3-0.1,0.1-0.7,0.3-0.9c-0.1,0-0.1,0-0.2,0C86.4,80.4,86.3,80.6,86.4,81z M91.9,85.4c0.1-0.1,0-0.4,0.1-0.6
					c-0.1,0-0.1,0-0.2,0C91.8,85,91.7,85.4,91.9,85.4z M93.7,86.1c0-0.3,0.2-0.5,0.3-0.7c-0.1-0.1-0.1-0.3-0.2-0.3
					C93.4,85.3,93.3,85.9,93.7,86.1z M86.6,85.6c0,1.8-0.1,3.8,0,5.5c0,0.2-0.1,0.6,0.2,0.6c0.1-2,0.2-4.4-0.1-6.2c0,0-0.1,0-0.1,0
					C86.6,85.5,86.6,85.6,86.6,85.6z M91.5,91.4c0.4-1.2,0-2.6-0.4-3.5C90.6,88.9,91.3,90.4,91.5,91.4z M90,92.9
					c0.2-0.8,0.2-1.7,0.3-2.6c-0.1,0-0.1,0-0.2,0C90.1,91.1,89.8,92.2,90,92.9z M67.6,92.7c0.2-0.5,0.1-1.2,0.2-1.9
					c-0.1,0-0.1,0-0.2,0C67.7,91.4,67.4,92.2,67.6,92.7z M71.9,92.3c0.4-0.1,1.1-1.3,0.2-1.5C72.1,91.3,72,91.8,71.9,92.3z
					 M73.7,96.3c0.2,0.1,0.5,0.1,0.8,0c-0.3-0.8-0.3-2.5-0.4-3.8C73.7,93.5,73.3,95.1,73.7,96.3z M91.5,96.1c0.3,0,0.5,0,0.8,0
					c0.4-0.5,0.5-1.8,0.3-2.6C92.2,94.5,91.8,95.3,91.5,96.1z M71.1,96.1c0.1-0.3,0.2-1.1-0.1-1.2c0,0-0.1,0-0.1,0
					C71,95.3,70.7,96,71.1,96.1z M85.8,95.8c0.2-0.2,0.1-0.7,0.2-0.9c-0.1,0-0.1,0-0.2,0C85.9,95.2,85.6,95.7,85.8,95.8z M88,95.6
					c0.1,0.3,0.4,0.4,0.6,0.5c-0.1-0.3-0.1-0.7-0.2-1C88.3,95.3,88.2,95.6,88,95.6z M71.8,96.5c0.2,0,0.3,0,0.5,0c0-0.2,0-0.3,0-0.5
					c-0.1-0.1-0.4-0.1-0.5-0.2C71.8,96,71.8,96.3,71.8,96.5z"/>
			</g>
			<g>
				<path class="st30" d="M145.4,75.1c0.3,0.1,0.3,0.4,0.5,0.5c0.9,0.6,2.9,0.4,4.1,0.3c0.4-0.1,0.9-0.3,1.2-0.2
					c0.3,0,0.6,0.5,0.9,0.6c0.8,0.1,1.7-0.6,2.3,0c0.7,0,1.3-0.4,2.1-0.4c1.5,0,3.2,0.8,4.4-0.3c0.3,0.6,1.2,0.6,2.1,0.6
					c0,0.7-1.2,0.6-1.9,0.8c-0.2,2,0.5,3.3,0.4,4.9c0.4,0.5,1.5,0.4,1.6,1.1c-0.7,0-1.1,0.3-1.7,0.4c0.1,0.4,0,0.8-0.2,1.1
					c-0.2,0-0.3,0-0.5,0c0.2-0.5,0.2-1.2-0.3-1.3c-0.3-0.1-0.5,0.2-0.9,0.3c-0.8,0.2-2.2,0-3.2,0.1c-4,0.1-8.6,0.1-12.9-0.1
					c-1.6-0.1-3.2,0.1-4.6,0c-1.1,0-2.3,0.1-3.2-0.1c-0.3-0.1-0.5-0.3-0.8-0.3c-0.5,0.1-0.6,0.7-0.4,1.3c-0.2,0-0.3,0-0.5,0
					c-0.1-0.3-0.3-0.7-0.1-1c-0.5-0.2-1.2-0.4-1.7-0.4c0.1-0.8,1.2-0.7,1.6-1.1c-0.1-1.6,0.5-2.9,0.4-4.8c-0.6-0.3-1.8-0.1-1.9-0.8
					c0.8-0.1,1.8,0,2.1-0.6c0.5,0.3,1.2,0.6,1.9,0.6c0.9,0,1.9-0.3,2.9-0.3c0.6,0,1.2,0.3,1.6,0.3c0.2,0,0.4-0.2,0.6-0.3
					c0.6-0.1,1.3,0.3,1.7,0.3c0.5-0.1,0.8-0.8,1.4-0.5C144.9,75.5,145,75.1,145.4,75.1z M154.5,76.9c-0.8,0.4-0.4,1.6,0.2,2
					C154.6,78.2,154.7,77.4,154.5,76.9z M140.8,78.9c0.5-0.4,0.9-1.7,0-1.9C140.9,77.6,140.7,78.3,140.8,78.9z M148,77.4
					c0.3,0.1,0.2-0.2,0.2-0.4c-0.1,0-0.1,0-0.2,0C148,77.1,148,77.3,148,77.4z M149,77.5c0.1,0,0.2,0,0.3,0c0-0.2,0.1-0.3,0.1-0.5
					c-0.1,0-0.1,0-0.2,0C149.1,77.2,149,77.3,149,77.5z M158.1,80.3c-0.1,0.3-0.4,0.5-0.5,0.8c0.2,0.4,0.3,1,0.1,1.4
					c0.3-0.1,0.5,0.1,0.6,0c0-1.4,0.1-2.6,0.1-4.1c0,0,0-0.1-0.1-0.1C157.9,78.8,158.1,79.6,158.1,80.3z M137.2,82.5
					c0.2,0,0.5,0,0.6-0.1c-0.3-0.3-0.1-1.1,0.1-1.4c-0.1-0.3-0.4-0.4-0.5-0.7c-0.1-0.6,0.3-1.6-0.3-1.9
					C137.1,79.8,137.1,81.2,137.2,82.5z M138.7,82.5c0.3,0,0.6,0,0.9,0c-0.2-1-1-2.1-0.5-3.3c-0.1-0.1-0.3-0.2-0.5-0.2
					C138.6,80.2,138.7,81.4,138.7,82.5z M156.3,79.1c0.5,1.3-0.3,2.3-0.5,3.4c0.3,0,0.6,0,0.9,0c-0.1-1.2,0.2-2.5-0.1-3.5
					C156.5,79,156.5,79.1,156.3,79.1z M140,80.3c0.2,0,0.5,0.1,0.6-0.1c-0.2-0.2-0.3-0.5-0.5-0.6C140.1,79.9,140,80.1,140,80.3z
					 M148.3,79.7c0.2,0.7,0,1.9,0,2.7c0.2-0.9,0.6-1.6,0.5-2.8C148.6,79.7,148.5,79.7,148.3,79.7z M154.8,80.3c0.2,0,0.4,0,0.6,0
					c-0.1-0.2,0-0.6-0.2-0.6C155.1,79.9,154.9,80.1,154.8,80.3z M142.9,79.9c0.1,0.6,0.1,1.4,0.2,2.1c0,0.2,0,0.5,0.2,0.6
					c0.1-0.7-0.1-2.1-0.3-2.8c0,0-0.1,0-0.1,0C142.9,79.8,142.9,79.8,142.9,79.9z M152.2,82.6c0.2-0.2,0.2-0.8,0.3-1.2
					c0.1-0.6,0.1-1.3,0.1-1.6c0,0-0.1,0-0.1,0C152.4,80.7,152,81.8,152.2,82.6z M136.2,82.3c0.1-0.8,0.2-2-0.4-2.3
					C135.3,80.9,135.8,81.6,136.2,82.3z M159.3,82.3c0.3-0.6,0.9-1.6,0.2-2.3C159.1,80.5,159,81.6,159.3,82.3z M149.9,81.4
					c-0.3,0.3-0.5,0.6-0.5,1.2c0.2,0.1,0.3,0.2,0.6,0.2C150.1,82.5,150.3,81.7,149.9,81.4z M134.7,82.2c0-0.1,0-0.3,0-0.4
					c-0.1,0-0.2,0-0.2,0.1C134.7,81.9,134.5,82.3,134.7,82.2z M160.7,82.2c0.2,0,0.1-0.2,0.2-0.4c-0.1,0-0.1,0-0.2,0
					C160.7,82,160.7,82.1,160.7,82.2z"/>
			</g>
			<g>
				<path class="st30" d="M133.6,88.8c0.6,0.2,0.6,0.8,0.9,1.4c0.5,0.7,2,0.5,2.6,0c0.4,0.1,0.7,0.2,1.1,0.3
					c0.2-0.1,0.3-0.3,0.4-0.5c0.2,0.1,0.3,0.2,0.5,0.4c0.3-0.2,0.4-0.6,0.7-0.7c0.1,0.2,0.2,0.4,0.3,0.6c0.4,0,0.5-0.3,0.6-0.7
					c0.3,0.1,0.5,0.2,0.6,0.4c0.1,0.3-0.1,0.3-0.2,0.5c0.5,0.5,1.1,0,1.5-0.3c1,0.4,2.3,0.5,3.5,0.6c0.1,0.1,0,0.3,0.1,0.4
					c2.1-0.2,4.3-0.3,6-0.9c0.4,0.1,0.7,0.4,1,0.6c0.2,0,0.4-0.1,0.6-0.3c0-0.2-0.3-0.2-0.2-0.4c0.2-0.2,0.3-0.4,0.6-0.4
					c0.1,0.3,0.2,0.6,0.5,0.7c0.2-0.1,0.3-0.5,0.4-0.7c0.3,0.2,0.4,0.5,0.7,0.7c0.3,0,0.3-0.3,0.6-0.3c0.1,0.2,0.2,0.4,0.4,0.5
					c0.4,0,0.6-0.3,1-0.3c0.3,0,0.5,0.3,0.7,0.4c0.7,0.2,1.2,0.1,1.9-0.2c0.3-0.6,0.5-1.2,1-1.6c0.1,0.5-0.3,0.9-0.4,1.4
					c0.1,0.3,0.7,0.1,0.8-0.1c0.3,0.5,1,0.5,1.5,0.8c-0.1,0.4-1,0.1-1.2,0.4c0,1.7-0.6,3.2,0.3,4.4c-0.7,0.7,0.4,1.4,1.4,1.4
					c0,0.9-1.3,0.5-1.6,1.1c-0.2,0-0.3-0.3-0.5-0.4c-1.9,0.3-4-0.4-6-0.3c-0.6,0-1.2,0.1-1.8,0.2c-2.7,0.1-5.4-0.5-8.2-0.5
					c-1.8,0-3.5,0.3-5.4,0.2c-0.3,0-0.6-0.1-0.9-0.2c-1.6-0.1-3.1,0.4-4.6,0.4c-0.7,0-1.6-0.4-1.8,0.3c-0.4-0.5-1.7-0.2-1.8-1
					c0.7-0.1,1.5-0.2,1.7-0.8c0-0.3-0.2-0.3-0.3-0.5c0.8-1.1,0.3-2.7,0.3-4.3c-0.2-0.3-1.1,0-1.2-0.4c0.4-0.4,1.2-0.3,1.4-0.8
					c0.2,0.1,0.5,0.3,0.8,0.2C134.1,89.8,133.7,89.4,133.6,88.8z M141.2,91.3c0,0.2-0.1,0.6,0.1,0.7c0.2-0.3,0.8-0.7,0.7-0.9
					C141.7,91.1,141.4,91.1,141.2,91.3z M143.7,92.4c0-0.3,0-1-0.2-1.2c0,0-0.1,0-0.1,0C143.5,91.6,143.5,92.2,143.7,92.4z
					 M144.9,91.7c0.1-0.1,0-0.3,0.1-0.5c-0.1,0-0.1,0-0.2,0C144.9,91.3,144.7,91.7,144.9,91.7z M154.1,92.1c0-0.2,0-0.5,0-0.7
					c-0.2-0.1-0.5-0.1-0.8-0.2C153.5,91.5,153.7,91.9,154.1,92.1z M136,91.4c0,0.9,0.4,1.4,0.5,2.2c0.6-0.5,0.3-1.5,0.2-2.2
					C136.3,91.3,136.2,91.4,136,91.4z M135.3,92c0-0.2-0.1-0.4-0.1-0.7c-0.1,0-0.1,0-0.2,0C135.1,91.6,135,92.1,135.3,92z
					 M150.3,91.8c0.1-0.1,0-0.3,0.1-0.5c-0.1,0-0.1,0-0.2,0C150.2,91.5,150.1,91.8,150.3,91.8z M151.6,92.6c0.1-0.4,0.1-0.9,0.2-1.2
					c-0.1,0-0.1,0-0.2,0C151.6,91.7,151.3,92.3,151.6,92.6z M158.7,93.8c0.2-0.7,0.5-1.4,0.5-2.2c-0.3,0-0.4-0.1-0.6-0.1
					C158.5,92.1,158.2,93.3,158.7,93.8z M160,92.2c0.1-0.2,0.1-0.5,0.2-0.7C159.9,91.5,159.9,92.2,160,92.2z M148.2,92.2
					c0.2-0.1,0.4-0.4,0.4-0.6c-0.2,0-0.3-0.1-0.5-0.1C148.2,91.8,148.2,91.9,148.2,92.2z M146.6,93.4c0.3-0.4,0.2-1.3,0.6-1.5
					c-0.2,0-0.4-0.1-0.7-0.1C146.3,92.3,146.4,93,146.6,93.4z M139.7,93.5c0.2-0.1,0.4,0,0.5-0.1c-0.1-0.6-0.3-0.9-0.6-1.3
					C139.6,92.6,139.7,93,139.7,93.5z M154.9,93.6c0.2,0,0.4,0.1,0.6,0.1c-0.1-0.4,0.1-1.2-0.1-1.4C155.3,92.7,155,93.1,154.9,93.6z
					 M137.6,96.6c0.5,0,0.9,0.4,1.4,0.2c-0.1-0.2-0.4-0.3-0.7-0.4c-0.4-0.4-0.3-1.1-0.1-1.7c-0.1-0.3-0.4-0.4-0.5-0.7
					c0.1-0.3,0.3-0.4,0.4-0.7c-0.2-0.2-0.2-0.6-0.4-0.8C136.6,93.5,137.9,95.2,137.6,96.6z M157.1,93.6c0.1,0.2,0.3,0.4,0.4,0.7
					c-0.1,0.3-0.4,0.4-0.4,0.7c-0.1,0.5,0.4,1.3-0.2,1.6c-0.2,0.1-0.6,0.2-0.7,0.4c0.4,0.2,1-0.1,1.4-0.2c-0.2-1.6,1.1-3.2-0.2-4.1
					C157.4,93.2,157.2,93.3,157.1,93.6z M135.4,96.8c0.3,0.5,1.1,0.3,1.1-0.1c0.1-0.5-0.6-0.7-0.6-1.3c0-0.4,0.3-0.5,0.3-0.9
					c-0.2-0.3-0.2-0.7-0.8-0.6C135.8,94.7,135.5,96,135.4,96.8z M158.9,94.8c0.1,0.3,0.3,0.6,0.4,0.9c-0.2,0.5-0.6,0.7-0.7,1.3
					c0.2,0.3,0.7,0.4,1.1,0.2c0.1-0.9-0.4-2.3,0.1-3C159.2,94,159.1,94.5,158.9,94.8z M141.1,95.9c0-0.1,0.1-0.8-0.2-0.8
					C141,95.3,140.9,95.8,141.1,95.9z M139.8,96.7c0.2,0,0.3,0,0.5,0c0-0.6,0.1-1.4-0.1-1.6C140.1,95.7,139.9,96.1,139.8,96.7z
					 M146.8,97c0.2,0,0.4-0.1,0.6-0.1c0-0.6,0.1-1.2,0-1.8C147,95.5,146.8,96.2,146.8,97z M142.2,96.6c0.4,0.2,1.3,0.2,1.6-0.1
					c-0.6-0.1-1,0-1.1-0.5c-0.1-0.3,0.1-0.8-0.4-0.8C142.4,95.6,142.3,96.2,142.2,96.6z M154.9,97c0.2,0,0.3,0,0.5,0
					c-0.1-0.7-0.2-1.2-0.5-1.7C154.9,95.8,155,96.5,154.9,97z M154.2,96.1c0-0.2,0.2-0.7,0-0.8C154.1,95.5,153.9,96,154.2,96.1z
					 M152.5,96.4c-0.2,0.3-0.8,0.2-1.1,0.4c0.5,0.1,1.1,0.3,1.6,0.1c-0.1-0.4-0.1-1-0.2-1.5C152.6,95.6,152.5,95.9,152.5,96.4z
					 M133.9,97.1c0.3,0,0.4-0.2,0.6-0.2c-0.2-0.5-0.4-0.9-0.6-1.4C133.7,95.9,133.6,96.8,133.9,97.1z M160.7,97.1
					c0.2,0.1,0.4,0.2,0.6,0.2c0.4-0.3,0.2-1.2,0-1.6C161.2,96.3,160.9,96.7,160.7,97.1z M148.1,97c0.3-0.2,0.9,0,1.2-0.2
					c-0.3-0.2-0.6-0.4-1-0.5C148.2,96.5,148.1,96.7,148.1,97z M141.1,96.7c0.1,0,0.1-0.4-0.1-0.3C141.1,96.5,141,96.8,141.1,96.7z
					 M154.2,97c0.1,0,0-0.2,0.1-0.3c-0.1,0-0.1,0-0.2,0C154.1,96.8,154,97,154.2,97z"/>
			</g>
			<g>
				<path class="st30" d="M161.5,61.4c0.1,0,0.1,0,0.2,0c-0.3,1,0.4,1.4,1.2,1.4c0.6,0,1.3-0.3,1.5,0.3c0,0,0,0.1,0,0.1
					c-0.9,0.1-2-0.1-2.6,0.4c0,1.7,0.7,3.5,0.1,5.1c0.3,0.3,0.9,0.2,1.2,0.4c-0.4,0.3-0.9,0.3-1.2,0.6c0.3,0.6,0.2,1.7-0.1,2.2
					c-0.2,0-0.4,0-0.6,0c0.6-0.9,0.5-2.4-0.6-2.6c-0.8-0.1-1.4,0.4-1.8,0.9c-0.3-0.3-0.4-0.8-0.7-0.9c-0.3-0.1-0.8,0.1-1.2,0.2
					c-1.3,0.1-2.6-0.2-3.7-0.2c-1.2,0-2.4,0.5-3.6,0.5c-1.1,0-2.1-0.3-3.2-0.2c-0.1-0.1,0,0.3-0.3,0.3c-1.4,0.2-2.7-0.5-4.2-0.5
					c-1.6,0-3.3,0.5-5.1,0.1c-0.3,0.2-0.4,0.6-0.7,0.8c-0.5-1.2-2.6-1.1-2.7,0.2c0,0.5,0.4,1,0.4,1.5c-0.2,0-0.3,0-0.5,0
					c-0.4-0.6-0.4-1.5-0.2-2.2c-0.4-0.3-0.9-0.3-1.2-0.6c0.5-0.1,1-0.1,1.3-0.4c-0.7-1.4,0-3.3,0.1-4.9c-0.5-0.5-1.8-0.2-2.6-0.4
					c0.4-1,2.7,0.2,2.8-1.2c0.1-0.2-0.2-0.5,0.1-0.5c0.3-0.1,0,0.6,0.3,0.7c0.4,0.3,1.1,0.5,1.8,0.6c1,0.2,2.2,0.7,2.8-0.1
					c0.3,0.4,0.8,0,1.1-0.2c0.2,0.4,0.9,0.3,1.2,0c0.6,0.7,1.5,0,2.5,0.1c0.3,0,0.6,0.2,0.8,0.2c0.3,0,0.7-0.3,0.9-0.3
					c0-0.3-0.1-0.8,0.2-0.9c0.1,0.3,0.1,0.6,0.3,0.8c1.5,0.1,2.9-0.5,4.5-0.1c0.3,0.1,0.6,0.3,0.9,0.3c0.3,0,0.6-0.2,0.9-0.2
					c0.9,0,1.9,0.6,2.4-0.1c0.2,0.3,1,0.4,1.2,0c0.2,0.3,0.7,0.5,1.1,0.3c0.6,0.7,1.8,0.3,2.8,0c0.7-0.2,1.4-0.4,1.8-0.6
					C161.5,62,161.3,61.5,161.5,61.4z M151.1,63.9c0.2,0.4,0.3,0.9,0.4,1.4c0-0.6,0.5-1.3,0.3-1.7C151.6,63.6,151.2,63.6,151.1,63.9
					z M153.5,65.4c0-0.8,0.3-1.2,0.5-1.8c-0.3,0-0.4-0.1-0.7-0.1C153.2,64.1,153.3,64.9,153.5,65.4z M155.9,64.3
					c0.1-0.2,0.1-0.5,0.2-0.7c-0.1,0-0.1-0.1-0.2-0.1C155.9,63.7,155.7,64.2,155.9,64.3z M157.2,63.8c0.5,0.4,0.1,1.1,0.3,1.6
					c0.2-0.5,0.4-1.1,0.5-1.8C157.6,63.5,157.3,63.6,157.2,63.8z M159.4,65.1c-0.1-0.7,0-1.1,0.4-1.4c-0.3,0-0.5-0.3-0.8-0.1
					C159.3,64,159.2,64.6,159.4,65.1z M149.1,66c0.3,0,0.1-0.4,0.1-0.6c0-0.5,0-1.2,0-1.7c-0.1,0-0.1-0.1-0.2-0.1
					C149.1,64.5,149,65.3,149.1,66z M139.4,64.5c0-0.3,0-0.6-0.2-0.8C139.2,63.9,139.2,64.4,139.4,64.5z M142,63.8
					c-0.2-0.1-0.6,0-0.8,0.1c0.3,0.5,0.4,1.1,0.6,1.7C141.9,65,142,64.5,142,63.8z M136.1,63.8c-0.2,0.1-0.5,0.1-0.7,0.3
					c0.6,0.1,0.2,0.9,0.5,1.2C135.8,64.7,136.3,64.1,136.1,63.8z M137.8,65.6c0.2-0.3-0.2-0.8-0.1-1.1c0.1-0.2,0.3-0.2,0.3-0.4
					c-0.1-0.2-0.4-0.3-0.7-0.3C137.4,64.4,137.5,65.1,137.8,65.6z M143.7,65.4c0-0.5,0.3-0.9,0.4-1.4c-0.2-0.1-0.4-0.3-0.8-0.3
					C143.4,64.3,143.6,64.9,143.7,65.4z M146.8,65.1c0-0.1,0.2-0.1,0.3-0.2c0-0.2,0-0.4,0.1-0.6c-0.1-0.1-0.3-0.1-0.5-0.1
					C146.5,64.5,146.5,64.8,146.8,65.1z M156.1,68c0.1,0.3,0.2,0.6,0.3,0.9c0.2-0.1,0.4-0.2,0.6-0.3c0-0.7,0-1.5,0-2.2
					c-0.3-0.2-0.3-0.5-0.5-0.8C156.6,66.4,156.8,67.6,156.1,68z M158.1,66c0.5,0.3,0.2,0.4,0.1,0.7c-0.2,0.5-0.2,1.4-0.4,1.8
					c0.2,0,0.4,0,0.6,0c-0.3-1.1,0.3-2.1,0.3-2.9C158.4,65.4,158.2,65.8,158.1,66z M136.9,68.7c0.2,0,0.5,0.1,0.6-0.1
					c-0.3-0.7-0.2-1.6-0.7-2.1c0.2-0.1,0.3-0.2,0.4-0.4c-0.2-0.1-0.3-0.4-0.5-0.4C136.4,66.5,137.2,67.5,136.9,68.7z M138.2,66.6
					c0,0.8,0.1,1.4,0.1,2.2c0.2,0.1,0.3,0.2,0.6,0.3c0.1-0.3,0.3-0.5,0.3-0.8c0-0.3-0.4-0.5-0.5-0.8c-0.1-0.6,0.2-1,0.1-1.6
					C138.6,66.1,138.4,66.3,138.2,66.6z M151.3,66.7c0.2,0,0.3-0.1,0.5-0.1c0.8,0.6-0.6,2,0.5,2.2c0-1.1-0.1-2-0.1-3
					c-0.1,0-0.5,0.1-0.7-0.1C151.4,66.1,151.4,66.4,151.3,66.7z M143.1,66c0,1-0.2,2-0.1,3c1.1-0.3-0.3-1.7,0.5-2.2
					c0.2,0,0.3,0.1,0.5,0.1c-0.1-0.3-0.2-0.7-0.3-1C143.6,66.1,143.2,66.2,143.1,66z M147.2,66.6c0.2-0.1,0.6-0.6,0.4-0.7
					C147.5,66.1,147.2,66.3,147.2,66.6z M149.7,66.8c0-0.3,0.3-0.4,0.4-0.6c-0.1,0-0.1-0.2-0.2-0.3
					C149.8,66.1,149.6,66.5,149.7,66.8z M159.9,68.3c0-0.7,0.3-1.3,0.4-2c-0.1-0.1-0.2-0.2-0.3-0.3
					C159.4,66.5,159.7,67.6,159.9,68.3z M155.5,67c0-0.3,0.1-0.8-0.2-0.8C155.3,66.5,155.2,66.9,155.5,67z M135.6,66.9
					c-0.2-0.4-0.5-1-0.8-0.3c0.2,0.5,0.3,1.2,0.5,1.9C135.4,68,135.5,67.4,135.6,66.9z M139.8,67.1c0.1-0.2,0.3-0.7,0.1-0.8
					C139.8,66.5,139.6,67.1,139.8,67.1z M153.7,68.8c0.4,0,0.6,0.1,1,0.1c0.4-0.1,0.4-0.7,0.2-1c-0.1,0.3-0.2,0.6-0.5,0.7
					c-0.8-0.2-0.1-1-0.2-1.5c-0.1,0-0.1-0.1-0.2-0.1C153.8,67.5,153.6,68.1,153.7,68.8z M140.7,68.7c-0.2-0.2-0.3-0.5-0.5-0.7
					c0,0.3-0.1,0.5-0.1,0.8c0.2,0.4,0.8,0.2,1.3,0.2c0.1-0.7,0-1.5-0.4-1.8C140.8,67.7,141.7,68.6,140.7,68.7z M149.7,69
					c0-0.3,0-0.7-0.2-0.9C149.4,68.4,149.3,68.8,149.7,69z M161.3,68.6c0.1,0,0.1-0.4-0.1-0.4C161.2,68.2,161.2,68.7,161.3,68.6z
					 M134,68.8c0.1-0.1,0.1-0.4-0.1-0.4C133.9,68.5,133.8,68.8,134,68.8z"/>
			</g>
			<g>
				<path class="st2" d="M243.1,50.5h-0.8v-0.3h1.9v0.3h-0.8v2.3h-0.3V50.5z"/>
				<path class="st2" d="M246.7,51.7c0-0.4,0-0.8,0-1.1h0c-0.1,0.3-0.2,0.6-0.3,1l-0.5,1.3h-0.3l-0.4-1.3c-0.1-0.4-0.2-0.7-0.3-1h0
					c0,0.3,0,0.8-0.1,1.2l-0.1,1.1h-0.3l0.2-2.6h0.4l0.4,1.3c0.1,0.3,0.2,0.6,0.3,0.9h0c0.1-0.3,0.2-0.6,0.3-0.9l0.5-1.3h0.4
					l0.2,2.6h-0.3L246.7,51.7z"/>
			</g>
		</g>
	</g>
</g>
</svg>
