<svg xmlns="http://www.w3.org/2000/svg" viewBox="0 0 283.46 149.39"><defs><style>.cls-1{opacity:0.9;}.cls-2{fill:#231f20;}</style></defs><g id="Layer_1" data-name="Layer 1"><path class="cls-2" d="M42.49,58.4c-1.67,2.19-10,13.39-10,19.41A11.83,11.83,0,0,0,44.46,89.64h.12a11.81,11.81,0,0,0,11.83-12c0-6-8.61-17.07-10.32-19.22l-1.82-2.28Zm9.35,19.24a7.22,7.22,0,0,1-7.38,7.43,7.3,7.3,0,0,1-7.36-7.3c0-2.85,3.62-9,7.24-14.16C48.05,68.67,51.82,74.79,51.84,77.64Zm-7.38,11.3Z"/><path class="cls-2" d="M70.59,62.3a2.25,2.25,0,0,0-2.21,2.23v24L44.46,102.29l-16.25-9.4.92-1.57A1.2,1.2,0,0,0,28,89.38l-7.5.37a1.19,1.19,0,0,0-1.11,1.92l3.43,6.68a1.22,1.22,0,0,0,2.23,0L26,96.76l17.36,10a2.21,2.21,0,0,0,1.12.3h0a2.11,2.11,0,0,0,1.09-.3L71.71,91.73a2.21,2.21,0,0,0,1.11-1.93l0-25.27A2.24,2.24,0,0,0,70.59,62.3ZM44.46,106.75Z"/><path class="cls-2" d="M18.36,87.08a2.23,2.23,0,0,0,2.21-2.23l0-24L44.5,47.1l16.24,9.39-.91,1.58A1.2,1.2,0,0,0,60.94,60l7.5-.36a1.2,1.2,0,0,0,1.12-1.93L66.13,51a1.22,1.22,0,0,0-2.23,0L63,52.63l-17.35-10a2.21,2.21,0,0,0-1.12-.3h0a2.32,2.32,0,0,0-1.09.3L17.25,57.66a2.21,2.21,0,0,0-1.12,1.92l0,25.27A2.24,2.24,0,0,0,18.36,87.08ZM44.5,42.64Z"/><path class="cls-2" d="M87.63,66.61H80.77V64.48h16v2.13H90V84.9H87.63Z"/><path class="cls-2" d="M101.33,64.48h2.3V84.9h-2.3Z"/><path class="cls-2" d="M109.61,64.48h2.33l7.44,11.15,7.44-11.15h2.33V84.9h-2.3V68.36L119.41,79.3h-.12l-7.43-10.91V84.9h-2.25Z"/><path class="cls-2" d="M134.92,64.48h8.69A7.55,7.55,0,0,1,149,66.29a4.58,4.58,0,0,1,1.31,3.27v.06A4.92,4.92,0,0,1,147,74.34c2.42.73,4.38,2.13,4.38,4.93v.06c0,3.5-3,5.57-7.41,5.57h-9.07Zm8.31,9.1c2.77,0,4.7-1.25,4.7-3.64v-.06c0-2-1.61-3.33-4.52-3.33h-6.22v7Zm.82,9.25c3.09,0,5-1.37,5-3.65v-.05c0-2.22-1.86-3.5-5.42-3.5h-6.45v7.2Z"/><path class="cls-2" d="M156,64.48h14.76v2.11H158.27v7h11.14v2.09H158.27V82.8h12.6v2.1H156Z"/><path class="cls-2" d="M175.5,64.48h8.78a8,8,0,0,1,5.81,2,5.63,5.63,0,0,1,1.57,4v.06c0,3.38-2.33,5.37-5.54,6l6.27,8.34h-2.83L183.64,77h-5.83V84.9H175.5Zm8.58,10.42c3.06,0,5.25-1.58,5.25-4.2v-.06c0-2.51-1.93-4-5.22-4h-6.3V74.9Z"/><path class="cls-2" d="M195.51,64.48h7.87c7.29,0,11.52,4.2,11.52,10.1v.06c0,5.88-4.29,10.26-11.64,10.26h-7.75Zm8,15.4c3.38,0,5.63-1.86,5.63-5.16v-.06c0-3.26-2.25-5.16-5.63-5.16h-2.3V79.88Z"/><path class="cls-2" d="M217.81,64.48h9.66c3.12,0,5.27.82,6.65,2.22a6.35,6.35,0,0,1,1.8,4.75v.06a6.44,6.44,0,0,1-4.2,6.27l4.87,7.12h-6.53L226,78.72h-2.48V84.9h-5.66Zm9.39,9.81c1.93,0,3-.94,3-2.43v0c0-1.61-1.17-2.43-3.07-2.43h-3.7v4.91Z"/><path class="cls-2" d="M244.67,77.26l-7.76-12.78h6.45l4.2,7.44,4.23-7.44h6.32l-7.75,12.69V84.9h-5.69Z"/><path class="cls-2" d="M260.34,65.31h-1.2v-.82h3.33v.82h-1.21v3.22h-.92Zm3-.82h1l1.06,1.71,1.06-1.71h.94v4h-.86V65.8l-1.11,1.77h-.08l-1.12-1.77v2.73h-.86Z"/></g></svg>