<?xml version="1.0" encoding="utf-8"?>
<!-- Generator: Adobe Illustrator 25.0.0, SVG Export Plug-In . SVG Version: 6.00 Build 0)  -->
<svg version="1.1" xmlns="http://www.w3.org/2000/svg" xmlns:xlink="http://www.w3.org/1999/xlink" x="0px" y="0px"
	 viewBox="0 0 283.5 149.4" style="enable-background:new 0 0 283.5 149.4;" xml:space="preserve">
<style type="text/css">
	.st0{opacity:0.9;}
	.st1{fill:#FFFFFF;stroke:#010101;stroke-miterlimit:10;}
	.st2{fill:#010101;}
	.st3{fill:#231F20;}
	.st4{fill:none;stroke:#231F20;stroke-width:2.054;stroke-miterlimit:10;}
	.st5{fill:none;stroke:#231F20;stroke-width:1.711;stroke-miterlimit:10;}
	.st6{fill:none;stroke:#231F20;stroke-width:2.054;stroke-linejoin:bevel;stroke-miterlimit:10;}
	.st7{fill:none;stroke:#231F20;stroke-width:1.972;stroke-miterlimit:10;}
	.st8{fill:#FFFFFF;}
	.st9{fill:none;stroke:#231F20;stroke-width:1.369;stroke-linecap:round;stroke-linejoin:round;stroke-miterlimit:10;}
	.st10{fill:none;stroke:#231F20;stroke-width:1.369;stroke-linejoin:bevel;stroke-miterlimit:10;}
	.st11{fill:none;stroke:#231F20;stroke-width:0.685;stroke-miterlimit:10;}
	.st12{fill:none;stroke:#231F20;stroke-width:2.054;stroke-linecap:round;stroke-linejoin:round;stroke-miterlimit:10;}
	.st13{fill:none;stroke:#231F20;stroke-width:1.972;stroke-linecap:round;stroke-linejoin:round;stroke-miterlimit:10;}
	.st14{fill:none;stroke:#231F20;stroke-width:2.029;stroke-miterlimit:10;}
	.st15{fill:#E9282A;}
	.st16{fill:none;stroke:#231F20;stroke-width:1.691;stroke-linecap:round;stroke-linejoin:round;stroke-miterlimit:10;}
	.st17{fill:none;stroke:#231F20;stroke-width:2.031;stroke-miterlimit:10;}
	.st18{fill:none;stroke:#231F20;stroke-width:2.031;stroke-linejoin:round;stroke-miterlimit:10;}
	.st19{fill:none;stroke:#FFFFFF;stroke-width:7.454;stroke-linecap:round;stroke-linejoin:round;stroke-miterlimit:10;}
	.st20{fill:none;stroke:#020202;stroke-width:2.485;stroke-linecap:round;stroke-linejoin:round;stroke-miterlimit:10;}
	.st21{fill:none;stroke:#231F20;stroke-width:1.497;stroke-miterlimit:10;}
	.st22{fill:none;stroke:#231F20;stroke-width:2.054;stroke-miterlimit:10;stroke-dasharray:1.369,1.027;}
	.st23{fill:none;stroke:#231F20;stroke-width:1.369;stroke-miterlimit:10;}
	.st24{fill:#020202;}
	.st25{fill:none;}
	.st26{clip-path:url(#SVGID_2_);fill:#231F20;}
	.st27{clip-path:url(#SVGID_4_);fill:#010101;}
	.st28{clip-path:url(#SVGID_6_);fill:#010101;}
	.st29{clip-path:url(#SVGID_6_);fill:none;stroke:#010101;stroke-width:0.432;stroke-miterlimit:10;}
	.st30{fill-rule:evenodd;clip-rule:evenodd;fill:#010101;}
	.st31{clip-path:url(#SVGID_8_);fill:#010101;}
	.st32{clip-path:url(#SVGID_10_);fill:#010101;}
	.st33{clip-path:url(#SVGID_10_);fill:#97999B;}
	.st34{clip-path:url(#SVGID_10_);fill:none;stroke:#010101;stroke-width:0.367;}
	.st35{clip-path:url(#SVGID_12_);fill:none;stroke:#010101;stroke-width:0.367;}
	.st36{fill:#95979A;}
	.st37{fill:none;stroke:#010101;stroke-width:0.367;}
	.st38{fill:#231F20;stroke:#231F20;stroke-width:1.32;stroke-miterlimit:10;}
	.st39{fill:#231F20;stroke:#231F20;stroke-width:0.9;stroke-miterlimit:10;}
	.st40{fill-rule:evenodd;clip-rule:evenodd;fill:#231F20;}
	.st41{fill:none;stroke:#010101;stroke-width:0.349;}
	.st42{clip-path:url(#SVGID_14_);fill:#010101;}
	.st43{clip-path:url(#SVGID_16_);fill:#010101;}
	.st44{clip-path:url(#SVGID_18_);fill:#010101;}
	.st45{clip-path:url(#SVGID_20_);fill:#010101;}
	.st46{clip-path:url(#SVGID_22_);fill:#010101;}
	.st47{clip-path:url(#SVGID_24_);fill:#010101;}
	.st48{clip-path:url(#SVGID_26_);fill:#010101;}
	.st49{clip-path:url(#SVGID_28_);fill:none;stroke:#010101;stroke-width:0.274;}
	.st50{clip-path:url(#SVGID_30_);fill:#010101;}
	.st51{clip-path:url(#SVGID_32_);fill:#010101;}
	.st52{clip-path:url(#SVGID_34_);fill:#010101;}
	.st53{clip-path:url(#SVGID_36_);fill:#231F20;}
	.st54{clip-path:url(#SVGID_36_);fill:#FFFFFF;}
	.st55{clip-path:url(#SVGID_36_);fill:#415364;}
	.st56{clip-path:url(#SVGID_36_);fill-rule:evenodd;clip-rule:evenodd;fill:#FFFFFF;}
	.st57{fill-rule:evenodd;clip-rule:evenodd;fill:#FFFFFF;}
	.st58{fill:none;stroke:#231F20;stroke-width:1.6532;stroke-linecap:round;stroke-linejoin:round;stroke-miterlimit:10;}
	.st59{fill:none;stroke:#231F20;stroke-width:1.9928;stroke-miterlimit:10;}
</style>
<g id="Fondo" class="st0">
</g>
<g id="Layer_1">
	<g>
		<g>
			<g>
				<path class="st3" d="M144.1,117.2c-23.4,0-42.5-19.1-42.5-42.5s19.1-42.5,42.5-42.5s42.5,19.1,42.5,42.5
					S167.6,117.2,144.1,117.2z M144.1,36c-21.4,0-38.7,17.4-38.7,38.7c0,21.4,17.4,38.7,38.7,38.7c21.4,0,38.7-17.4,38.7-38.7
					C182.9,53.3,165.5,36,144.1,36z"/>
			</g>
		</g>
		<g>
			<g>
				<path class="st2" d="M134.6,46.9c0,0,0.5-4.6,5.3-4.8l0.9,3.6l-0.4,0.6l0.8,0.6l0.6,2.2l-0.2,0.1c0,0,0.3-0.7-0.2,0.3l-2.4-1
					l-0.2-0.8l-1.1,0.3L134.6,46.9z"/>
			</g>
			<g>
				<path class="st2" d="M133.6,49.9c0,0-0.5,1-0.8,3.2l3.5,0.6l0.5-0.3l0.4,0.5l2.7,0.6c0,0-0.2-0.7,0.3-1.9l-2.6-1.2l-0.5,0.3
					l-0.4-0.6L133.6,49.9z"/>
			</g>
			<g>
				<path class="st2" d="M132.4,55.7c0,0-0.5,1.9-0.4,3.7l3.6-0.1l0.8-0.4l0.7,0.4l2.5,0.2c0,0-0.5-0.5-0.1-2.2l-2.7-0.7l-0.5,0.7
					l-0.7-1L132.4,55.7z"/>
			</g>
			<g>
				<path class="st2" d="M131.9,61.9c0,0-0.4,2.2,0.7,3.9l4.1-0.8l0.6-0.7l0.9,0.3l2.3-0.3c0,0-0.8-1.3-0.9-2.3l-2.5-0.1l-0.6,0.7
					l-0.8-0.8L131.9,61.9z"/>
			</g>
			<g>
				<path class="st2" d="M133.6,68.3c0,0,0.8,1.7,2,3.6l3.3-1.2l0.4-0.9l0.8,0.4l2.7-1.1c0,0-1.1-1.1-1.7-2.8l-2.3,0.5l-0.4,0.8
					l-1.2-0.4L133.6,68.3z"/>
			</g>
			<g>
				<path class="st2" d="M143.5,41.8l0.7,3.5l0.6,0.7l-0.4,0.6l0.4,2.4c0,0,0.1-0.1,0.5,0.1l1.5-1.6l-0.1-0.8h0.9l2.1-2.1
					C149.7,44.6,147.7,41.3,143.5,41.8z"/>
			</g>
			<g>
				<path class="st2" d="M146.9,51l1.6-1.7h0.9v-0.8l2.2-1.9c0,0,1.1-0.6,2.2,3.6l-3,1.1l-0.7-0.5l-0.4,0.9l-2.1,1
					C147.7,52.6,147.9,52,146.9,51z"/>
			</g>
			<g>
				<path class="st2" d="M148.5,55.4c0,0,0.6,0.6,0.7,2l2.4-0.3l0.6-0.6l1,0.3l2.5-0.4c0,0-0.2-2.3-1.1-3.5l-2.6,1l-0.4,1l-1-0.5
					L148.5,55.4z"/>
			</g>
			<g>
				<path class="st2" d="M149.2,60.5c0,0,0.5,1,0.3,2.4L152,63l0.7-0.5l0.7,0.5l2.7,0.3c0,0,0.4-1.2-0.5-4l-2.6,0.4l-0.6,0.6
					l-0.7-0.4L149.2,60.5z"/>
			</g>
			<g>
				<path class="st2" d="M149.2,66c0,0-0.1,1.5-0.4,2.4l2.6,0.8l0.6-0.4l0.4,0.7l2.9,0.6c0,0,0.5-2.4,0.5-3.8l-2.8-0.1l-0.8,0.5
					l-0.5-0.6L149.2,66z"/>
			</g>
			<g>
				<path class="st2" d="M136.8,84.7c0,0-1.2,3.4-1.2,4.4l2.3,0l0.6-0.4l0.6,0.5l1.7,0.1c0,0,0.5-2.6,0.7-3.2L136.8,84.7z"/>
			</g>
			<g>
				<path class="st2" d="M153.7,87.7c0,0-0.1,3.6-0.4,4.5l-2-0.9l-0.4-0.6l-0.6,0.3l-1.9-0.4c0,0,0.2-3,0.3-3.5L153.7,87.7z"/>
			</g>
			<g>
				<path class="st2" d="M144.4,99.4c0,0,0.2,0.3,0.9-0.3l1.5,1l0.1,0.6l0.7-0.1l3.4,1.7c0,0,0.4,3.8-5.3,4.7l-0.8-4.9l0.4-0.6
					l-0.7-0.6L144.4,99.4z"/>
			</g>
			<g>
				<path class="st2" d="M141.8,99.1c0,0-0.3,0.2-0.8-0.4l-1.6,0.8l-0.2,0.6l-0.7-0.1l-3.6,1.3c0,0-0.8,3.8,4.8,5.3l1.3-4.8
					l-0.3-0.7l0.8-0.6L141.8,99.1z"/>
			</g>
			<g>
				<path class="st2" d="M147.6,94.2c0,0-0.1,1.5-0.7,2.5l1.3,0.6l0.6-0.3l0.1,0.8l3,1.5c0,0,0.9-4,0.7-4.8c0,0-2.3,0.3-2.8,0
					l-0.6,0.4l-0.3-0.6L147.6,94.2z"/>
			</g>
			<g>
				<path class="st2" d="M140.7,93.3c0,0-0.4,1.2-0.4,2.4l-1.5,0.4l-0.4-0.5l-0.4,0.7l-3.3,0.5c0,0,0.4-4.3,0.8-4.9
					c0,0,2.1,1,2.7,0.9l0.4,0.6L139,93L140.7,93.3z"/>
			</g>
			<g>
				<path class="st2" d="M136.5,74.3l7.7-2.7c0,0,3.8-2.2,10.5,1.5c0,0-0.9,7.8-0.9,11.2l-16.6-2.2
					C137.1,82.2,138.5,79.3,136.5,74.3z"/>
			</g>
			<g>
				<polygon class="st2" points="141.9,52.5 142.6,52.4 142.5,51.8 143.1,51.2 143.7,51.7 143.7,52.4 144.3,52.3 144.9,52.9 
					144.4,53.5 143.8,53.5 143.8,54.1 143.3,54.7 142.7,54.2 142.7,53.6 142,53.6 141.4,53.1 				"/>
			</g>
			<g>
				<polygon class="st2" points="144.9,57.2 145.5,57.1 145.5,56.5 146,55.9 146.6,56.4 146.7,57.1 147.3,57 147.9,57.5 147.4,58.2 
					146.8,58.2 146.8,58.8 146.3,59.4 145.7,58.9 145.6,58.3 145,58.3 144.4,57.8 				"/>
			</g>
			<g>
				<polygon class="st2" points="141.7,61.2 142.3,61.1 142.2,60.5 142.8,59.9 143.4,60.4 143.4,61 144,61 144.7,61.5 144.1,62.1 
					143.5,62.2 143.5,62.8 143,63.4 142.4,62.9 142.4,62.2 141.7,62.3 141.1,61.8 				"/>
			</g>
			<g>
				<polygon class="st2" points="145.1,65.4 145.7,65.4 145.6,64.7 146.2,64.1 146.8,64.7 146.8,65.3 147.4,65.3 148.1,65.8 
					147.5,66.4 146.9,66.4 146.9,67.1 146.4,67.7 145.8,67.1 145.8,66.5 145.1,66.6 144.5,66 				"/>
			</g>
			<g>
				<polygon class="st2" points="143.5,88.4 144.2,88.4 144.2,87.8 144.9,87.3 145.4,87.9 145.3,88.6 145.9,88.6 146.4,89.3 
					145.8,89.8 145.2,89.7 145.1,90.3 144.5,90.8 144,90.2 144,89.6 143.4,89.5 142.9,88.9 				"/>
			</g>
			<g>
				<polygon class="st2" points="142.7,94.6 143.3,94.7 143.4,94 144,93.5 144.5,94.2 144.4,94.8 145.1,94.9 145.6,95.5 144.9,96 
					144.3,95.9 144.2,96.5 143.6,97.1 143.1,96.4 143.2,95.8 142.6,95.7 142,95.1 				"/>
			</g>
		</g>
	</g>
</g>
</svg>
