<svg xmlns="http://www.w3.org/2000/svg" viewBox="0 0 283.46 149.39"><defs><style>.cls-1{opacity:0.9;}.cls-2{fill:#010101;}.cls-3,.cls-4{fill:none;}.cls-3{stroke:#010101;stroke-width:0.35px;}</style></defs><g id="Layer_1" data-name="Layer 1"><polygon class="cls-2" points="19.68 49.96 31.86 49.96 30.77 82.73 53.56 84.9 53.56 94.99 15.35 94.99 19.68 49.96"/><polygon class="cls-3" points="19.68 49.96 31.86 49.96 30.77 82.73 53.56 84.9 53.56 94.99 15.35 94.99 19.68 49.96"/><polygon class="cls-2" points="69.68 92 57.51 92 58.59 59.23 35.81 57.06 35.81 46.97 74.02 46.97 69.68 92"/><polygon class="cls-3" points="69.68 92 57.51 92 58.59 59.23 35.81 57.06 35.81 46.97 74.02 46.97 69.68 92"/><path class="cls-2" d="M50.39,71.83a5.68,5.68,0,1,1-5.68-5.68,5.68,5.68,0,0,1,5.68,5.68"/><polygon class="cls-2" points="85.21 62.97 79.18 62.97 79.35 62 92.53 62 92.36 62.97 86.35 62.97 83.11 81.36 81.97 81.36 85.21 62.97"/><path class="cls-2" d="M104.3,81.36H103L100.17,76a12.75,12.75,0,0,1-1.91.15H94.84l-.94,5.26H92.76L96.18,62H99.8c4.44,0,6.66,2.79,6.63,6.26s-1.68,6.41-5.15,7.44ZM98.23,75.1c5.21,0,7-3,7-6.84,0-3-1.65-5.27-5.55-5.27H97.15L95,75.1Z"/><path class="cls-2" d="M108.51,81.36h-1.17l11.11-19.59h.34l4.27,19.59h-1.14l-.79-3.75H110.62Zm10-15.83c-.14-.68-.25-1.77-.25-1.77a18.78,18.78,0,0,1-.86,1.77l-6.26,11.08h9.74Z"/><path class="cls-2" d="M126.08,72.34a10.3,10.3,0,0,1,10.4-10.57,8.31,8.31,0,0,1,7.32,3.67l-.86.6a7.4,7.4,0,0,0-6.49-3.27,9.22,9.22,0,0,0-9.2,9.48c0,4.78,3.25,8.34,8,8.34a9,9,0,0,0,6.92-3.13l.8.66a9.84,9.84,0,0,1-7.74,3.47,8.86,8.86,0,0,1-9.12-9.25"/><polygon class="cls-2" points="152.71 62.97 146.67 62.97 146.84 62 160.03 62 159.86 62.97 153.85 62.97 150.6 81.36 149.46 81.36 152.71 62.97"/><polygon class="cls-2" points="163.93 62 165.07 62 161.65 81.36 160.51 81.36 163.93 62"/><path class="cls-2" d="M167.81,72.42a10.34,10.34,0,0,1,10.36-10.65,8.8,8.8,0,0,1,9.12,9.08,10.41,10.41,0,0,1-10.4,10.74,8.8,8.8,0,0,1-9.08-9.17m18.31-1.57a7.66,7.66,0,0,0-8-8.06,9.26,9.26,0,0,0-9.2,9.6c0,4.7,3.14,8.18,7.95,8.18,5.24,0,9.2-4.28,9.2-9.72"/><path class="cls-2" d="M194.55,65.47c-.31-.57-.69-1.37-.69-1.37a11.18,11.18,0,0,1-.14,1.54L191,81.36h-1.08l3.44-19.59h.32L203,77.89a9.57,9.57,0,0,1,.63,1.37s0-.8.17-1.49L206.54,62h1.08l-3.45,19.59h-.34Z"/><polygon class="cls-2" points="219.35 62 223.25 62 220.44 77.95 229.04 77.95 228.44 81.36 215.94 81.36 219.35 62"/><path class="cls-2" d="M231.57,73.67,233.62,62h3.93l-2.1,12c-.49,2.73.71,4.19,3.33,4.19,2.42,0,3.61-1.26,4.07-3.79L245,62H249l-2.3,13c-.8,4.45-3.74,6.64-8.09,6.64-4.64,0-7.86-3.13-7-8"/><path class="cls-2" d="M250.37,72.08a10.06,10.06,0,0,1,10.25-10.31c4.07,0,6.52,1.54,8.06,3.84l-3,2.2a5.78,5.78,0,0,0-5.15-2.56c-3.65,0-6.13,2.78-6.13,6.86,0,3.42,2.17,6.09,5.7,6.09,3,0,5.13-1.68,5.61-3.84h-5.1l.6-3.36H270c0,6.29-3.27,10.62-10,10.62-5.81,0-9.59-4-9.59-9.54"/><polyline class="cls-4" points="269.99 120.3 269.99 45.09 13.47 45.09 13.47 120.3"/></g></svg>