<?xml version="1.0" encoding="utf-8"?>
<!-- Generator: Adobe Illustrator 22.1.0, SVG Export Plug-In . SVG Version: 6.00 Build 0)  -->
<svg version="1.1" id="Icons" xmlns="http://www.w3.org/2000/svg" xmlns:xlink="http://www.w3.org/1999/xlink" x="0px" y="0px"
	 viewBox="0 0 46 34" style="enable-background:new 0 0 46 34;" xml:space="preserve">
<style type="text/css">
	.st0{fill:none;stroke:#000000;stroke-width:2;stroke-linecap:round;stroke-linejoin:round;}
</style>
<title>Icon_Fabric_Breathable_white</title>
<path class="st0" d="M45,18.9c-8.5,0-13.8-5.1-21.7-5.1h-0.5c-7.9,0-13.2,5.1-21.7,5.1"/>
<path class="st0" d="M45,25c-8.5,0-13.8-5.1-21.7-5.1h-0.5C14.8,19.9,9.5,25,1,25"/>
<line class="st0" x1="23" y1="13" x2="23" y2="7.9"/>
<line class="st0" x1="23" y1="32" x2="23" y2="20"/>
<polyline class="st0" points="27,29 23,33 19,29 "/>
<line class="st0" x1="23" y1="1.3" x2="23" y2="4"/>
<line class="st0" x1="13" y1="22.3" x2="13" y2="26.4"/>
<line class="st0" x1="13" y1="2.3" x2="13" y2="15.3"/>
<polyline class="st0" points="9,5 13,1 17,5 "/>
<polyline class="st0" points="29,5 33,1 37,5 "/>
<line class="st0" x1="13" y1="33" x2="13" y2="30.3"/>
<line class="st0" x1="33" y1="22.3" x2="33" y2="26.4"/>
<line class="st0" x1="33" y1="2.3" x2="33" y2="15.3"/>
<line class="st0" x1="33" y1="33" x2="33" y2="30.3"/>
</svg>
