<svg xmlns="http://www.w3.org/2000/svg" viewBox="0 0 283.46 149.39"><defs><style>.cls-1{opacity:0.9;}.cls-2{fill:#231f20;}</style></defs><g id="Layer_1" data-name="Layer 1"><path class="cls-2" d="M69.05,88.78c-4.87-.94-7.87-4.06-8-9-.1-5.53,0-11.06,0-16.59h7.86c0,.29,0,10,0,15.05A8.51,8.51,0,0,0,69.16,80a2.53,2.53,0,0,0,2.51,2.18,8.17,8.17,0,0,0,1,0A2.52,2.52,0,0,0,75.16,80a8.51,8.51,0,0,0,.17-1.75c0-5,0-14.76,0-15.05h7.87c0,5.53.09,11.06,0,16.59-.09,4.92-3.12,8-8,9a15.63,15.63,0,0,1-3,.29A16.18,16.18,0,0,1,69.05,88.78Z"/><path class="cls-2" d="M38.17,63.23c4,0,9.35-.06,12.42,0,3.9.07,8.15,3.27,8.37,9a6.89,6.89,0,0,1-3.09,6.36c-.43.29-.89.54-1.36.84,1.73,3,5.32,9,5.32,9s-8.07,0-8.07,0l-4.3-7.87H45.54v7.87H38.17C38.17,88.05,38.19,63.52,38.17,63.23Zm7.37,12.12c1.22,0,2.34.05,3.44,0a2.62,2.62,0,0,0,2.63-2.8A2.85,2.85,0,0,0,49,69.61s-3.42,0-3.42,0C45.56,71.38,45.54,73.49,45.54,75.35Z"/><path class="cls-2" d="M36.13,63.23v6.24H30v18.9H22.73V69.53H16.11v-6.3Z"/><path class="cls-2" d="M102.11,88.38H85.64V63.19h16v6.2H93.06V73H101v5.37H93.06v3.75h9Z"/><path class="cls-2" d="M184,88.38H168.31V63.19h7.26V81.5H184Z"/><path class="cls-2" d="M160.84,79.23a6.71,6.71,0,0,1-3.91,3.18,6.08,6.08,0,0,1-7.42-4.14,7,7,0,0,1,3.14-8.6,6.15,6.15,0,0,1,8,2.53c1.86-1.26,3.58-2.72,5.43-4a13,13,0,0,0-4.5-4.1,13.48,13.48,0,0,0-13.09.42,14.16,14.16,0,0,0-4.69,5.07,8.8,8.8,0,0,0-5.41-1.56,11.78,11.78,0,0,1-2.58.12c-.3-.08-1.74-3.63-4.86-5.73a13.6,13.6,0,0,0-7.83-2.15,12.66,12.66,0,0,0-6.35,1.64,14.92,14.92,0,0,0-4.3,4.4c-.43.6-.53.55-.85.57A10,10,0,0,0,105.33,70a11.48,11.48,0,0,0-1.76,2.9,9.48,9.48,0,0,0-.09,7,9,9,0,0,0,3,4.12,11.88,11.88,0,0,0,5.46,1.9,12.46,12.46,0,0,0,5.19-.38.88.88,0,0,1,1,.19c1.76,1.36,4.5,1.49,6.79,1.41,3.42-.12,4.85-1.37,6.61-2.27.43-.21.57-.14,1,.09a14.68,14.68,0,0,0,2.27,1.31,9.89,9.89,0,0,0,6.06.32,10.51,10.51,0,0,0,1.42-.52,9.51,9.51,0,0,0,2.36-1.49c.22-.19.41-.39.61-.59a13,13,0,0,0,9,5,12.82,12.82,0,0,0,1.39.06,9.94,9.94,0,0,0,1.34-.06,12.83,12.83,0,0,0,9.64-6.34S160.81,79.3,160.84,79.23Zm-21.71,5.11c-2.55.21-4.55-.81-6.53-2.37-.61-.62-.82,0-2.27.71-4.38,2.18-8.11,2.47-12.45-.21-.19-.1-.56.07-.76.13a10.51,10.51,0,0,1-6.76.07,6,6,0,0,1-4.1-3.36,8.06,8.06,0,0,1-.46-3.65,7.46,7.46,0,0,1,6.58-6.21c1.64.1,1.57-.57,2.13-1.32,3.95-6.27,12.62-6.14,16.91-1.77a12.18,12.18,0,0,1,2.55,4c.56,1.41,1.28,1.22,1.77,1a6.71,6.71,0,0,1,2.19-.69c3.93-.38,6.75,2.57,7.08,6.38C145.21,80.32,142.66,84.05,139.13,84.34Z"/><path class="cls-2" d="M197.34,89A14,14,0,0,1,188,85.1a13,13,0,0,1,2.43-20.49A13.55,13.55,0,0,1,194.83,63c5.26-1,9.95.22,13.64,4.23a12.75,12.75,0,0,1,3.28,8,12.9,12.9,0,0,1-6.12,11.6A14.81,14.81,0,0,1,197.34,89Zm.56-6.53a6.62,6.62,0,1,0-6.75-6.67A6.52,6.52,0,0,0,197.9,82.44Z"/><path class="cls-2" d="M259.54,64.12H258.2v-.91h3.71v.91h-1.34v3.59h-1Zm3.32-.91h1.08l1.18,1.9,1.18-1.9h1.05v4.5h-1v-3l-1.24,2h-.09l-1.24-2v3h-1Z"/><path class="cls-2" d="M221.31,88.82c-4.87-.94-7.87-4.06-8-9-.11-5.52,0-11,0-16.58h7.87c0,.29,0,10,.05,15a8.58,8.58,0,0,0,.17,1.75,2.52,2.52,0,0,0,2.5,2.17,8.17,8.17,0,0,0,1,0,2.53,2.53,0,0,0,2.51-2.17,8.58,8.58,0,0,0,.17-1.75c0-5,0-14.76,0-15h7.86c0,5.53.09,11.06,0,16.58-.09,4.93-3.12,8-8,9a15.27,15.27,0,0,1-3,.28A15.85,15.85,0,0,1,221.31,88.82Z"/><path class="cls-2" d="M260.19,75.29a15.59,15.59,0,0,1-1.88,7.15A12.14,12.14,0,0,1,248,88.37c-1.77,0-9.74,0-9.74,0V63.23c.14,0,6.65-.07,9.74,0,4.09.15,8.07,1.84,10.3,5.42A12.09,12.09,0,0,1,260.19,75.29Zm-14.64-5.8V82.11c.95,0,1.85.07,2.75,0a4.82,4.82,0,0,0,4.52-3.77,9.79,9.79,0,0,0,.11-5c-.47-2-1.67-3.34-4.63-3.59A15,15,0,0,0,245.55,69.49Z"/></g></svg>