<?xml version="1.0" encoding="UTF-8" standalone="no"?>
<!-- Created with Inkscape (http://www.inkscape.org/) -->

<svg
   xmlns:dc="http://purl.org/dc/elements/1.1/"
   xmlns:cc="http://creativecommons.org/ns#"
   xmlns:rdf="http://www.w3.org/1999/02/22-rdf-syntax-ns#"
   xmlns:svg="http://www.w3.org/2000/svg"
   xmlns="http://www.w3.org/2000/svg"
   xmlns:sodipodi="http://sodipodi.sourceforge.net/DTD/sodipodi-0.dtd"
   xmlns:inkscape="http://www.inkscape.org/namespaces/inkscape"
   version="1.1"
   id="svg2"
   xml:space="preserve"
   width="141.33333"
   height="53.333332"
   viewBox="0 0 141.33333 53.333332"
   sodipodi:docname="UPF.svg"
   inkscape:version="0.92.5 (2060ec1f9f, 2020-04-08)"><metadata
     id="metadata8"><rdf:RDF><cc:Work
         rdf:about=""><dc:format>image/svg+xml</dc:format><dc:type
           rdf:resource="http://purl.org/dc/dcmitype/StillImage" /><dc:title></dc:title></cc:Work></rdf:RDF></metadata><defs
     id="defs6"><clipPath
       clipPathUnits="userSpaceOnUse"
       id="clipPath18"><path
         d="M 0,40 H 106 V 0 H 0 Z"
         id="path16"
         inkscape:connector-curvature="0" /></clipPath><clipPath
       clipPathUnits="userSpaceOnUse"
       id="clipPath30"><path
         d="m 38.797,20.386 c 0,-3.013 7.519,-5.454 16.792,-5.454 v 0 c 9.274,0 16.793,2.441 16.793,5.454 v 0 c 0,3.01 -7.519,5.454 -16.793,5.454 v 0 c -9.273,0 -16.792,-2.444 -16.792,-5.454"
         id="path28"
         inkscape:connector-curvature="0" /></clipPath><clipPath
       clipPathUnits="userSpaceOnUse"
       id="clipPath98"><path
         d="M 0,40 H 106 V 0 H 0 Z"
         id="path96"
         inkscape:connector-curvature="0" /></clipPath></defs><sodipodi:namedview
     pagecolor="#ffffff"
     bordercolor="#666666"
     borderopacity="1"
     objecttolerance="10"
     gridtolerance="10"
     guidetolerance="10"
     inkscape:pageopacity="0"
     inkscape:pageshadow="2"
     inkscape:window-width="1600"
     inkscape:window-height="802"
     id="namedview4"
     showgrid="false"
     inkscape:zoom="4.9103775"
     inkscape:cx="79.276495"
     inkscape:cy="3.0081956"
     inkscape:window-x="1920"
     inkscape:window-y="27"
     inkscape:window-maximized="0"
     inkscape:current-layer="g92" /><g
     id="g10"
     inkscape:groupmode="layer"
     inkscape:label="UPF"
     transform="matrix(1.3333333,0,0,-1.3333333,0,53.333333)"><g
       id="g12"><g
         id="g14"
         clip-path="url(#clipPath18)"><g
           id="g20"
           transform="translate(43.707,24.2695)"><path
             d="m 0,0 c -3.185,-1.033 -4.939,-2.413 -4.939,-3.884 0,-1.47 1.754,-2.848 4.939,-3.884 3.174,-1.031 7.393,-1.598 11.883,-1.598 4.487,0 8.708,0.567 11.882,1.598 3.183,1.036 4.938,2.414 4.938,3.884 0,1.471 -1.755,2.851 -4.938,3.884 C 20.591,1.03 16.37,1.6 11.883,1.6 7.393,1.6 3.174,1.03 0,0"
             style="fill:#231f20;fill-opacity:1;fill-rule:nonzero;stroke:none"
             id="path22"
             inkscape:connector-curvature="0" /></g></g></g><g
       id="g24"><g
         id="g26"
         clip-path="url(#clipPath30)"><g
           id="g32"
           transform="translate(56.3613,20.4688)"><path
             d="m 0,0 v -7.203 l -12.465,7.186 z"
             style="fill:#f8a13f;fill-opacity:1;fill-rule:nonzero;stroke:none"
             id="path34"
             inkscape:connector-curvature="0" /></g><g
           id="g36"
           transform="translate(56.3613,27.6699)"><path
             d="M 0,0 V -7.218 H -12.465 Z"
             style="fill:#fff540;fill-opacity:1;fill-rule:nonzero;stroke:none"
             id="path38"
             inkscape:connector-curvature="0" /></g><g
           id="g40"
           transform="translate(56.3594,15.0957)"><path
             d="m 0,0 c 0,0 -1.823,2.455 -3.105,3.069 0,0 -0.081,0 -0.081,-0.214 V 1.521 c 0,0 0.055,-0.374 -0.293,-0.107 0,0 -0.785,2.734 -2.167,3.876 h 5.648 z"
             style="fill:#fff540;fill-opacity:1;fill-rule:nonzero;stroke:none"
             id="path42"
             inkscape:connector-curvature="0" /></g><g
           id="g44"
           transform="translate(56.3643,25.6758)"><path
             d="m 0,0 c 0,0 -1.828,-2.455 -3.11,-3.069 0,0 -0.08,0 -0.08,0.214 v 1.334 c 0,0 0.054,0.374 -0.293,0.107 0,0 -0.786,-2.734 -2.168,-3.876 h 5.648 z"
             style="fill:#f8a13f;fill-opacity:1;fill-rule:nonzero;stroke:none"
             id="path46"
             inkscape:connector-curvature="0" /></g><g
           id="g48"
           transform="translate(43.8965,20.4521)"><path
             d="M 0,0 -6.527,11.267 0,13.108 Z"
             style="fill:#f8a13f;fill-opacity:1;fill-rule:nonzero;stroke:none"
             id="path50"
             inkscape:connector-curvature="0" /></g><g
           id="g52"
           transform="translate(43.8965,20.4521)"><path
             d="M 0,0 -0.018,13.019 6.556,11.352 Z"
             style="fill:#fff540;fill-opacity:1;fill-rule:nonzero;stroke:none"
             id="path54"
             inkscape:connector-curvature="0" /></g><g
           id="g56"
           transform="translate(43.8965,20.4521)"><path
             d="m 0,0 6.496,11.284 4.858,-4.73 z"
             style="fill:#f8a13f;fill-opacity:1;fill-rule:nonzero;stroke:none"
             id="path58"
             inkscape:connector-curvature="0" /></g><g
           id="g60"
           transform="translate(43.8965,20.4521)"><path
             d="M 0,0 11.287,-6.494 6.556,-11.352 Z"
             style="fill:#fff540;fill-opacity:1;fill-rule:nonzero;stroke:none"
             id="path62"
             inkscape:connector-curvature="0" /></g><g
           id="g64"
           transform="translate(43.8965,20.4521)"><path
             d="M 0,0 6.525,-11.266 0,-13.108 Z"
             style="fill:#f8a13f;fill-opacity:1;fill-rule:nonzero;stroke:none"
             id="path66"
             inkscape:connector-curvature="0" /></g><g
           id="g68"
           transform="translate(43.8965,20.4521)"><path
             d="m 0,0 0.016,-13.02 -6.573,1.668 z"
             style="fill:#fff540;fill-opacity:1;fill-rule:nonzero;stroke:none"
             id="path70"
             inkscape:connector-curvature="0" /></g><g
           id="g72"
           transform="translate(43.8965,20.4521)"><path
             d="m 0,0 -6.496,-11.283 -4.859,4.729 z"
             style="fill:#f8a13f;fill-opacity:1;fill-rule:nonzero;stroke:none"
             id="path74"
             inkscape:connector-curvature="0" /></g><g
           id="g76"
           transform="translate(43.8965,20.4521)"><path
             d="M 0,0 -11.27,-6.525 -13.111,0 Z"
             style="fill:#fff540;fill-opacity:1;fill-rule:nonzero;stroke:none"
             id="path78"
             inkscape:connector-curvature="0" /></g><g
           id="g80"
           transform="translate(43.8965,20.4521)"><path
             d="m 0,0 -13.023,-0.018 1.668,6.573 z"
             style="fill:#f8a13f;fill-opacity:1;fill-rule:nonzero;stroke:none"
             id="path82"
             inkscape:connector-curvature="0" /></g><g
           id="g84"
           transform="translate(43.8965,20.4521)"><path
             d="m 0,0 -11.287,6.495 4.73,4.857 z"
             style="fill:#fff540;fill-opacity:1;fill-rule:nonzero;stroke:none"
             id="path86"
             inkscape:connector-curvature="0" /></g><g
           id="g88"
           transform="translate(41.5586,20.4521)"><path
             d="M 0,0 C 0,1.292 1.046,2.337 2.338,2.337 3.628,2.337 4.676,1.292 4.676,0 4.676,-1.291 3.628,-2.337 2.338,-2.337 1.046,-2.337 0,-1.291 0,0"
             style="fill:#fff540;fill-opacity:1;fill-rule:nonzero;stroke:none"
             id="path90"
             inkscape:connector-curvature="0" /></g></g></g><g
       id="g92"><g
         id="g94"
         clip-path="url(#clipPath98)"><g
           id="g100"
           transform="translate(38.7969,20.3857)"><path
             d="m 0,0 c 0,3.011 7.519,5.454 16.793,5.454 9.273,0 16.792,-2.443 16.792,-5.454 0,-3.013 -7.519,-5.454 -16.792,-5.454 C 7.519,-5.454 0,-3.013 0,0 Z"
             style="fill:none;stroke:#231f20;stroke-width:0.242;stroke-linecap:butt;stroke-linejoin:miter;stroke-miterlimit:4;stroke-dasharray:none;stroke-opacity:1"
             id="path102"
             inkscape:connector-curvature="0" /></g><g
           id="g104"
           transform="translate(47.8281,21.8926)"><path
             d="m 0,0 -0.939,-2.687 c -0.033,-0.096 -0.094,-0.169 -0.187,-0.219 -0.073,-0.037 -0.153,-0.056 -0.237,-0.056 h -2.149 c -0.295,0 -0.443,0.127 -0.443,0.38 0,0.107 0.029,0.242 0.086,0.4 L -3.098,0 h 0.799 l -0.709,-2.035 c -0.008,-0.026 -0.01,-0.051 -0.01,-0.078 0,-0.102 0.043,-0.153 0.128,-0.153 h 1.078 c 0.145,0 0.244,0.073 0.293,0.219 L -0.809,0 Z"
             style="fill:#231f20;fill-opacity:1;fill-rule:nonzero;stroke:none"
             id="path106"
             inkscape:connector-curvature="0" /></g><g
           id="g108"
           transform="translate(50.4629,21.0518)"><path
             d="m 0,0 c 0.004,0.009 0.004,0.021 0.004,0.03 0,0.078 -0.061,0.118 -0.186,0.118 H -1.357 L -1.492,-0.23 h 1.203 c 0.087,0 0.148,0.009 0.185,0.03 0.03,0.017 0.053,0.049 0.067,0.096 z M 0.885,0.21 0.602,-0.581 C 0.533,-0.774 0.413,-0.888 0.242,-0.923 h -1.975 l -0.427,-1.198 -0.805,0.005 1.047,2.96 H 0.416 C 0.566,0.844 0.687,0.81 0.785,0.738 0.881,0.668 0.93,0.567 0.93,0.437 0.93,0.366 0.914,0.292 0.885,0.21"
             style="fill:#231f20;fill-opacity:1;fill-rule:nonzero;stroke:none"
             id="path110"
             inkscape:connector-curvature="0" /></g><g
           id="g112"
           transform="translate(54.6836,20.8213)"><path
             d="m 0,0 c 0.017,0.024 -0.064,-0.206 -0.242,-0.692 h -2.029 l -0.422,-1.199 h -0.81 l 1.048,2.965 H 0.377 L 0.135,0.375 H -1.896 L -2.028,0 Z"
             style="fill:#231f20;fill-opacity:1;fill-rule:nonzero;stroke:none"
             id="path114"
             inkscape:connector-curvature="0" /></g><g
           id="g116"
           transform="translate(56.5352,25.6729)"><path
             d="m 0,0 c 0,0.097 -0.079,0.173 -0.174,0.173 -0.097,0 -0.173,-0.076 -0.173,-0.173 0,-0.095 0.076,-0.173 0.173,-0.173 C -0.079,-0.173 0,-0.095 0,0"
             style="fill:#231f20;fill-opacity:1;fill-rule:nonzero;stroke:none"
             id="path118"
             inkscape:connector-curvature="0" /></g><g
           id="g120"
           transform="translate(56.5352,24.9688)"><path
             d="m 0,0 c 0,0.096 -0.079,0.174 -0.174,0.174 -0.097,0 -0.173,-0.078 -0.173,-0.174 0,-0.095 0.076,-0.172 0.173,-0.172 C -0.079,-0.172 0,-0.095 0,0"
             style="fill:#231f20;fill-opacity:1;fill-rule:nonzero;stroke:none"
             id="path122"
             inkscape:connector-curvature="0" /></g><g
           id="g124"
           transform="translate(56.5352,24.2646)"><path
             d="m 0,0 c 0,0.095 -0.079,0.173 -0.174,0.173 -0.097,0 -0.173,-0.078 -0.173,-0.173 0,-0.096 0.076,-0.173 0.173,-0.173 C -0.079,-0.173 0,-0.096 0,0"
             style="fill:#231f20;fill-opacity:1;fill-rule:nonzero;stroke:none"
             id="path126"
             inkscape:connector-curvature="0" /></g><g
           id="g128"
           transform="translate(56.5352,23.5605)"><path
             d="m 0,0 c 0,0.096 -0.079,0.172 -0.174,0.172 -0.097,0 -0.173,-0.076 -0.173,-0.172 0,-0.096 0.076,-0.173 0.173,-0.173 C -0.079,-0.173 0,-0.096 0,0"
             style="fill:#231f20;fill-opacity:1;fill-rule:nonzero;stroke:none"
             id="path130"
             inkscape:connector-curvature="0" /></g><g
           id="g132"
           transform="translate(56.5352,22.8555)"><path
             d="m 0,0 c 0,0.097 -0.079,0.174 -0.174,0.174 -0.097,0 -0.173,-0.077 -0.173,-0.174 0,-0.095 0.076,-0.172 0.173,-0.172 C -0.079,-0.172 0,-0.095 0,0"
             style="fill:#231f20;fill-opacity:1;fill-rule:nonzero;stroke:none"
             id="path134"
             inkscape:connector-curvature="0" /></g><g
           id="g136"
           transform="translate(56.5352,22.1523)"><path
             d="m 0,0 c 0,0.095 -0.079,0.173 -0.174,0.173 -0.097,0 -0.173,-0.078 -0.173,-0.173 0,-0.096 0.076,-0.174 0.173,-0.174 C -0.079,-0.174 0,-0.096 0,0"
             style="fill:#231f20;fill-opacity:1;fill-rule:nonzero;stroke:none"
             id="path138"
             inkscape:connector-curvature="0" /></g><g
           id="g140"
           transform="translate(56.5352,21.4473)"><path
             d="m 0,0 c 0,0.096 -0.079,0.174 -0.174,0.174 -0.097,0 -0.173,-0.078 -0.173,-0.174 0,-0.096 0.076,-0.174 0.173,-0.174 C -0.079,-0.174 0,-0.096 0,0"
             style="fill:#231f20;fill-opacity:1;fill-rule:nonzero;stroke:none"
             id="path142"
             inkscape:connector-curvature="0" /></g><g
           id="g144"
           transform="translate(56.5352,20.7432)"><path
             d="m 0,0 c 0,0.095 -0.079,0.172 -0.174,0.172 -0.097,0 -0.173,-0.077 -0.173,-0.172 0,-0.097 0.076,-0.173 0.173,-0.173 C -0.079,-0.173 0,-0.097 0,0"
             style="fill:#231f20;fill-opacity:1;fill-rule:nonzero;stroke:none"
             id="path146"
             inkscape:connector-curvature="0" /></g><g
           id="g148"
           transform="translate(56.5352,20.0381)"><path
             d="m 0,0 c 0,0.097 -0.079,0.173 -0.174,0.173 -0.097,0 -0.173,-0.076 -0.173,-0.173 0,-0.095 0.076,-0.173 0.173,-0.173 C -0.079,-0.173 0,-0.095 0,0"
             style="fill:#231f20;fill-opacity:1;fill-rule:nonzero;stroke:none"
             id="path150"
             inkscape:connector-curvature="0" /></g><g
           id="g152"
           transform="translate(56.5352,19.334)"><path
             d="m 0,0 c 0,0.097 -0.079,0.174 -0.174,0.174 -0.097,0 -0.173,-0.077 -0.173,-0.174 0,-0.095 0.076,-0.172 0.173,-0.172 C -0.079,-0.172 0,-0.095 0,0"
             style="fill:#231f20;fill-opacity:1;fill-rule:nonzero;stroke:none"
             id="path154"
             inkscape:connector-curvature="0" /></g><g
           id="g156"
           transform="translate(56.5352,18.6299)"><path
             d="m 0,0 c 0,0.096 -0.079,0.173 -0.174,0.173 -0.097,0 -0.173,-0.077 -0.173,-0.173 0,-0.095 0.076,-0.172 0.173,-0.172 C -0.079,-0.172 0,-0.095 0,0"
             style="fill:#231f20;fill-opacity:1;fill-rule:nonzero;stroke:none"
             id="path158"
             inkscape:connector-curvature="0" /></g><g
           id="g160"
           transform="translate(56.5352,17.9268)"><path
             d="m 0,0 c 0,0.095 -0.079,0.172 -0.174,0.172 -0.097,0 -0.173,-0.077 -0.173,-0.172 0,-0.097 0.076,-0.174 0.173,-0.174 C -0.079,-0.174 0,-0.097 0,0"
             style="fill:#231f20;fill-opacity:1;fill-rule:nonzero;stroke:none"
             id="path162"
             inkscape:connector-curvature="0" /></g><g
           id="g164"
           transform="translate(56.5352,17.2227)"><path
             d="m 0,0 c 0,0.095 -0.079,0.172 -0.174,0.172 -0.097,0 -0.173,-0.077 -0.173,-0.172 0,-0.097 0.076,-0.174 0.173,-0.174 C -0.079,-0.174 0,-0.097 0,0"
             style="fill:#231f20;fill-opacity:1;fill-rule:nonzero;stroke:none"
             id="path166"
             inkscape:connector-curvature="0" /></g><g
           id="g168"
           transform="translate(56.5352,16.5176)"><path
             d="m 0,0 c 0,0.096 -0.079,0.173 -0.174,0.173 -0.097,0 -0.173,-0.077 -0.173,-0.173 0,-0.096 0.076,-0.173 0.173,-0.173 C -0.079,-0.173 0,-0.096 0,0"
             style="fill:#231f20;fill-opacity:1;fill-rule:nonzero;stroke:none"
             id="path170"
             inkscape:connector-curvature="0" /></g><g
           id="g172"
           transform="translate(56.5352,15.8135)"><path
             d="m 0,0 c 0,0.096 -0.079,0.173 -0.174,0.173 -0.097,0 -0.173,-0.077 -0.173,-0.173 0,-0.095 0.076,-0.174 0.173,-0.174 C -0.079,-0.174 0,-0.095 0,0"
             style="fill:#231f20;fill-opacity:1;fill-rule:nonzero;stroke:none"
             id="path174"
             inkscape:connector-curvature="0" /></g><g
           id="g176"
           transform="translate(56.5352,15.1094)"><path
             d="m 0,0 c 0,0.095 -0.079,0.172 -0.174,0.172 -0.097,0 -0.173,-0.077 -0.173,-0.172 0,-0.095 0.076,-0.173 0.173,-0.173 C -0.079,-0.173 0,-0.095 0,0"
             style="fill:#231f20;fill-opacity:1;fill-rule:nonzero;stroke:none"
             id="path178"
             inkscape:connector-curvature="0" /></g></g></g></g></svg>