<svg xmlns="http://www.w3.org/2000/svg" width="43.241" height="57.532" viewBox="0 0 43.241 57.532"><defs><style>.a{fill:#fff;}</style></defs><g transform="translate(0 0)"><g transform="translate(24.277 12.609)"><path class="a" d="M472.783-353.45c1.787,4.152,3.588,7.2,6.318,12.313,1.612,2.774,2.953,5.634,2.991,8.954a9.48,9.48,0,0,1-13.816,8.4,9.321,9.321,0,0,1-4.747-11.122,34.845,34.845,0,0,1,2.574-6c.785-1.582,1.788-3.055,2.688-4.58A36.32,36.32,0,0,0,472.783-353.45Zm-4.808,13.426-.174.038c-.59,2.03-1.61,4.05-2.134,6.089-.424,1.652-.242,4.032.58,5.028,1.559,2.505,3.632.611,2.318-1.17C466.349-333.046,467.949-338.525,467.975-340.024Z" transform="translate(-463.128 353.45)"/></g><g transform="translate(29.72 15.085)"><path class="a" d="M482.527-322.548a17.324,17.324,0,0,1-.151,2.49,8.843,8.843,0,0,0,4.562-2.457,8.247,8.247,0,0,0,2.418-5.924c-.037-3.193-1.4-5.968-2.863-8.491l-.016-.029c-.64-1.2-1.22-2.265-1.78-3.3-1.378-2.538-2.532-4.663-3.624-6.983a41.69,41.69,0,0,1-2.668,4.96c-.2.328-.395.662-.6,1.006-.294.5-.6,1-.9,1.476l-.131.212.155.29C479.947-334.106,482.456-328.756,482.527-322.548Z" transform="translate(-476.777 347.24)"/></g><g transform="translate(0 0)"><path class="a" d="M431.233-341.96a10.21,10.21,0,0,1-5.207-12.2,32.157,32.157,0,0,1,2.378-5.647l.259-.522c.553-1.113,1.208-2.173,1.842-3.2.146-.235.294-.475.441-.715-4.456-8.267-7.555-13.675-10.632-20.822-1.8,5.738-4.435,9.759-7.468,14.9-1.683,2.852-3.56,5.608-5.028,8.566A65.175,65.175,0,0,0,403-350.375c-2.423,8.714,1.165,16.636,8.879,20.8,10.166,5.49,22.61-.722,25.309-11.261a10.172,10.172,0,0,1-1.222.077A9.871,9.871,0,0,1,431.233-341.96Zm-23.143,2.871c-1.422-1.952-1.878-6.314-1.085-9.4.979-3.814,2.637-7.477,3.991-11.389l.325-.071c-1.295,8.607-1.31,13.561,2.276,18.255C416.252-338.22,410.781-335.394,408.089-339.089Z" transform="translate(-402.256 385.066)"/></g></g></svg>