<?xml version="1.0" encoding="UTF-8" standalone="no"?>
<svg
   xmlns:dc="http://purl.org/dc/elements/1.1/"
   xmlns:cc="http://creativecommons.org/ns#"
   xmlns:rdf="http://www.w3.org/1999/02/22-rdf-syntax-ns#"
   xmlns:svg="http://www.w3.org/2000/svg"
   xmlns="http://www.w3.org/2000/svg"
   xmlns:sodipodi="http://sodipodi.sourceforge.net/DTD/sodipodi-0.dtd"
   xmlns:inkscape="http://www.inkscape.org/namespaces/inkscape"
   id="ecomsur"
   width="105.257"
   height="28.156"
   viewBox="0 0 105.257 28.156"
   version="1.1"
   sodipodi:docname="logo_ecomsur.svg"
   inkscape:version="0.92.5 (2060ec1f9f, 2020-04-08)">
  <metadata
     id="metadata51">
    <rdf:RDF>
      <cc:Work
         rdf:about="">
        <dc:format>image/svg+xml</dc:format>
        <dc:type
           rdf:resource="http://purl.org/dc/dcmitype/StillImage" />
      </cc:Work>
    </rdf:RDF>
  </metadata>
  <defs
     id="defs49" />
  <sodipodi:namedview
     pagecolor="#ffffff"
     bordercolor="#666666"
     borderopacity="1"
     objecttolerance="10"
     gridtolerance="10"
     guidetolerance="10"
     inkscape:pageopacity="0"
     inkscape:pageshadow="2"
     inkscape:window-width="640"
     inkscape:window-height="480"
     id="namedview47"
     showgrid="false"
     inkscape:zoom="3.334695"
     inkscape:cx="52.628502"
     inkscape:cy="14.078"
     inkscape:window-x="0"
     inkscape:window-y="27"
     inkscape:window-maximized="0"
     inkscape:current-layer="ecomsur" />
  <g
     id="r"
     transform="translate(99.962 8.888)"
     style="fill:#ffffff">
    <g
       id="Grupo_39"
       data-name="Grupo 39"
       transform="translate(0)"
       style="fill:#ffffff">
      <g
         id="Grupo_38"
         data-name="Grupo 38"
         style="fill:#ffffff">
        <g
           id="Grupo_37"
           data-name="Grupo 37"
           style="fill:#ffffff">
          <g
             id="Grupo_36"
             data-name="Grupo 36"
             style="fill:#ffffff">
            <path
               id="Trazado_78"
               data-name="Trazado 78"
               d="M1488.067,484.546a2.731,2.731,0,0,1,2.458-2.216,2.593,2.593,0,0,1,.717.067l.006,2.312a2.439,2.439,0,0,0-1.048-.186c-1.907,0-1.9,2.336-1.9,3.6l.009,3.237-2.34.006-.017-6.823Z"
               transform="translate(-1485.952 -482.33)"
               style="fill:#ffffff" />
          </g>
        </g>
      </g>
    </g>
  </g>
  <g
     id="u"
     transform="translate(89.227 9.101)"
     style="fill:#ffffff">
    <g
       id="Grupo_40"
       data-name="Grupo 40"
       transform="translate(0)"
       style="fill:#ffffff">
      <path
         id="Trazado_79"
         data-name="Trazado 79"
         d="M1372.7,492.336a3.776,3.776,0,0,1-2.948,1.411c-2.131.006-3.063-1.466-3.068-3.452l-.015-5.562,2.343-.006.011,4.707c0,1.078.025,2.535,1.528,2.532,1.694,0,2.056-1.805,2.054-2.934l-.01-4.317,2.316-.016.031,7.632-2.241.006Z"
         transform="translate(-1366.672 -484.699)"
         style="fill:#ffffff" />
    </g>
  </g>
  <g
     id="s"
     transform="translate(80.901 8.938)"
     style="fill:#ffffff">
    <g
       id="Grupo_41"
       data-name="Grupo 41"
       transform="translate(0 0)"
       style="fill:#ffffff">
      <path
         id="Trazado_80"
         data-name="Trazado 80"
         d="M1276.605,485.553c0-.659.573-.915,1.141-.969l0-1.694-.055,0c-1.842,0-3.537.852-3.533,2.758.009,3.2,4.088,2,4.094,3.736,0,.77-.76,1.03-1.347,1.077l.005,1.692h.014c1.912,0,3.786-.834,3.779-2.9-.008-3.2-4.09-2.292-4.094-3.7Z"
         transform="translate(-1274.154 -482.887)"
         style="fill:#ffffff" />
    </g>
  </g>
  <g
     id="m"
     transform="translate(64.925 9.008)"
     style="fill:#ffffff">
    <path
       id="Trazado_81"
       data-name="Trazado 81"
       d="M1110.761,487.117c-.006-1.987-.937-3.457-3.068-3.453a3.385,3.385,0,0,0-2.948,1.412h-.29a2.741,2.741,0,0,0-2.618-1.413,3.386,3.386,0,0,0-2.949,1.412l-2.253.006.02,7.623L1099,492.7l-.01-4.315c0-1.131.358-2.932,2.052-2.936.987,0,1.334.626,1.457,1.363l.016,5.894,2.342-.006v-.014h.065l-.014-5.124c.16-1.018.671-2.11,1.991-2.113,1.5,0,1.522,1.452,1.525,2.531l.012,4.712,2.342-.005Z"
       transform="translate(-1096.633 -483.664)"
       style="fill:#ffffff" />
  </g>
  <g
     id="o"
     transform="translate(53.358 8.961)"
     style="fill:#ffffff">
    <g
       id="Grupo_42"
       data-name="Grupo 42"
       transform="translate(0 0)"
       style="fill:#ffffff">
      <path
         id="Trazado_82"
         data-name="Trazado 82"
         d="M970.553,487.55a2.287,2.287,0,1,1,4.525-.011c0,1.472-.464,3.051-2.262,3.055s-2.259-1.589-2.263-3.044m-2.445.28a4.712,4.712,0,0,0,9.419-.023,4.71,4.71,0,0,0-9.419.023Z"
         transform="translate(-968.108 -483.143)"
         style="fill:#ffffff" />
    </g>
  </g>
  <g
     id="c"
     transform="translate(43.248 8.877)"
     style="fill:#ffffff">
    <path
       id="Trazado_83"
       data-name="Trazado 83"
       d="M864.413,486.987c-.007-2.87-.747-4.782-4.336-4.782h-.026c-2.61.007-4.291,1.886-4.283,4.787.007,2.929,1.806,4.678,4.811,4.678h.021c.063,0,.124,0,.185,0l.19-.006-.005-1.924-.189.009c-.026,0-.053,0-.087,0a2.731,2.731,0,0,1-2.639-1.911,3.61,3.61,0,0,1,0-1.616c.21-1.386.93-2.09,2.147-2.093a1.8,1.8,0,0,1,1.775,1.941l0,1.045,2.433-.005Z"
       transform="translate(-855.768 -482.205)"
       style="fill:#ffffff" />
  </g>
  <g
     id="e"
     transform="translate(33.406 9)"
     style="fill:#ffffff">
    <g
       id="Grupo_43"
       data-name="Grupo 43"
       transform="translate(0)"
       style="fill:#ffffff">
      <path
         id="Trazado_84"
         data-name="Trazado 84"
         d="M751.209,491.121a2.335,2.335,0,0,1-2.571-2.218l6.212-.016c-.008-3.079-.956-5.318-4.289-5.309-2.791.007-4.165,2.114-4.159,4.664.008,2.891,1.74,4.563,4.707,4.555.085,0,.164,0,.248-.007l0-1.676c-.049,0-.1.007-.144.007m-.5-5.866c1.308,0,1.835.952,1.907,2.064l-3.978.009a2.013,2.013,0,0,1,2.071-2.073Z"
         transform="translate(-746.402 -483.578)"
         style="fill:#ffffff" />
    </g>
  </g>
  <g
     id="Capa_5"
     data-name="Capa 5"
     transform="translate(0 11.384)"
     style="fill:#ffffff">
    <g
       id="Grupo_44"
       data-name="Grupo 44"
       transform="translate(0 0)"
       style="fill:#ffffff">
      <path
         id="Trazado_85"
         data-name="Trazado 85"
         d="M383.992,513.635l-5.144,5.043a1.334,1.334,0,0,1-1.861,0l-1.393-1.365a1.272,1.272,0,0,1,0-1.824l5.144-5.043a1.335,1.335,0,0,1,1.861,0l1.393,1.365A1.272,1.272,0,0,1,383.992,513.635Z"
         transform="translate(-375.209 -510.068)"
         style="fill:#ffffff" />
    </g>
  </g>
  <g
     id="Capa_4"
     data-name="Capa 4"
     transform="translate(0 7.713)"
     style="fill:#ffffff">
    <path
       id="Trazado_86"
       data-name="Trazado 86"
       d="M380.739,477.88l-5.144-5.043a1.272,1.272,0,0,1,0-1.824l1.393-1.365a1.335,1.335,0,0,1,1.861,0l5.144,5.043a1.272,1.272,0,0,1,0,1.824L382.6,477.88A1.335,1.335,0,0,1,380.739,477.88Z"
       transform="translate(-375.209 -469.27)"
       style="fill:#ffffff" />
  </g>
  <g
     id="Capa_3"
     data-name="Capa 3"
     transform="translate(4.913 8.104)"
     style="fill:#ffffff">
    <path
       id="Trazado_87"
       data-name="Trazado 87"
       d="M449.527,481.323l-11.874,11.64a2.5,2.5,0,0,1-3.489,0l-3.647-3.575a2.385,2.385,0,0,1,0-3.42l11.874-11.64a2.5,2.5,0,0,1,3.489,0l3.647,3.575A2.385,2.385,0,0,1,449.527,481.323Z"
       transform="translate(-429.795 -473.62)"
       style="fill:#ffffff" />
  </g>
  <g
     id="big-blue"
     transform="translate(4.841 0)"
     style="fill:#ffffff">
    <path
       id="Trazado_88"
       data-name="Trazado 88"
       d="M443.373,404.679,429.725,391.3a2.385,2.385,0,0,1,0-3.42l3.676-3.6a2.5,2.5,0,0,1,3.489,0l11.9,11.669a2.385,2.385,0,0,1,0,3.42Z"
       transform="translate(-429.003 -383.568)"
       style="fill:#ffffff" />
  </g>
</svg>
