<svg version="1.1" id="Capa_1" xmlns="http://www.w3.org/2000/svg" xmlns:xlink="http://www.w3.org/1999/xlink" x="0px" y="0px"
	 viewBox="0 0 500 148" style="enable-background:new 0 0 500 148;" xml:space="preserve">
<g>
	<path fill="#fff" d="M96.7,11C47.8,11,8.1,37,8.1,69c0,0.8,0,3.1,0,3.4c0,33.9,34.7,61.3,88.6,61.3c54.3,0,88.6-27.4,88.6-61.3
		c0-1.2,0-1.9,0-3.4C185.3,37,145.6,11,96.7,11z M96.7,123.4c-47,0-85.2-24.4-85.2-54.5c0-1.2,0.1-2.4,0.2-3.6c0,0-0.1,0-0.1,0
		c0.1-1.2,0.3-2.5,0.6-3.7c0,0,0,0,0.1,0c0.4-1.8,0.9-3.6,1.5-5.3c0,0,0,0,0,0c0.2-0.7,0.5-1.3,0.8-1.9c0,0,0,0,0,0
		c0.8-1.9,1.8-3.8,3-5.7c0,0,0,0,0,0c0.4-0.6,0.8-1.2,1.2-1.8c0,0,0,0,0-0.1c1.7-2.4,3.6-4.7,5.8-6.9c0,0,0,0,0.1-0.1
		c1.7-1.7,3.5-3.4,5.5-4.9c0,0-0.1,0-0.1,0c1-0.8,2-1.6,3.1-2.3c0,0,0.1,0,0.1,0C49,21.4,71.6,14.4,96.7,14.4
		c26,0,49.2,7.4,64.8,19.2c0,0,0,0,0.1,0c1,0.8,2,1.6,3,2.4c0,0,0,0-0.1,0c1.5,1.2,2.8,2.5,4.1,3.8c0,0,0.1,0.1,0.1,0.1
		c0.5,0.5,1,1,1.4,1.5c0.1,0.1,0.1,0.1,0.2,0.2c0.9,1,1.8,2.1,2.6,3.1c0,0,0,0,0.1,0.1c0.4,0.5,0.7,0.9,1,1.4
		c0.2,0.2,0.3,0.4,0.5,0.7c0.3,0.4,0.6,0.9,0.9,1.3c0.2,0.3,0.3,0.5,0.5,0.8c0.4,0.7,0.8,1.4,1.2,2.1c0.2,0.4,0.4,0.7,0.6,1.1
		c0.2,0.4,0.4,0.7,0.5,1.1c0.2,0.4,0.4,0.9,0.6,1.3c0.1,0.3,0.3,0.6,0.4,0.9c0.3,0.7,0.5,1.4,0.8,2.1c0.1,0.3,0.2,0.6,0.3,0.9
		c0.2,0.5,0.3,1,0.4,1.5c0.1,0.3,0.2,0.6,0.2,0.9c0.1,0.5,0.2,1,0.3,1.6c0,0,0,0,0.1,0c0.2,1.2,0.4,2.4,0.5,3.7c0,0,0,0-0.1,0
		c0.1,0.9,0.1,1.8,0.1,2.7C181.9,99,143.8,123.4,96.7,123.4z"/>
	<path fill="#fff" d="M170.4,41.6c0.9,1,1.8,2.1,2.6,3.1C172.2,43.7,171.3,42.6,170.4,41.6z"/>
	<path fill="#fff" d="M178.9,54.6c0.1,0.3,0.3,0.6,0.4,0.9C179.2,55.2,179,54.9,178.9,54.6z"/>
	<path fill="#fff" d="M168.8,39.9c0.5,0.5,1,1,1.4,1.5C169.8,40.9,169.3,40.4,168.8,39.9z"/>
	<path fill="#fff" d="M180.1,57.6c0.1,0.3,0.2,0.6,0.3,0.9C180.3,58.2,180.2,57.9,180.1,57.6z"/>
	<path fill="#fff" d="M180.8,60.1c0.1,0.3,0.2,0.6,0.2,0.9C180.9,60.7,180.8,60.4,180.8,60.1z"/>
	<path fill="#fff" d="M173.1,44.8c0.4,0.5,0.7,0.9,1,1.4C173.8,45.7,173.5,45.2,173.1,44.8z"/>
	<path fill="#fff" d="M18.9,46.7c1.7-2.4,3.6-4.7,5.8-6.9C22.6,42,20.6,44.3,18.9,46.7z"/>
	<path fill="#fff" d="M168.7,39.8c-1.3-1.3-2.7-2.6-4.1-3.8c0,0,0,0,0,0C166,37.2,167.4,38.5,168.7,39.8z"/>
	<path fill="#fff" d="M174.6,46.9c0.3,0.4,0.6,0.9,0.9,1.3C175.2,47.7,174.9,47.3,174.6,46.9z"/>
	<path fill="#fff" d="M176,49c0.4,0.7,0.8,1.4,1.2,2.1C176.8,50.4,176.4,49.7,176,49z"/>
	<path fill="#fff" d="M14.7,54.3c0.8-1.9,1.8-3.8,3-5.7C16.5,50.5,15.5,52.4,14.7,54.3z"/>
	<path fill="#fff" d="M13.9,56.3c0.2-0.7,0.5-1.3,0.8-1.9C14.4,55,14.1,55.6,13.9,56.3z"/>
	<path fill="#fff" d="M177.8,52.2c0.2,0.4,0.4,0.7,0.5,1.1C178.2,52.9,178,52.5,177.8,52.2z"/>
	<path fill="#fff" d="M17.7,48.6c0.4-0.6,0.8-1.2,1.2-1.8C18.5,47.4,18.1,48,17.7,48.6z"/>
	<path fill="#fff" d="M30.3,34.8c-2,1.6-3.8,3.2-5.5,4.9C26.5,38,28.4,36.4,30.3,34.8C30.3,34.8,30.3,34.8,30.3,34.8z"/>
	<path fill="#fff" d="M13.9,56.3c-0.7,1.8-1.2,3.5-1.5,5.3c0,0,0,0,0,0C12.7,59.8,13.2,58.1,13.9,56.3z"/>
	<path fill="#fff" d="M175.5,48.2c0.2,0.3,0.3,0.5,0.5,0.8C175.8,48.7,175.7,48.4,175.5,48.2z"/>
	<path fill="#fff" d="M180.3,58.6c0.2,0.5,0.3,1,0.4,1.5C180.6,59.6,180.5,59.1,180.3,58.6z"/>
	<path fill="#fff" d="M177.2,51.1c0.2,0.4,0.4,0.7,0.6,1.1C177.6,51.8,177.4,51.4,177.2,51.1z"/>
	<path fill="#fff" d="M179.3,55.5c0.3,0.7,0.5,1.4,0.8,2.1C179.8,56.9,179.6,56.2,179.3,55.5z"/>
	<path fill="#fff" d="M178.3,53.3c0.2,0.4,0.4,0.9,0.6,1.3C178.7,54.1,178.5,53.7,178.3,53.3z"/>
	<path fill="#fff" d="M174.1,46.2c0.2,0.2,0.3,0.4,0.5,0.7C174.4,46.6,174.3,46.4,174.1,46.2z"/>
	<path fill="#fff" d="M170.2,41.4c0.1,0.1,0.1,0.1,0.2,0.2C170.3,41.5,170.3,41.5,170.2,41.4z"/>
	<path fill="#fff" d="M168.7,39.8c0,0,0.1,0.1,0.1,0.1C168.7,39.8,168.7,39.8,168.7,39.8z"/>
	<path fill="#fff" d="M173,44.7C173.1,44.7,173.1,44.8,173,44.7C173.1,44.8,173.1,44.7,173,44.7z"/>
	<path fill="#fff" d="M181.3,62.5c-0.1-0.5-0.2-1-0.3-1.6C181.1,61.5,181.2,62,181.3,62.5C181.3,62.5,181.3,62.5,181.3,62.5z"/>
	<path fill="#fff" d="M13.9,56.3C13.9,56.3,13.9,56.3,13.9,56.3C13.9,56.3,13.9,56.3,13.9,56.3z"/>
	<path fill="#fff" d="M17.7,48.6C17.7,48.6,17.7,48.6,17.7,48.6C17.7,48.6,17.7,48.6,17.7,48.6z"/>
	<path fill="#fff" d="M24.7,39.8C24.8,39.8,24.8,39.8,24.7,39.8C24.8,39.8,24.8,39.8,24.7,39.8z"/>
	<path fill="#fff" d="M18.9,46.8C18.9,46.8,18.9,46.7,18.9,46.8C18.9,46.7,18.9,46.8,18.9,46.8z"/>
	<path fill="#fff" d="M14.6,54.3C14.7,54.3,14.7,54.3,14.6,54.3C14.7,54.3,14.7,54.3,14.6,54.3z"/>
	<path fill="#fff" d="M163.7,35.2C163.7,35.3,163.7,35.3,163.7,35.2c0.3,0.3,0.6,0.5,0.9,0.7c0,0,0,0,0.1,0c-1-0.8-2-1.6-3-2.4
		c0,0,0,0-0.1,0C162.3,34.1,163,34.7,163.7,35.2C163.7,35.2,163.7,35.2,163.7,35.2z"/>
	<path fill="#fff" d="M32.1,33.4C32.1,33.4,32.1,33.4,32.1,33.4c0.4-0.3,0.9-0.6,1.3-1c0,0-0.1,0-0.1,0c-1.1,0.7-2.1,1.5-3.1,2.3
		c0,0,0.1,0,0.1,0C30.9,34.3,31.5,33.9,32.1,33.4C32.1,33.4,32.1,33.4,32.1,33.4z"/>
	<path fill="#fff" d="M181.4,63.2c0.2,1,0.3,2,0.4,3c0,0,0,0,0.1,0c-0.1-1.2-0.3-2.5-0.5-3.7c0,0,0,0-0.1,0
		C181.4,62.8,181.4,63,181.4,63.2C181.4,63.2,181.4,63.2,181.4,63.2z"/>
	<path fill="#fff" d="M12.2,62.3C12.2,62.3,12.2,62.3,12.2,62.3c0.1-0.3,0.1-0.5,0.1-0.7c0,0,0,0-0.1,0c-0.3,1.2-0.4,2.4-0.6,3.7
		c0,0,0,0,0.1,0C11.8,64.3,12,63.3,12.2,62.3C12.2,62.3,12.2,62.3,12.2,62.3z"/>
	<path fill="#fff" d="M32.1,33.4c-0.6,0.4-1.2,0.9-1.8,1.4c0,0,0,0,0,0C30.9,34.3,31.5,33.9,32.1,33.4z"/>
	<path fill="#fff" d="M12.3,61.7C12.3,61.7,12.3,61.7,12.3,61.7c-0.1,0.2-0.1,0.4-0.1,0.7C12.2,62.1,12.3,61.9,12.3,61.7z"/>
	<path fill="#fff" d="M48.4,77.9c-0.4,1-0.7,2.2-0.7,3.3c0,4.7,3.9,8.6,8.6,8.6c0.5,0,1.1,0,1.6-0.1c0.7,3.5,3,6.1,6.5,7.5
		c1,0.4,2.1,0.6,3.1,0.6c0.7,0,1.3-0.1,2-0.2c0.6,1.6,2.1,3.7,5.3,5c1.1,0.5,2.3,0.7,3.4,0.7c0.9,0,1.8-0.2,2.6-0.5
		c1.6,3.8,5.2,6.3,9.4,6.3c2.7,0,5.4-1.1,7.3-3.1c1.6,0.9,5.1,2.6,8.6,2.6c0.5,0,0.9,0,1.3-0.1c3.5-0.4,5.1-1.8,5.8-2.8
		c0.1-0.2,0.3-0.4,0.4-0.6c0.8,0.2,1.7,0.4,2.7,0.4c1.9,0,3.7-0.6,5.5-2c1.8-1.3,3.1-3.2,3.3-4.8c0,0,0,0,0-0.1
		c0.6,0.1,1.2,0.2,1.9,0.2c1.9,0,3.9-0.6,5.7-1.8c3.5-2.3,4.1-5.3,4.1-7.3c0.6,0.1,1.3,0.2,1.9,0.2c1.8,0,3.6-0.6,5.3-1.6
		c2.2-1.4,3.5-3.5,3.7-6c0.1-1.7-0.3-3.4-1.2-4.9c5.9-2.5,19.4-7.5,35.3-11.1c-0.1-1-0.2-2-0.4-3c-19.7,4.3-34.2,10.6-37.5,12.1
		c-4-3.5-27.5-24-33.3-28.4c-3.1-2.3-5-3.4-6.7-3.9c-1.5-0.5-3.8-0.9-7.3,0.2c-3.4,1.1-6.7,3.7-10.1,6.4c-3.1,2.5-6.3,5-8.8,5.6
		c-4.2,0.9-8.4,0-9.7-1.8c-0.6-0.7,0.3-1.6,0.3-1.7l7.4-8c5.9-5.9,11.4-11.4,24.2-11.7c8.6-0.2,17.3,3.9,17.4,4
		c16.1,7.9,32.6,4.9,46.1-0.7c-0.7-0.6-1.4-1.1-2.1-1.6c-7.6,3.3-14.8,4.9-21.7,4.9c-7.1,0-14.2-1.7-21.1-5.1c-0.4-0.2-9-4.3-18-4.3
		c-0.2,0-0.5,0-0.7,0c-10.6,0.2-16.5,4-20.5,7.3c-3.9,0.1-7.3,1-10.2,1.9c-2.7,0.7-5,1.4-7.2,1.4c-0.9,0-2.6-0.1-2.7-0.1
		c-2.6-0.1-15.5-3.3-25.9-7.2c-0.4,0.3-0.9,0.6-1.3,1c8.9,4.2,14.9,6,21.7,7.9c1.1,0.3,7.1,1.3,8.2,1.3c2.7,0,5.3-0.7,8-1.5
		c2.2-0.6,4.4-1.2,6.9-1.5c-0.9,0.9-1.8,1.7-2.7,2.6l-7.5,8.1c-0.2,0.2-1.7,1.7-0.9,3.6c0.3,0.7,0.9,1.4,1.8,2
		c2.2,1.5,6.9,2.5,10.7,1.6c3-0.7,6.3-3.3,9.7-6c3.3-2.6,7.1-5.2,10-5.9c1.1-0.3,2.6-0.5,3.6-0.3c2.1,0.3,4.1,1,7.7,3.6
		c6.2,4.6,33.5,28.5,33.7,28.8c0,0,2,1.7,1.8,4.4c-0.1,1.6-1,3-2.4,3.9c-4,2.6-7.3,0.2-7.4,0.1c0,0-9.4-8.6-12.9-11.5
		c-0.5-0.4-1.2-1-1.6-0.6c-0.4,0.5,0.7,1.5,0.7,1.5l10.9,11c0,0,1.5,1.4,1.7,3.3c0.1,1.5-0.4,3.4-2.8,5c-4,2.6-7,0.8-7.7,0.3
		c-3.4-3.4-7-6.9-9.5-9c-0.5-0.4-1.2-1-1.6-0.6c-0.4,0.4,0.8,1.5,0.8,1.5l8,9c0,0,1.9,2.3,0.2,4.5c0,0,0,0,0.1-0.1
		c-0.3,0.4-0.8,0.9-1.2,1.2c-1.7,1.4-4,1.5-5.4,1.3c-1.6-0.3-1.9-0.8-1.9-0.9c0,0-4.2-4.4-7.7-7.3c-0.5-0.4-1.2-1-1.6-0.6
		c-0.4,0.4,0.8,1.5,0.8,1.5l6.8,7.6c0.2,0.3,0,0.7-0.3,1c-0.4,0.5-1.3,1.4-3.9,1.7c-3.2,0.4-6.9-1.4-8.3-2.2
		c0.7-1.4,1.1-2.9,1.1-4.5c0-5.3-4.3-9.6-9.6-9.6c-0.3,0-0.6,0-1,0.1c0.4-3.3-0.3-7.7-4.8-9.6c-1.4-0.6-2.7-0.9-4-0.9
		c-1.3,0-2.5,0.3-3.4,0.7c-0.7-1.6-2.1-3.5-4.9-4.4c-1.2-0.4-2.3-0.6-3.5-0.6c-2.5,0-4.4,0.9-5.8,2c-1.5-2.1-3.9-3.4-6.6-3.4
		c-2.4,0-4.5,1-6,2.7c-1.4-1.2-8.9-6.7-33.1-12.1c-1-0.2-3.5-1-5.1-1.4c-0.2,1-0.3,2-0.4,3c0.5,0.1,4.1,1,4.9,1.2
		C39.6,71.6,47.2,76.9,48.4,77.9z M56.4,75.2c3,0,5.5,2.3,5.9,5.2c0.8-1.3,4.1-4.9,9.2-3.3c3.6,1.1,4.1,4.4,4.2,5.6
		c0,0.3,0.1,0.3,0.4,0.1c0.9-0.9,3.4-2.9,7.6-1.1c5.4,2.3,3.2,9,3,9.4c-0.2,0.4-0.4,1.1-0.3,1.2c0.2,0.1,2.1-0.9,3.8-0.8
		c4.1,0,7.5,3.4,7.5,7.5c0,4.1-3.4,7.5-7.5,7.5c-4,0-7.3-3.2-7.5-7.1c0-0.7-0.2-0.8-0.7-0.3c-1.2,1.1-3.1,2.4-6.2,1.2
		c-4.1-1.7-4.4-4.6-4.2-6c0.1-0.4,0-0.6-0.5-0.3c-1.6,1.1-3.5,1.8-5.7,0.9c-5.6-2.2-5.1-7.5-4.9-9c0-0.1,0-0.2,0-0.2
		c-1.1,1-2.5,1.7-4.1,1.7c-3.3,0-5.9-2.7-5.9-5.9C50.4,77.9,53.1,75.2,56.4,75.2z"/>
	<path fill="#fff" d="M164.5,36C164.5,36,164.6,36,164.5,36c-0.3-0.2-0.5-0.5-0.8-0.7C164,35.5,164.3,35.8,164.5,36z"/>
	<path fill="#fff" d="M163.7,35.2C163.7,35.2,163.7,35.2,163.7,35.2C163.7,35.3,163.7,35.3,163.7,35.2
		C163.7,35.3,163.7,35.3,163.7,35.2z"/>
	<path fill="#fff" d="M181.4,63.2C181.4,63.2,181.4,63.2,181.4,63.2c0-0.2-0.1-0.5-0.1-0.7c0,0,0,0,0,0
		C181.4,62.8,181.4,63,181.4,63.2z"/>
	<path fill="#fff" d="M144.1,74.6c-8.4-7.3-27.8-24.2-33.1-28.2c-3-2.3-5.1-3.5-6.9-4c-0.8-0.2-1.9-0.5-3.4-0.5
		c-1.3,0-2.8,0.2-4.3,0.7c-3.4,1.1-6.8,3.8-10.1,6.4l-0.2,0.1c-3.1,2.4-6.2,4.9-8.6,5.5c-1,0.2-2.1,0.4-3.2,0.4
		c-2.7,0-5.1-0.8-6-1.9c-0.1-0.2-0.1-0.5,0.3-0.9l0-0.1l7.4-8c5.8-5.8,11.3-11.3,23.9-11.5c0.2,0,0.4,0,0.6,0
		c7.8,0,15.7,3.5,16.6,3.9c7.3,3.6,14.9,5.4,22.6,5.4c7.9,0,16.1-2,24.7-5.9c-0.3-0.2-0.5-0.5-0.8-0.7c0,0,0,0-0.1-0.1
		c-13.5,5.7-30,8.6-46.1,0.7c-0.1,0-8.8-4.2-17.4-4c-12.8,0.3-18.3,5.8-24.2,11.7l-7.4,8c0,0.1-0.9,1-0.3,1.7
		c1.3,1.7,5.5,2.7,9.7,1.8c2.5-0.6,5.7-3.1,8.8-5.6c3.4-2.7,6.7-5.3,10.1-6.4c3.6-1.1,5.8-0.6,7.3-0.2c1.7,0.5,3.6,1.6,6.7,3.9
		c5.8,4.4,29.3,24.8,33.3,28.4c3.3-1.5,17.8-7.7,37.5-12.1c0-0.2-0.1-0.4-0.1-0.7C162.1,66.8,147.7,73,144.1,74.6z"/>
	<path fill="#fff" d="M12.2,62.3C12.2,62.3,12.2,62.3,12.2,62.3C12.2,62.3,12.2,62.3,12.2,62.3C12.2,62.3,12.2,62.3,12.2,62.3z"/>
	<polygon fill="#fff" points="32.1,33.4 32.1,33.4 32.1,33.4 	"/>
	<path fill="#fff" d="M30.3,34.8c10.8,4.4,23.9,7.8,28.1,8.1c1.2,0.1,2.4,0.2,3.6,0.2c2.7,0,5.5-0.8,8.2-1.5
		c1.6-0.4,3.3-0.9,5.1-1.3c-0.5,0.5-1,1-1.5,1.4l-7.5,8.1c-0.6,0.6-1.9,2.2-1,4.2c0.3,0.8,1,1.5,2,2.2c1.8,1.2,5,2,8,2
		c1.1,0,2.2-0.1,3.2-0.3c3.1-0.7,6.5-3.3,10-6.1c2.8-2.2,6.7-5,9.8-5.9c0.8-0.2,1.9-0.4,2.7-0.4c0.3,0,0.5,0,0.7,0
		c2,0.3,3.9,0.9,7.4,3.5c6.2,4.6,33.5,28.5,33.7,28.7c0,0,1.8,1.5,1.6,4c-0.1,1.4-0.8,2.6-2.2,3.5c-1.2,0.7-2.4,1.1-3.6,1.1
		c-1.8,0-3.1-0.9-3.2-0.9c-0.1-0.1-9.5-8.7-12.9-11.5c-0.5-0.5-1.1-0.9-1.6-0.9c-0.3,0-0.5,0.1-0.7,0.3c-0.5,0.7,0.1,1.6,0.8,2.2
		l10.9,11c0,0,1.4,1.3,1.5,3c0.1,1.8-0.8,3.3-2.6,4.5c-1.3,0.8-2.6,1.3-3.9,1.3c-1.7,0-2.9-0.8-3.1-0.9l-1.6-1.5
		c-2.9-2.8-5.8-5.7-8-7.5c-0.5-0.4-1.1-0.8-1.6-0.8c-0.3,0-0.5,0.1-0.7,0.3c-0.2,0.3-0.4,0.8,0.2,1.6c0.3,0.3,0.6,0.6,0.6,0.6l8,9
		c0.1,0.1,1.6,2,0.2,3.8l-0.3,0.4c-0.2,0.3-0.5,0.5-0.7,0.7c-1.4,1.1-3.2,1.2-3.9,1.2c-0.4,0-0.8,0-1.1-0.1
		c-0.8-0.1-1.3-0.4-1.6-0.7l-0.1-0.1c-0.4-0.4-4.5-4.6-7.8-7.3c-0.4-0.4-1-0.8-1.5-0.8c-0.3,0-0.5,0.1-0.7,0.3
		c-0.7,0.7,0.3,1.8,0.7,2.2l6.8,7.5c0,0.1-0.1,0.2-0.3,0.5c-0.2,0.3-1.1,1.2-3.5,1.5c-0.3,0-0.6,0.1-0.9,0.1c-2.5,0-5.3-1.2-6.7-2
		c0.6-1.3,1-2.8,1-4.3c0-5.6-4.5-10.1-10.1-10.1c-0.1,0-0.2,0-0.4,0c0.2-2.6-0.2-7.4-5.1-9.5c-1.4-0.6-2.9-0.9-4.2-0.9
		c-1.1,0-2.1,0.2-3.1,0.6c-1-2-2.7-3.5-5-4.2c-1.2-0.4-2.5-0.6-3.6-0.6c-2.1,0-4,0.6-5.7,1.8c-1.6-2-4.1-3.2-6.7-3.2
		c-2.3,0-4.4,0.9-6.1,2.5c-2.1-1.6-10.5-6.9-33-12c-1.1-0.2-3.5-0.9-5-1.4c0,0.2-0.1,0.4-0.1,0.7c0,0,0,0,0,0c1.5,0.4,4,1.1,5.1,1.4
		C41.5,69.1,49,74.7,50.4,75.8c1.5-1.6,3.6-2.7,6-2.7c2.7,0,5.1,1.3,6.6,3.4c1.4-1.1,3.3-2,5.8-2c1.1,0,2.3,0.2,3.5,0.6
		c2.7,0.9,4.1,2.8,4.9,4.4c0.9-0.4,2-0.7,3.4-0.7c1.3,0,2.7,0.3,4,0.9c4.5,1.9,5.2,6.3,4.8,9.6c0.3,0,0.6-0.1,1-0.1
		c5.3,0,9.6,4.3,9.6,9.6c0,1.6-0.4,3.2-1.1,4.5c1.4,0.8,5.1,2.6,8.3,2.2c2.6-0.3,3.6-1.2,3.9-1.7c0.2-0.3,0.5-0.7,0.3-1l-6.8-7.6
		c0,0-1.1-1.1-0.8-1.5c0.4-0.4,1.1,0.2,1.6,0.6c3.5,2.9,7.7,7.3,7.7,7.3c0.1,0,0.4,0.6,1.9,0.9c1.4,0.2,3.7,0.1,5.4-1.3
		c0.4-0.3,0.8-0.8,1.2-1.2c0,0,0,0.1-0.1,0.1c1.7-2.2-0.2-4.5-0.2-4.5l-8-9c0,0-1.1-1.1-0.8-1.5c0.3-0.4,1.1,0.2,1.6,0.6
		c2.5,2.1,6.1,5.7,9.5,9c0.7,0.5,3.7,2.3,7.7-0.3c2.4-1.6,2.9-3.5,2.8-5c-0.2-1.9-1.7-3.3-1.7-3.3l-10.9-11c0,0-1.2-1-0.7-1.5
		c0.3-0.4,1.1,0.2,1.6,0.6C125.6,77.4,135,86,135,86c0.1,0.1,3.4,2.4,7.4-0.1c1.4-0.9,2.4-2.3,2.4-3.9c0.1-2.8-1.8-4.4-1.8-4.4
		c-0.3-0.2-27.6-24.1-33.7-28.8c-3.6-2.7-5.6-3.4-7.7-3.6c-1.1-0.1-2.6,0.1-3.6,0.3c-2.9,0.8-6.6,3.3-10,5.9c-3.5,2.8-6.7,5.3-9.7,6
		c-3.9,0.9-8.6-0.2-10.7-1.6c-0.9-0.6-1.5-1.3-1.8-2c-0.8-1.8,0.7-3.3,0.9-3.6l7.5-8.1c0.9-0.9,1.8-1.7,2.7-2.6
		c-2.4,0.3-4.7,0.9-6.9,1.5c-2.7,0.8-5.4,1.5-8,1.5c-1.1,0-7-1-8.2-1.3C47,39.4,41,37.6,32.1,33.4c0,0,0,0,0,0
		C31.5,33.9,30.9,34.3,30.3,34.8z"/>
	<g>
		<path fill="#fff" d="M487.2,32c-3.2-4-8.1-6-14.6-6c-6.5,0-11.4,2-14.6,6c-3.2,4-4.8,8.7-4.8,14.2c0,5.6,1.6,10.3,4.8,14.3
			c3.2,3.9,8.1,5.9,14.6,5.9c6.5,0,11.4-2,14.6-5.9c3.2-4,4.8-8.7,4.8-14.3C492,40.8,490.4,36,487.2,32z M479.3,55
			c-1.6,2.1-3.8,3.1-6.7,3.1c-2.9,0-5.1-1-6.7-3.1c-1.6-2.1-2.3-5-2.3-8.8c0-3.8,0.8-6.7,2.3-8.8c1.6-2,3.8-3.1,6.7-3.1
			c2.9,0,5.1,1,6.7,3.1c1.5,2,2.3,5,2.3,8.8C481.6,50,480.8,53,479.3,55z"/>
		<path fill="#fff" d="M405.5,28.7c-3.2-1.6-7-2.5-11.1-2.5c-6.4,0-11,1.7-13.6,5c-1.7,2.1-2.6,4.9-2.8,8.2h9.6
			c0.2-1.5,0.7-2.6,1.4-3.5c1-1.2,2.7-1.7,5-1.7c2.1,0,3.7,0.3,4.8,0.9c1.1,0.6,1.6,1.7,1.6,3.2c0,1.3-0.7,2.2-2.1,2.8
			c-0.8,0.3-2.1,0.6-4,0.9l-3.4,0.4c-3.9,0.5-6.8,1.3-8.8,2.4c-3.6,2.1-5.4,5.5-5.4,10.1c0,3.6,1.1,6.4,3.4,8.4
			c2.2,2,5.1,2.8,8.6,2.9c21.7,1,21.4-11.4,21.6-14V38C410.3,33.5,408.7,30.3,405.5,28.7z M400.4,50.3c-0.1,3.3-1,5.6-2.8,6.9
			c-1.8,1.3-3.8,1.9-6,1.9c-1.4,0-2.5-0.4-3.5-1.1c-1-0.8-1.4-2-1.4-3.7c0-1.9,0.8-3.3,2.3-4.2c0.9-0.5,2.4-1,4.6-1.4l2.3-0.4
			c1.1-0.2,2-0.4,2.7-0.7c0.7-0.2,1.3-0.6,1.9-1V50.3z"/>
		<path fill="#fff" d="M356,34.7c2.5,0,4.3,0.8,5.5,2.3c0.8,1.1,1.3,2.4,1.5,3.8h10.7c-0.6-5.4-2.5-9.2-5.7-11.3
			c-3.2-2.1-7.3-3.2-12.3-3.2c-5.9,0-10.5,1.8-13.9,5.4c-3.4,3.6-5,8.7-5,15.2c0,5.8,1.5,10.4,4.5,14.1c3,3.6,7.8,5.4,14.2,5.4
			c6.4,0,11.3-2.2,14.6-6.5c2.1-2.7,3.2-5.5,3.4-8.6h-10.7c-0.2,2-0.8,3.6-1.9,4.9c-1,1.2-2.8,1.9-5.2,1.9c-3.5,0-5.8-1.6-7.1-4.7
			c-0.7-1.7-1-3.9-1-6.7c0-2.9,0.3-5.2,1-7C350.1,36.4,352.5,34.7,356,34.7z"/>
		<path fill="#fff" d="M334,26.3c-22,0-20.7,19.5-20.7,19.5v19.8h10V47c0-3,0.4-5.3,1.1-6.8c1.4-2.6,4-3.9,8-3.9c0.3,0,0.7,0,1.2,0
			c0.5,0,1,0.1,1.7,0.1V26.4c-0.4,0-0.7,0-0.9-0.1C334.3,26.3,334.1,26.3,334,26.3z"/>
		<path fill="#fff" d="M297.3,55.2c-0.4,0.6-0.9,1.1-1.4,1.5c-1.4,1.2-3.3,1.5-5.6,1.5c-2.1,0-3.8-0.3-5.3-1.3
			c-2.5-1.5-3.9-4.1-4-7.9h27.6c0-3.3-0.1-5.8-0.3-7.5c-0.5-3-1.5-5.6-3-7.8c-1.7-2.6-3.9-4.4-6.5-5.6c-2.6-1.2-5.6-1.8-8.9-1.8
			c-5.6,0-10.1,1.8-13.6,5.3c-3.5,3.5-5.2,8.5-5.2,15.1c0,7,1.9,12.1,5.8,15.2c3.9,3.1,8.3,4.7,13.3,4.7c6.1,0,10.9-1.8,14.3-5.5
			c1.8-1.9,3-3.9,3.5-5.8H297.3z M283.9,36.7c1.4-1.4,3.4-2.2,5.9-2.2c2.3,0,4.3,0.7,5.9,2c1.6,1.4,2.5,3.4,2.6,6h-17.1
			C281.6,40.1,282.5,38.1,283.9,36.7z"/>
		<g>
			<path fill="#fff" d="M267,65.6h-9.1V42.6c0-2.1-0.7-7.1-6.7-7.1c-4,0-6.9,2.9-6.9,7.1v22.9h-9.1V42.6c0-2.1-0.6-7.1-6.6-7.1
				c-4.1,0-6.9,2.9-6.9,7.1v22.9h-9.1V42.8c0-9.5,6.3-16.6,16-16.6c4.8,0,8.8,2,11.3,5.3c2.7-3.3,6.7-5.3,11.3-5.3
				c9.9,0,15.8,6.9,15.8,16.6V65.6z"/>
		</g>
		<path fill="#fff" d="M450.3,14.4c0,0-10-1.1-10,7l0,10.7c-1.1-1.8-2.6-3.2-4.3-4.2c-1.8-1-3.8-1.5-6.1-1.5c-5,0-9,1.9-11.9,5.6
			c-3,3.7-4.5,9.1-4.5,15.5c0,5.6,1.5,10.2,4.5,13.8c3,3.6,9,5.1,14.2,5.1c18.4,0,18.2-15.8,18.2-15.8L450.3,14.4z M438.3,55.1
			c-1.5,2.1-3.6,3.1-6.4,3.1c-2.8,0-4.9-1.1-6.3-3.1c-1.4-2.1-2.1-5.2-2.1-8.7c0-3.2,0.7-6,2-8.2c1.4-2.2,3.5-3.3,6.4-3.3
			c1.9,0,3.6,0.6,5,1.8c2.3,2,3.5,5.6,3.5,10.2C440.5,50.3,439.8,53,438.3,55.1z"/>
	</g>
	<g>
		<g>
			<path fill="#fff" d="M285.4,128.9c0,1.3-0.5,2.5-1.5,3.5c-1,1-2.1,1.4-3.5,1.4h-5V99.1c0-6.7,2.3-11,6-13.8
				c2.5-1.9,6.2-3.7,13-3.7c4.7,0,10.1,1.8,13.1,5.4c3.3,4,4.7,8.5,4.7,14.4c0,6.1-1.5,11-4.4,14.8c-2.9,3.7-6.7,5.5-11.3,5.5
				c-2.4,0-4.6-0.4-6.4-1.3c-2-1-3.5-2.5-4.7-4.5V128.9z M302.1,101.9c0-3.8-0.7-6.7-2.2-8.7c-1.5-2-3.6-3-6.3-3c-2.6,0-4.7,1-6.2,3
				c-1.4,1.8-2,4.7-2,8.7c0,3.7,0.7,6.4,2.2,8.2c1.5,2,3.6,3,6.3,3c2.5,0,4.5-1,6-3C301.4,108.1,302.1,105.4,302.1,101.9"/>
			<path fill="#fff" d="M378.3,118.5v-2.4c-1.7,2.7-4.1,4.4-7,5.1c-2.9,0.7-5.8,0.4-8.7-0.7c-2.9-1.2-5.4-3.3-7.4-6.4
				c-2.1-3.1-3.1-7.3-3.1-12.4c0-6,1.4-10.8,4.1-14.5c2.7-3.7,7.1-5.4,13.2-5.6c6-0.2,9.4,1.2,12.8,3.8c3.7,2.8,5.9,7.1,5.9,13.9
				v20.4c0,6.5-4.5,18.5-18.7,17.5c-8.8-0.6-13.7-4.3-16.4-12.4h10.5c0.8,1.3,1.9,2.4,3.5,3.1c1.6,0.7,3.2,0.9,4.7,0.6
				c1.6-0.3,3-1.3,4.3-2.8C377.4,123.9,378.1,121.6,378.3,118.5 M361.9,101.9c0,6.6,1.9,10.3,5.8,11.1c3.8,0.7,6.7-0.2,8.5-2.7
				c0.9-1.1,1.5-2.7,1.9-5c0.4-2.3,0.4-4.5,0.1-6.7c-0.3-2.2-1.1-4.2-2.4-5.9c-1.2-1.7-3.1-2.6-5.5-2.6c-3.3,0-5.5,1.2-6.6,3.6
				C362.5,96.1,361.9,98.8,361.9,101.9"/>
			<path fill="#fff" d="M343.6,84.3c-3.2-1.6-7-2.5-11.1-2.5c-6.4,0-11,1.7-13.6,5c-1.7,2.1-2.6,4.9-2.8,8.2h9.6
				c0.2-1.5,0.7-2.6,1.4-3.5c1-1.2,2.7-1.7,5-1.7c2.1,0,3.7,0.3,4.8,0.9c1.1,0.6,1.6,1.7,1.6,3.2c0,1.3-0.7,2.2-2.1,2.8
				c-0.8,0.3-2.1,0.6-4,0.9L329,98c-3.9,0.5-6.8,1.3-8.8,2.4c-3.6,2.1-5.4,5.5-5.4,10.1c0,3.6,1.1,6.4,3.4,8.4c2.2,2,5.1,2.8,8.6,3
				c21.7,1,21.4-11.4,21.6-14V93.6C348.4,89,346.8,85.9,343.6,84.3 M338.5,105.9c-0.1,3.3-1,5.6-2.8,6.9c-1.8,1.3-3.8,1.9-6,1.9
				c-1.4,0-2.5-0.4-3.5-1.1c-1-0.8-1.4-2-1.4-3.7c0-1.9,0.8-3.3,2.3-4.2c0.9-0.5,2.4-1,4.6-1.4l2.3-0.4c1.1-0.2,2-0.4,2.7-0.7
				c0.7-0.2,1.3-0.6,1.9-1V105.9z"/>
			<path fill="#fff" d="M425.8,87.4c-3.2-4-8.1-6-14.6-6c-6.5,0-11.4,2-14.6,6c-3.2,4-4.8,8.7-4.8,14.2c0,5.6,1.6,10.3,4.8,14.3
				c3.2,3.9,8.1,5.9,14.6,5.9c6.5,0,11.4-2,14.6-5.9c3.2-4,4.8-8.7,4.8-14.3C430.6,96.1,429,91.4,425.8,87.4 M417.9,110.4
				c-1.5,2.1-3.8,3.1-6.7,3.1c-2.9,0-5.1-1-6.7-3.1c-1.6-2.1-2.3-5-2.3-8.8c0-3.8,0.8-6.7,2.3-8.8c1.6-2.1,3.8-3.1,6.7-3.1
				c2.9,0,5.1,1,6.7,3.1c1.6,2,2.3,5,2.3,8.8C420.2,105.4,419.5,108.3,417.9,110.4"/>
		</g>
	</g>
</g>
</svg>
