<svg xmlns="http://www.w3.org/2000/svg" width="28.299" height="18.184" viewBox="0 0 28.299 18.184"><defs><style>.a{fill:#282321;}</style></defs><g transform="translate(-4.557 -25.804)"><path class="a" d="M32.523,33.5l-2.909-.59-2.959-5.028a.416.416,0,0,0-.359-.205h-1.42V26.221a.417.417,0,0,0-.417-.417H23.006a.417.417,0,0,0-.417.417v1.455H21.5V26.221a.416.416,0,0,0-.417-.417H4.974a.416.416,0,0,0-.417.417V41.814a.417.417,0,0,0,.417.417h2.5a3.622,3.622,0,0,0,6.211,0H23.728a3.622,3.622,0,0,0,6.211,0h2.5a.417.417,0,0,0,.417-.417V33.907a.417.417,0,0,0-.334-.408Zm-.5,3.057H30.878v-.771h1.146Zm-3.4-3.692h-5.2V30.282H27.1Zm-5.2-6.227h.619v1.038h-.619Zm2.634,1.871.554.941h-3.6a.417.417,0,0,0-.417.417V33.28a.417.417,0,0,0,.417.417h6.3l2.716.551v.7H30.461a.417.417,0,0,0-.417.417v1.6a.417.417,0,0,0,.417.417h1.562v1.106H29.947a3.622,3.622,0,0,0-6.227,0H21.5V28.509Zm-5.39-1.871V38.495H13.693a3.622,3.622,0,0,0-6.227,0H5.39V26.636ZM5.39,41.4V39.328H7.1a3.594,3.594,0,0,0,0,2.069Zm5.189,1.758a2.8,2.8,0,1,1,2.8-2.8,2.8,2.8,0,0,1-2.8,2.8ZM14.059,41.4a3.594,3.594,0,0,0,0-2.069h9.29a3.594,3.594,0,0,0,0,2.069Zm12.775,1.759a2.8,2.8,0,1,1,2.8-2.8,2.8,2.8,0,0,1-2.8,2.8ZM32.023,41.4H30.312a3.594,3.594,0,0,0,0-2.069h1.708Z"/><path class="a" d="M24.7,80.158a1.613,1.613,0,1,0,1.614,1.614A1.613,1.613,0,0,0,24.7,80.158Zm0,2.394a.78.78,0,1,1,.781-.78.78.78,0,0,1-.781.78Z" transform="translate(-14.115 -41.416)"/><path class="a" d="M92.976,80.158a1.613,1.613,0,1,0,1.613,1.613A1.613,1.613,0,0,0,92.976,80.158Zm0,2.394a.78.78,0,1,1,.78-.78A.78.78,0,0,1,92.976,82.552Z" transform="translate(-66.142 -41.416)"/><path class="a" d="M80.73,63.083h.954a.417.417,0,1,0,0-.833H80.73a.417.417,0,0,0,0,.833Z" transform="translate(-57.723 -27.77)"/><path class="a" d="M14.788,34.869h4.128a.417.417,0,1,0,0-.833H14.788a.417.417,0,1,0,0,.833Z" transform="translate(-7.478 -6.272)"/><path class="a" d="M39.067,34.869h.856a.417.417,0,0,0,0-.833h-.856a.417.417,0,0,0,0,.833Z" transform="translate(-25.978 -6.272)"/></g></svg>