<svg xmlns="http://www.w3.org/2000/svg" width="379.137" height="98.781" viewBox="0 0 379.137 98.781">
  <g id="Grupo_174" data-name="Grupo 174" transform="translate(-148.148 -95.051)">
    <g id="Grupo_169" data-name="Grupo 169">
      <path id="Trazado_404" data-name="Trazado 404" d="M286.989,140.455c0-25.014-31.079-45.4-69.418-45.4s-69.415,20.39-69.415,45.4c0,.646-.008,2.432-.008,2.658,0,26.536,27.164,48.029,69.414,48.029,42.512,0,69.427-21.487,69.427-48.024Z" fill="#424242"/>
      <path id="Trazado_405" data-name="Trazado 405" d="M284.331,140.433c0,23.582-29.883,42.7-66.747,42.7s-66.745-19.117-66.745-42.7,29.882-42.7,66.745-42.7S284.331,116.849,284.331,140.433Z" fill="#817f7f"/>
      <g id="Grupo_168" data-name="Grupo 168">
        <path id="Trazado_406" data-name="Trazado 406" d="M195.422,126.961c-.035.067-.7.756-.27,1.309,1.054,1.346,4.307,2.118,7.6,1.38,1.959-.44,4.47-2.437,6.9-4.367,2.636-2.094,5.251-4.191,7.88-5.025a9,9,0,0,1,5.745-.15,17.7,17.7,0,0,1,5.238,3.056c4.567,3.434,22.931,19.463,26.1,22.234a158.484,158.484,0,0,1,29.347-9.445c-1.341-8.228-6.346-15.756-13.937-21.92-10.579,4.444-23.509,6.762-36.151.587-.065-.026-6.907-3.265-13.656-3.105-10.032.232-14.377,4.574-18.976,9.17Z" fill="#fff"/>
        <path id="Trazado_407" data-name="Trazado 407" d="M253.872,147.142c-.215-.192-21.593-18.9-26.437-22.538-2.8-2.1-4.361-2.638-6-2.847a8.177,8.177,0,0,0-2.852.273c-2.253.614-5.2,2.583-7.815,4.656-2.708,2.158-5.261,4.189-7.629,4.719a12.346,12.346,0,0,1-8.411-1.262,3.724,3.724,0,0,1-1.395-1.531,2.586,2.586,0,0,1,.715-2.793l5.9-6.38c.686-.685,1.377-1.37,2.083-2.044a38.353,38.353,0,0,0-5.376,1.21,23.414,23.414,0,0,1-6.273,1.172,59.445,59.445,0,0,1-6.4-1,95.572,95.572,0,0,1-17.023-6.151c-8.387,6.243-13.995,14.05-15.615,22.648,1.205.319,3.146.9,3.962,1.078,18.979,4.219,24.89,8.567,25.963,9.474a6.281,6.281,0,0,1,9.847.579,7.177,7.177,0,0,1,4.524-1.591,8.466,8.466,0,0,1,2.715.477,6.236,6.236,0,0,1,3.819,3.45,6.33,6.33,0,0,1,2.641-.56,7.966,7.966,0,0,1,3.157.7c3.5,1.5,4.044,4.939,3.726,7.53a6.512,6.512,0,0,1,.755-.041,7.532,7.532,0,0,1,7.522,7.527,7.456,7.456,0,0,1-.9,3.552c1.129.635,4.007,2.071,6.533,1.75,2.019-.253,2.786-.944,3.06-1.332.187-.267.387-.579.2-.8l-5.355-5.95s-.882-.834-.591-1.155.847.144,1.232.466c2.726,2.276,6.054,5.711,6.054,5.711.056.037.276.472,1.507.693a5.566,5.566,0,0,0,4.232-.987,6.4,6.4,0,0,0,.929-.952c-.022.016-.039.04-.06.048a2.846,2.846,0,0,0-.151-3.526l-6.252-7.02s-.894-.826-.591-1.159c.273-.288.848.147,1.239.472,1.98,1.656,4.777,4.462,7.458,7.088.523.383,2.879,1.841,6-.209a4.3,4.3,0,0,0,2.219-3.918,4.473,4.473,0,0,0-1.32-2.608l-8.541-8.586s-.9-.771-.583-1.16c.261-.329.847.144,1.23.465,2.722,2.277,10.086,9.029,10.086,9.029a5.184,5.184,0,0,0,5.794-.116,3.873,3.873,0,0,0,1.905-3.061A4.522,4.522,0,0,0,253.872,147.142Z" fill="#fff"/>
        <path id="Trazado_408" data-name="Trazado 408" d="M212.449,158.026c-1.324-.015-2.772.771-2.962.657-.1-.07.081-.6.205-.909s1.871-5.551-2.38-7.374c-3.252-1.4-5.241.175-5.924.885-.18.186-.26.171-.281-.066a4.689,4.689,0,0,0-3.3-4.358,6.432,6.432,0,0,0-7.247,2.583,4.638,4.638,0,1,0-1.379,3.949c.026.024.037.068.023.157a6.127,6.127,0,0,0,3.827,7.042,4.566,4.566,0,0,0,4.492-.694c.369-.261.43-.151.377.2-.158,1.076.042,3.382,3.274,4.692a4.153,4.153,0,0,0,4.867-.9c.415-.379.528-.317.55.267a5.858,5.858,0,1,0,5.854-6.123Z" fill="#fff"/>
      </g>
      <path id="Trazado_409" data-name="Trazado 409" d="M254.7,144.9c-6.585-5.747-21.805-18.978-25.927-22.072A18.123,18.123,0,0,0,223.4,119.7a8.9,8.9,0,0,0-2.638-.41,11.112,11.112,0,0,0-3.35.563c-2.664.843-5.317,2.953-7.885,4.993l-.132.1c-2.391,1.9-4.862,3.867-6.732,4.285a11.362,11.362,0,0,1-2.493.279c-2.1,0-3.977-.608-4.682-1.507-.116-.149-.042-.39.231-.737l.036-.046,5.793-6.243c4.537-4.537,8.823-8.821,18.688-9.048.162,0,.329-.007.492-.007A34.957,34.957,0,0,1,233.7,115a40.161,40.161,0,0,0,17.675,4.24,46.154,46.154,0,0,0,19.4-4.649c-.754-.635-1.539-1.252-2.346-1.858a42.716,42.716,0,0,1-17.041,3.871,37.6,37.6,0,0,1-16.54-3.98,37.235,37.235,0,0,0-14.117-3.335c-.184,0-.372,0-.556.006-8.286.194-12.954,3.137-16.093,5.715a31.81,31.81,0,0,0-8.03,1.465,21.738,21.738,0,0,1-5.659,1.084c-.725,0-2.031-.067-2.148-.071-2.025-.061-12.229-2.564-20.347-5.637-.829.587-1.626,1.192-2.4,1.809,8.48,3.477,18.8,6.166,22.056,6.376.906.06,1.872.162,2.838.164a24.118,24.118,0,0,0,6.385-1.186c1.229-.346,2.585-.721,4.012-.994q-.571.561-1.142,1.134l-5.886,6.367a2.959,2.959,0,0,0-.806,3.253,4.129,4.129,0,0,0,1.548,1.718,12.267,12.267,0,0,0,6.247,1.585,11.341,11.341,0,0,0,2.492-.261c2.467-.553,5.055-2.615,7.8-4.795,2.185-1.735,5.288-3.939,7.664-4.586a8.724,8.724,0,0,1,2.135-.293,4.2,4.2,0,0,1,.553.032c1.57.2,3.087.733,5.8,2.767,4.832,3.629,26.212,22.333,26.421,22.518a4.112,4.112,0,0,1,1.284,3.143,3.426,3.426,0,0,1-1.708,2.729,5.2,5.2,0,0,1-2.807.874,4.616,4.616,0,0,1-2.477-.718c-.079-.064-7.4-6.781-10.1-9.037a2.267,2.267,0,0,0-1.269-.676.7.7,0,0,0-.559.264c-.425.522.05,1.246.61,1.723l8.557,8.6a4.058,4.058,0,0,1,1.181,2.318,3.9,3.9,0,0,1-2.031,3.547,5.516,5.516,0,0,1-3.033,1,4.409,4.409,0,0,1-2.441-.741l-1.227-1.21c-2.243-2.207-4.56-4.489-6.255-5.9a2.275,2.275,0,0,0-1.275-.661.729.729,0,0,0-.54.228c-.193.215-.328.6.154,1.243a4.308,4.308,0,0,0,.432.481l6.245,7.014a2.392,2.392,0,0,1,.14,2.992l-.221.28a6.306,6.306,0,0,1-.58.56,5,5,0,0,1-3.051.968,4.782,4.782,0,0,1-.844-.073,2.126,2.126,0,0,1-1.231-.518l-.075-.079c-.342-.353-3.489-3.566-6.094-5.74a2.149,2.149,0,0,0-1.213-.65.743.743,0,0,0-.564.252c-.516.564.258,1.408.586,1.718l5.326,5.873a1.219,1.219,0,0,1-.2.358c-.19.264-.837.91-2.768,1.153a5.372,5.372,0,0,1-.708.042,12.165,12.165,0,0,1-5.211-1.547,7.945,7.945,0,0,0-7.184-11.328c-.094,0-.193,0-.287.006.143-2-.14-5.791-4.029-7.459a8.371,8.371,0,0,0-3.322-.731,6.75,6.75,0,0,0-2.434.44,6.682,6.682,0,0,0-3.89-3.3,8.692,8.692,0,0,0-2.851-.5,7.5,7.5,0,0,0-4.44,1.423,6.694,6.694,0,0,0-9.971-.562c-1.657-1.266-8.233-5.443-25.833-9.439-.852-.193-2.808-.754-4.006-1.1a28.292,28.292,0,0,0-.451,2.888s3.246.777,3.885.921c17.98,3.993,23.92,8.145,24.924,8.93a6.747,6.747,0,0,0,7.453,9.217,7.855,7.855,0,0,0,5.082,5.869,6.688,6.688,0,0,0,2.4.465,6.2,6.2,0,0,0,1.535-.192,7.812,7.812,0,0,0,6.826,4.458,5.923,5.923,0,0,0,2.057-.367,7.931,7.931,0,0,0,13.035,2.517,14.968,14.968,0,0,0,6.725,2.007,8.611,8.611,0,0,0,1.019-.065c2.717-.343,3.981-1.406,4.562-2.232a3.378,3.378,0,0,0,.28-.456,7.691,7.691,0,0,0,2.154.337,7.255,7.255,0,0,0,4.347-1.555,5.988,5.988,0,0,0,2.564-3.729c0-.017.006-.036.008-.054a7.161,7.161,0,0,0,1.454.149,8.081,8.081,0,0,0,4.466-1.417,6.442,6.442,0,0,0,3.205-5.74,7.149,7.149,0,0,0,1.471.154,7.714,7.714,0,0,0,4.185-1.288,6.109,6.109,0,0,0,2.906-4.732,6.372,6.372,0,0,0-.923-3.822,172.975,172.975,0,0,1,27.735-8.683,28.285,28.285,0,0,0-.388-2.877A159.073,159.073,0,0,0,254.7,144.9Zm-42.25,24.422a5.4,5.4,0,0,1-5.428-5.189c-.007-.249-.033-.911-.593-.911a1.03,1.03,0,0,0-.661.346,3.822,3.822,0,0,1-2.667,1.206,4.689,4.689,0,0,1-1.758-.381c-3.1-1.255-3.142-3.384-3.016-4.24a.778.778,0,0,0-.111-.65l-.191-.171h-.193a.943.943,0,0,0-.539.219,4.526,4.526,0,0,1-2.63.935,4.07,4.07,0,0,1-1.469-.287,5.69,5.69,0,0,1-3.558-6.6.561.561,0,0,0-.178-.539l-.288-.237-.27.258a4.239,4.239,0,1,1,1.256-3.587l.146,1.138.625-.963a5.884,5.884,0,0,1,6.768-2.409,4.28,4.28,0,0,1,3,3.988c.045.553.438.579.515.579a.692.692,0,0,0,.489-.256,4.279,4.279,0,0,1,3.119-1.316,6.007,6.007,0,0,1,2.336.526c3.988,1.711,2.179,6.779,2.157,6.831-.342.84-.356,1.211-.034,1.425l.158.075h.116a2.822,2.822,0,0,0,.772-.2,6.832,6.832,0,0,1,2.128-.468h0a5.439,5.439,0,1,1,0,10.878Z" fill="#424242"/>
    </g>
    <g id="Grupo_171" data-name="Grupo 171">
      <path id="Trazado_410" data-name="Trazado 410" d="M523.526,111.525q-3.758-4.71-11.413-4.708t-11.407,4.708a18.409,18.409,0,0,0,0,22.3q3.756,4.632,11.407,4.638t11.413-4.638a18.421,18.421,0,0,0,0-22.3Zm-6.208,18.009a6.871,6.871,0,0,1-10.471,0q-1.84-2.418-1.837-6.883t1.837-6.865a6.9,6.9,0,0,1,10.471,0q1.821,2.407,1.825,6.865T517.318,129.534Z" fill="#424242"/>
      <path id="Trazado_411" data-name="Trazado 411" d="M459.491,108.9a19.029,19.029,0,0,0-8.722-1.939q-7.545,0-10.647,3.934a11.438,11.438,0,0,0-2.2,6.421h7.516a5.619,5.619,0,0,1,1.109-2.732q1.162-1.365,3.956-1.365a8.086,8.086,0,0,1,3.785.7,2.619,2.619,0,0,1,1.287,2.524,2.342,2.342,0,0,1-1.68,2.215,12.293,12.293,0,0,1-3.114.683l-2.664.328a18.984,18.984,0,0,0-6.88,1.915q-4.269,2.46-4.267,7.949a8.2,8.2,0,0,0,2.652,6.543,10.526,10.526,0,0,0,6.72,2.311c17,.759,16.8-8.957,16.961-10.978V116.224Q463.3,110.845,459.491,108.9Zm-3.947,16.969q-.078,3.907-2.232,5.382a8.132,8.132,0,0,1-4.7,1.478,4.283,4.283,0,0,1-2.736-.89,3.459,3.459,0,0,1-1.12-2.884,3.556,3.556,0,0,1,1.836-3.305,11.6,11.6,0,0,1,3.581-1.061l1.775-.329a13.037,13.037,0,0,0,2.086-.539,7.887,7.887,0,0,0,1.508-.747Z" fill="#424242"/>
      <path id="Trazado_412" data-name="Trazado 412" d="M420.735,113.623a5.067,5.067,0,0,1,4.292,1.8,6.666,6.666,0,0,1,1.181,3h8.384q-.69-6.345-4.439-8.855a17.091,17.091,0,0,0-9.643-2.506q-6.927,0-10.865,4.25T405.706,123.2q0,6.765,3.563,11.019t11.12,4.249q7.564,0,11.414-5.1a12.57,12.57,0,0,0,2.7-6.7h-8.356a7.047,7.047,0,0,1-1.466,3.815c-.806.977-2.164,1.47-4.086,1.47a5.461,5.461,0,0,1-5.528-3.707,14.183,14.183,0,0,1-.806-5.24,15.489,15.489,0,0,1,.806-5.49A5.633,5.633,0,0,1,420.735,113.623Z" fill="#424242"/>
      <path id="Trazado_413" data-name="Trazado 413" d="M403.459,107.059c-17.222,0-16.2,15.249-16.2,15.249V137.8h7.815V123.269a11.958,11.958,0,0,1,.9-5.289q1.609-3.048,6.293-3.051c.235,0,.545.012.926.03s.813.053,1.31.11v-7.951c-.347-.024-.572-.034-.669-.043S403.6,107.059,403.459,107.059Z" fill="#424242"/>
      <path id="Trazado_414" data-name="Trazado 414" d="M374.751,129.7a5.7,5.7,0,0,1-1.07,1.182,6.672,6.672,0,0,1-4.369,1.185,7.411,7.411,0,0,1-4.16-1c-1.95-1.2-3.047-3.226-3.164-6.2h21.624a38.914,38.914,0,0,0-.26-5.891,14.605,14.605,0,0,0-2.363-6.139,12.114,12.114,0,0,0-5.132-4.394,16.944,16.944,0,0,0-6.977-1.387,14.315,14.315,0,0,0-10.617,4.114q-4.089,4.122-4.1,11.83,0,8.235,4.534,11.887a16.193,16.193,0,0,0,10.457,3.654q7.178,0,11.168-4.332a10.513,10.513,0,0,0,2.712-4.506Zm-10.506-14.552a6.174,6.174,0,0,1,4.635-1.695,6.8,6.8,0,0,1,4.606,1.6,6.481,6.481,0,0,1,2.065,4.688H362.179A8.063,8.063,0,0,1,364.245,115.152Z" fill="#424242"/>
      <g id="Grupo_170" data-name="Grupo 170">
        <path id="Trazado_415" data-name="Trazado 415" d="M351.03,137.794h-7.138V119.818c0-1.642-.542-5.548-5.251-5.548a5.26,5.26,0,0,0-5.412,5.548v17.976h-7.145V119.818c0-1.642-.487-5.548-5.193-5.548a5.232,5.232,0,0,0-5.414,5.548v17.976h-7.143V119.989c0-7.422,4.923-13.033,12.557-13.033a10.991,10.991,0,0,1,8.876,4.14,11.37,11.37,0,0,1,8.874-4.14c7.793,0,12.389,5.384,12.389,13.033Z" fill="#424242"/>
      </g>
      <path id="Trazado_416" data-name="Trazado 416" d="M494.62,97.672s-7.872-.841-7.872,5.483l-.006,8.371a9.393,9.393,0,0,0-3.4-3.28,9.568,9.568,0,0,0-4.795-1.187,11.386,11.386,0,0,0-9.352,4.358c-2.336,2.907-3.5,7.1-3.5,12.16a16.169,16.169,0,0,0,3.554,10.8c2.369,2.8,7.016,4.032,11.142,4.032,14.39,0,14.224-12.341,14.224-12.341ZM485.246,129.6a5.728,5.728,0,0,1-5.01,2.452,5.479,5.479,0,0,1-4.916-2.466,12.575,12.575,0,0,1-1.618-6.78,11.91,11.91,0,0,1,1.591-6.388,5.447,5.447,0,0,1,4.995-2.575,5.938,5.938,0,0,1,3.925,1.416c1.833,1.562,2.75,4.365,2.75,7.994A10.833,10.833,0,0,1,485.246,129.6Z" fill="#424242"/>
    </g>
    <g id="Grupo_173" data-name="Grupo 173">
      <g id="Grupo_172" data-name="Grupo 172">
        <path id="Trazado_417" data-name="Trazado 417" d="M317.4,187.4a3.671,3.671,0,0,1-1.154,2.719,3.773,3.773,0,0,1-2.756,1.135h-3.9V164.1c0-5.281,1.78-8.589,4.709-10.825,1.936-1.477,4.821-2.887,10.224-2.887,3.649,0,7.923,1.416,10.231,4.23,2.59,3.165,3.67,6.692,3.67,11.3,0,4.765-1.149,8.609-3.445,11.564a10.819,10.819,0,0,1-8.848,4.306,11.88,11.88,0,0,1-5.052-1.016,8.579,8.579,0,0,1-3.676-3.517Zm13.1-21.147q0-4.421-1.727-6.8a5.74,5.74,0,0,0-4.939-2.382A5.648,5.648,0,0,0,319,159.449c-1.069,1.438-1.6,3.711-1.6,6.8,0,2.881.572,5.025,1.723,6.463a5.717,5.717,0,0,0,4.939,2.382,5.5,5.5,0,0,0,4.708-2.382,10.765,10.765,0,0,0,1.727-6.463" fill="#817f7f"/>
        <path id="Trazado_418" data-name="Trazado 418" d="M390.206,179.277v-1.919a8.635,8.635,0,0,1-5.474,3.964,11.182,11.182,0,0,1-6.823-.571,12.665,12.665,0,0,1-5.817-5.035q-2.423-3.693-2.422-9.693,0-7.012,3.213-11.38c2.145-2.906,5.59-4.232,10.328-4.362,4.669-.123,7.384.934,10.042,2.946,2.906,2.207,4.625,5.591,4.625,10.873v15.977c.012,5.084-3.533,14.506-14.667,13.707-6.9-.5-10.728-3.33-12.863-9.742h8.236a6.3,6.3,0,0,0,6.484,2.884,6.174,6.174,0,0,0,3.393-2.206,9.289,9.289,0,0,0,1.745-5.443m-12.865-13.022q0,7.813,4.515,8.667,4.508.836,6.657-2.1a8.441,8.441,0,0,0,1.465-3.9,16.509,16.509,0,0,0,.058-5.266A10.464,10.464,0,0,0,388.173,159a4.952,4.952,0,0,0-4.287-2.039c-2.559,0-4.284.948-5.189,2.828a14.731,14.731,0,0,0-1.356,6.462" fill="#817f7f"/>
        <path id="Trazado_419" data-name="Trazado 419" d="M362.985,152.436a19.079,19.079,0,0,0-8.72-1.936q-7.553,0-10.65,3.932a11.438,11.438,0,0,0-2.2,6.423h7.52a5.591,5.591,0,0,1,1.107-2.733q1.162-1.365,3.954-1.366a8.089,8.089,0,0,1,3.784.7,2.621,2.621,0,0,1,1.288,2.527,2.342,2.342,0,0,1-1.679,2.214,12.35,12.35,0,0,1-3.114.683l-2.664.325a19.038,19.038,0,0,0-6.878,1.916q-4.273,2.459-4.269,7.947a8.2,8.2,0,0,0,2.652,6.543,10.525,10.525,0,0,0,6.72,2.312c16.992.76,16.8-8.958,16.957-10.978V159.759q0-5.381-3.81-7.323m-3.95,16.969c-.049,2.608-.8,4.4-2.228,5.383a8.136,8.136,0,0,1-4.7,1.475,4.278,4.278,0,0,1-2.734-.888,3.453,3.453,0,0,1-1.126-2.885,3.562,3.562,0,0,1,1.84-3.305,11.61,11.61,0,0,1,3.58-1.059l1.774-.33a12.591,12.591,0,0,0,2.083-.538,7.757,7.757,0,0,0,1.509-.748Z" fill="#817f7f"/>
        <path id="Trazado_420" data-name="Trazado 420" d="M427.44,154.9q-3.762-4.713-11.418-4.709-7.64,0-11.4,4.709a18.408,18.408,0,0,0,0,22.3q3.759,4.629,11.4,4.636T427.44,177.2a18.44,18.44,0,0,0,0-22.3m-6.212,18a6.865,6.865,0,0,1-10.467,0c-1.231-1.61-1.839-3.905-1.839-6.878s.608-5.261,1.839-6.864a6.895,6.895,0,0,1,10.467,0q1.827,2.4,1.825,6.864t-1.825,6.878" fill="#817f7f"/>
      </g>
    </g>
  </g>
</svg>
