<svg id="paypal" xmlns="http://www.w3.org/2000/svg" width="340.956" height="87.133" viewBox="0 0 340.956 87.133">
  <path id="Trazado_395" data-name="Trazado 395" d="M375.884,221.2h-18.4c-1.082,0-2.165,1.082-2.706,2.165L347.2,270.99a1.435,1.435,0,0,0,1.624,1.624h9.742a1.435,1.435,0,0,0,1.624-1.624l2.165-13.53a2.476,2.476,0,0,1,2.706-2.165h5.953q18.671,0,21.107-17.859c1.082-4.871,0-9.2-2.165-11.906-3.247-2.706-8.118-4.33-14.071-4.33m2.165,17.86c-1.083,6.494-5.953,6.494-10.824,6.494h-3.247l2.165-12.448c0-.541.541-1.082,1.624-1.082h1.082c3.247,0,6.494,0,8.118,2.165,1.082.541,1.082,2.165,1.082,4.871" transform="translate(-112.319 -198.47)" fill="#ffffff"/>
  <g id="Grupo_166" data-name="Grupo 166" transform="translate(102.287 22.73)">
    <path id="Trazado_396" data-name="Trazado 396" d="M179.884,221.2h-18.4c-1.082,0-2.165,1.082-2.706,2.165L151.2,270.99a1.435,1.435,0,0,0,1.624,1.624h8.659c1.082,0,2.165-1.082,2.706-2.165l2.165-12.989a2.476,2.476,0,0,1,2.706-2.165h5.953q18.671,0,21.107-17.86c1.082-4.871,0-9.2-2.165-11.906-3.247-2.706-7.577-4.33-14.071-4.33m2.165,17.86c-1.082,6.494-5.953,6.494-10.824,6.494h-2.706l2.165-12.448c0-.541.541-1.082,1.624-1.082h1.082c3.247,0,6.494,0,8.118,2.165.541.541,1.082,2.165.541,4.871" transform="translate(-151.2 -221.2)" fill="#ffffff"/>
    <path id="Trazado_397" data-name="Trazado 397" d="M255.91,246.282h-8.659c-.541,0-1.624.541-1.624,1.082l-.541,2.706-.541-1.082c-2.165-2.706-5.953-3.788-10.283-3.788-9.742,0-18.4,7.577-20.024,17.86a16.131,16.131,0,0,0,3.247,13.53c2.706,3.247,6.494,4.33,11.365,4.33a17.3,17.3,0,0,0,12.448-4.871l-.541,2.706a1.435,1.435,0,0,0,1.624,1.624H250.5c1.082,0,2.165-1.082,2.706-2.165l4.871-30.307c-.541-.541-1.624-1.624-2.165-1.624M243.463,263.6c-1.082,4.871-4.871,8.659-10.283,8.659a8.655,8.655,0,0,1-5.953-2.165A11.542,11.542,0,0,1,225.6,263.6a9.653,9.653,0,0,1,15.695-6.494c1.624,1.624,2.165,4.33,2.165,6.494" transform="translate(-171.483 -228.964)" fill="#ffffff"/>
  </g>
  <path id="Trazado_398" data-name="Trazado 398" d="M451.11,246.282h-8.659c-.541,0-1.624.541-1.624,1.082l-.541,2.706-.541-1.082c-2.165-2.706-5.953-3.788-10.283-3.788-9.742,0-18.4,7.577-20.024,17.86a16.13,16.13,0,0,0,3.247,13.53c2.706,3.247,6.495,4.33,11.365,4.33a17.3,17.3,0,0,0,12.448-4.871l-.541,2.706a1.435,1.435,0,0,0,1.624,1.624H445.7c1.083,0,2.165-1.082,2.706-2.165l4.871-30.307c-.541-.541-1.082-1.624-2.165-1.624M438.662,263.6c-1.082,4.871-4.871,8.659-10.283,8.659a8.654,8.654,0,0,1-5.953-2.165A11.542,11.542,0,0,1,420.8,263.6a9.653,9.653,0,0,1,15.695-6.494,6.211,6.211,0,0,1,2.165,6.494" transform="translate(-132.344 -206.234)" fill="#ffffff"/>
  <path id="Trazado_399" data-name="Trazado 399" d="M325.672,246.8h-9.2a2.812,2.812,0,0,0-2.165,1.082l-11.906,18.4-5.412-17.318a2.5,2.5,0,0,0-2.706-1.624h-8.659c-1.082,0-1.624,1.082-1.624,2.165l9.742,28.683-9.2,12.989c-.541,1.082,0,2.706,1.082,2.706h8.659a2.811,2.811,0,0,0,2.165-1.082l29.766-42.755c1.624-1.624.541-3.247-.541-3.247" transform="translate(-91.874 -206.751)" fill="#ffffff"/>
  <path id="Trazado_400" data-name="Trazado 400" d="M482.777,222.981,475.2,271.689a1.435,1.435,0,0,0,1.624,1.624H484.4c1.082,0,2.165-1.082,2.706-2.165l7.577-47.626a1.435,1.435,0,0,0-1.624-1.624H484.4c-.541-.541-1.083,0-1.624,1.082" transform="translate(-153.727 -198.627)" fill="#ffffff"/>
  <path id="Trazado_401" data-name="Trazado 401" d="M62.238,194.094c-3.788-4.33-10.824-6.494-20.566-6.494H14.612c-1.624,0-3.247,1.624-3.788,3.247L0,261.744a2.476,2.476,0,0,0,2.165,2.706H18.942l4.33-26.519v1.082c.541-1.624,2.165-3.247,3.788-3.247h8.118c15.695,0,27.6-6.494,31.39-24.354v-1.624h0c.541-7.036-.541-11.365-4.33-15.695" transform="translate(0 -187.6)" fill="#ffffff"/>
  <path id="Trazado_402" data-name="Trazado 402" d="M74.308,220.4h0v1.624c-3.788,18.4-15.695,24.354-31.39,24.354H34.8c-1.624,0-3.247,1.624-3.788,3.247L25.6,282.638a1.982,1.982,0,0,0,2.165,2.165H41.836c1.624,0,3.247-1.082,3.247-2.706v-.541l2.706-16.777V263.7c0-1.624,1.624-2.706,3.247-2.706H53.2c13.53,0,24.354-5.412,27.06-21.648,1.082-6.494.541-12.448-2.706-16.236a5.543,5.543,0,0,0-3.247-2.706" transform="translate(-8.282 -198.211)" fill="#ffffff" opacity="0.64"/>
  <path id="Trazado_403" data-name="Trazado 403" d="M73.366,217.224c-.541,0-1.082-.541-1.624-.541a1.988,1.988,0,0,1-1.624-.541,28.591,28.591,0,0,0-7.036-.541H41.977a1.988,1.988,0,0,0-1.624.541,2.976,2.976,0,0,0-1.624,2.706L34.4,246.99v1.082c.541-1.624,2.165-3.247,3.788-3.247h8.118c15.695,0,27.6-6.494,31.39-24.354a1.988,1.988,0,0,1,.541-1.624c-1.082-.541-1.624-1.082-2.706-1.082-1.624-.541-1.624-.541-2.165-.541" transform="translate(-11.128 -196.658)" fill="#E6E6E6"/>
</svg>
