<svg id="Layer_1" data-name="Layer 1" xmlns="http://www.w3.org/2000/svg" viewBox="0 0 3000.01 810.61"><defs><style>.cls-1{fill:#fff;}</style></defs><title>Artboard 4 copy 2</title><g id="_Group_" data-name="&lt;Group&gt;"><g id="_Group_2" data-name="&lt;Group&gt;"><path id="_Compound_Path_" data-name="&lt;Compound Path&gt;" class="cls-1" d="M1997.7,233.64c3.43,0,6.48-.24,6.48-4.34,0-3.31-3-3.9-5.82-3.9h-5.49v8.24Zm-4.82,15h-4V222H1999c6.29,0,9.42,2.31,9.42,7.57,0,4.78-3,6.85-6.89,7.35l7.56,11.73h-4.52l-7-11.56h-4.64Zm4.88,5.94c10.46,0,18.7-8.18,18.7-19.33,0-10.94-8.24-19.2-18.7-19.2s-18.83,8.25-18.83,19.2c0,11.15,8.25,19.33,18.83,19.33m-23.49-19.33c0-13.26,10.78-23,23.49-23a23.12,23.12,0,1,1,0,46.23c-12.71,0-23.49-9.79-23.49-23.19"/><path id="_Path_" data-name="&lt;Path&gt;" class="cls-1" d="M470,196.51c9.2,35.32,17.29,71,23.93,107.48,1.1,7.35-1.47,12.5-5.89,17.29-3.69,4.4-8.09,6.24-13.26,7-7.36,0-14-2.19-19.13-8.09-15.46-22.82-20.24-50.06-39-70.66-4.78-3.69-11.41-6.27-17.29-3.33l-4.41,4.41L398.2,580c1.47,10.31,11,18.77,21,20.59,8.09-2.19,14.34-10.66,15.82-18.39l1.1-18.41-1.84-160.44c-2.95-11.79-18.39-12.15-20.6-23.2,1.83-6.24,8.83-10.66,14.34-13.23,21-9.22,43.06-15.1,63.3-25.79,6.26-.35,14-1.47,19.51,1.84l3.67,5.15,2.22,230.39c1.83,7.72,4.05,18.41,14,20.25,4.05,3.31,3,9.2.76,13.24-4.79,7.36-13.62,7.74-20.62,8.46H434.27c-6.26.38-11-3.69-15.46-7.72-16.55,12.88-44.89,7.72-64,8.84-22.46-2.58-50.44,6.24-70.3-7.38-3.31-2.57-2.58-7.72-2.21-10.66,3.67-7.39,14.71-4.79,16.93-14l3.29-10.28L301.4,329l-1.47-78.4a12.2,12.2,0,0,0-11.41-5.14c-8.45.73-13.62,9.57-18,15.82-9.93,17.65-16.57,37.17-25.39,55.2-2.95,6.26-8.1,10.31-14.34,12.88-8.84,2.95-17.31-.73-23.2-7-10.29-12.86-1.1-29.81,0-43.8l17.31-79.49c2.21-4.05,4.41-9.55,9.2-10.67,14-5.15,16.93,14.36,30.17,10.67l171.5-1.48c10.31-.73,16.57-16.91,28.72-9.19Z"/><path id="_Path_2" data-name="&lt;Path&gt;" class="cls-1" d="M1520.72,200.93l3.67,5.14,1.09,54.47,2.58,316.15c1.47,8.84,4.78,17.65,14.36,21.7,2.95,3.31,2.95,8.83,1.83,13.26-4,10.67-15.82,12.14-26.12,12.14l-71.78-.36c-5.88-1.1-12.51-3.33-15.82-9.19a16,16,0,0,1-.36-14.74c7.36-4.78,15.46-9.55,16.19-19.5L1446,432.77c-1.13-12.14.35-29.43-1.13-40.82-5.5,13.24.76,32-14,39.74-6.26,2.57-12.89,0-18-2.95-6.61-6.26-9.57-14.72-11.76-23.19-4.05-4-9.58-1.1-13.63.74C1331.54,446,1355.83,523,1351.05,582.93c-.76,12.15,15.08,7.74,16.57,18.77,0,5.17-2.22,9.58-5.15,13.26-5.15,5.14-13.63,4.81-20.25,5.52l-79.14-.71a16.42,16.42,0,0,1-11.4-9.95c-1.47-3.69-1.47-8.84,1.48-12.15,4.78-4.79,13.24-3.69,15.45-11.41l.38-18-1.47-166c-.76-14-21.72-12.88-19.89-28l9.95-8.83c22.81-9.93,46.73-17.31,69.18-27.6,8.48-1.1,16.93-1.1,21.72,6.62,2.21,12.15-1.1,26.5,2.58,39.75.73,1.47,2.93.73,4,.36,14-21.36,32-46.37,60-44.53,10.65.74,22.82,1.48,28.7,11.41l1.47-3.33-1.1-62.2-.73-.36c1.1-5.89-.38-13.6-1.48-20.24.74-13.62-21-14.36-14.34-29.08,19.88-23.19,53-21,76.18-39a20.58,20.58,0,0,1,16.94,3.67"/><path id="_Compound_Path_2" data-name="&lt;Compound Path&gt;" class="cls-1" d="M988.53,379.06c-5.15,1.47-8.84,6.26-11.41,10.66-17.31,36.82-18.77,76.55-14.34,118.89,4,17.64,5.14,36.8,18.76,50.06,4.05,2.55,9.2-1.12,12.88-3.69,30.55-46.75,21.36-116.67,4.43-167.09-2.95-2.95-4.43-9.93-10.31-8.83m154.2,8.83c-5.52,26.12-4,49.32,1.1,74.7,1.84,3.34,2.95,9.22,8.1,8.84,9.95-5.88,22.08-8.1,30.18-18,16.57-26.13-2.95-54.47-15.45-77.29-9.57-6.26-20.62,2.58-23.94,11.79M959.09,199.08l2.57,6.62L962.78,347c5.52,10.31,11.77-5.89,18.76-6.64,20.62-7,44.53.74,59.25,17.31,28.72,30.55,33.13,69.56,40.13,109.31l1.1-1.09c4.41-45.66,13.62-93.88,55.2-118.89,21.72-13.26,53.73-11.77,74.71.36,25.77,22.82,46.39,51.18,45.27,86.12,0,9.93-.36,18.41-3.3,26.87-30.56,14.74-63.3,25.39-94.59,38.63-7.38,5.52-1.12,14.74,0,21,5.14,12.88,11.77,30.91,28,33.48,8.83,2.95,21.72,8.48,30.18.73,9.57-8.81,2.21-34.94,23.55-28.31,8.46,1.83,16.19,6.23,20.62,14.34,5.52,24.67-5.52,47.46-17.31,66.25-21.7,18.77-51.89,22.08-79.86,18.39-54.47-11-74-68.83-81.33-116.67-4.41,43.82-7,96.79-55.21,114.45-29.43,8.13-62.56,2.22-83.17-18.76-2.57-3.66-3.31-9.57-8.46-11.4-12.15.36-12.15,14-18.41,21.33-7.72,4.79-15.82,12.17-25.75,9.22-3.67-1.84-5.89-5.91-8.09-8.84-10.31,11.41-25.41,7.74-39.39,8.45L789.05,622c-6.26-1.12-12.88-5.17-14.34-11.77-1.1-6.62,5.88-9.6,10.29-11.79,5.15-8.86,8.46-18.41,7.38-29.79-1.84-48.59-5.89-97.91-13.63-144.3-2.93-9.57-5.52-20.6-14-26.86C758.51,395.25,754.09,400,750,403l-4.79,7.72.38,170.41c2.21,8.1,5.52,17.29,14.71,20.24A11,11,0,0,1,761.45,612c-10.31,15.08-31.65,7.74-46,9.58-18-2.6-46.73,7.35-58.89-10-1.47-4.41-.36-9.55,4.41-11.76,8.84-2.21,11-12.17,13.62-19.13l-1.47-178.15c-2.95-6.24-9.93-9.92-16.57-10.29-7.74.38-13.62,7.36-17.67,13.26-8.1,14.71-3.31,31.29-4.41,48.58L636,582.2c-.38,11,10.67,14.37,15.45,21,1.48,6.62-2.95,12.14-8.1,15.45-30.55,5.55-56.66,1.47-87.59,2.58-7-1.47-15.08-1.84-19.13-9.2-1.48-2.93-2.58-8.1.74-10.67,6.62-3.31,13.24-8.46,14.72-16.2l1.83-9.57L552,404.44c-1.84-13.6-22.82-12.14-19.15-26.86,9.95-12.15,26.13-14.36,39.75-20.6a227.45,227.45,0,0,0,36.44-15.46c8.84-.38,19.88-1.84,23.91,7.36,0,6.62-2.57,15.82,4.43,19.13,10.31-.74,12.15-13.26,20.6-18.41,16.57-14,44.9-11,62.94-2.57,8.84,5.15,12.15,14,18.77,21,11.79,0,13.26-14.72,21.72-20.24,16.19-10.31,42.32-7.38,57.78,2.57,28,22.81,28,59.63,36.06,91.65,6.62,43.06,12.51,86.47,11.77,132.48,1.48,8.84,1.12,23.2,12.51,26.12l2.58,2.6L884,599.5l-3.33-327.92c-.36-12.51-8.46-22.44-16.55-30.55-1.48-4.05,0-8.1,2.57-11,18-17.28,42.7-18.39,63.68-29.81,6.62-8.1,22.08-9.57,28.7-1.1"/><path id="_Compound_Path_3" data-name="&lt;Compound Path&gt;" class="cls-1" d="M2057.32,379.79c-6.63,1.84-8.1,8.83-10.69,14-8.84,33.1-16.2,70.28-11,106.33,4.79,20.62,5.89,43.08,23.2,58.55,4,1.83,9.57,2.19,12.51-2.22,21.7-41.22,19.13-94.6,8.81-140.23-5.15-13.24-7.35-30.91-22.79-36.43m105.62-178.5,1.09,16.57L2167.36,562c0,4,2.95,7.72,6.62,9.19s9.93,1.84,10.66,7.36a20.63,20.63,0,0,1-3.67,16.19c-19.86,11-41.2,17.68-62.18,25-10,1.47-20.25,8.83-29.82,2.21-5.52-4.41,4.05-12.89-4.79-15.46-8.83,5.52-15.08,16.91-25.38,19.5-22.82,4.41-45.66-5.15-62.57-20.6-36.43-41.61-33.87-106.74-25.76-160.47,4-36.44,18-70.3,42.67-97.17,11.8-11.4,28.36-14.72,44.92-12.14,8.81,1.47,14,8.46,21.34,13.26,1.84-.38,3.66-1.48,4.05-3.31L2083,265c-2.55-15.08-35.69-18.76-18.38-38.63,6.63-4.05,16.19-.74,23.17-4.43,21-11.77,44.19-19.13,65.9-29.81,4.05,1.48,8.09,4.43,9.2,9.2"/><path id="_Compound_Path_4" data-name="&lt;Compound Path&gt;" class="cls-1" d="M1626.7,477.68c-26.5,15.08-19.12,48.56-19.86,73.62,2.55,9.92,5.5,22.82,17.29,26.5a21.7,21.7,0,0,0,24.3-7.38c1.09-30.17-1.86-62.57-4.43-94.22-3.31-7.35-12.89-2.93-17.31,1.48m301-107.46c8.84,14,13.63,29.07,16.94,45.27,8.83,51.9,16.55,105.24,19.5,158.64.36,6.62,1.84,13.23,5.52,18.74,4.41,3.69,11,4.43,11,11,0,6.29-3.66,10.72-8.83,13.26-26.5,4.81-57,2.22-85,2.22-5.88-1.1-12.5-4.41-14.72-10.66-1.09-4.44-.38-10.34,4.78-12.17,11-4.4,10.32-16.9,12.53-26.5.73-53-11-106.36-25.79-156.06-2.19-5.88-6.24-12.5-12.5-15.82-4.79-1.47-10.31.74-11.76,4.79l-1.48,6.62,2.19,171.52c-.38,11.76,11.79,14,15.82,22.79,1.1,6.29-4.78,11.06-9.19,13.65-26.13,4.78-58.89,2.55-85.76,1.83-5.89-1.1-12.51-5.15-14.33-11.41-2.6,1.84-6.65,6.65-10,9.58-9.95,8.09-22.44,8.81-34.22,8.09-13.63-3-23.19-12.5-34.23-21.73h-6.62c-20.63,19.89-51.16,31.32-78.4,19.16-22.82-7-43.82-28.72-46.73-53-5.91-32.39-3.69-69.18,23.53-90.17,21.37-23.19,49-32,76.21-41.23,5.88-11.76,4.76-28,1.1-40.48-3.69-7.71-6.27-16.19-15.1-20.24l-25-2.19c-2.54.35-5.52,1.47-6.23,4.4,2.55,6.62,11.41,7.38,13.26,15.1,2.19,11,2.19,25.77-6.63,34.22-12.88,8.12-33.49,11.79-46.75,1.84-11.43-9.19-14.34-22.08-14.34-36.06-.39-22.46,19.51-38.65,37.91-46,26.5-8.84,54.83-7.72,83.55-4.41a55.79,55.79,0,0,1,43.79,32c9.94,26.51,12.88,56.3,16.2,85.38,2.58,33.13,4,68.45,5.88,101.95.73,3.69,2.57,7,6.27,8.46,5.85-.71,13.59,0,14.34,7a49.45,49.45,0,0,1,4,18.73c5.53-.71,11.77-5.15,13.62-11l3.31-11L1763.62,403c-1.1-14.36-37.18-20.6-11.79-35,20.62-9.95,42.34-17.67,62.57-28.72,6.62-.74,14.72-.74,20.24,3.69,4.05,5.14,1.1,12.51,5.89,17.29,6.63-2.57,6.63-9.93,11.79-14.34,9.19-8.1,21-13.26,34.2-9.57,16.57,5.89,31.67,18.39,41.22,33.86"/><path id="_Compound_Path_5" data-name="&lt;Compound Path&gt;" class="cls-1" d="M2737,239.48c3.45,0,6.51-.24,6.51-4.34,0-3.31-3-3.91-5.82-3.91h-5.5v8.25Zm-4.81,15h-4V227.81h10.17c6.29,0,9.43,2.31,9.43,7.57,0,4.78-3,6.85-6.94,7.33l7.6,11.74h-4.53l-7-11.55h-4.66Zm4.88,5.94c10.48,0,18.7-8.19,18.7-19.33,0-10.94-8.22-19.2-18.7-19.2s-18.82,8.25-18.82,19.2c0,11.14,8.25,19.33,18.82,19.33m-23.46-19.33c0-13.26,10.76-23,23.46-23a23.12,23.12,0,1,1-23.46,23"/><path id="_Compound_Path_6" data-name="&lt;Compound Path&gt;" class="cls-1" d="M2693.63,372.43l-19.5,5.52c5.15,10.31,17,30.92,17,30.92l-23.59.73-21-25c-10.29,2.21-33.67,7.45-33.67,7.45l9.42,17.58-17,2-13.21-17.11s-48.23,14-71.78,21.36l-1.48,2.21a768.56,768.56,0,0,0,5.17,78l2.22,5.53c44.89,8.46,90.14,10.67,137.63,13.24l4.41-1.83c12.88-18.41,20.24-39,27.24-60,7.35-24.29,9.17-57.78-1.86-80.59m-388.64-11c-3.31,7.35-2.95,18-2.21,25.75,4.41-7,15-20.93,15-20.93Zm132.13-1.12-55.21,45.27-26.5,1.12s10.72-12,14.4-18.65a237.51,237.51,0,0,0-30.23-11.91l-19.51,26.13c-6.26.74-13.23,0-18,2.21-1.48,21.72,3.31,42,7.36,62.2,1.86,5.17,3.33,14,11,13.26,54.46,0,105.62,8.46,159.37,14V411.44c-2.6-5.52-9.73-15.45-13.42-19.86l-24.88,14.71-45.62.38c-.39-.74,37.56-21.73,54.83-33.13-4.79-4.79-7.74-10.31-13.62-13.26m123.67-5.52-16.2,26.5,18.41-1.71,16.48-27.15ZM2299.22,335l30.39,14.09,9.51-15.78Zm71.93-5.26-17.2,26.51,35,13.54,29-25.32-11-11.77ZM2499,327.52l-12.29,6,.76,17,10.07,3.48Zm-44.89-18-9.95,19.86,19.13,21.73c-2.58-14.36-5.53-28-9.19-41.59m69.16,5.52,1.84,42.7,32-40.85c2.9-3,3.85-8.54,3.85-8.54l-6.12-19.26Zm91.85-27.15-14.9,1.75-23.4,37,15.13-.45Zm-192.32-17.35,1.48,41.55L2440.09,276Zm120.51-9.76L2533,267.58l2.16,7.65,9.4-8.71Zm-179.39-10.52v1.48c11.79,11.77,35.37,38.09,35.37,38.09V260.16Zm57.78-26.86v22.44l11,2.58c-2.55-8.84-7-16.93-11-25m68.83-2.58-23.62,44.83,14,46.08,20.65-14.48,5.5-38.51c-5.53-12.89-10.67-26.13-16.57-37.92m33.12,21.36,12.14-2.58s-18.39-41.2-26.12-62.2a62.6,62.6,0,0,1,18.77,1.48c9.22,15.55,25.76,46.37,25.76,46.37s28.7-16.2,43.42-23.93c4.43.74,8.84,3.67,12.15,7l-44.07,39.09,12.91,36.5s31.17-43.94,46.63-64.92c5.52.73,9.95,5.53,13.24,9.57-6.24,11.41-15.82,22.08-20.62,33.12,18.77,1.48,37.54.76,55.94,2.22,4.78,5.52,10.31,11.77,12.53,18.76l-46.75,3.69-22.23,38.5,30.26-6.67s23.58-9.79,48.29-19.33a53.37,53.37,0,0,1,8.81,19.15l-50.39,20.24-44.9,9.57c-6.63,7.38-10.31,15.82-15.46,23.56C2634,364,2673,351.09,2713.53,343c18,60.73,7.71,129.18-25,180.34-109.31,27.6-225.23-7.36-338.21,7.72l-32.77,4c-23.19-28.32-35-62.92-41.22-99-5.53-39.39-1.1-82.09,13.26-117,3.25-.48,53.13-4.93,53.13-4.93l-30.68-37c1.12-6.24,6.62-11,10.67-16.19,16,16.72,46,50.78,46,50.78l16.93-1.47-52.63-60c5.14-8.09,14-16.55,21.72-22.07l44.53,8.09s-.38-23.91.38-37.17c9.19-5.15,19.48-9.55,29.43-11.41,8.84,15.82,15.46,32.75,25,48.58,11.37-18.39,21.33-39,31.63-58.89,1.1-.74,3.33-1.47,4.79-.36Z"/><path id="_Path_3" data-name="&lt;Path&gt;" class="cls-1" d="M2680,537c-13.63,18.39-31.3,37.17-51.15,50.41-103.06-1.47-197.65-29.44-298.13-34.23-3.31-2.93-6.62-6.24-7.71-10.66,78.38-13.65,157.85-5.89,235.53-1.1,40.49,1.83,83.19-.76,121.81-8.1Z"/><path id="_Path_4" data-name="&lt;Path&gt;" class="cls-1" d="M2525.83,585.89c29.81,3.31,60,5.88,89.81,9.57-62.21,43.41-161.22,44.16-225.63,6.24-17.65-11-36.41-22.81-50.42-39.37.74-2.21,4.4-.35,6.62-1.47l42.68,3.69Z"/></g></g></svg>