<svg xmlns="http://www.w3.org/2000/svg" width="101.525" height="32" viewBox="0 0 101.525 32"><defs><style>.a{fill:#fff;}.b{fill:#0f59d2;}</style></defs><g transform="translate(307.539 -96.339)"><path class="a" d="M-298.733,119.782a8.717,8.717,0,0,1-6.355-2.393,8.505,8.505,0,0,1-2.451-6.376v-.459a10.713,10.713,0,0,1,1.032-4.778,7.59,7.59,0,0,1,2.927-3.245,8.229,8.229,0,0,1,4.321-1.139,7.362,7.362,0,0,1,5.731,2.295,9.319,9.319,0,0,1,2.092,6.507v1.934h-11.3a4.406,4.406,0,0,0,1.386,2.786,4.188,4.188,0,0,0,2.927,1.049,5.119,5.119,0,0,0,4.28-1.984l2.328,2.606a7.117,7.117,0,0,1-2.886,2.352A9.468,9.468,0,0,1-298.733,119.782Zm-.541-14.571a2.961,2.961,0,0,0-2.287.954,4.93,4.93,0,0,0-1.124,2.733h6.592v-.379a3.518,3.518,0,0,0-.852-2.444A3.051,3.051,0,0,0-299.274,105.211Z" transform="translate(0 2.064)"/><path class="a" d="M-275.99,114.554a1.522,1.522,0,0,0-.861-1.368,9.738,9.738,0,0,0-2.763-.894q-6.33-1.328-6.329-5.376a4.873,4.873,0,0,1,1.961-3.942,7.9,7.9,0,0,1,5.124-1.581,8.507,8.507,0,0,1,5.4,1.589,5.009,5.009,0,0,1,2.025,4.131h-4.739a2.292,2.292,0,0,0-.655-1.68,2.776,2.776,0,0,0-2.051-.664,2.828,2.828,0,0,0-1.852.542,1.7,1.7,0,0,0-.656,1.375,1.461,1.461,0,0,0,.747,1.271,7.68,7.68,0,0,0,2.517.836,20.563,20.563,0,0,1,2.984.794q3.754,1.377,3.755,4.77a4.623,4.623,0,0,1-2.083,3.925,8.974,8.974,0,0,1-5.377,1.5,9.376,9.376,0,0,1-3.961-.8,6.649,6.649,0,0,1-2.714-2.179,5.06,5.06,0,0,1-.983-2.992h4.493a2.474,2.474,0,0,0,.934,1.934,3.713,3.713,0,0,0,2.328.672,3.43,3.43,0,0,0,2.059-.517A1.606,1.606,0,0,0-275.99,114.554Z" transform="translate(8.584 2.064)"/><path class="a" d="M-268.943,105.719a5.913,5.913,0,0,1,4.738-2.263q5.772,0,5.854,6.707v11.363h-4.738V110.294a3.292,3.292,0,0,0-.656-2.255,2.811,2.811,0,0,0-2.18-.73,3.223,3.223,0,0,0-3.017,1.607v12.61h-4.739V96.339h4.739Z" transform="translate(13.814 0)"/><path class="a" d="M-260.782,110.423a10.514,10.514,0,0,1,1.016-4.7,7.449,7.449,0,0,1,2.928-3.2,8.548,8.548,0,0,1,4.435-1.13,8.081,8.081,0,0,1,5.862,2.2,8.812,8.812,0,0,1,2.534,5.966l.032,1.212a9.27,9.27,0,0,1-2.279,6.549,7.927,7.927,0,0,1-6.117,2.466,7.958,7.958,0,0,1-6.124-2.459,9.426,9.426,0,0,1-2.287-6.687Zm4.738.336a6.609,6.609,0,0,0,.952,3.864,3.132,3.132,0,0,0,2.721,1.339,3.139,3.139,0,0,0,2.689-1.322,7.245,7.245,0,0,0,.968-4.226,6.556,6.556,0,0,0-.968-3.84,3.144,3.144,0,0,0-2.721-1.363,3.094,3.094,0,0,0-2.689,1.354A7.361,7.361,0,0,0-256.044,110.76Z" transform="translate(19.077 2.064)"/><path class="a" d="M-230.805,110.755a10.645,10.645,0,0,1-1.861,6.568,5.969,5.969,0,0,1-5.027,2.468,5.527,5.527,0,0,1-4.345-1.87v8.363h-4.739V101.72h4.4l.163,1.738a5.569,5.569,0,0,1,4.493-2.066,6.009,6.009,0,0,1,5.1,2.427,10.934,10.934,0,0,1,1.82,6.69Zm-4.739-.345a6.981,6.981,0,0,0-.876-3.82,2.858,2.858,0,0,0-2.551-1.345,3.1,3.1,0,0,0-3.066,1.706v7.263a3.154,3.154,0,0,0,3.1,1.755Q-235.544,115.969-235.545,110.41Z" transform="translate(24.791 2.056)"/><circle class="b" cx="3.83" cy="3.83" r="3.83" transform="translate(-288.507 109.444)"/></g></svg>