<svg xmlns="http://www.w3.org/2000/svg" width="104" height="28" viewBox="0 0 104 28"><defs><style>.a{fill:#3d3d3d;}</style></defs><g transform="translate(0 -0.003)"><path class="a" d="M9.172,27.3l-3.6-3.556a2.384,2.384,0,0,1,0-3.4l6.375-6.29L5.5,7.687a2.384,2.384,0,0,1,0-3.4L9.129.706a2.459,2.459,0,0,1,3.448,0l8.043,7.94q.065.055.127.116l3.6,3.555a2.384,2.384,0,0,1,0,3.4L12.618,27.3a2.459,2.459,0,0,1-3.447,0ZM1.757,19.883.381,18.525a1.271,1.271,0,0,1,0-1.814l2.785-2.748L.381,11.216a1.27,1.27,0,0,1,0-1.813L1.758,8.044a1.312,1.312,0,0,1,1.839,0l3.638,3.59c.023.019.045.04.066.061l1.377,1.358a1.265,1.265,0,0,1,.371.751,1.271,1.271,0,0,1-.37,1.069L7.3,16.232q-.042.041-.087.078L3.6,19.883a1.312,1.312,0,0,1-1.839,0Zm45.749-1.643h-.021c-2.969,0-4.747-1.739-4.753-4.653-.008-2.885,1.653-4.754,4.232-4.761h.025c3.546,0,4.277,1.9,4.284,4.757l0,.122-2.4.005V12.67a1.8,1.8,0,0,0-.461-1.349,1.774,1.774,0,0,0-1.294-.582c-1.2,0-1.914.7-2.121,2.082a3.6,3.6,0,0,0,0,1.607,2.7,2.7,0,0,0,2.607,1.9h.086l.187-.009,0,1.913-.188.006Zm-9.87-.123a4.748,4.748,0,0,1-3.406-1.19,4.552,4.552,0,0,1-1.224-3.34,5.085,5.085,0,0,1,1.018-3.267,3.837,3.837,0,0,1,3.091-1.371h.02c2.869,0,4.209,1.677,4.219,5.28l-6.138.016a2.346,2.346,0,0,0,.8,1.654,2.285,2.285,0,0,0,1.742.551c.025,0,.048,0,.071,0s.051,0,.076,0v1.668c-.084.006-.162.006-.245.006ZM35.8,11.2a2.017,2.017,0,0,0-.581,1.476l3.93-.009c-.115-1.787-1.23-2.053-1.884-2.053h-.058A1.971,1.971,0,0,0,35.8,11.2Zm46.857,6.9-.005-1.683c.58-.047,1.331-.305,1.331-1.071-.006-1.727-4.036-.533-4.045-3.716,0-1.9,1.671-2.743,3.49-2.743h.054v1.685c-.561.054-1.127.308-1.127.963h0c0,1.4,4.037.5,4.045,3.68.007,2.055-1.844,2.885-3.734,2.885Zm-25.285-.009a4.613,4.613,0,0,1-3.233-1.315,4.679,4.679,0,0,1-1.419-3.208A4.669,4.669,0,0,1,54.1,10.3a4.612,4.612,0,0,1,3.264-1.357h.012a4.613,4.613,0,0,1,3.263,1.344,4.674,4.674,0,0,1,1.391,3.261,4.676,4.676,0,0,1-1.408,3.219,4.617,4.617,0,0,1-3.235,1.327Zm-1.231-7.048a2.284,2.284,0,0,0-1.006,2.247c0,1.131.3,3.027,2.228,3.027h.007c1.945,0,2.235-1.9,2.235-3.038a2.287,2.287,0,0,0-1.016-2.242,2.25,2.25,0,0,0-2.448.006Zm32.03,3.569-.015-5.532,2.315-.006.012,4.681c0,1.072.024,2.521,1.509,2.519,1.674,0,2.032-1.8,2.03-2.918l-.01-4.294L96.3,9.049l.03,7.59-2.214.006h0a3.723,3.723,0,0,1-2.912,1.4h-.012C89.095,18.048,88.177,16.586,88.172,14.614ZM69.945,12.088c-.122-.733-.464-1.356-1.44-1.356-1.674,0-2.027,1.8-2.027,2.92l.01,4.292-2.316,0-.02-7.581,2.227-.005a3.335,3.335,0,0,1,2.913-1.4,2.7,2.7,0,0,1,2.587,1.405h.287a3.334,3.334,0,0,1,2.912-1.4c2.106,0,3.025,1.458,3.031,3.434l.017,5.539-2.314.005L75.8,13.248c0-1.072-.024-2.517-1.506-2.517-1.3,0-1.81,1.089-1.967,2.1l.013,5.1h-.064v.014l-2.314.006Zm28.822-1.05,2.09,0a2.7,2.7,0,0,1,2.429-2.2,2.518,2.518,0,0,1,.709.066L104,11.2a2.4,2.4,0,0,0-1.036-.185c-1.884,0-1.877,2.324-1.877,3.58l.009,3.22-2.312.006Z" transform="translate(0 0.003)"/></g></svg>