<svg xmlns="http://www.w3.org/2000/svg" xmlns:xlink="http://www.w3.org/1999/xlink" width="6.507" height="14" viewBox="0 0 6.507 14"><defs><style>.a{fill:#dedede;}.b{clip-path:url(#a);}</style><clipPath id="a"><path class="a" d="M6.253,7.006H4.29V14H1.382V7.006H0V4.534H1.382v-1.6A2.727,2.727,0,0,1,4.317,0L6.472.008v2.4H4.908a.592.592,0,0,0-.617.673V4.534H6.507Z" transform="translate(9 5)"/></clipPath></defs><g transform="translate(-9 -5)"><path class="a" d="M6.253,7.006H4.29V14H1.382V7.006H0V4.534H1.382v-1.6A2.727,2.727,0,0,1,4.317,0L6.472.008v2.4H4.908a.592.592,0,0,0-.617.673V4.534H6.507Z" transform="translate(9 5)"/><g class="b"><rect class="a" width="24" height="24"/></g></g></svg>