<svg xmlns="http://www.w3.org/2000/svg" width="69" height="24" viewBox="0 0 69 24"><defs><style>.a{fill:#3d3d3d;}</style></defs><g transform="translate(0 0)"><path class="a" d="M13.955,22.851,11.58,18.506,9.686,21.971a1.418,1.418,0,0,1-1.264.749h-.01a1.442,1.442,0,0,1-1.274-.749L.169,9.212A1.348,1.348,0,0,1,.2,7.846a1.418,1.418,0,0,1,1.2-.649H5.384l-2.172-4A2.135,2.135,0,0,1,3.28,1.063,2.252,2.252,0,0,1,5.194,0H26.9a2.174,2.174,0,0,1,1.836,1,2.027,2.027,0,0,1,.052,2.059L17.913,22.851a2.278,2.278,0,0,1-3.958,0ZM6.093,7.608a.828.828,0,0,0-.021.838l4.715,8.546a.948.948,0,0,0,1.652,0l4.749-8.628a.751.751,0,0,0-.039-.78.785.785,0,0,0-.68-.386H6.841A.884.884,0,0,0,6.093,7.608ZM33.88,16.091c-.035-.1-2.616-8.778-2.616-8.778a.189.189,0,0,1,.052-.183.28.28,0,0,1,.189-.083h2.082a.206.206,0,0,1,.223.168l2.1,7.562c.034.166.069.216.206.216s.172-.067.206-.216L38.439,7.2a.222.222,0,0,1,.223-.168l2.03.017a.243.243,0,0,1,.172.083.189.189,0,0,1,.052.183s-2.529,8.661-2.564,8.778a2.259,2.259,0,0,1-2.237,1.533c-.043,0-.087,0-.13,0A2.185,2.185,0,0,1,33.88,16.091Zm20.991,1.517c-1.876,0-3.527-.467-3.527-3.031V9.9c0-2.565,1.669-3.015,3.545-3.015a19.133,19.133,0,0,1,2.924.183c.206.034.293.1.293.283V8.662a.3.3,0,0,1-.293.283H54.751c-.671,0-.929.216-.929.965v1.283h3.889a.3.3,0,0,1,.293.282v1.333a.3.3,0,0,1-.293.282H53.823v1.5c0,.732.241.965.929.965h3.062a.294.294,0,0,1,.293.282v1.316c0,.152-.081.235-.293.269a19.381,19.381,0,0,1-2.67.185Zm4.75-.15a.207.207,0,0,1-.069-.15.223.223,0,0,1,.034-.1l3.149-5.081L59.552,7.283c-.017-.034-.035-.05-.035-.083a.192.192,0,0,1,.07-.139.2.2,0,0,1,.153-.044h2.341a.479.479,0,0,1,.361.267L64.3,10.132l1.808-2.848a.452.452,0,0,1,.361-.267h2.15a.193.193,0,0,1,.156.041.182.182,0,0,1,.067.142.125.125,0,0,1-.035.083L65.644,12.14l3.3,5.046c.017.05.034.083.052.134a.172.172,0,0,1-.07.12.184.184,0,0,1-.137.035H66.487a.4.4,0,0,1-.379-.216l-2.014-3.065-1.807,3.015c-.1.167-.206.282-.361.282H59.776a.165.165,0,0,1-.046.007A.168.168,0,0,1,59.621,17.458ZM45.2,17.475a.3.3,0,0,1-.292-.283V9H42.419a.31.31,0,0,1-.206-.067.271.271,0,0,1-.085-.2V7.281a.3.3,0,0,1,.085-.2.224.224,0,0,1,.206-.066H49.87a.311.311,0,0,1,.311.266V8.729a.276.276,0,0,1-.092.193A.3.3,0,0,1,49.882,9H47.406v8.2a.3.3,0,0,1-.293.283Z" transform="translate(0 0)"/></g></svg>