<?xml version="1.0" encoding="utf-8"?>
<!-- Generator: Adobe Illustrator 25.2.1, SVG Export Plug-In . SVG Version: 6.00 Build 0)  -->
<svg version="1.1" id="Capa_1" xmlns="http://www.w3.org/2000/svg" xmlns:xlink="http://www.w3.org/1999/xlink" x="0px" y="0px"
	 viewBox="0 0 83.1 104" style="enable-background:new 0 0 83.1 104;" xml:space="preserve">
<style type="text/css">
	.st0{fill:#070707;}
	.st1{enable-background:new    ;}
</style>
<g id="botas-mujer" transform="translate(-18.186 -4.561)">
	<g id="XMLID_551_">
		<g id="XMLID_1866_">
			<path id="XMLID_1132_" class="st0" d="M43,75.3h-2c-0.1,0-0.2,0-0.3-0.1L40.5,75l-0.3,0.2c-0.1,0.1-0.2,0.1-0.3,0.1h-2
				c-0.1,0-0.2,0-0.3-0.1l-0.1-0.1v0.1c-0.1,0.1-0.2,0.2-0.4,0.2h-1.9c-0.1,0-0.2,0-0.3-0.1l-0.2-0.1l0,0c-0.1,0.1-0.2,0.2-0.4,0.2
				h-3.1c-0.1,0-0.3,0-0.3-0.1l-0.2-0.2c-0.1,0.1-0.2,0.1-0.3,0.1h-1.2c-0.1,0-0.2,0-0.3-0.1l-0.2-0.2l-0.2,0.2
				c-0.1,0.1-0.2,0.1-0.4,0.1l-1.3-0.1c-0.1,0-0.2,0-0.3-0.1c-0.1,0.1-0.3,0.1-0.5,0.1l-0.7-0.3l-0.2,0.1c-0.2,0.1-0.3,0.1-0.5,0
				l-0.5-0.3l-0.5,0.2c-0.2,0.1-0.5,0.1-0.6-0.1l-0.1-0.2l-0.5,0.1c-0.1,0-0.3,0-0.4-0.1L21.3,74l-0.2,0.1c-0.2,0-0.3,0-0.5-0.1
				l-0.7-0.6h-0.5c-0.1,0-0.3-0.1-0.3-0.2l-0.7-0.8c-0.1-0.1-0.1-0.2-0.1-0.3v-7.3c-0.2-0.8-0.1-1.7,0.3-2.5
				c0.1-0.2,0.3-0.3,0.5-0.4c-0.4-1.5-1.5-6.8-0.5-10.8c0.3-1,0.6-2.1,0.9-3.3c1.1-4,2.5-8.8,2.7-11.9c0.4-4,0.7-11.8,0.6-13.7
				s0.1-5.5,0.6-6.6c-0.3-1.8-0.3-2.9,0-3.3l0,0c0-1.2,0-2.4-0.1-3.6V8.4C23.8,7.3,23.5,6,24,5.2c0.2-0.2,0.4-0.4,0.7-0.5
				c0.4-0.2,0.9-0.2,1.2,0.1c0.6,0.4,0.8,1.1,0.7,2.3c-0.1,2.3-0.2,4.3-0.2,4.7l0.5,2.3l5.2-0.1c1.1-0.2,3.2,0,4,1.6
				c1.9,0,10.6,0,12.7,0.1l0.3-0.3c0.3-1.5,1.7-2.6,3.2-2.6c2.5-0.1,5.9-0.2,6-0.2h0.1c0.9,0.4,1.6,1.3,1.7,2.3
				c0.4,1.9,2.1,11.9,2.5,15.9c0.5,3.7,1.6,7.3,3.1,10.7c1.7,3.7,4.6,8.5,9.1,10.5c0.1,0,10.4,4.9,18.4,4.5c0.1,0,3.3-0.2,5.3,1.7
				c1,1.1,1.6,2.5,1.5,4c0.8,0.3,1.3,1,1.3,1.8l0,0v2.5c0,0.1,0,0.2-0.1,0.3l-0.7,0.9c-0.1,0.2-0.4,0.2-0.6,0.2h-0.1l-0.1,0.5
				c0,0.2-0.2,0.3-0.3,0.4L98.6,69h-0.1v0.1c0,0.2-0.2,0.3-0.4,0.4l-0.8,0.1h-0.2L97,69.7c0,0.1-0.1,0.2-0.3,0.2L96.4,70h-0.3
				L96,70.1c-0.1,0.1-0.1,0.1-0.2,0.1l-2.6,1l0,0c-3.9,1.1-7.8,2-11.8,2.7c-2.2,0.5-4.5,0.7-6.8,0.8h-1.9c-2.7,0.2-5.5,0-8.1-0.6
				c-0.8-0.2-2-0.6-3.4-1.1c-4.6-1.5-11.5-3.9-17.2-4.3l-0.5,0.1l-0.3,5.9C43.5,75.1,43.3,75.3,43,75.3z M41.3,74.3h1.4l0.3-5.8
				c0-0.2,0.2-0.4,0.4-0.5l0.9-0.2h0.1c5.8,0.5,12.9,2.8,17.5,4.3c1.1,0.4,2.3,0.7,3.4,1c2.6,0.6,5.2,0.8,7.8,0.6H75
				c2.2,0,4.4-0.3,6.6-0.8l0,0c3.9-0.6,7.9-1.5,11.7-2.6l2.4-0.9l0.4-0.4c0.1-0.1,0.2-0.2,0.4-0.2c0.1,0,0.2,0.1,0.3,0.1l0,0
				l0.3-0.6c0.1-0.2,0.2-0.3,0.4-0.3c0.2,0,0.3,0.1,0.4,0.2H98l0.1-0.5c0-0.2,0.2-0.3,0.3-0.4c0.2,0,0.4,0,0.5,0.1l0.1,0.1h0.1
				L99,67c0-0.1,0.1-0.2,0.2-0.3c0.1-0.1,0.3-0.1,0.4,0l0.3,0.1l0.4-0.6v-2.3c0-0.5-0.4-0.9-0.9-1c-0.3,0-0.5-0.2-0.4-0.5
				c0.2-1.4-0.3-2.7-1.2-3.7c-1.7-1.6-4.6-1.4-4.6-1.4c-4.3,0-8.6-0.7-12.6-2.2c-2.2-0.7-4.3-1.5-6.3-2.5c-2.6-1.2-6.5-4-9.6-10.9
				c-1.6-3.5-2.6-7.2-3.2-11c-0.3-3.9-2-13.8-2.3-15.7c-0.1-0.6-0.4-1.2-0.9-1.6c-0.6,0-3.6,0.1-5.8,0.2c-1.2-0.1-2.2,0.8-2.3,2l0,0
				c0,0.1-0.1,0.2-0.1,0.3l-0.6,0.6c-0.1,0.1-0.2,0.2-0.4,0.2c-1.8-0.1-13.1-0.1-13.3-0.1s-0.4-0.1-0.5-0.3c-0.5-1.7-3-1.2-3-1.2
				h-0.1l-5.5,0.1c-0.2,0-0.4-0.2-0.5-0.4l-0.6-2.7V12c0,0,0.1-2.3,0.2-4.8c0.1-1.1-0.2-1.4-0.3-1.4c-0.1-0.1-0.3-0.1-0.4,0H25
				l-0.1,0.1C24.6,6.4,25,8,25.1,8.4c0,0.1,0,0.2,0.1,0.3c0.1,0.7,0.1,3.7,0.1,3.9c0,0.2-0.1,0.3-0.2,0.4c-0.1,0.9,0,1.7,0.2,2.6
				c0,0.1,0,0.2-0.1,0.3c-0.5,2-0.7,4.1-0.5,6.2c0.1,4.6-0.1,9.2-0.6,13.8c-0.6,4.1-1.5,8.1-2.8,12c-0.3,1.1-0.7,2.3-0.9,3.2
				C19.2,55.6,21,61.8,21,61.8c0,0.1,0,0.3-0.1,0.4c-0.1,0.1-0.2,0.2-0.3,0.2s-0.3,0.1-0.3,0.2c-0.2,0.6-0.3,1.3-0.1,1.9v7.3
				l0.5,0.6H21c0.1,0,0.2,0,0.3,0.1L22,73l0.2-0.1c0.1,0,0.3,0,0.4,0.1l0.7,0.5l0.5-0.1c0.2,0,0.4,0.1,0.5,0.2l0.1,0.1l0.4-0.2
				c0.2-0.1,0.3-0.1,0.5,0l0.5,0.3l0.2-0.1c0.1-0.1,0.3-0.1,0.4,0l0.6,0.2l0.1-0.1c0.1-0.1,0.2-0.2,0.4-0.2c0.1,0,0.3,0,0.4,0.1
				l0.2,0.2L29,74l0.4-0.4c0.2-0.2,0.5-0.2,0.7,0l0,0l0.4,0.4h0.9l0.1-0.1c0.1-0.1,0.2-0.2,0.4-0.2s0.3,0,0.4,0.1l0.5,0.5h2.1
				l0.2-0.3c0.1-0.1,0.2-0.2,0.3-0.2s0.3,0,0.4,0.1l0.4,0.4H37l0.2-0.3c0.1-0.1,0.2-0.2,0.3-0.2s0.3,0,0.4,0.1l0.4,0.3H40l0.4-0.3
				c0.2-0.1,0.4-0.1,0.6,0L41.3,74.3z"/>
		</g>
		<g id="XMLID_1867_">
			<path id="XMLID_548_" class="st0" d="M72.8,71.3h-1c-5.8-0.1-9.3-1.3-14.1-2.9c-0.8-0.3-1.5-0.5-2.3-0.8c-6-2-19.8-3-24.4-3.4
				h-0.8c-3.3-0.4-6.6-0.9-9.8-1.6c-0.1,0-0.2-0.2-0.2-0.3s0.2-0.2,0.3-0.2s6,1.3,9.8,1.6h0.8c4.5,0.4,18.3,1.3,24.5,3.4
				c0.8,0.3,1.6,0.6,2.3,0.8c4.7,1.6,8.2,2.8,13.9,2.9c5.6,0.1,11.2-0.7,16.6-2.3c0.5-0.1,0.9-0.3,1.4-0.5
				c2.9-0.8,10.5-3.1,10.2-5.1c0-0.1,0.1-0.3,0.2-0.3s0.3,0.1,0.3,0.2c0.5,2.2-4.8,4-10.4,5.6c-0.5,0.1-0.9,0.3-1.4,0.5
				C87.4,69.5,80.8,71.3,72.8,71.3z"/>
		</g>
		<g id="XMLID_1868_">
			<path id="XMLID_547_" class="st0" d="M33.5,64.3c-0.1,0-0.1,0-0.2-0.1c0-0.1-1.1-5.6-1.7-7.2c-0.6-1.7-3.8-12.7-4-14.8
				c-0.3-2-2.1-18.9-2.2-20.8c-0.1-1.8,0-4.9,0-5c0,0,0.2-2.4-0.9-3.7c-0.1-0.1-0.1-0.1,0-0.2c0.1-0.1,0.1-0.1,0.2,0
				c0.8,1.1,1.1,2.5,0.9,3.9c0,0-0.1,3.2,0,4.9c0.1,1.9,1.9,18.8,2.2,20.8c0.3,2.1,3.5,13.1,4,14.8c0.5,1.6,1.6,7,1.7,7.1
				C33.6,64.2,33.5,64.3,33.5,64.3z"/>
		</g>
		<g id="XMLID_1869_">
			<path id="XMLID_546_" class="st0" d="M50.8,50.5L50.8,50.5l-12.2-1.9c-2-0.4-2-3.1-2-3.2L36.5,39c0.5-7.1-1-22.8-1-22.9
				s0-0.2,0.1-0.2s0.2,0,0.2,0.1c0,0.2,1.5,15.7,1,23l0.1,6.4c0,0,0,2.5,1.7,2.9l12,1.9l-1.3-34.6c0-0.1,0.1-0.2,0.2-0.2
				s0.2,0.1,0.2,0.2L51,50.4v0.1H50.8z"/>
		</g>
		<g id="XMLID_1895_">
			<path id="XMLID_545_" class="st0" d="M71.6,72.9h-1.7c-3.3-0.1-8.5-1.7-13.5-3.3c-1.9-0.6-3.9-1.1-5.6-1.7
				c-4.2-1.2-9.9-1.6-14.4-1.9c-2.3-0.2-4.3-0.3-5.9-0.5C27.2,65.2,19.8,64,19.8,64c-0.1,0-0.1-0.1-0.1-0.2s0.1-0.1,0.2-0.1
				s7.3,1.1,10.5,1.6c1.6,0.2,3.7,0.4,5.9,0.5c4.5,0.3,10.2,0.7,14.5,1.9c1.8,0.5,3.8,1.1,5.6,1.7c5,1.5,10.2,3.1,13.5,3.2
				c5.2,0.1,10.5-0.4,15.6-1.6c11.9-2.9,14.3-5.1,15.1-5.8c0.1-0.1,0.2-0.1,0.2,0s0.1,0.2,0,0.2c-2.8,2.6-10,4.5-15.2,5.8
				C81,72.3,76.3,72.9,71.6,72.9z"/>
		</g>
		<g id="XMLID_1896_">
			<path id="XMLID_544_" class="st0" d="M44.2,68.3L44.2,68.3c-6-0.1-12-0.5-18-1.3c-4.1-0.6-6.4-1.1-6.4-1.1
				c-0.1,0-0.1-0.1-0.1-0.2s0.1-0.1,0.2-0.1S29,67.9,44.3,68c0.1,0,0.2,0.1,0.2,0.2C44.4,68.3,44.3,68.3,44.2,68.3z"/>
		</g>
		<g id="XMLID_1897_">
			<path id="XMLID_543_" class="st0" d="M52.5,66.8c-0.1,0-0.2-0.1-0.2-0.2s-0.6-12.7-1.7-16.2c0-0.1,0-0.3,0.2-0.3
				c0.1,0,0.3,0,0.3,0.2c1.1,3.5,1.7,15.7,1.7,16.3C52.7,66.7,52.6,66.7,52.5,66.8z"/>
		</g>
		<g id="XMLID_1898_">
			<path id="XMLID_1116_" class="st0" d="M25.4,11.3c-0.1,0-0.1-0.1-0.2-0.1c0-0.1-0.5-3.1-0.5-3.6c0-0.4,0-0.7,0.3-0.8
				c0.1-0.1,0.3-0.1,0.4-0.1h0.1c0.2,0.2,0.3,0.5,0.3,0.8c0,0.5-0.3,3.4-0.3,3.5C25.5,11.2,25.5,11.3,25.4,11.3z M25.3,7.1L25.3,7.1
				c-0.2,0.1-0.2,0.4-0.2,0.6c0,0.8,0.1,1.5,0.3,2.3c0.1-0.9,0.2-2,0.2-2.3C25.5,7.5,25.4,7.3,25.3,7.1z"/>
		</g>
		<g id="XMLID_1899_">
			<path id="XMLID_1015_" class="st0" d="M53,66.6L53,66.6c-0.1-0.1-0.1-0.2-0.1-0.4c0-0.1,0-0.1,0.1-0.1l0,0c0.1,0,0.1,0,0.1,0.1
				C53.1,66.4,53.1,66.6,53,66.6z M53,66.1L53,66.1v-0.4c0-0.1,0-0.1,0.1-0.1l0,0c0.1,0,0.1,0,0.1,0.1C53.1,65.8,53.1,65.9,53,66.1
				C53.1,66,53.1,66.1,53,66.1z M53,65.4L53,65.4V65c0-0.1,0-0.1,0.1-0.1s0.1,0,0.1,0.1C53.1,65.1,53.1,65.3,53,65.4z M53,64.8
				L53,64.8l-0.1-0.4c0-0.1,0-0.1,0.1-0.1s0.1,0,0.1,0.1L53,64.8z M53,64.2L53,64.2l-0.1-0.4c0-0.1,0-0.1,0.1-0.1s0.1,0,0.1,0.1l0,0
				C53.1,63.8,53,64.2,53,64.2z M53,63.6C52.9,63.6,52.9,63.5,53,63.6l-0.1-0.4c0-0.1,0-0.1,0.1-0.1s0.1,0,0.1,0.1l0,0L53,63.6
				C53.1,63.5,53,63.5,53,63.6z M53,63L53,63l-0.1-0.4c0-0.1,0-0.1,0.1-0.1s0.1,0,0.1,0.1l0,0L53,63z M52.9,62.4L52.9,62.4L52.8,62
				c0-0.1,0-0.1,0.1-0.1s0.1,0,0.1,0.1C53,62,52.9,62.4,52.9,62.4z M52.9,61.7L52.9,61.7l-0.1-0.4c0-0.1,0-0.1,0.1-0.1
				s0.1,0,0.1,0.1L52.9,61.7z M52.8,61.1L52.8,61.1l-0.1-0.4c0-0.1,0-0.1,0.1-0.1s0.1,0,0.1,0.1C52.9,60.7,52.8,61.1,52.8,61.1z
				 M52.8,60.5L52.8,60.5l-0.1-0.4c0-0.1,0-0.1,0.1-0.1s0.1,0,0.1,0.1l0,0L52.8,60.5C52.9,60.4,52.9,60.5,52.8,60.5z M52.8,59.9
				L52.8,59.9l-0.1-0.4c0-0.1,0-0.1,0.1-0.1s0.1,0,0.1,0.1C52.9,59.5,52.8,59.9,52.8,59.9z M52.7,59.3L52.7,59.3l-0.1-0.4
				c0-0.1,0-0.1,0.1-0.1s0.1,0,0.1,0.1L52.7,59.3C52.8,59.2,52.8,59.3,52.7,59.3z M52.7,58.6L52.7,58.6l-0.1-0.4
				c0-0.1,0-0.1,0.1-0.1s0.1,0,0.1,0.1l0,0C52.8,58.2,52.7,58.6,52.7,58.6z M52.6,58.1C52.5,58.1,52.5,58,52.6,58.1l-0.1-0.4
				c0-0.1,0-0.1,0.1-0.1s0.1,0,0.1,0.1l0,0C52.7,57.7,52.6,58.1,52.6,58.1z M52.5,57.4L52.5,57.4V57c0-0.1,0-0.1,0.1-0.1
				s0.1,0,0.1,0.1L52.5,57.4L52.5,57.4z M52.5,56.8L52.5,56.8l-0.2-0.4c0-0.1,0-0.1,0.1-0.1s0.1,0,0.1,0.1
				C52.5,56.4,52.5,56.8,52.5,56.8z M52.5,56.2L52.5,56.2l-0.1-0.4c0-0.1,0-0.1,0.1-0.1s0.1,0,0.1,0.1l0,0L52.5,56.2z M52.4,55.6
				L52.4,55.6l-0.1-0.4c0-0.1,0-0.1,0.1-0.1s0.1,0,0.1,0.1l0,0L52.4,55.6C52.5,55.5,52.5,55.6,52.4,55.6z M52.3,55L52.3,55l-0.1-0.4
				c0-0.1,0-0.1,0.1-0.1s0.1,0,0.1,0.1l0,0C52.4,54.6,52.3,55,52.3,55z M52.2,54.4L52.2,54.4L52.1,54c0-0.1,0-0.1,0.1-0.1
				s0.1,0,0.1,0.1l0,0L52.2,54.4C52.3,54.3,52.3,54.4,52.2,54.4z M52.1,53.8L52.1,53.8L52,53.4c0-0.1,0-0.1,0.1-0.1s0.1,0,0.1,0.1
				l0,0C52.2,53.4,52.1,53.8,52.1,53.8z M52,53.2L52,53.2l-0.1-0.4c0-0.1,0-0.1,0.1-0.1s0.1,0,0.1,0.1l0,0L52,53.2z M51.9,52.5
				L51.9,52.5l-0.1-0.4c0-0.1,0-0.1,0.1-0.1s0.1,0,0.1,0.1L51.9,52.5z M51.9,52C51.8,52,51.8,51.9,51.9,52l-0.1-0.4
				c0-0.1,0-0.1,0.1-0.1s0.1,0,0.1,0.1l0,0L51.9,52z M51.8,51.3L51.8,51.3l-0.1-0.4c0-0.1,0-0.1,0.1-0.1s0.1,0,0.1,0.1
				C51.9,50.9,51.8,51.3,51.8,51.3z M51.6,50.7L51.6,50.7l-0.1-0.3v-0.1c0-0.1,0-0.1,0.1-0.1s0.1,0,0.1,0.1v0.1L51.6,50.7z
				 M51.6,50.1L51.6,50.1l-0.1-0.4c0-0.1,0-0.1,0.1-0.1s0.1,0,0.1,0.1L51.6,50.1z M51.5,49.5L51.5,49.5l-0.1-0.4
				c0-0.1,0-0.1,0.1-0.1s0.1,0,0.1,0.1L51.5,49.5C51.6,49.4,51.6,49.5,51.5,49.5z M51.5,48.9L51.5,48.9l-0.1-0.4
				c0-0.1,0-0.1,0.1-0.1s0.1,0,0.1,0.1L51.5,48.9z M51.5,48.2L51.5,48.2l-0.1-0.4c0-0.1,0-0.1,0.1-0.1s0.1,0,0.1,0.1L51.5,48.2z
				 M51.4,47.6L51.4,47.6l-0.1-0.4c0-0.1,0-0.1,0.1-0.1s0.1,0,0.1,0.1L51.4,47.6z M51.4,47L51.4,47l-0.1-0.4c0-0.1,0-0.1,0.1-0.1
				s0.1,0,0.1,0.1L51.4,47z M51.4,46.4C51.3,46.4,51.3,46.3,51.4,46.4L51.3,46c0-0.1,0-0.1,0.1-0.1s0.1,0,0.1,0.1L51.4,46.4z
				 M51.3,45.8L51.3,45.8l-0.1-0.4c0-0.1,0-0.1,0.1-0.1s0.1,0,0.1,0.1L51.3,45.8z M51.3,45.2C51.2,45.2,51.2,45.1,51.3,45.2
				l-0.1-0.4c0-0.1,0-0.1,0.1-0.1s0.1,0,0.1,0.1L51.3,45.2z M51.2,44.5L51.2,44.5l-0.1-0.4c0-0.1,0-0.1,0.1-0.1s0.1,0,0.1,0.1
				L51.2,44.5z M51.2,44L51.2,44l-0.1-0.4c0-0.1,0-0.1,0.1-0.1s0.1,0,0.1,0.1L51.2,44C51.3,43.9,51.3,44,51.2,44z M51.2,43.3
				L51.2,43.3l-0.1-0.4c0-0.1,0-0.1,0.1-0.1s0.1,0,0.1,0.1L51.2,43.3z M51.1,42.8L51.1,42.8L51,42.4c0-0.1,0-0.1,0.1-0.1
				s0.1,0,0.1,0.1L51.1,42.8C51.2,42.7,51.2,42.8,51.1,42.8z M51.1,42.1L51.1,42.1L51,41.7c0-0.1,0-0.1,0.1-0.1s0.1,0,0.1,0.1
				L51.1,42.1z M51.1,41.4L51.1,41.4L51,41c0-0.1,0-0.1,0.1-0.1s0.1,0,0.1,0.1L51.1,41.4L51.1,41.4z M51,40.9L51,40.9v-0.4
				c0-0.1,0-0.1,0.1-0.1s0.1,0,0.1,0.1L51,40.9C51.1,40.8,51.1,40.9,51,40.9z M51,40.2L51,40.2v-0.4c0-0.1,0-0.1,0.1-0.1
				s0.1,0,0.1,0.1l0,0L51,40.2z M51,39.6L51,39.6v-0.3c0-0.1,0-0.1,0.1-0.1s0.1,0,0.1,0.1l0,0L51,39.6z M51,39L51,39l-0.1-0.4
				c0-0.1,0-0.1,0.1-0.1s0.1,0,0.1,0.1L51,39L51,39z M51,38.4C50.9,38.4,50.9,38.3,51,38.4L50.9,38c0-0.1,0-0.1,0.1-0.1
				s0.1,0,0.1,0.1L51,38.4z M51,37.8L51,37.8l-0.1-0.4c0-0.1,0-0.1,0.1-0.1s0.1,0,0.1,0.1C51.1,37.4,51,37.8,51,37.8z M50.9,37.2
				L50.9,37.2l-0.1-0.5c0-0.1,0-0.1,0.1-0.1s0.1,0,0.1,0.1L50.9,37.2C51,37.1,51,37.2,50.9,37.2z M50.9,36.5L50.9,36.5l-0.1-0.4
				c0-0.1,0-0.1,0.1-0.1s0.1,0,0.1,0.1L50.9,36.5z M50.9,35.9L50.9,35.9l-0.1-0.4c0-0.1,0-0.1,0.1-0.1s0.1,0,0.1,0.1l0,0L50.9,35.9z
				 M50.9,35.3L50.9,35.3l-0.1-0.4c0-0.1,0-0.1,0.1-0.1s0.1,0,0.1,0.1L50.9,35.3z M50.8,34.7L50.8,34.7l-0.1-0.4
				c0-0.1,0-0.1,0.1-0.1s0.1,0,0.1,0.1l0,0C50.9,34.3,50.8,34.7,50.8,34.7z M50.8,34.1L50.8,34.1l-0.1-0.4c0-0.1,0-0.1,0.1-0.1
				s0.1,0,0.1,0.1L50.8,34.1C50.9,34,50.9,34.1,50.8,34.1z M50.8,33.4L50.8,33.4L50.7,33c0-0.1,0-0.1,0.1-0.1s0.1,0,0.1,0.1
				L50.8,33.4z M50.8,32.9C50.7,32.9,50.7,32.8,50.8,32.9l-0.1-0.4c0-0.1,0-0.1,0.1-0.1s0.1,0,0.1,0.1L50.8,32.9z M50.7,32.2
				L50.7,32.2l-0.1-0.4c0-0.1,0-0.1,0.1-0.1s0.1,0,0.1,0.1L50.7,32.2z M50.7,31.5L50.7,31.5l-0.1-0.4c0-0.1,0-0.1,0.1-0.1
				s0.1,0,0.1,0.1L50.7,31.5z M50.7,31L50.7,31l-0.1-0.4c0-0.1,0-0.1,0.1-0.1s0.1,0,0.1,0.1L50.7,31z M50.7,30.3L50.7,30.3L50.6,30
				c0-0.1,0-0.1,0.1-0.1s0.1,0,0.1,0.1L50.7,30.3z M50.6,29.8L50.6,29.8l-0.1-0.4c0-0.1,0-0.1,0.1-0.1s0.1,0,0.1,0.1L50.6,29.8
				C50.7,29.7,50.7,29.8,50.6,29.8z M50.6,29.1L50.6,29.1l-0.1-0.4c0-0.1,0-0.1,0.1-0.1s0.1,0,0.1,0.1L50.6,29.1z M50.6,28.5
				L50.6,28.5l-0.1-0.4c0-0.1,0-0.1,0.1-0.1s0.1,0,0.1,0.1L50.6,28.5z M50.6,27.9L50.6,27.9l-0.1-0.4c0-0.1,0-0.1,0.1-0.1
				s0.1,0,0.1,0.1L50.6,27.9z M50.5,27.3L50.5,27.3l-0.1-0.4c0-0.1,0-0.1,0.1-0.1s0.1,0,0.1,0.1L50.5,27.3
				C50.6,27.2,50.6,27.3,50.5,27.3z M50.5,26.7L50.5,26.7l-0.1-0.4c0-0.1,0-0.1,0.1-0.1s0.1,0,0.1,0.1L50.5,26.7z M50.5,26.1
				C50.4,26.1,50.4,26,50.5,26.1l-0.1-0.4c0-0.1,0-0.1,0.1-0.1s0.1,0,0.1,0.1L50.5,26.1z M50.5,25.4L50.5,25.4L50.4,25
				c0-0.1,0-0.1,0.1-0.1s0.1,0,0.1,0.1L50.5,25.4z M50.4,24.8L50.4,24.8l-0.1-0.4c0-0.1,0-0.1,0.1-0.1s0.1,0,0.1,0.1L50.4,24.8z
				 M50.4,24.2L50.4,24.2l-0.1-0.4c0-0.1,0-0.1,0.1-0.1s0.1,0,0.1,0.1L50.4,24.2C50.5,24.1,50.5,24.2,50.4,24.2z M50.4,23.6
				L50.4,23.6l-0.1-0.4c0-0.1,0-0.1,0.1-0.1s0.1,0,0.1,0.1L50.4,23.6z M50.4,23C50.3,23,50.3,22.9,50.4,23l-0.1-0.4
				c0-0.1,0-0.1,0.1-0.1s0.1,0,0.1,0.1L50.4,23z M50.3,22.3L50.3,22.3L50.2,22c0-0.1,0-0.1,0.1-0.1s0.1,0,0.1,0.1L50.3,22.3z
				 M50.3,21.8L50.3,21.8l-0.1-0.4c0-0.1,0-0.1,0.1-0.1s0.1,0,0.1,0.1L50.3,21.8C50.4,21.7,50.4,21.8,50.3,21.8z M50.3,21.1
				L50.3,21.1l-0.1-0.4c0-0.1,0-0.1,0.1-0.1s0.1,0,0.1,0.1L50.3,21.1z M50.3,20.5L50.3,20.5L50.2,20c0-0.1,0-0.1,0.1-0.1
				s0.1,0,0.1,0.1L50.3,20.5z M50.2,19.9L50.2,19.9l-0.1-0.4c0-0.1,0-0.1,0.1-0.1s0.1,0,0.1,0.1L50.2,19.9z M50.2,19.2L50.2,19.2
				l-0.1-0.4c0-0.1,0-0.1,0.1-0.1s0.1,0,0.1,0.1L50.2,19.2z M50.2,18.7L50.2,18.7l-0.1-0.4c0-0.1,0-0.1,0.1-0.1s0.1,0,0.1,0.1
				L50.2,18.7z M50.2,18L50.2,18l-0.1-0.4c0-0.1,0-0.1,0.1-0.1s0.1,0,0.1,0.1L50.2,18z M50.1,17.5L50.1,17.5L50,17.1
				c0-0.1,0-0.1,0.1-0.1s0.1,0,0.1,0.1L50.1,17.5C50.2,17.4,50.2,17.5,50.1,17.5z M50.1,16.8L50.1,16.8L50,16.4c0-0.1,0-0.1,0.1-0.1
				s0.1,0,0.1,0.1L50.1,16.8z M50.1,16.2C50,16.2,50,16.1,50.1,16.2L50,15.9l0,0v-0.1c0-0.1,0-0.1,0.1-0.1s0.1,0,0.1,0.1l0,0v0.1
				C50.2,15.9,50.1,16.2,50.1,16.2z M50.2,15.6L50.2,15.6v-0.4c0,0,0.1-0.1,0.1,0c0,0,0.1,0.1,0,0.1C50.4,15.4,50.3,15.5,50.2,15.6z
				 M50.5,15L50.5,15C50.4,15,50.4,14.9,50.5,15c-0.1-0.2,0-0.3,0.1-0.4h0.1v0.1C50.7,14.8,50.6,14.9,50.5,15z M50.8,14.5L50.8,14.5
				C50.7,14.5,50.7,14.4,50.8,14.5c0.1-0.1,0.1-0.2,0.2-0.3l0,0v0.1C51,14.3,51,14.4,50.8,14.5z M51.3,14.2L51.3,14.2
				c-0.1-0.1-0.1-0.1,0-0.2c0.1,0,0.2-0.1,0.3-0.1v0.2C51.5,14.1,51.4,14.1,51.3,14.2z M51.9,14.1L51.9,14.1c-0.1-0.1-0.1-0.1,0-0.2
				l0,0h0.3c0.1,0,0.1,0,0.1,0.1s0,0.1-0.1,0.1C52.2,14.1,51.9,14.1,51.9,14.1z M52.5,14L52.5,14c-0.1-0.1-0.1-0.1,0-0.2l0,0h0.3
				c0.1,0,0.1,0,0.1,0.1s0,0.1-0.1,0.1L52.5,14z M53.1,14L53.1,14c-0.1-0.1-0.1-0.1,0-0.2l0,0h0.3c0.1,0,0.1,0,0.1,0.1
				s0,0.1-0.1,0.1C53.4,14,53.1,14,53.1,14z M53.8,13.9L53.8,13.9c-0.1-0.1-0.1-0.1,0-0.2l0,0H54c0.1,0,0.1,0,0.1,0.1s0,0.1-0.1,0.1
				C54,13.9,53.8,13.9,53.8,13.9z M54.3,13.9L54.3,13.9c-0.1-0.1-0.1-0.1,0-0.2l0,0h0.3c0.1,0,0.1,0,0.1,0.1s0,0.1-0.1,0.1
				C54.6,13.9,54.3,13.9,54.3,13.9z M55,13.8L55,13.8c-0.1-0.1-0.1-0.1,0-0.2l0,0h0.3c0.1,0,0.1,0,0.1,0.1s0,0.1-0.1,0.1
				C55.3,13.8,55,13.8,55,13.8z M55.6,13.8L55.6,13.8c-0.1-0.1-0.1-0.1,0-0.2l0,0h0.3c0.1,0,0.1,0,0.1,0.1s0,0.1-0.1,0.1
				C55.9,13.8,55.6,13.8,55.6,13.8z M58.9,13.8h-0.3c-0.1,0-0.1,0-0.1-0.1s0-0.1,0.1-0.1h0.3C59,13.6,59,13.6,58.9,13.8
				C59,13.7,59,13.8,58.9,13.8L58.9,13.8z M58.4,13.8h-0.3c-0.1,0-0.1,0-0.1-0.1s0-0.1,0.1-0.1h0.3C58.4,13.6,58.5,13.6,58.4,13.8z
				 M57.7,13.8h-0.3c-0.1,0-0.1,0-0.1-0.1s0-0.1,0.1-0.1h0.3C57.8,13.6,57.8,13.6,57.7,13.8C57.8,13.7,57.8,13.8,57.7,13.8
				L57.7,13.8z M57.2,13.8h-0.4c-0.1,0-0.1,0-0.1-0.1s0-0.1,0.1-0.1h0.3C57.2,13.6,57.2,13.6,57.2,13.8z M56.5,13.8h-0.3
				c-0.1,0-0.1,0-0.1-0.1s0-0.1,0.1-0.1h0.3C56.6,13.6,56.6,13.6,56.5,13.8C56.6,13.7,56.6,13.8,56.5,13.8L56.5,13.8z"/>
		</g>
		<g id="XMLID_1894_">
			<path id="XMLID_914_" class="st0" d="M53.8,67C53.7,67,53.7,66.9,53.8,67c-0.1-0.1-0.1-0.2-0.1-0.4c0-0.1,0-0.1,0.1-0.1
				s0.1,0,0.1,0.1C53.9,66.8,53.9,66.9,53.8,67z M53.8,66.3L53.8,66.3L53.7,66c0-0.1,0-0.1,0.1-0.1s0.1,0,0.1,0.1L53.8,66.3z
				 M53.8,65.8C53.7,65.8,53.7,65.7,53.8,65.8l-0.1-0.4c0-0.1,0-0.1,0.1-0.1s0.1,0,0.1,0.1L53.8,65.8z M53.7,65.1L53.7,65.1
				l-0.1-0.4c0-0.1,0-0.1,0.1-0.1s0.1,0,0.1,0.1L53.7,65.1z M53.7,64.5L53.7,64.5l-0.1-0.4c0-0.1,0-0.1,0.1-0.1s0.1,0,0.1,0.1
				L53.7,64.5z M53.7,63.9L53.7,63.9l-0.1-0.4c0-0.1,0-0.1,0.1-0.1s0.1,0,0.1,0.1L53.7,63.9z M53.7,63.2L53.7,63.2l-0.1-0.4
				c0-0.1,0-0.1,0.1-0.1s0.1,0,0.1,0.1L53.7,63.2z M53.6,62.7L53.6,62.7l-0.1-0.4c0-0.1,0-0.1,0.1-0.1s0.1,0,0.1,0.1L53.6,62.7
				C53.7,62.6,53.7,62.7,53.6,62.7z M53.6,62L53.6,62l-0.1-0.4c0-0.1,0-0.1,0.1-0.1s0.1,0,0.1,0.1L53.6,62z M53.5,61.5L53.5,61.5
				l-0.1-0.4c0-0.1,0-0.1,0.1-0.1s0.1,0,0.1,0.1L53.5,61.5C53.6,61.4,53.6,61.5,53.5,61.5z M53.5,60.8L53.5,60.8l-0.1-0.4
				c0-0.1,0-0.1,0.1-0.1s0.1,0,0.1,0.1L53.5,60.8z M53.4,60.2L53.4,60.2l-0.1-0.4c0-0.1,0-0.1,0.1-0.1s0.1,0,0.1,0.1L53.4,60.2
				C53.5,60.1,53.5,60.2,53.4,60.2z M53.4,59.6L53.4,59.6l-0.1-0.4c0-0.1,0-0.1,0.1-0.1s0.1,0,0.1,0.1L53.4,59.6z M53.3,58.9
				L53.3,58.9l-0.1-0.4c0-0.1,0-0.1,0.1-0.1s0.1,0,0.1,0.1L53.3,58.9z M53.3,58.4L53.3,58.4L53.2,58c0-0.1,0-0.1,0.1-0.1
				s0.1,0,0.1,0.1L53.3,58.4z M53.2,57.7L53.2,57.7l-0.1-0.4c0-0.1,0-0.1,0.1-0.1s0.1,0,0.1,0.1L53.2,57.7z M53.2,57.1L53.2,57.1
				L53,56.8c0-0.1,0-0.1,0.1-0.1s0.1,0,0.1,0.1C53.2,56.8,53.2,57.1,53.2,57.1z M53.1,56.5L53.1,56.5L53,56.1c0-0.1,0-0.1,0.1-0.1
				s0.1,0,0.1,0.1l0,0C53.2,56.1,53.1,56.5,53.1,56.5z M53,55.9L53,55.9l-0.1-0.4c0-0.1,0-0.1,0.1-0.1s0.1,0,0.1,0.1L53,55.9
				C53.1,55.8,53.1,55.9,53,55.9z M52.9,55.2L52.9,55.2l-0.1-0.4c0-0.1,0-0.1,0.1-0.1s0.1,0,0.1,0.1L52.9,55.2z M52.9,54.7
				L52.9,54.7l-0.1-0.4c0-0.1,0-0.1,0.1-0.1s0.1,0,0.1,0.1L52.9,54.7z M52.8,54L52.8,54l-0.1-0.4c0-0.1,0-0.1,0.1-0.1s0.1,0,0.1,0.1
				C52.9,53.6,52.8,54,52.8,54z M52.7,53.5L52.7,53.5l-0.1-0.4c0-0.1,0-0.1,0.1-0.1s0.1,0,0.1,0.1L52.7,53.5
				C52.8,53.4,52.8,53.5,52.7,53.5z M52.7,52.8L52.7,52.8l-0.1-0.4c0-0.1,0-0.1,0.1-0.1s0.1,0,0.1,0.1
				C52.8,52.4,52.7,52.8,52.7,52.8z M52.6,52.2L52.6,52.2l-0.1-0.4c0-0.1,0-0.1,0.1-0.1s0.1,0,0.1,0.1L52.6,52.2z M52.5,51.6
				L52.5,51.6l-0.1-0.4c0-0.1,0-0.1,0.1-0.1s0.1,0,0.1,0.1L52.5,51.6z M52.5,51L52.5,51l-0.1-0.4c0-0.1,0-0.1,0.1-0.1s0.1,0,0.1,0.1
				L52.5,51z M52.5,50.4L52.5,50.4L52.4,50c0-0.1,0-0.1,0.1-0.1s0.1,0,0.1,0.1L52.5,50.4z M52.5,49.8C52.4,49.8,52.4,49.7,52.5,49.8
				l-0.1-0.4c0-0.1,0-0.1,0.1-0.1s0.1,0,0.1,0.1L52.5,49.8z M52.4,49.1L52.4,49.1l-0.1-0.4c0-0.1,0-0.1,0.1-0.1s0.1,0,0.1,0.1
				L52.4,49.1z M52.3,48.5L52.3,48.5l-0.1-0.4c0-0.1,0-0.1,0.1-0.1s0.1,0,0.1,0.1L52.3,48.5z M52.3,47.9L52.3,47.9l-0.1-0.4
				c0-0.1,0-0.1,0.1-0.1s0.1,0,0.1,0.1L52.3,47.9z M52.2,47.3L52.2,47.3l-0.1-0.4c0-0.1,0-0.1,0.1-0.1s0.1,0,0.1,0.1L52.2,47.3z
				 M52.2,46.7L52.2,46.7l-0.1-0.4c0-0.1,0-0.1,0.1-0.1s0.1,0,0.1,0.1L52.2,46.7z M52.1,46L52.1,46L52,45.7c0-0.1,0-0.1,0.1-0.1
				s0.1,0,0.1,0.1L52.1,46z M52.1,45.5C52,45.5,52,45.4,52.1,45.5L52,45.1c0-0.1,0-0.1,0.1-0.1s0.1,0,0.1,0.1L52.1,45.5z M52,44.8
				L52,44.8l-0.1-0.4c0-0.1,0-0.1,0.1-0.1s0.1,0,0.1,0.1l0,0C52.1,44.4,52,44.8,52,44.8z M52,44.2L52,44.2l-0.1-0.4
				c0-0.1,0-0.1,0.1-0.1s0.1,0,0.1,0.1L52,44.2z M51.9,43.6L51.9,43.6l-0.1-0.4c0-0.1,0-0.1,0.1-0.1s0.1,0,0.1,0.1l0,0
				C52,43.2,51.9,43.6,51.9,43.6z M51.9,43C51.8,43,51.8,42.9,51.9,43l-0.1-0.4c0-0.1,0-0.1,0.1-0.1s0.1,0,0.1,0.1l0,0L51.9,43z
				 M51.8,42.4L51.8,42.4L51.7,42c0-0.1,0-0.1,0.1-0.1s0.1,0,0.1,0.1L51.8,42.4z M51.8,41.7L51.8,41.7l-0.1-0.4c0-0.1,0-0.1,0.1-0.1
				s0.1,0,0.1,0.1L51.8,41.7z M51.8,41.2L51.8,41.2l-0.1-0.4c0-0.1,0-0.1,0.1-0.1s0.1,0,0.1,0.1L51.8,41.2z M51.7,40.5L51.7,40.5
				l-0.1-0.4c0-0.1,0-0.1,0.1-0.1s0.1,0,0.1,0.1L51.7,40.5z M51.7,39.9C51.6,39.9,51.6,39.8,51.7,39.9l-0.1-0.4c0-0.1,0-0.1,0.1-0.1
				s0.1,0,0.1,0.1L51.7,39.9z M51.6,39.3L51.6,39.3c-0.1-0.1-0.1-0.3-0.1-0.4c0-0.1,0-0.1,0.1-0.1s0.1,0,0.1,0.1
				C51.7,39,51.7,39.2,51.6,39.3z M51.6,38.7C51.5,38.7,51.5,38.6,51.6,38.7l-0.1-0.4c0-0.1,0-0.1,0.1-0.1s0.1,0,0.1,0.1L51.6,38.7z
				 M51.6,38L51.6,38l-0.1-0.4c0-0.1,0-0.1,0.1-0.1s0.1,0,0.1,0.1L51.6,38z M51.5,37.4L51.5,37.4v-0.3c0-0.1,0-0.1,0.1-0.1
				s0.1,0,0.1,0.1v0.3H51.5z M51.5,36.8L51.5,36.8l-0.1-0.4c0-0.1,0-0.1,0.1-0.1s0.1,0,0.1,0.1L51.5,36.8
				C51.6,36.7,51.6,36.8,51.5,36.8z M51.5,36.2L51.5,36.2l-0.1-0.4c0-0.1,0-0.1,0.1-0.1s0.1,0,0.1,0.1L51.5,36.2z M51.5,35.6
				C51.4,35.6,51.4,35.5,51.5,35.6l-0.1-0.4c0-0.1,0-0.1,0.1-0.1s0.1,0,0.1,0.1C51.6,35.2,51.5,35.6,51.5,35.6z M51.5,34.9
				L51.5,34.9l-0.1-0.4c0-0.1,0-0.1,0.1-0.1s0.1,0,0.1,0.1L51.5,34.9z M51.4,34.4L51.4,34.4l-0.1-0.5c0-0.1,0-0.1,0.1-0.1
				s0.1,0,0.1,0.1L51.4,34.4C51.5,34.3,51.5,34.4,51.4,34.4z M51.4,33.7L51.4,33.7l-0.1-0.4c0-0.1,0-0.1,0.1-0.1s0.1,0,0.1,0.1
				L51.4,33.7z M51.4,33.1L51.4,33.1l-0.1-0.4c0-0.1,0-0.1,0.1-0.1s0.1,0,0.1,0.1L51.4,33.1z M51.4,32.5L51.4,32.5l-0.1-0.4
				c0-0.1,0-0.1,0.1-0.1s0.1,0,0.1,0.1L51.4,32.5z M51.4,31.8L51.4,31.8l-0.1-0.4c0-0.1,0-0.1,0.1-0.1s0.1,0,0.1,0.1L51.4,31.8z
				 M51.3,31.3L51.3,31.3l-0.1-0.4c0-0.1,0-0.1,0.1-0.1s0.1,0,0.1,0.1L51.3,31.3C51.4,31.2,51.4,31.3,51.3,31.3z M51.3,30.6
				L51.3,30.6l-0.1-0.4c0-0.1,0-0.1,0.1-0.1s0.1,0,0.1,0.1L51.3,30.6z M51.3,30L51.3,30l-0.1-0.4c0-0.1,0-0.1,0.1-0.1s0.1,0,0.1,0.1
				L51.3,30z M51.3,29.4L51.3,29.4L51.2,29c0-0.1,0-0.1,0.1-0.1s0.1,0,0.1,0.1L51.3,29.4z M51.2,28.7L51.2,28.7l-0.1-0.4
				c0-0.1,0-0.1,0.1-0.1s0.1,0,0.1,0.1L51.2,28.7z M51.1,28.1L51.1,28.1v-0.3c0-0.1,0-0.1,0.1-0.1s0.1,0,0.1,0.1v0.3H51.1z
				 M51.2,27.5L51.2,27.5l-0.1-0.4c0-0.1,0-0.1,0.1-0.1s0.1,0,0.1,0.1L51.2,27.5z M51.2,27C51.1,27,51.1,26.9,51.2,27l-0.1-0.4
				c0-0.1,0-0.1,0.1-0.1s0.1,0,0.1,0.1L51.2,27z M51.2,26.3L51.2,26.3l-0.1-0.4c0-0.1,0-0.1,0.1-0.1s0.1,0,0.1,0.1l0,0L51.2,26.3z
				 M51.1,25.7L51.1,25.7L51,25.3c0-0.1,0-0.1,0.1-0.1s0.1,0,0.1,0.1L51.1,25.7C51.2,25.6,51.2,25.7,51.1,25.7z M51.1,25.1
				L51.1,25.1L51,24.7c0-0.1,0-0.1,0.1-0.1s0.1,0,0.1,0.1L51.1,25.1z M51.1,24.5C51,24.5,51,24.4,51.1,24.5L51,24.1
				c0-0.1,0-0.1,0.1-0.1s0.1,0,0.1,0.1L51.1,24.5z M51.1,23.8L51.1,23.8L51,23.5c0-0.1,0-0.1,0.1-0.1s0.1,0,0.1,0.1
				C51.2,23.5,51.1,23.8,51.1,23.8z M51.1,23.2L51.1,23.2L51,22.8c0-0.1,0-0.1,0.1-0.1s0.1,0,0.1,0.1L51.1,23.2z M51,22.6L51,22.6
				v-0.4c0-0.1,0-0.1,0.1-0.1s0.1,0,0.1,0.1L51,22.6z M51,22L51,22v-0.4c0-0.1,0-0.1,0.1-0.1s0.1,0,0.1,0.1l0,0L51,22L51,22z
				 M51,21.4L51,21.4V21c0-0.1,0-0.1,0.1-0.1s0.1,0,0.1,0.1L51,21.4L51,21.4z M51,20.7L51,20.7v-0.3c0-0.1,0-0.1,0.1-0.1
				s0.1,0,0.1,0.1C51.2,20.4,51,20.7,51,20.7z M51,20.2L51,20.2l-0.1-0.4c0-0.1,0-0.1,0.1-0.1s0.1,0,0.1,0.1L51,20.2z M51,19.5
				L51,19.5l-0.1-0.4c0-0.1,0-0.1,0.1-0.1s0.1,0,0.1,0.1l0,0L51,19.5z M51,19L51,19l-0.1-0.4c0-0.1,0-0.1,0.1-0.1s0.1,0,0.1,0.1
				L51,19L51,19z M51,18.3C50.9,18.3,50.9,18.2,51,18.3l-0.1-0.4c0-0.1,0-0.1,0.1-0.1s0.1,0,0.1,0.1L51,18.3z M51,17.6L51,17.6
				l-0.1-0.4c0-0.1,0-0.1,0.1-0.1s0.1,0,0.1,0.1l0,0L51,17.6z M51,17.1C50.9,17.1,50.9,17,51,17.1l-0.1-0.4c0-0.1,0-0.1,0.1-0.1
				s0.1,0,0.1,0.1l0,0L51,17.1z M51,16.4L51,16.4L50.9,16c0-0.1,0-0.1,0.1-0.1s0.1,0,0.1,0.1l0,0L51,16.4z M51,15.9L51,15.9
				C50.9,15.9,50.9,15.8,51,15.9c-0.1-0.2,0-0.3,0-0.4c0,0,0.1-0.1,0.1,0c0,0,0.1,0.1,0,0.1S51,15.7,51,15.9z M51.1,15.2L51.1,15.2
				C51,15.2,51,15.1,51.1,15.2c0-0.2,0-0.3,0.1-0.4h0.1v0.1C51.3,15,51.2,15.1,51.1,15.2z M51.6,14.8L51.6,14.8
				c-0.1-0.1-0.1-0.1,0-0.2c0.1,0,0.2-0.1,0.3-0.1H52v0.1C51.8,14.7,51.7,14.7,51.6,14.8L51.6,14.8z M52.2,14.6L52.2,14.6
				c-0.1-0.1,0-0.1,0-0.2h0.3c0.1,0,0.1,0,0.1,0.1s0,0.1-0.1,0.1L52.2,14.6z M52.8,14.5L52.8,14.5c-0.1-0.1-0.1-0.1,0-0.2l0,0h0.3
				c0.1,0,0.1,0,0.1,0.1s0,0.1-0.1,0.1L52.8,14.5z M53.4,14.5L53.4,14.5c-0.1-0.1-0.1-0.1,0-0.2l0,0h0.3c0.1,0,0.1,0,0.1,0.1
				s0,0.1-0.1,0.1C53.7,14.5,53.4,14.5,53.4,14.5z M54,14.5L54,14.5c-0.1-0.1-0.1-0.1,0-0.2l0,0h0.3c0.1,0,0.1,0,0.1,0.1
				s0,0.1-0.1,0.1C54.3,14.5,54,14.5,54,14.5z M54.6,14.5L54.6,14.5c-0.1-0.1-0.1-0.1,0-0.2l0,0h0.3c0.1,0,0.1,0,0.1,0.1
				s0,0.1-0.1,0.1L54.6,14.5z M55.3,14.4L55.3,14.4c-0.1-0.1-0.1-0.1,0-0.2l0,0h0.3c0.1,0,0.1,0,0.1,0.1s0,0.1-0.1,0.1
				C55.6,14.4,55.3,14.4,55.3,14.4z M55.8,14.4L55.8,14.4c-0.1-0.1-0.1-0.1,0-0.2l0,0h0.3c0.1,0,0.1,0,0.1,0.1s0,0.1-0.1,0.1
				L55.8,14.4z M56.5,14.4L56.5,14.4c-0.1-0.1-0.1-0.1,0-0.2l0,0h0.3c0.1,0,0.1,0,0.1,0.1s0,0.1-0.1,0.1L56.5,14.4z M57.2,14.4
				C57.1,14.4,57.1,14.3,57.2,14.4c-0.1-0.1-0.1-0.1,0-0.2l0,0h0.3c0.1,0,0.1,0,0.1,0.1s0,0.1-0.1,0.1
				C57.5,14.4,57.2,14.4,57.2,14.4z M57.7,14.4L57.7,14.4c-0.1-0.1-0.1-0.1,0-0.2l0,0H58c0.1,0,0.1,0,0.1,0.1s0,0.1-0.1,0.1
				C58,14.4,57.7,14.4,57.7,14.4z M58.4,14.4C58.3,14.4,58.3,14.3,58.4,14.4c-0.1-0.1-0.1-0.1,0-0.2l0,0h0.3c0.1,0,0.1,0,0.1,0.1
				s0,0.1-0.1,0.1L58.4,14.4z M58.9,14.3L58.9,14.3c-0.1-0.1-0.1-0.1,0-0.2l0,0l0,0C58.9,14.2,59,14.2,58.9,14.3z"/>
		</g>
		<g id="XMLID_1900_">
			<path id="XMLID_821_" class="st0" d="M51,52h-0.3c-0.1,0-0.1,0-0.1-0.1s0-0.1,0.1-0.1H51V52z M50.3,51.9H50c-0.1,0-0.1,0-0.1-0.1
				s0-0.1,0.1-0.1l0,0h0.3C50.4,51.7,50.4,51.8,50.3,51.9z M49.7,51.8h-0.3c-0.1,0-0.1,0-0.1-0.1s0-0.1,0.1-0.1l0,0h0.3
				C49.8,51.6,49.8,51.7,49.7,51.8z M49.1,51.7h-0.3c-0.1,0-0.1,0-0.1-0.1s0-0.1,0.1-0.1h0.3C49.2,51.5,49.2,51.6,49.1,51.7z
				 M48.5,51.6h-0.3c-0.1,0-0.1,0-0.1-0.1s0-0.1,0.1-0.1h0.3C48.6,51.4,48.6,51.5,48.5,51.6z M47.8,51.5h-0.3c-0.1,0-0.1,0-0.1-0.1
				s0-0.1,0.1-0.1l0,0h0.3C47.9,51.3,47.9,51.3,47.8,51.5C47.9,51.4,47.9,51.5,47.8,51.5z M47.3,51.4H47c-0.1,0-0.1,0-0.1-0.1
				s0-0.1,0.1-0.1h0.3C47.4,51.2,47.4,51.2,47.3,51.4z M46.6,51.3h-0.3v-0.2h0.3C46.7,51.1,46.7,51.1,46.6,51.3
				C46.7,51.2,46.7,51.3,46.6,51.3L46.6,51.3z M46.1,51.1h-0.3c-0.1,0-0.1,0-0.1-0.1s0-0.1,0.1-0.1h0.3C46.2,51,46.2,51,46.1,51.1z
				 M45.4,51h-0.3C45,51,45,51,45,50.9s0-0.1,0.1-0.1l0,0h0.3C45.5,50.9,45.5,50.9,45.4,51z M44.8,50.9h-0.3c-0.1,0-0.1,0-0.1-0.1
				s0-0.1,0.1-0.1l0,0h0.3C44.9,50.8,44.9,50.8,44.8,50.9z M44.2,50.8h-0.3c-0.1,0-0.1,0-0.1-0.1s0-0.1,0.1-0.1l0,0h0.3
				C44.3,50.7,44.3,50.7,44.2,50.8z M43.6,50.7h-0.3c-0.1,0-0.1,0-0.1-0.1s0-0.1,0.1-0.1l0,0h0.3C43.7,50.7,43.7,50.7,43.6,50.7z
				 M43,50.7h-0.3c-0.1,0-0.1,0-0.1-0.1s0-0.1,0.1-0.1H43C43,50.5,43.1,50.5,43,50.7z M42.4,50.5h-0.3c-0.1,0-0.1,0-0.1-0.1
				s0-0.1,0.1-0.1l0,0h0.3C42.5,50.4,42.5,50.5,42.4,50.5z M41.8,50.5L41.8,50.5l-0.3-0.1c-0.1,0-0.1,0-0.1-0.1s0-0.1,0.1-0.1h0.3
				C41.8,50.3,41.9,50.3,41.8,50.5z M41.2,50.4L41.2,50.4l-0.3-0.1c-0.1,0-0.1,0-0.1-0.1s0-0.1,0.1-0.1l0.3,0.1
				C41.3,50.2,41.3,50.3,41.2,50.4z M40.6,50.2L40.6,50.2c-0.1,0-0.2,0-0.3-0.1c-0.1,0-0.1,0-0.1-0.1s0-0.1,0.1-0.1h0.3
				C40.6,50.1,40.7,50.1,40.6,50.2z M40,50.1h-0.3c-0.1,0-0.1,0-0.1-0.1s0-0.1,0.1-0.1H40V50.1L40,50.1z M39.4,50h-0.3
				C39,50,39,50,39,49.9s0-0.1,0.1-0.1l0,0h0.3C39.4,49.9,39.5,49.9,39.4,50z M38.7,50L38.7,50c-0.1,0-0.2,0-0.3-0.1
				c-0.1,0-0.1,0-0.1-0.1s0-0.1,0.1-0.1s0.2,0,0.3,0.1C38.8,49.8,38.8,49.8,38.7,50C38.8,49.9,38.8,50,38.7,50L38.7,50z M38.2,49.8
				L38.2,49.8c-0.1,0-0.2-0.1-0.3-0.1c0,0-0.1-0.1,0-0.1c0,0,0.1-0.1,0.1,0C38.1,49.6,38.2,49.7,38.2,49.8z M37.5,49.6L37.5,49.6
				c-0.1,0-0.2-0.1-0.3-0.1v-0.1h0.1C37.4,49.4,37.5,49.5,37.5,49.6z M37,49.3L37,49.3c-0.1-0.1-0.2-0.1-0.3-0.2V49h0.1
				C36.9,49.1,37,49.1,37,49.3C37,49.2,37.1,49.2,37,49.3L37,49.3z M36.5,49L36.5,49l-0.3-0.3v-0.1h0.1l0.2,0.2
				C36.6,48.9,36.6,49,36.5,49z M36.1,48.5L36.1,48.5c-0.1-0.1-0.2-0.2-0.2-0.3v-0.1H36C36,48.2,36.1,48.3,36.1,48.5
				C36.2,48.4,36.2,48.5,36.1,48.5L36.1,48.5z M35.8,48L35.8,48c-0.1-0.1-0.2-0.2-0.2-0.4v-0.1h0.1c0,0.1,0.1,0.2,0.1,0.3
				C35.9,47.9,35.8,47.9,35.8,48z M35.5,47.5L35.5,47.5c-0.1-0.1-0.1-0.3-0.2-0.4c0-0.1,0-0.1,0.1-0.1s0.1,0,0.1,0.1
				S35.6,47.3,35.5,47.5C35.6,47.3,35.6,47.5,35.5,47.5z M35.4,46.8L35.4,46.8c-0.1-0.1-0.1-0.3-0.1-0.4c0-0.1,0-0.1,0.1-0.1
				s0.1,0,0.1,0.1v0.3C35.5,46.8,35.5,46.8,35.4,46.8z M35.3,46.2C35.2,46.2,35.2,46.1,35.3,46.2c-0.1-0.1-0.1-0.3-0.1-0.4
				c0-0.1,0-0.1,0.1-0.1s0.1,0,0.1,0.1C35.3,45.9,35.3,46,35.3,46.2z M35.2,45.6L35.2,45.6c-0.1-0.1-0.1-0.3-0.1-0.4
				c0-0.1,0-0.1,0.1-0.1l0,0c0.1,0,0.1,0,0.1,0.1C35.3,45.3,35.3,45.5,35.2,45.6z M35.2,45L35.2,45l-0.1-0.4c0-0.1,0-0.1,0.1-0.1
				s0.1,0,0.1,0.1L35.2,45C35.3,44.9,35.3,45,35.2,45L35.2,45z M35.2,44.3L35.2,44.3V44c0-0.1,0-0.1,0.1-0.1s0.1,0,0.1,0.1l0,0
				L35.2,44.3L35.2,44.3z M35.2,43.8L35.2,43.8v-0.5c0-0.1,0-0.1,0.1-0.1s0.1,0,0.1,0.1L35.2,43.8C35.3,43.7,35.3,43.8,35.2,43.8
				L35.2,43.8z M35.3,43.1L35.3,43.1l-0.1-0.4c0-0.1,0-0.1,0.1-0.1s0.1,0,0.1,0.1l0,0C35.4,42.7,35.3,43.1,35.3,43.1z M35.3,42.5
				L35.3,42.5l-0.1-0.4c0-0.1,0-0.1,0.1-0.1s0.1,0,0.1,0.1L35.3,42.5z M35.3,41.9L35.3,41.9l-0.1-0.4c0-0.1,0-0.1,0.1-0.1
				s0.1,0,0.1,0.1l0,0C35.4,41.5,35.3,41.9,35.3,41.9z M35.3,41.2L35.3,41.2l-0.1-0.4c0-0.1,0-0.1,0.1-0.1s0.1,0,0.1,0.1
				C35.4,40.8,35.3,41.2,35.3,41.2z M35.3,40.7L35.3,40.7l-0.1-0.4c0-0.1,0-0.1,0.1-0.1s0.1,0,0.1,0.1L35.3,40.7z M35.3,40L35.3,40
				l-0.1-0.4c0-0.1,0-0.1,0.1-0.1l0,0c0.1,0,0.1,0,0.1,0.1L35.3,40z M35.3,39.5L35.3,39.5l-0.1-0.4c0-0.1,0-0.1,0.1-0.1
				s0.1,0,0.1,0.1l0,0L35.3,39.5C35.4,39.4,35.4,39.5,35.3,39.5L35.3,39.5z M35.3,38.8L35.3,38.8l-0.1-0.4c0-0.1,0-0.1,0.1-0.1l0,0
				c0.1,0,0.1,0,0.1,0.1L35.3,38.8z M35.3,38.2L35.3,38.2l-0.1-0.4c0-0.1,0-0.1,0.1-0.1l0,0c0.1,0,0.1,0,0.1,0.1L35.3,38.2
				C35.4,38.1,35.4,38.2,35.3,38.2L35.3,38.2z M35.3,37.6L35.3,37.6l-0.1-0.4c0-0.1,0-0.1,0.1-0.1s0.1,0,0.1,0.1l0,0
				C35.4,37.2,35.3,37.6,35.3,37.6z M35.3,36.9L35.3,36.9l-0.1-0.4c0-0.1,0-0.1,0.1-0.1l0,0c0.1,0,0.1,0,0.1,0.1L35.3,36.9z
				 M35.3,36.3L35.3,36.3L35.2,36c0-0.1,0-0.1,0.1-0.1l0,0c0.1,0,0.1,0,0.1,0.1L35.3,36.3z M35.3,35.7L35.3,35.7l-0.1-0.4
				c0-0.1,0-0.1,0.1-0.1l0,0c0.1,0,0.1,0,0.1,0.1L35.3,35.7z M35.3,35.1L35.3,35.1l-0.1-0.4c0-0.1,0-0.1,0.1-0.1l0,0
				c0.1,0,0.1,0,0.1,0.1L35.3,35.1C35.4,35,35.4,35.1,35.3,35.1z M35.3,34.5L35.3,34.5l-0.1-0.4h0.2L35.3,34.5z M35.3,33.9
				L35.3,33.9l-0.1-0.4c0-0.1,0-0.1,0.1-0.1l0,0c0.1,0,0.1,0,0.1,0.1L35.3,33.9C35.4,33.8,35.4,33.9,35.3,33.9z M35.3,33.2
				L35.3,33.2l-0.1-0.4h0.2L35.3,33.2z M35.3,32.6L35.3,32.6l-0.1-0.4c0-0.1,0-0.1,0.1-0.1s0.1,0,0.1,0.1
				C35.4,32.2,35.3,32.6,35.3,32.6z M35.3,32L35.3,32l-0.1-0.4h0.2L35.3,32z M35.3,31.4L35.3,31.4L35.2,31c0-0.1,0-0.1,0.1-0.1
				s0.1,0,0.1,0.1C35.4,31,35.3,31.4,35.3,31.4z M35.3,30.8C35.2,30.8,35.2,30.7,35.3,30.8l-0.1-0.4c0-0.1,0-0.1,0.1-0.1
				s0.1,0,0.1,0.1C35.4,30.4,35.3,30.8,35.3,30.8z M35.3,30.1L35.3,30.1l-0.1-0.4c0-0.1,0-0.1,0.1-0.1s0.1,0,0.1,0.1L35.3,30.1z
				 M35.2,29.6L35.2,29.6l-0.1-0.4c0-0.1,0-0.1,0.1-0.1s0.1,0,0.1,0.1L35.2,29.6C35.3,29.5,35.3,29.6,35.2,29.6z M35.2,28.9
				L35.2,28.9l-0.1-0.4c0-0.1,0-0.1,0.1-0.1s0.1,0,0.1,0.1L35.2,28.9z M35.2,28.4L35.2,28.4V28c0-0.1,0-0.1,0.1-0.1s0.1,0,0.1,0.1
				L35.2,28.4L35.2,28.4z M35.2,27.7L35.2,27.7l-0.1-0.4c0-0.1,0-0.1,0.1-0.1s0.1,0,0.1,0.1L35.2,27.7z M35.2,27.1L35.2,27.1
				l-0.1-0.4c0-0.1,0-0.1,0.1-0.1s0.1,0,0.1,0.1L35.2,27.1z M35.2,26.5L35.2,26.5l-0.1-0.4c0-0.1,0-0.1,0.1-0.1s0.1,0,0.1,0.1
				L35.2,26.5z M35.2,25.8L35.2,25.8l-0.1-0.4c0-0.1,0-0.1,0.1-0.1s0,0.1,0,0.1V25.8z M35.1,25.2L35.1,25.2L35,24.9
				c0-0.1,0-0.1,0.1-0.1s0.1,0,0.1,0.1L35.1,25.2z M35.1,24.6L35.1,24.6L35,24.2c0-0.1,0-0.1,0.1-0.1s0.1,0,0.1,0.1L35.1,24.6z
				 M35,24L35,24l-0.1-0.4c0-0.1,0-0.1,0.1-0.1s0.1,0,0.1,0.1L35,24C35.1,23.9,35.1,24,35,24z M35,23.4L35,23.4L34.9,23
				c0-0.1,0-0.1,0.1-0.1s0.1,0,0.1,0.1L35,23.4z M34.9,22.8L34.9,22.8l-0.1-0.4c0-0.1,0-0.1,0.1-0.1s0.1,0,0.1,0.1L34.9,22.8
				C35,22.7,35,22.8,34.9,22.8z M34.9,22.1L34.9,22.1l-0.1-0.4c0-0.1,0-0.1,0.1-0.1s0.1,0,0.1,0.1L34.9,22.1z M34.8,21.6L34.8,21.6
				l-0.1-0.4c0-0.1,0-0.1,0.1-0.1s0.1,0,0.1,0.1l0,0L34.8,21.6C34.9,21.5,34.9,21.6,34.8,21.6z M34.7,20.9L34.7,20.9l-0.1-0.4
				c0-0.1,0-0.1,0.1-0.1s0.1,0,0.1,0.1l0,0L34.7,20.9C34.8,20.8,34.8,20.9,34.7,20.9z M34.7,20.3L34.7,20.3l-0.1-0.4
				c0-0.1,0-0.1,0.1-0.1s0.1,0,0.1,0.1l0,0L34.7,20.3z M34.6,19.7L34.6,19.7c-0.1-0.1-0.1-0.3-0.1-0.4s0-0.1,0.1-0.1s0.1,0,0.1,0.1
				l0,0C34.7,19.4,34.7,19.6,34.6,19.7z M34.5,19L34.5,19c-0.1-0.1-0.1-0.3-0.1-0.4s0-0.1,0.1-0.1s0.1,0,0.1,0.1l0,0
				C34.6,18.7,34.6,19,34.5,19z M34.4,18.5L34.4,18.5c-0.1-0.1-0.1-0.3-0.1-0.4s0-0.1,0.1-0.1s0.1,0,0.1,0.1l0,0
				C34.5,18.2,34.5,18.4,34.4,18.5C34.5,18.4,34.5,18.5,34.4,18.5z M34.3,17.9L34.3,17.9c-0.1-0.1-0.1-0.3-0.1-0.4v-0.1h0.1
				C34.4,17.6,34.4,17.7,34.3,17.9z M34.1,17.3L34.1,17.3C34,17.2,34,17,33.9,17v-0.1H34C34.2,17,34.2,17.1,34.1,17.3L34.1,17.3z
				 M33.9,16.7L33.9,16.7c-0.1-0.1-0.2-0.2-0.2-0.3v-0.1h0.1C33.9,16.4,33.9,16.5,33.9,16.7C34,16.6,34,16.7,33.9,16.7z M25.9,16.3
				L25.9,16.3c-0.1-0.1-0.1-0.1,0-0.2l0,0h0.3c0.1,0,0.1,0,0.1,0.1s0,0.1-0.1,0.1H25.9z M26.6,16.3C26.5,16.3,26.5,16.2,26.6,16.3
				c-0.1-0.1-0.1-0.1,0-0.2l0,0h0.3c0.1,0,0.1,0,0.1,0.1l0,0c0,0.1,0,0.1-0.1,0.1H26.6z M27.2,16.2L27.2,16.2
				c-0.1-0.1-0.1-0.1,0-0.2l0,0h0.3c0.1,0,0.1,0,0.1,0.1s0,0.1-0.1,0.1l0,0H27.2z M27.8,16.2L27.8,16.2c-0.1-0.1-0.1-0.1,0-0.2l0,0
				h0.3c0.1,0,0.1,0,0.1,0.1s0,0.1-0.1,0.1H27.8z M33.5,16.2L33.5,16.2c-0.1-0.1-0.2-0.2-0.3-0.2v-0.1h0.1
				C33.5,15.9,33.5,16,33.5,16.2z M28.4,16.1L28.4,16.1c-0.1-0.1-0.1-0.1,0-0.2l0,0h0.3c0.1,0,0.1,0,0.1,0.1c0,0.1,0,0.1-0.1,0.1
				l0,0H28.4z M29,16.1L29,16.1c-0.1-0.1-0.1-0.1,0-0.2l0,0h0.3c0.1,0,0.1,0,0.1,0.1l0,0c0,0.1,0,0.1-0.1,0.1H29z M29.6,16.1
				L29.6,16.1c-0.1-0.1-0.1-0.1,0-0.2l0,0h0.3c0.1,0,0.1,0,0.1,0.1c0,0.1,0,0.1-0.1,0.1l0,0H29.6z M30.3,16L30.3,16
				c-0.1-0.1-0.1-0.1,0-0.2l0,0h0.3c0.1,0,0.1,0,0.1,0.1c0,0.1,0,0.1-0.1,0.1l0,0H30.3z M30.8,16L30.8,16c-0.1-0.1-0.1-0.1,0-0.2
				l0,0h0.3c0.1,0,0.1,0,0.1,0.1c0,0.1,0,0.1-0.1,0.1l0,0H30.8z M31.5,15.9L31.5,15.9c-0.1-0.1-0.1-0.1,0-0.2l0,0h0.3
				c0.1,0,0.1,0,0.1,0.1s0,0.1-0.1,0.1l0,0C31.8,15.9,31.5,15.9,31.5,15.9z M33,15.9h-0.3c-0.1,0-0.1,0-0.1-0.1s0-0.1,0.1-0.1H33
				C33.1,15.9,33.1,15.9,33,15.9L33,15.9z M32.4,15.9h-0.3c-0.1,0-0.1,0-0.1-0.1s0-0.1,0.1-0.1h0.3C32.4,15.9,32.5,15.9,32.4,15.9z"
				/>
		</g>
		<g id="XMLID_1901_">
			<path id="XMLID_752_" class="st0" d="M50.9,51.2h-0.3c-0.1,0-0.1-0.1-0.1-0.2s0.1-0.1,0.2-0.1H51c0.1,0,0.1,0.1,0.1,0.2
				C51,51.1,51,51.2,50.9,51.2z M50.2,51.1h-0.3c-0.1,0-0.1-0.1-0.1-0.2s0.1-0.1,0.2-0.1h0.3c0.1,0,0.1,0.1,0.1,0.2
				C50.3,51.1,50.3,51.1,50.2,51.1z M49.6,51h-0.3c-0.1,0-0.1-0.1-0.1-0.2s0.1-0.1,0.2-0.1h0.3c0.1,0,0.1,0.1,0.1,0.2
				C49.7,50.9,49.7,51,49.6,51z M49,50.9h-0.3c-0.1,0-0.1-0.1-0.1-0.2s0.1-0.1,0.2-0.1h0.3c0.1,0,0.1,0.1,0.1,0.2S49.1,50.9,49,50.9
				z M48.4,50.8h-0.3c-0.1,0-0.1-0.1-0.1-0.2s0.1-0.1,0.2-0.1h0.3c0.1,0,0.1,0.1,0.1,0.2C48.5,50.8,48.5,50.8,48.4,50.8z M47.8,50.7
				h-0.3c-0.1,0-0.1-0.1-0.1-0.2s0.1-0.1,0.2-0.1h0.3c0.1,0,0.1,0.1,0.1,0.2C47.9,50.7,47.9,50.7,47.8,50.7z M47.2,50.7h-0.3v-0.3
				h0.3C47.3,50.4,47.3,50.5,47.2,50.7z M46.5,50.5h-0.3c-0.1,0-0.1-0.1-0.1-0.2s0.1-0.1,0.2-0.1h0.3c0.1,0,0.1,0.1,0.1,0.2
				S46.6,50.5,46.5,50.5z M46,50.5h-0.3c-0.1,0-0.1-0.1-0.1-0.2s0.1-0.1,0.2-0.1h0.3c0.1,0,0.1,0.1,0.1,0.2
				C46.1,50.5,46.1,50.5,46,50.5z M45.3,50.5H45c-0.1,0-0.1-0.1-0.1-0.2s0.1-0.1,0.2-0.1h0.3c0.1,0,0.1,0.1,0.1,0.2
				C45.4,50.5,45.4,50.5,45.3,50.5z M44.7,50.4h-0.3c-0.1,0-0.1-0.1-0.1-0.2s0.1-0.1,0.2-0.1h0.3c0.1,0,0.1,0.1,0.1,0.2
				C44.8,50.3,44.8,50.4,44.7,50.4z M44.1,50.3h-0.3c-0.1,0-0.1-0.1-0.1-0.2s0.1-0.1,0.2-0.1h0.3c0.1,0,0.1,0.1,0.1,0.2
				C44.2,50.3,44.2,50.3,44.1,50.3L44.1,50.3z M43.5,50.2h-0.3c-0.1,0-0.1-0.1-0.1-0.2s0.1-0.1,0.2-0.1h0.3c0.1,0,0.1,0.1,0.1,0.2
				C43.6,50.1,43.6,50.2,43.5,50.2L43.5,50.2z M42.9,50.1h-0.3c-0.1,0-0.1-0.1-0.1-0.2s0.1-0.1,0.2-0.1H43c0.1,0,0.1,0.1,0.1,0.2
				C43,50,43,50.1,42.9,50.1L42.9,50.1z M42.3,50H42c-0.1,0-0.1-0.1-0.1-0.2s0.1-0.1,0.2-0.1h0.3c0.1,0,0.1,0.1,0.1,0.2
				C42.4,49.9,42.4,50,42.3,50L42.3,50z M41.6,49.9h-0.4c-0.1,0-0.1-0.1-0.1-0.2s0.1-0.1,0.2-0.1h0.3C41.7,49.6,41.7,49.7,41.6,49.9
				C41.8,49.8,41.7,49.9,41.6,49.9L41.6,49.9z M41.1,49.8L41.1,49.8c-0.1,0-0.3,0-0.4-0.1c-0.1,0-0.1-0.1-0.1-0.2s0.1-0.1,0.2-0.1
				h0.3c0.1,0,0.1,0.1,0.1,0.2S41.2,49.8,41.1,49.8L41.1,49.8z M40.4,49.7L40.4,49.7c-0.1,0-0.3,0-0.4-0.1c-0.1,0-0.1-0.1-0.1-0.2
				s0.1-0.1,0.2-0.1c0.1,0,0.2,0,0.3,0.1C40.5,49.4,40.5,49.5,40.4,49.7C40.6,49.6,40.5,49.7,40.4,49.7L40.4,49.7z M39.8,49.5
				L39.8,49.5c-0.1,0-0.3,0-0.4-0.1c-0.1,0-0.1-0.1-0.1-0.2s0.1-0.1,0.2-0.1c0.1,0,0.2,0,0.3,0.1C39.9,49.2,39.9,49.3,39.8,49.5z
				 M39.3,49.4L39.3,49.4c-0.1,0-0.3,0-0.4-0.1c-0.1,0-0.1-0.1-0.1-0.2S38.9,49,39,49s0.2,0,0.3,0.1C39.4,49.1,39.4,49.2,39.3,49.4z
				 M38.6,49.2L38.6,49.2c-0.2,0-0.3-0.1-0.4-0.1s-0.1-0.1-0.1-0.2s0.1-0.1,0.2-0.1c0.1,0,0.2,0,0.3,0.1
				C38.7,49,38.7,49.1,38.6,49.2L38.6,49.2z M38.1,49L38.1,49c-0.2,0-0.3-0.1-0.4-0.1s-0.1-0.1-0.1-0.2s0.1-0.1,0.2-0.1
				c0.1,0,0.2,0,0.3,0.1V49L38.1,49z M37.5,49L37.5,49c-0.2-0.1-0.3-0.1-0.4-0.2c-0.1,0-0.1-0.1,0-0.2l0,0c-0.1,0.1-0.2,0.1-0.2,0
				c-0.1-0.1-0.2-0.2-0.2-0.3c-0.1-0.1-0.1-0.1,0-0.2l0,0h-0.2c-0.1-0.1-0.1-0.2-0.2-0.3c0-0.1,0-0.2,0.1-0.2l0,0
				c-0.1,0-0.2,0-0.2-0.1s-0.1-0.2-0.1-0.3s0-0.2,0.1-0.2s0.2,0,0.2,0.1s0.1,0.2,0.1,0.3s0,0.2-0.1,0.2c0.1,0,0.2,0,0.2,0.1
				s0.1,0.2,0.1,0.3v0.2h0.2l0.2,0.2c0.1,0,0.1,0.1,0,0.2c0-0.1,0.1-0.1,0.2,0s0.1,0.1,0.2,0.1l0,0C37.6,48.7,37.6,48.8,37.5,49z
				 M36.1,47c-0.1,0-0.1,0-0.2-0.1c0-0.1,0-0.2-0.1-0.3c0-0.1,0-0.2,0.1-0.2s0.2,0,0.2,0.1s0,0.2,0.1,0.3C36.3,46.9,36.2,47,36.1,47
				z M36,46.4c-0.1,0-0.1-0.1-0.2-0.1V46c0-0.1,0-0.2,0.1-0.2s0.2,0,0.2,0.1v0.3C36.2,46.3,36.1,46.3,36,46.4L36,46.4z M35.9,45.8
				c-0.1,0-0.1,0-0.2-0.1v-0.3c0-0.1,0.1-0.2,0.2-0.2s0.2,0.1,0.2,0.2l0,0v0.3C36,45.8,36,45.8,35.9,45.8z M35.9,45.1L35.9,45.1
				c-0.1,0-0.2-0.1-0.2-0.2v-0.3c0-0.1,0.1-0.2,0.2-0.2s0.2,0.1,0.2,0.2v0.3C36.1,45.1,36,45.1,35.9,45.1L35.9,45.1z M35.9,44.5
				L35.9,44.5c-0.1,0-0.2-0.1-0.2-0.2V44l0,0c0-0.1,0.1-0.2,0.2-0.2l0,0c-0.1,0-0.2-0.1-0.2-0.2v-0.3c0-0.1,0.1-0.2,0.2-0.2l0,0
				c-0.1,0-0.2-0.1-0.2-0.2v-0.3c0-0.1,0.1-0.2,0.2-0.2l0,0c-0.1,0-0.2-0.1-0.2-0.2v-0.3c0-0.1,0.1-0.2,0.2-0.2l0,0
				c-0.1,0-0.2-0.1-0.2-0.2v-0.3c0-0.1,0.1-0.2,0.2-0.2l0,0c-0.1,0-0.2-0.1-0.2-0.2v-0.3c0-0.1,0.1-0.2,0.2-0.2l0,0
				c-0.1,0-0.2-0.1-0.2-0.2v-0.3c0-0.1,0.1-0.2,0.2-0.2l0,0c-0.1,0-0.2-0.1-0.2-0.2v-0.3c0-0.1,0.1-0.2,0.2-0.2l0,0
				c-0.1,0-0.2-0.1-0.2-0.2v-0.3c0-0.1,0.1-0.2,0.2-0.2l0,0c-0.1,0-0.2-0.1-0.2-0.2v-0.3c0-0.1,0.1-0.2,0.2-0.2s0.2,0.1,0.2,0.2V38
				c0,0.1-0.1,0.2-0.2,0.2l0,0c0.1,0,0.2,0.1,0.2,0.2v0.3c0,0.5,0,0.5-0.1,0.5l0,0c0.1,0,0.2,0.1,0.2,0.2V40c0,0.1-0.1,0.2-0.2,0.2
				l0,0c0.1,0,0.2,0.1,0.2,0.2v0.3c0,0.1-0.1,0.2-0.2,0.2l0,0c0.1,0,0.2,0.1,0.2,0.2v0.3c0,0.1-0.1,0.2-0.2,0.2l0,0
				c0.1,0,0.2,0.1,0.2,0.2V42c0,0.1-0.1,0.2-0.2,0.2l0,0c0.1,0,0.2,0.1,0.2,0.2v0.3c0,0.1-0.1,0.2-0.2,0.2l0,0
				c0.1,0,0.2,0.1,0.2,0.2v0.3c0,0.1-0.1,0.2-0.2,0.2l0,0c0.1-0.2,0.1-0.2,0.1-0.1v0.3c0,0.1-0.1,0.2-0.2,0.2l0,0
				c0.1,0,0.2,0.1,0.2,0.2l0,0v0.3C36.1,44.4,36,44.5,35.9,44.5L35.9,44.5z M36,38.3L36,38.3c-0.1,0-0.2-0.1-0.2-0.2v-0.3
				c0-0.1,0.1-0.2,0.2-0.2l0,0c0.1,0,0.2,0.1,0.2,0.2v0.3C36.1,38.3,36.1,38.3,36,38.3L36,38.3z M36,37.8L36,37.8
				c-0.1,0-0.2-0.1-0.2-0.2v-0.4c0-0.1,0.1-0.2,0.2-0.2l0,0c0.1,0,0.2,0.1,0.2,0.2v0.4C36.1,37.7,36.1,37.8,36,37.8L36,37.8z
				 M36,37.1c-0.1,0-0.2-0.1-0.2-0.2v-0.3c0-0.1,0.1-0.2,0.2-0.2l0,0c0.1,0,0.2,0.1,0.2,0.2v0.3C36.1,37,36.1,37.1,36,37.1z
				 M36,36.5c-0.1,0-0.2-0.1-0.2-0.2V36c0-0.1,0.1-0.2,0.2-0.2l0,0c0.1,0,0.2,0.1,0.2,0.2v0.3C36.1,36.4,36.1,36.5,36,36.5L36,36.5z
				 M36,35.9c-0.1,0-0.2-0.1-0.2-0.2v-0.3c0-0.1,0.1-0.2,0.2-0.2s0.2,0.1,0.2,0.2v0.3L36,35.9z M35.9,35.3c-0.1,0-0.2-0.1-0.2-0.2
				v-0.3c0-0.1,0.1-0.2,0.2-0.2s0.2,0.1,0.2,0.2l0,0v0.3C36.1,35.2,36,35.3,35.9,35.3z M35.9,34.7c-0.1,0-0.2-0.1-0.2-0.2v-0.3
				c0-0.1,0.1-0.2,0.2-0.2s0.2,0.1,0.2,0.2v0.3C36.1,34.6,36,34.7,35.9,34.7z M35.9,34c-0.1,0-0.2-0.1-0.2-0.2v-0.3
				c0-0.1,0.1-0.2,0.2-0.2s0.2,0.1,0.2,0.2v0.4C36.1,34,36,34,35.9,34z M35.9,33.4c-0.1,0-0.2-0.1-0.2-0.2V33c0-0.1,0.1-0.2,0.2-0.2
				l0,0c0.1,0,0.2,0.1,0.2,0.2v0.3C36,33.4,36,33.4,35.9,33.4L35.9,33.4z M35.9,32.8c-0.1,0-0.2-0.1-0.2-0.2v-0.3
				c0-0.1,0.1-0.2,0.2-0.2s0.2,0.1,0.2,0.2v0.3C36.1,32.7,36,32.8,35.9,32.8z M35.9,32.2c-0.1,0-0.2-0.1-0.2-0.2v-0.3
				c0-0.1,0.1-0.2,0.2-0.2c-0.1,0-0.2-0.1-0.2-0.2V31c0-0.1,0-0.1,0.1-0.2c-0.1,0-0.1-0.1-0.1-0.2v-0.3c0-0.1,0.1-0.2,0.2-0.2
				s0.2,0.1,0.2,0.2v0.3c0,0.1,0,0.1-0.1,0.2c0.1,0,0.1,0.1,0.1,0.2v0.3c0,0.1-0.1,0.2-0.2,0.2c0.1,0,0.2,0.1,0.2,0.2V32
				C36,32.1,36,32.2,35.9,32.2L35.9,32.2z M35.8,30.3c-0.1,0-0.2-0.1-0.2-0.2v-0.3c0-0.1,0.1-0.2,0.2-0.2s0.2,0.1,0.2,0.2v0.3
				C36,30.2,35.9,30.3,35.8,30.3z M35.8,29.7c-0.1,0-0.2-0.1-0.2-0.2v-0.3c0-0.1,0.1-0.2,0.2-0.2s0.2,0.1,0.2,0.2v0.3
				C36,29.7,35.9,29.7,35.8,29.7z M35.8,29.1c-0.1,0-0.2-0.1-0.2-0.2v-0.3c0-0.1,0.1-0.2,0.2-0.2s0.2,0.1,0.2,0.2l0,0v0.3
				C35.9,29,35.9,29.1,35.8,29.1z M35.8,28.5c-0.1,0-0.2-0.1-0.2-0.2V28c0-0.1,0.1-0.2,0.2-0.2S36,27.9,36,28v0.3
				C35.9,28.5,35.9,28.5,35.8,28.5L35.8,28.5z M35.7,27.9c-0.1,0-0.2-0.1-0.2-0.2v-0.3c0-0.1,0.1-0.2,0.2-0.2s0.2,0.1,0.2,0.2l0,0
				v0.3C35.9,27.8,35.8,27.9,35.7,27.9z M35.7,27.2c-0.1,0-0.2-0.1-0.2-0.2v-0.3c0-0.1,0.1-0.2,0.2-0.2s0.2,0.1,0.2,0.2V27
				C35.9,27.1,35.8,27.2,35.7,27.2L35.7,27.2z M35.7,26.7c-0.1,0-0.2-0.1-0.2-0.2v-0.3c0-0.1,0.1-0.2,0.2-0.2s0.2,0.1,0.2,0.2l0,0
				v0.3C35.9,26.6,35.8,26.7,35.7,26.7z M35.7,26c-0.1,0-0.2-0.1-0.2-0.2v-0.3c0-0.1,0.1-0.2,0.2-0.2s0.2,0.1,0.2,0.2v0.3
				C35.8,25.9,35.8,26,35.7,26z M35.6,25.4c-0.1,0-0.2-0.1-0.2-0.2v-0.3c0-0.1,0.1-0.2,0.2-0.2s0.2,0.1,0.2,0.2v0.3
				C35.8,25.4,35.7,25.4,35.6,25.4z M35.6,24.8c-0.1,0-0.2-0.1-0.2-0.2v-0.3c0-0.1,0.1-0.2,0.2-0.2s0.2,0.1,0.2,0.2l0,0v0.3
				C35.8,24.7,35.7,24.8,35.6,24.8z M35.6,24.1c-0.1,0-0.2-0.1-0.2-0.2v-0.3c0-0.1,0.1-0.2,0.2-0.2s0.2,0.1,0.2,0.2l0,0v0.3
				C35.8,24,35.7,24.1,35.6,24.1z M35.6,23.6c-0.1,0-0.2-0.1-0.2-0.2v-0.3c0-0.1,0.1-0.2,0.2-0.2s0.2,0.1,0.2,0.2l0,0v0.3
				C35.7,23.5,35.7,23.6,35.6,23.6z M35.5,22.9c-0.1,0-0.2-0.1-0.2-0.2v-0.3c0-0.1,0-0.2,0.1-0.2s0.2,0,0.2,0.1v0.2l0,0v0.1
				C35.7,22.8,35.6,22.9,35.5,22.9z M35.4,22.3c-0.1,0-0.1-0.1-0.2-0.1V22c0-0.1,0-0.2,0.1-0.2s0.2,0,0.2,0.1v0.3
				C35.6,22.2,35.6,22.2,35.4,22.3L35.4,22.3z M35.4,21.7c-0.1,0-0.1-0.1-0.2-0.1v-0.3c0-0.1,0-0.2,0.1-0.2s0.2,0,0.2,0.1v0.3
				C35.5,21.6,35.5,21.7,35.4,21.7z M35.3,21.1c-0.1,0-0.1-0.1-0.2-0.1v-0.3c0-0.1,0-0.2,0.1-0.2s0.2,0,0.2,0.1v0.3
				C35.5,21,35.4,21,35.3,21.1z M35.2,20.5c-0.1,0-0.1-0.1-0.2-0.1v-0.3c0-0.1,0-0.2,0.1-0.2s0.2,0,0.2,0.1v0.3
				C35.4,20.4,35.3,20.5,35.2,20.5z M35.2,19.9c-0.1,0-0.1-0.1-0.2-0.1v-0.3c0-0.1,0-0.2,0.1-0.2s0.2,0,0.2,0.1v0.3
				C35.3,19.8,35.3,19.8,35.2,19.9z M35.2,19.2c-0.1,0-0.1-0.1-0.2-0.1v-0.3c0-0.1,0-0.2,0.1-0.2s0.2,0,0.2,0.1V19
				C35.3,19.1,35.3,19.1,35.2,19.2L35.2,19.2z M35.1,18.7c-0.1,0-0.1-0.1-0.2-0.1v-0.3c0-0.1,0-0.2,0.1-0.2s0.2,0,0.2,0.1v0.3
				C35.2,18.6,35.2,18.6,35.1,18.7z M35,18c-0.1,0-0.1-0.1-0.2-0.1v-0.3c0-0.1,0-0.2,0.1-0.2c-0.1,0-0.2,0-0.2-0.1s0-0.2-0.1-0.3
				c0-0.1,0-0.2,0.1-0.2c-0.1,0-0.2,0-0.2-0.1s-0.1-0.2-0.1-0.3v-0.2h-0.2c0-0.1-0.1-0.2-0.2-0.2v-0.2c-0.1,0-0.1,0.1-0.2,0
				s-0.2-0.1-0.2-0.2c-0.1,0-0.1-0.1-0.1-0.2c0,0.1-0.1,0.1-0.2,0.1s-0.2-0.1-0.3-0.1s0,0.1,0,0c0,0.1-0.1,0.1-0.2,0.1h-0.3
				c-0.1,0-0.2,0-0.2-0.1l0,0c0,0.1,0,0.1-0.1,0.2H32c-0.1,0-0.1,0-0.2-0.1c0-0.1,0-0.1,0.1-0.2h0.3c0.1,0,0.2,0,0.2,0.1
				c0-0.1,0-0.1,0.1-0.2h0.3c0.1,0,0.2,0.1,0.2,0.2l0,0c0-0.1,0.1-0.1,0.2-0.1c0.1,0,0.2,0,0.3,0.1c0.1,0,0.1,0.1,0.1,0.2l0,0
				c0-0.1,0.1-0.1,0.2-0.1s0.2,0.1,0.3,0.2c0.1,0,0.1,0.2,0,0.2l0,0c0.1-0.1,0.1-0.1,0.2,0l0,0c0.1,0.1,0.1,0.2,0.2,0.3v0.2l0,0
				c0.1,0,0.2,0,0.2,0.1s0.1,0.2,0.1,0.3s0,0.2-0.1,0.2c0.1,0,0.2,0,0.2,0.1s0,0.2,0.1,0.3c0,0.1,0,0.2-0.1,0.2c0.1,0,0.2,0,0.2,0.1
				V18C35.2,17.9,35.2,18,35,18z M25.8,15.8c-0.1,0-0.1,0-0.2-0.1c0-0.1,0-0.1,0.1-0.2H26c0.1,0,0.1,0,0.2,0.1c0-0.1,0-0.1,0.1-0.2
				h0.3c0.1,0,0.1,0,0.2,0.1c0,0.1,0,0.1-0.1,0.2h-0.3c-0.1,0-0.1,0-0.2-0.1c0,0.1,0,0.1-0.1,0.2H25.8z M27.1,15.7
				c-0.1,0-0.1,0-0.2-0.1c0-0.1,0-0.1,0.1-0.2h0.3c0.1,0,0.1,0,0.2,0.1c0,0.1,0,0.1-0.1,0.2H27.1z M27.7,15.7c-0.1,0-0.1,0-0.2-0.1
				c0-0.1,0-0.1,0.1-0.2h0.3c0.1,0,0.1,0,0.2,0.1c0,0.1,0,0.1-0.1,0.2H27.7z M28.3,15.7c-0.1,0-0.1,0-0.2-0.1c0-0.1,0-0.1,0.1-0.2
				h0.3c0.1,0,0.1,0,0.2,0.1c0,0.1,0,0.1-0.1,0.2H28.3z M28.9,15.6c-0.1,0-0.1,0-0.2-0.1c0-0.1,0-0.1,0.1-0.2h0.3
				c0.1,0,0.1,0,0.2,0.1c0-0.1,0-0.1,0.1-0.2h0.3c0.1,0,0.1,0,0.2,0.1c0,0.1,0,0.1-0.1,0.2h-0.3c-0.1,0-0.1,0-0.2-0.1
				c0,0.1,0,0.1-0.1,0.2H28.9z M30.2,15.6c-0.1,0-0.1,0-0.2-0.1c0-0.1,0-0.1,0.1-0.2h0.3c0.1,0,0.1,0,0.2,0.1c0,0.1,0,0.1-0.1,0.2
				H30.2z M30.8,15.5c-0.1,0-0.1,0-0.2-0.1c0-0.1,0-0.1,0.1-0.2H31c0.1,0,0.1,0,0.2,0.1c0-0.1,0-0.1,0.1-0.2h0.3
				c0.1,0,0.1,0,0.2,0.1c0,0.1,0,0.1-0.1,0.2h-0.3c-0.1,0-0.1,0-0.2-0.1c0,0.1,0,0.1-0.1,0.2H30.8z"/>
		</g>
		<g id="XMLID_1903_">
			<path id="XMLID_748_" class="st0" d="M32.9,64.1c-0.1,0-0.2-0.1-0.2-0.2l-0.1-0.3v-0.2l-0.1-0.1L32.4,63v-0.2l-0.1-0.1v-0.6
				L32.2,62l-0.1-0.3v-0.2L32,61.4V61l-0.1-0.1l-0.1-0.3v-0.2l-0.1-0.1L31.6,60v-0.2l-0.1-0.1l-0.1-0.3v-0.2l-0.1-0.1l0.1-0.5v-0.2
				l-0.1-0.1L31.2,58v-0.2l-0.1-0.1L31,57.4l0,0l-0.1-0.3v-0.2l-0.1-0.1l-0.1-0.3l0.2-0.1l0.2-0.1l0.1,0.3v0.2l0.1,0.1l0.1,0.3v0.2
				l0.1,0.1l0.1,0.3V58l0.1,0.1l0.1,0.3v0.2l0.1,0.1L32,59v0.2l0.1,0.1l0.1,0.3v0.2l0.1,0.1l0.1,0.3v0.2l0.1,0.1l0.1,0.3V61l0.1,0.1
				l0.1,0.3v0.2l0.1,0.1L33,62v0.2l0.1,0.1l0.1,0.3v0.2l0.1,0.1l0.1,0.3v0.2l0.1,0.1l0.1,0.3C33.1,64,33.1,64.1,32.9,64.1L32.9,64.1
				z M30.9,56.3c-0.1,0-0.2-0.1-0.2-0.2l-0.1-0.3v-0.2l-0.1-0.1l-0.1-0.3V55l0,0l-0.1-0.3v-0.2l-0.1-0.1l-0.1-0.3v-0.2H30l-0.1-0.3
				v-0.2l-0.1-0.1L29.7,53v-0.2l-0.1-0.1c0-0.1-0.1-0.2-0.1-0.3v-0.2l-0.1-0.1l0.1-0.5v-0.2l-0.1-0.1L29.3,51v-0.2l-0.1-0.1
				l-0.1-0.3v-0.2L29,50.1v-0.4l-0.1-0.1l-0.1-0.3v-0.2L28.7,49l-0.1-0.3v-0.2l-0.1-0.1l-0.1-0.3v-0.2L28.3,48l-0.1-0.3v-0.2
				l-0.1-0.1c0-0.1-0.1-0.2-0.1-0.3v-0.3c0-0.1,0-0.2-0.1-0.3v-0.2l-0.1-0.1c0-0.1,0-0.2-0.1-0.3v-0.2l-0.1-0.1c0-0.1,0-0.2-0.1-0.3
				v-0.2L27.4,45c0-0.1,0-0.2-0.1-0.3v-0.2l-0.1-0.1c0-0.1,0-0.2-0.1-0.3V44c0-0.1,0-0.2-0.1-0.3v-0.2l-0.1-0.1v-0.5l-0.1-0.1v-0.5
				l-0.1-0.1v-0.5l-0.1-0.1v-0.5L26.5,41v-0.5c-0.1-0.1-0.1-0.1-0.1-0.2v-0.5c-0.1-0.1-0.1-0.1-0.1-0.2v-0.5
				c-0.1-0.1-0.1-0.1-0.1-0.2v-0.1c-0.1-0.1-0.1-0.1-0.1-0.2v-0.5C26,38,26,38,26,37.9v-0.5c-0.1-0.1-0.1-0.1-0.1-0.2v-0.4
				c-0.1-0.1-0.1-0.1-0.1-0.2v-0.5c-0.1-0.1-0.1-0.1-0.1-0.2v-0.6c-0.1-0.1-0.1-0.1-0.1-0.2v-0.5c-0.1-0.1-0.1-0.1-0.1-0.2v-0.5
				c-0.1-0.1-0.1-0.1-0.1-0.2v-0.5c-0.1-0.1-0.1-0.1-0.1-0.2l0,0v-0.2c-0.1-0.1-0.1-0.1-0.1-0.2v-0.5c-0.1-0.1-0.1-0.1-0.1-0.2v-0.5
				C25,31.3,25,31.3,25,31.2v-0.4c-0.1-0.1-0.1-0.1-0.1-0.2v-0.5c-0.1-0.1-0.1-0.1-0.1-0.2v-0.5c-0.1-0.1-0.1-0.1-0.1-0.2v-0.4
				c-0.1-0.1-0.1-0.1-0.1-0.2v-0.5c-0.1-0.1-0.1-0.1-0.1-0.2v-0.5c-0.1-0.1-0.1-0.1-0.1-0.2v-0.4c-0.1-0.1-0.1-0.1-0.1-0.2v-0.5
				c-0.1-0.1-0.1-0.1-0.1-0.2v-0.5c-0.1-0.1-0.1-0.1-0.1-0.2v-0.5C24,24.6,24,24.6,24,24.5V24c-0.1-0.1-0.1-0.1-0.1-0.2v-0.5
				c-0.1-0.1-0.1-0.1-0.1-0.2v-0.5c-0.1-0.1-0.1-0.1-0.1-0.2v-0.5c-0.1-0.1-0.1-0.1-0.1-0.2v-0.5c-0.1-0.1-0.1-0.1-0.1-0.2v-0.5
				c-0.1-0.1-0.1-0.1-0.1-0.2v-0.5c-0.1-0.1-0.1-0.1-0.1-0.2v-0.5c-0.1-0.1-0.1-0.1-0.1-0.2l0,0v-0.4c-0.1-0.1-0.1-0.1-0.1-0.2V18
				c0-0.1,0-0.1,0.1-0.2c-0.1-0.1-0.1-0.1-0.1-0.2v-0.3c0-0.1,0-0.1,0.1-0.2c-0.1-0.1-0.1-0.1-0.1-0.2v-0.3c0-0.1,0-0.1,0.1-0.2
				c-0.1-0.1-0.1-0.1-0.1-0.2v-0.3c0-0.1,0-0.1,0.1-0.2v-0.5c0-0.1,0-0.1,0.1-0.2v-0.2c0-0.2,0.1-0.3,0.1-0.4
				c0.1-0.1,0.2-0.2,0.3-0.1s0.2,0.2,0.1,0.3c0,0.1,0,0.1-0.1,0.2c0,0.1,0,0.1-0.1,0.1l0,0v0.5c0,0.1,0,0.1-0.1,0.1V16
				c0,0.1,0,0.1-0.1,0.2c0.1,0.1,0.1,0.1,0.1,0.2v0.3c0,0.1,0,0.1-0.1,0.2c0.1,0.1,0.1,0.1,0.1,0.2v0.3c0,0.1,0,0.1-0.1,0.2
				c0.1,0.1,0.1,0.1,0.1,0.2v0.5c0.1,0.1,0.1,0.1,0.1,0.2V19c0.1,0.1,0.1,0.1,0.1,0.2v1c0.1,0.1,0.1,0.1,0.1,0.2v0.5
				c0.1,0.1,0.1,0.1,0.1,0.2v0.5c0.1,0.1,0.1,0.1,0.1,0.2v0.4c0.1,0.1,0.1,0.1,0.1,0.2v0.5c0.1,0.1,0.1,0.1,0.1,0.2v0.5
				c0.1,0.1,0.1,0.1,0.1,0.2v0.5c0.1,0.1,0.1,0.1,0.1,0.2V25c0.1,0.1,0.1,0.1,0.1,0.2v0.5c0.1,0.1,0.1,0.1,0.1,0.2v0.5
				c0.1,0.1,0.1,0.1,0.1,0.2v0.5c0.1,0.1,0.1,0.1,0.1,0.2v0.5c0.1,0.1,0.1,0.1,0.1,0.2v0.5c0.1,0.1,0.1,0.1,0.1,0.2v0.1l0,0v0.4
				c0.1,0.1,0.1,0.1,0.1,0.2v0.5c0.1,0.1,0.1,0.1,0.1,0.2v0.5c0.1,0.1,0.1,0.1,0.1,0.2v0.5c0.1,0.1,0.1,0.1,0.1,0.2V32
				c0.1,0.1,0.1,0.1,0.1,0.2v0.5c0.1,0.1,0.1,0.1,0.1,0.2v0.5c0.1,0.1,0.1,0.1,0.1,0.2v0.5c0.1,0.1,0.1,0.1,0.1,0.2v0.5
				c0.1,0.1,0.1,0.1,0.1,0.2v0.5c0.1,0.1,0.1,0.1,0.1,0.2v0.5c0.1,0.1,0.1,0.1,0.1,0.2v0.5c0.1,0.1,0.1,0.1,0.1,0.2v0.5
				c0.1,0.1,0.1,0.1,0.1,0.2v0.5c0.1,0.1,0.1,0.1,0.1,0.2V39c0.1,0.1,0.1,0.1,0.1,0.2v0.5c0.1,0.1,0.1,0.1,0.1,0.2v0.5
				c0.1,0.1,0.1,0.1,0.1,0.2v0.5c0.1,0.1,0.1,0.1,0.1,0.2v0.5l0.1,0.1v0.5l0.1,0.1V43l0.1,0.1v0.5l0.1,0.1v0.5l0.1,0.1v0.5l0.1,0.1
				c0,0.1,0,0.2,0.1,0.3v0.2l0.1,0.1c0,0.1,0,0.2,0.1,0.3V46l0.1,0.1c0,0.1,0,0.2,0.1,0.3v0.2l0.1,0.1c0,0.1,0,0.2,0.1,0.3v0.3
				c0,0.1,0,0.2,0.1,0.3v0.2l0.1,0.1c0,0.1,0,0.2,0.1,0.3v0.2l0.1,0.1c0,0.1,0,0.2,0.1,0.3V49l0.1,0.1l0.1,0.3v0.2l0.1,0.1L29,50
				v0.2l0.1,0.1l0.1,0.3v0.2l0.1,0.1l0.1,0.3v0.2l0.1,0.1l0.1,0.3V52l0.1,0.1l0.1,0.3v0.2l0.1,0.1L30,53v0.2l0.1,0.1l0.1,0.3v0.2
				l0.1,0.1c0,0.1,0.1,0.2,0.1,0.3v0.2l0.1,0.1l0.1,0.3V55l0.1,0.1l0.1,0.3v0.2l0.1,0.1L31,56v0.2l0.1,0.1l0.1,0.3v0.2l0.1,0.1
				L31,55v0.2l0.1,0.1l0.1,0.3c0,0.1,0,0.3-0.2,0.3C31,56.3,31,56.3,30.9,56.3z"/>
		</g>
		<g id="XMLID_1902_">
			<path id="XMLID_666_" class="st0" d="M32.3,64C32.2,64,32.2,63.9,32.3,64l-0.2-0.4c0-0.1,0-0.1,0.1-0.1s0.1,0,0.1,0.1L32.3,64
				C32.4,63.9,32.3,63.9,32.3,64z M32.1,63.3L32.1,63.3L31.9,63c0-0.1,0-0.1,0.1-0.1c0.1,0,0.1,0,0.1,0.1l0,0V63.3z M32,62.8
				L32,62.8l-0.2-0.4c0-0.1,0-0.1,0.1-0.1s0.1,0,0.1,0.1V62.8z M31.9,62.1L31.9,62.1l-0.2-0.4c0-0.1,0-0.1,0.1-0.1s0.1,0,0.1,0.1
				V62.1z M31.7,61.6L31.7,61.6l-0.2-0.4c0-0.1,0-0.1,0.1-0.1s0.1,0,0.1,0.1V61.6z M31.5,61L31.5,61l-0.1-0.4c0-0.1,0-0.1,0.1-0.1
				s0.1,0,0.1,0.1L31.5,61z M31.4,60.3L31.4,60.3L31.2,60c0-0.1,0-0.1,0.1-0.1s0.1,0,0.1,0.1C31.4,60,31.4,60.3,31.4,60.3z
				 M31.2,59.8L31.2,59.8L31,59.4c0-0.1,0-0.1,0.1-0.1s0.1,0,0.1,0.1V59.8C31.3,59.7,31.3,59.8,31.2,59.8z M31.1,59.2
				C31,59.2,31,59.1,31.1,59.2l-0.2-0.4c0-0.1,0-0.1,0.1-0.1s0.1,0,0.1,0.1V59.2C31.2,59.1,31.1,59.1,31.1,59.2z M30.9,58.5
				L30.9,58.5l-0.2-0.4c0-0.1,0-0.1,0.1-0.1s0.1,0,0.1,0.1V58.5z M30.7,58L30.7,58l-0.2-0.4c0-0.1,0-0.1,0.1-0.1s0.1,0,0.1,0.1V58
				C30.8,57.9,30.8,58,30.7,58z M30.6,57.3L30.6,57.3L30.4,57c0-0.1,0-0.1,0.1-0.1s0.1,0,0.1,0.1V57.3z M30.5,56.8L30.5,56.8
				l-0.2-0.4c0-0.1,0-0.1,0.1-0.1s0.1,0,0.1,0.1V56.8z M30.3,56.2L30.3,56.2l-0.2-0.4c0-0.1,0-0.1,0.1-0.1s0.1,0,0.1,0.1V56.2
				C30.4,56.1,30.4,56.2,30.3,56.2z M30.2,55.5L30.2,55.5L30,55.2c0-0.1,0-0.1,0.1-0.1s0.1,0,0.1,0.1l0,0V55.5z M30,55L30,55
				l-0.2-0.4c0-0.1,0-0.1,0.1-0.1s0.1,0,0.1,0.1V55C30.1,54.9,30.1,55,30,55z M29.8,54.4L29.8,54.4L29.6,54c0-0.1,0-0.1,0.1-0.1
				s0.1,0,0.1,0.1L29.8,54.4C29.9,54.3,29.9,54.4,29.8,54.4z M29.6,53.8L29.6,53.8l-0.1-0.3v-0.1h0.1V53.8z M29.5,53.2L29.5,53.2
				l-0.2-0.4v-0.1h0.1l0.1,0.3C29.6,53.1,29.6,53.1,29.5,53.2L29.5,53.2z M29.3,52.6L29.3,52.6l-0.2-0.4v-0.1h0.1l0.1,0.3
				C29.4,52.5,29.4,52.5,29.3,52.6z M29.1,52L29.1,52l-0.2-0.4v-0.1H29l0.1,0.3C29.2,52,29.2,52,29.1,52z M28.9,51.4L28.9,51.4
				c-0.1-0.2-0.1-0.3-0.2-0.4v-0.1h0.1c0,0.1,0.1,0.2,0.1,0.3C29,51.3,29,51.4,28.9,51.4z M28.8,50.8L28.8,50.8l-0.1-0.2
				c0-0.1,0-0.1-0.1-0.2v-0.1h0.1c0,0.1,0,0.1,0.1,0.2V50.8C28.9,50.7,28.9,50.8,28.8,50.8z M28.6,50.2L28.6,50.2
				c-0.1-0.2-0.1-0.3-0.2-0.4v-0.1h0.1c0,0.1,0.1,0.2,0.1,0.3C28.7,50.2,28.7,50.2,28.6,50.2z M28.4,49.6L28.4,49.6
				c-0.1-0.2-0.1-0.3-0.2-0.4v-0.1h0.1c0,0.1,0.1,0.2,0.1,0.3C28.5,49.6,28.5,49.6,28.4,49.6z M28.3,49L28.3,49
				c-0.1-0.2-0.1-0.3-0.2-0.4v-0.1c0.1,0,0.1,0,0.1,0.1C28.3,48.7,28.3,48.9,28.3,49z M28.1,48.5L28.1,48.5l-0.2-0.4
				c0-0.1,0-0.1,0.1-0.1s0.1,0,0.1,0.1V48.5z M27.9,47.8L27.9,47.8l-0.2-0.4c0-0.1,0-0.1,0.1-0.1s0.1,0,0.1,0.1V47.8z M27.8,47.3
				L27.8,47.3l-0.2-0.4c0-0.1,0-0.1,0.1-0.1s0.1,0,0.1,0.1V47.3z M27.6,46.7L27.6,46.7l-0.2-0.4c0-0.1,0-0.1,0.1-0.1s0.1,0,0.1,0.1
				V46.7z M27.5,46L27.5,46l-0.2-0.4c0-0.1,0-0.1,0.1-0.1s0.1,0,0.1,0.1l0,0l0.1,0.3C27.6,46,27.6,46,27.5,46z M27.3,45.5L27.3,45.5
				l-0.1-0.4c0-0.1,0-0.1,0.1-0.1s0.1,0,0.1,0.1L27.3,45.5C27.4,45.4,27.4,45.5,27.3,45.5z M27.2,44.8L27.2,44.8l-0.1-0.4
				c0-0.1,0-0.1,0.1-0.1s0.1,0,0.1,0.1l0,0L27.2,44.8z M27.1,44.2L27.1,44.2L27,43.9c0-0.1,0-0.1,0.1-0.1s0.1,0,0.1,0.1l0,0
				L27.1,44.2z M27,43.6L27,43.6l-0.1-0.4c0-0.1,0-0.1,0.1-0.1s0.1,0,0.1,0.1l0,0L27,43.6z M26.9,43L26.9,43
				c-0.1-0.1-0.1-0.3-0.1-0.4c0-0.1,0-0.1,0.1-0.1s0.1,0,0.1,0.1C26.9,42.7,26.9,42.9,26.9,43z M26.7,42.5L26.7,42.5
				c-0.1-0.1-0.1-0.3-0.1-0.4c0-0.1,0-0.1,0.1-0.1s0.1,0,0.1,0.1C26.8,42.2,26.8,42.4,26.7,42.5z M26.6,41.8L26.6,41.8
				c-0.1-0.1-0.1-0.3-0.1-0.4c0-0.1,0-0.1,0.1-0.1s0.1,0,0.1,0.1C26.7,41.5,26.7,41.7,26.6,41.8z M26.5,41.2L26.5,41.2
				c-0.1-0.1-0.1-0.3-0.1-0.4c0-0.1,0-0.1,0.1-0.1s0.1,0,0.1,0.1l0,0C26.6,40.9,26.6,41.1,26.5,41.2z M26.5,40.6L26.5,40.6l-0.1-0.4
				c0-0.1,0-0.1,0.1-0.1s0.1,0,0.1,0.1L26.5,40.6z M26.4,40L26.4,40l-0.1-0.5c0-0.1,0-0.1,0.1-0.1s0.1,0,0.1,0.1L26.4,40z
				 M26.3,39.4L26.3,39.4L26.2,39c0-0.1,0-0.1,0.1-0.1s0.1,0,0.1,0.1l0,0L26.3,39.4C26.4,39.3,26.4,39.4,26.3,39.4z M26.3,38.7
				L26.3,38.7l-0.1-0.4c0-0.1,0-0.1,0.1-0.1s0.1,0,0.1,0.1L26.3,38.7z M26.2,38.1L26.2,38.1l-0.1-0.4c0-0.1,0-0.1,0.1-0.1
				s0.1,0,0.1,0.1l0,0L26.2,38.1C26.3,38,26.3,38.1,26.2,38.1z M26.2,37.5L26.2,37.5l-0.1-0.4c0-0.1,0-0.1,0.1-0.1s0.1,0,0.1,0.1
				L26.2,37.5z M26.1,36.9C26,36.9,26,36.8,26.1,36.9L26,36.5c0-0.1,0-0.1,0.1-0.1s0.1,0,0.1,0.1l0,0L26.1,36.9z M26,36.3L26,36.3
				l-0.1-0.4c0-0.1,0-0.1,0.1-0.1s0.1,0,0.1,0.1L26,36.3z M26,35.7C25.9,35.7,25.9,35.6,26,35.7l-0.1-0.4c0-0.1,0-0.1,0.1-0.1
				s0.1,0,0.1,0.1L26,35.7z M25.9,35L25.9,35l-0.1-0.4c0-0.1,0-0.1,0.1-0.1s0.1,0,0.1,0.1l0,0L25.9,35z M25.9,34.5
				C25.8,34.5,25.8,34.4,25.9,34.5l-0.2-0.4c0-0.1,0-0.1,0.1-0.1s0.1,0,0.1,0.1V34.5z M25.8,33.8L25.8,33.8l-0.1-0.4
				c0-0.1,0-0.1,0.1-0.1s0.1,0,0.1,0.1l0,0L25.8,33.8z M25.7,33.2L25.7,33.2l-0.1-0.4c0-0.1,0-0.1,0.1-0.1s0.1,0,0.1,0.1L25.7,33.2z
				 M25.7,32.6L25.7,32.6l-0.1-0.4c0-0.1,0-0.1,0.1-0.1s0.1,0,0.1,0.1L25.7,32.6z M25.6,31.9L25.6,31.9l-0.1-0.4
				c0-0.1,0-0.1,0.1-0.1s0.1,0,0.1,0.1l0,0L25.6,31.9z M25.6,31.4L25.6,31.4V31c0-0.1,0-0.1,0.1-0.1s0.1,0,0.1,0.1l0,0L25.6,31.4
				L25.6,31.4z M25.6,30.7L25.6,30.7l-0.1-0.4c0-0.1,0-0.1,0.1-0.1s0.1,0,0.1,0.1l0,0L25.6,30.7z M25.5,30.1L25.5,30.1l-0.1-0.4
				c0-0.1,0-0.1,0.1-0.1s0.1,0,0.1,0.1l0,0L25.5,30.1C25.6,30,25.6,30.1,25.5,30.1z M25.5,29.5L25.5,29.5l-0.1-0.4
				c0-0.1,0-0.1,0.1-0.1s0.1,0,0.1,0.1l0,0L25.5,29.5z M25.4,28.9L25.4,28.9l-0.1-0.4c0-0.1,0-0.1,0.1-0.1s0.1,0,0.1,0.1l0,0
				L25.4,28.9C25.5,28.8,25.5,28.9,25.4,28.9z M25.4,28.3L25.4,28.3l-0.1-0.4c0-0.1,0-0.1,0.1-0.1s0.1,0,0.1,0.1l0,0L25.4,28.3z
				 M25.3,27.6L25.3,27.6l-0.1-0.4c0-0.1,0-0.1,0.1-0.1s0.1,0,0.1,0.1L25.3,27.6z M25.3,27L25.3,27l-0.1-0.2l0,0v-0.2
				c0-0.1,0-0.1,0.1-0.1s0.1,0,0.1,0.1l0,0v0.2l0,0C25.3,26.9,25.3,26.9,25.3,27z M25.2,26.4L25.2,26.4L25.1,26c0-0.1,0-0.1,0.1-0.1
				l0,0c0.1,0,0.1,0,0.1,0.1L25.2,26.4z M25.1,25.8L25.1,25.8L25,25.4c0-0.1,0-0.1,0.1-0.1s0.1,0,0.1,0.1l0,0L25.1,25.8
				C25.2,25.7,25.2,25.8,25.1,25.8z M25.1,25.2L25.1,25.2L25,24.8c0-0.1,0-0.1,0.1-0.1s0.1,0,0.1,0.1l0,0L25.1,25.2z M25.1,24.6
				C25,24.6,25,24.5,25.1,24.6L25,24.2c0-0.1,0-0.1,0.1-0.1s0.1,0,0.1,0.1l0,0L25.1,24.6z M25,23.9L25,23.9l-0.1-0.4
				c0-0.1,0-0.1,0.1-0.1s0.1,0,0.1,0.1l0,0L25,23.9z M25,23.4C24.9,23.4,24.9,23.3,25,23.4L24.9,23c0-0.1,0-0.1,0.1-0.1
				s0.1,0,0.1,0.1l0,0L25,23.4z M24.9,22.7L24.9,22.7l-0.1-0.4c0-0.1,0-0.1,0.1-0.1s0.1,0,0.1,0.1L24.9,22.7z M24.9,22.1L24.9,22.1
				l-0.1-0.4c0-0.1,0-0.1,0.1-0.1s0.1,0,0.1,0.1L24.9,22.1z M24.9,21.5L24.9,21.5c-0.1-0.1-0.1-0.3-0.1-0.4s0-0.1,0.1-0.1l0,0l0,0
				c0.1,0,0.1,0,0.1,0.1l0,0C25,21.2,25,21.4,24.9,21.5z M24.9,20.8L24.9,20.8c-0.1-0.1-0.1-0.3-0.1-0.4s0-0.1,0.1-0.1
				s0.1,0,0.1,0.1S25,20.7,24.9,20.8z M24.9,20.3C24.8,20.3,24.8,20.2,24.9,20.3l-0.1-0.2v-0.2c0-0.1,0-0.1,0.1-0.1l0,0l0,0
				c0.1,0,0.1,0,0.1,0.1l0,0v0.3C25,20.2,24.9,20.3,24.9,20.3z M24.9,19.6L24.9,19.6c-0.1-0.1-0.1-0.3-0.1-0.4s0-0.1,0.1-0.1
				s0.1,0,0.1,0.1C25,19.3,25,19.5,24.9,19.6z M24.9,19L24.9,19c-0.1-0.1-0.1-0.3-0.1-0.4s0-0.1,0.1-0.1s0.1,0,0.1,0.1
				S25,18.9,24.9,19z M24.9,18.4L24.9,18.4c-0.1-0.1-0.1-0.3-0.1-0.4s0-0.1,0.1-0.1s0.1,0,0.1,0.1S25,18.3,24.9,18.4z M25,17.8
				L25,17.8C24.9,17.8,24.9,17.7,25,17.8c-0.1-0.2-0.1-0.3,0-0.4c0-0.1,0-0.1,0.1-0.1s0.1,0,0.1,0.1C25.1,17.5,25.1,17.6,25,17.8z
				 M25.1,17.2L25.1,17.2c-0.1-0.2,0-0.3,0-0.4s0-0.1,0.1-0.1s0.1,0,0.1,0.1C25.2,16.9,25.2,17,25.1,17.2z M25.2,16.6L25.2,16.6
				v-0.4c0,0,0.1-0.1,0.1,0c0,0,0.1,0.1,0,0.1C25.3,16.4,25.3,16.5,25.2,16.6z"/>
		</g>
		<g id="XMLID_1905_">
			<path id="XMLID_583_" class="st0" d="M31.9,64.2C31.8,64.2,31.8,64.1,31.9,64.2l-0.2-0.4c0-0.1,0-0.1,0.1-0.1s0.1,0,0.1,0.1V64.2
				C32,64.1,31.9,64.1,31.9,64.2z M31.7,63.5L31.7,63.5l-0.2-0.4c0-0.1,0-0.1,0.1-0.1s0.1,0,0.1,0.1l0,0V63.5z M31.5,63L31.5,63
				l-0.1-0.4c0-0.1,0-0.1,0.1-0.1s0.1,0,0.1,0.1l0,0L31.5,63z M31.4,62.3L31.4,62.3l-0.2-0.4c0-0.1,0-0.1,0.1-0.1s0.1,0,0.1,0.1l0,0
				V62.3z M31.2,61.7L31.2,61.7L31,61.4c0-0.1,0-0.1,0.1-0.1s0.1,0,0.1,0.1V61.7z M31,61.2L31,61.2l-0.2-0.4c0-0.1,0-0.1,0.1-0.1
				s0.1,0,0.1,0.1V61.2z M30.9,60.5L30.9,60.5l-0.2-0.4c0-0.1,0-0.1,0.1-0.1s0.1,0,0.1,0.1V60.5z M30.7,60L30.7,60l-0.2-0.4
				c0-0.1,0-0.1,0.1-0.1s0.1,0,0.1,0.1V60C30.8,59.9,30.8,60,30.7,60z M30.6,59.3L30.6,59.3L30.4,59c0-0.1,0-0.1,0.1-0.1
				s0.1,0,0.1,0.1V59.3z M30.5,58.7L30.5,58.7l-0.2-0.4c0-0.1,0-0.1,0.1-0.1s0.1,0,0.1,0.1l0,0V58.7z M30.3,58.2L30.3,58.2l-0.2-0.4
				c0-0.1,0-0.1,0.1-0.1s0.1,0,0.1,0.1V58.2C30.4,58.1,30.4,58.2,30.3,58.2z M30.2,57.5L30.2,57.5L30,57.1c0-0.1,0-0.1,0.1-0.1
				s0.1,0,0.1,0.1V57.5z M30,57L30,57l-0.2-0.4c0-0.1,0-0.1,0.1-0.1s0.1,0,0.1,0.1V57C30.1,56.8,30.1,57,30,57z M29.8,56.4
				L29.8,56.4L29.6,56c0-0.1,0-0.1,0.1-0.1s0.1,0,0.1,0.1L29.8,56.4C29.9,56.3,29.9,56.4,29.8,56.4z M29.7,55.7L29.7,55.7l-0.2-0.3
				c0-0.1,0-0.1,0.1-0.1s0.1,0,0.1,0.1l0,0V55.7z M29.5,55.2L29.5,55.2l-0.2-0.4c0-0.1,0-0.1,0.1-0.1s0.1,0,0.1,0.1V55.2
				C29.6,55.1,29.6,55.2,29.5,55.2z M29.3,54.6L29.3,54.6l-0.2-0.4c0-0.1,0-0.1,0.1-0.1s0.1,0,0.1,0.1V54.6z M29.2,53.9L29.2,53.9
				L29,53.7v-0.1h0.1L29.2,53.9z M29,53.4L29,53.4L28.9,53v-0.1H29l0.1,0.3C29.1,53.3,29.1,53.3,29,53.4z M28.9,52.8L28.9,52.8
				c-0.1-0.2-0.1-0.3-0.2-0.4v-0.1h0.1c0,0.1,0.1,0.2,0.1,0.3V52.8z M28.7,52.2L28.7,52.2c-0.1-0.1-0.1-0.2-0.2-0.3v-0.2h0.1v0.1
				C28.7,51.9,28.7,52.1,28.7,52.2z M28.5,51.6L28.5,51.6c-0.1-0.1-0.1-0.2-0.2-0.4v-0.1h0.1C28.5,51.3,28.5,51.4,28.5,51.6z
				 M28.3,51L28.3,51l-0.2-0.4v-0.1h0.1L28.3,51z M28.1,50.5C28,50.5,28,50.4,28.1,50.5l-0.2-0.4V50H28L28.1,50.5
				C28.2,50.4,28.1,50.4,28.1,50.5z M27.9,49.8L27.9,49.8l-0.2-0.4v-0.1h0.1L27.9,49.8z M27.7,49.2L27.7,49.2l-0.2-0.4v-0.1h0.1
				l0.1,0.3C27.8,49.1,27.8,49.1,27.7,49.2L27.7,49.2z M27.5,48.7L27.5,48.7l-0.2-0.4v-0.1h0.1l0.1,0.3
				C27.6,48.6,27.6,48.6,27.5,48.7L27.5,48.7z M27.3,48L27.3,48l-0.2-0.4v-0.1h0.1l0.1,0.3C27.4,48,27.4,48,27.3,48z M27.2,47.5
				L27.2,47.5l-0.1-0.4V47h0.1l0.1,0.3C27.3,47.3,27.2,47.5,27.2,47.5z M27,46.9L27,46.9l-0.2-0.4c0-0.1,0-0.1,0.1-0.1
				s0.1,0,0.1,0.1V46.9C27.1,46.8,27.1,46.9,27,46.9z M26.9,46.3C26.8,46.3,26.8,46.2,26.9,46.3c-0.2-0.2-0.2-0.3-0.2-0.4
				c0-0.1,0-0.1,0.1-0.1s0.1,0,0.1,0.1l0,0V46.3C27,46.2,26.9,46.2,26.9,46.3z M26.7,45.7L26.7,45.7c-0.1-0.2-0.1-0.3-0.2-0.4
				c0-0.1,0-0.1,0.1-0.1s0.1,0,0.1,0.1C26.7,45.4,26.8,45.5,26.7,45.7z M26.6,45.1L26.6,45.1c-0.1-0.2-0.1-0.3-0.2-0.4
				c0-0.1,0-0.1,0.1-0.1s0.1,0,0.1,0.1l0,0c0,0.1,0,0.2,0.1,0.3C26.6,45,26.6,45,26.6,45.1z M26.4,44.4L26.4,44.4
				c-0.1-0.1-0.1-0.3-0.1-0.4c0-0.1,0-0.1,0.1-0.1s0.1,0,0.1,0.1C26.4,44.2,26.5,44.2,26.4,44.4z M26.3,43.9L26.3,43.9
				c-0.1-0.1-0.1-0.3-0.1-0.4c0-0.1,0-0.1,0.1-0.1s0.1,0,0.1,0.1l0,0C26.3,43.6,26.3,43.7,26.3,43.9z M26.2,43.2L26.2,43.2
				c-0.1-0.1-0.1-0.3-0.1-0.4c0-0.1,0-0.1,0.1-0.1s0.1,0,0.1,0.1l0,0C26.2,42.9,26.2,43,26.2,43.2z M26.1,42.7L26.1,42.7
				C26,42.6,26,42.4,26,42.3c0-0.1,0-0.1,0.1-0.1s0.1,0,0.1,0.1l0,0C26.1,42.4,26.1,42.5,26.1,42.7z M26,42.1
				C25.9,42.1,25.9,42,26,42.1l-0.1-0.4c0-0.1,0-0.1,0.1-0.1s0.1,0,0.1,0.1L26,42.1C26.1,42,26,42,26,42.1z M25.9,41.4L25.9,41.4
				L25.8,41c0-0.1,0-0.1,0.1-0.1s0.1,0,0.1,0.1l0,0L25.9,41.4z M25.8,40.8L25.8,40.8l-0.1-0.4c0-0.1,0-0.1,0.1-0.1s0.1,0,0.1,0.1
				l0,0L25.8,40.8z M25.8,40.2L25.8,40.2l-0.1-0.4c0-0.1,0-0.1,0.1-0.1s0.1,0,0.1,0.1L25.8,40.2z M25.7,39.5L25.7,39.5l-0.1-0.4
				c0-0.1,0-0.1,0.1-0.1s0.1,0,0.1,0.1L25.7,39.5z M25.6,39L25.6,39l-0.1-0.4c0-0.1,0-0.1,0.1-0.1s0.1,0,0.1,0.1L25.6,39
				C25.7,38.9,25.7,39,25.6,39z M25.6,38.3L25.6,38.3V38c0-0.1,0-0.1,0.1-0.1s0.1,0,0.1,0.1L25.6,38.3L25.6,38.3z M25.6,37.8
				L25.6,37.8l-0.1-0.4c0-0.1,0-0.1,0.1-0.1s0.1,0,0.1,0.1L25.6,37.8z M25.6,37.1L25.6,37.1l-0.1-0.4c0-0.1,0-0.1,0.1-0.1
				s0.1,0,0.1,0.1L25.6,37.1z M25.5,36.5L25.5,36.5l-0.1-0.4c0-0.1,0-0.1,0.1-0.1s0.1,0,0.1,0.1L25.5,36.5
				C25.6,36.4,25.6,36.5,25.5,36.5z M25.5,35.9L25.5,35.9l-0.1-0.4c0-0.1,0-0.1,0.1-0.1s0.1,0,0.1,0.1L25.5,35.9z M25.4,35.3
				L25.4,35.3l-0.1-0.2l0,0v-0.2c0-0.1,0-0.1,0.1-0.1s0.1,0,0.1,0.1l0,0v0.2l0,0C25.5,35,25.5,35.1,25.4,35.3
				C25.5,35.2,25.5,35.3,25.4,35.3z M25.4,34.7L25.4,34.7l-0.1-0.4c0-0.1,0-0.1,0.1-0.1s0.1,0,0.1,0.1L25.4,34.7z M25.3,34L25.3,34
				l-0.1-0.4c0-0.1,0-0.1,0.1-0.1s0.1,0,0.1,0.1L25.3,34z M25.3,33.4L25.3,33.4L25.2,33c0-0.1,0-0.1,0.1-0.1s0.1,0,0.1,0.1l0,0
				L25.3,33.4C25.4,33.3,25.4,33.4,25.3,33.4z M25.3,32.8L25.3,32.8l-0.1-0.4c0-0.1,0-0.1,0.1-0.1s0.1,0,0.1,0.1L25.3,32.8z
				 M25.2,32.2L25.2,32.2l-0.1-0.4c0-0.1,0-0.1,0.1-0.1s0.1,0,0.1,0.1l0,0L25.2,32.2C25.3,32.1,25.3,32.2,25.2,32.2z M25.2,31.5
				L25.2,31.5l-0.1-0.4c0-0.1,0-0.1,0.1-0.1l0,0c0.1,0,0.1,0,0.1,0.1L25.2,31.5z M25.1,31L25.1,31L25,30.6c0-0.1,0-0.1,0.1-0.1
				s0.1,0,0.1,0.1l0,0L25.1,31C25.2,30.9,25.2,31,25.1,31z M25.1,30.3L25.1,30.3L25,30c0-0.1,0-0.1,0.1-0.1s0.1,0,0.1,0.1L25.1,30.3
				L25.1,30.3z M25,29.7L25,29.7l-0.1-0.4c0-0.1,0-0.1,0.1-0.1s0.1,0,0.1,0.1l0,0L25,29.7z M25,29.1L25,29.1l-0.1-0.4
				c0-0.1,0-0.1,0.1-0.1s0.1,0,0.1,0.1L25,29.1z M24.9,28.5L24.9,28.5L24.8,28c0-0.1,0-0.1,0.1-0.1s0.1,0,0.1,0.1L24.9,28.5z
				 M24.9,27.9L24.9,27.9l-0.1-0.4c0-0.1,0-0.1,0.1-0.1s0.1,0,0.1,0.1L24.9,27.9z M24.8,27.2L24.8,27.2l-0.1-0.4
				c0-0.1,0-0.1,0.1-0.1s0.1,0,0.1,0.1L24.8,27.2z M24.8,26.7L24.8,26.7l-0.1-0.4c0-0.1,0-0.1,0.1-0.1s0.1,0,0.1,0.1L24.8,26.7z
				 M24.7,26L24.7,26l-0.1-0.4c0-0.1,0-0.1,0.1-0.1s0.1,0,0.1,0.1L24.7,26z M24.7,25.4L24.7,25.4L24.6,25c0-0.1,0-0.1,0.1-0.1
				s0.1,0,0.1,0.1l0,0L24.7,25.4z M24.6,24.8L24.6,24.8l-0.1-0.4c0-0.1,0-0.1,0.1-0.1s0.1,0,0.1,0.1l0,0L24.6,24.8z M24.6,24.2
				C24.5,24.2,24.5,24.1,24.6,24.2l-0.1-0.4c0-0.1,0-0.1,0.1-0.1s0.1,0,0.1,0.1l0,0L24.6,24.2z M24.6,23.6L24.6,23.6
				c-0.1-0.1-0.1-0.3-0.1-0.4s0-0.1,0.1-0.1s0.1,0,0.1,0.1C24.6,23.3,24.6,23.4,24.6,23.6z M24.5,22.9L24.5,22.9l-0.1-0.4
				c0-0.1,0-0.1,0.1-0.1s0.1,0,0.1,0.1l0,0L24.5,22.9z M24.5,22.3L24.5,22.3c-0.1-0.1-0.1-0.3-0.1-0.4s0-0.1,0.1-0.1l0,0
				c0.1,0,0.1,0,0.1,0.1S24.6,22.2,24.5,22.3z M24.5,21.7L24.5,21.7c-0.1-0.1-0.1-0.3-0.1-0.4s0-0.1,0.1-0.1l0,0
				c0.1,0,0.1,0,0.1,0.1C24.6,21.4,24.6,21.6,24.5,21.7z M24.5,21.1C24.4,21.1,24.4,21,24.5,21.1c-0.1-0.1-0.1-0.3-0.1-0.4h0.2
				C24.6,20.8,24.6,21,24.5,21.1z M24.5,20.5L24.5,20.5c-0.1-0.1-0.1-0.3-0.1-0.4s0-0.1,0.1-0.1s0.1,0,0.1,0.1S24.6,20.4,24.5,20.5z
				 M24.5,19.9L24.5,19.9C24.4,19.9,24.4,19.8,24.5,19.9c-0.1-0.1-0.1-0.3-0.1-0.4s0-0.1,0.1-0.1s0.1,0,0.1,0.1S24.6,19.8,24.5,19.9
				z M24.5,19.2L24.5,19.2c-0.1-0.1-0.1-0.3-0.1-0.4s0-0.1,0.1-0.1s0.1,0,0.1,0.1C24.6,18.9,24.6,19.1,24.5,19.2z M24.6,18.7
				L24.6,18.7C24.5,18.7,24.5,18.6,24.6,18.7c-0.1-0.2-0.1-0.3,0-0.4c0-0.1,0-0.1,0.1-0.1s0.1,0,0.1,0.1
				C24.7,18.4,24.7,18.5,24.6,18.7z M24.6,18L24.6,18c-0.1-0.2,0-0.3,0-0.4s0-0.1,0.1-0.1s0.1,0,0.1,0.1
				C24.7,17.7,24.7,17.8,24.6,18z M24.7,17.5L24.7,17.5c-0.1-0.2,0-0.3,0-0.4s0-0.1,0.1-0.1s0.1,0,0.1,0.1
				C24.8,17.2,24.8,17.3,24.7,17.5z M24.8,16.8L24.8,16.8v-0.4c0,0,0.1-0.1,0.1,0c0,0,0.1,0.1,0,0.1C25,16.6,24.9,16.7,24.8,16.8z
				 M25.1,16.2L25.1,16.2C25,16.2,25,16.1,25.1,16.2c-0.1-0.2,0-0.3,0.1-0.4h0.1v0.1C25.2,16,25.2,16.1,25.1,16.2z M25.5,15.8
				L25.5,15.8c-0.1-0.1-0.1-0.1,0-0.2c0.1,0,0.2-0.1,0.3-0.1c0.1,0,0.1,0,0.1,0.1s0,0.1-0.1,0.1C25.6,15.7,25.6,15.7,25.5,15.8z"/>
		</g>
		<g id="XMLID_1904_">
			<g id="XMLID_1925_">
				<path id="XMLID_577_" class="st0" d="M41.2,55c0-0.2,0.2-0.3,0.4-0.3c0.1,0,0.3,0.1,0.3,0.2V55c0,0.2-0.1,0.3-0.3,0.3
					C41.3,55.3,41.1,55.2,41.2,55 M41.5,55.2c0.2,0,0.3-0.1,0.3-0.3s-0.1-0.3-0.3-0.3s-0.3,0.1-0.3,0.3l0,0
					C41.2,55,41.3,55.2,41.5,55.2C41.4,55.2,41.5,55.2,41.5,55.2 M41.4,55.2L41.4,55.2v-0.4h0.1c0.1,0,0.1,0,0.1,0.1s0,0.1-0.1,0.1
					l0.1,0.2L41.4,55.2V55h-0.1C41.3,55,41.4,55.2,41.4,55.2z"/>
			</g>
			<g id="XMLID_1908_">
				<path id="XMLID_558_" class="st0" d="M38.5,54.9h0.2c0,0-0.2-0.6-0.3-0.8h0.3c0.1,0.2,0.3,0.7,0.3,0.7l0.6-0.3
					c0.1,0,0.1,0.1,0.2,0.1L39.1,55l0.2,0.5c0,0,0.5-0.6,0.7-0.8c0.1,0,0.1,0.1,0.2,0.1c-0.1,0.2-0.2,0.3-0.3,0.5
					c0.3,0,0.5,0,0.8,0.1c0.1,0.1,0.1,0.2,0.2,0.3h-0.7L39.8,56l0.4-0.1c0,0,0.3-0.1,0.7-0.2C41,55.8,41,55.9,41,56l-0.7,0.2
					l-0.7,0.1c-0.1,0.1-0.2,0.2-0.2,0.3c0.6-0.1,1.1-0.2,1.7-0.3c0.2,0.8,0,1.7-0.5,2.3c-1.5,0.3-3.1-0.2-4.6-0.1h-0.5
					c-0.3-0.4-0.5-0.8-0.5-1.3c-0.1-0.5,0-1,0.3-1.5h0.8l-0.4-0.5c0-0.1,0.1-0.1,0.2-0.2c0.2,0.3,0.4,0.5,0.6,0.8h0.2L36.1,55
					l0.3-0.3l0.6,0.1v-0.5c0.1-0.1,0.3-0.1,0.4-0.1c0.1,0.2,0.2,0.5,0.3,0.7c0.2-0.3,0.4-0.5,0.5-0.8h0.1L38.5,54.9z M38.1,54.6
					l-0.4,0.6l0.2,0.7l0.3-0.2l0.1-0.5C38.2,55,38.2,54.8,38.1,54.6 M37.1,54.6v0.3h0.2C37.3,54.8,37.2,54.7,37.1,54.6 M36.4,54.9
					L36.4,54.9c0.2,0.2,0.3,0.4,0.5,0.6v-0.4L36.4,54.9z M38.8,55.2L38.8,55.2l-0.1,0.2L38.8,55.2z M37.1,55.2v0.6l0.2-0.5
					L37.1,55.2z M39.8,55.5h-0.2L39.2,56h0.2L39.8,55.5z M38.4,55.8v0.6l0.5-0.6l0.1-0.1l-0.1-0.2L38.4,55.8z M37.5,55.7L37.3,56
					l0.3,0.3C37.6,56.1,37.6,55.9,37.5,55.7 M38.2,56L38,56.1v0.2h0.1L38.2,56z M36.4,55.9l-0.3,0.4l0.5,0.2l0.4-0.3L36.9,56
					L36.4,55.9z M35.4,56l0.4,0.2l0.1-0.2H35.4z M39,56.4l-0.2,0.4h0.3l0.3-0.4H39z M37.3,56.4L36.5,57h-0.4l0.2-0.2
					c-0.1-0.1-0.3-0.1-0.4-0.2L35.6,57h-0.3c0,0.3,0,0.5,0.1,0.8c0,0.1,0,0.2,0.1,0.2c0.7,0.1,1.5,0.2,2.2,0.3v-1.1
					c0-0.1-0.1-0.2-0.2-0.3L37.2,57h-0.7l0.8-0.4C37.4,56.6,37.3,56.5,37.3,56.4 M35.4,56.4v0.4c0.1-0.1,0.1-0.2,0.2-0.3L35.4,56.4z
					 M40.8,56.8l-0.3,0.1c0.1,0.1,0.2,0.3,0.2,0.4h-0.3l-0.3-0.4c-0.2,0-0.3,0.1-0.5,0.1l0.1,0.3h-0.2L39.4,57
					c-0.3,0.1-0.6,0.2-0.9,0.3l0,0v1.1c0.6,0.1,1.2,0.2,1.9,0.3h0.1c0.2-0.2,0.3-0.5,0.4-0.8C40.9,57.5,40.9,57.2,40.8,56.8"/>
			</g>
			<g id="XMLID_1907_">
				<path id="XMLID_49_" class="st0" d="M40.5,58.9c-0.2,0.3-0.5,0.5-0.8,0.7c-1.4-0.1-2.6-0.5-4-0.7c-0.1-0.1-0.1-0.1-0.1-0.2
					c1.1-0.1,2.1,0,3.2,0.1C39.4,58.9,39.9,58.9,40.5,58.9z"/>
			</g>
			<g id="XMLID_1906_">
				<path id="XMLID_48_" class="st0" d="M38.3,59.5c0.4,0.1,0.8,0.1,1.2,0.2c-1,0.6-2.2,0.5-3.1-0.1c-0.2-0.2-0.5-0.3-0.7-0.6h0.1
					l0.6,0.1L38.3,59.5z"/>
			</g>
		</g>
	</g>
	<g class="st1">
		<path d="M42.6,91.6v-7.8h2.6c0.4,0,0.8,0,1.1,0.1c0.3,0.1,0.6,0.2,0.9,0.3c0.3,0.2,0.5,0.4,0.6,0.6c0.1,0.2,0.2,0.6,0.2,0.9
			c0,0.2,0,0.4-0.1,0.5c-0.1,0.2-0.1,0.3-0.2,0.5c-0.1,0.2-0.3,0.3-0.4,0.4s-0.4,0.2-0.6,0.3v0c0.6,0.1,1,0.3,1.3,0.6
			s0.4,0.7,0.4,1.2c0,0.4-0.1,0.7-0.2,1c-0.2,0.3-0.4,0.5-0.6,0.7c-0.3,0.2-0.6,0.3-1,0.4c-0.4,0.1-0.8,0.1-1.2,0.1H42.6z
			 M44.4,86.9h0.8c0.4,0,0.7-0.1,0.9-0.3c0.2-0.2,0.3-0.4,0.3-0.7c0-0.3-0.1-0.5-0.3-0.6c-0.2-0.1-0.5-0.2-0.9-0.2h-0.8V86.9z
			 M44.4,90.2h0.9c0.9,0,1.4-0.4,1.4-1.1c0-0.3-0.1-0.6-0.3-0.7c-0.2-0.2-0.6-0.2-1.1-0.2h-0.9V90.2z"/>
		<path d="M52.5,91.7c-0.5,0-0.9-0.1-1.3-0.3c-0.4-0.2-0.7-0.4-1-0.8c-0.3-0.3-0.5-0.8-0.6-1.3c-0.2-0.5-0.2-1.1-0.2-1.8
			c0-0.7,0.1-1.2,0.2-1.7c0.2-0.5,0.4-0.9,0.6-1.3c0.3-0.3,0.6-0.6,1-0.8c0.4-0.2,0.8-0.3,1.3-0.3c0.5,0,0.9,0.1,1.3,0.3
			s0.7,0.4,1,0.8c0.3,0.3,0.5,0.8,0.6,1.3c0.2,0.5,0.2,1.1,0.2,1.7c0,0.7-0.1,1.3-0.2,1.8c-0.2,0.5-0.4,0.9-0.6,1.3
			c-0.3,0.3-0.6,0.6-1,0.8S53,91.7,52.5,91.7z M52.5,90.2c0.4,0,0.7-0.2,1-0.6c0.2-0.4,0.4-1.1,0.4-1.9c0-0.8-0.1-1.4-0.4-1.9
			c-0.2-0.4-0.6-0.6-1-0.6c-0.4,0-0.7,0.2-1,0.6c-0.2,0.4-0.4,1-0.4,1.9c0,0.8,0.1,1.5,0.4,1.9C51.8,90,52.1,90.2,52.5,90.2z"/>
		<path d="M58.9,91.6v-6.3h-2.3v-1.5H63v1.5h-2.3v6.3H58.9z"/>
		<path d="M63.5,91.6l2.4-7.8H68l2.4,7.8h-1.9l-0.5-1.9h-2.4l-0.5,1.9H63.5z M66.3,87.6l-0.2,0.7h1.6l-0.2-0.7
			c-0.1-0.4-0.2-0.8-0.3-1.2c-0.1-0.4-0.2-0.9-0.3-1.3h0c-0.1,0.4-0.2,0.8-0.3,1.3C66.5,86.8,66.4,87.2,66.3,87.6z"/>
		<path d="M74.1,91.7c-0.5,0-1-0.1-1.6-0.3c-0.5-0.2-1-0.5-1.4-0.8l1-1.2c0.3,0.2,0.6,0.4,1,0.6c0.4,0.2,0.7,0.2,1.1,0.2
			c0.4,0,0.7-0.1,0.8-0.2s0.3-0.3,0.3-0.5c0-0.1,0-0.2-0.1-0.3c-0.1-0.1-0.1-0.2-0.2-0.2c-0.1-0.1-0.2-0.1-0.4-0.2
			c-0.2-0.1-0.3-0.1-0.5-0.2l-1-0.4c-0.2-0.1-0.4-0.2-0.6-0.3c-0.2-0.1-0.4-0.3-0.5-0.4s-0.3-0.4-0.4-0.6c-0.1-0.2-0.1-0.5-0.1-0.8
			c0-0.3,0.1-0.6,0.2-0.9s0.3-0.5,0.6-0.7s0.6-0.4,0.9-0.5c0.4-0.1,0.7-0.2,1.2-0.2c0.5,0,0.9,0.1,1.4,0.3s0.9,0.4,1.2,0.8L76,85.7
			c-0.3-0.2-0.5-0.4-0.8-0.5c-0.3-0.1-0.6-0.2-1-0.2c-0.3,0-0.5,0.1-0.7,0.2c-0.2,0.1-0.3,0.3-0.3,0.5c0,0.2,0.1,0.4,0.4,0.5
			c0.2,0.1,0.5,0.3,0.9,0.4l0.9,0.4c0.5,0.2,0.9,0.5,1.2,0.8s0.5,0.8,0.5,1.3c0,0.3-0.1,0.6-0.2,0.9c-0.1,0.3-0.3,0.5-0.6,0.8
			c-0.3,0.2-0.6,0.4-0.9,0.5S74.6,91.7,74.1,91.7z"/>
	</g>
	<g class="st1">
		<path d="M42.4,105.6v-7.8h1.8l0.8,2.8l0.3,1.1h0l0.3-1.1l0.8-2.8h1.8v7.8h-1.5v-2.4c0-0.2,0-0.5,0-0.8s0-0.7,0.1-1s0-0.7,0.1-1
			c0-0.3,0-0.6,0.1-0.8h0l-0.6,2.1l-0.6,1.9h-0.9l-0.6-1.9l-0.6-2.1h0c0,0.2,0,0.5,0.1,0.8s0,0.7,0.1,1c0,0.3,0,0.7,0.1,1
			c0,0.3,0,0.6,0,0.8v2.4H42.4z"/>
		<path d="M52.6,105.7c-1,0-1.7-0.3-2.1-0.8c-0.5-0.5-0.7-1.3-0.7-2.3v-4.8h1.8v5c0,0.5,0.1,0.8,0.3,1.1s0.5,0.4,0.8,0.4
			s0.7-0.1,0.8-0.4s0.3-0.6,0.3-1.1v-5h1.7v4.8c0,1-0.2,1.8-0.7,2.3C54.2,105.4,53.5,105.7,52.6,105.7z"/>
		<path d="M59.4,105.7c-0.2,0-0.4,0-0.7-0.1s-0.5-0.1-0.7-0.2c-0.2-0.1-0.4-0.2-0.6-0.4s-0.4-0.4-0.6-0.6l1-1.1
			c0.5,0.6,1,0.9,1.5,0.9c0.4,0,0.7-0.1,0.9-0.3c0.2-0.2,0.3-0.6,0.3-1.1v-3.5h-3.1v-1.5h4.8v5.2c0,0.4,0,0.7-0.2,1.1
			c-0.1,0.3-0.3,0.6-0.5,0.9c-0.2,0.3-0.5,0.5-0.9,0.6C60.4,105.6,60,105.7,59.4,105.7z"/>
		<path d="M64.4,105.6v-7.8h5.2v1.5h-3.4v1.6h2.9v1.5h-2.9v1.8h3.5v1.5H64.4z"/>
		<path d="M71.4,105.6v-7.8h2.8c0.4,0,0.8,0,1.2,0.1c0.4,0.1,0.7,0.2,1,0.4c0.3,0.2,0.5,0.4,0.7,0.8c0.2,0.3,0.2,0.7,0.2,1.2
			c0,0.6-0.1,1-0.4,1.4s-0.6,0.6-1,0.8l1.8,3.1h-2l-1.5-2.8h-0.9v2.8H71.4z M73.1,101.3H74c1,0,1.4-0.4,1.4-1.2
			c0-0.4-0.1-0.7-0.4-0.8c-0.2-0.2-0.6-0.2-1.1-0.2h-0.9V101.3z"/>
	</g>
</g>
</svg>
