<?xml version="1.0" encoding="utf-8"?>
<!-- Generator: Adobe Illustrator 24.3.0, SVG Export Plug-In . SVG Version: 6.00 Build 0)  -->
<svg version="1.1" id="Layer_1" xmlns="http://www.w3.org/2000/svg" xmlns:xlink="http://www.w3.org/1999/xlink" x="0px" y="0px"
	 viewBox="0 0 120 126" style="enable-background:new 0 0 120 126;" xml:space="preserve">
<style type="text/css">
	.st0{fill:#231F20;}
	.st1{enable-background:new    ;}
</style>
<g id="Layer_2_4_">
	<g id="Layer_4_copy_1_">
		<path class="st0" d="M60,41.5l-0.2-0.5h0c0,0.1-0.1,0.2-0.2,0.4L59.3,41c-0.1,0-0.2,0-0.2,0c0,0.1,0,0.3,0,0.3l-0.3,0l-0.2,0.2
			l0.3,0.4h-0.1c0,0-0.2-0.3-0.3-0.4c0,0,0,0,0,0.1l0.2,0.3h-0.4c-0.1,0.2-0.2,0.5-0.1,0.8c0,0.2,0.1,0.5,0.2,0.7h0.2
			c0.8-0.1,1.5,0.2,2.2,0c0.3-0.3,0.3-0.7,0.2-1.1c-0.3,0-0.6,0.1-0.8,0.1c0,0,0-0.1,0.1-0.2l0.3,0l0.4-0.1c0,0,0-0.1,0-0.1L60.8,42
			l-0.2,0l0.2-0.3h0.3c0,0,0,0-0.1-0.1h-0.4c0,0,0.1-0.2,0.2-0.2c0,0,0,0-0.1,0c-0.1,0.2-0.3,0.4-0.3,0.4l-0.1-0.3l0.3-0.2
			c0,0,0,0-0.1,0l-0.3,0.2l-0.2-0.3H60c0,0.2,0.2,0.4,0.2,0.4L60,41.5z M59.5,41.9c0,0.1,0,0.2,0,0.3L59.5,42L59.5,41.9z M59.3,41.3
			c0,0,0,0.1,0,0.2h0V41.3z M59.3,41.6L59.3,41.6v0.2V41.6z M58.9,41.4l0.2,0v0.2C59,41.6,59,41.5,58.9,41.4L58.9,41.4z M59,42
			l0.3,0l0,0l-0.2,0.2l-0.2-0.1L59,42z M58.8,42L58.8,42h-0.2H58.8z M58.5,42.3c0,0,0-0.1,0-0.2h0.1C58.6,42.2,58.5,42.3,58.5,42.3
			L58.5,42.3z M59.7,43c-0.3-0.1-0.7-0.1-1.1-0.1c0,0,0,0,0-0.1c0-0.1-0.1-0.3,0-0.4h0.1l0.2-0.2c0,0,0.2,0,0.2,0.1l-0.1,0.1h0.2
			l0.4-0.2c0,0,0,0,0.1,0c-0.1,0-0.4,0.2-0.4,0.2h0.3l0.2-0.1c0,0,0.1,0.1,0.1,0.2L59.7,43z M59.8,42.1L59.8,42.1L59.8,42.1
			L59.8,42.1L59.8,42.1z M59.7,41.9l-0.1-0.3l0.2-0.3c0,0.1,0.1,0.2,0.2,0.3l0,0.3L59.7,41.9z M60.5,42.6L60.5,42.6L60.5,42.6
			c0.1-0.1,0.2-0.1,0.3-0.1l0.2,0.2h0.2c0-0.1-0.1-0.1-0.1-0.2l0.2,0c0,0.2,0,0.4,0,0.6c0,0.1-0.1,0.2-0.2,0.4h0
			c-0.3,0-0.6,0-0.9-0.1v0c0-0.2,0-0.4,0-0.5c0.2,0,0.3,0,0.5-0.1L60.5,42.6z M60.5,41.8L60.5,41.8L60.4,42h-0.1L60.5,41.8z
			 M60.3,42.2l-0.1,0.2h-0.1L60.3,42.2L60.3,42.2z M60.2,41.9L60.2,41.9L60,42.2v-0.3l0.2-0.2L60.2,41.9z M60.1,41.7L60.1,41.7
			l0-0.1L60.1,41.7z M61,43.4c-0.1,0.1-0.2,0.2-0.4,0.3c-0.7-0.1-1.3-0.2-2-0.3l0,0c0.5,0,1.1,0,1.6,0.1
			C60.4,43.4,60.7,43.4,61,43.4L61,43.4z M59,43.8c-0.1-0.1-0.2-0.2-0.3-0.3h0l0.3,0l0.8,0.1c0.2,0,0.4,0.1,0.6,0.1
			C60.1,44,59.5,44,59,43.8L59,43.8z M59.8,39.9c-1.4,0-2.5,1.1-2.5,2.5c0,1.4,1.1,2.5,2.5,2.5c1.4,0,2.5-1.1,2.5-2.5
			S61.2,39.9,59.8,39.9L59.8,39.9z M59.8,44.6c-1.2,0-2.2-1-2.2-2.2s1-2.2,2.2-2.2s2.2,1,2.2,2.2l0,0C62,43.7,61,44.6,59.8,44.6
			L59.8,44.6z M80.4,33.9c0-0.5-0.3-0.5-0.6-0.6c-0.1,0-0.3,0-0.5-0.1c-0.7-0.2-2.2-0.2-3.2-0.2c-0.3,0-0.9,0-1.6,0
			c-1.1,0-2.5,0-3.8,0c0-0.4-0.1-0.7-0.1-0.9c0-0.2-0.1-0.5-0.1-0.8c-0.1-2.9-0.2-6.2-0.2-6.6c-0.1-0.8-0.8-3-1-3.5
			c-0.2-0.5-1.2-2.7-1.3-3c-0.1-0.3-1-3.1-2.7-4.3c-1.6-1-3.6-1.4-4.9-1.4c-0.4,0-4.3,0.1-6.5,3.3c-0.2,0.2-0.3,0.4-0.4,0.7
			c-0.4,0.6-0.8,1.3-1.1,2c0,0.1-1.1,2.5-1.3,3c-0.2,0.6-0.8,2.9-0.9,5.1c0,0.2-0.1,1.8-0.2,3.6c-0.1,0.7-0.2,1.2-0.2,1.5
			c0,0.3-0.1,0.8-0.1,1.5c-1.6,0-4-0.2-4.9-0.3c-1.1-0.1-3.3-0.1-4,0.1c-0.9,0.2-1,0.7-1,1.1c0,0.2,0.1,0.3,0.1,0.5
			c0.1,0.3,0.2,0.6,0.1,0.8c-0.1,1.1-0.2,2.1-0.1,3.2c0,0.4,0.1,1,0.2,1.5c0.1,1,0.3,2.2,0.2,2.7c-0.1,0.6,0.1,1.7,0.2,2.7
			c0.1,0.5,0.1,1,0.1,1.2s0,0.6,0,1c0,0.7-0.1,1.5-0.1,2c0.1,0.7,0.2,3.7,0.1,4.5c-0.1,0.6,0,1.5,0.1,2.5c0,0.7,0.1,1.3,0.1,1.9
			c0,1,0.2,3.4,0.4,5.2c0,0.5,0.1,0.9,0.1,1.3c0.1,1.4,0.3,2.9,0.6,3.8c0.1,0.5,0.2,1.1,0.3,1.7c0,0.2,0,0.4,0.1,0.5l0,0
			c0,0.1,0,0.2,0.1,0.3c0,0,0,0,0,0c0.1,0.2,0.3,0.5,3,0.4c1.7-0.1,3-0.1,4.1-0.1c0.8,0,1.4,0,2-0.1c1.5-0.1,4.2-0.2,9.1-0.1
			c4.5,0,8.4,0.1,10.9,0.2c0.9,0,1.8,0.1,2.5,0.1c1.1,0.1,1.8,0.1,2.3,0.1c0.2,0,0.4,0,0.6,0c0.4-0.1,0.6-0.4,0.5-0.7c0,0,0,0,0-0.1
			c0.2-0.2,0.2-0.4,0.3-0.7c0-0.1,0-0.1,0-0.2c0.1-0.2,0.2-0.8,0.3-1.5c0.2-0.9,0.4-2.1,0.5-2.4c0.2-0.5,0.2-1.9,0.3-3
			c0-0.3,0-0.5,0-0.7c0-0.3,0-0.8,0-1.4c0-1.2,0.1-2.7,0.2-3.1c0.2-0.7,0.3-4.3,0.3-4.9c0-0.3,0-1.3,0-2.4c0-1.8,0-3.9,0-4.9
			c0-1.6,0.6-6.3,0.7-7.1c0.1-0.8,0.2-2.5,0.1-3.2c-0.1-0.4,0-0.7,0.1-1C80.3,34.3,80.4,34.1,80.4,33.9L80.4,33.9z M79.6,35.6
			c0.1,0.7,0.1,2.2-0.1,3c-0.1,0.8-0.7,5.6-0.7,7.2c0,0.9,0,3.1,0,4.9c0,1.2,0,2.1,0,2.4c0,0.8-0.1,4.2-0.3,4.8
			c-0.1,0.4-0.2,1.7-0.2,3.3c0,0.5,0,1.1,0,1.4c0,0.2,0,0.5,0,0.7c-0.1,1-0.1,2.4-0.2,2.9c-0.1,0.4-0.3,1.5-0.5,2.5
			c-0.1,0.7-0.2,1.3-0.3,1.5c0,0.1,0,0.1,0,0.2C77,70.7,77,70.9,76.7,71s-1.6,0-2.9,0c-0.7,0-1.4-0.1-2.2-0.1l-1.4-0.1
			c-2.3-0.1-6.1-0.2-9.6-0.2c-0.5,0-1.1,0-1.6,0c-4.7,0.1-12.7,0.2-12.8,0.2c0,0-1.3,0.1-2,0.1c-0.5,0-1.6,0-1.8-0.1c0,0,0,0,0-0.1
			l0,0v-0.1c0-0.6-0.1-1.2-0.3-1.8c-0.2-0.8-0.5-2.3-0.6-3.7c0-0.3-0.1-0.8-0.1-1.3c-0.2-1.7-0.4-4.1-0.4-5.1c0-0.5,0-1.2-0.1-1.9
			c-0.1-0.9-0.1-1.8-0.1-2.4c0.1-1,0-4-0.1-4.7c0-0.4,0-1.2,0.1-1.9c0-0.5,0-0.8,0-1.1c0-0.2,0-0.7-0.1-1.2c-0.1-0.9-0.2-2-0.2-2.5
			c0.1-0.6-0.1-1.7-0.2-2.9c-0.1-0.6-0.2-1.2-0.2-1.5c0-1,0-2.1,0.1-3.1c0-0.3,0-0.7-0.1-1c0-0.2-0.1-0.3-0.1-0.4
			c0-0.2-0.1-0.4,0.5-0.5c0.6-0.1,2.7-0.2,3.8-0.1c0.8,0.1,3.3,0.2,4.9,0.3l0,0.2c-2.8-0.1-7-0.3-7-0.3h0c-0.2,0-0.3,0-0.6,0
			c-0.7,0-1.3,0-1.3,0.3c0,0.4,0.4,0.6,2.7,0.7c1.2,0,2.9,0,4.6,0c0.5,0,1.1,0,1.6,0c-0.1,1.7-0.2,3.4-0.2,3.5
			c-0.1,0.9-0.2,3-0.2,3.2c0,0.3,0.7,1.2,1.2,1.3l0.1,0l0.1,0c0.5-0.3,1.1-0.7,1.1-1c0-0.3,0.1-3.2,0.1-3.6c0,0,0-1.8,0.1-3.4
			c0.5,0,1,0,1.7,0c1.8,0,4.1,0.1,6.2,0.1c0.6,0,1.2,0,1.7,0c1.6,0,3,0,4.3-0.1c0.9,0,1.8,0,2.7,0c0,0.2,0,0.4,0,0.7
			c-0.2,0.2-0.3,0.4-0.4,0.6c-0.1,0.3-0.1,0.6,0,0.9c-0.1,0.5,0,1.2,0.4,1.7c0,0.7-0.1,1.4-0.1,1.8c0,0.5,0,0.8,0,0.8
			c0,0.3,0.5,1.4,1,1.5c0,0,0.1,0,0.1,0c0.2,0,0.4-0.1,0.6-0.2c0,0.6-0.1,2.2-0.1,3.5c0,0.8-0.1,1.5-0.1,1.8c0,0.6-0.2,1.9-0.3,2.6
			c0,0.1,0,0.1,0,0.2c-0.8-0.1-0.9,0-0.9,0l-0.1,0.1V51c0,0.1-0.1,0.6-0.2,1.2c-0.2,1.2-0.4,3-0.6,4.5c-0.4,2.9-0.3,2.9-0.1,2.9
			c0.1,0,0.9,0.1,1.7,0.2c0.4,0.1,0.9,0.1,1.3,0.1c0.4,0,0.4-0.1,0.4-0.2c0-0.1,0.3-2.2,0.6-4.3c0.6-4.3,0.5-4.3,0.3-4.3
			c-0.1,0-0.4-0.1-0.9-0.1c0,0,0,0,0,0c0-0.1,0.1-0.6,0.1-1.1c0.1-0.7,0.2-1.3,0.2-1.5c0-0.3,0.2-5.4,0.2-6.1c0-0.1,0-0.3,0-0.6
			c0.1,0.1,0.1,0.2,0.1,0.2l0.1,0.2l0.6-0.7l-0.1-0.1c0,0-0.3-0.4-0.6-0.7c-0.1-0.1-0.1-0.1-0.1-0.2c0-0.8,0-1.7,0-2
			c0.1-0.6,0-0.8-0.1-1c0,0,0,0,0-0.1c-0.1-0.2-0.1-0.3-0.2-0.4c0-0.2,0-0.5-0.1-0.7c-0.1-0.1-0.1-0.2-0.2-0.3c0-0.1,0-0.2,0-0.3
			c0-0.2,0-0.5,0-0.8c1.3,0,2.9,0,4.2-0.1c1.2,0,2.2,0,2.7,0c0.2,0,0.4,0,0.6,0c0.9,0,1.4,0,1.4-0.4c0,0,0,0,0-0.1
			c0-0.1,0-0.2,0-0.3c-0.1-0.2-0.4-0.2-2.8-0.2c-1.9,0-3.3,0-4.7,0l-1.4,0c0-0.1,0-0.1,0-0.2c1.4,0,2.9,0,4,0c0.8,0,1.4,0,1.6,0
			c0.9,0,2.4,0,3.1,0.2c0.2,0,0.4,0.1,0.5,0.1l0.2,0l0,0c0,0.1,0,0.3-0.1,0.4C79.6,34.7,79.5,35.1,79.6,35.6L79.6,35.6z M68.3,20
			l-0.1,0l0-0.2l0.1,0L68.3,20z M68.3,20.2l0,0.2l-0.1,0l0.1,0.2h0l0,0.1c0.2,0.4,0.3,0.7,0.3,0.8c0.1,0.2,0.3,0.8,0.4,1.4l0.1,0
			c0,0.1,0,0.1,0,0.2l-0.1,0l0.1,0.2h0l0,0.2h0c0.1,0.5,0.2,0.9,0.3,1.4c0,0.3,0.1,2.2,0.2,4.2l0,0.2h0c0,0.1,0,0.1,0,0.2h0l0,0.2h0
			c0,0.1,0,0.1,0,0.2h0l0,0.2h0c0,0.1,0,0.1,0,0.2h0l0,0.2h0c0,0.1,0,0.1,0,0.2h0c0,0.1,0,0.1,0,0.2h0c0,0.1,0,0.1,0,0.2h0v0.2h0
			c0,0.1,0,0.1,0,0.2h0v0.2h0c0,0.1,0,0.1,0,0.2h0v0.2h0c0,0.1,0,0.1,0,0.2h0v0.2h0c0,0.1,0,0.1,0,0.2h0v0.2l0,0
			c0,1.4,0.1,2.6,0.1,3c0,0.5,0,1.3,0,2.3c0,0.1,0,0.2-0.1,0.3c0,0.1,0,0.1-0.1,0.2c0,0,0,0,0,0.1c0,0,0,0.1,0,0.1c0,0,0,0.1,0,0.1
			l0,0c-0.3-0.3-0.6-0.7-0.9-1c-0.1-0.1-0.1-0.1-0.1-0.2l0,0l0,0l0-0.1c0.1-2.3,0.2-5,0.1-6.6c0-1.3-0.1-2.6-0.2-3.9
			c-0.1-0.8-0.2-1.7-0.2-3c-0.1-1.5-0.2-3.1-0.5-4.6l0.3,0.7l0-0.1L68.3,20.2z M69.2,22.5c0,0.1,0,0.1,0,0.2l-0.1,0
			c0-0.1,0-0.1,0-0.2L69.2,22.5z M69,22.3l0-0.2l0.1,0l0,0.2L69,22.3z M69.1,21.9l-0.1,0l0-0.2l0.1,0L69.1,21.9z M69.2,51.2
			C69.2,51.3,69.2,51.3,69.2,51.2c0,0.4,0,0.7,0.3,0.8l0,0c0,0,0.4,0.1,0.6,0.1c0,0,0.1,0,0.1,0c0.2,0,0.3-0.1,0.4-0.2
			c0,0,0.1-0.1,0.1-0.1c0,0,0-0.1,0-0.1c0-0.1,0-0.2,0-0.3c0.3,0,0.6,0.1,0.7,0.1c0,0.9-0.9,7.2-1,8.1c-0.4,0-2.3-0.2-2.9-0.3
			c0-0.8,0.7-5.3,0.9-7c0.1-0.7,0.1-1,0.2-1.1C68.7,51.2,68.9,51.2,69.2,51.2L69.2,51.2z M50,33.7L50,33.7c0-0.1,0.1-0.1,0.1-0.2H50
			l0-0.2h0.1c0-0.1,0-0.1,0-0.2H50c0-0.1,0-0.1,0-0.2h0c0-0.1,0-0.1,0-0.2l0,0l0-0.2h0c0-0.1,0-0.1,0-0.2h0l0-0.2h0
			c0-0.1,0-0.1,0-0.2h0l0-0.2h0c0,0,0-0.1,0-0.2h0l0-0.2h0c0,0,0-0.1,0-0.2l0,0l0-0.2h0c0-0.1,0-0.1,0-0.2l0,0l0-0.2l0,0
			c0,0,0-0.1,0-0.2l0,0l0-0.2l0,0l0-0.2l-0.1,0l0-0.2l0.1,0c0-0.1,0-0.1,0-0.2l-0.1,0l0-0.2l0.1,0l0-0.2h-0.1l0-0.2l0.1,0
			c0-0.1,0-0.1,0-0.2l-0.1,0l0-0.2l0.1,0c0-0.1,0-0.1,0-0.2l-0.1,0l0-0.2l0.1,0c0,0,0-0.1,0-0.2l-0.1,0l0-0.2l0.1,0
			c0-0.1,0-0.1,0-0.2l-0.1,0l0-0.2l0.1,0c0-0.1,0-0.1,0-0.2l-0.1,0l0-0.2l0.1,0c0-0.1,0-0.1,0-0.2l-0.1,0c0-0.1,0-0.1,0-0.2l0.1,0
			c0-0.1,0-0.1,0-0.2l-0.1,0l0-0.2l0.1,0v0c0.2-1.3,0.4-2.4,0.5-2.6c0-0.1,0-0.2,0.1-0.4c0.2-1.2,0.9-4.8,2.6-7.2
			c0.2-0.4,0.5-0.7,0.9-1l0,0l0.2-0.1l0.1,0.1l-0.2,0.1l-0.1-0.1L55,15.4l0.1,0.1l-0.1,0.2l-0.1-0.1l-0.1,0.1l0.1,0.1
			c0,0.1-0.1,0.1-0.1,0.2l0,0c0,0.1-0.1,0.1-0.1,0.1l0,0c0,0.1-0.1,0.1-0.1,0.2l0,0c0,0-0.1,0.1-0.1,0.1l0,0c0,0.1-0.1,0.1-0.1,0.2
			l0,0l-0.1,0.1l0,0c0,0.1-0.1,0.1-0.1,0.2l0,0c0,0,0,0.1-0.1,0.1l0,0c0,0.1-0.1,0.1-0.1,0.2l0,0l-0.1,0.2l0,0
			c0,0.1-0.1,0.1-0.1,0.2h0c0,0,0,0.1-0.1,0.1h0c0,0.1-0.1,0.1-0.1,0.2l0,0c-0.1,0.1-0.1,0.3-0.2,0.4c-0.6,1.4-0.9,4.9-1.1,7
			c0,0.6-0.1,1-0.1,1.3c-0.1,0.6-0.3,1.7-0.5,3c-0.2,1.3-0.4,2.7-0.5,3.4C51,34.3,51,38.2,51,38.3c0,1.3-0.1,3.2-0.1,3.5
			c-0.1,0.1-0.4,0.3-0.7,0.5c-0.2-0.2-0.6-0.6-0.6-0.8c0-0.2,0.1-1.7,0.2-3.1c0,0,0-0.7,0.1-1.7v-0.1l0,0c0-0.1,0-0.1,0-0.2l0,0
			l0-0.2h0c0-0.1,0-0.1,0-0.2h0l0-0.2h0c0-0.1,0-0.1,0-0.2h0l0-0.2h0l0-0.2h0l0-0.2h0c0-0.1,0-0.1,0-0.2h0l0-0.2h0l0-0.2h0l0-0.2h0
			c0-0.1,0-0.1,0-0.2h0l0-0.2h0l0-0.2h0L50,33.7z M51.4,23l0,0.2l-0.1,0l0-0.2L51.4,23z M51.2,24l0-0.2l0.1,0l0,0.2L51.2,24z
			 M51.2,23.6l0-0.2l0.1,0l0,0.2L51.2,23.6z M51.3,24.2l0,0.2l-0.1,0l0-0.2L51.3,24.2z M51,25.9l0-0.2l0.1,0l0,0.2L51,25.9z
			 M51.1,26.1l0,0.2l-0.1,0l0-0.2L51.1,26.1z M51,25.5l0-0.2l0.1,0l0,0.2L51,25.5z M51.1,25.1l0-0.2l0.1,0l0,0.2L51.1,25.1z
			 M51.1,24.8l0-0.2l0.1,0l0,0.2L51.1,24.8z M71.1,41c0.2,0.2,0.3,0.3,0.4,0.5l-0.1,0.1c-0.1-0.1-0.2-0.3-0.3-0.5V41z M70.8,38.4
			c0,0.4,0,1.3,0,2.2c0,0.7,0,1.3,0,1.6c0,0.7-0.2,5.7-0.2,6.1c0,0.2-0.1,0.9-0.2,1.5c-0.1,0.7-0.1,1-0.1,1.2c0,0.1,0,0.2,0,0.3
			c0,0.2,0,0.3,0,0.4c-0.1,0.1-0.1,0.1-0.2,0.1c-0.2,0-0.5-0.1-0.6-0.1c0,0-0.1-0.1-0.1-0.4c0-0.1,0-0.3,0.1-0.6
			c0.1-0.8,0.2-2.1,0.3-2.7c0-0.3,0-1,0.1-1.8c0.1-1.3,0.1-2.9,0.2-3.5c0-0.3,0-0.7,0-1.2c0-1,0-2.3,0.1-2.8
			c0.1-0.4,0.2-0.8,0.2-1.3c0-0.2,0-0.3,0.1-0.4c0-0.2,0.1-0.6-0.1-0.7c0,0,0,0,0,0c0.1,0,0.1,0.1,0.2,0.1c0,0.2,0.1,0.4,0,0.5
			l0,0.1l0,0c0.1,0.1,0.2,0.3,0.2,0.4c0,0,0,0,0,0.1C70.8,37.7,70.8,37.9,70.8,38.4L70.8,38.4z M68.6,41.5c0,0,0-0.4,0-0.8
			c0-0.5,0-1.1,0.1-1.8c0,0,0.1,0,0.1,0.1l0.1,0.1c0.3,0.3,0.7,0.7,0.8,0.8c0,0.5,0,1.1,0,1.7c0,0.1,0,0.2,0,0.3v0.2
			c-0.2,0.1-0.4,0.2-0.6,0.3C69,42.3,68.6,41.7,68.6,41.5L68.6,41.5z M68.1,36.5c-0.1,0.6,0.2,1.1,0.3,1.4l0,0
			c0.3,0.5,0.8,1,1.3,1.4l0,0.1c-0.5-0.4-0.9-0.9-1.3-1.4c-0.4-0.5-0.4-1.3-0.3-1.7c0-0.1,0.1-0.2,0.2-0.3
			C68.2,36.2,68.2,36.3,68.1,36.5L68.1,36.5z M55.4,15l0.2-0.1l0.1,0.1l-0.2,0.1L55.4,15z M55.7,14.8l0.2-0.1l0.1,0.1L55.7,14.8
			L55.7,14.8z M67.2,19.2c0.3,1.7,0.5,3.4,0.6,5.1c0.1,1.3,0.2,2.2,0.3,3c0.1,0.4,0.1,0.8,0.1,1.2C68.1,27.9,68,27.3,68,27
			c0-0.3-0.1-0.7-0.1-1.3c-0.2-2.1-0.5-5.6-1.1-7c-0.3-0.7-0.8-2-1.8-3.1c0.3,0.3,0.7,0.7,0.9,1.1C66.4,17.4,66.9,18.3,67.2,19.2
			L67.2,19.2z M68.3,33.1c-0.3,0-0.6,0-0.8,0c-1.6,0-4.1,0-6.2,0c-1.1,0-2,0-2.7,0c-1,0-3,0-4.8,0.1c-0.7,0-1.5,0-2.1,0
			c0-0.3,0-0.5,0-0.8c0.1-0.8,0.3-1.8,0.5-2.9c0.2-1.2,0.4-2.4,0.5-3c0-0.3,0.1-0.7,0.1-1.3c0.2-1.9,0.5-5.5,1-6.9
			c0.4-1,1.2-3,3.1-4.1c0.9-0.4,1.8-0.6,2.8-0.6c4.5,0,5.9,3.7,6.5,5c0.5,1.4,0.9,4.9,1.1,6.9c0.1,0.6,0.1,1,0.1,1.3
			c0.1,0.6,0.3,1.8,0.4,3c0.2,1,0.3,2.1,0.4,2.8C68.3,32.9,68.3,33,68.3,33.1L68.3,33.1z M51.7,33.9c0.6,0,1.4,0,2.2-0.1
			c1.8,0,3.8-0.1,4.7-0.1c0.6,0,1.6,0,2.7,0c2,0,4.5-0.1,6.1,0c0.2,0,0.5,0,0.8,0c0,0.1,0,0.1,0,0.2c-0.8,0-1.5,0-2.1,0
			c-1.2,0-2.1,0-3.9,0c-1.2,0-2.9,0.1-4.8,0.1c-2.2,0.1-4.4,0.1-5.9,0.1C51.7,34.1,51.7,34,51.7,33.9L51.7,33.9z M49.4,34.6
			c-0.5,0-1.1,0-1.6,0c-1.7,0-3.4,0-4.6,0c-1.8-0.1-2.2-0.2-2.3-0.3c0.3,0,0.6-0.1,0.9,0c0.2,0,0.4,0,0.6,0c0.2,0,4.2,0.2,7,0.3
			L49.4,34.6z M51.7,34.5c1.4,0,3.7-0.1,5.9-0.1c1.8,0,3.5-0.1,4.8-0.1c1.8,0,2.7,0,3.9,0c0.6,0,1.2,0,2.1,0c0,0.1,0,0.3,0,0.4
			c-0.9,0-1.8,0-2.7,0c-1.3,0-2.7,0-4.3,0.1c-2.5,0.1-5.6,0-7.9-0.1c-0.6,0-1.2,0-1.7,0C51.7,34.6,51.7,34.5,51.7,34.5L51.7,34.5z
			 M70.5,34.2l1.4,0c1.4,0,2.8,0,4.7,0c1.2,0,2.3,0,2.5,0.1c0,0,0,0.1,0,0.1c-0.1,0.1-0.6,0.1-1.1,0.1c-0.2,0-0.4,0-0.7,0
			c-0.4,0-1.5,0-2.7,0c-1.3,0-2.9,0-4.2,0.1C70.5,34.5,70.5,34.4,70.5,34.2L70.5,34.2z M51.1,23.4c0,0.1,0,0.3-0.1,0.3
			c0,0.2-0.1,0.6-0.2,1.2c0.1-0.8,0.3-1.5,0.4-2.1C51.1,23,51.1,23.2,51.1,23.4z M69,21.5l-0.1,0l0-0.2l0.1,0L69,21.5z M68.9,21.2
			l-0.1,0L68.8,21l0.1,0L68.9,21.2z M68.8,20.6l0.1,0.2l-0.1,0l-0.1-0.2L68.8,20.6z M68.3,19.7l-0.1,0l0-0.2l0.1,0L68.3,19.7z
			 M51.3,71.3c-0.6,0-1.3,0-2,0.1c-1.1,0-2.4,0.1-4.1,0.1c-1.5,0.1-2.3,0-2.6-0.1c0.3,0.1,0.9,0.1,1.7,0.1c0.6,0,1.9-0.1,2-0.1
			s3.2-0.1,6.8-0.1C52.3,71.3,51.8,71.3,51.3,71.3z M55.8,71.2c1.2,0,2.2,0,3.2-0.1c3.1,0,6.7,0.1,9.4,0.1c-2.2,0-5-0.1-7.9-0.1
			C58.6,71.2,57.1,71.2,55.8,71.2L55.8,71.2z M76.8,71.5c-0.1,0-0.1,0-0.2,0C76.7,71.5,76.8,71.5,76.8,71.5l0.1-0.1
			C76.9,71.5,76.8,71.5,76.8,71.5L76.8,71.5z M77.2,71.3L77.2,71.3L77.2,71.3L77.2,71.3z M68.9,51.6l-0.1-0.1c0.1,0,0.1,0,0.2,0
			l0.1,0.1C69,51.6,68.9,51.6,68.9,51.6z M70.8,51.9l-0.2,0c0,0,0-0.1,0-0.1l0.2,0L70.8,51.9z M71,52.5l0.1,0l0,0.2l-0.1,0L71,52.5z
			 M71,52.2l0.1,0c0,0.1,0,0.2,0,0.2H71L71,52.2z M71,51.9L71,51.9l0.1-0.1l0.1,0c0,0,0,0,0,0c0,0,0,0.1,0,0.1L71,52
			C71,52,71,52,71,51.9C71,51.9,71,51.9,71,51.9L71,51.9z M71,53.8l-0.1,0l0-0.2l0.1,0L71,53.8z M71,53.5l-0.1,0l0-0.2l0.1,0
			L71,53.5z M71.1,53.1l-0.1,0l0-0.2l0.1,0L71.1,53.1z M70.8,55l-0.1,0l0-0.2l0.1,0L70.8,55z M70.9,54.6l-0.1,0l0-0.2l0.1,0
			L70.9,54.6z M70.9,54.2l-0.1,0l0-0.2l0.1,0L70.9,54.2z M70.7,56.1l-0.1,0l0-0.2l0.1,0L70.7,56.1z M70.7,55.7l-0.1,0l0-0.2l0.1,0
			L70.7,55.7z M70.8,55.3l-0.1,0l0-0.2l0.1,0L70.8,55.3z M70.5,57.2l-0.1,0l0-0.2l0.1,0L70.5,57.2z M70.6,56.8l-0.1,0l0-0.2l0.1,0
			L70.6,56.8z M70.6,56.4l-0.1,0l0-0.2l0.1,0L70.6,56.4z M70.4,58.3l-0.1,0l0-0.2l0.1,0L70.4,58.3z M70.4,57.9l-0.1,0l0-0.2l0.1,0
			L70.4,57.9z M70.5,57.5l-0.1,0l0-0.2l0.1,0L70.5,57.5z M70.2,59.4l-0.1-0.1l0-0.2l0.1,0.1C70.2,59.3,70.2,59.3,70.2,59.4z
			 M70.3,59l-0.1,0l0-0.2l0.1,0L70.3,59z M70.3,58.7l-0.1,0l0-0.2l0.1,0L70.3,58.7z M69.3,59.4l-0.2,0l0-0.1l0.2,0L69.3,59.4z
			 M69.7,59.5c-0.1,0-0.2,0-0.2,0l0-0.1l0.2,0L69.7,59.5z M69.8,59.5l0-0.1c0.1,0,0.1,0,0.2,0l0.1,0.1C70,59.5,69.9,59.5,69.8,59.5
			L69.8,59.5z M68.1,59.1l0.2,0l-0.1,0.1l-0.2,0l0,0L68.1,59.1L68.1,59.1z M68.4,59.2l0.2,0l0,0.1l-0.2,0L68.4,59.2z M68.7,59.2
			l0.2,0l0,0.1l-0.2,0L68.7,59.2z M67.8,58.2l0.1,0l0,0.2l-0.1,0L67.8,58.2z M67.8,58.8l-0.1,0c0-0.1,0-0.2,0-0.2h0.1L67.8,58.8z
			 M67.8,59.1L67.8,59.1l-0.1,0.1l-0.1,0c0,0,0,0,0,0c0,0,0,0,0,0c0,0,0-0.1,0-0.1l0.1-0.1C67.8,59,67.8,59,67.8,59.1
			C67.8,59,67.8,59,67.8,59.1C67.8,59,67.8,59.1,67.8,59.1L67.8,59.1z M68,57.3l-0.1,0l0-0.2l0.1,0L68,57.3z M68,57.7l-0.1,0l0-0.2
			l0.1,0L68,57.7z M67.8,57.9l0.1,0l0,0.2l-0.1,0L67.8,57.9z M68.2,56.2l-0.1,0l0-0.2l0.1,0L68.2,56.2z M68.1,56.6l-0.1,0l0-0.2
			l0.1,0L68.1,56.6z M68.1,57l-0.1,0l0-0.2l0.1,0L68.1,57z M68.3,54.9l0,0.2l-0.1,0l0-0.2L68.3,54.9z M68.2,55.3l0.1,0l0,0.2l-0.1,0
			L68.2,55.3z M68.1,55.6l0.1,0l0,0.2l-0.1,0L68.1,55.6z M68.5,54l-0.1,0l0-0.2l0.1,0L68.5,54z M68.4,54.4l-0.1,0l0-0.2l0.1,0
			L68.4,54.4z M68.4,54.8l-0.1,0l0-0.2l0.1,0L68.4,54.8z M68.5,52.9l0-0.2l0.1,0l0,0.2L68.5,52.9z M68.5,53l0.1,0l0,0.2l-0.1,0
			L68.5,53z M68.5,53.6l-0.1,0l0-0.2l0.1,0L68.5,53.6z M68.8,51.8l-0.1-0.1c0-0.1,0-0.1,0-0.2l0.1,0.1L68.8,51.8z M68.7,52.2l-0.1,0
			l0-0.2l0.1,0L68.7,52.2z M68.7,52.5l-0.1,0l0-0.2l0.1,0L68.7,52.5z M61.3,43.2l0.1,0.1c0,0.1-0.1,0.1-0.1,0.2l-0.1-0.1
			C61.2,43.3,61.3,43.3,61.3,43.2L61.3,43.2z M61.4,42.9l0.1,0c0,0.1,0,0.1-0.1,0.2l-0.1,0C61.4,43,61.4,42.9,61.4,42.9L61.4,42.9z
			 M61.5,42.5l0.1,0c0,0,0,0.1,0,0.1l0,0.1l-0.1,0l0-0.1C61.5,42.6,61.5,42.5,61.5,42.5L61.5,42.5z M60.5,44l0.1,0.1
			c-0.1,0-0.1,0.1-0.2,0.1l0-0.1C60.4,44,60.5,44,60.5,44L60.5,44z M60.8,43.8L60.8,43.8c0,0.1,0,0.2-0.1,0.2l-0.1-0.1
			C60.8,43.8,60.8,43.8,60.8,43.8L60.8,43.8z M61.1,43.5L61.1,43.5c0.1,0.1,0,0.2,0,0.2L61,43.7C61,43.6,61.1,43.6,61.1,43.5
			L61.1,43.5z M59.4,44.1C59.4,44.1,59.5,44.1,59.4,44.1l0.1,0.2c0,0-0.1,0-0.1,0l-0.1,0l0-0.1L59.4,44.1z M59.9,44.1l0,0.1l-0.1,0
			l-0.1,0l0-0.1h0.1H59.9z M60.2,44.1l0,0.1l-0.1,0l-0.1,0l0-0.1c0,0,0.1,0,0.1,0L60.2,44.1z M58.4,43.5c0,0,0.1,0.1,0.1,0.2
			l-0.1,0.1C58.4,43.7,58.4,43.6,58.4,43.5L58.4,43.5z M58.7,43.8c0,0,0.1,0.1,0.2,0.1L58.8,44c-0.1,0-0.1-0.1-0.2-0.1L58.7,43.8z
			 M59,44c0.1,0,0.1,0.1,0.2,0.1l0,0.1c-0.1,0-0.1,0-0.2-0.1L59,44z M58.1,42.7l-0.1,0l0-0.1l0-0.1l0.1,0l0,0.1L58.1,42.7z M58.2,43
			l-0.1,0c0-0.1,0-0.1-0.1-0.2l0.1,0C58.1,42.9,58.2,43,58.2,43L58.2,43z M58.3,43.4l-0.1,0.1c0-0.1-0.1-0.1-0.1-0.2l0.1-0.1
			C58.3,43.3,58.3,43.3,58.3,43.4L58.3,43.4z M58.2,41.7l-0.1-0.1c0-0.1,0.1-0.1,0.1-0.2l0.1,0.1C58.3,41.5,58.3,41.6,58.2,41.7
			L58.2,41.7z M58.1,42L58,42c0-0.1,0-0.1,0.1-0.2l0.1,0C58.2,41.9,58.1,41.9,58.1,42L58.1,42z M58.1,42.3l-0.1,0c0,0,0-0.1,0-0.1
			l0-0.1l0.1,0l0,0.1C58.1,42.3,58.1,42.3,58.1,42.3L58.1,42.3z M59,40.9l-0.1-0.1c0.1,0,0.1-0.1,0.2-0.1l0,0.1
			C59.1,40.9,59,40.9,59,40.9z M58.7,41.1L58.7,41.1c0-0.1,0-0.2,0.1-0.2l0.1,0.1C58.8,41,58.7,41.1,58.7,41.1L58.7,41.1z
			 M58.4,41.4L58.4,41.4c-0.1-0.1,0-0.2,0-0.2l0.1,0.1C58.5,41.3,58.5,41.3,58.4,41.4L58.4,41.4z M60.1,40.8
			C60.1,40.8,60.1,40.8,60.1,40.8l-0.1-0.1c0,0,0.1,0,0.1,0l0.1,0l0,0.1L60.1,40.8z M59.7,40.7l0-0.1l0.1,0l0.1,0l0,0.1h-0.1H59.7z
			 M59.3,40.8l0-0.1l0.1,0l0.1,0l0,0.1c0,0-0.1,0-0.1,0L59.3,40.8z M61.1,41.4c0,0-0.1-0.1-0.1-0.2l0.1-0.1
			C61.1,41.2,61.2,41.2,61.1,41.4L61.1,41.4z M60.9,41.1c0,0-0.1-0.1-0.2-0.1l0.1-0.1c0.1,0,0.1,0.1,0.2,0.1L60.9,41.1z M60.6,40.9
			c-0.1,0-0.1-0.1-0.2-0.1l0-0.1c0.1,0,0.1,0,0.2,0.1L60.6,40.9z M61.5,42.2l0.1,0l0,0.1l0,0.1l-0.1,0l0-0.1L61.5,42.2z M61.4,41.8
			l0.1,0c0,0.1,0,0.1,0.1,0.2l-0.1,0C61.4,42,61.4,41.9,61.4,41.8L61.4,41.8z M61.3,41.4c0,0.1,0.1,0.1,0.1,0.2l-0.1,0.1
			C61.3,41.6,61.2,41.6,61.3,41.4L61.3,41.4z M68.2,20.2l0.1,0l0,0.2l-0.1,0h-0.1L68.2,20.2L68.2,20.2z M68.2,19.9l0.1,0l0,0.2
			l-0.1,0L68.2,19.9z M68.2,19.5l0,0.2l-0.1,0l0-0.2L68.2,19.5z M68.4,21.5l-0.1,0l0-0.2l0.1,0L68.4,21.5z M68.3,21.2l0-0.2l0.1,0
			l0,0.2L68.3,21.2z M68.2,20.6L68.2,20.6l0.1,0l0,0.1l0,0.1l-0.1,0L68.2,20.6z M68.5,22.4l0,0.2l-0.1,0l0-0.2L68.5,22.4z
			 M68.5,22.1l0,0.2l-0.1,0l0-0.2L68.5,22.1z M68.3,21.7l0.1,0l0,0.2l-0.1,0L68.3,21.7z M68.5,23.8l0-0.2l0.1,0l0,0.2L68.5,23.8z
			 M68.5,23.4l0-0.2l0.1,0l0,0.2L68.5,23.4z M68.4,23l0-0.2l0.1,0l0,0.2L68.4,23z M68.7,24.9l-0.1,0l0-0.2l0.1,0L68.7,24.9z
			 M68.6,24.5l0-0.2l0.1,0l0,0.2L68.6,24.5z M68.6,24.1l0-0.2l0.1,0l0,0.2L68.6,24.1z M68.8,26h-0.1l0-0.2l0.1,0L68.8,26z
			 M68.8,25.6l-0.1,0l0-0.2l0.1,0L68.8,25.6z M68.8,25.2l-0.1,0l0-0.2l0.1,0L68.8,25.2z M68.9,27.1l-0.1,0l0-0.2l0.1,0L68.9,27.1z
			 M68.9,26.7l-0.1,0l0-0.2l0.1,0L68.9,26.7z M68.9,26.4l-0.1,0l0-0.2l0.1,0L68.9,26.4z M69,28.2l-0.1,0l0-0.2l0.1,0L69,28.2z
			 M69,27.9l-0.1,0l0-0.2l0.1,0L69,27.9z M68.9,27.5l-0.1,0l0-0.2l0.1,0L68.9,27.5z M69,29.1l0,0.2h-0.1l0-0.2H69z M69,28.8l0,0.2
			h-0.1l0-0.2H69z M68.9,28.6l0-0.2l0.1,0l0,0.2L68.9,28.6z M69.1,30.3v0.2H69v-0.2H69.1z M69.1,29.9l0,0.2H69l0-0.2H69.1z
			 M69.1,29.5l0,0.2h-0.1l0-0.2H69.1z M68.9,31.4h0.1v0.2h-0.1V31.4z M69.1,31.2H69l0-0.2h0.1L69.1,31.2z M69,30.6h0.1v0.2H69V30.6z
			 M68.9,32.5H69v0.2h-0.1V32.5z M68.9,32.1h0.1v0.2h-0.1V32.1z M68.9,31.8h0.1V32h-0.1V31.8z M68.9,33.8v-0.2H69l0,0.2H68.9z
			 M68.9,33.5l0-0.2H69l0,0.2H68.9z M68.9,33.1l0-0.2H69v0.2H68.9z M68.9,34.9v-0.2H69v0.2H68.9z M68.9,34.6v-0.2H69l0,0.2H68.9z
			 M69,34l0,0.2h-0.1V34H69z M68.8,35.8H69v0.2h-0.1V35.8z M68.8,35.5H69l0,0.2h-0.1L68.8,35.5z M68.9,35.1H69l0,0.2h-0.1L68.9,35.1
			z M68.9,37v0.2h-0.1V37H68.9z M68.8,36.6h0.1v0.2h-0.1V36.6z M68.8,36.2H69v0.2h-0.1V36.2z M68.9,37.7v0.2
			c-0.1-0.1-0.1-0.1-0.1-0.2v0H68.9z M68.9,37.3v0.2h-0.1v-0.2H68.9z M68.8,39.4l0-0.2h0.1v0.2H68.8z M68.8,38.9l0.1,0.1l0,0h-0.1
			L68.8,38.9z M68.9,40.5h-0.1v-0.2h0.1V40.5z M68.9,40.2h-0.1l0-0.2h0.1L68.9,40.2z M68.8,39.6h0.1v0.2h-0.1V39.6z M68.8,41.5
			C68.8,41.6,68.9,41.6,68.8,41.5l-0.1,0.1c0,0-0.1-0.1-0.1-0.1v-0.1L68.8,41.5L68.8,41.5z M68.7,41.1h0.1l0,0.2h-0.1L68.7,41.1z
			 M68.8,40.9h-0.1v-0.2h0.1V40.9z M69.9,38v0.2h-0.1V38H69.9z M69.8,38.4h0.1c0,0.1,0,0.1-0.1,0.2h-0.1V38.4z M69.8,38.8L69.8,38.8
			c0,0,0,0.1,0,0.1l0,0V38.8z M69.9,37.1h-0.1v-0.2h0.1L69.9,37.1z M69.9,37.5h-0.1v-0.2h0.1V37.5z M69.9,37.9h-0.1v-0.2h0.1
			L69.9,37.9z M69.9,35.9h-0.1v-0.2h0.1L69.9,35.9z M69.9,36.3h-0.1v-0.2h0.1L69.9,36.3z M69.9,36.7h-0.1v-0.2h0.1L69.9,36.7z
			 M69.9,34.5v0.2h-0.1v-0.2H69.9z M69.9,34.9v0.2h-0.1v-0.2H69.9z M69.9,35.5h-0.1v-0.2h0.1V35.5z M69.9,33.4v0.2h-0.1v-0.2H69.9z
			 M69.9,33.8V34h-0.1v-0.2H69.9z M69.9,34.1v0.2h-0.1v-0.2H69.9z M69.8,32.2h0.1v0.2h-0.1V32.2z M69.8,32.6h0.1v0.2h-0.1V32.6z
			 M69.8,33h0.1v0.2h-0.1L69.8,33z M69.8,31L69.8,31l0,0.2h-0.1L69.8,31L69.8,31z M69.8,31.4L69.8,31.4l0,0.2h-0.1L69.8,31.4
			L69.8,31.4z M69.8,31.8h0.1V32h-0.1V31.8z M69.7,29.9L69.7,29.9l0.1,0l0,0.2h0h-0.1V29.9z M69.7,30.2L69.7,30.2h0.1l0,0.2h0h-0.1
			L69.7,30.2z M69.7,30.6L69.7,30.6h0.1c0,0.1,0,0.1,0,0.2h0h-0.1C69.8,30.8,69.8,30.7,69.7,30.6L69.7,30.6z M69.8,28.7l0,0.2
			l-0.1,0l0-0.2L69.8,28.7z M69.8,29.1L69.8,29.1l0,0.2h0l-0.1,0l0-0.2L69.8,29.1z M69.7,29.5l0.1,0h0l0,0.2h0l-0.1,0L69.7,29.5z
			 M69.6,27.8l0-0.2l0.1,0l0,0.2L69.6,27.8z M69.6,28.1l0-0.2l0.1,0l0,0.2L69.6,28.1z M69.7,28.3l0,0.2l-0.1,0l0-0.2L69.7,28.3z
			 M69.6,26.4l0,0.2l-0.1,0l0-0.2L69.6,26.4z M69.6,26.7l0,0.2l-0.1,0l0-0.2L69.6,26.7z M69.6,27.1l0,0.2l-0.1,0l0-0.2L69.6,27.1z
			 M69.5,25.2l0,0.2l-0.1,0l0-0.2L69.5,25.2z M69.5,25.6l0,0.2l-0.1,0l0-0.2L69.5,25.6z M69.6,26l0,0.2l-0.1,0l0-0.2L69.6,26z
			 M69.2,24l0.1,0l0,0.2l-0.1,0L69.2,24z M69.3,24.4l0.1,0l0,0.2l-0.1,0L69.3,24.4z M69.3,24.8h0.1l0,0.2l-0.1,0L69.3,24.8z
			 M69.1,22.9L69.1,22.9l0.1,0c0,0.1,0,0.1,0,0.2l-0.1,0l-0.1,0C69.1,23,69.1,23,69.1,22.9L69.1,22.9z M69.2,23.3L69.2,23.3l0.1,0
			l0,0.2h0l-0.1,0L69.2,23.3z M69.2,23.9l0-0.2l0.1,0l0,0.2L69.2,23.9z M68.9,21.7l0.1,0l0,0.2l-0.1,0L68.9,21.7z M69.1,22.1l0,0.2
			l-0.1,0l0-0.2L69.1,22.1z M69.1,22.7c0-0.1,0-0.1,0-0.2l0.1,0c0,0.1,0,0.1,0,0.2L69.1,22.7z M68.7,20.8l-0.1-0.2l0.1,0l0.1,0.2
			L68.7,20.8z M68.9,21l0.1,0.2l-0.1,0L68.8,21L68.9,21z M69,21.3l0.1,0.2l-0.1,0l0-0.2L69,21.3z M69.1,41.9L69.1,41.9l-0.2-0.1
			l0.1-0.1L69.1,41.9z M69.2,42.3l-0.1-0.2l0.1-0.1l0.1,0.1l0.1,0l0.1,0.1L69.2,42.3z M69.7,41.8L69.7,41.8L69.7,41.8l0,0.2l0,0
			l-0.1,0.1L69.5,42L69.7,41.8L69.7,41.8L69.7,41.8z M55.1,15.3L55.1,15.3L55.1,15.3l0.2-0.2l0.1,0.1L55.1,15.3L55.1,15.3z
			 M55.5,15.1L55.4,15l0.2-0.1l0.1,0.1L55.5,15.1z M55.8,14.9l-0.1-0.1l0.2-0.1l0.1,0.1L55.8,14.9z M54.5,16L54.5,16L54.5,16
			c0.1,0.1,0,0.2,0,0.3l0,0l-0.1,0C54.4,16.1,54.4,16.1,54.5,16z M54.7,15.7L54.7,15.7l0.1,0.1c0,0.1-0.1,0.1-0.1,0.2l0,0l0,0
			C54.6,15.8,54.7,15.8,54.7,15.7z M55,15.4L55,15.4L55,15.4l0,0.2l-0.1-0.1l0,0L55,15.4z M53.9,17L53.9,17l0.1,0.1
			c0,0.1-0.1,0.1-0.1,0.2l0,0l-0.1,0C53.8,17.1,53.8,17.1,53.9,17z M54.1,16.7L54.1,16.7c0,0.1,0,0.1-0.1,0.2l0,0l-0.1,0
			C54,16.8,54,16.7,54.1,16.7L54.1,16.7z M54.3,16.3L54.3,16.3l0.1,0.1c0,0.1-0.1,0.1-0.1,0.2l0,0l-0.1,0
			C54.2,16.5,54.2,16.4,54.3,16.3z M53.4,18.1l0.1,0l-0.1,0.2l-0.1,0L53.4,18.1z M53.5,17.7l0.1,0h0c0,0.1-0.1,0.1-0.1,0.2l0,0
			l-0.1,0C53.5,17.8,53.5,17.8,53.5,17.7z M53.7,17.4L53.7,17.4l0.1,0.1c0,0.1-0.1,0.1-0.1,0.2h0l-0.1,0
			C53.6,17.5,53.7,17.4,53.7,17.4z M52.9,19.4c0-0.1,0-0.1,0.1-0.2l0.1,0c0,0.1,0,0.1-0.1,0.2L52.9,19.4z M53.1,18.8l0.1,0L53.1,19
			L53,19L53.1,18.8z M53.2,18.4l0.1,0l-0.1,0.2l-0.1,0L53.2,18.4z M52.6,20.5l0-0.2l0.1,0l0,0.2L52.6,20.5z M52.7,20.1
			c0-0.1,0-0.1,0-0.2l0.1,0c0,0.1,0,0.1,0,0.2L52.7,20.1z M52.8,19.7c0-0.1,0-0.1,0.1-0.2l0.1,0c0,0.1,0,0.1,0,0.2L52.8,19.7z
			 M52.5,21.4l0.1,0c0,0.1,0,0.1,0,0.2l-0.1,0C52.5,21.6,52.5,21.5,52.5,21.4z M52.5,21.1l0.1,0l0,0.2l-0.1,0L52.5,21.1z M52.6,20.9
			l0-0.2l0.1,0l0,0.2L52.6,20.9z M52.3,22.6l0.1,0l0,0.2l-0.1,0L52.3,22.6z M52.4,22.2l0.1,0l0,0.2l-0.1,0L52.4,22.2z M52.4,21.8
			l0.1,0l0,0.2l-0.1,0L52.4,21.8z M52.2,23.8l0.1,0l0,0.2l-0.1,0L52.2,23.8z M52.2,23.4l0.1,0l0,0.2l-0.1,0L52.2,23.4z M52.3,23
			l0.1,0l0,0.2l-0.1,0L52.3,23z M52.1,24.9l0.1,0l0,0.2l-0.1,0L52.1,24.9z M52.1,24.5l0.1,0l0,0.2l-0.1,0L52.1,24.5z M52.2,24.1
			l0.1,0l0,0.2l-0.1,0L52.2,24.1z M52,26.1l0.1,0l0,0.2l-0.1,0L52,26.1z M52,25.7l0.1,0l0,0.2l-0.1,0L52,25.7z M52.1,25.3l0.1,0
			l0,0.2l-0.1,0L52.1,25.3z M51.9,27.2l0.1,0l0,0.2l-0.1,0L51.9,27.2z M51.9,26.8l0.1,0l0,0.2l-0.1,0L51.9,26.8z M52,26.4l0.1,0
			l0,0.2l-0.1,0L52,26.4z M51.8,28.4l0,0.2l-0.1,0l0-0.2L51.8,28.4z M51.9,28l0,0.2l-0.1,0l0-0.2L51.9,28z M51.8,27.6l0.1,0l0,0.2
			l-0.1,0L51.8,27.6z M51.6,29.5l0,0.2l-0.1,0l0-0.2L51.6,29.5z M51.7,29.1l0,0.2l-0.1,0l0-0.2L51.7,29.1z M51.8,28.8l0,0.2l-0.1,0
			l0-0.2L51.8,28.8z M51.3,30.6l0.1,0l0,0.2l-0.1,0L51.3,30.6z M51.4,30.3l0.1,0l0,0.2l-0.1,0L51.4,30.3z M51.6,29.9l0,0.2l-0.1,0
			l0-0.2L51.6,29.9z M51.2,32l-0.1,0l0-0.2l0.1,0L51.2,32z M51.2,31.6l0-0.2l0.1,0l0,0.2L51.2,31.6z M51.2,31.2l0-0.2l0.1,0l0,0.2
			L51.2,31.2z M51.1,33.2l-0.1,0l0-0.2l0.1,0L51.1,33.2z M51.1,32.8l-0.1,0l0-0.2l0.1,0L51.1,32.8z M51.2,32.4l-0.1,0l0-0.2l0.1,0
			L51.2,32.4z M51,34.1l0,0.2h-0.1l0-0.2H51z M51,33.7l0,0.2h-0.1l0-0.2L51,33.7z M50.9,33.3l0.1,0c0,0.1,0,0.1,0,0.2l-0.1,0
			C50.9,33.5,50.9,33.4,50.9,33.3L50.9,33.3z M50.8,35.3H51v0.2h-0.1V35.3z M51,34.9v0.2h-0.1v-0.2H51z M51,34.5v0.2h-0.1v-0.2H51z
			 M50.8,36.4H51v0.2h-0.1V36.4z M50.8,36H51v0.2h-0.1V36z M51,35.9h-0.1v-0.2H51V35.9z M50.8,37.8v-0.2H51v0.2H50.8z M50.8,37.4
			v-0.2H51v0.2L50.8,37.4L50.8,37.4z M50.8,37v-0.2H51V37L50.8,37z M50.8,38.7H51l0,0.2h-0.1L50.8,38.7z M51,38.4c0,0.1,0,0.2,0,0.2
			h-0.1c0,0,0-0.1,0-0.1v0h-0.2v-0.1h0.2l0,0L51,38.4z M50.8,38.2V38H51v0.2H50.8z M50.8,39.9h0.1l0,0.2h-0.1L50.8,39.9z M50.8,39.5
			h0.1l0,0.2h-0.1L50.8,39.5z M50.8,39.1H51l0,0.2h-0.1L50.8,39.1z M50.8,41.1h0.1l0,0.2h-0.1L50.8,41.1z M50.8,40.7h0.1l0,0.2h-0.1
			L50.8,40.7z M50.8,40.3h0.1l0,0.2h-0.1L50.8,40.3z M49.8,40.4h-0.1l0-0.2l0.1,0L49.8,40.4z M49.8,40.8l-0.1,0l0-0.2l0.1,0
			L49.8,40.8z M49.8,41.2h-0.1l0-0.2h0.1L49.8,41.2z M49.8,39.2l0-0.2l0.1,0l0,0.2L49.8,39.2z M49.9,39.6l-0.1,0l0-0.2l0.1,0
			L49.9,39.6z M49.9,40h-0.1l0-0.2h0.1L49.9,40z M49.8,38.1v-0.2h0.1v0.2H49.8z M49.8,38.5c0-0.1,0-0.1,0-0.2h0.1c0,0.1,0,0.1,0,0.2
			H49.8z M49.8,38.8l0-0.2h0.1l0,0.2H49.8z M49.8,36.9v-0.2v-0.1l0,0H50v0.2L49.8,36.9L49.8,36.9z M49.8,37.3v-0.2H50l0,0.2
			L49.8,37.3L49.8,37.3z M49.8,37.7l0-0.2H50l0,0.2H49.8z M49.9,35.8L49.9,35.8l0-0.2h0H50L49.9,35.8L49.9,35.8z M49.9,36.2
			L49.9,36.2V36h0H50l0,0.2H49.9z M49.9,36.5L49.9,36.5l0-0.2h0H50l0,0.2H49.9z M50,34.6L50,34.6h-0.1l0-0.2h0H50V34.6z M50,35
			L50,35h-0.1l0-0.2h0H50L50,35z M49.9,35.4L49.9,35.4l0-0.2h0H50L49.9,35.4L49.9,35.4z M50.1,33.5L50.1,33.5H50l0-0.2h0.1h0.1
			L50.1,33.5z M50,33.9l0-0.2h0h0.1l0,0.2H50L50,33.9z M50.1,34.2L50.1,34.2H50l0-0.2h0h0.1L50.1,34.2z M50.2,32.3L50.2,32.3l-0.1,0
			l0-0.2h0l0.1,0L50.2,32.3z M50.2,32.7L50.2,32.7l-0.1,0l0-0.2h0l0.1,0L50.2,32.7z M50.1,33.1L50.1,33.1l-0.1,0c0-0.1,0-0.1,0-0.2
			h0l0.1,0C50.2,33,50.1,33,50.1,33.1L50.1,33.1z M50.4,31.2L50.4,31.2l-0.1,0l0-0.2h0l0.1,0L50.4,31.2z M50.3,31.6L50.3,31.6
			l-0.1,0l0-0.2h0l0.1,0L50.3,31.6z M50.3,32L50.3,32l-0.1,0l0-0.2h0l0.1,0L50.3,32z M50.5,30.1L50.5,30.1l-0.1,0l0-0.2l0.1,0l0.1,0
			L50.5,30.1z M50.4,30.5L50.4,30.5l0-0.2l0,0l0.1,0L50.4,30.5L50.4,30.5z M50.3,30.8L50.3,30.8l0-0.2l0,0l0.1,0L50.3,30.8
			L50.3,30.8z M50.7,28.9L50.7,28.9l-0.1,0l0-0.2l0.1,0l0,0L50.7,28.9z M50.6,29.3L50.6,29.3l-0.1,0l0-0.2l0.1,0l0.1,0L50.6,29.3z
			 M50.6,29.7L50.6,29.7l-0.1,0l0-0.2l0.1,0l0.1,0L50.6,29.7z M50.9,27.8L50.9,27.8l-0.1,0l0-0.2l0.1,0l0,0L50.9,27.8z M50.8,28.2
			L50.8,28.2l-0.1,0l0-0.2l0.1,0l0,0L50.8,28.2z M50.8,28.6L50.8,28.6l-0.1,0l0-0.2l0.1,0l0,0L50.8,28.6z M51,26.7L51,26.7l-0.1,0
			l0-0.2l0.1,0v0L51,26.7z M51,27L51,27l-0.1,0c0-0.1,0-0.1,0-0.2l0.1,0h0C51,26.9,51,27,51,27L51,27z M50.9,27.4L50.9,27.4l-0.1,0
			l0-0.2l0.1,0h0L50.9,27.4z M51.2,25.5l-0.1,0l0-0.2l0.1,0L51.2,25.5z M51.1,25.9l-0.1,0l0-0.2l0.1,0L51.1,25.9z M51,26l0.1,0
			l0,0.2l-0.1,0L51,26z M51.2,24.1l0.1,0l0,0.2l-0.1,0L51.2,24.1z M51.2,24.8l-0.1,0l0-0.2l0.1,0L51.2,24.8z M51.2,25.1l-0.1,0
			l0-0.2l0.1,0L51.2,25.1z M51.3,23l0.1,0l0,0.2l-0.1,0L51.3,23z M51.4,23.6l-0.1,0l0-0.2l0.1,0L51.4,23.6z M51.3,24l-0.1,0l0-0.2
			l0.1,0L51.3,24z M50.8,41.4h0.1v0.1h-0.1V41.4z M50.7,41.6h0.1v0.1h0h0l0,0l0,0l0,0L50.7,41.6L50.7,41.6L50.7,41.6L50.7,41.6
			L50.7,41.6L50.7,41.6z M50.7,41.8L50.7,41.8L50.7,41.8L50.5,42l-0.1-0.1l0.1-0.1v0l0.1-0.1L50.7,41.8z M50.3,41.9l0.1,0.1
			l-0.1,0.1v0l0,0l0,0l0,0l0,0l0,0L50.1,42L50.3,41.9L50.3,41.9L50.3,41.9L50.3,41.9L50.3,41.9L50.3,41.9L50.3,41.9L50.3,41.9z
			 M50,41.9l-0.1-0.1l0.1-0.1L50,41.9L50,41.9z M49.9,41.6L49.9,41.6l-0.2,0L49.9,41.6L49.9,41.6z M49.8,41.5L49.8,41.5l-0.2,0l0,0
			l0,0v0v0L49.8,41.5L49.8,41.5L49.8,41.5L49.8,41.5L49.8,41.5L49.8,41.5z M49.8,41.4l-0.1,0v-0.1L49.8,41.4L49.8,41.4z M50.2,38.5
			H50v-0.1h0.2V38.5z M50.3,38.5v-0.1h0.2v0.1H50.3z"/>
	</g>
</g>
<g class="st1">
	<path d="M22.7,101.4l2.5-7.8h1.6l2.5,7.8h-1.5l-0.6-2.1h-2.6l-0.6,2.1H22.7z M25.3,97.2l-0.3,1h2l-0.3-1c-0.1-0.4-0.2-0.8-0.3-1.3
		c-0.1-0.4-0.2-0.9-0.3-1.3h0c-0.1,0.4-0.2,0.9-0.3,1.3C25.5,96.4,25.4,96.8,25.3,97.2z"/>
	<path d="M33.9,101.5c-0.5,0-0.9-0.1-1.4-0.3c-0.4-0.2-0.8-0.4-1.1-0.8c-0.3-0.3-0.6-0.8-0.8-1.3s-0.3-1.1-0.3-1.7
		c0-0.6,0.1-1.2,0.3-1.7s0.4-0.9,0.8-1.3c0.3-0.4,0.7-0.6,1.1-0.8c0.4-0.2,0.9-0.3,1.4-0.3c0.5,0,0.9,0.1,1.3,0.3
		c0.4,0.2,0.7,0.4,0.9,0.7l-0.8,0.9c-0.2-0.2-0.4-0.3-0.7-0.5c-0.2-0.1-0.5-0.2-0.8-0.2c-0.3,0-0.6,0.1-0.9,0.2
		c-0.3,0.1-0.5,0.3-0.7,0.6c-0.2,0.2-0.3,0.5-0.4,0.9c-0.1,0.4-0.2,0.7-0.2,1.2c0,0.4,0.1,0.8,0.2,1.2c0.1,0.4,0.3,0.7,0.4,0.9
		c0.2,0.2,0.4,0.4,0.7,0.6c0.3,0.1,0.6,0.2,0.9,0.2c0.3,0,0.6-0.1,0.9-0.2c0.3-0.1,0.5-0.3,0.7-0.6l0.8,0.9
		c-0.3,0.4-0.7,0.7-1.1,0.8C34.9,101.4,34.4,101.5,33.9,101.5z"/>
	<path d="M41.1,101.5c-0.5,0-0.9-0.1-1.4-0.3c-0.4-0.2-0.8-0.4-1.1-0.8c-0.3-0.3-0.6-0.8-0.8-1.3s-0.3-1.1-0.3-1.7
		c0-0.6,0.1-1.2,0.3-1.7s0.4-0.9,0.8-1.3c0.3-0.4,0.7-0.6,1.1-0.8c0.4-0.2,0.9-0.3,1.4-0.3c0.5,0,0.9,0.1,1.3,0.3
		c0.4,0.2,0.7,0.4,0.9,0.7l-0.8,0.9c-0.2-0.2-0.4-0.3-0.7-0.5c-0.2-0.1-0.5-0.2-0.8-0.2c-0.3,0-0.6,0.1-0.9,0.2
		c-0.3,0.1-0.5,0.3-0.7,0.6c-0.2,0.2-0.3,0.5-0.4,0.9C39.1,96.6,39,97,39,97.4c0,0.4,0.1,0.8,0.2,1.2c0.1,0.4,0.3,0.7,0.4,0.9
		c0.2,0.2,0.4,0.4,0.7,0.6c0.3,0.1,0.6,0.2,0.9,0.2c0.3,0,0.6-0.1,0.9-0.2c0.3-0.1,0.5-0.3,0.7-0.6l0.8,0.9
		c-0.3,0.4-0.7,0.7-1.1,0.8C42.1,101.4,41.6,101.5,41.1,101.5z"/>
	<path d="M45.3,101.4v-7.8h5v1.2h-3.6v2h3.1v1.2h-3.1v2.3h3.8v1.2H45.3z"/>
	<path d="M54.9,101.5c-0.6,0-1.1-0.1-1.6-0.3c-0.5-0.2-1-0.5-1.3-0.9l0.8-0.9c0.3,0.3,0.6,0.5,1,0.6c0.4,0.2,0.8,0.2,1.2,0.2
		c0.5,0,0.8-0.1,1-0.3c0.2-0.2,0.4-0.4,0.4-0.7c0-0.2,0-0.3-0.1-0.4c-0.1-0.1-0.2-0.2-0.3-0.3c-0.1-0.1-0.3-0.2-0.4-0.2
		c-0.2-0.1-0.3-0.1-0.5-0.2L54,97.7c-0.2-0.1-0.4-0.2-0.6-0.3c-0.2-0.1-0.4-0.3-0.5-0.4c-0.2-0.2-0.3-0.4-0.4-0.6
		c-0.1-0.2-0.1-0.5-0.1-0.8c0-0.3,0.1-0.6,0.2-0.9c0.1-0.3,0.3-0.5,0.6-0.7c0.2-0.2,0.5-0.4,0.9-0.5c0.3-0.1,0.7-0.2,1.1-0.2
		c0.5,0,0.9,0.1,1.4,0.3c0.4,0.2,0.8,0.4,1.1,0.7l-0.7,0.9c-0.3-0.2-0.5-0.4-0.8-0.5c-0.3-0.1-0.6-0.2-1-0.2c-0.4,0-0.7,0.1-0.9,0.2
		s-0.3,0.4-0.3,0.7c0,0.2,0,0.3,0.1,0.4c0.1,0.1,0.2,0.2,0.3,0.3s0.3,0.2,0.4,0.2c0.2,0.1,0.3,0.1,0.5,0.2l1,0.4
		c0.2,0.1,0.5,0.2,0.7,0.3s0.4,0.3,0.5,0.4s0.3,0.4,0.4,0.6c0.1,0.2,0.1,0.5,0.1,0.8c0,0.3-0.1,0.6-0.2,0.9
		c-0.1,0.3-0.3,0.5-0.6,0.7s-0.6,0.4-0.9,0.5C55.7,101.5,55.3,101.5,54.9,101.5z"/>
	<path d="M62.1,101.5c-0.5,0-0.9-0.1-1.3-0.3c-0.4-0.2-0.7-0.4-1-0.8s-0.5-0.8-0.6-1.3C59,98.6,59,98.1,59,97.4
		c0-0.6,0.1-1.2,0.2-1.7c0.2-0.5,0.4-0.9,0.6-1.3c0.3-0.3,0.6-0.6,1-0.8c0.4-0.2,0.8-0.3,1.3-0.3s0.9,0.1,1.3,0.3
		c0.4,0.2,0.7,0.4,1,0.8c0.3,0.3,0.5,0.8,0.6,1.3s0.2,1.1,0.2,1.7c0,0.7-0.1,1.2-0.2,1.8s-0.4,0.9-0.6,1.3s-0.6,0.6-1,0.8
		S62.5,101.5,62.1,101.5z M62.1,100.3c0.5,0,0.9-0.2,1.2-0.8c0.3-0.5,0.4-1.2,0.4-2.1c0-0.9-0.1-1.6-0.4-2.1
		c-0.3-0.5-0.7-0.7-1.2-0.7s-0.9,0.2-1.2,0.7s-0.5,1.2-0.5,2.1c0,0.9,0.2,1.6,0.5,2.1S61.5,100.3,62.1,100.3z"/>
	<path d="M66.7,101.4v-7.8h2.6c0.4,0,0.8,0,1.1,0.1s0.7,0.2,0.9,0.4s0.5,0.4,0.6,0.7c0.1,0.3,0.2,0.7,0.2,1.1c0,0.6-0.1,1.1-0.4,1.5
		c-0.3,0.4-0.7,0.6-1.1,0.8l1.9,3.3h-1.6l-1.7-3.1H68v3.1H66.7z M68,97.2h1.1c0.5,0,1-0.1,1.2-0.3c0.3-0.2,0.4-0.6,0.4-1
		c0-0.5-0.1-0.8-0.4-0.9s-0.7-0.3-1.2-0.3H68V97.2z"/>
	<path d="M73.9,101.4v-1.2h1.9v-5.5h-1.9v-1.2H79v1.2h-1.9v5.5H79v1.2H73.9z"/>
	<path d="M83.7,101.5c-0.5,0-0.9-0.1-1.3-0.3c-0.4-0.2-0.7-0.4-1-0.8c-0.3-0.3-0.5-0.8-0.6-1.3s-0.2-1.1-0.2-1.8
		c0-0.6,0.1-1.2,0.2-1.7s0.4-0.9,0.6-1.3c0.3-0.3,0.6-0.6,1-0.8c0.4-0.2,0.8-0.3,1.3-0.3s0.9,0.1,1.3,0.3c0.4,0.2,0.7,0.4,1,0.8
		c0.3,0.3,0.5,0.8,0.6,1.3s0.2,1.1,0.2,1.7c0,0.7-0.1,1.2-0.2,1.8s-0.4,0.9-0.6,1.3s-0.6,0.6-1,0.8S84.1,101.5,83.7,101.5z
		 M83.7,100.3c0.5,0,0.9-0.2,1.2-0.8c0.3-0.5,0.4-1.2,0.4-2.1c0-0.9-0.1-1.6-0.4-2.1c-0.3-0.5-0.7-0.7-1.2-0.7s-0.9,0.2-1.2,0.7
		S82,96.5,82,97.4c0,0.9,0.2,1.6,0.5,2.1S83.1,100.3,83.7,100.3z"/>
	<path d="M90.9,101.5c-0.6,0-1.1-0.1-1.6-0.3c-0.5-0.2-1-0.5-1.3-0.9l0.8-0.9c0.3,0.3,0.6,0.5,1,0.6c0.4,0.2,0.8,0.2,1.2,0.2
		c0.5,0,0.8-0.1,1-0.3s0.4-0.4,0.4-0.7c0-0.2,0-0.3-0.1-0.4s-0.2-0.2-0.3-0.3c-0.1-0.1-0.3-0.2-0.4-0.2c-0.2-0.1-0.3-0.1-0.5-0.2
		L90,97.7c-0.2-0.1-0.4-0.2-0.6-0.3c-0.2-0.1-0.4-0.3-0.5-0.4c-0.2-0.2-0.3-0.4-0.4-0.6c-0.1-0.2-0.1-0.5-0.1-0.8
		c0-0.3,0.1-0.6,0.2-0.9c0.1-0.3,0.3-0.5,0.6-0.7c0.2-0.2,0.5-0.4,0.9-0.5c0.3-0.1,0.7-0.2,1.1-0.2c0.5,0,0.9,0.1,1.4,0.3
		c0.4,0.2,0.8,0.4,1.1,0.7l-0.7,0.9c-0.3-0.2-0.5-0.4-0.8-0.5c-0.3-0.1-0.6-0.2-1-0.2c-0.4,0-0.7,0.1-0.9,0.2
		c-0.2,0.2-0.3,0.4-0.3,0.7c0,0.2,0,0.3,0.1,0.4c0.1,0.1,0.2,0.2,0.3,0.3s0.3,0.2,0.4,0.2c0.2,0.1,0.3,0.1,0.5,0.2l1,0.4
		c0.2,0.1,0.5,0.2,0.7,0.3s0.4,0.3,0.5,0.4c0.2,0.2,0.3,0.4,0.4,0.6c0.1,0.2,0.1,0.5,0.1,0.8c0,0.3-0.1,0.6-0.2,0.9
		c-0.1,0.3-0.3,0.5-0.6,0.7s-0.6,0.4-0.9,0.5S91.3,101.5,90.9,101.5z"/>
</g>
</svg>
