<?xml version="1.0" encoding="utf-8"?>
<!-- Generator: Adobe Illustrator 24.3.0, SVG Export Plug-In . SVG Version: 6.00 Build 0)  -->
<svg version="1.1" id="Layer_1" xmlns="http://www.w3.org/2000/svg" xmlns:xlink="http://www.w3.org/1999/xlink" x="0px" y="0px"
	 viewBox="0 0 120 100" style="enable-background:new 0 0 120 100;" xml:space="preserve">
<style type="text/css">
	.st0{fill:#050505;}
	.st1{fill:#050606;}
	.st2{enable-background:new    ;}
</style>
<g>
	<g id="_Group_">
		<path class="st0" d="M39.2,55c-5,0-15.7-0.3-18.4-0.4c-0.5,0-4,0.3-4.3-1.8c-0.2-1.3-0.2-2.7-0.2-4c0-0.2,0.1-0.4,0.3-0.5l0.5-0.2
			c-1-0.8-1.6-1.9-1.7-3.1c-0.4-0.2-0.7-0.5-0.9-0.9c-0.3-0.6-0.2-1.3,0.1-2c0.4-3.2,1.2-6.4,2.3-9.5c-0.3-1.2-0.3-2.5,0.1-3.6
			c0.2-0.4,0.5-0.9,0.8-1.3c0.3-0.5,0.6-1.1,0.9-1.5c0.5-0.5,1-0.7,2.9-0.1l0.7,0.2c15.6,4.7,23.4,6.1,27.2,6.4c0,0,0,0,0.1,0
			c1.5,0.3,5.4,0.8,6.5-0.7c0.6-1.1,1.4-2.1,2.4-2.9l0.2-0.2c1.8-1.5,3.5-2.8,3.9-3.1c0,0,0.1-0.1,0.2-0.1c0.6-0.6,1.5-0.9,2.3-0.8
			c1,0.2,1.9,0.9,2.5,1.8c2.5-0.1,4.8,1.3,5.9,3.5c0.8,0.5,1.4,1.4,1.4,2.4c0.4,0.7,1,1.2,1.7,1.7c3.1,1.9,6.4,3.4,9.8,4.6
			c3.3,0.2,6.7,0.2,10-0.1c0.4-0.1,4.8-0.8,6.8,0.6c0.5,0.4,0.9,0.9,1,1.5c1.4,1.8,1.6,4.3,0.5,6.3c0.7,0.2,1.1,0.9,1,1.6
			c-0.1,1.1-0.3,2.4-0.3,2.5c0,0.2-0.1,0.3-0.3,0.4c-6.3,2.1-12.9,3.1-19.5,3c-0.7,0-25.4,1.2-38.3-1.4c-0.7,0.2-4.5,1.4-5.5,1.7
			C41,55,40.1,55.1,39.2,55z M20.8,53.6L20.8,53.6c7.9,0.3,19.9,0.6,20.7,0.4c1.1-0.3,5.5-1.7,5.6-1.7c0.1,0,0.2,0,0.2,0
			c12.8,2.6,37.9,1.4,38.2,1.4h0c6.4,0,12.8-0.9,18.8-2.8c0.1-0.5,0.2-1.3,0.2-2.1c0.1-0.6-0.8-0.7-0.9-0.8c-0.3,0-0.5-0.3-0.4-0.6
			c0-0.1,0-0.2,0.1-0.2c1.3-1.7,1.3-4.1-0.1-5.7c-0.1-0.1-0.1-0.2-0.1-0.3c-0.1-0.4-0.3-0.8-0.6-1c-1.4-1-4.9-0.7-6.1-0.4h0
			c-3.4,0.3-6.8,0.3-10.2,0.1l-0.1,0c-3.6-1.2-7-2.8-10.2-4.7c-0.8-0.5-1.6-1.3-2.1-2.1c-0.1-0.1-0.1-0.2-0.1-0.3
			c0-0.7-0.4-1.4-1-1.7c-0.1,0-0.2-0.1-0.2-0.3c-1-2-3-3.2-5.2-3c-0.2,0-0.3-0.1-0.4-0.2c-0.4-0.8-1.1-1.4-2-1.6
			c-0.6,0-1.1,0.2-1.5,0.6c-0.1,0.1-0.2,0.1-0.2,0.2c-0.4,0.3-2.2,1.7-3.8,3L59.1,30c-0.9,0.7-1.6,1.6-2.1,2.6c0,0,0,0,0,0.1
			c-0.7,1.1-2.2,1.5-4.5,1.5c-1,0-2-0.2-3-0.3C45.5,33.5,37.6,32,22,27.4c-0.3-0.1-0.6-0.2-0.7-0.2c-1.6-0.5-1.7-0.3-1.9-0.1
			c-0.3,0.4-0.5,0.9-0.8,1.3c-0.3,0.5-0.5,1-0.8,1.4c-0.2,1-0.2,2,0.1,3c0,0.1,0,0.2,0,0.3c-1.1,3-1.8,6.2-2.3,9.4c0,0,0,0.1,0,0.1
			c-0.2,0.3-0.2,0.8-0.1,1.2c0.1,0.2,0.4,0.4,0.6,0.5c0.2,0,0.4,0.2,0.4,0.4c0,1.4,0.8,2.7,2.2,3.1c0.3,0.1,0.4,0.3,0.4,0.6
			c0,0.2-0.2,0.3-0.3,0.4l-1.3,0.5c0,1.2,0,2.3,0.2,3.5C17.7,53.6,19.8,53.7,20.8,53.6L20.8,53.6z"/>
	</g>
	<g id="_Group_2">
		<path class="st0" d="M69.5,43.4c-7.3-0.5-14.6-1.5-21.7-3.1c-3.1-0.9-29.6-7.1-29.8-7.2c-0.2,0-0.3-0.2-0.2-0.4s0.2-0.3,0.4-0.2
			c0.3,0.1,26.8,6.3,29.9,7.2c7.2,1.5,14.5,2.5,21.8,3c3.3-0.1,4.4-1.6,4.8-2.4c0.1-0.2,0.3-0.2,0.4-0.2s0.2,0.3,0.2,0.4l0,0
			c-0.4,1-1.7,2.7-5.4,2.8L69.5,43.4z"/>
	</g>
	<g id="_Group_3">
		<path class="st0" d="M95.5,41.3c-1.6,0-3.7,0-6.2-0.1c-2.6-0.1-13-1.8-13.1-1.8c-0.1,0-0.2-0.1-0.2-0.2s0.1-0.2,0.2-0.2
			c0,0,0,0,0,0c0.1,0,10.4,1.7,13.1,1.8c10.7,0.4,12.1-0.2,12.2-0.5c0-0.1,0-0.2,0-0.3c-0.3-0.4-1.6-0.7-2.4-0.7
			c-0.1,0-0.2-0.1-0.2-0.2S99,39,99.1,39c0.2,0,2.2,0.2,2.7,0.9c0.1,0.2,0.1,0.4,0,0.6C101.6,40.9,100.7,41.3,95.5,41.3z"/>
	</g>
	<g id="_Group_4">
		<path class="st0" d="M76.9,51.1c-7.1,0-13.1-0.2-14.6-0.3C59.7,50.7,44,49,42.9,48.9c-1.1-0.2-23.6-0.1-23.8-0.1l0,0
			c-0.1,0-0.2-0.1-0.2-0.2s0.1-0.2,0.1-0.2c0,0,0,0,0,0c0.9,0,22.8-0.1,23.9,0.1c1.1,0.2,16.8,1.8,19.4,1.9
			c3.7,0.1,36.2,1.3,41.1-2.4c0.1-0.1,0.2,0,0.2,0l0,0c0.1,0.1,0,0.2,0,0.2C100.6,50.6,87.6,51.1,76.9,51.1z"/>
	</g>
	<g id="_Group_5">
		<path class="st0" d="M75.6,52.3c-5.9,0-11.5-0.1-14.2-0.3c-4.9-0.3-17.4-1.7-19.2-1.9c-1.3-0.2-7.4-0.1-11.9,0c-2.4,0-4.2,0-4.6,0
			c-1.1-0.1-8.2,0-8.3,0l0,0c-0.1,0-0.2-0.1-0.1-0.2c0-0.1,0.1-0.1,0.1-0.2c0.3,0,7.2,0,8.3,0c0.4,0,2.2,0,4.6,0
			c4.5-0.1,10.7-0.1,12,0c1.8,0.2,14.3,1.6,19.2,1.9c4.9,0.3,20.2,0.4,27.9,0c0.1,0,11.1-0.5,14.8-2.3c0.1,0,0.2,0,0.2,0.1
			s0,0.2-0.1,0.2c-3.8,1.8-14.5,2.3-14.9,2.3C85.9,52.2,80.7,52.3,75.6,52.3z"/>
	</g>
	<g id="_Group_6">
		<path class="st0" d="M76.2,38.4c-0.1,0-0.2-0.1-0.2-0.2c0,0,0-0.1,0-0.1c0.4-0.9,0.4-1.9,0-2.8c0-0.1,0-0.2,0.1-0.2
			c0.1,0,0.2,0,0.2,0.1l0,0c0.5,1,0.5,2.1,0,3.1C76.3,38.3,76.3,38.4,76.2,38.4z"/>
	</g>
	<g id="_Group_7">
		<path class="st0" d="M37.3,33.8c-0.2,0-0.3,0-0.5-0.1h0l-4.9-1.3c-0.1,0-6.5-1.7-7.4-1.9h0c0,0-0.8-0.3-0.7-1
			c0-0.4,0.4-0.8,0.9-0.7l0,0c0,0,0.1,0,0.1,0c0.4,0.1,0.8,0.2,1.2,0.3l10.3,2.5c0.4,0,1.8,0.2,2,0.6c0,0,0,0,0,0
			c0.1,0.4,0,0.8-0.2,1.1C37.9,33.7,37.6,33.8,37.3,33.8z M36.8,33.4c0.5,0.1,0.9,0,1-0.1C38,33,38,32.8,38,32.5
			c-0.5-0.3-1.2-0.4-1.8-0.4h0l-10.4-2.6c0,0-0.9-0.3-1.2-0.3c-0.2-0.1-0.5,0.1-0.6,0.3c0,0,0,0.1,0,0.1c-0.1,0.3,0.4,0.5,0.5,0.6
			c1,0.2,7.3,1.9,7.4,1.9L36.8,33.4z"/>
	</g>
	<g id="_Group_8">
		<path class="st0" d="M65.7,39c-0.1,0-0.2,0-0.3-0.1c-0.1,0-0.1-0.1-0.1-0.1l-0.8-1c-2.5-0.6-4.9-0.9-7.4-1.1
			c-4.7-0.4-7.9-0.6-8.2-0.7l-1.4,0.2c0,0-0.1,0-0.1,0c-0.1,0-0.9-0.5-0.9-1.1c0-0.3,0.2-0.5,0.5-0.7c0,0,0,0,0.1,0
			c1.8-0.2,3.7-0.2,5.5,0c1.2,0.2,3.6,0.4,6,0.7c2.7,0.3,5.2,0.6,5.6,0.7c1,0.2,1.8,0.8,2.5,1.5c0.1,0.1,0.2,0.3,0.3,0.4
			c0.2,0.2,0.3,0.5,0.3,0.7c-0.1,0.2-0.2,0.3-0.6,0.4C66.2,38.9,65.9,39,65.7,39z M65.5,38.6c0,0,0.2,0.1,0.8-0.1
			c0.3-0.1,0.4-0.2,0.4-0.2c0-0.1-0.1-0.2-0.2-0.4c-0.1-0.1-0.2-0.3-0.3-0.4c-0.6-0.7-1.4-1.2-2.2-1.4c-0.4-0.1-2.9-0.3-5.6-0.7
			c-2.4-0.3-4.9-0.5-6-0.7c-1.8-0.2-3.6-0.2-5.4,0c-0.2,0.1-0.3,0.2-0.3,0.3c0,0.3,0.5,0.6,0.7,0.8l1.4-0.2c0,0,0,0,0,0
			c0,0,3.3,0.3,8.2,0.7c2.5,0.2,5.1,0.5,7.6,1.1c0,0,0.1,0,0.1,0.1L65.5,38.6L65.5,38.6z"/>
	</g>
	<g id="_Group_9">
		<path class="st0" d="M18.5,46.8c-0.2,0-0.4-0.2-0.4-0.4l0,0v-0.6c0-0.2,0.2-0.4,0.4-0.4c0.2,0,0.4,0.2,0.4,0.4v0.6
			C18.9,46.6,18.7,46.8,18.5,46.8L18.5,46.8z M17.9,45.1c-0.2,0-0.4-0.1-0.4-0.3c0-0.2-0.1-0.5-0.1-0.7c0-0.2,0-0.5,0-0.8
			c0-0.2,0.2-0.4,0.5-0.3c0.2,0,0.4,0.2,0.4,0.5l0,0c0,0.2,0,0.4,0,0.6c0,0.2,0,0.4,0,0.6C18.3,44.9,18.2,45.1,17.9,45.1
			C17.9,45.1,17.9,45.1,17.9,45.1L17.9,45.1z M16.6,43.4c0,0-0.1,0-0.1,0c-0.4-0.2-0.9-0.3-1.3-0.5c-0.2-0.1-0.3-0.3-0.2-0.6
			s0.4-0.3,0.6-0.2l0,0c0.4,0.2,0.8,0.3,1.2,0.5c0.2,0.1,0.3,0.3,0.2,0.5C17,43.3,16.8,43.4,16.6,43.4L16.6,43.4z"/>
	</g>
	<g id="_Group_10">
		<path class="st0" d="M94.5,42.7L94.5,42.7c-0.5,0-0.9,0-1.3,0c-0.2,0-0.3-0.2-0.3-0.3s0.2-0.3,0.3-0.3l0,0c0.4,0,0.8,0,1.3,0
			c0.2,0,0.3,0.2,0.3,0.4C94.8,42.6,94.6,42.7,94.5,42.7L94.5,42.7L94.5,42.7z M95.8,42.7c-0.2,0-0.3-0.2-0.3-0.3s0.2-0.3,0.3-0.3
			c0.5,0,0.9,0,1.3,0c0.2,0,0.3,0.1,0.3,0.3c0,0.2-0.1,0.3-0.3,0.3l0,0C96.7,42.7,96.3,42.7,95.8,42.7L95.8,42.7L95.8,42.7z
			 M91.8,42.7L91.8,42.7h-0.4c-0.2,0-0.5,0-0.9-0.1c-0.2,0-0.3-0.2-0.3-0.4s0.2-0.3,0.4-0.3c0.4,0,0.7,0.1,0.9,0.1
			c0.1,0,0.2,0,0.4,0c0.2,0,0.3,0.2,0.3,0.3S92,42.7,91.8,42.7C91.8,42.7,91.8,42.7,91.8,42.7z M98.5,42.6c-0.2,0-0.3-0.1-0.3-0.3
			c0-0.2,0.1-0.3,0.3-0.3c0.5,0,0.9-0.1,1.3-0.1c0.2,0,0.3,0.1,0.4,0.3s-0.1,0.3-0.3,0.4l0,0C99.4,42.5,98.9,42.5,98.5,42.6
			L98.5,42.6z M89.1,42.5L89.1,42.5c-0.4,0-0.9-0.1-1.4-0.1c-0.2,0-0.3-0.2-0.3-0.4c0-0.2,0.2-0.3,0.4-0.3l0,0
			c0.5,0,0.9,0.1,1.3,0.1c0.2,0,0.3,0.2,0.3,0.4C89.4,42.3,89.3,42.5,89.1,42.5L89.1,42.5z M101.1,42.2c-0.2,0-0.3-0.2-0.3-0.3
			c0-0.2,0.1-0.3,0.3-0.3c0.4-0.1,0.8-0.2,1.2-0.3c0.2-0.1,0.4,0,0.4,0.2c0.1,0.2,0,0.4-0.2,0.4l0,0C102.1,42,101.6,42.1,101.1,42.2
			C101.2,42.2,101.1,42.2,101.1,42.2L101.1,42.2z M86.5,42.2L86.5,42.2L85.1,42c-0.2,0-0.3-0.2-0.3-0.4s0.2-0.3,0.4-0.3l1.3,0.2
			c0.2,0,0.3,0.2,0.3,0.4C86.8,42.1,86.6,42.2,86.5,42.2L86.5,42.2z M83.8,41.9L83.8,41.9l-1.4-0.2c-0.2,0-0.3-0.2-0.3-0.4
			s0.2-0.3,0.4-0.3l1.3,0.2c0.2,0,0.3,0.2,0.3,0.4C84.1,41.8,84,41.9,83.8,41.9L83.8,41.9z M81.2,41.5
			C81.1,41.5,81.1,41.5,81.2,41.5l-1.4-0.2c-0.2,0-0.3-0.2-0.2-0.4c0-0.2,0.2-0.3,0.4-0.2l1.3,0.2c0.2,0,0.3,0.2,0.3,0.4
			C81.4,41.4,81.3,41.5,81.2,41.5L81.2,41.5z M78.5,41.1C78.5,41.1,78.5,41.1,78.5,41.1c-0.5-0.1-1-0.2-1.4-0.3
			c-0.2,0-0.3-0.2-0.3-0.4s0.2-0.3,0.4-0.3c0.4,0.1,0.8,0.2,1.3,0.2c0.2,0,0.3,0.2,0.3,0.4C78.8,41,78.7,41.1,78.5,41.1L78.5,41.1z
			 M75.9,40.5c0,0-0.1,0-0.1,0c-0.1,0-0.1,0-0.2-0.1c-0.3-0.2-0.7-0.3-1.1-0.5c-0.2-0.1-0.2-0.3-0.2-0.4c0.1-0.2,0.3-0.2,0.4-0.2
			c0.4,0.2,0.8,0.3,1.2,0.5c0.2,0.1,0.2,0.3,0.2,0.5C76.1,40.4,76,40.5,75.9,40.5L75.9,40.5z M73.5,39.5c-0.2,0-0.3-0.2-0.3-0.3
			c0,0,0-0.1,0-0.1l0.5-1.2c0.1-0.2,0.3-0.2,0.4-0.2s0.2,0.3,0.2,0.4l-0.5,1.2C73.8,39.4,73.6,39.5,73.5,39.5L73.5,39.5z M75.9,39.1
			c-0.1,0-0.2,0-0.2-0.1l-1-0.8c-0.2-0.1-0.2-0.3-0.1-0.5c0.1-0.2,0.3-0.2,0.5-0.1l0,0l1,0.8c0.1,0.1,0.2,0.3,0.1,0.5
			C76.1,39.1,76,39.1,75.9,39.1L75.9,39.1z"/>
	</g>
	<g id="_Group_11">
		<path class="st0" d="M24.1,31.5c-0.4,0-0.8-0.2-1.1-0.5c0,0,0,0,0-0.1c-0.3-0.7-0.2-1.6,0.3-2.2c0.3-0.4,0.8-0.7,1.3-0.7
			c0.5,0.1,0.9,0.5,1.1,0.9c0.1,0.1,0,0.3-0.1,0.3c-0.1,0.1-0.3,0-0.3-0.1c0,0,0,0,0,0l0,0c-0.1-0.2-0.3-0.6-0.7-0.6
			c-0.3,0-0.6,0.1-0.9,0.5c-0.3,0.5-0.4,1.1-0.2,1.7c0.1,0.1,0.7,0.6,1.5-0.1c0.1-0.1,0.3-0.1,0.4,0s0.1,0.3,0,0.4c0,0,0,0,0,0l0,0
			C25,31.3,24.6,31.4,24.1,31.5z"/>
	</g>
	<g id="_Group_12">
		<path class="st0" d="M47.2,37c0,0-0.1,0-0.2,0c-0.4,0-0.7-0.2-1-0.5l0,0c-0.8-1.7,0.1-2.5,0.1-2.5c0,0,0,0,0,0
			c0.5-0.3,1-0.3,1.5-0.2c0.4,0.1,0.7,0.4,0.8,0.7c0,0.1,0,0.3-0.2,0.3c-0.1,0-0.2,0-0.3-0.1l0,0c-0.1-0.2-0.3-0.4-0.5-0.5
			c-0.4-0.1-0.8,0-1.1,0.1c-0.1,0.1-0.6,0.7,0,1.8c0.2,0.2,0.4,0.3,0.6,0.3c0.3,0,0.6-0.1,0.9-0.3c0.1-0.1,0.3-0.1,0.3,0
			s0.1,0.3,0,0.3C48,36.8,47.6,36.9,47.2,37z"/>
	</g>
	<g id="_Group_13">
		<path class="st0" d="M37.6,34.7c0,0-0.1,0-0.2,0c-0.5-0.1-0.9-0.5-1.1-0.9c-0.1-0.1,0-0.3,0.1-0.3c0.1-0.1,0.3,0,0.3,0.1l0,0l0,0
			c0.1,0.2,0.3,0.6,0.7,0.6c0.3,0,0.6-0.1,0.9-0.5c0.3-0.5,0.4-1.1,0.2-1.7c-0.1-0.1-0.7-0.6-1.5,0.1c-0.1,0.1-0.3,0.1-0.3,0
			c-0.1-0.1-0.1-0.3,0-0.4c0,0,0,0,0,0l0,0c0.6-0.6,1.5-0.7,2.2-0.1c0,0,0.1,0.1,0.1,0.1c0,0,0,0,0,0.1c0.3,0.7,0.2,1.6-0.3,2.2
			C38.5,34.5,38,34.7,37.6,34.7z"/>
	</g>
	<g id="_Group_14">
		<path class="st0" d="M65.7,39.8c-0.3,0-0.6-0.1-0.9-0.3c-0.3-0.4-0.4-0.9-0.3-1.4c0-0.1,0.2-0.2,0.3-0.2s0.2,0.2,0.2,0.3l0,0
			c-0.1,0.3,0,0.7,0.2,0.9c0.3,0.2,0.7,0.2,1,0.1c0.6-0.2,1-0.7,1.1-1.3c0-0.2,0-0.4-0.1-0.5c-0.2-0.2-0.6-0.3-0.9-0.2
			c-0.1,0-0.3-0.1-0.3-0.2s0.1-0.3,0.2-0.3c0,0,0,0,0,0c0.5-0.1,0.9,0.1,1.3,0.4c0.2,0.3,0.3,0.6,0.2,1v0c-0.2,0.8-0.7,1.4-1.5,1.7
			C66.1,39.8,65.9,39.8,65.7,39.8z"/>
	</g>
	<g id="_Group_15">
		<path class="st0" d="M66.8,30.9c-0.1,0-0.2,0-0.3,0c-0.7-0.1-1.2-0.5-1.5-1.1c-0.2-0.4-0.2-0.9,0.1-1.2c0.2-0.2,0.6-0.3,0.9-0.2
			c0.1,0,0.2,0.2,0.2,0.3c0,0.1-0.2,0.2-0.3,0.2l0,0c-0.1,0-0.3,0-0.4,0.1c-0.1,0.1-0.1,0.4,0,0.7c0,0,0.2,0.5,1.1,0.8
			c0.2,0,0.4,0,0.6-0.1c0.1-0.1,0.2-0.3,0.1-0.5c0-0.1,0.1-0.3,0.2-0.3s0.3,0.1,0.3,0.2c0.1,0.5-0.2,1-0.7,1.1
			C67,30.9,66.9,30.9,66.8,30.9L66.8,30.9z"/>
	</g>
	<g id="_Group_16">
		<path class="st0" d="M72.8,30.8c0,0-0.1,0-0.1,0c-0.9-1-2.3-1.6-3.7-1.7c-0.7,0-1.3,0.3-1.8,0.8c0,0-0.1,0.1-0.1,0.1h-0.5
			c-0.7,0-0.8-0.8-0.9-0.9c0,0,0,0,0,0c0.1-0.8,0.7-1.4,1.5-1.6c0.1,0,0.2,0,0.2,0.1c0,0.1,0,0.2-0.1,0.2l0,0
			c-0.6,0.1-1.1,0.6-1.2,1.3c0,0.1,0.2,0.6,0.5,0.6H67c0.5-0.5,1.2-0.8,1.9-0.9c1.5,0,2.9,0.7,3.9,1.8c0.1,0.1,0.1,0.2,0,0.2
			C72.8,30.8,72.8,30.8,72.8,30.8L72.8,30.8z"/>
	</g>
	<g id="_Group_17">
		<path class="st0" d="M73.8,34.8c-0.1,0-0.2,0-0.3-0.1c-0.1,0-0.2-0.1-0.3-0.1c-0.2,0-0.3-0.1-0.4-0.3c-0.1-0.2,0-0.5,0.1-0.7
			c0.6-1.3-2.5-3.7-3.8-4.5c-0.1,0-0.1-0.2,0-0.2c0.1-0.1,0.1-0.1,0.2,0l0,0c0.2,0.1,4.8,3.1,3.9,5c-0.1,0.1-0.1,0.2-0.1,0.4
			c0,0,0,0.1,0.1,0.1c0.1,0,0.3,0.1,0.4,0.1c0.1,0,0.1,0,0.2,0c0,0,0,0,0.1-0.1c0.1-0.5,0.2-1,0.2-1.6c0-0.1,0.1-0.2,0.2-0.2l0,0
			c0.1,0,0.2,0.1,0.2,0.2v0l0,0c0,0.6-0.1,1.2-0.2,1.7C74.1,34.7,74,34.8,73.8,34.8z"/>
	</g>
	<g id="_Group_19">
		<path class="st0" d="M73.5,35.5C73.5,35.5,73.5,35.5,73.5,35.5c-1.3-0.3-1.5-1-1.6-1c-0.2-0.3-0.2-0.7,0-1
			c0.3-0.3,0.7-0.4,1.1-0.3c0.1,0,0.2,0.2,0.2,0.3l0,0c0,0.1-0.2,0.2-0.3,0.2l0,0c-0.2,0-0.5,0-0.6,0.1c-0.1,0.2,0,0.4,0,0.5
			c0,0,0.2,0.5,1.1,0.7c0.3,0,0.7-0.1,0.7-0.3c0.1-0.1,0-0.4-0.3-0.7c-0.1-0.1-0.1-0.3,0-0.3s0.3-0.1,0.3,0c0,0,0,0,0,0l0,0
			c0.4,0.5,0.5,0.9,0.3,1.2C74.5,35.5,73.6,35.5,73.5,35.5z"/>
	</g>
	<g id="_Group_20">
		<path class="st0" d="M69.1,42.1L69.1,42.1c-0.1,0-0.2,0-0.2-0.1s0-0.1,0.1-0.1h0.3c0.1,0,0.1,0,0.1,0.1c0,0,0,0.1-0.1,0.1l0,0
			H69.1z M68.7,42.1L68.7,42.1l-0.3,0c-0.1,0-0.1,0-0.1-0.1l0,0c0,0,0-0.1,0.1-0.1l0,0l0,0l0.3,0C68.8,42,68.8,42,68.7,42.1
			C68.8,42.1,68.8,42.1,68.7,42.1L68.7,42.1z M69.7,42.1C69.7,42.1,69.7,42.1,69.7,42.1c-0.1-0.1,0-0.2,0-0.2c0.1,0,0.2,0,0.3,0
			c0.1,0,0.1,0,0.1,0.1c0,0,0,0.1-0.1,0.1l0,0C70,42.1,69.8,42.1,69.7,42.1L69.7,42.1z M68.1,42.1L68.1,42.1l-0.3,0
			c-0.1,0-0.1,0-0.1-0.1l0,0c0,0,0-0.1,0.1-0.1l0,0l0,0l0.3,0C68.1,41.9,68.1,42,68.1,42.1C68.1,42.1,68.1,42.1,68.1,42.1L68.1,42.1
			z M67.4,42.1L67.4,42.1c-0.1,0-0.2,0-0.3,0C67,42.1,67,42,67,42c0,0,0-0.1,0.1-0.1c0.1,0,0.2,0,0.3,0C67.5,41.9,67.5,42,67.4,42.1
			C67.5,42,67.4,42.1,67.4,42.1L67.4,42.1z M70.4,42C70.3,42,70.3,42,70.4,42c-0.1-0.1-0.1-0.2,0-0.2c0.1,0,0.2,0,0.3-0.1
			c0,0,0.1,0,0.1,0.1l0,0c0,0,0,0.1-0.1,0.1C70.6,42,70.5,42,70.4,42L70.4,42z M66.7,42L66.7,42l-0.3,0c-0.1,0-0.1,0-0.1-0.1
			c0,0,0-0.1,0.1-0.1l0,0l0.3,0C66.8,41.8,66.8,41.9,66.7,42C66.8,42,66.8,42,66.7,42L66.7,42z M66.1,41.9L66.1,41.9l-0.3,0
			c-0.1,0-0.1,0-0.1-0.1l0,0c0,0,0.1-0.1,0.1-0.1l0.3,0C66.1,41.8,66.1,41.8,66.1,41.9C66.2,41.9,66.1,41.9,66.1,41.9z M71,41.9
			C71,41.9,71,41.9,71,41.9c-0.1-0.1-0.1-0.2,0-0.2c0.1,0,0.2-0.1,0.3-0.1c0,0,0.1,0,0.1,0c0,0,0,0.1-0.1,0.1l0,0l0,0
			C71.3,41.8,71.2,41.9,71,41.9L71,41.9z M65.4,41.8L65.4,41.8l-0.3,0c-0.1,0-0.1,0-0.1-0.1c0,0,0.1-0.1,0.1-0.1l0,0l0,0l0.3,0
			C65.5,41.7,65.5,41.7,65.4,41.8C65.5,41.8,65.4,41.8,65.4,41.8L65.4,41.8z M64.7,41.8L64.7,41.8l-0.3,0c-0.1,0-0.1,0-0.1-0.1l0,0
			c0,0,0.1-0.1,0.1-0.1l0.3,0C64.8,41.6,64.8,41.6,64.7,41.8C64.8,41.7,64.8,41.8,64.7,41.8L64.7,41.8z M71.7,41.7
			C71.6,41.7,71.6,41.7,71.7,41.7c-0.1-0.1-0.1-0.1,0-0.2c0.1,0,0.2-0.1,0.3-0.1c0,0,0.1,0,0.1,0c0,0,0,0.1,0,0.1
			C71.9,41.6,71.8,41.6,71.7,41.7C71.7,41.7,71.7,41.7,71.7,41.7L71.7,41.7z M64.1,41.7l-0.3,0c0,0-0.1,0-0.1-0.1l0,0l0,0
			c0,0,0-0.1,0.1-0.1l0.3,0L64.1,41.7z M63.4,41.6L63.4,41.6l-0.3,0c0,0-0.1,0-0.1-0.1s0-0.1,0.1-0.1c0,0,0,0,0,0l0.3,0
			c0,0,0.1,0,0.1,0.1S63.5,41.6,63.4,41.6L63.4,41.6z M62.8,41.5L62.8,41.5l-0.3,0c0,0-0.1,0-0.1-0.1c0,0,0-0.1,0.1-0.1c0,0,0,0,0,0
			l0,0l0.3,0C62.8,41.3,62.9,41.3,62.8,41.5L62.8,41.5C62.8,41.4,62.8,41.5,62.8,41.5L62.8,41.5z M72.3,41.4
			C72.2,41.4,72.2,41.3,72.3,41.4c-0.1-0.1-0.1-0.1,0-0.2c0.1-0.1,0.2-0.1,0.3-0.2c0,0,0.1,0,0.1,0c0,0,0,0.1,0,0.1l0,0
			C72.5,41.2,72.4,41.3,72.3,41.4C72.3,41.4,72.3,41.4,72.3,41.4z M62.1,41.4L62.1,41.4l-0.3,0c0,0-0.1,0-0.1-0.1l0,0l0,0
			c0,0,0-0.1,0.1-0.1l0,0l0.3,0C62.2,41.2,62.2,41.3,62.1,41.4C62.2,41.3,62.1,41.4,62.1,41.4L62.1,41.4z M61.4,41.3L61.4,41.3
			l-0.3,0c0,0-0.1,0-0.1-0.1l0,0l0,0c0,0,0-0.1,0.1-0.1l0.3,0C61.5,41.1,61.5,41.1,61.4,41.3L61.4,41.3
			C61.5,41.2,61.5,41.3,61.4,41.3L61.4,41.3z M60.8,41.2L60.8,41.2l-0.3,0c0,0-0.1,0-0.1-0.1l0,0c0,0,0-0.1,0.1-0.1l0,0l0,0l0.3,0
			C60.8,41,60.9,41,60.8,41.2C60.9,41.1,60.8,41.2,60.8,41.2L60.8,41.2z M60.1,41.1L60.1,41.1l-0.3,0c0,0-0.1,0-0.1-0.1l0,0l0,0
			c0,0,0-0.1,0.1-0.1l0,0l0.3,0C60.2,40.9,60.2,41,60.1,41.1L60.1,41.1C60.2,41,60.2,41.1,60.1,41.1L60.1,41.1z M72.8,41
			C72.7,41,72.7,40.9,72.8,41c-0.1-0.1-0.1-0.1-0.1-0.1c0.1-0.1,0.2-0.2,0.2-0.2c0,0,0.1,0,0.1,0l0,0c0,0,0,0.1,0,0.1
			C73,40.8,72.9,40.9,72.8,41C72.8,41,72.8,41,72.8,41L72.8,41z M59.5,41L59.5,41l-0.3,0c0,0-0.1,0-0.1-0.1c0,0,0-0.1,0.1-0.1l0.3,0
			c0,0,0.1,0,0.1,0.1S59.5,41,59.5,41z M58.8,40.9L58.8,40.9l-0.3,0c0,0-0.1,0-0.1-0.1c0,0,0-0.1,0.1-0.1l0,0l0,0l0.3,0
			C58.9,40.7,58.9,40.7,58.8,40.9L58.8,40.9C58.9,40.8,58.8,40.8,58.8,40.9L58.8,40.9z M58.1,40.8L58.1,40.8l-0.3-0.1
			c0,0-0.1,0-0.1-0.1l0,0c0,0,0-0.1,0.1-0.1l0,0l0.3,0C58.2,40.6,58.2,40.6,58.1,40.8C58.2,40.7,58.2,40.8,58.1,40.8L58.1,40.8
			L58.1,40.8z M57.5,40.7L57.5,40.7l-0.3,0c0,0-0.1,0-0.1-0.1l0,0c0,0,0-0.1,0.1-0.1l0,0l0.3,0c0,0,0.1,0,0.1,0.1
			C57.6,40.6,57.5,40.7,57.5,40.7L57.5,40.7z M56.8,40.5L56.8,40.5l-0.1,0l-0.2,0c0,0-0.1,0-0.1-0.1l0,0c0,0,0-0.1,0.1-0.1l0,0
			l0.2,0l0.1,0C56.9,40.4,56.9,40.4,56.8,40.5C56.9,40.5,56.9,40.5,56.8,40.5L56.8,40.5z M73.2,40.5C73.2,40.5,73.2,40.5,73.2,40.5
			c-0.1-0.1-0.1-0.1-0.1-0.1c0.1-0.1,0.1-0.2,0.2-0.3c0,0,0.1,0,0.1,0s0.1,0.1,0,0.1l0,0l0,0C73.4,40.3,73.4,40.4,73.2,40.5
			C73.3,40.5,73.3,40.5,73.2,40.5L73.2,40.5z M56.2,40.4L56.2,40.4l-0.3-0.1c0,0-0.1,0-0.1-0.1l0,0c0,0,0-0.1,0.1-0.1l0.3,0.1
			C56.2,40.3,56.3,40.3,56.2,40.4L56.2,40.4C56.2,40.4,56.2,40.4,56.2,40.4z M55.5,40.3L55.5,40.3l-0.4-0.1c0,0-0.1,0-0.1-0.1l0,0
			c0,0,0-0.1,0.1-0.1l0.3,0.1C55.6,40.1,55.6,40.2,55.5,40.3C55.6,40.3,55.5,40.3,55.5,40.3L55.5,40.3z M54.8,40.2L54.8,40.2
			l-0.4-0.1c0,0-0.1,0-0.1-0.1c0,0,0-0.1,0.1-0.1l0,0l0.3,0.1C54.9,40,54.9,40,54.8,40.2C54.9,40.1,54.9,40.2,54.8,40.2z M54.2,40
			L54.2,40L53.8,40c0,0-0.1,0-0.1-0.1c0,0,0-0.1,0.1-0.1l0,0l0.3,0.1C54.2,39.9,54.3,39.9,54.2,40L54.2,40C54.3,40,54.2,40,54.2,40
			L54.2,40z M53.5,39.9L53.5,39.9l-0.4-0.1c0,0-0.1,0-0.1-0.1l0,0c0,0,0-0.1,0.1-0.1l0.3,0.1C53.6,39.7,53.6,39.8,53.5,39.9
			C53.6,39.9,53.6,39.9,53.5,39.9L53.5,39.9z M52.9,39.8L52.9,39.8l-0.4-0.1c0,0-0.1,0-0.1-0.1c0,0,0-0.1,0.1-0.1l0.3,0.1
			C52.9,39.6,53,39.6,52.9,39.8C53,39.7,52.9,39.8,52.9,39.8L52.9,39.8z M52.2,39.6L52.2,39.6l-0.4-0.1c0,0-0.1,0-0.1-0.1l0,0
			c0,0,0-0.1,0.1-0.1l0.3,0.1C52.3,39.5,52.3,39.5,52.2,39.6L52.2,39.6C52.3,39.6,52.3,39.6,52.2,39.6L52.2,39.6z M51.6,39.5
			L51.6,39.5l-0.4-0.1c0,0-0.1,0-0.1-0.1c0,0,0-0.1,0.1-0.1l0,0l0.3,0.1C51.6,39.3,51.6,39.4,51.6,39.5L51.6,39.5
			C51.6,39.5,51.6,39.5,51.6,39.5L51.6,39.5z M50.9,39.3L50.9,39.3l-0.3-0.1c0,0-0.1,0-0.1-0.1c0,0,0-0.1,0.1-0.1l0,0l0.3,0.1
			C51,39.2,51,39.2,50.9,39.3L50.9,39.3C51,39.3,51,39.3,50.9,39.3L50.9,39.3z M50.3,39.2L50.3,39.2l-0.4-0.1c0,0-0.1-0.1,0-0.1
			c0,0,0-0.1,0.1-0.1l0.3,0.1C50.3,39.1,50.3,39.1,50.3,39.2C50.3,39.2,50.3,39.2,50.3,39.2L50.3,39.2z M49.6,39.1L49.6,39.1
			L49.3,39c0,0-0.1,0-0.1-0.1c0,0,0-0.1,0.1-0.1l0,0l0.3,0.1C49.7,38.9,49.7,39,49.6,39.1C49.7,39.1,49.7,39.1,49.6,39.1L49.6,39.1z
			 M49,38.9L49,38.9l-0.4-0.1c0,0-0.1,0-0.1-0.1l0,0c0,0,0-0.1,0.1-0.1l0.3,0.1C49,38.8,49,38.8,49,38.9C49,38.9,49,38.9,49,38.9
			L49,38.9z M48.3,38.8L48.3,38.8l-0.4-0.1c0,0-0.1,0-0.1-0.1c0,0,0-0.1,0.1-0.1c0,0,0,0,0,0l0,0l0.3,0.1
			C48.3,38.6,48.4,38.7,48.3,38.8C48.4,38.8,48.3,38.8,48.3,38.8L48.3,38.8z M47.7,38.7L47.7,38.7l-0.4-0.1c0,0-0.1,0-0.1-0.1
			s0-0.1,0.1-0.1c0,0,0,0,0,0l0.3,0.1C47.7,38.5,47.7,38.5,47.7,38.7C47.7,38.6,47.7,38.7,47.7,38.7L47.7,38.7z M47,38.5L47,38.5
			l-0.3-0.1c0,0-0.1,0-0.1-0.1l0,0c0,0,0-0.1,0.1-0.1l0.3,0.1C47.1,38.4,47.1,38.4,47,38.5C47.1,38.5,47.1,38.5,47,38.5L47,38.5z
			 M46.3,38.4L46.3,38.4L46,38.3c0,0-0.1,0-0.1-0.1c0,0,0-0.1,0.1-0.1l0,0l0.3,0.1C46.4,38.2,46.4,38.3,46.3,38.4
			C46.4,38.4,46.4,38.4,46.3,38.4L46.3,38.4z M45.7,38.3L45.7,38.3l-0.4-0.1c0,0-0.1,0-0.1-0.1c0,0,0-0.1,0.1-0.1l0,0l0.3,0.1
			C45.7,38.1,45.8,38.1,45.7,38.3C45.8,38.2,45.7,38.3,45.7,38.3L45.7,38.3z M45,38.1L45,38.1L44.7,38c0,0-0.1,0-0.1-0.1
			c0,0,0-0.1,0.1-0.1l0.3,0.1C45.1,38,45.1,38,45,38.1C45.1,38.1,45.1,38.1,45,38.1L45,38.1z M44.4,38L44.4,38L44,37.9
			c0,0-0.1,0-0.1-0.1c0,0,0-0.1,0.1-0.1l0.3,0.1C44.4,37.8,44.5,37.9,44.4,38C44.5,38,44.4,38,44.4,38L44.4,38z M43.7,37.8
			L43.7,37.8l-0.4-0.1c0,0-0.1,0-0.1-0.1l0,0c0,0,0-0.1,0.1-0.1l0.3,0.1C43.8,37.7,43.8,37.7,43.7,37.8
			C43.8,37.8,43.8,37.8,43.7,37.8L43.7,37.8z M43.1,37.7L43.1,37.7l-0.4-0.1c0,0-0.1-0.1,0-0.1c0,0,0-0.1,0.1-0.1l0.3,0.1
			C43.1,37.5,43.2,37.6,43.1,37.7C43.2,37.7,43.1,37.7,43.1,37.7L43.1,37.7z M42.4,37.6L42.4,37.6l-0.3-0.1c0,0-0.1-0.1,0-0.1
			c0,0,0-0.1,0.1-0.1l0.3,0.1C42.5,37.4,42.5,37.4,42.4,37.6C42.5,37.5,42.5,37.6,42.4,37.6L42.4,37.6z M41.8,37.4L41.8,37.4
			l-0.4-0.1c0,0-0.1-0.1,0-0.1c0,0,0-0.1,0.1-0.1l0.3,0.1C41.8,37.3,41.9,37.3,41.8,37.4C41.8,37.4,41.8,37.4,41.8,37.4L41.8,37.4z
			 M41.1,37.3L41.1,37.3l-0.4-0.1c0,0-0.1,0-0.1-0.1l0,0c0,0,0-0.1,0.1-0.1l0,0l0,0l0.3,0.1C41.2,37.1,41.2,37.2,41.1,37.3
			C41.2,37.3,41.2,37.3,41.1,37.3L41.1,37.3z M40.5,37.1L40.5,37.1l-0.4-0.1c0,0-0.1,0-0.1-0.1c0,0,0-0.1,0.1-0.1l0.3,0.1
			C40.5,37,40.5,37,40.5,37.1C40.5,37.1,40.5,37.2,40.5,37.1L40.5,37.1z M39.8,37L39.8,37l-0.2,0l-0.2,0c0,0-0.1-0.1-0.1-0.1
			c0,0,0-0.1,0.1-0.1l0,0l0,0l0.2,0l0.1,0C39.9,36.8,39.9,36.9,39.8,37C39.9,37,39.8,37,39.8,37L39.8,37z M39.2,36.8L39.2,36.8
			l-0.4-0.1c0,0-0.1-0.1-0.1-0.1c0,0,0.1-0.1,0.1-0.1l0.3,0.1C39.2,36.7,39.2,36.7,39.2,36.8C39.2,36.8,39.2,36.8,39.2,36.8
			L39.2,36.8z M38.5,36.7L38.5,36.7l-0.3-0.1c0,0-0.1-0.1-0.1-0.1c0,0,0-0.1,0.1-0.1l0,0l0.3,0.1C38.5,36.6,38.6,36.6,38.5,36.7
			C38.6,36.7,38.5,36.7,38.5,36.7L38.5,36.7z M37.8,36.5L37.8,36.5l-0.4-0.1c0,0-0.1-0.1-0.1-0.1c0,0,0.1-0.1,0.1-0.1l0.3,0.1
			C37.9,36.4,37.9,36.4,37.8,36.5C37.9,36.5,37.9,36.6,37.8,36.5L37.8,36.5z M37.2,36.4L37.2,36.4l-0.4-0.1c0,0-0.1,0-0.1-0.1l0,0
			c0,0,0-0.1,0.1-0.1l0.3,0.1C37.3,36.2,37.3,36.3,37.2,36.4L37.2,36.4C37.3,36.4,37.2,36.4,37.2,36.4L37.2,36.4z M36.5,36.2
			L36.5,36.2l-0.3-0.1c0,0-0.1,0-0.1-0.1l0,0c0,0,0.1-0.1,0.1-0.1l0.3,0.1C36.6,36.1,36.6,36.2,36.5,36.2
			C36.6,36.2,36.6,36.2,36.5,36.2L36.5,36.2z M35.9,36.1L35.9,36.1L35.6,36c0,0-0.1-0.1-0.1-0.1c0,0,0-0.1,0.1-0.1l0,0l0.3,0.1
			C36,36,36,36,35.9,36.1C36,36.1,35.9,36.1,35.9,36.1L35.9,36.1z M35.2,36L35.2,36l-0.4-0.1c0,0-0.1-0.1,0-0.1c0,0,0-0.1,0.1-0.1
			l0.3,0.1C35.3,35.8,35.3,35.8,35.2,36C35.3,35.9,35.3,36,35.2,36L35.2,36z M34.6,35.8L34.6,35.8l-0.4-0.1c0,0-0.1-0.1-0.1-0.1
			c0,0,0-0.1,0.1-0.1l0,0l0.3,0.1C34.6,35.6,34.7,35.7,34.6,35.8L34.6,35.8C34.7,35.8,34.6,35.8,34.6,35.8L34.6,35.8z M34,35.7
			L34,35.7l-0.4-0.1c0,0-0.1-0.1-0.1-0.1c0,0,0-0.1,0.1-0.1l0,0l0.3,0.1C34,35.5,34,35.5,34,35.7L34,35.7C34,35.6,34,35.7,34,35.7
			L34,35.7z M33.3,35.5L33.3,35.5l-0.4-0.1c0,0-0.1-0.1-0.1-0.1c0,0,0-0.1,0.1-0.1l0,0l0.3,0.1C33.3,35.3,33.4,35.4,33.3,35.5
			L33.3,35.5C33.4,35.5,33.3,35.5,33.3,35.5L33.3,35.5z M32.7,35.3L32.7,35.3l-0.4-0.1c0,0-0.1-0.1-0.1-0.1c0,0,0-0.1,0.1-0.1l0,0
			l0.3,0.1C32.7,35.2,32.7,35.2,32.7,35.3L32.7,35.3C32.7,35.3,32.7,35.3,32.7,35.3L32.7,35.3z M32,35.2L32,35.2l-0.3-0.1
			c0,0-0.1-0.1-0.1-0.1c0,0,0-0.1,0.1-0.1l0,0L32,35C32.1,35,32.1,35.1,32,35.2L32,35.2C32.1,35.2,32,35.2,32,35.2L32,35.2z
			 M31.4,35L31.4,35L31,35c0,0-0.1-0.1,0-0.1c0,0,0-0.1,0.1-0.1l0,0l0.3,0.1C31.4,34.9,31.4,34.9,31.4,35C31.4,35,31.4,35,31.4,35
			L31.4,35z M30.7,34.9L30.7,34.9l-0.4-0.1c0,0-0.1,0-0.1-0.1l0,0c0,0,0.1-0.1,0.1-0.1l0,0l0.3,0.1C30.8,34.8,30.8,34.8,30.7,34.9
			C30.8,34.9,30.7,34.9,30.7,34.9L30.7,34.9z M30.1,34.8L30.1,34.8l-0.4-0.1c0,0-0.1-0.1-0.1-0.1c0,0,0-0.1,0.1-0.1l0.3,0.1
			C30.1,34.6,30.1,34.7,30.1,34.8C30.1,34.7,30.1,34.8,30.1,34.8L30.1,34.8z M29.4,34.6L29.4,34.6l-0.4-0.1c0,0-0.1-0.1-0.1-0.1
			c0,0,0.1-0.1,0.1-0.1l0,0l0.3,0.1C29.5,34.4,29.5,34.5,29.4,34.6C29.5,34.6,29.4,34.6,29.4,34.6L29.4,34.6z M28.8,34.4L28.8,34.4
			l-0.4-0.1c0,0-0.1,0-0.1-0.1c0,0,0-0.1,0.1-0.1l0,0l0.3,0.1C28.8,34.3,28.9,34.3,28.8,34.4C28.8,34.4,28.8,34.4,28.8,34.4
			L28.8,34.4z M28.1,34.3L28.1,34.3l-0.3-0.1c0,0-0.1,0-0.1-0.1l0,0c0,0,0-0.1,0.1-0.1l0,0l0.3,0.1C28.2,34.1,28.2,34.2,28.1,34.3
			C28.2,34.3,28.1,34.3,28.1,34.3L28.1,34.3z M27.5,34.1L27.5,34.1l-0.3-0.1c0,0-0.1-0.1-0.1-0.1s0.1-0.1,0.1-0.1l0.3,0.1
			C27.5,34,27.5,34,27.5,34.1C27.5,34.1,27.5,34.1,27.5,34.1L27.5,34.1z M26.8,34L26.8,34l-0.3-0.1c0,0-0.1-0.1-0.1-0.1
			c0,0,0-0.1,0.1-0.1l0,0l0.3,0.1C26.9,33.8,26.9,33.9,26.8,34C26.9,34,26.9,34,26.8,34L26.8,34z M26.1,33.8L26.1,33.8l-0.3-0.1
			c0,0-0.1-0.1,0-0.1c0,0,0-0.1,0.1-0.1l0.3,0.1C26.2,33.7,26.2,33.7,26.1,33.8C26.2,33.8,26.2,33.8,26.1,33.8L26.1,33.8z
			 M25.5,33.7L25.5,33.7l-0.3-0.1c0,0-0.1,0-0.1-0.1l0,0c0,0,0.1-0.1,0.1-0.1l0.3,0.1C25.6,33.5,25.6,33.6,25.5,33.7
			C25.6,33.7,25.5,33.7,25.5,33.7L25.5,33.7z M24.9,33.5L24.9,33.5l-0.3-0.1c0,0-0.1,0-0.1-0.1l0,0c0,0,0.1-0.1,0.1-0.1l0.3,0.1
			C24.9,33.4,25,33.4,24.9,33.5C24.9,33.5,24.9,33.5,24.9,33.5L24.9,33.5z M24.2,33.4L24.2,33.4l-0.3-0.1c0,0-0.1,0-0.1-0.1
			c0,0,0-0.1,0.1-0.1l0.3,0.1C24.3,33.2,24.3,33.3,24.2,33.4C24.3,33.3,24.2,33.4,24.2,33.4L24.2,33.4z M23.5,33.2L23.5,33.2
			l-0.3-0.1l0-0.2l0,0.1l0-0.1l0.3,0.1C23.6,33,23.6,33.1,23.5,33.2C23.6,33.2,23.6,33.2,23.5,33.2L23.5,33.2z M22.9,33.1L22.9,33.1
			L22.6,33c0,0-0.1,0-0.1-0.1l0,0c0,0,0.1-0.1,0.1-0.1l0.3,0.1C23,32.9,23,33,22.9,33.1C23,33,22.9,33.1,22.9,33.1L22.9,33.1z
			 M22.2,32.9L22.2,32.9l-0.3-0.1c0,0-0.1,0-0.1-0.1l0,0c0,0,0.1-0.1,0.1-0.1l0.3,0.1C22.3,32.8,22.4,32.8,22.2,32.9
			C22.3,32.9,22.3,32.9,22.2,32.9L22.2,32.9z M21.6,32.8L21.6,32.8l-0.4-0.1c0,0-0.1-0.1-0.1-0.1c0,0,0-0.1,0.1-0.1l0,0l0.3,0.1
			C21.7,32.6,21.7,32.7,21.6,32.8C21.7,32.7,21.6,32.8,21.6,32.8L21.6,32.8z M21,32.6L21,32.6l-0.4-0.1c0,0-0.1-0.1-0.1-0.1
			c0,0,0.1-0.1,0.1-0.1l0,0l0.3,0.1C21,32.5,21,32.5,21,32.6C21,32.6,21,32.6,21,32.6L21,32.6z M20.3,32.5L20.3,32.5l-0.4-0.1
			c0,0-0.1,0-0.1-0.1s0-0.1,0.1-0.1l0.3,0.1C20.4,32.3,20.4,32.3,20.3,32.5L20.3,32.5C20.4,32.4,20.3,32.5,20.3,32.5L20.3,32.5z
			 M19.6,32.3L19.6,32.3l-0.4-0.1c0,0-0.1,0-0.1-0.1l0,0c0,0,0-0.1,0.1-0.1l0,0l0.3,0.1C19.7,32.1,19.7,32.2,19.6,32.3
			C19.7,32.3,19.7,32.3,19.6,32.3L19.6,32.3z M19,32.2L19,32.2l-0.4-0.1c0,0-0.1-0.1-0.1-0.1c0,0,0.1-0.1,0.1-0.1L19,32
			C19.1,32,19.1,32.1,19,32.2C19.1,32.1,19,32.2,19,32.2L19,32.2z M18.4,32L18.4,32L18,31.9c0,0-0.1-0.1-0.1-0.1s0-0.1,0.1-0.1l0,0
			l0.3,0.1C18.4,31.9,18.4,31.9,18.4,32C18.4,32,18.4,32,18.4,32L18.4,32z"/>
	</g>
	<g id="_Group_21">
		<path class="st0" d="M50.8,38.9C50.8,38.9,50.7,38.8,50.8,38.9c-0.1-0.1-0.1-0.1-0.1-0.1l0.2-0.2c0,0,0.1,0,0.1,0l0,0
			c0,0,0,0.1,0,0.1l0,0L50.8,38.9C50.9,38.9,50.8,38.9,50.8,38.9z M51.3,38.4C51.2,38.4,51.2,38.4,51.3,38.4L51.3,38.4
			c-0.1-0.1-0.1-0.1-0.1-0.1l0.2-0.2c0,0,0.1,0,0.1,0l0,0c0,0,0,0.1,0,0.1l0,0L51.3,38.4C51.3,38.4,51.3,38.4,51.3,38.4z M51.8,38
			C51.7,38,51.7,37.9,51.8,38L51.8,38c-0.1-0.1-0.1-0.1-0.1-0.1l0.2-0.2c0,0,0.1,0,0.1,0l0,0c0,0,0,0.1,0,0.1l0,0l0,0L51.8,38
			C51.8,37.9,51.8,38,51.8,38z M52.2,37.5C52.2,37.5,52.2,37.4,52.2,37.5L52.2,37.5c-0.1-0.1-0.1-0.1-0.1-0.1l0.2-0.2
			c0,0,0.1,0,0.1,0s0,0.1,0,0.1l0,0L52.2,37.5C52.3,37.5,52.3,37.5,52.2,37.5z M52.7,37C52.7,37,52.6,37,52.7,37L52.7,37
			c-0.1-0.1-0.1-0.1-0.1-0.1l0.2-0.2c0,0,0.1,0,0.1,0s0,0.1,0,0.1l0,0L52.7,37C52.8,37,52.7,37,52.7,37z"/>
	</g>
	<g id="_Group_22">
		<path class="st0" d="M55,34.6C54.9,34.6,54.9,34.6,55,34.6c-0.1-0.1-0.1-0.1,0-0.2c0,0,0.1-0.1,0.3-0.2c0,0,0.1,0,0.1,0l0,0
			c0,0,0,0.1,0,0.1l0,0C55.1,34.6,55,34.6,55,34.6C55,34.6,55,34.6,55,34.6z M55.5,34.3C55.5,34.3,55.5,34.3,55.5,34.3
			c-0.1-0.1-0.1-0.1,0-0.2c0.1,0,0.2-0.1,0.3-0.2c0,0,0.1,0,0.1,0c0,0,0,0.1,0,0.1l0,0C55.8,34.2,55.7,34.2,55.5,34.3
			C55.6,34.3,55.6,34.3,55.5,34.3z M56.1,34C56.1,34,56,33.9,56.1,34L56.1,34c-0.1-0.1-0.1-0.1,0-0.2c0.1-0.1,0.2-0.1,0.3-0.2
			c0,0,0.1,0,0.1,0c0,0,0,0.1,0,0.1l0,0C56.3,33.8,56.2,33.9,56.1,34C56.2,34,56.1,34,56.1,34L56.1,34z M56.7,33.6
			C56.6,33.6,56.6,33.6,56.7,33.6c-0.1-0.1-0.1-0.1-0.1-0.2c0.1-0.1,0.2-0.1,0.3-0.2c0,0,0.1,0,0.1,0l0,0c0,0,0,0.1,0,0.1
			C56.9,33.4,56.8,33.5,56.7,33.6C56.7,33.6,56.7,33.6,56.7,33.6L56.7,33.6z M57.2,33.2C57.1,33.2,57.1,33.1,57.2,33.2L57.2,33.2
			c-0.1-0.1-0.1-0.1-0.1-0.1c0.1-0.1,0.1-0.1,0.2-0.2l0.1-0.1c0,0,0.1,0,0.1,0c0,0,0,0.1,0,0.1l0,0l-0.1,0.1
			C57.4,33,57.3,33.1,57.2,33.2C57.2,33.1,57.2,33.1,57.2,33.2L57.2,33.2z M57.6,32.7C57.6,32.7,57.6,32.6,57.6,32.7L57.6,32.7
			c-0.1-0.1-0.1-0.1-0.1-0.1c0.1-0.1,0.2-0.2,0.2-0.2c0,0,0.1,0,0.1,0s0,0.1,0,0.1C57.8,32.5,57.8,32.6,57.6,32.7
			C57.7,32.7,57.7,32.7,57.6,32.7z M58.1,32.2C58.1,32.2,58,32.2,58.1,32.2L58.1,32.2c-0.1-0.1-0.1-0.1-0.1-0.1l0.2-0.2
			c0,0,0.1,0,0.1,0c0,0,0,0.1,0,0.1l0,0L58.1,32.2C58.2,32.2,58.2,32.2,58.1,32.2z M58.6,31.8C58.6,31.8,58.5,31.8,58.6,31.8
			c-0.1-0.1-0.1-0.1-0.1-0.1l0.3-0.2c0,0,0.1,0,0.1,0c0,0,0,0.1,0,0.1L58.6,31.8C58.7,31.8,58.7,31.8,58.6,31.8z M59.2,31.4
			C59.1,31.4,59.1,31.3,59.2,31.4c-0.1-0.1-0.1-0.1-0.1-0.1l0.3-0.2c0,0,0.1,0,0.1,0c0,0,0,0.1,0,0.1L59.2,31.4
			C59.2,31.4,59.2,31.4,59.2,31.4z M59.7,31C59.6,31,59.6,30.9,59.7,31L59.7,31c-0.1-0.1-0.1-0.1-0.1-0.1l0.3-0.2c0,0,0.1,0,0.1,0
			l0,0c0,0,0,0.1,0,0.1l0,0L59.7,31C59.7,30.9,59.7,30.9,59.7,31L59.7,31z M60.2,30.5C60.2,30.5,60.1,30.5,60.2,30.5
			c-0.1-0.1-0.1-0.1-0.1-0.1l0.3-0.2c0,0,0.1,0,0.1,0c0,0,0,0.1,0,0.1l0,0l0,0L60.2,30.5C60.2,30.5,60.2,30.5,60.2,30.5
			C60.2,30.5,60.2,30.5,60.2,30.5z M60.7,30.1C60.7,30.1,60.6,30.1,60.7,30.1L60.7,30.1C60.6,30,60.7,30,60.7,30l0.3-0.2
			c0,0,0.1,0,0.1,0c0,0,0,0.1,0,0.1l0,0L60.7,30.1C60.8,30.1,60.8,30.1,60.7,30.1z M61.3,29.7C61.2,29.7,61.2,29.7,61.3,29.7
			L61.3,29.7c-0.1-0.1-0.1-0.1-0.1-0.1l0.3-0.2c0,0,0.1,0,0.1,0c0,0,0,0.1,0,0.1l0,0L61.3,29.7C61.3,29.7,61.3,29.7,61.3,29.7
			L61.3,29.7z M61.8,29.3C61.7,29.3,61.7,29.3,61.8,29.3c-0.1-0.1-0.1-0.1-0.1-0.1l0.3-0.2c0,0,0.1,0,0.1,0s0,0.1,0,0.1L61.8,29.3
			C61.8,29.3,61.8,29.3,61.8,29.3L61.8,29.3z M62.3,28.9C62.3,28.9,62.2,28.8,62.3,28.9L62.3,28.9c-0.1-0.1-0.1-0.1-0.1-0.1l0.3-0.2
			c0,0,0.1,0,0.1,0c0,0,0,0.1,0,0.1l0,0L62.3,28.9C62.3,28.9,62.3,28.9,62.3,28.9C62.3,28.9,62.3,28.9,62.3,28.9z M62.8,28.5
			C62.8,28.5,62.8,28.4,62.8,28.5L62.8,28.5c-0.1-0.1-0.1-0.1-0.1-0.1l0.2-0.2l0.1,0c0,0,0.1,0,0.1,0l0,0c0,0,0,0.1,0,0.1l0,0
			l-0.1,0L62.8,28.5C62.9,28.5,62.8,28.5,62.8,28.5L62.8,28.5z M63.4,28.1C63.3,28.1,63.3,28,63.4,28.1c-0.1-0.1-0.1-0.1,0-0.1
			c0.1-0.1,0.2-0.1,0.3-0.2c0,0,0.1,0,0.1,0s0,0.1,0,0.1l0,0C63.6,28,63.5,28,63.4,28.1C63.4,28.1,63.4,28.1,63.4,28.1z M64,27.7
			C63.9,27.7,63.9,27.7,64,27.7L64,27.7c-0.1-0.1-0.1-0.1,0-0.1c0.1,0,0.2-0.1,0.3-0.1c0,0,0.1,0,0.1,0c0,0,0,0.1,0,0.1l0,0
			C64.2,27.6,64.1,27.7,64,27.7C64,27.7,64,27.8,64,27.7L64,27.7z M66.2,27.5C66.1,27.5,66.1,27.5,66.2,27.5
			c-0.1-0.1-0.2-0.1-0.3-0.2c0,0-0.1-0.1-0.1-0.1l0,0c0,0,0.1-0.1,0.1,0l0,0l0,0c0.1,0,0.2,0.1,0.3,0.2
			C66.2,27.4,66.3,27.5,66.2,27.5C66.2,27.5,66.2,27.5,66.2,27.5L66.2,27.5z M64.6,27.5C64.5,27.5,64.5,27.4,64.6,27.5L64.6,27.5
			c-0.1-0.1-0.1-0.1,0-0.2c0.1,0,0.2-0.1,0.3-0.1c0,0,0.1,0,0.1,0.1s0,0.1-0.1,0.1l0,0C64.8,27.4,64.7,27.4,64.6,27.5L64.6,27.5z
			 M65.2,27.3C65.2,27.3,65.1,27.3,65.2,27.3c-0.1-0.1-0.1-0.2,0-0.2c0.1,0,0.2,0,0.3,0c0.1,0,0.1,0,0.1,0.1l0,0c0,0,0,0.1-0.1,0.1
			l0,0l0,0C65.4,27.3,65.3,27.3,65.2,27.3L65.2,27.3z"/>
	</g>
	<g id="_Group_23">
		<path class="st0" d="M68.6,41.2c-0.1,0-0.2,0-0.3,0c-0.1,0-0.1,0-0.1-0.1c0,0,0.1-0.1,0.1-0.1l0,0c0.1,0,0.2,0,0.3,0h0
			C68.6,41.1,68.7,41.1,68.6,41.2C68.7,41.2,68.6,41.2,68.6,41.2L68.6,41.2z M68.9,41.2C68.9,41.2,68.8,41.2,68.9,41.2
			c-0.1-0.1,0-0.2,0-0.2l0.3,0c0.1,0,0.1,0,0.1,0.1c0,0,0,0.1-0.1,0.1l0,0L68.9,41.2L68.9,41.2z M67.9,41.2L67.9,41.2l-0.3,0
			c-0.1,0-0.1,0-0.1-0.1c0,0,0.1-0.1,0.1-0.1l0.3,0C68,41,68,41.1,67.9,41.2C68,41.2,68,41.2,67.9,41.2L67.9,41.2z M69.6,41.2
			C69.5,41.2,69.5,41.1,69.6,41.2c-0.1-0.1,0-0.2,0-0.2l0,0l0.3,0c0.1,0,0.1,0,0.1,0.1c0,0,0,0.1-0.1,0.1l0,0L69.6,41.2
			C69.6,41.1,69.6,41.1,69.6,41.2z M67.2,41.1L67.2,41.1c-0.1,0-0.2,0-0.3,0c-0.1,0-0.1,0-0.1-0.1c0,0,0-0.1,0.1-0.1c0,0,0,0,0,0
			l0,0l0.3,0C67.3,41,67.3,41,67.2,41.1L67.2,41.1C67.3,41.1,67.3,41.1,67.2,41.1L67.2,41.1z M70.2,41.1
			C70.2,41.1,70.2,41.1,70.2,41.1c-0.1-0.1-0.1-0.2,0-0.2c0.1,0,0.2,0,0.3,0c0.1,0,0.1,0,0.1,0.1s0,0.1-0.1,0.1l0,0l0,0
			C70.5,41,70.4,41.1,70.2,41.1C70.3,41.1,70.2,41.1,70.2,41.1z M66.6,41L66.6,41l-0.3,0c-0.1,0-0.1,0-0.1-0.1l0,0l0,0
			c0,0,0.1-0.1,0.1-0.1l0.3,0C66.7,40.8,66.7,40.9,66.6,41C66.7,41,66.6,41,66.6,41z M70.9,41C70.8,41,70.8,40.9,70.9,41
			c-0.1-0.1-0.1-0.2,0-0.2c0.1,0,0.2,0,0.3-0.1c0,0,0.1,0,0.1,0.1c0,0,0,0.1-0.1,0.1l0,0C71.1,40.9,71,40.9,70.9,41L70.9,41z
			 M65.9,40.9L65.9,40.9l-0.3-0.1c0,0-0.1-0.1-0.1-0.1c0,0,0.1-0.1,0.1-0.1l0,0l0.3,0.1C66,40.8,66,40.8,65.9,40.9
			C66,40.9,66,40.9,65.9,40.9z M65.3,40.8L65.3,40.8l-0.3-0.1c-0.1,0-0.1,0-0.1-0.1l0,0c0,0,0.1-0.1,0.1-0.1l0,0l0,0l0.3,0.1
			C65.3,40.6,65.4,40.7,65.3,40.8C65.4,40.8,65.3,40.8,65.3,40.8L65.3,40.8z M71.5,40.8C71.5,40.8,71.5,40.7,71.5,40.8
			c-0.1-0.1-0.1-0.2,0-0.2c0.1,0,0.2-0.1,0.3-0.1c0,0,0.1,0,0.1,0c0,0,0,0.1,0,0.1l0,0C71.8,40.7,71.7,40.7,71.5,40.8L71.5,40.8z
			 M64.6,40.7L64.6,40.7l-0.3-0.1c-0.1,0-0.1,0-0.1-0.1c0,0,0.1-0.1,0.1-0.1l0.3,0.1C64.7,40.5,64.7,40.5,64.6,40.7L64.6,40.7
			C64.7,40.6,64.7,40.7,64.6,40.7L64.6,40.7z M64,40.5L64,40.5l-0.4-0.1c0,0-0.1,0-0.1-0.1c0,0,0-0.1,0.1-0.1l0.3,0.1
			C64,40.4,64,40.4,64,40.5C64,40.5,64,40.5,64,40.5L64,40.5z M72.1,40.5C72.1,40.5,72,40.4,72.1,40.5L72.1,40.5
			c-0.1-0.1-0.1-0.1,0-0.2c0.1-0.1,0.2-0.1,0.2-0.2c0,0,0.1,0,0.1,0l0,0c0,0,0,0.1,0,0.1l0,0C72.4,40.3,72.3,40.4,72.1,40.5
			C72.2,40.5,72.1,40.5,72.1,40.5L72.1,40.5z M63.3,40.4L63.3,40.4L63,40.3c0,0-0.1-0.1-0.1-0.1c0,0,0-0.1,0.1-0.1l0.3,0.1
			C63.4,40.3,63.4,40.3,63.3,40.4C63.4,40.4,63.3,40.4,63.3,40.4z M62.7,40.3L62.7,40.3l-0.4-0.1c0,0-0.1,0-0.1-0.1
			c0,0,0-0.1,0.1-0.1c0,0,0,0,0,0l0.3,0.1C62.7,40.1,62.8,40.2,62.7,40.3C62.7,40.2,62.7,40.3,62.7,40.3L62.7,40.3L62.7,40.3z
			 M62,40.1L62,40.1l-0.4-0.1c0,0-0.1,0-0.1-0.1l0,0c0,0,0-0.1,0.1-0.1L62,40C62.1,40,62.1,40,62,40.1C62.1,40.1,62,40.2,62,40.1
			L62,40.1L62,40.1z M61.3,40L61.3,40L61,39.9c0,0-0.1,0-0.1-0.1l0,0c0,0,0-0.1,0.1-0.1l0.3,0.1C61.4,39.8,61.5,39.9,61.3,40
			C61.4,40,61.4,40,61.3,40L61.3,40L61.3,40z M72.6,40C72.6,40,72.6,40,72.6,40c-0.1,0-0.1-0.1-0.1-0.1l0,0l0,0
			c0.1-0.1,0.1-0.2,0.1-0.3c0,0,0.1-0.1,0.1,0c0,0,0.1,0.1,0.1,0.1l0,0C72.8,39.8,72.7,39.9,72.6,40C72.6,40,72.6,40,72.6,40
			L72.6,40z M60.7,39.9L60.7,39.9l-0.4-0.1c0,0-0.1-0.1-0.1-0.1c0,0,0-0.1,0.1-0.1l0.3,0.1C60.7,39.7,60.8,39.8,60.7,39.9
			C60.8,39.8,60.7,39.9,60.7,39.9L60.7,39.9z M60,39.7L60,39.7l-0.4-0.1c0,0-0.1-0.1,0-0.1c0,0,0-0.1,0.1-0.1l0.3,0.1
			C60.1,39.6,60.1,39.6,60,39.7C60.1,39.7,60.1,39.7,60,39.7L60,39.7z M59.4,39.6L59.4,39.6L59,39.5c0,0-0.1,0-0.1-0.1
			c0,0,0-0.1,0.1-0.1l0,0l0.3,0.1C59.4,39.4,59.5,39.5,59.4,39.6C59.4,39.6,59.4,39.6,59.4,39.6L59.4,39.6z M58.7,39.5L58.7,39.5
			l-0.4-0.1c0,0-0.1,0-0.1-0.1c0,0,0-0.1,0.1-0.1l0.3,0.1C58.8,39.3,58.8,39.4,58.7,39.5C58.8,39.4,58.8,39.5,58.7,39.5L58.7,39.5z
			 M58.1,39.3L58.1,39.3l-0.4-0.1c0,0-0.1,0-0.1-0.1c0,0,0-0.1,0.1-0.1c0,0,0,0,0,0l0.3,0.1C58.1,39.2,58.2,39.2,58.1,39.3
			C58.2,39.3,58.1,39.3,58.1,39.3L58.1,39.3z M57.4,39.2L57.4,39.2l-0.3-0.1c0,0-0.1,0-0.1-0.1c0,0,0-0.1,0.1-0.1l0,0l0,0l0.3,0.1
			C57.5,39,57.5,39.1,57.4,39.2C57.5,39.2,57.5,39.2,57.4,39.2L57.4,39.2z M56.8,39L56.8,39L56.4,39c0,0-0.1,0-0.1-0.1l0,0
			c0,0,0-0.1,0.1-0.1l0.3,0.1C56.8,38.9,56.8,38.9,56.8,39C56.8,39,56.8,39,56.8,39L56.8,39z M56.1,38.9L56.1,38.9l-0.4-0.1
			c0,0-0.1,0-0.1-0.1c0,0,0-0.1,0.1-0.1l0.3,0.1C56.2,38.7,56.2,38.8,56.1,38.9C56.2,38.9,56.2,38.9,56.1,38.9L56.1,38.9z
			 M55.5,38.8L55.5,38.8l-0.3-0.1c0,0-0.1,0-0.1-0.1l0,0c0,0,0-0.1,0.1-0.1l0.3,0.1C55.5,38.6,55.6,38.7,55.5,38.8
			C55.5,38.7,55.5,38.8,55.5,38.8L55.5,38.8z M54.8,38.6L54.8,38.6l-0.3-0.1c0,0-0.1,0-0.1-0.1c0,0,0-0.1,0.1-0.1l0,0l0.3,0.1
			C54.9,38.5,54.9,38.5,54.8,38.6C54.9,38.6,54.8,38.6,54.8,38.6L54.8,38.6z M54.2,38.5L54.2,38.5l-0.4-0.1c0,0-0.1,0-0.1-0.1
			c0,0,0-0.1,0.1-0.1l0.3,0.1C54.2,38.3,54.2,38.4,54.2,38.5L54.2,38.5C54.2,38.5,54.2,38.5,54.2,38.5L54.2,38.5z M53.5,38.3
			L53.5,38.3l-0.4-0.1c0,0-0.1,0-0.1-0.1l0,0c0,0,0-0.1,0.1-0.1l0.3,0.1C53.6,38.2,53.6,38.2,53.5,38.3
			C53.6,38.3,53.5,38.4,53.5,38.3L53.5,38.3z M52.9,38.2L52.9,38.2l-0.4-0.1c0,0-0.1,0-0.1-0.1c0,0,0-0.1,0.1-0.1l0,0l0,0l0.3,0.1
			C52.9,38.1,53,38.1,52.9,38.2C52.9,38.2,52.9,38.2,52.9,38.2L52.9,38.2z M52.2,38.1L52.2,38.1L51.8,38c0,0-0.1,0-0.1-0.1
			s0-0.1,0.1-0.1l0.3,0.1C52.3,37.9,52.3,38,52.2,38.1L52.2,38.1C52.3,38,52.2,38.1,52.2,38.1L52.2,38.1z"/>
	</g>
	<g id="_Group_24">
		<path class="st0" d="M74.9,37.5C74.8,37.5,74.8,37.5,74.9,37.5l-0.3-0.2c0,0,0-0.1,0-0.1c0,0,0.1,0,0.1,0l0,0l0,0l0.2,0.2
			C75,37.4,75,37.5,74.9,37.5C74.9,37.5,74.9,37.5,74.9,37.5L74.9,37.5z M74.4,37C74.4,37,74.3,37,74.4,37l-0.3-0.2c0,0,0-0.1,0-0.1
			c0,0,0.1,0,0.1,0l0.2,0.2C74.5,36.9,74.5,37,74.4,37C74.4,37,74.4,37,74.4,37L74.4,37z M73.9,36.6C73.9,36.6,73.9,36.6,73.9,36.6
			l-0.3-0.3c0,0,0-0.1,0-0.1l0,0c0,0,0.1,0,0.1,0l0,0l0,0l0.2,0.2C74,36.5,74,36.5,73.9,36.6C73.9,36.6,73.9,36.6,73.9,36.6
			L73.9,36.6z M73.4,36.1C73.4,36.1,73.4,36.1,73.4,36.1L73.3,36l-0.1-0.1c0,0-0.1-0.1,0-0.1l0,0c0,0,0.1,0,0.1,0l0.1,0.1l0,0
			l0.1,0.1C73.5,36,73.5,36.1,73.4,36.1C73.5,36.1,73.5,36.1,73.4,36.1z M72.9,35.7C72.9,35.7,72.9,35.7,72.9,35.7l-0.3-0.2
			c0,0-0.1-0.1,0-0.1c0,0,0.1,0,0.1,0l0.3,0.2C73,35.6,73,35.7,72.9,35.7C72.9,35.7,72.9,35.7,72.9,35.7z M72.3,35.4
			C72.3,35.4,72.3,35.4,72.3,35.4L72,35.2c0,0-0.1-0.1,0-0.1c0,0,0.1,0,0.1,0l0,0l0.3,0.2C72.4,35.2,72.4,35.3,72.3,35.4
			C72.4,35.4,72.4,35.4,72.3,35.4z M71.8,35C71.7,35,71.7,35,71.8,35l-0.3-0.2c0,0-0.1-0.1,0-0.1s0.1,0,0.1,0l0.3,0.2
			C71.9,34.9,71.9,34.9,71.8,35C71.8,35,71.8,35,71.8,35L71.8,35z M71.2,34.7C71.2,34.7,71.2,34.7,71.2,34.7l-0.3-0.2
			c0,0-0.1-0.1,0-0.1s0.1,0,0.1,0l0.3,0.2C71.3,34.5,71.3,34.6,71.2,34.7C71.2,34.7,71.2,34.7,71.2,34.7z M70.6,34.3
			C70.6,34.3,70.6,34.3,70.6,34.3l-0.3-0.2c0,0-0.1-0.1,0-0.1c0,0,0.1,0,0.1,0l0,0l0.3,0.2C70.7,34.2,70.7,34.3,70.6,34.3L70.6,34.3
			C70.7,34.3,70.7,34.3,70.6,34.3L70.6,34.3z M70.1,34C70.1,34,70,34,70.1,34l-0.3-0.2c0,0-0.1-0.1,0-0.1c0,0,0.1,0,0.1,0l0,0l0,0
			l0.3,0.2C70.2,33.8,70.2,33.9,70.1,34L70.1,34C70.1,34,70.1,34,70.1,34z M69.5,33.6C69.5,33.6,69.5,33.6,69.5,33.6l-0.3-0.2
			c0,0-0.1-0.1,0-0.1c0,0,0.1,0,0.1,0l0.3,0.2C69.6,33.5,69.6,33.6,69.5,33.6C69.6,33.6,69.5,33.6,69.5,33.6z M68.9,33.3
			C68.9,33.3,68.9,33.3,68.9,33.3l-0.3-0.2c0,0-0.1-0.1,0-0.1l0,0c0,0,0.1,0,0.1,0l0,0l0.3,0.2C69,33.1,69,33.2,68.9,33.3
			C69,33.2,69,33.3,68.9,33.3L68.9,33.3z M68.4,32.9C68.4,32.9,68.3,32.9,68.4,32.9L68,32.7c0,0-0.1-0.1,0-0.1c0,0,0.1,0,0.1,0
			l0.3,0.2C68.5,32.8,68.5,32.8,68.4,32.9L68.4,32.9C68.4,32.9,68.4,32.9,68.4,32.9L68.4,32.9z M67.8,32.6
			C67.8,32.6,67.8,32.6,67.8,32.6l-0.3-0.2c0,0-0.1-0.1,0-0.1c0,0,0.1,0,0.1,0l0,0l0,0l0.3,0.2C67.9,32.4,67.9,32.5,67.8,32.6
			C67.9,32.5,67.8,32.6,67.8,32.6L67.8,32.6z M67.2,32.2C67.2,32.2,67.2,32.2,67.2,32.2L66.9,32c0,0-0.1-0.1,0-0.1s0.1,0,0.1,0l0,0
			l0.3,0.2C67.3,32.1,67.3,32.1,67.2,32.2L67.2,32.2C67.3,32.2,67.3,32.2,67.2,32.2z M66.7,31.9C66.7,31.9,66.7,31.9,66.7,31.9
			l-0.3-0.2c0,0-0.1-0.1,0-0.1l0,0c0,0,0.1,0,0.1,0l0,0l0.3,0.2C66.8,31.7,66.8,31.8,66.7,31.9C66.8,31.8,66.7,31.8,66.7,31.9
			L66.7,31.9z M66.1,31.5C66.1,31.5,66.1,31.5,66.1,31.5l-0.3-0.2c0,0,0-0.1,0-0.1c0,0,0.1,0,0.1,0l0.3,0.2
			C66.2,31.4,66.2,31.4,66.1,31.5C66.2,31.5,66.2,31.5,66.1,31.5L66.1,31.5z M65.6,31.1C65.5,31.1,65.5,31.1,65.6,31.1L65.2,31
			c0,0-0.1-0.1,0-0.1c0,0,0.1,0,0.1,0l0,0l0.3,0.2C65.6,31,65.7,31.1,65.6,31.1C65.6,31.1,65.6,31.1,65.6,31.1z M65,30.8
			C65,30.8,65,30.8,65,30.8l-0.3-0.2c0,0-0.1-0.1,0-0.1c0,0,0.1,0,0.1,0l0.3,0.2C65.1,30.6,65.1,30.7,65,30.8L65,30.8
			C65.1,30.7,65,30.8,65,30.8L65,30.8z M64.4,30.4C64.4,30.4,64.4,30.4,64.4,30.4l-0.3-0.2c0,0-0.1-0.1,0-0.1c0,0,0.1,0,0.1,0l0,0
			l0.3,0.2C64.5,30.3,64.5,30.3,64.4,30.4C64.5,30.4,64.5,30.4,64.4,30.4z M63.9,30C63.8,30,63.8,30,63.9,30l-0.3-0.2
			c0,0,0-0.1,0-0.1c0,0,0.1,0,0.1,0l0,0l0.3,0.2C64,29.9,64,30,63.9,30C63.9,30,63.9,30,63.9,30L63.9,30z M63.3,29.7
			C63.3,29.7,63.3,29.7,63.3,29.7L63,29.5c0,0,0-0.1,0-0.1l0,0c0,0,0.1,0,0.1,0l0,0l0.3,0.2C63.4,29.6,63.4,29.6,63.3,29.7
			C63.4,29.7,63.3,29.7,63.3,29.7z M62.7,29.3C62.7,29.3,62.7,29.3,62.7,29.3L62.7,29.3c-0.1-0.1-0.1-0.1-0.1-0.1c0,0,0.1,0,0.1,0
			l0,0C62.8,29.2,62.8,29.3,62.7,29.3C62.8,29.3,62.8,29.3,62.7,29.3L62.7,29.3z"/>
	</g>
	<g id="_Group_25">
		<path class="st0" d="M75.3,37C75.2,37,75.2,37,75.3,37L75.3,37c-0.1-0.1,0-0.2,0-0.2l0,0c0,0,0.1,0,0.1,0.1l0,0L75.3,37
			C75.3,37,75.3,37,75.3,37L75.3,37z M75.2,36.7C75.2,36.7,75.1,36.7,75.2,36.7c-0.1-0.1-0.2-0.2-0.2-0.3c0,0,0-0.1,0-0.1l0,0
			c0,0,0.1,0,0.1,0c0.1,0.1,0.1,0.2,0.2,0.3C75.3,36.6,75.2,36.7,75.2,36.7L75.2,36.7L75.2,36.7C75.2,36.7,75.2,36.7,75.2,36.7
			L75.2,36.7z M74.8,36.2C74.8,36.2,74.7,36.2,74.8,36.2c-0.1-0.1-0.2-0.2-0.3-0.2c0,0,0-0.1,0-0.1c0,0,0.1,0,0.1,0l0,0
			c0.1,0.1,0.2,0.2,0.2,0.2C74.9,36,74.9,36.1,74.8,36.2L74.8,36.2C74.8,36.2,74.8,36.2,74.8,36.2L74.8,36.2z"/>
	</g>
	<g id="_Group_26">
		<path class="st0" d="M64.9,30C64.9,30,64.9,30,64.9,30l-0.2-0.1c0,0-0.1-0.1,0-0.1c0,0,0.1,0,0.1,0l0,0l0.2,0.1
			C65,29.8,65,29.9,64.9,30L64.9,30C64.9,29.9,64.9,30,64.9,30z M64.4,29.6C64.4,29.6,64.4,29.6,64.4,29.6l-0.3-0.2
			c0,0-0.1-0.1,0-0.1c0,0,0.1,0,0.1,0l0.3,0.2C64.5,29.5,64.5,29.6,64.4,29.6L64.4,29.6C64.5,29.6,64.4,29.6,64.4,29.6L64.4,29.6z
			 M63.9,29.3C63.8,29.3,63.8,29.3,63.9,29.3l-0.3-0.2c0,0,0-0.1,0-0.1s0.1,0,0.1,0l0,0l0.3,0.2C63.9,29.2,64,29.2,63.9,29.3
			L63.9,29.3C63.9,29.3,63.9,29.3,63.9,29.3z M63.3,29C63.3,29,63.3,29,63.3,29L63,28.8c0,0,0-0.1,0-0.1c0,0,0.1,0,0.1,0l0,0
			l0.3,0.2C63.4,28.8,63.4,28.9,63.3,29C63.3,28.9,63.3,29,63.3,29z"/>
	</g>
	<g id="_Group_27">
		<path class="st0" d="M71.7,34.3C71.7,34.3,71.7,34.3,71.7,34.3l-0.1,0c0,0-0.1-0.1,0-0.1l0,0c0,0,0.1,0,0.1,0l0,0l0,0l0.1,0
			C71.8,34.2,71.8,34.3,71.7,34.3L71.7,34.3C71.8,34.3,71.7,34.3,71.7,34.3z M71.4,34.1C71.4,34.1,71.3,34.1,71.4,34.1L71,33.9
			c0,0-0.1-0.1,0-0.1s0.1,0,0.1,0l0,0l0.3,0.2C71.5,34,71.5,34.1,71.4,34.1C71.4,34.1,71.4,34.1,71.4,34.1L71.4,34.1z M70.8,33.8
			C70.8,33.8,70.8,33.8,70.8,33.8l-0.3-0.2c0,0-0.1-0.1,0-0.1s0.1-0.1,0.1,0c0,0,0,0,0,0l0,0l0.3,0.2C70.9,33.6,70.9,33.7,70.8,33.8
			C70.9,33.8,70.8,33.8,70.8,33.8z M70.3,33.4C70.2,33.4,70.2,33.4,70.3,33.4l-0.3-0.2c0,0-0.1-0.1,0-0.1l0,0c0,0,0.1,0,0.1,0l0,0
			l0,0l0.3,0.2C70.3,33.3,70.3,33.4,70.3,33.4C70.3,33.4,70.3,33.4,70.3,33.4z M69.7,33C69.7,33,69.7,33,69.7,33l-0.3-0.2
			c0,0-0.1-0.1,0-0.1l0,0c0,0,0.1,0,0.1,0l0,0l0.3,0.2C69.8,32.9,69.8,33,69.7,33L69.7,33C69.8,33,69.7,33,69.7,33z M69.2,32.7
			C69.1,32.7,69.1,32.7,69.2,32.7l-0.3-0.2c0,0-0.1-0.1,0-0.1c0,0,0.1,0,0.1,0l0,0l0.3,0.2C69.2,32.6,69.3,32.6,69.2,32.7
			C69.2,32.7,69.2,32.7,69.2,32.7z M68.6,32.3C68.6,32.3,68.6,32.3,68.6,32.3l-0.3-0.2c0,0-0.1-0.1,0-0.1c0,0,0.1,0,0.1,0l0,0
			l0.3,0.2C68.7,32.2,68.7,32.2,68.6,32.3C68.7,32.3,68.6,32.3,68.6,32.3L68.6,32.3z M68,32C68,32,68,32,68,32l-0.3-0.2
			c0,0-0.1-0.1,0-0.1l0,0c0,0,0.1,0,0.1,0l0.3,0.2C68.1,31.8,68.1,31.9,68,32L68,32C68.1,31.9,68.1,32,68,32L68,32z M67.5,31.6
			C67.5,31.6,67.4,31.6,67.5,31.6l-0.3-0.2c0,0-0.1-0.1,0-0.1c0,0,0.1,0,0.1,0l0,0l0,0l0.3,0.2C67.6,31.5,67.6,31.5,67.5,31.6
			L67.5,31.6C67.5,31.6,67.5,31.6,67.5,31.6L67.5,31.6z M66.9,31.2C66.9,31.2,66.9,31.2,66.9,31.2L66.6,31c0,0-0.1-0.1,0-0.1
			c0,0,0.1,0,0.1,0l0.3,0.2C67,31.1,67,31.2,66.9,31.2L66.9,31.2C67,31.2,66.9,31.2,66.9,31.2L66.9,31.2z"/>
	</g>
	<g id="_Group_28">
		<g id="_Group_29">
			<path class="st1" d="M65.9,32.6c0-0.1,0.2-0.2,0.3-0.1c0.1,0,0.2,0.2,0.1,0.3s-0.2,0.2-0.3,0.1l0,0h0
				C66,32.8,65.9,32.7,65.9,32.6L65.9,32.6 M66.1,32.8c0.1,0,0.2,0,0.2-0.1s0-0.2-0.1-0.2c-0.1,0-0.2,0-0.2,0.1
				C65.9,32.7,66,32.8,66.1,32.8L66.1,32.8L66.1,32.8 M66.1,32.7L66.1,32.7l0.1-0.2l0.1,0c0.1,0,0.1,0,0.1,0.1c0,0-0.1,0-0.1,0l0,0
				l0,0.1L66.1,32.7L66.1,32.7L66.1,32.7L66.1,32.7z M66.2,32.6C66.2,32.6,66.2,32.7,66.2,32.6C66.2,32.6,66.2,32.6,66.2,32.6
				L66.2,32.6L66.2,32.6L66.2,32.6z"/>
		</g>
		<g id="_Group_30">
			<path class="st1" d="M64.4,31.9l0.1,0c0,0,0-0.4,0-0.6c0.1,0,0.1,0,0.2,0.1c0,0.2,0.1,0.5,0.1,0.5s0.3,0,0.4,0
				c0,0,0.1,0.1,0.1,0.1l-0.5,0.2l0,0.3l0.6-0.4c0,0,0.1,0.1,0.1,0.1c-0.1,0.1-0.2,0.1-0.3,0.2c0.2,0.1,0.3,0.1,0.5,0.2
				c0,0.1,0,0.1,0,0.2l-0.4-0.1l-0.3,0.2l0.3,0c0,0,0.2,0,0.5,0c0,0.1,0,0.1,0,0.2h-0.5l-0.4-0.1c-0.1,0-0.1,0.1-0.2,0.1
				c0.3,0.1,0.7,0.1,1.1,0.2c-0.1,0.5-0.3,1-0.8,1.4c-1-0.3-1.9-0.7-2.8-1.1l-0.3-0.1c-0.1-0.3-0.1-0.6,0-0.9
				c0.1-0.3,0.2-0.6,0.5-0.9l0.5,0.1l-0.1-0.4c0,0,0.1-0.1,0.1-0.1c0.1,0.2,0.2,0.6,0.2,0.6l0.2,0l-0.2-0.7c0.1,0,0.2-0.1,0.2-0.1
				l0.3,0.2c0,0,0.1-0.2,0.1-0.3c0.1,0,0.2,0,0.3,0c0,0.2,0,0.3,0,0.5c0.2-0.1,0.3-0.2,0.5-0.4c0,0,0,0,0,0L64.4,31.9z M64.2,31.6
				l-0.3,0.3l0,0.4l0.2,0l0.2-0.3C64.2,31.9,64.2,31.8,64.2,31.6 M63.6,31.4l-0.1,0.2l0.1,0.1C63.6,31.6,63.6,31.5,63.6,31.4
				 M63,31.5L63,31.5c0.1,0.1,0.2,0.4,0.2,0.4l0.1-0.2L63,31.5z M64.5,32.1l-0.1,0v0.1L64.5,32.1L64.5,32.1z M63.4,31.8l-0.1,0.4
				l0.2-0.2L63.4,31.8z M65,32.6l-0.1,0l-0.3,0.2l0.1,0L65,32.6z M64.1,32.5L64,32.9l0.4-0.2c0,0,0.1,0,0.1-0.1l0-0.2L64.1,32.5z
				 M63.6,32.2l-0.2,0.1l0.1,0.2C63.5,32.5,63.5,32.3,63.6,32.2 M63.9,32.5h-0.1l0,0.1l0.1,0.1L63.9,32.5z M62.8,32.1l-0.2,0.2
				l0.2,0.2l0.3-0.1l0-0.1L62.8,32.1z M62.2,31.9l0.2,0.2l0.1-0.1L62.2,31.9z M64.3,33l-0.2,0.2l0.2,0l0.2-0.2L64.3,33z M63.2,32.6
				l-0.6,0.2l-0.2-0.1c0.1,0,0.1-0.1,0.2-0.1c-0.1-0.1-0.1-0.1-0.2-0.2l-0.2,0.1c0,0-0.1,0-0.2,0c-0.1,0.2-0.1,0.3-0.1,0.5
				c0,0,0,0.1,0,0.1c0.5,0.2,0.8,0.4,1.3,0.7l0.3-0.7c0-0.1,0-0.1,0-0.2l-0.3,0l-0.4-0.2c0,0,0.4,0,0.6-0.1
				C63.3,32.7,63.3,32.6,63.2,32.6 M62.1,32.1c0,0.1-0.1,0.1-0.1,0.2C62.1,32.3,62.2,32.2,62.1,32.1L62.1,32.1z M65.3,33.5l-0.2,0
				c0,0.1,0,0.3,0,0.3L65,33.8l-0.1-0.3l-0.3-0.1l0,0.2l-0.2,0l-0.1-0.2c0,0-0.5,0-0.7-0.1l0,0c-0.1,0.2-0.2,0.4-0.2,0.6v0
				c0.4,0.2,0.7,0.4,1.1,0.6h0c0.2-0.1,0.3-0.2,0.4-0.4C65.3,34,65.3,33.8,65.3,33.5"/>
		</g>
		<g id="_Group_31">
			<path class="st1" d="M64.7,34.8c-0.2,0.1-0.4,0.2-0.6,0.2c-0.8-0.3-1.5-0.9-2.4-1.3c0,0,0-0.1,0-0.1c0.7,0.2,1.3,0.5,2,0.8
				C64,34.6,64.4,34.7,64.7,34.8L64.7,34.8z"/>
		</g>
		<g id="_Group_32">
			<path class="st1" d="M63.3,34.7c0.2,0.1,0.5,0.2,0.7,0.4c-0.7,0.1-1.4-0.2-1.9-0.7c-0.1-0.2-0.2-0.3-0.3-0.5c0,0,0,0,0.1,0
				l0.3,0.2L63.3,34.7z"/>
		</g>
	</g>
</g>
<g class="st2">
	<path d="M41.1,91.5c-0.5,0-0.9-0.1-1.4-0.3c-0.4-0.2-0.8-0.4-1.1-0.8c-0.3-0.3-0.6-0.8-0.8-1.3s-0.3-1.1-0.3-1.7
		c0-0.6,0.1-1.2,0.3-1.7s0.4-0.9,0.8-1.3c0.3-0.4,0.7-0.6,1.1-0.8c0.4-0.2,0.9-0.3,1.4-0.3c0.5,0,0.9,0.1,1.3,0.3
		c0.4,0.2,0.7,0.4,0.9,0.7l-0.8,0.9c-0.2-0.2-0.4-0.3-0.7-0.5c-0.2-0.1-0.5-0.2-0.8-0.2c-0.3,0-0.6,0.1-0.9,0.2
		c-0.3,0.1-0.5,0.3-0.7,0.6c-0.2,0.2-0.3,0.5-0.4,0.9C39.1,86.6,39,87,39,87.4c0,0.4,0.1,0.8,0.2,1.2c0.1,0.4,0.3,0.7,0.4,0.9
		c0.2,0.2,0.4,0.4,0.7,0.6c0.3,0.1,0.6,0.2,0.9,0.2c0.3,0,0.6-0.1,0.9-0.2c0.3-0.1,0.5-0.3,0.7-0.6l0.8,0.9
		c-0.3,0.4-0.7,0.7-1.1,0.8C42.1,91.4,41.6,91.5,41.1,91.5z"/>
	<path d="M44.3,91.4l2.5-7.8h1.6l2.5,7.8h-1.5l-0.6-2.1h-2.6l-0.6,2.1H44.3z M46.9,87.2l-0.3,1h2l-0.3-1c-0.1-0.4-0.2-0.8-0.3-1.3
		c-0.1-0.4-0.2-0.9-0.3-1.3h0c-0.1,0.4-0.2,0.9-0.3,1.3C47.1,86.4,47,86.8,46.9,87.2z"/>
	<path d="M54.9,91.5c-0.6,0-1.1-0.1-1.6-0.3c-0.5-0.2-1-0.5-1.3-0.9l0.8-0.9c0.3,0.3,0.6,0.5,1,0.6c0.4,0.2,0.8,0.2,1.2,0.2
		c0.5,0,0.8-0.1,1-0.3c0.2-0.2,0.4-0.4,0.4-0.7c0-0.2,0-0.3-0.1-0.4c-0.1-0.1-0.2-0.2-0.3-0.3c-0.1-0.1-0.3-0.2-0.4-0.2
		c-0.2-0.1-0.3-0.1-0.5-0.2L54,87.7c-0.2-0.1-0.4-0.2-0.6-0.3c-0.2-0.1-0.4-0.3-0.5-0.4c-0.2-0.2-0.3-0.4-0.4-0.6
		c-0.1-0.2-0.1-0.5-0.1-0.8c0-0.3,0.1-0.6,0.2-0.9c0.1-0.3,0.3-0.5,0.6-0.7c0.2-0.2,0.5-0.4,0.9-0.5c0.3-0.1,0.7-0.2,1.1-0.2
		c0.5,0,0.9,0.1,1.4,0.3c0.4,0.2,0.8,0.4,1.1,0.7l-0.7,0.9c-0.3-0.2-0.5-0.4-0.8-0.5c-0.3-0.1-0.6-0.2-1-0.2c-0.4,0-0.7,0.1-0.9,0.2
		s-0.3,0.4-0.3,0.7c0,0.2,0,0.3,0.1,0.4c0.1,0.1,0.2,0.2,0.3,0.3s0.3,0.2,0.4,0.2c0.2,0.1,0.3,0.1,0.5,0.2l1,0.4
		c0.2,0.1,0.5,0.2,0.7,0.3s0.4,0.3,0.5,0.4s0.3,0.4,0.4,0.6c0.1,0.2,0.1,0.5,0.1,0.8c0,0.3-0.1,0.6-0.2,0.9
		c-0.1,0.3-0.3,0.5-0.6,0.7s-0.6,0.4-0.9,0.5C55.7,91.5,55.3,91.5,54.9,91.5z"/>
	<path d="M62.1,91.5c-0.9,0-1.5-0.3-2-0.8c-0.5-0.5-0.7-1.3-0.7-2.4v-4.8h1.4v5c0,0.6,0.1,1.1,0.4,1.4c0.2,0.3,0.6,0.4,1,0.4
		c0.4,0,0.8-0.1,1-0.4s0.4-0.8,0.4-1.4v-5h1.3v4.8c0,1.1-0.2,1.9-0.7,2.4C63.6,91.3,62.9,91.5,62.1,91.5z"/>
	<path d="M65.9,91.4l2.5-7.8h1.6l2.5,7.8h-1.5l-0.6-2.1h-2.6l-0.6,2.1H65.9z M68.5,87.2l-0.3,1h2l-0.3-1c-0.1-0.4-0.2-0.8-0.3-1.3
		c-0.1-0.4-0.2-0.9-0.3-1.3h0c-0.1,0.4-0.2,0.9-0.3,1.3C68.7,86.4,68.6,86.8,68.5,87.2z"/>
	<path d="M74.3,91.4v-7.8h1.4v6.7h3.7v1.2H74.3z"/>
</g>
</svg>
