<?xml version="1.0" encoding="utf-8"?>
<!-- Generator: Adobe Illustrator 24.3.0, SVG Export Plug-In . SVG Version: 6.00 Build 0)  -->
<svg version="1.1" id="Layer_1" xmlns="http://www.w3.org/2000/svg" xmlns:xlink="http://www.w3.org/1999/xlink" x="0px" y="0px"
	 viewBox="0 0 120 100" style="enable-background:new 0 0 120 100;" xml:space="preserve">
<style type="text/css">
	.st0{enable-background:new    ;}
</style>
<g id="Layer_2_1_">
	<g id="Layer_4">
		<g id="expanded">
			<path d="M66.1,43.1C66.1,43,66.1,43,66.1,43.1c0.1-0.1,0.1,0,0.1,0c0,0,0,0,0,0l-0.1,0.3L66.1,43.1z M66.2,42.9l0.1-0.3
				c0,0,0-0.1-0.1-0.1s-0.1,0-0.1,0.1c0,0,0,0,0,0L66.2,42.9z M66.2,43.7l0.1-0.3c0,0,0-0.1-0.1-0.1s-0.1,0-0.1,0.1c0,0,0,0,0,0
				L66.2,43.7z M66.2,42.9L66.2,42.9L66.2,42.9z M66.1,44.2L66.1,44.2L66.1,44.2z M66.2,44.2l0.1-0.3c0,0,0-0.1-0.1-0.1
				s-0.1,0-0.1,0.1c0,0,0,0,0,0L66.2,44.2z M66.2,44.2L66.2,44.2L66.2,44.2z M66.2,52.4l0.1,0.3l0.1-0.3
				C66.3,52.4,66.3,52.3,66.2,52.4L66.2,52.4C66.3,52.3,66.2,52.4,66.2,52.4C66.2,52.4,66.2,52.4,66.2,52.4L66.2,52.4z M66.3,54.4
				C66.2,54.4,66.2,54.4,66.3,54.4L66.3,54.4l0,0.3L66.3,54.4C66.4,54.5,66.3,54.4,66.3,54.4C66.3,54.4,66.3,54.4,66.3,54.4
				L66.3,54.4z M66.3,54C66.2,54,66.2,54,66.3,54L66.3,54v0.3V54C66.4,54,66.3,54,66.3,54C66.3,54,66.3,54,66.3,54L66.3,54z
				 M66.2,40.5C66.2,40.5,66.2,40.5,66.2,40.5c-0.1-0.1-0.1-0.1-0.1,0c0,0,0,0,0,0l0.1,0.3L66.2,40.5z M66.2,44.3
				C66.1,44.3,66.1,44.3,66.2,44.3L66.2,44.3l0,0.3L66.2,44.3C66.2,44.3,66.2,44.3,66.2,44.3L66.2,44.3L66.2,44.3z M66.2,42.9
				L66.2,42.9L66.2,42.9z M66.2,46.4C66.2,46.4,66.2,46.4,66.2,46.4L66.2,46.4v0.3V46.4C66.3,46.4,66.3,46.4,66.2,46.4L66.2,46.4
				L66.2,46.4z M66.1,40.4L66.1,40.4L66.1,40.4z M66.2,40.1C66.2,40.1,66.1,40.1,66.2,40.1L66.2,40.1c-0.1-0.1-0.1,0-0.1,0l0,0
				l0.1,0.3L66.2,40.1z M66.2,44.7V45l0.1-0.3C66.3,44.7,66.3,44.7,66.2,44.7L66.2,44.7C66.2,44.7,66.2,44.7,66.2,44.7L66.2,44.7
				L66.2,44.7z M66.1,41.8l0.1,0.3l0.1-0.3C66.2,41.8,66.2,41.7,66.1,41.8C66.1,41.7,66.1,41.8,66.1,41.8
				C66.1,41.8,66.1,41.8,66.1,41.8z M66.1,40.4L66.1,40.4L66.1,40.4z M66.2,45.1C66.2,45.1,66.2,45.2,66.2,45.1L66.2,45.1l-0.1,0.3
				L66.2,45.1C66.3,45.2,66.3,45.1,66.2,45.1L66.2,45.1L66.2,45.1z M66.2,47.2C66.2,47.2,66.2,47.2,66.2,47.2L66.2,47.2v0.3V47.2
				C66.3,47.2,66.3,47.2,66.2,47.2C66.2,47.2,66.2,47.2,66.2,47.2z M66.1,40.4L66.1,40.4L66.1,40.4z M66.1,40.4L66.1,40.4L66.1,40.4
				z M66.2,46.7L66.2,46.7L66.2,46.7z M66.2,46.7L66.2,46.7L66.2,46.7z M66.2,46.8C66.2,46.8,66.2,46.8,66.2,46.8L66.2,46.8
				c-0.1,0.2-0.1,0.3,0,0.3C66.3,47,66.3,47,66.2,46.8C66.3,46.8,66.3,46.8,66.2,46.8L66.2,46.8z M66.2,45.5
				C66.2,45.5,66.2,45.6,66.2,45.5L66.2,45.5v0.3V45.5C66.3,45.6,66.3,45.5,66.2,45.5L66.2,45.5z M66.2,45.9
				C66.2,45.9,66.2,46,66.2,45.9L66.2,45.9v0.3V45.9C66.3,46,66.3,45.9,66.2,45.9L66.2,45.9z M66.3,53.6
				C66.2,53.6,66.2,53.6,66.3,53.6L66.3,53.6v0.3V53.6C66.3,53.6,66.3,53.6,66.3,53.6L66.3,53.6z M66.2,42.1
				C66.1,42.1,66.1,42.1,66.2,42.1L66.2,42.1l0,0.3L66.2,42.1C66.2,42.2,66.2,42.1,66.2,42.1C66.2,42.1,66.2,42.1,66.2,42.1
				L66.2,42.1z M66.2,59.2C66.2,59.1,66.1,59.1,66.2,59.2L66.2,59.2c-0.1-0.1-0.1,0-0.1,0l0,0l0.1,0.3L66.2,59.2z M66,61.6
				C66,61.6,66,61.6,66,61.6L66,61.6V62V61.6C66.1,61.7,66.1,61.6,66,61.6C66,61.6,66,61.6,66,61.6L66,61.6z M66,62.1
				C66,62,66,62,66,62.1c-0.1-0.1-0.1,0-0.1,0c0,0,0,0,0,0l0,0h-0.2c0,0.1,0,0.1,0,0.1h0.2l0,0.1l0-0.1h0c0,0,0.1,0,0-0.1l0,0
				L66,62.1L66,62.1z M66.1,59L66.1,59L66.1,59z M66,61.5L66,61.5L66,61.5z M66.2,57.9C66.2,57.8,66.2,57.8,66.2,57.9
				c-0.1-0.1-0.1,0-0.1,0c0,0,0,0,0,0l0.1,0.3L66.2,57.9z M66.3,53.1C66.2,53.1,66.2,53.2,66.3,53.1L66.3,53.1v0.3V53.1
				C66.3,53.2,66.3,53.1,66.3,53.1C66.3,53.2,66.3,53.2,66.3,53.1L66.3,53.1z M66.2,58.8C66.2,58.7,66.2,58.7,66.2,58.8
				c-0.1-0.1-0.1-0.1-0.1,0c0,0,0,0,0,0l0.1,0.3L66.2,58.8z M66,60.3C66,60.3,66,60.4,66,60.3L66,60.3v0.3V60.3
				C66.1,60.4,66.1,60.3,66,60.3C66,60.4,66,60.4,66,60.3L66,60.3z M66,60C66,60,66,60,66,60L66,60v0.3V60C66.1,60,66.1,60,66,60
				L66,60z M66.1,59.5C66.1,59.5,66,59.5,66.1,59.5L66.1,59.5l0,0.3L66.1,59.5C66.2,59.5,66.1,59.5,66.1,59.5L66.1,59.5z M66.1,61.5
				L66.1,61.5L66.1,61.5z M66,61.2C66,61.2,66,61.3,66,61.2L66,61.2v0.3V61.2C66.1,61.3,66.1,61.2,66,61.2C66,61.2,66,61.2,66,61.2
				L66,61.2z M66,60.8C66,60.8,66,60.8,66,60.8L66,60.8v0.3V60.8C66.1,60.8,66.1,60.8,66,60.8C66,60.8,66,60.8,66,60.8L66,60.8z
				 M66.2,58.3C66.2,58.3,66.1,58.2,66.2,58.3c-0.1-0.1-0.1-0.1-0.1,0c0,0,0,0,0,0l0.1,0.3L66.2,58.3z M66.3,51.5
				C66.3,51.5,66.2,51.5,66.3,51.5L66.3,51.5c-0.1-0.1-0.1,0-0.1,0l0,0l0.1,0.3L66.3,51.5z M66.3,52C66.3,51.9,66.2,51.9,66.3,52
				L66.3,52c-0.1-0.1-0.1,0-0.1,0l0,0l0.1,0.3L66.3,52z M66.3,55L66.3,55c0-0.1,0-0.2-0.1-0.2l0,0c0,0-0.1,0-0.1,0.1l0,0V55
				c0,0.1,0,0.1,0.1,0.2C66.2,55.2,66.3,55.1,66.3,55L66.3,55z M66.3,52.8C66.2,52.8,66.2,52.8,66.3,52.8L66.3,52.8v0.3V52.8
				C66.3,52.8,66.3,52.8,66.3,52.8L66.3,52.8L66.3,52.8z M66.3,50.7C66.3,50.6,66.3,50.6,66.3,50.7c-0.1-0.1-0.1,0-0.1,0l0,0
				l0.1,0.3L66.3,50.7z M66.3,51.1C66.3,51.1,66.3,51.1,66.3,51.1L66.3,51.1c-0.1-0.1-0.1,0-0.1,0l0,0l0.1,0.3L66.3,51.1z M66.2,57
				C66.2,57,66.2,57,66.2,57c-0.1-0.1-0.1,0-0.1,0c0,0,0,0,0,0l0.1,0.3L66.2,57z M66.2,57.5C66.2,57.5,66.2,57.4,66.2,57.5
				c-0.1-0.1-0.1,0-0.1,0c0,0,0,0,0,0l0.1,0.3L66.2,57.5z M66.2,57.8L66.2,57.8L66.2,57.8z M66.3,55.3
				C66.3,55.3,66.3,55.3,66.3,55.3L66.3,55.3c-0.1-0.1-0.1,0-0.1,0l0,0l0.1,0.3L66.3,55.3z M66.2,57.7L66.2,57.7L66.2,57.7z
				 M66.2,56.5C66.2,56.5,66.2,56.6,66.2,56.5L66.2,56.5l-0.1,0.3L66.2,56.5C66.3,56.6,66.3,56.5,66.2,56.5L66.2,56.5L66.2,56.5z
				 M66.3,55.8C66.3,55.7,66.3,55.7,66.3,55.8L66.3,55.8c-0.1-0.1-0.1,0-0.1,0l0,0l0.1,0.3L66.3,55.8z M66.3,56.2
				C66.3,56.2,66.3,56.2,66.3,56.2L66.3,56.2c-0.1-0.1-0.1,0-0.1,0l0,0l0.1,0.3L66.3,56.2z M66.1,59L66.1,59L66.1,59z M66,26.9
				C65.9,26.9,65.9,26.9,66,26.9L66,26.9l0,0.3L66,26.9C66,26.9,66,26.9,66,26.9L66,26.9z M66,25.2C65.9,25.2,65.9,25.2,66,25.2
				L66,25.2v0.3V25.2C66,25.2,66,25.2,66,25.2L66,25.2L66,25.2z M66,27.2L66,27.2L66,27.2z M66,26C65.9,26,65.9,26.1,66,26L66,26
				v0.3V26C66,26.1,66,26,66,26L66,26L66,26z M66,26.4C65.9,26.4,65.9,26.5,66,26.4L66,26.4l0,0.3L66,26.4C66,26.5,66,26.4,66,26.4
				L66,26.4L66,26.4z M66,27.2L66,27.2L66,27.2z M66,32.9C66,32.9,66,32.8,66,32.9c-0.1-0.1-0.1,0-0.1,0c0,0,0,0,0,0l0.1,0.3
				L66,32.9z M66,32C66,32,66,32,66,32c-0.1-0.1-0.1,0-0.1,0c0,0,0,0,0,0l0.1,0.3L66,32z M66,32.5C66,32.4,66,32.4,66,32.5
				c-0.1-0.1-0.1,0-0.1,0c0,0,0,0,0,0l0.1,0.3L66,32.5z M66,33.7C66,33.7,66,33.7,66,33.7c-0.1-0.1-0.1,0-0.1,0l0,0l0.1,0.3L66,33.7
				z M66,33.3C66,33.3,66,33.2,66,33.3c-0.1-0.1-0.1,0-0.1,0c0,0,0,0,0,0l0.1,0.3L66,33.3z M66,25.6C65.9,25.6,65.9,25.7,66,25.6
				L66,25.6V26V25.6C66,25.7,66,25.6,66,25.6L66,25.6L66,25.6z M66,21.4C66,21.4,66,21.4,66,21.4c-0.1-0.1-0.1,0-0.1,0c0,0,0,0,0,0
				l0.1,0.3L66,21.4z M66,23.6C66,23.5,66,23.5,66,23.6c-0.1-0.1-0.1,0-0.1,0c0,0,0,0,0,0l0.1,0.3L66,23.6z M66,23.2
				C66,23.1,66,23.1,66,23.2c-0.1-0.1-0.1,0-0.1,0c0,0,0,0,0,0l0.1,0.3L66,23.2z M66,24.8C66,24.8,65.9,24.8,66,24.8L66,24.8
				c-0.1-0.1-0.1,0-0.1,0l0,0l0.1,0.3L66,24.8z M66,24C66,23.9,65.9,23.9,66,24L66,24c-0.1-0.1-0.1,0-0.1,0l0,0l0.1,0.3L66,24z
				 M66,22.1L66,22.1L66,22.1z M66,22.7C66,22.6,66,22.6,66,22.7c-0.1-0.1-0.1,0-0.1,0l0,0L66,23L66,22.7z M66,21.9
				C66.1,21.9,66,21.8,66,21.9c-0.1-0.1-0.1,0-0.1,0c0,0,0,0,0,0l0.1,0.3L66,21.9z M66,22.2L66,22.2L66,22.2z M66,22.3
				C66.1,22.3,66,22.2,66,22.3c-0.1-0.1-0.1,0-0.1,0c0,0,0,0,0,0l0.1,0.3L66,22.3z M66,24.5L66,24.5c0-0.1,0-0.1-0.1-0.1l0,0
				c0,0-0.1,0-0.1,0.1l0,0v0.1c0,0.1,0,0.1,0.1,0.2C65.9,24.6,66,24.6,66,24.5L66,24.5L66,24.5z M66,31.6C66.1,31.6,66,31.6,66,31.6
				c-0.1-0.1-0.1,0-0.1,0c0,0,0,0,0,0l0.1,0.3L66,31.6z M66,34.5C66,34.5,66,34.5,66,34.5L66,34.5L66,34.7c0,0.1,0,0.1,0.1,0.2
				c0-0.1,0-0.2,0.1-0.2L66,34.5C66.1,34.5,66.1,34.5,66,34.5L66,34.5L66,34.5z M66,34.9C66,34.9,66,34.9,66,34.9L66,34.9v0.3V34.9
				C66.1,35,66.1,34.9,66,34.9L66,34.9L66,34.9z M66,35.4C66,35.4,66,35.4,66,35.4L66,35.4v0.3V35.4C66.1,35.4,66.1,35.4,66,35.4
				L66,35.4L66,35.4z M66,30.4C66.1,30.3,66,30.3,66,30.4c-0.1-0.1-0.1,0-0.1,0c0,0,0,0,0,0l0.1,0.3L66,30.4z M66,30.6L66,30.6
				L66,30.6z M66,31.2C66.1,31.1,66,31.1,66,31.2c-0.1-0.1-0.1,0-0.1,0c0,0,0,0,0,0l0.1,0.3L66,31.2z M66,30.8
				C66.1,30.7,66,30.7,66,30.8c-0.1-0.1-0.1,0-0.1,0c0,0,0,0,0,0l0.1,0.3L66,30.8z M65.9,30.6L65.9,30.6L65.9,30.6z M66,34.2
				l0.1,0.3l0.1-0.3C66.1,34.1,66.1,34.1,66,34.2L66,34.2C66,34.1,66,34.1,66,34.2C66,34.2,66,34.2,66,34.2L66,34.2z M66,37.1
				C66,37.1,66,37.1,66,37.1L66,37.1v0.3V37.1C66.1,37.1,66.1,37.1,66,37.1C66,37.1,66,37.1,66,37.1L66,37.1z M66,37L66,37L66,37z
				 M66.2,41.4C66.2,41.4,66.2,41.3,66.2,41.4c-0.1-0.1-0.1-0.1-0.1,0c0,0,0,0,0,0l0.1,0.3L66.2,41.4z M66.2,40.9
				C66.2,40.9,66.2,40.9,66.2,40.9c-0.1-0.1-0.1-0.1-0.1,0c0,0,0,0,0,0l0.1,0.3L66.2,40.9z M66,35.8C66,35.8,66,35.8,66,35.8
				L66,35.8v0.3V35.8C66.1,35.8,66.1,35.8,66,35.8C66,35.8,66,35.8,66,35.8L66,35.8z M66.1,35.7L66.1,35.7L66.1,35.7z M66,36.2
				C66,36.2,66,36.2,66,36.2L66,36.2v0.3V36.2C66.1,36.2,66.1,36.2,66,36.2C66,36.2,66,36.2,66,36.2L66,36.2z M66.1,35.7L66.1,35.7
				L66.1,35.7z M66,36.7C66,36.7,66,36.7,66,36.7L66,36.7V37V36.7C66.1,36.7,66.1,36.7,66,36.7C66,36.6,66,36.6,66,36.7L66,36.7z
				 M65.9,31.9L65.9,31.9L65.9,31.9z M66,37L66,37L66,37z M66,31.9L66,31.9L66,31.9z M82.4,72.6C82.4,72.6,82.4,72.7,82.4,72.6
				L82.4,72.6c0,0.1,0,0.1,0,0.1c0,0.1-0.1,0.1-0.1,0.1l0,0c0,0,0,0,0,0c-0.1,0-0.1,0.1-0.2,0.1l0,0c0,0,0,0,0,0l0,0
				c-0.1,0-0.1,0-0.2-0.1l0,0c-0.1-0.1-0.3-0.2-0.4-0.4c-1.9-1.6-4.6-1.5-7-1.4l-0.2,0h0c0,0-0.1,0-0.1,0l0,0c0,0-0.1,0-0.1-0.1l0,0
				c0,0,0,0,0,0l0,0c-0.1-0.1-0.1-0.2-0.1-0.3l0,0c0,0,0-0.1,0-0.1c0-0.1,0.1-0.2,0.1-0.2c0.2-0.7,0.4-1.4,0.6-2.1
				c0.2-0.8,0.4-1.5,0.6-2.3c-0.1-0.1-0.1-0.1-0.2-0.2c-0.1-0.1-0.2-0.3-0.6-0.3c-0.2-0.1-0.4-0.1-0.6-0.1c-0.4,0-0.7,0-1.1-0.1
				c-1.4-0.2-5.5-0.5-7.8-0.7c-2.4-0.2-15,0.4-16.7,0.7c-1,0.1-1.4,0.4-1.6,0.5l0,0c0,0,0,0.1,0,0.1c0.5,2.3,1,4.4,0.7,6.8
				c0,0.2-0.2,0.3-0.3,0.3c0,0-0.1,0-0.1-0.1c-0.8-0.6-2-1.1-5.2-0.4c-0.2,0.1-0.5,0.1-0.7,0.1c-1,0.2-2,0.4-2.9,0.9
				c0,0-0.1,0-0.2,0c-0.2,0-0.3-0.1-0.3-0.3c0,0,0,0,0,0c0.1-2.3,0.1-4.6,0.1-6.8c0-1.8,0-3.5,0.1-5.3c0-1.3,0.1-2.6,0.1-3.8
				c0.1-2.5,0.2-5.2,0.4-7.7c0.3-5.5,1-10.9,1.6-16.2c0.3-2.8,0.7-5.7,0.9-8.6c0,0,0,0,0,0c0.1-0.3,0.2-0.6,0.2-0.9s0.2-0.6,0.2-0.9
				c0,0,0,0,0-0.1c0.6-1.1,1.2-2.1,2-3.1l0,0c0.7-0.7,1.6-1,2.4-1.3c0.5-0.2,1-0.4,1.5-0.6c-0.1-0.3-0.1-0.5,0-0.5l0,0
				c-0.1-0.1-0.1-0.2-0.2-0.3c0,0,0,0,0-0.1l0-0.2c-0.3-1.6-0.8-3.8,0.8-4.9l0,0c0.1-0.1,0.2-0.1,0.3-0.1c2.2-1.3,4.6-1.6,6.9-1.6
				c0-0.1,0-0.2,0-0.3c0-0.2,0.1-0.4,0.3-0.5c0,0,0-0.1,0.1-0.1c0.7-0.5,1.2-0.4,1.4-0.4l0.1,0c2.1-0.1,3.8,0,5.7,0.1
				c0.5,0,1,0,1.5,0.1c0.7,0,1.5,0.1,2.2,0.4c0.1,0,0.2,0.1,0.2,0.3c0,0,0.1,0,0.1,0c0.2,0,0.3,0.2,0.4,1c0.1,0,0.1,0,0.2,0
				c1.2,0.2,2.3,0.5,3.5,0.8c0.2,0,0.3,0.1,0.5,0.1c0.8,0.2,1.8,0.5,2.5,1.1c0.2,0.1,0.3,0.3,0.4,0.4c0,0,0,0,0,0.1
				c0.1,0.1,0.1,0.1,0.1,0.2c0.8,1.5-0.1,4-0.5,4.8l0.1,0c1.3,0.5,2.6,1.1,3.6,2.2c1.1,1.2,1.5,2.7,1.9,4.1c0.1,0.2,0.1,0.5,0.2,0.7
				c0,0,0,0,0,0c0.4,2.2,0.8,4.5,1,6.7c0.2,1.1,0.3,2.2,0.5,3.3c0,0,0,0,0,0c0,0.2,0.1,0.8,0.2,1.4c0.1,0.6,0.2,1.2,0.2,1.5
				c0.3,3.5,0.5,7.2,0.7,10.7l0,0.5c0.2,3.9,0.2,7.9,0.2,11.7C82.2,64.7,82.2,68.7,82.4,72.6z M81.8,67.9L81.8,67.9L81.8,67.9z
				 M79.5,29.4c-0.2,0-0.3,0.1-0.5,0.2l0.2-0.1L79.5,29.4L79.5,29.4z M78.7,28.9C78.7,28.9,78.7,29,78.7,28.9L78.7,28.9
				c0.2,0,0.4,0,0.6,0l0-0.5c0,0,0-0.1-0.1-0.1l0,0l0,0L79,28.4l-0.1,0l0-0.1l-0.1,0c0,0,0,0,0.1-0.1c0,0-0.1-0.1-0.1-0.1l-0.1,0.2
				l-0.1,0C78.6,28.5,78.7,28.7,78.7,28.9L78.7,28.9z M78.7,28.1l0,0.2C78.8,28.3,78.8,28.2,78.7,28.1
				C78.8,28.1,78.8,28.1,78.7,28.1L78.7,28.1z M78.9,28L78.9,28l-0.1-0.2L78.9,28z M79,27.9l0,0.2l0.1,0c0,0,0,0,0,0l0.1,0l0.1-0.1
				L79.2,28L79,27.9z M79.1,27.5L79,27.3c0.1,0.1,0.1,0.2,0.1,0.3L79.1,27.5z M79.2,28.1L79.2,28.1C79.3,28.2,79.3,28.2,79.2,28.1
				L79.2,28.1z M79.2,27.4C79.2,27.4,79.1,27.3,79.2,27.4L79.2,27.4L79.2,27.4z M79.7,28.3L79.7,28.3L79.7,28.3z M79,26.7
				c-0.5,0.3-0.8,0.8-0.7,1.4c0,0.5,0.1,1.4,0.2,1.6c0.1,0.1,0.1,0.2,0.1,0.2c0.1,0.2,0.2,0.4,0.4,0.4c0.1,0,0.2,0,0.5-0.2
				c0-0.1,0-0.3-0.1-0.4c-0.1,0.1-0.2,0.2-0.4,0.1c-0.1,0-0.2-0.1-0.1-0.2l0,0l-0.1-0.1c0.1-0.2,0.3-0.3,0.5-0.4c0,0,0,0,0-0.1
				c-0.1,0-0.3,0.1-0.4,0.2l-0.2,0.1c-0.1-0.2-0.2-0.4-0.2-0.8c0-0.3,0-0.6,0-1l0.2,0l-0.1-0.3l0-0.1c0.1,0.2,0.2,0.4,0.2,0.4l0.1,0
				l-0.2-0.5c0-0.1,0.1-0.1,0.1-0.1l0.1,0.2l0-0.2h0L79,26.7z M73.7,15.2c0-0.2,0-0.4,0.1-0.5c-0.2,0.5-0.5,0.9-0.8,1.4l-0.1,0.1
				c-0.4,0.6-0.9,1.1-3.1,1.4c-1.8,0.3-2.4,0.5-2.6,0.6c0.1,0,0.1,0.1,0.2,0.2c0.3-0.1,0.7-0.2,1.5-0.3c0.6-0.1,1-0.2,1.4-0.2
				c0.8-0.2,1.4-0.3,1.9,0.1c0.3,0.2,0.5,0.2,0.5,0.2c0,0,0.1-0.1,0.2-0.2C73,17.6,73.6,16.4,73.7,15.2z M67.4,62.1L67.4,62.1
				L67.4,62.1z M66.8,38.8c0-0.5-0.4-0.9-0.9-0.9S65,38.3,65,38.8s0.4,0.9,0.9,0.9S66.8,39.3,66.8,38.8L66.8,38.8L66.8,38.8z
				 M66.1,29.5c0.4,0,0.8-0.4,0.8-0.8c0-0.5-0.4-0.8-0.8-0.8c-0.4,0-0.8,0.4-0.8,0.8l0,0C65.2,29.1,65.6,29.5,66.1,29.5L66.1,29.5z
				 M62.6,18.2c1.1-0.1,2.9-0.2,3.6-0.3c0,0,0-0.1,0-0.1c0-0.8,0-2.2,0-2.4c-0.1-0.4,0.1-2.3,0.2-2.9c0.1-0.4,0-1.4-0.1-2
				c-0.4,0.3-0.8,0.6-1.2,0.9c-0.8,0.5-1.8,1.1-2.3,1.3c-0.4,0.1-0.5,0.3-0.6,0.4s0,0.2,0.1,0.4c0.2,0.4,0.8,3.2,0.9,3.5
				c0,0.1,0,0.2,0,0.2c0,0.1-0.1,0.1-0.2,0.1c-0.3,0.1-0.6,0.2-0.6,0.3c0,0.1,0.1,0.4,0.2,0.6c0,0,0,0,0,0L62.6,18.2z M66.8,17.7
				c0.3-0.2,1-0.5,2.9-0.8c1-0.1,1.6-0.3,2-0.5c-0.2-0.1-0.7-0.2-1.1-0.3c-0.4-0.1-0.9-0.2-1.4-0.4c-0.4-0.1-0.9-0.2-1.4-0.3
				c-0.3-0.1-0.7-0.1-1-0.2C66.8,15.7,66.8,17.4,66.8,17.7z M67,11L67,11c0,0.5,0,1,0,1.5c-0.1,0.6-0.2,1.8-0.2,2.4l0.1-0.2
				c0.2,0.1,0.6,0.1,1,0.2c0.5,0.1,1,0.2,1.4,0.3c0.5,0.1,0.9,0.2,1.3,0.4c0.7,0.2,1.2,0.3,1.5,0.5c0.1-0.1,0.1-0.1,0.2-0.2l0.1-0.1
				c1.1-1.5,1.2-2.1,1.1-2.4c-0.1-0.2-0.2-0.3-0.4-0.4c-0.6-0.5-1.4-0.7-2.3-0.9c-0.2-0.1-0.3-0.1-0.5-0.1
				C69.3,11.4,68.1,11.2,67,11z M56.5,9.2c0,0,0,0.1,0,0.1c0,0.1,0,0.1,0,0.2c0.1,0.2,0.3,0.4,0.5,0.6c0.1,0.1,0.3,0.3,0.5,0.5
				c1,1,1.8,1.8,2,2.3c0.2,0.6,0.1,1.4-0.2,2.4c-0.2,0.8-0.4,1.8-0.1,2.2c0.1,0.2,0.2,0.4,0.3,0.6c0,0,0.1,0,0.2,0
				c0,0,1.1,0.1,2.2,0.1c-0.1-0.2-0.2-0.5-0.1-0.8c0.1-0.3,0.5-0.5,0.8-0.6c-0.3-1.2-0.7-2.8-0.8-3.1c-0.1-0.3-0.2-0.6,0-0.9
				c0.1-0.3,0.5-0.5,1-0.7c0.9-0.3,3-1.8,3.6-2.3c0,0-0.1,0-0.1,0c-0.6-0.2-1.2-0.3-2-0.3c-0.5,0-1,0-1.5-0.1
				c-1.9-0.1-3.6-0.1-5.7-0.1c0,0-0.1,0-0.1,0C56.6,9.2,56.6,9.2,56.5,9.2z M54.7,16.8c0-0.4,0.1-0.9,0.2-1.4c0-0.2,0-0.4,0-0.6
				c-0.4,0.1-0.9,0.2-1.2,0.3c-0.6,0.2-1.2,0.3-1.8,0.3c0.8,0.6,1.4,1.3,1.9,1.8l0.1,0.1c0.2,0.2,0.4,0.5,0.5,0.7l0-0.1
				C54.5,17.6,54.6,17.2,54.7,16.8L54.7,16.8z M55.5,16.5c0.2,0.2,0.9,0.5,1.3,0.7c0.7,0.3,1.2,0.5,1.5,0.8c0.2,0.3,0.4,0.5,0.7,0.6
				c0-0.1,0-0.3-0.3-0.8c-0.5-0.7-0.2-2.1,0-2.8c0.3-0.9,0.4-1.6,0.2-2c-0.1-0.4-1.3-1.5-1.8-2c-0.2-0.2-0.4-0.4-0.5-0.5
				c-0.5-0.6-0.6-0.8-0.7-1c-0.1,0-0.1,0-0.2,0c0,0,0,0-0.1,0.1C55.6,10.3,55.5,14.3,55.5,16.5L55.5,16.5z M55,10.6
				c-2.3,0-4.6,0.3-6.7,1.6l0,0c-0.2,0.5-0.1,1,0.3,1.5c0.6,0.8,1.7,1.1,1.7,1.1l0,0c0.1,0,0.2,0.1,0.4,0.1c0.6,0.1,1.5,0,2.8-0.3
				c0.4-0.1,1-0.3,1.4-0.4C54.9,12.9,54.9,11.5,55,10.6L55,10.6z M47.6,16.5L47.6,16.5c0.1,0.1,0.1,0.1,0.2,0.2
				c0.2,0.4,0.3,0.5,1.3,0.2c0.8-0.3,1.9-0.7,2.4-0.9c-0.3-0.2-0.6-0.4-0.9-0.5c-0.3,0-0.6-0.1-0.9-0.3c0,0-0.1,0-0.1-0.1
				c-0.5-0.2-1.1-0.5-1.5-1.1c-0.2-0.3-0.4-0.7-0.5-1.1C47,13.9,47.3,15.2,47.6,16.5z M38.1,70.5L38.1,70.5L38.1,70.5z M38.1,69.8
				L38.1,69.8L38.1,69.8z M38.1,70.9L38.1,70.9L38.1,70.9z M38.1,71.7L38.1,71.7L38.1,71.7z M38.1,69.4L38.1,69.4L38.1,69.4z
				 M54.5,64.2c0-2,0-4-0.1-6c0,0,0-0.1,0-0.1c0-2.4,0-4.8-0.1-7.2c0-2.2,0-4.4-0.1-6.6c0-2.2-0.3-4.3-0.6-6.4
				c-0.5-4.3-0.5-8.7-0.7-13c-0.8,0.5-1.9,0.7-2.8,1c-1.3,0.5-2.4,1.3-3.4,2.2c0,0,0,0,0,0v0c0.1,0.2,0.1,0.3,0.2,0.4
				c0,0.1,0.1,0.3,0.2,0.4c0.2,0.5,0.6,1.3,0.5,2c0,0.3-0.1,0.8-0.2,1.4c-0.2,1-0.4,2.3-0.4,3.3c0,0.8-0.1,2.2-0.2,3.5
				c0,1-0.1,1.9-0.1,2.3c0,0.2,0,0.6,0,1c0.1,1.1,0.2,2.9,0,4.5c-0.2,2.2-0.6,6.7-0.6,8.3v7.8c0,0,0,0,0,0c-0.1,0.9,0,1.7,0,2l0,0
				c0.2-0.2,0.7-0.4,1.8-0.6C48.8,64.5,51.5,64.3,54.5,64.2L54.5,64.2z M64.9,63.9c0.7,0,1.5,0.1,2.3,0.2c0-0.2,0-0.9,0-1.9H67
				c-0.1,0-0.1,0,0-0.1h0.2c0,0,0,0,0,0c0-3.3,0-9.5,0-11.2c0-0.3,0-0.6,0-1.1c-0.2,0.3-0.6,0.6-0.9,0.6l0,0.2l0-0.2h0
				c-0.7,0-1.2-0.5-1.3-1.2s0.5-1.2,1.2-1.3c0,0,0.1,0,0.1,0h0.1l0-0.2c0,0,0-0.1,0.1-0.1l0,0c0,0,0.1,0,0.1,0.1l0,0l0,0.2
				c0.4,0,0.7,0.2,0.9,0.6c0-2.5-0.1-6.2-0.2-9c-0.4,0.6-1.1,0.8-1.7,0.4s-0.8-1.1-0.4-1.7c0.2-0.4,0.6-0.6,1.1-0.6c0,0,0.1,0,0.1,0
				l0,0c0,0,0-0.1,0.1-0.1l0,0c0,0,0.1,0,0.1,0.1l0,0l0,0c0.3,0,0.6,0.2,0.8,0.5c0-0.6-0.1-1.1-0.1-1.5c-0.1-1.2-0.1-3.9,0-6.9
				c-0.2,0.1-0.4,0.2-0.7,0.2H66c0,0,0,0,0,0.1L66,30.2l-0.1-0.3c0,0,0,0,0-0.1c-0.7-0.1-1.1-0.6-1.1-1.3c0.1-0.6,0.5-1,1.1-1.1
				l0-0.1c0,0,0-0.1,0.1-0.1c0,0,0.1,0,0.1,0.1c0,0,0,0,0,0l0,0.1h0.1c0.3,0,0.5,0.1,0.7,0.2c0.1-3.1,0.2-6.1,0.3-7.6
				c-0.1,0.5-0.5,1-1.1,1l0,0.1l0-0.1h0c-0.7,0-1.2-0.5-1.2-1.2c0-0.6,0.5-1.2,1.2-1.2c0.6,0,1.2,0.5,1.2,1.1c0-0.4,0-0.6,0-0.7
				c0,0,0,0-0.1-0.1C67,19.1,67,19,67,18.9c-0.2-0.2-0.3-0.3-0.5-0.4c-0.5,0-2.6,0.2-3.8,0.3c-1,0-2.1,0-3.1,0c0,0,0,0,0,0
				c0,0.1,0,0.2-0.1,0.3c-0.1,0.2-0.2,0.3-0.4,0.3c-0.5,0-1.1-0.7-1.3-0.9c-0.1-0.2-0.8-0.5-1.2-0.6c-0.4-0.2-0.8-0.4-1.2-0.6
				c0,0.4-0.2,0.8-0.3,1.2c-0.1,0.1-0.1,0.3-0.2,0.5c0,0.1-0.1,0.1-0.2,0.2c0,0.1,0,0.1,0,0.2c-0.1,0.3-0.3,0.5-0.5,0.5
				c0,0-0.1,0-0.1,0c-0.2,0-0.3-0.1-0.3-0.3c0-0.1,0.1-0.3,0.2-0.3c0.1,0,0.1-0.1,0.1-0.1c0-0.2-0.1-0.6-0.6-1.2l-0.1-0.1
				c-0.4-0.5-0.8-0.9-1.3-1.3l0,0c-0.1,0-1.6,0.7-2.8,1.1c-0.3,0.1-0.7,0.2-1,0.2c0,0-0.1,0-0.1,0c0,0,0,0,0,0.1s0,0,0,0l0,0
				c0,0,0,0,0,0.1l0,0c0,0.1-0.1,0.1-0.1,0.1l0,0l0,0c-0.6,0.4-1.3,0.7-1.9,0.9c-0.8,0.3-1.6,0.5-2.2,1.2C43.1,21,42.4,22,41.9,23
				c-0.1,0.3-0.2,0.6-0.2,0.9s-0.2,0.6-0.2,0.9c-0.3,2.9-0.6,5.8-0.9,8.5c-0.6,5.3-1.2,10.7-1.6,16.2c-0.2,2.6-0.3,5.2-0.4,7.7
				c0,1.2-0.1,2.5-0.1,3.8c0,1.8,0,3.6-0.1,5.3c0,1.8,0,3.7-0.1,5.6l0,0c0.1,0.1,0.1,0.1,0,0.1l-0.1,0c0,0.2,0,0.4,0,0.6
				c0.8-0.4,1.7-0.6,2.6-0.7c0.2,0,0.5-0.1,0.7-0.1c1.7-0.3,3.5-0.6,5.2,0.3c0.1-1.1,0-2.2-0.1-3.3c0,0,0,0,0,0l-0.2,0
				c0,0,0-0.1,0-0.1l0,0l0.2,0c0,0,0,0,0,0c-0.2-0.9-0.4-1.8-0.6-2.7c0-0.1,0-0.1,0-0.2c0,0-0.1-0.1-0.1-0.1
				c-0.3-0.2-0.4-1.1-0.3-2.6v-7.8c0-1.7,0.3-6.2,0.6-8.4c0.2-1.6,0.1-3.3,0-4.4c0-0.4,0-0.8,0-1c0-0.4,0-1.3,0.1-2.4
				c0.1-1.3,0.1-2.7,0.1-3.5c0-1,0.2-2.3,0.4-3.4c0.1-0.6,0.2-1,0.2-1.4c0-0.6-0.2-1.2-0.5-1.7c-0.1-0.2-0.2-0.4-0.2-0.5
				c0-0.1-0.1-0.2-0.2-0.4c-0.2-0.5-0.5-1.2-0.5-2.1c0-0.2,0.1-0.3,0.3-0.3c0.2,0,0.3,0.1,0.3,0.3c0,0.5,0.1,1,0.3,1.5
				c0.9-0.8,1.9-1.5,3-2c0.5-0.3,1.1-0.5,1.7-0.7c0.6-0.2,1.3-0.3,1.8-0.8c0.2-0.2,0.4,0.1,0.3,0.3c0,0,0,0,0,0c0,0,0.1,0.1,0.1,0.1
				c0.1,2.5,0.2,5.1,0.3,7.6c0.1,2.2,0.2,4.3,0.5,6.5c0.3,2.1,0.5,4.2,0.5,6.4c0.1,4.5,0.1,8.9,0.1,13.3c0,0,0,0.1,0,0.1
				c0,1.3,0,2.5,0,3.8v0c0,0,0,0,0,0c0,0.6,0,1.1,0,1.7C59,63.9,63.6,63.8,64.9,63.9L64.9,63.9z M66.7,20c0-0.4-0.4-0.8-0.8-0.8
				c-0.4,0-0.8,0.4-0.8,0.8c0,0.4,0.4,0.8,0.8,0.8C66.3,20.8,66.7,20.4,66.7,20z M67,49.2c0-0.5-0.4-0.9-0.9-0.9
				c-0.5,0-0.9,0.4-0.9,0.9c0,0.5,0.4,0.9,0.9,0.9l0,0C66.6,50,67,49.6,67,49.2z M75.5,65.3c0.2-0.8,0.2-3.6,0.2-4.6
				c0-0.6-0.3-2.4-0.5-4.3c-0.4-3-0.9-6.4-0.8-7.7c0.2-2.4,0.2-4.8,0-7.1c-0.2-2.1-0.5-4.5-0.3-6.1c0.1-0.6-0.1-1.8-0.2-2.9
				c-0.2-2.1-0.4-3.5,0-4.1c0.1-0.2,0.3-0.5,0.5-0.8c-0.9-1.1-2.4-1.2-3.7-1.5c-1-0.3-2.4-0.7-3.2-1.6c-0.2,4.3-0.3,10-0.1,11.9
				c0.3,3.2,0.5,12,0.5,14.4c0,2.3,0,13.1,0,13.2c2,0.2,4,0.3,4.9,0.4c0.3,0.1,0.7,0.1,1,0.1c0.2,0,0.5,0,0.8,0.1
				C75.2,64.8,75.4,65.1,75.5,65.3z M81.7,71.9c0-0.4,0-0.7,0-1.1c0,0,0,0,0,0l-0.2,0c0,0,0-0.1,0-0.1l0,0l0.2,0
				c0-0.9-0.1-1.8-0.1-2.7c0,0,0,0,0,0l-0.2,0c0,0,0-0.1,0-0.1l0,0l0.2,0l0,0c-0.1-2.4-0.1-4.7-0.1-7c0-3.8-0.1-7.8-0.2-11.7l0-0.5
				c-0.2-3.5-0.3-7.2-0.7-10.7c0,0,0,0,0,0c0-0.2-0.1-0.8-0.2-1.4c-0.1-0.6-0.2-1.2-0.2-1.4c-0.2-1.1-0.3-2.2-0.5-3.3
				c-0.1-0.5-0.1-1-0.2-1.4c-0.1,0.1-0.3,0.1-0.4,0.1c-0.3,0-0.4-0.4-0.6-0.6c0-0.1,0-0.1-0.1-0.2c-0.2-0.3-0.3-1.5-0.3-1.6
				c-0.1-0.6,0.2-1.3,0.8-1.6l0,0c-0.1-0.4-0.2-0.8-0.2-1.3c-0.1-0.2-0.1-0.5-0.2-0.7c-0.4-1.4-0.8-2.7-1.8-3.9
				c-0.9-1-2.1-1.5-3.3-2l-0.2-0.1c-0.1,0.1-0.3,0.2-0.4,0.2c-0.3,0.1-0.6,0-1-0.3c-0.3-0.2-0.6-0.1-1.4,0c-0.4,0.1-0.9,0.2-1.5,0.3
				c-0.4,0-0.8,0.1-1.2,0.2c0.1,0.1,0.1,0.3,0,0.4c0,0.2-0.1,2.2-0.2,4.8c0.1,0,0.1,0,0.2,0.1c0.5,0.7,1.6,1,2.3,1.3
				c0.7,0.2,1.3,0.4,2,0.6c1,0.2,1.9,0.5,2.6,1.3c0.4-0.6,1.1-1.6,1.1-1.8c0-0.2,0.2-0.3,0.3-0.3c0.2,0,0.3,0.1,0.3,0.3
				c0,0.3-0.3,0.8-1.3,2.3c-0.2,0.4-0.5,0.7-0.6,1c-0.3,0.4-0.1,2.2,0.1,3.7c0.1,1.2,0.3,2.3,0.2,3c-0.2,1.6,0.1,3.9,0.3,6
				c0.2,2.4,0.2,4.8,0,7.3c-0.1,1.2,0.4,4.7,0.8,7.5c0.3,2,0.5,3.7,0.5,4.4c0,3.9-0.2,5-0.5,5.2c-0.1,0.4-0.2,0.8-0.3,1.1
				c0,0,0.1,0,0.1,0.1l0,0c0,0,0,0.1-0.1,0.1l0,0h0c-0.1,0.4-0.2,0.8-0.3,1.1c-0.1,0.4-0.2,0.9-0.3,1.3H75c0,0,0,0.1,0,0.1l0,0h-0.1
				l0,0.1c0,0,0,0.1,0,0.1c0,0.2,0,0.3,0,0.5C77.2,70.4,79.8,70.4,81.7,71.9L81.7,71.9z M55,28.2c0-0.7,0.5-1.2,1.2-1.2
				s1.2,0.5,1.2,1.2s-0.5,1.2-1.2,1.2l0,0C55.5,29.4,55,28.9,55,28.2z M55.3,28.2c0,0.5,0.4,0.8,0.8,0.8s0.8-0.4,0.8-0.8
				s-0.4-0.8-0.8-0.8l0,0C55.7,27.4,55.3,27.8,55.3,28.2z M57.5,48.9c0,0.7-0.5,1.2-1.2,1.2s-1.2-0.5-1.2-1.2s0.5-1.2,1.2-1.2
				C57,47.7,57.5,48.2,57.5,48.9L57.5,48.9z M57.1,48.9c0-0.5-0.4-0.8-0.8-0.8c-0.5,0-0.8,0.4-0.8,0.8c0,0.5,0.4,0.8,0.8,0.8
				S57.1,49.4,57.1,48.9L57.1,48.9L57.1,48.9z M54.7,38.7c0-0.7,0.5-1.2,1.2-1.2s1.2,0.5,1.2,1.2s-0.5,1.2-1.2,1.2l0,0
				C55.2,39.9,54.7,39.4,54.7,38.7z M55.9,37.8c-0.5,0-0.9,0.4-0.9,0.9c0,0.5,0.4,0.9,0.9,0.9c0.5,0,0.9-0.4,0.9-0.9l0,0
				C56.8,38.2,56.4,37.8,55.9,37.8C55.9,37.8,55.9,37.8,55.9,37.8L55.9,37.8z M46.8,59.6c-0.1,0-0.1-0.1-0.1-0.2
				c0.6-4.5,1-9.1,1.3-13.6c0-0.1,0.1-0.2,0.1-0.2c0-0.1,0.1-0.1,0.2-0.1c0.3,0,1.1-0.2,1.3,0.1c0.2,0.2,0,0.5-0.1,0.8
				c-0.5,1.3-0.4,2.7-0.5,4.1c0,2.8-0.3,5.7-0.9,8.5c0,0,0,0,0,0.1C48.5,59.8,47.2,59.7,46.8,59.6z M47.9,59.2
				C47.9,59.2,47.9,59.1,47.9,59.2c-0.1-0.1-0.1-0.1-0.1-0.2c0.5-2.5,0.8-5,0.9-7.6c0-1.1,0-2.2,0.1-3.4c0-0.5,0.2-1,0.3-1.5
				c0.1-0.3,0.4-0.5,0-0.6c-0.2,0-0.5,0-0.7,0c-0.3,4.5-0.7,8.9-1.3,13.3C47.4,59.3,48,59.3,47.9,59.2z M74.1,59.4
				c-0.1-1.1-0.2-2.2-0.4-3.2c-0.2-1.1-0.4-2.2-0.6-3.4c-0.4-2.3-0.8-4.5-1.1-6.8c0-0.2,0.1-0.2,0.2-0.2c0-0.1,0.1-0.2,0.2-0.2
				c0,0,0,0,0,0c0.3,0.1,0.9,0.1,1.1,0.4s0.2,1,0.2,1.3c0.2,1.2,0.2,2.3,0.3,3.5c0.2,2.3,0.8,4.5,1.1,6.8c0.1,0.6,0.4,1.8-0.2,2.2
				C74.5,60.3,74.2,59.9,74.1,59.4z M74.2,57.1c0.1,0.5,0.1,0.9,0.2,1.4c0,0.2,0,0.6,0.1,0.8c0,0.3,0.1,0.4,0.5,0.1
				c0-0.2,0-0.3,0-0.5c-0.1-2.4-0.8-4.8-1.2-7.1c-0.2-1.1-0.2-2.3-0.3-3.4c-0.1-0.6-0.1-1.2-0.3-1.8c-0.1-0.3,0-0.2-0.3-0.3
				c-0.2,0-0.4-0.1-0.6-0.2c0.3,2.5,0.8,5,1.2,7.5C73.8,54.7,74.1,55.9,74.2,57.1L74.2,57.1z M64.5,62.2L64.5,62.2L64.5,62.2z
				 M66.4,62.1h-0.2c0,0.1,0,0.1,0,0.1h0.2C66.4,62.2,66.4,62.2,66.4,62.1C66.4,62.1,66.4,62.1,66.4,62.1
				C66.4,62.1,66.4,62.1,66.4,62.1z M66.5,62.1L66.5,62.1L66.5,62.1z M66.5,62.1L66.5,62.1L66.5,62.1z M64.5,62.2c0,0.1,0,0.1,0,0.1
				h0.2c0,0,0.1,0,0-0.1l0,0l-0.1,0L64.5,62.2L64.5,62.2z M66.1,62.1L66.1,62.1L66.1,62.1z M62.8,62.2L62.8,62.2L62.8,62.2z
				 M64.9,62.2c0,0.1,0,0,0,0.1h0.2l0-0.1l-0.1,0H64.9z M65.3,62.1c0,0.1,0,0.1,0,0.1h0.2l0-0.1l-0.1,0H65.3z M63.9,62.2l-0.2,0
				c0,0,0,0.1,0,0.1L63.9,62.2C63.9,62.3,63.9,62.2,63.9,62.2C63.9,62.2,63.9,62.2,63.9,62.2z M64.3,62.2h-0.2c0,0.1,0,0.1,0,0.1
				h0.2L64.3,62.2C64.4,62.2,64.4,62.2,64.3,62.2L64.3,62.2z M64.5,62.2L64.5,62.2L64.5,62.2z M62.8,62.2c0,0.1,0,0.1,0,0.1h0.2
				l0-0.1l-0.1,0H62.8z M52.9,62.5c0,0.1,0,0.1,0,0.1l0.2,0l0-0.1l-0.1,0L52.9,62.5z M63.2,62.2L63.2,62.2L63.2,62.2z M63.5,62.2
				h-0.2c0,0.1,0,0,0,0.1h0.2C63.5,62.3,63.5,62.3,63.5,62.2C63.5,62.2,63.5,62.2,63.5,62.2C63.5,62.2,63.5,62.2,63.5,62.2z
				 M51.2,62.6L51.2,62.6L51.2,62.6z M50.8,62.6c0,0.1,0,0.1,0,0.1l0.2,0l0-0.1l-0.1,0L50.8,62.6z M51.2,62.6L51.2,62.6L51.2,62.6z
				 M50.8,62.6L50.8,62.6L50.8,62.6z M50,62.6c0,0,0,0.1,0,0.1l0.2,0l0-0.1l-0.1,0H50z M49.7,62.7L49.7,62.7l0,0.1l-0.2,0
				c0,0,0,0,0-0.1L49.7,62.7z M49.5,62.7L49.5,62.7L49.5,62.7z M50.4,62.6c0,0.1,0,0.1,0,0.1l0.2,0l0-0.1l-0.1,0L50.4,62.6z
				 M75.6,63.5C75.6,63.5,75.6,63.4,75.6,63.5L75.6,63.5c0.1-0.1,0.1-0.1,0-0.1c-0.1,0-0.1-0.1-0.2-0.1c-0.1,0-0.1,0.1,0,0.1
				C75.5,63.3,75.5,63.4,75.6,63.5z M51.2,62.6c0,0.1,0,0.1,0,0.1l0.2,0l0-0.1l-0.1,0L51.2,62.6z M75.3,63.1c-0.1,0-0.2,0-0.2-0.1
				c-0.1,0-0.1,0.1,0,0.1l0.2,0.1C75.3,63.2,75.3,63.2,75.3,63.1L75.3,63.1C75.3,63.1,75.3,63.1,75.3,63.1L75.3,63.1z M74.9,63
				l-0.2-0.1c-0.1,0-0.1,0.1,0,0.1l0.2,0.1C74.9,63.1,74.9,63.1,74.9,63L74.9,63C74.9,63,74.9,63,74.9,63L74.9,63z M49.1,62.7
				c0,0.1,0,0.1,0,0.1l0.2,0l0-0.1l-0.1,0L49.1,62.7z M52.5,62.5c0,0.1,0,0.1,0,0.1l0.2,0l0-0.1l-0.1,0L52.5,62.5z M51.6,62.6
				c0,0,0,0.1,0,0.1l0,0l0.2,0l0-0.1l-0.1,0L51.6,62.6z M52,62.5c0,0.1,0,0.1,0,0.1l0.2,0l0-0.1l-0.1,0L52,62.5z M46.6,63L46.6,63
				L46.6,63z M47.5,62.9L47.5,62.9L47.5,62.9z M47.3,62.9c-0.1,0-0.2,0-0.2,0c0,0.1,0,0.1,0,0.1c0.1,0,0.2,0,0.2,0
				C47.4,63,47.4,63,47.3,62.9L47.3,62.9C47.4,62.9,47.3,62.9,47.3,62.9L47.3,62.9L47.3,62.9z M47.5,62.9L47.5,62.9L47.5,62.9z
				 M46.8,63L46.6,63c0,0,0,0.1,0,0.1l0,0l0.2-0.1C46.9,63,46.9,63,46.8,63L46.8,63C46.9,63,46.9,63,46.8,63L46.8,63z M46.5,63.1
				l-0.2,0c-0.1,0-0.1,0-0.1,0.1s0,0,0.1,0l0,0l0.2,0C46.5,63.2,46.5,63.2,46.5,63.1C46.5,63.1,46.5,63,46.5,63.1L46.5,63.1z
				 M46.6,63L46.6,63L46.6,63z M49.1,62.7L49.1,62.7L49.1,62.7z M49.1,62.7L49.1,62.7L49.1,62.7z M48.9,62.7c0,0-0.2,0-0.2,0
				c0,0.1,0,0.1,0,0.1c0.1,0,0.2,0,0.2,0C49,62.8,49,62.8,48.9,62.7L48.9,62.7L48.9,62.7z M47.7,62.9c-0.1,0-0.2,0-0.2,0
				c0,0.1,0,0.1,0,0.1c0.1,0,0.2,0,0.2,0C47.8,63,47.8,62.9,47.7,62.9L47.7,62.9C47.8,62.9,47.7,62.9,47.7,62.9L47.7,62.9L47.7,62.9
				z M48.2,62.8C48.2,62.9,48.2,62.9,48.2,62.8L48.2,62.8c-0.1,0.1-0.2,0.1-0.3,0.1c0,0,0,0,0-0.1C47.9,62.8,48,62.8,48.2,62.8
				C48.1,62.8,48.2,62.8,48.2,62.8L48.2,62.8z M47.9,62.8L47.9,62.8L47.9,62.8z M66.8,62.1h-0.2c0,0,0,0.1,0,0.1l0,0h0.2L66.8,62.1
				C66.8,62.1,66.8,62.1,66.8,62.1L66.8,62.1L66.8,62.1z M48.5,62.8c0,0-0.2,0-0.2,0c0,0.1,0,0.1,0,0.1c0.1,0,0.2,0,0.2,0
				C48.6,62.9,48.6,62.8,48.5,62.8L48.5,62.8C48.6,62.8,48.6,62.8,48.5,62.8z M69.7,62.3L69.7,62.3l0.3,0.1c0.1,0,0.1,0,0-0.1
				L69.7,62.3L69.7,62.3z M74.6,62.9L74.6,62.9L74.6,62.9z M70.8,62.3c0,0.1,0,0.1,0,0.1l-0.2,0l0-0.1l0.1,0L70.8,62.3z M70.8,62.3
				L70.8,62.3L70.8,62.3z M71,62.3L71,62.3l0,0.1l0.2,0c0.1,0,0.1,0,0-0.1L71,62.3z M71.2,62.3L71.2,62.3L71.2,62.3z M71.2,62.3
				L71.2,62.3L71.2,62.3z M69.6,62.2L69.6,62.2L69.6,62.2z M68.5,62.2L68.5,62.2l0,0.1l0.2,0c0,0,0.1-0.1,0-0.1l0,0L68.5,62.2z
				 M69.2,62.2L69.2,62.2L69.2,62.2z M68.8,62.2L68.8,62.2l0.3,0.1c0.1,0,0.1,0,0-0.1L68.8,62.2L68.8,62.2z M68,62.2L68,62.2
				l0.3,0.1c0.1,0,0.1,0,0-0.1L68,62.2L68,62.2z M69.2,62.2L69.2,62.2l0.3,0.1c0.1,0,0.1,0,0-0.1L69.2,62.2L69.2,62.2z M69.2,62.2
				L69.2,62.2L69.2,62.2z M70.1,62.3L70.1,62.3l0.3,0.1c0,0,0-0.1,0-0.1L70.1,62.3L70.1,62.3z M73.7,62.6L73.7,62.6L73.7,62.6z
				 M73.4,62.6C73.4,62.6,73.4,62.7,73.4,62.6L73.4,62.6l0.2,0.1c0,0,0.1-0.1,0-0.1l0,0L73.4,62.6C73.4,62.6,73.4,62.6,73.4,62.6
				L73.4,62.6z M73.7,62.6L73.7,62.6L73.7,62.6z M74.7,62.9L74.7,62.9L74.7,62.9z M74.5,62.9l-0.2-0.1c-0.1,0-0.1,0.1,0,0.1l0.2,0.1
				C74.5,63,74.5,63,74.5,62.9L74.5,62.9C74.5,62.9,74.5,62.9,74.5,62.9L74.5,62.9z M71.4,62.3L71.4,62.3c-0.1,0.1-0.1,0.1,0,0.1
				c0.1,0,0.1,0,0.2,0c0.1,0,0.1,0,0-0.1C71.6,62.3,71.4,62.3,71.4,62.3L71.4,62.3z M74,62.7l-0.2,0c-0.1,0-0.1,0-0.1,0
				c0,0,0,0,0,0.1l0.2,0l0.1,0C74.1,62.9,74.1,62.9,74,62.7C74.1,62.8,74.1,62.8,74,62.7L74,62.7z M72.8,62.5L72.8,62.5L72.8,62.5z
				 M72.5,62.4c0,0.1,0,0.1,0,0.1c-0.1,0-0.2,0-0.2,0c0,0-0.1,0,0-0.1s0,0,0.1,0c0,0,0,0,0,0C72.3,62.4,72.4,62.4,72.5,62.4
				L72.5,62.4z M72.5,62.4L72.5,62.4L72.5,62.4z M73,62.5C73,62.5,73,62.5,73,62.5L73,62.5C72.9,62.6,73,62.6,73,62.5L73,62.5
				c0,0.1,0.1,0.1,0.2,0.1c0.1,0,0.1,0,0-0.1C73.2,62.5,73.1,62.5,73,62.5L73,62.5z M71.8,62.4C71.7,62.4,71.7,62.4,71.8,62.4
				c-0.1,0.1-0.1,0.1,0,0.1c0.1,0,0.2,0,0.2,0c0.1,0,0.1,0,0-0.1C71.9,62.4,71.8,62.4,71.8,62.4L71.8,62.4z M72.6,62.5
				C72.6,62.5,72.6,62.5,72.6,62.5L72.6,62.5C72.5,62.5,72.6,62.6,72.6,62.5L72.6,62.5c0,0.1,0.1,0.1,0.2,0.1c0.1,0,0.1,0,0-0.1
				C72.8,62.5,72.7,62.5,72.6,62.5L72.6,62.5z M72.9,62.5L72.9,62.5L72.9,62.5z M55.8,62.3L55.8,62.3L55.8,62.3z M55.8,62.3
				L55.8,62.3L55.8,62.3z M55.7,62.3h-0.2c0,0.1,0,0.1,0,0.1h0.2L55.7,62.3C55.7,62.4,55.7,62.3,55.7,62.3
				C55.7,62.3,55.7,62.3,55.7,62.3L55.7,62.3z M56,62.3h-0.2c0,0.1,0,0.1,0,0.1h0.2L56,62.3C56.1,62.3,56.1,62.3,56,62.3L56,62.3
				L56,62.3z M55.2,62.3H55c0,0.1,0,0.1,0,0.1h0.2L55.2,62.3C55.3,62.3,55.3,62.3,55.2,62.3L55.2,62.3L55.2,62.3z M56.2,62.3
				c0,0,0,0.1,0,0.1l0,0h0.2c0,0,0,0,0-0.1l0,0l-0.1,0L56.2,62.3L56.2,62.3z M57.3,62.3h-0.2c0,0.1,0,0.1,0,0.1h0.2
				C57.3,62.4,57.4,62.4,57.3,62.3C57.4,62.3,57.3,62.3,57.3,62.3L57.3,62.3L57.3,62.3z M57.5,62.3L57.5,62.3L57.5,62.3z M56.7,62.3
				c0,0.1,0,0.1,0,0.1h0.2l0-0.1l-0.1,0H56.7z M54.2,62.3L54.2,62.3L54.2,62.3z M53.7,62.4c0,0.1,0,0.1,0,0.1l0.2,0l0-0.1l-0.1,0
				L53.7,62.4z M54.2,62.3L54.2,62.3L54.2,62.3z M54.4,62.3h-0.2c0,0.1,0,0.1,0,0.1h0.2L54.4,62.3C54.5,62.4,54.4,62.3,54.4,62.3
				L54.4,62.3z M53.2,62.5L53.2,62.5L53.2,62.5z M53.2,62.5c0,0.1,0,0.1,0,0.1l0.2,0l0-0.1l-0.1,0L53.2,62.5z M53.6,62.5L53.6,62.5
				L53.6,62.5z M60.2,62.3h-0.2c0,0.1,0,0,0,0.1h0.2L60.2,62.3C60.2,62.3,60.2,62.3,60.2,62.3L60.2,62.3z M60.8,62.3
				C60.8,62.3,60.8,62.3,60.8,62.3l0.2,0l0-0.1l-0.1,0L60.8,62.3z M60.4,62.2c0,0.1,0,0.1,0,0.1h0.2c0,0,0,0,0-0.1l0,0l-0.1,0
				L60.4,62.2L60.4,62.2z M60.8,62.3L60.8,62.3L60.8,62.3z M57.7,62.3h-0.2c0,0.1,0,0.1,0,0.1h0.2C57.8,62.4,57.8,62.3,57.7,62.3
				L57.7,62.3C57.8,62.3,57.7,62.3,57.7,62.3C57.7,62.3,57.7,62.3,57.7,62.3L57.7,62.3z M62.5,62.2c0,0.1,0,0.1,0,0.1h0.2
				c0,0,0,0,0-0.1l0,0l-0.1,0H62.5z M61.4,62.2h-0.2c0,0,0,0.1,0,0.1l0,0h0.2L61.4,62.2C61.5,62.2,61.5,62.2,61.4,62.2
				C61.4,62.2,61.4,62.2,61.4,62.2L61.4,62.2z M62,62.2c0,0.1,0,0.1,0,0.1h0.2c0,0,0,0,0-0.1l0,0l-0.1,0H62z M61.6,62.2
				c0,0.1,0,0,0,0.1h0.2l0-0.1l-0.1,0H61.6z M61.2,62.2L61.2,62.2L61.2,62.2z M58.3,62.3c0,0.1,0,0.1,0,0.1h0.2l0-0.1l-0.1,0H58.3z
				 M57.9,62.3c0,0,0,0.1,0,0.1l0,0h0.2l0-0.1l-0.1,0H57.9z M58.7,62.3c0,0.1,0,0.1,0,0.1H59l0-0.1l-0.1,0H58.7z M59.8,62.3h-0.2
				c0,0,0,0.1,0,0.1l0,0h0.2L59.8,62.3C59.8,62.3,59.8,62.3,59.8,62.3C59.8,62.3,59.8,62.3,59.8,62.3L59.8,62.3z M59.1,62.3
				L59.1,62.3L59.1,62.3z M59.1,62.3c0,0.1,0,0.1,0,0.1h0.2l0-0.1l-0.1,0H59.1z M39.6,71.4C39.6,71.4,39.5,71.5,39.6,71.4L39.6,71.4
				c0,0.1,0,0.1,0,0.1l0,0l0.2,0c0,0,0-0.1,0-0.1l0,0L39.6,71.4z M39.9,71.4C39.9,71.4,39.9,71.5,39.9,71.4L39.9,71.4l0.2,0
				c0,0,0-0.1,0-0.1l0,0L39.9,71.4C39.9,71.3,39.9,71.4,39.9,71.4L39.9,71.4z M41.1,71.1C41,71.1,41,71.2,41.1,71.1L41.1,71.1
				c0,0.1,0,0.1,0,0.1l0,0l0.2,0c0,0,0-0.1,0-0.1l0,0L41.1,71.1z M40.2,71.3C40.2,71.4,40.3,71.4,40.2,71.3L40.2,71.3l0.2,0
				c0,0,0-0.1,0-0.1l0,0L40.2,71.3C40.3,71.3,40.2,71.3,40.2,71.3L40.2,71.3z M40.7,71.2C40.7,71.2,40.6,71.3,40.7,71.2L40.7,71.2
				c0,0.1,0,0.1,0,0.1l0,0l0.2,0c0,0,0-0.1,0-0.1l0,0L40.7,71.2z M40.9,68.6C40.9,68.6,40.9,68.6,40.9,68.6c0-0.1,0-0.1,0-0.1
				l-0.2,0c0,0.1,0,0.1,0,0.1L40.9,68.6z M41.4,71.2C41.4,71.2,41.4,71.2,41.4,71.2L41.4,71.2l0.2,0c0,0,0-0.1,0-0.1l0,0L41.4,71.2
				C41.4,71.1,41.4,71.1,41.4,71.2L41.4,71.2z M39.9,68.7l0.2,0c0,0,0-0.1,0-0.1l0,0l-0.2,0C39.9,68.6,39.8,68.6,39.9,68.7
				L39.9,68.7C39.8,68.7,39.9,68.7,39.9,68.7L39.9,68.7z M41.2,68.5l-0.2,0c0,0.1,0,0.1,0,0.1l0.2,0C41.2,68.6,41.3,68.6,41.2,68.5
				L41.2,68.5C41.3,68.5,41.2,68.5,41.2,68.5L41.2,68.5L41.2,68.5z M41.3,71.1L41.3,71.1L41.3,71.1z M41.2,71.1L41.2,71.1L41.2,71.1
				z M38.6,69c0-0.1,0-0.1,0-0.1c0,0.1-0.1,0.1-0.2,0.2l0,0.1l0.1,0C38.5,69,38.6,69,38.6,69z M40.3,68.6L40.3,68.6l0.2,0
				c0,0,0.1,0,0-0.1c0,0,0-0.1-0.1-0.1l-0.1,0l-0.1,0L40.3,68.6L40.3,68.6z M38.7,71.7l-0.2,0.1c0,0-0.1,0,0,0.1c0,0,0,0.1,0.1,0.1
				l0.2-0.1C38.7,71.8,38.7,71.8,38.7,71.7z M41.4,68.6l0.2,0c0,0,0.1,0,0-0.1c0,0,0-0.1-0.1-0.1l-0.2,0
				C41.3,68.6,41.4,68.6,41.4,68.6z M38.3,71.9L38.3,71.9L38.3,71.9z M39.6,68.8l0.2,0c0,0,0-0.1,0-0.1l0,0l-0.2,0
				C39.5,68.7,39.5,68.7,39.6,68.8C39.5,68.8,39.5,68.8,39.6,68.8L39.6,68.8L39.6,68.8z M39.1,71.6C39.1,71.6,39.2,71.6,39.1,71.6
				L39.1,71.6l0.2,0c0,0,0-0.1,0-0.1l0,0L39.1,71.6C39.1,71.5,39.1,71.5,39.1,71.6C39.1,71.6,39.1,71.6,39.1,71.6L39.1,71.6z
				 M40.1,68.6L40.1,68.6L40.1,68.6z M40.1,68.6L40.1,68.6L40.1,68.6z M39,68.9c0,0,0-0.1,0-0.1l0,0l-0.2,0c0,0-0.1,0,0,0.1l0,0
				c0,0,0,0.1,0.1,0.1l0,0L39,68.9z M39,71.6l-0.2,0.1c-0.1,0-0.1,0,0,0.1c0,0,0,0.1,0.1,0.1l0,0l0.2-0.1
				C39.1,71.6,39.1,71.6,39,71.6L39,71.6z M39.1,68.8l0.2,0c0,0,0-0.1,0-0.1l0,0l-0.2,0C39.1,68.7,39.1,68.8,39.1,68.8
				C39.1,68.8,39.1,68.8,39.1,68.8z M43.1,70.8l-0.2,0c0,0.1,0,0.1,0,0.1l0.2,0C43.2,70.9,43.2,70.9,43.1,70.8
				C43.2,70.8,43.2,70.8,43.1,70.8C43.1,70.8,43.1,70.8,43.1,70.8z M43.1,68.5C43.1,68.4,43.1,68.4,43.1,68.5L43.1,68.5l-0.2,0l0,0
				l0,0.1L43.1,68.5C43.1,68.5,43.1,68.5,43.1,68.5C43.1,68.5,43.1,68.5,43.1,68.5L43.1,68.5z M42.7,68.4l-0.2,0c0,0,0,0.1,0,0.1
				l0,0l0.2,0C42.7,68.5,42.7,68.5,42.7,68.4C42.8,68.4,42.7,68.4,42.7,68.4z M43.5,70.8l-0.2,0c0,0.1,0,0.1,0,0.1l0.2,0
				C43.5,70.9,43.6,70.9,43.5,70.8C43.5,70.8,43.5,70.8,43.5,70.8L43.5,70.8L43.5,70.8z M42,68.4l-0.2,0c0,0.1,0,0.1,0,0.1l0.2,0
				C42,68.5,42.1,68.5,42,68.4C42,68.4,42,68.4,42,68.4L42,68.4z M41.8,71C41.8,71,41.8,71.1,41.8,71c0,0.1,0,0.1,0,0.1l0.2,0
				c0,0,0-0.1,0-0.1l0,0L41.8,71z M43.7,70.8L43.7,70.8L43.7,70.8z M43.8,70.8l-0.2,0c0,0.1,0,0.1,0,0.1l0.2,0
				C43.9,70.9,43.9,70.9,43.8,70.8C43.9,70.8,43.9,70.8,43.8,70.8C43.8,70.8,43.8,70.8,43.8,70.8L43.8,70.8z M42.2,71
				C42.2,71,42.1,71,42.2,71L42.2,71c0,0.1,0,0.1,0,0.1l0,0l0.2,0c0,0,0-0.1,0-0.1l0,0L42.2,71z M42.5,70.9
				C42.5,71,42.5,71,42.5,70.9L42.5,70.9l0.2,0c0,0,0-0.1,0-0.1l0,0L42.5,70.9C42.5,70.9,42.5,70.9,42.5,70.9L42.5,70.9L42.5,70.9z
				 M42.3,68.4l-0.2,0c0,0.1,0,0.1,0,0.1l0.2,0C42.4,68.6,42.4,68.5,42.3,68.4L42.3,68.4C42.4,68.5,42.4,68.4,42.3,68.4
				C42.3,68.4,42.3,68.4,42.3,68.4z M45.2,68.5C45.2,68.6,45.2,68.6,45.2,68.5L45.2,68.5l0.2,0.1c0.1-0.1,0.1-0.1,0-0.1L45.2,68.5
				C45.2,68.5,45.2,68.5,45.2,68.5L45.2,68.5L45.2,68.5z M45.4,71l-0.2,0c0,0,0,0.1,0,0.1l0,0l0.2,0C45.4,71.2,45.4,71.1,45.4,71
				L45.4,71C45.4,71.1,45.4,71,45.4,71C45.4,71,45.4,71,45.4,71L45.4,71z M44.5,68.6l0.2,0c0-0.1,0.1-0.1,0-0.1l-0.2,0
				C44.5,68.4,44.4,68.5,44.5,68.6L44.5,68.6C44.5,68.5,44.5,68.6,44.5,68.6L44.5,68.6z M44.8,68.5C44.8,68.5,44.8,68.5,44.8,68.5
				C44.9,68.6,44.9,68.6,44.8,68.5l0.2,0.1c0.1,0,0.1-0.1,0-0.1L44.8,68.5C44.8,68.4,44.8,68.4,44.8,68.5L44.8,68.5z M45.6,71.2
				l0.2,0c0,0,0.1,0,0.1-0.1l0,0c0,0,0-0.1,0-0.1l0,0l-0.2,0C45.6,71.1,45.6,71.2,45.6,71.2z M44.3,70.8l-0.2,0c0,0,0,0.1,0,0.1l0,0
				l0.2,0C44.3,70.9,44.3,70.9,44.3,70.8C44.3,70.9,44.3,70.8,44.3,70.8z M45,70.9l-0.2,0c0,0,0,0.1,0,0.1l0,0l0.2,0
				C45,71.1,45.1,71,45,70.9C45.1,71,45.1,70.9,45,70.9L45,70.9z M43.7,68.5C43.7,68.5,43.7,68.5,43.7,68.5L43.7,68.5l0.2,0.1
				c0.1-0.1,0.1-0.1,0-0.1L43.7,68.5C43.7,68.4,43.7,68.4,43.7,68.5z M44,68.4C44,68.5,44.1,68.5,44,68.4L44,68.4l0.2,0.1
				c0.1,0,0.1-0.1,0-0.1L44,68.4C44.1,68.4,44,68.4,44,68.4L44,68.4L44,68.4z M44.7,70.9l-0.2,0c0,0,0,0.1,0,0.1l0,0l0.2,0
				C44.7,71,44.7,71,44.7,70.9L44.7,70.9C44.7,70.9,44.7,70.9,44.7,70.9C44.7,70.9,44.7,70.9,44.7,70.9z M44.8,70.9L44.8,70.9
				L44.8,70.9z M46,68.6l0.2,0c0,0,0.1,0,0.1-0.1l0,0c0,0,0-0.1,0-0.1l0,0l-0.2,0C46,68.6,46,68.6,46,68.6L46,68.6z M46,71.2l0.2,0
				c0,0,0.1,0,0.1-0.1c0,0,0-0.1,0-0.1l-0.2,0C45.9,71.1,45.9,71.2,46,71.2L46,71.2z M45.6,68.6l0.1,0l0.1,0l0-0.1l0-0.1l-0.1,0
				l-0.1,0C45.6,68.5,45.6,68.5,45.6,68.6C45.6,68.6,45.6,68.6,45.6,68.6L45.6,68.6L45.6,68.6z M43.3,68.4
				C43.3,68.4,43.3,68.5,43.3,68.4L43.3,68.4l0.2,0.1c0,0,0-0.1,0-0.1l0,0L43.3,68.4C43.3,68.4,43.3,68.4,43.3,68.4L43.3,68.4z
				 M46,68.5L46,68.5L46,68.5z M46.3,71.3l0.2,0c0,0,0.1,0,0.1-0.1l0,0c0,0,0-0.1,0-0.1l0,0l-0.2,0C46.3,71.2,46.3,71.3,46.3,71.3
				C46.3,71.3,46.3,71.3,46.3,71.3z M80.6,70.4l-0.2,0c0,0-0.1,0.1,0,0.1l0,0l0.2,0C80.6,70.5,80.6,70.5,80.6,70.4L80.6,70.4
				C80.7,70.5,80.6,70.4,80.6,70.4L80.6,70.4L80.6,70.4z M80.9,67.8L80.9,67.8l0-0.1l-0.1,0l-0.1,0c0,0-0.1,0-0.1,0s0,0.1,0,0.1h0
				L80.9,67.8L80.9,67.8z M80.2,70.3l-0.2,0c0,0-0.1,0.1,0,0.1l0,0l0.2,0C80.2,70.5,80.2,70.4,80.2,70.3
				C80.3,70.4,80.2,70.3,80.2,70.3C80.2,70.3,80.2,70.3,80.2,70.3L80.2,70.3z M80.9,70.5l-0.2,0c0,0-0.1,0.1,0,0.1l0,0l0.2,0
				C80.9,70.6,81,70.6,80.9,70.5C81,70.5,81,70.5,80.9,70.5C81,70.5,80.9,70.5,80.9,70.5z M80.5,67.6l-0.2,0c0,0-0.1,0-0.1,0.1
				c0,0,0,0.1,0,0.1l0.2,0C80.6,67.7,80.6,67.7,80.5,67.6L80.5,67.6z M80.2,67.6l-0.2,0c0,0-0.1,0-0.1,0l0,0c0,0,0,0.1,0,0.1l0,0
				l0.2,0C80.2,67.7,80.2,67.6,80.2,67.6L80.2,67.6z M79.9,70.2l-0.2,0c0,0-0.1,0.1,0,0.1l0,0l0.2,0C79.9,70.3,79.9,70.3,79.9,70.2
				C79.9,70.2,79.9,70.2,79.9,70.2C79.9,70.2,79.9,70.2,79.9,70.2L79.9,70.2z M81.1,67.7L81.1,67.7L81.1,67.7z M81.3,70.6l-0.2,0
				c0,0-0.1,0.1,0,0.1l0,0l0.2,0C81.3,70.8,81.3,70.7,81.3,70.6C81.3,70.7,81.3,70.7,81.3,70.6z M81.1,70.6L81.1,70.6L81.1,70.6z
				 M81.1,67.8l0.2,0c0,0,0.1,0,0.1,0s0-0.1,0-0.1l0,0l-0.2,0C81.1,67.7,81.1,67.8,81.1,67.8C81.1,67.8,81.1,67.8,81.1,67.8
				L81.1,67.8z M78.4,69.8l-0.2,0c0,0-0.1,0.1,0,0.1l0,0l0.2,0C78.4,69.9,78.5,69.9,78.4,69.8C78.5,69.8,78.5,69.8,78.4,69.8
				C78.4,69.8,78.4,69.8,78.4,69.8L78.4,69.8z M78.6,69.9L78.6,69.9L78.6,69.9z M79.1,70l-0.2,0c0,0-0.1,0.1,0,0.1l0,0l0.2,0
				C79.1,70.1,79.1,70.1,79.1,70C79.2,70.1,79.1,70,79.1,70C79.1,70,79.1,70,79.1,70L79.1,70z M79.4,67.4l-0.2,0c0,0-0.1,0-0.1,0
				l0,0c0,0,0,0.1,0,0.1l0,0l0.2,0C79.4,67.6,79.4,67.5,79.4,67.4L79.4,67.4z M78.8,69.9l-0.2,0c0,0-0.1,0.1,0,0.1l0,0l0.2,0
				C78.8,70,78.8,70,78.8,69.9C78.8,70,78.8,69.9,78.8,69.9z M79,67.4l-0.2,0c0,0-0.1,0-0.1,0s0,0.1,0,0.1l0.2,0.1
				C79.1,67.5,79.1,67.5,79,67.4L79,67.4z M78.3,67.3L78.3,67.3l-0.2,0c0,0-0.1,0-0.1,0.1c0,0,0,0.1,0,0.1l0.2,0L78.3,67.3z
				 M77.1,69.6C77,69.6,77.1,69.7,77.1,69.6L77.1,69.6l0.2,0.1c0,0,0.1,0,0-0.1L77.1,69.6C77.1,69.6,77.1,69.6,77.1,69.6L77.1,69.6
				L77.1,69.6z M77.3,69.6L77.3,69.6L77.3,69.6z M77.4,69.7C77.4,69.7,77.4,69.8,77.4,69.7L77.4,69.7l0.2,0.1c0.1,0,0.1,0,0-0.1
				L77.4,69.7C77.4,69.6,77.4,69.7,77.4,69.7C77.4,69.7,77.4,69.7,77.4,69.7z M79.5,70.1l-0.2,0c0,0-0.1,0.1,0,0.1l0,0l0.2,0
				C79.5,70.2,79.5,70.2,79.5,70.1L79.5,70.1C79.6,70.2,79.6,70.1,79.5,70.1L79.5,70.1L79.5,70.1z M77.8,69.7
				C77.8,69.7,77.8,69.8,77.8,69.7L77.8,69.7l0.2,0.1c0.1,0,0.1,0,0-0.1L77.8,69.7C77.8,69.7,77.8,69.7,77.8,69.7L77.8,69.7z
				 M78.7,67.3l-0.2,0c0,0-0.1,0-0.1,0.1c0,0,0,0.1,0,0.1l0.2,0C78.7,67.4,78.7,67.4,78.7,67.3C78.7,67.3,78.7,67.3,78.7,67.3
				L78.7,67.3z M79.7,70.2L79.7,70.2L79.7,70.2z M79.8,67.5l-0.2,0c0,0-0.1,0-0.1,0l0,0c0,0,0,0.1,0,0.1l0,0l0.2,0
				C79.8,67.6,79.8,67.6,79.8,67.5L79.8,67.5z M76.2,69.6C76.2,69.7,76.2,69.7,76.2,69.6L76.2,69.6l0.2,0.1c0,0,0-0.1,0-0.1l0,0
				L76.2,69.6C76.2,69.6,76.2,69.6,76.2,69.6C76.2,69.6,76.2,69.6,76.2,69.6L76.2,69.6z M75.9,69.6C75.9,69.6,75.9,69.6,75.9,69.6
				L75.9,69.6c-0.1,0.1,0,0.1,0,0.1l0,0h0.2c0,0,0-0.1,0-0.1l0,0L75.9,69.6z M76,67.2C76,67.2,76,67.1,76,67.2L76,67.2l-0.2-0.1
				c-0.1,0.1-0.1,0.1,0,0.1L76,67.2C76,67.2,76,67.2,76,67.2C76,67.2,76,67.2,76,67.2L76,67.2z M77.2,67.2
				C77.2,67.2,77.1,67.2,77.2,67.2L77.2,67.2l-0.2-0.1c-0.1,0.1-0.1,0.1,0,0.1L77.2,67.2C77.1,67.3,77.2,67.3,77.2,67.2
				C77.2,67.2,77.2,67.2,77.2,67.2L77.2,67.2z M76.7,69.6C76.7,69.6,76.6,69.6,76.7,69.6L76.7,69.6c-0.1,0.1,0,0.1,0,0.1l0,0h0.2
				c0,0,0-0.1,0-0.1c0,0,0,0,0,0L76.7,69.6z M76.4,67.2C76.4,67.1,76.3,67.1,76.4,67.2L76.4,67.2l-0.2-0.1c-0.1,0.1-0.1,0.1,0,0.1
				L76.4,67.2C76.3,67.2,76.4,67.2,76.4,67.2C76.4,67.2,76.4,67.2,76.4,67.2L76.4,67.2z M77.3,67.3h0.2c0,0,0.1,0,0.1-0.1l0,0
				c0,0,0-0.1-0.1-0.1l0,0h-0.2C77.2,67.3,77.2,67.3,77.3,67.3L77.3,67.3z M77.6,67.3h0.2c0,0,0.1,0,0.1-0.1l0,0c0,0,0-0.1-0.1-0.1
				l0,0h-0.2C77.6,67.2,77.6,67.3,77.6,67.3C77.6,67.3,77.6,67.3,77.6,67.3L77.6,67.3z M75.6,69.7C75.5,69.7,75.5,69.7,75.6,69.7
				c-0.1,0.1,0,0.1,0,0.1h0.2c0,0,0-0.1,0-0.1l0,0L75.6,69.7L75.6,69.7z M75.1,69.7C75.1,69.8,75.1,69.8,75.1,69.7L75.1,69.7
				l0.2,0.1c0,0,0-0.1,0-0.1l0,0L75.1,69.7C75.1,69.7,75.1,69.7,75.1,69.7C75.1,69.7,75.1,69.7,75.1,69.7z M76.5,67.3h0.2
				c0,0,0.1,0,0.1-0.1l0,0c0,0,0-0.1-0.1-0.1l0,0h-0.2C76.4,67.2,76.5,67.2,76.5,67.3L76.5,67.3z"/>
		</g>
	</g>
</g>
<g class="st0">
	<path d="M30.3,91.5c-0.5,0-0.9-0.1-1.4-0.3c-0.4-0.2-0.8-0.4-1.1-0.8c-0.3-0.3-0.6-0.8-0.8-1.3s-0.3-1.1-0.3-1.7
		c0-0.6,0.1-1.2,0.3-1.7s0.4-0.9,0.8-1.3c0.3-0.4,0.7-0.6,1.1-0.8c0.4-0.2,0.9-0.3,1.4-0.3c0.5,0,0.9,0.1,1.3,0.3
		c0.4,0.2,0.7,0.4,0.9,0.7l-0.8,0.9c-0.2-0.2-0.4-0.3-0.7-0.5c-0.2-0.1-0.5-0.2-0.8-0.2c-0.3,0-0.6,0.1-0.9,0.2
		c-0.3,0.1-0.5,0.3-0.7,0.6c-0.2,0.2-0.3,0.5-0.4,0.9c-0.1,0.4-0.2,0.7-0.2,1.2c0,0.4,0.1,0.8,0.2,1.2c0.1,0.4,0.3,0.7,0.4,0.9
		c0.2,0.2,0.4,0.4,0.7,0.6c0.3,0.1,0.6,0.2,0.9,0.2c0.3,0,0.6-0.1,0.9-0.2c0.3-0.1,0.5-0.3,0.7-0.6l0.8,0.9
		c-0.3,0.4-0.7,0.7-1.1,0.8C31.3,91.4,30.8,91.5,30.3,91.5z"/>
	<path d="M34.1,91.4v-7.8h1.4v3.2h2.7v-3.2h1.4v7.8h-1.4v-3.5h-2.7v3.5H34.1z"/>
	<path d="M40.7,91.4l2.5-7.8h1.6l2.5,7.8h-1.5l-0.6-2.1h-2.6l-0.6,2.1H40.7z M43.3,87.2l-0.3,1h2l-0.3-1c-0.1-0.4-0.2-0.8-0.3-1.3
		c-0.1-0.4-0.2-0.9-0.3-1.3h0c-0.1,0.4-0.2,0.9-0.3,1.3C43.5,86.4,43.4,86.8,43.3,87.2z"/>
	<path d="M48.4,91.4v-7.8H50l0.9,3.1l0.3,1.2h0l0.3-1.2l0.9-3.1h1.5v7.8h-1.2v-3.2c0-0.2,0-0.5,0-0.7c0-0.3,0-0.6,0.1-0.9
		s0-0.6,0.1-0.9s0-0.5,0.1-0.7h0l-0.5,1.8l-0.9,2.5h-0.8L50,86.8L49.5,85h0c0,0.2,0,0.4,0.1,0.7s0,0.6,0.1,0.9s0,0.6,0,0.9
		c0,0.3,0,0.5,0,0.7v3.2H48.4z"/>
	<path d="M55.1,91.4l2.5-7.8h1.6l2.5,7.8h-1.5l-0.6-2.1h-2.6l-0.6,2.1H55.1z M57.7,87.2l-0.3,1h2l-0.3-1c-0.1-0.4-0.2-0.8-0.3-1.3
		c-0.1-0.4-0.2-0.9-0.3-1.3h0c-0.1,0.4-0.2,0.9-0.3,1.3C57.9,86.4,57.8,86.8,57.7,87.2z"/>
	<path d="M63.1,91.4v-7.8h2.6c0.4,0,0.8,0,1.1,0.1s0.7,0.2,0.9,0.4s0.5,0.4,0.6,0.7c0.1,0.3,0.2,0.7,0.2,1.1c0,0.6-0.1,1.1-0.4,1.5
		c-0.3,0.4-0.7,0.6-1.1,0.8l1.9,3.3h-1.6l-1.7-3.1h-1.2v3.1H63.1z M64.5,87.2h1.1c0.5,0,1-0.1,1.2-0.3c0.3-0.2,0.4-0.6,0.4-1
		c0-0.5-0.1-0.8-0.4-0.9s-0.7-0.3-1.2-0.3h-1.1V87.2z"/>
	<path d="M70.3,91.4v-7.8h2.6c0.4,0,0.8,0,1.1,0.1c0.4,0.1,0.7,0.2,0.9,0.4c0.3,0.2,0.5,0.4,0.6,0.7c0.1,0.3,0.2,0.7,0.2,1.1
		c0,0.6-0.1,1.1-0.4,1.5c-0.3,0.4-0.7,0.6-1.1,0.8l1.9,3.3h-1.6l-1.7-3.1h-1.2v3.1H70.3z M71.7,87.2h1.1c0.5,0,1-0.1,1.2-0.3
		c0.3-0.2,0.4-0.6,0.4-1c0-0.5-0.1-0.8-0.4-0.9c-0.3-0.2-0.7-0.3-1.2-0.3h-1.1V87.2z"/>
	<path d="M76.7,91.4l2.5-7.8h1.6l2.5,7.8h-1.5l-0.6-2.1h-2.6l-0.6,2.1H76.7z M79.3,87.2l-0.3,1h2l-0.3-1c-0.1-0.4-0.2-0.8-0.3-1.3
		c-0.1-0.4-0.2-0.9-0.3-1.3h0c-0.1,0.4-0.2,0.9-0.3,1.3C79.5,86.4,79.4,86.8,79.3,87.2z"/>
	<path d="M87.3,91.5c-0.6,0-1.1-0.1-1.6-0.3c-0.5-0.2-1-0.5-1.3-0.9l0.8-0.9c0.3,0.3,0.6,0.5,1,0.6c0.4,0.2,0.8,0.2,1.2,0.2
		c0.5,0,0.8-0.1,1-0.3s0.4-0.4,0.4-0.7c0-0.2,0-0.3-0.1-0.4s-0.2-0.2-0.3-0.3c-0.1-0.1-0.3-0.2-0.4-0.2c-0.2-0.1-0.3-0.1-0.5-0.2
		l-1.1-0.5c-0.2-0.1-0.4-0.2-0.6-0.3c-0.2-0.1-0.4-0.3-0.5-0.4c-0.2-0.2-0.3-0.4-0.4-0.6c-0.1-0.2-0.1-0.5-0.1-0.8
		c0-0.3,0.1-0.6,0.2-0.9c0.1-0.3,0.3-0.5,0.6-0.7c0.2-0.2,0.5-0.4,0.9-0.5c0.3-0.1,0.7-0.2,1.1-0.2c0.5,0,0.9,0.1,1.4,0.3
		c0.4,0.2,0.8,0.4,1.1,0.7l-0.7,0.9c-0.3-0.2-0.5-0.4-0.8-0.5c-0.3-0.1-0.6-0.2-1-0.2c-0.4,0-0.7,0.1-0.9,0.2
		c-0.2,0.2-0.3,0.4-0.3,0.7c0,0.2,0,0.3,0.1,0.4c0.1,0.1,0.2,0.2,0.3,0.3s0.3,0.2,0.4,0.2c0.2,0.1,0.3,0.1,0.5,0.2l1,0.4
		c0.2,0.1,0.5,0.2,0.7,0.3s0.4,0.3,0.5,0.4c0.2,0.2,0.3,0.4,0.4,0.6c0.1,0.2,0.1,0.5,0.1,0.8c0,0.3-0.1,0.6-0.2,0.9
		c-0.1,0.3-0.3,0.5-0.6,0.7s-0.6,0.4-0.9,0.5S87.7,91.5,87.3,91.5z"/>
</g>
</svg>
