<?xml version="1.0" encoding="utf-8"?>
<!-- Generator: Adobe Illustrator 24.3.0, SVG Export Plug-In . SVG Version: 6.00 Build 0)  -->
<svg version="1.1" id="Layer_1" xmlns="http://www.w3.org/2000/svg" xmlns:xlink="http://www.w3.org/1999/xlink" x="0px" y="0px"
	 viewBox="0 0 120 126" style="enable-background:new 0 0 120 126;" xml:space="preserve">
<style type="text/css">
	.st0{fill:#050505;}
	.st1{fill:#050606;}
	.st2{enable-background:new    ;}
</style>
<g>
	<g id="_Group__1_">
		<path class="st0" d="M39.2,68c-5,0-15.7-0.3-18.4-0.4c-0.5,0.1-4,0.3-4.3-1.8c-0.2-1.3-0.2-2.7-0.2-4c0-0.2,0.1-0.4,0.3-0.5
			l0.5-0.2c-1-0.8-1.6-1.9-1.7-3.1c-0.4-0.2-0.7-0.5-0.9-0.9c-0.3-0.6-0.2-1.3,0.1-2c0.4-3.2,1.2-6.4,2.3-9.5
			c-0.3-1.2-0.3-2.5,0.1-3.6c0.2-0.3,0.5-0.8,0.8-1.3c0.3-0.5,0.6-1.1,0.9-1.5c0.5-0.5,1-0.7,2.9-0.1l0.7,0.2
			c15.6,4.7,23.4,6.1,27.2,6.4c0,0,0,0,0.1,0c1.5,0.3,5.4,0.8,6.5-0.7c0.6-1.1,1.4-2.1,2.4-2.9l0.2-0.2c1.8-1.5,3.5-2.8,3.9-3.1
			c0,0,0.1-0.1,0.2-0.1c0.6-0.6,1.5-0.9,2.3-0.8c1,0.2,1.9,0.9,2.5,1.8c2.5-0.1,4.8,1.3,5.9,3.5c0.8,0.5,1.4,1.4,1.4,2.4
			c0.4,0.7,1,1.2,1.7,1.7c3.1,1.9,6.4,3.4,9.8,4.6c3.3,0.2,6.7,0.2,10-0.1c0.4-0.1,4.8-0.8,6.8,0.6c0.5,0.4,0.9,0.9,1,1.5
			c1.4,1.8,1.6,4.3,0.5,6.3c0.7,0.2,1.1,0.9,1,1.6c-0.1,1.1-0.3,2.4-0.3,2.5c0,0.2-0.1,0.3-0.3,0.4c-6.3,2.1-12.9,3.1-19.5,3
			c-0.7,0-25.4,1.2-38.3-1.4c-0.7,0.2-4.5,1.4-5.5,1.7C41,68,40.1,68.1,39.2,68z M20.8,66.6L20.8,66.6c7.9,0.3,19.9,0.6,20.7,0.4
			c1.1-0.3,5.5-1.7,5.6-1.7c0.1,0,0.2,0,0.2,0c12.8,2.6,37.9,1.4,38.2,1.4h0c6.4,0.1,12.8-0.9,18.8-2.8c0.1-0.5,0.2-1.3,0.2-2.1
			c0.1-0.6-0.8-0.7-0.9-0.8c-0.3,0-0.5-0.3-0.4-0.6c0-0.1,0-0.2,0.1-0.2c1.3-1.7,1.3-4.1-0.1-5.7c-0.1-0.1-0.1-0.2-0.1-0.3
			c-0.1-0.4-0.3-0.8-0.6-1c-1.4-1-4.9-0.7-6.1-0.4h0c-3.4,0.3-6.8,0.3-10.2,0.1l-0.1,0c-3.6-1.2-7-2.8-10.2-4.7
			c-0.8-0.5-1.6-1.3-2.1-2.1c-0.1-0.1-0.1-0.2-0.1-0.3c0-0.7-0.4-1.4-1-1.7c-0.1,0-0.2-0.1-0.2-0.3c-1-2-3-3.2-5.2-3
			c-0.2,0-0.3-0.1-0.4-0.2c-0.4-0.8-1.1-1.3-2-1.6c-0.6,0-1.1,0.2-1.5,0.6c-0.1,0.1-0.2,0.1-0.2,0.2c-0.4,0.3-2.2,1.7-3.8,3L59.1,43
			c-0.9,0.7-1.6,1.6-2.1,2.6c0,0,0,0,0,0.1c-0.7,1.1-2.2,1.5-4.5,1.5c-1,0-2-0.2-3-0.3C45.5,46.4,37.6,45,22,40.3
			c-0.3-0.1-0.6-0.2-0.7-0.2c-1.6-0.5-1.7-0.3-1.9-0.1c-0.3,0.4-0.5,0.9-0.8,1.3c-0.3,0.5-0.5,1-0.8,1.4c-0.2,1-0.2,2,0.1,3
			c0,0.1,0,0.2,0,0.3c-1.1,3-1.8,6.2-2.3,9.4c0,0,0,0.1,0,0.1c-0.2,0.3-0.2,0.8-0.1,1.2c0.1,0.2,0.4,0.4,0.6,0.5
			c0.2,0,0.4,0.2,0.4,0.4c0,1.4,0.8,2.7,2.2,3.1c0.3,0.1,0.4,0.3,0.4,0.6c0,0.2-0.2,0.3-0.3,0.4l-1.3,0.5c0,1.2,0,2.4,0.2,3.5
			C17.7,66.6,19.8,66.7,20.8,66.6L20.8,66.6z"/>
	</g>
	<g id="_Group_2_1_">
		<path class="st0" d="M69.5,56.4c-7.3-0.5-14.6-1.5-21.7-3.1c-3.1-0.9-29.6-7.1-29.8-7.2c-0.2,0-0.3-0.2-0.2-0.4s0.2-0.3,0.4-0.2
			c0.3,0.1,26.8,6.3,29.9,7.2c7.2,1.5,14.5,2.5,21.8,3c3.3-0.1,4.4-1.6,4.8-2.4c0.1-0.2,0.3-0.2,0.4-0.2c0.2,0.1,0.2,0.3,0.2,0.4
			l0,0c-0.4,1-1.7,2.7-5.4,2.8L69.5,56.4z"/>
	</g>
	<g id="_Group_3_1_">
		<path class="st0" d="M95.5,54.3c-1.6,0-3.7,0-6.2-0.1c-2.6-0.1-13-1.8-13.1-1.8c-0.1,0-0.2-0.1-0.2-0.2s0.1-0.2,0.2-0.2
			c0,0,0,0,0,0c0.1,0,10.4,1.7,13.1,1.8c10.7,0.4,12.1-0.2,12.2-0.5c0-0.1,0-0.2,0-0.3c-0.3-0.4-1.6-0.7-2.4-0.7
			c-0.1,0-0.2-0.1-0.2-0.2S99,52,99.1,52c0.2,0,2.2,0.2,2.7,0.9c0.1,0.2,0.1,0.4,0,0.6C101.6,53.9,100.7,54.3,95.5,54.3z"/>
	</g>
	<g id="_Group_4_1_">
		<path class="st0" d="M76.9,64c-7.1,0-13.1-0.2-14.6-0.3C59.7,63.7,44,62,42.9,61.8c-1.1-0.2-23.6-0.1-23.8-0.1l0,0
			c-0.1,0-0.2-0.1-0.2-0.2s0.1-0.2,0.1-0.2c0,0,0,0,0,0c0.9,0,22.8-0.1,23.9,0.1c1.1,0.2,16.8,1.8,19.4,1.9
			c3.7,0.1,36.2,1.3,41.1-2.4c0.1-0.1,0.2,0,0.2,0l0,0c0.1,0.1,0,0.2,0,0.2C100.6,63.5,87.6,64,76.9,64z"/>
	</g>
	<g id="_Group_5_1_">
		<path class="st0" d="M75.6,65.2c-5.9,0-11.5-0.1-14.2-0.3c-4.9-0.3-17.4-1.7-19.2-1.9c-1.3-0.2-7.4-0.1-11.9,0c-2.4,0-4.2,0-4.6,0
			c-1.1-0.1-8.2,0-8.3,0l0,0c-0.1,0-0.2-0.1-0.1-0.2c0-0.1,0.1-0.1,0.1-0.2c0.3,0,7.2,0,8.3,0c0.4,0,2.2,0,4.6,0
			c4.5-0.1,10.7-0.1,12,0c1.8,0.2,14.3,1.6,19.2,1.9c4.9,0.3,20.2,0.4,27.9,0c0.1,0,11.1-0.5,14.8-2.3c0.1,0,0.2,0,0.2,0.1
			s0,0.2-0.1,0.2c-3.8,1.8-14.5,2.3-14.9,2.3C85.9,65.2,80.7,65.2,75.6,65.2z"/>
	</g>
	<g id="_Group_6_1_">
		<path class="st0" d="M76.2,51.4c-0.1,0-0.2-0.1-0.2-0.2c0,0,0-0.1,0-0.1c0.4-0.9,0.4-1.9,0-2.8c0-0.1,0-0.2,0.1-0.2
			c0.1,0,0.2,0,0.2,0.1l0,0c0.5,1,0.5,2.1,0,3.1C76.3,51.3,76.3,51.4,76.2,51.4z"/>
	</g>
	<g id="_Group_7_1_">
		<path class="st0" d="M37.3,46.8c-0.2,0-0.3,0-0.5-0.1h0l-4.9-1.3c-0.1,0-6.5-1.7-7.4-1.9h0c0,0-0.8-0.3-0.7-1
			c0-0.4,0.4-0.8,0.9-0.7l0,0c0,0,0.1,0,0.1,0c0.4,0.1,0.8,0.2,1.2,0.3l10.3,2.5c0.4,0,1.8,0.2,2,0.6c0,0,0,0,0,0
			c0.1,0.4,0,0.8-0.2,1.1C37.9,46.7,37.6,46.8,37.3,46.8z M36.8,46.4c0.5,0.1,0.9,0,1-0.1C38,46,38,45.8,38,45.5
			c-0.5-0.3-1.2-0.4-1.8-0.4h0l-10.4-2.6c0,0-0.9-0.3-1.2-0.3c-0.2-0.1-0.5,0.1-0.6,0.3c0,0,0,0.1,0,0.1c-0.1,0.3,0.4,0.5,0.5,0.6
			c1,0.2,7.3,1.9,7.4,1.9L36.8,46.4z"/>
	</g>
	<g id="_Group_8_1_">
		<path class="st0" d="M65.7,52c-0.1,0-0.2,0-0.3-0.1c-0.1,0-0.1-0.1-0.1-0.1l-0.8-1c-2.5-0.6-4.9-0.9-7.4-1.1
			c-4.7-0.4-7.9-0.6-8.2-0.7l-1.4,0.2c0,0-0.1,0-0.1,0c-0.1,0-0.9-0.5-0.9-1.1c0-0.3,0.2-0.5,0.5-0.7c0,0,0,0,0.1,0
			c1.8-0.2,3.7-0.2,5.5,0c1.2,0.2,3.6,0.4,6,0.7c2.7,0.3,5.2,0.6,5.6,0.7c1,0.2,1.8,0.8,2.5,1.5c0.1,0.1,0.2,0.3,0.3,0.4
			c0.2,0.2,0.3,0.5,0.3,0.7c-0.1,0.2-0.2,0.3-0.6,0.4C66.2,51.9,65.9,52,65.7,52z M65.5,51.6c0,0,0.2,0.1,0.8-0.1
			c0.3-0.1,0.4-0.2,0.4-0.2c0-0.1-0.1-0.2-0.2-0.4c-0.1-0.1-0.2-0.3-0.3-0.4c-0.6-0.7-1.4-1.2-2.2-1.4c-0.4-0.1-2.9-0.3-5.6-0.7
			c-2.4-0.3-4.9-0.5-6-0.7c-1.8-0.2-3.6-0.2-5.4,0c-0.2,0.1-0.3,0.2-0.3,0.3c0,0.3,0.5,0.6,0.7,0.8l1.4-0.2c0,0,0,0,0,0
			c0,0,3.3,0.3,8.2,0.7c2.5,0.2,5.1,0.5,7.6,1.1c0,0,0.1,0,0.1,0.1L65.5,51.6L65.5,51.6z"/>
	</g>
	<g id="_Group_9_1_">
		<path class="st0" d="M18.5,59.7c-0.2,0-0.4-0.2-0.4-0.4l0,0v-0.6c0-0.2,0.2-0.4,0.4-0.4c0.2,0,0.4,0.2,0.4,0.4v0.6
			C18.9,59.5,18.7,59.7,18.5,59.7L18.5,59.7z M17.9,58.1c-0.2,0-0.4-0.1-0.4-0.3c0-0.2-0.1-0.5-0.1-0.7c0-0.2,0-0.5,0-0.8
			c0-0.2,0.2-0.4,0.5-0.3s0.4,0.2,0.4,0.5l0,0c0,0.2,0,0.4,0,0.6c0,0.2,0,0.4,0,0.6C18.3,57.8,18.2,58,17.9,58.1
			C17.9,58.1,17.9,58.1,17.9,58.1L17.9,58.1z M16.6,56.4c0,0-0.1,0-0.1,0c-0.4-0.2-0.9-0.3-1.3-0.5c-0.2-0.1-0.3-0.3-0.2-0.6
			c0.1-0.2,0.4-0.3,0.6-0.2l0,0c0.4,0.2,0.8,0.3,1.2,0.5c0.2,0.1,0.3,0.3,0.2,0.5C17,56.3,16.8,56.4,16.6,56.4L16.6,56.4z"/>
	</g>
	<g id="_Group_10_1_">
		<path class="st0" d="M94.5,55.7L94.5,55.7c-0.5,0-0.9,0-1.3,0c-0.2,0-0.3-0.2-0.3-0.3s0.2-0.3,0.3-0.3l0,0c0.4,0,0.8,0,1.3,0
			c0.2,0,0.3,0.2,0.3,0.4C94.8,55.6,94.6,55.7,94.5,55.7L94.5,55.7L94.5,55.7z M95.8,55.7c-0.2,0-0.3-0.2-0.3-0.3s0.2-0.3,0.3-0.3
			c0.5,0,0.9,0,1.3,0c0.2,0,0.3,0.1,0.3,0.3c0,0.2-0.1,0.3-0.3,0.3l0,0C96.7,55.7,96.3,55.7,95.8,55.7L95.8,55.7L95.8,55.7z
			 M91.8,55.6L91.8,55.6h-0.4c-0.2,0-0.5,0-0.9-0.1c-0.2,0-0.3-0.2-0.3-0.4s0.2-0.3,0.4-0.3c0.4,0,0.7,0.1,0.9,0.1
			c0.1,0,0.2,0,0.4,0c0.2,0,0.3,0.2,0.3,0.3S92,55.6,91.8,55.6C91.8,55.6,91.8,55.6,91.8,55.6z M98.5,55.5c-0.2,0-0.3-0.1-0.3-0.3
			c0-0.2,0.1-0.3,0.3-0.3c0.5,0,0.9-0.1,1.3-0.1c0.2,0,0.3,0.1,0.4,0.3s-0.1,0.3-0.3,0.4l0,0C99.4,55.5,98.9,55.5,98.5,55.5
			L98.5,55.5z M89.1,55.5L89.1,55.5c-0.4,0-0.9-0.1-1.4-0.1c-0.2,0-0.3-0.2-0.3-0.4c0-0.2,0.2-0.3,0.4-0.3l0,0
			c0.5,0,0.9,0.1,1.3,0.1c0.2,0,0.3,0.2,0.3,0.4C89.4,55.3,89.3,55.5,89.1,55.5L89.1,55.5z M101.1,55.2c-0.2,0-0.3-0.2-0.3-0.3
			c0-0.2,0.1-0.3,0.3-0.3c0.4-0.1,0.8-0.2,1.2-0.3c0.2-0.1,0.4,0,0.4,0.2c0.1,0.2,0,0.4-0.2,0.4l0,0
			C102.1,54.9,101.6,55.1,101.1,55.2C101.2,55.2,101.1,55.2,101.1,55.2L101.1,55.2z M86.5,55.2L86.5,55.2L85.1,55
			c-0.2,0-0.3-0.2-0.3-0.4s0.2-0.3,0.4-0.3l1.3,0.2c0.2,0,0.3,0.2,0.3,0.4C86.8,55,86.6,55.2,86.5,55.2L86.5,55.2z M83.8,54.9
			L83.8,54.9l-1.4-0.2c-0.2,0-0.3-0.2-0.3-0.4s0.2-0.3,0.4-0.3l1.3,0.2c0.2,0,0.3,0.2,0.3,0.4C84.1,54.8,84,54.9,83.8,54.9
			L83.8,54.9z M81.2,54.5C81.1,54.5,81.1,54.5,81.2,54.5l-1.4-0.2c-0.2,0-0.3-0.2-0.2-0.4c0-0.2,0.2-0.3,0.4-0.2l1.3,0.2
			c0.2,0,0.3,0.2,0.3,0.4C81.4,54.4,81.3,54.5,81.2,54.5L81.2,54.5z M78.5,54C78.5,54,78.5,54,78.5,54c-0.5-0.1-1-0.2-1.4-0.3
			c-0.2,0-0.3-0.2-0.3-0.4s0.2-0.3,0.4-0.3c0.4,0.1,0.8,0.2,1.3,0.2c0.2,0,0.3,0.2,0.3,0.4C78.8,53.9,78.7,54.1,78.5,54L78.5,54z
			 M75.9,53.5c0,0-0.1,0-0.1,0c-0.1,0-0.1,0-0.2-0.1c-0.3-0.2-0.7-0.3-1.1-0.5c-0.2-0.1-0.2-0.3-0.2-0.4c0.1-0.2,0.3-0.2,0.4-0.2
			c0.4,0.2,0.8,0.3,1.2,0.5c0.2,0.1,0.2,0.3,0.2,0.5C76.1,53.4,76,53.5,75.9,53.5L75.9,53.5z M73.5,52.5c-0.2,0-0.3-0.2-0.3-0.3
			c0,0,0-0.1,0-0.1l0.5-1.2c0.1-0.2,0.3-0.2,0.4-0.2c0.2,0.1,0.2,0.3,0.2,0.4l-0.5,1.2C73.8,52.4,73.6,52.5,73.5,52.5L73.5,52.5z
			 M75.9,52.1c-0.1,0-0.2,0-0.2-0.1l-1-0.8c-0.2-0.1-0.2-0.3-0.1-0.5s0.3-0.2,0.5-0.1l0,0l1,0.8c0.1,0.1,0.2,0.3,0.1,0.5
			C76.1,52.1,76,52.1,75.9,52.1L75.9,52.1z"/>
	</g>
	<g id="_Group_11_1_">
		<path class="st0" d="M24.1,44.4c-0.4,0-0.8-0.2-1.1-0.5c0,0,0,0,0-0.1c-0.3-0.7-0.2-1.6,0.3-2.2c0.3-0.4,0.8-0.7,1.3-0.7
			c0.5,0.1,0.9,0.5,1.1,0.9c0.1,0.1,0,0.3-0.1,0.3s-0.3,0-0.3-0.1c0,0,0,0,0,0l0,0c-0.1-0.2-0.3-0.6-0.7-0.6c-0.3,0-0.6,0.1-0.9,0.5
			c-0.3,0.5-0.4,1.1-0.2,1.7c0.1,0.1,0.7,0.6,1.5-0.1c0.1-0.1,0.3-0.1,0.4,0c0.1,0.1,0.1,0.3,0,0.3c0,0,0,0,0,0l0,0
			C25,44.2,24.6,44.4,24.1,44.4z"/>
	</g>
	<g id="_Group_12_1_">
		<path class="st0" d="M47.2,49.9c0,0-0.1,0-0.2,0c-0.4,0-0.7-0.2-1-0.5l0,0c-0.8-1.7,0.1-2.5,0.1-2.5c0,0,0,0,0,0
			c0.5-0.3,1-0.3,1.5-0.2c0.4,0.1,0.7,0.4,0.8,0.7c0,0.1,0,0.3-0.2,0.3c-0.1,0-0.2,0-0.3-0.1l0,0c-0.1-0.2-0.3-0.4-0.5-0.5
			c-0.4-0.1-0.8,0-1.1,0.1c-0.1,0.1-0.6,0.7,0,1.8c0.2,0.2,0.4,0.3,0.6,0.3c0.3,0,0.6-0.1,0.9-0.3c0.1-0.1,0.3-0.1,0.3,0
			s0.1,0.3,0,0.3C48,49.8,47.6,49.9,47.2,49.9z"/>
	</g>
	<g id="_Group_13_1_">
		<path class="st0" d="M37.6,47.7c0,0-0.1,0-0.2,0c-0.5-0.1-0.9-0.5-1.1-0.9c-0.1-0.1,0-0.3,0.1-0.3c0.1-0.1,0.3,0,0.3,0.1l0,0l0,0
			c0.1,0.2,0.3,0.6,0.7,0.6c0.3,0,0.6-0.1,0.9-0.5c0.3-0.5,0.4-1.1,0.2-1.7c-0.1-0.1-0.7-0.6-1.5,0.1c-0.1,0.1-0.3,0.1-0.3,0
			s-0.1-0.3,0-0.3c0,0,0,0,0,0l0,0c0.6-0.6,1.5-0.7,2.2-0.1c0,0,0.1,0.1,0.1,0.1c0,0,0,0,0,0.1c0.3,0.7,0.2,1.6-0.3,2.2
			C38.5,47.4,38,47.7,37.6,47.7z"/>
	</g>
	<g id="_Group_14_1_">
		<path class="st0" d="M65.7,52.8c-0.3,0-0.6-0.1-0.9-0.3c-0.3-0.4-0.4-0.9-0.3-1.4c0-0.1,0.2-0.2,0.3-0.2s0.2,0.2,0.2,0.3l0,0
			c-0.1,0.3,0,0.7,0.2,0.9c0.3,0.2,0.7,0.2,1,0.1c0.6-0.2,1-0.7,1.1-1.3c0-0.2,0-0.4-0.1-0.5c-0.2-0.2-0.6-0.3-0.9-0.2
			c-0.1,0-0.3-0.1-0.3-0.2s0.1-0.3,0.2-0.3c0,0,0,0,0,0c0.5-0.1,0.9,0.1,1.3,0.4c0.2,0.3,0.3,0.6,0.2,1v0c-0.2,0.8-0.7,1.4-1.5,1.7
			C66.1,52.7,65.9,52.8,65.7,52.8z"/>
	</g>
	<g id="_Group_15_1_">
		<path class="st0" d="M66.8,43.8c-0.1,0-0.2,0-0.3,0c-0.7-0.1-1.2-0.5-1.5-1.1c-0.2-0.4-0.2-0.8,0.1-1.2c0.2-0.2,0.6-0.3,0.9-0.2
			c0.1,0,0.2,0.2,0.2,0.3c0,0.1-0.2,0.2-0.3,0.2l0,0c-0.1,0-0.3,0-0.4,0.1c-0.1,0.1-0.1,0.4,0,0.7c0,0,0.2,0.5,1.1,0.8
			c0.2,0,0.4,0,0.6-0.1c0.1-0.1,0.2-0.3,0.1-0.5c0-0.1,0.1-0.3,0.2-0.3s0.3,0.1,0.3,0.2c0.1,0.5-0.2,1-0.7,1.2
			C67,43.8,66.9,43.8,66.8,43.8L66.8,43.8z"/>
	</g>
	<g id="_Group_16_1_">
		<path class="st0" d="M72.8,43.8c0,0-0.1,0-0.1,0c-0.9-1-2.3-1.7-3.7-1.7c-0.7,0-1.3,0.3-1.8,0.8c0,0-0.1,0.1-0.1,0.1h-0.5
			c-0.7,0-0.8-0.8-0.9-0.8c0,0,0,0,0,0c0.1-0.8,0.7-1.4,1.5-1.6c0.1,0,0.2,0,0.2,0.1c0,0.1,0,0.2-0.1,0.2l0,0
			c-0.6,0.1-1.1,0.7-1.2,1.3c0,0.1,0.2,0.6,0.5,0.6H67c0.5-0.5,1.2-0.8,1.9-0.9c1.5,0,2.9,0.7,3.9,1.8c0.1,0.1,0.1,0.2,0,0.2
			C72.8,43.7,72.8,43.8,72.8,43.8L72.8,43.8z"/>
	</g>
	<g id="_Group_17_1_">
		<path class="st0" d="M73.8,47.8c-0.1,0-0.2,0-0.3-0.1c-0.1,0-0.2-0.1-0.3-0.1c-0.2,0-0.3-0.1-0.4-0.3c-0.1-0.2,0-0.5,0.1-0.7
			c0.6-1.3-2.5-3.7-3.8-4.5c-0.1,0-0.1-0.2,0-0.2c0.1-0.1,0.1-0.1,0.2,0l0,0c0.2,0.1,4.8,3.1,3.9,5c-0.1,0.1-0.1,0.2-0.1,0.4
			c0,0,0,0.1,0.1,0.1c0.1,0,0.3,0.1,0.4,0.1c0.1,0,0.1,0,0.2,0c0,0,0,0,0.1-0.1c0.1-0.5,0.2-1,0.2-1.6c0-0.1,0.1-0.2,0.2-0.2l0,0
			c0.1,0,0.2,0.1,0.2,0.2v0l0,0c0,0.6-0.1,1.2-0.2,1.7C74.1,47.7,74,47.8,73.8,47.8z"/>
	</g>
	<g id="_Group_19_1_">
		<path class="st0" d="M73.5,48.5C73.5,48.5,73.5,48.5,73.5,48.5c-1.3-0.3-1.5-1-1.6-1c-0.2-0.3-0.2-0.7,0-1
			c0.3-0.3,0.7-0.4,1.1-0.3c0.1,0,0.2,0.2,0.2,0.3l0,0c0,0.1-0.2,0.2-0.3,0.2l0,0c-0.2,0-0.5,0-0.6,0.1s0,0.4,0,0.5
			c0,0,0.2,0.5,1.1,0.7c0.3,0,0.7-0.1,0.7-0.3c0.1-0.1,0-0.4-0.3-0.7c-0.1-0.1-0.1-0.3,0-0.3s0.3-0.1,0.3,0c0,0,0,0,0,0l0,0
			c0.4,0.5,0.5,0.9,0.3,1.2C74.5,48.5,73.6,48.5,73.5,48.5z"/>
	</g>
	<g id="_Group_20_1_">
		<path class="st0" d="M69.1,55.1L69.1,55.1c-0.1,0-0.2,0-0.2-0.1s0-0.1,0.1-0.1h0.3c0.1,0,0.1,0,0.1,0.1c0,0,0,0.1-0.1,0.1l0,0
			H69.1z M68.7,55.1L68.7,55.1l-0.3,0c-0.1,0-0.1,0-0.1-0.1l0,0c0,0,0-0.1,0.1-0.1l0,0l0,0l0.3,0C68.8,54.9,68.8,55,68.7,55.1
			C68.8,55.1,68.8,55.1,68.7,55.1L68.7,55.1z M69.7,55.1C69.7,55.1,69.7,55.1,69.7,55.1c-0.1-0.1,0-0.2,0-0.2c0.1,0,0.2,0,0.3,0
			c0.1,0,0.1,0,0.1,0.1c0,0,0,0.1-0.1,0.1l0,0C70,55.1,69.8,55.1,69.7,55.1L69.7,55.1z M68.1,55.1L68.1,55.1l-0.3,0
			c-0.1,0-0.1,0-0.1-0.1l0,0c0,0,0-0.1,0.1-0.1l0,0l0,0l0.3,0C68.1,54.9,68.1,55,68.1,55.1C68.1,55,68.1,55.1,68.1,55.1L68.1,55.1z
			 M67.4,55.1L67.4,55.1c-0.1,0-0.2,0-0.3,0C67,55,67,55,67,54.9c0,0,0-0.1,0.1-0.1c0.1,0,0.2,0,0.3,0
			C67.5,54.9,67.5,54.9,67.4,55.1C67.5,55,67.4,55.1,67.4,55.1L67.4,55.1z M70.4,55C70.3,55,70.3,55,70.4,55c-0.1-0.1-0.1-0.2,0-0.2
			c0.1,0,0.2,0,0.3-0.1c0,0,0.1,0,0.1,0.1l0,0c0,0,0,0.1-0.1,0.1C70.6,55,70.5,55,70.4,55L70.4,55z M66.7,55L66.7,55l-0.3,0
			c-0.1,0-0.1,0-0.1-0.1c0,0,0-0.1,0.1-0.1l0,0l0.3,0C66.8,54.8,66.8,54.9,66.7,55C66.8,55,66.8,55,66.7,55L66.7,55z M66.1,54.9
			L66.1,54.9l-0.3,0c-0.1,0-0.1,0-0.1-0.1l0,0c0,0,0.1-0.1,0.1-0.1l0.3,0C66.1,54.8,66.1,54.8,66.1,54.9
			C66.1,54.9,66.1,54.9,66.1,54.9z M71,54.9C71,54.9,71,54.9,71,54.9c-0.1-0.1-0.1-0.2,0-0.2c0.1,0,0.2-0.1,0.3-0.1c0,0,0.1,0,0.1,0
			c0,0,0,0.1-0.1,0.1l0,0l0,0C71.3,54.8,71.2,54.9,71,54.9L71,54.9z M65.4,54.8L65.4,54.8l-0.3,0c-0.1,0-0.1,0-0.1-0.1
			c0,0,0.1-0.1,0.1-0.1l0,0l0,0l0.3,0C65.5,54.7,65.5,54.7,65.4,54.8C65.5,54.8,65.4,54.8,65.4,54.8L65.4,54.8z M64.7,54.7
			L64.7,54.7l-0.3,0c-0.1,0-0.1,0-0.1-0.1l0,0c0,0,0.1-0.1,0.1-0.1l0.3,0C64.8,54.6,64.8,54.6,64.7,54.7
			C64.8,54.7,64.8,54.7,64.7,54.7L64.7,54.7z M71.7,54.7C71.6,54.7,71.6,54.6,71.7,54.7c-0.1-0.1-0.1-0.1,0-0.2
			c0.1,0,0.2-0.1,0.3-0.1c0,0,0.1,0,0.1,0c0,0,0,0.1,0,0.1C71.9,54.6,71.8,54.6,71.7,54.7C71.7,54.7,71.7,54.7,71.7,54.7L71.7,54.7z
			 M64.1,54.6l-0.3,0c0,0-0.1,0-0.1-0.1l0,0l0,0c0,0,0-0.1,0.1-0.1l0.3,0L64.1,54.6z M63.4,54.5L63.4,54.5l-0.3,0c0,0-0.1,0-0.1-0.1
			s0-0.1,0.1-0.1c0,0,0,0,0,0l0.3,0c0,0,0.1,0,0.1,0.1C63.5,54.5,63.5,54.5,63.4,54.5L63.4,54.5z M62.8,54.5L62.8,54.5l-0.3,0
			c0,0-0.1,0-0.1-0.1c0,0,0-0.1,0.1-0.1c0,0,0,0,0,0l0,0l0.3,0C62.8,54.3,62.9,54.3,62.8,54.5L62.8,54.5
			C62.8,54.4,62.8,54.5,62.8,54.5L62.8,54.5z M72.3,54.4C72.2,54.4,72.2,54.3,72.3,54.4c-0.1-0.1-0.1-0.1,0-0.2
			c0.1-0.1,0.2-0.1,0.3-0.2c0,0,0.1,0,0.1,0c0,0,0,0.1,0,0.1l0,0C72.5,54.2,72.4,54.3,72.3,54.4C72.3,54.4,72.3,54.4,72.3,54.4z
			 M62.1,54.3L62.1,54.3l-0.3,0c0,0-0.1,0-0.1-0.1l0,0l0,0c0,0,0-0.1,0.1-0.1l0,0l0.3,0C62.2,54.2,62.2,54.2,62.1,54.3
			C62.2,54.3,62.1,54.4,62.1,54.3L62.1,54.3z M61.4,54.2L61.4,54.2l-0.3,0c0,0-0.1,0-0.1-0.1l0,0l0,0c0,0,0-0.1,0.1-0.1l0.3,0
			C61.5,54.1,61.5,54.1,61.4,54.2L61.4,54.2C61.5,54.2,61.5,54.2,61.4,54.2L61.4,54.2z M60.8,54.2L60.8,54.2l-0.3,0
			c0,0-0.1,0-0.1-0.1l0,0c0,0,0-0.1,0.1-0.1l0,0l0,0l0.3,0C60.8,54,60.9,54,60.8,54.2C60.9,54.1,60.8,54.2,60.8,54.2L60.8,54.2z
			 M60.1,54L60.1,54l-0.3,0c0,0-0.1,0-0.1-0.1l0,0l0,0c0,0,0-0.1,0.1-0.1l0,0l0.3,0C60.2,53.9,60.2,53.9,60.1,54L60.1,54
			C60.2,54,60.2,54,60.1,54L60.1,54z M72.8,54C72.7,54,72.7,53.9,72.8,54c-0.1-0.1-0.1-0.1-0.1-0.1c0.1-0.1,0.2-0.2,0.2-0.2
			c0,0,0.1,0,0.1,0l0,0c0,0,0,0.1,0,0.1C73,53.8,72.9,53.9,72.8,54C72.8,54,72.8,54,72.8,54L72.8,54z M59.5,54L59.5,54l-0.3,0
			c0,0-0.1,0-0.1-0.1c0,0,0-0.1,0.1-0.1l0.3,0c0,0,0.1,0,0.1,0.1S59.5,54,59.5,54z M58.8,53.8L58.8,53.8l-0.3,0c0,0-0.1,0-0.1-0.1
			c0,0,0-0.1,0.1-0.1l0,0l0,0l0.3,0C58.9,53.7,58.9,53.7,58.8,53.8L58.8,53.8C58.9,53.8,58.8,53.8,58.8,53.8L58.8,53.8z M58.1,53.7
			L58.1,53.7l-0.3,0c0,0-0.1,0-0.1-0.1l0,0c0,0,0-0.1,0.1-0.1l0,0l0.3,0C58.2,53.6,58.2,53.6,58.1,53.7
			C58.2,53.7,58.2,53.7,58.1,53.7L58.1,53.7L58.1,53.7z M57.5,53.6L57.5,53.6l-0.3,0c0,0-0.1,0-0.1-0.1l0,0c0,0,0-0.1,0.1-0.1l0,0
			l0.3,0c0,0,0.1,0,0.1,0.1C57.6,53.6,57.5,53.6,57.5,53.6L57.5,53.6z M56.8,53.5L56.8,53.5l-0.1,0l-0.2,0c0,0-0.1,0-0.1-0.1l0,0
			c0,0,0-0.1,0.1-0.1l0,0l0.2,0l0.1,0C56.9,53.4,56.9,53.4,56.8,53.5C56.9,53.5,56.9,53.5,56.8,53.5L56.8,53.5z M73.2,53.5
			C73.2,53.5,73.2,53.4,73.2,53.5c-0.1-0.1-0.1-0.1-0.1-0.1c0.1-0.1,0.1-0.2,0.2-0.3c0,0,0.1,0,0.1,0s0.1,0.1,0,0.1l0,0l0,0
			C73.4,53.2,73.4,53.3,73.2,53.5C73.3,53.5,73.3,53.5,73.2,53.5L73.2,53.5z M56.2,53.4L56.2,53.4l-0.3-0.1c0,0-0.1,0-0.1-0.1l0,0
			c0,0,0-0.1,0.1-0.1l0.3,0.1C56.2,53.2,56.3,53.3,56.2,53.4L56.2,53.4C56.2,53.4,56.2,53.4,56.2,53.4z M55.5,53.3L55.5,53.3
			l-0.4-0.1c0,0-0.1,0-0.1-0.1l0,0c0,0,0-0.1,0.1-0.1l0.3,0.1C55.6,53.1,55.6,53.2,55.5,53.3C55.6,53.2,55.5,53.3,55.5,53.3
			L55.5,53.3z M54.8,53.1L54.8,53.1l-0.4-0.1c0,0-0.1,0-0.1-0.1c0,0,0-0.1,0.1-0.1l0,0l0.3,0.1C54.9,53,54.9,53,54.8,53.1
			C54.9,53.1,54.9,53.2,54.8,53.1z M54.2,53L54.2,53l-0.4-0.1c0,0-0.1,0-0.1-0.1c0,0,0-0.1,0.1-0.1l0,0l0.3,0.1
			C54.2,52.8,54.3,52.9,54.2,53L54.2,53C54.3,53,54.2,53,54.2,53L54.2,53z M53.5,52.9L53.5,52.9l-0.4-0.1c0,0-0.1,0-0.1-0.1l0,0
			c0,0,0-0.1,0.1-0.1l0.3,0.1C53.6,52.7,53.6,52.8,53.5,52.9C53.6,52.8,53.6,52.9,53.5,52.9L53.5,52.9z M52.9,52.7L52.9,52.7
			l-0.4-0.1c0,0-0.1,0-0.1-0.1c0,0,0-0.1,0.1-0.1l0.3,0.1C52.9,52.6,53,52.6,52.9,52.7C53,52.7,52.9,52.7,52.9,52.7L52.9,52.7z
			 M52.2,52.6L52.2,52.6l-0.4-0.1c0,0-0.1,0-0.1-0.1l0,0c0,0,0-0.1,0.1-0.1l0.3,0.1C52.3,52.5,52.3,52.5,52.2,52.6L52.2,52.6
			C52.3,52.6,52.3,52.6,52.2,52.6L52.2,52.6z M51.6,52.5L51.6,52.5l-0.4-0.1c0,0-0.1,0-0.1-0.1c0,0,0-0.1,0.1-0.1l0,0l0.3,0.1
			C51.6,52.3,51.6,52.4,51.6,52.5L51.6,52.5C51.6,52.5,51.6,52.5,51.6,52.5L51.6,52.5z M50.9,52.3L50.9,52.3l-0.3-0.1
			c0,0-0.1,0-0.1-0.1c0,0,0-0.1,0.1-0.1l0,0l0.3,0.1C51,52.2,51,52.2,50.9,52.3L50.9,52.3C51,52.3,51,52.3,50.9,52.3L50.9,52.3z
			 M50.3,52.2L50.3,52.2l-0.4-0.1c0,0-0.1-0.1,0-0.1c0,0,0-0.1,0.1-0.1l0.3,0.1C50.3,52,50.3,52.1,50.3,52.2
			C50.3,52.2,50.3,52.2,50.3,52.2L50.3,52.2z M49.6,52.1L49.6,52.1L49.3,52c0,0-0.1,0-0.1-0.1c0,0,0-0.1,0.1-0.1l0,0l0.3,0.1
			C49.7,51.9,49.7,51.9,49.6,52.1C49.7,52,49.7,52.1,49.6,52.1L49.6,52.1z M49,51.9L49,51.9l-0.4-0.1c0,0-0.1,0-0.1-0.1l0,0
			c0,0,0-0.1,0.1-0.1l0.3,0.1C49,51.8,49,51.8,49,51.9C49,51.9,49,51.9,49,51.9L49,51.9z M48.3,51.8L48.3,51.8l-0.4-0.1
			c0,0-0.1,0-0.1-0.1c0,0,0-0.1,0.1-0.1c0,0,0,0,0,0l0,0l0.3,0.1C48.3,51.6,48.4,51.7,48.3,51.8C48.4,51.8,48.3,51.8,48.3,51.8
			L48.3,51.8z M47.7,51.7L47.7,51.7l-0.4-0.1c0,0-0.1,0-0.1-0.1c0,0,0-0.1,0.1-0.1c0,0,0,0,0,0l0.3,0.1
			C47.7,51.5,47.7,51.5,47.7,51.7C47.7,51.6,47.7,51.7,47.7,51.7L47.7,51.7z M47,51.5L47,51.5l-0.3-0.1c0,0-0.1,0-0.1-0.1l0,0
			c0,0,0-0.1,0.1-0.1l0.3,0.1C47.1,51.4,47.1,51.4,47,51.5C47.1,51.5,47.1,51.5,47,51.5L47,51.5z M46.3,51.4L46.3,51.4L46,51.3
			c0,0-0.1,0-0.1-0.1c0,0,0-0.1,0.1-0.1l0,0l0.3,0.1C46.4,51.2,46.4,51.3,46.3,51.4C46.4,51.3,46.4,51.4,46.3,51.4L46.3,51.4z
			 M45.7,51.2L45.7,51.2l-0.4-0.1c0,0-0.1,0-0.1-0.1c0,0,0-0.1,0.1-0.1l0,0l0.3,0.1C45.7,51.1,45.8,51.1,45.7,51.2
			C45.8,51.2,45.7,51.2,45.7,51.2L45.7,51.2z M45,51.1L45,51.1L44.7,51c0,0-0.1,0-0.1-0.1c0,0,0-0.1,0.1-0.1l0.3,0.1
			C45.1,50.9,45.1,51,45,51.1C45.1,51.1,45.1,51.1,45,51.1L45,51.1z M44.4,51L44.4,51L44,50.9c0,0-0.1,0-0.1-0.1c0,0,0-0.1,0.1-0.1
			l0.3,0.1C44.4,50.8,44.5,50.9,44.4,51C44.5,50.9,44.4,51,44.4,51L44.4,51z M43.7,50.8L43.7,50.8l-0.4-0.1c0,0-0.1,0-0.1-0.1l0,0
			c0,0,0-0.1,0.1-0.1l0.3,0.1C43.8,50.7,43.8,50.7,43.7,50.8C43.8,50.8,43.8,50.8,43.7,50.8L43.7,50.8z M43.1,50.7L43.1,50.7
			l-0.4-0.1c0,0-0.1-0.1,0-0.1c0,0,0-0.1,0.1-0.1l0.3,0.1C43.1,50.5,43.2,50.6,43.1,50.7C43.2,50.7,43.1,50.7,43.1,50.7L43.1,50.7z
			 M42.4,50.5L42.4,50.5l-0.3-0.1c0,0-0.1-0.1,0-0.1c0,0,0-0.1,0.1-0.1l0.3,0.1C42.5,50.4,42.5,50.4,42.4,50.5
			C42.5,50.5,42.5,50.5,42.4,50.5L42.4,50.5z M41.8,50.4L41.8,50.4l-0.4-0.1c0,0-0.1-0.1,0-0.1c0,0,0-0.1,0.1-0.1l0.3,0.1
			C41.8,50.2,41.9,50.3,41.8,50.4C41.8,50.4,41.8,50.4,41.8,50.4L41.8,50.4z M41.1,50.3L41.1,50.3l-0.4-0.1c0,0-0.1,0-0.1-0.1l0,0
			c0,0,0-0.1,0.1-0.1l0,0l0,0l0.3,0.1C41.2,50.1,41.2,50.2,41.1,50.3C41.2,50.2,41.2,50.3,41.1,50.3L41.1,50.3z M40.5,50.1
			L40.5,50.1l-0.4-0.1c0,0-0.1,0-0.1-0.1c0,0,0-0.1,0.1-0.1l0.3,0.1C40.5,50,40.5,50,40.5,50.1C40.5,50.1,40.5,50.1,40.5,50.1
			L40.5,50.1z M39.8,50L39.8,50l-0.2,0l-0.2,0c0,0-0.1-0.1-0.1-0.1c0,0,0-0.1,0.1-0.1l0,0l0,0l0.2,0l0.1,0
			C39.9,49.8,39.9,49.9,39.8,50C39.9,50,39.8,50,39.8,50L39.8,50z M39.2,49.8L39.2,49.8l-0.4-0.1c0,0-0.1-0.1-0.1-0.1
			c0,0,0.1-0.1,0.1-0.1l0.3,0.1C39.2,49.7,39.2,49.7,39.2,49.8C39.2,49.8,39.2,49.8,39.2,49.8L39.2,49.8z M38.5,49.7L38.5,49.7
			l-0.3-0.1c0,0-0.1-0.1-0.1-0.1c0,0,0-0.1,0.1-0.1l0,0l0.3,0.1C38.5,49.5,38.6,49.6,38.5,49.7C38.6,49.7,38.5,49.7,38.5,49.7
			L38.5,49.7z M37.8,49.5L37.8,49.5l-0.4-0.1c0,0-0.1-0.1-0.1-0.1c0,0,0.1-0.1,0.1-0.1l0.3,0.1C37.9,49.4,37.9,49.4,37.8,49.5
			C37.9,49.5,37.9,49.5,37.8,49.5L37.8,49.5z M37.2,49.4L37.2,49.4l-0.4-0.1c0,0-0.1,0-0.1-0.1l0,0c0,0,0-0.1,0.1-0.1l0.3,0.1
			C37.3,49.2,37.3,49.3,37.2,49.4L37.2,49.4C37.3,49.4,37.2,49.4,37.2,49.4L37.2,49.4z M36.5,49.2L36.5,49.2l-0.3-0.1
			c0,0-0.1,0-0.1-0.1l0,0c0,0,0.1-0.1,0.1-0.1l0.3,0.1C36.6,49.1,36.6,49.1,36.5,49.2C36.6,49.2,36.6,49.2,36.5,49.2L36.5,49.2z
			 M35.9,49.1L35.9,49.1L35.6,49c0,0-0.1-0.1-0.1-0.1c0,0,0-0.1,0.1-0.1l0,0l0.3,0.1C36,48.9,36,49,35.9,49.1
			C36,49.1,35.9,49.1,35.9,49.1L35.9,49.1z M35.2,48.9L35.2,48.9l-0.4-0.1c0,0-0.1-0.1,0-0.1c0,0,0-0.1,0.1-0.1l0.3,0.1
			C35.3,48.8,35.3,48.8,35.2,48.9C35.3,48.9,35.3,48.9,35.2,48.9L35.2,48.9z M34.6,48.8L34.6,48.8l-0.4-0.1c0,0-0.1-0.1-0.1-0.1
			c0,0,0-0.1,0.1-0.1l0,0l0.3,0.1C34.6,48.6,34.7,48.7,34.6,48.8L34.6,48.8C34.7,48.8,34.6,48.8,34.6,48.8L34.6,48.8z M34,48.6
			L34,48.6l-0.4-0.1c0,0-0.1-0.1-0.1-0.1c0,0,0-0.1,0.1-0.1l0,0l0.3,0.1C34,48.5,34,48.5,34,48.6L34,48.6C34,48.6,34,48.6,34,48.6
			L34,48.6z M33.3,48.5L33.3,48.5l-0.4-0.1c0,0-0.1-0.1-0.1-0.1c0,0,0-0.1,0.1-0.1l0,0l0.3,0.1C33.3,48.3,33.4,48.4,33.3,48.5
			L33.3,48.5C33.4,48.5,33.3,48.5,33.3,48.5L33.3,48.5z M32.7,48.3L32.7,48.3l-0.4-0.1c0,0-0.1-0.1-0.1-0.1c0,0,0-0.1,0.1-0.1l0,0
			l0.3,0.1C32.7,48.2,32.7,48.2,32.7,48.3L32.7,48.3C32.7,48.3,32.7,48.3,32.7,48.3L32.7,48.3z M32,48.2L32,48.2l-0.3-0.1
			c0,0-0.1-0.1-0.1-0.1c0,0,0-0.1,0.1-0.1l0,0L32,48C32.1,48,32.1,48.1,32,48.2L32,48.2C32.1,48.2,32,48.2,32,48.2L32,48.2z
			 M31.4,48L31.4,48L31,47.9c0,0-0.1-0.1,0-0.1c0,0,0-0.1,0.1-0.1l0,0l0.3,0.1C31.4,47.9,31.4,47.9,31.4,48C31.4,48,31.4,48,31.4,48
			L31.4,48z M30.7,47.9L30.7,47.9l-0.4-0.1c0,0-0.1,0-0.1-0.1l0,0c0,0,0.1-0.1,0.1-0.1l0,0l0.3,0.1C30.8,47.7,30.8,47.8,30.7,47.9
			C30.8,47.9,30.7,47.9,30.7,47.9L30.7,47.9z M30.1,47.7L30.1,47.7l-0.4-0.1c0,0-0.1-0.1-0.1-0.1c0,0,0-0.1,0.1-0.1l0.3,0.1
			C30.1,47.6,30.1,47.6,30.1,47.7C30.1,47.7,30.1,47.7,30.1,47.7L30.1,47.7z M29.4,47.6L29.4,47.6l-0.4-0.1c0,0-0.1-0.1-0.1-0.1
			s0.1-0.1,0.1-0.1l0,0l0.3,0.1C29.5,47.4,29.5,47.5,29.4,47.6C29.5,47.5,29.4,47.6,29.4,47.6L29.4,47.6z M28.8,47.4L28.8,47.4
			l-0.4-0.1c0,0-0.1,0-0.1-0.1c0,0,0-0.1,0.1-0.1l0,0l0.3,0.1C28.8,47.3,28.9,47.3,28.8,47.4C28.8,47.4,28.8,47.4,28.8,47.4
			L28.8,47.4z M28.1,47.3L28.1,47.3l-0.3-0.1c0,0-0.1,0-0.1-0.1l0,0c0,0,0-0.1,0.1-0.1l0,0l0.3,0.1C28.2,47.1,28.2,47.2,28.1,47.3
			C28.2,47.2,28.1,47.3,28.1,47.3L28.1,47.3z M27.5,47.1L27.5,47.1L27.1,47c0,0-0.1-0.1-0.1-0.1s0.1-0.1,0.1-0.1l0.3,0.1
			C27.5,47,27.5,47,27.5,47.1C27.5,47.1,27.5,47.1,27.5,47.1L27.5,47.1z M26.8,47L26.8,47l-0.3-0.1c0,0-0.1-0.1-0.1-0.1
			c0,0,0-0.1,0.1-0.1l0,0l0.3,0.1C26.9,46.8,26.9,46.9,26.8,47C26.9,47,26.9,47,26.8,47L26.8,47z M26.1,46.8L26.1,46.8l-0.3-0.1
			c0,0-0.1-0.1,0-0.1c0,0,0-0.1,0.1-0.1l0.3,0.1C26.2,46.6,26.2,46.7,26.1,46.8C26.2,46.8,26.2,46.8,26.1,46.8L26.1,46.8z
			 M25.5,46.7L25.5,46.7l-0.3-0.1c0,0-0.1,0-0.1-0.1l0,0c0,0,0.1-0.1,0.1-0.1l0.3,0.1C25.6,46.5,25.6,46.6,25.5,46.7
			C25.6,46.6,25.5,46.7,25.5,46.7L25.5,46.7z M24.9,46.5L24.9,46.5l-0.3-0.1c0,0-0.1,0-0.1-0.1l0,0c0,0,0.1-0.1,0.1-0.1l0.3,0.1
			C24.9,46.4,25,46.4,24.9,46.5C24.9,46.5,24.9,46.5,24.9,46.5L24.9,46.5z M24.2,46.3L24.2,46.3l-0.3-0.1c0,0-0.1,0-0.1-0.1
			c0,0,0-0.1,0.1-0.1l0.3,0.1C24.3,46.2,24.3,46.2,24.2,46.3C24.3,46.3,24.2,46.4,24.2,46.3L24.2,46.3z M23.5,46.2L23.5,46.2
			l-0.3-0.1l0-0.2l0,0.1l0-0.1l0.3,0.1C23.6,46,23.6,46.1,23.5,46.2C23.6,46.2,23.6,46.2,23.5,46.2L23.5,46.2z M22.9,46L22.9,46
			L22.6,46c0,0-0.1,0-0.1-0.1l0,0c0,0,0.1-0.1,0.1-0.1l0.3,0.1C23,45.9,23,46,22.9,46C23,46,22.9,46,22.9,46L22.9,46z M22.2,45.9
			L22.2,45.9l-0.3-0.1c0,0-0.1,0-0.1-0.1l0,0c0,0,0.1-0.1,0.1-0.1l0.3,0.1C22.3,45.7,22.4,45.8,22.2,45.9
			C22.3,45.9,22.3,45.9,22.2,45.9L22.2,45.9z M21.6,45.7L21.6,45.7l-0.4-0.1c0,0-0.1-0.1-0.1-0.1c0,0,0-0.1,0.1-0.1l0,0l0.3,0.1
			C21.7,45.6,21.7,45.6,21.6,45.7C21.7,45.7,21.6,45.8,21.6,45.7L21.6,45.7z M21,45.6L21,45.6l-0.4-0.1c0,0-0.1-0.1-0.1-0.1
			c0,0,0.1-0.1,0.1-0.1l0,0l0.3,0.1C21,45.4,21,45.5,21,45.6C21,45.6,21,45.6,21,45.6L21,45.6z M20.3,45.4L20.3,45.4l-0.4-0.1
			c0,0-0.1,0-0.1-0.1s0-0.1,0.1-0.1l0.3,0.1C20.4,45.3,20.4,45.3,20.3,45.4L20.3,45.4C20.4,45.4,20.3,45.4,20.3,45.4L20.3,45.4z
			 M19.6,45.3L19.6,45.3l-0.4-0.1c0,0-0.1,0-0.1-0.1l0,0c0,0,0-0.1,0.1-0.1l0,0l0.3,0.1C19.7,45.1,19.7,45.2,19.6,45.3
			C19.7,45.3,19.7,45.3,19.6,45.3L19.6,45.3z M19,45.1L19,45.1l-0.4-0.1c0,0-0.1-0.1-0.1-0.1s0.1-0.1,0.1-0.1L19,45
			C19.1,45,19.1,45,19,45.1C19.1,45.1,19,45.1,19,45.1L19,45.1z M18.4,45L18.4,45L18,44.9c0,0-0.1-0.1-0.1-0.1c0,0,0-0.1,0.1-0.1
			l0,0l0.3,0.1C18.4,44.8,18.4,44.9,18.4,45C18.4,45,18.4,45,18.4,45L18.4,45z"/>
	</g>
	<g id="_Group_21_1_">
		<path class="st0" d="M50.8,51.9C50.8,51.9,50.7,51.8,50.8,51.9c-0.1-0.1-0.1-0.1-0.1-0.1l0.2-0.2c0,0,0.1,0,0.1,0l0,0
			c0,0,0,0.1,0,0.1l0,0L50.8,51.9C50.9,51.9,50.8,51.9,50.8,51.9z M51.3,51.4C51.2,51.4,51.2,51.4,51.3,51.4L51.3,51.4
			c-0.1-0.1-0.1-0.1-0.1-0.1l0.2-0.2c0,0,0.1,0,0.1,0l0,0c0,0,0,0.1,0,0.1l0,0L51.3,51.4C51.3,51.4,51.3,51.4,51.3,51.4z M51.8,50.9
			C51.7,50.9,51.7,50.9,51.8,50.9L51.8,50.9c-0.1-0.1-0.1-0.1-0.1-0.1l0.2-0.2c0,0,0.1,0,0.1,0l0,0c0,0,0,0.1,0,0.1l0,0l0,0
			L51.8,50.9C51.8,50.9,51.8,50.9,51.8,50.9z M52.2,50.5C52.2,50.5,52.2,50.4,52.2,50.5L52.2,50.5c-0.1-0.1-0.1-0.1-0.1-0.1l0.2-0.2
			c0,0,0.1,0,0.1,0s0,0.1,0,0.1l0,0L52.2,50.5C52.3,50.5,52.3,50.5,52.2,50.5z M52.7,50C52.7,50,52.6,50,52.7,50L52.7,50
			c-0.1-0.1-0.1-0.1-0.1-0.1l0.2-0.2c0,0,0.1,0,0.1,0s0,0.1,0,0.1l0,0L52.7,50C52.8,50,52.7,50,52.7,50z"/>
	</g>
	<g id="_Group_22_1_">
		<path class="st0" d="M55,47.6C54.9,47.6,54.9,47.6,55,47.6c-0.1-0.1-0.1-0.1,0-0.2c0,0,0.1-0.1,0.3-0.2c0,0,0.1,0,0.1,0l0,0
			c0,0,0,0.1,0,0.1l0,0C55.1,47.6,55,47.6,55,47.6C55,47.6,55,47.6,55,47.6z M55.5,47.3C55.5,47.3,55.5,47.3,55.5,47.3
			c-0.1-0.1-0.1-0.1,0-0.2c0.1,0,0.2-0.1,0.3-0.2c0,0,0.1,0,0.1,0c0,0,0,0.1,0,0.1l0,0C55.8,47.2,55.7,47.2,55.5,47.3
			C55.6,47.3,55.6,47.3,55.5,47.3z M56.1,47C56.1,47,56,46.9,56.1,47L56.1,47c-0.1-0.1-0.1-0.1,0-0.2c0.1-0.1,0.2-0.1,0.3-0.2
			c0,0,0.1,0,0.1,0c0,0,0,0.1,0,0.1l0,0C56.3,46.8,56.2,46.9,56.1,47C56.2,47,56.1,47,56.1,47L56.1,47z M56.7,46.6
			C56.6,46.6,56.6,46.6,56.7,46.6c-0.1-0.1-0.1-0.1-0.1-0.2c0.1-0.1,0.2-0.1,0.3-0.2c0,0,0.1,0,0.1,0l0,0c0,0,0,0.1,0,0.1
			C56.9,46.4,56.8,46.5,56.7,46.6C56.7,46.6,56.7,46.6,56.7,46.6L56.7,46.6z M57.2,46.2C57.1,46.2,57.1,46.1,57.2,46.2L57.2,46.2
			C57.1,46,57.1,46,57.1,46c0.1-0.1,0.1-0.1,0.2-0.2l0.1-0.1c0,0,0.1,0,0.1,0c0,0,0,0.1,0,0.1l0,0l-0.1,0.1
			C57.4,46,57.3,46.1,57.2,46.2C57.2,46.1,57.2,46.1,57.2,46.2L57.2,46.2z M57.6,45.7C57.6,45.7,57.6,45.6,57.6,45.7L57.6,45.7
			c-0.1-0.1-0.1-0.1-0.1-0.1c0.1-0.1,0.2-0.2,0.2-0.2c0,0,0.1,0,0.1,0s0,0.1,0,0.1C57.8,45.5,57.8,45.6,57.6,45.7
			C57.7,45.7,57.7,45.7,57.6,45.7z M58.1,45.2C58.1,45.2,58,45.2,58.1,45.2L58.1,45.2c-0.1-0.1-0.1-0.1-0.1-0.1l0.2-0.2
			c0,0,0.1,0,0.1,0c0,0,0,0.1,0,0.1l0,0L58.1,45.2C58.2,45.2,58.2,45.2,58.1,45.2z M58.6,44.8C58.6,44.8,58.5,44.8,58.6,44.8
			c-0.1-0.1-0.1-0.1-0.1-0.1l0.3-0.2c0,0,0.1,0,0.1,0c0,0,0,0.1,0,0.1L58.6,44.8C58.7,44.8,58.7,44.8,58.6,44.8z M59.2,44.3
			C59.1,44.3,59.1,44.3,59.2,44.3c-0.1-0.1-0.1-0.1-0.1-0.1l0.3-0.2c0,0,0.1,0,0.1,0c0,0,0,0.1,0,0.1L59.2,44.3
			C59.2,44.3,59.2,44.3,59.2,44.3z M59.7,43.9C59.6,43.9,59.6,43.9,59.7,43.9L59.7,43.9c-0.1-0.1-0.1-0.1-0.1-0.2l0.3-0.2
			c0,0,0.1,0,0.1,0l0,0c0,0,0,0.1,0,0.1l0,0L59.7,43.9C59.7,43.9,59.7,43.9,59.7,43.9L59.7,43.9z M60.2,43.5
			C60.2,43.5,60.1,43.5,60.2,43.5c-0.1-0.1-0.1-0.1-0.1-0.2l0.3-0.2c0,0,0.1,0,0.1,0c0,0,0,0.1,0,0.1l0,0l0,0L60.2,43.5
			C60.2,43.5,60.2,43.5,60.2,43.5C60.2,43.5,60.2,43.5,60.2,43.5z M60.7,43.1C60.7,43.1,60.6,43.1,60.7,43.1L60.7,43.1
			c-0.1-0.1-0.1-0.1-0.1-0.2l0.3-0.2c0,0,0.1,0,0.1,0c0,0,0,0.1,0,0.1l0,0L60.7,43.1C60.8,43.1,60.8,43.1,60.7,43.1z M61.3,42.7
			C61.2,42.7,61.2,42.6,61.3,42.7L61.3,42.7c-0.1-0.1-0.1-0.1-0.1-0.2l0.3-0.2c0,0,0.1,0,0.1,0c0,0,0,0.1,0,0.1l0,0L61.3,42.7
			C61.3,42.7,61.3,42.7,61.3,42.7L61.3,42.7z M61.8,42.3C61.7,42.3,61.7,42.2,61.8,42.3c-0.1-0.1-0.1-0.1-0.1-0.2l0.3-0.2
			c0,0,0.1,0,0.1,0s0,0.1,0,0.1L61.8,42.3C61.8,42.3,61.8,42.3,61.8,42.3L61.8,42.3z M62.3,41.9C62.3,41.9,62.2,41.8,62.3,41.9
			L62.3,41.9c-0.1-0.1-0.1-0.1-0.1-0.2l0.3-0.2c0,0,0.1,0,0.1,0c0,0,0,0.1,0,0.1l0,0L62.3,41.9C62.3,41.9,62.3,41.9,62.3,41.9
			L62.3,41.9z M62.8,41.5C62.8,41.5,62.8,41.4,62.8,41.5L62.8,41.5c-0.1-0.1-0.1-0.1-0.1-0.2l0.2-0.2l0.1,0c0,0,0.1,0,0.1,0l0,0
			c0,0,0,0.1,0,0.1l0,0l-0.1,0L62.8,41.5C62.9,41.5,62.8,41.5,62.8,41.5L62.8,41.5z M63.4,41.1C63.3,41.1,63.3,41,63.4,41.1
			c-0.1-0.1-0.1-0.1,0-0.2c0.1-0.1,0.2-0.1,0.3-0.2c0,0,0.1,0,0.1,0c0,0,0,0.1,0,0.1l0,0C63.6,41,63.5,41,63.4,41.1
			C63.4,41.1,63.4,41.1,63.4,41.1z M64,40.7C63.9,40.7,63.9,40.7,64,40.7L64,40.7c-0.1-0.1-0.1-0.1,0-0.2c0.1,0,0.2-0.1,0.3-0.2
			c0,0,0.1,0,0.1,0c0,0,0,0.1,0,0.1l0,0C64.2,40.6,64.1,40.7,64,40.7C64,40.7,64,40.7,64,40.7L64,40.7z M66.2,40.5
			C66.1,40.5,66.1,40.5,66.2,40.5c-0.1-0.1-0.2-0.1-0.3-0.2c0,0-0.1-0.1-0.1-0.1l0,0c0,0,0.1-0.1,0.1,0l0,0l0,0
			c0.1,0,0.2,0.1,0.3,0.2C66.2,40.4,66.3,40.4,66.2,40.5C66.2,40.5,66.2,40.5,66.2,40.5L66.2,40.5z M64.6,40.5
			C64.5,40.5,64.5,40.4,64.6,40.5L64.6,40.5c-0.1-0.1-0.1-0.2,0-0.2c0.1,0,0.2-0.1,0.3-0.1c0,0,0.1,0,0.1,0.1s0,0.1-0.1,0.1l0,0
			C64.8,40.4,64.7,40.4,64.6,40.5L64.6,40.5z M65.2,40.3C65.2,40.3,65.1,40.3,65.2,40.3c-0.1-0.1-0.1-0.2,0-0.2c0.1,0,0.2,0,0.3,0
			c0.1,0,0.1,0,0.1,0.1l0,0c0,0,0,0.1-0.1,0.1l0,0l0,0C65.4,40.3,65.3,40.3,65.2,40.3L65.2,40.3z"/>
	</g>
	<g id="_Group_23_1_">
		<path class="st0" d="M68.6,54.2c-0.1,0-0.2,0-0.3,0c-0.1,0-0.1,0-0.1-0.1c0,0,0.1-0.1,0.1-0.1l0,0c0.1,0,0.2,0,0.3,0h0
			C68.6,54.1,68.7,54.1,68.6,54.2C68.7,54.2,68.6,54.2,68.6,54.2L68.6,54.2z M68.9,54.2C68.9,54.2,68.8,54.2,68.9,54.2
			c-0.1-0.1,0-0.2,0-0.2l0.3,0c0.1,0,0.1,0,0.1,0.1c0,0,0,0.1-0.1,0.1l0,0L68.9,54.2L68.9,54.2z M67.9,54.2L67.9,54.2l-0.3,0
			c-0.1,0-0.1,0-0.1-0.1c0,0,0.1-0.1,0.1-0.1l0.3,0C68,54,68,54.1,67.9,54.2C68,54.2,68,54.2,67.9,54.2L67.9,54.2z M69.6,54.1
			C69.5,54.1,69.5,54.1,69.6,54.1c-0.1-0.1,0-0.2,0-0.2l0,0l0.3,0c0.1,0,0.1,0,0.1,0.1c0,0,0,0.1-0.1,0.1l0,0L69.6,54.1
			C69.6,54.1,69.6,54.1,69.6,54.1z M67.2,54.1L67.2,54.1c-0.1,0-0.2,0-0.3,0c-0.1,0-0.1,0-0.1-0.1c0,0,0-0.1,0.1-0.1c0,0,0,0,0,0
			l0,0l0.3,0C67.3,53.9,67.3,54,67.2,54.1L67.2,54.1C67.3,54.1,67.3,54.1,67.2,54.1L67.2,54.1z M70.2,54.1
			C70.2,54.1,70.2,54,70.2,54.1c-0.1-0.1-0.1-0.2,0-0.2c0.1,0,0.2,0,0.3,0c0.1,0,0.1,0,0.1,0.1s0,0.1-0.1,0.1l0,0l0,0
			C70.5,54,70.4,54,70.2,54.1C70.3,54.1,70.2,54.1,70.2,54.1z M66.6,54L66.6,54l-0.3,0c-0.1,0-0.1,0-0.1-0.1l0,0l0,0
			c0,0,0.1-0.1,0.1-0.1l0.3,0C66.7,53.8,66.7,53.9,66.6,54C66.7,54,66.6,54,66.6,54z M70.9,53.9C70.8,53.9,70.8,53.9,70.9,53.9
			c-0.1-0.1-0.1-0.2,0-0.2c0.1,0,0.2,0,0.3-0.1c0,0,0.1,0,0.1,0.1c0,0,0,0.1-0.1,0.1l0,0C71.1,53.9,71,53.9,70.9,53.9L70.9,53.9z
			 M65.9,53.9L65.9,53.9l-0.3-0.1c0,0-0.1-0.1-0.1-0.1c0,0,0.1-0.1,0.1-0.1l0,0l0.3,0.1C66,53.7,66,53.8,65.9,53.9
			C66,53.8,66,53.9,65.9,53.9z M65.3,53.8L65.3,53.8l-0.3-0.1c-0.1,0-0.1,0-0.1-0.1l0,0c0,0,0.1-0.1,0.1-0.1l0,0l0,0l0.3,0.1
			C65.3,53.6,65.4,53.6,65.3,53.8C65.4,53.7,65.3,53.8,65.3,53.8L65.3,53.8z M71.5,53.8C71.5,53.8,71.5,53.7,71.5,53.8
			c-0.1-0.1-0.1-0.2,0-0.2c0.1,0,0.2-0.1,0.3-0.1c0,0,0.1,0,0.1,0c0,0,0,0.1,0,0.1l0,0C71.8,53.6,71.7,53.7,71.5,53.8L71.5,53.8z
			 M64.6,53.7L64.6,53.7l-0.3-0.1c-0.1,0-0.1,0-0.1-0.1c0,0,0.1-0.1,0.1-0.1l0.3,0.1C64.7,53.5,64.7,53.5,64.6,53.7L64.6,53.7
			C64.7,53.6,64.7,53.7,64.6,53.7L64.6,53.7z M64,53.5L64,53.5l-0.4-0.1c0,0-0.1,0-0.1-0.1c0,0,0-0.1,0.1-0.1l0.3,0.1
			C64,53.4,64,53.4,64,53.5C64,53.5,64,53.5,64,53.5L64,53.5z M72.1,53.4C72.1,53.4,72,53.4,72.1,53.4L72.1,53.4
			c-0.1-0.1-0.1-0.1,0-0.2c0.1-0.1,0.2-0.1,0.2-0.2c0,0,0.1,0,0.1,0l0,0c0,0,0,0.1,0,0.1l0,0C72.4,53.3,72.3,53.4,72.1,53.4
			C72.2,53.4,72.1,53.4,72.1,53.4L72.1,53.4z M63.3,53.4L63.3,53.4L63,53.3c0,0-0.1-0.1-0.1-0.1c0,0,0-0.1,0.1-0.1l0.3,0.1
			C63.4,53.2,63.4,53.3,63.3,53.4C63.4,53.4,63.3,53.4,63.3,53.4z M62.7,53.3L62.7,53.3l-0.4-0.1c0,0-0.1,0-0.1-0.1
			c0,0,0-0.1,0.1-0.1c0,0,0,0,0,0l0.3,0.1C62.7,53.1,62.8,53.1,62.7,53.3C62.7,53.2,62.7,53.3,62.7,53.3L62.7,53.3L62.7,53.3z
			 M62,53.1L62,53.1l-0.4-0.1c0,0-0.1,0-0.1-0.1l0,0c0,0,0-0.1,0.1-0.1L62,53C62.1,53,62.1,53,62,53.1C62.1,53.1,62,53.1,62,53.1
			L62,53.1L62,53.1z M61.3,53L61.3,53L61,52.9c0,0-0.1,0-0.1-0.1l0,0c0,0,0-0.1,0.1-0.1l0.3,0.1C61.4,52.8,61.5,52.9,61.3,53
			C61.4,53,61.4,53,61.3,53L61.3,53L61.3,53z M72.6,53C72.6,53,72.6,53,72.6,53c-0.1,0-0.1-0.1-0.1-0.1l0,0l0,0
			c0.1-0.1,0.1-0.2,0.1-0.3c0,0,0.1-0.1,0.1,0c0,0,0.1,0.1,0.1,0.1l0,0C72.8,52.7,72.7,52.8,72.6,53C72.6,53,72.6,53,72.6,53
			L72.6,53z M60.7,52.8L60.7,52.8l-0.4-0.1c0,0-0.1-0.1-0.1-0.1c0,0,0-0.1,0.1-0.1l0.3,0.1C60.7,52.7,60.8,52.7,60.7,52.8
			C60.8,52.8,60.7,52.8,60.7,52.8L60.7,52.8z M60,52.7L60,52.7l-0.4-0.1c0,0-0.1-0.1,0-0.1c0,0,0-0.1,0.1-0.1l0.3,0.1
			C60.1,52.5,60.1,52.6,60,52.7C60.1,52.7,60.1,52.7,60,52.7L60,52.7z M59.4,52.6L59.4,52.6L59,52.5c0,0-0.1,0-0.1-0.1
			c0,0,0-0.1,0.1-0.1l0,0l0.3,0.1C59.4,52.4,59.5,52.5,59.4,52.6C59.4,52.5,59.4,52.6,59.4,52.6L59.4,52.6z M58.7,52.4L58.7,52.4
			l-0.4-0.1c0,0-0.1,0-0.1-0.1c0,0,0-0.1,0.1-0.1l0.3,0.1C58.8,52.3,58.8,52.3,58.7,52.4C58.8,52.4,58.8,52.4,58.7,52.4L58.7,52.4z
			 M58.1,52.3L58.1,52.3l-0.4-0.1c0,0-0.1,0-0.1-0.1c0,0,0-0.1,0.1-0.1c0,0,0,0,0,0l0.3,0.1C58.1,52.1,58.2,52.2,58.1,52.3
			C58.2,52.3,58.1,52.3,58.1,52.3L58.1,52.3z M57.4,52.2L57.4,52.2l-0.3-0.1c0,0-0.1,0-0.1-0.1c0,0,0-0.1,0.1-0.1l0,0l0,0l0.3,0.1
			C57.5,52,57.5,52,57.4,52.2C57.5,52.1,57.5,52.2,57.4,52.2L57.4,52.2z M56.8,52L56.8,52L56.4,52c0,0-0.1,0-0.1-0.1l0,0
			c0,0,0-0.1,0.1-0.1l0.3,0.1C56.8,51.9,56.8,51.9,56.8,52C56.8,52,56.8,52,56.8,52L56.8,52z M56.1,51.9L56.1,51.9l-0.4-0.1
			c0,0-0.1,0-0.1-0.1c0,0,0-0.1,0.1-0.1l0.3,0.1C56.2,51.7,56.2,51.8,56.1,51.9C56.2,51.9,56.2,51.9,56.1,51.9L56.1,51.9z
			 M55.5,51.8L55.5,51.8l-0.3-0.1c0,0-0.1,0-0.1-0.1l0,0c0,0,0-0.1,0.1-0.1l0.3,0.1C55.5,51.6,55.6,51.6,55.5,51.8
			C55.5,51.7,55.5,51.8,55.5,51.8L55.5,51.8z M54.8,51.6L54.8,51.6l-0.3-0.1c0,0-0.1,0-0.1-0.1c0,0,0-0.1,0.1-0.1l0,0l0.3,0.1
			C54.9,51.5,54.9,51.5,54.8,51.6C54.9,51.6,54.8,51.6,54.8,51.6L54.8,51.6z M54.2,51.5L54.2,51.5l-0.4-0.1c0,0-0.1,0-0.1-0.1
			c0,0,0-0.1,0.1-0.1l0.3,0.1C54.2,51.3,54.2,51.4,54.2,51.5L54.2,51.5C54.2,51.5,54.2,51.5,54.2,51.5L54.2,51.5z M53.5,51.3
			L53.5,51.3l-0.4-0.1c0,0-0.1,0-0.1-0.1l0,0c0,0,0-0.1,0.1-0.1l0.3,0.1C53.6,51.2,53.6,51.2,53.5,51.3
			C53.6,51.3,53.5,51.3,53.5,51.3L53.5,51.3z M52.9,51.2L52.9,51.2l-0.4-0.1c0,0-0.1,0-0.1-0.1c0,0,0-0.1,0.1-0.1l0,0l0,0l0.3,0.1
			C52.9,51,53,51.1,52.9,51.2C52.9,51.2,52.9,51.2,52.9,51.2L52.9,51.2z M52.2,51.1L52.2,51.1L51.8,51c0,0-0.1,0-0.1-0.1
			s0-0.1,0.1-0.1l0.3,0.1C52.3,50.9,52.3,51,52.2,51.1L52.2,51.1C52.3,51,52.2,51.1,52.2,51.1L52.2,51.1z"/>
	</g>
	<g id="_Group_24_1_">
		<path class="st0" d="M74.9,50.5C74.8,50.5,74.8,50.5,74.9,50.5l-0.3-0.2c0,0,0-0.1,0-0.1c0,0,0.1,0,0.1,0l0,0l0,0l0.2,0.2
			C75,50.4,75,50.5,74.9,50.5C74.9,50.5,74.9,50.5,74.9,50.5L74.9,50.5z M74.4,50C74.4,50,74.3,50,74.4,50l-0.3-0.2c0,0,0-0.1,0-0.1
			c0,0,0.1,0,0.1,0l0.2,0.2C74.5,49.9,74.5,50,74.4,50C74.4,50,74.4,50,74.4,50L74.4,50z M73.9,49.6C73.9,49.6,73.9,49.6,73.9,49.6
			l-0.3-0.3c0,0,0-0.1,0-0.1l0,0c0,0,0.1,0,0.1,0l0,0l0,0l0.2,0.2C74,49.5,74,49.5,73.9,49.6C73.9,49.6,73.9,49.6,73.9,49.6
			L73.9,49.6z M73.4,49.1C73.4,49.1,73.4,49.1,73.4,49.1L73.3,49l-0.1-0.1c0,0-0.1-0.1,0-0.1l0,0c0,0,0.1,0,0.1,0l0.1,0.1l0,0
			l0.1,0.1C73.5,49,73.5,49.1,73.4,49.1C73.5,49.1,73.5,49.1,73.4,49.1z M72.9,48.7C72.9,48.7,72.9,48.7,72.9,48.7l-0.3-0.2
			c0,0-0.1-0.1,0-0.1c0,0,0.1,0,0.1,0l0.3,0.2C73,48.6,73,48.6,72.9,48.7C72.9,48.7,72.9,48.7,72.9,48.7z M72.3,48.4
			C72.3,48.4,72.3,48.4,72.3,48.4L72,48.2c0,0-0.1-0.1,0-0.1c0,0,0.1,0,0.1,0l0,0l0.3,0.2C72.4,48.2,72.4,48.3,72.3,48.4
			C72.4,48.3,72.4,48.4,72.3,48.4z M71.8,48C71.7,48,71.7,48,71.8,48l-0.3-0.2c0,0-0.1-0.1,0-0.1s0.1,0,0.1,0l0.3,0.2
			C71.9,47.9,71.9,47.9,71.8,48C71.8,48,71.8,48,71.8,48L71.8,48z M71.2,47.7C71.2,47.7,71.2,47.7,71.2,47.7l-0.3-0.2
			c0,0-0.1-0.1,0-0.1s0.1,0,0.1,0l0.3,0.2C71.3,47.5,71.3,47.6,71.2,47.7C71.2,47.6,71.2,47.7,71.2,47.7z M70.6,47.3
			C70.6,47.3,70.6,47.3,70.6,47.3l-0.3-0.2c0,0-0.1-0.1,0-0.1c0,0,0.1,0,0.1,0l0,0l0.3,0.2C70.7,47.2,70.7,47.2,70.6,47.3L70.6,47.3
			C70.7,47.3,70.7,47.3,70.6,47.3L70.6,47.3z M70.1,47C70.1,47,70,47,70.1,47l-0.3-0.2c0,0-0.1-0.1,0-0.1c0,0,0.1,0,0.1,0l0,0l0,0
			l0.3,0.2C70.2,46.8,70.2,46.9,70.1,47L70.1,47C70.1,46.9,70.1,47,70.1,47z M69.5,46.6C69.5,46.6,69.5,46.6,69.5,46.6l-0.3-0.2
			c0,0-0.1-0.1,0-0.1c0,0,0.1,0,0.1,0l0.3,0.2C69.6,46.5,69.6,46.5,69.5,46.6C69.6,46.6,69.5,46.6,69.5,46.6z M68.9,46.2
			C68.9,46.2,68.9,46.2,68.9,46.2l-0.3-0.2c0,0-0.1-0.1,0-0.1l0,0c0,0,0.1,0,0.1,0l0,0l0.3,0.2C69,46.1,69,46.2,68.9,46.2
			C69,46.2,69,46.2,68.9,46.2L68.9,46.2z M68.4,45.9C68.4,45.9,68.3,45.9,68.4,45.9L68,45.7c0,0-0.1-0.1,0-0.1c0,0,0.1,0,0.1,0
			l0.3,0.2C68.5,45.8,68.5,45.8,68.4,45.9L68.4,45.9C68.4,45.9,68.4,45.9,68.4,45.9L68.4,45.9z M67.8,45.5
			C67.8,45.5,67.8,45.5,67.8,45.5l-0.3-0.2c0,0-0.1-0.1,0-0.1c0,0,0.1,0,0.1,0l0,0l0,0l0.3,0.2C67.9,45.4,67.9,45.5,67.8,45.5
			C67.9,45.5,67.8,45.5,67.8,45.5L67.8,45.5z M67.2,45.2C67.2,45.2,67.2,45.2,67.2,45.2L66.9,45c0,0-0.1-0.1,0-0.1s0.1,0,0.1,0l0,0
			l0.3,0.2C67.3,45.1,67.3,45.1,67.2,45.2L67.2,45.2C67.3,45.2,67.3,45.2,67.2,45.2z M66.7,44.8C66.7,44.8,66.7,44.8,66.7,44.8
			l-0.3-0.2c0,0-0.1-0.1,0-0.1l0,0c0,0,0.1,0,0.1,0l0,0l0.3,0.2C66.8,44.7,66.8,44.7,66.7,44.8C66.8,44.8,66.7,44.8,66.7,44.8
			L66.7,44.8z M66.1,44.5C66.1,44.5,66.1,44.5,66.1,44.5l-0.3-0.2c0,0,0-0.1,0-0.1c0,0,0.1,0,0.1,0l0.3,0.2
			C66.2,44.4,66.2,44.4,66.1,44.5C66.2,44.5,66.2,44.5,66.1,44.5L66.1,44.5z M65.6,44.1C65.5,44.1,65.5,44.1,65.6,44.1l-0.3-0.2
			c0,0-0.1-0.1,0-0.1s0.1,0,0.1,0l0,0l0.3,0.2C65.6,44,65.7,44.1,65.6,44.1C65.6,44.1,65.6,44.1,65.6,44.1z M65,43.8
			C65,43.8,65,43.8,65,43.8l-0.3-0.2c0,0-0.1-0.1,0-0.1c0,0,0.1,0,0.1,0l0.3,0.2C65.1,43.6,65.1,43.7,65,43.8L65,43.8
			C65.1,43.7,65,43.7,65,43.8L65,43.8z M64.4,43.4C64.4,43.4,64.4,43.4,64.4,43.4l-0.3-0.2c0,0-0.1-0.1,0-0.1c0,0,0.1,0,0.1,0l0,0
			l0.3,0.2C64.5,43.3,64.5,43.3,64.4,43.4C64.5,43.4,64.5,43.4,64.4,43.4z M63.9,43C63.8,43,63.8,43,63.9,43l-0.3-0.2
			c0,0,0-0.1,0-0.1c0,0,0.1,0,0.1,0l0,0l0.3,0.2C64,42.9,64,43,63.9,43C63.9,43,63.9,43,63.9,43L63.9,43z M63.3,42.7
			C63.3,42.7,63.3,42.7,63.3,42.7L63,42.5c0,0,0-0.1,0-0.1l0,0c0,0,0.1,0,0.1,0l0,0l0.3,0.2C63.4,42.5,63.4,42.6,63.3,42.7
			C63.4,42.7,63.3,42.7,63.3,42.7z M62.7,42.3C62.7,42.3,62.7,42.3,62.7,42.3L62.7,42.3c-0.1,0-0.1-0.1-0.1-0.1c0,0,0.1,0,0.1,0l0,0
			C62.8,42.2,62.8,42.3,62.7,42.3C62.8,42.3,62.8,42.3,62.7,42.3L62.7,42.3z"/>
	</g>
	<g id="_Group_25_1_">
		<path class="st0" d="M75.3,50C75.2,50,75.2,50,75.3,50L75.3,50c-0.1-0.1,0-0.2,0-0.2l0,0c0,0,0.1,0,0.1,0.1l0,0L75.3,50
			C75.3,50,75.3,50,75.3,50L75.3,50z M75.2,49.7C75.2,49.7,75.1,49.7,75.2,49.7c-0.1-0.1-0.2-0.2-0.2-0.3c0,0,0-0.1,0-0.1l0,0
			c0,0,0.1,0,0.1,0c0.1,0.1,0.1,0.2,0.2,0.3C75.3,49.6,75.2,49.7,75.2,49.7L75.2,49.7L75.2,49.7C75.2,49.7,75.2,49.7,75.2,49.7
			L75.2,49.7z M74.8,49.2C74.8,49.2,74.7,49.1,74.8,49.2c-0.1-0.1-0.2-0.2-0.3-0.2c0,0,0-0.1,0-0.1c0,0,0.1,0,0.1,0l0,0
			c0.1,0.1,0.2,0.2,0.2,0.2C74.9,49,74.9,49.1,74.8,49.2L74.8,49.2C74.8,49.1,74.8,49.2,74.8,49.2L74.8,49.2z"/>
	</g>
	<g id="_Group_26_1_">
		<path class="st0" d="M64.9,42.9C64.9,42.9,64.9,42.9,64.9,42.9l-0.2-0.1c0,0-0.1-0.1,0-0.1c0,0,0.1,0,0.1,0l0,0l0.2,0.1
			C65,42.8,65,42.9,64.9,42.9L64.9,42.9C64.9,42.9,64.9,42.9,64.9,42.9z M64.4,42.6C64.4,42.6,64.4,42.6,64.4,42.6l-0.3-0.2
			c0,0-0.1-0.1,0-0.1c0,0,0.1,0,0.1,0l0.3,0.2C64.5,42.5,64.5,42.6,64.4,42.6L64.4,42.6C64.5,42.6,64.4,42.6,64.4,42.6L64.4,42.6z
			 M63.9,42.3C63.8,42.3,63.8,42.3,63.9,42.3l-0.3-0.2c0,0,0-0.1,0-0.1c0,0,0.1,0,0.1,0l0,0l0.3,0.2C63.9,42.2,64,42.2,63.9,42.3
			L63.9,42.3C63.9,42.3,63.9,42.3,63.9,42.3z M63.3,41.9C63.3,41.9,63.3,41.9,63.3,41.9L63,41.7c0,0,0-0.1,0-0.1c0,0,0.1,0,0.1,0
			l0,0l0.3,0.2C63.4,41.8,63.4,41.9,63.3,41.9C63.3,41.9,63.3,41.9,63.3,41.9z"/>
	</g>
	<g id="_Group_27_1_">
		<path class="st0" d="M71.7,47.3C71.7,47.3,71.7,47.3,71.7,47.3l-0.1,0c0,0-0.1-0.1,0-0.1l0,0c0,0,0.1,0,0.1,0l0,0l0,0l0.1,0
			C71.8,47.2,71.8,47.3,71.7,47.3L71.7,47.3C71.8,47.3,71.7,47.3,71.7,47.3z M71.4,47.1C71.4,47.1,71.3,47.1,71.4,47.1L71,46.9
			c0,0-0.1-0.1,0-0.1s0.1,0,0.1,0l0,0l0.3,0.2C71.5,47,71.5,47.1,71.4,47.1C71.4,47.1,71.4,47.1,71.4,47.1L71.4,47.1z M70.8,46.8
			C70.8,46.8,70.8,46.8,70.8,46.8l-0.3-0.2c0,0-0.1-0.1,0-0.1s0.1-0.1,0.1,0c0,0,0,0,0,0l0,0l0.3,0.2C70.9,46.6,70.9,46.7,70.8,46.8
			C70.9,46.7,70.8,46.8,70.8,46.8z M70.3,46.4C70.2,46.4,70.2,46.4,70.3,46.4l-0.3-0.2c0,0-0.1-0.1,0-0.1l0,0c0,0,0.1,0,0.1,0l0,0
			l0,0l0.3,0.2C70.3,46.3,70.3,46.3,70.3,46.4C70.3,46.4,70.3,46.4,70.3,46.4z M69.7,46C69.7,46,69.7,46,69.7,46l-0.3-0.2
			c0,0-0.1-0.1,0-0.1l0,0c0,0,0.1,0,0.1,0l0,0l0.3,0.2C69.8,45.9,69.8,46,69.7,46L69.7,46C69.8,46,69.7,46,69.7,46z M69.2,45.7
			C69.1,45.7,69.1,45.7,69.2,45.7l-0.3-0.2c0,0-0.1-0.1,0-0.1s0.1,0,0.1,0l0,0l0.3,0.2C69.2,45.6,69.3,45.6,69.2,45.7
			C69.2,45.7,69.2,45.7,69.2,45.7z M68.6,45.3C68.6,45.3,68.6,45.3,68.6,45.3l-0.3-0.2c0,0-0.1-0.1,0-0.1c0,0,0.1,0,0.1,0l0,0
			l0.3,0.2C68.7,45.2,68.7,45.2,68.6,45.3C68.7,45.3,68.6,45.3,68.6,45.3L68.6,45.3z M68,44.9C68,44.9,68,44.9,68,44.9l-0.3-0.2
			c0,0-0.1-0.1,0-0.1l0,0c0,0,0.1,0,0.1,0l0.3,0.2C68.1,44.8,68.1,44.9,68,44.9L68,44.9C68.1,44.9,68.1,44.9,68,44.9L68,44.9z
			 M67.5,44.6C67.5,44.6,67.4,44.6,67.5,44.6l-0.3-0.2c0,0-0.1-0.1,0-0.1c0,0,0.1,0,0.1,0l0,0l0,0l0.3,0.2
			C67.6,44.5,67.6,44.5,67.5,44.6L67.5,44.6C67.5,44.6,67.5,44.6,67.5,44.6L67.5,44.6z M66.9,44.2C66.9,44.2,66.9,44.2,66.9,44.2
			L66.6,44c0,0-0.1-0.1,0-0.1c0,0,0.1,0,0.1,0l0.3,0.2C67,44.1,67,44.2,66.9,44.2L66.9,44.2C67,44.2,66.9,44.2,66.9,44.2L66.9,44.2z
			"/>
	</g>
	<g id="_Group_28_1_">
		<g id="_Group_29_1_">
			<path class="st1" d="M65.9,45.5c0-0.1,0.2-0.2,0.3-0.1c0.1,0,0.2,0.2,0.1,0.3s-0.2,0.2-0.3,0.1l0,0h0
				C66,45.8,65.9,45.7,65.9,45.5L65.9,45.5 M66.1,45.8c0.1,0,0.2,0,0.2-0.1s0-0.2-0.1-0.2c-0.1,0-0.2,0-0.2,0.1
				C65.9,45.7,66,45.8,66.1,45.8L66.1,45.8L66.1,45.8 M66.1,45.7L66.1,45.7l0.1-0.2l0.1,0c0.1,0,0.1,0,0.1,0.1c0,0-0.1,0-0.1,0l0,0
				l0,0.1L66.1,45.7L66.1,45.7L66.1,45.7L66.1,45.7z M66.2,45.6C66.2,45.6,66.2,45.6,66.2,45.6C66.2,45.6,66.2,45.6,66.2,45.6
				L66.2,45.6L66.2,45.6L66.2,45.6z"/>
		</g>
		<g id="_Group_30_1_">
			<path class="st1" d="M64.4,44.9l0.1,0c0,0,0-0.4,0-0.6c0.1,0,0.1,0,0.2,0.1c0,0.2,0.1,0.5,0.1,0.5s0.3,0,0.4,0
				c0,0,0.1,0.1,0.1,0.1l-0.5,0.2l0,0.3l0.6-0.4c0,0,0.1,0.1,0.1,0.1c-0.1,0.1-0.2,0.1-0.3,0.2c0.2,0.1,0.3,0.1,0.5,0.2
				c0,0.1,0,0.1,0,0.2l-0.4-0.1l-0.3,0.2l0.3,0c0,0,0.2,0,0.5,0c0,0.1,0,0.1,0,0.2h-0.5L64.7,46c-0.1,0-0.1,0.1-0.2,0.1
				c0.3,0.1,0.7,0.1,1.1,0.2c-0.1,0.5-0.3,1-0.8,1.4c-1-0.3-1.9-0.7-2.8-1.1l-0.3-0.1c-0.1-0.3-0.1-0.6,0-0.9
				c0.1-0.3,0.2-0.7,0.5-0.9l0.5,0.1l-0.1-0.4c0,0,0.1-0.1,0.1-0.1c0.1,0.2,0.2,0.6,0.2,0.6l0.1,0l-0.2-0.7c0.1,0,0.2-0.1,0.2-0.1
				l0.3,0.2c0,0,0.1-0.2,0.1-0.3c0.1,0,0.2,0,0.3,0c0,0.2,0,0.3,0,0.5c0.2-0.1,0.3-0.2,0.5-0.4c0,0,0,0,0,0L64.4,44.9z M64.2,44.6
				l-0.3,0.3l0,0.4l0.2,0l0.2-0.3C64.2,44.9,64.2,44.7,64.2,44.6 M63.6,44.4l-0.1,0.2l0.1,0.1C63.6,44.6,63.6,44.5,63.6,44.4
				 M63,44.4L63,44.4c0.1,0.1,0.2,0.4,0.2,0.4l0.1-0.2L63,44.4z M64.5,45.1l-0.1,0v0.1L64.5,45.1L64.5,45.1z M63.4,44.8l-0.1,0.3
				l0.2-0.2L63.4,44.8z M65,45.6l-0.1,0l-0.3,0.2l0.1,0L65,45.6z M64.1,45.5L64,45.8l0.4-0.2c0,0,0.1,0,0.1-0.1l0-0.2L64.1,45.5z
				 M63.6,45.2l-0.2,0.1l0.1,0.2C63.5,45.5,63.5,45.3,63.6,45.2 M63.9,45.5h-0.1l0,0.1l0.1,0.1L63.9,45.5z M62.8,45.1l-0.2,0.2
				l0.2,0.2l0.3-0.1l0-0.1L62.8,45.1z M62.2,44.9l0.2,0.2l0.1-0.1L62.2,44.9z M64.3,45.9l-0.2,0.2l0.2,0l0.2-0.2L64.3,45.9z
				 M63.2,45.6l-0.6,0.2l-0.2-0.1c0.1,0,0.1-0.1,0.2-0.1c-0.1-0.1-0.1-0.1-0.2-0.2l-0.2,0.1c0,0-0.1,0-0.2,0
				c-0.1,0.2-0.1,0.3-0.1,0.5c0,0,0,0.1,0,0.1c0.5,0.2,0.8,0.4,1.3,0.7l0.3-0.7c0-0.1,0-0.1,0-0.2l-0.3,0l-0.4-0.2
				c0,0,0.4,0,0.6-0.1C63.3,45.7,63.3,45.6,63.2,45.6 M62.1,45.1c0,0.1-0.1,0.1-0.1,0.2C62.1,45.3,62.2,45.2,62.1,45.1L62.1,45.1z
				 M65.3,46.5l-0.2,0c0,0.1,0,0.3,0,0.3L65,46.8l-0.1-0.3l-0.3-0.1l0,0.2l-0.2,0l-0.1-0.2c0,0-0.5,0-0.7-0.1l0,0
				c-0.1,0.2-0.2,0.4-0.2,0.6v0c0.4,0.2,0.7,0.4,1.1,0.6h0c0.2-0.1,0.3-0.2,0.4-0.4C65.3,47,65.3,46.8,65.3,46.5"/>
		</g>
		<g id="_Group_31_1_">
			<path class="st1" d="M64.7,47.8c-0.2,0.1-0.4,0.2-0.6,0.2c-0.8-0.3-1.5-0.9-2.4-1.3c0,0,0-0.1,0-0.1c0.7,0.2,1.3,0.5,2,0.8
				C64,47.6,64.4,47.7,64.7,47.8L64.7,47.8z"/>
		</g>
		<g id="_Group_32_1_">
			<path class="st1" d="M63.3,47.7c0.2,0.1,0.5,0.2,0.7,0.4c-0.7,0.1-1.4-0.2-1.9-0.7c-0.1-0.2-0.2-0.3-0.3-0.5c0,0,0,0,0.1,0
				l0.3,0.2L63.3,47.7z"/>
		</g>
	</g>
</g>
<g class="st2">
	<path d="M41.1,101.5c-0.5,0-0.9-0.1-1.4-0.3c-0.4-0.2-0.8-0.4-1.1-0.8c-0.3-0.3-0.6-0.8-0.8-1.3s-0.3-1.1-0.3-1.7
		c0-0.6,0.1-1.2,0.3-1.7s0.4-0.9,0.8-1.3c0.3-0.4,0.7-0.6,1.1-0.8c0.4-0.2,0.9-0.3,1.4-0.3c0.5,0,0.9,0.1,1.3,0.3
		c0.4,0.2,0.7,0.4,0.9,0.7l-0.8,0.9c-0.2-0.2-0.4-0.3-0.7-0.5c-0.2-0.1-0.5-0.2-0.8-0.2c-0.3,0-0.6,0.1-0.9,0.2
		c-0.3,0.1-0.5,0.3-0.7,0.6c-0.2,0.2-0.3,0.5-0.4,0.9C39.1,96.6,39,97,39,97.4c0,0.4,0.1,0.8,0.2,1.2c0.1,0.4,0.3,0.7,0.4,0.9
		c0.2,0.2,0.4,0.4,0.7,0.6c0.3,0.1,0.6,0.2,0.9,0.2c0.3,0,0.6-0.1,0.9-0.2c0.3-0.1,0.5-0.3,0.7-0.6l0.8,0.9
		c-0.3,0.4-0.7,0.7-1.1,0.8C42.1,101.4,41.6,101.5,41.1,101.5z"/>
	<path d="M44.3,101.4l2.5-7.8h1.6l2.5,7.8h-1.5l-0.6-2.1h-2.6l-0.6,2.1H44.3z M46.9,97.2l-0.3,1h2l-0.3-1c-0.1-0.4-0.2-0.8-0.3-1.3
		c-0.1-0.4-0.2-0.9-0.3-1.3h0c-0.1,0.4-0.2,0.9-0.3,1.3C47.1,96.4,47,96.8,46.9,97.2z"/>
	<path d="M54.9,101.5c-0.6,0-1.1-0.1-1.6-0.3c-0.5-0.2-1-0.5-1.3-0.9l0.8-0.9c0.3,0.3,0.6,0.5,1,0.6c0.4,0.2,0.8,0.2,1.2,0.2
		c0.5,0,0.8-0.1,1-0.3c0.2-0.2,0.4-0.4,0.4-0.7c0-0.2,0-0.3-0.1-0.4c-0.1-0.1-0.2-0.2-0.3-0.3c-0.1-0.1-0.3-0.2-0.4-0.2
		c-0.2-0.1-0.3-0.1-0.5-0.2L54,97.7c-0.2-0.1-0.4-0.2-0.6-0.3c-0.2-0.1-0.4-0.3-0.5-0.4c-0.2-0.2-0.3-0.4-0.4-0.6
		c-0.1-0.2-0.1-0.5-0.1-0.8c0-0.3,0.1-0.6,0.2-0.9c0.1-0.3,0.3-0.5,0.6-0.7c0.2-0.2,0.5-0.4,0.9-0.5c0.3-0.1,0.7-0.2,1.1-0.2
		c0.5,0,0.9,0.1,1.4,0.3c0.4,0.2,0.8,0.4,1.1,0.7l-0.7,0.9c-0.3-0.2-0.5-0.4-0.8-0.5c-0.3-0.1-0.6-0.2-1-0.2c-0.4,0-0.7,0.1-0.9,0.2
		s-0.3,0.4-0.3,0.7c0,0.2,0,0.3,0.1,0.4c0.1,0.1,0.2,0.2,0.3,0.3s0.3,0.2,0.4,0.2c0.2,0.1,0.3,0.1,0.5,0.2l1,0.4
		c0.2,0.1,0.5,0.2,0.7,0.3s0.4,0.3,0.5,0.4s0.3,0.4,0.4,0.6c0.1,0.2,0.1,0.5,0.1,0.8c0,0.3-0.1,0.6-0.2,0.9
		c-0.1,0.3-0.3,0.5-0.6,0.7s-0.6,0.4-0.9,0.5C55.7,101.5,55.3,101.5,54.9,101.5z"/>
	<path d="M62.1,101.5c-0.9,0-1.5-0.3-2-0.8c-0.5-0.5-0.7-1.3-0.7-2.4v-4.8h1.4v5c0,0.6,0.1,1.1,0.4,1.4c0.2,0.3,0.6,0.4,1,0.4
		c0.4,0,0.8-0.1,1-0.4s0.4-0.8,0.4-1.4v-5h1.3v4.8c0,1.1-0.2,1.9-0.7,2.4C63.6,101.3,62.9,101.5,62.1,101.5z"/>
	<path d="M65.9,101.4l2.5-7.8h1.6l2.5,7.8h-1.5l-0.6-2.1h-2.6l-0.6,2.1H65.9z M68.5,97.2l-0.3,1h2l-0.3-1c-0.1-0.4-0.2-0.8-0.3-1.3
		c-0.1-0.4-0.2-0.9-0.3-1.3h0c-0.1,0.4-0.2,0.9-0.3,1.3C68.7,96.4,68.6,96.8,68.5,97.2z"/>
	<path d="M74.3,101.4v-7.8h1.4v6.7h3.7v1.2H74.3z"/>
</g>
</svg>
