<?xml version="1.0" encoding="utf-8"?>
<!-- Generator: Adobe Illustrator 24.3.0, SVG Export Plug-In . SVG Version: 6.00 Build 0)  -->
<svg version="1.1" id="Layer_1" xmlns="http://www.w3.org/2000/svg" xmlns:xlink="http://www.w3.org/1999/xlink" x="0px" y="0px"
	 viewBox="0 0 120 100" style="enable-background:new 0 0 120 100;" xml:space="preserve">
<style type="text/css">
	.st0{fill:#231F20;}
	.st1{enable-background:new    ;}
</style>
<g id="Layer_2_3_">
	<g id="Layer_4_copy">
		<path class="st0" d="M60,36.8l-0.2-0.5h0c0,0.1-0.1,0.2-0.2,0.4l-0.2-0.3c-0.1,0-0.2,0-0.2,0c0,0.1,0,0.3,0,0.3l-0.3,0l-0.2,0.2
			l0.3,0.4h-0.1c0,0-0.2-0.3-0.3-0.4c0,0,0,0,0,0.1l0.2,0.3h-0.4c-0.1,0.2-0.2,0.5-0.1,0.8c0,0.2,0.1,0.5,0.2,0.7h0.2
			c0.8-0.1,1.5,0.2,2.2,0c0.3-0.3,0.3-0.7,0.2-1.1c-0.3,0-0.6,0.1-0.8,0.1c0,0,0-0.1,0.1-0.2l0.3,0l0.4-0.1c0,0,0-0.1,0-0.1
			l-0.3,0.1l-0.2,0l0.2-0.3h0.3c0,0,0,0-0.1-0.1h-0.4c0,0,0.1-0.2,0.2-0.2c0,0,0,0-0.1,0c-0.1,0.2-0.3,0.4-0.3,0.4l-0.1-0.3l0.3-0.2
			c0,0,0,0-0.1,0l-0.3,0.2l-0.2-0.3H60c0,0.2,0.2,0.4,0.2,0.4L60,36.8z M59.5,37.2c0,0.1,0,0.2,0,0.3l-0.1-0.2L59.5,37.2z
			 M59.3,36.7c0,0,0,0.1,0,0.2h0V36.7z M59.3,37L59.3,37v0.2V37z M58.9,36.8l0.2,0v0.2C59,37,59,36.9,58.9,36.8L58.9,36.8z M59,37.3
			l0.3,0l0,0l-0.2,0.2l-0.2-0.1L59,37.3z M58.8,37.4L58.8,37.4h-0.2H58.8z M58.5,37.7c0,0,0-0.1,0-0.2h0.1
			C58.6,37.6,58.5,37.6,58.5,37.7L58.5,37.7z M59.7,38.4c-0.3-0.1-0.7-0.1-1.1-0.1c0,0,0,0,0-0.1c0-0.1-0.1-0.3,0-0.4h0.1l0.2-0.2
			c0,0,0.2,0,0.2,0.1l-0.1,0.1h0.2l0.4-0.2c0,0,0,0,0.1,0c-0.1,0-0.4,0.2-0.4,0.2h0.3l0.2-0.1c0,0,0.1,0.1,0.1,0.2L59.7,38.4z
			 M59.8,37.5L59.8,37.5L59.8,37.5L59.8,37.5L59.8,37.5z M59.7,37.3L59.6,37l0.2-0.3c0,0.1,0.1,0.2,0.2,0.3l0,0.3L59.7,37.3z
			 M60.5,38L60.5,38L60.5,38c0.1-0.1,0.2-0.1,0.3-0.1l0.2,0.2h0.2c0-0.1-0.1-0.1-0.1-0.2l0.2,0c0,0.2,0,0.4,0,0.6
			c0,0.1-0.1,0.2-0.2,0.4h0c-0.3,0-0.6,0-0.9-0.1v0c0-0.2,0-0.4,0-0.5c0.2,0,0.3,0,0.5-0.1L60.5,38z M60.5,37.1L60.5,37.1l-0.1,0.2
			h-0.1L60.5,37.1z M60.3,37.5l-0.1,0.2h-0.1L60.3,37.5L60.3,37.5z M60.2,37.2L60.2,37.2L60,37.5v-0.3l0.2-0.2L60.2,37.2z M60.1,37
			L60.1,37L60.1,37L60.1,37z M61,38.7c-0.1,0.1-0.2,0.2-0.4,0.3c-0.7-0.1-1.3-0.2-2-0.3l0,0c0.5,0,1.1,0,1.6,0.1
			C60.4,38.8,60.7,38.8,61,38.7L61,38.7z M59,39.1c-0.1-0.1-0.2-0.2-0.3-0.3h0l0.3,0l0.8,0.1c0.2,0,0.4,0.1,0.6,0.1
			C60.1,39.4,59.5,39.4,59,39.1L59,39.1z M59.8,35.3c-1.4,0-2.5,1.1-2.5,2.5c0,1.4,1.1,2.5,2.5,2.5c1.4,0,2.5-1.1,2.5-2.5
			C62.3,36.4,61.2,35.3,59.8,35.3L59.8,35.3z M59.8,40c-1.2,0-2.2-1-2.2-2.2s1-2.2,2.2-2.2s2.2,1,2.2,2.2l0,0C62,39,61,40,59.8,40
			L59.8,40z M80.4,29.3c0-0.5-0.3-0.5-0.6-0.6c-0.1,0-0.3,0-0.5-0.1c-0.7-0.2-2.2-0.2-3.2-0.2c-0.3,0-0.9,0-1.6,0
			c-1.1,0-2.5,0-3.8,0c0-0.4-0.1-0.7-0.1-0.9c0-0.2-0.1-0.5-0.1-0.8c-0.1-2.9-0.2-6.2-0.2-6.6c-0.1-0.8-0.8-3-1-3.5
			c-0.2-0.5-1.2-2.7-1.3-3c-0.1-0.3-1-3.1-2.7-4.3c-1.6-1-3.6-1.4-4.9-1.4c-0.4,0-4.3,0.1-6.5,3.3c-0.2,0.2-0.3,0.4-0.4,0.7
			c-0.4,0.6-0.8,1.3-1.1,2c0,0.1-1.1,2.5-1.3,3c-0.2,0.6-0.8,2.9-0.9,5.1c0,0.2-0.1,1.8-0.2,3.6c-0.1,0.7-0.2,1.2-0.2,1.5
			c0,0.3-0.1,0.8-0.1,1.5c-1.6,0-4-0.2-4.9-0.3c-1.1-0.1-3.3-0.1-4,0.1c-0.9,0.2-1,0.7-1,1.1c0,0.2,0.1,0.3,0.1,0.5
			c0.1,0.3,0.2,0.6,0.1,0.8c-0.1,1.1-0.2,2.1-0.1,3.2c0,0.4,0.1,1,0.2,1.5c0.1,1,0.3,2.2,0.2,2.7c-0.1,0.6,0.1,1.7,0.2,2.7
			c0.1,0.5,0.1,1,0.1,1.2s0,0.6,0,1c0,0.7-0.1,1.5-0.1,2c0.1,0.7,0.2,3.7,0.1,4.5c-0.1,0.6,0,1.5,0.1,2.5c0,0.7,0.1,1.3,0.1,1.9
			c0,1,0.2,3.4,0.4,5.2c0,0.5,0.1,0.9,0.1,1.3c0.1,1.4,0.3,2.9,0.6,3.8c0.1,0.5,0.2,1.1,0.3,1.7c0,0.2,0,0.4,0.1,0.5l0,0
			c0,0.1,0,0.2,0.1,0.3c0,0,0,0,0,0c0.1,0.2,0.3,0.5,3,0.4c1.7-0.1,3-0.1,4.1-0.1c0.8,0,1.4,0,2-0.1c1.5-0.1,4.2-0.2,9.1-0.1
			c4.5,0,8.4,0.1,10.9,0.2c0.9,0,1.8,0.1,2.5,0.1c1.1,0.1,1.8,0.1,2.3,0.1c0.2,0,0.4,0,0.6,0c0.4-0.1,0.6-0.4,0.5-0.7c0,0,0,0,0-0.1
			c0.2-0.2,0.2-0.4,0.3-0.7c0-0.1,0-0.1,0-0.2c0.1-0.2,0.2-0.8,0.3-1.5c0.2-0.9,0.4-2.1,0.5-2.5c0.2-0.5,0.2-1.9,0.3-3
			c0-0.3,0-0.5,0-0.7c0-0.3,0-0.8,0-1.4c0-1.2,0.1-2.7,0.2-3.1c0.2-0.7,0.3-4.3,0.3-4.9c0-0.3,0-1.3,0-2.4c0-1.8,0-3.9,0-4.9
			c0-1.6,0.6-6.3,0.7-7.1c0.1-0.8,0.2-2.5,0.1-3.2c-0.1-0.4,0-0.7,0.1-1C80.3,29.7,80.4,29.5,80.4,29.3L80.4,29.3z M79.6,31
			c0.1,0.6,0.1,2.2-0.1,3c-0.1,0.8-0.7,5.6-0.7,7.2c0,0.9,0,3.1,0,4.9c0,1.2,0,2.1,0,2.4c0,0.8-0.1,4.2-0.3,4.8
			c-0.1,0.4-0.2,1.7-0.2,3.3c0,0.5,0,1.1,0,1.4c0,0.2,0,0.5,0,0.7c-0.1,1-0.1,2.5-0.2,2.9c-0.1,0.4-0.3,1.5-0.5,2.5
			c-0.1,0.7-0.2,1.3-0.3,1.5c0,0.1,0,0.1,0,0.2c-0.1,0.4-0.1,0.5-0.5,0.6s-1.6,0-2.9,0c-0.7,0-1.4-0.1-2.2-0.1l-1.4-0.1
			c-2.3-0.1-6.1-0.2-9.6-0.2c-0.5,0-1.1,0-1.6,0c-4.7,0.1-12.7,0.2-12.8,0.2c0,0-1.3,0.1-2,0.1c-0.5,0-1.6,0-1.8-0.1c0,0,0,0,0-0.1
			l0,0V66c0-0.6-0.1-1.2-0.3-1.8c-0.2-0.8-0.5-2.3-0.6-3.7c0-0.3-0.1-0.8-0.1-1.3c-0.2-1.7-0.4-4.1-0.4-5.1c0-0.5,0-1.2-0.1-1.9
			c-0.1-0.9-0.1-1.8-0.1-2.4c0.1-1,0-4-0.1-4.7c0-0.4,0-1.2,0.1-1.9c0-0.5,0-0.8,0-1.1s0-0.7-0.1-1.2c-0.1-0.9-0.2-2-0.2-2.5
			c0.1-0.6-0.1-1.7-0.2-2.9c-0.1-0.6-0.2-1.2-0.2-1.5c0-1,0-2.1,0.1-3.1c0-0.3,0-0.7-0.1-1c0-0.1-0.1-0.3-0.1-0.4
			c0-0.2-0.1-0.4,0.5-0.5c0.6-0.1,2.7-0.2,3.8-0.1c0.8,0.1,3.3,0.2,4.9,0.3l0,0.2c-2.8-0.1-7-0.3-7-0.3h0c-0.2,0-0.3,0-0.6,0
			c-0.7,0-1.3,0-1.3,0.4c0,0.4,0.4,0.6,2.7,0.7c1.2,0,2.9,0,4.6,0c0.5,0,1.1,0,1.6,0c-0.1,1.7-0.2,3.4-0.2,3.5
			c-0.1,0.9-0.2,3-0.2,3.2c0,0.3,0.7,1.2,1.2,1.3l0.1,0l0.1,0c0.5-0.3,1.1-0.7,1.1-1c0-0.3,0.1-3.2,0.1-3.6c0,0,0-1.8,0.1-3.4
			c0.5,0,1,0,1.7,0c1.8,0,4.1,0.1,6.2,0.1c0.6,0,1.2,0,1.7,0c1.6,0,3,0,4.3-0.1c0.9,0,1.8,0,2.7,0c0,0.2,0,0.4,0,0.6
			c-0.2,0.1-0.3,0.4-0.4,0.6c-0.1,0.3-0.1,0.6,0,0.9c-0.1,0.5,0,1.2,0.4,1.7c0,0.7-0.1,1.4-0.1,1.8c0,0.5,0,0.8,0,0.8
			c0,0.3,0.5,1.4,1,1.5c0,0,0.1,0,0.1,0c0.2,0,0.4-0.1,0.6-0.2c0,0.6-0.1,2.2-0.1,3.5c0,0.8-0.1,1.5-0.1,1.8c0,0.6-0.2,1.9-0.3,2.6
			c0,0.1,0,0.1,0,0.2c-0.8-0.1-0.9,0-0.9,0l-0.1,0.1v0.1c0,0.1-0.1,0.6-0.2,1.2c-0.2,1.2-0.4,3-0.6,4.5C67,55,67,55,67.2,55
			c0.1,0,0.9,0.1,1.7,0.2c0.4,0.1,0.9,0.1,1.3,0.1c0.4,0,0.4-0.1,0.4-0.2c0-0.1,0.3-2.2,0.6-4.3c0.6-4.3,0.5-4.3,0.3-4.3
			c-0.1,0-0.4-0.1-0.9-0.1c0,0,0,0,0,0c0-0.1,0.1-0.6,0.1-1.1c0.1-0.7,0.2-1.3,0.2-1.5c0-0.3,0.2-5.4,0.2-6.1c0-0.1,0-0.3,0-0.6
			c0.1,0.1,0.1,0.2,0.1,0.2l0.1,0.2l0.6-0.7l-0.1-0.1c0,0-0.3-0.4-0.6-0.7c-0.1-0.1-0.1-0.1-0.1-0.2c0-0.8,0-1.7,0-2
			c0.1-0.6,0-0.8-0.1-1c0,0,0,0,0-0.1c-0.1-0.2-0.1-0.3-0.2-0.4c0-0.2,0-0.5-0.1-0.7c-0.1-0.1-0.1-0.2-0.2-0.3c0-0.1,0-0.2,0-0.3
			c0-0.2,0-0.5,0-0.8c1.3,0,2.9,0,4.2-0.1c1.2,0,2.2,0,2.7,0c0.2,0,0.4,0,0.6,0c0.9,0,1.4,0,1.4-0.4c0,0,0,0,0-0.1
			c0-0.1,0-0.2,0-0.3c-0.1-0.2-0.4-0.2-2.8-0.2c-1.9,0-3.3,0-4.7,0l-1.4,0c0-0.1,0-0.1,0-0.2c1.4,0,2.9,0,4,0c0.8,0,1.4,0,1.6,0
			c0.9,0,2.4,0,3.1,0.2c0.2,0,0.4,0.1,0.5,0.1l0.2,0l0,0c0,0.1,0,0.3-0.1,0.4C79.6,30,79.5,30.5,79.6,31L79.6,31z M68.3,15.4l-0.1,0
			l0-0.2l0.1,0L68.3,15.4z M68.3,15.6l0,0.2l-0.1,0l0.1,0.2h0l0,0.1c0.2,0.4,0.3,0.7,0.3,0.8c0.1,0.2,0.3,0.8,0.4,1.4l0.1,0
			c0,0.1,0,0.1,0,0.2l-0.1,0l0.1,0.2h0l0,0.2h0c0.1,0.5,0.2,0.9,0.3,1.4c0,0.3,0.1,2.2,0.2,4.2l0,0.2h0c0,0.1,0,0.1,0,0.2h0l0,0.2h0
			c0,0.1,0,0.1,0,0.2h0l0,0.2h0c0,0.1,0,0.1,0,0.2h0l0,0.2h0c0,0.1,0,0.1,0,0.2h0c0,0.1,0,0.1,0,0.2h0c0,0.1,0,0.1,0,0.2h0v0.2h0
			c0,0.1,0,0.1,0,0.2h0V27h0c0,0.1,0,0.1,0,0.2h0v0.2h0c0,0.1,0,0.1,0,0.2h0v0.2h0c0,0.1,0,0.1,0,0.2h0v0.2l0,0c0,1.4,0.1,2.6,0.1,3
			c0,0.5,0,1.3,0,2.3c0,0.1,0,0.2-0.1,0.3c0,0.1,0,0.1-0.1,0.2c0,0,0,0,0,0.1c0,0,0,0.1,0,0.1c0,0,0,0.1,0,0.1l0,0
			c-0.3-0.3-0.6-0.7-0.9-1c-0.1-0.1-0.1-0.1-0.1-0.2l0,0l0,0l0-0.1c0.1-2.3,0.2-5,0.1-6.6c0-1.3-0.1-2.6-0.2-3.9
			c-0.1-0.8-0.2-1.7-0.2-3c-0.1-1.5-0.2-3.1-0.5-4.6l0.3,0.7l0-0.1L68.3,15.6z M69.2,17.9c0,0.1,0,0.1,0,0.2l-0.1,0
			c0-0.1,0-0.1,0-0.2L69.2,17.9z M69,17.7l0-0.2l0.1,0l0,0.2L69,17.7z M69.1,17.3l-0.1,0l0-0.2l0.1,0L69.1,17.3z M69.2,46.6
			C69.2,46.6,69.2,46.7,69.2,46.6c0,0.4,0,0.7,0.3,0.8l0,0c0,0,0.4,0.1,0.6,0.1c0,0,0.1,0,0.1,0c0.2,0,0.3-0.1,0.4-0.2
			c0,0,0.1-0.1,0.1-0.1c0,0,0-0.1,0-0.1c0-0.1,0-0.2,0-0.3c0.3,0,0.6,0.1,0.7,0.1c0,0.9-0.9,7.2-1,8.1c-0.4,0-2.3-0.2-2.9-0.3
			c0-0.8,0.7-5.3,0.9-7c0.1-0.7,0.1-1,0.2-1.1C68.7,46.5,68.9,46.6,69.2,46.6L69.2,46.6z M50,29L50,29c0-0.1,0.1-0.1,0.1-0.2H50
			l0-0.2h0.1c0-0.1,0-0.1,0-0.2H50c0-0.1,0-0.1,0-0.2h0c0-0.1,0-0.1,0-0.2l0,0l0-0.2h0c0-0.1,0-0.1,0-0.2h0l0-0.2h0
			c0-0.1,0-0.1,0-0.2h0l0-0.2h0c0,0,0-0.1,0-0.2h0l0-0.2h0c0,0,0-0.1,0-0.2l0,0l0-0.2h0c0-0.1,0-0.1,0-0.2l0,0l0-0.2l0,0
			c0,0,0-0.1,0-0.2l0,0l0-0.2l0,0l0-0.2l-0.1,0l0-0.2l0.1,0c0-0.1,0-0.1,0-0.2l-0.1,0l0-0.2l0.1,0l0-0.2h-0.1l0-0.2l0.1,0
			c0-0.1,0-0.1,0-0.2l-0.1,0l0-0.2l0.1,0c0-0.1,0-0.1,0-0.2l-0.1,0l0-0.2l0.1,0c0,0,0-0.1,0-0.2l-0.1,0l0-0.2l0.1,0
			c0-0.1,0-0.1,0-0.2l-0.1,0l0-0.2l0.1,0c0-0.1,0-0.1,0-0.2l-0.1,0l0-0.2l0.1,0c0-0.1,0-0.1,0-0.2l-0.1,0c0-0.1,0-0.1,0-0.2l0.1,0
			c0-0.1,0-0.1,0-0.2l-0.1,0l0-0.2l0.1,0v0c0.2-1.3,0.4-2.4,0.5-2.6c0-0.1,0-0.2,0.1-0.4c0.2-1.2,0.9-4.8,2.6-7.2
			c0.2-0.4,0.5-0.7,0.9-1l0,0l0.2-0.1l0.1,0.1l-0.2,0.1l-0.1-0.1L55,10.8l0.1,0.1L54.9,11L54.9,11l-0.1,0.1l0.1,0.1
			c0,0.1-0.1,0.1-0.1,0.2l0,0c0,0.1-0.1,0.1-0.1,0.1l0,0c0,0.1-0.1,0.1-0.1,0.2l0,0c0,0.1-0.1,0.1-0.1,0.1l0,0
			c0,0.1-0.1,0.1-0.1,0.2l0,0l-0.1,0.1l0,0c0,0.1-0.1,0.1-0.1,0.2l0,0c0,0.1,0,0.1-0.1,0.1l0,0c0,0.1-0.1,0.1-0.1,0.2l0,0l-0.1,0.2
			l0,0c0,0.1-0.1,0.1-0.1,0.2h0c0,0.1,0,0.1-0.1,0.1h0c0,0.1-0.1,0.1-0.1,0.2l0,0c-0.1,0.1-0.1,0.3-0.2,0.4c-0.6,1.4-0.9,4.9-1.1,7
			c0,0.6-0.1,1-0.1,1.3c-0.1,0.6-0.3,1.7-0.5,3c-0.2,1.3-0.4,2.7-0.5,3.4C51,29.7,51,33.5,51,33.7c0,1.3-0.1,3.2-0.1,3.5
			c-0.1,0.1-0.4,0.3-0.7,0.5c-0.2-0.2-0.6-0.6-0.6-0.8c0-0.2,0.1-1.7,0.2-3.1c0,0,0-0.7,0.1-1.7v-0.1l0,0c0-0.1,0-0.1,0-0.2l0,0
			l0-0.2h0c0-0.1,0-0.1,0-0.2h0l0-0.2h0c0-0.1,0-0.1,0-0.2h0l0-0.2h0l0-0.2h0l0-0.2h0c0-0.1,0-0.1,0-0.2h0l0-0.2h0l0-0.2h0l0-0.2h0
			c0-0.1,0-0.1,0-0.2h0l0-0.2h0l0-0.2h0L50,29z M51.4,18.4l0,0.2l-0.1,0l0-0.2L51.4,18.4z M51.2,19.4l0-0.2l0.1,0l0,0.2L51.2,19.4z
			 M51.2,19l0-0.2l0.1,0l0,0.2L51.2,19z M51.3,19.5l0,0.2l-0.1,0l0-0.2L51.3,19.5z M51,21.3l0-0.2l0.1,0l0,0.2L51,21.3z M51.1,21.5
			l0,0.2l-0.1,0l0-0.2L51.1,21.5z M51,20.9l0-0.2l0.1,0l0,0.2L51,20.9z M51.1,20.5l0-0.2l0.1,0l0,0.2L51.1,20.5z M51.1,20.1l0-0.2
			l0.1,0l0,0.2L51.1,20.1z M71.1,36.4c0.2,0.2,0.3,0.3,0.4,0.5l-0.1,0.1c-0.1-0.1-0.2-0.3-0.3-0.5V36.4z M70.8,33.8
			c0,0.4,0,1.3,0,2.2c0,0.7,0,1.3,0,1.6c0,0.7-0.2,5.7-0.2,6.1c0,0.2-0.1,0.9-0.2,1.5c-0.1,0.7-0.1,1-0.1,1.2c0,0.1,0,0.2,0,0.3
			c0,0.2,0,0.3,0,0.4c-0.1,0.1-0.1,0.1-0.2,0.1c-0.2,0-0.5-0.1-0.6-0.1c0,0-0.1-0.1-0.1-0.4c0-0.1,0-0.3,0.1-0.6
			c0.1-0.8,0.2-2.1,0.3-2.7c0-0.3,0-1,0.1-1.8c0.1-1.3,0.1-2.9,0.2-3.5c0-0.3,0-0.7,0-1.2c0-1,0-2.3,0.1-2.8
			c0.1-0.4,0.2-0.8,0.2-1.3c0-0.2,0-0.3,0.1-0.4c0-0.2,0.1-0.6-0.1-0.7c0,0,0,0,0,0c0.1,0,0.1,0.1,0.2,0.1c0,0.2,0.1,0.4,0,0.5
			l0,0.1l0,0c0.1,0.1,0.2,0.3,0.2,0.4c0,0,0,0,0,0.1C70.8,33.1,70.8,33.3,70.8,33.8L70.8,33.8z M68.6,36.9c0,0,0-0.4,0-0.8
			c0-0.5,0-1.1,0.1-1.8c0,0,0.1,0,0.1,0.1l0.1,0.1c0.3,0.3,0.7,0.7,0.8,0.8c0,0.5,0,1.1,0,1.7c0,0.1,0,0.2,0,0.3v0.2
			c-0.2,0.1-0.4,0.2-0.6,0.3C69,37.7,68.6,37,68.6,36.9L68.6,36.9z M68.1,31.9c-0.1,0.6,0.2,1.1,0.3,1.4l0,0c0.3,0.5,0.8,1,1.3,1.4
			l0,0.1c-0.5-0.4-0.9-0.9-1.3-1.4c-0.4-0.5-0.4-1.3-0.3-1.7c0-0.1,0.1-0.2,0.2-0.3C68.2,31.6,68.2,31.7,68.1,31.9L68.1,31.9z
			 M55.4,10.4l0.2-0.1l0.1,0.1l-0.2,0.1L55.4,10.4z M55.7,10.1l0.2-0.1l0.1,0.1L55.7,10.1L55.7,10.1z M67.2,14.6
			c0.3,1.7,0.5,3.4,0.6,5.1c0.1,1.3,0.2,2.2,0.3,3c0.1,0.4,0.1,0.8,0.1,1.2c-0.1-0.6-0.2-1.2-0.2-1.5c0-0.3-0.1-0.7-0.1-1.3
			c-0.2-2.1-0.5-5.6-1.1-7c-0.3-0.7-0.8-2-1.8-3.1c0.3,0.3,0.7,0.7,0.9,1.1C66.4,12.8,66.9,13.7,67.2,14.6L67.2,14.6z M68.3,28.5
			c-0.3,0-0.6,0-0.8,0c-1.6,0-4.1,0-6.2,0c-1.1,0-2,0-2.7,0c-1,0-3,0-4.8,0.1c-0.7,0-1.5,0-2.1,0c0-0.3,0-0.5,0-0.8
			c0.1-0.8,0.3-1.8,0.5-2.9c0.2-1.2,0.4-2.4,0.5-3c0-0.3,0.1-0.7,0.1-1.3c0.2-1.9,0.5-5.5,1-6.9c0.4-0.9,1.2-3,3.1-4.1
			c0.9-0.4,1.8-0.6,2.8-0.6c4.5,0,5.9,3.7,6.5,5c0.5,1.4,0.9,4.9,1.1,6.9c0.1,0.6,0.1,1,0.1,1.3c0.1,0.6,0.3,1.8,0.4,3
			c0.2,1,0.3,2.1,0.4,2.8C68.3,28.3,68.3,28.4,68.3,28.5L68.3,28.5z M51.7,29.3c0.6,0,1.4,0,2.2-0.1c1.8,0,3.8-0.1,4.7-0.1
			c0.6,0,1.6,0,2.7,0c2,0,4.5-0.1,6.1,0c0.2,0,0.5,0,0.8,0c0,0.1,0,0.1,0,0.2c-0.8,0-1.5,0-2.1,0c-1.2,0-2.1,0-3.9,0
			c-1.2,0-2.9,0.1-4.8,0.1c-2.2,0.1-4.4,0.1-5.9,0.1C51.7,29.4,51.7,29.4,51.7,29.3L51.7,29.3z M49.4,30c-0.5,0-1.1,0-1.6,0
			c-1.7,0-3.4,0-4.6,0c-1.8-0.1-2.2-0.2-2.3-0.3c0.3,0,0.6-0.1,0.9,0c0.2,0,0.4,0,0.6,0c0.2,0,4.2,0.2,7,0.3L49.4,30z M51.7,29.9
			c1.4,0,3.7-0.1,5.9-0.1c1.8,0,3.5-0.1,4.8-0.1c1.8,0,2.7,0,3.9,0c0.6,0,1.2,0,2.1,0c0,0.1,0,0.3,0,0.4c-0.9,0-1.8,0-2.7,0
			c-1.3,0-2.7,0-4.3,0.1c-2.5,0.1-5.6,0-7.9-0.1c-0.6,0-1.2,0-1.7,0C51.7,29.9,51.7,29.9,51.7,29.9L51.7,29.9z M70.5,29.6l1.4,0
			c1.4,0,2.8,0,4.7,0c1.2,0,2.3,0,2.5,0.1c0,0,0,0.1,0,0.1c-0.1,0.1-0.6,0.1-1.1,0.1c-0.2,0-0.4,0-0.7,0c-0.4,0-1.5,0-2.7,0
			c-1.3,0-2.9,0-4.2,0.1C70.5,29.9,70.5,29.7,70.5,29.6L70.5,29.6z M51.1,18.7c0,0.1,0,0.3-0.1,0.3c0,0.2-0.1,0.6-0.2,1.2
			c0.1-0.8,0.3-1.5,0.4-2.1C51.1,18.4,51.1,18.6,51.1,18.7z M69,16.9l-0.1,0l0-0.2l0.1,0L69,16.9z M68.9,16.5l-0.1,0l-0.1-0.2l0.1,0
			L68.9,16.5z M68.8,15.9l0.1,0.2l-0.1,0L68.7,16L68.8,15.9z M68.3,15.1l-0.1,0l0-0.2l0.1,0L68.3,15.1z M51.3,66.7
			c-0.6,0-1.3,0-2,0.1c-1.1,0-2.4,0.1-4.1,0.1c-1.5,0.1-2.3,0-2.6-0.1c0.3,0.1,0.9,0.1,1.7,0.1c0.6,0,1.9-0.1,2-0.1s3.2-0.1,6.8-0.1
			C52.3,66.7,51.8,66.7,51.3,66.7z M55.8,66.6c1.2,0,2.2,0,3.2-0.1c3.1,0,6.7,0.1,9.4,0.1c-2.2,0-5-0.1-7.9-0.1
			C58.6,66.6,57.1,66.6,55.8,66.6L55.8,66.6z M76.8,66.9c-0.1,0-0.1,0-0.2,0C76.7,66.9,76.8,66.9,76.8,66.9l0.1-0.1
			C76.9,66.9,76.8,66.9,76.8,66.9L76.8,66.9z M77.2,66.7L77.2,66.7L77.2,66.7L77.2,66.7z M68.9,46.9l-0.1-0.1c0.1,0,0.1,0,0.2,0
			l0.1,0.1C69,46.9,68.9,46.9,68.9,46.9z M70.8,47.2l-0.2,0c0,0,0-0.1,0-0.1l0.2,0L70.8,47.2z M71,47.9l0.1,0l0,0.2l-0.1,0L71,47.9z
			 M71,47.5l0.1,0c0,0.1,0,0.2,0,0.2H71L71,47.5z M71,47.3L71,47.3l0.1-0.1l0.1,0c0,0,0,0,0,0c0,0,0,0.1,0,0.1L71,47.4
			C71,47.4,71,47.3,71,47.3C71,47.3,71,47.3,71,47.3L71,47.3z M71,49.2l-0.1,0l0-0.2l0.1,0L71,49.2z M71,48.8l-0.1,0l0-0.2l0.1,0
			L71,48.8z M71.1,48.5l-0.1,0l0-0.2l0.1,0L71.1,48.5z M70.8,50.3l-0.1,0l0-0.2l0.1,0L70.8,50.3z M70.9,50l-0.1,0l0-0.2l0.1,0
			L70.9,50z M70.9,49.6l-0.1,0l0-0.2l0.1,0L70.9,49.6z M70.7,51.4l-0.1,0l0-0.2l0.1,0L70.7,51.4z M70.7,51.1l-0.1,0l0-0.2l0.1,0
			L70.7,51.1z M70.8,50.7l-0.1,0l0-0.2l0.1,0L70.8,50.7z M70.5,52.5l-0.1,0l0-0.2l0.1,0L70.5,52.5z M70.6,52.2l-0.1,0l0-0.2l0.1,0
			L70.6,52.2z M70.6,51.8l-0.1,0l0-0.2l0.1,0L70.6,51.8z M70.4,53.7l-0.1,0l0-0.2l0.1,0L70.4,53.7z M70.4,53.3l-0.1,0l0-0.2l0.1,0
			L70.4,53.3z M70.5,52.9l-0.1,0l0-0.2l0.1,0L70.5,52.9z M70.2,54.8l-0.1-0.1l0-0.2l0.1,0.1C70.2,54.7,70.2,54.7,70.2,54.8z
			 M70.3,54.4l-0.1,0l0-0.2l0.1,0L70.3,54.4z M70.3,54l-0.1,0l0-0.2l0.1,0L70.3,54z M69.3,54.8l-0.2,0l0-0.1l0.2,0L69.3,54.8z
			 M69.7,54.8c-0.1,0-0.2,0-0.2,0l0-0.1l0.2,0L69.7,54.8z M69.8,54.9l0-0.1c0.1,0,0.1,0,0.2,0l0.1,0.1C70,54.9,69.9,54.9,69.8,54.9
			L69.8,54.9z M68.1,54.5l0.2,0l-0.1,0.1l-0.2,0l0,0L68.1,54.5L68.1,54.5z M68.4,54.5l0.2,0l0,0.1l-0.2,0L68.4,54.5z M68.7,54.6
			l0.2,0l0,0.1l-0.2,0L68.7,54.6z M67.8,53.6l0.1,0l0,0.2l-0.1,0L67.8,53.6z M67.8,54.2l-0.1,0c0-0.1,0-0.2,0-0.2h0.1L67.8,54.2z
			 M67.8,54.4L67.8,54.4l-0.1,0.1l-0.1,0c0,0,0,0,0,0c0,0,0,0,0,0c0,0,0-0.1,0-0.1l0.1-0.1C67.8,54.3,67.8,54.4,67.8,54.4
			C67.8,54.4,67.8,54.4,67.8,54.4C67.8,54.4,67.8,54.4,67.8,54.4L67.8,54.4z M68,52.7l-0.1,0l0-0.2l0.1,0L68,52.7z M68,53.1l-0.1,0
			l0-0.2l0.1,0L68,53.1z M67.8,53.2l0.1,0l0,0.2l-0.1,0L67.8,53.2z M68.2,51.6l-0.1,0l0-0.2l0.1,0L68.2,51.6z M68.1,52L68,52l0-0.2
			l0.1,0L68.1,52z M68.1,52.3l-0.1,0l0-0.2l0.1,0L68.1,52.3z M68.3,50.3l0,0.2l-0.1,0l0-0.2L68.3,50.3z M68.2,50.6l0.1,0l0,0.2
			l-0.1,0L68.2,50.6z M68.1,51l0.1,0l0,0.2l-0.1,0L68.1,51z M68.5,49.4l-0.1,0l0-0.2l0.1,0L68.5,49.4z M68.4,49.8l-0.1,0l0-0.2
			l0.1,0L68.4,49.8z M68.4,50.1l-0.1,0l0-0.2l0.1,0L68.4,50.1z M68.5,48.2l0-0.2l0.1,0l0,0.2L68.5,48.2z M68.5,48.4l0.1,0l0,0.2
			l-0.1,0L68.5,48.4z M68.5,49l-0.1,0l0-0.2l0.1,0L68.5,49z M68.8,47.2l-0.1-0.1c0-0.1,0-0.1,0-0.2l0.1,0.1L68.8,47.2z M68.7,47.5
			l-0.1,0l0-0.2l0.1,0L68.7,47.5z M68.7,47.9l-0.1,0l0-0.2l0.1,0L68.7,47.9z M61.3,38.6l0.1,0.1c0,0.1-0.1,0.1-0.1,0.2l-0.1-0.1
			C61.2,38.7,61.3,38.6,61.3,38.6L61.3,38.6z M61.4,38.2l0.1,0c0,0.1,0,0.1-0.1,0.2l-0.1,0C61.4,38.4,61.4,38.3,61.4,38.2L61.4,38.2
			z M61.5,37.9l0.1,0c0,0,0,0.1,0,0.1l0,0.1l-0.1,0l0-0.1C61.5,38,61.5,37.9,61.5,37.9L61.5,37.9z M60.5,39.3l0.1,0.1
			c-0.1,0-0.1,0.1-0.2,0.1l0-0.1C60.4,39.4,60.5,39.4,60.5,39.3L60.5,39.3z M60.8,39.1L60.8,39.1c0,0.1,0,0.2-0.1,0.2l-0.1-0.1
			C60.8,39.2,60.8,39.2,60.8,39.1L60.8,39.1z M61.1,38.9L61.1,38.9c0.1,0.1,0,0.2,0,0.2L61,39C61,39,61.1,38.9,61.1,38.9L61.1,38.9z
			 M59.4,39.5C59.4,39.5,59.5,39.5,59.4,39.5l0.1,0.2c0,0-0.1,0-0.1,0l-0.1,0l0-0.1L59.4,39.5z M59.9,39.5l0,0.1l-0.1,0l-0.1,0
			l0-0.1h0.1H59.9z M60.2,39.5l0,0.1l-0.1,0l-0.1,0l0-0.1c0,0,0.1,0,0.1,0L60.2,39.5z M58.4,38.9c0,0,0.1,0.1,0.1,0.2l-0.1,0.1
			C58.4,39.1,58.4,39,58.4,38.9L58.4,38.9z M58.7,39.1c0,0,0.1,0.1,0.2,0.1l-0.1,0.1c-0.1,0-0.1-0.1-0.2-0.1L58.7,39.1z M59,39.3
			c0.1,0,0.1,0.1,0.2,0.1l0,0.1c-0.1,0-0.1,0-0.2-0.1L59,39.3z M58.1,38.1l-0.1,0l0-0.1l0-0.1l0.1,0l0,0.1L58.1,38.1z M58.2,38.4
			l-0.1,0c0-0.1,0-0.1-0.1-0.2l0.1,0C58.1,38.3,58.2,38.4,58.2,38.4L58.2,38.4z M58.3,38.7l-0.1,0.1c0-0.1-0.1-0.1-0.1-0.2l0.1-0.1
			C58.3,38.6,58.3,38.7,58.3,38.7L58.3,38.7z M58.2,37L58.1,37c0-0.1,0.1-0.1,0.1-0.2l0.1,0.1C58.3,36.9,58.3,37,58.2,37L58.2,37z
			 M58.1,37.4l-0.1,0c0-0.1,0-0.1,0.1-0.2l0.1,0C58.2,37.2,58.1,37.3,58.1,37.4L58.1,37.4z M58.1,37.7l-0.1,0c0,0,0-0.1,0-0.1l0-0.1
			l0.1,0l0,0.1C58.1,37.7,58.1,37.7,58.1,37.7L58.1,37.7z M59,36.3l-0.1-0.1c0.1,0,0.1-0.1,0.2-0.1l0,0.1C59.1,36.2,59,36.3,59,36.3
			z M58.7,36.5L58.7,36.5c0-0.1,0-0.2,0.1-0.2l0.1,0.1C58.8,36.4,58.7,36.5,58.7,36.5L58.7,36.5z M58.4,36.7L58.4,36.7
			c-0.1-0.1,0-0.2,0-0.2l0.1,0.1C58.5,36.7,58.5,36.7,58.4,36.7L58.4,36.7z M60.1,36.1C60.1,36.1,60.1,36.1,60.1,36.1L60,36
			c0,0,0.1,0,0.1,0l0.1,0L60.1,36.1L60.1,36.1z M59.7,36.1l0-0.1l0.1,0l0.1,0l0,0.1h-0.1H59.7z M59.3,36.2l0-0.1l0.1,0l0.1,0l0,0.1
			c0,0-0.1,0-0.1,0L59.3,36.2z M61.1,36.8c0,0-0.1-0.1-0.1-0.2l0.1-0.1C61.1,36.6,61.2,36.6,61.1,36.8L61.1,36.8z M60.9,36.5
			c0,0-0.1-0.1-0.2-0.1l0.1-0.1c0.1,0,0.1,0.1,0.2,0.1L60.9,36.5z M60.6,36.3c-0.1,0-0.1-0.1-0.2-0.1l0-0.1c0.1,0,0.1,0,0.2,0.1
			L60.6,36.3z M61.5,37.5l0.1,0l0,0.1l0,0.1l-0.1,0l0-0.1L61.5,37.5z M61.4,37.2l0.1,0c0,0.1,0,0.1,0.1,0.2l-0.1,0
			C61.4,37.3,61.4,37.3,61.4,37.2L61.4,37.2z M61.3,36.8c0,0.1,0.1,0.1,0.1,0.2l-0.1,0.1C61.3,37,61.2,36.9,61.3,36.8L61.3,36.8z
			 M68.2,15.6l0.1,0l0,0.2l-0.1,0h-0.1l0-0.1L68.2,15.6z M68.2,15.2l0.1,0l0,0.2l-0.1,0L68.2,15.2z M68.2,14.9l0,0.2l-0.1,0l0-0.2
			L68.2,14.9z M68.4,16.9l-0.1,0l0-0.2l0.1,0L68.4,16.9z M68.3,16.5l0-0.2l0.1,0l0,0.2L68.3,16.5z M68.2,16L68.2,16l0.1,0l0,0.1
			l0,0.1l-0.1,0L68.2,16z M68.5,17.8l0,0.2l-0.1,0l0-0.2L68.5,17.8z M68.5,17.4l0,0.2l-0.1,0l0-0.2L68.5,17.4z M68.3,17.1l0.1,0
			l0,0.2l-0.1,0L68.3,17.1z M68.5,19.1l0-0.2l0.1,0l0,0.2L68.5,19.1z M68.5,18.8l0-0.2l0.1,0l0,0.2L68.5,18.8z M68.4,18.4l0-0.2
			l0.1,0l0,0.2L68.4,18.4z M68.7,20.2l-0.1,0l0-0.2l0.1,0L68.7,20.2z M68.6,19.9l0-0.2l0.1,0l0,0.2L68.6,19.9z M68.6,19.5l0-0.2
			l0.1,0l0,0.2L68.6,19.5z M68.8,21.4l-0.1,0l0-0.2l0.1,0L68.8,21.4z M68.8,21l-0.1,0l0-0.2l0.1,0L68.8,21z M68.8,20.6l-0.1,0l0-0.2
			l0.1,0L68.8,20.6z M68.9,22.5l-0.1,0l0-0.2l0.1,0L68.9,22.5z M68.9,22.1l-0.1,0l0-0.2l0.1,0L68.9,22.1z M68.9,21.7l-0.1,0l0-0.2
			l0.1,0L68.9,21.7z M69,23.6l-0.1,0l0-0.2l0.1,0L69,23.6z M69,23.2l-0.1,0l0-0.2l0.1,0L69,23.2z M68.9,22.9l-0.1,0l0-0.2l0.1,0
			L68.9,22.9z M69,24.5l0,0.2h-0.1l0-0.2H69z M69,24.1l0,0.2h-0.1l0-0.2H69z M68.9,24l0-0.2H69l0,0.2H68.9z M69.1,25.6v0.2H69v-0.2
			H69.1z M69.1,25.3l0,0.2H69l0-0.2H69.1z M69.1,24.9l0,0.2h-0.1l0-0.2H69.1z M68.9,26.8h0.1V27h-0.1V26.8z M69.1,26.6H69l0-0.2h0.1
			L69.1,26.6z M69,26h0.1v0.2H69V26z M68.9,27.9H69v0.2h-0.1V27.9z M68.9,27.5h0.1v0.2h-0.1V27.5z M68.9,27.1h0.1v0.2h-0.1V27.1z
			 M68.9,29.2V29H69l0,0.2H68.9z M68.9,28.8l0-0.2H69l0,0.2H68.9z M68.9,28.5l0-0.2H69v0.2H68.9z M68.9,30.3v-0.2H69v0.2H68.9z
			 M68.9,29.9v-0.2H69l0,0.2H68.9z M69,29.4l0,0.2h-0.1v-0.2H69z M68.8,31.2H69v0.2h-0.1V31.2z M68.8,30.9H69l0,0.2h-0.1L68.8,30.9z
			 M68.9,30.5H69l0,0.2h-0.1L68.9,30.5z M68.9,32.3v0.2h-0.1v-0.2H68.9z M68.8,32h0.1v0.2h-0.1V32z M68.8,31.6H69v0.2h-0.1V31.6z
			 M68.9,33.1v0.2c-0.1-0.1-0.1-0.1-0.1-0.2v0H68.9z M68.9,32.7v0.2h-0.1v-0.2H68.9z M68.8,34.8l0-0.2h0.1v0.2H68.8z M68.8,34.3
			l0.1,0.1l0,0h-0.1L68.8,34.3z M68.9,35.9h-0.1v-0.2h0.1V35.9z M68.9,35.5h-0.1l0-0.2h0.1L68.9,35.5z M68.8,35h0.1v0.2h-0.1V35z
			 M68.8,36.9C68.8,36.9,68.9,37,68.8,36.9l-0.1,0.1c0,0-0.1-0.1-0.1-0.1v-0.1L68.8,36.9L68.8,36.9z M68.7,36.5h0.1l0,0.2h-0.1
			L68.7,36.5z M68.8,36.3h-0.1v-0.2h0.1V36.3z M69.9,33.4v0.2h-0.1v-0.2H69.9z M69.8,33.8h0.1c0,0.1,0,0.1-0.1,0.2h-0.1V33.8z
			 M69.8,34.2L69.8,34.2c0,0,0,0.1,0,0.1l0,0V34.2z M69.9,32.5h-0.1v-0.2h0.1L69.9,32.5z M69.9,32.8h-0.1v-0.2h0.1V32.8z M69.9,33.2
			h-0.1V33h0.1L69.9,33.2z M69.9,31.3h-0.1v-0.2h0.1L69.9,31.3z M69.9,31.7h-0.1v-0.2h0.1L69.9,31.7z M69.9,32.1h-0.1v-0.2h0.1
			L69.9,32.1z M69.9,29.9v0.2h-0.1v-0.2H69.9z M69.9,30.3v0.2h-0.1v-0.2H69.9z M69.9,30.9h-0.1v-0.2h0.1V30.9z M69.9,28.7V29h-0.1
			v-0.2H69.9z M69.9,29.1v0.2h-0.1v-0.2H69.9z M69.9,29.5v0.2h-0.1v-0.2H69.9z M69.8,27.6h0.1v0.2h-0.1V27.6z M69.8,28h0.1v0.2h-0.1
			V28z M69.8,28.4h0.1v0.2h-0.1L69.8,28.4z M69.8,26.4L69.8,26.4l0,0.2h-0.1L69.8,26.4L69.8,26.4z M69.8,26.8L69.8,26.8l0,0.2h-0.1
			L69.8,26.8L69.8,26.8z M69.8,27.2h0.1v0.2h-0.1V27.2z M69.7,25.2L69.7,25.2l0.1,0l0,0.2h0h-0.1V25.2z M69.7,25.6L69.7,25.6h0.1
			l0,0.2h0h-0.1L69.7,25.6z M69.7,26L69.7,26h0.1c0,0.1,0,0.1,0,0.2h0h-0.1C69.8,26.2,69.8,26.1,69.7,26L69.7,26z M69.8,24.1l0,0.2
			l-0.1,0l0-0.2L69.8,24.1z M69.8,24.5L69.8,24.5l0,0.2h0l-0.1,0l0-0.2L69.8,24.5z M69.7,24.9l0.1,0h0l0,0.2h0l-0.1,0L69.7,24.9z
			 M69.6,23.1l0-0.2l0.1,0l0,0.2L69.6,23.1z M69.6,23.5l0-0.2l0.1,0l0,0.2L69.6,23.5z M69.7,23.7l0,0.2l-0.1,0l0-0.2L69.7,23.7z
			 M69.6,21.7l0,0.2l-0.1,0l0-0.2L69.6,21.7z M69.6,22.1l0,0.2l-0.1,0l0-0.2L69.6,22.1z M69.6,22.5l0,0.2l-0.1,0l0-0.2L69.6,22.5z
			 M69.5,20.6l0,0.2l-0.1,0l0-0.2L69.5,20.6z M69.5,21l0,0.2l-0.1,0l0-0.2L69.5,21z M69.6,21.3l0,0.2l-0.1,0l0-0.2L69.6,21.3z
			 M69.2,19.4l0.1,0l0,0.2l-0.1,0L69.2,19.4z M69.3,19.8l0.1,0l0,0.2l-0.1,0L69.3,19.8z M69.3,20.2h0.1l0,0.2l-0.1,0L69.3,20.2z
			 M69.1,18.2L69.1,18.2l0.1,0c0,0.1,0,0.1,0,0.2l-0.1,0l-0.1,0C69.1,18.4,69.1,18.3,69.1,18.2L69.1,18.2z M69.2,18.6L69.2,18.6
			l0.1,0l0,0.2h0l-0.1,0L69.2,18.6z M69.2,19.2l0-0.2l0.1,0l0,0.2L69.2,19.2z M68.9,17.1l0.1,0l0,0.2l-0.1,0L68.9,17.1z M69.1,17.5
			l0,0.2l-0.1,0l0-0.2L69.1,17.5z M69.1,18.1c0-0.1,0-0.1,0-0.2l0.1,0c0,0.1,0,0.1,0,0.2L69.1,18.1z M68.7,16.2L68.7,16l0.1,0
			l0.1,0.2L68.7,16.2z M68.9,16.3l0.1,0.2l-0.1,0l-0.1-0.2L68.9,16.3z M69,16.7l0.1,0.2l-0.1,0l0-0.2L69,16.7z M69.1,37.3L69.1,37.3
			l-0.2-0.1l0.1-0.1L69.1,37.3z M69.2,37.6l-0.1-0.2l0.1-0.1l0.1,0.1l0.1,0l0.1,0.1L69.2,37.6z M69.7,37.2L69.7,37.2L69.7,37.2
			l0,0.2l0,0l-0.1,0.1l-0.1-0.1L69.7,37.2L69.7,37.2L69.7,37.2z M55.1,10.7L55.1,10.7L55.1,10.7l0.2-0.2l0.1,0.1L55.1,10.7
			L55.1,10.7z M55.5,10.5l-0.1-0.1l0.2-0.1l0.1,0.1L55.5,10.5z M55.8,10.2l-0.1-0.1l0.2-0.1l0.1,0.1L55.8,10.2z M54.5,11.4
			L54.5,11.4L54.5,11.4c0.1,0.1,0,0.2,0,0.2l0,0l-0.1,0C54.4,11.5,54.4,11.4,54.5,11.4z M54.7,11.1L54.7,11.1l0.1,0.1
			c0,0.1-0.1,0.1-0.1,0.2l0,0l0,0C54.6,11.2,54.7,11.1,54.7,11.1z M55,10.8L55,10.8L55,10.8l0,0.2L54.9,11l0,0L55,10.8z M53.9,12.4
			L53.9,12.4l0.1,0.1c0,0.1-0.1,0.1-0.1,0.2l0,0l-0.1-0.1C53.8,12.5,53.8,12.4,53.9,12.4z M54.1,12.1L54.1,12.1c0,0.1,0,0.1-0.1,0.2
			l0,0l-0.1-0.1C54,12.2,54,12.1,54.1,12.1L54.1,12.1z M54.3,11.7L54.3,11.7l0.1,0.1c0,0.1-0.1,0.1-0.1,0.2l0,0l-0.1,0
			C54.2,11.8,54.2,11.8,54.3,11.7z M53.4,13.4l0.1,0.1l-0.1,0.2l-0.1-0.1L53.4,13.4z M53.5,13.1l0.1,0.1h0c0,0.1-0.1,0.1-0.1,0.2
			l0,0l-0.1-0.1C53.5,13.2,53.5,13.1,53.5,13.1z M53.7,12.7L53.7,12.7l0.1,0.1c0,0.1-0.1,0.1-0.1,0.2h0l-0.1-0.1
			C53.6,12.9,53.7,12.8,53.7,12.7z M52.9,14.7c0-0.1,0-0.1,0.1-0.2l0.1,0c0,0.1,0,0.1-0.1,0.2L52.9,14.7z M53.1,14.2l0.1,0l-0.1,0.2
			l-0.1,0L53.1,14.2z M53.2,13.8l0.1,0.1l-0.1,0.2L53.2,14L53.2,13.8z M52.6,15.9l0-0.2l0.1,0l0,0.2L52.6,15.9z M52.7,15.5
			c0-0.1,0-0.1,0-0.2l0.1,0c0,0.1,0,0.1,0,0.2L52.7,15.5z M52.8,15.1c0-0.1,0-0.1,0.1-0.2l0.1,0c0,0.1,0,0.1,0,0.2L52.8,15.1z
			 M52.5,16.8l0.1,0c0,0.1,0,0.1,0,0.2l-0.1,0C52.5,17,52.5,16.9,52.5,16.8z M52.5,16.4l0.1,0l0,0.2l-0.1,0L52.5,16.4z M52.6,16.3
			l0-0.2l0.1,0l0,0.2L52.6,16.3z M52.3,18l0.1,0l0,0.2l-0.1,0L52.3,18z M52.4,17.6l0.1,0l0,0.2l-0.1,0L52.4,17.6z M52.4,17.2l0.1,0
			l0,0.2l-0.1,0L52.4,17.2z M52.2,19.1l0.1,0l0,0.2l-0.1,0L52.2,19.1z M52.2,18.7l0.1,0l0,0.2l-0.1,0L52.2,18.7z M52.3,18.4l0.1,0
			l0,0.2l-0.1,0L52.3,18.4z M52.1,20.3l0.1,0l0,0.2l-0.1,0L52.1,20.3z M52.1,19.9l0.1,0l0,0.2l-0.1,0L52.1,19.9z M52.2,19.5l0.1,0
			l0,0.2l-0.1,0L52.2,19.5z M52,21.4l0.1,0l0,0.2l-0.1,0L52,21.4z M52,21l0.1,0l0,0.2l-0.1,0L52,21z M52.1,20.7l0.1,0l0,0.2l-0.1,0
			L52.1,20.7z M51.9,22.6l0.1,0l0,0.2l-0.1,0L51.9,22.6z M51.9,22.2l0.1,0l0,0.2l-0.1,0L51.9,22.2z M52,21.8l0.1,0l0,0.2l-0.1,0
			L52,21.8z M51.8,23.8l0,0.2l-0.1,0l0-0.2L51.8,23.8z M51.9,23.4l0,0.2l-0.1,0l0-0.2L51.9,23.4z M51.8,23l0.1,0l0,0.2l-0.1,0
			L51.8,23z M51.6,24.9l0,0.2l-0.1,0l0-0.2L51.6,24.9z M51.7,24.5l0,0.2l-0.1,0l0-0.2L51.7,24.5z M51.8,24.1l0,0.2l-0.1,0l0-0.2
			L51.8,24.1z M51.3,26l0.1,0l0,0.2l-0.1,0L51.3,26z M51.4,25.6l0.1,0l0,0.2l-0.1,0L51.4,25.6z M51.6,25.3l0,0.2l-0.1,0l0-0.2
			L51.6,25.3z M51.2,27.4l-0.1,0l0-0.2l0.1,0L51.2,27.4z M51.2,27l0-0.2l0.1,0l0,0.2L51.2,27z M51.2,26.6l0-0.2l0.1,0l0,0.2
			L51.2,26.6z M51.1,28.5l-0.1,0l0-0.2l0.1,0L51.1,28.5z M51.1,28.2l-0.1,0l0-0.2l0.1,0L51.1,28.2z M51.2,27.8l-0.1,0l0-0.2l0.1,0
			L51.2,27.8z M51,29.5l0,0.2h-0.1l0-0.2H51z M51,29.1l0,0.2h-0.1l0-0.2L51,29.1z M50.9,28.7l0.1,0c0,0.1,0,0.1,0,0.2l-0.1,0
			C50.9,28.9,50.9,28.8,50.9,28.7L50.9,28.7z M50.8,30.6H51v0.2h-0.1V30.6z M51,30.2v0.2h-0.1v-0.2H51z M51,29.9v0.2h-0.1v-0.2H51z
			 M50.8,31.8H51V32h-0.1V31.8z M50.8,31.4H51v0.2h-0.1V31.4z M51,31.2h-0.1V31H51V31.2z M50.8,33.2V33H51v0.2H50.8z M50.8,32.8
			v-0.2H51v0.2H50.8z M50.8,32.4v-0.2H51v0.2L50.8,32.4z M50.8,34.1H51l0,0.2h-0.1L50.8,34.1z M51,33.7c0,0.1,0,0.2,0,0.2h-0.1
			c0,0,0-0.1,0-0.1v0h-0.2v-0.1h0.2l0,0L51,33.7z M50.8,33.6v-0.2H51v0.2H50.8z M50.8,35.3h0.1l0,0.2h-0.1L50.8,35.3z M50.8,34.9
			h0.1l0,0.2h-0.1L50.8,34.9z M50.8,34.5H51l0,0.2h-0.1L50.8,34.5z M50.8,36.4h0.1l0,0.2h-0.1L50.8,36.4z M50.8,36h0.1l0,0.2h-0.1
			L50.8,36z M50.8,35.7h0.1l0,0.2h-0.1L50.8,35.7z M49.8,35.8h-0.1l0-0.2l0.1,0L49.8,35.8z M49.8,36.1l-0.1,0l0-0.2l0.1,0L49.8,36.1
			z M49.8,36.5h-0.1l0-0.2h0.1L49.8,36.5z M49.8,34.6l0-0.2l0.1,0l0,0.2L49.8,34.6z M49.9,35l-0.1,0l0-0.2l0.1,0L49.9,35z
			 M49.9,35.4h-0.1l0-0.2h0.1L49.9,35.4z M49.8,33.5v-0.2h0.1v0.2H49.8z M49.8,33.8c0-0.1,0-0.1,0-0.2h0.1c0,0.1,0,0.1,0,0.2H49.8z
			 M49.8,34.2l0-0.2h0.1l0,0.2H49.8z M49.8,32.3v-0.2v-0.1l0,0H50v0.2C50,32.3,49.8,32.3,49.8,32.3z M49.8,32.7v-0.2H50l0,0.2H49.8z
			 M49.8,33.1l0-0.2H50l0,0.2H49.8z M49.9,31.2L49.9,31.2l0-0.2h0H50L49.9,31.2L49.9,31.2z M49.9,31.5L49.9,31.5v-0.2h0H50l0,0.2
			H49.9z M49.9,31.9L49.9,31.9l0-0.2h0H50l0,0.2H49.9z M50,30L50,30h-0.1l0-0.2h0H50V30z M50,30.4L50,30.4h-0.1l0-0.2h0H50L50,30.4z
			 M49.9,30.8L49.9,30.8l0-0.2h0H50L49.9,30.8L49.9,30.8z M50.1,28.9L50.1,28.9H50l0-0.2h0.1h0.1L50.1,28.9z M50,29.2l0-0.2h0h0.1
			l0,0.2H50L50,29.2z M50.1,29.6L50.1,29.6H50l0-0.2h0h0.1L50.1,29.6z M50.2,27.7L50.2,27.7l-0.1,0l0-0.2h0l0.1,0L50.2,27.7z
			 M50.2,28.1L50.2,28.1l-0.1,0l0-0.2h0l0.1,0L50.2,28.1z M50.1,28.5L50.1,28.5l-0.1,0c0-0.1,0-0.1,0-0.2h0l0.1,0
			C50.2,28.3,50.1,28.4,50.1,28.5L50.1,28.5z M50.4,26.6L50.4,26.6l-0.1,0l0-0.2h0l0.1,0L50.4,26.6z M50.3,27L50.3,27l-0.1,0l0-0.2
			h0l0.1,0L50.3,27z M50.3,27.4L50.3,27.4l-0.1,0l0-0.2h0l0.1,0L50.3,27.4z M50.5,25.5L50.5,25.5l-0.1,0l0-0.2l0.1,0l0.1,0
			L50.5,25.5z M50.4,25.8L50.4,25.8l0-0.2l0,0l0.1,0L50.4,25.8L50.4,25.8z M50.3,26.2L50.3,26.2l0-0.2l0,0l0.1,0L50.3,26.2
			L50.3,26.2z M50.7,24.3L50.7,24.3l-0.1,0l0-0.2l0.1,0l0,0L50.7,24.3z M50.6,24.7L50.6,24.7l-0.1,0l0-0.2l0.1,0l0.1,0L50.6,24.7z
			 M50.6,25.1L50.6,25.1l-0.1,0l0-0.2l0.1,0l0.1,0L50.6,25.1z M50.9,23.2L50.9,23.2l-0.1,0l0-0.2l0.1,0l0,0L50.9,23.2z M50.8,23.6
			L50.8,23.6l-0.1,0l0-0.2l0.1,0l0,0L50.8,23.6z M50.8,23.9L50.8,23.9l-0.1,0l0-0.2l0.1,0l0,0L50.8,23.9z M51,22L51,22l-0.1,0l0-0.2
			l0.1,0v0L51,22z M51,22.4L51,22.4l-0.1,0c0-0.1,0-0.1,0-0.2l0.1,0h0C51,22.3,51,22.4,51,22.4L51,22.4z M50.9,22.8L50.9,22.8
			l-0.1,0l0-0.2l0.1,0h0L50.9,22.8z M51.2,20.9l-0.1,0l0-0.2l0.1,0L51.2,20.9z M51.1,21.3l-0.1,0l0-0.2l0.1,0L51.1,21.3z M51,21.4
			l0.1,0l0,0.2l-0.1,0L51,21.4z M51.2,19.5l0.1,0l0,0.2l-0.1,0L51.2,19.5z M51.2,20.1l-0.1,0l0-0.2l0.1,0L51.2,20.1z M51.2,20.5
			l-0.1,0l0-0.2l0.1,0L51.2,20.5z M51.3,18.4l0.1,0l0,0.2l-0.1,0L51.3,18.4z M51.4,19l-0.1,0l0-0.2l0.1,0L51.4,19z M51.3,19.4
			l-0.1,0l0-0.2l0.1,0L51.3,19.4z M50.8,36.8h0.1v0.1h-0.1V36.8z M50.7,37h0.1v0.1h0h0l0,0l0,0l0,0L50.7,37L50.7,37L50.7,37L50.7,37
			L50.7,37L50.7,37z M50.7,37.2L50.7,37.2L50.7,37.2l-0.2,0.1l-0.1-0.1l0.1-0.1v0l0.1-0.1L50.7,37.2z M50.3,37.3l0.1,0.1l-0.1,0.1v0
			l0,0l0,0l0,0l0,0l0,0l-0.1-0.1L50.3,37.3L50.3,37.3L50.3,37.3L50.3,37.3L50.3,37.3L50.3,37.3L50.3,37.3L50.3,37.3z M50,37.3
			l-0.1-0.1l0.1-0.1L50,37.3L50,37.3z M49.9,37L49.9,37l-0.2,0L49.9,37L49.9,37z M49.8,36.9L49.8,36.9l-0.2,0l0,0l0,0v0v0L49.8,36.9
			L49.8,36.9L49.8,36.9L49.8,36.9L49.8,36.9L49.8,36.9z M49.8,36.8l-0.1,0v-0.1L49.8,36.8L49.8,36.8z M50.2,33.8H50v-0.1h0.2V33.8z
			 M50.3,33.8v-0.1h0.2v0.1H50.3z"/>
	</g>
</g>
<g class="st1">
	<path d="M22.7,91.4l2.5-7.8h1.6l2.5,7.8h-1.5l-0.6-2.1h-2.6l-0.6,2.1H22.7z M25.3,87.2l-0.3,1h2l-0.3-1c-0.1-0.4-0.2-0.8-0.3-1.3
		c-0.1-0.4-0.2-0.9-0.3-1.3h0c-0.1,0.4-0.2,0.9-0.3,1.3C25.5,86.4,25.4,86.8,25.3,87.2z"/>
	<path d="M33.9,91.5c-0.5,0-0.9-0.1-1.4-0.3c-0.4-0.2-0.8-0.4-1.1-0.8c-0.3-0.3-0.6-0.8-0.8-1.3s-0.3-1.1-0.3-1.7
		c0-0.6,0.1-1.2,0.3-1.7s0.4-0.9,0.8-1.3c0.3-0.4,0.7-0.6,1.1-0.8c0.4-0.2,0.9-0.3,1.4-0.3c0.5,0,0.9,0.1,1.3,0.3
		c0.4,0.2,0.7,0.4,0.9,0.7l-0.8,0.9c-0.2-0.2-0.4-0.3-0.7-0.5c-0.2-0.1-0.5-0.2-0.8-0.2c-0.3,0-0.6,0.1-0.9,0.2
		c-0.3,0.1-0.5,0.3-0.7,0.6c-0.2,0.2-0.3,0.5-0.4,0.9c-0.1,0.4-0.2,0.7-0.2,1.2c0,0.4,0.1,0.8,0.2,1.2c0.1,0.4,0.3,0.7,0.4,0.9
		c0.2,0.2,0.4,0.4,0.7,0.6c0.3,0.1,0.6,0.2,0.9,0.2c0.3,0,0.6-0.1,0.9-0.2c0.3-0.1,0.5-0.3,0.7-0.6l0.8,0.9
		c-0.3,0.4-0.7,0.7-1.1,0.8C34.9,91.4,34.4,91.5,33.9,91.5z"/>
	<path d="M41.1,91.5c-0.5,0-0.9-0.1-1.4-0.3c-0.4-0.2-0.8-0.4-1.1-0.8c-0.3-0.3-0.6-0.8-0.8-1.3s-0.3-1.1-0.3-1.7
		c0-0.6,0.1-1.2,0.3-1.7s0.4-0.9,0.8-1.3c0.3-0.4,0.7-0.6,1.1-0.8c0.4-0.2,0.9-0.3,1.4-0.3c0.5,0,0.9,0.1,1.3,0.3
		c0.4,0.2,0.7,0.4,0.9,0.7l-0.8,0.9c-0.2-0.2-0.4-0.3-0.7-0.5c-0.2-0.1-0.5-0.2-0.8-0.2c-0.3,0-0.6,0.1-0.9,0.2
		c-0.3,0.1-0.5,0.3-0.7,0.6c-0.2,0.2-0.3,0.5-0.4,0.9C39.1,86.6,39,87,39,87.4c0,0.4,0.1,0.8,0.2,1.2c0.1,0.4,0.3,0.7,0.4,0.9
		c0.2,0.2,0.4,0.4,0.7,0.6c0.3,0.1,0.6,0.2,0.9,0.2c0.3,0,0.6-0.1,0.9-0.2c0.3-0.1,0.5-0.3,0.7-0.6l0.8,0.9
		c-0.3,0.4-0.7,0.7-1.1,0.8C42.1,91.4,41.6,91.5,41.1,91.5z"/>
	<path d="M45.3,91.4v-7.8h5v1.2h-3.6v2h3.1v1.2h-3.1v2.3h3.8v1.2H45.3z"/>
	<path d="M54.9,91.5c-0.6,0-1.1-0.1-1.6-0.3c-0.5-0.2-1-0.5-1.3-0.9l0.8-0.9c0.3,0.3,0.6,0.5,1,0.6c0.4,0.2,0.8,0.2,1.2,0.2
		c0.5,0,0.8-0.1,1-0.3c0.2-0.2,0.4-0.4,0.4-0.7c0-0.2,0-0.3-0.1-0.4c-0.1-0.1-0.2-0.2-0.3-0.3c-0.1-0.1-0.3-0.2-0.4-0.2
		c-0.2-0.1-0.3-0.1-0.5-0.2L54,87.7c-0.2-0.1-0.4-0.2-0.6-0.3c-0.2-0.1-0.4-0.3-0.5-0.4c-0.2-0.2-0.3-0.4-0.4-0.6
		c-0.1-0.2-0.1-0.5-0.1-0.8c0-0.3,0.1-0.6,0.2-0.9c0.1-0.3,0.3-0.5,0.6-0.7c0.2-0.2,0.5-0.4,0.9-0.5c0.3-0.1,0.7-0.2,1.1-0.2
		c0.5,0,0.9,0.1,1.4,0.3c0.4,0.2,0.8,0.4,1.1,0.7l-0.7,0.9c-0.3-0.2-0.5-0.4-0.8-0.5c-0.3-0.1-0.6-0.2-1-0.2c-0.4,0-0.7,0.1-0.9,0.2
		s-0.3,0.4-0.3,0.7c0,0.2,0,0.3,0.1,0.4c0.1,0.1,0.2,0.2,0.3,0.3s0.3,0.2,0.4,0.2c0.2,0.1,0.3,0.1,0.5,0.2l1,0.4
		c0.2,0.1,0.5,0.2,0.7,0.3s0.4,0.3,0.5,0.4s0.3,0.4,0.4,0.6c0.1,0.2,0.1,0.5,0.1,0.8c0,0.3-0.1,0.6-0.2,0.9
		c-0.1,0.3-0.3,0.5-0.6,0.7s-0.6,0.4-0.9,0.5C55.7,91.5,55.3,91.5,54.9,91.5z"/>
	<path d="M62.1,91.5c-0.5,0-0.9-0.1-1.3-0.3c-0.4-0.2-0.7-0.4-1-0.8s-0.5-0.8-0.6-1.3C59,88.6,59,88.1,59,87.4
		c0-0.6,0.1-1.2,0.2-1.7c0.2-0.5,0.4-0.9,0.6-1.3c0.3-0.3,0.6-0.6,1-0.8c0.4-0.2,0.8-0.3,1.3-0.3s0.9,0.1,1.3,0.3
		c0.4,0.2,0.7,0.4,1,0.8c0.3,0.3,0.5,0.8,0.6,1.3s0.2,1.1,0.2,1.7c0,0.7-0.1,1.2-0.2,1.8s-0.4,0.9-0.6,1.3s-0.6,0.6-1,0.8
		S62.5,91.5,62.1,91.5z M62.1,90.3c0.5,0,0.9-0.2,1.2-0.8c0.3-0.5,0.4-1.2,0.4-2.1c0-0.9-0.1-1.6-0.4-2.1c-0.3-0.5-0.7-0.7-1.2-0.7
		s-0.9,0.2-1.2,0.7s-0.5,1.2-0.5,2.1c0,0.9,0.2,1.6,0.5,2.1S61.5,90.3,62.1,90.3z"/>
	<path d="M66.7,91.4v-7.8h2.6c0.4,0,0.8,0,1.1,0.1s0.7,0.2,0.9,0.4s0.5,0.4,0.6,0.7c0.1,0.3,0.2,0.7,0.2,1.1c0,0.6-0.1,1.1-0.4,1.5
		c-0.3,0.4-0.7,0.6-1.1,0.8l1.9,3.3h-1.6l-1.7-3.1H68v3.1H66.7z M68,87.2h1.1c0.5,0,1-0.1,1.2-0.3c0.3-0.2,0.4-0.6,0.4-1
		c0-0.5-0.1-0.8-0.4-0.9s-0.7-0.3-1.2-0.3H68V87.2z"/>
	<path d="M73.9,91.4v-1.2h1.9v-5.5h-1.9v-1.2H79v1.2h-1.9v5.5H79v1.2H73.9z"/>
	<path d="M83.7,91.5c-0.5,0-0.9-0.1-1.3-0.3c-0.4-0.2-0.7-0.4-1-0.8c-0.3-0.3-0.5-0.8-0.6-1.3s-0.2-1.1-0.2-1.8
		c0-0.6,0.1-1.2,0.2-1.7s0.4-0.9,0.6-1.3c0.3-0.3,0.6-0.6,1-0.8c0.4-0.2,0.8-0.3,1.3-0.3s0.9,0.1,1.3,0.3c0.4,0.2,0.7,0.4,1,0.8
		c0.3,0.3,0.5,0.8,0.6,1.3s0.2,1.1,0.2,1.7c0,0.7-0.1,1.2-0.2,1.8s-0.4,0.9-0.6,1.3s-0.6,0.6-1,0.8S84.1,91.5,83.7,91.5z M83.7,90.3
		c0.5,0,0.9-0.2,1.2-0.8c0.3-0.5,0.4-1.2,0.4-2.1c0-0.9-0.1-1.6-0.4-2.1c-0.3-0.5-0.7-0.7-1.2-0.7s-0.9,0.2-1.2,0.7S82,86.5,82,87.4
		c0,0.9,0.2,1.6,0.5,2.1S83.1,90.3,83.7,90.3z"/>
	<path d="M90.9,91.5c-0.6,0-1.1-0.1-1.6-0.3c-0.5-0.2-1-0.5-1.3-0.9l0.8-0.9c0.3,0.3,0.6,0.5,1,0.6c0.4,0.2,0.8,0.2,1.2,0.2
		c0.5,0,0.8-0.1,1-0.3s0.4-0.4,0.4-0.7c0-0.2,0-0.3-0.1-0.4s-0.2-0.2-0.3-0.3c-0.1-0.1-0.3-0.2-0.4-0.2c-0.2-0.1-0.3-0.1-0.5-0.2
		L90,87.7c-0.2-0.1-0.4-0.2-0.6-0.3c-0.2-0.1-0.4-0.3-0.5-0.4c-0.2-0.2-0.3-0.4-0.4-0.6c-0.1-0.2-0.1-0.5-0.1-0.8
		c0-0.3,0.1-0.6,0.2-0.9c0.1-0.3,0.3-0.5,0.6-0.7c0.2-0.2,0.5-0.4,0.9-0.5c0.3-0.1,0.7-0.2,1.1-0.2c0.5,0,0.9,0.1,1.4,0.3
		c0.4,0.2,0.8,0.4,1.1,0.7l-0.7,0.9c-0.3-0.2-0.5-0.4-0.8-0.5c-0.3-0.1-0.6-0.2-1-0.2c-0.4,0-0.7,0.1-0.9,0.2
		c-0.2,0.2-0.3,0.4-0.3,0.7c0,0.2,0,0.3,0.1,0.4c0.1,0.1,0.2,0.2,0.3,0.3s0.3,0.2,0.4,0.2c0.2,0.1,0.3,0.1,0.5,0.2l1,0.4
		c0.2,0.1,0.5,0.2,0.7,0.3s0.4,0.3,0.5,0.4c0.2,0.2,0.3,0.4,0.4,0.6c0.1,0.2,0.1,0.5,0.1,0.8c0,0.3-0.1,0.6-0.2,0.9
		c-0.1,0.3-0.3,0.5-0.6,0.7s-0.6,0.4-0.9,0.5S91.3,91.5,90.9,91.5z"/>
</g>
</svg>
