<?xml version="1.0" encoding="utf-8"?>
<!-- Generator: Adobe Illustrator 24.3.0, SVG Export Plug-In . SVG Version: 6.00 Build 0)  -->
<svg version="1.1" id="Layer_1" xmlns="http://www.w3.org/2000/svg" xmlns:xlink="http://www.w3.org/1999/xlink" x="0px" y="0px"
	 viewBox="0 0 120 100" style="enable-background:new 0 0 120 100;" xml:space="preserve">
<style type="text/css">
	.st0{fill:#050505;}
	.st1{enable-background:new    ;}
</style>
<g id="XMLID_269_">
	<g id="XMLID_1711_">
		<path id="XMLID_484_" class="st0" d="M42.4,66.1l-5.5-0.6l-0.1-0.1c0-0.1-1.2-1.4-2.9-1c-0.3,0.2-1.8,0.9-3.6,0.7
			c-1.8-0.2-4.7-0.7-4.7-0.7h-0.2l-0.1-0.2c0,0-0.4-0.5-1.2-1H24l0,0c0,0-0.6-0.5-1.3-0.5c-0.6,0-1.2-0.2-1.9-0.4
			C20.4,62.2,20,62,19.5,62c-1.4-0.2-3.2-1.9-3.7-3.8c0-0.1-0.7-2.8,0-4.9c0.8-2.2,2.6-3.7,3.8-3.8c0.1-1,0.4-3.5,1-6
			c0.6-2.2,0.5-2.9,0.4-3l-0.1-0.1v-0.3c0-0.3,1-6.6,1.1-7.5c0-0.1-0.2-0.4-0.3-0.7c-0.8-1.7-2.4-5.3-1.3-9.4l0,0l0,0
			c0.1-0.2,1.1-2,2.3-2l0,0c0.7,0,1.3,0.6,1.8,1.6l0.1,0.1l0.8-0.5l0.2,0.1c0.1,0,6.6,2.4,8.9,2.4h0.3l0.1,0.1c0,0,0.2,0.2,0.6,0.1
			c0.6-0.1,1.7-0.8,3.3-4.3c0.1-0.3,2.9-5.8,11.4-5.7c0.2-0.2,0.5-0.4,0.9-0.5c0.5,0,0.9,0.2,1.4,0.6v0.1l1.3,1.4
			c0.5,0.3,1.8,1.1,1.9,2.1c0,0.2,0,0.6-0.3,0.9c0.8,1.2,2.6,4.2,1.9,5.8c0.5,0.4,1.5,1.3,1.8,2.3l0.9,0.7c0.5,0.1,1.9,0.3,2.8,1.3
			c0.5,0.6,0.7,1.3,0.7,2.1l1.6,1.7c0.6-0.1,1.8-0.1,2.6,0.6c0.5,0.5,0.6,1.1,0.5,1.9l1.2,0.7c1.5,0,4.1,0.7,4.7,3.2L75,40
			c0.5-0.2,1.4-0.5,2.1-0.1c0.4,0.2,0.8,0.6,1,1.5c0.1,0.1,0.4,0.4,0.8,0.4c0.9,0,2.8,0.3,4.3,1.2c0,0,1.8,1,4.5,1.3
			c0.1,0,12.5,1.4,14.3,3c0.4,0.2,1.6,0.7,2.2,1.9c0.3,0.6,0.3,1.3,0.1,1.9c-0.1,0.4-0.4,2.7-2.3,4.6c-0.2,0.4-1.5,2.1-4.5,2
			c-0.5,0.2-1.6,0.6-2.1,0.9c-0.1,0.1-0.1,0.1-0.1,0.1v0.1l0.5,0.5l-0.7,0.2L91.4,61h-0.2c0,0-1.7-0.5-2.6-0.5s-1.7,0.5-1.8,0.7
			c-0.1,0.1-0.2,0.6-0.2,0.9v0.2l-0.9,0.9l-4,0.7l-1.6-0.8c-1.1,0-2.8,0.2-3.3,0.4s-1,1-1.2,1.3L75.5,65L71,65.5l-0.1-0.4
			c0-0.1-0.6-1.5-3-1.4c-1.2,0.3-2.5,0.9-2.7,1.4l-0.1,0.3L48,66v-0.5c0,0,0-0.3-0.3-0.5c-0.2-0.2-0.6-0.2-1-0.2h-0.1l-0.1-0.1
			c-0.1,0-2.1-0.9-3.8,1L42.4,66.1z M46.9,64c0.5,0,1,0.1,1.4,0.4c0.3,0.2,0.4,0.5,0.5,0.7l15.6-0.6c0.7-1,2.8-1.6,3.2-1.7h0.1h0.1
			c2.5-0.1,3.5,1.1,3.9,1.7l3.3-0.3c0.2-0.4,0.8-1.2,1.6-1.5c0.9-0.3,3.4-0.4,3.7-0.4h0.1l1.4,0.7l3.4-0.6l0.5-0.5
			c0-0.3,0.2-0.9,0.4-1.2c0.3-0.5,1.5-1.1,2.7-1.1c0.9,0,2.3,0.4,2.7,0.5l3-1.2c0-0.1,0-0.2,0-0.3c0-0.2,0.2-0.5,0.5-0.8
			c0.7-0.4,2.3-1,2.3-1.1h0.1h0.1c2.7,0.1,3.7-1.5,3.7-1.6V55h0.1c1.9-1.8,2.1-4,2.1-4.1v-0.1v-0.1c0.2-0.5,0.2-0.9,0-1.2
			c-0.4-0.9-1.7-1.4-1.7-1.4h-0.1l-0.1-0.1c-0.8-0.9-8.5-2.2-13.8-2.8c-2.9-0.2-4.8-1.3-4.9-1.3c-1.3-0.7-3-1.1-3.8-1.1
			c-1.1,0-1.6-0.9-1.7-1v-0.1v-0.1c-0.1-0.4-0.2-0.7-0.4-0.8c-0.5-0.2-1.3,0.1-1.5,0.2l-0.3,0.1L73.3,40v-0.2
			c-0.5-2.6-3.8-2.6-3.9-2.6h-0.1L67.2,36l0.1-0.4c0.1-0.6,0.1-1.1-0.2-1.4c-0.5-0.5-1.6-0.4-2-0.3l-0.3,0.2l-2.3-2.4v-0.2
			c0.1-0.7-0.1-1.2-0.4-1.6c-0.8-0.9-2.3-1-2.3-1h-0.2l-1.4-1.1v-0.1c-0.4-1.1-1.8-2.2-1.9-2.2l-0.4-0.3l0.4-0.4
			c0.7-0.8-0.8-3.7-2-5.4L54,19l0.4-0.3c0.2-0.2,0.2-0.3,0.2-0.4c0-0.4-0.9-1.1-1.5-1.4L53,16.8l-1.2-1.7c-0.1-0.1-0.4-0.3-0.6-0.3
			c-0.2,0-0.4,0.3-0.4,0.3l-0.2,0.2h-0.3c-8-0.2-10.7,5.1-10.7,5.1c-1.4,3-2.8,4.7-4.1,4.9c-0.6,0.1-1-0.1-1.2-0.2
			c-2.4-0.1-7.7-2-8.9-2.4l-1.1,0.7l-0.5-0.9v-0.1c-0.3-0.7-0.6-1.1-0.9-1.1l0,0c-0.5,0-1.1,0.8-1.4,1.4c-0.9,3.7,0.6,7.1,1.3,8.7
			c0.3,0.7,0.4,1,0.4,1.2c-0.1,0.4-0.7,4.9-1.1,7.4c0.2,0.5,0.2,1.5-0.3,3.7c-0.8,3-1.1,6.2-1.1,6.2v0.6l-0.6-0.1
			c-0.8-0.2-2.6,1.3-3.2,3.2c-0.7,1.8,0,4.3,0,4.3c0.4,1.6,2,3,2.9,3.1c0.5,0.1,1,0.2,1.4,0.4c0.6,0.2,1.1,0.3,1.6,0.3
			c1,0,1.7,0.5,1.9,0.7c0.8,0.4,1.2,0.8,1.4,1.1c0.7,0.1,2.9,0.5,4.5,0.7c1.7,0.2,3.1-0.6,3.1-0.6h0.1h0.1c1.9-0.5,3.4,0.7,3.8,1.1
			l4.6,0.5c1.6-1.7,3.7-1.5,4.7-1.1C46.7,64,46.8,64,46.9,64z"/>
	</g>
	<g id="XMLID_1710_">
		<path id="XMLID_483_" class="st0" d="M76.9,57c-8.2,0-14.3-1.3-14.4-1.3l0,0c-10.5-3.5-22.9-2.3-23-2.3c-15,1.2-18.4-2.1-18.5-2.2
			s-0.1-0.3,0-0.5c0.1-0.1,0.3-0.1,0.5,0c0,0,0.8,0.8,3.5,1.5c2.4,0.6,6.9,1.2,14.5,0.6c0.1,0,12.6-1.2,23.3,2.3
			c0.6,0.1,16.1,3.3,30.8-0.7c0.1,0,7.6-1.8,8-5.7c0-0.2,0.2-0.3,0.4-0.3c0.2,0,0.3,0.2,0.3,0.4c-0.5,4.3-8.2,6.2-8.5,6.3
			C87.9,56.5,82,57,76.9,57z"/>
	</g>
	<g id="XMLID_1709_">
		<path id="XMLID_482_" class="st0" d="M49.4,52.9c-0.1,0-0.1,0-0.2-0.1c0,0-4.2-3.7-7.6-5.8c-4.1-2.5-2.7-5.9-1.9-7.2
			c1.1-1.8,12.7-13,13.2-13.5c0.1-0.1,0.3-0.1,0.3,0c0.1,0.1,0.1,0.3,0,0.3c-0.1,0.1-12.1,11.7-13.1,13.5c-2.1,3.6,0.5,5.8,1.8,6.5
			c3.5,2.1,7.7,5.8,7.7,5.9c0.1,0.1,0.1,0.2,0,0.3S49.5,52.9,49.4,52.9z"/>
	</g>
	<g id="XMLID_1708_">
		<path id="XMLID_481_" class="st0" d="M59.5,47.3c-2.7,0-5.1-1-6.8-1.8c-0.3-0.1-0.6-0.3-0.8-0.4c-2.5-1-11.3-2.7-11.4-2.7
			c-0.2,0-0.3-0.2-0.3-0.4s0.2-0.3,0.4-0.3c0.4,0.1,9,1.7,11.6,2.8c0.3,0.1,0.6,0.2,0.9,0.4c2.7,1.2,6.7,2.9,11.4,0.4
			c2.7-1.9,7.2-5,7.5-5.5c0.1-0.1,0.2-0.2,0.4-0.2c0.2,0.1,0.3,0.2,0.2,0.4c-0.1,0.2-0.1,0.4-4,3.2c-1.9,1.3-3.8,2.6-3.8,2.6l0,0
			C62.9,46.9,61.1,47.3,59.5,47.3z"/>
	</g>
	<g id="XMLID_1707_">
		<path id="XMLID_480_" class="st0" d="M92.4,54.1L92.4,54.1l-3.3-1c-0.2,0-2.2-0.4-4.2-1c-3-0.8-4.7-1.5-5.3-2.2
			c-0.6-0.7-0.6-2-0.2-3.8c0.3-1.3,0.8-2.3,0.8-2.4c0.1-0.2,0.3-0.2,0.4-0.2c0.2,0.1,0.2,0.3,0.2,0.4c-0.5,1.1-1.6,4.4-0.7,5.5
			c0.9,1.2,6.9,2.6,9.2,3l0,0l3.2,1c0.2,0.1,0.3,0.2,0.2,0.4C92.7,54,92.6,54.1,92.4,54.1z"/>
	</g>
	<g id="XMLID_1107_">
		<g id="XMLID_1702_">
			<path id="XMLID_479_" class="st0" d="M32.7,40.3c0-0.2,0.2-0.3,0.3-0.3c0.2,0,0.3,0.1,0.3,0.3s-0.2,0.3-0.3,0.3
				C32.9,40.6,32.7,40.4,32.7,40.3 M33.1,40.5c0.1,0,0.3-0.1,0.3-0.3c0-0.1-0.1-0.3-0.3-0.3c-0.1,0-0.3,0.1-0.3,0.3
				S32.9,40.5,33.1,40.5 M33,40.4L33,40.4L32.9,40H33c0.1,0,0.1,0,0.1,0.1s0,0.1-0.1,0.1V40.4L33,40.4l-0.1-0.2h-0.1v0.2H33z
				 M33.1,40.2C33.1,40.2,33.2,40.2,33.1,40.2C33.2,40.1,33.1,40.1,33.1,40.2L33.1,40.2L33.1,40.2L33.1,40.2z"/>
		</g>
		<g id="XMLID_1110_">
			<path id="XMLID_478_" class="st0" d="M30,40.3h0.2c0,0-0.3-0.5-0.4-0.8c0.1,0,0.2,0,0.3,0c0.1,0.2,0.4,0.6,0.4,0.6
				s0.4-0.2,0.6-0.3c0.1,0,0.1,0,0.2,0.1l-0.6,0.5l0.2,0.5c0,0,0.4-0.6,0.7-0.9c0.1,0,0.1,0.1,0.2,0.1c-0.1,0.2-0.2,0.3-0.3,0.4
				c0.3,0,0.5,0,0.8,0c0.1,0.1,0.1,0.2,0.2,0.3h-0.7l-0.3,0.5l0.4-0.1c0,0,0.3-0.1,0.7-0.3c0.1,0.1,0.1,0.2,0.1,0.3L32,41.5
				l-0.6,0.1c-0.1,0.1-0.1,0.2-0.2,0.3c0.6-0.1,1.1-0.3,1.7-0.4c0.3,0.8,0.1,1.7-0.4,2.4c-1.5,0.4-3.2-0.1-4.8,0.1l-0.5,0.1
				c-0.3-0.4-0.5-0.8-0.6-1.3s0-1.1,0.2-1.6l0.8-0.1l-0.4-0.5c0-0.1,0.1-0.1,0.2-0.2c0.2,0.2,0.7,0.7,0.7,0.7h0.2l-0.7-0.8
				c0.1-0.1,0.2-0.2,0.3-0.3l0.6,0.1c0,0,0-0.3,0-0.5c0.1-0.1,0.3-0.1,0.4-0.2c0.1,0.2,0.2,0.4,0.4,0.6c0.2-0.2,0.3-0.5,0.4-0.8
				c0,0,0,0,0.1,0L30,40.3z M29.6,40l-0.3,0.6l0.2,0.6l0.3-0.2l0.1-0.5C29.7,40.3,29.7,40.2,29.6,40 M28.6,40v0.3h0.2
				C28.7,40.2,28.7,40.1,28.6,40 M27.8,40.4L27.8,40.4c0.2,0.2,0.5,0.5,0.5,0.5v-0.4L27.8,40.4z M30.3,40.5l-0.1,0.1v0.1L30.3,40.5
				L30.3,40.5z M28.6,40.7v0.6l0.2-0.5L28.6,40.7z M31.3,40.9h-0.2l-0.3,0.5H31L31.3,40.9z M30,41.3v0.6l0.5-0.5l0.1-0.1L30.5,41
				L30,41.3z M29.1,41.2L29,41.5l0.3,0.3C29.2,41.5,29.1,41.4,29.1,41.2 M29.7,41.4l-0.2,0.1v0.2h0.1L29.7,41.4z M27.9,41.5
				l-0.2,0.4l0.5,0.2l0.4-0.3l-0.2-0.2L27.9,41.5z M26.9,41.5l0.4,0.2l0.1-0.2H26.9z M30.6,41.8l-0.2,0.4h0.3l0.2-0.4H30.6z
				 M28.8,41.9L28,42.5h-0.4l0.2-0.2c-0.1-0.1-0.3-0.1-0.4-0.2l-0.3,0.3c-0.1,0-0.2,0-0.3,0c0,0.3,0,0.6,0.1,0.8
				c0,0.1,0,0.2,0.2,0.2c0.8,0,1.5,0.1,2.3,0.2v-1.1c0-0.1-0.1-0.2-0.2-0.3l-0.4,0.2h-0.6c0,0,0.5-0.3,0.8-0.4
				C28.9,42,28.9,41.9,28.8,41.9 M27,41.9c0,0.1,0,0.2,0,0.3c0.1-0.1,0.2-0.3,0.2-0.3H27z M32.4,42l-0.3,0.1
				c0.1,0.1,0.2,0.4,0.2,0.4H32l-0.2-0.3c-0.1,0-0.5,0.1-0.5,0.1l0.1,0.2h-0.2L31,42.3c0,0-0.7,0.2-1,0.3l0,0c0,0.4,0,0.7,0.1,1v0.1
				c0.6,0.1,1.3,0.1,1.9,0.2h0.1c0.2-0.2,0.3-0.5,0.4-0.8C32.6,42.8,32.6,42.3,32.4,42"/>
		</g>
		<g id="XMLID_1109_">
			<path id="XMLID_477_" class="st0" d="M32.3,44.2c-0.2,0.2-0.4,0.5-0.7,0.7c-1.5,0-2.8-0.4-4.2-0.5l-0.1-0.1
				c1.1-0.2,2.2-0.1,3.3,0C31.1,44.3,31.7,44.3,32.3,44.2L32.3,44.2z"/>
		</g>
		<g id="XMLID_1108_">
			<path id="XMLID_476_" class="st0" d="M30.1,44.9c0.4,0,0.8,0.1,1.3,0.1c-0.9,0.6-2.3,0.6-3.2,0.1c-0.2-0.1-0.5-0.3-0.7-0.5h0.1
				h0.6L30.1,44.9z"/>
		</g>
	</g>
	<g id="XMLID_1101_">
		<g id="XMLID_474_">
			<path id="XMLID_475_" class="st0" d="M46,52c0,0-0.1,0-0.2-0.1l0.2-0.4c0.1,0.1,0.2,0.1,0.2,0.1L46,52z"/>
		</g>
		<g id="XMLID_427_">
			<path id="XMLID_428_" class="st0" d="M45.3,51.6c-0.1-0.1-0.3-0.2-0.4-0.2l0.2-0.4c0.2,0.1,0.3,0.2,0.4,0.2L45.3,51.6z
				 M44.4,51.1c-0.1-0.1-0.3-0.2-0.4-0.3l0.3-0.4c0.1,0.1,0.3,0.2,0.4,0.3L44.4,51.1z M43.6,50.6c-0.1-0.1-0.3-0.2-0.4-0.3l0.3-0.4
				c0.1,0.1,0.3,0.2,0.4,0.3L43.6,50.6z M42.8,50.1c-0.1-0.1-0.3-0.2-0.4-0.3l0.3-0.4c0.1,0.1,0.3,0.2,0.4,0.3L42.8,50.1z M42,49.5
				c-0.1-0.1-0.3-0.2-0.4-0.3l0.3-0.4c0.1,0.1,0.3,0.2,0.4,0.3L42,49.5z M41.2,48.9c-0.1-0.1-0.3-0.2-0.4-0.3l0.3-0.4
				c0.1,0.1,0.2,0.2,0.4,0.3L41.2,48.9z M40.4,48.2c-0.1-0.1-0.2-0.2-0.4-0.3l0.3-0.4c0.1,0.1,0.2,0.2,0.4,0.3L40.4,48.2z
				 M39.7,47.6c-0.1-0.1-0.2-0.2-0.3-0.4l0.4-0.3c0.1,0.1,0.2,0.2,0.3,0.3L39.7,47.6z M39,46.8c-0.1-0.1-0.2-0.3-0.3-0.4l0.4-0.3
				c0.1,0.1,0.2,0.2,0.3,0.4L39,46.8z M38.4,46c-0.1-0.1-0.2-0.3-0.3-0.4l0.4-0.3c0.1,0.1,0.2,0.3,0.3,0.4L38.4,46z M37.9,45.2
				c-0.1-0.1-0.2-0.3-0.2-0.4l0.4-0.2c0.1,0.1,0.1,0.3,0.2,0.4L37.9,45.2z M37.4,44.3c-0.1-0.2-0.1-0.3-0.2-0.5l0.5-0.1
				c0,0.1,0.1,0.3,0.2,0.4L37.4,44.3z M37.1,43.3c0-0.2-0.1-0.3-0.1-0.5l0.5-0.1c0,0.2,0,0.3,0.1,0.5L37.1,43.3z M37,42.3L37,42.3
				L37,42.3L37,42.3c0-0.1,0-0.1,0-0.2s0-0.2,0-0.3l0.5,0.1c0,0.1,0,0.2,0,0.2c0,0.1,0,0.1,0,0.1v0.1v0.1L37,42.3z M37.6,41.4
				l-0.5-0.1c0-0.2,0.1-0.3,0.2-0.5l0.5,0.2C37.7,41.1,37.7,41.3,37.6,41.4z M38,40.5l-0.4-0.2c0.1-0.1,0.2-0.3,0.2-0.4l0.4,0.2
				C38.2,40.2,38.1,40.4,38,40.5z M38.5,39.7l-0.4-0.3c0.1-0.1,0.2-0.3,0.3-0.4l0.4,0.3C38.7,39.4,38.6,39.6,38.5,39.7z M39,38.9
				l-0.4-0.3c0.1-0.1,0.2-0.3,0.3-0.4l0.4,0.3C39.2,38.7,39.1,38.8,39,38.9z M39.6,38.2l-0.4-0.3c0.1-0.1,0.2-0.2,0.3-0.4l0.4,0.3
				C39.8,37.9,39.7,38,39.6,38.2z M40.3,37.4l-0.4-0.3c0.1-0.1,0.2-0.2,0.3-0.4l0.4,0.3C40.5,37.2,40.4,37.3,40.3,37.4z M40.9,36.7
				l-0.4-0.3c0.1-0.1,0.2-0.2,0.3-0.4l0.4,0.3C41.1,36.4,41,36.6,40.9,36.7z M41.6,36l-0.4-0.3l0.3-0.4l0.4,0.3L41.6,36z M42.3,35.2
				l-0.4-0.3l0.3-0.4l0.4,0.3L42.3,35.2z M42.9,34.5l-0.4-0.3l0.3-0.4l0.4,0.3L42.9,34.5z M43.6,33.8l-0.4-0.3l0.3-0.4l0.4,0.3
				L43.6,33.8z M44.3,33.1l-0.4-0.3l0.3-0.4l0.4,0.3L44.3,33.1z M45,32.4l-0.4-0.3l0.3-0.4l0.4,0.3L45,32.4z M45.6,31.7l-0.4-0.3
				l0.3-0.4l0.4,0.3L45.6,31.7z M46.3,31l-0.4-0.3l0.3-0.4l0.4,0.3L46.3,31z M47,30.3L46.7,30l0.3-0.4l0.4,0.3L47,30.3z M47.7,29.6
				l-0.4-0.3l0.3-0.3l0.3,0.3L47.7,29.6z M48.4,28.9l-0.3-0.3l0.3-0.3l0.3,0.3L48.4,28.9z M49.1,28.2l-0.3-0.3l0.3-0.3l0.3,0.3
				L49.1,28.2z M49.8,27.5l-0.3-0.3l0.3-0.3l0.3,0.3L49.8,27.5z M50.5,26.8l-0.3-0.3c0.2-0.2,0.2-0.2,0.3-0.2c0,0,0.1,0,0.2-0.1
				l0.2,0.4c-0.1,0-0.1,0.1-0.2,0.1S50.5,26.7,50.5,26.8z M51.2,26.3L51,25.9c0.1-0.1,0.3-0.1,0.4-0.2l0.2,0.4
				C51.5,26.2,51.4,26.3,51.2,26.3z M52.1,25.8l-0.3-0.4c0.1-0.1,0.3-0.2,0.4-0.3l0.3,0.4C52.4,25.7,52.2,25.7,52.1,25.8z
				 M52.9,25.3l-0.3-0.4c0.1-0.1,0.3-0.2,0.4-0.3l0.3,0.4C53.2,25.1,53,25.2,52.9,25.3z M53.7,24.6l-0.3-0.4
				c0.1-0.1,0.2-0.2,0.3-0.3l0.3,0.3C54,24.4,53.8,24.5,53.7,24.6z M54.4,23.9L54,23.6c0.1-0.1,0.2-0.2,0.3-0.4l0.4,0.3
				C54.6,23.7,54.5,23.8,54.4,23.9z M55,23.1l-0.4-0.2c0.1-0.1,0.1-0.3,0.2-0.4l0.5,0.1C55.1,22.7,55.1,22.9,55,23.1z M55.3,22.1
				L54.8,22l0,0c0-0.1,0-0.2,0-0.3v-0.1h0.5v0.1C55.3,21.8,55.3,21.9,55.3,22.1L55.3,22.1z M54.8,21.1c0-0.2-0.1-0.3-0.1-0.4
				l0.5-0.1c0.1,0.2,0.1,0.3,0.1,0.5H54.8z M54.5,20.3c-0.1-0.1-0.2-0.2-0.3-0.3l0.3-0.4c0.1,0.1,0.2,0.3,0.3,0.4L54.5,20.3z"/>
		</g>
		<g id="XMLID_425_">
			<path id="XMLID_426_" class="st0" d="M54,19.7c-0.1,0-0.2-0.1-0.2-0.1l0.1-0.5c0,0,0.1,0,0.3,0.1L54,19.7z"/>
		</g>
	</g>
	<g id="XMLID_1100_">
		<path id="XMLID_385_" class="st0" d="M58,48.8c-0.2,0-0.3,0-0.5,0v-0.3c0.2,0,0.3,0,0.5,0V48.8z M58.5,48.8v-0.3
			c0.2,0,0.3,0,0.5,0v0.3C58.8,48.8,58.6,48.8,58.5,48.8z M59.5,48.8v-0.3c0.2,0,0.3,0,0.5,0v0.3C59.8,48.8,59.6,48.8,59.5,48.8z
			 M60.4,48.7v-0.3c0.2,0,0.3,0,0.5,0v0.3C60.8,48.7,60.6,48.7,60.4,48.7z M57,48.7c-0.2,0-0.3-0.1-0.5-0.1l0.1-0.3
			c0.2,0,0.3,0.1,0.5,0.1L57,48.7z M61.4,48.7v-0.3c0.2,0,0.3,0,0.5-0.1v0.3C61.8,48.6,61.6,48.6,61.4,48.7z M56,48.5
			c-0.2,0-0.3-0.1-0.5-0.1l0.1-0.3c0.2,0,0.3,0.1,0.5,0.1L56,48.5z M62.4,48.5l-0.1-0.3c0.2,0,0.3-0.1,0.5-0.1l0.1,0.3
			C62.7,48.4,62.6,48.5,62.4,48.5z M63.4,48.3L63.3,48c0.2,0,0.3-0.1,0.5-0.1l0.1,0.3C63.7,48.2,63.5,48.3,63.4,48.3z M55,48.3
			c-0.2,0-0.3-0.1-0.5-0.1l0.1-0.3c0.2,0,0.3,0.1,0.5,0.1L55,48.3z M64.3,48l-0.1-0.3c0.1-0.1,0.3-0.1,0.4-0.2l0.1,0.3
			C64.6,47.9,64.5,47.9,64.3,48z M54.1,48c-0.2-0.1-0.3-0.1-0.5-0.2l0.1-0.3c0.2,0.1,0.3,0.1,0.5,0.2L54.1,48z M53.2,47.6
			c-0.2-0.1-0.3-0.1-0.5-0.2l0.1-0.3c0.1,0.1,0.3,0.1,0.5,0.2L53.2,47.6z M65.2,47.6l-0.1-0.3c0.1-0.1,0.3-0.1,0.4-0.2l0.2,0.3
			C65.5,47.4,65.4,47.5,65.2,47.6z M52.3,47.3c-0.2-0.1-0.3-0.1-0.5-0.2l0.1-0.3c0.1,0.1,0.3,0.1,0.4,0.2V47.3z M66.1,47.1l-0.2-0.3
			H66c0.1-0.1,0.2-0.1,0.4-0.2l0.2,0.3C66.4,46.9,66.3,47,66.1,47.1L66.1,47.1z M51.3,46.9c-0.2-0.1-0.3-0.1-0.4-0.2l0.1-0.3
			c0.1,0.1,0.3,0.1,0.4,0.2L51.3,46.9z M67,46.6l-0.2-0.3c0.1-0.1,0.3-0.2,0.4-0.3l0.2,0.3C67.2,46.4,67.1,46.5,67,46.6z M50.5,46.4
			C50.4,46.4,50.4,46.4,50.5,46.4c-0.2-0.1-0.3-0.2-0.4-0.2l0.1-0.3c0.2,0.1,0.3,0.1,0.4,0.2h0.1L50.5,46.4z M49.6,46
			c-0.1,0-0.3-0.1-0.5-0.1l0.1-0.3c0.2,0.1,0.3,0.1,0.5,0.2L49.6,46z M67.8,46l-0.2-0.3c0.1-0.1,0.3-0.2,0.4-0.3l0.2,0.3
			C68,45.8,67.9,45.9,67.8,46z M48.7,45.8c-0.2,0-0.3-0.1-0.5-0.1l0.1-0.3c0.2,0,0.3,0.1,0.5,0.1L48.7,45.8z M47.7,45.5
			c-0.2,0-0.3-0.1-0.5-0.1l0.1-0.3c0.2,0,0.3,0.1,0.5,0.1L47.7,45.5z M68.6,45.4l-0.2-0.3c0.1-0.1,0.3-0.2,0.4-0.3l0.2,0.3
			C68.8,45.2,68.7,45.3,68.6,45.4z M46.8,45.3c-0.2,0-0.3-0.1-0.5-0.1l0.1-0.3c0.2,0,0.3,0.1,0.5,0.1L46.8,45.3z M45.8,45.1
			c-0.2,0-0.3-0.1-0.5-0.1l0.1-0.3c0.2,0,0.3,0.1,0.5,0.1L45.8,45.1z M44.8,44.9l-0.5-0.1l0.1-0.3l0.5,0.1L44.8,44.9z M69.3,44.8
			l-0.2-0.3c0.1-0.1,0.3-0.2,0.4-0.3l0.2,0.3C69.6,44.6,69.5,44.7,69.3,44.8z M43.9,44.7c-0.2,0-0.3-0.1-0.5-0.1l0.1-0.3
			c0.2,0,0.3,0.1,0.5,0.1L43.9,44.7z M42.9,44.5l-0.5-0.1l0.1-0.3l0.5,0.1L42.9,44.5z M41.9,44.3l-0.5-0.1l0.1-0.3L42,44L41.9,44.3z
			 M70.1,44.2L69.9,44l0.4-0.3l0.2,0.3L70.1,44.2z M41,44.2c-0.3-0.1-0.5-0.1-0.5-0.1l0.1-0.3c0,0,0.2,0,0.5,0.1L41,44.2z
			 M70.9,43.6l-0.2-0.3l0.4-0.3l0.2,0.3L70.9,43.6z M71.7,43l-0.2-0.3c0.1-0.1,0.3-0.2,0.4-0.3l0.2,0.3C71.9,42.8,71.8,42.9,71.7,43
			z M72.5,42.4l-0.2-0.3c0.1-0.1,0.3-0.2,0.4-0.3l0.2,0.3C72.7,42.2,72.6,42.3,72.5,42.4z M73.2,41.9L73,41.6
			c0.1-0.1,0.3-0.2,0.4-0.3l0.2,0.3C73.5,41.7,73.4,41.8,73.2,41.9z M74.1,41.3L73.9,41c0.2-0.1,0.3-0.2,0.5-0.2l0.1,0.3
			C74.4,41.2,74.2,41.3,74.1,41.3z"/>
	</g>
	<g id="XMLID_1099_">
		<path id="XMLID_359_" class="st0" d="M90.2,54.6c0,0-0.1-0.1-0.3-0.2l0.1-0.3c0.2,0.1,0.4,0.2,0.5,0.3L90.2,54.6z M89.4,54.2
			c-0.1,0-0.3-0.1-0.5-0.1l0.1-0.3c0.2,0,0.3,0.1,0.5,0.1L89.4,54.2z M88.4,54c-0.2,0-0.3-0.1-0.5-0.1l0.1-0.3
			c0.2,0,0.3,0.1,0.5,0.1L88.4,54z M87.5,53.7c-0.2,0-0.3-0.1-0.5-0.1l0.1-0.3c0.2,0,0.3,0.1,0.5,0.1L87.5,53.7z M86.5,53.5L86,53.4
			l0.1-0.3l0.5,0.1L86.5,53.5z M85.6,53.3l-0.5-0.1l0.1-0.3l0.5,0.1L85.6,53.3z M84.6,53.1c-0.2,0-0.3-0.1-0.5-0.1l0.1-0.3
			c0.2,0,0.3,0.1,0.5,0.1L84.6,53.1z M83.6,52.9c-0.2,0-0.3-0.1-0.5-0.1l0.1-0.3c0.2,0,0.3,0.1,0.5,0.1L83.6,52.9z M82.7,52.7
			c-0.2,0-0.3-0.1-0.5-0.1l0.1-0.3c0.2,0,0.3,0.1,0.5,0.1L82.7,52.7z M81.7,52.4c-0.2,0-0.3-0.1-0.5-0.1l0.1-0.3
			c0.1,0,0.3,0.1,0.5,0.1L81.7,52.4z M80.8,52.1c-0.2-0.1-0.3-0.1-0.5-0.2l0.1-0.3c0.1,0.1,0.3,0.1,0.4,0.2V52.1z M79.9,51.7
			c-0.2-0.1-0.3-0.2-0.4-0.3l0.2-0.3c0.1,0.1,0.3,0.2,0.4,0.3L79.9,51.7z M79.1,51.1c-0.1-0.1-0.3-0.2-0.4-0.4l0.3-0.2
			c0.1,0.1,0.2,0.2,0.3,0.3L79.1,51.1z M78.4,50.3c-0.1-0.2-0.1-0.3-0.2-0.5l0.3-0.1c0,0.2,0.1,0.3,0.2,0.4L78.4,50.3z M78.1,49.3
			L78.1,49.3c0-0.2-0.1-0.3-0.1-0.5l0.3-0.1c0,0.2,0.1,0.3,0.1,0.5l0,0L78.1,49.3z M77.9,48.4c-0.1-0.1-0.2-0.2-0.3-0.3l0.2-0.3
			c0.2,0.1,0.3,0.2,0.4,0.4L77.9,48.4z M77.2,47.9c-0.1,0-0.2-0.1-0.3-0.1c-0.1,0-0.1,0-0.2-0.1l0.1-0.3c0.1,0,0.1,0,0.2,0.1
			c0.1,0,0.2,0.1,0.3,0.1L77.2,47.9z M76.3,47.6c-0.1,0-0.3-0.1-0.5-0.1l0.1-0.3c0.2,0,0.3,0.1,0.5,0.1L76.3,47.6z M75.3,47.4
			c-0.2,0-0.3,0-0.5-0.1V47c0.2,0,0.3,0,0.5,0.1V47.4z M74.4,47.2c-0.2,0-0.3,0-0.5,0v-0.3c0.2,0,0.3,0,0.5,0V47.2z M73.4,47.2
			c-0.2,0-0.3,0-0.5,0v-0.3c0.2,0,0.3,0,0.5,0V47.2z M69,47.1v-0.3c0,0,0.2,0,0.5,0v0.3C69.2,47.1,69,47.1,69,47.1z M72.4,47.1
			c-0.2,0-0.3,0-0.5,0v-0.3c0.2,0,0.3,0,0.5,0V47.1z M70,47.1v-0.3c0.2,0,0.3,0,0.5,0v0.3C70.3,47.1,70.1,47.1,70,47.1z M71.5,47.1
			c-0.2,0-0.3,0-0.5,0v-0.3c0.2,0,0.3,0,0.5,0V47.1z"/>
	</g>
	<g id="XMLID_1098_">
		<path id="XMLID_324_" class="st0" d="M35,27.9v-0.5c0.2,0,0.3,0,0.5,0v0.5C35.3,27.9,35.1,27.9,35,27.9z M34.5,27.9
			c-0.2,0-0.3,0-0.5,0v-0.5c0.2,0,0.3,0,0.5,0V27.9z M36,27.9v-0.5c0.2,0,0.3,0,0.5-0.1l0.1,0.5C36.3,27.8,36.1,27.9,36,27.9z
			 M33.5,27.9c-0.2,0-0.3,0-0.5,0l0.1-0.5c0.2,0,0.3,0,0.5,0L33.5,27.9z M32.5,27.7c-0.2,0-0.3-0.1-0.5-0.1l0.1-0.5
			c0.2,0,0.3,0.1,0.5,0.1L32.5,27.7z M37,27.7l-0.1-0.5c0.2,0,0.3-0.1,0.5-0.1l0.1,0.5C37.3,27.7,37.1,27.7,37,27.7z M31.5,27.6
			c-0.2,0-0.3-0.1-0.5-0.1l0.1-0.5c0.2,0,0.3,0.1,0.5,0.1L31.5,27.6z M37.9,27.5L37.8,27c0.2,0,0.3-0.1,0.4-0.2l0.2,0.5
			C38.3,27.4,38.1,27.5,37.9,27.5z M30.5,27.4c-0.2,0-0.3-0.1-0.5-0.1l0.1-0.5c0.2,0,0.3,0.1,0.5,0.1L30.5,27.4z M38.9,27.1
			l-0.2-0.4c0.1-0.1,0.3-0.1,0.4-0.2l0.3,0.4C39.2,27,39,27.1,38.9,27.1z M29.6,27.1c-0.2,0-0.3-0.1-0.5-0.1l0.1-0.5
			c0.2,0,0.3,0.1,0.5,0.1L29.6,27.1z M28.6,26.9c-0.2,0-0.3-0.1-0.5-0.1l0.1-0.5c0.2,0,0.3,0.1,0.5,0.1L28.6,26.9z M39.8,26.6
			l-0.3-0.4c0.1-0.1,0.2-0.2,0.3-0.3l0.4,0.3C40,26.4,39.9,26.5,39.8,26.6z M27.7,26.6c-0.2,0-0.3-0.1-0.5-0.1l0.1-0.5
			c0.2,0,0.3,0.1,0.5,0.1L27.7,26.6z M26.7,26.3c-0.2-0.1-0.3-0.1-0.5-0.2l0.2-0.5c0.1,0.1,0.3,0.1,0.5,0.2L26.7,26.3z M25.8,26
			c-0.2-0.1-0.3-0.1-0.5-0.2l0.2-0.5c0.1,0.1,0.3,0.1,0.5,0.2L25.8,26z M40.5,25.8l-0.4-0.3c0.1-0.1,0.1-0.2,0.2-0.3l0.1-0.1
			l0.4,0.2c0,0,0,0.1-0.1,0.1C40.6,25.6,40.6,25.7,40.5,25.8z M24.8,25.6c-0.3-0.1-0.5-0.2-0.5-0.2l0.2-0.5c0,0,0.2,0.1,0.5,0.2
			L24.8,25.6z M41,25l-0.4-0.2c0.1-0.1,0.1-0.3,0.2-0.4l0.4,0.2C41.1,24.7,41.1,24.8,41,25z M41.4,24l-0.5-0.2
			c0.1-0.2,0.1-0.3,0.2-0.5l0.5,0.2C41.5,23.7,41.5,23.9,41.4,24z M41.8,23.1l-0.5-0.2c0.1-0.2,0.1-0.3,0.2-0.5l0.5,0.2
			C41.9,22.8,41.8,23,41.8,23.1z M42.1,22.2L41.7,22c0.1-0.2,0.2-0.3,0.2-0.5l0.4,0.2C42.3,21.9,42.2,22.1,42.1,22.2z M42.6,21.4
			l-0.4-0.3c0.1-0.1,0.2-0.3,0.3-0.4l0.4,0.3C42.8,21.2,42.7,21.3,42.6,21.4z M43.2,20.7l-0.3-0.4c0.1-0.1,0.3-0.2,0.4-0.3l0.3,0.4
			C43.4,20.5,43.3,20.6,43.2,20.7z M44,20.2l-0.2-0.4c0.1-0.1,0.3-0.1,0.5-0.2l0.2,0.5C44.2,20.1,44.1,20.2,44,20.2z M44.9,19.9
			l-0.2-0.5c0.1-0.1,0.3-0.1,0.5-0.2l0.2,0.5C45.2,19.8,45,19.8,44.9,19.9z M45.8,19.6l-0.2-0.5c0.2-0.1,0.3-0.1,0.5-0.2l0.1,0.5
			C46.1,19.5,45.9,19.5,45.8,19.6z M46.7,19.3l-0.1-0.5c0.2,0,0.3-0.1,0.5-0.1l0.1,0.5C47,19.2,46.9,19.2,46.7,19.3z M47.7,19
			l-0.1-0.5c0.2,0,0.3-0.1,0.5-0.1l0.1,0.5C48,18.9,47.8,18.9,47.7,19z M48.6,18.7l-0.1-0.5l0.5-0.1l0.1,0.5L48.6,18.7z M49.5,18.4
			L49.4,18c0.2,0,0.3-0.1,0.5-0.1l0.1,0.5C49.9,18.4,49.7,18.4,49.5,18.4z M50.5,18.2l-0.1-0.5l0.5-0.1l0.1,0.5L50.5,18.2z
			 M51.4,17.9l-0.1-0.5c0.3-0.1,0.5-0.1,0.5-0.1l0.1,0.5C51.9,17.8,51.7,17.9,51.4,17.9z"/>
	</g>
	<g id="XMLID_1097_">
		<path id="XMLID_323_" class="st0" d="M58.2,26.8c-0.1,0-0.2,0-0.3-0.1c-1.2-1.4-5.8-1.8-7.5-1.9c0,0,0,0-0.1,0
			c-1.8-0.4-2.7-1-2.8-1.9c-0.1-1,1-2.2,3.2-3.6c1.6-1,3.2-1.7,3.3-1.7c0.2-0.1,0.4,0,0.5,0.2s0,0.4-0.2,0.5c0,0-1.6,0.7-3.2,1.7
			c-2.7,1.6-2.9,2.5-2.9,2.9c0.1,0.5,0.8,0.9,2.2,1.2c0.6,0,6.3,0.2,8,2.1c0.1,0.2,0.1,0.4,0,0.5C58.4,26.8,58.3,26.8,58.2,26.8z"/>
	</g>
	<g id="XMLID_1096_">
		<path id="XMLID_322_" class="st0" d="M62.6,30.3c-0.1,0-0.1,0-0.2-0.1c-2.5-1.8-4.4-0.1-4.5,0s-0.3,0.1-0.5,0
			c-0.1-0.1-0.1-0.3,0-0.5c0,0,2.4-2.2,5.3,0c0.1,0.1,0.2,0.3,0.1,0.5C62.8,30.3,62.7,30.3,62.6,30.3z"/>
	</g>
	<g id="XMLID_1095_">
		<path id="XMLID_321_" class="st0" d="M62.6,35.2c-0.1,0-0.2,0-0.3-0.1s-0.1-0.4,0.1-0.5c0,0,2.9-2,5.3,0c0.1,0.1,0.2,0.3,0,0.5
			s-0.3,0.2-0.5,0C65.2,33.4,62.7,35.1,62.6,35.2C62.7,35.2,62.6,35.2,62.6,35.2z"/>
	</g>
	<g id="XMLID_1094_">
		<path id="XMLID_320_" class="st0" d="M73.1,38.6c-0.1,0-0.2,0-0.3-0.1c-1.8-2.1-5.5,0-5.5,0.1c-0.2,0.1-0.4,0-0.4-0.1
			c-0.1-0.2,0-0.4,0.1-0.4c0,0,1-0.6,2.3-0.9c1.7-0.4,3.1-0.1,4,1c0.1,0.1,0.1,0.3,0,0.5C73.3,38.6,73.2,38.6,73.1,38.6z"/>
	</g>
	<g id="XMLID_1093_">
		<path id="XMLID_319_" class="st0" d="M21.3,50.1h-0.2c0-0.1,1.1-6,1.7-8.3c0.6-2.2,1.5-6.9,1.5-7.9c0-1.3-0.4-2.3-0.8-3.3
			c-0.2-0.5-0.4-1-0.6-1.6c0-0.2-0.1-0.3-0.2-0.6c-0.2-0.4-0.5-1-0.6-1.9c-0.2-1.3-0.3-4.1,0.4-4.3c0.3-0.1,0.7,0.4,1.3,1.7L23.6,24
			c-0.6-1.5-1-1.6-1.1-1.6c-0.4,0.1-0.5,2.3-0.3,4.1c0.1,0.8,0.4,1.4,0.6,1.8c0.1,0.2,0.2,0.4,0.2,0.6c0.1,0.5,0.4,1,0.6,1.5
			c0.4,1,0.9,2,0.8,3.4c0,1-0.9,5.7-1.5,7.9C22.4,44.1,21.3,50,21.3,50.1z"/>
	</g>
	<g id="XMLID_1092_">
		<path id="XMLID_295_" class="st0" d="M67.7,41.5L67.7,41.5l0.1-0.3l0,0L67.7,41.5z M67.2,41.2c-0.1-0.1-0.3-0.2-0.4-0.2l0.2-0.3
			c0.2,0.1,0.3,0.2,0.4,0.2L67.2,41.2z M66.4,40.7c-0.1-0.1-0.3-0.2-0.4-0.3l0.2-0.3c0.1,0.1,0.3,0.2,0.4,0.3L66.4,40.7z M65.6,40.2
			c-0.1-0.1-0.3-0.2-0.4-0.3l0.2-0.3c0.1,0.1,0.3,0.2,0.4,0.3L65.6,40.2z M64.7,39.7l-0.4-0.3l0.2-0.3l0.4,0.3L64.7,39.7z
			 M63.9,39.1l-0.4-0.3l0.2-0.3l0.4,0.3L63.9,39.1z M63.1,38.6l-0.4-0.3l0.2-0.3l0,0l0.4,0.3L63.1,38.6z M62.3,38l-0.4-0.3l0.2-0.3
			l0.4,0.3L62.3,38z M61.5,37.5l-0.4-0.3l0.2-0.3l0.4,0.3L61.5,37.5z M60.6,36.9l-0.4-0.3l0.2-0.3l0.4,0.3L60.6,36.9z M59.8,36.4
			c-0.1-0.1-0.3-0.2-0.4-0.3l0.2-0.3c0.1,0.1,0.3,0.2,0.4,0.3L59.8,36.4z M59,35.8l-0.2-0.1c-0.1,0-0.1-0.1-0.2-0.1l0.2-0.3
			c0.1,0,0.1,0.1,0.2,0.1l0.2,0.1L59,35.8z M58.2,35.3c-0.1-0.1-0.3-0.2-0.4-0.3l0.2-0.3c0.1,0.1,0.3,0.2,0.4,0.3L58.2,35.3z
			 M57.4,34.6c-0.1-0.1-0.2-0.2-0.4-0.3l0.2-0.2c0.1,0.1,0.2,0.2,0.4,0.3L57.4,34.6z M56.7,34c-0.1-0.1-0.2-0.2-0.3-0.4l0.2-0.2
			c0.1,0.1,0.2,0.2,0.3,0.3L56.7,34z M56,33.3c-0.1-0.1-0.2-0.2-0.3-0.4l0.2-0.2c0.1,0.1,0.2,0.2,0.3,0.4L56,33.3z M55.4,32.5
			c-0.1-0.1-0.2-0.2-0.3-0.4l0.2-0.2c0.1,0.1,0.2,0.2,0.3,0.4L55.4,32.5z M54.7,31.8c-0.1-0.1-0.2-0.3-0.3-0.4l0.3-0.2
			c0.1,0.1,0.2,0.3,0.3,0.4L54.7,31.8z M54.1,31c-0.1-0.1-0.2-0.3-0.3-0.4l0.3-0.2c0.1,0.1,0.2,0.3,0.3,0.4L54.1,31z M53.5,30.2
			c-0.1-0.1-0.2-0.3-0.3-0.4l0.3-0.2c0.1,0.1,0.2,0.3,0.3,0.4L53.5,30.2z M52.9,29.4c-0.2-0.3-0.3-0.4-0.3-0.4l0.3-0.2
			c0,0,0.1,0.1,0.3,0.4L52.9,29.4z"/>
	</g>
	<g id="XMLID_1091_">
		<path id="XMLID_271_" class="st0" d="M67.5,42L67.5,42v-0.2l0,0V42z M67,41.7c-0.1-0.1-0.3-0.2-0.4-0.2l0.1-0.1
			C66.9,41.5,67,41.6,67,41.7L67,41.7z M66.1,41.2c-0.1-0.1-0.3-0.2-0.4-0.3l0.1-0.1C65.9,40.9,66.1,41,66.1,41.2L66.1,41.2z
			 M65.3,40.7c-0.1-0.1-0.3-0.2-0.4-0.3l0.1-0.1C65.1,40.4,65.3,40.5,65.3,40.7L65.3,40.7z M64.5,40.2l-0.4-0.3l0.1-0.1L64.5,40.2
			L64.5,40.2z M63.7,39.6l-0.4-0.3l0.1-0.1L63.7,39.6L63.7,39.6z M62.9,39.1l-0.4-0.3l0.1-0.1L62.9,39.1L62.9,39.1z M62,38.5
			l-0.4-0.3l0.1-0.1L62,38.5L62,38.5z M61.2,38l-0.4-0.3l0.1-0.1L61.2,38L61.2,38z M60.4,37.4L60,37.1l0.1-0.1L60.4,37.4L60.4,37.4z
			 M59.6,36.9c-0.1-0.1-0.3-0.2-0.4-0.3l0.1-0.1C59.4,36.6,59.6,36.7,59.6,36.9L59.6,36.9z M58.8,36.3l-0.2-0.1
			c-0.1,0-0.1-0.1-0.2-0.1l0.1-0.1c0.1,0,0.1,0.1,0.2,0.1L58.8,36.3L58.8,36.3z M57.9,35.8c-0.1-0.1-0.3-0.2-0.4-0.3l0.1-0.1
			C57.7,35.5,57.9,35.6,57.9,35.8L57.9,35.8z M57.2,35.1c-0.1-0.1-0.2-0.2-0.4-0.3l0.1-0.1C57,34.8,57.1,34.9,57.2,35.1L57.2,35.1z
			 M56.5,34.5c-0.1-0.1-0.2-0.2-0.3-0.4l0.1-0.1c0.1,0.1,0.2,0.2,0.3,0.3L56.5,34.5z M55.8,33.7c-0.1-0.1-0.2-0.2-0.3-0.4l0.1-0.1
			C55.7,33.3,55.8,33.4,55.8,33.7L55.8,33.7z M55.1,33c-0.1-0.1-0.2-0.2-0.3-0.4l0.1-0.1C55,32.6,55.1,32.7,55.1,33L55.1,33z
			 M54.5,32.3c-0.1-0.1-0.2-0.3-0.3-0.4l0.1-0.1C54.4,31.9,54.5,32.1,54.5,32.3L54.5,32.3z M53.9,31.5c-0.1-0.1-0.2-0.3-0.3-0.4
			l0.1-0.1c0.1,0.1,0.2,0.3,0.3,0.4L53.9,31.5z M53.3,30.7c-0.1-0.1-0.2-0.3-0.3-0.4l0.1-0.1c0.1,0.1,0.2,0.3,0.3,0.4L53.3,30.7z
			 M52.7,29.9c-0.2-0.3-0.3-0.4-0.3-0.4l0.1-0.1c0,0,0.1,0.1,0.3,0.4L52.7,29.9z"/>
	</g>
</g>
<g class="st1">
	<path d="M37.7,91.4v-7.8h1.4v3.2h2.7v-3.2h1.4v7.8h-1.4v-3.5h-2.7v3.5H37.7z"/>
	<path d="M45.1,91.4v-1.2H47v-5.5h-1.9v-1.2h5.2v1.2h-1.9v5.5h1.9v1.2H45.1z"/>
	<path d="M52.2,91.4v-7.8h1.4v3.6h0l2.8-3.6H58l-2.4,3l2.7,4.8h-1.5l-2-3.7l-1.1,1.4v2.3H52.2z"/>
	<path d="M59.7,91.4v-7.8h5v1.2h-3.6v2h3.1v1.2h-3.1v2.3h3.8v1.2H59.7z"/>
	<path d="M66.7,91.4v-7.8h2.6c0.4,0,0.8,0,1.1,0.1c0.4,0.1,0.7,0.2,0.9,0.4c0.3,0.2,0.5,0.4,0.6,0.7c0.1,0.3,0.2,0.7,0.2,1.1
		c0,0.6-0.1,1.1-0.4,1.5c-0.3,0.4-0.7,0.6-1.1,0.8l1.9,3.3h-1.6l-1.7-3.1h-1.2v3.1H66.7z M68.1,87.2h1.1c0.5,0,1-0.1,1.2-0.3
		c0.3-0.2,0.4-0.6,0.4-1c0-0.5-0.1-0.8-0.4-0.9c-0.3-0.2-0.7-0.3-1.2-0.3h-1.1V87.2z"/>
	<path d="M76.5,91.5c-0.6,0-1.1-0.1-1.6-0.3c-0.5-0.2-1-0.5-1.3-0.9l0.8-0.9c0.3,0.3,0.6,0.5,1,0.6c0.4,0.2,0.8,0.2,1.2,0.2
		c0.5,0,0.8-0.1,1-0.3c0.2-0.2,0.4-0.4,0.4-0.7c0-0.2,0-0.3-0.1-0.4c-0.1-0.1-0.2-0.2-0.3-0.3s-0.3-0.2-0.4-0.2
		c-0.2-0.1-0.3-0.1-0.5-0.2l-1.1-0.5c-0.2-0.1-0.4-0.2-0.6-0.3c-0.2-0.1-0.4-0.3-0.5-0.4c-0.2-0.2-0.3-0.4-0.4-0.6
		c-0.1-0.2-0.1-0.5-0.1-0.8c0-0.3,0.1-0.6,0.2-0.9c0.1-0.3,0.3-0.5,0.6-0.7c0.2-0.2,0.5-0.4,0.9-0.5c0.3-0.1,0.7-0.2,1.1-0.2
		c0.5,0,0.9,0.1,1.4,0.3c0.4,0.2,0.8,0.4,1.1,0.7l-0.7,0.9c-0.3-0.2-0.5-0.4-0.8-0.5c-0.3-0.1-0.6-0.2-1-0.2c-0.4,0-0.7,0.1-0.9,0.2
		s-0.3,0.4-0.3,0.7c0,0.2,0,0.3,0.1,0.4c0.1,0.1,0.2,0.2,0.3,0.3c0.1,0.1,0.3,0.2,0.4,0.2c0.2,0.1,0.3,0.1,0.5,0.2l1,0.4
		c0.2,0.1,0.5,0.2,0.7,0.3s0.4,0.3,0.5,0.4s0.3,0.4,0.4,0.6c0.1,0.2,0.1,0.5,0.1,0.8c0,0.3-0.1,0.6-0.2,0.9
		c-0.1,0.3-0.3,0.5-0.6,0.7s-0.6,0.4-0.9,0.5C77.3,91.5,76.9,91.5,76.5,91.5z"/>
</g>
</svg>
