<?xml version="1.0" encoding="utf-8"?>
<!-- Generator: Adobe Illustrator 24.3.0, SVG Export Plug-In . SVG Version: 6.00 Build 0)  -->
<svg version="1.1" id="Layer_1" xmlns="http://www.w3.org/2000/svg" xmlns:xlink="http://www.w3.org/1999/xlink" x="0px" y="0px"
	 viewBox="0 0 120 126" style="enable-background:new 0 0 120 126;" xml:space="preserve">
<style type="text/css">
	.st0{fill:#050505;}
	.st1{enable-background:new    ;}
</style>
<g id="XMLID_1_">
	<g id="XMLID_46_">
		<path id="XMLID_47_" class="st0" d="M42.4,79.1l-5.5-0.6l-0.1-0.1c0-0.1-1.2-1.4-2.9-1c-0.3,0.2-1.8,0.9-3.6,0.7
			c-1.8-0.2-4.7-0.7-4.7-0.7h-0.2l-0.1-0.2c0,0-0.4-0.5-1.2-1H24l0,0c0,0-0.6-0.5-1.3-0.5c-0.6,0-1.2-0.2-1.9-0.4
			C20.4,75.2,20,75,19.5,75c-1.4-0.2-3.2-1.9-3.7-3.8c0-0.1-0.7-2.8,0-4.9c0.8-2.2,2.6-3.7,3.8-3.8c0.1-1,0.4-3.5,1-6
			c0.6-2.2,0.5-2.9,0.4-3l-0.1-0.1v-0.3c0-0.3,1-6.6,1.1-7.5c0-0.1-0.2-0.4-0.3-0.7c-0.8-1.7-2.4-5.3-1.3-9.4l0,0l0,0
			c0.1-0.2,1.1-2,2.3-2l0,0c0.7,0,1.3,0.6,1.8,1.6l0.1,0.1l0.8-0.5l0.2,0.1c0.1,0,6.6,2.4,8.9,2.4h0.3l0.1,0.1c0,0,0.2,0.2,0.6,0.1
			c0.6-0.1,1.7-0.8,3.3-4.3c0.1-0.3,2.9-5.8,11.4-5.7c0.2-0.2,0.5-0.4,0.9-0.5c0.5,0,0.9,0.2,1.4,0.6v0.1l1.3,1.4
			c0.5,0.3,1.8,1.1,1.9,2.1c0,0.2,0,0.6-0.3,0.9c0.8,1.2,2.6,4.2,1.9,5.8c0.5,0.4,1.5,1.3,1.8,2.3l0.9,0.7c0.5,0.1,1.9,0.3,2.8,1.3
			c0.5,0.6,0.7,1.3,0.7,2.1l1.6,1.7c0.6-0.1,1.8-0.1,2.6,0.6c0.5,0.5,0.6,1.1,0.5,1.9l1.2,0.7c1.5,0,4.1,0.7,4.7,3.2L75,53
			c0.5-0.2,1.4-0.5,2.1-0.1c0.4,0.2,0.8,0.6,1,1.5c0.1,0.1,0.4,0.4,0.8,0.4c0.9,0,2.8,0.3,4.3,1.2c0,0,1.8,1,4.5,1.3
			c0.1,0,12.5,1.4,14.3,3c0.4,0.2,1.6,0.7,2.2,1.9c0.3,0.6,0.3,1.3,0.1,1.9c-0.1,0.4-0.4,2.7-2.3,4.6c-0.2,0.4-1.5,2.1-4.5,2
			c-0.5,0.2-1.6,0.6-2.1,0.9c-0.1,0.1-0.1,0.1-0.1,0.1v0.1l0.5,0.5l-0.7,0.2L91.4,74h-0.2c0,0-1.7-0.5-2.6-0.5s-1.7,0.5-1.8,0.7
			c-0.1,0.1-0.2,0.6-0.2,0.9v0.2l-0.9,0.9l-4,0.7l-1.6-0.8c-1.1,0-2.8,0.2-3.3,0.4c-0.5,0.2-1,1-1.2,1.3L75.5,78L71,78.5l-0.1-0.4
			c0-0.1-0.6-1.5-3-1.4c-1.2,0.3-2.5,0.9-2.7,1.4l-0.1,0.3L48,79v-0.5c0,0,0-0.3-0.3-0.5c-0.2-0.2-0.6-0.2-1-0.2h-0.1l-0.1-0.1
			c-0.1,0-2.1-0.9-3.8,1L42.4,79.1z M46.9,77c0.5,0,1,0.1,1.4,0.4c0.3,0.2,0.4,0.5,0.5,0.7l15.6-0.6c0.7-1,2.8-1.6,3.2-1.7h0.1h0.1
			c2.5-0.1,3.5,1.1,3.9,1.7l3.3-0.3c0.2-0.4,0.8-1.2,1.6-1.5c0.9-0.3,3.4-0.4,3.7-0.4h0.1l1.4,0.7l3.4-0.6l0.5-0.5
			c0-0.3,0.2-0.9,0.4-1.2c0.3-0.5,1.5-1.1,2.7-1.1c0.9,0,2.3,0.4,2.7,0.5l3-1.2c0-0.1,0-0.2,0-0.3c0-0.2,0.2-0.5,0.5-0.8
			c0.7-0.4,2.3-1,2.3-1.1h0.1h0.1c2.7,0.1,3.7-1.5,3.7-1.6V68h0.1c1.9-1.8,2.1-4,2.1-4.1v-0.1v-0.1c0.2-0.5,0.2-0.9,0-1.2
			c-0.4-0.9-1.7-1.4-1.7-1.4h-0.1l-0.1-0.1c-0.8-0.9-8.5-2.2-13.8-2.8c-2.9-0.2-4.8-1.3-4.9-1.3c-1.3-0.7-3-1.1-3.8-1.1
			c-1.1,0-1.6-0.9-1.7-1v-0.1v-0.1c-0.1-0.4-0.2-0.7-0.4-0.8c-0.5-0.2-1.3,0.1-1.5,0.2l-0.3,0.1L73.3,53v-0.2
			c-0.5-2.6-3.8-2.6-3.9-2.6h-0.1L67.2,49l0.1-0.4c0.1-0.6,0.1-1.1-0.2-1.4c-0.5-0.5-1.6-0.4-2-0.3l-0.3,0.2l-2.3-2.4v-0.2
			c0.1-0.7-0.1-1.2-0.4-1.6c-0.8-0.9-2.3-1-2.3-1h-0.2l-1.4-1.1v-0.1c-0.4-1.1-1.8-2.2-1.9-2.2l-0.4-0.3l0.4-0.4
			c0.7-0.8-0.8-3.7-2-5.4L54,32l0.4-0.3c0.2-0.2,0.2-0.3,0.2-0.4c0-0.4-0.9-1.1-1.5-1.4L53,29.8l-1.2-1.7c-0.1-0.1-0.4-0.3-0.6-0.3
			c-0.2,0-0.4,0.3-0.4,0.3l-0.2,0.2h-0.3c-8-0.2-10.7,5.1-10.7,5.1c-1.4,3-2.8,4.7-4.1,4.9c-0.6,0.1-1-0.1-1.2-0.2
			c-2.4-0.1-7.7-2-8.9-2.4l-1.1,0.7l-0.5-0.9v-0.1c-0.3-0.7-0.6-1.1-0.9-1.1l0,0c-0.5,0-1.1,0.8-1.4,1.4c-0.9,3.7,0.6,7.1,1.3,8.7
			c0.3,0.7,0.4,1,0.4,1.2c-0.1,0.4-0.7,4.9-1.1,7.4c0.2,0.5,0.2,1.5-0.3,3.7c-0.8,3-1.1,6.2-1.1,6.2v0.6l-0.6-0.1
			c-0.8-0.2-2.6,1.3-3.2,3.2c-0.7,1.8,0,4.3,0,4.3c0.4,1.6,2,3,2.9,3.1c0.5,0.1,1,0.2,1.4,0.4c0.6,0.2,1.1,0.3,1.6,0.3
			c1,0,1.7,0.5,1.9,0.7c0.8,0.4,1.2,0.8,1.4,1.1c0.7,0.1,2.9,0.5,4.5,0.7c1.7,0.2,3.1-0.6,3.1-0.6h0.1h0.1c1.9-0.5,3.4,0.7,3.8,1.1
			l4.6,0.5c1.6-1.7,3.7-1.5,4.7-1.1C46.7,77,46.8,77,46.9,77z"/>
	</g>
	<g id="XMLID_44_">
		<path id="XMLID_45_" class="st0" d="M76.9,70c-8.2,0-14.3-1.3-14.4-1.3l0,0c-10.5-3.5-22.9-2.3-23-2.3c-15,1.2-18.4-2.1-18.5-2.2
			s-0.1-0.3,0-0.5c0.1-0.1,0.3-0.1,0.5,0c0,0,0.8,0.8,3.5,1.5c2.4,0.6,6.9,1.2,14.5,0.6c0.1,0,12.6-1.2,23.3,2.3
			c0.6,0.1,16.1,3.3,30.8-0.7c0.1,0,7.6-1.8,8-5.7c0-0.2,0.2-0.3,0.4-0.3c0.2,0,0.3,0.2,0.3,0.4c-0.5,4.3-8.2,6.2-8.5,6.3
			C87.9,69.5,82,70,76.9,70z"/>
	</g>
	<g id="XMLID_42_">
		<path id="XMLID_43_" class="st0" d="M49.4,65.9c-0.1,0-0.1,0-0.2-0.1c0,0-4.2-3.7-7.6-5.8c-4.1-2.5-2.7-5.9-1.9-7.2
			c1.1-1.8,12.7-13,13.2-13.5c0.1-0.1,0.3-0.1,0.3,0c0.1,0.1,0.1,0.3,0,0.3c-0.1,0.1-12.1,11.7-13.1,13.5c-2.1,3.6,0.5,5.8,1.8,6.5
			c3.5,2.1,7.7,5.8,7.7,5.9c0.1,0.1,0.1,0.2,0,0.3C49.5,65.9,49.5,65.9,49.4,65.9z"/>
	</g>
	<g id="XMLID_40_">
		<path id="XMLID_41_" class="st0" d="M59.5,60.3c-2.7,0-5.1-1-6.8-1.8c-0.3-0.1-0.6-0.3-0.8-0.4c-2.5-1-11.3-2.7-11.4-2.7
			c-0.2,0-0.3-0.2-0.3-0.4s0.2-0.3,0.4-0.3c0.4,0.1,9,1.7,11.6,2.8c0.3,0.1,0.6,0.2,0.9,0.4c2.7,1.2,6.7,2.9,11.4,0.4
			c2.7-1.9,7.2-5,7.5-5.5c0.1-0.1,0.2-0.2,0.4-0.2c0.2,0.1,0.3,0.2,0.2,0.4c-0.1,0.2-0.1,0.4-4,3.2c-1.9,1.3-3.8,2.6-3.8,2.6l0,0
			C62.9,59.9,61.1,60.3,59.5,60.3z"/>
	</g>
	<g id="XMLID_38_">
		<path id="XMLID_39_" class="st0" d="M92.4,67.1L92.4,67.1l-3.3-1c-0.2,0-2.2-0.4-4.2-1c-3-0.8-4.7-1.5-5.3-2.2
			c-0.6-0.7-0.6-2-0.2-3.8c0.3-1.3,0.8-2.3,0.8-2.4c0.1-0.2,0.3-0.2,0.4-0.2c0.2,0.1,0.2,0.3,0.2,0.4c-0.5,1.1-1.6,4.4-0.7,5.5
			c0.9,1.2,6.9,2.6,9.2,3l0,0l3.2,1c0.2,0.1,0.3,0.2,0.2,0.4C92.7,67,92.6,67.1,92.4,67.1z"/>
	</g>
	<g id="XMLID_29_">
		<g id="XMLID_36_">
			<path id="XMLID_37_" class="st0" d="M32.7,53.3c0-0.2,0.2-0.3,0.3-0.3c0.2,0,0.3,0.1,0.3,0.3s-0.2,0.3-0.3,0.3
				C32.9,53.6,32.7,53.4,32.7,53.3 M33.1,53.5c0.1,0,0.3-0.1,0.3-0.3c0-0.1-0.1-0.3-0.3-0.3c-0.1,0-0.3,0.1-0.3,0.3
				S32.9,53.5,33.1,53.5 M33,53.4L33,53.4L32.9,53H33c0.1,0,0.1,0,0.1,0.1s0,0.1-0.1,0.1V53.4L33,53.4l-0.1-0.2h-0.1v0.2H33z
				 M33.1,53.2C33.1,53.2,33.2,53.2,33.1,53.2C33.2,53.1,33.1,53.1,33.1,53.2L33.1,53.2L33.1,53.2L33.1,53.2z"/>
		</g>
		<g id="XMLID_34_">
			<path id="XMLID_35_" class="st0" d="M30,53.3h0.2c0,0-0.3-0.5-0.4-0.8c0.1,0,0.2,0,0.3,0c0.1,0.2,0.4,0.6,0.4,0.6
				s0.4-0.2,0.6-0.3c0.1,0,0.1,0,0.2,0.1l-0.6,0.5l0.2,0.5c0,0,0.4-0.6,0.7-0.9c0.1,0,0.1,0.1,0.2,0.1c-0.1,0.2-0.2,0.3-0.3,0.4
				c0.3,0,0.5,0,0.8,0c0.1,0.1,0.1,0.2,0.2,0.3h-0.7l-0.3,0.5l0.4-0.1c0,0,0.3-0.1,0.7-0.3c0.1,0.1,0.1,0.2,0.1,0.3L32,54.5
				l-0.6,0.1c-0.1,0.1-0.1,0.2-0.2,0.3c0.6-0.1,1.1-0.3,1.7-0.4c0.3,0.8,0.1,1.7-0.4,2.4c-1.5,0.4-3.2-0.1-4.8,0.1l-0.5,0.1
				c-0.3-0.4-0.5-0.8-0.6-1.3s0-1.1,0.2-1.6l0.8-0.1l-0.4-0.5c0-0.1,0.1-0.1,0.2-0.2c0.2,0.2,0.7,0.7,0.7,0.7h0.2l-0.7-0.8
				c0.1-0.1,0.2-0.2,0.3-0.3l0.6,0.1c0,0,0-0.3,0-0.5c0.1-0.1,0.3-0.1,0.4-0.2c0.1,0.2,0.2,0.4,0.4,0.6c0.2-0.2,0.3-0.5,0.4-0.8
				c0,0,0,0,0.1,0L30,53.3z M29.6,53l-0.3,0.6l0.2,0.6l0.3-0.2l0.1-0.5C29.7,53.3,29.7,53.2,29.6,53 M28.6,53v0.3h0.2
				C28.7,53.2,28.7,53.1,28.6,53 M27.8,53.4L27.8,53.4c0.2,0.2,0.5,0.5,0.5,0.5v-0.4L27.8,53.4z M30.3,53.5l-0.1,0.1v0.1L30.3,53.5
				L30.3,53.5z M28.6,53.7v0.6l0.2-0.5L28.6,53.7z M31.3,53.9h-0.2l-0.3,0.5H31L31.3,53.9z M30,54.3v0.6l0.5-0.5l0.1-0.1L30.5,54
				L30,54.3z M29.1,54.2L29,54.5l0.3,0.3C29.2,54.5,29.1,54.4,29.1,54.2 M29.7,54.4l-0.2,0.1v0.2h0.1L29.7,54.4z M27.9,54.5
				l-0.2,0.4l0.5,0.2l0.4-0.3l-0.2-0.2L27.9,54.5z M26.9,54.5l0.4,0.2l0.1-0.2H26.9z M30.6,54.8l-0.2,0.4h0.3l0.2-0.4H30.6z
				 M28.8,54.9L28,55.5h-0.4l0.2-0.2c-0.1-0.1-0.3-0.1-0.4-0.2l-0.3,0.3c-0.1,0-0.2,0-0.3,0c0,0.3,0,0.6,0.1,0.8
				c0,0.1,0,0.2,0.2,0.2c0.8,0,1.5,0.1,2.3,0.2v-1.1c0-0.1-0.1-0.2-0.2-0.3l-0.4,0.2h-0.6c0,0,0.5-0.3,0.8-0.4
				C28.9,55,28.9,54.9,28.8,54.9 M27,54.9c0,0.1,0,0.2,0,0.3c0.1-0.1,0.2-0.3,0.2-0.3H27z M32.4,55l-0.3,0.1
				c0.1,0.1,0.2,0.4,0.2,0.4H32l-0.2-0.3c-0.1,0-0.5,0.1-0.5,0.1l0.1,0.2h-0.2L31,55.3c0,0-0.7,0.2-1,0.3l0,0c0,0.4,0,0.7,0.1,1v0.1
				c0.6,0.1,1.3,0.1,1.9,0.2h0.1c0.2-0.2,0.3-0.5,0.4-0.8C32.6,55.8,32.6,55.3,32.4,55"/>
		</g>
		<g id="XMLID_32_">
			<path id="XMLID_33_" class="st0" d="M32.3,57.2c-0.2,0.2-0.4,0.5-0.7,0.7c-1.5,0-2.8-0.4-4.2-0.5l-0.1-0.1c1.1-0.2,2.2-0.1,3.3,0
				C31.1,57.3,31.7,57.3,32.3,57.2L32.3,57.2z"/>
		</g>
		<g id="XMLID_30_">
			<path id="XMLID_31_" class="st0" d="M30.1,57.9c0.4,0,0.8,0.1,1.3,0.1c-0.9,0.6-2.3,0.6-3.2,0.1c-0.2-0.1-0.5-0.3-0.7-0.5h0.1
				h0.6L30.1,57.9z"/>
		</g>
	</g>
	<g id="XMLID_22_">
		<g id="XMLID_27_">
			<path id="XMLID_28_" class="st0" d="M46,65c0,0-0.1,0-0.2-0.1l0.2-0.4c0.1,0.1,0.2,0.1,0.2,0.1L46,65z"/>
		</g>
		<g id="XMLID_25_">
			<path id="XMLID_26_" class="st0" d="M45.3,64.6c-0.1-0.1-0.3-0.2-0.4-0.2l0.2-0.4c0.2,0.1,0.3,0.2,0.4,0.2L45.3,64.6z M44.4,64.1
				c-0.1-0.1-0.3-0.2-0.4-0.3l0.3-0.4c0.1,0.1,0.3,0.2,0.4,0.3L44.4,64.1z M43.6,63.6c-0.1-0.1-0.3-0.2-0.4-0.3l0.3-0.4
				c0.1,0.1,0.3,0.2,0.4,0.3L43.6,63.6z M42.8,63.1c-0.1-0.1-0.3-0.2-0.4-0.3l0.3-0.4c0.1,0.1,0.3,0.2,0.4,0.3L42.8,63.1z M42,62.5
				c-0.1-0.1-0.3-0.2-0.4-0.3l0.3-0.4c0.1,0.1,0.3,0.2,0.4,0.3L42,62.5z M41.2,61.9c-0.1-0.1-0.3-0.2-0.4-0.3l0.3-0.4
				c0.1,0.1,0.2,0.2,0.4,0.3L41.2,61.9z M40.4,61.2c-0.1-0.1-0.2-0.2-0.4-0.3l0.3-0.4c0.1,0.1,0.2,0.2,0.4,0.3L40.4,61.2z
				 M39.7,60.6c-0.1-0.1-0.2-0.2-0.3-0.4l0.4-0.3c0.1,0.1,0.2,0.2,0.3,0.3L39.7,60.6z M39,59.8c-0.1-0.1-0.2-0.3-0.3-0.4l0.4-0.3
				c0.1,0.1,0.2,0.2,0.3,0.4L39,59.8z M38.4,59c-0.1-0.1-0.2-0.3-0.3-0.4l0.4-0.3c0.1,0.1,0.2,0.3,0.3,0.4L38.4,59z M37.9,58.2
				c-0.1-0.1-0.2-0.3-0.2-0.4l0.4-0.2c0.1,0.1,0.1,0.3,0.2,0.4L37.9,58.2z M37.4,57.3c-0.1-0.2-0.1-0.3-0.2-0.5l0.5-0.1
				c0,0.1,0.1,0.3,0.2,0.4L37.4,57.3z M37.1,56.3c0-0.2-0.1-0.3-0.1-0.5l0.5-0.1c0,0.2,0,0.3,0.1,0.5L37.1,56.3z M37,55.3L37,55.3
				L37,55.3L37,55.3c0-0.1,0-0.1,0-0.2s0-0.2,0-0.3l0.5,0.1c0,0.1,0,0.2,0,0.2c0,0.1,0,0.1,0,0.1v0.1v0.1L37,55.3z M37.6,54.4
				l-0.5-0.1c0-0.2,0.1-0.3,0.2-0.5l0.5,0.2C37.7,54.1,37.7,54.3,37.6,54.4z M38,53.5l-0.4-0.2c0.1-0.1,0.2-0.3,0.2-0.4l0.4,0.2
				C38.2,53.2,38.1,53.4,38,53.5z M38.5,52.7l-0.4-0.3c0.1-0.1,0.2-0.3,0.3-0.4l0.4,0.3C38.7,52.4,38.6,52.6,38.5,52.7z M39,51.9
				l-0.4-0.3c0.1-0.1,0.2-0.3,0.3-0.4l0.4,0.3C39.2,51.7,39.1,51.8,39,51.9z M39.6,51.2l-0.4-0.3c0.1-0.1,0.2-0.2,0.3-0.4l0.4,0.3
				C39.8,50.9,39.7,51,39.6,51.2z M40.3,50.4l-0.4-0.3c0.1-0.1,0.2-0.2,0.3-0.4l0.4,0.3C40.5,50.2,40.4,50.3,40.3,50.4z M40.9,49.7
				l-0.4-0.3c0.1-0.1,0.2-0.2,0.3-0.4l0.4,0.3C41.1,49.4,41,49.6,40.9,49.7z M41.6,49l-0.4-0.3l0.3-0.4l0.4,0.3L41.6,49z M42.3,48.2
				l-0.4-0.3l0.3-0.4l0.4,0.3L42.3,48.2z M42.9,47.5l-0.4-0.3l0.3-0.4l0.4,0.3L42.9,47.5z M43.6,46.8l-0.4-0.3l0.3-0.4l0.4,0.3
				L43.6,46.8z M44.3,46.1l-0.4-0.3l0.3-0.4l0.4,0.3L44.3,46.1z M45,45.4l-0.4-0.3l0.3-0.4l0.4,0.3L45,45.4z M45.6,44.7l-0.4-0.3
				l0.3-0.4l0.4,0.3L45.6,44.7z M46.3,44l-0.4-0.3l0.3-0.4l0.4,0.3L46.3,44z M47,43.3L46.7,43l0.3-0.4l0.4,0.3L47,43.3z M47.7,42.6
				l-0.4-0.3l0.3-0.3l0.3,0.3L47.7,42.6z M48.4,41.9l-0.3-0.3l0.3-0.3l0.3,0.3L48.4,41.9z M49.1,41.2l-0.3-0.3l0.3-0.3l0.3,0.3
				L49.1,41.2z M49.8,40.5l-0.3-0.3l0.3-0.3l0.3,0.3L49.8,40.5z M50.5,39.8l-0.3-0.3c0.2-0.2,0.2-0.2,0.3-0.2c0,0,0.1,0,0.2-0.1
				l0.2,0.4c-0.1,0-0.1,0.1-0.2,0.1S50.5,39.7,50.5,39.8z M51.2,39.3L51,38.9c0.1-0.1,0.3-0.1,0.4-0.2l0.2,0.4
				C51.5,39.2,51.4,39.3,51.2,39.3z M52.1,38.8l-0.3-0.4c0.1-0.1,0.3-0.2,0.4-0.3l0.3,0.4C52.4,38.7,52.2,38.7,52.1,38.8z
				 M52.9,38.3l-0.3-0.4c0.1-0.1,0.3-0.2,0.4-0.3l0.3,0.4C53.2,38.1,53,38.2,52.9,38.3z M53.7,37.6l-0.3-0.4
				c0.1-0.1,0.2-0.2,0.3-0.3l0.3,0.3C54,37.4,53.8,37.5,53.7,37.6z M54.4,36.9L54,36.6c0.1-0.1,0.2-0.2,0.3-0.4l0.4,0.3
				C54.6,36.7,54.5,36.8,54.4,36.9z M55,36.1l-0.4-0.2c0.1-0.1,0.1-0.3,0.2-0.4l0.5,0.1C55.1,35.7,55.1,35.9,55,36.1z M55.3,35.1
				L54.8,35l0,0c0-0.1,0-0.2,0-0.3v-0.1h0.5v0.1C55.3,34.8,55.3,34.9,55.3,35.1L55.3,35.1z M54.8,34.1c0-0.2-0.1-0.3-0.1-0.4
				l0.5-0.1c0.1,0.2,0.1,0.3,0.1,0.5H54.8z M54.5,33.3c-0.1-0.1-0.2-0.2-0.3-0.3l0.3-0.4c0.1,0.1,0.2,0.3,0.3,0.4L54.5,33.3z"/>
		</g>
		<g id="XMLID_23_">
			<path id="XMLID_24_" class="st0" d="M54,32.7c-0.1,0-0.2-0.1-0.2-0.1l0.1-0.5c0,0,0.1,0,0.3,0.1L54,32.7z"/>
		</g>
	</g>
	<g id="XMLID_20_">
		<path id="XMLID_21_" class="st0" d="M58,61.8c-0.2,0-0.3,0-0.5,0v-0.3c0.2,0,0.3,0,0.5,0V61.8z M58.5,61.8v-0.3c0.2,0,0.3,0,0.5,0
			v0.3C58.8,61.8,58.6,61.8,58.5,61.8z M59.5,61.8v-0.3c0.2,0,0.3,0,0.5,0v0.3C59.8,61.8,59.6,61.8,59.5,61.8z M60.4,61.7v-0.3
			c0.2,0,0.3,0,0.5,0v0.3C60.8,61.7,60.6,61.7,60.4,61.7z M57,61.7c-0.2,0-0.3-0.1-0.5-0.1l0.1-0.3c0.2,0,0.3,0.1,0.5,0.1L57,61.7z
			 M61.4,61.7v-0.3c0.2,0,0.3,0,0.5-0.1v0.3C61.8,61.6,61.6,61.6,61.4,61.7z M56,61.5c-0.2,0-0.3-0.1-0.5-0.1l0.1-0.3
			c0.2,0,0.3,0.1,0.5,0.1L56,61.5z M62.4,61.5l-0.1-0.3c0.2,0,0.3-0.1,0.5-0.1l0.1,0.3C62.7,61.4,62.6,61.5,62.4,61.5z M63.4,61.3
			L63.3,61c0.2,0,0.3-0.1,0.5-0.1l0.1,0.3C63.7,61.2,63.5,61.3,63.4,61.3z M55,61.3c-0.2,0-0.3-0.1-0.5-0.1l0.1-0.3
			c0.2,0,0.3,0.1,0.5,0.1L55,61.3z M64.3,61l-0.1-0.3c0.1-0.1,0.3-0.1,0.4-0.2l0.1,0.3C64.6,60.9,64.5,60.9,64.3,61z M54.1,61
			c-0.2-0.1-0.3-0.1-0.5-0.2l0.1-0.3c0.2,0.1,0.3,0.1,0.5,0.2L54.1,61z M53.2,60.6c-0.2-0.1-0.3-0.1-0.5-0.2l0.1-0.3
			c0.1,0.1,0.3,0.1,0.5,0.2L53.2,60.6z M65.2,60.6l-0.1-0.3c0.1-0.1,0.3-0.1,0.4-0.2l0.2,0.3C65.5,60.4,65.4,60.5,65.2,60.6z
			 M52.3,60.3c-0.2-0.1-0.3-0.1-0.5-0.2l0.1-0.3c0.1,0.1,0.3,0.1,0.4,0.2V60.3z M66.1,60.1l-0.2-0.3H66c0.1-0.1,0.2-0.1,0.4-0.2
			l0.2,0.3C66.4,59.9,66.3,60,66.1,60.1L66.1,60.1z M51.3,59.9c-0.2-0.1-0.3-0.1-0.4-0.2l0.1-0.3c0.1,0.1,0.3,0.1,0.4,0.2L51.3,59.9
			z M67,59.6l-0.2-0.3c0.1-0.1,0.3-0.2,0.4-0.3l0.2,0.3C67.2,59.4,67.1,59.5,67,59.6z M50.5,59.4C50.4,59.4,50.4,59.4,50.5,59.4
			c-0.2-0.1-0.3-0.2-0.4-0.2l0.1-0.3c0.2,0.1,0.3,0.1,0.4,0.2h0.1L50.5,59.4z M49.6,59c-0.1,0-0.3-0.1-0.5-0.1l0.1-0.3
			c0.2,0.1,0.3,0.1,0.5,0.2L49.6,59z M67.8,59l-0.2-0.3c0.1-0.1,0.3-0.2,0.4-0.3l0.2,0.3C68,58.8,67.9,58.9,67.8,59z M48.7,58.8
			c-0.2,0-0.3-0.1-0.5-0.1l0.1-0.3c0.2,0,0.3,0.1,0.5,0.1L48.7,58.8z M47.7,58.5c-0.2,0-0.3-0.1-0.5-0.1l0.1-0.3
			c0.2,0,0.3,0.1,0.5,0.1L47.7,58.5z M68.6,58.4l-0.2-0.3c0.1-0.1,0.3-0.2,0.4-0.3l0.2,0.3C68.8,58.2,68.7,58.3,68.6,58.4z
			 M46.8,58.3c-0.2,0-0.3-0.1-0.5-0.1l0.1-0.3c0.2,0,0.3,0.1,0.5,0.1L46.8,58.3z M45.8,58.1c-0.2,0-0.3-0.1-0.5-0.1l0.1-0.3
			c0.2,0,0.3,0.1,0.5,0.1L45.8,58.1z M44.8,57.9l-0.5-0.1l0.1-0.3l0.5,0.1L44.8,57.9z M69.3,57.8l-0.2-0.3c0.1-0.1,0.3-0.2,0.4-0.3
			l0.2,0.3C69.6,57.6,69.5,57.7,69.3,57.8z M43.9,57.7c-0.2,0-0.3-0.1-0.5-0.1l0.1-0.3c0.2,0,0.3,0.1,0.5,0.1L43.9,57.7z M42.9,57.5
			l-0.5-0.1l0.1-0.3l0.5,0.1L42.9,57.5z M41.9,57.3l-0.5-0.1l0.1-0.3L42,57L41.9,57.3z M70.1,57.2L69.9,57l0.4-0.3l0.2,0.3
			L70.1,57.2z M41,57.2c-0.3-0.1-0.5-0.1-0.5-0.1l0.1-0.3c0,0,0.2,0,0.5,0.1L41,57.2z M70.9,56.6l-0.2-0.3l0.4-0.3l0.2,0.3
			L70.9,56.6z M71.7,56l-0.2-0.3c0.1-0.1,0.3-0.2,0.4-0.3l0.2,0.3C71.9,55.8,71.8,55.9,71.7,56z M72.5,55.4l-0.2-0.3
			c0.1-0.1,0.3-0.2,0.4-0.3l0.2,0.3C72.7,55.2,72.6,55.3,72.5,55.4z M73.2,54.9L73,54.6c0.1-0.1,0.3-0.2,0.4-0.3l0.2,0.3
			C73.5,54.7,73.4,54.8,73.2,54.9z M74.1,54.3L73.9,54c0.2-0.1,0.3-0.2,0.5-0.2l0.1,0.3C74.4,54.2,74.2,54.3,74.1,54.3z"/>
	</g>
	<g id="XMLID_18_">
		<path id="XMLID_19_" class="st0" d="M90.2,67.6c0,0-0.1-0.1-0.3-0.2l0.1-0.3c0.2,0.1,0.4,0.2,0.5,0.3L90.2,67.6z M89.4,67.2
			c-0.1,0-0.3-0.1-0.5-0.1l0.1-0.3c0.2,0,0.3,0.1,0.5,0.1L89.4,67.2z M88.4,67c-0.2,0-0.3-0.1-0.5-0.1l0.1-0.3
			c0.2,0,0.3,0.1,0.5,0.1L88.4,67z M87.5,66.7c-0.2,0-0.3-0.1-0.5-0.1l0.1-0.3c0.2,0,0.3,0.1,0.5,0.1L87.5,66.7z M86.5,66.5L86,66.4
			l0.1-0.3l0.5,0.1L86.5,66.5z M85.6,66.3l-0.5-0.1l0.1-0.3l0.5,0.1L85.6,66.3z M84.6,66.1c-0.2,0-0.3-0.1-0.5-0.1l0.1-0.3
			c0.2,0,0.3,0.1,0.5,0.1L84.6,66.1z M83.6,65.9c-0.2,0-0.3-0.1-0.5-0.1l0.1-0.3c0.2,0,0.3,0.1,0.5,0.1L83.6,65.9z M82.7,65.7
			c-0.2,0-0.3-0.1-0.5-0.1l0.1-0.3c0.2,0,0.3,0.1,0.5,0.1L82.7,65.7z M81.7,65.4c-0.2,0-0.3-0.1-0.5-0.1l0.1-0.3
			c0.1,0,0.3,0.1,0.5,0.1L81.7,65.4z M80.8,65.1c-0.2-0.1-0.3-0.1-0.5-0.2l0.1-0.3c0.1,0.1,0.3,0.1,0.4,0.2V65.1z M79.9,64.7
			c-0.2-0.1-0.3-0.2-0.4-0.3l0.2-0.3c0.1,0.1,0.3,0.2,0.4,0.3L79.9,64.7z M79.1,64.1c-0.1-0.1-0.3-0.2-0.4-0.4l0.3-0.2
			c0.1,0.1,0.2,0.2,0.3,0.3L79.1,64.1z M78.4,63.3c-0.1-0.2-0.1-0.3-0.2-0.5l0.3-0.1c0,0.2,0.1,0.3,0.2,0.4L78.4,63.3z M78.1,62.3
			L78.1,62.3c0-0.2-0.1-0.3-0.1-0.5l0.3-0.1c0,0.2,0.1,0.3,0.1,0.5l0,0L78.1,62.3z M77.9,61.4c-0.1-0.1-0.2-0.2-0.3-0.3l0.2-0.3
			c0.2,0.1,0.3,0.2,0.4,0.4L77.9,61.4z M77.2,60.9c-0.1,0-0.2-0.1-0.3-0.1c-0.1,0-0.1,0-0.2-0.1l0.1-0.3c0.1,0,0.1,0,0.2,0.1
			c0.1,0,0.2,0.1,0.3,0.1L77.2,60.9z M76.3,60.6c-0.1,0-0.3-0.1-0.5-0.1l0.1-0.3c0.2,0,0.3,0.1,0.5,0.1L76.3,60.6z M75.3,60.4
			c-0.2,0-0.3,0-0.5-0.1V60c0.2,0,0.3,0,0.5,0.1V60.4z M74.4,60.2c-0.2,0-0.3,0-0.5,0v-0.3c0.2,0,0.3,0,0.5,0V60.2z M73.4,60.2
			c-0.2,0-0.3,0-0.5,0v-0.3c0.2,0,0.3,0,0.5,0V60.2z M69,60.1v-0.3c0,0,0.2,0,0.5,0v0.3C69.2,60.1,69,60.1,69,60.1z M72.4,60.1
			c-0.2,0-0.3,0-0.5,0v-0.3c0.2,0,0.3,0,0.5,0V60.1z M70,60.1v-0.3c0.2,0,0.3,0,0.5,0v0.3C70.3,60.1,70.1,60.1,70,60.1z M71.5,60.1
			c-0.2,0-0.3,0-0.5,0v-0.3c0.2,0,0.3,0,0.5,0V60.1z"/>
	</g>
	<g id="XMLID_16_">
		<path id="XMLID_17_" class="st0" d="M35,40.9v-0.5c0.2,0,0.3,0,0.5,0v0.5C35.3,40.9,35.1,40.9,35,40.9z M34.5,40.9
			c-0.2,0-0.3,0-0.5,0v-0.5c0.2,0,0.3,0,0.5,0V40.9z M36,40.9v-0.5c0.2,0,0.3,0,0.5-0.1l0.1,0.5C36.3,40.8,36.1,40.9,36,40.9z
			 M33.5,40.9c-0.2,0-0.3,0-0.5,0l0.1-0.5c0.2,0,0.3,0,0.5,0L33.5,40.9z M32.5,40.7c-0.2,0-0.3-0.1-0.5-0.1l0.1-0.5
			c0.2,0,0.3,0.1,0.5,0.1L32.5,40.7z M37,40.7l-0.1-0.5c0.2,0,0.3-0.1,0.5-0.1l0.1,0.5C37.3,40.7,37.1,40.7,37,40.7z M31.5,40.6
			c-0.2,0-0.3-0.1-0.5-0.1l0.1-0.5c0.2,0,0.3,0.1,0.5,0.1L31.5,40.6z M37.9,40.5L37.8,40c0.2,0,0.3-0.1,0.4-0.2l0.2,0.5
			C38.3,40.4,38.1,40.5,37.9,40.5z M30.5,40.4c-0.2,0-0.3-0.1-0.5-0.1l0.1-0.5c0.2,0,0.3,0.1,0.5,0.1L30.5,40.4z M38.9,40.1
			l-0.2-0.4c0.1-0.1,0.3-0.1,0.4-0.2l0.3,0.4C39.2,40,39,40.1,38.9,40.1z M29.6,40.1c-0.2,0-0.3-0.1-0.5-0.1l0.1-0.5
			c0.2,0,0.3,0.1,0.5,0.1L29.6,40.1z M28.6,39.9c-0.2,0-0.3-0.1-0.5-0.1l0.1-0.5c0.2,0,0.3,0.1,0.5,0.1L28.6,39.9z M39.8,39.6
			l-0.3-0.4c0.1-0.1,0.2-0.2,0.3-0.3l0.4,0.3C40,39.4,39.9,39.5,39.8,39.6z M27.7,39.6c-0.2,0-0.3-0.1-0.5-0.1l0.1-0.5
			c0.2,0,0.3,0.1,0.5,0.1L27.7,39.6z M26.7,39.3c-0.2-0.1-0.3-0.1-0.5-0.2l0.2-0.5c0.1,0.1,0.3,0.1,0.5,0.2L26.7,39.3z M25.8,39
			c-0.2-0.1-0.3-0.1-0.5-0.2l0.2-0.5c0.1,0.1,0.3,0.1,0.5,0.2L25.8,39z M40.5,38.8l-0.4-0.3c0.1-0.1,0.1-0.2,0.2-0.3l0.1-0.1
			l0.4,0.2c0,0,0,0.1-0.1,0.1C40.6,38.6,40.6,38.7,40.5,38.8z M24.8,38.6c-0.3-0.1-0.5-0.2-0.5-0.2l0.2-0.5c0,0,0.2,0.1,0.5,0.2
			L24.8,38.6z M41,38l-0.4-0.2c0.1-0.1,0.1-0.3,0.2-0.4l0.4,0.2C41.1,37.7,41.1,37.8,41,38z M41.4,37l-0.5-0.2
			c0.1-0.2,0.1-0.3,0.2-0.5l0.5,0.2C41.5,36.7,41.5,36.9,41.4,37z M41.8,36.1l-0.5-0.2c0.1-0.2,0.1-0.3,0.2-0.5l0.5,0.2
			C41.9,35.8,41.8,36,41.8,36.1z M42.1,35.2L41.7,35c0.1-0.2,0.2-0.3,0.2-0.5l0.4,0.2C42.3,34.9,42.2,35.1,42.1,35.2z M42.6,34.4
			l-0.4-0.3c0.1-0.1,0.2-0.3,0.3-0.4l0.4,0.3C42.8,34.2,42.7,34.3,42.6,34.4z M43.2,33.7l-0.3-0.4c0.1-0.1,0.3-0.2,0.4-0.3l0.3,0.4
			C43.4,33.5,43.3,33.6,43.2,33.7z M44,33.2l-0.2-0.4c0.1-0.1,0.3-0.1,0.5-0.2l0.2,0.5C44.2,33.1,44.1,33.2,44,33.2z M44.9,32.9
			l-0.2-0.5c0.1-0.1,0.3-0.1,0.5-0.2l0.2,0.5C45.2,32.8,45,32.8,44.9,32.9z M45.8,32.6l-0.2-0.5c0.2-0.1,0.3-0.1,0.5-0.2l0.1,0.5
			C46.1,32.5,45.9,32.5,45.8,32.6z M46.7,32.3l-0.1-0.5c0.2,0,0.3-0.1,0.5-0.1l0.1,0.5C47,32.2,46.9,32.2,46.7,32.3z M47.7,32
			l-0.1-0.5c0.2,0,0.3-0.1,0.5-0.1l0.1,0.5C48,31.9,47.8,31.9,47.7,32z M48.6,31.7l-0.1-0.5l0.5-0.1l0.1,0.5L48.6,31.7z M49.5,31.4
			L49.4,31c0.2,0,0.3-0.1,0.5-0.1l0.1,0.5C49.9,31.4,49.7,31.4,49.5,31.4z M50.5,31.2l-0.1-0.5l0.5-0.1l0.1,0.5L50.5,31.2z
			 M51.4,30.9l-0.1-0.5c0.3-0.1,0.5-0.1,0.5-0.1l0.1,0.5C51.9,30.8,51.7,30.9,51.4,30.9z"/>
	</g>
	<g id="XMLID_14_">
		<path id="XMLID_15_" class="st0" d="M58.2,39.8c-0.1,0-0.2,0-0.3-0.1c-1.2-1.4-5.8-1.8-7.5-1.9c0,0,0,0-0.1,0
			c-1.8-0.4-2.7-1-2.8-1.9c-0.1-1,1-2.2,3.2-3.6c1.6-1,3.2-1.7,3.3-1.7c0.2-0.1,0.4,0,0.5,0.2s0,0.4-0.2,0.5c0,0-1.6,0.7-3.2,1.7
			c-2.7,1.6-2.9,2.5-2.9,2.9c0.1,0.5,0.8,0.9,2.2,1.2c0.6,0,6.3,0.2,8,2.1c0.1,0.2,0.1,0.4,0,0.5C58.4,39.8,58.3,39.8,58.2,39.8z"/>
	</g>
	<g id="XMLID_12_">
		<path id="XMLID_13_" class="st0" d="M62.6,43.3c-0.1,0-0.1,0-0.2-0.1c-2.5-1.8-4.4-0.1-4.5,0s-0.3,0.1-0.5,0
			c-0.1-0.1-0.1-0.3,0-0.5c0,0,2.4-2.2,5.3,0c0.1,0.1,0.2,0.3,0.1,0.5C62.8,43.3,62.7,43.3,62.6,43.3z"/>
	</g>
	<g id="XMLID_10_">
		<path id="XMLID_11_" class="st0" d="M62.6,48.2c-0.1,0-0.2,0-0.3-0.1s-0.1-0.4,0.1-0.5c0,0,2.9-2,5.3,0c0.1,0.1,0.2,0.3,0,0.5
			s-0.3,0.2-0.5,0C65.2,46.4,62.7,48.1,62.6,48.2C62.7,48.2,62.6,48.2,62.6,48.2z"/>
	</g>
	<g id="XMLID_8_">
		<path id="XMLID_9_" class="st0" d="M73.1,51.6c-0.1,0-0.2,0-0.3-0.1c-1.8-2.1-5.5,0-5.5,0.1c-0.2,0.1-0.4,0-0.4-0.1
			c-0.1-0.2,0-0.4,0.1-0.4c0,0,1-0.6,2.3-0.9c1.7-0.4,3.1-0.1,4,1c0.1,0.1,0.1,0.3,0,0.5C73.3,51.6,73.2,51.6,73.1,51.6z"/>
	</g>
	<g id="XMLID_6_">
		<path id="XMLID_7_" class="st0" d="M21.3,63.1h-0.2c0-0.1,1.1-6,1.7-8.3c0.6-2.2,1.5-6.9,1.5-7.9c0-1.3-0.4-2.3-0.8-3.3
			c-0.2-0.5-0.4-1-0.6-1.6c0-0.2-0.1-0.3-0.2-0.6c-0.2-0.4-0.5-1-0.6-1.9c-0.2-1.3-0.3-4.1,0.4-4.3c0.3-0.1,0.7,0.4,1.3,1.7L23.6,37
			c-0.6-1.5-1-1.6-1.1-1.6c-0.4,0.1-0.5,2.3-0.3,4.1c0.1,0.8,0.4,1.4,0.6,1.8c0.1,0.2,0.2,0.4,0.2,0.6c0.1,0.5,0.4,1,0.6,1.5
			c0.4,1,0.9,2,0.8,3.4c0,1-0.9,5.7-1.5,7.9C22.4,57.1,21.3,63,21.3,63.1z"/>
	</g>
	<g id="XMLID_4_">
		<path id="XMLID_5_" class="st0" d="M67.7,54.5L67.7,54.5l0.1-0.3l0,0L67.7,54.5z M67.2,54.2c-0.1-0.1-0.3-0.2-0.4-0.2l0.2-0.3
			c0.2,0.1,0.3,0.2,0.4,0.2L67.2,54.2z M66.4,53.7c-0.1-0.1-0.3-0.2-0.4-0.3l0.2-0.3c0.1,0.1,0.3,0.2,0.4,0.3L66.4,53.7z M65.6,53.2
			c-0.1-0.1-0.3-0.2-0.4-0.3l0.2-0.3c0.1,0.1,0.3,0.2,0.4,0.3L65.6,53.2z M64.7,52.7l-0.4-0.3l0.2-0.3l0.4,0.3L64.7,52.7z
			 M63.9,52.1l-0.4-0.3l0.2-0.3l0.4,0.3L63.9,52.1z M63.1,51.6l-0.4-0.3l0.2-0.3l0,0l0.4,0.3L63.1,51.6z M62.3,51l-0.4-0.3l0.2-0.3
			l0.4,0.3L62.3,51z M61.5,50.5l-0.4-0.3l0.2-0.3l0.4,0.3L61.5,50.5z M60.6,49.9l-0.4-0.3l0.2-0.3l0.4,0.3L60.6,49.9z M59.8,49.4
			c-0.1-0.1-0.3-0.2-0.4-0.3l0.2-0.3c0.1,0.1,0.3,0.2,0.4,0.3L59.8,49.4z M59,48.8l-0.2-0.1c-0.1,0-0.1-0.1-0.2-0.1l0.2-0.3
			c0.1,0,0.1,0.1,0.2,0.1l0.2,0.1L59,48.8z M58.2,48.3c-0.1-0.1-0.3-0.2-0.4-0.3l0.2-0.3c0.1,0.1,0.3,0.2,0.4,0.3L58.2,48.3z
			 M57.4,47.6c-0.1-0.1-0.2-0.2-0.4-0.3l0.2-0.2c0.1,0.1,0.2,0.2,0.4,0.3L57.4,47.6z M56.7,47c-0.1-0.1-0.2-0.2-0.3-0.4l0.2-0.2
			c0.1,0.1,0.2,0.2,0.3,0.3L56.7,47z M56,46.3c-0.1-0.1-0.2-0.2-0.3-0.4l0.2-0.2c0.1,0.1,0.2,0.2,0.3,0.4L56,46.3z M55.4,45.5
			c-0.1-0.1-0.2-0.2-0.3-0.4l0.2-0.2c0.1,0.1,0.2,0.2,0.3,0.4L55.4,45.5z M54.7,44.8c-0.1-0.1-0.2-0.3-0.3-0.4l0.3-0.2
			c0.1,0.1,0.2,0.3,0.3,0.4L54.7,44.8z M54.1,44c-0.1-0.1-0.2-0.3-0.3-0.4l0.3-0.2c0.1,0.1,0.2,0.3,0.3,0.4L54.1,44z M53.5,43.2
			c-0.1-0.1-0.2-0.3-0.3-0.4l0.3-0.2c0.1,0.1,0.2,0.3,0.3,0.4L53.5,43.2z M52.9,42.4c-0.2-0.3-0.3-0.4-0.3-0.4l0.3-0.2
			c0,0,0.1,0.1,0.3,0.4L52.9,42.4z"/>
	</g>
	<g id="XMLID_2_">
		<path id="XMLID_3_" class="st0" d="M67.5,55L67.5,55v-0.2l0,0V55z M67,54.7c-0.1-0.1-0.3-0.2-0.4-0.2l0.1-0.1
			C66.9,54.5,67,54.6,67,54.7L67,54.7z M66.1,54.2c-0.1-0.1-0.3-0.2-0.4-0.3l0.1-0.1C65.9,53.9,66.1,54,66.1,54.2L66.1,54.2z
			 M65.3,53.7c-0.1-0.1-0.3-0.2-0.4-0.3l0.1-0.1C65.1,53.4,65.3,53.5,65.3,53.7L65.3,53.7z M64.5,53.2l-0.4-0.3l0.1-0.1L64.5,53.2
			L64.5,53.2z M63.7,52.6l-0.4-0.3l0.1-0.1L63.7,52.6L63.7,52.6z M62.9,52.1l-0.4-0.3l0.1-0.1L62.9,52.1L62.9,52.1z M62,51.5
			l-0.4-0.3l0.1-0.1L62,51.5L62,51.5z M61.2,51l-0.4-0.3l0.1-0.1L61.2,51L61.2,51z M60.4,50.4L60,50.1l0.1-0.1L60.4,50.4L60.4,50.4z
			 M59.6,49.9c-0.1-0.1-0.3-0.2-0.4-0.3l0.1-0.1C59.4,49.6,59.6,49.7,59.6,49.9L59.6,49.9z M58.8,49.3l-0.2-0.1
			c-0.1,0-0.1-0.1-0.2-0.1l0.1-0.1c0.1,0,0.1,0.1,0.2,0.1L58.8,49.3L58.8,49.3z M57.9,48.8c-0.1-0.1-0.3-0.2-0.4-0.3l0.1-0.1
			C57.7,48.5,57.9,48.6,57.9,48.8L57.9,48.8z M57.2,48.1c-0.1-0.1-0.2-0.2-0.4-0.3l0.1-0.1C57,47.8,57.1,47.9,57.2,48.1L57.2,48.1z
			 M56.5,47.5c-0.1-0.1-0.2-0.2-0.3-0.4l0.1-0.1c0.1,0.1,0.2,0.2,0.3,0.3L56.5,47.5z M55.8,46.7c-0.1-0.1-0.2-0.2-0.3-0.4l0.1-0.1
			C55.7,46.3,55.8,46.4,55.8,46.7L55.8,46.7z M55.1,46c-0.1-0.1-0.2-0.2-0.3-0.4l0.1-0.1C55,45.6,55.1,45.7,55.1,46L55.1,46z
			 M54.5,45.3c-0.1-0.1-0.2-0.3-0.3-0.4l0.1-0.1C54.4,44.9,54.5,45.1,54.5,45.3L54.5,45.3z M53.9,44.5c-0.1-0.1-0.2-0.3-0.3-0.4
			l0.1-0.1C53.8,44.1,53.9,44.3,53.9,44.5L53.9,44.5z M53.3,43.7c-0.1-0.1-0.2-0.3-0.3-0.4l0.1-0.1C53.2,43.3,53.3,43.5,53.3,43.7
			L53.3,43.7z M52.7,42.9c-0.2-0.3-0.3-0.4-0.3-0.4l0.1-0.1C52.5,42.4,52.6,42.5,52.7,42.9L52.7,42.9z"/>
	</g>
</g>
<g class="st1">
	<path d="M37.7,101.4v-7.8h1.4v3.2h2.7v-3.2h1.4v7.8h-1.4v-3.5h-2.7v3.5H37.7z"/>
	<path d="M45.1,101.4v-1.2H47v-5.5h-1.9v-1.2h5.2v1.2h-1.9v5.5h1.9v1.2H45.1z"/>
	<path d="M52.2,101.4v-7.8h1.4v3.6h0l2.8-3.6H58l-2.4,3l2.7,4.8h-1.5l-2-3.7l-1.1,1.4v2.3H52.2z"/>
	<path d="M59.7,101.4v-7.8h5v1.2h-3.6v2h3.1v1.2h-3.1v2.3h3.8v1.2H59.7z"/>
	<path d="M66.7,101.4v-7.8h2.6c0.4,0,0.8,0,1.1,0.1c0.4,0.1,0.7,0.2,0.9,0.4c0.3,0.2,0.5,0.4,0.6,0.7c0.1,0.3,0.2,0.7,0.2,1.1
		c0,0.6-0.1,1.1-0.4,1.5c-0.3,0.4-0.7,0.6-1.1,0.8l1.9,3.3h-1.6l-1.7-3.1h-1.2v3.1H66.7z M68.1,97.2h1.1c0.5,0,1-0.1,1.2-0.3
		c0.3-0.2,0.4-0.6,0.4-1c0-0.5-0.1-0.8-0.4-0.9c-0.3-0.2-0.7-0.3-1.2-0.3h-1.1V97.2z"/>
	<path d="M76.5,101.5c-0.6,0-1.1-0.1-1.6-0.3c-0.5-0.2-1-0.5-1.3-0.9l0.8-0.9c0.3,0.3,0.6,0.5,1,0.6c0.4,0.2,0.8,0.2,1.2,0.2
		c0.5,0,0.8-0.1,1-0.3c0.2-0.2,0.4-0.4,0.4-0.7c0-0.2,0-0.3-0.1-0.4c-0.1-0.1-0.2-0.2-0.3-0.3s-0.3-0.2-0.4-0.2
		c-0.2-0.1-0.3-0.1-0.5-0.2l-1.1-0.5c-0.2-0.1-0.4-0.2-0.6-0.3c-0.2-0.1-0.4-0.3-0.5-0.4c-0.2-0.2-0.3-0.4-0.4-0.6
		c-0.1-0.2-0.1-0.5-0.1-0.8c0-0.3,0.1-0.6,0.2-0.9c0.1-0.3,0.3-0.5,0.6-0.7c0.2-0.2,0.5-0.4,0.9-0.5c0.3-0.1,0.7-0.2,1.1-0.2
		c0.5,0,0.9,0.1,1.4,0.3c0.4,0.2,0.8,0.4,1.1,0.7l-0.7,0.9c-0.3-0.2-0.5-0.4-0.8-0.5c-0.3-0.1-0.6-0.2-1-0.2c-0.4,0-0.7,0.1-0.9,0.2
		s-0.3,0.4-0.3,0.7c0,0.2,0,0.3,0.1,0.4c0.1,0.1,0.2,0.2,0.3,0.3c0.1,0.1,0.3,0.2,0.4,0.2c0.2,0.1,0.3,0.1,0.5,0.2l1,0.4
		c0.2,0.1,0.5,0.2,0.7,0.3s0.4,0.3,0.5,0.4s0.3,0.4,0.4,0.6c0.1,0.2,0.1,0.5,0.1,0.8c0,0.3-0.1,0.6-0.2,0.9
		c-0.1,0.3-0.3,0.5-0.6,0.7s-0.6,0.4-0.9,0.5C77.3,101.5,76.9,101.5,76.5,101.5z"/>
</g>
</svg>
