<?xml version="1.0" encoding="utf-8"?>
<!-- Generator: Adobe Illustrator 24.3.0, SVG Export Plug-In . SVG Version: 6.00 Build 0)  -->
<svg version="1.1" id="Layer_1" xmlns="http://www.w3.org/2000/svg" xmlns:xlink="http://www.w3.org/1999/xlink" x="0px" y="0px"
	 viewBox="0 0 120 126" style="enable-background:new 0 0 120 126;" xml:space="preserve">
<style type="text/css">
	.st0{enable-background:new    ;}
</style>
<g id="Layer_2_2_">
	<g id="Layer_4_1_">
		<g id="expanded_1_">
			<path d="M66.1,48C66.1,48,66.1,48,66.1,48c0.1-0.1,0.1,0,0.1,0c0,0,0,0,0,0l-0.1,0.3L66.1,48z M66.2,47.9l0.1-0.3
				c0,0,0-0.1-0.1-0.1s-0.1,0-0.1,0.1c0,0,0,0,0,0L66.2,47.9z M66.2,48.7l0.1-0.3c0,0,0-0.1-0.1-0.1s-0.1,0-0.1,0.1c0,0,0,0,0,0
				L66.2,48.7z M66.2,47.9L66.2,47.9L66.2,47.9z M66.1,49.2L66.1,49.2L66.1,49.2z M66.2,49.2l0.1-0.3c0,0,0-0.1-0.1-0.1
				s-0.1,0-0.1,0.1c0,0,0,0,0,0L66.2,49.2z M66.2,49.2L66.2,49.2L66.2,49.2z M66.2,57.4l0.1,0.3l0.1-0.3
				C66.3,57.4,66.3,57.3,66.2,57.4L66.2,57.4C66.3,57.3,66.2,57.4,66.2,57.4C66.2,57.4,66.2,57.4,66.2,57.4L66.2,57.4z M66.3,59.4
				C66.2,59.4,66.2,59.4,66.3,59.4L66.3,59.4l0,0.3L66.3,59.4C66.4,59.4,66.3,59.4,66.3,59.4L66.3,59.4L66.3,59.4z M66.3,59
				C66.2,59,66.2,59,66.3,59L66.3,59v0.3V59C66.4,59,66.3,59,66.3,59C66.3,59,66.3,59,66.3,59L66.3,59z M66.2,45.5
				C66.2,45.5,66.2,45.4,66.2,45.5c-0.1-0.1-0.1-0.1-0.1,0c0,0,0,0,0,0l0.1,0.3L66.2,45.5z M66.2,49.2
				C66.1,49.2,66.1,49.3,66.2,49.2L66.2,49.2l0,0.3L66.2,49.2C66.2,49.3,66.2,49.2,66.2,49.2L66.2,49.2L66.2,49.2z M66.2,47.9
				L66.2,47.9L66.2,47.9z M66.2,51.4C66.2,51.4,66.2,51.4,66.2,51.4L66.2,51.4v0.3V51.4C66.3,51.4,66.3,51.4,66.2,51.4L66.2,51.4
				L66.2,51.4z M66.1,45.4L66.1,45.4L66.1,45.4z M66.2,45.1C66.2,45.1,66.1,45,66.2,45.1L66.2,45.1c-0.1-0.1-0.1,0-0.1,0l0,0
				l0.1,0.3L66.2,45.1z M66.2,49.7V50l0.1-0.3C66.3,49.7,66.3,49.7,66.2,49.7L66.2,49.7C66.2,49.7,66.2,49.7,66.2,49.7
				C66.2,49.7,66.2,49.7,66.2,49.7L66.2,49.7z M66.1,46.8l0.1,0.3l0.1-0.3C66.2,46.7,66.2,46.7,66.1,46.8
				C66.1,46.7,66.1,46.7,66.1,46.8C66.1,46.8,66.1,46.8,66.1,46.8z M66.1,45.3L66.1,45.3L66.1,45.3z M66.2,50.1
				C66.2,50.1,66.2,50.1,66.2,50.1L66.2,50.1l-0.1,0.3L66.2,50.1C66.3,50.2,66.3,50.1,66.2,50.1L66.2,50.1L66.2,50.1z M66.2,52.2
				C66.2,52.2,66.2,52.2,66.2,52.2L66.2,52.2v0.3V52.2C66.3,52.2,66.3,52.2,66.2,52.2C66.2,52.2,66.2,52.2,66.2,52.2z M66.1,45.4
				L66.1,45.4L66.1,45.4z M66.1,45.3L66.1,45.3L66.1,45.3z M66.2,51.7L66.2,51.7L66.2,51.7z M66.2,51.7L66.2,51.7L66.2,51.7z
				 M66.2,51.8C66.2,51.8,66.2,51.8,66.2,51.8L66.2,51.8c-0.1,0.2-0.1,0.3,0,0.3C66.3,52,66.3,52,66.2,51.8
				C66.3,51.8,66.3,51.8,66.2,51.8L66.2,51.8z M66.2,50.5C66.2,50.5,66.2,50.5,66.2,50.5L66.2,50.5v0.3V50.5
				C66.3,50.5,66.3,50.5,66.2,50.5L66.2,50.5z M66.2,50.9C66.2,50.9,66.2,50.9,66.2,50.9L66.2,50.9v0.3V50.9
				C66.3,50.9,66.3,50.9,66.2,50.9L66.2,50.9z M66.3,58.6C66.2,58.6,66.2,58.6,66.3,58.6L66.3,58.6v0.3V58.6
				C66.3,58.6,66.3,58.6,66.3,58.6L66.3,58.6z M66.2,47.1C66.1,47.1,66.1,47.1,66.2,47.1L66.2,47.1l0,0.3L66.2,47.1
				C66.2,47.1,66.2,47.1,66.2,47.1C66.2,47.1,66.2,47.1,66.2,47.1L66.2,47.1z M66.2,64.1C66.2,64.1,66.1,64.1,66.2,64.1L66.2,64.1
				c-0.1-0.1-0.1,0-0.1,0l0,0l0.1,0.3L66.2,64.1z M66,66.6C66,66.6,66,66.6,66,66.6L66,66.6v0.3V66.6C66.1,66.6,66.1,66.6,66,66.6
				C66,66.6,66,66.6,66,66.6L66,66.6z M66,67.1C66,67,66,67,66,67.1c-0.1-0.1-0.1-0.1-0.1,0c0,0,0,0,0,0l0,0.1h-0.2
				c0,0.1,0,0.1,0,0.1h0.2l0,0.1l0-0.1h0c0,0,0.1,0,0-0.1l0,0L66,67.1L66,67.1z M66.1,64L66.1,64L66.1,64z M66,66.5L66,66.5L66,66.5
				z M66.2,62.9C66.2,62.8,66.2,62.8,66.2,62.9c-0.1-0.1-0.1,0-0.1,0c0,0,0,0,0,0l0.1,0.3L66.2,62.9z M66.3,58.1
				C66.2,58.1,66.2,58.1,66.3,58.1L66.3,58.1v0.3V58.1C66.3,58.2,66.3,58.1,66.3,58.1C66.3,58.1,66.3,58.1,66.3,58.1L66.3,58.1z
				 M66.2,63.7C66.2,63.7,66.2,63.7,66.2,63.7c-0.1-0.1-0.1-0.1-0.1,0c0,0,0,0,0,0l0.1,0.3L66.2,63.7z M66,65.3
				C66,65.3,66,65.4,66,65.3L66,65.3v0.3V65.3C66.1,65.4,66.1,65.3,66,65.3C66,65.3,66,65.3,66,65.3L66,65.3z M66,64.9
				C66,64.9,66,65,66,64.9L66,64.9v0.3V64.9C66.1,65,66.1,64.9,66,64.9L66,64.9z M66.1,64.5C66.1,64.5,66,64.5,66.1,64.5L66.1,64.5
				l0,0.3L66.1,64.5C66.2,64.5,66.1,64.5,66.1,64.5L66.1,64.5z M66.1,66.5L66.1,66.5L66.1,66.5z M66,66.2C66,66.2,66,66.2,66,66.2
				L66,66.2v0.3V66.2C66.1,66.2,66.1,66.2,66,66.2C66,66.2,66,66.2,66,66.2L66,66.2z M66,65.8C66,65.8,66,65.8,66,65.8L66,65.8v0.3
				V65.8C66.1,65.8,66.1,65.7,66,65.8C66,65.7,66,65.7,66,65.8L66,65.8z M66.2,63.3C66.2,63.2,66.1,63.2,66.2,63.3
				c-0.1-0.1-0.1-0.1-0.1,0c0,0,0,0,0,0l0.1,0.3L66.2,63.3z M66.3,56.5C66.3,56.5,66.2,56.5,66.3,56.5L66.3,56.5
				c-0.1-0.1-0.1,0-0.1,0l0,0l0.1,0.3L66.3,56.5z M66.3,56.9C66.3,56.9,66.2,56.9,66.3,56.9L66.3,56.9c-0.1-0.1-0.1,0-0.1,0l0,0
				l0.1,0.3L66.3,56.9z M66.3,60L66.3,60c0-0.1,0-0.2-0.1-0.2l0,0c0,0-0.1,0-0.1,0.1l0,0V60c0,0.1,0,0.1,0.1,0.2
				C66.2,60.1,66.3,60.1,66.3,60L66.3,60z M66.3,57.7C66.2,57.7,66.2,57.8,66.3,57.7L66.3,57.7v0.3V57.7
				C66.3,57.8,66.3,57.7,66.3,57.7L66.3,57.7L66.3,57.7z M66.3,55.7C66.3,55.6,66.3,55.6,66.3,55.7c-0.1-0.1-0.1,0-0.1,0l0,0
				l0.1,0.3L66.3,55.7z M66.3,56.1C66.3,56.1,66.3,56.1,66.3,56.1L66.3,56.1c-0.1-0.1-0.1,0-0.1,0l0,0l0.1,0.3L66.3,56.1z M66.2,62
				C66.2,62,66.2,61.9,66.2,62c-0.1-0.1-0.1,0-0.1,0c0,0,0,0,0,0l0.1,0.3L66.2,62z M66.2,62.5C66.2,62.4,66.2,62.4,66.2,62.5
				c-0.1-0.1-0.1,0-0.1,0c0,0,0,0,0,0l0.1,0.3L66.2,62.5z M66.2,62.7L66.2,62.7L66.2,62.7z M66.3,60.3
				C66.3,60.3,66.3,60.3,66.3,60.3L66.3,60.3c-0.1-0.1-0.1,0-0.1,0l0,0l0.1,0.3L66.3,60.3z M66.2,62.7L66.2,62.7L66.2,62.7z
				 M66.2,61.5C66.2,61.5,66.2,61.6,66.2,61.5L66.2,61.5l-0.1,0.3L66.2,61.5C66.3,61.6,66.3,61.5,66.2,61.5L66.2,61.5L66.2,61.5z
				 M66.3,60.7C66.3,60.7,66.3,60.7,66.3,60.7L66.3,60.7c-0.1-0.1-0.1,0-0.1,0l0,0l0.1,0.3L66.3,60.7z M66.3,61.2
				C66.3,61.2,66.3,61.1,66.3,61.2L66.3,61.2c-0.1-0.1-0.1,0-0.1,0l0,0l0.1,0.3L66.3,61.2z M66.1,64L66.1,64L66.1,64z M66,31.9
				C65.9,31.9,65.9,31.9,66,31.9L66,31.9l0,0.3L66,31.9C66,31.9,66,31.9,66,31.9L66,31.9z M66,30.2C65.9,30.2,65.9,30.2,66,30.2
				L66,30.2v0.3V30.2C66,30.2,66,30.2,66,30.2L66,30.2L66,30.2z M66,32.2L66,32.2L66,32.2z M66,31C65.9,31,65.9,31.1,66,31L66,31
				v0.3V31C66,31.1,66,31,66,31L66,31L66,31z M66,31.4C65.9,31.4,65.9,31.5,66,31.4L66,31.4l0,0.3L66,31.4C66,31.5,66,31.4,66,31.4
				L66,31.4L66,31.4z M66,32.2L66,32.2L66,32.2z M66,37.9C66,37.9,66,37.8,66,37.9c-0.1-0.1-0.1,0-0.1,0c0,0,0,0,0,0l0.1,0.3
				L66,37.9z M66,37C66,37,66,37,66,37c-0.1-0.1-0.1,0-0.1,0c0,0,0,0,0,0l0.1,0.3L66,37z M66,37.4C66,37.4,66,37.4,66,37.4
				c-0.1-0.1-0.1,0-0.1,0c0,0,0,0,0,0l0.1,0.3L66,37.4z M66,38.7C66,38.6,66,38.6,66,38.7c-0.1-0.1-0.1,0-0.1,0l0,0l0.1,0.3L66,38.7
				z M66,38.3C66,38.3,66,38.2,66,38.3c-0.1-0.1-0.1,0-0.1,0c0,0,0,0,0,0l0.1,0.3L66,38.3z M66,30.6C65.9,30.6,65.9,30.7,66,30.6
				L66,30.6V31V30.6C66,30.6,66,30.6,66,30.6L66,30.6L66,30.6z M66,26.4C66,26.4,66,26.4,66,26.4c-0.1-0.1-0.1,0-0.1,0c0,0,0,0,0,0
				l0.1,0.3L66,26.4z M66,28.5C66,28.5,66,28.5,66,28.5c-0.1-0.1-0.1,0-0.1,0c0,0,0,0,0,0l0.1,0.3L66,28.5z M66,28.1
				C66,28.1,66,28.1,66,28.1c-0.1-0.1-0.1,0-0.1,0c0,0,0,0,0,0l0.1,0.3L66,28.1z M66,29.8C66,29.8,65.9,29.8,66,29.8L66,29.8
				c-0.1-0.1-0.1,0-0.1,0l0,0l0.1,0.3L66,29.8z M66,29C66,28.9,65.9,28.9,66,29L66,29c-0.1-0.1-0.1,0-0.1,0l0,0l0.1,0.3L66,29z
				 M66,27.1L66,27.1L66,27.1z M66,27.7C66,27.6,66,27.6,66,27.7c-0.1-0.1-0.1,0-0.1,0l0,0L66,28L66,27.7z M66,26.9
				C66.1,26.8,66,26.8,66,26.9c-0.1-0.1-0.1,0-0.1,0c0,0,0,0,0,0l0.1,0.3L66,26.9z M66,27.1L66,27.1L66,27.1z M66,27.3
				C66.1,27.2,66,27.2,66,27.3c-0.1-0.1-0.1,0-0.1,0c0,0,0,0,0,0l0.1,0.3L66,27.3z M66,29.5L66,29.5c0-0.1,0-0.1-0.1-0.1l0,0
				c0,0-0.1,0-0.1,0.1l0,0v0.1c0,0.1,0,0.1,0.1,0.2C65.9,29.6,66,29.6,66,29.5L66,29.5z M66,36.6C66.1,36.6,66,36.6,66,36.6
				c-0.1-0.1-0.1,0-0.1,0c0,0,0,0,0,0l0.1,0.3L66,36.6z M66,39.5C66,39.5,66,39.5,66,39.5L66,39.5L66,39.6c0,0.1,0,0.1,0.1,0.2
				c0-0.1,0-0.2,0.1-0.2L66,39.5C66.1,39.5,66.1,39.5,66,39.5L66,39.5L66,39.5z M66,39.9C66,39.9,66,39.9,66,39.9L66,39.9v0.3V39.9
				C66.1,39.9,66.1,39.9,66,39.9L66,39.9L66,39.9z M66,40.4C66,40.4,66,40.4,66,40.4L66,40.4v0.3V40.4C66.1,40.4,66.1,40.4,66,40.4
				L66,40.4L66,40.4z M66,35.4C66.1,35.3,66,35.3,66,35.4c-0.1-0.1-0.1,0-0.1,0c0,0,0,0,0,0l0.1,0.3L66,35.4z M66,35.6L66,35.6
				L66,35.6z M66,36.2C66.1,36.1,66,36.1,66,36.2c-0.1-0.1-0.1,0-0.1,0c0,0,0,0,0,0l0.1,0.3L66,36.2z M66,35.8
				C66.1,35.7,66,35.7,66,35.8c-0.1-0.1-0.1,0-0.1,0c0,0,0,0,0,0l0.1,0.3L66,35.8z M65.9,35.6L65.9,35.6L65.9,35.6z M66,39.2
				l0.1,0.3l0.1-0.3C66.1,39.1,66.1,39.1,66,39.2L66,39.2C66,39.1,66,39.1,66,39.2C66,39.2,66,39.2,66,39.2L66,39.2z M66,42
				C66,42,66,42.1,66,42L66,42v0.3V42C66.1,42.1,66.1,42,66,42C66,42,66,42,66,42L66,42z M66,42L66,42L66,42z M66.2,46.4
				C66.2,46.4,66.2,46.3,66.2,46.4c-0.1-0.1-0.1-0.1-0.1,0c0,0,0,0,0,0l0.1,0.3L66.2,46.4z M66.2,45.9
				C66.2,45.9,66.2,45.8,66.2,45.9c-0.1-0.1-0.1-0.1-0.1,0c0,0,0,0,0,0l0.1,0.3L66.2,45.9z M66,40.8C66,40.8,66,40.8,66,40.8
				L66,40.8v0.3V40.8C66.1,40.8,66.1,40.8,66,40.8C66,40.8,66,40.8,66,40.8L66,40.8z M66.1,40.7L66.1,40.7L66.1,40.7z M66,41.2
				C66,41.2,66,41.2,66,41.2L66,41.2v0.3V41.2C66.1,41.2,66.1,41.2,66,41.2C66,41.2,66,41.2,66,41.2L66,41.2z M66.1,40.7L66.1,40.7
				L66.1,40.7z M66,41.7C66,41.7,66,41.7,66,41.7L66,41.7V42V41.7C66.1,41.7,66.1,41.7,66,41.7C66,41.6,66,41.6,66,41.7L66,41.7z
				 M65.9,36.9L65.9,36.9L65.9,36.9z M66,42L66,42L66,42z M66,36.9L66,36.9L66,36.9z M82.4,77.6C82.4,77.6,82.4,77.6,82.4,77.6
				L82.4,77.6c0,0.1,0,0.1,0,0.1c0,0.1-0.1,0.1-0.1,0.1l0,0c0,0,0,0,0,0c-0.1,0-0.1,0.1-0.2,0.1l0,0c0,0,0,0,0,0l0,0
				c-0.1,0-0.1,0-0.2-0.1l0,0c-0.1-0.1-0.3-0.2-0.4-0.4c-1.9-1.6-4.6-1.5-7-1.4l-0.2,0h0c0,0-0.1,0-0.1,0l0,0c0,0-0.1,0-0.1-0.1l0,0
				c0,0,0,0,0,0l0,0c-0.1-0.1-0.1-0.2-0.1-0.3l0,0c0,0,0-0.1,0-0.1c0-0.1,0.1-0.2,0.1-0.2c0.2-0.7,0.4-1.4,0.6-2.1
				c0.2-0.8,0.4-1.5,0.6-2.3c-0.1-0.1-0.1-0.1-0.2-0.2c-0.1-0.1-0.2-0.3-0.6-0.3c-0.2-0.1-0.4-0.1-0.6-0.1c-0.4,0-0.7,0-1.1-0.1
				c-1.4-0.2-5.5-0.5-7.8-0.7c-2.4-0.2-15,0.4-16.7,0.7c-1,0.1-1.4,0.4-1.6,0.5l0,0c0,0,0,0.1,0,0.1c0.5,2.3,1,4.4,0.7,6.8
				c0,0.2-0.2,0.3-0.3,0.3c0,0-0.1,0-0.1-0.1c-0.8-0.6-2-1.1-5.2-0.4c-0.2,0.1-0.5,0.1-0.7,0.1c-1,0.2-2,0.4-2.9,0.9
				c0,0-0.1,0-0.2,0c-0.2,0-0.3-0.1-0.3-0.3c0,0,0,0,0,0c0.1-2.3,0.1-4.6,0.1-6.8c0-1.8,0-3.6,0.1-5.3c0-1.3,0.1-2.6,0.1-3.8
				c0.1-2.5,0.2-5.2,0.4-7.7c0.3-5.5,1-10.9,1.6-16.2c0.3-2.8,0.7-5.7,0.9-8.6c0,0,0,0,0,0c0.1-0.3,0.2-0.6,0.2-0.9s0.2-0.6,0.2-0.9
				c0,0,0,0,0-0.1c0.6-1.1,1.2-2.1,2-3.1l0,0c0.7-0.7,1.6-1,2.4-1.3c0.5-0.2,1-0.4,1.5-0.6c-0.1-0.3-0.1-0.5,0-0.5l0,0
				c-0.1-0.1-0.1-0.2-0.2-0.3c0,0,0,0,0-0.1l0-0.2c-0.3-1.6-0.8-3.8,0.8-4.9l0,0c0.1-0.1,0.2-0.1,0.3-0.1c2.2-1.3,4.6-1.6,6.9-1.6
				c0-0.1,0-0.2,0-0.3c0-0.2,0.1-0.4,0.3-0.5c0,0,0-0.1,0.1-0.1c0.7-0.5,1.2-0.4,1.4-0.4l0.1,0c2.1-0.1,3.8,0,5.7,0.1
				c0.5,0,1,0,1.5,0.1c0.7,0,1.5,0.1,2.2,0.4c0.1,0,0.2,0.1,0.2,0.3c0,0,0.1,0,0.1,0c0.2,0,0.3,0.2,0.4,1c0.1,0,0.1,0,0.2,0
				c1.2,0.2,2.3,0.5,3.5,0.8c0.2,0,0.3,0.1,0.5,0.1c0.8,0.2,1.8,0.5,2.5,1.1c0.2,0.1,0.3,0.3,0.4,0.4c0,0,0,0,0,0
				c0.1,0.1,0.1,0.1,0.1,0.2c0.8,1.5-0.1,4-0.5,4.8l0.1,0c1.3,0.5,2.6,1.1,3.6,2.2c1.1,1.2,1.5,2.7,1.9,4.1c0.1,0.2,0.1,0.5,0.2,0.7
				c0,0,0,0,0,0c0.4,2.2,0.8,4.5,1,6.7c0.2,1.1,0.3,2.2,0.5,3.3c0,0,0,0,0,0c0,0.2,0.1,0.8,0.2,1.4c0.1,0.6,0.2,1.2,0.2,1.5
				c0.3,3.5,0.5,7.2,0.7,10.7l0,0.5c0.2,3.9,0.2,7.9,0.2,11.7C82.2,69.7,82.2,73.7,82.4,77.6z M81.8,72.9L81.8,72.9L81.8,72.9z
				 M79.5,34.4c-0.2,0-0.3,0.1-0.5,0.2l0.2-0.1L79.5,34.4L79.5,34.4z M78.7,33.9C78.7,33.9,78.7,33.9,78.7,33.9L78.7,33.9
				c0.2,0,0.4,0,0.6,0l0-0.5c0,0,0-0.1-0.1-0.1l0,0l0,0L79,33.4l-0.1,0l0-0.1l-0.1,0c0,0,0,0,0.1-0.1c0,0-0.1-0.1-0.1-0.1l-0.1,0.2
				l-0.1,0C78.6,33.5,78.7,33.7,78.7,33.9L78.7,33.9z M78.7,33.1l0,0.2C78.8,33.3,78.8,33.2,78.7,33.1
				C78.8,33.1,78.8,33.1,78.7,33.1L78.7,33.1z M78.9,33L78.9,33l-0.1-0.2L78.9,33z M79,32.9l0,0.2l0.1,0c0,0,0,0,0,0l0.1,0l0.1-0.1
				l-0.1-0.1L79,32.9z M79.1,32.5L79,32.3c0.1,0.1,0.1,0.2,0.1,0.3L79.1,32.5z M79.2,33.1L79.2,33.1C79.3,33.2,79.3,33.2,79.2,33.1
				L79.2,33.1z M79.2,32.4C79.2,32.4,79.1,32.3,79.2,32.4L79.2,32.4L79.2,32.4z M79.7,33.3L79.7,33.3L79.7,33.3z M79,31.6
				c-0.5,0.3-0.8,0.8-0.7,1.4c0,0.5,0.1,1.4,0.2,1.6c0.1,0.1,0.1,0.2,0.1,0.2c0.1,0.2,0.2,0.4,0.4,0.4c0.1,0,0.2,0,0.5-0.2
				c0-0.1,0-0.3-0.1-0.4c-0.1,0.1-0.2,0.2-0.4,0.1c-0.1,0-0.2-0.1-0.1-0.2l0,0l-0.1-0.1c0.1-0.2,0.3-0.3,0.5-0.3c0,0,0,0,0-0.1
				c-0.1,0-0.3,0.1-0.4,0.2l-0.2,0.2c-0.1-0.2-0.2-0.4-0.2-0.8c0-0.3,0-0.7,0-1l0.2,0l-0.1-0.3l0-0.1c0.1,0.2,0.2,0.4,0.2,0.4l0.1,0
				l-0.2-0.5c0-0.1,0.1-0.1,0.1-0.2l0.1,0.2l0-0.2h0L79,31.6z M73.7,20.2c0-0.2,0-0.4,0.1-0.5c-0.2,0.5-0.5,0.9-0.8,1.4l-0.1,0.1
				c-0.4,0.6-0.9,1.1-3.1,1.4c-1.8,0.3-2.4,0.5-2.6,0.6c0.1,0,0.1,0.1,0.2,0.2c0.3-0.1,0.7-0.2,1.5-0.3c0.6-0.1,1-0.2,1.4-0.2
				c0.8-0.2,1.4-0.3,1.9,0.1c0.3,0.2,0.5,0.2,0.5,0.2c0,0,0.1-0.1,0.2-0.2C73,22.5,73.6,21.4,73.7,20.2z M67.4,67.1L67.4,67.1
				L67.4,67.1z M66.8,43.8c0-0.5-0.4-0.9-0.9-0.9S65,43.3,65,43.8c0,0.5,0.4,0.9,0.9,0.9C66.4,44.7,66.8,44.3,66.8,43.8L66.8,43.8
				L66.8,43.8z M66.1,34.5c0.4,0,0.8-0.4,0.8-0.8c0-0.5-0.4-0.8-0.8-0.8s-0.8,0.4-0.8,0.8l0,0C65.2,34.1,65.6,34.5,66.1,34.5
				L66.1,34.5z M62.6,23.1c1.1-0.1,2.9-0.2,3.6-0.3c0,0,0-0.1,0-0.1c0-0.8,0-2.2,0-2.4c-0.1-0.4,0.1-2.3,0.2-2.9
				c0.1-0.4,0-1.4-0.1-2c-0.4,0.3-0.8,0.6-1.2,0.9c-0.8,0.5-1.8,1.1-2.3,1.3c-0.4,0.1-0.5,0.3-0.6,0.4s0,0.2,0.1,0.4
				c0.2,0.4,0.8,3.2,0.9,3.5c0,0.1,0,0.2,0,0.2c0,0.1-0.1,0.1-0.2,0.1c-0.3,0.1-0.6,0.2-0.6,0.3c0,0.1,0.1,0.4,0.2,0.6c0,0,0,0,0,0
				L62.6,23.1z M66.8,22.7c0.3-0.2,1-0.5,2.9-0.8c1-0.1,1.6-0.3,2-0.5c-0.2-0.1-0.7-0.2-1.1-0.3c-0.4-0.1-0.9-0.2-1.4-0.4
				c-0.4-0.1-0.9-0.2-1.4-0.3c-0.3,0-0.7-0.1-1-0.2C66.8,20.7,66.8,22.4,66.8,22.7z M67,15.9L67,15.9c0,0.5,0,1,0,1.5
				c-0.1,0.6-0.2,1.8-0.2,2.4l0.1-0.2c0.2,0.1,0.6,0.1,1,0.2c0.5,0.1,1,0.2,1.4,0.3c0.5,0.1,0.9,0.2,1.3,0.4
				c0.7,0.2,1.2,0.3,1.5,0.5c0.1-0.1,0.1-0.1,0.2-0.2l0.1-0.1c1.1-1.5,1.2-2.1,1.1-2.4c-0.1-0.2-0.2-0.3-0.4-0.5
				c-0.6-0.5-1.4-0.7-2.3-1c-0.2,0-0.3-0.1-0.5-0.1C69.3,16.4,68.1,16.1,67,15.9z M56.5,14.2c0,0,0,0.1,0,0.1c0,0.1,0,0.1,0,0.2
				c0.1,0.2,0.3,0.4,0.5,0.6c0.1,0.1,0.3,0.3,0.5,0.5c1,1,1.8,1.8,2,2.3c0.2,0.6,0.1,1.4-0.2,2.4c-0.2,0.8-0.4,1.8-0.1,2.2
				c0.1,0.2,0.2,0.4,0.3,0.6c0,0,0.1,0,0.2,0c0,0,1.1,0.1,2.2,0.1c-0.1-0.2-0.2-0.5-0.1-0.8c0.1-0.3,0.5-0.5,0.8-0.6
				c-0.3-1.2-0.7-2.8-0.8-3.1c-0.1-0.3-0.2-0.6,0-0.9c0.1-0.3,0.5-0.5,1-0.7c0.9-0.3,3-1.8,3.6-2.3c0,0-0.1,0-0.1,0
				c-0.6-0.2-1.2-0.3-2-0.3c-0.5,0-1,0-1.5-0.1c-1.9-0.1-3.6-0.1-5.7-0.1c0,0-0.1,0-0.1,0C56.6,14.2,56.6,14.2,56.5,14.2z
				 M54.7,21.7c0-0.4,0.1-0.9,0.2-1.4c0-0.2,0-0.4,0-0.5c-0.4,0.1-0.9,0.2-1.2,0.3c-0.6,0.2-1.2,0.3-1.8,0.3
				c0.8,0.6,1.4,1.3,1.9,1.8l0.1,0.1c0.2,0.2,0.4,0.5,0.5,0.7l0.1-0.1C54.5,22.6,54.6,22.2,54.7,21.7L54.7,21.7z M55.5,21.4
				c0.2,0.2,0.9,0.5,1.3,0.7c0.7,0.3,1.2,0.5,1.5,0.8c0.2,0.3,0.4,0.5,0.7,0.6c0-0.1,0-0.3-0.3-0.8c-0.5-0.7-0.2-2.1,0-2.8
				c0.3-0.9,0.4-1.6,0.2-2c-0.1-0.4-1.3-1.5-1.8-2c-0.2-0.2-0.4-0.4-0.5-0.5c-0.5-0.6-0.6-0.8-0.7-1c-0.1,0-0.1,0-0.2,0
				c0,0,0,0-0.1,0.1C55.6,15.2,55.5,19.3,55.5,21.4L55.5,21.4z M55,15.6c-2.3,0-4.6,0.3-6.7,1.5l0,0c-0.2,0.5-0.1,1,0.3,1.5
				c0.6,0.8,1.7,1,1.7,1l0,0c0.1,0,0.2,0.1,0.4,0.1c0.6,0.1,1.5,0,2.8-0.3c0.4-0.1,1-0.3,1.4-0.4C54.9,17.9,54.9,16.5,55,15.6
				L55,15.6z M47.6,21.5L47.6,21.5c0.1,0.1,0.1,0.1,0.2,0.2c0.2,0.4,0.3,0.5,1.3,0.2c0.8-0.3,1.9-0.7,2.4-0.9
				c-0.3-0.2-0.6-0.4-0.9-0.5c-0.3,0-0.6-0.1-0.9-0.3c0,0-0.1,0-0.1-0.1C49.1,20,48.5,19.6,48,19c-0.2-0.3-0.4-0.7-0.5-1.1
				C47,18.9,47.3,20.2,47.6,21.5z M38.1,75.5L38.1,75.5L38.1,75.5z M38.1,74.8L38.1,74.8L38.1,74.8z M38.1,75.9L38.1,75.9L38.1,75.9
				z M38.1,76.7L38.1,76.7L38.1,76.7z M38.1,74.4L38.1,74.4L38.1,74.4z M54.5,69.1c0-2,0-4-0.1-6c0,0,0-0.1,0-0.1
				c0-2.4,0-4.8-0.1-7.2c0-2.2,0-4.4-0.1-6.6c0-2.2-0.3-4.3-0.6-6.4c-0.5-4.3-0.5-8.7-0.7-13c-0.8,0.5-1.9,0.7-2.8,1
				c-1.3,0.5-2.4,1.3-3.4,2.3c0,0,0,0,0,0v0c0.1,0.2,0.1,0.3,0.2,0.4c0,0.1,0.1,0.3,0.2,0.4c0.2,0.5,0.6,1.3,0.5,2
				c0,0.3-0.1,0.8-0.2,1.4c-0.2,1-0.4,2.3-0.4,3.3c0,0.8-0.1,2.2-0.2,3.5c0,1-0.1,1.9-0.1,2.3c0,0.2,0,0.6,0,1
				c0.1,1.1,0.2,2.9,0,4.5c-0.2,2.2-0.6,6.7-0.6,8.3v7.8c0,0,0,0,0,0c-0.1,0.9,0,1.8,0,2l0,0c0.2-0.2,0.7-0.4,1.8-0.6
				C48.8,69.4,51.5,69.3,54.5,69.1L54.5,69.1z M64.9,68.9c0.7,0.1,1.5,0.1,2.3,0.2c0-0.2,0-0.9,0-1.9H67c-0.1,0-0.1,0,0-0.1h0.2
				c0,0,0,0,0,0c0-3.3,0-9.5,0-11.2c0-0.3,0-0.6,0-1.1c-0.2,0.3-0.6,0.6-0.9,0.6l0,0.2l0-0.2h0c-0.7,0-1.2-0.5-1.3-1.2
				s0.5-1.2,1.2-1.3c0,0,0.1,0,0.1,0h0.1l0-0.2c0,0,0-0.1,0.1-0.1l0,0c0,0,0.1,0,0.1,0.1l0,0l0,0.2c0.4,0,0.7,0.2,0.9,0.6
				c0-2.5-0.1-6.2-0.2-9c-0.4,0.6-1.1,0.8-1.7,0.4s-0.8-1.1-0.4-1.7c0.2-0.4,0.6-0.6,1.1-0.6c0,0,0.1,0,0.1,0l0,0c0,0,0-0.1,0.1-0.1
				l0,0c0,0,0.1,0,0.1,0.1l0,0l0,0c0.3,0,0.6,0.2,0.8,0.5c0-0.6-0.1-1.1-0.1-1.5c-0.1-1.2-0.1-3.9,0-6.9c-0.2,0.1-0.4,0.2-0.7,0.2
				H66c0,0,0,0,0,0.1L66,35.1l-0.1-0.3c0,0,0,0,0-0.1c-0.7-0.1-1.1-0.7-1.1-1.3c0.1-0.6,0.5-1,1.1-1.1l0-0.1c0,0,0-0.1,0.1-0.1
				c0,0,0.1,0,0.1,0.1c0,0,0,0,0,0l0,0.1h0.1c0.3,0,0.5,0.1,0.7,0.2c0.1-3.1,0.2-6.1,0.3-7.6c-0.1,0.5-0.5,1-1.1,1l0,0.1l0-0.1h0
				c-0.7,0-1.2-0.5-1.2-1.2c0-0.6,0.5-1.2,1.2-1.2c0.6,0,1.2,0.5,1.2,1.1c0-0.4,0-0.6,0-0.7c0,0,0,0-0.1-0.1
				C67,24.1,67,23.9,67,23.8c-0.2-0.2-0.3-0.3-0.5-0.4c-0.5,0-2.6,0.2-3.8,0.3c-1,0-2.1,0-3.1,0c0,0,0,0,0,0c0,0.1,0,0.2-0.1,0.3
				c-0.1,0.2-0.2,0.3-0.4,0.3c-0.5,0-1.1-0.7-1.3-0.9c-0.1-0.2-0.8-0.5-1.2-0.6c-0.4-0.2-0.8-0.4-1.2-0.6c0,0.4-0.2,0.8-0.3,1.2
				c-0.1,0.1-0.1,0.3-0.2,0.5c0,0.1-0.1,0.1-0.2,0.2c0,0.1,0,0.1,0,0.2c-0.1,0.3-0.3,0.5-0.5,0.5c0,0-0.1,0-0.1,0
				c-0.2,0-0.3-0.1-0.3-0.3c0-0.1,0.1-0.3,0.2-0.3c0.1,0,0.1-0.1,0.1-0.1c0-0.2-0.1-0.6-0.6-1.2l-0.1-0.1c-0.4-0.5-0.8-0.9-1.3-1.3
				l0,0c-0.1,0-1.6,0.7-2.8,1.1c-0.3,0.1-0.7,0.2-1,0.2c0,0-0.1,0-0.1,0c0,0,0,0,0,0.1s0,0,0,0l0,0c0,0,0,0,0,0.1l0,0
				c0,0.1-0.1,0.1-0.1,0.1l0,0l0,0c-0.6,0.4-1.3,0.7-1.9,0.9c-0.8,0.3-1.6,0.5-2.2,1.2C43.1,26,42.4,27,41.9,28
				c-0.1,0.3-0.2,0.6-0.2,0.9s-0.2,0.6-0.2,0.9c-0.3,2.9-0.6,5.8-0.9,8.5c-0.6,5.3-1.2,10.7-1.6,16.2c-0.2,2.6-0.3,5.2-0.4,7.7
				c0,1.2-0.1,2.6-0.1,3.8c0,1.8,0,3.6-0.1,5.3c0,1.8,0,3.7-0.1,5.6l0,0c0.1,0.1,0.1,0.1,0,0.1l-0.1,0c0,0.2,0,0.4,0,0.6
				c0.8-0.4,1.7-0.6,2.6-0.7c0.2,0,0.5-0.1,0.7-0.1c1.7-0.3,3.5-0.6,5.2,0.3c0.1-1.1,0-2.2-0.1-3.3c0,0,0,0,0,0l-0.2,0
				c0,0,0-0.1,0-0.1l0,0l0.2,0c0,0,0,0,0,0c-0.2-0.9-0.4-1.8-0.6-2.7c0-0.1,0-0.1,0-0.2c0,0-0.1-0.1-0.1-0.1
				c-0.3-0.2-0.4-1.1-0.3-2.6v-7.8c0-1.7,0.3-6.2,0.6-8.4c0.2-1.6,0.1-3.3,0-4.4c0-0.4,0-0.8,0-1c0-0.4,0-1.3,0.1-2.4
				c0.1-1.3,0.1-2.7,0.1-3.5c0-1,0.2-2.3,0.4-3.4c0.1-0.6,0.2-1,0.2-1.3c0-0.6-0.2-1.2-0.5-1.7c-0.1-0.2-0.2-0.3-0.2-0.5
				c0-0.1-0.1-0.2-0.2-0.4c-0.2-0.5-0.5-1.2-0.5-2.1c0-0.2,0.1-0.3,0.3-0.3c0.2,0,0.3,0.1,0.3,0.3c0,0.5,0.1,1,0.3,1.5
				c0.9-0.8,1.9-1.5,3-2c0.5-0.3,1.1-0.5,1.7-0.7c0.6-0.2,1.3-0.3,1.8-0.8c0.2-0.2,0.4,0.1,0.3,0.3c0,0,0,0,0,0c0,0,0.1,0.1,0.1,0.1
				c0.1,2.5,0.2,5.1,0.3,7.6c0.1,2.2,0.2,4.3,0.5,6.5c0.3,2.1,0.5,4.2,0.5,6.4c0.1,4.5,0.1,8.9,0.1,13.3c0,0,0,0.1,0,0.1
				c0,1.3,0,2.5,0,3.8v0c0,0,0,0,0,0c0,0.6,0,1.1,0,1.7C59,68.9,63.6,68.8,64.9,68.9L64.9,68.9z M66.7,25c0-0.4-0.4-0.8-0.8-0.8
				c-0.4,0-0.8,0.4-0.8,0.8c0,0.4,0.4,0.8,0.8,0.8S66.7,25.4,66.7,25z M67,54.1c0-0.5-0.4-0.9-0.9-0.9s-0.9,0.4-0.9,0.9
				c0,0.5,0.4,0.9,0.9,0.9l0,0C66.6,55,67,54.6,67,54.1z M75.5,70.2c0.2-0.8,0.2-3.6,0.2-4.6c0-0.6-0.3-2.4-0.5-4.3
				c-0.4-3-0.9-6.4-0.8-7.7c0.2-2.4,0.2-4.8,0-7.1c-0.2-2.1-0.5-4.5-0.3-6.1c0.1-0.6-0.1-1.8-0.2-2.9c-0.2-2.2-0.4-3.5,0-4.1
				c0.1-0.2,0.3-0.5,0.5-0.8c-0.9-1.1-2.4-1.2-3.7-1.5c-1-0.3-2.4-0.7-3.2-1.6c-0.2,4.3-0.3,10-0.1,11.9c0.3,3.2,0.5,12,0.5,14.4
				c0,2.3,0,13.1,0,13.2c2,0.2,4,0.3,4.9,0.4c0.3,0.1,0.7,0.1,1,0.1c0.2,0,0.5,0,0.8,0.1C75.2,69.8,75.4,70.1,75.5,70.2z M81.7,76.9
				c0-0.4,0-0.7,0-1.1c0,0,0,0,0,0l-0.2,0c0,0,0-0.1,0-0.1l0,0l0.2,0c0-0.9-0.1-1.8-0.1-2.7c0,0,0,0,0,0l-0.2,0c0,0,0-0.1,0-0.1l0,0
				l0.2,0l0,0c-0.1-2.4-0.1-4.7-0.1-7c0-3.8-0.1-7.8-0.2-11.7l0-0.5c-0.2-3.5-0.3-7.2-0.7-10.7c0,0,0,0,0,0c0-0.2-0.1-0.8-0.2-1.4
				c-0.1-0.6-0.2-1.2-0.2-1.4c-0.2-1.1-0.3-2.2-0.5-3.3c-0.1-0.5-0.1-1-0.2-1.4c-0.1,0.1-0.3,0.1-0.4,0.1c-0.3,0-0.4-0.4-0.6-0.6
				c0-0.1,0-0.1-0.1-0.2c-0.2-0.3-0.3-1.5-0.3-1.7c-0.1-0.7,0.2-1.3,0.8-1.6l0,0c-0.1-0.4-0.2-0.8-0.2-1.3c-0.1-0.2-0.1-0.5-0.2-0.7
				c-0.4-1.4-0.8-2.7-1.8-3.9c-0.9-1-2.1-1.5-3.3-2l-0.2-0.1c-0.1,0.1-0.3,0.2-0.4,0.2c-0.3,0.1-0.6,0-1-0.3c-0.3-0.2-0.6-0.1-1.4,0
				c-0.4,0.1-0.9,0.2-1.5,0.3c-0.4,0-0.8,0.1-1.2,0.2c0.1,0.1,0.1,0.3,0,0.4c0,0.2-0.1,2.2-0.2,4.8c0.1,0,0.1,0,0.2,0.1
				c0.5,0.7,1.6,1,2.3,1.3c0.7,0.2,1.3,0.4,2,0.6c1,0.2,1.9,0.5,2.6,1.3c0.4-0.6,1.1-1.6,1.1-1.8c0-0.2,0.2-0.3,0.3-0.3
				s0.3,0.1,0.3,0.3c0,0.3-0.3,0.8-1.3,2.3c-0.2,0.4-0.5,0.7-0.6,1c-0.3,0.4-0.1,2.2,0.1,3.7c0.1,1.2,0.3,2.3,0.2,3
				c-0.2,1.6,0.1,3.9,0.3,6c0.2,2.4,0.2,4.8,0,7.3c-0.1,1.2,0.4,4.7,0.8,7.5c0.3,2,0.5,3.7,0.5,4.4c0,3.9-0.2,5-0.5,5.2
				c-0.1,0.4-0.2,0.8-0.3,1.1c0,0,0.1,0,0.1,0.1l0,0c0,0,0,0.1-0.1,0.1l0,0h0c-0.1,0.4-0.2,0.8-0.3,1.1c-0.1,0.4-0.2,0.9-0.3,1.3H75
				c0,0,0,0.1,0,0.1l0,0h-0.1l0,0.1c0,0,0,0.1,0,0.1c0,0.2,0,0.3,0,0.5C77.2,75.4,79.8,75.4,81.7,76.9L81.7,76.9z M55,33.2
				c0-0.7,0.5-1.2,1.2-1.2s1.2,0.5,1.2,1.2s-0.5,1.2-1.2,1.2l0,0C55.5,34.4,55,33.9,55,33.2z M55.3,33.2c0,0.5,0.4,0.8,0.8,0.8
				s0.8-0.4,0.8-0.8c0-0.5-0.4-0.8-0.8-0.8l0,0C55.7,32.4,55.3,32.8,55.3,33.2z M57.5,53.9c0,0.7-0.5,1.2-1.2,1.2s-1.2-0.5-1.2-1.2
				s0.5-1.2,1.2-1.2C57,52.7,57.5,53.2,57.5,53.9L57.5,53.9z M57.1,53.9c0-0.5-0.4-0.8-0.8-0.8c-0.5,0-0.8,0.4-0.8,0.8
				s0.4,0.8,0.8,0.8S57.1,54.4,57.1,53.9L57.1,53.9L57.1,53.9z M54.7,43.7c0-0.7,0.5-1.2,1.2-1.2s1.2,0.5,1.2,1.2s-0.5,1.2-1.2,1.2
				l0,0C55.2,44.9,54.7,44.4,54.7,43.7z M55.9,42.8c-0.5,0-0.9,0.4-0.9,0.9c0,0.5,0.4,0.9,0.9,0.9c0.5,0,0.9-0.4,0.9-0.9l0,0
				C56.8,43.2,56.4,42.8,55.9,42.8C55.9,42.8,55.9,42.8,55.9,42.8L55.9,42.8z M46.8,64.6c-0.1,0-0.1-0.1-0.1-0.2
				c0.6-4.5,1-9.1,1.3-13.6c0-0.1,0.1-0.2,0.1-0.2c0-0.1,0.1-0.1,0.2-0.1c0.3,0,1.1-0.2,1.3,0.1c0.2,0.2,0,0.5-0.1,0.8
				c-0.5,1.3-0.4,2.7-0.5,4.1c0,2.8-0.3,5.7-0.9,8.5c0,0,0,0.1,0,0.1C48.5,64.8,47.2,64.6,46.8,64.6z M47.9,64.2
				C47.9,64.1,47.9,64.1,47.9,64.2c-0.1-0.1-0.1-0.1-0.1-0.2c0.5-2.5,0.8-5,0.9-7.6c0-1.1,0-2.2,0.1-3.4c0-0.5,0.2-1,0.3-1.5
				c0.1-0.3,0.4-0.5,0-0.6c-0.2,0-0.5,0-0.7,0c-0.3,4.5-0.7,8.9-1.3,13.3C47.4,64.3,48,64.3,47.9,64.2z M74.1,64.4
				c-0.1-1.1-0.2-2.2-0.4-3.2c-0.2-1.1-0.4-2.2-0.6-3.4c-0.4-2.3-0.8-4.5-1.1-6.8c0-0.2,0.1-0.2,0.2-0.2c0-0.1,0.1-0.2,0.2-0.2
				c0,0,0,0,0,0c0.3,0.1,0.9,0.1,1.1,0.4c0.2,0.3,0.2,1,0.2,1.3c0.2,1.2,0.2,2.3,0.3,3.5c0.2,2.3,0.8,4.5,1.1,6.8
				c0.1,0.6,0.4,1.8-0.2,2.2C74.5,65.3,74.2,64.9,74.1,64.4z M74.2,62.1c0.1,0.5,0.1,0.9,0.2,1.4c0,0.2,0,0.6,0.1,0.8
				c0,0.3,0.1,0.4,0.5,0.1c0-0.2,0-0.3,0-0.5c-0.1-2.4-0.8-4.8-1.2-7.1c-0.2-1.1-0.2-2.3-0.3-3.4c-0.1-0.6-0.1-1.2-0.3-1.8
				c-0.1-0.3,0-0.2-0.3-0.3c-0.2,0-0.4-0.1-0.6-0.2c0.3,2.5,0.8,5,1.2,7.5C73.8,59.7,74.1,60.9,74.2,62.1L74.2,62.1z M64.5,67.1
				L64.5,67.1L64.5,67.1z M66.4,67.1h-0.2c0,0.1,0,0.1,0,0.1h0.2C66.4,67.2,66.4,67.2,66.4,67.1C66.4,67.1,66.4,67.1,66.4,67.1
				C66.4,67.1,66.4,67.1,66.4,67.1z M66.5,67.1L66.5,67.1L66.5,67.1z M66.5,67.1L66.5,67.1L66.5,67.1z M64.5,67.1c0,0.1,0,0.1,0,0.1
				h0.2c0,0,0.1,0,0-0.1l0,0l-0.1,0L64.5,67.1L64.5,67.1z M66.1,67.1L66.1,67.1L66.1,67.1z M62.8,67.2L62.8,67.2L62.8,67.2z
				 M64.9,67.2c0,0.1,0,0.1,0,0.1h0.2l0-0.1l-0.1,0H64.9z M65.3,67.1c0,0.1,0,0.1,0,0.1h0.2l0-0.1l-0.1,0H65.3z M63.9,67.2l-0.2,0
				c0,0,0,0.1,0,0.1h0.2C63.9,67.3,63.9,67.2,63.9,67.2C63.9,67.2,63.9,67.2,63.9,67.2z M64.3,67.2h-0.2c0,0.1,0,0.1,0,0.1h0.2
				L64.3,67.2C64.4,67.2,64.4,67.2,64.3,67.2L64.3,67.2z M64.5,67.1L64.5,67.1L64.5,67.1z M62.8,67.2c0,0.1,0,0.1,0,0.1h0.2l0-0.1
				l-0.1,0H62.8z M52.9,67.5c0,0.1,0,0.1,0,0.1l0.2,0l0-0.1l-0.1,0L52.9,67.5z M63.2,67.2L63.2,67.2L63.2,67.2z M63.5,67.2h-0.2
				c0,0.1,0,0.1,0,0.1h0.2C63.5,67.3,63.5,67.3,63.5,67.2C63.5,67.2,63.5,67.2,63.5,67.2C63.5,67.2,63.5,67.2,63.5,67.2z M51.2,67.6
				L51.2,67.6L51.2,67.6z M50.8,67.6c0,0.1,0,0.1,0,0.1l0.2,0l0-0.1l-0.1,0L50.8,67.6z M51.2,67.6L51.2,67.6L51.2,67.6z M50.8,67.6
				L50.8,67.6L50.8,67.6z M50,67.6c0,0,0,0.1,0,0.1l0.2,0l0-0.1l-0.1,0H50z M49.7,67.6L49.7,67.6l0,0.1l-0.2,0c0,0,0,0,0-0.1
				L49.7,67.6z M49.5,67.7L49.5,67.7L49.5,67.7z M50.4,67.6c0,0.1,0,0.1,0,0.1l0.2,0l0-0.1l-0.1,0L50.4,67.6z M75.6,68.4
				C75.6,68.4,75.6,68.4,75.6,68.4L75.6,68.4c0.1-0.1,0.1-0.1,0-0.1c-0.1,0-0.1-0.1-0.2-0.1c-0.1,0-0.1,0.1,0,0.1
				C75.5,68.3,75.5,68.4,75.6,68.4z M51.2,67.6c0,0.1,0,0.1,0,0.1l0.2,0l0-0.1l-0.1,0L51.2,67.6z M75.3,68.1c-0.1,0-0.2,0-0.2-0.1
				c-0.1,0-0.1,0.1,0,0.1l0.2,0.1C75.3,68.2,75.3,68.2,75.3,68.1L75.3,68.1C75.3,68.1,75.3,68.1,75.3,68.1L75.3,68.1z M74.9,68
				l-0.2-0.1c-0.1,0-0.1,0.1,0,0.1l0.2,0.1C74.9,68.1,74.9,68.1,74.9,68L74.9,68C74.9,68,74.9,68,74.9,68L74.9,68z M49.1,67.7
				c0,0.1,0,0.1,0,0.1l0.2,0l0-0.1l-0.1,0L49.1,67.7z M52.5,67.5c0,0.1,0,0.1,0,0.1l0.2,0l0-0.1l-0.1,0L52.5,67.5z M51.6,67.5
				c0,0,0,0.1,0,0.1l0,0l0.2,0l0-0.1l-0.1,0L51.6,67.5z M52,67.5c0,0.1,0,0.1,0,0.1l0.2,0l0-0.1l-0.1,0L52,67.5z M46.6,68L46.6,68
				L46.6,68z M47.5,67.9L47.5,67.9L47.5,67.9z M47.3,67.9c-0.1,0-0.2,0-0.2,0c0,0.1,0,0.1,0,0.1c0.1,0,0.2,0,0.2,0
				C47.4,68,47.4,68,47.3,67.9L47.3,67.9C47.4,67.9,47.3,67.9,47.3,67.9L47.3,67.9L47.3,67.9z M47.5,67.9L47.5,67.9L47.5,67.9z
				 M46.8,67.9L46.6,68c0,0,0,0.1,0,0.1l0,0L46.8,67.9C46.9,68,46.9,68,46.8,67.9L46.8,67.9C46.9,67.9,46.9,67.9,46.8,67.9
				L46.8,67.9z M46.5,68.1l-0.2,0.1c-0.1,0-0.1,0-0.1,0.1c0,0.1,0,0.1,0.1,0l0,0l0.2-0.1C46.5,68.1,46.5,68.1,46.5,68.1
				C46.5,68,46.5,68,46.5,68.1L46.5,68.1z M46.6,68L46.6,68L46.6,68z M49.1,67.7L49.1,67.7L49.1,67.7z M49.1,67.7L49.1,67.7
				L49.1,67.7z M48.9,67.7c0,0-0.2,0-0.2,0c0,0.1,0,0.1,0,0.1c0.1,0,0.2,0,0.2,0C49,67.8,49,67.8,48.9,67.7L48.9,67.7L48.9,67.7z
				 M47.7,67.8c-0.1,0-0.2,0-0.2,0c0,0.1,0,0.1,0,0.1c0.1,0,0.2,0,0.2,0C47.8,67.9,47.8,67.9,47.7,67.8L47.7,67.8
				C47.8,67.9,47.7,67.8,47.7,67.8L47.7,67.8L47.7,67.8z M48.2,67.8C48.2,67.9,48.2,67.9,48.2,67.8L48.2,67.8
				c-0.1,0.1-0.2,0.1-0.3,0.1c0,0,0,0,0-0.1C47.9,67.8,48,67.8,48.2,67.8C48.1,67.8,48.2,67.8,48.2,67.8L48.2,67.8z M47.9,67.8
				L47.9,67.8L47.9,67.8z M66.8,67.1h-0.2c0,0,0,0.1,0,0.1l0,0h0.2L66.8,67.1C66.8,67.1,66.8,67.1,66.8,67.1
				C66.8,67.1,66.8,67.1,66.8,67.1L66.8,67.1z M48.5,67.8c0,0-0.2,0-0.2,0c0,0.1,0,0.1,0,0.1c0.1,0,0.2,0,0.2,0
				C48.6,67.9,48.6,67.8,48.5,67.8L48.5,67.8C48.6,67.8,48.6,67.8,48.5,67.8z M69.7,67.2L69.7,67.2l0.3,0.1c0.1,0,0.1,0,0-0.1
				L69.7,67.2L69.7,67.2z M74.6,67.9L74.6,67.9L74.6,67.9z M70.8,67.3c0,0.1,0,0.1,0,0.1l-0.2,0l0-0.1l0.1,0L70.8,67.3z M70.8,67.3
				L70.8,67.3L70.8,67.3z M71,67.3L71,67.3l0,0.1l0.2,0c0.1,0,0.1,0,0-0.1L71,67.3z M71.2,67.3L71.2,67.3L71.2,67.3z M71.2,67.3
				L71.2,67.3L71.2,67.3z M69.6,67.2L69.6,67.2L69.6,67.2z M68.5,67.1L68.5,67.1l0,0.1l0.2,0c0,0,0.1-0.1,0-0.1l0,0L68.5,67.1z
				 M69.2,67.2L69.2,67.2L69.2,67.2z M68.8,67.2L68.8,67.2l0.3,0.1c0.1,0,0.1,0,0-0.1L68.8,67.2L68.8,67.2z M68,67.2L68,67.2
				l0.3,0.1c0.1,0,0.1,0,0-0.1L68,67.2L68,67.2z M69.2,67.2L69.2,67.2l0.3,0.1c0.1,0,0.1,0,0-0.1L69.2,67.2L69.2,67.2z M69.2,67.2
				L69.2,67.2L69.2,67.2z M70.1,67.3L70.1,67.3l0.3,0.1c0,0,0-0.1,0-0.1L70.1,67.3L70.1,67.3z M73.7,67.6L73.7,67.6L73.7,67.6z
				 M73.4,67.6C73.4,67.6,73.4,67.6,73.4,67.6L73.4,67.6l0.2,0.1c0,0,0.1-0.1,0-0.1l0,0L73.4,67.6C73.4,67.5,73.4,67.6,73.4,67.6
				L73.4,67.6z M73.7,67.6L73.7,67.6L73.7,67.6z M74.7,67.9L74.7,67.9L74.7,67.9z M74.5,67.9l-0.2-0.1c-0.1,0-0.1,0.1,0,0.1l0.2,0.1
				C74.5,68,74.5,68,74.5,67.9L74.5,67.9C74.5,67.9,74.5,67.9,74.5,67.9L74.5,67.9z M71.4,67.3L71.4,67.3c-0.1,0.1-0.1,0.1,0,0.1
				c0.1,0,0.1,0,0.2,0c0.1,0,0.1,0,0-0.1C71.6,67.3,71.4,67.3,71.4,67.3L71.4,67.3z M74,67.7l-0.2-0.1c-0.1,0-0.1,0-0.1,0
				c0,0.1,0,0.1,0,0.1l0.2,0.1l0.1,0C74.1,67.9,74.1,67.9,74,67.7C74.1,67.8,74.1,67.7,74,67.7L74,67.7z M72.8,67.5L72.8,67.5
				L72.8,67.5z M72.5,67.4c0,0.1,0,0.1,0,0.1c-0.1,0-0.2,0-0.2,0c0,0-0.1,0,0-0.1s0-0.1,0.1,0c0,0,0,0,0,0
				C72.3,67.4,72.4,67.4,72.5,67.4L72.5,67.4z M72.5,67.4L72.5,67.4L72.5,67.4z M73,67.5C73,67.5,73,67.5,73,67.5L73,67.5
				C72.9,67.6,73,67.6,73,67.5L73,67.5c0,0.1,0.1,0.1,0.2,0.1c0.1,0,0.1,0,0-0.1C73.2,67.5,73.1,67.5,73,67.5L73,67.5z M71.8,67.4
				C71.7,67.4,71.7,67.4,71.8,67.4c-0.1,0.1-0.1,0.1,0,0.1c0.1,0,0.2,0,0.2,0c0.1,0,0.1,0,0-0.1C71.9,67.4,71.8,67.4,71.8,67.4
				L71.8,67.4z M72.6,67.5C72.6,67.5,72.6,67.5,72.6,67.5L72.6,67.5C72.5,67.5,72.6,67.6,72.6,67.5L72.6,67.5c0,0.1,0.1,0.1,0.2,0.1
				c0.1,0,0.1,0,0-0.1C72.8,67.4,72.7,67.4,72.6,67.5L72.6,67.5z M72.9,67.5L72.9,67.5L72.9,67.5z M55.8,67.3L55.8,67.3L55.8,67.3z
				 M55.8,67.3L55.8,67.3L55.8,67.3z M55.7,67.3h-0.2c0,0.1,0,0.1,0,0.1h0.2L55.7,67.3C55.7,67.3,55.7,67.3,55.7,67.3L55.7,67.3
				L55.7,67.3z M56,67.3h-0.2c0,0.1,0,0.1,0,0.1h0.2L56,67.3C56.1,67.3,56.1,67.3,56,67.3L56,67.3L56,67.3z M55.2,67.3H55
				c0,0.1,0,0.1,0,0.1h0.2L55.2,67.3C55.3,67.3,55.3,67.3,55.2,67.3L55.2,67.3L55.2,67.3z M56.2,67.3c0,0,0,0.1,0,0.1l0,0h0.2
				c0,0,0,0,0-0.1l0,0l-0.1,0L56.2,67.3L56.2,67.3z M57.3,67.3h-0.2c0,0.1,0,0.1,0,0.1h0.2C57.3,67.4,57.4,67.4,57.3,67.3
				C57.4,67.3,57.3,67.3,57.3,67.3L57.3,67.3L57.3,67.3z M57.5,67.3L57.5,67.3L57.5,67.3z M56.7,67.3c0,0.1,0,0.1,0,0.1h0.2l0-0.1
				l-0.1,0H56.7z M54.2,67.3L54.2,67.3L54.2,67.3z M53.7,67.4c0,0.1,0,0.1,0,0.1l0.2,0l0-0.1l-0.1,0L53.7,67.4z M54.2,67.3
				L54.2,67.3L54.2,67.3z M54.4,67.3h-0.2c0,0.1,0,0.1,0,0.1h0.2L54.4,67.3C54.5,67.3,54.4,67.3,54.4,67.3L54.4,67.3z M53.2,67.4
				L53.2,67.4L53.2,67.4z M53.2,67.4c0,0.1,0,0.1,0,0.1l0.2,0l0-0.1l-0.1,0L53.2,67.4z M53.6,67.5L53.6,67.5L53.6,67.5z M60.2,67.3
				h-0.2c0,0.1,0,0.1,0,0.1h0.2L60.2,67.3C60.2,67.3,60.2,67.3,60.2,67.3L60.2,67.3z M60.8,67.2C60.8,67.3,60.8,67.3,60.8,67.2
				l0.2,0.1l0-0.1l-0.1,0L60.8,67.2z M60.4,67.2c0,0.1,0,0.1,0,0.1h0.2c0,0,0,0,0-0.1l0,0l-0.1,0L60.4,67.2L60.4,67.2z M60.8,67.2
				L60.8,67.2L60.8,67.2z M57.7,67.3h-0.2c0,0.1,0,0.1,0,0.1h0.2C57.8,67.4,57.8,67.3,57.7,67.3L57.7,67.3
				C57.8,67.3,57.7,67.3,57.7,67.3C57.7,67.3,57.7,67.3,57.7,67.3L57.7,67.3z M62.5,67.2c0,0.1,0,0.1,0,0.1h0.2c0,0,0,0,0-0.1l0,0
				l-0.1,0H62.5z M61.4,67.2h-0.2c0,0,0,0.1,0,0.1l0,0h0.2L61.4,67.2C61.5,67.2,61.5,67.2,61.4,67.2C61.4,67.2,61.4,67.2,61.4,67.2
				L61.4,67.2z M62,67.2c0,0.1,0,0.1,0,0.1h0.2c0,0,0,0,0-0.1l0,0l-0.1,0H62z M61.6,67.2c0,0.1,0,0.1,0,0.1h0.2l0-0.1l-0.1,0H61.6z
				 M61.2,67.2L61.2,67.2L61.2,67.2z M58.3,67.3c0,0.1,0,0.1,0,0.1h0.2l0-0.1l-0.1,0H58.3z M57.9,67.3c0,0,0,0.1,0,0.1l0,0h0.2
				l0-0.1l-0.1,0H57.9z M58.7,67.3c0,0.1,0,0.1,0,0.1H59l0-0.1l-0.1,0H58.7z M59.8,67.2h-0.2c0,0,0,0.1,0,0.1l0,0h0.2L59.8,67.2
				C59.8,67.3,59.8,67.2,59.8,67.2C59.8,67.2,59.8,67.2,59.8,67.2L59.8,67.2z M59.1,67.3L59.1,67.3L59.1,67.3z M59.1,67.3
				c0,0.1,0,0.1,0,0.1h0.2l0-0.1l-0.1,0H59.1z M39.6,76.4C39.6,76.4,39.5,76.4,39.6,76.4L39.6,76.4c0,0.1,0,0.1,0,0.1l0,0l0.2,0
				c0,0,0-0.1,0-0.1l0,0L39.6,76.4z M39.9,76.4C39.9,76.4,39.9,76.4,39.9,76.4L39.9,76.4l0.2,0c0,0,0-0.1,0-0.1l0,0L39.9,76.4
				C39.9,76.3,39.9,76.3,39.9,76.4L39.9,76.4z M41.1,76.1C41,76.1,41,76.1,41.1,76.1L41.1,76.1c0,0.1,0,0.1,0,0.1l0,0l0.2,0
				c0,0,0-0.1,0-0.1l0,0L41.1,76.1z M40.2,76.3C40.2,76.4,40.3,76.4,40.2,76.3L40.2,76.3l0.2,0c0,0,0-0.1,0-0.1l0,0L40.2,76.3
				C40.3,76.3,40.2,76.3,40.2,76.3C40.2,76.3,40.2,76.3,40.2,76.3z M40.7,76.2C40.7,76.2,40.6,76.2,40.7,76.2L40.7,76.2
				c0,0.1,0,0.1,0,0.1l0,0l0.2,0c0,0,0-0.1,0-0.1l0,0L40.7,76.2z M40.9,73.6C40.9,73.6,40.9,73.6,40.9,73.6c0-0.1,0-0.1,0-0.1
				l-0.2,0c0,0.1,0,0.1,0,0.1L40.9,73.6z M41.4,76.1C41.4,76.2,41.4,76.2,41.4,76.1L41.4,76.1l0.2,0c0,0,0-0.1,0-0.1l0,0L41.4,76.1
				C41.4,76.1,41.4,76.1,41.4,76.1C41.4,76.1,41.4,76.1,41.4,76.1z M39.9,73.7l0.2,0c0,0,0-0.1,0-0.1l0,0l-0.2,0
				C39.9,73.5,39.8,73.6,39.9,73.7L39.9,73.7C39.8,73.7,39.9,73.7,39.9,73.7L39.9,73.7z M41.2,73.4l-0.2,0c0,0.1,0,0.1,0,0.1l0.2,0
				C41.2,73.6,41.3,73.5,41.2,73.4L41.2,73.4C41.3,73.5,41.2,73.4,41.2,73.4L41.2,73.4L41.2,73.4z M41.3,76.1L41.3,76.1L41.3,76.1z
				 M41.2,76.1L41.2,76.1L41.2,76.1z M38.6,73.9c0-0.1,0-0.1,0-0.1c0,0.1-0.1,0.1-0.2,0.2l0,0.1l0.1,0C38.5,74,38.6,74,38.6,73.9z
				 M40.3,73.6L40.3,73.6l0.2,0c0,0,0.1,0,0-0.1c0,0,0-0.1-0.1-0.1l-0.1,0l-0.1,0L40.3,73.6L40.3,73.6z M38.7,76.7l-0.2,0.1
				c0,0-0.1,0,0,0.1c0,0,0,0.1,0.1,0.1l0.2-0.1C38.7,76.8,38.7,76.8,38.7,76.7z M41.4,73.6l0.2,0c0,0,0.1,0,0-0.1c0,0,0-0.1-0.1-0.1
				l-0.2,0C41.3,73.6,41.4,73.6,41.4,73.6z M38.3,76.9L38.3,76.9L38.3,76.9z M39.6,73.8l0.2,0c0,0,0-0.1,0-0.1l0,0l-0.2,0
				C39.5,73.7,39.5,73.7,39.6,73.8C39.5,73.8,39.5,73.8,39.6,73.8L39.6,73.8L39.6,73.8z M39.1,76.5C39.1,76.6,39.2,76.6,39.1,76.5
				L39.1,76.5l0.2,0c0,0,0-0.1,0-0.1l0,0L39.1,76.5C39.1,76.5,39.1,76.5,39.1,76.5C39.1,76.5,39.1,76.5,39.1,76.5L39.1,76.5z
				 M40.1,73.6L40.1,73.6L40.1,73.6z M40.1,73.5L40.1,73.5L40.1,73.5z M39,73.8c0,0,0-0.1,0-0.1l0,0l-0.2,0c0,0-0.1,0,0,0.1l0,0
				c0,0,0,0.1,0.1,0.1l0,0L39,73.8z M39,76.6l-0.2,0.1c-0.1,0-0.1,0,0,0.1c0,0,0,0.1,0.1,0.1l0,0l0.2-0.1
				C39.1,76.6,39.1,76.6,39,76.6L39,76.6z M39.1,73.8l0.2,0c0,0,0-0.1,0-0.1l0,0l-0.2,0C39.1,73.7,39.1,73.8,39.1,73.8
				C39.1,73.8,39.1,73.8,39.1,73.8z M43.1,75.8l-0.2,0c0,0.1,0,0.1,0,0.1l0.2,0C43.2,75.9,43.2,75.9,43.1,75.8
				C43.2,75.8,43.2,75.8,43.1,75.8C43.1,75.8,43.1,75.8,43.1,75.8z M43.1,73.4C43.1,73.4,43.1,73.4,43.1,73.4L43.1,73.4l-0.2,0l0,0
				l0,0.1L43.1,73.4C43.1,73.5,43.1,73.5,43.1,73.4C43.1,73.4,43.1,73.4,43.1,73.4L43.1,73.4z M42.7,73.4l-0.2,0c0,0,0,0.1,0,0.1
				l0,0l0.2,0C42.7,73.5,42.7,73.5,42.7,73.4C42.8,73.4,42.7,73.4,42.7,73.4z M43.5,75.8l-0.2,0c0,0.1,0,0.1,0,0.1l0.2,0
				C43.5,75.9,43.6,75.9,43.5,75.8C43.5,75.8,43.5,75.8,43.5,75.8L43.5,75.8L43.5,75.8z M42,73.4l-0.2,0c0,0.1,0,0.1,0,0.1l0.2,0
				C42,73.5,42.1,73.5,42,73.4C42,73.4,42,73.4,42,73.4L42,73.4z M41.8,76C41.8,76,41.8,76.1,41.8,76c0,0.1,0,0.1,0,0.1l0.2,0
				c0,0,0-0.1,0-0.1l0,0L41.8,76z M43.7,75.8L43.7,75.8L43.7,75.8z M43.8,75.8l-0.2,0c0,0.1,0,0.1,0,0.1l0.2,0
				C43.9,75.9,43.9,75.9,43.8,75.8C43.9,75.8,43.9,75.8,43.8,75.8C43.8,75.8,43.8,75.8,43.8,75.8L43.8,75.8z M42.2,76
				C42.2,76,42.1,76,42.2,76L42.2,76c0,0.1,0,0.1,0,0.1l0,0l0.2,0c0,0,0-0.1,0-0.1l0,0L42.2,76z M42.5,75.9
				C42.5,76,42.5,76,42.5,75.9L42.5,75.9l0.2,0c0,0,0-0.1,0-0.1l0,0L42.5,75.9C42.5,75.9,42.5,75.9,42.5,75.9
				C42.5,75.9,42.5,75.9,42.5,75.9L42.5,75.9z M42.3,73.4l-0.2,0c0,0.1,0,0.1,0,0.1l0.2,0C42.4,73.5,42.4,73.5,42.3,73.4L42.3,73.4
				C42.4,73.5,42.4,73.4,42.3,73.4C42.3,73.4,42.3,73.4,42.3,73.4z M45.2,73.5C45.2,73.5,45.2,73.6,45.2,73.5L45.2,73.5l0.2,0.1
				c0.1-0.1,0.1-0.1,0-0.1L45.2,73.5C45.2,73.5,45.2,73.5,45.2,73.5C45.2,73.5,45.2,73.5,45.2,73.5L45.2,73.5z M45.4,76l-0.2,0
				c0,0,0,0.1,0,0.1l0,0l0.2,0C45.4,76.1,45.4,76.1,45.4,76L45.4,76C45.4,76.1,45.4,76,45.4,76L45.4,76L45.4,76z M44.5,73.6l0.2,0
				c0-0.1,0.1-0.1,0-0.1l-0.2,0C44.5,73.4,44.4,73.4,44.5,73.6L44.5,73.6C44.5,73.5,44.5,73.6,44.5,73.6L44.5,73.6z M44.8,73.5
				C44.8,73.5,44.8,73.5,44.8,73.5C44.9,73.5,44.9,73.5,44.8,73.5l0.2,0.1c0.1,0,0.1-0.1,0-0.1L44.8,73.5
				C44.8,73.4,44.8,73.4,44.8,73.5L44.8,73.5z M45.6,76.2l0.2,0c0,0,0.1,0,0.1-0.1l0,0c0,0,0-0.1,0-0.1l0,0l-0.2,0
				C45.6,76.1,45.6,76.1,45.6,76.2z M44.3,75.8l-0.2,0c0,0,0,0.1,0,0.1l0,0l0.2,0C44.3,75.9,44.3,75.9,44.3,75.8
				C44.3,75.8,44.3,75.8,44.3,75.8z M45,75.9l-0.2,0c0,0,0,0.1,0,0.1l0,0l0.2,0C45,76.1,45.1,76,45,75.9C45.1,76,45.1,75.9,45,75.9
				L45,75.9z M43.7,73.4C43.7,73.5,43.7,73.5,43.7,73.4L43.7,73.4l0.2,0.1c0.1-0.1,0.1-0.1,0-0.1L43.7,73.4
				C43.7,73.4,43.7,73.4,43.7,73.4z M44,73.4C44,73.5,44.1,73.5,44,73.4L44,73.4l0.2,0.1c0.1,0,0.1-0.1,0-0.1L44,73.4
				C44.1,73.4,44,73.4,44,73.4C44,73.4,44,73.4,44,73.4L44,73.4z M44.7,75.9l-0.2,0c0,0,0,0.1,0,0.1l0,0l0.2,0
				C44.7,76,44.7,76,44.7,75.9L44.7,75.9C44.7,75.9,44.7,75.9,44.7,75.9C44.7,75.9,44.7,75.9,44.7,75.9z M44.8,75.9L44.8,75.9
				L44.8,75.9z M46,73.6l0.2,0c0,0,0.1,0,0.1-0.1l0,0c0,0,0-0.1,0-0.1l0,0l-0.2,0C46,73.5,46,73.6,46,73.6L46,73.6z M46,76.2l0.2,0
				c0,0,0.1,0,0.1-0.1c0,0,0-0.1,0-0.1l-0.2,0C45.9,76.1,45.9,76.2,46,76.2C46,76.2,46,76.2,46,76.2z M45.6,73.6l0.1,0l0.1,0l0-0.1
				l0-0.1l-0.1,0l-0.1,0C45.6,73.5,45.6,73.5,45.6,73.6C45.6,73.5,45.6,73.6,45.6,73.6L45.6,73.6L45.6,73.6z M43.3,73.4
				C43.3,73.4,43.3,73.5,43.3,73.4L43.3,73.4l0.2,0.1c0,0,0-0.1,0-0.1l0,0L43.3,73.4C43.3,73.3,43.3,73.4,43.3,73.4L43.3,73.4z
				 M46,73.5L46,73.5L46,73.5z M46.3,76.3l0.2,0c0,0,0.1,0,0.1-0.1l0,0c0,0,0-0.1,0-0.1l0,0l-0.2,0C46.3,76.2,46.3,76.3,46.3,76.3
				L46.3,76.3z M80.6,75.4l-0.2,0c0,0-0.1,0.1,0,0.1l0,0l0.2,0C80.6,75.5,80.6,75.5,80.6,75.4L80.6,75.4
				C80.7,75.4,80.6,75.4,80.6,75.4L80.6,75.4L80.6,75.4z M80.9,72.8L80.9,72.8l0-0.1l-0.1,0l-0.1,0c0,0-0.1,0-0.1,0s0,0.1,0,0.1h0
				L80.9,72.8L80.9,72.8z M80.2,75.3l-0.2,0c0,0-0.1,0.1,0,0.1l0,0l0.2,0C80.2,75.4,80.2,75.4,80.2,75.3
				C80.3,75.3,80.2,75.3,80.2,75.3C80.2,75.3,80.2,75.3,80.2,75.3L80.2,75.3z M80.9,75.5l-0.2,0c0,0-0.1,0.1,0,0.1l0,0l0.2,0
				C80.9,75.6,81,75.6,80.9,75.5C81,75.5,81,75.5,80.9,75.5C81,75.5,80.9,75.5,80.9,75.5z M80.5,72.6l-0.2,0c0,0-0.1,0-0.1,0.1
				c0,0,0,0.1,0,0.1l0.2,0C80.6,72.7,80.6,72.7,80.5,72.6L80.5,72.6z M80.2,72.6l-0.2,0c0,0-0.1,0-0.1,0l0,0c0,0,0,0.1,0,0.1l0,0
				l0.2,0C80.2,72.7,80.2,72.6,80.2,72.6L80.2,72.6z M79.9,75.2l-0.2,0c0,0-0.1,0.1,0,0.1l0,0l0.2,0C79.9,75.3,79.9,75.3,79.9,75.2
				C79.9,75.2,79.9,75.2,79.9,75.2C79.9,75.2,79.9,75.2,79.9,75.2L79.9,75.2z M81.1,72.7L81.1,72.7L81.1,72.7z M81.3,75.6l-0.2,0
				c0,0-0.1,0.1,0,0.1l0,0l0.2,0C81.3,75.7,81.3,75.7,81.3,75.6C81.3,75.7,81.3,75.6,81.3,75.6z M81.1,75.6L81.1,75.6L81.1,75.6z
				 M81.1,72.8l0.2,0c0,0,0.1,0,0.1,0s0-0.1,0-0.1l0,0l-0.2,0C81.1,72.7,81.1,72.8,81.1,72.8C81.1,72.8,81.1,72.8,81.1,72.8
				L81.1,72.8z M78.4,74.8l-0.2,0c0,0-0.1,0.1,0,0.1l0,0l0.2,0C78.4,74.9,78.5,74.9,78.4,74.8C78.5,74.8,78.5,74.8,78.4,74.8
				C78.4,74.8,78.4,74.8,78.4,74.8L78.4,74.8z M78.6,74.9L78.6,74.9L78.6,74.9z M79.1,75l-0.2,0c0,0-0.1,0.1,0,0.1l0,0l0.2,0
				C79.1,75.1,79.1,75.1,79.1,75C79.2,75,79.1,75,79.1,75C79.1,75,79.1,75,79.1,75L79.1,75z M79.4,72.4l-0.2,0c0,0-0.1,0-0.1,0l0,0
				c0,0,0,0.1,0,0.1l0,0l0.2,0C79.4,72.6,79.4,72.5,79.4,72.4L79.4,72.4z M78.8,74.9l-0.2,0c0,0-0.1,0.1,0,0.1l0,0l0.2,0
				C78.8,75,78.8,75,78.8,74.9C78.8,74.9,78.8,74.9,78.8,74.9z M79,72.4l-0.2,0c0,0-0.1,0-0.1,0s0,0.1,0,0.1l0.2,0
				C79.1,72.5,79.1,72.5,79,72.4L79,72.4z M78.3,72.3L78.3,72.3l-0.2,0c0,0-0.1,0-0.1,0.1c0,0,0,0.1,0,0.1l0.2,0L78.3,72.3z
				 M77.1,74.6C77,74.6,77.1,74.6,77.1,74.6L77.1,74.6l0.2,0.1c0,0,0.1,0,0-0.1L77.1,74.6C77.1,74.5,77.1,74.6,77.1,74.6L77.1,74.6
				L77.1,74.6z M77.3,74.6L77.3,74.6L77.3,74.6z M77.4,74.7C77.4,74.7,77.4,74.7,77.4,74.7L77.4,74.7l0.2,0.1c0.1,0,0.1,0,0-0.1
				L77.4,74.7C77.4,74.6,77.4,74.6,77.4,74.7L77.4,74.7z M79.5,75.1l-0.2,0c0,0-0.1,0.1,0,0.1l0,0l0.2,0
				C79.5,75.2,79.5,75.2,79.5,75.1L79.5,75.1C79.6,75.1,79.6,75.1,79.5,75.1C79.5,75.1,79.5,75.1,79.5,75.1L79.5,75.1z M77.8,74.7
				C77.8,74.7,77.8,74.8,77.8,74.7L77.8,74.7l0.2,0.1c0.1,0,0.1,0,0-0.1L77.8,74.7C77.8,74.6,77.8,74.7,77.8,74.7L77.8,74.7z
				 M78.7,72.3l-0.2,0c0,0-0.1,0-0.1,0.1c0,0,0,0.1,0,0.1l0.2,0C78.7,72.4,78.7,72.4,78.7,72.3C78.7,72.3,78.7,72.3,78.7,72.3
				L78.7,72.3z M79.7,75.2L79.7,75.2L79.7,75.2z M79.8,72.5l-0.2,0c0,0-0.1,0-0.1,0l0,0c0,0,0,0.1,0,0.1l0,0l0.2,0
				C79.8,72.6,79.8,72.6,79.8,72.5L79.8,72.5z M76.2,74.6C76.2,74.7,76.2,74.7,76.2,74.6L76.2,74.6l0.2,0.1c0,0,0-0.1,0-0.1l0,0
				L76.2,74.6C76.2,74.6,76.2,74.6,76.2,74.6L76.2,74.6L76.2,74.6z M75.9,74.6C75.9,74.6,75.9,74.6,75.9,74.6L75.9,74.6
				c-0.1,0.1,0,0.1,0,0.1l0,0h0.2c0,0,0-0.1,0-0.1l0,0L75.9,74.6z M76,72.2C76,72.1,76,72.1,76,72.2L76,72.2l-0.2-0.1
				c-0.1,0.1-0.1,0.1,0,0.1L76,72.2C76,72.2,76,72.2,76,72.2L76,72.2L76,72.2z M77.2,72.2C77.2,72.2,77.1,72.1,77.2,72.2L77.2,72.2
				l-0.2-0.1c-0.1,0.1-0.1,0.1,0,0.1L77.2,72.2C77.1,72.3,77.2,72.2,77.2,72.2L77.2,72.2L77.2,72.2z M76.7,74.6
				C76.7,74.6,76.6,74.6,76.7,74.6L76.7,74.6c-0.1,0.1,0,0.1,0,0.1l0,0h0.2c0,0,0-0.1,0-0.1c0,0,0,0,0,0L76.7,74.6z M76.4,72.2
				C76.4,72.1,76.3,72.1,76.4,72.2L76.4,72.2l-0.2-0.1c-0.1,0.1-0.1,0.1,0,0.1L76.4,72.2C76.3,72.2,76.4,72.2,76.4,72.2
				C76.4,72.2,76.4,72.2,76.4,72.2L76.4,72.2z M77.3,72.3h0.2c0,0,0.1,0,0.1-0.1l0,0c0,0,0-0.1-0.1-0.1l0,0h-0.2
				C77.2,72.3,77.2,72.3,77.3,72.3L77.3,72.3z M77.6,72.3h0.2c0,0,0.1,0,0.1-0.1l0,0c0,0,0-0.1-0.1-0.1l0,0h-0.2
				C77.6,72.2,77.6,72.3,77.6,72.3L77.6,72.3L77.6,72.3z M75.6,74.6C75.5,74.6,75.5,74.7,75.6,74.6c-0.1,0.1,0,0.1,0,0.1h0.2
				c0,0,0-0.1,0-0.1l0,0L75.6,74.6L75.6,74.6z M75.1,74.7C75.1,74.7,75.1,74.8,75.1,74.7L75.1,74.7l0.2,0.1c0,0,0-0.1,0-0.1l0,0
				L75.1,74.7C75.1,74.6,75.1,74.7,75.1,74.7C75.1,74.7,75.1,74.7,75.1,74.7z M76.5,72.3h0.2c0,0,0.1,0,0.1-0.1l0,0
				c0,0,0-0.1-0.1-0.1l0,0h-0.2C76.4,72.2,76.5,72.2,76.5,72.3L76.5,72.3z"/>
		</g>
	</g>
</g>
<g class="st0">
	<path d="M30.3,101.5c-0.5,0-0.9-0.1-1.4-0.3c-0.4-0.2-0.8-0.4-1.1-0.8c-0.3-0.3-0.6-0.8-0.8-1.3s-0.3-1.1-0.3-1.7
		c0-0.6,0.1-1.2,0.3-1.7s0.4-0.9,0.8-1.3c0.3-0.4,0.7-0.6,1.1-0.8c0.4-0.2,0.9-0.3,1.4-0.3c0.5,0,0.9,0.1,1.3,0.3
		c0.4,0.2,0.7,0.4,0.9,0.7l-0.8,0.9c-0.2-0.2-0.4-0.3-0.7-0.5c-0.2-0.1-0.5-0.2-0.8-0.2c-0.3,0-0.6,0.1-0.9,0.2
		c-0.3,0.1-0.5,0.3-0.7,0.6c-0.2,0.2-0.3,0.5-0.4,0.9c-0.1,0.4-0.2,0.7-0.2,1.2c0,0.4,0.1,0.8,0.2,1.2c0.1,0.4,0.3,0.7,0.4,0.9
		c0.2,0.2,0.4,0.4,0.7,0.6c0.3,0.1,0.6,0.2,0.9,0.2c0.3,0,0.6-0.1,0.9-0.2c0.3-0.1,0.5-0.3,0.7-0.6l0.8,0.9
		c-0.3,0.4-0.7,0.7-1.1,0.8C31.3,101.4,30.8,101.5,30.3,101.5z"/>
	<path d="M34.1,101.4v-7.8h1.4v3.2h2.7v-3.2h1.4v7.8h-1.4v-3.5h-2.7v3.5H34.1z"/>
	<path d="M40.7,101.4l2.5-7.8h1.6l2.5,7.8h-1.5l-0.6-2.1h-2.6l-0.6,2.1H40.7z M43.3,97.2l-0.3,1h2l-0.3-1c-0.1-0.4-0.2-0.8-0.3-1.3
		c-0.1-0.4-0.2-0.9-0.3-1.3h0c-0.1,0.4-0.2,0.9-0.3,1.3C43.5,96.4,43.4,96.8,43.3,97.2z"/>
	<path d="M48.4,101.4v-7.8H50l0.9,3.1l0.3,1.2h0l0.3-1.2l0.9-3.1h1.5v7.8h-1.2v-3.2c0-0.2,0-0.5,0-0.7c0-0.3,0-0.6,0.1-0.9
		s0-0.6,0.1-0.9s0-0.5,0.1-0.7h0l-0.5,1.8l-0.9,2.5h-0.8L50,96.8L49.5,95h0c0,0.2,0,0.4,0.1,0.7s0,0.6,0.1,0.9s0,0.6,0,0.9
		c0,0.3,0,0.5,0,0.7v3.2H48.4z"/>
	<path d="M55.1,101.4l2.5-7.8h1.6l2.5,7.8h-1.5l-0.6-2.1h-2.6l-0.6,2.1H55.1z M57.7,97.2l-0.3,1h2l-0.3-1c-0.1-0.4-0.2-0.8-0.3-1.3
		c-0.1-0.4-0.2-0.9-0.3-1.3h0c-0.1,0.4-0.2,0.9-0.3,1.3C57.9,96.4,57.8,96.8,57.7,97.2z"/>
	<path d="M63.1,101.4v-7.8h2.6c0.4,0,0.8,0,1.1,0.1s0.7,0.2,0.9,0.4s0.5,0.4,0.6,0.7c0.1,0.3,0.2,0.7,0.2,1.1c0,0.6-0.1,1.1-0.4,1.5
		c-0.3,0.4-0.7,0.6-1.1,0.8l1.9,3.3h-1.6l-1.7-3.1h-1.2v3.1H63.1z M64.5,97.2h1.1c0.5,0,1-0.1,1.2-0.3c0.3-0.2,0.4-0.6,0.4-1
		c0-0.5-0.1-0.8-0.4-0.9s-0.7-0.3-1.2-0.3h-1.1V97.2z"/>
	<path d="M70.3,101.4v-7.8h2.6c0.4,0,0.8,0,1.1,0.1c0.4,0.1,0.7,0.2,0.9,0.4c0.3,0.2,0.5,0.4,0.6,0.7c0.1,0.3,0.2,0.7,0.2,1.1
		c0,0.6-0.1,1.1-0.4,1.5c-0.3,0.4-0.7,0.6-1.1,0.8l1.9,3.3h-1.6l-1.7-3.1h-1.2v3.1H70.3z M71.7,97.2h1.1c0.5,0,1-0.1,1.2-0.3
		c0.3-0.2,0.4-0.6,0.4-1c0-0.5-0.1-0.8-0.4-0.9c-0.3-0.2-0.7-0.3-1.2-0.3h-1.1V97.2z"/>
	<path d="M76.7,101.4l2.5-7.8h1.6l2.5,7.8h-1.5l-0.6-2.1h-2.6l-0.6,2.1H76.7z M79.3,97.2l-0.3,1h2l-0.3-1c-0.1-0.4-0.2-0.8-0.3-1.3
		c-0.1-0.4-0.2-0.9-0.3-1.3h0c-0.1,0.4-0.2,0.9-0.3,1.3C79.5,96.4,79.4,96.8,79.3,97.2z"/>
	<path d="M87.3,101.5c-0.6,0-1.1-0.1-1.6-0.3c-0.5-0.2-1-0.5-1.3-0.9l0.8-0.9c0.3,0.3,0.6,0.5,1,0.6c0.4,0.2,0.8,0.2,1.2,0.2
		c0.5,0,0.8-0.1,1-0.3s0.4-0.4,0.4-0.7c0-0.2,0-0.3-0.1-0.4s-0.2-0.2-0.3-0.3c-0.1-0.1-0.3-0.2-0.4-0.2c-0.2-0.1-0.3-0.1-0.5-0.2
		l-1.1-0.5c-0.2-0.1-0.4-0.2-0.6-0.3c-0.2-0.1-0.4-0.3-0.5-0.4c-0.2-0.2-0.3-0.4-0.4-0.6c-0.1-0.2-0.1-0.5-0.1-0.8
		c0-0.3,0.1-0.6,0.2-0.9c0.1-0.3,0.3-0.5,0.6-0.7c0.2-0.2,0.5-0.4,0.9-0.5c0.3-0.1,0.7-0.2,1.1-0.2c0.5,0,0.9,0.1,1.4,0.3
		c0.4,0.2,0.8,0.4,1.1,0.7l-0.7,0.9c-0.3-0.2-0.5-0.4-0.8-0.5c-0.3-0.1-0.6-0.2-1-0.2c-0.4,0-0.7,0.1-0.9,0.2
		c-0.2,0.2-0.3,0.4-0.3,0.7c0,0.2,0,0.3,0.1,0.4c0.1,0.1,0.2,0.2,0.3,0.3s0.3,0.2,0.4,0.2c0.2,0.1,0.3,0.1,0.5,0.2l1,0.4
		c0.2,0.1,0.5,0.2,0.7,0.3s0.4,0.3,0.5,0.4c0.2,0.2,0.3,0.4,0.4,0.6c0.1,0.2,0.1,0.5,0.1,0.8c0,0.3-0.1,0.6-0.2,0.9
		c-0.1,0.3-0.3,0.5-0.6,0.7s-0.6,0.4-0.9,0.5S87.7,101.5,87.3,101.5z"/>
</g>
</svg>
