<?xml version="1.0" encoding="utf-8"?>
<!-- Generator: Adobe Illustrator 24.3.0, SVG Export Plug-In . SVG Version: 6.00 Build 0)  -->
<svg version="1.1" id="Layer_1" xmlns="http://www.w3.org/2000/svg" xmlns:xlink="http://www.w3.org/1999/xlink" x="0px" y="0px"
	 viewBox="0 0 120 100" style="enable-background:new 0 0 120 100;" xml:space="preserve">
<style type="text/css">
	.st0{fill:#070707;}
	.st1{enable-background:new    ;}
</style>
<g id="XMLID_551_">
	<g id="XMLID_1866_">
		<path id="XMLID_1132_" class="st0" d="M43,75.3h-2c-0.1,0-0.2,0-0.3-0.1L40.5,75l-0.3,0.2c-0.1,0.1-0.2,0.1-0.3,0.1h-2
			c-0.1,0-0.2,0-0.3-0.1l-0.1-0.1v0.1c-0.1,0.1-0.2,0.2-0.4,0.2h-1.9c-0.1,0-0.2,0-0.3-0.1l-0.2-0.1l0,0c-0.1,0.1-0.2,0.2-0.4,0.2
			h-3.1c-0.1,0-0.3,0-0.3-0.1l-0.2-0.2c-0.1,0.1-0.2,0.1-0.3,0.1h-1.2c-0.1,0-0.2,0-0.3-0.1l-0.2-0.2l-0.2,0.2
			c-0.1,0.1-0.2,0.1-0.4,0.1l-1.3-0.1c-0.1,0-0.2,0-0.3-0.1c-0.1,0.1-0.3,0.1-0.5,0.1l-0.7-0.3l-0.2,0.1c-0.1,0.1-0.3,0.1-0.5,0
			l-0.5-0.3l-0.5,0.2c-0.2,0.1-0.5,0.1-0.6-0.1l-0.1-0.2l-0.5,0.1c-0.1,0-0.3,0-0.4-0.1l-0.7-0.5l-0.2,0.1c-0.2,0-0.3,0-0.5-0.1
			l-0.7-0.6h-0.5c-0.1,0-0.3-0.1-0.3-0.2l-0.7-0.8c-0.1-0.1-0.1-0.2-0.1-0.3v-7.3c-0.1-0.3-0.3-1.7,0.3-2.5c0.1-0.2,0.3-0.3,0.5-0.4
			c-0.4-1.5-1.5-6.8-0.5-10.8c0.3-1,0.6-2.1,0.9-3.3c1.1-4,2.5-8.8,2.7-11.9c0.4-4,0.7-11.8,0.6-13.7c-0.1-1.9,0.1-5.5,0.6-6.6
			c-0.3-1.8-0.3-2.9,0-3.3l0,0c0-1.2,0-3.1-0.1-3.6c0-0.1,0-0.2,0-0.3C23.8,7.3,23.5,6,24,5.2c0.2-0.2,0.4-0.4,0.7-0.5
			c0.2-0.1,0.8-0.3,1.2,0.1c0.6,0.4,0.8,1.1,0.7,2.3c-0.1,2.3-0.2,4.3-0.2,4.7l0.5,2.3l5.2-0.1c1.1-0.2,3.2,0,4,1.6
			c1.9,0,10.6,0,12.7,0.1l0.3-0.3c0.2-0.9,1-2.5,3.2-2.6c2.5-0.1,5.9-0.2,6-0.2h0.1c0,0,1.3,0.4,1.7,2.3c0.4,1.9,2.1,11.9,2.5,15.9
			c0.2,1.7,1,6.1,3.1,10.7c1.7,3.7,4.6,8.5,9.1,10.5c0.1,0,10.4,4.9,18.4,4.5c0.1,0,3.3-0.2,5.3,1.7c1,0.9,1.5,2.3,1.5,4
			c0.6,0.2,1.2,0.8,1.3,1.8l0,0v2.5c0,0.1,0,0.2-0.1,0.3l-0.7,0.9c-0.1,0.2-0.4,0.2-0.6,0.2h-0.1l-0.1,0.5c0,0.2-0.2,0.3-0.3,0.4
			L98.6,69h-0.1v0.1c0,0.2-0.2,0.3-0.4,0.4l-0.8,0.1c0,0-0.1,0-0.2,0l-0.1,0.1c0,0.1-0.1,0.2-0.3,0.2L96.4,70c-0.1,0-0.2,0-0.3,0
			L96,70.1c0,0-0.1,0.1-0.2,0.1l-2.6,1l0,0c-0.1,0-6.6,2-11.8,2.7c-0.3,0.1-3.5,0.7-6.8,0.8c-0.7,0-1.3,0-1.9,0
			c-2.7,0.1-5.4,0.2-8.1-0.6c-0.8-0.2-2-0.6-3.4-1.1c-4.6-1.5-11.5-3.9-17.2-4.3l-0.5,0.1l-0.3,5.9C43.5,75.1,43.3,75.3,43,75.3z
			 M41.3,74.3h1.4l0.3-5.8c0-0.2,0.2-0.4,0.4-0.5l0.9-0.2h0.1c5.8,0.5,12.9,2.8,17.5,4.3c1.4,0.5,2.6,0.8,3.4,1
			c2.4,0.7,5.1,0.6,7.8,0.6c0.7,0,1.3,0,1.9,0c3.3,0,6.6-0.8,6.6-0.8l0,0c5.1-0.7,11.3-2.5,11.7-2.6l2.4-0.9l0.4-0.4
			c0.1-0.1,0.2-0.2,0.4-0.2c0.1,0,0.2,0.1,0.3,0.1l0,0l0.3-0.6c0.1-0.2,0.2-0.3,0.4-0.3c0.2,0,0.3,0.1,0.4,0.2l0,0h0.1l0.1-0.5
			c0-0.2,0.2-0.3,0.3-0.4c0.2,0,0.4,0,0.5,0.1l0.1,0.1h0.1L99,67c0-0.1,0.1-0.2,0.2-0.3s0.3-0.1,0.4,0l0.3,0.1l0.4-0.6v-2.3
			c-0.1-0.9-0.8-1-0.9-1c-0.3,0-0.5-0.2-0.4-0.5c0.1-1.6-0.3-2.8-1.2-3.7c-1.7-1.6-4.6-1.4-4.6-1.4c-4.3,0.2-9.2-1-12.6-2.2
			c-3.7-1.2-6.3-2.5-6.3-2.5c-2.6-1.2-6.5-4-9.6-10.9c-2.1-4.7-3-9.2-3.2-11c-0.3-3.9-2-13.8-2.3-15.7c-0.2-1.1-0.8-1.5-0.9-1.6
			c-0.6,0-3.6,0.1-5.8,0.2c-2.2,0.1-2.3,1.9-2.3,2s-0.1,0.2-0.1,0.3l-0.6,0.6c-0.1,0.1-0.2,0.2-0.4,0.2c-1.8-0.1-13.1-0.1-13.3-0.1
			s-0.4-0.1-0.5-0.3c-0.5-1.7-3-1.2-3-1.2s0,0-0.1,0l-5.5,0.1c-0.2,0-0.4-0.2-0.5-0.4l-0.6-2.7V12c0,0,0.1-2.3,0.2-4.8
			c0.1-1.1-0.2-1.4-0.3-1.4c-0.2-0.1-0.4,0-0.4,0h-0.1c0,0,0,0-0.1,0.1c-0.3,0.5,0.1,2.1,0.2,2.5c0,0.1,0,0.2,0.1,0.3
			c0.1,0.7,0.1,3.7,0.1,3.9c0,0.2-0.1,0.3-0.2,0.4c-0.1,0.4,0,1.5,0.2,2.6c0,0.1,0,0.2-0.1,0.3c-0.3,0.6-0.7,4-0.5,6.2
			c0.1,2.1-0.1,9.7-0.6,13.8c-0.3,3.2-1.6,7.9-2.8,12c-0.3,1.1-0.7,2.3-0.9,3.2c-1.2,4.5,0.6,10.7,0.6,10.7c0,0.1,0,0.3-0.1,0.4
			c-0.1,0.1-0.2,0.2-0.3,0.2s-0.3,0.1-0.3,0.2c-0.3,0.5-0.2,1.5-0.1,1.9v0.1v7.2l0.5,0.6H21c0.1,0,0.2,0,0.3,0.1l0.7,0.5l0.2-0.1
			c0.1,0,0.3,0,0.4,0.1l0.7,0.5l0.5-0.1c0.2,0,0.3,0,0.5,0.2l0.1,0.1l0.4-0.2c0.1-0.1,0.3-0.1,0.5,0l0.5,0.3l0.2-0.1
			c0.1-0.1,0.3-0.1,0.4,0l0.6,0.2l0.1-0.1c0.1-0.1,0.2-0.2,0.4-0.2c0.1,0,0.3,0,0.4,0.1l0.2,0.2l0.9,0.1l0.4-0.4
			c0.2-0.2,0.5-0.2,0.7,0l0.4,0.4h0.9l0.1-0.1c0.1-0.1,0.2-0.2,0.4-0.2c0.2,0,0.3,0,0.4,0.1l0.5,0.5h2.1l0.2-0.3
			c0.1-0.1,0.2-0.2,0.3-0.2s0.3,0,0.4,0.1l0.4,0.4H37l0.2-0.3c0.1-0.1,0.2-0.2,0.3-0.2s0.3,0,0.4,0.1l0.4,0.3h1.7l0.4-0.3
			c0.2-0.1,0.4-0.1,0.6,0L41.3,74.3z"/>
	</g>
	<g id="XMLID_1867_">
		<path id="XMLID_548_" class="st0" d="M72.8,71.3c-0.4,0-0.7,0-1,0c-5.8-0.1-9.3-1.3-14.1-2.9c-0.8-0.3-1.5-0.5-2.3-0.8
			c-6-2-19.8-3-24.4-3.4h-0.8c-3.8-0.3-9.8-1.6-9.8-1.6c-0.1,0-0.2-0.2-0.2-0.3s0.2-0.2,0.3-0.2s6,1.3,9.8,1.6h0.8
			c4.5,0.4,18.3,1.3,24.5,3.4c0.8,0.3,1.6,0.6,2.3,0.8c4.7,1.6,8.2,2.8,13.9,2.9c8.4,0.2,15.5-1.9,16.6-2.3c0.2-0.1,0.8-0.2,1.4-0.5
			c2.9-0.8,10.5-3.1,10.2-5.1c0-0.1,0.1-0.3,0.2-0.3c0.1,0,0.3,0.1,0.3,0.2c0.5,2.2-4.8,4-10.4,5.6c-0.7,0.2-1.2,0.4-1.4,0.5
			C87.4,69.5,80.8,71.3,72.8,71.3z"/>
	</g>
	<g id="XMLID_1868_">
		<path id="XMLID_547_" class="st0" d="M33.5,64.3c-0.1,0-0.1,0-0.2-0.1c0-0.1-1.1-5.6-1.7-7.2c-0.6-1.7-3.8-12.7-4-14.8
			c-0.3-2-2.1-18.9-2.2-20.8c-0.1-1.8,0-4.9,0-5c0,0,0.2-2.4-0.9-3.7c-0.1-0.1,0-0.2,0-0.2c0.1-0.1,0.2,0,0.2,0
			c1.2,1.4,1,3.8,0.9,3.9c0,0-0.1,3.2,0,4.9c0.1,1.9,1.9,18.8,2.2,20.8c0.3,2.1,3.5,13.1,4,14.8c0.5,1.6,1.6,7,1.7,7.1
			C33.6,64.2,33.5,64.3,33.5,64.3L33.5,64.3z"/>
	</g>
	<g id="XMLID_1869_">
		<path id="XMLID_546_" class="st0" d="M50.8,50.5L50.8,50.5l-12.2-1.9c-2-0.4-2-3.1-2-3.2l-0.1-6.4c0.5-7.1-1-22.8-1-22.9
			s0.1-0.2,0.1-0.2c0.1,0,0.2,0.1,0.2,0.1c0,0.2,1.5,15.7,1,23l0.1,6.4c0,0,0,2.5,1.7,2.9l12,1.9l-1.3-34.6c0-0.1,0.1-0.2,0.2-0.2
			c0.1,0,0.2,0.1,0.2,0.2l1.3,34.8v0.1C50.9,50.5,50.8,50.5,50.8,50.5z"/>
	</g>
	<g id="XMLID_1895_">
		<path id="XMLID_545_" class="st0" d="M71.6,72.9c-0.6,0-1.1,0-1.7,0c-3.3-0.1-8.5-1.7-13.5-3.3c-1.9-0.6-3.9-1.1-5.6-1.7
			c-4.2-1.2-9.9-1.6-14.4-1.9c-2.3-0.2-4.3-0.3-5.9-0.5C27.2,65.2,19.8,64,19.8,64c-0.1,0-0.1-0.1-0.1-0.2c0-0.1,0.1-0.1,0.2-0.1
			c0.1,0,7.3,1.1,10.5,1.6c1.6,0.2,3.7,0.4,5.9,0.5c4.5,0.3,10.2,0.7,14.5,1.9c1.8,0.5,3.8,1.1,5.6,1.7c5,1.5,10.2,3.1,13.5,3.2
			c4.5,0.2,10.9-0.5,15.6-1.6c11.9-2.9,14.3-5.1,15.1-5.8c0.1-0.1,0.2-0.1,0.2,0s0.1,0.2,0,0.2C98,68,90.8,69.9,85.6,71.2
			C81.4,72.3,75.9,72.9,71.6,72.9z"/>
	</g>
	<g id="XMLID_1896_">
		<path id="XMLID_544_" class="st0" d="M44.2,68.3L44.2,68.3c-8-0.1-14.2-0.8-18-1.3c-4.1-0.6-6.4-1.1-6.4-1.1
			c-0.1,0-0.1-0.1-0.1-0.2s0.1-0.1,0.2-0.1c0.1,0,9.1,2.3,24.4,2.4c0.1,0,0.2,0.1,0.2,0.2C44.4,68.3,44.3,68.3,44.2,68.3z"/>
	</g>
	<g id="XMLID_1897_">
		<path id="XMLID_543_" class="st0" d="M52.5,66.8c-0.1,0-0.2-0.1-0.2-0.2s-0.6-12.7-1.7-16.2c0-0.1,0-0.3,0.2-0.3
			c0.1,0,0.3,0,0.3,0.2c1.1,3.5,1.7,15.7,1.7,16.3C52.7,66.7,52.5,66.8,52.5,66.8L52.5,66.8z"/>
	</g>
	<g id="XMLID_1898_">
		<path id="XMLID_1116_" class="st0" d="M25.4,11.3c-0.1,0-0.1-0.1-0.2-0.1c0-0.1-0.5-3.1-0.5-3.6c0-0.4,0-0.7,0.3-0.8
			c0.1-0.1,0.3-0.1,0.4-0.1h0.1c0,0,0.3,0.3,0.3,0.8c0,0.5-0.3,3.4-0.3,3.5C25.5,11.2,25.5,11.3,25.4,11.3L25.4,11.3z M25.3,7.1
			C25.2,7.1,25.2,7.1,25.3,7.1c-0.2,0.1-0.2,0.4-0.2,0.6c0,0.3,0.1,1.3,0.3,2.3c0.1-0.9,0.2-2,0.2-2.3C25.5,7.4,25.4,7.2,25.3,7.1
			L25.3,7.1z"/>
	</g>
	<g id="XMLID_1899_">
		<path id="XMLID_1015_" class="st0" d="M53,66.6L53,66.6C53,66.6,52.9,66.6,53,66.6c-0.1-0.1-0.1-0.2-0.1-0.4c0,0,0-0.1,0.1-0.1
			l0,0c0,0,0.1,0,0.1,0.1C53.1,66.4,53.1,66.6,53,66.6C53.1,66.6,53.1,66.6,53,66.6z M53,66.1L53,66.1c0-0.2,0-0.3,0-0.4
			c0,0,0-0.1,0.1-0.1l0,0c0,0,0.1,0,0.1,0.1C53.1,65.8,53.1,65.9,53,66.1C53.1,66,53.1,66.1,53,66.1z M53,65.4L53,65.4
			c0-0.1,0-0.3,0-0.4c0,0,0-0.1,0.1-0.1s0.1,0,0.1,0.1C53.1,65.1,53.1,65.3,53,65.4C53.1,65.4,53.1,65.4,53,65.4L53,65.4z M53,64.8
			C53,64.8,52.9,64.8,53,64.8l-0.1-0.4c0,0,0-0.1,0.1-0.1c0,0,0.1,0,0.1,0.1L53,64.8C53.1,64.8,53.1,64.8,53,64.8L53,64.8z M53,64.2
			C53,64.2,52.9,64.2,53,64.2l-0.1-0.4c0,0,0-0.1,0.1-0.1c0,0,0.1,0,0.1,0.1L53,64.2C53.1,64.2,53.1,64.2,53,64.2L53,64.2z M53,63.6
			C52.9,63.6,52.9,63.5,53,63.6l-0.1-0.4c0,0,0-0.1,0.1-0.1c0,0,0.1,0,0.1,0.1L53,63.6C53.1,63.5,53,63.5,53,63.6L53,63.6z M53,63
			C52.9,63,52.9,63,53,63l-0.1-0.4c0,0,0-0.1,0.1-0.1c0,0,0.1,0,0.1,0.1L53,63L53,63L53,63z M52.9,62.4
			C52.9,62.4,52.8,62.3,52.9,62.4L52.8,62c0,0,0-0.1,0.1-0.1c0,0,0.1,0,0.1,0.1L52.9,62.4C53,62.3,53,62.3,52.9,62.4L52.9,62.4z
			 M52.9,61.7C52.8,61.7,52.8,61.7,52.9,61.7l-0.1-0.4c0,0,0-0.1,0.1-0.1c0,0,0.1,0,0.1,0.1L52.9,61.7C53,61.7,52.9,61.7,52.9,61.7
			L52.9,61.7z M52.8,61.1L52.8,61.1l-0.1-0.4c0,0,0-0.1,0.1-0.1c0,0,0.1,0,0.1,0.1L52.8,61.1C52.9,61.1,52.9,61.1,52.8,61.1
			C52.9,61.1,52.8,61.1,52.8,61.1z M52.8,60.5C52.8,60.5,52.7,60.5,52.8,60.5l-0.1-0.4c0,0,0-0.1,0.1-0.1c0,0,0.1,0,0.1,0.1
			L52.8,60.5C52.9,60.4,52.9,60.5,52.8,60.5L52.8,60.5z M52.8,59.9C52.7,59.9,52.7,59.9,52.8,59.9l-0.1-0.4c0,0,0-0.1,0.1-0.1
			c0,0,0.1,0,0.1,0.1L52.8,59.9L52.8,59.9L52.8,59.9z M52.7,59.3C52.7,59.3,52.6,59.2,52.7,59.3l-0.1-0.4c0,0,0-0.1,0.1-0.1
			s0.1,0,0.1,0.1L52.7,59.3C52.8,59.2,52.8,59.3,52.7,59.3L52.7,59.3z M52.7,58.6C52.6,58.6,52.6,58.6,52.7,58.6l-0.1-0.4
			c0,0,0-0.1,0.1-0.1c0,0,0.1,0,0.1,0.1L52.7,58.6L52.7,58.6L52.7,58.6z M52.6,58.1C52.5,58.1,52.5,58,52.6,58.1l-0.1-0.4
			c0,0,0-0.1,0.1-0.1c0,0,0.1,0,0.1,0.1L52.6,58.1C52.7,58,52.6,58.1,52.6,58.1L52.6,58.1z M52.5,57.4
			C52.5,57.4,52.5,57.4,52.5,57.4L52.5,57c0,0,0-0.1,0.1-0.1c0,0,0.1,0,0.1,0.1L52.5,57.4C52.6,57.4,52.6,57.4,52.5,57.4L52.5,57.4z
			 M52.5,56.8C52.5,56.8,52.5,56.8,52.5,56.8l-0.2-0.4c0,0,0-0.1,0.1-0.1c0,0,0.1,0,0.1,0.1L52.5,56.8
			C52.5,56.8,52.5,56.8,52.5,56.8L52.5,56.8z M52.5,56.2C52.4,56.2,52.4,56.2,52.5,56.2l-0.1-0.4c0,0,0-0.1,0.1-0.1
			c0,0,0.1,0,0.1,0.1L52.5,56.2C52.5,56.2,52.5,56.2,52.5,56.2L52.5,56.2z M52.4,55.6C52.4,55.6,52.3,55.5,52.4,55.6l-0.1-0.4
			c0,0,0-0.1,0.1-0.1c0,0,0.1,0,0.1,0.1L52.4,55.6C52.5,55.5,52.5,55.6,52.4,55.6L52.4,55.6z M52.3,55C52.3,55,52.2,55,52.3,55
			l-0.1-0.4c0,0,0-0.1,0.1-0.1c0,0,0.1,0,0.1,0.1L52.3,55C52.4,55,52.4,55,52.3,55L52.3,55z M52.2,54.4
			C52.2,54.4,52.1,54.3,52.2,54.4L52.1,54c0,0,0-0.1,0.1-0.1c0,0,0.1,0,0.1,0.1L52.2,54.4C52.3,54.3,52.3,54.4,52.2,54.4L52.2,54.4z
			 M52.1,53.8L52.1,53.8L52,53.4c0,0,0-0.1,0.1-0.1c0,0,0.1,0,0.1,0.1L52.1,53.8C52.2,53.8,52.2,53.8,52.1,53.8L52.1,53.8z M52,53.2
			C52,53.2,52,53.1,52,53.2l-0.1-0.4c0,0,0-0.1,0.1-0.1c0,0,0.1,0,0.1,0.1L52,53.2C52.1,53.1,52.1,53.1,52,53.2
			C52.1,53.2,52.1,53.2,52,53.2z M51.9,52.5L51.9,52.5l-0.1-0.4c0,0,0-0.1,0.1-0.1c0,0,0.1,0,0.1,0.1L51.9,52.5
			C52,52.5,52,52.5,51.9,52.5C52,52.5,52,52.5,51.9,52.5z M51.9,52C51.8,52,51.8,51.9,51.9,52l-0.1-0.4c0,0,0-0.1,0.1-0.1
			c0,0,0.1,0,0.1,0.1L51.9,52C51.9,51.9,51.9,51.9,51.9,52L51.9,52z M51.8,51.3C51.7,51.3,51.7,51.3,51.8,51.3l-0.1-0.4
			c0,0,0-0.1,0.1-0.1c0,0,0.1,0,0.1,0.1L51.8,51.3L51.8,51.3L51.8,51.3z M51.6,50.7C51.6,50.7,51.6,50.7,51.6,50.7l-0.1-0.3v-0.1
			c0,0,0-0.1,0.1-0.1s0.1,0,0.1,0.1v0.1L51.6,50.7C51.7,50.7,51.7,50.7,51.6,50.7C51.7,50.7,51.6,50.7,51.6,50.7z M51.6,50.1
			C51.5,50.1,51.5,50.1,51.6,50.1l-0.1-0.4c0,0,0-0.1,0.1-0.1s0.1,0,0.1,0.1L51.6,50.1C51.7,50.1,51.6,50.1,51.6,50.1L51.6,50.1z
			 M51.5,49.5C51.5,49.5,51.5,49.4,51.5,49.5l-0.1-0.4c0,0,0-0.1,0.1-0.1s0.1,0,0.1,0.1L51.5,49.5C51.6,49.4,51.6,49.5,51.5,49.5
			L51.5,49.5z M51.5,48.9C51.5,48.9,51.4,48.9,51.5,48.9l-0.1-0.4c0,0,0-0.1,0.1-0.1s0.1,0,0.1,0.1L51.5,48.9
			C51.6,48.9,51.6,48.9,51.5,48.9L51.5,48.9z M51.5,48.2C51.4,48.2,51.4,48.2,51.5,48.2l-0.1-0.4c0,0,0-0.1,0.1-0.1s0.1,0,0.1,0.1
			L51.5,48.2C51.6,48.2,51.5,48.2,51.5,48.2L51.5,48.2z M51.4,47.6C51.4,47.6,51.3,47.6,51.4,47.6l-0.1-0.4c0,0,0-0.1,0.1-0.1
			s0.1,0,0.1,0.1L51.4,47.6C51.5,47.6,51.5,47.6,51.4,47.6L51.4,47.6z M51.4,47C51.3,47,51.3,47,51.4,47l-0.1-0.4c0,0,0-0.1,0.1-0.1
			s0.1,0,0.1,0.1L51.4,47C51.5,47,51.4,47,51.4,47L51.4,47z M51.4,46.4C51.3,46.4,51.3,46.3,51.4,46.4L51.3,46c0,0,0-0.1,0.1-0.1
			s0.1,0,0.1,0.1L51.4,46.4C51.4,46.3,51.4,46.4,51.4,46.4L51.4,46.4z M51.3,45.8C51.3,45.8,51.2,45.8,51.3,45.8l-0.1-0.4
			c0,0,0-0.1,0.1-0.1s0.1,0,0.1,0.1L51.3,45.8C51.4,45.8,51.4,45.8,51.3,45.8L51.3,45.8z M51.3,45.2C51.2,45.2,51.2,45.1,51.3,45.2
			l-0.1-0.4c0,0,0-0.1,0.1-0.1s0.1,0,0.1,0.1L51.3,45.2C51.4,45.1,51.3,45.2,51.3,45.2L51.3,45.2z M51.2,44.5L51.2,44.5l-0.1-0.4
			c0,0,0-0.1,0.1-0.1s0.1,0,0.1,0.1L51.2,44.5C51.3,44.5,51.3,44.5,51.2,44.5L51.2,44.5z M51.2,44C51.2,44,51.1,43.9,51.2,44
			l-0.1-0.4c0,0,0-0.1,0.1-0.1s0.1,0,0.1,0.1L51.2,44C51.3,43.9,51.3,44,51.2,44L51.2,44z M51.2,43.3C51.1,43.3,51.1,43.3,51.2,43.3
			l-0.1-0.4c0,0,0-0.1,0.1-0.1s0.1,0,0.1,0.1L51.2,43.3C51.3,43.3,51.2,43.3,51.2,43.3L51.2,43.3z M51.1,42.8
			C51.1,42.8,51.1,42.7,51.1,42.8L51,42.4c0,0,0-0.1,0.1-0.1s0.1,0,0.1,0.1L51.1,42.8C51.2,42.7,51.2,42.8,51.1,42.8L51.1,42.8z
			 M51.1,42.1C51,42.1,51,42.1,51.1,42.1L51,41.7c0,0,0-0.1,0.1-0.1s0.1,0,0.1,0.1L51.1,42.1C51.2,42.1,51.1,42.1,51.1,42.1
			L51.1,42.1z M51.1,41.4C51,41.4,51,41.4,51.1,41.4L51,41c0,0,0-0.1,0.1-0.1s0.1,0,0.1,0.1L51.1,41.4L51.1,41.4L51.1,41.4z
			 M51,40.9C51,40.9,51,40.9,51,40.9L51,40.5c0,0,0-0.1,0.1-0.1s0.1,0,0.1,0.1L51,40.9C51.1,40.8,51.1,40.9,51,40.9L51,40.9z
			 M51,40.2C51,40.2,51,40.2,51,40.2L51,39.8c0,0,0-0.1,0.1-0.1c0,0,0.1,0,0.1,0.1L51,40.2C51.1,40.2,51,40.2,51,40.2L51,40.2z
			 M51,39.6C51,39.6,51,39.5,51,39.6L51,39.3c0,0,0-0.1,0.1-0.1c0,0,0.1,0,0.1,0.1L51,39.6C51,39.5,51,39.6,51,39.6L51,39.6z M51,39
			C51,39,50.9,39,51,39l-0.1-0.4c0,0,0-0.1,0.1-0.1s0.1,0,0.1,0.1L51,39C51,39,51,39,51,39L51,39z M51,38.4
			C50.9,38.4,50.9,38.3,51,38.4L50.9,38c0,0,0-0.1,0.1-0.1c0,0,0.1,0,0.1,0.1L51,38.4C51,38.3,51,38.4,51,38.4L51,38.4z M51,37.8
			C50.9,37.8,50.9,37.8,51,37.8l-0.1-0.4c0,0,0-0.1,0.1-0.1c0,0,0.1,0,0.1,0.1L51,37.8L51,37.8L51,37.8z M50.9,37.2
			C50.9,37.2,50.9,37.1,50.9,37.2l-0.1-0.5c0,0,0-0.1,0.1-0.1s0.1,0,0.1,0.1L50.9,37.2C51,37.1,51,37.2,50.9,37.2L50.9,37.2z
			 M50.9,36.5C50.9,36.5,50.8,36.5,50.9,36.5l-0.1-0.4c0,0,0-0.1,0.1-0.1c0,0,0.1,0,0.1,0.1L50.9,36.5C51,36.5,51,36.5,50.9,36.5
			L50.9,36.5z M50.9,35.9C50.8,35.9,50.8,35.9,50.9,35.9l-0.1-0.4c0,0,0-0.1,0.1-0.1c0,0,0.1,0,0.1,0.1L50.9,35.9
			C51,35.9,50.9,35.9,50.9,35.9L50.9,35.9z M50.9,35.3C50.8,35.3,50.8,35.3,50.9,35.3l-0.1-0.4c0,0,0-0.1,0.1-0.1s0.1,0,0.1,0.1
			L50.9,35.3L50.9,35.3L50.9,35.3z M50.8,34.7L50.8,34.7l-0.1-0.4c0,0,0-0.1,0.1-0.1c0,0,0.1,0,0.1,0.1L50.8,34.7
			C50.9,34.7,50.9,34.7,50.8,34.7L50.8,34.7z M50.8,34.1C50.8,34.1,50.7,34,50.8,34.1l-0.1-0.4c0,0,0-0.1,0.1-0.1s0.1,0,0.1,0.1
			L50.8,34.1C50.9,34,50.9,34.1,50.8,34.1L50.8,34.1z M50.8,33.4C50.7,33.4,50.7,33.4,50.8,33.4l-0.1-0.4c0,0,0-0.1,0.1-0.1
			s0.1,0,0.1,0.1L50.8,33.4C50.9,33.4,50.8,33.4,50.8,33.4L50.8,33.4z M50.8,32.9C50.7,32.9,50.7,32.8,50.8,32.9l-0.1-0.4
			c0,0,0-0.1,0.1-0.1s0.1,0,0.1,0.1L50.8,32.9C50.9,32.8,50.8,32.9,50.8,32.9L50.8,32.9z M50.7,32.2L50.7,32.2l-0.1-0.4
			c0,0,0-0.1,0.1-0.1s0.1,0,0.1,0.1L50.7,32.2C50.8,32.2,50.8,32.2,50.7,32.2L50.7,32.2z M50.7,31.5C50.7,31.5,50.6,31.5,50.7,31.5
			l-0.1-0.4c0,0,0-0.1,0.1-0.1s0.1,0,0.1,0.1L50.7,31.5C50.8,31.5,50.8,31.5,50.7,31.5L50.7,31.5z M50.7,31C50.6,31,50.6,31,50.7,31
			l-0.1-0.4c0,0,0-0.1,0.1-0.1s0.1,0,0.1,0.1L50.7,31C50.8,31,50.7,31,50.7,31L50.7,31z M50.7,30.3C50.6,30.3,50.6,30.3,50.7,30.3
			L50.6,30c0,0,0-0.1,0.1-0.1s0.1,0,0.1,0.1L50.7,30.3C50.8,30.3,50.7,30.3,50.7,30.3L50.7,30.3z M50.6,29.8
			C50.6,29.8,50.6,29.7,50.6,29.8l-0.1-0.4c0,0,0-0.1,0.1-0.1s0.1,0,0.1,0.1L50.6,29.8C50.7,29.7,50.7,29.8,50.6,29.8L50.6,29.8z
			 M50.6,29.1C50.6,29.1,50.5,29.1,50.6,29.1l-0.1-0.4c0,0,0-0.1,0.1-0.1s0.1,0,0.1,0.1L50.6,29.1C50.7,29.1,50.7,29.1,50.6,29.1
			L50.6,29.1z M50.6,28.5C50.5,28.5,50.5,28.5,50.6,28.5l-0.1-0.4c0,0,0-0.1,0.1-0.1s0.1,0,0.1,0.1L50.6,28.5
			C50.7,28.5,50.6,28.5,50.6,28.5L50.6,28.5z M50.6,27.9C50.5,27.9,50.5,27.9,50.6,27.9l-0.1-0.4c0,0,0-0.1,0.1-0.1s0.1,0,0.1,0.1
			L50.6,27.9C50.7,27.9,50.6,27.9,50.6,27.9L50.6,27.9z M50.5,27.3C50.5,27.3,50.5,27.2,50.5,27.3l-0.1-0.4c0,0,0-0.1,0.1-0.1
			s0.1,0,0.1,0.1L50.5,27.3C50.6,27.2,50.6,27.3,50.5,27.3L50.5,27.3z M50.5,26.7C50.5,26.7,50.4,26.7,50.5,26.7l-0.1-0.4
			c0,0,0-0.1,0.1-0.1s0.1,0,0.1,0.1L50.5,26.7C50.6,26.7,50.6,26.7,50.5,26.7L50.5,26.7z M50.5,26.1C50.4,26.1,50.4,26,50.5,26.1
			l-0.1-0.4c0,0,0-0.1,0.1-0.1s0.1,0,0.1,0.1L50.5,26.1C50.6,26,50.5,26.1,50.5,26.1L50.5,26.1z M50.5,25.4
			C50.4,25.4,50.4,25.4,50.5,25.4l-0.1-0.4c0,0,0-0.1,0.1-0.1s0.1,0,0.1,0.1L50.5,25.4C50.6,25.4,50.5,25.4,50.5,25.4L50.5,25.4z
			 M50.4,24.8L50.4,24.8l-0.1-0.4c0,0,0-0.1,0.1-0.1s0.1,0,0.1,0.1L50.4,24.8C50.5,24.8,50.5,24.8,50.4,24.8L50.4,24.8z M50.4,24.2
			C50.4,24.2,50.3,24.2,50.4,24.2l-0.1-0.4c0,0,0-0.1,0.1-0.1s0.1,0,0.1,0.1L50.4,24.2C50.5,24.1,50.5,24.2,50.4,24.2L50.4,24.2z
			 M50.4,23.6C50.3,23.6,50.3,23.6,50.4,23.6l-0.1-0.4c0,0,0-0.1,0.1-0.1s0.1,0,0.1,0.1L50.4,23.6C50.5,23.6,50.4,23.6,50.4,23.6
			L50.4,23.6z M50.4,23C50.3,23,50.3,22.9,50.4,23l-0.1-0.4c0,0,0-0.1,0.1-0.1s0.1,0,0.1,0.1L50.4,23C50.5,22.9,50.4,23,50.4,23
			L50.4,23z M50.3,22.3L50.3,22.3L50.2,22c0,0,0-0.1,0.1-0.1s0.1,0,0.1,0.1L50.3,22.3C50.4,22.3,50.4,22.3,50.3,22.3L50.3,22.3z
			 M50.3,21.8C50.3,21.8,50.2,21.7,50.3,21.8l-0.1-0.4c0,0,0-0.1,0.1-0.1s0.1,0,0.1,0.1L50.3,21.8C50.4,21.7,50.4,21.8,50.3,21.8
			L50.3,21.8z M50.3,21.1C50.2,21.1,50.2,21.1,50.3,21.1l-0.1-0.4c0,0,0-0.1,0.1-0.1s0.1,0,0.1,0.1L50.3,21.1
			C50.4,21.1,50.3,21.1,50.3,21.1L50.3,21.1z M50.3,20.5C50.2,20.5,50.2,20.5,50.3,20.5l-0.1-0.5c0,0,0-0.1,0.1-0.1s0.1,0,0.1,0.1
			L50.3,20.5C50.4,20.5,50.3,20.5,50.3,20.5L50.3,20.5z M50.2,19.9L50.2,19.9l-0.1-0.4c0,0,0-0.1,0.1-0.1s0.1,0,0.1,0.1L50.2,19.9
			C50.3,19.9,50.3,19.9,50.2,19.9L50.2,19.9z M50.2,19.2C50.2,19.2,50.1,19.2,50.2,19.2l-0.1-0.4c0,0,0-0.1,0.1-0.1s0.1,0,0.1,0.1
			L50.2,19.2C50.3,19.2,50.3,19.2,50.2,19.2L50.2,19.2z M50.2,18.7C50.1,18.7,50.1,18.7,50.2,18.7l-0.1-0.4c0,0,0-0.1,0.1-0.1
			s0.1,0,0.1,0.1L50.2,18.7C50.3,18.7,50.2,18.7,50.2,18.7L50.2,18.7z M50.2,18C50.1,18,50.1,18,50.2,18l-0.1-0.4c0,0,0-0.1,0.1-0.1
			s0.1,0,0.1,0.1L50.2,18C50.3,18,50.2,18,50.2,18L50.2,18z M50.1,17.5C50.1,17.5,50.1,17.4,50.1,17.5L50,17.1c0,0,0-0.1,0.1-0.1
			s0.1,0,0.1,0.1L50.1,17.5C50.2,17.4,50.2,17.5,50.1,17.5L50.1,17.5z M50.1,16.8C50.1,16.8,50,16.8,50.1,16.8L50,16.4
			c0,0,0-0.1,0.1-0.1s0.1,0,0.1,0.1L50.1,16.8C50.2,16.8,50.2,16.8,50.1,16.8L50.1,16.8z M50.1,16.2C50,16.2,50,16.1,50.1,16.2
			L50,15.9l0,0v-0.1c0,0,0-0.1,0.1-0.1c0,0,0.1,0,0.1,0.1s0,0.1,0,0.1L50.1,16.2C50.2,16.1,50.1,16.2,50.1,16.2L50.1,16.2z
			 M50.2,15.6L50.2,15.6C50.1,15.6,50.1,15.6,50.2,15.6c0-0.2,0-0.3,0-0.4c0,0,0.1-0.1,0.1,0c0,0,0.1,0.1,0,0.1
			C50.4,15.4,50.3,15.5,50.2,15.6C50.3,15.6,50.3,15.6,50.2,15.6z M50.5,15C50.5,15,50.4,15,50.5,15C50.4,15,50.4,14.9,50.5,15
			c-0.1-0.2,0-0.3,0.1-0.4h0.1v0.1C50.7,14.8,50.6,14.9,50.5,15L50.5,15z M50.8,14.5L50.8,14.5C50.7,14.5,50.7,14.4,50.8,14.5
			c0.1-0.2,0.2-0.3,0.2-0.3H51v0.1C51,14.3,51,14.4,50.8,14.5C50.9,14.5,50.9,14.5,50.8,14.5z M51.3,14.2
			C51.2,14.2,51.2,14.2,51.3,14.2c-0.1-0.1-0.1-0.1,0-0.2c0.1,0,0.2-0.1,0.3-0.1V14v0.1C51.5,14.1,51.4,14.1,51.3,14.2L51.3,14.2z
			 M51.9,14.1C51.9,14.1,51.8,14.1,51.9,14.1c-0.1-0.1,0-0.2,0-0.2c0.1,0,0.2,0,0.3,0c0,0,0.1,0,0.1,0.1c0,0,0,0.1-0.1,0.1
			C52.1,14.1,52,14.1,51.9,14.1L51.9,14.1z M52.5,14C52.5,14,52.5,14,52.5,14c-0.1-0.1,0-0.2,0-0.2h0.3c0,0,0.1,0,0.1,0.1
			s0,0.1-0.1,0.1L52.5,14L52.5,14z M53.1,14C53.1,14,53,13.9,53.1,14c-0.1-0.1,0-0.2,0-0.2h0.3c0,0,0.1,0,0.1,0.1c0,0,0,0.1-0.1,0.1
			L53.1,14L53.1,14z M53.8,13.9C53.7,13.9,53.7,13.9,53.8,13.9c-0.1-0.1,0-0.2,0-0.2H54c0,0,0.1,0,0.1,0.1c0,0,0,0.1-0.1,0.1
			L53.8,13.9L53.8,13.9z M54.3,13.9C54.3,13.9,54.2,13.8,54.3,13.9c-0.1-0.1,0-0.2,0-0.2h0.3c0,0,0.1,0,0.1,0.1c0,0,0,0.1-0.1,0.1
			L54.3,13.9L54.3,13.9z M55,13.8C54.9,13.8,54.9,13.8,55,13.8c-0.1-0.1,0-0.2,0-0.2h0.3c0,0,0.1,0,0.1,0.1c0,0,0,0.1-0.1,0.1
			L55,13.8L55,13.8z M55.6,13.8C55.6,13.8,55.6,13.7,55.6,13.8c-0.1-0.1,0-0.2,0-0.2c0.1,0,0.1,0,0.1,0h0.2c0,0,0.1,0,0.1,0.1
			c0,0,0,0.1-0.1,0.1L55.6,13.8L55.6,13.8z M58.9,13.8h-0.3c0,0-0.1,0-0.1-0.1c0,0,0-0.1,0.1-0.1h0.3C59,13.6,59,13.6,58.9,13.8
			C59,13.7,59,13.8,58.9,13.8z M58.4,13.8h-0.3c0,0-0.1,0-0.1-0.1c0,0,0-0.1,0.1-0.1h0.3C58.4,13.6,58.5,13.6,58.4,13.8
			C58.5,13.7,58.4,13.8,58.4,13.8z M57.7,13.8h-0.3c0,0-0.1,0-0.1-0.1c0,0,0-0.1,0.1-0.1h0.3C57.8,13.6,57.8,13.6,57.7,13.8
			C57.8,13.7,57.8,13.8,57.7,13.8z M57.2,13.8h-0.4c0,0-0.1,0-0.1-0.1c0,0,0-0.1,0.1-0.1h0.3C57.2,13.6,57.2,13.6,57.2,13.8
			C57.2,13.7,57.2,13.8,57.2,13.8z M56.5,13.8h-0.3c0,0-0.1,0-0.1-0.1c0,0,0-0.1,0.1-0.1h0.3C56.6,13.6,56.6,13.6,56.5,13.8
			C56.6,13.7,56.6,13.8,56.5,13.8z"/>
	</g>
	<g id="XMLID_1894_">
		<path id="XMLID_914_" class="st0" d="M53.8,67C53.7,67,53.7,66.9,53.8,67c-0.1-0.1-0.1-0.2-0.1-0.4c0,0,0-0.1,0.1-0.1
			c0,0,0.1,0,0.1,0.1C53.9,66.8,53.9,66.9,53.8,67C53.9,66.9,53.8,67,53.8,67L53.8,67z M53.8,66.3C53.7,66.3,53.7,66.3,53.8,66.3
			L53.7,66c0,0,0-0.1,0.1-0.1s0.1,0,0.1,0.1L53.8,66.3L53.8,66.3L53.8,66.3z M53.8,65.8C53.7,65.8,53.7,65.7,53.8,65.8l-0.1-0.4
			c0,0,0-0.1,0.1-0.1s0.1,0,0.1,0.1L53.8,65.8C53.8,65.7,53.8,65.8,53.8,65.8L53.8,65.8z M53.7,65.1L53.7,65.1l-0.1-0.4
			c0,0,0-0.1,0.1-0.1s0.1,0,0.1,0.1L53.7,65.1C53.8,65.1,53.8,65.1,53.7,65.1L53.7,65.1z M53.7,64.5C53.7,64.5,53.6,64.5,53.7,64.5
			l-0.1-0.4c0,0,0-0.1,0.1-0.1s0.1,0,0.1,0.1L53.7,64.5C53.8,64.5,53.8,64.5,53.7,64.5L53.7,64.5z M53.7,63.9
			C53.6,63.9,53.6,63.9,53.7,63.9l-0.1-0.4c0,0,0-0.1,0.1-0.1s0.1,0,0.1,0.1L53.7,63.9C53.8,63.8,53.7,63.9,53.7,63.9L53.7,63.9z
			 M53.7,63.2C53.6,63.2,53.6,63.2,53.7,63.2l-0.1-0.4c0,0,0-0.1,0.1-0.1s0.1,0,0.1,0.1L53.7,63.2L53.7,63.2L53.7,63.2z M53.6,62.7
			C53.6,62.7,53.5,62.6,53.6,62.7l-0.1-0.4c0,0,0-0.1,0.1-0.1s0.1,0,0.1,0.1L53.6,62.7C53.7,62.6,53.7,62.7,53.6,62.7L53.6,62.7z
			 M53.6,62C53.5,62,53.5,62,53.6,62l-0.1-0.4c0,0,0-0.1,0.1-0.1s0.1,0,0.1,0.1L53.6,62C53.7,62,53.6,62,53.6,62L53.6,62z
			 M53.5,61.5C53.5,61.5,53.5,61.4,53.5,61.5l-0.1-0.4c0,0,0-0.1,0.1-0.1s0.1,0,0.1,0.1L53.5,61.5C53.6,61.4,53.6,61.5,53.5,61.5
			L53.5,61.5z M53.5,60.8C53.4,60.8,53.4,60.8,53.5,60.8l-0.1-0.4c0,0,0-0.1,0.1-0.1s0.1,0,0.1,0.1L53.5,60.8
			C53.6,60.8,53.5,60.8,53.5,60.8L53.5,60.8z M53.4,60.2C53.4,60.2,53.4,60.1,53.4,60.2l-0.1-0.4c0,0,0-0.1,0.1-0.1s0.1,0,0.1,0.1
			L53.4,60.2C53.5,60.1,53.5,60.2,53.4,60.2C53.5,60.2,53.5,60.2,53.4,60.2z M53.4,59.6C53.3,59.6,53.3,59.6,53.4,59.6l-0.1-0.4
			c0,0,0-0.1,0.1-0.1s0.1,0,0.1,0.1L53.4,59.6C53.5,59.6,53.4,59.6,53.4,59.6L53.4,59.6z M53.3,58.9L53.3,58.9l-0.1-0.4
			c0,0,0-0.1,0.1-0.1s0.1,0,0.1,0.1L53.3,58.9C53.4,58.9,53.4,58.9,53.3,58.9L53.3,58.9z M53.3,58.4C53.2,58.4,53.2,58.4,53.3,58.4
			L53.2,58c0,0,0-0.1,0.1-0.1s0.1,0,0.1,0.1L53.3,58.4C53.4,58.4,53.3,58.4,53.3,58.4L53.3,58.4z M53.2,57.7
			C53.2,57.7,53.1,57.7,53.2,57.7l-0.1-0.4c0,0,0-0.1,0.1-0.1c0,0,0.1,0,0.1,0.1L53.2,57.7C53.3,57.7,53.3,57.7,53.2,57.7L53.2,57.7
			z M53.2,57.1C53.1,57.1,53.1,57.1,53.2,57.1L53,56.8c0,0,0-0.1,0.1-0.1c0,0,0.1,0,0.1,0.1L53.2,57.1C53.2,57,53.2,57.1,53.2,57.1
			L53.2,57.1z M53.1,56.5C53,56.5,53,56.5,53.1,56.5L53,56.1c0,0,0-0.1,0.1-0.1c0,0,0.1,0,0.1,0.1L53.1,56.5
			C53.2,56.5,53.1,56.5,53.1,56.5L53.1,56.5z M53,55.9C53,55.9,52.9,55.8,53,55.9l-0.1-0.4c0,0,0-0.1,0.1-0.1c0,0,0.1,0,0.1,0.1
			L53,55.9C53.1,55.8,53.1,55.9,53,55.9L53,55.9z M52.9,55.2C52.9,55.2,52.8,55.2,52.9,55.2l-0.1-0.4c0,0,0-0.1,0.1-0.1
			c0,0,0.1,0,0.1,0.1L52.9,55.2C53,55.2,53,55.2,52.9,55.2L52.9,55.2z M52.9,54.7C52.8,54.7,52.8,54.7,52.9,54.7l-0.1-0.4
			c0,0,0-0.1,0.1-0.1c0,0,0.1,0,0.1,0.1L52.9,54.7C52.9,54.6,52.9,54.7,52.9,54.7L52.9,54.7z M52.8,54C52.7,54,52.7,54,52.8,54
			l-0.1-0.4c0,0,0-0.1,0.1-0.1c0,0,0.1,0,0.1,0.1L52.8,54C52.9,54,52.8,54,52.8,54L52.8,54z M52.7,53.5
			C52.7,53.5,52.6,53.4,52.7,53.5l-0.1-0.4c0,0,0-0.1,0.1-0.1c0,0,0.1,0,0.1,0.1L52.7,53.5C52.8,53.4,52.8,53.5,52.7,53.5L52.7,53.5
			z M52.7,52.8C52.6,52.8,52.6,52.8,52.7,52.8l-0.1-0.4c0,0,0-0.1,0.1-0.1c0,0,0.1,0,0.1,0.1L52.7,52.8L52.7,52.8L52.7,52.8z
			 M52.6,52.2C52.5,52.2,52.5,52.2,52.6,52.2l-0.1-0.4c0,0,0-0.1,0.1-0.1s0.1,0,0.1,0.1L52.6,52.2C52.7,52.2,52.6,52.2,52.6,52.2
			L52.6,52.2z M52.5,51.6C52.5,51.6,52.5,51.6,52.5,51.6l-0.1-0.4c0,0,0-0.1,0.1-0.1s0.1,0,0.1,0.1L52.5,51.6
			C52.6,51.6,52.6,51.6,52.5,51.6L52.5,51.6z M52.5,51C52.5,51,52.5,50.9,52.5,51l-0.1-0.4c0,0,0-0.1,0.1-0.1s0.1,0,0.1,0.1L52.5,51
			C52.6,50.9,52.5,51,52.5,51L52.5,51z M52.5,50.4C52.5,50.4,52.4,50.4,52.5,50.4L52.4,50c0,0,0-0.1,0.1-0.1s0.1,0,0.1,0.1
			L52.5,50.4C52.5,50.4,52.5,50.4,52.5,50.4L52.5,50.4z M52.5,49.8C52.4,49.8,52.4,49.7,52.5,49.8l-0.1-0.4c0,0,0-0.1,0.1-0.1
			s0.1,0,0.1,0.1L52.5,49.8C52.5,49.7,52.5,49.8,52.5,49.8L52.5,49.8z M52.4,49.1C52.3,49.1,52.3,49.1,52.4,49.1l-0.1-0.4
			c0,0,0-0.1,0.1-0.1s0.1,0,0.1,0.1L52.4,49.1C52.5,49.1,52.4,49.1,52.4,49.1L52.4,49.1z M52.3,48.5L52.3,48.5l-0.1-0.4
			c0,0,0-0.1,0.1-0.1s0.1,0,0.1,0.1L52.3,48.5C52.4,48.5,52.4,48.5,52.3,48.5L52.3,48.5z M52.3,47.9C52.2,47.9,52.2,47.9,52.3,47.9
			l-0.1-0.4c0,0,0-0.1,0.1-0.1s0.1,0,0.1,0.1L52.3,47.9C52.4,47.9,52.3,47.9,52.3,47.9L52.3,47.9z M52.2,47.3
			C52.2,47.3,52.1,47.3,52.2,47.3l-0.1-0.4c0,0,0-0.1,0.1-0.1s0.1,0,0.1,0.1L52.2,47.3C52.3,47.3,52.3,47.3,52.2,47.3L52.2,47.3z
			 M52.2,46.7C52.1,46.7,52.1,46.7,52.2,46.7l-0.1-0.4c0,0,0-0.1,0.1-0.1s0.1,0,0.1,0.1L52.2,46.7C52.3,46.6,52.2,46.7,52.2,46.7
			L52.2,46.7z M52.1,46C52.1,46,52,46,52.1,46L52,45.7c0,0,0-0.1,0.1-0.1s0.1,0,0.1,0.1L52.1,46C52.2,46,52.2,46,52.1,46L52.1,46z
			 M52.1,45.5C52,45.5,52,45.4,52.1,45.5L52,45.1c0,0,0-0.1,0.1-0.1s0.1,0,0.1,0.1L52.1,45.5C52.2,45.4,52.1,45.5,52.1,45.5
			L52.1,45.5z M52,44.8C52,44.8,51.9,44.8,52,44.8l-0.1-0.4c0,0,0-0.1,0.1-0.1c0,0,0.1,0,0.1,0.1L52,44.8
			C52.1,44.8,52.1,44.8,52,44.8L52,44.8z M52,44.2C51.9,44.2,51.9,44.2,52,44.2l-0.1-0.4c0,0,0-0.1,0.1-0.1s0.1,0,0.1,0.1L52,44.2
			C52.1,44.2,52,44.2,52,44.2L52,44.2z M51.9,43.6L51.9,43.6l-0.1-0.4c0,0,0-0.1,0.1-0.1c0,0,0.1,0,0.1,0.1L51.9,43.6
			C52,43.6,52,43.6,51.9,43.6L51.9,43.6z M51.9,43C51.8,43,51.8,42.9,51.9,43l-0.1-0.4c0,0,0-0.1,0.1-0.1c0,0,0.1,0,0.1,0.1L51.9,43
			C52,42.9,51.9,43,51.9,43L51.9,43z M51.8,42.4L51.8,42.4L51.7,42c0,0,0-0.1,0.1-0.1s0.1,0,0.1,0.1L51.8,42.4
			C51.9,42.4,51.9,42.4,51.8,42.4L51.8,42.4z M51.8,41.7C51.7,41.7,51.7,41.7,51.8,41.7l-0.1-0.4c0,0,0-0.1,0.1-0.1s0.1,0,0.1,0.1
			L51.8,41.7C51.9,41.7,51.8,41.7,51.8,41.7L51.8,41.7z M51.8,41.2C51.7,41.2,51.7,41.2,51.8,41.2l-0.1-0.4c0,0,0-0.1,0.1-0.1
			s0.1,0,0.1,0.1L51.8,41.2L51.8,41.2L51.8,41.2z M51.7,40.5C51.7,40.5,51.6,40.5,51.7,40.5l-0.1-0.4c0,0,0-0.1,0.1-0.1
			s0.1,0,0.1,0.1L51.7,40.5C51.8,40.5,51.8,40.5,51.7,40.5L51.7,40.5z M51.7,39.9C51.6,39.9,51.6,39.8,51.7,39.9l-0.1-0.4
			c0,0,0-0.1,0.1-0.1s0.1,0,0.1,0.1L51.7,39.9C51.8,39.8,51.7,39.9,51.7,39.9L51.7,39.9z M51.6,39.3C51.6,39.3,51.5,39.3,51.6,39.3
			c-0.1-0.2-0.1-0.3-0.1-0.4c0,0,0-0.1,0.1-0.1s0.1,0,0.1,0.1S51.7,39.1,51.6,39.3C51.7,39.3,51.7,39.3,51.6,39.3L51.6,39.3z
			 M51.6,38.7C51.5,38.7,51.5,38.6,51.6,38.7l-0.1-0.4c0,0,0-0.1,0.1-0.1s0.1,0,0.1,0.1L51.6,38.7C51.7,38.6,51.6,38.7,51.6,38.7
			L51.6,38.7z M51.6,38C51.5,38,51.5,38,51.6,38l-0.1-0.4c0,0,0-0.1,0.1-0.1s0.1,0,0.1,0.1L51.6,38C51.7,38,51.6,38,51.6,38L51.6,38
			z M51.5,37.4L51.5,37.4L51.5,37.4v-0.3c0,0,0-0.1,0.1-0.1s0.1,0,0.1,0.1v0.3L51.5,37.4L51.5,37.4z M51.5,36.8
			C51.5,36.8,51.4,36.8,51.5,36.8l-0.1-0.4c0,0,0-0.1,0.1-0.1c0,0,0.1,0,0.1,0.1L51.5,36.8C51.6,36.7,51.6,36.8,51.5,36.8L51.5,36.8
			z M51.5,36.2C51.5,36.2,51.4,36.2,51.5,36.2l-0.1-0.4c0,0,0-0.1,0.1-0.1s0.1,0,0.1,0.1L51.5,36.2C51.6,36.2,51.6,36.2,51.5,36.2
			L51.5,36.2z M51.5,35.6C51.4,35.6,51.4,35.5,51.5,35.6l-0.1-0.4c0,0,0-0.1,0.1-0.1c0,0,0.1,0,0.1,0.1L51.5,35.6
			C51.6,35.5,51.5,35.6,51.5,35.6L51.5,35.6z M51.5,34.9C51.4,34.9,51.4,34.9,51.5,34.9l-0.1-0.4c0,0,0-0.1,0.1-0.1s0.1,0,0.1,0.1
			L51.5,34.9L51.5,34.9L51.5,34.9z M51.4,34.4C51.4,34.4,51.4,34.3,51.4,34.4l-0.1-0.5c0,0,0-0.1,0.1-0.1c0,0,0.1,0,0.1,0.1
			L51.4,34.4C51.5,34.3,51.5,34.4,51.4,34.4L51.4,34.4z M51.4,33.7C51.4,33.7,51.3,33.7,51.4,33.7l-0.1-0.4c0,0,0-0.1,0.1-0.1
			s0.1,0,0.1,0.1L51.4,33.7C51.5,33.7,51.5,33.7,51.4,33.7L51.4,33.7z M51.4,33.1C51.3,33.1,51.3,33.1,51.4,33.1l-0.1-0.4
			c0,0,0-0.1,0.1-0.1s0.1,0,0.1,0.1L51.4,33.1C51.5,33.1,51.4,33.1,51.4,33.1L51.4,33.1z M51.4,32.5C51.3,32.5,51.3,32.5,51.4,32.5
			l-0.1-0.4c0,0,0-0.1,0.1-0.1s0.1,0,0.1,0.1L51.4,32.5C51.5,32.5,51.4,32.5,51.4,32.5L51.4,32.5z M51.4,31.8
			C51.3,31.8,51.3,31.8,51.4,31.8l-0.1-0.4c0,0,0-0.1,0.1-0.1s0.1,0,0.1,0.1L51.4,31.8L51.4,31.8L51.4,31.8z M51.3,31.3
			C51.3,31.3,51.2,31.2,51.3,31.3l-0.1-0.4c0,0,0-0.1,0.1-0.1s0.1,0,0.1,0.1L51.3,31.3C51.4,31.2,51.4,31.3,51.3,31.3L51.3,31.3z
			 M51.3,30.6C51.3,30.6,51.2,30.6,51.3,30.6l-0.1-0.4c0,0,0-0.1,0.1-0.1s0.1,0,0.1,0.1L51.3,30.6C51.4,30.6,51.4,30.6,51.3,30.6
			L51.3,30.6z M51.3,30C51.2,30,51.2,30,51.3,30l-0.1-0.4c0,0,0-0.1,0.1-0.1s0.1,0,0.1,0.1L51.3,30C51.4,30,51.3,30,51.3,30L51.3,30
			z M51.3,29.4C51.2,29.4,51.2,29.4,51.3,29.4L51.2,29c0,0,0-0.1,0.1-0.1s0.1,0,0.1,0.1L51.3,29.4C51.4,29.4,51.3,29.4,51.3,29.4
			L51.3,29.4z M51.2,28.7L51.2,28.7l-0.1-0.4c0,0,0-0.1,0.1-0.1s0.1,0,0.1,0.1L51.2,28.7C51.3,28.7,51.3,28.7,51.2,28.7L51.2,28.7z
			 M51.1,28.1L51.1,28.1L51.1,28.1v-0.3c0,0,0-0.1,0.1-0.1s0.1,0,0.1,0.1v0.3H51.1L51.1,28.1z M51.2,27.5
			C51.2,27.5,51.1,27.5,51.2,27.5l-0.1-0.4c0,0,0-0.1,0.1-0.1s0.1,0,0.1,0.1L51.2,27.5C51.3,27.5,51.3,27.5,51.2,27.5L51.2,27.5z
			 M51.2,27C51.1,27,51.1,26.9,51.2,27l-0.1-0.4c0,0,0-0.1,0.1-0.1c0,0,0.1,0,0.1,0.1L51.2,27C51.3,26.9,51.2,27,51.2,27L51.2,27z
			 M51.2,26.3C51.1,26.3,51.1,26.3,51.2,26.3l-0.1-0.4c0,0,0-0.1,0.1-0.1c0,0,0.1,0,0.1,0.1L51.2,26.3L51.2,26.3L51.2,26.3z
			 M51.1,25.7C51.1,25.7,51.1,25.6,51.1,25.7L51,25.3c0,0,0-0.1,0.1-0.1s0.1,0,0.1,0.1L51.1,25.7C51.2,25.6,51.2,25.7,51.1,25.7
			L51.1,25.7z M51.1,25.1C51.1,25.1,51,25.1,51.1,25.1L51,24.7c0,0,0-0.1,0.1-0.1s0.1,0,0.1,0.1L51.1,25.1
			C51.2,25.1,51.2,25.1,51.1,25.1L51.1,25.1z M51.1,24.5C51,24.5,51,24.4,51.1,24.5L51,24.1c0,0,0-0.1,0.1-0.1s0.1,0,0.1,0.1
			L51.1,24.5C51.2,24.4,51.1,24.5,51.1,24.5L51.1,24.5z M51.1,23.8C51,23.8,51,23.8,51.1,23.8L51,23.5c0,0,0-0.1,0.1-0.1
			c0,0,0.1,0,0.1,0.1L51.1,23.8C51.2,23.8,51.1,23.8,51.1,23.8L51.1,23.8z M51.1,23.2C51,23.2,51,23.2,51.1,23.2L51,22.8
			c0,0,0-0.1,0.1-0.1s0.1,0,0.1,0.1L51.1,23.2L51.1,23.2L51.1,23.2z M51,22.6L51,22.6L51,22.2c0,0,0-0.1,0.1-0.1c0,0,0.1,0,0.1,0.1
			L51,22.6C51.1,22.6,51.1,22.6,51,22.6L51,22.6z M51,22C51,22,51,22,51,22L51,21.6c0,0,0-0.1,0.1-0.1c0,0,0.1,0,0.1,0.1L51,22
			C51.1,22,51.1,22,51,22L51,22z M51,21.4C51,21.4,51,21.3,51,21.4L51,21c0,0,0-0.1,0.1-0.1c0,0,0.1,0,0.1,0.1L51,21.4
			C51.1,21.3,51,21.4,51,21.4L51,21.4z M51,20.7C51,20.7,51,20.7,51,20.7L51,20.4c0,0,0-0.1,0.1-0.1s0.1,0,0.1,0.1L51,20.7
			C51.1,20.7,51,20.7,51,20.7L51,20.7z M51,20.2C51,20.2,51,20.1,51,20.2l-0.1-0.4c0,0,0-0.1,0.1-0.1s0.1,0,0.1,0.1L51,20.2
			C51,20.1,51,20.2,51,20.2C51,20.2,51,20.2,51,20.2z M51,19.5C51,19.5,50.9,19.5,51,19.5l-0.1-0.4c0,0,0-0.1,0.1-0.1
			c0,0,0.1,0,0.1,0.1L51,19.5C51,19.5,51,19.5,51,19.5L51,19.5z M51,19C51,19,50.9,18.9,51,19l-0.1-0.4c0,0,0-0.1,0.1-0.1
			s0.1,0,0.1,0.1L51,19C51,18.9,51,18.9,51,19L51,19z M51,18.3C50.9,18.3,50.9,18.2,51,18.3l-0.1-0.4c0,0,0-0.1,0.1-0.1
			s0.1,0,0.1,0.1L51,18.3C51,18.2,51,18.3,51,18.3L51,18.3z M51,17.6C50.9,17.6,50.9,17.6,51,17.6l-0.1-0.4c0,0,0-0.1,0.1-0.1
			c0,0,0.1,0,0.1,0.1L51,17.6C51,17.6,51,17.6,51,17.6z M51,17.1C50.9,17.1,50.9,17,51,17.1l-0.1-0.4c0,0,0-0.1,0.1-0.1
			c0,0,0.1,0,0.1,0.1L51,17.1C51,17,51,17.1,51,17.1z M51,16.4C50.9,16.4,50.9,16.4,51,16.4L50.9,16c0,0,0-0.1,0.1-0.1
			c0,0,0.1,0,0.1,0.1L51,16.4C51,16.4,51,16.4,51,16.4z M51,15.9L51,15.9C50.9,15.9,50.9,15.8,51,15.9c-0.1-0.2,0-0.3,0-0.4
			c0,0,0.1-0.1,0.1,0c0,0,0.1,0.1,0,0.1C51,15.6,51,15.7,51,15.9C51,15.8,51,15.9,51,15.9z M51.1,15.2L51.1,15.2
			C51,15.2,51,15.1,51.1,15.2c0-0.2,0-0.3,0.1-0.4h0.1v0.1C51.3,15,51.2,15.1,51.1,15.2C51.2,15.2,51.1,15.2,51.1,15.2z M51.6,14.8
			C51.5,14.8,51.5,14.8,51.6,14.8c-0.1-0.1-0.1-0.1,0-0.2c0.1,0,0.2-0.1,0.3-0.1H52v0.1C51.8,14.7,51.7,14.7,51.6,14.8L51.6,14.8z
			 M52.2,14.6C52.1,14.6,52.1,14.6,52.2,14.6c-0.1-0.1,0-0.1,0-0.2c0.1,0,0.2,0,0.3,0c0,0,0.1,0,0.1,0.1s0,0.1-0.1,0.1
			C52.4,14.6,52.3,14.6,52.2,14.6L52.2,14.6z M52.8,14.5C52.7,14.5,52.7,14.5,52.8,14.5c-0.1-0.1,0-0.2,0-0.2c0.1,0,0.2,0,0.3,0
			c0,0,0.1,0,0.1,0.1s0,0.1-0.1,0.1C53,14.5,52.9,14.5,52.8,14.5L52.8,14.5z M53.4,14.5C53.4,14.5,53.3,14.5,53.4,14.5
			c-0.1-0.1,0-0.2,0-0.2h0.3c0,0,0.1,0,0.1,0.1c0,0,0,0.1-0.1,0.1L53.4,14.5L53.4,14.5z M54,14.5C54,14.5,54,14.4,54,14.5
			c-0.1-0.1,0-0.2,0-0.2h0.3c0,0,0.1,0,0.1,0.1c0,0,0,0.1-0.1,0.1L54,14.5L54,14.5z M54.6,14.5C54.6,14.5,54.5,14.4,54.6,14.5
			c-0.1-0.1,0-0.2,0-0.2h0.3c0,0,0.1,0,0.1,0.1s0,0.1-0.1,0.1L54.6,14.5L54.6,14.5z M55.3,14.4C55.2,14.4,55.2,14.4,55.3,14.4
			c-0.1-0.1,0-0.2,0-0.2h0.3c0,0,0.1,0,0.1,0.1c0,0,0,0.1-0.1,0.1L55.3,14.4L55.3,14.4z M55.8,14.4C55.8,14.4,55.8,14.4,55.8,14.4
			c-0.1-0.1,0-0.2,0-0.2h0.3c0,0,0.1,0,0.1,0.1s0,0.1-0.1,0.1L55.8,14.4L55.8,14.4z M56.5,14.4C56.5,14.4,56.4,14.4,56.5,14.4
			c-0.1-0.1,0-0.2,0-0.2h0.3c0,0,0.1,0,0.1,0.1s0,0.1-0.1,0.1L56.5,14.4L56.5,14.4z M57.2,14.4C57.1,14.4,57.1,14.3,57.2,14.4
			c-0.1-0.1,0-0.2,0-0.2h0.3c0,0,0.1,0,0.1,0.1c0,0,0,0.1-0.1,0.1L57.2,14.4L57.2,14.4z M57.7,14.4C57.7,14.4,57.6,14.3,57.7,14.4
			c-0.1-0.1,0-0.2,0-0.2H58c0,0,0.1,0,0.1,0.1c0,0,0,0.1-0.1,0.1L57.7,14.4L57.7,14.4z M58.4,14.4C58.3,14.4,58.3,14.3,58.4,14.4
			c-0.1-0.1,0-0.2,0-0.2h0.3c0,0,0.1,0,0.1,0.1s0,0.1-0.1,0.1L58.4,14.4L58.4,14.4z M58.9,14.3C58.9,14.3,58.8,14.3,58.9,14.3
			c-0.1-0.1,0-0.2,0-0.2l0,0C58.9,14.2,59,14.2,58.9,14.3C59.1,14.3,59,14.3,58.9,14.3L58.9,14.3L58.9,14.3z"/>
	</g>
	<g id="XMLID_1900_">
		<path id="XMLID_821_" class="st0" d="M51,52L51,52h-0.3c0,0-0.1,0-0.1-0.1s0-0.1,0.1-0.1H51C51,51.8,51,51.9,51,52
			C51,52,51,52,51,52z M50.3,51.9L50.3,51.9H50c0,0-0.1,0-0.1-0.1c0,0,0-0.1,0.1-0.1h0.3C50.4,51.7,50.4,51.8,50.3,51.9
			C50.4,51.9,50.4,51.9,50.3,51.9z M49.7,51.8L49.7,51.8h-0.3c0,0-0.1,0-0.1-0.1c0,0,0-0.1,0.1-0.1h0.3
			C49.8,51.6,49.8,51.7,49.7,51.8C49.8,51.8,49.7,51.8,49.7,51.8z M49.1,51.7L49.1,51.7h-0.3c0,0-0.1,0-0.1-0.1c0,0,0-0.1,0.1-0.1
			h0.3C49.2,51.5,49.2,51.6,49.1,51.7C49.2,51.7,49.2,51.7,49.1,51.7z M48.5,51.6L48.5,51.6h-0.3c0,0-0.1,0-0.1-0.1
			c0,0,0-0.1,0.1-0.1h0.3C48.6,51.4,48.6,51.5,48.5,51.6C48.6,51.5,48.5,51.6,48.5,51.6z M47.8,51.5L47.8,51.5h-0.3
			c0,0-0.1,0-0.1-0.1c0,0,0-0.1,0.1-0.1h0.3C47.9,51.3,47.9,51.3,47.8,51.5C47.9,51.4,47.9,51.5,47.8,51.5z M47.3,51.4L47.3,51.4H47
			c0,0-0.1,0-0.1-0.1c0,0,0-0.1,0.1-0.1h0.3C47.4,51.2,47.4,51.2,47.3,51.4C47.4,51.3,47.3,51.4,47.3,51.4z M46.6,51.3
			C46.6,51.3,46.6,51.2,46.6,51.3h-0.3v-0.1v-0.1h0.3C46.7,51.1,46.7,51.1,46.6,51.3C46.7,51.2,46.7,51.3,46.6,51.3z M46.1,51.1
			L46.1,51.1h-0.3c0,0-0.1,0-0.1-0.1c0,0,0-0.1,0.1-0.1h0.3C46.2,51,46.2,51,46.1,51.1C46.2,51.1,46.1,51.1,46.1,51.1z M45.4,51
			L45.4,51h-0.3c0,0-0.1,0-0.1-0.1c0,0,0-0.1,0.1-0.1h0.3C45.5,50.9,45.5,50.9,45.4,51C45.5,51,45.5,51,45.4,51z M44.8,50.9
			L44.8,50.9h-0.3c0,0-0.1,0-0.1-0.1c0,0,0-0.1,0.1-0.1h0.3C44.9,50.8,44.9,50.8,44.8,50.9C44.9,50.9,44.8,50.9,44.8,50.9z
			 M44.2,50.8L44.2,50.8h-0.3c0,0-0.1,0-0.1-0.1c0,0,0-0.1,0.1-0.1h0.3C44.3,50.7,44.3,50.7,44.2,50.8
			C44.3,50.8,44.3,50.8,44.2,50.8z M43.6,50.7L43.6,50.7h-0.3c0,0-0.1,0-0.1-0.1c0,0,0-0.1,0.1-0.1h0.3
			C43.7,50.7,43.7,50.7,43.6,50.7C43.7,50.7,43.6,50.7,43.6,50.7z M43,50.7C43,50.7,43,50.7,43,50.7h-0.3c0,0-0.1,0-0.1-0.1
			c0,0,0-0.1,0.1-0.1H43C43,50.5,43.1,50.5,43,50.7L43,50.7z M42.4,50.5L42.4,50.5h-0.3c0,0-0.1,0-0.1-0.1c0,0,0-0.1,0.1-0.1h0.3
			C42.5,50.4,42.5,50.5,42.4,50.5C42.5,50.5,42.4,50.5,42.4,50.5z M41.8,50.5C41.8,50.5,41.7,50.5,41.8,50.5l-0.3-0.1
			c0,0-0.1,0-0.1-0.1c0,0,0-0.1,0.1-0.1h0.3C41.8,50.3,41.9,50.3,41.8,50.5L41.8,50.5z M41.2,50.4L41.2,50.4l-0.3-0.1
			c0,0-0.1,0-0.1-0.1c0,0,0-0.1,0.1-0.1l0.3,0.1C41.3,50.2,41.3,50.3,41.2,50.4C41.3,50.3,41.2,50.4,41.2,50.4z M40.6,50.2
			C40.6,50.2,40.5,50.2,40.6,50.2L40.6,50.2c-0.1,0-0.2,0-0.3-0.1c0,0-0.1,0-0.1-0.1c0,0,0-0.1,0.1-0.1s0.2,0,0.3,0l0,0
			C40.6,50.1,40.7,50.1,40.6,50.2L40.6,50.2z M40,50.1L40,50.1h-0.3c0,0-0.1,0-0.1-0.1c0,0,0-0.1,0.1-0.1H40C40,50,40,50,40,50.1
			C40,50.1,40,50.1,40,50.1z M39.4,50C39.4,50,39.3,50,39.4,50c-0.1,0-0.2,0-0.3,0c0,0-0.1,0-0.1-0.1c0,0,0-0.1,0.1-0.1s0.2,0,0.3,0
			C39.4,49.9,39.5,49.9,39.4,50L39.4,50z M38.7,50L38.7,50c-0.1,0-0.2,0-0.3-0.1c0,0-0.1,0-0.1-0.1c0,0,0-0.1,0.1-0.1s0.2,0,0.3,0.1
			C38.8,49.8,38.8,49.8,38.7,50C38.8,49.9,38.8,50,38.7,50z M38.2,49.8L38.2,49.8c-0.1,0-0.2-0.1-0.3-0.1c0,0-0.1-0.1,0-0.1
			c0,0,0.1-0.1,0.1,0C38.1,49.6,38.2,49.7,38.2,49.8C38.2,49.7,38.2,49.7,38.2,49.8C38.2,49.8,38.2,49.8,38.2,49.8z M37.5,49.6
			L37.5,49.6c-0.1,0-0.2-0.1-0.3-0.1v-0.1h0.1C37.4,49.4,37.5,49.5,37.5,49.6C37.6,49.5,37.6,49.5,37.5,49.6
			C37.6,49.6,37.6,49.6,37.5,49.6z M37,49.3C37,49.3,36.9,49.3,37,49.3c-0.1-0.1-0.2-0.1-0.3-0.2v-0.1h0.1
			C36.9,49.1,37,49.1,37,49.3C37,49.2,37.1,49.2,37,49.3L37,49.3z M36.5,49L36.5,49c-0.1-0.1-0.2-0.2-0.3-0.3v-0.1h0.1
			c0.1,0.1,0.1,0.1,0.2,0.2C36.6,48.9,36.6,49,36.5,49C36.6,49,36.6,49,36.5,49z M36.1,48.5L36.1,48.5c-0.1-0.1-0.2-0.2-0.2-0.3
			v-0.1H36C36,48.2,36.1,48.3,36.1,48.5C36.2,48.4,36.2,48.5,36.1,48.5L36.1,48.5z M35.8,48C35.7,48,35.7,48,35.8,48
			c-0.1-0.1-0.2-0.2-0.2-0.4v-0.1h0.1c0,0.1,0.1,0.2,0.1,0.3C35.9,47.9,35.8,47.9,35.8,48L35.8,48z M35.5,47.5
			C35.5,47.5,35.5,47.3,35.5,47.5c-0.1-0.1-0.1-0.3-0.2-0.4c0,0,0-0.1,0.1-0.1s0.1,0,0.1,0.1C35.5,47.2,35.6,47.3,35.5,47.5
			C35.6,47.3,35.6,47.5,35.5,47.5L35.5,47.5z M35.4,46.8C35.3,46.8,35.3,46.8,35.4,46.8c-0.1-0.2-0.1-0.3-0.1-0.4c0,0,0-0.1,0.1-0.1
			c0,0,0.1,0,0.1,0.1s0,0.2,0,0.3C35.5,46.8,35.4,46.8,35.4,46.8L35.4,46.8z M35.3,46.2C35.2,46.2,35.2,46.1,35.3,46.2
			c-0.1-0.2-0.1-0.3-0.1-0.4c0,0,0-0.1,0.1-0.1s0.1,0,0.1,0.1C35.3,45.9,35.3,46,35.3,46.2C35.3,46.1,35.3,46.2,35.3,46.2L35.3,46.2
			z M35.2,45.6C35.2,45.6,35.2,45.6,35.2,45.6c-0.1-0.2-0.1-0.3-0.1-0.4c0,0,0-0.1,0.1-0.1l0,0c0,0,0.1,0,0.1,0.1
			C35.3,45.3,35.3,45.4,35.2,45.6C35.3,45.6,35.3,45.6,35.2,45.6L35.2,45.6z M35.2,45L35.2,45C35.2,45,35.2,44.9,35.2,45l-0.1-0.4
			c0,0,0-0.1,0.1-0.1s0.1,0,0.1,0.1L35.2,45C35.3,44.9,35.3,45,35.2,45z M35.2,44.3L35.2,44.3C35.2,44.3,35.2,44.3,35.2,44.3
			L35.2,44c0,0,0-0.1,0.1-0.1c0,0,0.1,0,0.1,0.1L35.2,44.3C35.3,44.3,35.3,44.3,35.2,44.3z M35.2,43.8L35.2,43.8
			C35.2,43.8,35.2,43.7,35.2,43.8v-0.5c0,0,0-0.1,0.1-0.1s0.1,0,0.1,0.1L35.2,43.8C35.3,43.7,35.3,43.8,35.2,43.8z M35.3,43.1
			L35.3,43.1C35.2,43.1,35.2,43.1,35.3,43.1l-0.1-0.4c0,0,0-0.1,0.1-0.1c0,0,0.1,0,0.1,0.1L35.3,43.1L35.3,43.1z M35.3,42.5
			L35.3,42.5C35.2,42.5,35.2,42.5,35.3,42.5l-0.1-0.4c0,0,0-0.1,0.1-0.1s0.1,0,0.1,0.1L35.3,42.5L35.3,42.5z M35.3,41.9L35.3,41.9
			C35.2,41.9,35.2,41.9,35.3,41.9l-0.1-0.4c0,0,0-0.1,0.1-0.1c0,0,0.1,0,0.1,0.1L35.3,41.9C35.4,41.9,35.3,41.9,35.3,41.9z
			 M35.3,41.2L35.3,41.2C35.2,41.2,35.2,41.2,35.3,41.2l-0.1-0.4c0,0,0-0.1,0.1-0.1c0,0,0.1,0,0.1,0.1L35.3,41.2
			C35.4,41.2,35.3,41.2,35.3,41.2z M35.3,40.7L35.3,40.7C35.3,40.7,35.2,40.6,35.3,40.7l-0.1-0.4c0,0,0-0.1,0.1-0.1s0.1,0,0.1,0.1
			L35.3,40.7C35.4,40.6,35.3,40.7,35.3,40.7z M35.3,40L35.3,40C35.3,40,35.2,40,35.3,40l-0.1-0.4c0,0,0-0.1,0.1-0.1l0,0
			c0,0,0.1,0,0.1,0.1L35.3,40C35.4,40,35.3,40,35.3,40z M35.3,39.5L35.3,39.5C35.3,39.5,35.2,39.4,35.3,39.5l-0.1-0.4
			c0,0,0-0.1,0.1-0.1c0,0,0.1,0,0.1,0.1L35.3,39.5C35.4,39.4,35.4,39.5,35.3,39.5z M35.3,38.8L35.3,38.8L35.3,38.8l-0.1-0.4
			c0,0,0-0.1,0.1-0.1l0,0c0,0,0.1,0,0.1,0.1L35.3,38.8C35.4,38.8,35.4,38.8,35.3,38.8z M35.3,38.2L35.3,38.2
			C35.3,38.2,35.3,38.1,35.3,38.2l-0.1-0.4c0,0,0-0.1,0.1-0.1l0,0c0,0,0.1,0,0.1,0.1L35.3,38.2C35.4,38.1,35.4,38.2,35.3,38.2z
			 M35.3,37.6L35.3,37.6L35.3,37.6l-0.1-0.4c0,0,0-0.1,0.1-0.1c0,0,0.1,0,0.1,0.1L35.3,37.6C35.4,37.6,35.4,37.6,35.3,37.6z
			 M35.3,36.9L35.3,36.9L35.3,36.9l-0.1-0.4c0,0,0-0.1,0.1-0.1l0,0c0,0,0.1,0,0.1,0.1L35.3,36.9C35.4,36.9,35.4,36.9,35.3,36.9z
			 M35.3,36.3L35.3,36.3L35.2,36c0,0,0-0.1,0.1-0.1l0,0c0,0,0.1,0,0.1,0.1L35.3,36.3C35.4,36.3,35.4,36.3,35.3,36.3z M35.3,35.7
			L35.3,35.7l-0.1-0.4c0,0,0-0.1,0.1-0.1l0,0c0,0,0.1,0,0.1,0.1L35.3,35.7C35.4,35.7,35.4,35.7,35.3,35.7L35.3,35.7z M35.3,35.1
			C35.3,35.1,35.3,35,35.3,35.1l-0.1-0.4c0,0,0-0.1,0.1-0.1l0,0c0,0,0.1,0,0.1,0.1L35.3,35.1C35.4,35,35.4,35.1,35.3,35.1L35.3,35.1
			z M35.3,34.5L35.3,34.5l-0.1-0.4h0.2L35.3,34.5C35.4,34.5,35.4,34.5,35.3,34.5L35.3,34.5z M35.3,33.9
			C35.3,33.9,35.3,33.8,35.3,33.9l-0.1-0.4c0,0,0-0.1,0.1-0.1l0,0c0,0,0.1,0,0.1,0.1L35.3,33.9C35.4,33.8,35.4,33.9,35.3,33.9
			L35.3,33.9z M35.3,33.2C35.3,33.2,35.2,33.2,35.3,33.2l-0.1-0.4h0.1h0.1L35.3,33.2C35.4,33.2,35.4,33.2,35.3,33.2L35.3,33.2z
			 M35.3,32.6C35.3,32.6,35.2,32.6,35.3,32.6l-0.1-0.4c0,0,0-0.1,0.1-0.1c0,0,0.1,0,0.1,0.1L35.3,32.6
			C35.4,32.6,35.4,32.6,35.3,32.6L35.3,32.6z M35.3,32C35.3,32,35.2,32,35.3,32l-0.1-0.4h0.1h0.1L35.3,32C35.4,32,35.3,32,35.3,32
			L35.3,32z M35.3,31.4C35.2,31.4,35.2,31.4,35.3,31.4L35.2,31c0,0,0-0.1,0.1-0.1c0,0,0.1,0,0.1,0.1L35.3,31.4
			C35.4,31.4,35.3,31.4,35.3,31.4L35.3,31.4z M35.3,30.8C35.2,30.8,35.2,30.7,35.3,30.8l-0.1-0.4c0,0,0-0.1,0.1-0.1
			c0,0,0.1,0,0.1,0.1L35.3,30.8C35.3,30.7,35.3,30.8,35.3,30.8L35.3,30.8z M35.3,30.1C35.2,30.1,35.2,30.1,35.3,30.1l-0.1-0.4
			c0,0,0-0.1,0.1-0.1s0.1,0,0.1,0.1L35.3,30.1L35.3,30.1L35.3,30.1z M35.2,29.6C35.2,29.6,35.2,29.5,35.2,29.6l-0.1-0.4
			c0,0,0-0.1,0.1-0.1s0.1,0,0.1,0.1L35.2,29.6C35.3,29.5,35.3,29.6,35.2,29.6L35.2,29.6z M35.2,28.9C35.2,28.9,35.2,28.9,35.2,28.9
			l-0.1-0.4c0,0,0-0.1,0.1-0.1s0.1,0,0.1,0.1L35.2,28.9C35.3,28.9,35.3,28.9,35.2,28.9L35.2,28.9z M35.2,28.4
			C35.2,28.4,35.2,28.3,35.2,28.4L35.2,28c0,0,0-0.1,0.1-0.1c0,0,0.1,0,0.1,0.1L35.2,28.4C35.3,28.3,35.2,28.4,35.2,28.4L35.2,28.4z
			 M35.2,27.7C35.2,27.7,35.2,27.7,35.2,27.7l-0.1-0.4c0,0,0-0.1,0.1-0.1s0.1,0,0.1,0.1L35.2,27.7L35.2,27.7L35.2,27.7z M35.2,27.1
			C35.2,27.1,35.2,27,35.2,27.1l-0.1-0.4c0,0,0-0.1,0.1-0.1s0.1,0,0.1,0.1L35.2,27.1C35.2,27,35.2,27,35.2,27.1L35.2,27.1z
			 M35.2,26.5C35.1,26.5,35.1,26.5,35.2,26.5l-0.1-0.4c0,0,0-0.1,0.1-0.1s0.1,0,0.1,0.1L35.2,26.5C35.2,26.5,35.2,26.5,35.2,26.5
			L35.2,26.5z M35.2,25.8C35.1,25.8,35.1,25.8,35.2,25.8l-0.1-0.4c0,0,0-0.1,0.1-0.1s0,0.1,0,0.1V25.8L35.2,25.8L35.2,25.8z
			 M35.1,25.2C35.1,25.2,35,25.2,35.1,25.2L35,24.9c0,0,0-0.1,0.1-0.1s0.1,0,0.1,0.1L35.1,25.2C35.2,25.2,35.2,25.2,35.1,25.2
			L35.1,25.2z M35.1,24.6C35,24.6,35,24.6,35.1,24.6L35,24.2c0,0,0-0.1,0.1-0.1s0.1,0,0.1,0.1L35.1,24.6
			C35.2,24.6,35.1,24.6,35.1,24.6L35.1,24.6z M35,24C35,24,34.9,23.9,35,24l-0.1-0.4c0,0,0-0.1,0.1-0.1s0.1,0,0.1,0.1L35,24
			C35.1,23.9,35.1,24,35,24L35,24z M35,23.4C34.9,23.4,34.9,23.4,35,23.4L34.9,23c0,0,0-0.1,0.1-0.1s0.1,0,0.1,0.1L35,23.4
			C35.1,23.4,35,23.4,35,23.4L35,23.4z M34.9,22.8C34.9,22.8,34.8,22.7,34.9,22.8l-0.1-0.4c0,0,0-0.1,0.1-0.1s0.1,0,0.1,0.1
			L34.9,22.8C35,22.7,35,22.8,34.9,22.8L34.9,22.8z M34.9,22.1C34.8,22.1,34.8,22.1,34.9,22.1l-0.1-0.4c0,0,0-0.1,0.1-0.1
			c0,0,0.1,0,0.1,0.1L34.9,22.1C35,22.1,34.9,22.1,34.9,22.1L34.9,22.1z M34.8,21.6C34.8,21.6,34.7,21.5,34.8,21.6l-0.1-0.4
			c0,0,0-0.1,0.1-0.1c0,0,0.1,0,0.1,0.1L34.8,21.6C34.9,21.5,34.9,21.6,34.8,21.6L34.8,21.6z M34.7,20.9L34.7,20.9l-0.1-0.4
			c0,0,0-0.1,0.1-0.1c0,0,0.1,0,0.1,0.1L34.7,20.9C34.8,20.8,34.8,20.9,34.7,20.9L34.7,20.9z M34.7,20.3
			C34.6,20.3,34.6,20.3,34.7,20.3l-0.1-0.4c0,0,0-0.1,0.1-0.1c0,0,0.1,0,0.1,0.1L34.7,20.3C34.8,20.3,34.7,20.3,34.7,20.3L34.7,20.3
			z M34.6,19.7C34.6,19.7,34.5,19.7,34.6,19.7c-0.1-0.2-0.1-0.3-0.1-0.4c0,0,0-0.1,0.1-0.1c0,0,0.1,0,0.1,0.1
			C34.7,19.4,34.7,19.5,34.6,19.7C34.7,19.7,34.7,19.7,34.6,19.7L34.6,19.7z M34.5,19L34.5,19c-0.1-0.2-0.1-0.3-0.1-0.4
			c0,0,0-0.1,0.1-0.1c0,0,0.1,0,0.1,0.1S34.6,19,34.5,19C34.6,19,34.6,19,34.5,19L34.5,19z M34.4,18.5L34.4,18.5
			c-0.1-0.2-0.1-0.3-0.1-0.4c0,0,0-0.1,0.1-0.1c0,0,0.1,0,0.1,0.1C34.5,18.2,34.5,18.3,34.4,18.5C34.5,18.4,34.5,18.5,34.4,18.5
			L34.4,18.5z M34.3,17.9C34.3,17.9,34.3,17.8,34.3,17.9c-0.1-0.2-0.1-0.3-0.1-0.4v-0.1h0.1C34.3,17.5,34.4,17.6,34.3,17.9
			C34.4,17.8,34.4,17.8,34.3,17.9L34.3,17.9z M34.1,17.3L34.1,17.3C34,17.2,34,17,33.9,17v-0.1H34C34.2,17,34.2,17.1,34.1,17.3
			C34.2,17.3,34.2,17.3,34.1,17.3C34.2,17.3,34.1,17.3,34.1,17.3z M33.9,16.7C33.9,16.7,33.8,16.7,33.9,16.7
			c-0.1-0.1-0.2-0.2-0.2-0.3v-0.1h0.1C33.9,16.4,33.9,16.5,33.9,16.7C34,16.6,34,16.7,33.9,16.7L33.9,16.7z M25.9,16.3
			C25.9,16.3,25.8,16.3,25.9,16.3c-0.1-0.1,0-0.2,0-0.2h0.3c0,0,0.1,0,0.1,0.1c0,0,0,0.1-0.1,0.1L25.9,16.3L25.9,16.3z M26.6,16.3
			C26.5,16.3,26.5,16.2,26.6,16.3c-0.1-0.1,0-0.2,0-0.2h0.3c0,0,0.1,0,0.1,0.1s0,0.1-0.1,0.1L26.6,16.3L26.6,16.3z M27.2,16.2
			C27.2,16.2,27.1,16.2,27.2,16.2c-0.1-0.1,0-0.2,0-0.2h0.3c0,0,0.1,0,0.1,0.1c0,0,0,0.1-0.1,0.1L27.2,16.2L27.2,16.2z M27.8,16.2
			C27.7,16.2,27.7,16.2,27.8,16.2c-0.1-0.1,0-0.2,0-0.2h0.3c0,0,0.1,0,0.1,0.1s0,0.1-0.1,0.1L27.8,16.2L27.8,16.2z M33.5,16.2
			L33.5,16.2c-0.1-0.1-0.2-0.2-0.3-0.2v-0.1h0.1C33.5,15.9,33.5,16,33.5,16.2C33.6,16.1,33.6,16.1,33.5,16.2L33.5,16.2z M28.4,16.1
			C28.4,16.1,28.3,16.1,28.4,16.1c-0.1-0.1,0-0.2,0-0.2h0.3c0,0,0.1,0,0.1,0.1c0,0,0,0.1-0.1,0.1L28.4,16.1L28.4,16.1z M29,16.1
			C28.9,16.1,28.9,16.1,29,16.1c-0.1-0.1,0-0.2,0-0.2h0.3c0,0,0.1,0,0.1,0.1c0,0.1,0,0.1-0.1,0.1L29,16.1L29,16.1z M29.6,16.1
			C29.6,16.1,29.5,16,29.6,16.1c-0.1-0.1,0-0.2,0-0.2h0.3c0,0,0.1,0,0.1,0.1c0,0,0,0.1-0.1,0.1L29.6,16.1L29.6,16.1z M30.3,16
			C30.2,16,30.2,16,30.3,16c-0.1-0.1,0-0.2,0-0.2h0.3c0,0,0.1,0,0.1,0.1c0,0,0,0.1-0.1,0.1L30.3,16L30.3,16z M30.8,16L30.8,16
			c-0.1-0.1,0-0.2,0-0.2h0.3c0,0,0.1,0,0.1,0.1c0,0,0,0.1-0.1,0.1L30.8,16L30.8,16z M31.5,15.9C31.5,15.9,31.4,15.9,31.5,15.9
			c-0.1-0.1,0-0.2,0-0.2h0.1h0.2c0,0,0.1,0,0.1,0.1c0,0,0,0.1-0.1,0.1L31.5,15.9L31.5,15.9z M33,15.9h-0.3c0,0-0.1,0-0.1-0.1
			c0,0,0-0.1,0.1-0.1H33C33.1,15.9,33.1,15.9,33,15.9C33.1,15.9,33.1,15.9,33,15.9z M32.4,15.9h-0.3c0,0-0.1,0-0.1-0.1
			c0,0,0-0.1,0.1-0.1h0.3C32.4,15.9,32.5,15.9,32.4,15.9C32.5,15.9,32.4,15.9,32.4,15.9z"/>
	</g>
	<g id="XMLID_1901_">
		<path id="XMLID_752_" class="st0" d="M50.9,51.2L50.9,51.2h-0.3c-0.1,0-0.1-0.1-0.1-0.2s0.1-0.1,0.2-0.1H51c0.1,0,0.1,0.1,0.1,0.2
			C51,51.1,51,51.2,50.9,51.2z M50.2,51.1L50.2,51.1h-0.3c-0.1,0-0.1-0.1-0.1-0.2c0-0.1,0.1-0.1,0.2-0.1h0.3c0.1,0,0.1,0.1,0.1,0.2
			C50.4,51,50.3,51.1,50.2,51.1z M49.6,51L49.6,51h-0.3c-0.1,0-0.1-0.1-0.1-0.2c0-0.1,0.1-0.1,0.2-0.1h0.3c0.1,0,0.1,0.1,0.1,0.2
			C49.7,50.9,49.7,51,49.6,51z M49,50.9L49,50.9h-0.3c-0.1,0-0.1-0.1-0.1-0.2c0-0.1,0.1-0.1,0.2-0.1h0.3c0.1,0,0.1,0.1,0.1,0.2
			C49.2,50.9,49.1,50.9,49,50.9z M48.4,50.8L48.4,50.8h-0.3c-0.1,0-0.1-0.1-0.1-0.2c0-0.1,0.1-0.1,0.2-0.1h0.3
			c0.1,0,0.1,0.1,0.1,0.2C48.5,50.8,48.5,50.8,48.4,50.8z M47.8,50.7L47.8,50.7h-0.3c-0.1,0-0.1-0.1-0.1-0.2s0.1-0.1,0.2-0.1h0.3
			c0.1,0,0.1,0.1,0.1,0.2C47.9,50.7,47.8,50.7,47.8,50.7z M47.2,50.7L47.2,50.7h-0.3v-0.3v0.2v-0.2h0.3
			C47.3,50.4,47.3,50.5,47.2,50.7C47.3,50.7,47.3,50.7,47.2,50.7z M46.5,50.5L46.5,50.5h-0.3c-0.1,0-0.1-0.1-0.1-0.2
			c0-0.1,0.1-0.1,0.2-0.1h0.3c0.1,0,0.1,0.1,0.1,0.2C46.7,50.5,46.6,50.5,46.5,50.5z M46,50.5L46,50.5h-0.3c-0.1,0-0.1-0.1-0.1-0.2
			c0-0.1,0.1-0.1,0.2-0.1h0.3c0.1,0,0.1,0.1,0.1,0.2C46.1,50.5,46.1,50.5,46,50.5z M45.3,50.5L45.3,50.5H45c-0.1,0-0.1-0.1-0.1-0.2
			c0-0.1,0.1-0.1,0.2-0.1h0.3c0.1,0,0.1,0.1,0.1,0.2C45.5,50.4,45.4,50.5,45.3,50.5z M44.7,50.4L44.7,50.4h-0.3
			c-0.1,0-0.1-0.1-0.1-0.2c0-0.1,0.1-0.1,0.2-0.1h0.3c0.1,0,0.1,0.1,0.1,0.2C44.8,50.3,44.8,50.4,44.7,50.4z M44.1,50.3L44.1,50.3
			h-0.3c-0.1,0-0.1-0.1-0.1-0.2s0.1-0.1,0.2-0.1h0.3c0.1,0,0.1,0.1,0.1,0.2C44.3,50.2,44.2,50.3,44.1,50.3z M43.5,50.2L43.5,50.2
			h-0.3c-0.1,0-0.1-0.1-0.1-0.2c0-0.1,0.1-0.1,0.2-0.1h0.3c0.1,0,0.1,0.1,0.1,0.2C43.6,50.1,43.6,50.2,43.5,50.2z M42.9,50.1
			L42.9,50.1h-0.3c-0.1,0-0.1-0.1-0.1-0.2c0-0.1,0.1-0.1,0.2-0.1H43c0.1,0,0.1,0.1,0.1,0.2C43,50,43,50.1,42.9,50.1z M42.3,50
			L42.3,50H42c-0.1,0-0.1-0.1-0.1-0.2c0-0.1,0.1-0.1,0.2-0.1h0.3c0.1,0,0.1,0.1,0.1,0.2C42.4,49.9,42.4,50,42.3,50z M41.6,49.9
			L41.6,49.9h-0.4c-0.1,0-0.1-0.1-0.1-0.2c0-0.1,0.1-0.1,0.2-0.1h0.3C41.7,49.6,41.7,49.7,41.6,49.9C41.8,49.8,41.7,49.9,41.6,49.9z
			 M41.1,49.8L41.1,49.8c-0.1,0-0.2,0-0.4-0.1c-0.1,0-0.1-0.1-0.1-0.2c0-0.1,0.1-0.1,0.2-0.1s0.2,0,0.3,0s0.1,0.1,0.1,0.2
			C41.2,49.7,41.2,49.8,41.1,49.8z M40.4,49.7L40.4,49.7c-0.1,0-0.2,0-0.4-0.1c-0.1,0-0.1-0.1-0.1-0.2c0-0.1,0.1-0.1,0.2-0.1
			c0.1,0,0.2,0,0.3,0.1C40.5,49.4,40.5,49.5,40.4,49.7C40.6,49.6,40.5,49.7,40.4,49.7z M39.8,49.5L39.8,49.5c-0.1,0-0.2,0-0.4-0.1
			c-0.1,0-0.1-0.1-0.1-0.2c0-0.1,0.1-0.1,0.2-0.1s0.2,0,0.3,0.1C39.9,49.2,39.9,49.3,39.8,49.5C40,49.5,40,49.5,39.8,49.5z
			 M39.3,49.4C39.2,49.4,39.2,49.4,39.3,49.4c-0.1,0-0.2,0-0.4-0.1c-0.1,0-0.1-0.1-0.1-0.2S38.9,49,39,49c0.1,0,0.2,0,0.3,0.1
			C39.4,49.1,39.4,49.2,39.3,49.4L39.3,49.4z M38.6,49.2L38.6,49.2c-0.2,0-0.3-0.1-0.4-0.1c-0.1,0-0.1-0.1-0.1-0.2
			c0-0.1,0.1-0.1,0.2-0.1c0.1,0,0.2,0,0.3,0.1C38.7,49,38.7,49.1,38.6,49.2C38.8,49.2,38.7,49.2,38.6,49.2z M38.1,49L38.1,49
			c-0.2,0-0.3-0.1-0.4-0.1c-0.1,0-0.1-0.1-0.1-0.2c0-0.1,0.1-0.1,0.2-0.1s0.2,0,0.3,0.1C38.1,48.8,38.1,48.9,38.1,49
			C38.2,49,38.2,49,38.1,49z M37.5,49C37.4,49,37.4,49,37.5,49L37.5,49c-0.2-0.1-0.3-0.1-0.4-0.2c-0.1,0-0.1-0.1,0-0.2l0,0l0,0
			c-0.1,0.1-0.2,0.1-0.2,0c-0.1-0.1-0.2-0.2-0.2-0.3c-0.1-0.1,0-0.2,0-0.2l0,0l0,0c-0.1,0-0.2,0-0.2,0c-0.1-0.1-0.1-0.2-0.2-0.3
			c0-0.1,0-0.2,0.1-0.2l0,0l0,0c-0.1,0-0.2,0-0.2-0.1s-0.1-0.2-0.1-0.3s0-0.2,0.1-0.2s0.2,0,0.2,0.1s0.1,0.2,0.1,0.3s0,0.2-0.1,0.2
			c0.1,0,0.2,0,0.2,0.1s0.1,0.2,0.1,0.3s0,0.2,0,0.2c0.1,0,0.2,0,0.2,0c0.1,0.1,0.1,0.1,0.2,0.2c0.1,0,0.1,0.1,0,0.2
			c0-0.1,0.1-0.1,0.2,0c0.1,0.1,0.1,0.1,0.2,0.1l0,0C37.6,48.7,37.6,48.8,37.5,49C37.6,48.9,37.5,49,37.5,49z M36.1,47
			c-0.1,0-0.1,0-0.2-0.1c0-0.1,0-0.2-0.1-0.3c0-0.1,0-0.2,0.1-0.2s0.2,0,0.2,0.1s0,0.2,0.1,0.3C36.3,46.9,36.2,47,36.1,47L36.1,47z
			 M36,46.4c-0.1,0-0.1-0.1-0.2-0.1c0-0.1,0-0.2,0-0.3s0.1-0.2,0.1-0.2c0.1,0,0.2,0.1,0.2,0.1c0,0.1,0,0.2,0,0.3
			C36.2,46.3,36.1,46.3,36,46.4L36,46.4z M35.9,45.8c-0.1,0-0.2-0.1-0.2-0.1c0-0.1,0-0.2,0-0.3s0.1-0.2,0.2-0.2s0.2,0.1,0.2,0.2
			c0,0.1,0,0.2,0,0.3C36.1,45.7,36,45.8,35.9,45.8L35.9,45.8z M35.9,45.1L35.9,45.1c-0.1,0-0.2-0.1-0.2-0.2s0-0.2,0-0.3
			s0.1-0.2,0.2-0.2s0.2,0.1,0.2,0.2c0,0.1,0,0.2,0,0.3C36.1,45.1,36,45.1,35.9,45.1z M35.9,44.5L35.9,44.5c-0.1,0-0.2-0.1-0.2-0.2
			c0-0.1,0-0.2,0-0.3l0,0c0-0.1,0.1-0.2,0.2-0.2l0,0c-0.1,0-0.2-0.1-0.2-0.2v-0.3c0-0.1,0.1-0.2,0.2-0.2l0,0c-0.1,0-0.2-0.1-0.2-0.2
			v-0.3c0-0.1,0.1-0.2,0.2-0.2l0,0c-0.1,0-0.2-0.1-0.2-0.2v-0.3c0-0.1,0.1-0.2,0.2-0.2l0,0c-0.1,0-0.2-0.1-0.2-0.2v-0.3
			c0-0.1,0.1-0.2,0.2-0.2l0,0c-0.1,0-0.2-0.1-0.2-0.2v-0.3c0-0.1,0.1-0.2,0.2-0.2l0,0c-0.1,0-0.2-0.1-0.2-0.2v-0.3
			c0-0.1,0.1-0.2,0.2-0.2l0,0c-0.1,0-0.2-0.1-0.2-0.2v-0.3c0-0.1,0.1-0.2,0.2-0.2l0,0c-0.1,0-0.2-0.1-0.2-0.2v-0.3
			c0-0.1,0.1-0.2,0.2-0.2l0,0c-0.1,0-0.2-0.1-0.2-0.2v-0.1v-0.2c0-0.1,0.1-0.2,0.2-0.2s0.2,0.1,0.2,0.2v0.2v0.1
			c0,0.1-0.1,0.2-0.2,0.2l0,0c0.1,0,0.2,0.1,0.2,0.2v0.3c0,0.5,0,0.5-0.1,0.5l0,0c0.1,0,0.2,0.1,0.2,0.2V40c0,0.1-0.1,0.2-0.2,0.2
			l0,0c0.1,0,0.2,0.1,0.2,0.2v0.3c0,0.1-0.1,0.2-0.2,0.2l0,0c0.1,0,0.2,0.1,0.2,0.2v0.3c0,0.1-0.1,0.2-0.2,0.2l0,0
			c0.1,0,0.2,0.1,0.2,0.2V42c0,0.1-0.1,0.2-0.2,0.2l0,0c0.1,0,0.2,0.1,0.2,0.2v0.3c0,0.1-0.1,0.2-0.2,0.2l0,0c0.1,0,0.2,0.1,0.2,0.2
			v0.3c0,0.1-0.1,0.2-0.2,0.2l0,0c0.1-0.2,0.1-0.2,0.1-0.1v0.3c0,0.1-0.1,0.2-0.2,0.2l0,0c0.1,0,0.2,0.1,0.2,0.2l0,0l0,0
			c0,0,0,0.1,0,0.3C36.1,44.4,36,44.5,35.9,44.5z M36,38.3L36,38.3c-0.1,0-0.2-0.1-0.2-0.2v-0.3c0-0.1,0.1-0.2,0.2-0.2l0,0
			c0.1,0,0.2,0.1,0.2,0.2v0.3C36.1,38.3,36.1,38.3,36,38.3z M36,37.8L36,37.8c-0.1,0-0.2-0.1-0.2-0.2v-0.2v-0.2
			c0-0.1,0.1-0.2,0.2-0.2l0,0c0.1,0,0.2,0.1,0.2,0.2v0.2v0.2C36.1,37.7,36.1,37.8,36,37.8z M36,37.1c-0.1,0-0.2-0.1-0.2-0.2v-0.3
			c0-0.1,0.1-0.2,0.2-0.2l0,0c0.1,0,0.2,0.1,0.2,0.2v0.3C36.1,37,36.1,37.1,36,37.1L36,37.1z M36,36.5c-0.1,0-0.2-0.1-0.2-0.2v-0.3
			c0-0.1,0.1-0.2,0.2-0.2l0,0c0.1,0,0.2,0.1,0.2,0.2v0.3C36.1,36.4,36.1,36.5,36,36.5L36,36.5z M36,35.9c-0.1,0-0.2-0.1-0.2-0.2
			v-0.3c0-0.1,0.1-0.2,0.2-0.2c0.1,0,0.2,0.1,0.2,0.2v0.3C36.1,35.8,36,35.9,36,35.9L36,35.9z M35.9,35.3c-0.1,0-0.2-0.1-0.2-0.2
			v-0.3c0-0.1,0.1-0.2,0.2-0.2c0.1,0,0.2,0.1,0.2,0.2v0.3C36.1,35.2,36,35.3,35.9,35.3L35.9,35.3z M35.9,34.7
			c-0.1,0-0.2-0.1-0.2-0.2v-0.3c0-0.1,0.1-0.2,0.2-0.2s0.2,0.1,0.2,0.2v0.3C36.1,34.6,36,34.7,35.9,34.7L35.9,34.7z M35.9,34
			c-0.1,0-0.2-0.1-0.2-0.2v-0.3c0-0.1,0.1-0.2,0.2-0.2s0.2,0.1,0.2,0.2v0.4C36.1,34,36,34,35.9,34L35.9,34z M35.9,33.4
			c-0.1,0-0.2-0.1-0.2-0.2V33c0-0.1,0.1-0.2,0.2-0.2l0,0c0.1,0,0.2,0.1,0.2,0.2v0.3C36.1,33.3,36,33.4,35.9,33.4L35.9,33.4z
			 M35.9,32.8c-0.1,0-0.2-0.1-0.2-0.2v-0.3c0-0.1,0.1-0.2,0.2-0.2s0.2,0.1,0.2,0.2v0.3C36.1,32.7,36,32.8,35.9,32.8L35.9,32.8z
			 M35.9,32.2c-0.1,0-0.2-0.1-0.2-0.2v-0.3c0-0.1,0.1-0.2,0.2-0.2c-0.1,0-0.2-0.1-0.2-0.2v-0.3c0-0.1,0.1-0.2,0.1-0.2
			c-0.1,0-0.1-0.1-0.1-0.2v-0.3c0-0.1,0.1-0.2,0.2-0.2s0.2,0.1,0.2,0.2v0.3c0,0.1-0.1,0.2-0.1,0.2c0.1,0,0.1,0.1,0.1,0.2v0.3
			c0,0.1-0.1,0.2-0.2,0.2c0.1,0,0.2,0.1,0.2,0.2V32C36,32.1,36,32.2,35.9,32.2L35.9,32.2z M35.8,30.3c-0.1,0-0.2-0.1-0.2-0.2v-0.3
			c0-0.1,0.1-0.2,0.2-0.2c0.1,0,0.2,0.1,0.2,0.2v0.3C36,30.2,35.9,30.3,35.8,30.3L35.8,30.3z M35.8,29.7c-0.1,0-0.2-0.1-0.2-0.2
			v-0.3c0-0.1,0.1-0.2,0.2-0.2c0.1,0,0.2,0.1,0.2,0.2v0.3C36,29.7,35.9,29.7,35.8,29.7L35.8,29.7z M35.8,29.1
			c-0.1,0-0.2-0.1-0.2-0.2v-0.3c0-0.1,0.1-0.2,0.2-0.2c0.1,0,0.2,0.1,0.2,0.2v0.3C35.9,29,35.9,29.1,35.8,29.1L35.8,29.1z
			 M35.8,28.5c-0.1,0-0.2-0.1-0.2-0.2V28c0-0.1,0.1-0.2,0.2-0.2c0.1,0,0.2,0.1,0.2,0.2v0.3C35.9,28.5,35.9,28.5,35.8,28.5L35.8,28.5
			z M35.7,27.9c-0.1,0-0.2-0.1-0.2-0.2v-0.3c0-0.1,0.1-0.2,0.2-0.2c0.1,0,0.2,0.1,0.2,0.2v0.3C35.9,27.8,35.8,27.9,35.7,27.9
			L35.7,27.9z M35.7,27.2c-0.1,0-0.2-0.1-0.2-0.2v-0.3c0-0.1,0.1-0.2,0.2-0.2c0.1,0,0.2,0.1,0.2,0.2V27
			C35.9,27.1,35.8,27.2,35.7,27.2L35.7,27.2z M35.7,26.7c-0.1,0-0.2-0.1-0.2-0.2v-0.3c0-0.1,0.1-0.2,0.2-0.2c0.1,0,0.2,0.1,0.2,0.2
			v0.3C35.9,26.6,35.8,26.7,35.7,26.7L35.7,26.7z M35.7,26c-0.1,0-0.2-0.1-0.2-0.2v-0.3c0-0.1,0.1-0.2,0.2-0.2
			c0.1,0,0.2,0.1,0.2,0.2v0.3C35.8,25.9,35.8,26,35.7,26L35.7,26z M35.6,25.4c-0.1,0-0.2-0.1-0.2-0.2v-0.3c0-0.1,0.1-0.2,0.2-0.2
			s0.2,0.1,0.2,0.2v0.3C35.8,25.4,35.7,25.4,35.6,25.4L35.6,25.4z M35.6,24.8c-0.1,0-0.2-0.1-0.2-0.2v-0.3c0-0.1,0.1-0.2,0.2-0.2
			s0.2,0.1,0.2,0.2v0.3C35.8,24.7,35.7,24.8,35.6,24.8L35.6,24.8z M35.6,24.1c-0.1,0-0.2-0.1-0.2-0.2v-0.3c0-0.1,0.1-0.2,0.2-0.2
			s0.2,0.1,0.2,0.2v0.3C35.8,24,35.7,24.1,35.6,24.1L35.6,24.1z M35.6,23.6c-0.1,0-0.2-0.1-0.2-0.2v-0.3c0-0.1,0.1-0.2,0.2-0.2
			s0.2,0.1,0.2,0.2v0.3C35.7,23.5,35.7,23.6,35.6,23.6L35.6,23.6z M35.5,22.9c-0.1,0-0.2-0.1-0.2-0.2v-0.1v-0.2c0-0.1,0-0.2,0.1-0.2
			s0.2,0,0.2,0.1v0.2l0,0l0,0v0.1C35.7,22.8,35.6,22.9,35.5,22.9L35.5,22.9z M35.4,22.3c-0.1,0-0.1-0.1-0.2-0.1V22
			c0-0.1,0-0.2,0.1-0.2s0.2,0,0.2,0.1v0.3C35.6,22.2,35.6,22.2,35.4,22.3C35.5,22.3,35.5,22.3,35.4,22.3z M35.4,21.7
			c-0.1,0-0.1-0.1-0.2-0.1v-0.3c0-0.1,0-0.2,0.1-0.2s0.2,0,0.2,0.1v0.3C35.5,21.6,35.5,21.7,35.4,21.7L35.4,21.7z M35.3,21.1
			c-0.1,0-0.1-0.1-0.2-0.1v-0.3c0-0.1,0-0.2,0.1-0.2s0.2,0,0.2,0.1v0.3C35.5,21,35.4,21,35.3,21.1L35.3,21.1z M35.2,20.5
			c-0.1,0-0.1-0.1-0.2-0.1v-0.3c0-0.1,0-0.2,0.1-0.2s0.2,0,0.2,0.1v0.3C35.4,20.4,35.3,20.5,35.2,20.5L35.2,20.5z M35.2,19.9
			c-0.1,0-0.1-0.1-0.2-0.1v-0.3c0-0.1,0-0.2,0.1-0.2s0.2,0,0.2,0.1v0.3C35.3,19.8,35.3,19.8,35.2,19.9
			C35.2,19.9,35.2,19.9,35.2,19.9z M35.2,19.2c-0.1,0-0.1-0.1-0.2-0.1v-0.3c0-0.1,0-0.2,0.1-0.2s0.2,0,0.2,0.1V19
			C35.3,19.1,35.2,19.2,35.2,19.2L35.2,19.2z M35.1,18.7c-0.1,0-0.1-0.1-0.2-0.1v-0.3c0-0.1,0-0.2,0.1-0.2s0.2,0,0.2,0.1v0.3
			C35.2,18.6,35.2,18.6,35.1,18.7L35.1,18.7z M35,18c-0.1,0-0.1-0.1-0.2-0.1v-0.2v-0.1c0-0.1,0-0.2,0.1-0.2c-0.1,0-0.2,0-0.2-0.1
			s0-0.2-0.1-0.3c0-0.1,0-0.2,0.1-0.2c-0.1,0-0.2,0-0.2-0.1s-0.1-0.2-0.1-0.3s0-0.2,0-0.2c-0.1,0-0.2,0-0.2,0c0-0.1-0.1-0.2-0.2-0.2
			c0-0.1,0-0.1,0-0.2c-0.1,0-0.1,0.1-0.2,0c-0.1-0.1-0.2-0.1-0.2-0.2c-0.1,0-0.1-0.1-0.1-0.2c0,0.1-0.1,0.1-0.2,0.1
			c-0.1,0-0.2-0.1-0.3-0.1S33,15.5,33,15.4c0,0.1-0.1,0.1-0.2,0.1s-0.2,0-0.3,0s-0.2,0-0.2-0.1l0,0c0,0.1-0.1,0.2-0.1,0.2H32
			c-0.1,0-0.2-0.1-0.2-0.1c0-0.1,0.1-0.2,0.1-0.2h0.3c0.1,0,0.2,0,0.2,0.1c0-0.1,0.1-0.2,0.1-0.2c0.1,0,0.2,0,0.3,0s0.2,0.1,0.2,0.2
			l0,0l0,0c0-0.1,0.1-0.1,0.2-0.1s0.2,0,0.3,0.1c0.1,0,0.1,0.1,0.1,0.2l0,0l0,0c0-0.1,0.1-0.1,0.2-0.1c0.1,0,0.2,0.1,0.3,0.2
			c0.1,0,0.1,0.2,0,0.2l0,0l0,0c0.1-0.1,0.2,0,0.2,0c0.1,0.1,0.1,0.2,0.2,0.3c0,0.1,0,0.2,0,0.2l0,0l0,0c0.1,0,0.2,0,0.2,0.1
			s0.1,0.2,0.1,0.3s0,0.2-0.1,0.2c0.1,0,0.2,0,0.2,0.1s0,0.2,0.1,0.3c0,0.1,0,0.2-0.1,0.2c0.1,0,0.2,0,0.2,0.1v0.1v0.2
			C35.2,17.9,35.2,18,35,18C35.1,18,35.1,18,35,18z M25.8,15.8c-0.1,0-0.2-0.1-0.2-0.1c0-0.1,0.1-0.2,0.1-0.2H26
			c0.1,0,0.2,0.1,0.2,0.1c0-0.1,0.1-0.2,0.1-0.2h0.3c0.1,0,0.2,0.1,0.2,0.1c0,0.1-0.1,0.2-0.1,0.2h-0.3c-0.1,0-0.2-0.1-0.2-0.1
			c0,0.1-0.1,0.2-0.1,0.2H25.8L25.8,15.8z M27.1,15.7c-0.1,0-0.2-0.1-0.2-0.1c0-0.1,0.1-0.2,0.1-0.2h0.3c0.1,0,0.2,0.1,0.2,0.1
			c0,0.1-0.1,0.2-0.1,0.2H27.1L27.1,15.7z M27.7,15.7c-0.1,0-0.2-0.1-0.2-0.1c0-0.1,0.1-0.2,0.1-0.2h0.3c0.1,0,0.2,0.1,0.2,0.1
			c0,0.1-0.1,0.2-0.1,0.2H27.7L27.7,15.7z M28.3,15.7c-0.1,0-0.2-0.1-0.2-0.1c0-0.1,0.1-0.2,0.1-0.2h0.3c0.1,0,0.2,0.1,0.2,0.1
			c0,0.1-0.1,0.2-0.1,0.2H28.3L28.3,15.7z M28.9,15.6c-0.1,0-0.2-0.1-0.2-0.1c0-0.1,0.1-0.2,0.1-0.2h0.3c0.1,0,0.2,0.1,0.2,0.1
			c0-0.1,0.1-0.2,0.1-0.2h0.3c0.1,0,0.2,0.1,0.2,0.1c0,0.1-0.1,0.2-0.1,0.2h-0.3c-0.1,0-0.2-0.1-0.2-0.1c0,0.1-0.1,0.2-0.1,0.2H28.9
			L28.9,15.6z M30.2,15.6c-0.1,0-0.2-0.1-0.2-0.1c0-0.1,0.1-0.2,0.1-0.2h0.3c0.1,0,0.2,0.1,0.2,0.1c0,0.1-0.1,0.2-0.1,0.2H30.2
			L30.2,15.6z M30.8,15.5c-0.1,0-0.2-0.1-0.2-0.1c0-0.1,0.1-0.2,0.1-0.2H31c0.1,0,0.2,0.1,0.2,0.1c0-0.1,0.1-0.2,0.1-0.2h0.3
			c0.1,0,0.2,0.1,0.2,0.1c0,0.1-0.1,0.2-0.1,0.2h-0.3c-0.1,0-0.2-0.1-0.2-0.1c0,0.1-0.1,0.2-0.1,0.2H30.8L30.8,15.5z"/>
	</g>
	<g id="XMLID_1903_">
		<path id="XMLID_748_" class="st0" d="M32.9,64.1c-0.1,0-0.2-0.1-0.2-0.2l-0.1-0.3c0-0.1,0-0.1,0-0.2l-0.1-0.1l-0.1-0.3
			c0-0.1,0-0.1,0-0.2l-0.1-0.1v-0.4c0-0.1,0-0.1,0-0.2l-0.1-0.1l-0.1-0.3c0-0.1,0-0.1,0-0.2l-0.1-0.1L32,61.2c0-0.1,0-0.1,0-0.2
			l-0.1-0.1l-0.1-0.3c0-0.1,0-0.1,0-0.2l-0.1-0.1l-0.1-0.3c0-0.1,0-0.1,0-0.2l-0.1-0.1l-0.1-0.3c0-0.1,0-0.1,0-0.2l-0.1-0.1l0.1-0.5
			c0-0.1,0-0.1,0-0.2l-0.1-0.1l-0.1-0.3c0-0.1,0-0.1,0-0.2l-0.1-0.1l-0.1-0.3c0-0.1,0-0.1,0-0.2L31,57.4l-0.1-0.3c0-0.1,0-0.1,0-0.2
			l-0.1-0.1l-0.1-0.3l0.2-0.1l0.2-0.1l0.1,0.3c0,0.1,0,0.1,0,0.2l0.1,0.1l0.1,0.3c0,0.1,0,0.1,0,0.2l0.1,0.1l0.1,0.3
			c0,0.1,0,0.1,0,0.2l0.1,0.1l0.1,0.3c0,0.1,0,0.1,0,0.2l0.1,0.1l0.1,0.3c0,0.1,0,0.1,0,0.2l0.1,0.1l0.1,0.3c0,0.1,0,0.1,0,0.2
			l0.1,0.1l0.1,0.3c0,0.1,0,0.1,0,0.2l0.1,0.1l0.1,0.3c0,0.1,0,0.1,0,0.2l0.1,0.1l0.1,0.3c0,0.1,0,0.1,0,0.2l0.1,0.1l0.1,0.3
			c0,0.1,0,0.1,0,0.2l0.1,0.1l0.1,0.3c0,0.1,0,0.1,0,0.2l0.1,0.1l0.1,0.3c0,0.1,0,0.1,0,0.2l0.1,0.1l0.1,0.3
			C33.1,64,33.1,64.1,32.9,64.1L32.9,64.1z M30.9,56.3c-0.1,0-0.2-0.1-0.2-0.2l-0.1-0.3c0-0.1,0-0.1,0-0.2l-0.1-0.1l-0.1-0.3
			c0-0.1,0-0.1,0-0.2L30.4,55l-0.1-0.3c0-0.1,0-0.1,0-0.2l-0.1-0.1l-0.1-0.3c0-0.1,0-0.1,0-0.2L30,53.9l-0.1-0.3c0-0.1,0-0.1,0-0.2
			l-0.1-0.1L29.7,53c0-0.1,0-0.1,0-0.2l-0.1-0.1c0-0.1-0.1-0.2-0.1-0.3s0-0.1,0-0.2l-0.1-0.1l0.1-0.5c0-0.1,0-0.1,0-0.2l-0.1-0.1
			l-0.1-0.3c0-0.1,0-0.1,0-0.2l-0.1-0.1l-0.1-0.3c0-0.1,0-0.1,0-0.2l-0.1-0.1L29,49.9c0-0.1,0-0.1,0-0.2l-0.1-0.1l-0.1-0.3
			c0-0.1,0-0.1,0-0.2l-0.1-0.1l-0.1-0.3c0-0.1,0-0.1,0-0.2l-0.1-0.1l-0.1-0.3c0-0.1,0-0.1,0-0.2L28.3,48l-0.1-0.3c0-0.1,0-0.1,0-0.2
			l-0.1-0.1c0-0.1-0.1-0.2-0.1-0.3s0-0.1,0-0.2L28,46.8c0-0.1,0-0.2-0.1-0.3c0-0.1,0-0.1,0-0.2l-0.1-0.1c0-0.1,0-0.2-0.1-0.3
			c0-0.1,0-0.1,0-0.2l-0.1-0.1c0-0.1,0-0.2-0.1-0.3c0-0.1,0-0.1,0-0.2l-0.1-0.1c0-0.1,0-0.2-0.1-0.3c0-0.1,0-0.1,0-0.2l-0.1-0.1
			c0-0.1,0-0.2-0.1-0.3c0-0.1,0-0.1,0-0.2L27.1,44c0-0.1,0-0.2-0.1-0.3c0-0.1,0-0.1,0-0.2l-0.1-0.1c0-0.1,0-0.2,0-0.3s0-0.1,0-0.2
			l-0.1-0.1c0-0.1,0-0.2,0-0.3s0-0.1,0-0.2l-0.1-0.1c0-0.1,0-0.2,0-0.3s0-0.1,0-0.2l-0.1-0.1c0-0.1,0-0.2,0-0.3s0-0.1,0-0.2
			l-0.1-0.1c0-0.1,0-0.2,0-0.3s0-0.1,0-0.2c0,0-0.1-0.1-0.1-0.2s0-0.2,0-0.3s0-0.1,0-0.2c0,0-0.1-0.1-0.1-0.2v-0.3
			c0-0.1,0-0.1,0-0.2c0,0-0.1-0.1-0.1-0.2V39c0-0.1,0-0.1,0-0.2c0,0-0.1-0.1-0.1-0.2v-0.3c0-0.1,0-0.1,0-0.2c0,0-0.1-0.1-0.1-0.2
			v-0.3c0-0.1,0-0.1,0-0.2c0,0-0.1-0.1-0.1-0.2V37c0-0.1,0-0.1,0-0.2c0,0-0.1-0.1-0.1-0.2v-0.3c0-0.1,0-0.1,0-0.2
			c0,0-0.1-0.1-0.1-0.2v-0.4c0-0.1,0-0.1,0-0.2c0,0-0.1-0.1-0.1-0.2v-0.3c0-0.1,0-0.1,0-0.2c0,0-0.1-0.1-0.1-0.2v-0.3
			c0-0.1,0-0.1,0-0.2c0,0-0.1-0.1-0.1-0.2v-0.3c0-0.1,0-0.1,0-0.2c0,0-0.1-0.1-0.1-0.2V33c0-0.1,0-0.1,0-0.2c0,0-0.1-0.1-0.1-0.2
			v-0.3c0-0.1,0-0.1,0-0.2c0,0-0.1-0.1-0.1-0.2v-0.3c0-0.1,0-0.1,0-0.2c0,0-0.1-0.1-0.1-0.2V31c0-0.1,0-0.1,0-0.2
			c0,0-0.1-0.1-0.1-0.2v-0.3c0-0.1,0-0.1,0-0.2c0,0-0.1-0.1-0.1-0.2v-0.3c0-0.1,0-0.1,0-0.2c0,0-0.1-0.1-0.1-0.2V29
			c0-0.1,0-0.1,0-0.2c0,0-0.1-0.1-0.1-0.2v-0.3c0-0.1,0-0.1,0-0.2c0,0-0.1-0.1-0.1-0.2v-0.3c0-0.1,0-0.1,0-0.2c0,0-0.1-0.1-0.1-0.2
			V27c0-0.1,0-0.1,0-0.2c0,0-0.1-0.1-0.1-0.2v-0.3c0-0.1,0-0.1,0-0.2c0,0-0.1-0.1-0.1-0.2v-0.3c0-0.1,0-0.1,0-0.2
			c0,0-0.1-0.1-0.1-0.2v-0.3c0-0.1,0-0.1,0-0.2c0,0-0.1-0.1-0.1-0.2v-0.3c0-0.1,0-0.1,0-0.2c0,0-0.1-0.1-0.1-0.2v-0.3
			c0-0.1,0-0.1,0-0.2c0,0-0.1-0.1-0.1-0.2v-0.3c0-0.1,0-0.1,0-0.2c0,0-0.1-0.1-0.1-0.2v-0.3c0-0.1,0-0.1,0-0.2c0,0-0.1-0.1-0.1-0.2
			v-0.3c0-0.1,0-0.1,0-0.2c0,0-0.1-0.1-0.1-0.2v-0.3c0-0.1,0-0.1,0-0.2c0,0-0.1-0.1-0.1-0.2v-0.3c0-0.1,0-0.1,0-0.2
			c0,0-0.1-0.1-0.1-0.2v-0.3c0-0.1,0-0.1,0-0.2c0,0-0.1-0.1-0.1-0.2l0,0c0,0,0-0.1,0-0.2c0-0.1,0-0.1,0-0.2c0,0-0.1-0.1-0.1-0.2
			c0-0.1,0-0.2,0-0.3s0-0.1,0.1-0.2c0,0-0.1-0.1-0.1-0.2c0-0.1,0-0.2,0-0.3s0-0.1,0.1-0.2c0,0-0.1-0.1-0.1-0.2c0-0.1,0-0.2,0-0.3
			s0-0.1,0.1-0.2c0,0-0.1-0.1-0.1-0.2c0-0.1,0-0.2,0-0.3s0-0.1,0.1-0.2c0,0,0-0.1,0-0.2c0-0.1,0-0.2,0-0.3c0-0.1,0-0.1,0.1-0.2
			c0,0,0-0.1,0-0.2c0-0.2,0.1-0.3,0.1-0.4c0.1-0.1,0.2-0.2,0.3-0.1c0.1,0.1,0.2,0.2,0.1,0.3c0,0,0,0.1-0.1,0.2c0,0,0,0.1-0.1,0.1
			c0,0,0,0.1,0,0.2c0,0.1,0,0.2,0,0.3s0,0.1-0.1,0.1c0,0,0,0.1,0,0.2c0,0.1,0,0.2,0,0.3s0,0.1-0.1,0.2c0,0,0.1,0.1,0.1,0.2
			c0,0.1,0,0.2,0,0.3s0,0.1-0.1,0.2c0,0,0.1,0.1,0.1,0.2c0,0.1,0,0.2,0,0.3s0,0.1-0.1,0.2c0,0,0.1,0.1,0.1,0.2c0,0.1,0,0.2,0,0.3
			s0,0.1,0,0.2c0,0,0.1,0.1,0.1,0.2c0,0.1,0,0.2,0,0.2v0.1c0,0.1,0,0.1,0,0.2c0,0,0.1,0.1,0.1,0.2V20c0,0.1,0,0.1,0,0.2
			c0,0,0.1,0.1,0.1,0.2v0.3c0,0.1,0,0.1,0,0.2c0,0,0.1,0.1,0.1,0.2v0.3c0,0.1,0,0.1,0,0.2c0,0,0.1,0.1,0.1,0.2V22c0,0.1,0,0.1,0,0.2
			c0,0,0.1,0.1,0.1,0.2v0.3c0,0.1,0,0.1,0,0.2c0,0,0.1,0.1,0.1,0.2v0.3c0,0.1,0,0.1,0,0.2c0,0,0.1,0.1,0.1,0.2v0.3
			c0,0.1,0,0.1,0,0.2c0,0,0.1,0.1,0.1,0.2v0.3c0,0.1,0,0.1,0,0.2c0,0,0.1,0.1,0.1,0.2v0.3c0,0.1,0,0.1,0,0.2c0,0,0.1,0.1,0.1,0.2
			v0.3c0,0.1,0,0.1,0,0.2c0,0,0.1,0.1,0.1,0.2v0.3c0,0.1,0,0.1,0,0.2c0,0,0.1,0.1,0.1,0.2v0.3c0,0.1,0,0.1,0,0.2
			c0,0,0.1,0.1,0.1,0.2v0.3c0,0.1,0,0.1,0,0.2c0,0,0.1,0.1,0.1,0.2v0.1l0,0l0,0v0.2c0,0.1,0,0.1,0,0.2c0,0,0.1,0.1,0.1,0.2v0.3
			c0,0.1,0,0.1,0,0.2c0,0,0.1,0.1,0.1,0.2v0.3c0,0.1,0,0.1,0,0.2c0,0,0.1,0.1,0.1,0.2v0.3c0,0.1,0,0.1,0,0.2c0,0,0.1,0.1,0.1,0.2
			v0.3c0,0.1,0,0.1,0,0.2c0,0,0.1,0.1,0.1,0.2v0.3c0,0.1,0,0.1,0,0.2c0,0,0.1,0.1,0.1,0.2v0.3c0,0.1,0,0.1,0,0.2
			c0,0,0.1,0.1,0.1,0.2v0.3c0,0.1,0,0.1,0,0.2c0,0,0.1,0.1,0.1,0.2v0.3c0,0.1,0,0.1,0,0.2c0,0,0.1,0.1,0.1,0.2v0.3
			c0,0.1,0,0.1,0,0.2c0,0,0.1,0.1,0.1,0.2v0.3c0,0.1,0,0.1,0,0.2c0,0,0.1,0.1,0.1,0.2v0.3c0,0.1,0,0.1,0,0.2c0,0,0.1,0.1,0.1,0.2
			v0.3c0,0.1,0,0.1,0,0.2c0,0,0.1,0.1,0.1,0.2v0.3c0,0.1,0,0.1,0,0.2c0,0,0.1,0.1,0.1,0.2v0.3c0,0.1,0,0.1,0,0.2
			c0,0,0.1,0.1,0.1,0.2v0.3c0,0.1,0,0.1,0,0.2c0,0,0.1,0.1,0.1,0.2v0.3c0,0.1,0,0.1,0,0.2c0,0,0.1,0.1,0.1,0.2v0.3
			c0,0.1,0,0.1,0,0.2c0,0,0.1,0.1,0.1,0.2s0,0.2,0,0.3s0,0.1,0,0.2l0.1,0.1c0,0.1,0,0.2,0,0.3s0,0.1,0,0.2l0.1,0.1
			c0,0.1,0,0.2,0,0.3s0,0.1,0,0.2l0.1,0.1c0,0.1,0,0.2,0,0.3s0,0.1,0,0.2l0.1,0.1c0,0.1,0,0.2,0,0.3s0,0.1,0,0.2l0.1,0.1
			c0,0.1,0,0.2,0,0.3s0,0.1,0,0.2l0.1,0.1c0,0.1,0,0.2,0.1,0.3c0,0.1,0,0.1,0,0.2l0.1,0.1c0,0.1,0,0.2,0.1,0.3c0,0.1,0,0.1,0,0.2
			l0.1,0.1c0,0.1,0,0.2,0.1,0.3c0,0.1,0,0.1,0,0.2l0.1,0.1c0,0.1,0,0.2,0.1,0.3c0,0.1,0,0.1,0,0.2l0,0.1c0,0.1,0,0.2,0.1,0.3
			c0,0.1,0,0.1,0,0.2l0.1,0.1c0,0.1,0,0.2,0.1,0.3c0,0.1,0,0.1,0,0.2l0.1,0.1c0,0.1,0,0.2,0.1,0.3c0,0.1,0,0.1,0,0.2l0.1,0.1
			l0.1,0.3c0,0.1,0,0.1,0,0.2l0.1,0.1l0.1,0.3c0,0.1,0,0.1,0,0.2l0.1,0.1l0.1,0.3c0,0.1,0,0.1,0,0.2l0.1,0.1l0.1,0.3
			c0,0.1,0,0.1,0,0.2l0.1,0.1l0.1,0.3c0,0.1,0,0.1,0,0.2l0.1,0.1l0.1,0.3c0,0.1,0,0.1,0,0.2l0.1,0.1l0.1,0.3c0,0.1,0,0.1,0,0.2
			l0.1,0.1l0.1,0.3c0,0.1,0,0.1,0,0.2l0.1,0.1c0,0.1,0.1,0.2,0.1,0.3s0,0.1,0,0.2l0.1,0.1l0.1,0.3c0,0.1,0,0.1,0,0.2l0.1,0.1
			l0.1,0.3c0,0.1,0,0.1,0,0.2l0.1,0.1l0.1,0.3c0,0.1,0,0.1,0,0.2l0.1,0.1l0.1,0.3c0,0.1,0,0.1,0,0.2l0.1,0.1L31,55
			c0,0.1,0,0.1,0,0.2l0.1,0.1l0.1,0.3c0,0.1,0,0.3-0.2,0.3C31,56.3,31,56.3,30.9,56.3z"/>
	</g>
	<g id="XMLID_1902_">
		<path id="XMLID_666_" class="st0" d="M32.3,64C32.2,64,32.2,63.9,32.3,64l-0.2-0.4c0,0,0-0.1,0.1-0.1s0.1,0,0.1,0.1L32.3,64
			C32.4,63.9,32.3,63.9,32.3,64L32.3,64z M32.1,63.3C32.1,63.3,32,63.3,32.1,63.3L31.9,63c0,0,0-0.1,0.1-0.1c0,0,0.1,0,0.1,0.1
			L32.1,63.3C32.2,63.3,32.2,63.3,32.1,63.3L32.1,63.3z M32,62.8C32,62.8,32,62.7,32,62.8l-0.2-0.4c0,0,0-0.1,0.1-0.1s0.1,0,0.1,0.1
			L32,62.8C32,62.7,32,62.8,32,62.8C32,62.8,32,62.8,32,62.8z M31.9,62.1C31.8,62.1,31.8,62.1,31.9,62.1l-0.2-0.4c0,0,0-0.1,0.1-0.1
			c0,0,0.1,0,0.1,0.1L31.9,62.1C32,62.1,31.9,62.1,31.9,62.1L31.9,62.1z M31.7,61.6C31.7,61.6,31.6,61.6,31.7,61.6l-0.2-0.4
			c0,0,0-0.1,0.1-0.1s0.1,0,0.1,0.1L31.7,61.6C31.8,61.6,31.8,61.6,31.7,61.6L31.7,61.6z M31.5,61C31.5,61,31.5,60.9,31.5,61
			l-0.1-0.4c0,0,0-0.1,0.1-0.1s0.1,0,0.1,0.1L31.5,61C31.6,60.9,31.6,60.9,31.5,61C31.6,61,31.6,61,31.5,61z M31.4,60.3
			C31.4,60.3,31.3,60.3,31.4,60.3L31.2,60c0,0,0-0.1,0.1-0.1c0,0,0.1,0,0.1,0.1L31.4,60.3C31.5,60.3,31.5,60.3,31.4,60.3L31.4,60.3z
			 M31.2,59.8C31.2,59.8,31.2,59.7,31.2,59.8L31,59.4c0,0,0-0.1,0.1-0.1c0,0,0.1,0,0.1,0.1L31.2,59.8C31.3,59.7,31.3,59.8,31.2,59.8
			L31.2,59.8z M31.1,59.2C31,59.2,31,59.1,31.1,59.2l-0.2-0.4c0,0,0-0.1,0.1-0.1c0,0,0.1,0,0.1,0.1L31.1,59.2
			C31.2,59.1,31.1,59.1,31.1,59.2C31.1,59.1,31.1,59.2,31.1,59.2z M30.9,58.5C30.9,58.5,30.8,58.5,30.9,58.5l-0.2-0.4
			c0,0,0-0.1,0.1-0.1c0,0,0.1,0,0.1,0.1L30.9,58.5C31,58.5,31,58.5,30.9,58.5L30.9,58.5z M30.7,58L30.7,58l-0.2-0.4
			c0,0,0-0.1,0.1-0.1s0.1,0,0.1,0.1L30.7,58C30.8,57.9,30.8,58,30.7,58L30.7,58z M30.6,57.3C30.5,57.3,30.5,57.3,30.6,57.3L30.4,57
			c0,0,0-0.1,0.1-0.1s0.1,0,0.1,0.1L30.6,57.3C30.7,57.3,30.6,57.3,30.6,57.3L30.6,57.3z M30.5,56.8C30.5,56.8,30.4,56.8,30.5,56.8
			l-0.2-0.4c0,0,0-0.1,0.1-0.1s0.1,0,0.1,0.1L30.5,56.8C30.5,56.8,30.5,56.8,30.5,56.8L30.5,56.8z M30.3,56.2L30.3,56.2l-0.2-0.4
			c0,0,0-0.1,0.1-0.1c0,0,0.1,0,0.1,0.1L30.3,56.2C30.4,56.1,30.4,56.2,30.3,56.2L30.3,56.2z M30.2,55.5
			C30.1,55.5,30.1,55.5,30.2,55.5L30,55.2c0,0,0-0.1,0.1-0.1c0,0,0.1,0,0.1,0.1L30.2,55.5C30.3,55.5,30.2,55.5,30.2,55.5L30.2,55.5z
			 M30,55C30,55,29.9,55,30,55l-0.2-0.4c0,0,0-0.1,0.1-0.1c0,0,0.1,0,0.1,0.1L30,55C30.1,54.9,30.1,55,30,55L30,55z M29.8,54.4
			L29.8,54.4L29.6,54c0,0,0-0.1,0.1-0.1s0.1,0,0.1,0.1L29.8,54.4C29.9,54.3,29.9,54.4,29.8,54.4L29.8,54.4z M29.6,53.8L29.6,53.8
			l-0.1-0.3v-0.1h0.1V53.8C29.7,53.8,29.7,53.8,29.6,53.8C29.7,53.8,29.7,53.8,29.6,53.8z M29.5,53.2C29.5,53.2,29.4,53.2,29.5,53.2
			l-0.2-0.4v-0.1h0.1l0.1,0.3C29.6,53.1,29.5,53.2,29.5,53.2L29.5,53.2z M29.3,52.6C29.3,52.6,29.2,52.6,29.3,52.6l-0.2-0.4v-0.1
			h0.1l0.1,0.3C29.4,52.5,29.4,52.5,29.3,52.6L29.3,52.6z M29.1,52L29.1,52l-0.2-0.4v-0.1H29l0.1,0.3C29.2,52,29.2,52,29.1,52
			L29.1,52z M28.9,51.4L28.9,51.4c-0.1-0.2-0.1-0.3-0.2-0.4v-0.1h0.1c0,0.1,0.1,0.2,0.1,0.3C29,51.3,29,51.4,28.9,51.4L28.9,51.4z
			 M28.8,50.8L28.8,50.8l-0.1-0.2c0-0.1,0-0.1-0.1-0.2v-0.1h0.1c0,0.1,0,0.1,0.1,0.2V50.8C28.9,50.7,28.9,50.8,28.8,50.8
			C28.9,50.8,28.8,50.8,28.8,50.8z M28.6,50.2L28.6,50.2c-0.1-0.2-0.1-0.3-0.2-0.4v-0.1h0.1c0,0.1,0.1,0.2,0.1,0.3
			C28.7,50.2,28.7,50.2,28.6,50.2L28.6,50.2z M28.4,49.6L28.4,49.6c-0.1-0.2-0.1-0.3-0.2-0.4v-0.1h0.1c0,0.1,0.1,0.2,0.1,0.3
			C28.5,49.6,28.5,49.6,28.4,49.6C28.5,49.6,28.5,49.6,28.4,49.6z M28.3,49C28.2,49,28.2,49,28.3,49c-0.1-0.2-0.1-0.3-0.2-0.4v-0.1
			c0,0,0.1,0,0.1,0.1C28.3,48.8,28.3,48.9,28.3,49C28.3,49,28.3,49,28.3,49L28.3,49z M28.1,48.5C28.1,48.5,28,48.4,28.1,48.5
			l-0.2-0.4c0,0,0-0.1,0.1-0.1c0,0,0.1,0,0.1,0.1L28.1,48.5C28.2,48.4,28.2,48.4,28.1,48.5L28.1,48.5z M27.9,47.8L27.9,47.8
			l-0.2-0.4c0,0,0-0.1,0.1-0.1c0,0,0.1,0,0.1,0.1L27.9,47.8C28,47.8,28,47.8,27.9,47.8L27.9,47.8z M27.8,47.3
			C27.7,47.3,27.7,47.3,27.8,47.3l-0.2-0.4c0,0,0-0.1,0.1-0.1s0.1,0,0.1,0.1L27.8,47.3C27.9,47.2,27.8,47.3,27.8,47.3L27.8,47.3z
			 M27.6,46.7C27.6,46.7,27.5,46.6,27.6,46.7l-0.2-0.4c0,0,0-0.1,0.1-0.1c0,0,0.1,0,0.1,0.1L27.6,46.7
			C27.7,46.6,27.7,46.6,27.6,46.7L27.6,46.7z M27.5,46C27.4,46,27.4,46,27.5,46l-0.2-0.4c0,0,0-0.1,0.1-0.1c0,0,0.1,0,0.1,0.1
			l0.1,0.3C27.6,46,27.5,46,27.5,46L27.5,46z M27.3,45.5C27.3,45.5,27.2,45.4,27.3,45.5l-0.1-0.4c0,0,0-0.1,0.1-0.1
			c0,0,0.1,0,0.1,0.1L27.3,45.5C27.4,45.4,27.4,45.5,27.3,45.5L27.3,45.5z M27.2,44.8C27.2,44.8,27.2,44.8,27.2,44.8l-0.1-0.4
			c0,0,0-0.1,0.1-0.1c0,0,0.1,0,0.1,0.1L27.2,44.8C27.3,44.8,27.2,44.8,27.2,44.8L27.2,44.8z M27.1,44.2
			C27.1,44.2,27.1,44.2,27.1,44.2L27,43.9c0,0,0-0.1,0.1-0.1c0,0,0.1,0,0.1,0.1L27.1,44.2C27.2,44.2,27.2,44.2,27.1,44.2L27.1,44.2z
			 M27,43.6C27,43.6,26.9,43.6,27,43.6l-0.1-0.4c0,0,0-0.1,0.1-0.1c0,0,0.1,0,0.1,0.1L27,43.6C27.1,43.6,27.1,43.6,27,43.6L27,43.6z
			 M26.9,43C26.8,43,26.8,43,26.9,43c-0.1-0.2-0.1-0.3-0.1-0.4c0,0,0-0.1,0.1-0.1c0,0,0.1,0,0.1,0.1C26.9,42.8,26.9,42.8,26.9,43
			C27,43,26.9,43,26.9,43L26.9,43z M26.7,42.5C26.7,42.5,26.7,42.4,26.7,42.5c-0.1-0.2-0.1-0.3-0.1-0.4c0,0,0-0.1,0.1-0.1
			c0,0,0.1,0,0.1,0.1C26.8,42.1,26.8,42.2,26.7,42.5C26.8,42.4,26.8,42.4,26.7,42.5L26.7,42.5z M26.6,41.8L26.6,41.8
			c-0.1-0.2-0.1-0.3-0.1-0.4c0,0,0-0.1,0.1-0.1c0,0,0.1,0,0.1,0.1S26.7,41.6,26.6,41.8C26.7,41.8,26.7,41.8,26.6,41.8
			C26.7,41.8,26.6,41.8,26.6,41.8z M26.5,41.2C26.5,41.2,26.5,41.2,26.5,41.2c-0.1-0.2-0.1-0.3-0.1-0.4c0,0,0-0.1,0.1-0.1
			c0,0,0.1,0,0.1,0.1S26.6,41,26.5,41.2C26.6,41.2,26.6,41.2,26.5,41.2C26.6,41.2,26.6,41.2,26.5,41.2z M26.5,40.6
			C26.4,40.6,26.4,40.6,26.5,40.6l-0.1-0.4c0,0,0-0.1,0.1-0.1c0,0,0.1,0,0.1,0.1L26.5,40.6C26.6,40.6,26.5,40.6,26.5,40.6L26.5,40.6
			z M26.4,40C26.4,40,26.3,39.9,26.4,40l-0.1-0.5c0,0,0-0.1,0.1-0.1c0,0,0.1,0,0.1,0.1L26.4,40C26.5,39.9,26.5,39.9,26.4,40L26.4,40
			z M26.3,39.4L26.3,39.4L26.2,39c0,0,0-0.1,0.1-0.1c0,0,0.1,0,0.1,0.1L26.3,39.4C26.4,39.3,26.4,39.4,26.3,39.4L26.3,39.4z
			 M26.3,38.7C26.2,38.7,26.2,38.7,26.3,38.7l-0.1-0.4c0,0,0-0.1,0.1-0.1c0,0,0.1,0,0.1,0.1L26.3,38.7
			C26.4,38.7,26.3,38.7,26.3,38.7L26.3,38.7z M26.2,38.1C26.2,38.1,26.1,38.1,26.2,38.1l-0.1-0.4c0,0,0-0.1,0.1-0.1
			c0,0,0.1,0,0.1,0.1L26.2,38.1C26.3,38,26.3,38.1,26.2,38.1L26.2,38.1z M26.2,37.5C26.1,37.5,26.1,37.5,26.2,37.5l-0.1-0.4
			c0,0,0-0.1,0.1-0.1c0,0,0.1,0,0.1,0.1L26.2,37.5L26.2,37.5L26.2,37.5z M26.1,36.9C26,36.9,26,36.8,26.1,36.9L26,36.5
			c0,0,0-0.1,0.1-0.1c0,0,0.1,0,0.1,0.1L26.1,36.9C26.2,36.8,26.1,36.9,26.1,36.9L26.1,36.9z M26,36.3L26,36.3l-0.1-0.4
			c0,0,0-0.1,0.1-0.1c0,0,0.1,0,0.1,0.1L26,36.3C26.1,36.3,26.1,36.3,26,36.3L26,36.3z M26,35.7C25.9,35.7,25.9,35.6,26,35.7
			l-0.1-0.4c0,0,0-0.1,0.1-0.1c0,0,0.1,0,0.1,0.1L26,35.7C26.1,35.6,26,35.7,26,35.7L26,35.7z M25.9,35C25.9,35,25.8,35,25.9,35
			l-0.1-0.4c0,0,0-0.1,0.1-0.1c0,0,0.1,0,0.1,0.1L25.9,35C26,35,26,35,25.9,35L25.9,35z M25.9,34.5C25.8,34.5,25.8,34.4,25.9,34.5
			l-0.2-0.4c0,0,0-0.1,0.1-0.1c0,0,0.1,0,0.1,0.1L25.9,34.5C25.9,34.4,25.9,34.5,25.9,34.5L25.9,34.5z M25.8,33.8
			C25.7,33.8,25.7,33.8,25.8,33.8l-0.1-0.4c0,0,0-0.1,0.1-0.1c0,0,0.1,0,0.1,0.1L25.8,33.8C25.9,33.8,25.8,33.8,25.8,33.8L25.8,33.8
			z M25.7,33.2C25.7,33.2,25.6,33.2,25.7,33.2l-0.1-0.4c0,0,0-0.1,0.1-0.1c0,0,0.1,0,0.1,0.1L25.7,33.2
			C25.8,33.2,25.8,33.2,25.7,33.2L25.7,33.2z M25.7,32.6C25.6,32.6,25.6,32.6,25.7,32.6l-0.1-0.4c0,0,0-0.1,0.1-0.1
			c0,0,0.1,0,0.1,0.1L25.7,32.6C25.8,32.5,25.7,32.6,25.7,32.6L25.7,32.6z M25.6,31.9C25.6,31.9,25.6,31.9,25.6,31.9l-0.1-0.4
			c0,0,0-0.1,0.1-0.1c0,0,0.1,0,0.1,0.1L25.6,31.9C25.7,31.9,25.7,31.9,25.6,31.9L25.6,31.9z M25.6,31.4
			C25.6,31.4,25.6,31.4,25.6,31.4L25.6,31c0,0,0-0.1,0.1-0.1c0,0,0.1,0,0.1,0.1L25.6,31.4C25.6,31.3,25.6,31.4,25.6,31.4L25.6,31.4z
			 M25.6,30.7C25.6,30.7,25.5,30.7,25.6,30.7l-0.1-0.4c0,0,0-0.1,0.1-0.1c0,0,0.1,0,0.1,0.1L25.6,30.7
			C25.6,30.7,25.6,30.7,25.6,30.7L25.6,30.7z M25.5,30.1C25.5,30.1,25.5,30,25.5,30.1l-0.1-0.4c0,0,0-0.1,0.1-0.1c0,0,0.1,0,0.1,0.1
			L25.5,30.1C25.6,30,25.6,30.1,25.5,30.1C25.6,30.1,25.6,30.1,25.5,30.1z M25.5,29.5C25.4,29.5,25.4,29.5,25.5,29.5l-0.1-0.4
			c0,0,0-0.1,0.1-0.1c0,0,0.1,0,0.1,0.1L25.5,29.5C25.6,29.5,25.5,29.5,25.5,29.5L25.5,29.5z M25.4,28.9
			C25.4,28.9,25.3,28.8,25.4,28.9l-0.1-0.4c0,0,0-0.1,0.1-0.1c0,0,0.1,0,0.1,0.1L25.4,28.9C25.5,28.8,25.5,28.9,25.4,28.9L25.4,28.9
			z M25.4,28.3C25.3,28.3,25.3,28.3,25.4,28.3l-0.1-0.4c0,0,0-0.1,0.1-0.1c0,0,0.1,0,0.1,0.1L25.4,28.3
			C25.5,28.3,25.4,28.3,25.4,28.3L25.4,28.3z M25.3,27.6C25.3,27.6,25.2,27.6,25.3,27.6l-0.1-0.4c0,0,0-0.1,0.1-0.1
			c0,0,0.1,0,0.1,0.1L25.3,27.6C25.4,27.6,25.4,27.6,25.3,27.6L25.3,27.6z M25.3,27C25.2,27,25.2,27,25.3,27
			c-0.1-0.2-0.1-0.2-0.1-0.2l0,0v-0.2c0,0,0-0.1,0.1-0.1c0,0,0.1,0,0.1,0.1v0.2l0,0C25.3,26.9,25.3,26.9,25.3,27L25.3,27L25.3,27z
			 M25.2,26.4C25.1,26.4,25.1,26.4,25.2,26.4L25.1,26c0,0,0-0.1,0.1-0.1s0.1,0,0.1,0.1L25.2,26.4C25.3,26.4,25.2,26.4,25.2,26.4
			L25.2,26.4z M25.1,25.8C25.1,25.8,25.1,25.7,25.1,25.8L25,25.4c0,0,0-0.1,0.1-0.1c0,0,0.1,0,0.1,0.1L25.1,25.8
			C25.2,25.7,25.2,25.8,25.1,25.8L25.1,25.8z M25.1,25.2C25,25.2,25,25.2,25.1,25.2L25,24.8c0,0,0-0.1,0.1-0.1c0,0,0.1,0,0.1,0.1
			L25.1,25.2C25.2,25.2,25.1,25.2,25.1,25.2L25.1,25.2z M25.1,24.6C25,24.6,25,24.5,25.1,24.6L25,24.2c0,0,0-0.1,0.1-0.1
			c0,0,0.1,0,0.1,0.1L25.1,24.6C25.1,24.5,25.1,24.6,25.1,24.6L25.1,24.6z M25,23.9C25,23.9,24.9,23.9,25,23.9l-0.1-0.4
			c0,0,0-0.1,0.1-0.1c0,0,0.1,0,0.1,0.1L25,23.9C25.1,23.9,25.1,23.9,25,23.9L25,23.9z M25,23.4C24.9,23.4,24.9,23.3,25,23.4
			L24.9,23c0,0,0-0.1,0.1-0.1c0,0,0.1,0,0.1,0.1L25,23.4C25.1,23.3,25,23.4,25,23.4L25,23.4z M24.9,22.7L24.9,22.7l-0.1-0.4
			c0,0,0-0.1,0.1-0.1c0,0,0.1,0,0.1,0.1L24.9,22.7C25,22.7,25,22.7,24.9,22.7C25,22.7,24.9,22.7,24.9,22.7z M24.9,22.1
			C24.9,22.1,24.8,22.1,24.9,22.1l-0.1-0.4c0,0,0-0.1,0.1-0.1c0,0,0.1,0,0.1,0.1L24.9,22.1C25,22.1,25,22.1,24.9,22.1L24.9,22.1z
			 M24.9,21.5C24.9,21.5,24.8,21.5,24.9,21.5c-0.1-0.2-0.1-0.3-0.1-0.4c0,0,0-0.1,0.1-0.1l0,0c0,0,0.1,0,0.1,0.1S25,21.3,24.9,21.5
			C25,21.5,25,21.5,24.9,21.5L24.9,21.5z M24.9,20.8C24.8,20.8,24.8,20.8,24.9,20.8c-0.1-0.2-0.1-0.3-0.1-0.4c0,0,0-0.1,0.1-0.1
			c0,0,0.1,0,0.1,0.1C25,20.5,25,20.6,24.9,20.8C25,20.8,24.9,20.8,24.9,20.8L24.9,20.8z M24.9,20.3C24.8,20.3,24.8,20.2,24.9,20.3
			l-0.1-0.2v-0.2c0,0,0-0.1,0.1-0.1l0,0c0,0,0.1,0,0.1,0.1v0.2v0.1L24.9,20.3L24.9,20.3z M24.9,19.6L24.9,19.6
			C24.8,19.6,24.8,19.6,24.9,19.6c-0.1-0.2-0.1-0.3-0.1-0.4c0,0,0-0.1,0.1-0.1c0,0,0.1,0,0.1,0.1S25,19.4,24.9,19.6
			C25,19.6,24.9,19.6,24.9,19.6z M24.9,19L24.9,19C24.9,19,24.8,19,24.9,19c-0.1-0.2-0.1-0.3-0.1-0.4c0,0,0-0.1,0.1-0.1
			c0,0,0.1,0,0.1,0.1S25,18.9,24.9,19C25,19,24.9,19,24.9,19z M24.9,18.4L24.9,18.4C24.9,18.4,24.8,18.4,24.9,18.4
			c-0.1-0.2-0.1-0.3-0.1-0.4c0,0,0-0.1,0.1-0.1c0,0,0.1,0,0.1,0.1C25,18.1,25,18.2,24.9,18.4C25,18.4,25,18.4,24.9,18.4z M25,17.8
			L25,17.8C24.9,17.8,24.9,17.7,25,17.8c-0.1-0.2-0.1-0.3,0-0.4c0,0,0-0.1,0.1-0.1c0,0,0.1,0,0.1,0.1C25.1,17.5,25.1,17.6,25,17.8
			C25.1,17.7,25,17.8,25,17.8z M25.1,17.2C25.1,17.2,25,17.2,25.1,17.2C25,17.2,25,17.2,25.1,17.2c-0.1-0.2,0-0.3,0-0.4
			c0,0,0-0.1,0.1-0.1c0,0,0.1,0,0.1,0.1C25.2,16.9,25.2,17,25.1,17.2L25.1,17.2z M25.2,16.6L25.2,16.6
			C25.1,16.5,25.1,16.5,25.2,16.6c0-0.2,0-0.3,0-0.4c0,0,0.1-0.1,0.1,0c0,0,0.1,0.1,0,0.1C25.3,16.3,25.3,16.4,25.2,16.6
			C25.3,16.5,25.2,16.6,25.2,16.6z M25.4,16L25.4,16C25.3,16,25.3,16,25.4,16L25.4,16L25.4,16C25.5,15.9,25.5,15.9,25.4,16L25.4,16
			C25.5,15.9,25.4,16,25.4,16z"/>
	</g>
	<g id="XMLID_1905_">
		<path id="XMLID_583_" class="st0" d="M31.9,64.2C31.8,64.2,31.8,64.1,31.9,64.2l-0.2-0.4c0,0,0-0.1,0.1-0.1s0.1,0,0.1,0.1
			L31.9,64.2C32,64.1,31.9,64.1,31.9,64.2C31.9,64.1,31.9,64.2,31.9,64.2z M31.7,63.5C31.7,63.5,31.6,63.5,31.7,63.5l-0.2-0.4
			c0,0,0-0.1,0.1-0.1c0,0,0.1,0,0.1,0.1L31.7,63.5C31.8,63.5,31.8,63.5,31.7,63.5L31.7,63.5z M31.5,63C31.5,63,31.5,62.9,31.5,63
			l-0.1-0.4c0,0,0-0.1,0.1-0.1c0,0,0.1,0,0.1,0.1L31.5,63C31.6,62.9,31.6,62.9,31.5,63L31.5,63z M31.4,62.3
			C31.3,62.3,31.3,62.3,31.4,62.3l-0.2-0.4c0,0,0-0.1,0.1-0.1c0,0,0.1,0,0.1,0.1L31.4,62.3C31.5,62.3,31.4,62.3,31.4,62.3L31.4,62.3
			z M31.2,61.7C31.2,61.7,31.1,61.7,31.2,61.7L31,61.4c0,0,0-0.1,0.1-0.1c0,0,0.1,0,0.1,0.1L31.2,61.7
			C31.3,61.7,31.3,61.7,31.2,61.7L31.2,61.7z M31,61.2C31,61.2,31,61.1,31,61.2l-0.2-0.4c0,0,0-0.1,0.1-0.1s0.1,0,0.1,0.1L31,61.2
			C31.1,61.1,31.1,61.1,31,61.2C31.1,61.2,31.1,61.2,31,61.2z M30.9,60.5C30.8,60.5,30.8,60.5,30.9,60.5l-0.2-0.4c0,0,0-0.1,0.1-0.1
			c0,0,0.1,0,0.1,0.1L30.9,60.5C31,60.5,30.9,60.5,30.9,60.5L30.9,60.5z M30.7,60L30.7,60l-0.2-0.4c0,0,0-0.1,0.1-0.1s0.1,0,0.1,0.1
			L30.7,60C30.8,59.9,30.8,60,30.7,60L30.7,60z M30.6,59.3C30.5,59.3,30.5,59.3,30.6,59.3L30.4,59c0,0,0-0.1,0.1-0.1s0.1,0,0.1,0.1
			L30.6,59.3C30.7,59.3,30.6,59.3,30.6,59.3L30.6,59.3z M30.5,58.7C30.5,58.7,30.4,58.7,30.5,58.7l-0.2-0.4c0,0,0-0.1,0.1-0.1
			s0.1,0.1,0.1,0.1L30.5,58.7C30.5,58.7,30.5,58.7,30.5,58.7L30.5,58.7z M30.3,58.2L30.3,58.2l-0.2-0.4c0,0,0-0.1,0.1-0.1
			s0.1,0,0.1,0.1L30.3,58.2C30.4,58.1,30.4,58.2,30.3,58.2L30.3,58.2z M30.2,57.5C30.1,57.5,30.1,57.5,30.2,57.5L30,57.1
			c0,0,0-0.1,0.1-0.1s0.1,0,0.1,0.1L30.2,57.5C30.3,57.5,30.2,57.5,30.2,57.5L30.2,57.5z M30,57C30,57,29.9,57,30,57l-0.2-0.4
			c0,0,0-0.1,0.1-0.1c0,0,0.1,0,0.1,0.1L30,57C30.1,56.8,30.1,57,30,57L30,57z M29.8,56.4L29.8,56.4L29.6,56c0,0,0-0.1,0.1-0.1
			s0.1,0,0.1,0.1L29.8,56.4C29.9,56.3,29.9,56.4,29.8,56.4L29.8,56.4z M29.7,55.7C29.6,55.7,29.6,55.7,29.7,55.7l-0.2-0.3
			c0,0,0-0.1,0.1-0.1c0,0,0.1,0,0.1,0.1L29.7,55.7C29.8,55.7,29.7,55.7,29.7,55.7L29.7,55.7z M29.5,55.2
			C29.5,55.2,29.4,55.2,29.5,55.2l-0.2-0.4c0,0,0-0.1,0.1-0.1c0,0,0.1,0,0.1,0.1L29.5,55.2C29.6,55.1,29.6,55.2,29.5,55.2L29.5,55.2
			z M29.3,54.6C29.3,54.6,29.3,54.5,29.3,54.6l-0.2-0.4c0,0,0-0.1,0.1-0.1s0.1,0,0.1,0.1L29.3,54.6C29.4,54.5,29.4,54.5,29.3,54.6
			L29.3,54.6z M29.2,53.9C29.1,53.9,29.1,53.9,29.2,53.9L29,53.7v-0.1h0.1L29.2,53.9C29.2,53.9,29.2,53.9,29.2,53.9L29.2,53.9z
			 M29,53.4C28.9,53.4,28.9,53.4,29,53.4L28.9,53v-0.1h0.1l0.1,0.3C29.1,53.3,29,53.4,29,53.4L29,53.4z M28.9,52.8
			C28.9,52.8,28.8,52.8,28.9,52.8c-0.1-0.2-0.1-0.3-0.2-0.4v-0.1h0.1c0,0.1,0.1,0.2,0.1,0.3C28.9,52.7,28.9,52.7,28.9,52.8
			L28.9,52.8z M28.7,52.2C28.7,52.2,28.6,52.2,28.7,52.2c-0.1-0.1-0.1-0.2-0.2-0.3v-0.1v-0.1h0.1v0.1C28.7,52,28.7,52,28.7,52.2
			C28.8,52.2,28.7,52.2,28.7,52.2L28.7,52.2z M28.5,51.6C28.5,51.6,28.4,51.6,28.5,51.6c-0.1-0.1-0.1-0.2-0.2-0.4v-0.1h0.1
			C28.5,51.3,28.5,51.4,28.5,51.6C28.6,51.6,28.5,51.6,28.5,51.6L28.5,51.6z M28.3,51C28.2,51,28.2,51,28.3,51l-0.2-0.4v-0.1h0.1
			L28.3,51C28.4,50.9,28.3,51,28.3,51L28.3,51z M28.1,50.5C28,50.5,28,50.4,28.1,50.5l-0.2-0.4V50H28L28.1,50.5
			C28.2,50.4,28.1,50.4,28.1,50.5L28.1,50.5z M27.9,49.8C27.8,49.8,27.8,49.8,27.9,49.8l-0.2-0.4v-0.1h0.1L27.9,49.8
			C28,49.8,27.9,49.8,27.9,49.8L27.9,49.8z M27.7,49.2C27.6,49.2,27.6,49.2,27.7,49.2l-0.2-0.4v-0.1h0.1l0.1,0.3
			C27.8,49.1,27.7,49.2,27.7,49.2L27.7,49.2z M27.5,48.7C27.5,48.7,27.4,48.7,27.5,48.7l-0.2-0.4v-0.1h0.1l0.1,0.3
			C27.6,48.6,27.5,48.7,27.5,48.7L27.5,48.7z M27.3,48C27.3,48,27.2,48,27.3,48l-0.2-0.4v-0.1h0.1l0.1,0.3C27.4,48,27.4,48,27.3,48
			L27.3,48z M27.2,47.5L27.2,47.5l-0.1-0.4V47h0.1l0.1,0.3C27.2,47.5,27.2,47.5,27.2,47.5L27.2,47.5z M27,46.9L27,46.9l-0.2-0.4
			c0,0,0-0.1,0.1-0.1c0,0,0.1,0,0.1,0.1L27,46.9C27.1,46.8,27.1,46.9,27,46.9L27,46.9z M26.9,46.3C26.8,46.3,26.8,46.2,26.9,46.3
			c-0.2-0.2-0.2-0.3-0.2-0.4c0,0,0-0.1,0.1-0.1c0,0,0.1,0,0.1,0.1C26.9,46,26.9,46.1,26.9,46.3C27,46.2,26.9,46.2,26.9,46.3
			C26.9,46.2,26.9,46.3,26.9,46.3z M26.7,45.7L26.7,45.7c-0.1-0.2-0.1-0.3-0.2-0.4c0,0,0-0.1,0.1-0.1c0,0,0.1,0,0.1,0.1
			C26.7,45.4,26.8,45.5,26.7,45.7C26.8,45.7,26.8,45.7,26.7,45.7L26.7,45.7z M26.6,45.1C26.5,45.1,26.5,45.1,26.6,45.1
			c-0.1-0.2-0.1-0.3-0.2-0.4c0,0,0-0.1,0.1-0.1c0,0,0.1,0,0.1,0.1s0,0.2,0.1,0.3C26.6,45,26.6,45.1,26.6,45.1L26.6,45.1z M26.4,44.4
			C26.4,44.4,26.3,44.4,26.4,44.4c-0.1-0.2-0.1-0.3-0.1-0.4c0,0,0-0.1,0.1-0.1c0,0,0.1,0,0.1,0.1C26.4,44.2,26.5,44.2,26.4,44.4
			C26.5,44.4,26.5,44.4,26.4,44.4L26.4,44.4z M26.3,43.9C26.2,43.9,26.2,43.9,26.3,43.9L26.3,43.9c-0.1-0.2-0.1-0.3-0.1-0.4
			c0,0,0-0.1,0.1-0.1c0,0,0.1,0,0.1,0.1C26.3,43.6,26.3,43.7,26.3,43.9C26.4,43.8,26.3,43.9,26.3,43.9L26.3,43.9z M26.2,43.2
			C26.1,43.2,26.1,43.2,26.2,43.2c-0.1-0.2-0.1-0.3-0.1-0.4c0,0,0-0.1,0.1-0.1c0,0,0.1,0,0.1,0.1C26.2,42.9,26.2,43,26.2,43.2
			C26.3,43.2,26.2,43.2,26.2,43.2L26.2,43.2z M26.1,42.7C26,42.7,26,42.7,26.1,42.7C26,42.5,26,42.4,26,42.3c0,0,0-0.1,0.1-0.1
			c0,0,0.1,0,0.1,0.1C26.1,42.4,26.1,42.5,26.1,42.7C26.2,42.7,26.1,42.7,26.1,42.7L26.1,42.7z M26,42.1C25.9,42.1,25.9,42,26,42.1
			l-0.1-0.4c0,0,0-0.1,0.1-0.1c0,0,0.1,0,0.1,0.1L26,42.1C26.1,42,26,42,26,42.1L26,42.1z M25.9,41.4C25.8,41.4,25.8,41.4,25.9,41.4
			L25.8,41c0,0,0-0.1,0.1-0.1c0,0,0.1,0,0.1,0.1L25.9,41.4C26,41.3,25.9,41.4,25.9,41.4L25.9,41.4z M25.8,40.8
			C25.8,40.8,25.7,40.8,25.8,40.8l-0.1-0.4c0,0,0-0.1,0.1-0.1c0,0,0.1,0,0.1,0.1L25.8,40.8C25.9,40.8,25.9,40.8,25.8,40.8L25.8,40.8
			z M25.8,40.2C25.7,40.2,25.7,40.2,25.8,40.2l-0.1-0.4c0,0,0-0.1,0.1-0.1c0,0,0.1,0,0.1,0.1L25.8,40.2L25.8,40.2L25.8,40.2z
			 M25.7,39.5C25.6,39.5,25.6,39.5,25.7,39.5l-0.1-0.4c0,0,0-0.1,0.1-0.1c0,0,0.1,0,0.1,0.1L25.7,39.5
			C25.8,39.5,25.7,39.5,25.7,39.5L25.7,39.5z M25.6,39L25.6,39l-0.1-0.4c0,0,0-0.1,0.1-0.1c0,0,0.1,0,0.1,0.1L25.6,39
			C25.7,38.9,25.7,39,25.6,39L25.6,39z M25.6,38.3C25.6,38.3,25.6,38.3,25.6,38.3L25.6,38c0,0,0-0.1,0.1-0.1c0,0,0.1,0,0.1,0.1
			L25.6,38.3C25.7,38.3,25.6,38.3,25.6,38.3L25.6,38.3z M25.6,37.8C25.6,37.8,25.5,37.7,25.6,37.8l-0.1-0.4c0,0,0-0.1,0.1-0.1
			c0,0,0.1,0,0.1,0.1L25.6,37.8C25.6,37.7,25.6,37.8,25.6,37.8L25.6,37.8z M25.6,37.1C25.5,37.1,25.5,37.1,25.6,37.1l-0.1-0.4
			c0,0,0-0.1,0.1-0.1c0,0,0.1,0,0.1,0.1L25.6,37.1C25.6,37.1,25.6,37.1,25.6,37.1L25.6,37.1z M25.5,36.5
			C25.5,36.5,25.4,36.4,25.5,36.5l-0.1-0.4c0,0,0-0.1,0.1-0.1c0,0,0.1,0,0.1,0.1L25.5,36.5C25.6,36.4,25.6,36.5,25.5,36.5L25.5,36.5
			z M25.5,35.9C25.4,35.9,25.4,35.9,25.5,35.9l-0.1-0.4c0,0,0-0.1,0.1-0.1s0.1,0,0.1,0.1L25.5,35.9C25.6,35.9,25.5,35.9,25.5,35.9
			L25.5,35.9z M25.4,35.3C25.4,35.3,25.4,35.2,25.4,35.3c-0.1-0.2-0.1-0.2-0.1-0.2l0,0v-0.2c0,0,0-0.1,0.1-0.1c0,0,0.1,0,0.1,0.1
			v0.2l0,0C25.5,35,25.5,35.1,25.4,35.3C25.5,35.2,25.5,35.3,25.4,35.3L25.4,35.3z M25.4,34.7C25.3,34.7,25.3,34.7,25.4,34.7
			l-0.1-0.4c0,0,0-0.1,0.1-0.1c0,0,0.1,0,0.1,0.1L25.4,34.7C25.5,34.6,25.4,34.7,25.4,34.7L25.4,34.7z M25.3,34L25.3,34l-0.1-0.4
			c0,0,0-0.1,0.1-0.1c0,0,0.1,0,0.1,0.1L25.3,34C25.4,34,25.4,34,25.3,34C25.4,34,25.4,34,25.3,34z M25.3,33.4
			C25.3,33.4,25.2,33.4,25.3,33.4l-0.1-0.4c0,0,0-0.1,0.1-0.1c0,0,0.1,0,0.1,0.1L25.3,33.4C25.4,33.3,25.4,33.4,25.3,33.4L25.3,33.4
			z M25.3,32.8C25.2,32.8,25.2,32.8,25.3,32.8l-0.1-0.4c0,0,0-0.1,0.1-0.1c0,0,0.1,0,0.1,0.1L25.3,32.8L25.3,32.8L25.3,32.8z
			 M25.2,32.2C25.2,32.2,25.1,32.1,25.2,32.2l-0.1-0.4c0,0,0-0.1,0.1-0.1c0,0,0.1,0,0.1,0.1L25.2,32.2
			C25.3,32.1,25.3,32.2,25.2,32.2L25.2,32.2z M25.2,31.5C25.1,31.5,25.1,31.5,25.2,31.5l-0.1-0.4c0,0,0-0.1,0.1-0.1s0.1,0,0.1,0.1
			L25.2,31.5C25.3,31.5,25.2,31.5,25.2,31.5L25.2,31.5z M25.1,31C25.1,31,25,30.9,25.1,31L25,30.6c0,0,0-0.1,0.1-0.1
			c0,0,0.1,0,0.1,0.1L25.1,31C25.2,30.9,25.2,31,25.1,31L25.1,31z M25.1,30.3C25,30.3,25,30.3,25.1,30.3L25,30c0,0,0-0.1,0.1-0.1
			c0,0,0.1,0,0.1,0.1L25.1,30.3C25.2,30.3,25.1,30.3,25.1,30.3L25.1,30.3z M25,29.7C25,29.7,24.9,29.7,25,29.7l-0.1-0.4
			c0,0,0-0.1,0.1-0.1c0,0,0.1,0,0.1,0.1L25,29.7C25.1,29.7,25.1,29.7,25,29.7L25,29.7z M25,29.1C24.9,29.1,24.9,29.1,25,29.1
			l-0.1-0.4c0,0,0-0.1,0.1-0.1c0,0,0.1,0,0.1,0.1L25,29.1C25.1,29.1,25,29.1,25,29.1L25,29.1z M24.9,28.5
			C24.9,28.5,24.9,28.5,24.9,28.5l-0.1-0.5c0,0,0-0.1,0.1-0.1c0,0,0.1,0,0.1,0.1L24.9,28.5C25,28.5,25,28.5,24.9,28.5L24.9,28.5z
			 M24.9,27.9C24.8,27.9,24.8,27.9,24.9,27.9l-0.1-0.4c0,0,0-0.1,0.1-0.1c0,0,0.1,0,0.1,0.1L24.9,27.9C25,27.8,24.9,27.9,24.9,27.9
			L24.9,27.9z M24.8,27.2C24.8,27.2,24.7,27.2,24.8,27.2l-0.1-0.4c0,0,0-0.1,0.1-0.1c0,0,0.1,0,0.1,0.1L24.8,27.2
			C24.9,27.2,24.9,27.2,24.8,27.2L24.8,27.2z M24.8,26.7C24.7,26.7,24.7,26.7,24.8,26.7l-0.1-0.4c0,0,0-0.1,0.1-0.1
			c0,0,0.1,0,0.1,0.1L24.8,26.7C24.9,26.6,24.8,26.7,24.8,26.7L24.8,26.7z M24.7,26L24.7,26l-0.1-0.4c0,0,0-0.1,0.1-0.1
			c0,0,0.1,0,0.1,0.1L24.7,26C24.8,26,24.8,26,24.7,26L24.7,26z M24.7,25.4C24.6,25.4,24.6,25.4,24.7,25.4l-0.1-0.4
			c0,0,0-0.1,0.1-0.1c0,0,0.1,0,0.1,0.1L24.7,25.4C24.8,25.4,24.7,25.4,24.7,25.4L24.7,25.4z M24.6,24.8L24.6,24.8l-0.1-0.4
			c0,0,0-0.1,0.1-0.1c0,0,0.1,0,0.1,0.1L24.6,24.8C24.7,24.8,24.7,24.8,24.6,24.8L24.6,24.8z M24.6,24.2
			C24.5,24.2,24.5,24.1,24.6,24.2l-0.1-0.4c0,0,0-0.1,0.1-0.1c0,0,0.1,0,0.1,0.1L24.6,24.2C24.7,24.1,24.6,24.2,24.6,24.2L24.6,24.2
			z M24.6,23.6C24.5,23.6,24.5,23.6,24.6,23.6c-0.1-0.2-0.1-0.3-0.1-0.4c0,0,0-0.1,0.1-0.1c0,0,0.1,0,0.1,0.1
			C24.6,23.3,24.6,23.4,24.6,23.6L24.6,23.6L24.6,23.6z M24.5,22.9C24.5,22.9,24.4,22.9,24.5,22.9l-0.1-0.4c0,0,0-0.1,0.1-0.1
			c0,0,0.1,0,0.1,0.1L24.5,22.9C24.6,22.9,24.6,22.9,24.5,22.9L24.5,22.9z M24.5,22.3C24.5,22.3,24.4,22.3,24.5,22.3
			c-0.1-0.2-0.1-0.3-0.1-0.4c0,0,0-0.1,0.1-0.1s0.1,0,0.1,0.1C24.6,22.1,24.6,22.1,24.5,22.3C24.6,22.3,24.6,22.3,24.5,22.3
			L24.5,22.3z M24.5,21.7C24.4,21.7,24.4,21.7,24.5,21.7c-0.1-0.2-0.1-0.3-0.1-0.4c0,0,0-0.1,0.1-0.1s0.1,0,0.1,0.1
			C24.6,21.4,24.6,21.5,24.5,21.7C24.6,21.7,24.5,21.7,24.5,21.7L24.5,21.7z M24.5,21.1C24.4,21.1,24.4,21,24.5,21.1
			c-0.1-0.2-0.1-0.3-0.1-0.4h0.2C24.6,20.8,24.6,20.9,24.5,21.1C24.6,21,24.5,21.1,24.5,21.1L24.5,21.1z M24.5,20.5L24.5,20.5
			C24.4,20.5,24.4,20.5,24.5,20.5c-0.1-0.2-0.1-0.3-0.1-0.4c0,0,0-0.1,0.1-0.1c0,0,0.1,0,0.1,0.1C24.6,20.2,24.6,20.3,24.5,20.5
			C24.6,20.5,24.5,20.5,24.5,20.5z M24.5,19.9L24.5,19.9C24.4,19.9,24.4,19.8,24.5,19.9c-0.1-0.2-0.1-0.3-0.1-0.4c0,0,0-0.1,0.1-0.1
			c0,0,0.1,0,0.1,0.1C24.6,19.6,24.6,19.7,24.5,19.9C24.6,19.8,24.5,19.9,24.5,19.9z M24.5,19.2L24.5,19.2
			C24.5,19.2,24.4,19.2,24.5,19.2c-0.1-0.2-0.1-0.3-0.1-0.4c0,0,0-0.1,0.1-0.1c0,0,0.1,0,0.1,0.1C24.6,19,24.6,19,24.5,19.2
			C24.6,19.2,24.6,19.2,24.5,19.2z M24.6,18.7L24.6,18.7C24.5,18.7,24.5,18.6,24.6,18.7c-0.1-0.2-0.1-0.3,0-0.4c0,0,0-0.1,0.1-0.1
			c0,0,0.1,0,0.1,0.1C24.7,18.4,24.7,18.5,24.6,18.7C24.6,18.6,24.6,18.7,24.6,18.7z M24.6,18L24.6,18C24.6,18,24.5,17.9,24.6,18
			c-0.1-0.2,0-0.3,0-0.4c0,0,0-0.1,0.1-0.1c0,0,0.1,0,0.1,0.1C24.7,17.7,24.7,17.8,24.6,18C24.7,18,24.7,18,24.6,18z M24.7,17.5
			L24.7,17.5C24.6,17.4,24.6,17.4,24.7,17.5c-0.1-0.2,0-0.3,0-0.4c0,0,0-0.1,0.1-0.1c0,0,0.1,0,0.1,0.1
			C24.8,17.2,24.8,17.3,24.7,17.5C24.8,17.4,24.7,17.5,24.7,17.5z M24.8,16.8L24.8,16.8L24.8,16.8c0-0.2,0-0.3,0-0.4
			c0,0,0.1-0.1,0.1,0c0,0,0.1,0.1,0,0.1C25,16.6,24.9,16.7,24.8,16.8C24.9,16.8,24.9,16.8,24.8,16.8z M25.1,16.2
			C25,16.2,25,16.2,25.1,16.2C25,16.2,25,16.1,25.1,16.2c-0.1-0.2,0-0.3,0.1-0.4h0.1v0.1C25.3,15.9,25.2,16,25.1,16.2L25.1,16.2z
			 M25.5,15.8C25.4,15.8,25.4,15.8,25.5,15.8c-0.1-0.1-0.1-0.1,0-0.2c0.1,0,0.2-0.1,0.3-0.1c0,0,0.1,0,0.1,0.1c0,0,0,0.1-0.1,0.1
			C25.6,15.7,25.6,15.7,25.5,15.8L25.5,15.8z"/>
	</g>
	<g id="XMLID_1904_">
		<g id="XMLID_1925_">
			<path id="XMLID_577_" class="st0" d="M41.2,55c0-0.2,0.2-0.3,0.4-0.3s0.3,0.1,0.3,0.3s-0.2,0.3-0.3,0.3
				C41.3,55.3,41.1,55.2,41.2,55 M41.5,55.2c0.1,0,0.3-0.1,0.3-0.3c0-0.1-0.1-0.3-0.3-0.3c-0.1,0-0.3,0.1-0.3,0.3
				S41.3,55.2,41.5,55.2 M41.4,55.2L41.4,55.2v-0.4h0.1c0.1,0,0.1,0,0.1,0.1s0,0.1-0.1,0.1l0.1,0.2L41.4,55.2V55h-0.1L41.4,55.2
				L41.4,55.2L41.4,55.2z M41.5,55C41.5,55,41.5,55,41.5,55C41.5,54.9,41.5,54.9,41.5,55L41.5,55L41.5,55L41.5,55z"/>
		</g>
		<g id="XMLID_1908_">
			<path id="XMLID_558_" class="st0" d="M38.5,54.9h0.2c0,0-0.2-0.6-0.3-0.8c0.1,0,0.2,0,0.3,0c0.1,0.2,0.3,0.7,0.3,0.7
				s0.4-0.2,0.6-0.3c0.1,0,0.1,0.1,0.2,0.1L39.1,55l0.2,0.5c0,0,0.5-0.6,0.7-0.8c0.1,0,0.1,0.1,0.2,0.1c-0.1,0.2-0.2,0.3-0.3,0.5
				c0.3,0,0.5,0,0.8,0.1c0.1,0.1,0.1,0.2,0.2,0.3h-0.7L39.8,56l0.4-0.1c0,0,0.3-0.1,0.7-0.2C41,55.8,41,55.9,41,56l-0.7,0.2
				l-0.7,0.1c-0.1,0.1-0.2,0.2-0.2,0.3c0.6-0.1,1.1-0.2,1.7-0.3c0.2,0.8,0,1.7-0.5,2.3c-1.5,0.3-3.1-0.2-4.6-0.1h-0.5
				c-0.3-0.4-0.5-0.8-0.5-1.3c0-0.6,0-1.1,0.3-1.5h0.8l-0.4-0.5c0-0.1,0.1-0.1,0.2-0.2c0.2,0.2,0.6,0.8,0.6,0.8h0.2L36.1,55
				c0.1-0.1,0.2-0.2,0.3-0.3l0.6,0.1c0,0,0-0.3,0-0.5c0.1-0.1,0.3-0.1,0.4-0.1c0.1,0.2,0.2,0.5,0.3,0.7c0.2-0.2,0.3-0.5,0.5-0.8
				c0,0,0,0,0.1,0L38.5,54.9z M38.1,54.6l-0.4,0.6l0.2,0.7l0.3-0.2l0.1-0.5C38.2,54.9,38.2,54.8,38.1,54.6 M37.1,54.6v0.3h0.2
				C37.3,54.8,37.2,54.7,37.1,54.6 M36.4,54.9L36.4,54.9c0.2,0.2,0.5,0.6,0.5,0.6v-0.4L36.4,54.9z M38.8,55.2L38.8,55.2l-0.1,0.2
				L38.8,55.2L38.8,55.2z M37.1,55.2v0.6l0.2-0.5L37.1,55.2z M39.8,55.5h-0.2L39.2,56h0.2L39.8,55.5z M38.4,55.8v0.6l0.5-0.6
				l0.1-0.1l-0.1-0.2L38.4,55.8z M37.5,55.7L37.3,56l0.3,0.3C37.6,56.1,37.6,55.9,37.5,55.7 M38.2,56L38,56.1v0.2h0.1L38.2,56z
				 M36.4,55.9l-0.3,0.4l0.5,0.2l0.4-0.3L36.9,56L36.4,55.9z M35.4,56l0.4,0.2l0.1-0.2H35.4z M39,56.4l-0.2,0.4h0.3l0.3-0.4H39z
				 M37.3,56.4l-0.8,0.6h-0.4l0.2-0.2c-0.1-0.1-0.3-0.1-0.4-0.2l-0.3,0.4c-0.1,0-0.2,0-0.3,0c0,0.3,0,0.6,0.1,0.8
				c0,0.1,0,0.2,0.1,0.2c0.8,0,1.4,0.2,2.2,0.3v-1.1c0-0.1-0.1-0.2-0.2-0.3L37.2,57h-0.7c0,0,0.6-0.3,0.8-0.4
				C37.4,56.6,37.3,56.5,37.3,56.4 M35.4,56.4c0,0.1,0,0.2,0,0.4c0.1-0.1,0.2-0.3,0.2-0.3L35.4,56.4z M40.8,56.8l-0.3,0.1
				c0.1,0.1,0.2,0.4,0.2,0.4h-0.3l-0.3-0.4c-0.1,0-0.5,0.1-0.5,0.1l0.1,0.3h-0.2L39.4,57c0,0-0.7,0.2-0.9,0.3l0,0c0,0.4,0,0.7,0,1
				v0.1c0.6,0.1,1.2,0.2,1.9,0.3h0.1c0.2-0.2,0.3-0.5,0.4-0.8C40.9,57.5,40.9,57,40.8,56.8"/>
		</g>
		<g id="XMLID_1907_">
			<path id="XMLID_49_" class="st0" d="M40.5,58.9c-0.2,0.2-0.5,0.5-0.8,0.7c-1.4-0.1-2.6-0.5-4-0.7c0,0-0.1-0.1-0.1-0.2
				c1-0.1,2.2,0,3.2,0.1C39.4,58.9,40,58.9,40.5,58.9L40.5,58.9z"/>
		</g>
		<g id="XMLID_1906_">
			<path id="XMLID_48_" class="st0" d="M38.3,59.5c0.4,0.1,0.8,0.1,1.2,0.2c-0.8,0.6-2.3,0.5-3.1-0.1c-0.2-0.2-0.5-0.3-0.7-0.6h0.1
				l0.6,0.1L38.3,59.5z"/>
		</g>
	</g>
</g>
<g class="st1">
	<path d="M41.5,91.4v-7.8h2.4c0.4,0,0.8,0,1.1,0.1c0.3,0.1,0.6,0.2,0.9,0.3s0.4,0.3,0.6,0.6c0.1,0.2,0.2,0.6,0.2,0.9
		c0,0.4-0.1,0.7-0.3,1c-0.2,0.3-0.6,0.5-1,0.7v0c0.6,0.1,1,0.3,1.3,0.6c0.3,0.3,0.5,0.7,0.5,1.3c0,0.4-0.1,0.7-0.2,1
		s-0.4,0.5-0.6,0.7c-0.3,0.2-0.6,0.3-0.9,0.4c-0.4,0.1-0.8,0.1-1.2,0.1H41.5z M42.9,86.7h0.9c0.6,0,0.9-0.1,1.2-0.3
		c0.2-0.2,0.4-0.5,0.4-0.8c0-0.4-0.1-0.6-0.4-0.8c-0.2-0.1-0.6-0.2-1.1-0.2h-0.9V86.7z M42.9,90.3H44c0.6,0,1-0.1,1.3-0.3
		c0.3-0.2,0.5-0.5,0.5-1c0-0.4-0.1-0.7-0.4-0.9s-0.7-0.3-1.3-0.3h-1.1V90.3z"/>
	<path d="M51.3,91.5c-0.5,0-0.9-0.1-1.3-0.3c-0.4-0.2-0.7-0.4-1-0.8s-0.5-0.8-0.6-1.3c-0.2-0.5-0.2-1.1-0.2-1.8
		c0-0.6,0.1-1.2,0.2-1.7c0.2-0.5,0.4-0.9,0.6-1.3c0.3-0.3,0.6-0.6,1-0.8c0.4-0.2,0.8-0.3,1.3-0.3s0.9,0.1,1.3,0.3
		c0.4,0.2,0.7,0.4,1,0.8c0.3,0.3,0.5,0.8,0.6,1.3c0.2,0.5,0.2,1.1,0.2,1.7c0,0.7-0.1,1.2-0.2,1.8c-0.2,0.5-0.4,0.9-0.6,1.3
		c-0.3,0.3-0.6,0.6-1,0.8S51.7,91.5,51.3,91.5z M51.3,90.3c0.5,0,0.9-0.2,1.2-0.8c0.3-0.5,0.4-1.2,0.4-2.1c0-0.9-0.1-1.6-0.4-2.1
		c-0.3-0.5-0.7-0.7-1.2-0.7s-0.9,0.2-1.2,0.7s-0.5,1.2-0.5,2.1c0,0.9,0.2,1.6,0.5,2.1S50.7,90.3,51.3,90.3z"/>
	<path d="M57.8,91.4v-6.7h-2.5v-1.2h6.3v1.2h-2.5v6.7H57.8z"/>
	<path d="M62.3,91.4l2.5-7.8h1.6l2.5,7.8h-1.5l-0.6-2.1h-2.6l-0.6,2.1H62.3z M64.9,87.2l-0.3,1h2l-0.3-1c-0.1-0.4-0.2-0.8-0.3-1.3
		c-0.1-0.4-0.2-0.9-0.3-1.3h0c-0.1,0.4-0.2,0.9-0.3,1.3C65.1,86.4,65,86.8,64.9,87.2z"/>
	<path d="M72.9,91.5c-0.6,0-1.1-0.1-1.6-0.3c-0.5-0.2-1-0.5-1.3-0.9l0.8-0.9c0.3,0.3,0.6,0.5,1,0.6c0.4,0.2,0.8,0.2,1.2,0.2
		c0.5,0,0.8-0.1,1-0.3c0.2-0.2,0.4-0.4,0.4-0.7c0-0.2,0-0.3-0.1-0.4c-0.1-0.1-0.2-0.2-0.3-0.3s-0.3-0.2-0.4-0.2
		c-0.2-0.1-0.3-0.1-0.5-0.2L72,87.7c-0.2-0.1-0.4-0.2-0.6-0.3c-0.2-0.1-0.4-0.3-0.5-0.4c-0.2-0.2-0.3-0.4-0.4-0.6
		c-0.1-0.2-0.1-0.5-0.1-0.8c0-0.3,0.1-0.6,0.2-0.9c0.1-0.3,0.3-0.5,0.6-0.7c0.2-0.2,0.5-0.4,0.9-0.5c0.3-0.1,0.7-0.2,1.1-0.2
		c0.5,0,0.9,0.1,1.4,0.3c0.4,0.2,0.8,0.4,1.1,0.7l-0.7,0.9c-0.3-0.2-0.5-0.4-0.8-0.5c-0.3-0.1-0.6-0.2-1-0.2c-0.4,0-0.7,0.1-0.9,0.2
		s-0.3,0.4-0.3,0.7c0,0.2,0,0.3,0.1,0.4c0.1,0.1,0.2,0.2,0.3,0.3c0.1,0.1,0.3,0.2,0.4,0.2c0.2,0.1,0.3,0.1,0.5,0.2l1,0.4
		c0.2,0.1,0.5,0.2,0.7,0.3s0.4,0.3,0.5,0.4s0.3,0.4,0.4,0.6c0.1,0.2,0.1,0.5,0.1,0.8c0,0.3-0.1,0.6-0.2,0.9
		c-0.1,0.3-0.3,0.5-0.6,0.7s-0.6,0.4-0.9,0.5C73.7,91.5,73.3,91.5,72.9,91.5z"/>
</g>
</svg>
