<?xml version="1.0" encoding="utf-8"?>
<!-- Generator: Adobe Illustrator 24.3.0, SVG Export Plug-In . SVG Version: 6.00 Build 0)  -->
<svg version="1.1" id="Layer_1" xmlns="http://www.w3.org/2000/svg" xmlns:xlink="http://www.w3.org/1999/xlink" x="0px" y="0px"
	 viewBox="0 0 120 100" style="enable-background:new 0 0 120 100;" xml:space="preserve">
<style type="text/css">
	.st0{fill:#070707;}
	.st1{fill:#FFFFFF;}
	.st2{fill:#050606;}
	.st3{enable-background:new    ;}
</style>
<g>
	<g>
		<path class="st0" d="M73,64.8c-1.4,0-2.9,0-4.3-0.1c-2.5-0.1-6.8-0.6-10.6-1.1c-1.8-0.2-3.4-0.4-4.6-0.6
			c-3.8-0.4-11.2-0.6-12.8-0.4c-1,0.2-2,0.4-3,0.6c0,0-0.1,0-0.1,0c-0.4,0-9.7,0.3-11.1,0.3c-0.9,0-3-0.1-4-1c0,0-0.1-0.1-0.1-0.1
			c-0.1-0.2-6.9-15.7-7.4-16.7c-0.7-1.4-1-2.4-0.7-3c0.1-0.2,0.3-0.4,0.6-0.5c0.1,0,0.2,0,0.4,0c0.1-0.7,0.6-1.4,1.7-1.7
			c1-0.2,2.3-0.1,4.8,0.2c1.5,0.2,3.6,0.4,6.4,0.6c7.2,0.6,14.5,2.4,16.9,3c1.5,0.4,3.1,1,5,1.8c1.5,0.6,3.2,1.3,5.2,2
			c1.9,0.7,3.3,1.4,4.8,2.1c2.1,1,4.1,2,7,2.5c4.7,0.8,18.7-0.2,18.8-0.2c0,0,0,0,0,0h2.7c0.4,0,1.9-0.1,3.7-0.2
			c2.8-0.1,6.4-0.3,8-0.3c2.2,0,2.6,0.1,3,0.6c0,0,0.1,0.1,0.1,0.1c0.2,0.2,0.3,0.3,0.5,0.5c0.1,0.2,0.4,0.4,0.5,0.5
			c0.2,0,0.4,0,0.6,0.2c0.3,0.3,0.4,0.8,0.4,1c0,0.3,0.1,0.6,0.2,0.9c0.1,0.2,0,0.4-0.2,0.5l-0.3,0.2c-0.1,0.5-0.4,1.7-0.6,2.2
			c0,0,0,0,0,0.1c0,0.5-0.2,1-1.8,2c-2.3,1.4-10.2,2.7-16.7,3.3C81.8,64.6,77.4,64.8,73,64.8z M43.2,61.6c3.1,0,7.8,0.2,10.4,0.5
			c1.2,0.1,2.9,0.3,4.6,0.6c3.8,0.5,8.1,1,10.5,1.1c5.8,0.2,11.6,0,17.3-0.5c7.6-0.7,14.4-2,16.3-3.2c1.4-0.9,1.4-1.1,1.4-1.3
			c0-0.1,0-0.3,0.1-0.5c0.2-0.3,0.4-1.4,0.5-2.1c0-0.1,0.1-0.2,0.2-0.3l0.2-0.1c-0.1-0.2-0.1-0.5-0.1-0.7c0,0,0,0,0,0
			c0-0.2,0-0.3-0.1-0.3c-0.5,0-0.8-0.4-1.2-0.8c-0.1-0.2-0.3-0.3-0.4-0.4c-0.1,0-0.1-0.1-0.2-0.1c-0.2-0.2-0.3-0.3-2.4-0.3
			c-1.5,0-5.1,0.2-7.9,0.3c-1.8,0.1-3.3,0.2-3.7,0.2H86c-0.8,0.1-14.3,1-19,0.2c-2.9-0.5-5-1.5-7.2-2.6c-1.4-0.7-2.9-1.4-4.7-2
			c-2-0.7-3.7-1.4-5.2-2c-1.9-0.8-3.5-1.4-4.9-1.8c-2.4-0.6-9.6-2.4-16.8-3c-2.8-0.2-4.9-0.5-6.5-0.6c-2.4-0.3-3.6-0.4-4.5-0.2
			c-1.1,0.2-1.1,1.2-1.1,1.4c0,0.2-0.1,0.3-0.2,0.4s-0.3,0.1-0.5,0c-0.1-0.1-0.2-0.1-0.3-0.1c0,0,0,0,0,0c-0.1,0.2,0,0.9,0.6,2.1
			c0.5,1,6.8,15.3,7.4,16.7c0.5,0.5,1.8,0.7,3.3,0.7c1.4,0,10.2-0.2,11-0.3c1-0.3,2-0.5,3-0.7C41,61.6,42,61.6,43.2,61.6z"/>
	</g>
	<g>
		<path d="M80.7,58.7c-6.3,0-12.4-0.6-15.8-1.3C62.2,56.9,58.2,55,54,53c-2.7-1.3-5.5-2.6-7.8-3.5c-5.9-2.3-16.6-4.1-22.2-4.7
			c-6.1-0.7-8.4-1.6-8.5-1.6l0.3-0.8c0,0,2.3,0.9,8.2,1.5c5.7,0.6,16.5,2.5,22.5,4.8c2.4,0.9,5.2,2.2,7.9,3.5c4,1.9,8,3.8,10.6,4.4
			c4.3,0.9,13,1.6,21.1,1.1c8.1-0.5,14.9-1.6,16.3-2.1c0.8-0.3,1.6-0.9,2.2-1.5l0.7,0.6c-0.7,0.8-1.6,1.4-2.6,1.7
			c-1.4,0.5-8.3,1.7-16.5,2.2C84.3,58.7,82.5,58.7,80.7,58.7z"/>
	</g>
	<g>
		<path class="st1" d="M67.5,57.1c0,0-0.2-0.4,0-1.2c0.2-0.8,2.3-5,4.1-7.8s6.6-8.8,7-9.1c0.4-0.3,2.2,1,3.8,2s6.7,3.7,7.6,4
			s1.6,0.6,1.3,1s-1.8,0.8-3.3,3.3c-1.6,2.4-2.6,5.1-2.9,6.3c-0.2,0.8-0.3,1.7-0.4,2.5c0,0-6.7,0-10.6-0.2
			C71.8,57.9,69.6,57.6,67.5,57.1z"/>
		<path d="M85,58.6h-0.4c-0.1,0-6.8,0-10.6-0.2c-2.2-0.1-4.4-0.4-6.6-0.8l-0.2,0l-0.1-0.2c-0.1-0.1-0.3-0.6,0-1.5
			c0.2-0.9,2.5-5.3,4.1-8c1.7-2.9,6.6-8.8,7.1-9.2c0.5-0.4,1.3,0.1,2.8,1c0.5,0.3,1,0.6,1.5,0.9c1.8,1,6.7,3.7,7.5,4
			c0.1,0,0.2,0.1,0.3,0.2c0.7,0.3,1.1,0.5,1.3,0.9c0,0.1,0.1,0.4-0.1,0.6c-0.1,0.2-0.3,0.3-0.6,0.5c-0.6,0.4-1.6,1.1-2.7,2.7
			c-1.5,2.4-2.6,5-2.9,6.2c-0.2,0.8-0.3,1.6-0.4,2.5L85,58.6z M67.9,56.8c2,0.4,4.1,0.7,6.1,0.8c3.3,0.2,8.6,0.2,10.2,0.2
			c0.1-0.7,0.2-1.5,0.4-2.2c0.3-1.2,1.4-4,3-6.5c1.2-1.8,2.3-2.6,3-3c0.1,0,0.2-0.1,0.2-0.2c-0.2-0.1-0.4-0.2-0.6-0.3
			c-0.1,0-0.2-0.1-0.4-0.2c-1-0.4-6-3.2-7.6-4.1c-0.5-0.3-1-0.6-1.5-0.9c-0.6-0.4-1.5-0.9-1.8-1c-0.7,0.7-5.2,6.1-6.8,8.9
			c-1.7,2.9-3.8,7-4,7.7C67.8,56.4,67.8,56.6,67.9,56.8z"/>
	</g>
	<g>
		<path class="st1" d="M89.5,52.9c0,0,1.1-2.3,1.5-4c0.2-1,0.3-2.1,0.3-3.1"/>
		<path d="M89.5,53.4c-0.1,0-0.1,0-0.2,0c-0.2-0.1-0.3-0.4-0.2-0.6c0,0,1.1-2.3,1.5-3.9c0.2-1,0.3-2,0.2-3c0-0.2,0.2-0.5,0.4-0.5
			s0.4,0.2,0.5,0.4c0.1,1.1,0,2.2-0.3,3.2c-0.4,1.7-1.5,4-1.5,4.1C89.8,53.3,89.7,53.4,89.5,53.4z"/>
	</g>
	<g>
		<path class="st1" d="M32.9,45.5c0,0-0.4-4.4-2.5-8.2s-6.2-7.7-8.7-9.2s-3.4-1.8-3.4-2.2s0.6-3.4,0.9-4s0.4-1.2,0.9-1.3
			s9.1,1.8,14.5,5.1s7.4,4.7,9.4,8.1c2,3.3,2.9,8.7,3,10c0,0.7,0.1,1.3,0.2,1.9L41.6,44"/>
		<path d="M47.1,46.1c0,0-0.1,0-0.1,0l-5.5-1.6c-0.2-0.1-0.4-0.3-0.3-0.5c0.1-0.2,0.3-0.4,0.5-0.3l4.9,1.4c0-0.4-0.1-0.9-0.1-1.3
			c-0.1-1.2-0.9-6.5-2.9-9.8c-2-3.2-3.8-4.6-9.3-7.9c-5.3-3.2-13.4-5-14.2-5c0,0,0,0,0,0c-0.3,0.1-0.4,0.4-0.6,1
			c-0.2,0.6-0.8,3.3-0.8,3.9c0.1,0.1,0.6,0.4,1,0.6c0.5,0.3,1.2,0.7,2.1,1.2c2.6,1.6,6.7,5.5,8.9,9.3c2.2,3.8,2.6,8.2,2.6,8.3
			c0,0.2-0.2,0.5-0.4,0.5s-0.5-0.2-0.5-0.4c0,0-0.4-4.3-2.5-8s-6.1-7.5-8.6-9c-0.9-0.5-1.6-0.9-2.1-1.2c-1.1-0.6-1.5-0.8-1.5-1.4
			c0-0.5,0.7-3.5,0.9-4.1c0.2-0.7,0.4-1.4,1.2-1.6c0.8-0.2,9.4,1.8,14.9,5.1c5.6,3.4,7.5,4.8,9.6,8.2c2.1,3.4,3,8.9,3,10.2
			c0,0.6,0.1,1.3,0.2,1.9c0,0.2,0,0.3-0.1,0.4C47.3,46,47.2,46.1,47.1,46.1z M20,21L20,21L20,21z"/>
	</g>
	<g>
		<path class="st1" d="M20.8,20.9c0,0,5.1,2.1,8.6,4.8s7.5,6.7,9.2,9.8s3.8,10.5,4,11.4c0.1,0.3,0.1,0.6,0.2,0.8"/>
		<path d="M42.7,48.2c-0.2,0-0.4-0.2-0.4-0.4c0-0.3-0.1-0.5-0.2-0.8c-0.2-1-2.3-8.4-3.9-11.3c-1.7-3-5.8-7-9.1-9.6
			c-3.3-2.6-8.4-4.7-8.4-4.7c-0.2-0.1-0.3-0.4-0.2-0.6c0.1-0.2,0.4-0.3,0.6-0.2c0.2,0.1,5.2,2.1,8.7,4.9c3.4,2.7,7.6,6.8,9.3,9.9
			c1.7,3.1,3.8,10.5,4,11.5c0.1,0.3,0.1,0.6,0.2,0.9C43.2,48,43,48.2,42.7,48.2C42.7,48.2,42.7,48.2,42.7,48.2z"/>
	</g>
	<g>
		<path class="st1" d="M29,32.6l4.6-3.9c0,0,1.5-1.5,2.8-2.3c0.9-0.6,1.8-1.1,2.7-1.5c0.4-0.2,1.8-0.4,1.8-0.4s2.1-1.5,5-3.4
			s7.3-4.7,8-5s1.2-0.6,1.6-0.3s2.3,2.6,2.5,3s0.6,0.8,0,1.2c-0.6,0.4-14.4,9.7-14.4,9.7c-1.2,0.2-2.4,0.6-3.5,1.3
			c-1.7,1.1-3.4,3-3.4,3s-3,2-3.3,2.1s-3.8-1.2-4.5-1.6s-1-0.9-0.7-1.2C28.5,33.1,29,32.6,29,32.6z"/>
		<path d="M33.4,36.7c-0.3,0-0.8-0.1-2.2-0.7c-0.9-0.3-2.1-0.8-2.5-1.1c-0.6-0.4-1-0.8-1.1-1.2c0-0.3,0.1-0.5,0.3-0.7
			c0.3-0.3,0.8-0.7,0.8-0.7l0,0l4.6-3.9c0.2-0.2,1.5-1.5,2.8-2.3c0.9-0.6,1.8-1.1,2.7-1.5c0.4-0.2,1.4-0.3,1.8-0.4
			c0.4-0.3,2.4-1.7,5-3.4c2.8-1.8,7.3-4.7,8-5l0.2-0.1c0.6-0.3,1.4-0.7,2-0.1c0.4,0.4,2.3,2.7,2.6,3l0,0c0.2,0.3,0.5,0.7,0.4,1.1
			c-0.1,0.3-0.2,0.5-0.5,0.7c-0.5,0.3-9.6,6.5-14.4,9.7l-0.1,0.1l-0.1,0c-1.2,0.2-2.3,0.6-3.3,1.3c-1.6,1.1-3.3,2.9-3.3,3l0,0l0,0
			c-0.7,0.5-3.1,2-3.4,2.2C33.5,36.7,33.5,36.7,33.4,36.7z M28.5,33.7c0,0.1,0.2,0.3,0.6,0.5c0.7,0.4,3.6,1.5,4.2,1.6
			c0.4-0.2,1.8-1.2,3.1-2c0.3-0.3,1.8-2,3.4-3.1c1.1-0.7,2.3-1.2,3.6-1.4c1.2-0.9,13.7-9.3,14.3-9.7c0.1,0,0.1-0.1,0.1-0.1
			c0-0.1-0.2-0.3-0.2-0.4l0,0c-0.2-0.3-2.1-2.5-2.5-2.9c-0.1-0.1-0.6,0.1-1,0.3L54,16.5c-0.6,0.3-5,3-7.9,4.9c-2.9,1.9-5,3.4-5,3.4
			L41,25l-0.1,0c-0.5,0.1-1.4,0.2-1.7,0.3c-0.9,0.5-1.8,1-2.6,1.5c-1.3,0.8-2.7,2.2-2.7,2.2l0,0L29.3,33
			C29.2,33,28.8,33.4,28.5,33.7z"/>
	</g>
	<g>
		<path class="st2" d="M38.4,38.7c0-0.2,0.1-0.3,0.2-0.3s0.3,0.1,0.3,0.2S38.8,39,38.7,39C38.6,39,38.4,38.9,38.4,38.7
			C38.4,38.8,38.4,38.8,38.4,38.7 M38.7,39c0.1,0,0.2-0.1,0.2-0.2s-0.1-0.2-0.2-0.2c-0.1,0-0.2,0.1-0.2,0.2
			C38.4,38.9,38.5,39,38.7,39 M38.6,38.9L38.6,38.9l0-0.3h0.1c0.1,0,0.1,0,0.1,0.1S38.8,38.8,38.6,38.9l0.2,0L38.6,38.9L38.6,38.9
			L38.6,38.9L38.6,38.9z M38.7,38.7L38.7,38.7C38.8,38.6,38.7,38.6,38.7,38.7L38.7,38.7L38.7,38.7L38.7,38.7z"/>
	</g>
	<g>
		<path class="st2" d="M36.2,38.9l0.2,0c0,0-0.2-0.4-0.3-0.7l0.2,0l0.3,0.5l0.5-0.3c0.1,0,0.1,0,0.2,0.1L36.7,39l0.2,0.4
			c0,0,0.3-0.5,0.5-0.8c0.1,0,0.1,0.1,0.2,0.1c-0.1,0.1-0.2,0.3-0.2,0.4l0.6,0c0.1,0.1,0.1,0.2,0.2,0.2l-0.5,0l-0.3,0.6l0.3-0.1
			l0.5-0.2c0,0,0.1,0.1,0.1,0.2l-0.6,0.2L37.2,40c-0.1,0.1-0.1,0.2-0.2,0.3c0.4-0.1,0.9-0.2,1.4-0.4c0.2,0.7,0.2,1.4-0.2,2
			c-1.2,0.3-2.6,0-3.9,0.3l-0.3,0c-0.3-0.3-0.5-0.7-0.5-1.1c-0.1-0.5-0.1-0.9,0.1-1.3l0.6,0l-0.4-0.4c0-0.1,0.1-0.1,0.1-0.2
			c0.2,0.2,0.6,0.6,0.6,0.6l0.2,0L33.9,39l0.2-0.3l0.5,0l0-0.4c0.1-0.1,0.2-0.1,0.3-0.1l0.3,0.5c0.1-0.2,0.2-0.4,0.3-0.7h0.1
			L36.2,38.9z M35.8,38.7l-0.2,0.5l0.2,0.5l0.2-0.2l0.1-0.5C36,39,35.9,38.8,35.8,38.7 M35,38.7l0,0.3h0.1
			C35.1,38.9,35,38.8,35,38.7 M34.3,39L34.3,39c0.1,0.2,0.2,0.3,0.4,0.4l0-0.3L34.3,39z M36.5,39L36.5,39l-0.1,0.2L36.5,39L36.5,39z
			 M35.1,39.2l0,0.4l0.2-0.4L35.1,39.2z M37.3,39.3l-0.2,0l-0.2,0.5l0.2,0L37.3,39.3z M36.3,39.7l0,0.4l0.3-0.5l0.1-0.1l-0.1-0.2
			L36.3,39.7z M35.5,39.7l-0.1,0.3l0.2,0.2C35.6,40,35.5,39.8,35.5,39.7 M36,39.9l-0.2,0l0,0.2h0.1L36,39.9z M34.5,39.9l-0.2,0.3
			l0.4,0.2L35,40L35,40L34.5,39.9z M33.7,40l0.4,0.2l0.1-0.2L33.7,40z M36.7,40.1l-0.2,0.3l0.2,0l0.2-0.3L36.7,40.1z M35.3,40.2
			l-0.6,0.5l-0.3,0l0.2-0.2c-0.1-0.1-0.3-0.1-0.4-0.2L34,40.7l-0.2,0c0,0.2,0,0.5,0.1,0.7c0,0.1,0,0.2,0.1,0.2c0.6,0,1.2,0,1.9,0
			l-0.1-0.9c0-0.1-0.1-0.2-0.2-0.2l-0.2,0.2l-0.5,0c0,0,0.4-0.3,0.6-0.4C35.4,40.3,35.3,40.3,35.3,40.2 M33.7,40.3l0,0.3
			c0.1-0.1,0.1-0.2,0.2-0.3L33.7,40.3z M38.3,40.3L38,40.4c0.1,0.1,0.2,0.2,0.2,0.3l-0.3,0l-0.3-0.2c-0.1,0-0.2,0.1-0.3,0.1l0.1,0.2
			l-0.2,0L37,40.6c-0.2,0.1-0.5,0.2-0.8,0.2l0,0l0.1,0.9v0.1c0.5,0.1,1.1,0.1,1.6,0.1H38c0.1-0.2,0.2-0.4,0.3-0.7
			C38.4,40.9,38.4,40.6,38.3,40.3"/>
	</g>
	<g>
		<path class="st2" d="M38.1,42c-0.2,0.2-0.3,0.5-0.6,0.6c-1.2,0-2.3-0.2-3.5-0.2l-0.1-0.1c0.9-0.1,1.8-0.2,2.8-0.1
			C37.2,42.2,37.7,42.2,38.1,42L38.1,42z"/>
	</g>
	<g>
		<path class="st2" d="M36.4,42.7c0.3,0.1,0.7,0,1.1,0.1c-0.8,0.5-1.7,0.6-2.6,0.2c-0.2-0.1-0.4-0.2-0.6-0.4h0.1l0.5,0L36.4,42.7z"
			/>
	</g>
	<g>
		<path d="M33,28.2c0.7,1.6,1.7,2.9,2.8,4.2c0.5,0.5,1,1.3,1.7,1.6c0.9,0.3,2-0.6,2.6-1.1c1-0.7,1.9-1.4,2.9-2c0.8-0.5,1.4-1,1-1.9
			c-0.5-1.3-1.4-2.4-2.1-3.6c-0.5-0.7-1.1-2.2-2.2-2.1c-1.2,0.1-2.5,1-3.5,1.6c-1.2,0.8-2.2,1.7-3.1,2.7c-0.5,0.5,0.3,1.3,0.8,0.8
			c0.8-0.9,1.7-1.7,2.7-2.4c0.5-0.3,1-0.6,1.5-0.9c0.4-0.2,1.3-0.8,1.7-0.7c0.5,0.1,1.1,1.2,1.4,1.6c0.4,0.5,0.7,1.1,1.1,1.6
			c0.2,0.4,0.9,1.3,0.9,1.7c0,0.5-0.9,0.8-1.3,1c-1,0.6-1.8,1.3-2.7,2c-0.4,0.3-1,0.8-1.4,0.5c-0.3-0.2-0.6-0.5-0.8-0.8
			c-1.2-1.2-2.3-2.6-2.9-4.2C33.7,27.3,32.7,27.6,33,28.2L33,28.2z"/>
	</g>
	<g>
		<path class="st1" d="M39.6,24.2c0,0.1,2.9,4.5,3,4.7s0.4-0.1,0.7-0.3c0.2-0.1,0.5-0.2,0.8-0.3c0,0-1.4-2.1-1.9-3s-1.3-1.8-1.4-1.9
			s-0.3,0.2-0.6,0.3C40,23.9,39.8,24,39.6,24.2z"/>
		<path d="M42.8,29.3C42.7,29.3,42.7,29.3,42.8,29.3c-0.2,0-0.3-0.1-0.3-0.2c0,0-0.2-0.2-0.4-0.5c-2.8-4.2-2.8-4.2-2.7-4.4
			c0,0,0-0.1,0-0.1c0.2-0.2,0.4-0.4,0.6-0.5c0.1-0.1,0.2-0.1,0.3-0.2c0.2-0.1,0.4-0.3,0.6-0.2s1,1.1,1.5,2c0.5,0.9,1.9,3,1.9,3
			c0,0.1,0.1,0.2,0,0.2c0,0.1-0.1,0.1-0.2,0.2c-0.3,0.1-0.5,0.2-0.7,0.3c0,0-0.1,0.1-0.2,0.1C43.1,29.1,43,29.3,42.8,29.3z
			 M39.9,24.3c0.3,0.6,2,3.1,2.6,4c0.1,0.2,0.2,0.4,0.3,0.5c0.1,0,0.1-0.1,0.2-0.1c0.1,0,0.1-0.1,0.2-0.1c0.2-0.1,0.3-0.2,0.5-0.2
			c-0.4-0.6-1.3-2-1.7-2.8c-0.4-0.7-1-1.5-1.3-1.7c0,0-0.1,0-0.1,0.1c-0.1,0.1-0.2,0.1-0.4,0.2C40.2,24,40,24.1,39.9,24.3z"/>
	</g>
	<g>
		<path class="st1" d="M40.8,26.3l1.5-1c0.2-0.1,0.5-0.1,0.6,0.1l0,0.1c0.1,0.2,0.1,0.5-0.1,0.6l-1.5,1c-0.2,0.1-0.5,0.1-0.6-0.1
			l0-0.1C40.6,26.7,40.6,26.5,40.8,26.3z"/>
		<path d="M41.1,27.5c0,0-0.1,0-0.1,0c-0.2,0-0.3-0.1-0.4-0.3l0-0.1c-0.2-0.3-0.1-0.7,0.2-1l0,0l1.5-1c0.3-0.2,0.7-0.1,1,0.2l0,0.1
			c0.1,0.1,0.1,0.3,0.1,0.5s-0.1,0.3-0.3,0.4l-1.5,1C41.4,27.4,41.2,27.5,41.1,27.5z M41,26.6c-0.1,0-0.1,0.1,0,0.2l0,0.1
			c0,0,0.1,0.1,0.1,0.1c0,0,0.1,0,0.1,0l1.5-1c0,0,0.1-0.1,0.1-0.1s0-0.1,0-0.1l0-0.1c0-0.1-0.1-0.1-0.2,0L41,26.6z"/>
	</g>
	<g>
		<circle class="st1" cx="37.5" cy="29.3" r="0.3"/>
		<path d="M37.5,29.9c-0.3,0-0.6-0.3-0.6-0.6c0-0.3,0.3-0.6,0.6-0.6s0.6,0.3,0.6,0.6C38.1,29.6,37.8,29.9,37.5,29.9z M37.5,29.2
			C37.5,29.2,37.5,29.3,37.5,29.2C37.5,29.3,37.5,29.3,37.5,29.2C37.5,29.3,37.5,29.2,37.5,29.2z"/>
	</g>
	<g>
		<circle class="st1" cx="43.8" cy="25.8" r="0.3"/>
		<path d="M43.8,26.4c-0.3,0-0.6-0.3-0.6-0.6s0.3-0.6,0.6-0.6c0.3,0,0.6,0.3,0.6,0.6S44.1,26.4,43.8,26.4z M43.8,25.7
			C43.8,25.7,43.7,25.8,43.8,25.7c-0.1,0.1,0,0.1,0,0.1S43.9,25.8,43.8,25.7C43.9,25.8,43.8,25.7,43.8,25.7z"/>
	</g>
	<g>
		<circle class="st1" cx="46.8" cy="23.5" r="0.3"/>
		<path d="M46.8,24.1c-0.3,0-0.6-0.3-0.6-0.6c0-0.3,0.3-0.6,0.6-0.6s0.6,0.3,0.6,0.6C47.4,23.8,47.2,24.1,46.8,24.1z M46.8,23.5
			C46.8,23.5,46.8,23.5,46.8,23.5C46.8,23.5,46.8,23.6,46.8,23.5C46.9,23.6,46.9,23.5,46.8,23.5C46.9,23.5,46.9,23.5,46.8,23.5z"/>
	</g>
	<g>
		<path d="M22.4,61c6.3,1,12.7,0.2,19-0.2c3.2-0.2,6.5-0.2,9.8,0c3.3,0.3,6.5,0.7,9.8,1.2c10.2,1.5,20.5,1.7,30.8,0.3
			c4.2-0.6,8.8-1.3,12.5-3.4c0.1-0.1,0.2-0.2,0.1-0.4c-0.1-0.1-0.2-0.2-0.3-0.1c-3.2,1.8-7.1,2.6-10.8,3.1
			c-4.9,0.8-9.9,1.1-14.9,1.2c-5.2,0-10.4-0.3-15.5-1c-6.2-0.8-12.4-1.8-18.7-1.6c-7.2,0.3-14.4,1.5-21.6,0.3
			C22.2,60.4,22,60.9,22.4,61L22.4,61z"/>
	</g>
	<g>
		<path d="M102.2,57.5l-0.3,0.1c-0.1,0-0.1,0-0.2-0.1c0-0.1,0-0.1,0.1-0.2l0.3-0.1l0.1,0l0,0c0.1,0,0.1,0,0.2,0.1
			C102.4,57.4,102.4,57.4,102.2,57.5L102.2,57.5z M102.8,57.3C102.7,57.3,102.6,57.2,102.8,57.3c-0.2-0.1-0.2-0.2-0.1-0.2l0.5-0.2
			c0.1,0,0.1,0,0.2,0.1l0,0c0,0.1,0,0.1-0.1,0.2L102.8,57.3z M101.5,57.7L101.5,57.7l-0.5,0.2c-0.1,0-0.1,0-0.2-0.1s0-0.1,0.1-0.2
			l0.5-0.2C101.4,57.5,101.6,57.4,101.5,57.7z M100.6,57.9L100.6,57.9l-0.5,0.1c-0.1,0-0.1,0-0.1-0.1c0-0.1,0-0.1,0.1-0.1l0.5-0.1
			C100.7,57.6,100.7,57.8,100.6,57.9z M103.5,56.9L103.5,56.9c-0.2-0.1-0.2-0.2-0.1-0.2l0.5-0.2c0.1,0,0.1,0,0.2,0.1v0
			c0,0.1,0,0.1-0.1,0.2L103.5,56.9z M99.8,58.1L99.8,58.1l-0.5,0.1c-0.1,0-0.1,0-0.1-0.1c0-0.1,0-0.1,0.1-0.1l0.5-0.1
			C99.7,57.8,99.9,57.8,99.8,58.1L99.8,58.1z M104.3,56.5L104.3,56.5c-0.2-0.1-0.2-0.2-0.1-0.2s0.2-0.2,0.4-0.3c0.1,0,0.1,0,0.2,0.1
			c0,0.1,0,0.1-0.1,0.2S104.5,56.4,104.3,56.5z M98.9,58.3L98.9,58.3c-0.2,0.1-0.3,0.1-0.5,0c-0.1,0-0.1,0-0.2-0.1
			c0-0.1,0-0.1,0.1-0.2c0.2-0.1,0.3-0.1,0.5,0C98.8,58,99,58,98.9,58.3z M98,58.4L98,58.4c-0.2,0.1-0.3,0.1-0.5,0
			c-0.1,0-0.1,0-0.2-0.1l0,0c0-0.1,0-0.1,0.1-0.2l0,0c0.2-0.1,0.3-0.1,0.5,0C98.1,58.2,98.1,58.2,98,58.4L98,58.4z M105.1,56
			L105.1,56c-0.2-0.1-0.2-0.2-0.1-0.2s0.2-0.2,0.3-0.2l0.1,0l0,0.1C105.3,55.8,105.2,55.9,105.1,56L105.1,56z M97.1,58.5L97.1,58.5
			c-0.2,0.1-0.3,0.1-0.5,0c-0.1,0-0.1,0-0.2-0.1c0-0.1,0-0.1,0.1-0.2c0.2-0.1,0.3-0.1,0.5,0C97.2,58.2,97.2,58.4,97.1,58.5z
			 M96.2,58.5L96.2,58.5c-0.1,0-0.4,0-0.5,0l-0.2-0.1l0.1-0.2c0.1,0,0.3,0,0.5,0C96.1,58.3,96.2,58.3,96.2,58.5L96.2,58.5z
			 M105.7,55.4L105.7,55.4c-0.2-0.1-0.2-0.1-0.2-0.2l0,0l0.1,0C105.8,55.2,105.8,55.2,105.7,55.4z M95.3,58.7L95.3,58.7
			c-0.1,0-0.4,0-0.5,0l-0.2-0.1l0.1-0.2c0.1,0,0.3,0,0.5,0C95.3,58.4,95.3,58.5,95.3,58.7z M94.4,58.7L94.4,58.7
			c-0.2,0.1-0.4,0-0.5,0l-0.2-0.1l0.1-0.2c0.1,0,0.3,0,0.5,0C94.5,58.6,94.5,58.6,94.4,58.7z M93.5,58.9L93.5,58.9
			c-0.2,0.1-0.4,0-0.5,0l-0.2-0.1l0.1-0.2c0.1,0,0.3,0,0.5,0C93.5,58.6,93.5,58.6,93.5,58.9L93.5,58.9z M92.6,58.9L92.6,58.9l-0.5,0
			c-0.1,0-0.1,0-0.2-0.1l0,0l0.1-0.2l0.5,0C92.7,58.7,92.7,58.7,92.6,58.9L92.6,58.9z M91.7,59L91.7,59l-0.5,0c-0.1,0-0.1,0-0.2-0.1
			l0,0l0.1-0.2l0.5,0C91.8,58.8,91.8,59,91.7,59C91.7,59,91.7,59,91.7,59L91.7,59z M90.8,59.1L90.8,59.1l-0.5,0
			c-0.1,0-0.1,0-0.2-0.1l0,0l0.1-0.2l0.5,0C90.8,58.8,90.8,58.8,90.8,59.1C90.9,58.9,90.9,59.1,90.8,59.1L90.8,59.1z M89.9,59.1
			L89.9,59.1l-0.5,0c-0.1,0-0.1,0-0.2-0.1l0,0l0.1-0.2l0.5,0C90,58.8,90,58.9,89.9,59.1z M89.1,59.2L89.1,59.2l-0.5,0
			c-0.1,0-0.1,0-0.2-0.1c0,0,0,0,0,0l0.1-0.2l0.5,0C89.1,58.9,89.1,58.9,89.1,59.2L89.1,59.2z M88.2,59.2L88.2,59.2l-0.5,0l-0.2-0.1
			l0.1-0.2l0.5,0C88.2,59,88.2,59.1,88.2,59.2C88.2,59.2,88.2,59.2,88.2,59.2z M87.2,59.4L87.2,59.4l-0.4,0l-0.2-0.1l0.1-0.2l0.5,0
			L87.2,59.4C87.3,59.2,87.3,59.3,87.2,59.4L87.2,59.4z"/>
	</g>
	<g>
		<path d="M42.2,48.9L42.2,48.9l-0.5-0.1l-0.1-0.1l0.1-0.1l0.5,0.1C42.3,48.7,42.3,48.7,42.2,48.9z M41.2,48.7L41.2,48.7l-0.5-0.1
			l-0.1-0.1l0.1-0.1l0.5,0.1C41.4,48.4,41.4,48.5,41.2,48.7z M40.3,48.5L40.3,48.5l-0.5-0.1l-0.1-0.1l0.1-0.1l0.5,0.1
			C40.4,48.3,40.4,48.4,40.3,48.5C40.3,48.5,40.3,48.5,40.3,48.5z M39.3,48.2L39.3,48.2l-0.5-0.1L38.7,48l0.1-0.1l0.5,0.1
			C39.4,48.1,39.4,48.1,39.3,48.2z M38.4,48L38.4,48l-0.5-0.1l-0.1-0.1l0.1-0.1l0.5,0.1C38.5,47.9,38.5,47.9,38.4,48z M37.5,47.8
			L37.5,47.8L37,47.7l-0.1-0.1l0.1-0.1l0.5,0.1C37.6,47.7,37.6,47.7,37.5,47.8z M36.6,47.7L36.6,47.7l-0.5-0.1L36,47.5l0.1-0.1
			l0.5,0.1C36.7,47.5,36.7,47.5,36.6,47.7z M35.7,47.5L35.7,47.5l-0.5-0.1l-0.1-0.1l0.1-0.1l0.5,0.1C35.7,47.2,35.8,47.2,35.7,47.5z
			 M34.7,47.3L34.7,47.3l-0.5-0.1L34,47.1l0.1-0.1l0.5,0.1C34.8,47,34.9,47.2,34.7,47.3z M33.8,47.2L33.8,47.2l-0.5-0.1
			c-0.1,0-0.1,0-0.1-0.1s0-0.1,0.1-0.1l0.5,0.1C33.9,47,33.9,47,33.8,47.2C33.9,47.1,33.9,47.2,33.8,47.2z M32.9,47L32.9,47
			l-0.5-0.1c-0.1,0-0.1,0-0.1-0.1c0,0,0,0,0,0l0.1-0.1l0.5,0.1C33,46.7,33,46.9,32.9,47z M32,46.9L32,46.9l-0.5-0.1
			c-0.1,0-0.1,0-0.1-0.1c0,0,0,0,0,0l0.1-0.1l0.5,0.1C32,46.6,32.1,46.6,32,46.9L32,46.9z M31.1,46.7L31.1,46.7l-0.5-0.1
			c-0.1,0-0.1,0-0.1-0.1l0,0l0.1-0.1l0.5,0.1C31.2,46.5,31.2,46.6,31.1,46.7C31.1,46.7,31.1,46.7,31.1,46.7L31.1,46.7z M30.1,46.6
			L30.1,46.6l-0.5-0.1c-0.1,0-0.1,0-0.1-0.1l0,0l0.1-0.1l0.5,0.1C30.2,46.3,30.2,46.3,30.1,46.6C30.2,46.5,30.2,46.6,30.1,46.6
			L30.1,46.6z M29.2,46.4L29.2,46.4l-0.5-0.1l-0.1-0.1c0-0.1,0-0.1,0.1-0.1c0,0,0,0,0,0l0.5,0.1C29.3,46.1,29.3,46.2,29.2,46.4
			L29.2,46.4z M28.3,46.3L28.3,46.3l-0.5-0.1c-0.1,0-0.1,0-0.1-0.1l0,0l0.1-0.1l0.5,0.1C28.4,46,28.4,46,28.3,46.3z M27.4,46.1
			L27.4,46.1L26.9,46c-0.1,0-0.1,0-0.1-0.1c0-0.1,0-0.1,0.1-0.2c0,0,0,0,0,0l0.5,0.1C27.4,45.9,27.4,46,27.4,46.1L27.4,46.1z
			 M26.3,46L26.3,46l-0.5-0.1c-0.1,0-0.1,0-0.1-0.1l0,0l0.1-0.1l0.5,0.1C26.5,45.7,26.5,45.7,26.3,46C26.5,45.9,26.5,46,26.3,46
			L26.3,46z M25.4,45.8L25.4,45.8l-0.5-0.1c-0.1,0-0.1,0-0.1-0.1c0,0,0,0,0,0l0.1-0.1l0.5,0.1C25.6,45.5,25.6,45.6,25.4,45.8z
			 M24.5,45.7L24.5,45.7L24,45.6c-0.1,0-0.1,0-0.1-0.1c0,0,0,0,0,0l0.1-0.1l0.5,0.1C24.7,45.4,24.7,45.4,24.5,45.7z M23.6,45.6
			L23.6,45.6l-0.5-0.1L23,45.4c0-0.1,0-0.1,0.1-0.1l0,0l0.5,0.1C23.7,45.4,23.7,45.5,23.6,45.6L23.6,45.6z M22.7,45.4L22.7,45.4
			l-0.5,0L22,45.3l0.1-0.2l0.5,0C22.8,45.1,22.8,45.1,22.7,45.4C22.8,45.3,22.8,45.4,22.7,45.4L22.7,45.4z M21.7,45.4L21.7,45.4
			l-0.5-0.1c-0.1,0-0.1,0-0.1-0.1s0-0.1,0.1-0.1l0.5,0.1C21.8,45.1,21.8,45.2,21.7,45.4z M20.8,45.3L20.8,45.3l-0.5-0.1
			c-0.1,0-0.1,0-0.1-0.1s0-0.1,0.1-0.1l0.5,0.1C21,45,21,45,20.8,45.3z M19.9,45.2L19.9,45.2l-0.5-0.1L19.3,45l0.1-0.1l0.5,0.1
			C20,45,20,45.1,19.9,45.2L19.9,45.2L19.9,45.2z M18.9,45L18.9,45l-0.5,0l-0.1-0.1l0.1-0.1l0.5,0C19,44.9,19,44.9,18.9,45L18.9,45z
			 M18,44.9L18,44.9l-0.5-0.1l-0.1-0.1l0.1-0.1l0.5,0.1C18.1,44.7,18.1,44.8,18,44.9L18,44.9z M17.1,44.7L17.1,44.7l-0.5-0.1
			l-0.1-0.1l0.1-0.1l0.5,0.1C17.2,44.6,17.2,44.6,17.1,44.7L17.1,44.7z M16.2,44.4L16.2,44.4l-0.5-0.1c-0.1,0-0.1,0-0.1-0.1l0,0
			l0.1-0.1l0.5,0.1C16.3,44.2,16.3,44.4,16.2,44.4L16.2,44.4z M58.1,55.8L58.1,55.8l-0.5-0.2l-0.1-0.1l0.1-0.1l0.5,0.2
			C58.3,55.6,58.3,55.6,58.1,55.8z M57.3,55.4L57.3,55.4l-0.5-0.2l-0.1-0.1l0.1-0.1l0.5,0.2C57.4,55.1,57.4,55.2,57.3,55.4
			L57.3,55.4z M56.4,55L56.4,55l-0.5-0.2l-0.1-0.1l0.1-0.1l0.5,0.2C56.5,54.8,56.5,54.9,56.4,55C56.4,55,56.4,55,56.4,55z
			 M55.5,54.5L55.5,54.5L55,54.4l-0.1-0.1l0.1-0.1l0.5,0.2C55.7,54.4,55.7,54.4,55.5,54.5z M54.7,54.1L54.7,54.1l-0.5-0.2l-0.1-0.1
			l0.1-0.1l0.5,0.2C54.8,54,54.8,54,54.7,54.1z M53.8,53.8L53.8,53.8l-0.5-0.2l-0.1-0.1l0.1-0.1l0.5,0.2
			C53.9,53.7,53.9,53.7,53.8,53.8L53.8,53.8z M52.9,53.2L52.9,53.2l-0.5-0.2L52.3,53l0.1-0.1l0.5,0.2C53.1,53,53.1,53,52.9,53.2z
			 M52,52.7L52,52.7l-0.5-0.2l-0.1-0.1l0.1-0.1l0.5,0.2C52.1,52.5,52.2,52.5,52,52.7z M51.1,52.3L51.1,52.3l-0.5-0.2L50.5,52
			l0.1-0.1l0.5,0.2C51.2,52,51.4,52.2,51.1,52.3L51.1,52.3z M50.1,52L50.1,52l-0.5-0.2c-0.1,0-0.1-0.1-0.1-0.1
			c0-0.1,0.1-0.1,0.1-0.1c0,0,0,0,0,0l0.5,0.2C50.3,51.7,50.3,51.7,50.1,52C50.3,51.9,50.2,52,50.1,52L50.1,52z M49.4,51.5
			L49.4,51.5l-0.5-0.2c-0.1,0-0.1-0.1-0.1-0.1l0,0l0.1-0.1l0.5,0.2C49.5,51.3,49.5,51.4,49.4,51.5z M48.5,51.2L48.5,51.2L48,51
			c-0.1,0-0.1-0.1-0.1-0.1v0l0.1-0.1l0.5,0.2C48.5,50.9,48.7,50.9,48.5,51.2z M47.7,50.9L47.7,50.9l-0.5-0.2c-0.1,0-0.1-0.1-0.1-0.1
			l0,0l0.1-0.1l0.5,0.2C47.7,50.7,47.7,50.8,47.7,50.9C47.7,50.9,47.7,50.9,47.7,50.9L47.7,50.9z M46.7,50.5L46.7,50.5l-0.5-0.2
			c-0.1,0-0.1-0.1-0.1-0.1l0,0l0.1-0.1l0.5,0.2C46.9,50.2,46.9,50.2,46.7,50.5C46.9,50.4,46.9,50.5,46.7,50.5L46.7,50.5z M45.9,50.2
			L45.9,50.2L45.4,50l-0.1-0.1c0-0.1,0.1-0.1,0.1-0.1l0,0l0.5,0.2C46,49.9,46,50.1,45.9,50.2z M45,49.8L45,49.8l-0.5-0.2
			c-0.1,0-0.1-0.1-0.1-0.1l0,0l0.1-0.1l0.5,0.2C45.1,49.6,45.1,49.6,45,49.8L45,49.8z M44.1,49.5L44.1,49.5l-0.5-0.2
			c-0.1,0-0.1-0.1-0.1-0.1l0,0c0-0.1,0.1-0.1,0.1-0.1l0,0l0.5,0.2C44.2,49.3,44.2,49.5,44.1,49.5C44.1,49.5,44.1,49.5,44.1,49.5z
			 M43.1,49.2L43.1,49.2L42.6,49c-0.1,0-0.1-0.1-0.1-0.1v0l0.1-0.1l0.5,0.2C43.3,48.9,43.3,48.9,43.1,49.2
			C43.3,49,43.3,49.2,43.1,49.2L43.1,49.2z M69,58.7c0,0.3,0,0.3-0.1,0.2l-0.5-0.1l-0.1-0.2l0.2-0.1L69,58.7L69,58.7z M68.1,58.6
			c0.1,0.2,0,0.3-0.1,0.2l-0.5-0.1l-0.1-0.2l0.2-0.1L68.1,58.6L68.1,58.6z M67.2,58.4c0,0.1,0,0.2-0.1,0.2c0,0,0,0,0,0l-0.5-0.1
			l-0.1-0.2l0.2-0.1L67.2,58.4L67.2,58.4z M66.1,58.2c0.1,0.2,0.1,0.2-0.1,0.2l-0.5-0.1l-0.1-0.2l0.2-0.1L66.1,58.2L66.1,58.2z
			 M65.2,58c0.1,0.2,0.1,0.2-0.1,0.2l-0.5-0.1L64.5,58l0.2-0.1L65.2,58L65.2,58z M64.3,57.8c0.1,0.2,0.1,0.2-0.1,0.2L63.7,58
			l-0.1-0.2l0.2-0.1L64.3,57.8L64.3,57.8z M63.4,57.6c0,0.3,0,0.3-0.1,0.2l-0.5-0.1l-0.1-0.2l0.2-0.1L63.4,57.6L63.4,57.6z
			 M62.5,57.3c0,0.3-0.1,0.2-0.1,0.2l-0.5-0.1l-0.1-0.2l0.2,0L62.5,57.3L62.5,57.3z M61.5,57.1c0.2,0.2,0,0.3-0.1,0.2l-0.5-0.1
			L60.8,57L61,57L61.5,57.1L61.5,57.1z M60.6,56.7c0,0.3,0,0.3-0.2,0.2l-0.5-0.2c-0.1,0-0.1-0.1,0-0.2s0.1-0.1,0.2,0l0,0L60.6,56.7
			L60.6,56.7C60.7,56.8,60.6,56.9,60.6,56.7L60.6,56.7z M59.7,56.4c0,0.2,0,0.3-0.2,0.2l-0.5-0.2l0-0.2c0-0.1,0.1-0.1,0.2,0
			c0,0,0,0,0,0L59.7,56.4z M58.9,56c0,0.3-0.2,0.2-0.2,0.2L58.3,56l0-0.2c0-0.1,0.1-0.1,0.2,0l0,0L58.9,56L58.9,56z M86.4,59.1
			c0,0.3,0,0.3-0.1,0.2l-0.5-0.1l-0.1-0.2l0.2-0.1L86.4,59.1z M85.4,59.1c0.1,0.2,0,0.3-0.1,0.2l-0.5-0.1l-0.1-0.2l0.2-0.1
			L85.4,59.1z M84.5,59.1c0,0.1,0,0.2-0.1,0.2l0,0l-0.5-0.1l-0.1-0.2L84,59L84.5,59.1z M83.5,59.2c0.1,0.2,0.1,0.2-0.1,0.2l-0.5-0.1
			l-0.1-0.2l0.2-0.1L83.5,59.2L83.5,59.2z M82.6,59.2c0.1,0.2,0.1,0.2-0.1,0.2L82,59.4l-0.1-0.2l0.2-0.1L82.6,59.2z M81.6,59.2
			c0.1,0.2,0.1,0.2-0.1,0.2l-0.5,0L81,59.2l0.2-0.1L81.6,59.2L81.6,59.2z M80.6,59.3c0,0.3,0,0.3-0.1,0.2L80,59.4l-0.1-0.2l0.2-0.1
			L80.6,59.3z M79.6,59.2c0,0.3-0.1,0.2-0.1,0.2L79,59.4l-0.1-0.2l0.2-0.1L79.6,59.2z M78.6,59.2c0.2,0.2,0,0.3-0.1,0.2l-0.5-0.1
			l-0.1-0.2l0.2-0.1L78.6,59.2z M77.5,59.1c0.1,0.3,0.1,0.3-0.1,0.2h-0.5c-0.1,0-0.1-0.1-0.1-0.2s0.1-0.1,0.2-0.1H77.5L77.5,59.1
			C77.6,59.2,77.6,59.3,77.5,59.1L77.5,59.1z M76.7,59.2c0.1,0.2,0,0.3-0.1,0.2l-0.5-0.1L76,59.2c0-0.1,0.1-0.1,0.2-0.1c0,0,0,0,0,0
			L76.7,59.2z M75.8,59.2c0,0.3-0.1,0.2-0.1,0.2l-0.5-0.1l-0.1-0.2c0-0.1,0.1-0.1,0.2-0.1l0,0L75.8,59.2z M74.8,59.1
			c0,0.1,0,0.2-0.1,0.2l0,0l-0.5-0.1l-0.1-0.2c0-0.1,0.1-0.1,0.2-0.1l0,0L74.8,59.1z M73.8,59.1c0,0.3,0,0.3-0.1,0.2l-0.5-0.1
			l-0.1-0.2c0-0.1,0.1-0.1,0.2-0.1h0L73.8,59.1L73.8,59.1C74,59.1,73.9,59.2,73.8,59.1L73.8,59.1z M72.9,59c0.1,0.2,0,0.3-0.1,0.2
			l-0.5-0.1c-0.1,0-0.1-0.1-0.1-0.2l0,0l0.2-0.1L72.9,59z M72,58.9c0,0.3,0,0.3-0.1,0.2l-0.5-0.1l-0.1-0.2c0-0.1,0.1-0.1,0.2-0.1
			l0,0L72,58.9z M71.1,58.8c0,0.1,0,0.2-0.1,0.2c0,0,0,0,0,0L70.4,59c-0.1,0-0.1-0.1-0.1-0.2c0,0,0,0,0,0c0-0.1,0.1-0.1,0.2-0.1h0
			L71.1,58.8z M70,58.8c0,0.3,0,0.3-0.1,0.2l-0.5-0.1l-0.1-0.2c0-0.1,0.1-0.1,0.2-0.1c0,0,0,0,0,0L70,58.8L70,58.8
			C70.1,58.8,70.1,58.9,70,58.8L70,58.8z"/>
	</g>
	<g>
		<path class="st1" d="M34.2,28c0,0,1.1-1.4,2.1-2.1c1.3-1,2.8-1.5,2.9-1.6s0,0.1,0,0.1s-2,1-2.7,1.5C35.8,26.5,34.2,28,34.2,28z"/>
	</g>
	<g>
		<path class="st1" d="M38.2,32.6c0,0,1.8-1.4,2.5-1.9c0.7-0.3,1.4-0.6,2.1-0.9c0,0-1.9,1-2.7,1.4c-0.8,0.5-2,1.5-2,1.5
			S38,33,38,32.9C37.9,32.8,38.2,32.6,38.2,32.6z"/>
	</g>
</g>
<g class="st3">
	<path d="M29.7,91.5c-0.6,0-1.1-0.1-1.6-0.3c-0.5-0.2-1-0.5-1.3-0.9l0.8-0.9c0.3,0.3,0.6,0.5,1,0.6c0.4,0.2,0.8,0.2,1.2,0.2
		c0.5,0,0.8-0.1,1-0.3c0.2-0.2,0.4-0.4,0.4-0.7c0-0.2,0-0.3-0.1-0.4c-0.1-0.1-0.2-0.2-0.3-0.3c-0.1-0.1-0.3-0.2-0.4-0.2
		c-0.2-0.1-0.3-0.1-0.5-0.2l-1.1-0.5c-0.2-0.1-0.4-0.2-0.6-0.3c-0.2-0.1-0.4-0.3-0.5-0.4c-0.2-0.2-0.3-0.4-0.4-0.6
		c-0.1-0.2-0.1-0.5-0.1-0.8c0-0.3,0.1-0.6,0.2-0.9c0.1-0.3,0.3-0.5,0.6-0.7c0.2-0.2,0.5-0.4,0.9-0.5c0.3-0.1,0.7-0.2,1.1-0.2
		c0.5,0,0.9,0.1,1.4,0.3c0.4,0.2,0.8,0.4,1.1,0.7l-0.7,0.9c-0.3-0.2-0.5-0.4-0.8-0.5c-0.3-0.1-0.6-0.2-1-0.2c-0.4,0-0.7,0.1-0.9,0.2
		s-0.3,0.4-0.3,0.7c0,0.2,0,0.3,0.1,0.4c0.1,0.1,0.2,0.2,0.3,0.3s0.3,0.2,0.4,0.2c0.2,0.1,0.3,0.1,0.5,0.2l1,0.4
		c0.2,0.1,0.5,0.2,0.7,0.3s0.4,0.3,0.5,0.4s0.3,0.4,0.4,0.6c0.1,0.2,0.1,0.5,0.1,0.8c0,0.3-0.1,0.6-0.2,0.9
		c-0.1,0.3-0.3,0.5-0.6,0.7s-0.6,0.4-0.9,0.5C30.5,91.5,30.1,91.5,29.7,91.5z"/>
	<path d="M33.5,91.4l2.5-7.8h1.6l2.5,7.8h-1.5l-0.6-2.1h-2.6l-0.6,2.1H33.5z M36.1,87.2l-0.3,1h2l-0.3-1c-0.1-0.4-0.2-0.8-0.3-1.3
		c-0.1-0.4-0.2-0.9-0.3-1.3h0c-0.1,0.4-0.2,0.9-0.3,1.3C36.3,86.4,36.2,86.8,36.1,87.2z"/>
	<path d="M41.3,91.4v-7.8h1.5l2.1,4.4l0.7,1.7h0c0-0.4-0.1-0.8-0.1-1.3c0-0.5-0.1-0.9-0.1-1.4v-3.4h1.3v7.8h-1.5L43.2,87l-0.7-1.7h0
		c0,0.4,0.1,0.9,0.1,1.3c0,0.5,0.1,0.9,0.1,1.3v3.4H41.3z"/>
	<path d="M48.6,91.4v-7.8h2.1c1.2,0,2.1,0.3,2.7,1c0.7,0.6,1,1.6,1,2.9c0,0.6-0.1,1.2-0.3,1.7s-0.4,0.9-0.7,1.2s-0.7,0.6-1.1,0.8
		c-0.4,0.2-1,0.3-1.5,0.3H48.6z M50,90.2h0.6c0.8,0,1.3-0.2,1.7-0.7c0.4-0.5,0.6-1.2,0.6-2.1c0-1-0.2-1.7-0.6-2.1
		c-0.4-0.4-1-0.7-1.7-0.7H50V90.2z"/>
	<path d="M55.1,91.4l2.5-7.8h1.6l2.5,7.8h-1.5l-0.6-2.1h-2.6l-0.6,2.1H55.1z M57.7,87.2l-0.3,1h2l-0.3-1c-0.1-0.4-0.2-0.8-0.3-1.3
		c-0.1-0.4-0.2-0.9-0.3-1.3h0c-0.1,0.4-0.2,0.9-0.3,1.3C57.9,86.4,57.8,86.8,57.7,87.2z"/>
	<path d="M63.5,91.4v-7.8h1.4v6.7h3.7v1.2H63.5z"/>
	<path d="M70.3,91.4v-1.2h1.9v-5.5h-1.9v-1.2h5.2v1.2h-1.9v5.5h1.9v1.2H70.3z"/>
	<path d="M76.7,91.4l2.5-7.8h1.6l2.5,7.8h-1.5l-0.6-2.1h-2.6l-0.6,2.1H76.7z M79.3,87.2l-0.3,1h2l-0.3-1c-0.1-0.4-0.2-0.8-0.3-1.3
		c-0.1-0.4-0.2-0.9-0.3-1.3h0c-0.1,0.4-0.2,0.9-0.3,1.3C79.5,86.4,79.4,86.8,79.3,87.2z"/>
	<path d="M87.3,91.5c-0.6,0-1.1-0.1-1.6-0.3c-0.5-0.2-1-0.5-1.3-0.9l0.8-0.9c0.3,0.3,0.6,0.5,1,0.6c0.4,0.2,0.8,0.2,1.2,0.2
		c0.5,0,0.8-0.1,1-0.3s0.4-0.4,0.4-0.7c0-0.2,0-0.3-0.1-0.4s-0.2-0.2-0.3-0.3c-0.1-0.1-0.3-0.2-0.4-0.2s-0.3-0.1-0.5-0.2l-1.1-0.5
		c-0.2-0.1-0.4-0.2-0.6-0.3c-0.2-0.1-0.4-0.3-0.5-0.4s-0.3-0.4-0.4-0.6c-0.1-0.2-0.1-0.5-0.1-0.8c0-0.3,0.1-0.6,0.2-0.9
		c0.1-0.3,0.3-0.5,0.6-0.7c0.2-0.2,0.5-0.4,0.9-0.5c0.3-0.1,0.7-0.2,1.1-0.2c0.5,0,0.9,0.1,1.4,0.3c0.4,0.2,0.8,0.4,1.1,0.7
		l-0.7,0.9c-0.3-0.2-0.5-0.4-0.8-0.5c-0.3-0.1-0.6-0.2-1-0.2c-0.4,0-0.7,0.1-0.9,0.2s-0.3,0.4-0.3,0.7c0,0.2,0,0.3,0.1,0.4
		c0.1,0.1,0.2,0.2,0.3,0.3c0.1,0.1,0.3,0.2,0.4,0.2c0.2,0.1,0.3,0.1,0.5,0.2l1,0.4c0.2,0.1,0.5,0.2,0.7,0.3s0.4,0.3,0.5,0.4
		s0.3,0.4,0.4,0.6c0.1,0.2,0.1,0.5,0.1,0.8c0,0.3-0.1,0.6-0.2,0.9c-0.1,0.3-0.3,0.5-0.6,0.7s-0.6,0.4-0.9,0.5
		C88.1,91.5,87.7,91.5,87.3,91.5z"/>
</g>
</svg>
