<?xml version="1.0" encoding="utf-8"?>
<!-- Generator: Adobe Illustrator 24.3.0, SVG Export Plug-In . SVG Version: 6.00 Build 0)  -->
<svg version="1.1" id="Layer_1" xmlns="http://www.w3.org/2000/svg" xmlns:xlink="http://www.w3.org/1999/xlink" x="0px" y="0px"
	 viewBox="0 0 120 126" style="enable-background:new 0 0 120 126;" xml:space="preserve">
<style type="text/css">
	.st0{fill:#070707;}
	.st1{enable-background:new    ;}
</style>
<g id="XMLID_50_">
	<g id="XMLID_88_">
		<path id="XMLID_89_" class="st0" d="M43,83.2h-2c-0.1,0-0.2,0-0.3-0.1l-0.3-0.2l-0.3,0.2c-0.1,0.1-0.2,0.1-0.3,0.1h-2
			c-0.1,0-0.2,0-0.3-0.1L37.6,83v0.1c-0.1,0.1-0.2,0.2-0.4,0.2h-1.9c-0.1,0-0.2,0-0.3-0.1l-0.2-0.1l0,0c-0.1,0.1-0.2,0.2-0.4,0.2
			h-3.1c-0.1,0-0.3,0-0.3-0.1L30.9,83c-0.1,0.1-0.2,0.1-0.3,0.1h-1.2c-0.1,0-0.2,0-0.3-0.1l-0.2-0.2L28.8,83
			c-0.1,0.1-0.2,0.1-0.4,0.1L27.1,83c-0.1,0-0.2,0-0.3-0.1C26.7,83,26.5,83,26.3,83l-0.7-0.3l-0.2,0.1c-0.1,0.1-0.3,0.1-0.5,0
			l-0.5-0.3l-0.5,0.2c-0.2,0.1-0.5,0.1-0.6-0.1l-0.1-0.2l-0.5,0.1c-0.1,0-0.3,0-0.4-0.1L21.9,82l-0.2,0.1c-0.2,0-0.3,0-0.5-0.1
			l-0.7-0.6h-0.5c-0.1,0-0.3-0.1-0.3-0.2l-0.7-0.8c-0.1-0.1-0.1-0.2-0.1-0.3v-7.3c-0.1-0.3-0.3-1.7,0.3-2.5c0.1-0.2,0.3-0.3,0.5-0.4
			c-0.4-1.5-1.5-6.8-0.5-10.8c0.3-1,0.6-2.1,0.9-3.3c1.1-4,2.5-8.8,2.7-11.8c0.4-4,0.7-11.8,0.6-13.7c-0.1-1.9,0.1-5.5,0.6-6.6
			c-0.3-1.8-0.3-2.9,0-3.3l0,0c0-1.2,0-3.1-0.1-3.6c0-0.1,0-0.2,0-0.3c-0.3-1.2-0.6-2.5-0.1-3.3c0.2-0.2,0.4-0.4,0.7-0.5
			c0.2-0.1,0.8-0.3,1.2,0.1c0.6,0.4,0.8,1.1,0.7,2.3c-0.1,2.3-0.2,4.3-0.2,4.7l0.5,2.3l5.2-0.1c1.1-0.2,3.2,0,4,1.6
			c1.9,0,10.6,0,12.7,0.1l0.3-0.3c0.2-0.9,1-2.5,3.2-2.6c2.5-0.1,5.9-0.2,6-0.2h0.1c0,0,1.3,0.4,1.7,2.3c0.4,1.9,2.1,11.9,2.5,15.9
			c0.2,1.7,1,6.1,3.1,10.7c1.7,3.7,4.6,8.5,9.1,10.5c0.1,0,10.4,4.9,18.4,4.5c0.1,0,3.3-0.2,5.3,1.7c1,0.9,1.5,2.3,1.5,4
			c0.6,0.2,1.2,0.8,1.3,1.8l0,0v2.5c0,0.1,0,0.2-0.1,0.3l-0.7,0.9c-0.1,0.2-0.4,0.2-0.6,0.2h-0.1l-0.1,0.5c0,0.2-0.2,0.3-0.3,0.4
			l-0.7,0.2h-0.1V77c0,0.2-0.2,0.3-0.4,0.4l-0.8,0.1c0,0-0.1,0-0.2,0l-0.1,0.1c0,0.1-0.1,0.2-0.3,0.2l-0.5,0.2c-0.1,0-0.2,0-0.3,0
			L96,78c0,0-0.1,0.1-0.2,0.1l-2.6,1l0,0c-0.1,0-6.6,2-11.8,2.7c-0.3,0.1-3.5,0.7-6.8,0.8c-0.7,0-1.3,0-1.9,0
			c-2.7,0.1-5.4,0.2-8.1-0.6c-0.8-0.2-2-0.6-3.4-1.1c-4.6-1.5-11.5-3.9-17.2-4.3l-0.5,0.1l-0.3,5.9C43.5,83,43.3,83.2,43,83.2z
			 M41.3,82.2h1.4l0.3-5.8c0-0.2,0.2-0.4,0.4-0.5l0.9-0.2h0.1c5.8,0.5,12.9,2.8,17.5,4.3c1.4,0.5,2.6,0.8,3.4,1
			c2.4,0.7,5.1,0.6,7.8,0.6c0.7,0,1.3,0,1.9,0c3.3,0,6.6-0.8,6.6-0.8l0,0c5.1-0.7,11.3-2.5,11.7-2.6l2.4-0.9L96,77
			c0.1-0.1,0.2-0.2,0.4-0.2c0.1,0,0.2,0.1,0.3,0.1l0,0l0.3-0.6c0.1-0.2,0.2-0.3,0.4-0.3c0.2,0,0.3,0.1,0.4,0.2l0,0h0.1l0.1-0.5
			c0-0.2,0.2-0.3,0.3-0.4c0.2,0,0.4,0,0.5,0.1l0.1,0.1h0.1l0.2-0.7c0-0.1,0.1-0.2,0.2-0.3c0.1-0.1,0.3-0.1,0.4,0l0.3,0.1l0.4-0.6
			v-2.3c-0.1-0.9-0.8-1-0.9-1c-0.3,0-0.5-0.2-0.4-0.5c0.1-1.6-0.3-2.8-1.2-3.7c-1.7-1.6-4.6-1.4-4.6-1.4c-4.3,0.2-9.2-1-12.6-2.2
			c-3.7-1.2-6.3-2.5-6.3-2.5c-2.6-1.2-6.5-4-9.6-10.9c-2.1-4.7-3-9.2-3.2-11c-0.3-3.9-2-13.8-2.3-15.7c-0.2-1.1-0.8-1.5-0.9-1.6
			c-0.6,0-3.6,0.1-5.8,0.2c-2.2,0.1-2.3,1.9-2.3,2s-0.1,0.2-0.1,0.3l-0.6,0.6c-0.1,0.1-0.2,0.2-0.4,0.2c-1.8-0.1-13.1-0.1-13.3-0.1
			s-0.4-0.1-0.5-0.3c-0.5-1.7-3-1.2-3-1.2s0,0-0.1,0l-5.5,0.1c-0.2,0-0.4-0.2-0.5-0.4L25.5,20v-0.1c0,0,0.1-2.3,0.2-4.8
			c0.1-1.1-0.2-1.4-0.3-1.4c-0.2-0.1-0.4,0-0.4,0h-0.1c0,0,0,0-0.1,0.1c-0.3,0.5,0.1,2.1,0.2,2.5c0,0.1,0,0.2,0.1,0.3
			c0.1,0.7,0.1,3.7,0.1,4c0,0.2-0.1,0.3-0.2,0.4c-0.1,0.4,0,1.5,0.2,2.6c0,0.1,0,0.2-0.1,0.3c-0.3,0.6-0.7,4-0.5,6.2
			c0.1,2.1-0.1,9.7-0.6,13.8c-0.3,3.2-1.6,7.9-2.8,12c-0.3,1.1-0.7,2.3-0.9,3.2c-1.2,4.5,0.6,10.7,0.6,10.7c0,0.1,0,0.3-0.1,0.4
			s-0.2,0.2-0.3,0.2s-0.3,0.1-0.3,0.2c-0.3,0.5-0.2,1.5-0.1,1.9v0.1v7.2l0.5,0.6H21c0.1,0,0.2,0,0.3,0.1l0.7,0.5l0.2-0.1
			c0.1,0,0.3,0,0.4,0.1l0.7,0.5l0.5-0.1c0.2,0,0.3,0,0.5,0.2l0.1,0.1l0.4-0.2c0.1-0.1,0.3-0.1,0.5,0l0.5,0.3l0.2-0.1
			c0.1-0.1,0.3-0.1,0.4,0l0.6,0.2l0.1-0.1c0.1-0.1,0.2-0.2,0.4-0.2c0.1,0,0.3,0,0.4,0.1l0.2,0.2l0.9,0.1l0.4-0.4
			c0.2-0.2,0.5-0.2,0.7,0l0.4,0.4h0.9l0.1-0.1c0.1-0.1,0.2-0.2,0.4-0.2c0.2,0,0.3,0,0.4,0.1l0.5,0.5h2.1l0.2-0.3
			c0.1-0.1,0.2-0.2,0.3-0.2s0.3,0,0.4,0.1l0.4,0.4H37l0.2-0.3c0.1-0.1,0.2-0.2,0.3-0.2s0.3,0,0.4,0.1l0.4,0.3h1.7l0.4-0.3
			c0.2-0.1,0.4-0.1,0.6,0L41.3,82.2z"/>
	</g>
	<g id="XMLID_86_">
		<path id="XMLID_87_" class="st0" d="M72.8,79.2c-0.4,0-0.7,0-1,0c-5.8-0.1-9.3-1.3-14.1-2.9c-0.8-0.3-1.5-0.5-2.3-0.8
			c-6-2-19.8-3-24.4-3.4h-0.8c-3.8-0.3-9.8-1.6-9.8-1.6c-0.1,0-0.2-0.2-0.2-0.3s0.2-0.2,0.3-0.2s6,1.3,9.8,1.6h0.8
			c4.5,0.4,18.3,1.3,24.5,3.4c0.8,0.3,1.6,0.6,2.3,0.8c4.7,1.6,8.2,2.8,13.9,2.9c8.4,0.2,15.5-1.9,16.6-2.3c0.2-0.1,0.8-0.2,1.4-0.5
			c2.9-0.8,10.5-3.1,10.2-5.1c0-0.1,0.1-0.3,0.2-0.3c0.1,0,0.3,0.1,0.3,0.2c0.5,2.2-4.8,3.9-10.4,5.6c-0.7,0.2-1.2,0.4-1.4,0.5
			C87.4,77.4,80.8,79.2,72.8,79.2z"/>
	</g>
	<g id="XMLID_84_">
		<path id="XMLID_85_" class="st0" d="M33.5,72.2c-0.1,0-0.1,0-0.2-0.1c0-0.1-1.1-5.6-1.7-7.2c-0.6-1.7-3.8-12.7-4-14.8
			c-0.3-2-2.1-18.9-2.2-20.8c-0.1-1.8,0-4.9,0-5c0,0,0.2-2.4-0.9-3.7c-0.1-0.1,0-0.2,0-0.2c0.1-0.1,0.2,0,0.2,0
			c1.2,1.4,1,3.8,0.9,3.9c0,0-0.1,3.2,0,4.9c0.1,1.9,1.9,18.8,2.2,20.8c0.3,2.1,3.5,13.1,4,14.8c0.5,1.6,1.6,7,1.7,7.2
			C33.6,72.1,33.5,72.2,33.5,72.2L33.5,72.2z"/>
	</g>
	<g id="XMLID_82_">
		<path id="XMLID_83_" class="st0" d="M50.8,58.5L50.8,58.5l-12.2-1.9c-2-0.4-2-3.1-2-3.2L36.5,47c0.5-7.2-1-22.8-1-22.9
			s0.1-0.2,0.1-0.2c0.1,0,0.2,0.1,0.2,0.1c0,0.2,1.5,15.7,1,23l0.1,6.4c0,0,0,2.5,1.7,2.9l12,1.9l-1.3-34.6c0-0.1,0.1-0.2,0.2-0.2
			c0.1,0,0.2,0.1,0.2,0.2l1.3,34.8v0.1C50.9,58.5,50.8,58.5,50.8,58.5z"/>
	</g>
	<g id="XMLID_80_">
		<path id="XMLID_81_" class="st0" d="M71.6,80.8c-0.6,0-1.1,0-1.7,0c-3.3-0.1-8.5-1.7-13.5-3.3c-1.9-0.6-3.9-1.1-5.6-1.7
			c-4.2-1.2-9.9-1.6-14.4-1.9c-2.3-0.2-4.3-0.3-5.9-0.5c-3.2-0.4-10.5-1.6-10.5-1.6c-0.1,0-0.1-0.1-0.1-0.2c0-0.1,0.1-0.1,0.2-0.1
			c0.1,0,7.3,1.1,10.5,1.6c1.6,0.2,3.7,0.4,5.9,0.5c4.5,0.3,10.2,0.7,14.5,1.9c1.8,0.5,3.8,1.1,5.6,1.7c5,1.5,10.2,3.1,13.5,3.2
			c4.5,0.2,10.9-0.5,15.6-1.6c11.9-2.9,14.3-5.1,15.1-5.8c0.1-0.1,0.2-0.1,0.2,0s0.1,0.2,0,0.2c-2.8,2.6-10.1,4.6-15.2,5.8
			C81.4,80.2,75.9,80.8,71.6,80.8z"/>
	</g>
	<g id="XMLID_78_">
		<path id="XMLID_79_" class="st0" d="M44.2,76.2L44.2,76.2c-8-0.1-14.2-0.8-18-1.3c-4.1-0.6-6.4-1.1-6.4-1.1
			c-0.1,0-0.1-0.1-0.1-0.2c0-0.1,0.1-0.1,0.2-0.1c0.1,0,9.1,2.3,24.4,2.4c0.1,0,0.2,0.1,0.2,0.2C44.4,76.2,44.3,76.2,44.2,76.2z"/>
	</g>
	<g id="XMLID_76_">
		<path id="XMLID_77_" class="st0" d="M52.5,74.7c-0.1,0-0.2-0.1-0.2-0.2c0-0.1-0.6-12.7-1.7-16.2c0-0.1,0-0.3,0.2-0.3
			c0.1,0,0.3,0,0.3,0.2c1.1,3.5,1.7,15.7,1.7,16.3C52.7,74.6,52.5,74.7,52.5,74.7L52.5,74.7z"/>
	</g>
	<g id="XMLID_74_">
		<path id="XMLID_75_" class="st0" d="M25.4,19.2c-0.1,0-0.1-0.1-0.2-0.1c0-0.1-0.5-3.1-0.5-3.6c0-0.4,0-0.7,0.3-0.9
			c0.1-0.1,0.3-0.1,0.4-0.1h0.1c0,0,0.3,0.3,0.3,0.9c0,0.5-0.3,3.4-0.3,3.5C25.5,19.1,25.5,19.2,25.4,19.2L25.4,19.2z M25.3,15
			C25.2,15,25.2,15,25.3,15c-0.2,0.1-0.2,0.4-0.2,0.6c0,0.3,0.1,1.3,0.3,2.3c0.1-0.9,0.2-2,0.2-2.3C25.5,15.3,25.4,15.1,25.3,15
			L25.3,15z"/>
	</g>
	<g id="XMLID_72_">
		<path id="XMLID_73_" class="st0" d="M53,74.5L53,74.5C53,74.5,52.9,74.5,53,74.5c-0.1-0.1-0.1-0.2-0.1-0.4c0,0,0-0.1,0.1-0.1l0,0
			c0,0,0.1,0,0.1,0.1C53.1,74.3,53.1,74.5,53,74.5C53.1,74.5,53.1,74.5,53,74.5z M53,74L53,74c0-0.2,0-0.3,0-0.4c0,0,0-0.1,0.1-0.1
			l0,0c0,0,0.1,0,0.1,0.1C53.1,73.7,53.1,73.8,53,74C53.1,73.9,53.1,74,53,74z M53,73.3L53,73.3c0-0.1,0-0.3,0-0.4
			c0,0,0-0.1,0.1-0.1s0.1,0,0.1,0.1C53.1,73,53.1,73.2,53,73.3C53.1,73.3,53.1,73.3,53,73.3L53,73.3z M53,72.8
			C53,72.8,52.9,72.7,53,72.8l-0.1-0.4c0,0,0-0.1,0.1-0.1c0,0,0.1,0,0.1,0.1L53,72.8C53.1,72.7,53.1,72.8,53,72.8L53,72.8z M53,72.1
			C53,72.1,52.9,72.1,53,72.1l-0.1-0.4c0,0,0-0.1,0.1-0.1c0,0,0.1,0,0.1,0.1L53,72.1C53.1,72.1,53.1,72.1,53,72.1L53,72.1z M53,71.5
			C52.9,71.5,52.9,71.4,53,71.5l-0.1-0.4c0,0,0-0.1,0.1-0.1c0,0,0.1,0,0.1,0.1L53,71.5C53.1,71.4,53,71.4,53,71.5L53,71.5z M53,70.9
			C52.9,70.9,52.9,70.9,53,70.9l-0.1-0.4c0,0,0-0.1,0.1-0.1c0,0,0.1,0,0.1,0.1L53,70.9L53,70.9L53,70.9z M52.9,70.3
			C52.9,70.3,52.8,70.2,52.9,70.3l-0.1-0.4c0,0,0-0.1,0.1-0.1c0,0,0.1,0,0.1,0.1L52.9,70.3C53,70.2,53,70.2,52.9,70.3L52.9,70.3z
			 M52.9,69.6C52.8,69.6,52.8,69.6,52.9,69.6l-0.1-0.4c0,0,0-0.1,0.1-0.1c0,0,0.1,0,0.1,0.1L52.9,69.6C53,69.6,52.9,69.6,52.9,69.6
			L52.9,69.6z M52.8,69L52.8,69l-0.1-0.4c0,0,0-0.1,0.1-0.1c0,0,0.1,0,0.1,0.1L52.8,69C52.9,69,52.9,69,52.8,69
			C52.9,69,52.8,69,52.8,69z M52.8,68.4C52.8,68.4,52.7,68.4,52.8,68.4L52.7,68c0,0,0-0.1,0.1-0.1c0,0,0.1,0,0.1,0.1L52.8,68.4
			C52.9,68.3,52.9,68.4,52.8,68.4L52.8,68.4z M52.8,67.8C52.7,67.8,52.7,67.8,52.8,67.8l-0.1-0.4c0,0,0-0.1,0.1-0.1
			c0,0,0.1,0,0.1,0.1L52.8,67.8L52.8,67.8L52.8,67.8z M52.7,67.2C52.7,67.2,52.6,67.1,52.7,67.2l-0.1-0.4c0,0,0-0.1,0.1-0.1
			s0.1,0,0.1,0.1L52.7,67.2C52.8,67.1,52.8,67.2,52.7,67.2L52.7,67.2z M52.7,66.5C52.6,66.5,52.6,66.5,52.7,66.5l-0.1-0.4
			c0,0,0-0.1,0.1-0.1c0,0,0.1,0,0.1,0.1L52.7,66.5L52.7,66.5L52.7,66.5z M52.6,66C52.5,66,52.5,65.9,52.6,66l-0.1-0.4
			c0,0,0-0.1,0.1-0.1c0,0,0.1,0,0.1,0.1L52.6,66C52.7,65.9,52.6,66,52.6,66L52.6,66z M52.5,65.3C52.5,65.3,52.5,65.3,52.5,65.3
			l-0.1-0.4c0,0,0-0.1,0.1-0.1c0,0,0.1,0,0.1,0.1L52.5,65.3C52.6,65.3,52.6,65.3,52.5,65.3L52.5,65.3z M52.5,64.8
			C52.5,64.8,52.5,64.7,52.5,64.8l-0.2-0.4c0,0,0-0.1,0.1-0.1c0,0,0.1,0,0.1,0.1L52.5,64.8C52.5,64.7,52.5,64.7,52.5,64.8L52.5,64.8
			z M52.5,64.1C52.4,64.1,52.4,64.1,52.5,64.1l-0.1-0.4c0,0,0-0.1,0.1-0.1c0,0,0.1,0,0.1,0.1L52.5,64.1
			C52.5,64.1,52.5,64.1,52.5,64.1L52.5,64.1z M52.4,63.5C52.4,63.5,52.3,63.4,52.4,63.5l-0.1-0.4c0,0,0-0.1,0.1-0.1
			c0,0,0.1,0,0.1,0.1L52.4,63.5C52.5,63.4,52.5,63.5,52.4,63.5L52.4,63.5z M52.3,62.9C52.3,62.9,52.2,62.9,52.3,62.9l-0.1-0.4
			c0,0,0-0.1,0.1-0.1c0,0,0.1,0,0.1,0.1L52.3,62.9C52.4,62.9,52.4,62.9,52.3,62.9L52.3,62.9z M52.2,62.3
			C52.2,62.3,52.1,62.2,52.2,62.3l-0.1-0.4c0,0,0-0.1,0.1-0.1c0,0,0.1,0,0.1,0.1L52.2,62.3C52.3,62.2,52.3,62.3,52.2,62.3L52.2,62.3
			z M52.1,61.7L52.1,61.7L52,61.3c0,0,0-0.1,0.1-0.1c0,0,0.1,0,0.1,0.1L52.1,61.7C52.2,61.7,52.2,61.7,52.1,61.7L52.1,61.7z
			 M52,61.1C52,61.1,52,61,52,61.1l-0.1-0.4c0,0,0-0.1,0.1-0.1c0,0,0.1,0,0.1,0.1L52,61.1C52.1,61,52.1,61,52,61.1
			C52.1,61.1,52.1,61.1,52,61.1z M51.9,60.4L51.9,60.4L51.8,60c0,0,0-0.1,0.1-0.1c0,0,0.1,0,0.1,0.1L51.9,60.4
			C52,60.4,52,60.4,51.9,60.4C52,60.4,52,60.4,51.9,60.4z M51.9,59.9C51.8,59.9,51.8,59.8,51.9,59.9l-0.1-0.4c0,0,0-0.1,0.1-0.1
			c0,0,0.1,0,0.1,0.1L51.9,59.9C51.9,59.8,51.9,59.8,51.9,59.9L51.9,59.9z M51.8,59.2C51.7,59.2,51.7,59.2,51.8,59.2l-0.1-0.4
			c0,0,0-0.1,0.1-0.1c0,0,0.1,0,0.1,0.1L51.8,59.2L51.8,59.2L51.8,59.2z M51.6,58.6C51.6,58.6,51.6,58.5,51.6,58.6l-0.1-0.3v-0.1
			c0,0,0-0.1,0.1-0.1s0.1,0,0.1,0.1v0.1L51.6,58.6C51.7,58.5,51.7,58.6,51.6,58.6C51.7,58.6,51.6,58.6,51.6,58.6z M51.6,58
			C51.5,58,51.5,58,51.6,58l-0.1-0.4c0,0,0-0.1,0.1-0.1s0.1,0,0.1,0.1L51.6,58C51.7,58,51.6,58,51.6,58L51.6,58z M51.5,57.4
			C51.5,57.4,51.5,57.3,51.5,57.4L51.4,57c0,0,0-0.1,0.1-0.1s0.1,0,0.1,0.1L51.5,57.4C51.6,57.3,51.6,57.4,51.5,57.4L51.5,57.4z
			 M51.5,56.8C51.5,56.8,51.4,56.8,51.5,56.8l-0.1-0.4c0,0,0-0.1,0.1-0.1s0.1,0,0.1,0.1L51.5,56.8C51.6,56.8,51.6,56.8,51.5,56.8
			L51.5,56.8z M51.5,56.1C51.4,56.1,51.4,56.1,51.5,56.1l-0.1-0.4c0,0,0-0.1,0.1-0.1s0.1,0,0.1,0.1L51.5,56.1
			C51.6,56.1,51.5,56.1,51.5,56.1L51.5,56.1z M51.4,55.5C51.4,55.5,51.3,55.5,51.4,55.5l-0.1-0.4c0,0,0-0.1,0.1-0.1s0.1,0,0.1,0.1
			L51.4,55.5C51.5,55.5,51.5,55.5,51.4,55.5L51.4,55.5z M51.4,54.9C51.3,54.9,51.3,54.9,51.4,54.9l-0.1-0.4c0,0,0-0.1,0.1-0.1
			s0.1,0,0.1,0.1L51.4,54.9C51.5,54.9,51.4,54.9,51.4,54.9L51.4,54.9z M51.4,54.3C51.3,54.3,51.3,54.2,51.4,54.3l-0.1-0.4
			c0,0,0-0.1,0.1-0.1s0.1,0,0.1,0.1L51.4,54.3C51.4,54.2,51.4,54.3,51.4,54.3L51.4,54.3z M51.3,53.7C51.3,53.7,51.2,53.7,51.3,53.7
			l-0.1-0.4c0,0,0-0.1,0.1-0.1s0.1,0,0.1,0.1L51.3,53.7C51.4,53.7,51.4,53.7,51.3,53.7L51.3,53.7z M51.3,53.1
			C51.2,53.1,51.2,53,51.3,53.1l-0.1-0.4c0,0,0-0.1,0.1-0.1s0.1,0,0.1,0.1L51.3,53.1C51.4,53,51.3,53.1,51.3,53.1L51.3,53.1z
			 M51.2,52.4L51.2,52.4L51.1,52c0,0,0-0.1,0.1-0.1s0.1,0,0.1,0.1L51.2,52.4C51.3,52.4,51.3,52.4,51.2,52.4L51.2,52.4z M51.2,51.9
			C51.2,51.9,51.1,51.8,51.2,51.9l-0.1-0.4c0,0,0-0.1,0.1-0.1s0.1,0,0.1,0.1L51.2,51.9C51.3,51.8,51.3,51.9,51.2,51.9L51.2,51.9z
			 M51.2,51.2C51.1,51.2,51.1,51.2,51.2,51.2l-0.1-0.4c0,0,0-0.1,0.1-0.1s0.1,0,0.1,0.1L51.2,51.2C51.3,51.2,51.2,51.2,51.2,51.2
			L51.2,51.2z M51.1,50.7C51.1,50.7,51.1,50.5,51.1,50.7L51,50.3c0,0,0-0.1,0.1-0.1s0.1,0,0.1,0.1L51.1,50.7
			C51.2,50.5,51.2,50.7,51.1,50.7L51.1,50.7z M51.1,50C51,50,51,50,51.1,50L51,49.6c0,0,0-0.1,0.1-0.1s0.1,0,0.1,0.1L51.1,50
			C51.2,50,51.1,50,51.1,50L51.1,50z M51.1,49.3C51,49.3,51,49.3,51.1,49.3L51,49c0,0,0-0.1,0.1-0.1s0.1,0,0.1,0.1L51.1,49.3
			L51.1,49.3L51.1,49.3z M51,48.8C51,48.8,51,48.8,51,48.8L51,48.4c0,0,0-0.1,0.1-0.1s0.1,0,0.1,0.1L51,48.8
			C51.1,48.7,51.1,48.8,51,48.8L51,48.8z M51,48.1C51,48.1,51,48.1,51,48.1L51,47.7c0,0,0-0.1,0.1-0.1c0,0,0.1,0,0.1,0.1L51,48.1
			C51.1,48.1,51,48.1,51,48.1L51,48.1z M51,47.5C51,47.5,51,47.5,51,47.5L51,47.2c0,0,0-0.1,0.1-0.1c0,0,0.1,0,0.1,0.1L51,47.5
			C51,47.5,51,47.5,51,47.5L51,47.5z M51,46.9C51,46.9,50.9,46.9,51,46.9l-0.1-0.4c0,0,0-0.1,0.1-0.1s0.1,0,0.1,0.1L51,46.9
			C51,46.9,51,46.9,51,46.9L51,46.9z M51,46.3C50.9,46.3,50.9,46.2,51,46.3l-0.1-0.4c0,0,0-0.1,0.1-0.1c0,0,0.1,0,0.1,0.1L51,46.3
			C51,46.2,51,46.3,51,46.3L51,46.3z M51,45.7C50.9,45.7,50.9,45.7,51,45.7l-0.1-0.4c0,0,0-0.1,0.1-0.1c0,0,0.1,0,0.1,0.1L51,45.7
			L51,45.7L51,45.7z M50.9,45.1C50.9,45.1,50.9,45,50.9,45.1l-0.1-0.5c0,0,0-0.1,0.1-0.1s0.1,0,0.1,0.1L50.9,45.1
			C51,45,51,45.1,50.9,45.1L50.9,45.1z M50.9,44.4C50.9,44.4,50.8,44.4,50.9,44.4l-0.1-0.4c0,0,0-0.1,0.1-0.1c0,0,0.1,0,0.1,0.1
			L50.9,44.4C51,44.4,51,44.4,50.9,44.4L50.9,44.4z M50.9,43.8C50.8,43.8,50.8,43.8,50.9,43.8l-0.1-0.4c0,0,0-0.1,0.1-0.1
			c0,0,0.1,0,0.1,0.1L50.9,43.8C51,43.8,50.9,43.8,50.9,43.8L50.9,43.8z M50.9,43.2C50.8,43.2,50.8,43.2,50.9,43.2l-0.1-0.4
			c0,0,0-0.1,0.1-0.1s0.1,0,0.1,0.1L50.9,43.2L50.9,43.2L50.9,43.2z M50.8,42.6L50.8,42.6l-0.1-0.4c0,0,0-0.1,0.1-0.1
			c0,0,0.1,0,0.1,0.1L50.8,42.6C50.9,42.6,50.9,42.6,50.8,42.6L50.8,42.6z M50.8,42C50.8,42,50.7,41.9,50.8,42l-0.1-0.4
			c0,0,0-0.1,0.1-0.1s0.1,0,0.1,0.1L50.8,42C50.9,41.9,50.9,42,50.8,42L50.8,42z M50.8,41.3C50.7,41.3,50.7,41.3,50.8,41.3L50.7,41
			c0,0,0-0.1,0.1-0.1s0.1,0,0.1,0.1L50.8,41.3C50.9,41.3,50.8,41.3,50.8,41.3L50.8,41.3z M50.8,40.8C50.7,40.8,50.7,40.7,50.8,40.8
			l-0.1-0.4c0,0,0-0.1,0.1-0.1s0.1,0,0.1,0.1L50.8,40.8C50.9,40.7,50.8,40.8,50.8,40.8L50.8,40.8z M50.7,40.1L50.7,40.1l-0.1-0.4
			c0,0,0-0.1,0.1-0.1s0.1,0,0.1,0.1L50.7,40.1C50.8,40.1,50.8,40.1,50.7,40.1L50.7,40.1z M50.7,39.5C50.7,39.5,50.6,39.5,50.7,39.5
			l-0.1-0.4c0,0,0-0.1,0.1-0.1s0.1,0,0.1,0.1L50.7,39.5C50.8,39.5,50.8,39.5,50.7,39.5L50.7,39.5z M50.7,38.9
			C50.6,38.9,50.6,38.9,50.7,38.9l-0.1-0.4c0,0,0-0.1,0.1-0.1s0.1,0,0.1,0.1L50.7,38.9C50.8,38.9,50.7,38.9,50.7,38.9L50.7,38.9z
			 M50.7,38.2C50.6,38.2,50.6,38.2,50.7,38.2l-0.1-0.4c0,0,0-0.1,0.1-0.1s0.1,0,0.1,0.1L50.7,38.2C50.8,38.2,50.7,38.2,50.7,38.2
			L50.7,38.2z M50.6,37.7C50.6,37.7,50.6,37.6,50.6,37.7l-0.1-0.4c0,0,0-0.1,0.1-0.1s0.1,0,0.1,0.1L50.6,37.7
			C50.7,37.6,50.7,37.7,50.6,37.7L50.6,37.7z M50.6,37C50.6,37,50.5,37,50.6,37l-0.1-0.4c0,0,0-0.1,0.1-0.1s0.1,0,0.1,0.1L50.6,37
			C50.7,37,50.7,37,50.6,37L50.6,37z M50.6,36.4C50.5,36.4,50.5,36.4,50.6,36.4l-0.1-0.4c0,0,0-0.1,0.1-0.1s0.1,0,0.1,0.1L50.6,36.4
			C50.7,36.3,50.6,36.4,50.6,36.4L50.6,36.4z M50.6,35.8C50.5,35.8,50.5,35.8,50.6,35.8l-0.1-0.4c0,0,0-0.1,0.1-0.1s0.1,0,0.1,0.1
			L50.6,35.8C50.7,35.8,50.6,35.8,50.6,35.8L50.6,35.8z M50.5,35.2C50.5,35.2,50.5,35.1,50.5,35.2l-0.1-0.4c0,0,0-0.1,0.1-0.1
			s0.1,0,0.1,0.1L50.5,35.2C50.6,35.1,50.6,35.2,50.5,35.2L50.5,35.2z M50.5,34.6C50.5,34.6,50.4,34.6,50.5,34.6l-0.1-0.4
			c0,0,0-0.1,0.1-0.1s0.1,0,0.1,0.1L50.5,34.6C50.6,34.6,50.6,34.6,50.5,34.6L50.5,34.6z M50.5,34C50.4,34,50.4,33.9,50.5,34
			l-0.1-0.4c0,0,0-0.1,0.1-0.1s0.1,0,0.1,0.1L50.5,34C50.6,33.9,50.5,34,50.5,34L50.5,34z M50.5,33.3C50.4,33.3,50.4,33.3,50.5,33.3
			L50.4,33c0,0,0-0.1,0.1-0.1s0.1,0,0.1,0.1L50.5,33.3C50.6,33.3,50.5,33.3,50.5,33.3L50.5,33.3z M50.4,32.7L50.4,32.7l-0.1-0.4
			c0,0,0-0.1,0.1-0.1s0.1,0,0.1,0.1L50.4,32.7C50.5,32.7,50.5,32.7,50.4,32.7L50.4,32.7z M50.4,32.1C50.4,32.1,50.3,32.1,50.4,32.1
			l-0.1-0.4c0,0,0-0.1,0.1-0.1s0.1,0,0.1,0.1L50.4,32.1C50.5,32,50.5,32.1,50.4,32.1L50.4,32.1z M50.4,31.5
			C50.3,31.5,50.3,31.5,50.4,31.5l-0.1-0.4c0,0,0-0.1,0.1-0.1s0.1,0,0.1,0.1L50.4,31.5C50.5,31.5,50.4,31.5,50.4,31.5L50.4,31.5z
			 M50.4,30.9C50.3,30.9,50.3,30.8,50.4,30.9l-0.1-0.4c0,0,0-0.1,0.1-0.1s0.1,0,0.1,0.1L50.4,30.9C50.5,30.8,50.4,30.9,50.4,30.9
			L50.4,30.9z M50.3,30.2L50.3,30.2l-0.1-0.4c0,0,0-0.1,0.1-0.1s0.1,0,0.1,0.1L50.3,30.2C50.4,30.2,50.4,30.2,50.3,30.2L50.3,30.2z
			 M50.3,29.7C50.3,29.7,50.2,29.6,50.3,29.7l-0.1-0.4c0,0,0-0.1,0.1-0.1s0.1,0,0.1,0.1L50.3,29.7C50.4,29.6,50.4,29.7,50.3,29.7
			L50.3,29.7z M50.3,29C50.2,29,50.2,29,50.3,29l-0.1-0.4c0,0,0-0.1,0.1-0.1s0.1,0,0.1,0.1L50.3,29C50.4,29,50.3,29,50.3,29L50.3,29
			z M50.3,28.5C50.2,28.5,50.2,28.4,50.3,28.5L50.2,28c0,0,0-0.1,0.1-0.1s0.1,0,0.1,0.1L50.3,28.5C50.4,28.4,50.3,28.5,50.3,28.5
			L50.3,28.5z M50.2,27.8L50.2,27.8l-0.1-0.4c0,0,0-0.1,0.1-0.1s0.1,0,0.1,0.1L50.2,27.8C50.3,27.8,50.3,27.8,50.2,27.8L50.2,27.8z
			 M50.2,27.1C50.2,27.1,50.1,27.1,50.2,27.1l-0.1-0.4c0,0,0-0.1,0.1-0.1s0.1,0,0.1,0.1L50.2,27.1C50.3,27.1,50.3,27.1,50.2,27.1
			L50.2,27.1z M50.2,26.6C50.1,26.6,50.1,26.6,50.2,26.6l-0.1-0.4c0,0,0-0.1,0.1-0.1s0.1,0,0.1,0.1L50.2,26.6
			C50.3,26.6,50.2,26.6,50.2,26.6L50.2,26.6z M50.2,25.9C50.1,25.9,50.1,25.9,50.2,25.9l-0.1-0.4c0,0,0-0.1,0.1-0.1s0.1,0,0.1,0.1
			L50.2,25.9C50.3,25.9,50.2,25.9,50.2,25.9L50.2,25.9z M50.1,25.4C50.1,25.4,50.1,25.2,50.1,25.4L50,25c0,0,0-0.1,0.1-0.1
			s0.1,0,0.1,0.1L50.1,25.4C50.2,25.2,50.2,25.4,50.1,25.4L50.1,25.4z M50.1,24.7C50.1,24.7,50,24.7,50.1,24.7L50,24.3
			c0,0,0-0.1,0.1-0.1s0.1,0,0.1,0.1L50.1,24.7C50.2,24.7,50.2,24.7,50.1,24.7L50.1,24.7z M50.1,24.1C50,24.1,50,24,50.1,24.1
			L50,23.8l0,0v-0.1c0,0,0-0.1,0.1-0.1c0,0,0.1,0,0.1,0.1s0,0.1,0,0.1L50.1,24.1C50.2,24,50.1,24.1,50.1,24.1L50.1,24.1z M50.2,23.5
			L50.2,23.5C50.1,23.5,50.1,23.5,50.2,23.5c0-0.2,0-0.3,0-0.4c0,0,0.1-0.1,0.1,0c0,0,0.1,0.1,0,0.1C50.4,23.3,50.3,23.4,50.2,23.5
			C50.3,23.5,50.3,23.5,50.2,23.5z M50.5,22.9C50.5,22.9,50.4,22.9,50.5,22.9C50.4,22.9,50.4,22.8,50.5,22.9c-0.1-0.2,0-0.3,0.1-0.4
			h0.1v0.1C50.7,22.7,50.6,22.8,50.5,22.9L50.5,22.9z M50.8,22.4L50.8,22.4C50.7,22.4,50.7,22.3,50.8,22.4c0.1-0.2,0.2-0.3,0.2-0.3
			H51v0.1C51,22.2,51,22.3,50.8,22.4C50.9,22.4,50.9,22.4,50.8,22.4z M51.3,22.1C51.2,22.1,51.2,22.1,51.3,22.1
			c-0.1-0.1-0.1-0.1,0-0.2c0.1,0,0.2-0.1,0.3-0.1v0.1V22C51.5,22,51.4,22,51.3,22.1L51.3,22.1z M51.9,22C51.9,22,51.8,22,51.9,22
			c-0.1-0.1,0-0.2,0-0.2c0.1,0,0.2,0,0.3,0c0,0,0.1,0,0.1,0.1c0,0,0,0.1-0.1,0.1C52.1,22,52,22,51.9,22L51.9,22z M52.5,21.9
			C52.5,21.9,52.5,21.9,52.5,21.9c-0.1-0.1,0-0.2,0-0.2h0.3c0,0,0.1,0,0.1,0.1s0,0.1-0.1,0.1L52.5,21.9L52.5,21.9z M53.1,21.9
			C53.1,21.9,53,21.8,53.1,21.9c-0.1-0.1,0-0.2,0-0.2h0.3c0,0,0.1,0,0.1,0.1c0,0,0,0.1-0.1,0.1L53.1,21.9L53.1,21.9z M53.8,21.8
			C53.7,21.8,53.7,21.8,53.8,21.8c-0.1-0.1,0-0.2,0-0.2H54c0,0,0.1,0,0.1,0.1c0,0,0,0.1-0.1,0.1L53.8,21.8L53.8,21.8z M54.3,21.8
			C54.3,21.8,54.2,21.7,54.3,21.8c-0.1-0.1,0-0.2,0-0.2h0.3c0,0,0.1,0,0.1,0.1c0,0,0,0.1-0.1,0.1L54.3,21.8L54.3,21.8z M55,21.7
			C54.9,21.7,54.9,21.7,55,21.7c-0.1-0.1,0-0.2,0-0.2h0.3c0,0,0.1,0,0.1,0.1c0,0,0,0.1-0.1,0.1L55,21.7L55,21.7z M55.6,21.7
			C55.6,21.7,55.6,21.6,55.6,21.7c-0.1-0.1,0-0.2,0-0.2c0.1,0,0.1,0,0.1,0h0.2c0,0,0.1,0,0.1,0.1c0,0,0,0.1-0.1,0.1L55.6,21.7
			L55.6,21.7z M58.9,21.7h-0.3c0,0-0.1,0-0.1-0.1c0,0,0-0.1,0.1-0.1h0.3C59,21.5,59,21.5,58.9,21.7C59,21.6,59,21.7,58.9,21.7z
			 M58.4,21.7h-0.3c0,0-0.1,0-0.1-0.1c0,0,0-0.1,0.1-0.1h0.3C58.4,21.5,58.5,21.5,58.4,21.7C58.5,21.6,58.4,21.7,58.4,21.7z
			 M57.7,21.7h-0.3c0,0-0.1,0-0.1-0.1c0,0,0-0.1,0.1-0.1h0.3C57.8,21.5,57.8,21.5,57.7,21.7C57.8,21.6,57.8,21.7,57.7,21.7z
			 M57.2,21.7h-0.4c0,0-0.1,0-0.1-0.1c0,0,0-0.1,0.1-0.1h0.3C57.2,21.5,57.2,21.5,57.2,21.7C57.2,21.6,57.2,21.7,57.2,21.7z
			 M56.5,21.7h-0.3c0,0-0.1,0-0.1-0.1c0,0,0-0.1,0.1-0.1h0.3C56.6,21.5,56.6,21.5,56.5,21.7C56.6,21.6,56.6,21.7,56.5,21.7z"/>
	</g>
	<g id="XMLID_70_">
		<path id="XMLID_71_" class="st0" d="M53.8,74.9C53.7,74.9,53.7,74.8,53.8,74.9c-0.1-0.1-0.1-0.2-0.1-0.4c0,0,0-0.1,0.1-0.1
			c0,0,0.1,0,0.1,0.1C53.9,74.7,53.9,74.8,53.8,74.9C53.9,74.8,53.8,74.9,53.8,74.9L53.8,74.9z M53.8,74.2
			C53.7,74.2,53.7,74.2,53.8,74.2l-0.1-0.4c0,0,0-0.1,0.1-0.1s0.1,0,0.1,0.1L53.8,74.2L53.8,74.2L53.8,74.2z M53.8,73.7
			C53.7,73.7,53.7,73.6,53.8,73.7l-0.1-0.4c0,0,0-0.1,0.1-0.1s0.1,0,0.1,0.1L53.8,73.7C53.8,73.6,53.8,73.7,53.8,73.7L53.8,73.7z
			 M53.7,73L53.7,73l-0.1-0.4c0,0,0-0.1,0.1-0.1s0.1,0,0.1,0.1L53.7,73C53.8,73,53.8,73,53.7,73L53.7,73z M53.7,72.4
			C53.7,72.4,53.6,72.4,53.7,72.4L53.6,72c0,0,0-0.1,0.1-0.1s0.1,0,0.1,0.1L53.7,72.4C53.8,72.4,53.8,72.4,53.7,72.4L53.7,72.4z
			 M53.7,71.8C53.6,71.8,53.6,71.8,53.7,71.8l-0.1-0.4c0,0,0-0.1,0.1-0.1s0.1,0,0.1,0.1L53.7,71.8C53.8,71.7,53.7,71.8,53.7,71.8
			L53.7,71.8z M53.7,71.2C53.6,71.2,53.6,71.2,53.7,71.2l-0.1-0.4c0,0,0-0.1,0.1-0.1s0.1,0,0.1,0.1L53.7,71.2L53.7,71.2L53.7,71.2z
			 M53.6,70.6C53.6,70.6,53.5,70.5,53.6,70.6l-0.1-0.4c0,0,0-0.1,0.1-0.1s0.1,0,0.1,0.1L53.6,70.6C53.7,70.5,53.7,70.6,53.6,70.6
			L53.6,70.6z M53.6,69.9C53.5,69.9,53.5,69.9,53.6,69.9l-0.1-0.4c0,0,0-0.1,0.1-0.1s0.1,0,0.1,0.1L53.6,69.9
			C53.7,69.9,53.6,69.9,53.6,69.9L53.6,69.9z M53.5,69.4C53.5,69.4,53.5,69.3,53.5,69.4L53.4,69c0,0,0-0.1,0.1-0.1s0.1,0,0.1,0.1
			L53.5,69.4C53.6,69.3,53.6,69.4,53.5,69.4L53.5,69.4z M53.5,68.7C53.4,68.7,53.4,68.7,53.5,68.7l-0.1-0.4c0,0,0-0.1,0.1-0.1
			s0.1,0,0.1,0.1L53.5,68.7C53.6,68.7,53.5,68.7,53.5,68.7L53.5,68.7z M53.4,68.1C53.4,68.1,53.4,68,53.4,68.1l-0.1-0.4
			c0,0,0-0.1,0.1-0.1s0.1,0,0.1,0.1L53.4,68.1C53.5,68,53.5,68.1,53.4,68.1C53.5,68.1,53.5,68.1,53.4,68.1z M53.4,67.5
			C53.3,67.5,53.3,67.5,53.4,67.5l-0.1-0.4c0,0,0-0.1,0.1-0.1s0.1,0,0.1,0.1L53.4,67.5C53.5,67.5,53.4,67.5,53.4,67.5L53.4,67.5z
			 M53.3,66.8L53.3,66.8l-0.1-0.4c0,0,0-0.1,0.1-0.1s0.1,0,0.1,0.1L53.3,66.8C53.4,66.8,53.4,66.8,53.3,66.8L53.3,66.8z M53.3,66.3
			C53.2,66.3,53.2,66.3,53.3,66.3l-0.1-0.4c0,0,0-0.1,0.1-0.1s0.1,0,0.1,0.1L53.3,66.3C53.4,66.3,53.3,66.3,53.3,66.3L53.3,66.3z
			 M53.2,65.6C53.2,65.6,53.1,65.6,53.2,65.6l-0.1-0.4c0,0,0-0.1,0.1-0.1c0,0,0.1,0,0.1,0.1L53.2,65.6
			C53.3,65.6,53.3,65.6,53.2,65.6L53.2,65.6z M53.2,65C53.1,65,53.1,65,53.2,65L53,64.7c0,0,0-0.1,0.1-0.1c0,0,0.1,0,0.1,0.1
			L53.2,65C53.2,64.9,53.2,65,53.2,65L53.2,65z M53.1,64.4C53,64.4,53,64.4,53.1,64.4L53,64c0,0,0-0.1,0.1-0.1c0,0,0.1,0,0.1,0.1
			L53.1,64.4C53.2,64.4,53.1,64.4,53.1,64.4L53.1,64.4z M53,63.8C53,63.8,52.9,63.7,53,63.8l-0.1-0.4c0,0,0-0.1,0.1-0.1
			c0,0,0.1,0,0.1,0.1L53,63.8C53.1,63.7,53.1,63.8,53,63.8L53,63.8z M52.9,63.2C52.9,63.2,52.8,63.2,52.9,63.2l-0.1-0.4
			c0,0,0-0.1,0.1-0.1c0,0,0.1,0,0.1,0.1L52.9,63.2C53,63.2,53,63.2,52.9,63.2L52.9,63.2z M52.9,62.6C52.8,62.6,52.8,62.6,52.9,62.6
			l-0.1-0.4c0,0,0-0.1,0.1-0.1c0,0,0.1,0,0.1,0.1L52.9,62.6C52.9,62.5,52.9,62.6,52.9,62.6L52.9,62.6z M52.8,61.9
			C52.7,61.9,52.7,61.9,52.8,61.9l-0.1-0.4c0,0,0-0.1,0.1-0.1c0,0,0.1,0,0.1,0.1L52.8,61.9C52.9,61.9,52.8,61.9,52.8,61.9L52.8,61.9
			z M52.7,61.4C52.7,61.4,52.6,61.3,52.7,61.4L52.7,61c0,0,0-0.1,0.1-0.1c0,0,0.1,0,0.1,0.1L52.7,61.4
			C52.8,61.3,52.8,61.4,52.7,61.4L52.7,61.4z M52.7,60.7C52.6,60.7,52.6,60.7,52.7,60.7l-0.1-0.4c0,0,0-0.1,0.1-0.1
			c0,0,0.1,0,0.1,0.1L52.7,60.7L52.7,60.7L52.7,60.7z M52.6,60.1C52.5,60.1,52.5,60,52.6,60.1l-0.1-0.4c0,0,0-0.1,0.1-0.1
			s0.1,0,0.1,0.1L52.6,60.1C52.7,60,52.6,60.1,52.6,60.1L52.6,60.1z M52.5,59.5C52.5,59.5,52.5,59.5,52.5,59.5l-0.1-0.4
			c0,0,0-0.1,0.1-0.1s0.1,0,0.1,0.1L52.5,59.5C52.6,59.5,52.6,59.5,52.5,59.5L52.5,59.5z M52.5,58.9C52.5,58.9,52.5,58.8,52.5,58.9
			l-0.1-0.4c0,0,0-0.1,0.1-0.1s0.1,0,0.1,0.1L52.5,58.9C52.6,58.8,52.5,58.9,52.5,58.9L52.5,58.9z M52.5,58.3
			C52.5,58.3,52.4,58.3,52.5,58.3l-0.1-0.4c0,0,0-0.1,0.1-0.1s0.1,0,0.1,0.1L52.5,58.3C52.5,58.3,52.5,58.3,52.5,58.3L52.5,58.3z
			 M52.5,57.7C52.4,57.7,52.4,57.6,52.5,57.7l-0.1-0.4c0,0,0-0.1,0.1-0.1s0.1,0,0.1,0.1L52.5,57.7C52.5,57.6,52.5,57.7,52.5,57.7
			L52.5,57.7z M52.4,57C52.3,57,52.3,57,52.4,57l-0.1-0.4c0,0,0-0.1,0.1-0.1s0.1,0,0.1,0.1L52.4,57C52.5,57,52.4,57,52.4,57L52.4,57
			z M52.3,56.4L52.3,56.4L52.2,56c0,0,0-0.1,0.1-0.1s0.1,0,0.1,0.1L52.3,56.4C52.4,56.4,52.4,56.4,52.3,56.4L52.3,56.4z M52.3,55.8
			C52.2,55.8,52.2,55.8,52.3,55.8l-0.1-0.4c0,0,0-0.1,0.1-0.1s0.1,0,0.1,0.1L52.3,55.8C52.4,55.8,52.3,55.8,52.3,55.8L52.3,55.8z
			 M52.2,55.2C52.2,55.2,52.1,55.2,52.2,55.2l-0.1-0.4c0,0,0-0.1,0.1-0.1s0.1,0,0.1,0.1L52.2,55.2C52.3,55.2,52.3,55.2,52.2,55.2
			L52.2,55.2z M52.2,54.6C52.1,54.6,52.1,54.6,52.2,54.6l-0.1-0.4c0,0,0-0.1,0.1-0.1s0.1,0,0.1,0.1L52.2,54.6
			C52.3,54.5,52.2,54.6,52.2,54.6L52.2,54.6z M52.1,53.9C52.1,53.9,52,53.9,52.1,53.9L52,53.6c0,0,0-0.1,0.1-0.1s0.1,0,0.1,0.1
			L52.1,53.9C52.2,53.9,52.2,53.9,52.1,53.9L52.1,53.9z M52.1,53.4C52,53.4,52,53.3,52.1,53.4L52,53c0,0,0-0.1,0.1-0.1
			s0.1,0,0.1,0.1L52.1,53.4C52.2,53.3,52.1,53.4,52.1,53.4L52.1,53.4z M52,52.7C52,52.7,51.9,52.7,52,52.7l-0.1-0.4
			c0,0,0-0.1,0.1-0.1c0,0,0.1,0,0.1,0.1L52,52.7C52.1,52.7,52.1,52.7,52,52.7L52,52.7z M52,52.2C51.9,52.2,51.9,52.1,52,52.2
			l-0.1-0.4c0,0,0-0.1,0.1-0.1s0.1,0,0.1,0.1L52,52.2C52.1,52.1,52,52.2,52,52.2L52,52.2z M51.9,51.5L51.9,51.5l-0.1-0.4
			c0,0,0-0.1,0.1-0.1c0,0,0.1,0,0.1,0.1L51.9,51.5C52,51.5,52,51.5,51.9,51.5L51.9,51.5z M51.9,50.9C51.8,50.9,51.8,50.8,51.9,50.9
			l-0.1-0.4c0,0,0-0.1,0.1-0.1c0,0,0.1,0,0.1,0.1L51.9,50.9C52,50.8,51.9,50.9,51.9,50.9L51.9,50.9z M51.8,50.3L51.8,50.3l-0.1-0.4
			c0,0,0-0.1,0.1-0.1s0.1,0,0.1,0.1L51.8,50.3C51.9,50.3,51.9,50.3,51.8,50.3L51.8,50.3z M51.8,49.6C51.7,49.6,51.7,49.6,51.8,49.6
			l-0.1-0.4c0,0,0-0.1,0.1-0.1s0.1,0,0.1,0.1L51.8,49.6C51.9,49.6,51.8,49.6,51.8,49.6L51.8,49.6z M51.8,49C51.7,49,51.7,49,51.8,49
			l-0.1-0.4c0,0,0-0.1,0.1-0.1s0.1,0,0.1,0.1L51.8,49L51.8,49L51.8,49z M51.7,48.4C51.7,48.4,51.6,48.4,51.7,48.4L51.6,48
			c0,0,0-0.1,0.1-0.1s0.1,0,0.1,0.1L51.7,48.4C51.8,48.4,51.8,48.4,51.7,48.4L51.7,48.4z M51.7,47.8C51.6,47.8,51.6,47.7,51.7,47.8
			l-0.1-0.4c0,0,0-0.1,0.1-0.1s0.1,0,0.1,0.1L51.7,47.8C51.8,47.7,51.7,47.8,51.7,47.8L51.7,47.8z M51.6,47.2
			C51.6,47.2,51.5,47.2,51.6,47.2c-0.1-0.2-0.1-0.3-0.1-0.4c0,0,0-0.1,0.1-0.1s0.1,0,0.1,0.1C51.7,46.9,51.7,47,51.6,47.2
			C51.7,47.2,51.7,47.2,51.6,47.2L51.6,47.2z M51.6,46.6C51.5,46.6,51.5,46.5,51.6,46.6l-0.1-0.4c0,0,0-0.1,0.1-0.1s0.1,0,0.1,0.1
			L51.6,46.6C51.7,46.5,51.6,46.6,51.6,46.6L51.6,46.6z M51.6,45.9C51.5,45.9,51.5,45.9,51.6,45.9l-0.1-0.4c0,0,0-0.1,0.1-0.1
			s0.1,0,0.1,0.1L51.6,45.9C51.7,45.9,51.6,45.9,51.6,45.9L51.6,45.9z M51.5,45.3L51.5,45.3L51.5,45.3V45c0,0,0-0.1,0.1-0.1
			s0.1,0,0.1,0.1v0.3L51.5,45.3L51.5,45.3z M51.5,44.7C51.5,44.7,51.4,44.7,51.5,44.7l-0.1-0.4c0,0,0-0.1,0.1-0.1c0,0,0.1,0,0.1,0.1
			L51.5,44.7C51.6,44.6,51.6,44.7,51.5,44.7L51.5,44.7z M51.5,44.1C51.5,44.1,51.4,44.1,51.5,44.1l-0.1-0.4c0,0,0-0.1,0.1-0.1
			s0.1,0,0.1,0.1L51.5,44.1C51.6,44.1,51.6,44.1,51.5,44.1L51.5,44.1z M51.5,43.5C51.4,43.5,51.4,43.4,51.5,43.5l-0.1-0.4
			c0,0,0-0.1,0.1-0.1c0,0,0.1,0,0.1,0.1L51.5,43.5C51.6,43.4,51.5,43.5,51.5,43.5L51.5,43.5z M51.5,42.8
			C51.4,42.8,51.4,42.8,51.5,42.8l-0.1-0.4c0,0,0-0.1,0.1-0.1s0.1,0,0.1,0.1L51.5,42.8L51.5,42.8L51.5,42.8z M51.4,42.3
			C51.4,42.3,51.4,42.2,51.4,42.3l-0.1-0.5c0,0,0-0.1,0.1-0.1c0,0,0.1,0,0.1,0.1L51.4,42.3C51.5,42.2,51.5,42.3,51.4,42.3L51.4,42.3
			z M51.4,41.6C51.4,41.6,51.3,41.6,51.4,41.6l-0.1-0.4c0,0,0-0.1,0.1-0.1s0.1,0,0.1,0.1L51.4,41.6C51.5,41.6,51.5,41.6,51.4,41.6
			L51.4,41.6z M51.4,41C51.3,41,51.3,41,51.4,41l-0.1-0.4c0,0,0-0.1,0.1-0.1s0.1,0,0.1,0.1L51.4,41C51.5,41,51.4,41,51.4,41L51.4,41
			z M51.4,40.4C51.3,40.4,51.3,40.4,51.4,40.4L51.3,40c0,0,0-0.1,0.1-0.1s0.1,0,0.1,0.1L51.4,40.4C51.5,40.4,51.4,40.4,51.4,40.4
			L51.4,40.4z M51.4,39.7C51.3,39.7,51.3,39.7,51.4,39.7l-0.1-0.4c0,0,0-0.1,0.1-0.1s0.1,0,0.1,0.1L51.4,39.7L51.4,39.7L51.4,39.7z
			 M51.3,39.2C51.3,39.2,51.2,39.1,51.3,39.2l-0.1-0.4c0,0,0-0.1,0.1-0.1s0.1,0,0.1,0.1L51.3,39.2C51.4,39.1,51.4,39.2,51.3,39.2
			L51.3,39.2z M51.3,38.5C51.3,38.5,51.2,38.5,51.3,38.5l-0.1-0.4c0,0,0-0.1,0.1-0.1s0.1,0,0.1,0.1L51.3,38.5
			C51.4,38.5,51.4,38.5,51.3,38.5L51.3,38.5z M51.3,38C51.2,38,51.2,37.9,51.3,38l-0.1-0.4c0,0,0-0.1,0.1-0.1s0.1,0,0.1,0.1L51.3,38
			C51.4,37.9,51.3,38,51.3,38L51.3,38z M51.3,37.3C51.2,37.3,51.2,37.3,51.3,37.3l-0.1-0.4c0,0,0-0.1,0.1-0.1s0.1,0,0.1,0.1
			L51.3,37.3C51.4,37.3,51.3,37.3,51.3,37.3L51.3,37.3z M51.2,36.6L51.2,36.6l-0.1-0.4c0,0,0-0.1,0.1-0.1s0.1,0,0.1,0.1L51.2,36.6
			C51.3,36.6,51.3,36.6,51.2,36.6L51.2,36.6z M51.1,36L51.1,36L51.1,36v-0.3c0,0,0-0.1,0.1-0.1s0.1,0,0.1,0.1V36H51.1L51.1,36z
			 M51.2,35.4C51.2,35.4,51.1,35.4,51.2,35.4L51.1,35c0,0,0-0.1,0.1-0.1s0.1,0,0.1,0.1L51.2,35.4C51.3,35.4,51.3,35.4,51.2,35.4
			L51.2,35.4z M51.2,34.8C51.1,34.8,51.1,34.8,51.2,34.8l-0.1-0.4c0,0,0-0.1,0.1-0.1c0,0,0.1,0,0.1,0.1L51.2,34.8
			C51.3,34.8,51.2,34.8,51.2,34.8L51.2,34.8z M51.2,34.2C51.1,34.2,51.1,34.2,51.2,34.2l-0.1-0.4c0,0,0-0.1,0.1-0.1
			c0,0,0.1,0,0.1,0.1L51.2,34.2L51.2,34.2L51.2,34.2z M51.1,33.6C51.1,33.6,51.1,33.5,51.1,33.6L51,33.2c0,0,0-0.1,0.1-0.1
			s0.1,0,0.1,0.1L51.1,33.6C51.2,33.5,51.2,33.6,51.1,33.6L51.1,33.6z M51.1,33C51.1,33,51,33,51.1,33L51,32.6c0,0,0-0.1,0.1-0.1
			s0.1,0,0.1,0.1L51.1,33C51.2,33,51.2,33,51.1,33L51.1,33z M51.1,32.4C51,32.4,51,32.3,51.1,32.4L51,32c0,0,0-0.1,0.1-0.1
			s0.1,0,0.1,0.1L51.1,32.4C51.2,32.3,51.1,32.4,51.1,32.4L51.1,32.4z M51.1,31.7C51,31.7,51,31.7,51.1,31.7L51,31.4
			c0,0,0-0.1,0.1-0.1c0,0,0.1,0,0.1,0.1L51.1,31.7C51.2,31.7,51.1,31.7,51.1,31.7L51.1,31.7z M51.1,31.1C51,31.1,51,31.1,51.1,31.1
			L51,30.7c0,0,0-0.1,0.1-0.1s0.1,0,0.1,0.1L51.1,31.1L51.1,31.1L51.1,31.1z M51,30.5L51,30.5L51,30.1c0,0,0-0.1,0.1-0.1
			c0,0,0.1,0,0.1,0.1L51,30.5C51.1,30.5,51.1,30.5,51,30.5L51,30.5z M51,29.9C51,29.9,51,29.9,51,29.9L51,29.5c0,0,0-0.1,0.1-0.1
			c0,0,0.1,0,0.1,0.1L51,29.9C51.1,29.9,51.1,29.9,51,29.9L51,29.9z M51,29.3C51,29.3,51,29.2,51,29.3L51,28.9c0,0,0-0.1,0.1-0.1
			c0,0,0.1,0,0.1,0.1L51,29.3C51.1,29.2,51,29.3,51,29.3L51,29.3z M51,28.6C51,28.6,51,28.6,51,28.6L51,28.3c0,0,0-0.1,0.1-0.1
			s0.1,0,0.1,0.1L51,28.6C51.1,28.6,51,28.6,51,28.6L51,28.6z M51,28.1C51,28.1,51,28,51,28.1l-0.1-0.4c0,0,0-0.1,0.1-0.1
			s0.1,0,0.1,0.1L51,28.1C51,28,51,28.1,51,28.1C51,28.1,51,28.1,51,28.1z M51,27.4C51,27.4,50.9,27.4,51,27.4L50.9,27
			c0,0,0-0.1,0.1-0.1c0,0,0.1,0,0.1,0.1L51,27.4C51,27.4,51,27.4,51,27.4L51,27.4z M51,26.9C51,26.9,50.9,26.8,51,26.9l-0.1-0.4
			c0,0,0-0.1,0.1-0.1s0.1,0,0.1,0.1L51,26.9C51,26.8,51,26.8,51,26.9L51,26.9z M51,26.2C50.9,26.2,50.9,26.1,51,26.2l-0.1-0.4
			c0,0,0-0.1,0.1-0.1s0.1,0,0.1,0.1L51,26.2C51,26.1,51,26.2,51,26.2L51,26.2z M51,25.5C50.9,25.5,50.9,25.5,51,25.5l-0.1-0.4
			c0,0,0-0.1,0.1-0.1c0,0,0.1,0,0.1,0.1L51,25.5C51,25.5,51,25.5,51,25.5z M51,25C50.9,25,50.9,24.9,51,25l-0.1-0.4
			c0,0,0-0.1,0.1-0.1c0,0,0.1,0,0.1,0.1L51,25C51,24.9,51,25,51,25z M51,24.3C50.9,24.3,50.9,24.3,51,24.3l-0.1-0.4
			c0,0,0-0.1,0.1-0.1c0,0,0.1,0,0.1,0.1L51,24.3C51,24.3,51,24.3,51,24.3z M51,23.8L51,23.8C50.9,23.8,50.9,23.6,51,23.8
			c-0.1-0.2,0-0.3,0-0.4c0,0,0.1-0.1,0.1,0c0,0,0.1,0.1,0,0.1C51,23.5,51,23.6,51,23.8C51,23.6,51,23.8,51,23.8z M51.1,23.1
			L51.1,23.1C51,23.1,51,23,51.1,23.1c0-0.2,0-0.3,0.1-0.4h0.1v0.1C51.3,22.9,51.2,23,51.1,23.1C51.2,23.1,51.1,23.1,51.1,23.1z
			 M51.6,22.7C51.5,22.7,51.5,22.7,51.6,22.7c-0.1-0.1-0.1-0.1,0-0.2c0.1,0,0.2-0.1,0.3-0.1H52v0.1C51.8,22.6,51.7,22.6,51.6,22.7
			L51.6,22.7z M52.2,22.5C52.1,22.5,52.1,22.5,52.2,22.5c-0.1-0.1,0-0.1,0-0.2c0.1,0,0.2,0,0.3,0c0,0,0.1,0,0.1,0.1s0,0.1-0.1,0.1
			C52.4,22.5,52.3,22.5,52.2,22.5L52.2,22.5z M52.8,22.4C52.7,22.4,52.7,22.4,52.8,22.4c-0.1-0.1,0-0.2,0-0.2c0.1,0,0.2,0,0.3,0
			c0,0,0.1,0,0.1,0.1s0,0.1-0.1,0.1C53,22.4,52.9,22.4,52.8,22.4L52.8,22.4z M53.4,22.4C53.4,22.4,53.3,22.4,53.4,22.4
			c-0.1-0.1,0-0.2,0-0.2h0.3c0,0,0.1,0,0.1,0.1c0,0,0,0.1-0.1,0.1L53.4,22.4L53.4,22.4z M54,22.4C54,22.4,54,22.3,54,22.4
			c-0.1-0.1,0-0.2,0-0.2h0.3c0,0,0.1,0,0.1,0.1c0,0,0,0.1-0.1,0.1L54,22.4L54,22.4z M54.6,22.4C54.6,22.4,54.5,22.3,54.6,22.4
			c-0.1-0.1,0-0.2,0-0.2h0.3c0,0,0.1,0,0.1,0.1s0,0.1-0.1,0.1L54.6,22.4L54.6,22.4z M55.3,22.3C55.2,22.3,55.2,22.3,55.3,22.3
			c-0.1-0.1,0-0.2,0-0.2h0.3c0,0,0.1,0,0.1,0.1c0,0,0,0.1-0.1,0.1L55.3,22.3L55.3,22.3z M55.8,22.3C55.8,22.3,55.8,22.3,55.8,22.3
			c-0.1-0.1,0-0.2,0-0.2h0.3c0,0,0.1,0,0.1,0.1s0,0.1-0.1,0.1L55.8,22.3L55.8,22.3z M56.5,22.3C56.5,22.3,56.4,22.3,56.5,22.3
			c-0.1-0.1,0-0.2,0-0.2h0.3c0,0,0.1,0,0.1,0.1s0,0.1-0.1,0.1L56.5,22.3L56.5,22.3z M57.2,22.3C57.1,22.3,57.1,22.2,57.2,22.3
			c-0.1-0.1,0-0.2,0-0.2h0.3c0,0,0.1,0,0.1,0.1c0,0,0,0.1-0.1,0.1L57.2,22.3L57.2,22.3z M57.7,22.3C57.7,22.3,57.6,22.2,57.7,22.3
			c-0.1-0.1,0-0.2,0-0.2H58c0,0,0.1,0,0.1,0.1c0,0,0,0.1-0.1,0.1L57.7,22.3L57.7,22.3z M58.4,22.3C58.3,22.3,58.3,22.2,58.4,22.3
			c-0.1-0.1,0-0.2,0-0.2h0.3c0,0,0.1,0,0.1,0.1s0,0.1-0.1,0.1L58.4,22.3L58.4,22.3z M58.9,22.2C58.9,22.2,58.8,22.2,58.9,22.2
			c-0.1-0.1,0-0.2,0-0.2l0,0c0,0,0.1,0,0.1,0.1C59.1,22.2,59,22.2,58.9,22.2L58.9,22.2L58.9,22.2z"/>
	</g>
	<g id="XMLID_68_">
		<path id="XMLID_69_" class="st0" d="M51,59.9L51,59.9h-0.3c0,0-0.1,0-0.1-0.1s0-0.1,0.1-0.1H51C51,59.7,51,59.8,51,59.9
			C51,59.9,51,59.9,51,59.9z M50.3,59.8L50.3,59.8H50c0,0-0.1,0-0.1-0.1c0,0,0-0.1,0.1-0.1h0.3C50.4,59.6,50.4,59.7,50.3,59.8
			C50.4,59.8,50.4,59.8,50.3,59.8z M49.7,59.7L49.7,59.7h-0.3c0,0-0.1,0-0.1-0.1c0,0,0-0.1,0.1-0.1h0.3
			C49.8,59.5,49.8,59.6,49.7,59.7C49.8,59.7,49.7,59.7,49.7,59.7z M49.1,59.6L49.1,59.6h-0.3c0,0-0.1,0-0.1-0.1c0,0,0-0.1,0.1-0.1
			h0.3C49.2,59.4,49.2,59.5,49.1,59.6C49.2,59.6,49.2,59.6,49.1,59.6z M48.5,59.5L48.5,59.5h-0.3c0,0-0.1,0-0.1-0.1
			c0,0,0-0.1,0.1-0.1h0.3C48.6,59.3,48.6,59.4,48.5,59.5C48.6,59.4,48.5,59.5,48.5,59.5z M47.8,59.4L47.8,59.4h-0.3
			c0,0-0.1,0-0.1-0.1c0,0,0-0.1,0.1-0.1h0.3C47.9,59.2,47.9,59.2,47.8,59.4C47.9,59.3,47.9,59.4,47.8,59.4z M47.3,59.3L47.3,59.3H47
			c0,0-0.1,0-0.1-0.1c0,0,0-0.1,0.1-0.1h0.3C47.4,59.1,47.4,59.1,47.3,59.3C47.4,59.2,47.3,59.3,47.3,59.3z M46.6,59.2
			C46.6,59.2,46.6,59.1,46.6,59.2h-0.3v-0.1V59h0.3C46.7,59,46.7,59,46.6,59.2C46.7,59.1,46.7,59.2,46.6,59.2z M46.1,59L46.1,59
			h-0.3c0,0-0.1,0-0.1-0.1c0,0,0-0.1,0.1-0.1h0.3C46.2,58.9,46.2,58.9,46.1,59C46.2,59,46.1,59,46.1,59z M45.4,58.9L45.4,58.9h-0.3
			c0,0-0.1,0-0.1-0.1c0,0,0-0.1,0.1-0.1h0.3C45.5,58.8,45.5,58.8,45.4,58.9C45.5,58.9,45.5,58.9,45.4,58.9z M44.8,58.8L44.8,58.8
			h-0.3c0,0-0.1,0-0.1-0.1c0,0,0-0.1,0.1-0.1h0.3C44.9,58.7,44.9,58.7,44.8,58.8C44.9,58.8,44.8,58.8,44.8,58.8z M44.2,58.7
			L44.2,58.7h-0.3c0,0-0.1,0-0.1-0.1c0,0,0-0.1,0.1-0.1h0.3C44.3,58.6,44.3,58.6,44.2,58.7C44.3,58.7,44.3,58.7,44.2,58.7z
			 M43.6,58.6L43.6,58.6h-0.3c0,0-0.1,0-0.1-0.1c0,0,0-0.1,0.1-0.1h0.3C43.7,58.5,43.7,58.5,43.6,58.6
			C43.7,58.6,43.6,58.6,43.6,58.6z M43,58.5C43,58.5,43,58.5,43,58.5h-0.3c0,0-0.1,0-0.1-0.1c0,0,0-0.1,0.1-0.1H43
			C43,58.4,43.1,58.5,43,58.5L43,58.5z M42.4,58.5L42.4,58.5h-0.3c0,0-0.1,0-0.1-0.1c0,0,0-0.1,0.1-0.1h0.3
			C42.5,58.3,42.5,58.4,42.4,58.5C42.5,58.5,42.4,58.5,42.4,58.5z M41.8,58.4C41.8,58.4,41.7,58.4,41.8,58.4l-0.3-0.1
			c0,0-0.1,0-0.1-0.1c0,0,0-0.1,0.1-0.1h0.3C41.8,58.2,41.9,58.2,41.8,58.4L41.8,58.4z M41.2,58.3L41.2,58.3l-0.3-0.1
			c0,0-0.1,0-0.1-0.1c0,0,0-0.1,0.1-0.1l0.3,0.1C41.3,58.1,41.3,58.2,41.2,58.3C41.3,58.2,41.2,58.3,41.2,58.3z M40.6,58.1
			C40.6,58.1,40.5,58.1,40.6,58.1L40.6,58.1c-0.1,0-0.2,0-0.3-0.1c0,0-0.1,0-0.1-0.1c0,0,0-0.1,0.1-0.1s0.2,0,0.3,0l0,0
			C40.6,58,40.7,58,40.6,58.1L40.6,58.1z M40,58L40,58h-0.3c0,0-0.1,0-0.1-0.1c0,0,0-0.1,0.1-0.1H40C40,57.9,40,57.9,40,58
			C40,58,40,58,40,58z M39.4,57.9C39.4,57.9,39.3,57.9,39.4,57.9c-0.1,0-0.2,0-0.3,0c0,0-0.1,0-0.1-0.1c0,0,0-0.1,0.1-0.1
			s0.2,0,0.3,0C39.4,57.8,39.5,57.8,39.4,57.9L39.4,57.9z M38.7,57.9L38.7,57.9c-0.1,0-0.2,0-0.3-0.1c0,0-0.1,0-0.1-0.1
			c0,0,0-0.1,0.1-0.1s0.2,0,0.3,0.1C38.8,57.7,38.8,57.7,38.7,57.9C38.8,57.8,38.8,57.9,38.7,57.9z M38.2,57.7L38.2,57.7
			c-0.1,0-0.2-0.1-0.3-0.1c0,0-0.1-0.1,0-0.1c0,0,0.1-0.1,0.1,0C38.1,57.5,38.2,57.6,38.2,57.7C38.2,57.6,38.2,57.6,38.2,57.7
			C38.2,57.7,38.2,57.7,38.2,57.7z M37.5,57.5L37.5,57.5c-0.1,0-0.2-0.1-0.3-0.1v-0.1h0.1C37.4,57.3,37.5,57.4,37.5,57.5
			C37.6,57.4,37.6,57.4,37.5,57.5C37.6,57.5,37.6,57.5,37.5,57.5z M37,57.2C37,57.2,36.9,57.2,37,57.2c-0.1-0.1-0.2-0.1-0.3-0.2V57
			h0.1C36.9,57,37,57,37,57.2C37,57.1,37.1,57.1,37,57.2L37,57.2z M36.5,56.8L36.5,56.8c-0.1-0.1-0.2-0.2-0.3-0.3v-0.1h0.1
			c0.1,0.1,0.1,0.1,0.2,0.2C36.6,56.8,36.6,56.8,36.5,56.8C36.6,56.8,36.6,56.8,36.5,56.8z M36.1,56.4L36.1,56.4
			c-0.1-0.1-0.2-0.2-0.2-0.3V56H36C36,56.1,36.1,56.2,36.1,56.4C36.2,56.3,36.2,56.4,36.1,56.4L36.1,56.4z M35.8,55.9
			C35.7,55.9,35.7,55.9,35.8,55.9c-0.1-0.1-0.2-0.2-0.2-0.4v-0.1h0.1c0,0.1,0.1,0.2,0.1,0.3C35.9,55.8,35.8,55.8,35.8,55.9
			L35.8,55.9z M35.5,55.3C35.5,55.3,35.5,55.2,35.5,55.3c-0.1-0.1-0.1-0.3-0.2-0.4c0,0,0-0.1,0.1-0.1s0.1,0,0.1,0.1
			C35.5,55.1,35.6,55.2,35.5,55.3C35.6,55.2,35.6,55.3,35.5,55.3L35.5,55.3z M35.4,54.7C35.3,54.7,35.3,54.7,35.4,54.7
			c-0.1-0.2-0.1-0.3-0.1-0.4c0,0,0-0.1,0.1-0.1c0,0,0.1,0,0.1,0.1s0,0.2,0,0.3C35.5,54.7,35.4,54.7,35.4,54.7L35.4,54.7z M35.3,54.1
			C35.2,54.1,35.2,54,35.3,54.1c-0.1-0.2-0.1-0.3-0.1-0.4c0,0,0-0.1,0.1-0.1s0.1,0,0.1,0.1C35.3,53.8,35.3,53.9,35.3,54.1
			C35.3,54,35.3,54.1,35.3,54.1L35.3,54.1z M35.2,53.5C35.2,53.5,35.2,53.5,35.2,53.5c-0.1-0.2-0.1-0.3-0.1-0.4c0,0,0-0.1,0.1-0.1
			l0,0c0,0,0.1,0,0.1,0.1C35.3,53.2,35.3,53.3,35.2,53.5C35.3,53.5,35.3,53.5,35.2,53.5L35.2,53.5z M35.2,52.9L35.2,52.9
			C35.2,52.9,35.2,52.8,35.2,52.9l-0.1-0.4c0,0,0-0.1,0.1-0.1s0.1,0,0.1,0.1L35.2,52.9C35.3,52.8,35.3,52.9,35.2,52.9z M35.2,52.2
			L35.2,52.2C35.2,52.2,35.2,52.2,35.2,52.2l-0.1-0.4c0,0,0-0.1,0.1-0.1c0,0,0.1,0,0.1,0.1L35.2,52.2C35.3,52.2,35.3,52.2,35.2,52.2
			z M35.2,51.7L35.2,51.7C35.2,51.7,35.2,51.6,35.2,51.7v-0.5c0,0,0-0.1,0.1-0.1s0.1,0,0.1,0.1L35.2,51.7
			C35.3,51.6,35.3,51.7,35.2,51.7z M35.3,51L35.3,51C35.2,51,35.2,51,35.3,51l-0.1-0.4c0,0,0-0.1,0.1-0.1c0,0,0.1,0,0.1,0.1L35.3,51
			L35.3,51z M35.3,50.4L35.3,50.4C35.2,50.4,35.2,50.4,35.3,50.4L35.2,50c0,0,0-0.1,0.1-0.1s0.1,0,0.1,0.1L35.3,50.4L35.3,50.4z
			 M35.3,49.8L35.3,49.8C35.2,49.8,35.2,49.8,35.3,49.8l-0.1-0.4c0,0,0-0.1,0.1-0.1c0,0,0.1,0,0.1,0.1L35.3,49.8
			C35.4,49.8,35.3,49.8,35.3,49.8z M35.3,49.1L35.3,49.1C35.2,49.1,35.2,49.1,35.3,49.1l-0.1-0.4c0,0,0-0.1,0.1-0.1
			c0,0,0.1,0,0.1,0.1L35.3,49.1C35.4,49.1,35.3,49.1,35.3,49.1z M35.3,48.6L35.3,48.6C35.3,48.6,35.2,48.5,35.3,48.6l-0.1-0.4
			c0,0,0-0.1,0.1-0.1s0.1,0,0.1,0.1L35.3,48.6C35.4,48.5,35.3,48.6,35.3,48.6z M35.3,47.9L35.3,47.9C35.3,47.9,35.2,47.9,35.3,47.9
			l-0.1-0.4c0,0,0-0.1,0.1-0.1l0,0c0,0,0.1,0,0.1,0.1L35.3,47.9C35.4,47.9,35.3,47.9,35.3,47.9z M35.3,47.3L35.3,47.3
			C35.3,47.3,35.2,47.3,35.3,47.3L35.2,47c0,0,0-0.1,0.1-0.1c0,0,0.1,0,0.1,0.1L35.3,47.3C35.4,47.3,35.4,47.3,35.3,47.3z
			 M35.3,46.7L35.3,46.7L35.3,46.7l-0.1-0.4c0,0,0-0.1,0.1-0.1l0,0c0,0,0.1,0,0.1,0.1L35.3,46.7C35.4,46.7,35.4,46.7,35.3,46.7z
			 M35.3,46.1L35.3,46.1C35.3,46.1,35.3,46,35.3,46.1l-0.1-0.4c0,0,0-0.1,0.1-0.1l0,0c0,0,0.1,0,0.1,0.1L35.3,46.1
			C35.4,46,35.4,46.1,35.3,46.1z M35.3,45.5L35.3,45.5L35.3,45.5l-0.1-0.4c0,0,0-0.1,0.1-0.1c0,0,0.1,0,0.1,0.1L35.3,45.5
			C35.4,45.5,35.4,45.5,35.3,45.5z M35.3,44.8L35.3,44.8L35.3,44.8l-0.1-0.4c0,0,0-0.1,0.1-0.1l0,0c0,0,0.1,0,0.1,0.1L35.3,44.8
			C35.4,44.8,35.4,44.8,35.3,44.8z M35.3,44.2L35.3,44.2l-0.1-0.4c0,0,0-0.1,0.1-0.1l0,0c0,0,0.1,0,0.1,0.1L35.3,44.2
			C35.4,44.2,35.4,44.2,35.3,44.2z M35.3,43.6L35.3,43.6l-0.1-0.4c0,0,0-0.1,0.1-0.1l0,0c0,0,0.1,0,0.1,0.1L35.3,43.6
			C35.4,43.6,35.4,43.6,35.3,43.6L35.3,43.6z M35.3,43C35.3,43,35.3,42.9,35.3,43l-0.1-0.4c0,0,0-0.1,0.1-0.1l0,0c0,0,0.1,0,0.1,0.1
			L35.3,43C35.4,42.9,35.4,43,35.3,43L35.3,43z M35.3,42.4L35.3,42.4L35.2,42h0.2L35.3,42.4C35.4,42.4,35.4,42.4,35.3,42.4
			L35.3,42.4z M35.3,41.8C35.3,41.8,35.3,41.7,35.3,41.8l-0.1-0.4c0,0,0-0.1,0.1-0.1l0,0c0,0,0.1,0,0.1,0.1L35.3,41.8
			C35.4,41.7,35.4,41.8,35.3,41.8L35.3,41.8z M35.3,41.2C35.3,41.2,35.2,41.2,35.3,41.2l-0.1-0.4h0.1h0.1L35.3,41.2
			C35.4,41.2,35.4,41.2,35.3,41.2L35.3,41.2z M35.3,40.5C35.3,40.5,35.2,40.5,35.3,40.5l-0.1-0.4c0,0,0-0.1,0.1-0.1
			c0,0,0.1,0,0.1,0.1L35.3,40.5C35.4,40.5,35.4,40.5,35.3,40.5L35.3,40.5z M35.3,39.9C35.3,39.9,35.2,39.9,35.3,39.9l-0.1-0.4h0.1
			h0.1L35.3,39.9C35.4,39.9,35.3,39.9,35.3,39.9L35.3,39.9z M35.3,39.3C35.2,39.3,35.2,39.3,35.3,39.3l-0.1-0.4c0,0,0-0.1,0.1-0.1
			c0,0,0.1,0,0.1,0.1L35.3,39.3C35.4,39.3,35.3,39.3,35.3,39.3L35.3,39.3z M35.3,38.7C35.2,38.7,35.2,38.6,35.3,38.7l-0.1-0.4
			c0,0,0-0.1,0.1-0.1c0,0,0.1,0,0.1,0.1L35.3,38.7C35.3,38.6,35.3,38.7,35.3,38.7L35.3,38.7z M35.3,38C35.2,38,35.2,38,35.3,38
			l-0.1-0.4c0,0,0-0.1,0.1-0.1s0.1,0,0.1,0.1L35.3,38L35.3,38L35.3,38z M35.2,37.5C35.2,37.5,35.2,37.4,35.2,37.5l-0.1-0.4
			c0,0,0-0.1,0.1-0.1s0.1,0,0.1,0.1L35.2,37.5C35.3,37.4,35.3,37.5,35.2,37.5L35.2,37.5z M35.2,36.8C35.2,36.8,35.2,36.8,35.2,36.8
			l-0.1-0.4c0,0,0-0.1,0.1-0.1s0.1,0,0.1,0.1L35.2,36.8C35.3,36.8,35.3,36.8,35.2,36.8L35.2,36.8z M35.2,36.3
			C35.2,36.3,35.2,36.2,35.2,36.3l-0.1-0.4c0,0,0-0.1,0.1-0.1c0,0,0.1,0,0.1,0.1L35.2,36.3C35.3,36.2,35.2,36.3,35.2,36.3L35.2,36.3
			z M35.2,35.6C35.2,35.6,35.2,35.6,35.2,35.6l-0.1-0.4c0,0,0-0.1,0.1-0.1s0.1,0,0.1,0.1L35.2,35.6L35.2,35.6L35.2,35.6z M35.2,35
			C35.2,35,35.2,34.9,35.2,35l-0.1-0.4c0,0,0-0.1,0.1-0.1s0.1,0,0.1,0.1L35.2,35C35.2,34.9,35.2,34.9,35.2,35L35.2,35z M35.2,34.4
			C35.1,34.4,35.1,34.4,35.2,34.4L35.1,34c0,0,0-0.1,0.1-0.1s0.1,0,0.1,0.1L35.2,34.4C35.2,34.4,35.2,34.4,35.2,34.4L35.2,34.4z
			 M35.2,33.7C35.1,33.7,35.1,33.7,35.2,33.7l-0.1-0.4c0,0,0-0.1,0.1-0.1s0,0.1,0,0.1V33.7L35.2,33.7L35.2,33.7z M35.1,33.2
			C35.1,33.2,35,33.2,35.1,33.2L35,32.8c0,0,0-0.1,0.1-0.1s0.1,0,0.1,0.1L35.1,33.2C35.2,33.1,35.2,33.2,35.1,33.2L35.1,33.2z
			 M35.1,32.5C35,32.5,35,32.5,35.1,32.5L35,32.1c0,0,0-0.1,0.1-0.1s0.1,0,0.1,0.1L35.1,32.5C35.2,32.5,35.1,32.5,35.1,32.5
			L35.1,32.5z M35,31.9C35,31.9,34.9,31.8,35,31.9l-0.1-0.4c0,0,0-0.1,0.1-0.1s0.1,0,0.1,0.1L35,31.9C35.1,31.8,35.1,31.9,35,31.9
			L35,31.9z M35,31.3C34.9,31.3,34.9,31.3,35,31.3l-0.1-0.4c0,0,0-0.1,0.1-0.1s0.1,0,0.1,0.1L35,31.3C35.1,31.3,35,31.3,35,31.3
			L35,31.3z M34.9,30.7C34.9,30.7,34.8,30.6,34.9,30.7l-0.1-0.4c0,0,0-0.1,0.1-0.1s0.1,0,0.1,0.1L34.9,30.7
			C35,30.6,35,30.7,34.9,30.7L34.9,30.7z M34.9,30C34.8,30,34.8,30,34.9,30l-0.1-0.4c0,0,0-0.1,0.1-0.1c0,0,0.1,0,0.1,0.1L34.9,30
			C35,30,34.9,30,34.9,30L34.9,30z M34.8,29.5C34.8,29.5,34.7,29.4,34.8,29.5l-0.1-0.4c0,0,0-0.1,0.1-0.1c0,0,0.1,0,0.1,0.1
			L34.8,29.5C34.9,29.4,34.9,29.5,34.8,29.5L34.8,29.5z M34.7,28.8L34.7,28.8l-0.1-0.4c0,0,0-0.1,0.1-0.1c0,0,0.1,0,0.1,0.1
			L34.7,28.8C34.8,28.7,34.8,28.8,34.7,28.8L34.7,28.8z M34.7,28.2C34.6,28.2,34.6,28.2,34.7,28.2l-0.1-0.4c0,0,0-0.1,0.1-0.1
			c0,0,0.1,0,0.1,0.1L34.7,28.2C34.8,28.2,34.7,28.2,34.7,28.2L34.7,28.2z M34.6,27.6C34.6,27.6,34.5,27.6,34.6,27.6
			c-0.1-0.2-0.1-0.3-0.1-0.4c0,0,0-0.1,0.1-0.1c0,0,0.1,0,0.1,0.1C34.7,27.3,34.7,27.4,34.6,27.6C34.7,27.6,34.7,27.6,34.6,27.6
			L34.6,27.6z M34.5,27L34.5,27c-0.1-0.2-0.1-0.3-0.1-0.4c0,0,0-0.1,0.1-0.1c0,0,0.1,0,0.1,0.1C34.6,26.7,34.6,26.9,34.5,27
			C34.6,27,34.6,27,34.5,27L34.5,27z M34.4,26.4L34.4,26.4c-0.1-0.2-0.1-0.3-0.1-0.4c0,0,0-0.1,0.1-0.1c0,0,0.1,0,0.1,0.1
			C34.5,26.1,34.5,26.2,34.4,26.4C34.5,26.3,34.5,26.4,34.4,26.4L34.4,26.4z M34.3,25.8C34.3,25.8,34.3,25.7,34.3,25.8
			c-0.1-0.2-0.1-0.3-0.1-0.4v-0.1h0.1C34.3,25.4,34.4,25.5,34.3,25.8C34.4,25.7,34.4,25.7,34.3,25.8L34.3,25.8z M34.1,25.2
			L34.1,25.2c-0.1-0.1-0.1-0.3-0.2-0.3v-0.1H34C34.2,24.9,34.2,25,34.1,25.2C34.2,25.2,34.2,25.2,34.1,25.2
			C34.2,25.2,34.1,25.2,34.1,25.2z M33.9,24.6C33.9,24.6,33.8,24.6,33.9,24.6c-0.1-0.1-0.2-0.2-0.2-0.3v-0.1h0.1
			C33.9,24.3,33.9,24.4,33.9,24.6C34,24.5,34,24.6,33.9,24.6L33.9,24.6z M25.9,24.2C25.9,24.2,25.8,24.2,25.9,24.2
			c-0.1-0.1,0-0.2,0-0.2h0.3c0,0,0.1,0,0.1,0.1c0,0,0,0.1-0.1,0.1L25.9,24.2L25.9,24.2z M26.6,24.2C26.5,24.2,26.5,24.1,26.6,24.2
			c-0.1-0.1,0-0.2,0-0.2h0.3c0,0,0.1,0,0.1,0.1s0,0.1-0.1,0.1L26.6,24.2L26.6,24.2z M27.2,24.1C27.2,24.1,27.1,24.1,27.2,24.1
			c-0.1-0.1,0-0.2,0-0.2h0.3c0,0,0.1,0,0.1,0.1c0,0,0,0.1-0.1,0.1L27.2,24.1L27.2,24.1z M27.8,24.1C27.7,24.1,27.7,24.1,27.8,24.1
			c-0.1-0.1,0-0.2,0-0.2h0.3c0,0,0.1,0,0.1,0.1s0,0.1-0.1,0.1L27.8,24.1L27.8,24.1z M33.5,24.1L33.5,24.1c-0.1-0.1-0.2-0.2-0.3-0.2
			v-0.1h0.1C33.5,23.8,33.5,23.9,33.5,24.1C33.6,24,33.6,24,33.5,24.1L33.5,24.1z M28.4,24C28.4,24,28.3,24,28.4,24
			c-0.1-0.1,0-0.2,0-0.2h0.3c0,0,0.1,0,0.1,0.1c0,0,0,0.1-0.1,0.1L28.4,24L28.4,24z M29,24C28.9,24,28.9,24,29,24
			c-0.1-0.1,0-0.2,0-0.2h0.3c0,0,0.1,0,0.1,0.1s0,0.1-0.1,0.1L29,24L29,24z M29.6,24C29.6,24,29.5,23.9,29.6,24
			c-0.1-0.1,0-0.2,0-0.2h0.3c0,0,0.1,0,0.1,0.1c0,0,0,0.1-0.1,0.1L29.6,24L29.6,24z M30.3,23.9C30.2,23.9,30.2,23.9,30.3,23.9
			c-0.1-0.1,0-0.2,0-0.2h0.3c0,0,0.1,0,0.1,0.1c0,0,0,0.1-0.1,0.1L30.3,23.9L30.3,23.9z M30.8,23.9L30.8,23.9c-0.1-0.1,0-0.2,0-0.2
			h0.3c0,0,0.1,0,0.1,0.1c0,0,0,0.1-0.1,0.1L30.8,23.9L30.8,23.9z M31.5,23.8C31.5,23.8,31.4,23.8,31.5,23.8c-0.1-0.1,0-0.2,0-0.2
			h0.1h0.2c0,0,0.1,0,0.1,0.1c0,0,0,0.1-0.1,0.1L31.5,23.8L31.5,23.8z M33,23.8h-0.3c0,0-0.1,0-0.1-0.1c0,0,0-0.1,0.1-0.1H33
			C33.1,23.8,33.1,23.8,33,23.8C33.1,23.8,33.1,23.8,33,23.8z M32.4,23.8h-0.3c0,0-0.1,0-0.1-0.1c0,0,0-0.1,0.1-0.1h0.3
			C32.4,23.8,32.5,23.8,32.4,23.8C32.5,23.8,32.4,23.8,32.4,23.8z"/>
	</g>
	<g id="XMLID_66_">
		<path id="XMLID_67_" class="st0" d="M50.9,59.1L50.9,59.1h-0.3c-0.1,0-0.1-0.1-0.1-0.2s0.1-0.1,0.2-0.1H51c0.1,0,0.1,0.1,0.1,0.2
			C51,59,51,59.1,50.9,59.1z M50.2,59L50.2,59h-0.3c-0.1,0-0.1-0.1-0.1-0.2c0-0.1,0.1-0.1,0.2-0.1h0.3c0.1,0,0.1,0.1,0.1,0.2
			C50.4,58.9,50.3,59,50.2,59z M49.6,58.9L49.6,58.9h-0.3c-0.1,0-0.1-0.1-0.1-0.2c0-0.1,0.1-0.1,0.2-0.1h0.3c0.1,0,0.1,0.1,0.1,0.2
			C49.7,58.8,49.7,58.9,49.6,58.9z M49,58.8L49,58.8h-0.3c-0.1,0-0.1-0.1-0.1-0.2c0-0.1,0.1-0.1,0.2-0.1h0.3c0.1,0,0.1,0.1,0.1,0.2
			C49.2,58.8,49.1,58.8,49,58.8z M48.4,58.7L48.4,58.7h-0.3c-0.1,0-0.1-0.1-0.1-0.2c0-0.1,0.1-0.1,0.2-0.1h0.3
			c0.1,0,0.1,0.1,0.1,0.2C48.5,58.7,48.5,58.7,48.4,58.7z M47.8,58.6L47.8,58.6h-0.3c-0.1,0-0.1-0.1-0.1-0.2s0.1-0.1,0.2-0.1h0.3
			c0.1,0,0.1,0.1,0.1,0.2C47.9,58.6,47.8,58.6,47.8,58.6z M47.2,58.5L47.2,58.5h-0.3v-0.3v0.2v-0.2h0.3
			C47.3,58.3,47.3,58.4,47.2,58.5C47.3,58.6,47.3,58.5,47.2,58.5z M46.5,58.5L46.5,58.5h-0.3c-0.1,0-0.1-0.1-0.1-0.2
			c0-0.1,0.1-0.1,0.2-0.1h0.3c0.1,0,0.1,0.1,0.1,0.2C46.7,58.5,46.6,58.5,46.5,58.5z M46,58.4L46,58.4h-0.3c-0.1,0-0.1-0.1-0.1-0.2
			c0-0.1,0.1-0.1,0.2-0.1h0.3c0.1,0,0.1,0.1,0.1,0.2C46.1,58.4,46.1,58.4,46,58.4z M45.3,58.4L45.3,58.4H45c-0.1,0-0.1-0.1-0.1-0.2
			c0-0.1,0.1-0.1,0.2-0.1h0.3c0.1,0,0.1,0.1,0.1,0.2C45.5,58.3,45.4,58.4,45.3,58.4z M44.7,58.3L44.7,58.3h-0.3
			c-0.1,0-0.1-0.1-0.1-0.2c0-0.1,0.1-0.1,0.2-0.1h0.3c0.1,0,0.1,0.1,0.1,0.2C44.8,58.2,44.8,58.3,44.7,58.3z M44.1,58.2L44.1,58.2
			h-0.3c-0.1,0-0.1-0.1-0.1-0.2s0.1-0.1,0.2-0.1h0.3c0.1,0,0.1,0.1,0.1,0.2C44.3,58.1,44.2,58.2,44.1,58.2z M43.5,58.1L43.5,58.1
			h-0.3c-0.1,0-0.1-0.1-0.1-0.2c0-0.1,0.1-0.1,0.2-0.1h0.3c0.1,0,0.1,0.1,0.1,0.2C43.6,58,43.6,58.1,43.5,58.1z M42.9,58L42.9,58
			h-0.3c-0.1,0-0.1-0.1-0.1-0.2c0-0.1,0.1-0.1,0.2-0.1H43c0.1,0,0.1,0.1,0.1,0.2C43,57.9,43,58,42.9,58z M42.3,57.9L42.3,57.9H42
			c-0.1,0-0.1-0.1-0.1-0.2c0-0.1,0.1-0.1,0.2-0.1h0.3c0.1,0,0.1,0.1,0.1,0.2C42.4,57.8,42.4,57.9,42.3,57.9z M41.6,57.8L41.6,57.8
			h-0.4c-0.1,0-0.1-0.1-0.1-0.2c0-0.1,0.1-0.1,0.2-0.1h0.3C41.7,57.5,41.7,57.6,41.6,57.8C41.8,57.7,41.7,57.8,41.6,57.8z
			 M41.1,57.7L41.1,57.7c-0.1,0-0.2,0-0.4-0.1c-0.1,0-0.1-0.1-0.1-0.2c0-0.1,0.1-0.1,0.2-0.1s0.2,0,0.3,0s0.1,0.1,0.1,0.2
			C41.2,57.6,41.2,57.7,41.1,57.7z M40.4,57.6L40.4,57.6c-0.1,0-0.2,0-0.4-0.1c-0.1,0-0.1-0.1-0.1-0.2c0-0.1,0.1-0.1,0.2-0.1
			c0.1,0,0.2,0,0.3,0.1C40.5,57.3,40.5,57.4,40.4,57.6C40.6,57.5,40.5,57.6,40.4,57.6z M39.8,57.4L39.8,57.4c-0.1,0-0.2,0-0.4-0.1
			c-0.1,0-0.1-0.1-0.1-0.2c0-0.1,0.1-0.1,0.2-0.1s0.2,0,0.3,0.1C39.9,57.1,39.9,57.2,39.8,57.4C40,57.4,40,57.4,39.8,57.4z
			 M39.3,57.3C39.2,57.3,39.2,57.3,39.3,57.3c-0.1,0-0.2,0-0.4-0.1c-0.1,0-0.1-0.1-0.1-0.2S38.9,57,39,57c0.1,0,0.2,0,0.3,0.1
			C39.4,57,39.4,57.1,39.3,57.3L39.3,57.3z M38.6,57.1L38.6,57.1c-0.2,0-0.3-0.1-0.4-0.1c-0.1,0-0.1-0.1-0.1-0.2
			c0-0.1,0.1-0.1,0.2-0.1c0.1,0,0.2,0,0.3,0.1C38.7,56.9,38.7,57,38.6,57.1C38.8,57.1,38.7,57.1,38.6,57.1z M38.1,57L38.1,57
			c-0.2,0-0.3-0.1-0.4-0.1c-0.1,0-0.1-0.1-0.1-0.2c0-0.1,0.1-0.1,0.2-0.1s0.2,0,0.3,0.1C38.1,56.7,38.1,56.8,38.1,57
			C38.2,57,38.2,57,38.1,57z M37.5,56.8C37.4,56.8,37.4,56.8,37.5,56.8L37.5,56.8c-0.2-0.1-0.3-0.1-0.4-0.2c-0.1,0-0.1-0.1,0-0.2
			l0,0l0,0c-0.1,0.1-0.2,0.1-0.2,0c-0.1-0.1-0.2-0.2-0.2-0.3c-0.1-0.1,0-0.2,0-0.2l0,0l0,0c-0.1,0-0.2,0-0.2,0
			c-0.1-0.1-0.1-0.2-0.2-0.3c0-0.1,0-0.2,0.1-0.2l0,0l0,0c-0.1,0-0.2,0-0.2-0.1s-0.1-0.2-0.1-0.3s0-0.2,0.1-0.2s0.2,0,0.2,0.1
			s0.1,0.2,0.1,0.3s0,0.2-0.1,0.2c0.1,0,0.2,0,0.2,0.1s0.1,0.2,0.1,0.3s0,0.2,0,0.2c0.1,0,0.2,0,0.2,0c0.1,0.1,0.1,0.1,0.2,0.2
			c0.1,0,0.1,0.1,0,0.2c0-0.1,0.1-0.1,0.2,0c0.1,0.1,0.1,0.1,0.2,0.1l0,0C37.6,56.6,37.6,56.7,37.5,56.8L37.5,56.8z M36.1,54.9
			c-0.1,0-0.1,0-0.2-0.1c0-0.1,0-0.2-0.1-0.3c0-0.1,0-0.2,0.1-0.2s0.2,0,0.2,0.1s0,0.2,0.1,0.3C36.3,54.8,36.2,54.9,36.1,54.9
			L36.1,54.9z M36,54.3c-0.1,0-0.1-0.1-0.2-0.1c0-0.1,0-0.2,0-0.3s0.1-0.2,0.1-0.2c0.1,0,0.2,0.1,0.2,0.1c0,0.1,0,0.2,0,0.3
			C36.2,54.2,36.1,54.2,36,54.3L36,54.3z M35.9,53.7c-0.1,0-0.2-0.1-0.2-0.1c0-0.1,0-0.2,0-0.3s0.1-0.2,0.2-0.2s0.2,0.1,0.2,0.2
			c0,0.1,0,0.2,0,0.3C36.1,53.6,36,53.7,35.9,53.7L35.9,53.7z M35.9,53L35.9,53c-0.1,0-0.2-0.1-0.2-0.2s0-0.2,0-0.3s0.1-0.2,0.2-0.2
			s0.2,0.1,0.2,0.2c0,0.1,0,0.2,0,0.3C36.1,53,36,53,35.9,53z M35.9,52.4L35.9,52.4c-0.1,0-0.2-0.1-0.2-0.2c0-0.1,0-0.2,0-0.3l0,0
			c0-0.1,0.1-0.2,0.2-0.2l0,0c-0.1,0-0.2-0.1-0.2-0.2v-0.3c0-0.1,0.1-0.2,0.2-0.2l0,0c-0.1,0-0.2-0.1-0.2-0.2v-0.3
			c0-0.1,0.1-0.2,0.2-0.2l0,0c-0.1,0-0.2-0.1-0.2-0.2V50c0-0.1,0.1-0.2,0.2-0.2l0,0c-0.1,0-0.2-0.1-0.2-0.2v-0.3
			c0-0.1,0.1-0.2,0.2-0.2l0,0c-0.1,0-0.2-0.1-0.2-0.2v-0.3c0-0.1,0.1-0.2,0.2-0.2l0,0c-0.1,0-0.2-0.1-0.2-0.2V48
			c0-0.1,0.1-0.2,0.2-0.2l0,0c-0.1,0-0.2-0.1-0.2-0.2v-0.3c0-0.1,0.1-0.2,0.2-0.2l0,0c-0.1,0-0.2-0.1-0.2-0.2v-0.3
			c0-0.1,0.1-0.2,0.2-0.2l0,0c-0.1,0-0.2-0.1-0.2-0.2v-0.1V46c0-0.1,0.1-0.2,0.2-0.2s0.2,0.1,0.2,0.2v0.2v0.1c0,0.1-0.1,0.2-0.2,0.2
			l0,0c0.1,0,0.2,0.1,0.2,0.2V47c0,0.5,0,0.5-0.1,0.5l0,0c0.1,0,0.2,0.1,0.2,0.2v0.3c0,0.1-0.1,0.2-0.2,0.2l0,0
			c0.1,0,0.2,0.1,0.2,0.2v0.3c0,0.1-0.1,0.2-0.2,0.2l0,0c0.1,0,0.2,0.1,0.2,0.2v0.3c0,0.1-0.1,0.2-0.2,0.2l0,0
			c0.1,0,0.2,0.1,0.2,0.2v0.3c0,0.1-0.1,0.2-0.2,0.2l0,0c0.1,0,0.2,0.1,0.2,0.2v0.3c0,0.1-0.1,0.2-0.2,0.2l0,0
			c0.1,0,0.2,0.1,0.2,0.2v0.3c0,0.1-0.1,0.2-0.2,0.2l0,0c0.1-0.2,0.1-0.2,0.1-0.1v0.3c0,0.1-0.1,0.2-0.2,0.2l0,0
			c0.1,0,0.2,0.1,0.2,0.2l0,0l0,0c0,0,0,0.1,0,0.3C36.1,52.3,36,52.4,35.9,52.4z M36,46.2L36,46.2c-0.1,0-0.2-0.1-0.2-0.2v-0.3
			c0-0.1,0.1-0.2,0.2-0.2l0,0c0.1,0,0.2,0.1,0.2,0.2V46C36.1,46.2,36.1,46.2,36,46.2z M36,45.7L36,45.7c-0.1,0-0.2-0.1-0.2-0.2v-0.2
			v-0.2c0-0.1,0.1-0.2,0.2-0.2l0,0c0.1,0,0.2,0.1,0.2,0.2v0.2v0.2C36.1,45.6,36.1,45.7,36,45.7z M36,45c-0.1,0-0.2-0.1-0.2-0.2v-0.3
			c0-0.1,0.1-0.2,0.2-0.2l0,0c0.1,0,0.2,0.1,0.2,0.2v0.3C36.1,44.9,36.1,45,36,45L36,45z M36,44.4c-0.1,0-0.2-0.1-0.2-0.2V44
			c0-0.1,0.1-0.2,0.2-0.2l0,0c0.1,0,0.2,0.1,0.2,0.2v0.3C36.1,44.3,36.1,44.4,36,44.4L36,44.4z M36,43.8c-0.1,0-0.2-0.1-0.2-0.2
			v-0.3c0-0.1,0.1-0.2,0.2-0.2c0.1,0,0.2,0.1,0.2,0.2v0.3C36.1,43.7,36,43.8,36,43.8L36,43.8z M35.9,43.2c-0.1,0-0.2-0.1-0.2-0.2
			v-0.3c0-0.1,0.1-0.2,0.2-0.2c0.1,0,0.2,0.1,0.2,0.2V43C36.1,43.1,36,43.2,35.9,43.2L35.9,43.2z M35.9,42.6c-0.1,0-0.2-0.1-0.2-0.2
			v-0.3c0-0.1,0.1-0.2,0.2-0.2s0.2,0.1,0.2,0.2v0.3C36.1,42.5,36,42.6,35.9,42.6L35.9,42.6z M35.9,41.9c-0.1,0-0.2-0.1-0.2-0.2v-0.3
			c0-0.1,0.1-0.2,0.2-0.2s0.2,0.1,0.2,0.2v0.4C36.1,41.9,36,41.9,35.9,41.9L35.9,41.9z M35.9,41.3c-0.1,0-0.2-0.1-0.2-0.2v-0.3
			c0-0.1,0.1-0.2,0.2-0.2l0,0c0.1,0,0.2,0.1,0.2,0.2v0.3C36.1,41.2,36,41.3,35.9,41.3L35.9,41.3z M35.9,40.7c-0.1,0-0.2-0.1-0.2-0.2
			v-0.3c0-0.1,0.1-0.2,0.2-0.2s0.2,0.1,0.2,0.2v0.3C36.1,40.6,36,40.7,35.9,40.7L35.9,40.7z M35.9,40.1c-0.1,0-0.2-0.1-0.2-0.2v-0.3
			c0-0.1,0.1-0.2,0.2-0.2c-0.1,0-0.2-0.1-0.2-0.2V39c0-0.1,0.1-0.2,0.1-0.2c-0.1,0-0.1-0.1-0.1-0.2v-0.3c0-0.1,0.1-0.2,0.2-0.2
			s0.2,0.1,0.2,0.2v0.3c0,0.1-0.1,0.2-0.1,0.2c0.1,0,0.1,0.1,0.1,0.2v0.3c0,0.1-0.1,0.2-0.2,0.2c0.1,0,0.2,0.1,0.2,0.2v0.3
			C36,40,36,40.1,35.9,40.1L35.9,40.1z M35.8,38.2c-0.1,0-0.2-0.1-0.2-0.2v-0.3c0-0.1,0.1-0.2,0.2-0.2c0.1,0,0.2,0.1,0.2,0.2V38
			C36,38.1,35.9,38.2,35.8,38.2L35.8,38.2z M35.8,37.6c-0.1,0-0.2-0.1-0.2-0.2v-0.3c0-0.1,0.1-0.2,0.2-0.2c0.1,0,0.2,0.1,0.2,0.2
			v0.3C36,37.6,35.9,37.6,35.8,37.6L35.8,37.6z M35.8,37c-0.1,0-0.2-0.1-0.2-0.2v-0.3c0-0.1,0.1-0.2,0.2-0.2c0.1,0,0.2,0.1,0.2,0.2
			v0.3C35.9,36.9,35.9,37,35.8,37L35.8,37z M35.8,36.3c-0.1,0-0.2-0.1-0.2-0.2v-0.3c0-0.1,0.1-0.2,0.2-0.2c0.1,0,0.2,0.1,0.2,0.2
			v0.3C35.9,36.3,35.9,36.3,35.8,36.3L35.8,36.3z M35.7,35.8c-0.1,0-0.2-0.1-0.2-0.2v-0.3c0-0.1,0.1-0.2,0.2-0.2
			c0.1,0,0.2,0.1,0.2,0.2v0.3C35.9,35.7,35.8,35.8,35.7,35.8L35.7,35.8z M35.7,35.1c-0.1,0-0.2-0.1-0.2-0.2v-0.3
			c0-0.1,0.1-0.2,0.2-0.2c0.1,0,0.2,0.1,0.2,0.2v0.3C35.9,35,35.8,35.1,35.7,35.1L35.7,35.1z M35.7,34.6c-0.1,0-0.2-0.1-0.2-0.2
			v-0.3c0-0.1,0.1-0.2,0.2-0.2c0.1,0,0.2,0.1,0.2,0.2v0.3C35.9,34.5,35.8,34.6,35.7,34.6L35.7,34.6z M35.7,33.9
			c-0.1,0-0.2-0.1-0.2-0.2v-0.3c0-0.1,0.1-0.2,0.2-0.2c0.1,0,0.2,0.1,0.2,0.2v0.3C35.8,33.8,35.8,33.9,35.7,33.9L35.7,33.9z
			 M35.6,33.2c-0.1,0-0.2-0.1-0.2-0.2v-0.3c0-0.1,0.1-0.2,0.2-0.2s0.2,0.1,0.2,0.2v0.3C35.8,33.2,35.7,33.2,35.6,33.2L35.6,33.2z
			 M35.6,32.7c-0.1,0-0.2-0.1-0.2-0.2v-0.3c0-0.1,0.1-0.2,0.2-0.2s0.2,0.1,0.2,0.2v0.3C35.8,32.6,35.7,32.7,35.6,32.7L35.6,32.7z
			 M35.6,32c-0.1,0-0.2-0.1-0.2-0.2v-0.3c0-0.1,0.1-0.2,0.2-0.2s0.2,0.1,0.2,0.2v0.3C35.8,31.9,35.7,32,35.6,32L35.6,32z M35.6,31.5
			c-0.1,0-0.2-0.1-0.2-0.2V31c0-0.1,0.1-0.2,0.2-0.2s0.2,0.1,0.2,0.2v0.3C35.7,31.4,35.7,31.5,35.6,31.5L35.6,31.5z M35.5,30.8
			c-0.1,0-0.2-0.1-0.2-0.2v-0.1v-0.2c0-0.1,0-0.2,0.1-0.2s0.2,0,0.2,0.1v0.2l0,0l0,0v0.1C35.7,30.7,35.6,30.8,35.5,30.8L35.5,30.8z
			 M35.4,30.2c-0.1,0-0.1-0.1-0.2-0.1v-0.3c0-0.1,0-0.2,0.1-0.2s0.2,0,0.2,0.1V30C35.6,30.1,35.6,30.1,35.4,30.2
			C35.5,30.2,35.5,30.2,35.4,30.2z M35.4,29.6c-0.1,0-0.1-0.1-0.2-0.1v-0.3c0-0.1,0-0.2,0.1-0.2s0.2,0,0.2,0.1v0.3
			C35.5,29.5,35.5,29.6,35.4,29.6L35.4,29.6z M35.3,29c-0.1,0-0.1-0.1-0.2-0.1v-0.3c0-0.1,0-0.2,0.1-0.2s0.2,0,0.2,0.1v0.3
			C35.5,28.9,35.4,28.9,35.3,29L35.3,29z M35.2,28.4c-0.1,0-0.1-0.1-0.2-0.1V28c0-0.1,0-0.2,0.1-0.2s0.2,0,0.2,0.1v0.3
			C35.4,28.3,35.3,28.4,35.2,28.4L35.2,28.4z M35.2,27.8c-0.1,0-0.1-0.1-0.2-0.1v-0.3c0-0.1,0-0.2,0.1-0.2s0.2,0,0.2,0.1v0.3
			C35.3,27.7,35.3,27.7,35.2,27.8C35.2,27.8,35.2,27.8,35.2,27.8z M35.2,27.1c-0.1,0-0.1-0.1-0.2-0.1v-0.3c0-0.1,0-0.2,0.1-0.2
			s0.2,0,0.2,0.1v0.3C35.3,27,35.2,27.1,35.2,27.1L35.2,27.1z M35.1,26.6c-0.1,0-0.1-0.1-0.2-0.1v-0.3c0-0.1,0-0.2,0.1-0.2
			s0.2,0,0.2,0.1v0.3C35.2,26.5,35.2,26.5,35.1,26.6L35.1,26.6z M35,25.9c-0.1,0-0.1-0.1-0.2-0.1v-0.2v-0.1c0-0.1,0-0.2,0.1-0.2
			c-0.1,0-0.2,0-0.2-0.1s0-0.2-0.1-0.3c0-0.1,0-0.2,0.1-0.2c-0.1,0-0.2,0-0.2-0.1s-0.1-0.2-0.1-0.3s0-0.2,0-0.2c-0.1,0-0.2,0-0.2,0
			c0-0.1-0.1-0.2-0.2-0.2c0-0.1,0-0.1,0-0.2c-0.1,0-0.1,0.1-0.2,0c-0.1-0.1-0.2-0.1-0.2-0.2c-0.1,0-0.1-0.1-0.1-0.2
			c0,0.1-0.1,0.1-0.2,0.1c-0.1,0-0.2-0.1-0.3-0.1S33,23.4,33,23.3c0,0.1-0.1,0.1-0.2,0.1s-0.2,0-0.3,0s-0.2,0-0.2-0.1l0,0
			c0,0.1-0.1,0.2-0.1,0.2H32c-0.1,0-0.2-0.1-0.2-0.1c0-0.1,0.1-0.2,0.1-0.2h0.3c0.1,0,0.2,0,0.2,0.1c0-0.1,0.1-0.2,0.1-0.2
			c0.1,0,0.2,0,0.3,0s0.2,0.1,0.2,0.2l0,0l0,0c0-0.1,0.1-0.1,0.2-0.1s0.2,0,0.3,0.1c0.1,0,0.1,0.1,0.1,0.2l0,0l0,0
			c0-0.1,0.1-0.1,0.2-0.1c0.1,0,0.2,0.1,0.3,0.2c0.1,0,0.1,0.2,0,0.2l0,0l0,0c0.1-0.1,0.2,0,0.2,0c0.1,0.1,0.1,0.2,0.2,0.3
			c0,0.1,0,0.2,0,0.2l0,0l0,0c0.1,0,0.2,0,0.2,0.1s0.1,0.2,0.1,0.3s0,0.2-0.1,0.2c0.1,0,0.2,0,0.2,0.1s0,0.2,0.1,0.3
			c0,0.1,0,0.2-0.1,0.2c0.1,0,0.2,0,0.2,0.1v0.1v0.2C35.2,25.8,35.2,25.9,35,25.9C35.1,25.9,35.1,25.9,35,25.9z M25.8,23.6
			c-0.1,0-0.2-0.1-0.2-0.1c0-0.1,0.1-0.2,0.1-0.2H26c0.1,0,0.2,0.1,0.2,0.1c0-0.1,0.1-0.2,0.1-0.2h0.3c0.1,0,0.2,0.1,0.2,0.1
			c0,0.1-0.1,0.2-0.1,0.2h-0.3c-0.1,0-0.2-0.1-0.2-0.1c0,0.1-0.1,0.2-0.1,0.2H25.8L25.8,23.6z M27.1,23.6c-0.1,0-0.2-0.1-0.2-0.1
			c0-0.1,0.1-0.2,0.1-0.2h0.3c0.1,0,0.2,0.1,0.2,0.1c0,0.1-0.1,0.2-0.1,0.2H27.1L27.1,23.6z M27.7,23.6c-0.1,0-0.2-0.1-0.2-0.1
			c0-0.1,0.1-0.2,0.1-0.2h0.3c0.1,0,0.2,0.1,0.2,0.1c0,0.1-0.1,0.2-0.1,0.2H27.7L27.7,23.6z M28.3,23.6c-0.1,0-0.2-0.1-0.2-0.1
			c0-0.1,0.1-0.2,0.1-0.2h0.3c0.1,0,0.2,0.1,0.2,0.1c0,0.1-0.1,0.2-0.1,0.2H28.3L28.3,23.6z M28.9,23.5c-0.1,0-0.2-0.1-0.2-0.1
			c0-0.1,0.1-0.2,0.1-0.2h0.3c0.1,0,0.2,0.1,0.2,0.1c0-0.1,0.1-0.2,0.1-0.2h0.3c0.1,0,0.2,0.1,0.2,0.1c0,0.1-0.1,0.2-0.1,0.2h-0.3
			c-0.1,0-0.2-0.1-0.2-0.1c0,0.1-0.1,0.2-0.1,0.2H28.9L28.9,23.5z M30.2,23.5c-0.1,0-0.2-0.1-0.2-0.1c0-0.1,0.1-0.2,0.1-0.2h0.3
			c0.1,0,0.2,0.1,0.2,0.1c0,0.1-0.1,0.2-0.1,0.2H30.2L30.2,23.5z M30.8,23.4c-0.1,0-0.2-0.1-0.2-0.1c0-0.1,0.1-0.2,0.1-0.2H31
			c0.1,0,0.2,0.1,0.2,0.1c0-0.1,0.1-0.2,0.1-0.2h0.3c0.1,0,0.2,0.1,0.2,0.1c0,0.1-0.1,0.2-0.1,0.2h-0.3c-0.1,0-0.2-0.1-0.2-0.1
			c0,0.1-0.1,0.2-0.1,0.2H30.8L30.8,23.4z"/>
	</g>
	<g id="XMLID_64_">
		<path id="XMLID_65_" class="st0" d="M32.9,72c-0.1,0-0.2-0.1-0.2-0.2l-0.1-0.3c0-0.1,0-0.1,0-0.2l-0.1-0.1L32.4,71
			c0-0.1,0-0.1,0-0.2l-0.1-0.1v-0.4c0-0.1,0-0.1,0-0.2L32.2,70l-0.1-0.3c0-0.1,0-0.1,0-0.2l-0.1-0.1L32,69.1c0-0.1,0-0.1,0-0.2
			l-0.1-0.1l-0.1-0.3c0-0.1,0-0.1,0-0.2l-0.1-0.1L31.6,68c0-0.1,0-0.1,0-0.2l-0.1-0.1l-0.1-0.3c0-0.1,0-0.1,0-0.2l-0.1-0.1l0.1-0.5
			c0-0.1,0-0.1,0-0.2l-0.1-0.1l-0.1-0.3c0-0.1,0-0.1,0-0.2l-0.1-0.1l-0.1-0.3c0-0.1,0-0.1,0-0.2L31,65.3L30.9,65c0-0.1,0-0.1,0-0.2
			l-0.1-0.1l-0.1-0.3l0.2-0.1l0.2-0.1l0.1,0.3c0,0.1,0,0.1,0,0.2l0.1,0.1l0.1,0.3c0,0.1,0,0.1,0,0.2l0.1,0.1l0.1,0.3
			c0,0.1,0,0.1,0,0.2l0.1,0.1l0.1,0.3c0,0.1,0,0.1,0,0.2l0.1,0.1l0.1,0.3c0,0.1,0,0.1,0,0.2L32,67l0.1,0.3c0,0.1,0,0.1,0,0.2
			l0.1,0.1l0.1,0.3c0,0.1,0,0.1,0,0.2l0.1,0.1l0.1,0.3c0,0.1,0,0.1,0,0.2l0.1,0.1l0.1,0.3c0,0.1,0,0.1,0,0.2l0.1,0.1l0.1,0.3
			c0,0.1,0,0.1,0,0.2l0.1,0.1l0.1,0.3c0,0.1,0,0.1,0,0.2l0.1,0.1l0.1,0.3c0,0.1,0,0.1,0,0.2l0.1,0.1l0.1,0.3
			C33.1,71.9,33.1,72,32.9,72L32.9,72z M30.9,64.2c-0.1,0-0.2-0.1-0.2-0.2l-0.1-0.3c0-0.1,0-0.1,0-0.2l-0.1-0.1l-0.1-0.3
			c0-0.1,0-0.1,0-0.2l-0.1-0.1l-0.1-0.3c0-0.1,0-0.1,0-0.2l-0.1-0.1L30.1,62c0-0.1,0-0.1,0-0.2L30,61.8l-0.1-0.3c0-0.1,0-0.1,0-0.2
			l-0.1-0.1l-0.1-0.3c0-0.1,0-0.1,0-0.2l-0.1-0.1c0-0.1-0.1-0.2-0.1-0.3s0-0.1,0-0.2l-0.1-0.1l0.1-0.5c0-0.1,0-0.1,0-0.2l-0.1-0.1
			l-0.1-0.3c0-0.1,0-0.1,0-0.2l-0.1-0.1l-0.1-0.3c0-0.1,0-0.1,0-0.2l-0.1-0.1L29,57.8c0-0.1,0-0.1,0-0.2l-0.1-0.1l-0.1-0.3
			c0-0.1,0-0.1,0-0.2L28.7,57l-0.1-0.3c0-0.1,0-0.1,0-0.2l-0.1-0.1l-0.1-0.3c0-0.1,0-0.1,0-0.2l-0.1-0.1l-0.1-0.3c0-0.1,0-0.1,0-0.2
			l-0.1-0.1c0-0.1-0.1-0.2-0.1-0.3s0-0.1,0-0.2L28,54.8c0-0.1,0-0.2-0.1-0.3c0-0.1,0-0.1,0-0.2l-0.1-0.1c0-0.1,0-0.2-0.1-0.3
			c0-0.1,0-0.1,0-0.2l-0.1-0.1c0-0.1,0-0.2-0.1-0.3c0-0.1,0-0.1,0-0.2L27.3,53c0-0.1,0-0.2-0.1-0.3c0-0.1,0-0.1,0-0.2l-0.1-0.1
			c0-0.1,0-0.2-0.1-0.3c0-0.1,0-0.1,0-0.2L27,51.9c0-0.1,0-0.2-0.1-0.3c0-0.1,0-0.1,0-0.2l-0.1-0.1c0-0.1,0-0.2,0-0.3s0-0.1,0-0.2
			l-0.1-0.1c0-0.1,0-0.2,0-0.3s0-0.1,0-0.2l-0.1-0.1c0-0.1,0-0.2,0-0.3s0-0.1,0-0.2l-0.1-0.1c0-0.1,0-0.2,0-0.3s0-0.1,0-0.2
			l-0.1-0.1c0-0.1,0-0.2,0-0.3s0-0.1,0-0.2c0,0-0.1-0.1-0.1-0.2s0-0.2,0-0.3s0-0.1,0-0.2c0,0-0.1-0.1-0.1-0.2v-0.3
			c0-0.1,0-0.1,0-0.2c0,0-0.1-0.1-0.1-0.2v-0.3c0-0.1,0-0.1,0-0.2c0,0-0.1-0.1-0.1-0.2v-0.3c0-0.1,0-0.1,0-0.2c0,0-0.1-0.1-0.1-0.2
			v-0.3c0-0.1,0-0.1,0-0.2c0,0-0.1-0.1-0.1-0.2v-0.3c0-0.1,0-0.1,0-0.2c0,0-0.1-0.1-0.1-0.2v-0.3c0-0.1,0-0.1,0-0.2
			c0,0-0.1-0.1-0.1-0.2v-0.3c0-0.1,0-0.1,0-0.2c0,0-0.1-0.1-0.1-0.2v-0.3c0-0.1,0-0.1,0-0.2c0,0-0.1-0.1-0.1-0.2v-0.3
			c0-0.1,0-0.1,0-0.2c0,0-0.1-0.1-0.1-0.2v-0.3c0-0.1,0-0.1,0-0.2c0,0-0.1-0.1-0.1-0.2v-0.3c0-0.1,0-0.1,0-0.2c0,0-0.1-0.1-0.1-0.2
			v-0.3c0-0.1,0-0.1,0-0.2c0,0-0.1-0.1-0.1-0.2v-0.3c0-0.1,0-0.1,0-0.2c0,0-0.1-0.1-0.1-0.2v-0.3c0-0.1,0-0.1,0-0.2
			c0,0-0.1-0.1-0.1-0.2v-0.3c0-0.1,0-0.1,0-0.2c0,0-0.1-0.1-0.1-0.2v-0.3c0-0.1,0-0.1,0-0.2c0,0-0.1-0.1-0.1-0.2v-0.3
			c0-0.1,0-0.1,0-0.2c0,0-0.1-0.1-0.1-0.2v-0.3c0-0.1,0-0.1,0-0.2c0,0-0.1-0.1-0.1-0.2v-0.3c0-0.1,0-0.1,0-0.2c0,0-0.1-0.1-0.1-0.2
			v-0.3c0-0.1,0-0.1,0-0.2c0,0-0.1-0.1-0.1-0.2v-0.3c0-0.1,0-0.1,0-0.2c0,0-0.1-0.1-0.1-0.2v-0.3c0-0.1,0-0.1,0-0.2
			c0,0-0.1-0.1-0.1-0.2V33c0-0.1,0-0.1,0-0.2c0,0-0.1-0.1-0.1-0.2v-0.3c0-0.1,0-0.1,0-0.2c0,0-0.1-0.1-0.1-0.2v-0.3
			c0-0.1,0-0.1,0-0.2c0,0-0.1-0.1-0.1-0.2V31c0-0.1,0-0.1,0-0.2c0,0-0.1-0.1-0.1-0.2v-0.3c0-0.1,0-0.1,0-0.2c0,0-0.1-0.1-0.1-0.2
			v-0.3c0-0.1,0-0.1,0-0.2c0,0-0.1-0.1-0.1-0.2V29c0-0.1,0-0.1,0-0.2c0,0-0.1-0.1-0.1-0.2v-0.3c0-0.1,0-0.1,0-0.2
			c0,0-0.1-0.1-0.1-0.2v-0.3c0-0.1,0-0.1,0-0.2c0,0-0.1-0.1-0.1-0.2l0,0c0,0,0-0.1,0-0.2c0-0.1,0-0.1,0-0.2c0,0-0.1-0.1-0.1-0.2
			c0-0.1,0-0.2,0-0.3s0-0.1,0.1-0.2c0,0-0.1-0.1-0.1-0.2c0-0.1,0-0.2,0-0.3s0-0.1,0.1-0.2c0,0-0.1-0.1-0.1-0.2c0-0.1,0-0.2,0-0.3
			s0-0.1,0.1-0.2c0,0-0.1-0.1-0.1-0.2c0-0.1,0-0.2,0-0.3s0-0.1,0.1-0.2c0,0,0-0.1,0-0.2c0-0.1,0-0.2,0-0.3s0-0.1,0.1-0.2
			c0,0,0-0.1,0-0.2c0-0.2,0.1-0.3,0.1-0.4c-0.1-0.1,0-0.2,0.1-0.1c0.1,0.1,0.2,0.2,0.1,0.3c0,0,0,0.1-0.1,0.2c0,0,0,0.1-0.1,0.1
			c0,0,0,0.1,0,0.2c0,0.1,0,0.2,0,0.3s0,0.1-0.1,0.1c0,0,0,0.1,0,0.2c0,0.1,0,0.2,0,0.3s0,0.1-0.1,0.2c0,0,0.1,0.1,0.1,0.2
			c0,0.1,0,0.2,0,0.3s0,0.1-0.1,0.2c0,0,0.1,0.1,0.1,0.2c0,0.1,0,0.2,0,0.3s0,0.1-0.1,0.2c0,0,0.1,0.1,0.1,0.2c0,0.1,0,0.2,0,0.3
			s0,0.1,0,0.2c0,0,0.1,0.1,0.1,0.2c0,0.1,0,0.2,0,0.2v0.1c0,0.1,0,0.1,0,0.2c0,0,0.1,0.1,0.1,0.2v0.3c0,0.1,0,0.1,0,0.2
			c0,0,0.1,0.1,0.1,0.2v0.3c0,0.1,0,0.1,0,0.2c0,0,0.1,0.1,0.1,0.2v0.3c0,0.1,0,0.1,0,0.2c0,0,0.1,0.1,0.1,0.2v0.3
			c0,0.1,0,0.1,0,0.2c0,0,0.1,0.1,0.1,0.2v0.3c0,0.1,0,0.1,0,0.2c0,0,0.1,0.1,0.1,0.2v0.3c0,0.1,0,0.1,0,0.2c0,0,0.1,0.1,0.1,0.2
			v0.3c0,0.1,0,0.1,0,0.2c0,0,0.1,0.1,0.1,0.2v0.3c0,0.1,0,0.1,0,0.2c0,0,0.1,0.1,0.1,0.2v0.3c0,0.1,0,0.1,0,0.2
			c0,0,0.1,0.1,0.1,0.2v0.3c0,0.1,0,0.1,0,0.2c0,0,0.1,0.1,0.1,0.2v0.3c0,0.1,0,0.1,0,0.2c0,0,0.1,0.1,0.1,0.2v0.3
			c0,0.1,0,0.1,0,0.2c0,0,0.1,0.1,0.1,0.2v0.3c0,0.1,0,0.1,0,0.2c0,0,0.1,0.1,0.1,0.2v0.1l0,0l0,0v0.2c0,0.1,0,0.1,0,0.2
			c0,0,0.1,0.1,0.1,0.2v0.3c0,0.1,0,0.1,0,0.2c0,0,0.1,0.1,0.1,0.2v0.3c0,0.1,0,0.1,0,0.2c0,0,0.1,0.1,0.1,0.2v0.3
			c0,0.1,0,0.1,0,0.2c0,0,0.1,0.1,0.1,0.2v0.3c0,0.1,0,0.1,0,0.2c0,0,0.1,0.1,0.1,0.2v0.3c0,0.1,0,0.1,0,0.2c0,0,0.1,0.1,0.1,0.2
			v0.3c0,0.1,0,0.1,0,0.2c0,0,0.1,0.1,0.1,0.2v0.3c0,0.1,0,0.1,0,0.2c0,0,0.1,0.1,0.1,0.2v0.3c0,0.1,0,0.1,0,0.2
			c0,0,0.1,0.1,0.1,0.2v0.3c0,0.1,0,0.1,0,0.2c0,0,0.1,0.1,0.1,0.2v0.3c0,0.1,0,0.1,0,0.2c0,0,0.1,0.1,0.1,0.2v0.3
			c0,0.1,0,0.1,0,0.2c0,0,0.1,0.1,0.1,0.2v0.3c0,0.1,0,0.1,0,0.2c0,0,0.1,0.1,0.1,0.2V45c0,0.1,0,0.1,0,0.2c0,0,0.1,0.1,0.1,0.2v0.3
			c0,0.1,0,0.1,0,0.2c0,0,0.1,0.1,0.1,0.2v0.3c0,0.1,0,0.1,0,0.2c0,0,0.1,0.1,0.1,0.2V47c0,0.1,0,0.1,0,0.2c0,0,0.1,0.1,0.1,0.2v0.3
			c0,0.1,0,0.1,0,0.2c0,0,0.1,0.1,0.1,0.2s0,0.2,0,0.3s0,0.1,0,0.2l0.1,0.1c0,0.1,0,0.2,0,0.3s0,0.1,0,0.2l0.1,0.1
			c0,0.1,0,0.2,0,0.3s0,0.1,0,0.2l0.1,0.1c0,0.1,0,0.2,0,0.3s0,0.1,0,0.2l0.1,0.1c0,0.1,0,0.2,0,0.3s0,0.1,0,0.2l0.1,0.1
			c0,0.1,0,0.2,0,0.3s0,0.1,0,0.2l0.1,0.1c0,0.1,0,0.2,0.1,0.3c0,0.1,0,0.1,0,0.2l0.1,0.1c0,0.1,0,0.2,0.1,0.3c0,0.1,0,0.1,0,0.2
			l0.1,0.1c0,0.1,0,0.2,0.1,0.3c0,0.1,0,0.1,0,0.2l0.1,0.1c0,0.1,0,0.2,0.1,0.3c0,0.1,0,0.1,0,0.2l0.3,0.1c0,0.1,0,0.2,0.1,0.3
			c0,0.1,0,0.1,0,0.2l0.1,0.1c0,0.1,0,0.2,0.1,0.3c0,0.1,0,0.1,0,0.2l0.1,0.1c0,0.1,0,0.2,0.1,0.3c0,0.1,0,0.1,0,0.2l0.1,0.1
			l0.1,0.3c0,0.1,0,0.1,0,0.2l0.1,0.1l0.1,0.3c0,0.1,0,0.1,0,0.2l0.1,0.1l0.1,0.3c0,0.1,0,0.1,0,0.2l0.1,0.1l0.1,0.3
			c0,0.1,0,0.1,0,0.2l0.1,0.1l0.1,0.3c0,0.1,0,0.1,0,0.2l0.1,0.1l0.1,0.3c0,0.1,0,0.1,0,0.2l0.1,0.1l0.1,0.3c0,0.1,0,0.1,0,0.2
			l0.1,0.1l0.1,0.3c0,0.1,0,0.1,0,0.2l0.1,0.1c0,0.1,0.1,0.2,0.1,0.3s0,0.1,0,0.2l0.1,0.1l0.1,0.3c0,0.1,0,0.1,0,0.2l0.1,0.1
			l0.1,0.3c0,0.1,0,0.1,0,0.2l0.1,0.1l0.1,0.3c0,0.1,0,0.1,0,0.2l0.1,0.1l0.1,0.3c0,0.1,0,0.1,0,0.2l0.1,0.1l0.1,0.3
			c0,0.1,0,0.1,0,0.2l0.1,0.1l0.1,0.3c0,0.1,0,0.3-0.2,0.3C31,64.2,31,64.2,30.9,64.2z"/>
	</g>
	<g id="XMLID_62_">
		<path id="XMLID_63_" class="st0" d="M32.3,71.9C32.2,71.9,32.2,71.8,32.3,71.9l-0.2-0.4c0,0,0-0.1,0.1-0.1s0.1,0,0.1,0.1
			L32.3,71.9C32.4,71.8,32.3,71.8,32.3,71.9L32.3,71.9z M32.1,71.2C32.1,71.2,32,71.2,32.1,71.2l-0.2-0.4c0,0,0-0.1,0.1-0.1
			c0,0,0.1,0,0.1,0.1L32.1,71.2C32.2,71.2,32.2,71.2,32.1,71.2L32.1,71.2z M32,70.7C32,70.7,32,70.6,32,70.7l-0.2-0.4
			c0,0,0-0.1,0.1-0.1s0.1,0,0.1,0.1L32,70.7C32,70.6,32,70.7,32,70.7C32,70.7,32,70.7,32,70.7z M31.9,70C31.8,70,31.8,70,31.9,70
			l-0.2-0.4c0,0,0-0.1,0.1-0.1c0,0,0.1,0,0.1,0.1L31.9,70C32,70,31.9,70,31.9,70L31.9,70z M31.7,69.5C31.7,69.5,31.6,69.5,31.7,69.5
			l-0.2-0.4c0,0,0-0.1,0.1-0.1s0.1,0,0.1,0.1L31.7,69.5C31.8,69.5,31.8,69.5,31.7,69.5L31.7,69.5z M31.5,68.9
			C31.5,68.9,31.5,68.8,31.5,68.9l-0.1-0.4c0,0,0-0.1,0.1-0.1s0.1,0,0.1,0.1L31.5,68.9C31.6,68.8,31.6,68.8,31.5,68.9
			C31.6,68.9,31.6,68.9,31.5,68.9z M31.4,68.2C31.4,68.2,31.3,68.2,31.4,68.2l-0.2-0.4c0,0,0-0.1,0.1-0.1c0,0,0.1,0,0.1,0.1
			L31.4,68.2C31.5,68.2,31.5,68.2,31.4,68.2L31.4,68.2z M31.2,67.7C31.2,67.7,31.2,67.6,31.2,67.7L31,67.3c0,0,0-0.1,0.1-0.1
			c0,0,0.1,0,0.1,0.1L31.2,67.7C31.3,67.6,31.3,67.7,31.2,67.7L31.2,67.7z M31.1,67.1C31,67.1,31,67,31.1,67.1l-0.2-0.4
			c0,0,0-0.1,0.1-0.1c0,0,0.1,0,0.1,0.1L31.1,67.1C31.2,67,31.1,67,31.1,67.1C31.1,67,31.1,67.1,31.1,67.1z M30.9,66.4
			C30.9,66.4,30.8,66.4,30.9,66.4l-0.2-0.4c0,0,0-0.1,0.1-0.1c0,0,0.1,0,0.1,0.1L30.9,66.4C31,66.4,31,66.4,30.9,66.4L30.9,66.4z
			 M30.7,65.9L30.7,65.9l-0.2-0.4c0,0,0-0.1,0.1-0.1s0.1,0,0.1,0.1L30.7,65.9C30.8,65.8,30.8,65.9,30.7,65.9L30.7,65.9z M30.6,65.2
			C30.5,65.2,30.5,65.2,30.6,65.2l-0.2-0.3c0,0,0-0.1,0.1-0.1s0.1,0,0.1,0.1L30.6,65.2C30.7,65.2,30.6,65.2,30.6,65.2L30.6,65.2z
			 M30.5,64.7C30.5,64.7,30.4,64.7,30.5,64.7l-0.2-0.4c0,0,0-0.1,0.1-0.1s0.1,0,0.1,0.1L30.5,64.7C30.5,64.7,30.5,64.7,30.5,64.7
			L30.5,64.7z M30.3,64.1L30.3,64.1l-0.2-0.4c0,0,0-0.1,0.1-0.1c0,0,0.1,0,0.1,0.1L30.3,64.1C30.4,64,30.4,64.1,30.3,64.1L30.3,64.1
			z M30.2,63.4C30.1,63.4,30.1,63.4,30.2,63.4L30,63.1c0,0,0-0.1,0.1-0.1c0,0,0.1,0,0.1,0.1L30.2,63.4
			C30.3,63.4,30.2,63.4,30.2,63.4L30.2,63.4z M30,62.9C30,62.9,29.9,62.9,30,62.9l-0.2-0.4c0,0,0-0.1,0.1-0.1c0,0,0.1,0,0.1,0.1
			L30,62.9C30.1,62.8,30.1,62.9,30,62.9L30,62.9z M29.8,62.3L29.8,62.3l-0.2-0.4c0,0,0-0.1,0.1-0.1s0.1,0,0.1,0.1L29.8,62.3
			C29.9,62.2,29.9,62.3,29.8,62.3L29.8,62.3z M29.6,61.7L29.6,61.7l-0.1-0.3v-0.1h0.1V61.7C29.7,61.7,29.7,61.7,29.6,61.7
			C29.7,61.7,29.7,61.7,29.6,61.7z M29.5,61.1C29.5,61.1,29.4,61.1,29.5,61.1l-0.2-0.4v-0.1h0.1l0.1,0.3
			C29.6,61,29.5,61.1,29.5,61.1L29.5,61.1z M29.3,60.5C29.3,60.5,29.2,60.5,29.3,60.5l-0.2-0.4V60h0.1l0.1,0.3
			C29.4,60.4,29.4,60.4,29.3,60.5L29.3,60.5z M29.1,59.9L29.1,59.9l-0.2-0.4v-0.1H29l0.1,0.3C29.2,59.9,29.2,59.9,29.1,59.9
			L29.1,59.9z M28.9,59.3L28.9,59.3c-0.1-0.2-0.1-0.3-0.2-0.4v-0.1h0.1c0,0.1,0.1,0.2,0.1,0.3C29,59.2,29,59.3,28.9,59.3L28.9,59.3z
			 M28.8,58.7L28.8,58.7l-0.1-0.2c0-0.1,0-0.1-0.1-0.2v-0.1h0.1c0,0.1,0,0.1,0.1,0.2V58.7C28.9,58.6,28.9,58.7,28.8,58.7
			C28.9,58.7,28.8,58.7,28.8,58.7z M28.6,58.1L28.6,58.1c-0.1-0.2-0.1-0.3-0.2-0.4v-0.1h0.1c0,0.1,0.1,0.2,0.1,0.3
			C28.7,58.1,28.7,58.1,28.6,58.1L28.6,58.1z M28.4,57.5L28.4,57.5c-0.1-0.2-0.1-0.3-0.2-0.4V57h0.1c0,0.1,0.1,0.2,0.1,0.3
			C28.5,57.5,28.5,57.5,28.4,57.5C28.5,57.5,28.5,57.5,28.4,57.5z M28.3,57C28.2,57,28.2,57,28.3,57c-0.1-0.2-0.1-0.3-0.2-0.4v-0.1
			c0,0,0.1,0,0.1,0.1C28.3,56.7,28.3,56.8,28.3,57C28.3,56.8,28.3,57,28.3,57L28.3,57z M28.1,56.4C28.1,56.4,28,56.3,28.1,56.4
			L27.9,56c0,0,0-0.1,0.1-0.1c0,0,0.1,0,0.1,0.1L28.1,56.4C28.2,56.3,28.2,56.3,28.1,56.4L28.1,56.4z M27.9,55.7L27.9,55.7l-0.2-0.4
			c0,0,0-0.1,0.1-0.1c0,0,0.1,0,0.1,0.1L27.9,55.7C28,55.7,28,55.7,27.9,55.7L27.9,55.7z M27.8,55.2C27.7,55.2,27.7,55.2,27.8,55.2
			l-0.2-0.4c0,0,0-0.1,0.1-0.1s0.1,0,0.1,0.1L27.8,55.2C27.9,55.1,27.8,55.2,27.8,55.2L27.8,55.2z M27.6,54.6
			C27.6,54.6,27.5,54.5,27.6,54.6l-0.2-0.4c0,0,0-0.1,0.1-0.1c0,0,0.1,0,0.1,0.1L27.6,54.6C27.7,54.5,27.7,54.5,27.6,54.6L27.6,54.6
			z M27.5,53.9C27.4,53.9,27.4,53.9,27.5,53.9l-0.2-0.4c0,0,0-0.1,0.1-0.1c0,0,0.1,0,0.1,0.1l0.1,0.3C27.6,53.9,27.5,53.9,27.5,53.9
			L27.5,53.9z M27.3,53.4C27.3,53.4,27.2,53.3,27.3,53.4L27.2,53c0,0,0-0.1,0.1-0.1c0,0,0.1,0,0.1,0.1L27.3,53.4
			C27.4,53.3,27.4,53.4,27.3,53.4L27.3,53.4z M27.2,52.7C27.2,52.7,27.2,52.7,27.2,52.7l-0.1-0.4c0,0,0-0.1,0.1-0.1
			c0,0,0.1,0,0.1,0.1L27.2,52.7C27.3,52.7,27.2,52.7,27.2,52.7L27.2,52.7z M27.1,52.2C27.1,52.2,27.1,52.1,27.1,52.2L27,51.8
			c0,0,0-0.1,0.1-0.1c0,0,0.1,0,0.1,0.1L27.1,52.2C27.2,52.1,27.2,52.2,27.1,52.2L27.1,52.2z M27,51.5C27,51.5,26.9,51.5,27,51.5
			l-0.1-0.4c0,0,0-0.1,0.1-0.1c0,0,0.1,0,0.1,0.1L27,51.5C27.1,51.5,27.1,51.5,27,51.5L27,51.5z M26.9,50.9
			C26.8,50.9,26.8,50.9,26.9,50.9c-0.1-0.2-0.1-0.3-0.1-0.4c0,0,0-0.1,0.1-0.1c0,0,0.1,0,0.1,0.1C26.9,50.7,26.9,50.7,26.9,50.9
			C27,50.9,26.9,50.9,26.9,50.9L26.9,50.9z M26.7,50.4C26.7,50.4,26.7,50.3,26.7,50.4c-0.1-0.2-0.1-0.3-0.1-0.4c0,0,0-0.1,0.1-0.1
			c0,0,0.1,0,0.1,0.1C26.8,50,26.8,50.1,26.7,50.4C26.8,50.3,26.8,50.3,26.7,50.4L26.7,50.4z M26.6,49.7L26.6,49.7
			c-0.1-0.2-0.1-0.3-0.1-0.4c0,0,0-0.1,0.1-0.1c0,0,0.1,0,0.1,0.1S26.7,49.5,26.6,49.7C26.7,49.7,26.7,49.7,26.6,49.7
			C26.7,49.7,26.6,49.7,26.6,49.7z M26.5,49.1C26.5,49.1,26.5,49,26.5,49.1c-0.1-0.2-0.1-0.3-0.1-0.4c0,0,0-0.1,0.1-0.1
			c0,0,0.1,0,0.1,0.1S26.6,49,26.5,49.1C26.6,49,26.6,49.1,26.5,49.1C26.6,49.1,26.6,49.1,26.5,49.1z M26.5,48.5
			C26.4,48.5,26.4,48.5,26.5,48.5l-0.1-0.4c0,0,0-0.1,0.1-0.1c0,0,0.1,0,0.1,0.1L26.5,48.5C26.6,48.5,26.5,48.5,26.5,48.5L26.5,48.5
			z M26.4,47.9C26.4,47.9,26.3,47.8,26.4,47.9l-0.1-0.5c0,0,0-0.1,0.1-0.1c0,0,0.1,0,0.1,0.1L26.4,47.9
			C26.5,47.8,26.5,47.8,26.4,47.9L26.4,47.9z M26.3,47.3L26.3,47.3l-0.1-0.4c0,0,0-0.1,0.1-0.1c0,0,0.1,0,0.1,0.1L26.3,47.3
			C26.4,47.2,26.4,47.3,26.3,47.3L26.3,47.3z M26.3,46.6C26.2,46.6,26.2,46.6,26.3,46.6l-0.1-0.4c0,0,0-0.1,0.1-0.1
			c0,0,0.1,0,0.1,0.1L26.3,46.6C26.4,46.6,26.3,46.6,26.3,46.6L26.3,46.6z M26.2,46C26.2,46,26.1,46,26.2,46l-0.1-0.4
			c0,0,0-0.1,0.1-0.1c0,0,0.1,0,0.1,0.1L26.2,46C26.3,45.9,26.3,46,26.2,46L26.2,46z M26.2,45.4C26.1,45.4,26.1,45.4,26.2,45.4
			L26.1,45c0,0,0-0.1,0.1-0.1c0,0,0.1,0,0.1,0.1L26.2,45.4L26.2,45.4L26.2,45.4z M26.1,44.8C26,44.8,26,44.7,26.1,44.8L26,44.4
			c0,0,0-0.1,0.1-0.1c0,0,0.1,0,0.1,0.1L26.1,44.8C26.2,44.7,26.1,44.8,26.1,44.8L26.1,44.8z M26,44.2L26,44.2l-0.1-0.4
			c0,0,0-0.1,0.1-0.1c0,0,0.1,0,0.1,0.1L26,44.2C26.1,44.2,26.1,44.2,26,44.2L26,44.2z M26,43.6C25.9,43.6,25.9,43.5,26,43.6
			l-0.1-0.4c0,0,0-0.1,0.1-0.1c0,0,0.1,0,0.1,0.1L26,43.6C26.1,43.5,26,43.6,26,43.6L26,43.6z M25.9,42.9
			C25.9,42.9,25.8,42.9,25.9,42.9l-0.1-0.4c0,0,0-0.1,0.1-0.1c0,0,0.1,0,0.1,0.1L25.9,42.9C26,42.9,26,42.9,25.9,42.9L25.9,42.9z
			 M25.9,42.4C25.8,42.4,25.8,42.3,25.9,42.4L25.7,42c0,0,0-0.1,0.1-0.1c0,0,0.1,0,0.1,0.1L25.9,42.4C25.9,42.3,25.9,42.4,25.9,42.4
			L25.9,42.4z M25.8,41.7C25.7,41.7,25.7,41.7,25.8,41.7l-0.1-0.4c0,0,0-0.1,0.1-0.1c0,0,0.1,0,0.1,0.1L25.8,41.7
			C25.9,41.7,25.8,41.7,25.8,41.7L25.8,41.7z M25.7,41.2C25.7,41.2,25.6,41,25.7,41.2l-0.1-0.4c0,0,0-0.1,0.1-0.1c0,0,0.1,0,0.1,0.1
			L25.7,41.2C25.8,41,25.8,41,25.7,41.2L25.7,41.2z M25.7,40.5C25.6,40.5,25.6,40.5,25.7,40.5l-0.1-0.4c0,0,0-0.1,0.1-0.1
			c0,0,0.1,0,0.1,0.1L25.7,40.5C25.8,40.4,25.7,40.5,25.7,40.5L25.7,40.5z M25.6,39.8C25.6,39.8,25.6,39.8,25.6,39.8l-0.1-0.4
			c0,0,0-0.1,0.1-0.1c0,0,0.1,0,0.1,0.1L25.6,39.8C25.7,39.8,25.7,39.8,25.6,39.8L25.6,39.8z M25.6,39.3
			C25.6,39.3,25.6,39.3,25.6,39.3l-0.1-0.4c0,0,0-0.1,0.1-0.1c0,0,0.1,0,0.1,0.1L25.6,39.3C25.6,39.2,25.6,39.3,25.6,39.3L25.6,39.3
			z M25.6,38.6C25.6,38.6,25.5,38.6,25.6,38.6l-0.1-0.4c0,0,0-0.1,0.1-0.1c0,0,0.1,0,0.1,0.1L25.6,38.6
			C25.6,38.6,25.6,38.6,25.6,38.6L25.6,38.6z M25.5,38C25.5,38,25.5,38,25.5,38l-0.1-0.4c0,0,0-0.1,0.1-0.1c0,0,0.1,0,0.1,0.1
			L25.5,38C25.6,38,25.6,38,25.5,38C25.6,38,25.6,38,25.5,38z M25.5,37.4C25.4,37.4,25.4,37.4,25.5,37.4L25.4,37c0,0,0-0.1,0.1-0.1
			c0,0,0.1,0,0.1,0.1L25.5,37.4C25.6,37.4,25.5,37.4,25.5,37.4L25.5,37.4z M25.4,36.8C25.4,36.8,25.3,36.7,25.4,36.8l-0.1-0.4
			c0,0,0-0.1,0.1-0.1c0,0,0.1,0,0.1,0.1L25.4,36.8C25.5,36.7,25.5,36.8,25.4,36.8L25.4,36.8z M25.4,36.2
			C25.3,36.2,25.3,36.2,25.4,36.2l-0.1-0.4c0,0,0-0.1,0.1-0.1c0,0,0.1,0,0.1,0.1L25.4,36.2C25.5,36.2,25.4,36.2,25.4,36.2L25.4,36.2
			z M25.3,35.5C25.3,35.5,25.2,35.5,25.3,35.5l-0.1-0.4c0,0,0-0.1,0.1-0.1c0,0,0.1,0,0.1,0.1L25.3,35.5
			C25.4,35.5,25.4,35.5,25.3,35.5L25.3,35.5z M25.3,34.9C25.2,34.9,25.2,34.9,25.3,34.9c-0.1-0.2-0.1-0.2-0.1-0.2l0,0v-0.2
			c0,0,0-0.1,0.1-0.1c0,0,0.1,0,0.1,0.1v0.2l0,0C25.3,34.8,25.3,34.8,25.3,34.9L25.3,34.9L25.3,34.9z M25.2,34.3
			C25.1,34.3,25.1,34.3,25.2,34.3l-0.1-0.4c0,0,0-0.1,0.1-0.1s0.1,0,0.1,0.1L25.2,34.3C25.3,34.3,25.2,34.3,25.2,34.3L25.2,34.3z
			 M25.1,33.7C25.1,33.7,25.1,33.6,25.1,33.7L25,33.3c0,0,0-0.1,0.1-0.1c0,0,0.1,0,0.1,0.1L25.1,33.7C25.2,33.6,25.2,33.7,25.1,33.7
			L25.1,33.7z M25.1,33.1C25,33.1,25,33.1,25.1,33.1L25,32.7c0,0,0-0.1,0.1-0.1c0,0,0.1,0,0.1,0.1L25.1,33.1
			C25.2,33.1,25.1,33.1,25.1,33.1L25.1,33.1z M25.1,32.5C25,32.5,25,32.4,25.1,32.5L25,32.1c0,0,0-0.1,0.1-0.1c0,0,0.1,0,0.1,0.1
			L25.1,32.5C25.1,32.4,25.1,32.5,25.1,32.5L25.1,32.5z M25,31.8C25,31.8,24.9,31.8,25,31.8l-0.1-0.4c0,0,0-0.1,0.1-0.1
			c0,0,0.1,0,0.1,0.1L25,31.8C25.1,31.8,25.1,31.8,25,31.8L25,31.8z M25,31.3C24.9,31.3,24.9,31.2,25,31.3l-0.1-0.4
			c0,0,0-0.1,0.1-0.1c0,0,0.1,0,0.1,0.1L25,31.3C25.1,31.2,25,31.3,25,31.3L25,31.3z M24.9,30.6L24.9,30.6l-0.1-0.4
			c0,0,0-0.1,0.1-0.1c0,0,0.1,0,0.1,0.1L24.9,30.6C25,30.6,25,30.6,24.9,30.6C25,30.6,24.9,30.6,24.9,30.6z M24.9,30
			C24.9,30,24.8,30,24.9,30l-0.1-0.4c0,0,0-0.1,0.1-0.1c0,0,0.1,0,0.1,0.1L24.9,30C25,30,25,30,24.9,30L24.9,30z M24.9,29.4
			C24.9,29.4,24.8,29.4,24.9,29.4c-0.1-0.2-0.1-0.3-0.1-0.4c0,0,0-0.1,0.1-0.1l0,0c0,0,0.1,0,0.1,0.1S25,29.2,24.9,29.4
			C25,29.4,25,29.4,24.9,29.4L24.9,29.4z M24.9,28.7C24.8,28.7,24.8,28.7,24.9,28.7c-0.1-0.2-0.1-0.3-0.1-0.4c0,0,0-0.1,0.1-0.1
			c0,0,0.1,0,0.1,0.1C25,28.5,25,28.5,24.9,28.7C25,28.7,24.9,28.7,24.9,28.7L24.9,28.7z M24.9,28.2C24.8,28.2,24.8,28.1,24.9,28.2
			L24.8,28v-0.2c0,0,0-0.1,0.1-0.1l0,0c0,0,0.1,0,0.1,0.1V28v0.1L24.9,28.2L24.9,28.2z M24.9,27.5L24.9,27.5
			C24.8,27.5,24.8,27.5,24.9,27.5c-0.1-0.2-0.1-0.3-0.1-0.4c0,0,0-0.1,0.1-0.1c0,0,0.1,0,0.1,0.1S25,27.3,24.9,27.5
			C25,27.5,24.9,27.5,24.9,27.5z M24.9,27L24.9,27C24.9,27,24.8,26.9,24.9,27c-0.1-0.2-0.1-0.3-0.1-0.4c0,0,0-0.1,0.1-0.1
			c0,0,0.1,0,0.1,0.1C25,26.7,25,26.8,24.9,27C25,26.9,24.9,27,24.9,27z M24.9,26.3L24.9,26.3C24.9,26.3,24.8,26.3,24.9,26.3
			c-0.1-0.2-0.1-0.3-0.1-0.4c0,0,0-0.1,0.1-0.1c0,0,0.1,0,0.1,0.1C25,26,25,26.1,24.9,26.3C25,26.3,25,26.3,24.9,26.3z M25,25.7
			L25,25.7C24.9,25.7,24.9,25.6,25,25.7c-0.1-0.2-0.1-0.3,0-0.4c0,0,0-0.1,0.1-0.1c0,0,0.1,0,0.1,0.1C25.1,25.4,25.1,25.5,25,25.7
			C25.1,25.6,25,25.7,25,25.7z M25.1,25.1C25.1,25.1,25,25.1,25.1,25.1C25,25.1,25,25.1,25.1,25.1c-0.1-0.2,0-0.3,0-0.4
			c0,0,0-0.1,0.1-0.1c0,0,0.1,0,0.1,0.1C25.2,24.8,25.2,24.9,25.1,25.1L25.1,25.1z M25.2,24.5L25.2,24.5
			C25.1,24.4,25.1,24.4,25.2,24.5c0-0.2,0-0.3,0-0.4c0,0,0.1-0.1,0.1,0c0,0,0.1,0.1,0,0.1C25.3,24.2,25.3,24.3,25.2,24.5
			C25.3,24.4,25.2,24.5,25.2,24.5z M25.4,23.9L25.4,23.9C25.3,23.9,25.3,23.9,25.4,23.9L25.4,23.9L25.4,23.9
			C25.5,23.8,25.5,23.8,25.4,23.9L25.4,23.9C25.5,23.8,25.4,23.9,25.4,23.9z"/>
	</g>
	<g id="XMLID_60_">
		<path id="XMLID_61_" class="st0" d="M31.9,72.1C31.8,72.1,31.8,72,31.9,72.1l-0.2-0.4c0,0,0-0.1,0.1-0.1s0.1,0,0.1,0.1L31.9,72.1
			C32,72,31.9,72,31.9,72.1C31.9,72,31.9,72.1,31.9,72.1z M31.7,71.4C31.7,71.4,31.6,71.4,31.7,71.4l-0.2-0.4c0,0,0-0.1,0.1-0.1
			c0,0,0.1,0,0.1,0.1L31.7,71.4C31.8,71.4,31.8,71.4,31.7,71.4L31.7,71.4z M31.5,70.9C31.5,70.9,31.5,70.8,31.5,70.9l-0.1-0.4
			c0,0,0-0.1,0.1-0.1c0,0,0.1,0,0.1,0.1L31.5,70.9C31.6,70.8,31.6,70.8,31.5,70.9L31.5,70.9z M31.4,70.2
			C31.3,70.2,31.3,70.2,31.4,70.2l-0.2-0.4c0,0,0-0.1,0.1-0.1c0,0,0.1,0,0.1,0.1L31.4,70.2C31.5,70.2,31.4,70.2,31.4,70.2L31.4,70.2
			z M31.2,69.6C31.2,69.6,31.1,69.6,31.2,69.6L31,69.3c0,0,0-0.1,0.1-0.1c0,0,0.1,0,0.1,0.1L31.2,69.6
			C31.3,69.6,31.3,69.6,31.2,69.6L31.2,69.6z M31,69.1C31,69.1,31,69,31,69.1l-0.2-0.4c0,0,0-0.1,0.1-0.1s0.1,0,0.1,0.1L31,69.1
			C31.1,69,31.1,69,31,69.1C31.1,69.1,31.1,69.1,31,69.1z M30.9,68.4C30.8,68.4,30.8,68.4,30.9,68.4L30.7,68c0,0,0-0.1,0.1-0.1
			c0,0,0.1,0,0.1,0.1L30.9,68.4C31,68.4,30.9,68.4,30.9,68.4L30.9,68.4z M30.7,67.9L30.7,67.9l-0.2-0.4c0,0,0-0.1,0.1-0.1
			s0.1,0,0.1,0.1L30.7,67.9C30.8,67.8,30.8,67.9,30.7,67.9L30.7,67.9z M30.6,67.2C30.5,67.2,30.5,67.2,30.6,67.2l-0.2-0.3
			c0,0,0-0.1,0.1-0.1s0.1,0,0.1,0.1L30.6,67.2C30.7,67.2,30.6,67.2,30.6,67.2L30.6,67.2z M30.5,66.6C30.5,66.6,30.4,66.6,30.5,66.6
			l-0.2-0.4c0,0,0-0.1,0.1-0.1s0.1,0.1,0.1,0.1L30.5,66.6C30.5,66.6,30.5,66.6,30.5,66.6L30.5,66.6z M30.3,66.1L30.3,66.1l-0.2-0.4
			c0,0,0-0.1,0.1-0.1s0.1,0,0.1,0.1L30.3,66.1C30.4,66,30.4,66.1,30.3,66.1L30.3,66.1z M30.2,65.4C30.1,65.4,30.1,65.4,30.2,65.4
			L30,65c0,0,0-0.1,0.1-0.1s0.1,0,0.1,0.1L30.2,65.4C30.3,65.4,30.2,65.4,30.2,65.4L30.2,65.4z M30,64.8C30,64.8,29.9,64.8,30,64.8
			l-0.2-0.4c0,0,0-0.1,0.1-0.1c0,0,0.1,0,0.1,0.1L30,64.8C30.1,64.8,30.1,64.8,30,64.8L30,64.8z M29.8,64.3L29.8,64.3l-0.2-0.4
			c0,0,0-0.1,0.1-0.1s0.1,0,0.1,0.1L29.8,64.3C29.9,64.2,29.9,64.3,29.8,64.3L29.8,64.3z M29.7,63.6C29.6,63.6,29.6,63.6,29.7,63.6
			l-0.2-0.3c0,0,0-0.1,0.1-0.1c0,0,0.1,0,0.1,0.1L29.7,63.6C29.8,63.6,29.7,63.6,29.7,63.6L29.7,63.6z M29.5,63.1
			C29.5,63.1,29.4,63.1,29.5,63.1l-0.2-0.4c0,0,0-0.1,0.1-0.1c0,0,0.1,0,0.1,0.1L29.5,63.1C29.6,63,29.6,63.1,29.5,63.1L29.5,63.1z
			 M29.3,62.5C29.3,62.5,29.3,62.4,29.3,62.5l-0.2-0.4c0,0,0-0.1,0.1-0.1s0.1,0,0.1,0.1L29.3,62.5C29.4,62.4,29.4,62.4,29.3,62.5
			L29.3,62.5z M29.2,61.8C29.1,61.8,29.1,61.8,29.2,61.8L29,61.6v-0.1h0.1L29.2,61.8C29.2,61.8,29.2,61.8,29.2,61.8L29.2,61.8z
			 M29,61.3C28.9,61.3,28.9,61.3,29,61.3l-0.2-0.4v-0.1h0.1l0.1,0.3C29.1,61.2,29,61.3,29,61.3L29,61.3z M28.9,60.7
			C28.9,60.7,28.8,60.7,28.9,60.7c-0.1-0.2-0.1-0.3-0.2-0.4v-0.1h0.1c0,0.1,0.1,0.2,0.1,0.3C28.9,60.6,28.9,60.6,28.9,60.7
			L28.9,60.7z M28.7,60C28.7,60,28.6,60,28.7,60c-0.1-0.1-0.1-0.2-0.2-0.3v-0.1v-0.1h0.1v0.1C28.7,59.9,28.7,59.9,28.7,60
			C28.8,60,28.7,60,28.7,60L28.7,60z M28.5,59.5C28.5,59.5,28.4,59.5,28.5,59.5c-0.1-0.1-0.1-0.2-0.2-0.4V59h0.1
			C28.5,59.2,28.5,59.3,28.5,59.5C28.6,59.5,28.5,59.5,28.5,59.5L28.5,59.5z M28.3,58.9C28.2,58.9,28.2,58.9,28.3,58.9l-0.2-0.4
			v-0.1h0.1L28.3,58.9C28.4,58.8,28.3,58.9,28.3,58.9L28.3,58.9z M28.1,58.4C28,58.4,28,58.3,28.1,58.4L27.9,58v-0.1H28L28.1,58.4
			C28.2,58.3,28.1,58.3,28.1,58.4L28.1,58.4z M27.9,57.7C27.8,57.7,27.8,57.7,27.9,57.7l-0.2-0.4v-0.1h0.1L27.9,57.7
			C28,57.7,27.9,57.7,27.9,57.7L27.9,57.7z M27.7,57.1C27.6,57.1,27.6,57.1,27.7,57.1l-0.2-0.4v-0.1h0.1l0.1,0.3
			C27.8,57,27.7,57.1,27.7,57.1L27.7,57.1z M27.5,56.6C27.5,56.6,27.4,56.6,27.5,56.6l-0.2-0.4v-0.1h0.1l0.1,0.3
			C27.6,56.5,27.5,56.6,27.5,56.6L27.5,56.6z M27.3,55.9C27.3,55.9,27.2,55.9,27.3,55.9l-0.2-0.4v-0.1h0.1l0.1,0.3
			C27.4,55.9,27.4,55.9,27.3,55.9L27.3,55.9z M27.2,55.3L27.2,55.3L27.1,55v-0.1h0.1l0.1,0.3C27.2,55.3,27.2,55.3,27.2,55.3
			L27.2,55.3z M27,54.8L27,54.8l-0.2-0.4c0,0,0-0.1,0.1-0.1c0,0,0.1,0,0.1,0.1L27,54.8C27.1,54.7,27.1,54.8,27,54.8L27,54.8z
			 M26.9,54.2C26.8,54.2,26.8,54.1,26.9,54.2c-0.2-0.2-0.2-0.3-0.2-0.4c0,0,0-0.1,0.1-0.1c0,0,0.1,0,0.1,0.1
			C26.9,53.9,26.9,54,26.9,54.2C27,54.1,26.9,54.1,26.9,54.2C26.9,54.1,26.9,54.2,26.9,54.2z M26.7,53.6L26.7,53.6
			c-0.1-0.2-0.1-0.3-0.2-0.4c0,0,0-0.1,0.1-0.1c0,0,0.1,0,0.1,0.1C26.7,53.3,26.8,53.4,26.7,53.6C26.8,53.6,26.8,53.6,26.7,53.6
			L26.7,53.6z M26.6,53C26.5,53,26.5,53,26.6,53c-0.1-0.2-0.1-0.3-0.2-0.4c0,0,0-0.1,0.1-0.1c0,0,0.1,0,0.1,0.1s0,0.2,0.1,0.3
			C26.6,52.9,26.6,53,26.6,53L26.6,53z M26.4,52.3C26.4,52.3,26.3,52.3,26.4,52.3c-0.1-0.2-0.1-0.3-0.1-0.4c0,0,0-0.1,0.1-0.1
			c0,0,0.1,0,0.1,0.1C26.4,52.1,26.5,52.2,26.4,52.3C26.5,52.3,26.5,52.3,26.4,52.3L26.4,52.3z M26.3,51.8
			C26.2,51.8,26.2,51.8,26.3,51.8L26.3,51.8c-0.1-0.2-0.1-0.3-0.1-0.4c0,0,0-0.1,0.1-0.1c0,0,0.1,0,0.1,0.1
			C26.3,51.5,26.3,51.6,26.3,51.8C26.4,51.7,26.3,51.8,26.3,51.8L26.3,51.8z M26.2,51.1C26.1,51.1,26.1,51.1,26.2,51.1
			c-0.1-0.2-0.1-0.3-0.1-0.4c0,0,0-0.1,0.1-0.1c0,0,0.1,0,0.1,0.1C26.2,50.8,26.2,50.9,26.2,51.1C26.3,51.1,26.2,51.1,26.2,51.1
			L26.2,51.1z M26.1,50.5C26,50.5,26,50.5,26.1,50.5C26,50.4,26,50.3,26,50.2c0,0,0-0.1,0.1-0.1c0,0,0.1,0,0.1,0.1
			C26.1,50.3,26.1,50.4,26.1,50.5C26.2,50.5,26.1,50.5,26.1,50.5L26.1,50.5z M26,50C25.9,50,25.9,49.9,26,50l-0.1-0.4
			c0,0,0-0.1,0.1-0.1c0,0,0.1,0,0.1,0.1L26,50C26.1,49.9,26,49.9,26,50L26,50z M25.9,49.3C25.8,49.3,25.8,49.3,25.9,49.3L25.8,49
			c0,0,0-0.1,0.1-0.1c0,0,0.1,0,0.1,0.1L25.9,49.3C26,49.2,25.9,49.3,25.9,49.3L25.9,49.3z M25.8,48.7
			C25.8,48.7,25.7,48.7,25.8,48.7l-0.1-0.4c0,0,0-0.1,0.1-0.1c0,0,0.1,0,0.1,0.1L25.8,48.7C25.9,48.7,25.9,48.7,25.8,48.7L25.8,48.7
			z M25.8,48.1C25.7,48.1,25.7,48.1,25.8,48.1l-0.1-0.4c0,0,0-0.1,0.1-0.1c0,0,0.1,0,0.1,0.1L25.8,48.1L25.8,48.1L25.8,48.1z
			 M25.7,47.5C25.6,47.5,25.6,47.5,25.7,47.5l-0.1-0.4c0,0,0-0.1,0.1-0.1c0,0,0.1,0,0.1,0.1L25.7,47.5
			C25.8,47.5,25.7,47.5,25.7,47.5L25.7,47.5z M25.6,46.9L25.6,46.9l-0.1-0.4c0,0,0-0.1,0.1-0.1c0,0,0.1,0,0.1,0.1L25.6,46.9
			C25.7,46.8,25.7,46.9,25.6,46.9L25.6,46.9z M25.6,46.2C25.6,46.2,25.6,46.2,25.6,46.2l-0.1-0.4c0,0,0-0.1,0.1-0.1
			c0,0,0.1,0,0.1,0.1L25.6,46.2C25.7,46.2,25.6,46.2,25.6,46.2L25.6,46.2z M25.6,45.7C25.6,45.7,25.5,45.6,25.6,45.7l-0.1-0.4
			c0,0,0-0.1,0.1-0.1c0,0,0.1,0,0.1,0.1L25.6,45.7C25.6,45.6,25.6,45.7,25.6,45.7L25.6,45.7z M25.6,45C25.5,45,25.5,45,25.6,45
			l-0.1-0.4c0,0,0-0.1,0.1-0.1c0,0,0.1,0,0.1,0.1L25.6,45C25.6,45,25.6,45,25.6,45L25.6,45z M25.5,44.4
			C25.5,44.4,25.4,44.3,25.5,44.4l-0.1-0.4c0,0,0-0.1,0.1-0.1c0,0,0.1,0,0.1,0.1L25.5,44.4C25.6,44.3,25.6,44.4,25.5,44.4L25.5,44.4
			z M25.5,43.8C25.4,43.8,25.4,43.8,25.5,43.8l-0.1-0.4c0,0,0-0.1,0.1-0.1s0.1,0,0.1,0.1L25.5,43.8C25.6,43.8,25.5,43.8,25.5,43.8
			L25.5,43.8z M25.4,43.2C25.4,43.2,25.4,43.1,25.4,43.2C25.3,43,25.3,43,25.3,43l0,0v-0.2c0,0,0-0.1,0.1-0.1c0,0,0.1,0,0.1,0.1V43
			l0,0C25.5,42.9,25.5,43,25.4,43.2C25.5,43.1,25.5,43.2,25.4,43.2L25.4,43.2z M25.4,42.6C25.3,42.6,25.3,42.6,25.4,42.6l-0.1-0.4
			c0,0,0-0.1,0.1-0.1c0,0,0.1,0,0.1,0.1L25.4,42.6C25.5,42.5,25.4,42.6,25.4,42.6L25.4,42.6z M25.3,41.9L25.3,41.9l-0.1-0.4
			c0,0,0-0.1,0.1-0.1c0,0,0.1,0,0.1,0.1L25.3,41.9C25.4,41.9,25.4,41.9,25.3,41.9C25.4,41.9,25.4,41.9,25.3,41.9z M25.3,41.3
			C25.3,41.3,25.2,41.3,25.3,41.3L25.2,41c0,0,0-0.1,0.1-0.1c0,0,0.1,0,0.1,0.1L25.3,41.3C25.4,41.2,25.4,41.3,25.3,41.3L25.3,41.3z
			 M25.3,40.7C25.2,40.7,25.2,40.7,25.3,40.7l-0.1-0.4c0,0,0-0.1,0.1-0.1c0,0,0.1,0,0.1,0.1L25.3,40.7L25.3,40.7L25.3,40.7z
			 M25.2,40.1C25.2,40.1,25.1,40,25.2,40.1l-0.1-0.4c0,0,0-0.1,0.1-0.1c0,0,0.1,0,0.1,0.1L25.2,40.1C25.3,40,25.3,40.1,25.2,40.1
			L25.2,40.1z M25.2,39.5C25.1,39.5,25.1,39.5,25.2,39.5l-0.1-0.4c0,0,0-0.1,0.1-0.1s0.1,0,0.1,0.1L25.2,39.5
			C25.3,39.5,25.2,39.5,25.2,39.5L25.2,39.5z M25.1,38.9C25.1,38.9,25,38.8,25.1,38.9L25,38.5c0,0,0-0.1,0.1-0.1c0,0,0.1,0,0.1,0.1
			L25.1,38.9C25.2,38.8,25.2,38.9,25.1,38.9L25.1,38.9z M25.1,38.2C25,38.2,25,38.2,25.1,38.2L25,37.8c0,0,0-0.1,0.1-0.1
			c0,0,0.1,0,0.1,0.1L25.1,38.2C25.2,38.2,25.1,38.2,25.1,38.2L25.1,38.2z M25,37.6C25,37.6,24.9,37.6,25,37.6l-0.1-0.4
			c0,0,0-0.1,0.1-0.1c0,0,0.1,0,0.1,0.1L25,37.6C25.1,37.6,25.1,37.6,25,37.6L25,37.6z M25,37C24.9,37,24.9,37,25,37l-0.1-0.4
			c0,0,0-0.1,0.1-0.1c0,0,0.1,0,0.1,0.1L25,37C25.1,37,25,37,25,37L25,37z M24.9,36.4C24.9,36.4,24.9,36.3,24.9,36.4L24.8,36
			c0,0,0-0.1,0.1-0.1c0,0,0.1,0,0.1,0.1L24.9,36.4C25,36.3,25,36.3,24.9,36.4L24.9,36.4z M24.9,35.8C24.8,35.8,24.8,35.8,24.9,35.8
			l-0.1-0.4c0,0,0-0.1,0.1-0.1c0,0,0.1,0,0.1,0.1L24.9,35.8C25,35.7,24.9,35.8,24.9,35.8L24.9,35.8z M24.8,35.1
			C24.8,35.1,24.7,35.1,24.8,35.1l-0.1-0.4c0,0,0-0.1,0.1-0.1c0,0,0.1,0,0.1,0.1L24.8,35.1C24.9,35.1,24.9,35.1,24.8,35.1L24.8,35.1
			z M24.8,34.6C24.7,34.6,24.7,34.6,24.8,34.6l-0.1-0.4c0,0,0-0.1,0.1-0.1c0,0,0.1,0,0.1,0.1L24.8,34.6
			C24.9,34.5,24.8,34.6,24.8,34.6L24.8,34.6z M24.7,33.9L24.7,33.9l-0.1-0.4c0,0,0-0.1,0.1-0.1c0,0,0.1,0,0.1,0.1L24.7,33.9
			C24.8,33.9,24.8,33.9,24.7,33.9L24.7,33.9z M24.7,33.3C24.6,33.3,24.6,33.2,24.7,33.3L24.6,33c0,0,0-0.1,0.1-0.1
			c0,0,0.1,0,0.1,0.1L24.7,33.3C24.8,33.2,24.7,33.3,24.7,33.3L24.7,33.3z M24.6,32.7L24.6,32.7l-0.1-0.4c0,0,0-0.1,0.1-0.1
			c0,0,0.1,0,0.1,0.1L24.6,32.7C24.7,32.7,24.7,32.7,24.6,32.7L24.6,32.7z M24.6,32.1C24.5,32.1,24.5,32,24.6,32.1l-0.1-0.4
			c0,0,0-0.1,0.1-0.1c0,0,0.1,0,0.1,0.1L24.6,32.1C24.7,32,24.6,32.1,24.6,32.1L24.6,32.1z M24.6,31.5
			C24.5,31.5,24.5,31.5,24.6,31.5c-0.1-0.2-0.1-0.3-0.1-0.4c0,0,0-0.1,0.1-0.1c0,0,0.1,0,0.1,0.1C24.6,31.2,24.6,31.3,24.6,31.5
			L24.6,31.5L24.6,31.5z M24.5,30.8C24.5,30.8,24.4,30.8,24.5,30.8l-0.1-0.4c0,0,0-0.1,0.1-0.1c0,0,0.1,0,0.1,0.1L24.5,30.8
			C24.6,30.8,24.6,30.8,24.5,30.8L24.5,30.8z M24.5,30.2C24.5,30.2,24.4,30.2,24.5,30.2c-0.1-0.2-0.1-0.3-0.1-0.4c0,0,0-0.1,0.1-0.1
			s0.1,0,0.1,0.1C24.6,30,24.6,30,24.5,30.2C24.6,30.2,24.6,30.2,24.5,30.2L24.5,30.2z M24.5,29.6C24.4,29.6,24.4,29.6,24.5,29.6
			c-0.1-0.2-0.1-0.3-0.1-0.4c0,0,0-0.1,0.1-0.1s0.1,0,0.1,0.1C24.6,29.3,24.6,29.4,24.5,29.6C24.6,29.6,24.5,29.6,24.5,29.6
			L24.5,29.6z M24.5,29C24.4,29,24.4,28.9,24.5,29c-0.1-0.2-0.1-0.3-0.1-0.4h0.2C24.6,28.7,24.6,28.8,24.5,29
			C24.6,28.9,24.5,29,24.5,29L24.5,29z M24.5,28.4L24.5,28.4C24.4,28.4,24.4,28.4,24.5,28.4c-0.1-0.2-0.1-0.3-0.1-0.4
			c0,0,0-0.1,0.1-0.1c0,0,0.1,0,0.1,0.1C24.6,28.1,24.6,28.2,24.5,28.4C24.6,28.4,24.5,28.4,24.5,28.4z M24.5,27.8L24.5,27.8
			C24.4,27.8,24.4,27.7,24.5,27.8c-0.1-0.2-0.1-0.3-0.1-0.4c0,0,0-0.1,0.1-0.1c0,0,0.1,0,0.1,0.1C24.6,27.5,24.6,27.6,24.5,27.8
			C24.6,27.7,24.5,27.8,24.5,27.8z M24.5,27.1L24.5,27.1C24.5,27.1,24.4,27.1,24.5,27.1c-0.1-0.2-0.1-0.3-0.1-0.4c0,0,0-0.1,0.1-0.1
			c0,0,0.1,0,0.1,0.1C24.6,26.9,24.6,27,24.5,27.1C24.6,27.1,24.6,27.1,24.5,27.1z M24.6,26.6L24.6,26.6
			C24.5,26.6,24.5,26.5,24.6,26.6c-0.1-0.2-0.1-0.3,0-0.4c0,0,0-0.1,0.1-0.1c0,0,0.1,0,0.1,0.1C24.7,26.3,24.7,26.4,24.6,26.6
			C24.6,26.5,24.6,26.6,24.6,26.6z M24.6,25.9L24.6,25.9C24.6,25.9,24.5,25.8,24.6,25.9c-0.1-0.2,0-0.3,0-0.4c0,0,0-0.1,0.1-0.1
			c0,0,0.1,0,0.1,0.1C24.7,25.6,24.7,25.7,24.6,25.9C24.7,25.9,24.7,25.9,24.6,25.9z M24.7,25.4L24.7,25.4
			C24.6,25.2,24.6,25.2,24.7,25.4c-0.1-0.2,0-0.3,0-0.4c0,0,0-0.1,0.1-0.1c0,0,0.1,0,0.1,0.1C24.8,25.1,24.8,25.2,24.7,25.4
			C24.8,25.2,24.7,25.4,24.7,25.4z M24.8,24.7L24.8,24.7L24.8,24.7c0-0.2,0-0.3,0-0.4c0,0,0.1-0.1,0.1,0c0,0,0.1,0.1,0,0.1
			C25,24.5,24.9,24.6,24.8,24.7C24.9,24.7,24.9,24.7,24.8,24.7z M25.1,24.1C25,24.1,25,24.1,25.1,24.1C25,24.1,25,24,25.1,24.1
			c-0.1-0.2,0-0.3,0.1-0.4h0.1v0.1C25.3,23.8,25.2,23.9,25.1,24.1L25.1,24.1z M25.5,23.6C25.4,23.6,25.4,23.6,25.5,23.6
			c-0.1-0.1-0.1-0.1,0-0.2c0.1,0,0.2-0.1,0.3-0.1c0,0,0.1,0,0.1,0.1c0,0,0,0.1-0.1,0.1C25.6,23.6,25.6,23.6,25.5,23.6L25.5,23.6z"/>
	</g>
	<g id="XMLID_51_">
		<g id="XMLID_58_">
			<path id="XMLID_59_" class="st0" d="M41.2,62.9c0-0.2,0.2-0.3,0.4-0.3s0.3,0.1,0.3,0.3s-0.2,0.3-0.3,0.3
				C41.3,63.2,41.1,63.1,41.2,62.9 M41.5,63.2c0.1,0,0.3-0.1,0.3-0.3c0-0.1-0.1-0.3-0.3-0.3c-0.1,0-0.3,0.1-0.3,0.3
				S41.3,63.2,41.5,63.2 M41.4,63.1L41.4,63.1v-0.4h0.1c0.1,0,0.1,0,0.1,0.1s0,0.1-0.1,0.1l0.1,0.2L41.4,63.1v-0.2h-0.1L41.4,63.1
				L41.4,63.1L41.4,63.1z M41.5,62.9C41.5,62.9,41.5,62.9,41.5,62.9C41.5,62.8,41.5,62.8,41.5,62.9L41.5,62.9L41.5,62.9L41.5,62.9z"
				/>
		</g>
		<g id="XMLID_56_">
			<path id="XMLID_57_" class="st0" d="M38.5,62.8h0.2c0,0-0.2-0.6-0.3-0.8c0.1,0,0.2,0,0.3,0c0.1,0.2,0.3,0.7,0.3,0.7
				s0.4-0.2,0.6-0.3c0.1,0,0.1,0.1,0.2,0.1l-0.7,0.5l0.2,0.5c0,0,0.5-0.6,0.7-0.8c0.1,0,0.1,0.1,0.2,0.1c-0.1,0.2-0.2,0.3-0.3,0.5
				c0.3,0,0.5,0,0.8,0.1c0.1,0.1,0.1,0.2,0.2,0.3h-0.7l-0.3,0.5l0.4-0.1c0,0,0.3-0.1,0.7-0.2c0.1,0.1,0.1,0.2,0.1,0.3l-0.7,0.2
				l-0.7,0.1c-0.1,0.1-0.2,0.2-0.2,0.3c0.6-0.1,1.1-0.2,1.7-0.3c0.2,0.8,0,1.7-0.5,2.3c-1.5,0.3-3.1-0.2-4.6-0.1h-0.5
				c-0.3-0.4-0.5-0.8-0.5-1.3c0-0.6,0-1.1,0.3-1.5h0.8l-0.4-0.5c0-0.1,0.1-0.1,0.2-0.2c0.2,0.2,0.6,0.8,0.6,0.8h0.2l-0.7-0.8
				c0.1-0.1,0.2-0.2,0.3-0.3l0.6,0.1c0,0,0-0.3,0-0.5c0.1-0.1,0.3-0.1,0.4-0.1c0.1,0.2,0.2,0.5,0.3,0.7c0.2-0.2,0.3-0.5,0.5-0.8
				c0,0,0,0,0.1,0L38.5,62.8z M38.1,62.5l-0.4,0.6l0.2,0.7l0.3-0.2l0.1-0.5C38.2,62.8,38.2,62.7,38.1,62.5 M37.1,62.5v0.3h0.2
				C37.3,62.7,37.2,62.6,37.1,62.5 M36.4,62.8L36.4,62.8c0.2,0.2,0.5,0.6,0.5,0.6V63L36.4,62.8z M38.8,63.1L38.8,63.1l-0.1,0.2
				L38.8,63.1L38.8,63.1z M37.1,63.1v0.6l0.2-0.5L37.1,63.1z M39.8,63.4h-0.2l-0.4,0.5h0.2L39.8,63.4z M38.4,63.7v0.6l0.5-0.6
				l0.1-0.1l-0.1-0.2L38.4,63.7z M37.5,63.6l-0.2,0.3l0.3,0.3C37.6,64,37.6,63.8,37.5,63.6 M38.2,63.9L38,64v0.2h0.1L38.2,63.9z
				 M36.4,63.8l-0.3,0.4l0.5,0.2l0.4-0.3l-0.1-0.2L36.4,63.8z M35.4,63.9l0.4,0.2l0.1-0.2H35.4z M39,64.3l-0.2,0.4h0.3l0.3-0.4H39z
				 M37.3,64.3l-0.8,0.6h-0.4l0.2-0.2c-0.1-0.1-0.3-0.1-0.4-0.2l-0.3,0.4c-0.1,0-0.2,0-0.3,0c0,0.3,0,0.6,0.1,0.8
				c0,0.1,0,0.2,0.1,0.2c0.8,0,1.4,0.2,2.2,0.3V65c0-0.1-0.1-0.2-0.2-0.3l-0.4,0.2h-0.7c0,0,0.6-0.3,0.8-0.4
				C37.4,64.5,37.3,64.4,37.3,64.3 M35.4,64.3c0,0.1,0,0.2,0,0.4c0.1-0.1,0.2-0.3,0.2-0.3L35.4,64.3z M40.8,64.7l-0.3,0.1
				c0.1,0.1,0.2,0.4,0.2,0.4h-0.3l-0.3-0.4c-0.1,0-0.5,0.1-0.5,0.1l0.1,0.3h-0.2l-0.2-0.2c0,0-0.7,0.2-0.9,0.3l0,0c0,0.4,0,0.7,0,1
				v0.1c0.6,0.1,1.2,0.2,1.9,0.3h0.1c0.2-0.2,0.3-0.5,0.4-0.8C40.9,65.4,40.9,64.9,40.8,64.7"/>
		</g>
		<g id="XMLID_54_">
			<path id="XMLID_55_" class="st0" d="M40.5,66.8c-0.2,0.2-0.5,0.5-0.8,0.7c-1.4-0.1-2.6-0.5-4-0.7c0,0-0.1-0.1-0.1-0.2
				c1-0.1,2.2,0,3.2,0.1C39.4,66.8,40,66.8,40.5,66.8L40.5,66.8z"/>
		</g>
		<g id="XMLID_52_">
			<path id="XMLID_53_" class="st0" d="M38.3,67.4c0.4,0.1,0.8,0.1,1.2,0.2c-0.8,0.6-2.3,0.5-3.1-0.1c-0.2-0.2-0.5-0.3-0.7-0.6h0.1
				l0.6,0.1L38.3,67.4z"/>
		</g>
	</g>
</g>
<g class="st1">
	<path d="M41.5,101.4v-7.8h2.4c0.4,0,0.8,0,1.1,0.1c0.3,0.1,0.6,0.2,0.9,0.3s0.4,0.3,0.6,0.6c0.1,0.2,0.2,0.6,0.2,0.9
		c0,0.4-0.1,0.7-0.3,1c-0.2,0.3-0.6,0.5-1,0.7v0c0.6,0.1,1,0.3,1.3,0.6c0.3,0.3,0.5,0.7,0.5,1.3c0,0.4-0.1,0.7-0.2,1
		s-0.4,0.5-0.6,0.7c-0.3,0.2-0.6,0.3-0.9,0.4c-0.4,0.1-0.8,0.1-1.2,0.1H41.5z M42.9,96.7h0.9c0.6,0,0.9-0.1,1.2-0.3
		c0.2-0.2,0.4-0.5,0.4-0.8c0-0.4-0.1-0.6-0.4-0.8c-0.2-0.1-0.6-0.2-1.1-0.2h-0.9V96.7z M42.9,100.3H44c0.6,0,1-0.1,1.3-0.3
		c0.3-0.2,0.5-0.5,0.5-1c0-0.4-0.1-0.7-0.4-0.9s-0.7-0.3-1.3-0.3h-1.1V100.3z"/>
	<path d="M51.3,101.5c-0.5,0-0.9-0.1-1.3-0.3c-0.4-0.2-0.7-0.4-1-0.8s-0.5-0.8-0.6-1.3c-0.2-0.5-0.2-1.1-0.2-1.8
		c0-0.6,0.1-1.2,0.2-1.7c0.2-0.5,0.4-0.9,0.6-1.3c0.3-0.3,0.6-0.6,1-0.8c0.4-0.2,0.8-0.3,1.3-0.3s0.9,0.1,1.3,0.3
		c0.4,0.2,0.7,0.4,1,0.8c0.3,0.3,0.5,0.8,0.6,1.3c0.2,0.5,0.2,1.1,0.2,1.7c0,0.7-0.1,1.2-0.2,1.8c-0.2,0.5-0.4,0.9-0.6,1.3
		c-0.3,0.3-0.6,0.6-1,0.8S51.7,101.5,51.3,101.5z M51.3,100.3c0.5,0,0.9-0.2,1.2-0.8c0.3-0.5,0.4-1.2,0.4-2.1c0-0.9-0.1-1.6-0.4-2.1
		c-0.3-0.5-0.7-0.7-1.2-0.7s-0.9,0.2-1.2,0.7s-0.5,1.2-0.5,2.1c0,0.9,0.2,1.6,0.5,2.1S50.7,100.3,51.3,100.3z"/>
	<path d="M57.8,101.4v-6.7h-2.5v-1.2h6.3v1.2h-2.5v6.7H57.8z"/>
	<path d="M62.3,101.4l2.5-7.8h1.6l2.5,7.8h-1.5l-0.6-2.1h-2.6l-0.6,2.1H62.3z M64.9,97.2l-0.3,1h2l-0.3-1c-0.1-0.4-0.2-0.8-0.3-1.3
		c-0.1-0.4-0.2-0.9-0.3-1.3h0c-0.1,0.4-0.2,0.9-0.3,1.3C65.1,96.4,65,96.8,64.9,97.2z"/>
	<path d="M72.9,101.5c-0.6,0-1.1-0.1-1.6-0.3c-0.5-0.2-1-0.5-1.3-0.9l0.8-0.9c0.3,0.3,0.6,0.5,1,0.6c0.4,0.2,0.8,0.2,1.2,0.2
		c0.5,0,0.8-0.1,1-0.3c0.2-0.2,0.4-0.4,0.4-0.7c0-0.2,0-0.3-0.1-0.4c-0.1-0.1-0.2-0.2-0.3-0.3s-0.3-0.2-0.4-0.2
		c-0.2-0.1-0.3-0.1-0.5-0.2L72,97.7c-0.2-0.1-0.4-0.2-0.6-0.3c-0.2-0.1-0.4-0.3-0.5-0.4c-0.2-0.2-0.3-0.4-0.4-0.6
		c-0.1-0.2-0.1-0.5-0.1-0.8c0-0.3,0.1-0.6,0.2-0.9c0.1-0.3,0.3-0.5,0.6-0.7c0.2-0.2,0.5-0.4,0.9-0.5c0.3-0.1,0.7-0.2,1.1-0.2
		c0.5,0,0.9,0.1,1.4,0.3c0.4,0.2,0.8,0.4,1.1,0.7l-0.7,0.9c-0.3-0.2-0.5-0.4-0.8-0.5c-0.3-0.1-0.6-0.2-1-0.2c-0.4,0-0.7,0.1-0.9,0.2
		s-0.3,0.4-0.3,0.7c0,0.2,0,0.3,0.1,0.4c0.1,0.1,0.2,0.2,0.3,0.3c0.1,0.1,0.3,0.2,0.4,0.2c0.2,0.1,0.3,0.1,0.5,0.2l1,0.4
		c0.2,0.1,0.5,0.2,0.7,0.3s0.4,0.3,0.5,0.4s0.3,0.4,0.4,0.6c0.1,0.2,0.1,0.5,0.1,0.8c0,0.3-0.1,0.6-0.2,0.9
		c-0.1,0.3-0.3,0.5-0.6,0.7s-0.6,0.4-0.9,0.5C73.7,101.5,73.3,101.5,72.9,101.5z"/>
</g>
</svg>
