<?xml version="1.0" encoding="utf-8"?>
<!-- Generator: Adobe Illustrator 25.0.0, SVG Export Plug-In . SVG Version: 6.00 Build 0)  -->
<svg version="1.1" xmlns="http://www.w3.org/2000/svg" xmlns:xlink="http://www.w3.org/1999/xlink" x="0px" y="0px"
	 viewBox="0 0 283.5 149.4" style="enable-background:new 0 0 283.5 149.4;" xml:space="preserve">
<style type="text/css">
	.st0{opacity:0.9;}
	.st1{fill:#FFFFFF;stroke:#010101;stroke-miterlimit:10;}
	.st2{fill:#010101;}
	.st3{fill:#231F20;}
	.st4{fill:none;stroke:#231F20;stroke-width:2.054;stroke-miterlimit:10;}
	.st5{fill:none;stroke:#231F20;stroke-width:1.711;stroke-miterlimit:10;}
	.st6{fill:none;stroke:#231F20;stroke-width:2.054;stroke-linejoin:bevel;stroke-miterlimit:10;}
	.st7{fill:none;stroke:#231F20;stroke-width:1.972;stroke-miterlimit:10;}
	.st8{fill:#FFFFFF;}
	.st9{fill:none;stroke:#231F20;stroke-width:1.369;stroke-linecap:round;stroke-linejoin:round;stroke-miterlimit:10;}
	.st10{fill:none;stroke:#231F20;stroke-width:1.369;stroke-linejoin:bevel;stroke-miterlimit:10;}
	.st11{fill:none;stroke:#231F20;stroke-width:0.685;stroke-miterlimit:10;}
	.st12{fill:none;stroke:#231F20;stroke-width:2.054;stroke-linecap:round;stroke-linejoin:round;stroke-miterlimit:10;}
	.st13{fill:none;stroke:#231F20;stroke-width:1.972;stroke-linecap:round;stroke-linejoin:round;stroke-miterlimit:10;}
	.st14{fill:none;stroke:#231F20;stroke-width:2.029;stroke-miterlimit:10;}
	.st15{fill:#E9282A;}
	.st16{fill:none;stroke:#231F20;stroke-width:1.691;stroke-linecap:round;stroke-linejoin:round;stroke-miterlimit:10;}
	.st17{fill:none;stroke:#231F20;stroke-width:2.031;stroke-miterlimit:10;}
	.st18{fill:none;stroke:#231F20;stroke-width:2.031;stroke-linejoin:round;stroke-miterlimit:10;}
	.st19{fill:none;stroke:#FFFFFF;stroke-width:7.454;stroke-linecap:round;stroke-linejoin:round;stroke-miterlimit:10;}
	.st20{fill:none;stroke:#020202;stroke-width:2.485;stroke-linecap:round;stroke-linejoin:round;stroke-miterlimit:10;}
	.st21{fill:none;stroke:#231F20;stroke-width:1.497;stroke-miterlimit:10;}
	.st22{fill:none;stroke:#231F20;stroke-width:2.054;stroke-miterlimit:10;stroke-dasharray:1.369,1.027;}
	.st23{fill:none;stroke:#231F20;stroke-width:1.369;stroke-miterlimit:10;}
	.st24{fill:#020202;}
	.st25{fill:none;}
	.st26{clip-path:url(#SVGID_2_);fill:#231F20;}
	.st27{clip-path:url(#SVGID_4_);fill:#010101;}
	.st28{clip-path:url(#SVGID_6_);fill:#010101;}
	.st29{clip-path:url(#SVGID_6_);fill:none;stroke:#010101;stroke-width:0.432;stroke-miterlimit:10;}
	.st30{fill-rule:evenodd;clip-rule:evenodd;fill:#010101;}
	.st31{clip-path:url(#SVGID_8_);fill:#010101;}
	.st32{clip-path:url(#SVGID_10_);fill:#010101;}
	.st33{clip-path:url(#SVGID_10_);fill:#97999B;}
	.st34{clip-path:url(#SVGID_10_);fill:none;stroke:#010101;stroke-width:0.367;}
	.st35{clip-path:url(#SVGID_12_);fill:none;stroke:#010101;stroke-width:0.367;}
	.st36{fill:#95979A;}
	.st37{fill:none;stroke:#010101;stroke-width:0.367;}
	.st38{fill:#231F20;stroke:#231F20;stroke-width:1.32;stroke-miterlimit:10;}
	.st39{fill:#231F20;stroke:#231F20;stroke-width:0.9;stroke-miterlimit:10;}
	.st40{fill-rule:evenodd;clip-rule:evenodd;fill:#231F20;}
	.st41{fill:none;stroke:#010101;stroke-width:0.349;}
	.st42{clip-path:url(#SVGID_14_);fill:#010101;}
	.st43{clip-path:url(#SVGID_16_);fill:#010101;}
	.st44{clip-path:url(#SVGID_18_);fill:#010101;}
	.st45{clip-path:url(#SVGID_20_);fill:#010101;}
	.st46{clip-path:url(#SVGID_22_);fill:#010101;}
	.st47{clip-path:url(#SVGID_24_);fill:#010101;}
	.st48{clip-path:url(#SVGID_26_);fill:#010101;}
	.st49{clip-path:url(#SVGID_28_);fill:none;stroke:#010101;stroke-width:0.274;}
	.st50{clip-path:url(#SVGID_30_);fill:#010101;}
	.st51{clip-path:url(#SVGID_32_);fill:#010101;}
	.st52{clip-path:url(#SVGID_34_);fill:#010101;}
	.st53{clip-path:url(#SVGID_36_);fill:#231F20;}
	.st54{clip-path:url(#SVGID_36_);fill:#FFFFFF;}
	.st55{clip-path:url(#SVGID_36_);fill:#415364;}
	.st56{clip-path:url(#SVGID_36_);fill-rule:evenodd;clip-rule:evenodd;fill:#FFFFFF;}
	.st57{fill-rule:evenodd;clip-rule:evenodd;fill:#FFFFFF;}
	.st58{fill:none;stroke:#231F20;stroke-width:1.6532;stroke-linecap:round;stroke-linejoin:round;stroke-miterlimit:10;}
	.st59{fill:none;stroke:#231F20;stroke-width:1.9928;stroke-miterlimit:10;}
</style>
<g id="Fondo" class="st0">
</g>
<g id="Layer_1">
	<g>
		<g>
			<g>
				<path class="st3" d="M211.4,100.9c-0.2,0-0.4-0.1-0.6-0.3c-0.2-0.3-0.2-0.8,0.1-1l5.8-4.4l-5.7-4.2c-0.3-0.2-0.4-0.7-0.2-1
					c0.2-0.3,0.7-0.4,1-0.1l6.4,4.8c0.2,0.1,0.3,0.4,0.3,0.6c0,0.2-0.1,0.5-0.3,0.6l-6.6,5C211.7,100.8,211.5,100.9,211.4,100.9z"/>
			</g>
			<g>
				<path class="st3" d="M227.9,100.9c-0.2,0-0.4-0.1-0.6-0.3c-0.2-0.3-0.2-0.8,0.1-1l5.8-4.4l-5.7-4.2c-0.3-0.2-0.4-0.7-0.1-1
					c0.2-0.3,0.7-0.4,1-0.1l6.4,4.8c0.2,0.1,0.3,0.4,0.3,0.6c0,0.2-0.1,0.5-0.3,0.6l-6.6,5C228.2,100.8,228.1,100.9,227.9,100.9z"/>
			</g>
			<g>
				<path class="st3" d="M33.1,89.6h5.1l-0.6,1.5h-3.4l-1.4,3.3h2.9L35.1,96h-2.9l-1.4,3.3h3.4l-0.7,1.6h-5.1L33.1,89.6z"/>
				<path class="st3" d="M45.9,89.6h1.6l-0.2,6.8h0l2.8-6.8h1.7l-4.6,11.2h-1.6l0.2-6.8h0l-2.8,6.8h-1.7L45.9,89.6z"/>
				<path class="st3" d="M60,89.6h5.1l-0.6,1.5h-3.4l-1.4,3.3h2.9L62.1,96h-2.9l-1.4,3.3h3.4l-0.7,1.6h-5.1L60,89.6z"/>
				<path class="st3" d="M72.9,89.6h2.7c2,0,2.6,1.1,1.7,3.3c-0.3,0.7-0.6,1.2-1,1.7c-0.4,0.5-0.9,0.8-1.6,1.1l-0.3,5.1h-1.8
					l0.4-4.8h-1l-2,4.8h-1.7L72.9,89.6z M72.5,94.6h1c0.3,0,0.6,0,0.8-0.1c0.2-0.1,0.4-0.2,0.5-0.3c0.2-0.1,0.3-0.3,0.4-0.5
					c0.1-0.2,0.2-0.5,0.4-0.8c0.1-0.3,0.2-0.5,0.3-0.7c0.1-0.2,0.1-0.4,0-0.6c0-0.2-0.1-0.3-0.3-0.3c-0.2-0.1-0.4-0.1-0.7-0.1H74
					L72.5,94.6z"/>
				<path class="st3" d="M85.5,92.3c0.2-0.5,0.4-0.9,0.7-1.2c0.3-0.3,0.6-0.6,1-0.9c0.4-0.2,0.7-0.4,1.1-0.5
					c0.4-0.1,0.8-0.2,1.1-0.2c0.3,0,0.7,0.1,1,0.2c0.3,0.1,0.5,0.3,0.7,0.5c0.2,0.2,0.3,0.5,0.3,0.9c0,0.3-0.1,0.7-0.2,1.2L91,92.8
					h-1.7l0.2-0.6c0.2-0.4,0.2-0.7,0-0.9c-0.2-0.2-0.4-0.3-0.7-0.3c-0.3,0-0.6,0.1-0.9,0.3c-0.3,0.2-0.5,0.5-0.7,0.9l-2.4,5.9
					c-0.2,0.4-0.2,0.7,0,0.9c0.2,0.2,0.4,0.3,0.7,0.3c0.3,0,0.6-0.1,0.9-0.3c0.3-0.2,0.5-0.5,0.7-0.9l0.9-2.1h-1.4l0.6-1.4h3.1
					l-1.5,3.5c-0.2,0.5-0.4,0.9-0.7,1.2c-0.3,0.3-0.6,0.6-1,0.9c-0.4,0.2-0.7,0.4-1.1,0.5c-0.4,0.1-0.8,0.2-1.1,0.2
					c-0.3,0-0.7-0.1-1-0.2c-0.3-0.1-0.5-0.3-0.7-0.5c-0.2-0.2-0.3-0.5-0.3-0.9c0-0.3,0.1-0.7,0.2-1.2L85.5,92.3z"/>
				<path class="st3" d="M99.4,96.1l0.3-6.5h1.8l-0.5,4.5h0l3.2-4.5h1.8l-5,6.5l-2,4.8h-1.7L99.4,96.1z"/>
				<path class="st3" d="M127.6,92.9h-1.7l0.2-0.4c0.1-0.4,0.2-0.7,0.1-1c-0.1-0.3-0.3-0.4-0.8-0.4c-0.2,0-0.4,0-0.6,0.1
					c-0.2,0.1-0.3,0.2-0.5,0.3c-0.1,0.1-0.3,0.3-0.4,0.5c-0.1,0.2-0.2,0.4-0.3,0.5c-0.1,0.2-0.2,0.4-0.2,0.6c0,0.2-0.1,0.3,0,0.4
					c0,0.1,0.1,0.2,0.2,0.3c0.1,0.1,0.2,0.2,0.4,0.3l1.1,0.5c0.3,0.1,0.6,0.3,0.7,0.5c0.2,0.2,0.2,0.4,0.3,0.6c0,0.2,0,0.5-0.1,0.9
					c-0.1,0.3-0.2,0.7-0.4,1.1c-0.2,0.5-0.4,0.9-0.7,1.3c-0.3,0.4-0.6,0.8-0.9,1c-0.3,0.3-0.7,0.5-1.2,0.7c-0.4,0.2-0.9,0.3-1.5,0.3
					c-0.4,0-0.8-0.1-1.1-0.2c-0.3-0.1-0.5-0.3-0.7-0.6c-0.2-0.2-0.2-0.5-0.3-0.8c0-0.3,0.1-0.7,0.2-1.1l0.2-0.6h1.7l-0.2,0.5
					c-0.1,0.3-0.1,0.6-0.1,0.8c0.1,0.2,0.3,0.4,0.8,0.4c0.3,0,0.5,0,0.7-0.1c0.2-0.1,0.4-0.2,0.5-0.3c0.1-0.1,0.3-0.3,0.4-0.5
					c0.1-0.2,0.2-0.4,0.3-0.7c0.1-0.3,0.2-0.5,0.3-0.7c0.1-0.2,0.1-0.3,0-0.5c0-0.1-0.1-0.2-0.2-0.3c-0.1-0.1-0.2-0.2-0.4-0.2
					l-1-0.5c-0.6-0.3-1-0.7-1-1.1c-0.1-0.5,0.1-1.1,0.3-1.8c0.2-0.4,0.4-0.8,0.7-1.2c0.3-0.4,0.6-0.7,0.9-1c0.4-0.3,0.7-0.5,1.2-0.7
					c0.4-0.2,0.9-0.2,1.4-0.2c0.4,0,0.8,0.1,1.1,0.2c0.3,0.1,0.5,0.3,0.7,0.6c0.2,0.2,0.2,0.5,0.2,0.8c0,0.3,0,0.6-0.2,0.9
					L127.6,92.9z"/>
				<path class="st3" d="M135.8,96.1l0.3-6.5h1.8l-0.5,4.5h0l3.2-4.5h1.8l-5,6.5l-2,4.8h-1.7L135.8,96.1z"/>
				<path class="st3" d="M154.3,92.9h-1.7l0.2-0.4c0.1-0.4,0.2-0.7,0.1-1c-0.1-0.3-0.3-0.4-0.8-0.4c-0.2,0-0.4,0-0.6,0.1
					c-0.2,0.1-0.3,0.2-0.5,0.3c-0.1,0.1-0.3,0.3-0.4,0.5c-0.1,0.2-0.2,0.4-0.3,0.5c-0.1,0.2-0.2,0.4-0.2,0.6c0,0.2-0.1,0.3,0,0.4
					c0,0.1,0.1,0.2,0.2,0.3c0.1,0.1,0.2,0.2,0.4,0.3l1.1,0.5c0.3,0.1,0.6,0.3,0.7,0.5c0.2,0.2,0.2,0.4,0.3,0.6c0,0.2,0,0.5-0.1,0.9
					c-0.1,0.3-0.2,0.7-0.4,1.1c-0.2,0.5-0.4,0.9-0.7,1.3c-0.3,0.4-0.6,0.8-0.9,1c-0.3,0.3-0.7,0.5-1.2,0.7c-0.4,0.2-0.9,0.3-1.5,0.3
					c-0.4,0-0.8-0.1-1.1-0.2c-0.3-0.1-0.5-0.3-0.7-0.6c-0.2-0.2-0.2-0.5-0.3-0.8c0-0.3,0.1-0.7,0.2-1.1l0.2-0.6h1.7l-0.2,0.5
					c-0.1,0.3-0.1,0.6-0.1,0.8c0.1,0.2,0.3,0.4,0.8,0.4c0.3,0,0.5,0,0.7-0.1c0.2-0.1,0.4-0.2,0.5-0.3c0.1-0.1,0.3-0.3,0.4-0.5
					c0.1-0.2,0.2-0.4,0.3-0.7c0.1-0.3,0.2-0.5,0.3-0.7c0.1-0.2,0.1-0.3,0-0.5c0-0.1-0.1-0.2-0.2-0.3c-0.1-0.1-0.2-0.2-0.4-0.2
					l-1-0.5c-0.6-0.3-1-0.7-1-1.1c-0.1-0.5,0.1-1.1,0.3-1.8c0.2-0.4,0.4-0.8,0.7-1.2c0.3-0.4,0.6-0.7,0.9-1c0.4-0.3,0.7-0.5,1.2-0.7
					c0.4-0.2,0.9-0.2,1.4-0.2c0.4,0,0.8,0.1,1.1,0.2c0.3,0.1,0.5,0.3,0.7,0.6c0.2,0.2,0.2,0.5,0.2,0.8c0,0.3,0,0.6-0.2,0.9
					L154.3,92.9z"/>
				<path class="st3" d="M164,91.1h-2l0.6-1.5h5.6l-0.6,1.5h-2l-4,9.7h-1.7L164,91.1z"/>
				<path class="st3" d="M175.8,89.6h5.1l-0.6,1.5h-3.4l-1.4,3.3h2.9l-0.6,1.5h-2.9l-1.4,3.3h3.4l-0.7,1.6h-5.1L175.8,89.6z"/>
				<path class="st3" d="M188.6,89.6h1.6l-0.3,5.9h0l4.6-5.9h1.7l-4.6,11.2H190l2.8-6.8h0l-3.7,4.8h-0.9l0.3-4.8h0l-2.8,6.8H184
					L188.6,89.6z"/>
			</g>
			<path class="st3" d="M89.5,55.1c-0.3,1.8-1.1,4.7-1.7,6.2c-1.3,3.2-3.2,4.2-7.5,4.2H68.5c-0.7,2.1-1,3.6-1.2,4.8
				c-0.6,3.5,0.8,4.4,6.9,4.4c3.6,0,7-0.2,9.2-0.6l0.3,0.4l-0.3,1.3c-0.7,2.4-3.3,3.2-11.4,3.2c-9.3,0-11.8-1.3-10.7-7.9
				c0.6-3.8,3.4-13.5,5.6-17.2c2.6-4.5,6-5,13.3-5C87.9,48.8,90.4,49.7,89.5,55.1z M69.6,61.5h9.3c1.9,0,3-0.4,3.5-1.8
				c0.4-1.1,0.7-2.3,0.9-3.5c0.5-2.8-0.7-3.2-4.9-3.2C72.6,53.1,72,53.8,69.6,61.5z"/>
			<path class="st3" d="M112.2,53.7c-6.8,0-10.2,0.3-11.5,4.6l-6,20.2h-5.8l8.6-29l0.6-0.4h2.5c1.7,0,2.3,0.4,1.8,3.1
				c2.5-2.9,4.7-3.4,10.8-3.4l0.3,0.4L112.2,53.7z"/>
			<path class="st3" d="M140.1,56.9c-0.6,3.4-3.2,12.3-5,15.8c-2.7,5.1-6.2,6.2-14.3,6.2c-9,0-11.6-1.4-10.4-8.2
				c0.6-3.6,3.2-12.8,5.4-16.5c2.7-4.5,6.2-5.5,13.9-5.5C138.7,48.8,141.2,50.2,140.1,56.9z M120.9,56.2c-1.5,2.5-4,11.1-4.4,13.6
				c-0.7,4.2,0.9,4.6,5.6,4.6c4.4,0,6.2-0.4,7.9-3.6c1.3-2.6,3.6-10.5,4-13c0.7-4.2-0.8-4.6-5.6-4.6
				C124.4,53.2,122.5,53.6,120.9,56.2z"/>
			<path class="st3" d="M169.3,50.5c0,0.3-0.3,0.8-0.3,0.8l-0.1,0.4l-0.5,0.3c-2.2-0.4-4.5-0.5-7.7-0.5c-5.2,0-7.5,0.1-9.6,4.1
				c-1.6,2.9-4.3,12.1-4.8,15.1c-0.8,5.1,1.1,5.5,7.1,5.5c3.6,0,6.3-0.2,8.4-0.6l0.3,0.2l-0.3,0.8c-0.4,1.6-3,2.3-9.9,2.3
				c-8.2,0-10.3-1.6-9.3-7.4c0.6-3.6,3.4-13.1,5.3-16.6c2.9-5.7,6.2-6.1,13.2-6.1C166.5,48.8,169.5,49.2,169.3,50.5z"/>
			<path class="st3" d="M195.4,56.6c-0.6,3.4-3.3,12.8-5.1,16.2c-2.6,4.9-5.9,6.1-13.3,6.1c-8.3,0-10.7-1.4-9.6-7.9
				c0.6-3.6,3.2-13.1,5.4-16.8c2.5-4.4,5.9-5.4,13-5.4C194.1,48.8,196.5,50.2,195.4,56.6z M175.8,55.4c-1.6,2.9-4.3,12.2-4.8,15.2
				c-0.8,5.1,1,5.6,6.7,5.6c5.2,0,7.5-0.5,9.4-4.3c1.7-3.1,4.1-11.6,4.6-14.6c0.8-5.1-1.1-5.6-6.7-5.6C180,51.6,177.7,52,175.8,55.4
				z"/>
			<path class="st3" d="M216.3,51.7c-6.4,0-10.2,0.4-11.7,5.1l-6.4,21.8h-3.4l8.6-29.1l0.5-0.3h1.2c1.3,0,1.5,0.2,0.9,2.8
				c2.6-2.7,4.6-3.2,10.9-3.2l0.3,0.3L216.3,51.7z"/>
			<path class="st3" d="M240,54.9c-0.3,1.7-1.1,4.6-1.7,5.8c-1.5,3.2-3.8,3.8-7.3,3.8h-12.5c-0.8,2.9-1.3,4.8-1.6,6.3
				c-0.7,4.3,0.8,5.5,7.6,5.5c3.7,0,6.9-0.2,9.1-0.6l0.2,0.3l-0.2,0.9c-0.5,1.5-3.1,2.1-10.3,2.1c-8.5,0-10.8-1.4-9.8-7.6
				c0.6-3.8,3.4-13.6,5.6-17.5c2.6-4.5,5.7-5,12.4-5C238.2,48.8,240.9,49.7,240,54.9z M219.2,62h11.6c2.4,0,3.7-0.5,4.3-2.1
				c0.6-1.2,1-2.9,1.2-4.4c0.6-3.5-0.8-4-6.1-4C223.2,51.5,222.1,52.4,219.2,62z"/>
		</g>
		<g>
			<path class="st40" d="M54.3,76.4c-4,1.9-9.7,2.7-15.4,2.7c-4,0-7.3-1-8.3-3.6c-1.2-3.3,0.6-9.1,2.7-11.3
				c3.9-4.2,11.8-3.3,19.1-3.3c1.1-2.6,1.5-5.8-0.1-7c-3.1-2.1-10.5,0.3-13.8,1.1c-0.3-1.4-0.4-2.8-0.5-4.3
				c3.6-0.9,7.1-1.9,11.1-2.2c6.6-0.4,11.3,1.7,11,7.5c-0.1,1.6-0.7,3.4-1.3,5.3C57.4,66,55.6,72.1,54.3,76.4z M38.1,66.7
				c-0.8,1-1.4,3.1-1.5,4.3c-0.2,2.2,0.8,3.4,2.8,3.6c3,0.3,7.2-0.4,9.2-1.4c0.9-2.9,2-6.1,2.6-8.8C46.2,64.8,40.8,63.5,38.1,66.7z"
				/>
		</g>
		<path class="st3" d="M246.7,50.1v5.5h-0.9v-5.5h-1.7v-0.8h4.3v0.8H246.7z M254.2,55.6V51l-1.5,3h-0.8l-1.5-3v4.5h-0.9v-6.3h0.9
			l1.9,3.8l1.9-3.8h0.8v6.3H254.2z"/>
	</g>
</g>
</svg>
