<svg xmlns="http://www.w3.org/2000/svg" viewBox="0 0 283.46 149.39"><defs><style>.cls-1{opacity:0.9;}.cls-2{fill:#232020;}.cls-3{fill:#020202;}</style></defs><g id="Layer_1" data-name="Layer 1"><path class="cls-2" d="M17.53,67.62c0-.68.37-.83.83-.83h3.08c3.62,0,5.27,1.18,5.27,4.11a3.36,3.36,0,0,1-2.05,3.35v0a3.54,3.54,0,0,1,2.42,3.76c0,3.66-2.35,4.54-5.44,4.54H18.36c-.46,0-.83-.15-.83-.84Zm4,5.73c1.35,0,2.54-.49,2.54-2.23s-1.26-2-2.54-2H20.08v4.23Zm.27,6.91c1.83,0,2.62-.63,2.62-2.35s-.88-2.42-2.6-2.42H20.08v4.77Z"/><path class="cls-2" d="M33.75,67.62c0-.68.37-.83.83-.83H41c.69,0,.84.37.84.83v.71c0,.46-.15.83-.84.83H36.37v4.12H39.6c.69,0,.84.38.84.84v.62c0,.46-.15.83-.84.83H36.37v4.65h4.91c.68,0,.84.38.84.84v.7c0,.47-.16.84-.84.84h-6.7c-.46,0-.83-.15-.83-.84Z"/><path class="cls-2" d="M50.63,69.16H48.2c-.68,0-.83-.37-.83-.83v-.71c0-.46.15-.84.83-.84h7.45c.68,0,.84.38.84.84v.71c0,.46-.16.83-.84.83H53.23v12.6c0,.69-.38.84-.84.84h-.93c-.46,0-.83-.15-.83-.84Z"/><path class="cls-2" d="M65,69.16H62.62c-.69,0-.84-.37-.84-.83v-.71c0-.46.15-.84.84-.84h7.44c.68,0,.84.38.84.84v.71c0,.46-.16.83-.84.83H67.64v12.6c0,.69-.38.84-.84.84h-.93c-.46,0-.83-.15-.83-.84Z"/><path class="cls-2" d="M77,67.62c0-.68.37-.83.83-.83h6.42c.68,0,.83.37.83.83v.71c0,.46-.15.83-.83.83H79.65v4.12h3.24c.68,0,.83.38.83.84v.62c0,.46-.15.83-.83.83H79.65v4.65h4.91c.68,0,.84.38.84.84v.7c0,.47-.16.84-.84.84h-6.7c-.46,0-.83-.15-.83-.84Z"/><path class="cls-2" d="M91.71,67.62c0-.68.37-.83.83-.83h3.35c3.39,0,5,1.29,5,4.38A3.85,3.85,0,0,1,98.69,75l2.46,6.79c.27.72-.15.79-.55.79H99.22c-.49,0-.73-.33-.91-.79l-2-5.73h-2v5.68c0,.69-.38.84-.84.84h-.95c-.46,0-.83-.15-.83-.84Zm4.11,6.24a2.15,2.15,0,0,0,2.43-2.45c0-2.22-1.26-2.36-2.45-2.36H94.33v4.81Z"/><path class="cls-2" d="M167.42,67.62c0-.68.37-.83.83-.83h.95c.46,0,.84.15.84.83v12.6h4.45c.68,0,.83.38.83.84v.7c0,.47-.15.84-.83.84h-6.24c-.46,0-.83-.15-.83-.84Z"/><path class="cls-2" d="M181.3,67.62c0-.68.37-.83.84-.83h6.41c.68,0,.83.37.83.83v.71c0,.46-.15.83-.83.83h-4.63v4.12h3.24c.68,0,.84.38.84.84v.62c0,.46-.16.83-.84.83h-3.24v4.65h4.91c.69,0,.84.38.84.84v.7c0,.47-.15.84-.84.84h-6.69c-.47,0-.84-.15-.84-.84Z"/><path class="cls-2" d="M198.27,67.6c.09-.68.55-.81,1-.81h1.83a.9.9,0,0,1,1,.81l3.3,14.18c.15.64-.22.82-.64.82h-1.23c-.49,0-.69-.35-.8-.84l-.66-3.21h-3.79l-.63,3.21c-.11.49-.31.84-.8.84h-1.19a.61.61,0,0,1-.66-.82Zm3.39,8.63-1.41-6.89h-.06l-1.39,6.89Z"/><path class="cls-2" d="M212.84,69.16h-2.43c-.68,0-.83-.37-.83-.83v-.71c0-.46.15-.84.83-.84h7.45c.68,0,.83.38.83.84v.71c0,.46-.15.83-.83.83h-2.43v12.6c0,.69-.37.84-.83.84h-.93c-.46,0-.83-.15-.83-.84Z"/><path class="cls-2" d="M224.83,67.62c0-.68.37-.83.83-.83h1c.46,0,.84.15.84.83v5.62h4.49V67.62c0-.68.37-.83.84-.83h.9c.46,0,.84.15.84.83V81.76c0,.69-.38.84-.84.84h-.9c-.47,0-.84-.15-.84-.84V75.6h-4.49v6.16c0,.69-.38.84-.84.84h-1c-.46,0-.83-.15-.83-.84Z"/><path class="cls-2" d="M241.73,67.62c0-.68.38-.83.84-.83H249c.68,0,.83.37.83.83v.71c0,.46-.15.83-.83.83h-4.63v4.12h3.24c.68,0,.84.38.84.84v.62c0,.46-.16.83-.84.83h-3.24v4.65h4.91c.69,0,.84.38.84.84v.7c0,.47-.15.84-.84.84h-6.69c-.46,0-.84-.15-.84-.84Z"/><path class="cls-2" d="M256.41,67.62c0-.68.37-.83.83-.83h3.35c3.39,0,5,1.29,5,4.38A3.85,3.85,0,0,1,263.39,75l2.47,6.79c.26.72-.16.79-.55.79h-1.39c-.49,0-.73-.33-.91-.79l-2-5.73h-2v5.68c0,.69-.38.84-.84.84h-.95c-.46,0-.83-.15-.83-.84Zm4.11,6.24A2.15,2.15,0,0,0,263,71.41c0-2.22-1.26-2.36-2.45-2.36H259v4.81Z"/><path class="cls-3" d="M134.35,107.43a1.67,1.67,0,0,1-1.44-.84s-3.21-5.54-7.31-6a18.09,18.09,0,0,0-2.07-.12,14.4,14.4,0,0,0-8.12,2.24,1.66,1.66,0,0,1-2.29-.29l-6.29-8a1.67,1.67,0,0,1,.39-2.41c.09-.06,9.6-6.47,9.41-16.24-.21-11-8.53-12.59-8.61-12.6a1.69,1.69,0,0,1-1.12-.75,1.75,1.75,0,0,1-.19-1.34l2.47-8.6a1.65,1.65,0,0,1,1.58-1.2c12.73,0,14.67-8,14.69-8.06A1.65,1.65,0,0,1,127.06,42h14.58a1.65,1.65,0,0,1,1.61,1.29c.08.32,2.09,8.06,14.69,8.06a1.65,1.65,0,0,1,1.58,1.2l2.46,8.6a1.66,1.66,0,0,1-1.3,2.09c-.34.06-8.4,1.68-8.61,12.6-.19,9.77,9.32,16.18,9.41,16.25a1.62,1.62,0,0,1,.72,1.11,1.69,1.69,0,0,1-.33,1.29l-6.29,8a1.65,1.65,0,0,1-2.29.29,14.68,14.68,0,0,0-8.12-2.24,18.09,18.09,0,0,0-2.07.12c-3.43.4-6.44,4.48-7.31,6a1.66,1.66,0,0,1-1.44.84M123.53,97.14a20.26,20.26,0,0,1,2.45.15c3.77.44,6.73,3.45,8.37,5.57,1.64-2.12,4.6-5.13,8.37-5.57a20.26,20.26,0,0,1,2.45-.15,18.8,18.8,0,0,1,8.72,2.07l4.33-5.48c-3-2.43-9.63-8.82-9.45-18,.2-10.32,6.46-14,9.59-15.26l-1.68-5.88c-11.27-.42-15.08-6.58-16.22-9.33H128.24c-1.14,2.75-5,8.91-16.22,9.33l-1.69,5.88c3.14,1.22,9.4,4.94,9.6,15.26.18,9.18-6.44,15.57-9.45,18l4.33,5.48a18.84,18.84,0,0,1,8.72-2.07"/></g></svg>