<?xml version="1.0" encoding="utf-8"?>
<!-- Generator: Adobe Illustrator 25.0.0, SVG Export Plug-In . SVG Version: 6.00 Build 0)  -->
<svg version="1.1" xmlns="http://www.w3.org/2000/svg" xmlns:xlink="http://www.w3.org/1999/xlink" x="0px" y="0px"
	 viewBox="0 0 283.5 149.4" style="enable-background:new 0 0 283.5 149.4;" xml:space="preserve">
<style type="text/css">
	.st0{opacity:0.9;}
	.st1{fill:#FFFFFF;stroke:#010101;stroke-miterlimit:10;}
	.st2{fill:#010101;}
	.st3{fill:#231F20;}
	.st4{fill:none;stroke:#231F20;stroke-width:2.054;stroke-miterlimit:10;}
	.st5{fill:none;stroke:#231F20;stroke-width:1.711;stroke-miterlimit:10;}
	.st6{fill:none;stroke:#231F20;stroke-width:2.054;stroke-linejoin:bevel;stroke-miterlimit:10;}
	.st7{fill:none;stroke:#231F20;stroke-width:1.972;stroke-miterlimit:10;}
	.st8{fill:#FFFFFF;}
	.st9{fill:none;stroke:#231F20;stroke-width:1.369;stroke-linecap:round;stroke-linejoin:round;stroke-miterlimit:10;}
	.st10{fill:none;stroke:#231F20;stroke-width:1.369;stroke-linejoin:bevel;stroke-miterlimit:10;}
	.st11{fill:none;stroke:#231F20;stroke-width:0.685;stroke-miterlimit:10;}
	.st12{fill:none;stroke:#231F20;stroke-width:2.054;stroke-linecap:round;stroke-linejoin:round;stroke-miterlimit:10;}
	.st13{fill:none;stroke:#231F20;stroke-width:1.972;stroke-linecap:round;stroke-linejoin:round;stroke-miterlimit:10;}
	.st14{fill:none;stroke:#231F20;stroke-width:2.029;stroke-miterlimit:10;}
	.st15{fill:#E9282A;}
	.st16{fill:none;stroke:#231F20;stroke-width:1.691;stroke-linecap:round;stroke-linejoin:round;stroke-miterlimit:10;}
	.st17{fill:none;stroke:#231F20;stroke-width:2.031;stroke-miterlimit:10;}
	.st18{fill:none;stroke:#231F20;stroke-width:2.031;stroke-linejoin:round;stroke-miterlimit:10;}
	.st19{fill:none;stroke:#FFFFFF;stroke-width:7.454;stroke-linecap:round;stroke-linejoin:round;stroke-miterlimit:10;}
	.st20{fill:none;stroke:#020202;stroke-width:2.485;stroke-linecap:round;stroke-linejoin:round;stroke-miterlimit:10;}
	.st21{fill:none;stroke:#231F20;stroke-width:1.497;stroke-miterlimit:10;}
	.st22{fill:none;stroke:#231F20;stroke-width:2.054;stroke-miterlimit:10;stroke-dasharray:1.369,1.027;}
	.st23{fill:none;stroke:#231F20;stroke-width:1.369;stroke-miterlimit:10;}
	.st24{fill:#020202;}
	.st25{fill:none;}
	.st26{clip-path:url(#SVGID_2_);fill:#231F20;}
	.st27{clip-path:url(#SVGID_4_);fill:#010101;}
	.st28{clip-path:url(#SVGID_6_);fill:#010101;}
	.st29{clip-path:url(#SVGID_6_);fill:none;stroke:#010101;stroke-width:0.432;stroke-miterlimit:10;}
	.st30{fill-rule:evenodd;clip-rule:evenodd;fill:#010101;}
	.st31{clip-path:url(#SVGID_8_);fill:#010101;}
	.st32{clip-path:url(#SVGID_10_);fill:#010101;}
	.st33{clip-path:url(#SVGID_10_);fill:#97999B;}
	.st34{clip-path:url(#SVGID_10_);fill:none;stroke:#010101;stroke-width:0.367;}
	.st35{clip-path:url(#SVGID_12_);fill:none;stroke:#010101;stroke-width:0.367;}
	.st36{fill:#95979A;}
	.st37{fill:none;stroke:#010101;stroke-width:0.367;}
	.st38{fill:#231F20;stroke:#231F20;stroke-width:1.32;stroke-miterlimit:10;}
	.st39{fill:#231F20;stroke:#231F20;stroke-width:0.9;stroke-miterlimit:10;}
	.st40{fill-rule:evenodd;clip-rule:evenodd;fill:#231F20;}
	.st41{fill:none;stroke:#010101;stroke-width:0.349;}
	.st42{clip-path:url(#SVGID_14_);fill:#010101;}
	.st43{clip-path:url(#SVGID_16_);fill:#010101;}
	.st44{clip-path:url(#SVGID_18_);fill:#010101;}
	.st45{clip-path:url(#SVGID_20_);fill:#010101;}
	.st46{clip-path:url(#SVGID_22_);fill:#010101;}
	.st47{clip-path:url(#SVGID_24_);fill:#010101;}
	.st48{clip-path:url(#SVGID_26_);fill:#010101;}
	.st49{clip-path:url(#SVGID_28_);fill:none;stroke:#010101;stroke-width:0.274;}
	.st50{clip-path:url(#SVGID_30_);fill:#010101;}
	.st51{clip-path:url(#SVGID_32_);fill:#010101;}
	.st52{clip-path:url(#SVGID_34_);fill:#010101;}
	.st53{clip-path:url(#SVGID_36_);fill:#231F20;}
	.st54{clip-path:url(#SVGID_36_);fill:#FFFFFF;}
	.st55{clip-path:url(#SVGID_36_);fill:#415364;}
	.st56{clip-path:url(#SVGID_36_);fill-rule:evenodd;clip-rule:evenodd;fill:#FFFFFF;}
	.st57{fill-rule:evenodd;clip-rule:evenodd;fill:#FFFFFF;}
	.st58{fill:none;stroke:#231F20;stroke-width:1.6532;stroke-linecap:round;stroke-linejoin:round;stroke-miterlimit:10;}
	.st59{fill:none;stroke:#231F20;stroke-width:1.9928;stroke-miterlimit:10;}
</style>
<g id="Fondo" class="st0">
</g>
<g id="Layer_1">
	<g>
		<defs>
			<rect id="SVGID_1_" x="26.3" y="49.7" width="231" height="49.9"/>
		</defs>
		<clipPath id="SVGID_2_">
			<use xlink:href="#SVGID_1_"  style="overflow:visible;"/>
		</clipPath>
		<path class="st26" d="M239.3,99.4h1.1v-15c0-0.7-0.1-1.6-0.1-1.6s0.6,0.9,1,1.6l6.7,8.7h0.3l6.7-8.7c0.5-0.6,1-1.6,1-1.6
			s-0.1,1-0.1,1.6v15h1.1V80.3h-0.3l-8.7,11.3l-8.7-11.3h-0.3V99.4z M223.9,99.4h11.6v-1h-10.4v-5.8h9v-1h-9V81.5h10v-1h-11.2V99.4z
			 M213.3,99.4h1.2V81.5h6.1v-1h-13.4v1h6.1V99.4z M199.7,99.7c3.3,0,5.7-1.9,5.7-4.8c0-2.6-1.5-4.2-4.6-5.6l-1.8-0.8
			c-2.4-1.1-3.3-2-3.3-3.9c0-1.9,1.3-3.2,3.6-3.2c2.1,0,3.2,1.1,4,2.3l0.9-0.6c-0.9-1.4-2.3-2.7-4.9-2.7c-2.6,0-4.7,1.6-4.7,4.2
			c0,2.4,1.3,3.7,4,4.9l1.8,0.8c2.7,1.2,3.9,2.4,3.9,4.6c0,2.4-2.1,3.8-4.6,3.8c-3.1,0-4.5-1.6-5.4-3.3l-1,0.5
			C194.2,97.8,196.1,99.7,199.7,99.7 M183.5,99.4h1.2v-5.9l7.3-13.1h-1.2l-6.1,11c-0.3,0.4-0.5,1.1-0.5,1.1s-0.2-0.7-0.5-1.1
			l-6.1-11h-1.3l7.3,13V99.4z M168.8,99.7c3.3,0,5.7-1.9,5.7-4.8c0-2.6-1.5-4.2-4.6-5.6l-1.8-0.8c-2.4-1.1-3.3-2-3.3-3.9
			c0-1.9,1.3-3.2,3.6-3.2c2.1,0,3.2,1.1,4,2.3l0.9-0.6c-0.9-1.4-2.3-2.7-4.9-2.7c-2.6,0-4.7,1.6-4.7,4.2c0,2.4,1.3,3.7,4,4.9
			l1.8,0.8c2.7,1.2,3.9,2.4,3.9,4.6c0,2.4-2.1,3.8-4.6,3.8c-3.1,0-4.5-1.6-5.4-3.3l-1,0.5C163.3,97.8,165.1,99.7,168.8,99.7
			 M142,99.7c3.7,0,6.1-1.3,7.7-2.8V91h-7.3v1h6.2v4.4c-1.3,1.2-3.3,2.2-6.5,2.2c-5,0-8.7-3.7-8.7-8.7c0-5,3.7-8.7,8.7-8.7
			c2.4,0,4.4,0.7,5.8,2.1l0.8-0.8c-1.5-1.6-3.9-2.4-6.5-2.4c-5.5,0-9.9,3.9-9.9,9.7C132.2,95.7,136.6,99.7,142,99.7 M127.5,99.7h0.3
			V80.5h-1.1v15.3c0,0.6,0.1,1.4,0.1,1.4s-0.5-0.8-0.9-1.3l-12.3-15.7h-0.3v19.2h1.1V84.1c0-0.6-0.1-1.4-0.1-1.4s0.5,0.8,0.9,1.2
			L127.5,99.7z M106.7,99.4h1.2V80.5h-1.2V99.4z M91.6,93.3V81.5h2.6c4.9,0,6.6,2.8,6.6,5.9c0,3.1-1.7,5.9-6.6,5.9H91.6z M97.9,93.7
			c2.8-1.1,4.1-3.5,4.1-6.3c0-3.8-2.5-6.9-7.6-6.9h-3.9v18.9h1.2v-5.2h2.7c0.9,0,1.7-0.1,2.4-0.2l4,5.4h1.4L97.9,93.7z M75.1,99.4
			h11.6v-1H76.3v-5.8h9v-1h-9V81.5h10v-1H75.1V99.4z M63.1,99.4h1.2v-5.9l7.3-13.1h-1.2l-6.1,11c-0.3,0.4-0.5,1.1-0.5,1.1
			s-0.2-0.7-0.4-1.1l-6.1-11h-1.3l7.2,13V99.4z M43.4,94.8L47.8,84c0.3-0.7,0.6-1.7,0.6-1.7s0.3,1.1,0.6,1.7l4.3,10.8H43.4z
			 M40.4,99.4h1.2l1.5-3.7h10.6l1.5,3.7h1.2l-7.8-19.2h-0.3L40.4,99.4z M27.3,99.4h10.4v-1h-9.2V80.5h-1.2V99.4z"/>
		<path class="st26" d="M240,74.3h16.1V71h-12.3v-5h10.4v-3.2h-10.4v-9.4h11.8V50H240V74.3z M219.2,74.3h15.2V71H223V50h-3.8V74.3z
			 M198.9,71v-8.3h5.3c3,0,4.6,1.7,4.6,4.1c0,2.4-1.4,4.1-4.4,4.1H198.9z M198.9,59.5v-6.1h4.8c2.4,0,3.4,1.2,3.4,3.1
			c0,1.8-1.1,3.1-3.4,3.1H198.9z M195.1,74.3h9.6c5.2,0,8-3.1,8-7.3c0-3.1-1.7-5.4-5-6.2c2.1-0.7,3.3-2.4,3.3-4.7
			c0-3.4-2.3-6.1-6.9-6.1h-8.9V74.3z M183.3,74.3h3.8V50h-3.8V74.3z M166.6,74.3h3.8V53.4h7.3V50h-18.4v3.3h7.3V74.3z M143.2,67.7
			l3.1-7.6c0.6-1.4,1.2-3.6,1.2-3.6s0.6,2.2,1.2,3.6l3.1,7.6H143.2z M136.8,74.3h3.7l1.4-3.4h11.2l1.4,3.4h4l-10.8-24.5h-0.4
			L136.8,74.3z M121.4,65.2V53.4h2.2c4.8,0,6.8,2.2,6.8,5.9c0,3.7-1.9,5.9-6.8,5.9H121.4z M117.5,74.3h3.8v-5.8h2.3
			c6.8,0,10.6-3.6,10.6-9.2c0-5.6-3.8-9.2-10.6-9.2h-6.2V74.3z M85.4,74.3H89V61.7c0-1.3-0.1-3.5-0.1-3.5s1.2,1.8,2.2,2.9l6.2,7.3
			h0.4l6.2-7.3c1-1.1,2.2-2.9,2.2-2.9s-0.1,2.1-0.1,3.5v12.6h3.7V49.8h-0.4L97.5,63.4L85.8,49.8h-0.4V74.3z M66,71.2
			c-5.1,0-8.8-3.9-8.8-9.1s3.7-9.1,8.8-9.1c5.1,0,8.7,3.9,8.7,9.1S71.1,71.2,66,71.2 M66,74.6c7,0,12.6-5.2,12.6-12.4
			c0-7.2-5.6-12.4-12.6-12.4c-7,0-12.7,5.2-12.7,12.4C53.3,69.4,59,74.6,66,74.6 M38.9,74.6c4.6,0,8.1-2,10.2-5.2l-2.9-2
			c-1.6,2.3-3.9,3.8-7.3,3.8c-5.1,0-8.7-3.9-8.7-9.1s3.6-9,8.7-9c3.2,0,5.5,1.4,6.9,3.5l2.9-2.1c-2.2-3.2-5.4-4.8-9.8-4.8
			c-7,0-12.6,5.2-12.6,12.4C26.3,69.4,31.9,74.6,38.9,74.6"/>
	</g>
</g>
</svg>
