<?xml version="1.0" encoding="utf-8"?>
<!-- Generator: Adobe Illustrator 22.1.0, SVG Export Plug-In . SVG Version: 6.00 Build 0)  -->
<svg version="1.1" id="Icons" xmlns="http://www.w3.org/2000/svg" xmlns:xlink="http://www.w3.org/1999/xlink" x="0px" y="0px"
	 viewBox="0 0 48 46.1" style="enable-background:new 0 0 48 46.1;" xml:space="preserve">
<style type="text/css">
	.st0{fill:none;stroke:#000000;stroke-width:2;stroke-linecap:round;stroke-miterlimit:6;}
</style>
<title>Icon_Recycled_white</title>
<path class="st0" d="M24.2,6.8"/>
<path class="st0" d="M37.9,31.1l-6.2-10.5l9.8-5.8l4.7,8c1.6,2.6,0.8,6-1.8,7.6c-0.9,0.5-1.9,0.8-2.9,0.8H30.1v-1.5l-5.9,6.8
	l5.9,6.8V42h5.1c1.7,0,3.2-0.9,4.1-2.3L46.5,28"/>
<path class="st0" d="M9.6,30.8h12.2v11.4h-9.2c-3,0.1-5.6-2.4-5.6-5.4c0-1,0.2-2,0.8-2.9l0,0l5.8-9.8l1.2,0.7l-2.9-8.5L3,17.8
	l1.3,0.8L1.7,23c-0.9,1.4-0.9,3.2-0.1,4.7l6.3,12.1"/>
<path class="st0" d="M23.9,6.7l-5.3,10.2L8.6,11.6l3.9-7.5c1.3-2.7,4.6-3.9,7.4-2.5c0.9,0.5,1.7,1.2,2.3,2l0,0l6,9.7L26.9,14
	l8.9,1.4l2.7-8.6l-1.2,0.8l-2.7-4.4C33.7,1.8,32.1,1,30.4,1h-13"/>
</svg>
