<svg xmlns="http://www.w3.org/2000/svg" viewBox="0 0 283.46 149.39"><defs><style>.cls-1{opacity:0.9;}.cls-2{fill:#231f20;}.cls-3{fill:none;stroke:#231f20;stroke-width:0.27px;}</style></defs><g id="Layer_1" data-name="Layer 1"><path class="cls-2" d="M82.64,52.06c4.69,0,8.53,3.1,8.53,6.49,0,4.23-3.84,7.32-8.53,7.32s-8.55-3.09-8.55-7.32c0-3.39,3.85-6.49,8.55-6.49m0-6.19c-8.7,0-16.72,5.22-16.72,12.64,0,7.95,7,13.55,16.72,13.55s16.72-5.6,16.72-13.55c0-7.42-8-12.64-16.72-12.64"/><path class="cls-2" d="M62.92,54.92a9.1,9.1,0,0,0-6.78-2.72c-4.74,0-7.93,3-7.93,6.83s3.24,6.7,8,6.7a9.72,9.72,0,0,0,6.66-2.61V70.8a26.09,26.09,0,0,1-6.82,1.14,18.56,18.56,0,0,1-11.16-3.63A11.16,11.16,0,0,1,40.16,59a11.88,11.88,0,0,1,4.38-9,17.92,17.92,0,0,1,11.32-4,21.28,21.28,0,0,1,7.06,1.25Z"/><path class="cls-2" d="M136.71,53.29h1.82c5,0,8.47,2.39,8.47,6.61,0,4.61-3.94,6.61-8.55,6.61h-1.74ZM129,71.71h11c8.24,0,15.09-5.17,15.09-11.81S148.22,48.1,140,48.1H129Z"/><path class="cls-2" d="M183.63,47.77V61.06c0,3-.16,6-3.06,8.35-2.44,1.94-6.27,2.63-9.68,2.63s-7.24-.69-9.68-2.63c-2.91-2.3-3.06-5.31-3.06-8.35V47.77h7.59V60.22c0,3.07.27,6.42,5.15,6.42S176,63.29,176,60.22V47.77Z"/><path class="cls-2" d="M196.26,52.53H197c2.51,0,5.34.38,5.34,3s-2.83,3-5.34,3h-.75Zm7.62,9.31c4.21-.6,6.49-3.44,6.49-6.72,0-5.09-4.44-7.33-10.3-7.33H188.56V71.6h7.7V62.44h.08l11.58,15.18h9.59Z"/><path class="cls-2" d="M230.82,62.91h-6.36l3.16-7.52h.08Zm2.07,4.7,1.92,4.1H243L231.88,48.1h-8.37L212.18,71.71h8.13l2-4.1Z"/><path class="cls-2" d="M240.36,51h.44l.69,1.12h.43L241.19,51a.66.66,0,0,0,.66-.71c0-.51-.29-.73-.9-.73h-1v2.58h.4Zm0-.33v-.8h.53c.27,0,.56.06.56.38s-.3.42-.63.42Z"/><path class="cls-3" d="M243.14,50.74a2.35,2.35,0,1,1-2.35-2.35A2.34,2.34,0,0,1,243.14,50.74Z"/><path class="cls-2" d="M109.76,52.53h.74c2.52,0,5.35.38,5.35,3s-2.83,3-5.35,3h-.74Zm7.62,9.31c4.21-.6,6.49-3.44,6.49-6.72,0-5.08-4.44-7.32-10.3-7.32H102.06V71.6h7.7V62.44h.08l11.58,15.18H131Z"/><path class="cls-2" d="M219,77.91a8.55,8.55,0,0,1,1.43-.11,2.49,2.49,0,0,1,1.54.35,1.13,1.13,0,0,1,.56,1,1.25,1.25,0,0,1-.89,1.17h0a1.36,1.36,0,0,1,1.09,1.34,1.39,1.39,0,0,1-.52,1.11,3,3,0,0,1-2,.51,9.53,9.53,0,0,1-1.21-.08Zm1,2.14h.51c.68,0,1.06-.33,1.06-.78s-.38-.74-1-.74a2.38,2.38,0,0,0-.56,0Zm0,2.48a3.79,3.79,0,0,0,.52,0c.64,0,1.2-.24,1.2-.9s-.55-.88-1.23-.88h-.49Z"/><path class="cls-2" d="M223.57,77.91a9.86,9.86,0,0,1,1.48-.11,2.52,2.52,0,0,1,1.67.43,1.37,1.37,0,0,1,.47,1.09,1.45,1.45,0,0,1-1,1.35v0a1.37,1.37,0,0,1,.75,1,11,11,0,0,0,.43,1.51h-1A7.43,7.43,0,0,1,226,82c-.15-.71-.41-.93-1-1h-.49v2.22h-1Zm1,2.39h.58c.67,0,1.08-.35,1.08-.89s-.41-.87-1.06-.87a2.18,2.18,0,0,0-.6.06Z"/><path class="cls-2" d="M229.26,81.71l-.46,1.53h-1l1.73-5.39h1.26l1.75,5.39h-1.06L231,81.71Zm1.55-.74-.43-1.33c-.1-.33-.19-.7-.27-1h0c-.08.31-.17.69-.26,1L229.42,81Z"/><path class="cls-2" d="M233.27,83.24V77.85h1.12l1.4,2.31a14.7,14.7,0,0,1,.92,1.81h0c-.06-.72-.08-1.42-.08-2.25V77.85h.91v5.39h-1l-1.4-2.38a15.68,15.68,0,0,1-1-1.86h0c0,.7.05,1.41.05,2.3v1.93Z"/><path class="cls-2" d="M238.69,77.92a9,9,0,0,1,1.57-.12,3.26,3.26,0,0,1,2.2.63,2.4,2.4,0,0,1,.84,2,2.82,2.82,0,0,1-.84,2.15,3.59,3.59,0,0,1-2.44.74,13.28,13.28,0,0,1-1.33-.07Zm1,4.57a4.53,4.53,0,0,0,.55,0,1.84,1.84,0,0,0,2-2.06,1.71,1.71,0,0,0-1.92-1.88,3.32,3.32,0,0,0-.67.06Z"/><polygon class="cls-2" points="42.21 91.97 48.85 91.97 48.85 93.42 43.99 93.42 43.99 96.61 48.85 96.61 48.85 98.06 43.99 98.06 43.99 103.38 42.21 103.38 42.21 91.97"/><path class="cls-2" d="M82.44,91.9h1.25l5.58,11.48H87.45L85.79,100H80.48l-1.55,3.38H77.1Zm2.62,6.65-2-4.13-1.86,4.13Z"/><path class="cls-2" d="M122.94,103.38h-4.22V92H122a6.22,6.22,0,0,1,2.41.38,3,3,0,0,1,1.32,1,2.7,2.7,0,0,1,.45,1.54,2.52,2.52,0,0,1-1.9,2.42,4,4,0,0,1,2.17,1,2.54,2.54,0,0,1,.81,1.89,2.59,2.59,0,0,1-.49,1.56,3.53,3.53,0,0,1-1.44,1.12,5.71,5.71,0,0,1-2.37.43m-.9-10h-1.53v3.43h1.18a3.2,3.2,0,0,0,2-.49,1.6,1.6,0,0,0,.61-1.29q0-1.65-2.28-1.65m.13,4.89h-1.66v3.62h1.75a6.17,6.17,0,0,0,2-.21,1.88,1.88,0,0,0,.84-.65,1.59,1.59,0,0,0,.31-.95,1.52,1.52,0,0,0-.33-1,2,2,0,0,0-1-.65,6.48,6.48,0,0,0-1.94-.21"/><path class="cls-2" d="M158.05,103.38V92h3.12a4.79,4.79,0,0,1,3,.86,3,3,0,0,1,.56,4A3.19,3.19,0,0,1,163.17,98a5.65,5.65,0,0,1,1.16,1,18.18,18.18,0,0,1,1.6,2.16c.44.66.79,1.14,1,1.47l.66.81h-2.12l-.54-.75-.11-.14-.35-.44-.55-.84-.6-.89a9.11,9.11,0,0,0-1-1.12,3.77,3.77,0,0,0-.83-.6,3,3,0,0,0-1.24-.18h-.46v5Zm2.31-10h-.53V97h.67a5.51,5.51,0,0,0,1.86-.21,1.66,1.66,0,0,0,.78-.64,1.76,1.76,0,0,0,.29-1,1.66,1.66,0,0,0-.32-1,1.6,1.6,0,0,0-.87-.61,6.93,6.93,0,0,0-1.88-.18"/><rect class="cls-2" x="198.58" y="91.97" width="1.78" height="11.41"/><path class="cls-2" d="M242.66,100.74v1.8a10,10,0,0,1-4.52,1,7.5,7.5,0,0,1-3.54-.76,6,6,0,0,1-2.3-2.12,5.47,5.47,0,0,1,1.09-7.11,7,7,0,0,1,4.78-1.7,12.21,12.21,0,0,1,4.36.94v1.76a9.09,9.09,0,0,0-4.27-1.14,5.22,5.22,0,0,0-3.55,1.23,4,4,0,0,0-1.41,3.1,3.88,3.88,0,0,0,1.39,3.09,5.2,5.2,0,0,0,3.55,1.21,8.68,8.68,0,0,0,4.42-1.27"/></g></svg>