<?xml version="1.0" encoding="UTF-8" standalone="no"?>
<!-- Created with Inkscape (http://www.inkscape.org/) -->

<svg
   xmlns:dc="http://purl.org/dc/elements/1.1/"
   xmlns:cc="http://creativecommons.org/ns#"
   xmlns:rdf="http://www.w3.org/1999/02/22-rdf-syntax-ns#"
   xmlns:svg="http://www.w3.org/2000/svg"
   xmlns="http://www.w3.org/2000/svg"
   xmlns:sodipodi="http://sodipodi.sourceforge.net/DTD/sodipodi-0.dtd"
   xmlns:inkscape="http://www.inkscape.org/namespaces/inkscape"
   version="1.1"
   id="svg2"
   xml:space="preserve"
   width="118.682"
   height="52.168533"
   viewBox="0 0 118.682 52.168533"
   sodipodi:docname="Cradle.svg"
   inkscape:version="0.92.5 (2060ec1f9f, 2020-04-08)"><metadata
     id="metadata8"><rdf:RDF><cc:Work
         rdf:about=""><dc:format>image/svg+xml</dc:format><dc:type
           rdf:resource="http://purl.org/dc/dcmitype/StillImage" /><dc:title></dc:title></cc:Work></rdf:RDF></metadata><defs
     id="defs6"><clipPath
       clipPathUnits="userSpaceOnUse"
       id="clipPath22"><path
         d="M 0,39.126 H 89.011 V 0 H 0 Z"
         id="path20"
         inkscape:connector-curvature="0" /></clipPath></defs><sodipodi:namedview
     pagecolor="#ffffff"
     bordercolor="#666666"
     borderopacity="1"
     objecttolerance="10"
     gridtolerance="10"
     guidetolerance="10"
     inkscape:pageopacity="0"
     inkscape:pageshadow="2"
     inkscape:window-width="781"
     inkscape:window-height="480"
     id="namedview4"
     showgrid="false"
     inkscape:zoom="2.9237795"
     inkscape:cx="59.341"
     inkscape:cy="26.084267"
     inkscape:window-x="1920"
     inkscape:window-y="27"
     inkscape:window-maximized="0"
     inkscape:current-layer="g10" /><g
     id="g10"
     inkscape:groupmode="layer"
     inkscape:label="Cradle"
     transform="matrix(1.3333333,0,0,-1.3333333,0,52.168533)"><g
       id="g12"
       transform="translate(62.181,23.0076)"><path
         d="M 0,0 -0.093,-0.258 -0.184,0 h -0.104 v -0.361 h 0.067 v 0.292 l 0.1,-0.292 h 0.059 l 0.099,0.292 v -0.292 h 0.067 l 0,0.361 z m -0.657,0 v -0.06 h 0.119 v -0.301 h 0.071 v 0.301 h 0.118 V 0 Z"
         style="fill:#231f20;fill-opacity:1;fill-rule:nonzero;stroke:none"
         id="path14"
         inkscape:connector-curvature="0" /></g><g
       id="g16"><g
         id="g18"
         clip-path="url(#clipPath22)"><g
           id="g24"
           transform="translate(33.954,22.6328)"><path
             d="m 0,0 h -3.538 c -0.664,0 -1.407,-0.694 -1.407,-1.622 0,-0.922 0.743,-1.61 1.407,-1.61 H 0 c 0.101,0 0.183,0.098 0.183,0.218 v 0.415 c 0,0.12 -0.082,0.219 -0.183,0.219 h -3.538 c -0.324,0 -0.578,0.333 -0.578,0.758 0,0.425 0.259,0.77 0.578,0.77 H 0 c 0.101,0 0.183,0.099 0.183,0.219 v 0.415 C 0.183,-0.098 0.101,0 0,0"
             style="fill:#ee3123;fill-opacity:1;fill-rule:nonzero;stroke:none"
             id="path26"
             inkscape:connector-curvature="0" /></g><g
           id="g28"
           transform="translate(56.0121,20.2549)"><path
             d="m 0,0 h -4.005 c -0.057,0 -0.108,0.065 -0.108,0.136 l 0.003,2.037 c 0,0.053 -0.018,0.103 -0.051,0.141 -0.035,0.039 -0.082,0.061 -0.132,0.061 h -0.438 c -0.101,0 -0.183,-0.091 -0.183,-0.202 V 0.057 c 0,-0.502 0.477,-0.911 0.909,-0.911 H 0 c 0.101,0 0.184,0.09 0.184,0.201 v 0.451 C 0.184,-0.091 0.101,0 0,0"
             style="fill:#ee3123;fill-opacity:1;fill-rule:nonzero;stroke:none"
             id="path30"
             inkscape:connector-curvature="0" /></g><g
           id="g32"
           transform="translate(57.7426,21.7837)"><path
             d="m 0,0 h 3.592 c 0.099,0 0.181,0.098 0.181,0.219 v 0.415 c 0,0.121 -0.082,0.22 -0.181,0.22 H 0 c -0.712,0 -1.336,-0.759 -1.336,-1.625 0,-0.859 0.624,-1.612 1.336,-1.612 h 3.592 c 0.099,0 0.181,0.098 0.181,0.219 v 0.411 c 0,0.121 -0.082,0.219 -0.181,0.219 H 0 c -0.191,0 -0.372,0.13 -0.48,0.343 h 3.375 c 0.1,0 0.182,0.098 0.182,0.219 v 0.41 c 0,0.122 -0.082,0.22 -0.182,0.22 H -0.489 C -0.384,-0.129 -0.2,0 0,0"
             style="fill:#ee3123;fill-opacity:1;fill-rule:nonzero;stroke:none"
             id="path34"
             inkscape:connector-curvature="0" /></g><g
           id="g36"
           transform="translate(39.6972,21.3979)"><path
             d="m 0,0 v 0.306 c 0,0.489 -0.399,0.919 -0.854,0.919 h -4.019 c -0.101,0 -0.183,-0.091 -0.183,-0.203 V 0.591 c 0,-0.112 0.082,-0.202 0.183,-0.202 h 3.826 0.13 C -0.829,0.385 -0.758,0.315 -0.753,0.227 V 0 c 0,-0.013 0,-0.027 0,-0.043 -0.003,-0.091 -0.075,-0.164 -0.165,-0.166 h -0.129 l -1.098,0.001 -2.209,-0.002 c -0.4,-0.049 -0.702,-0.37 -0.702,-0.842 v -0.743 c 0,-0.112 0.082,-0.203 0.183,-0.203 h 0.319 c 0.101,0 0.182,0.091 0.182,0.203 v 0.743 c 0,0.076 0.043,0.133 0.099,0.133 l 2.789,0.001 0.685,-0.999 c 0.034,-0.05 0.088,-0.079 0.145,-0.079 h 0.455 c 0.07,0 0.135,0.045 0.165,0.115 0.03,0.068 0.022,0.149 -0.019,0.21 l -0.553,0.802 C -0.273,-0.739 0,-0.502 0,0"
             style="fill:#ee3123;fill-opacity:1;fill-rule:nonzero;stroke:none"
             id="path38"
             inkscape:connector-curvature="0" /></g><g
           id="g40"
           transform="translate(44.3549,22.6372)"><path
             d="m 0,0 -4.019,-0.001 c -0.101,0 -0.182,-0.091 -0.182,-0.203 v -0.457 c 0,-0.112 0.081,-0.203 0.182,-0.203 h 2.921 1.065 C 0.038,-0.881 0.092,-0.942 0.096,-1.018 V -1.24 c 0,-0.012 0,-0.027 0,-0.043 -0.003,-0.08 -0.061,-0.145 -0.138,-0.159 l -1.044,10e-4 -2.933,0.003 c -0.048,0 -0.096,-0.022 -0.13,-0.061 -0.034,-0.038 -0.052,-0.088 -0.052,-0.142 v -1.393 c 0,-0.112 0.081,-0.203 0.182,-0.203 h 0.316 c 0.101,0 0.183,0.091 0.183,0.203 v 0.336 0.434 c 0.006,0.064 0.042,0.11 0.091,0.114 h 0.671 2.098 0.69 c 0.035,-0.011 0.062,-0.047 0.071,-0.095 v -0.451 -0.338 c 0,-0.112 0.082,-0.203 0.183,-0.203 H 0.6 c 0.1,0 0.182,0.091 0.182,0.203 v 2.112 C 0.782,-0.414 0.431,0 0,0"
             style="fill:#ee3123;fill-opacity:1;fill-rule:nonzero;stroke:none"
             id="path42"
             inkscape:connector-curvature="0" /></g><g
           id="g44"
           transform="translate(49.3735,22.643)"><path
             d="m 0,0 h -3.538 c -0.101,0 -0.183,-0.099 -0.183,-0.219 v -0.429 c 0,-0.058 0.018,-0.111 0.051,-0.153 0.026,-0.032 0.061,-0.053 0.098,-0.06 h 2.119 L 0,-0.859 c 0.324,0 0.578,-0.338 0.578,-0.769 0,-0.426 -0.254,-0.76 -0.578,-0.76 H -2.073 -2.076 -2.873 -2.88 c -0.045,0.01 -0.084,0.057 -0.092,0.115 l 10e-4,0.571 v 0.049 c 0,0.057 -0.018,0.112 -0.05,0.153 -0.035,0.043 -0.083,0.068 -0.132,0.068 h -0.385 c -0.101,0 -0.183,-0.099 -0.183,-0.22 v -1.371 c 0,-0.121 0.082,-0.22 0.183,-0.22 H 0 c 0.711,0 1.335,0.755 1.335,1.615 C 1.335,-0.76 0.711,0 0,0"
             style="fill:#ee3123;fill-opacity:1;fill-rule:nonzero;stroke:none"
             id="path46"
             inkscape:connector-curvature="0" /></g><g
           id="g48"
           transform="translate(29.1279,19.1831)"><path
             d="m 0,0 c -0.034,0.026 -0.07,0.054 -0.106,0.084 -0.779,0.605 -1.175,1.19 -1.176,1.736 0.001,0.547 0.397,1.131 1.176,1.737 C -0.069,3.585 -0.034,3.614 0,3.641 0.27,3.852 0.448,3.991 0.378,4.139 0.359,4.179 0.323,4.215 0.265,4.25 0.246,4.262 0.221,4.258 0.206,4.242 0.19,4.225 0.189,4.2 0.203,4.182 L 0.21,4.169 C 0.231,4.112 0.031,4.02 -0.199,3.913 -0.274,3.877 -0.357,3.838 -0.447,3.795 -0.775,3.641 -2.41,2.824 -2.413,1.82 c 0.003,-1.003 1.638,-1.821 1.965,-1.975 0.091,-0.043 0.174,-0.082 0.249,-0.117 0.23,-0.107 0.43,-0.201 0.409,-0.256 L 0.203,-0.542 c -0.014,-0.019 -0.013,-0.043 0.003,-0.06 0.009,-0.009 0.022,-0.015 0.035,-0.015 0.008,0 0.017,0.002 0.024,0.007 0.058,0.035 0.094,0.071 0.113,0.11 C 0.448,-0.351 0.27,-0.211 0,0"
             style="fill:#ee3123;fill-opacity:1;fill-rule:nonzero;stroke:none"
             id="path50"
             inkscape:connector-curvature="0" /></g><g
           id="g52"
           transform="translate(28.7314,18.6928)"><path
             d="M 0,0 C -0.088,0.041 -0.188,0.087 -0.291,0.137 -1.324,0.621 -2.531,1.48 -2.534,2.31 -2.531,3.14 -1.324,4 -0.291,4.484 -0.188,4.534 -0.088,4.58 0,4.62 0.359,4.786 0.557,4.877 0.509,5.005 0.504,5.019 0.496,5.032 0.483,5.046 0.472,5.057 0.459,5.068 0.444,5.079 L 0.434,5.084 0.428,5.086 C 0.41,5.092 0.391,5.085 0.377,5.071 0.365,5.057 0.362,5.035 0.37,5.018 0.374,4.979 0.139,4.906 -0.088,4.835 -0.219,4.794 -0.382,4.743 -0.571,4.679 -0.712,4.632 -4.017,3.516 -4.025,2.31 c 0.008,-1.205 3.313,-2.321 3.454,-2.368 0.19,-0.065 0.353,-0.115 0.484,-0.157 C 0.14,-0.286 0.374,-0.359 0.37,-0.397 L 0.369,-0.399 C 0.361,-0.416 0.364,-0.436 0.376,-0.45 0.386,-0.462 0.4,-0.468 0.414,-0.468 l 0.013,0.002 0.017,0.008 c 0.016,0.011 0.029,0.021 0.039,0.033 0.013,0.013 0.021,0.027 0.026,0.041 C 0.557,-0.257 0.359,-0.166 0,0"
             style="fill:#6d6f71;fill-opacity:1;fill-rule:nonzero;stroke:none"
             id="path54"
             inkscape:connector-curvature="0" /></g><g
           id="g56"
           transform="translate(24.2221,21.1567)"><path
             d="m 0,0 c 0.022,0 0.042,0.016 0.047,0.038 0.247,1.045 3.122,2.12 3.696,2.324 0.17,0.064 0.329,0.117 0.47,0.165 C 4.582,2.65 4.733,2.704 4.748,2.792 4.752,2.813 4.747,2.832 4.734,2.851 4.728,2.86 4.718,2.87 4.708,2.877 4.694,2.888 4.677,2.898 4.656,2.91 4.579,2.95 4.456,2.988 4.292,3.022 3.4,3.222 2.33,2.95 1.426,2.296 0.58,1.684 0.028,0.845 -0.049,0.054 -0.052,0.029 -0.033,0.005 -0.008,0.001 L 0,0"
             style="fill:#414142;fill-opacity:1;fill-rule:nonzero;stroke:none"
             id="path58"
             inkscape:connector-curvature="0" /></g><g
           id="g60"
           transform="translate(28.9877,18.0591)"><path
             d="M 0,0 C -0.015,0.088 -0.165,0.142 -0.533,0.264 -0.674,0.311 -0.834,0.364 -1.006,0.428 -1.579,0.631 -4.452,1.7 -4.7,2.75 -4.705,2.775 -4.73,2.792 -4.755,2.787 -4.78,2.783 -4.798,2.759 -4.796,2.733 -4.719,1.941 -4.167,1.103 -3.32,0.49 c 0.706,-0.511 1.514,-0.786 2.259,-0.786 0.207,0 0.41,0.021 0.603,0.065 0.166,0.035 0.288,0.073 0.366,0.113 0.02,0.01 0.037,0.021 0.051,0.033 l -0.03,0.038 0.03,-0.038 c 0.012,0.008 0.02,0.017 0.027,0.027 C -0.001,-0.04 0.003,-0.021 0,0"
             style="fill:#414142;fill-opacity:1;fill-rule:nonzero;stroke:none"
             id="path62"
             inkscape:connector-curvature="0" /></g></g></g></g></svg>