<svg xmlns="http://www.w3.org/2000/svg" viewBox="0 0 283.46 149.39"><defs><style>.cls-1{opacity:0.9;}.cls-2{fill:#fff;}.cls-2,.cls-3{fill-rule:evenodd;}.cls-3{fill:#010101;}.cls-4{font-size:4.33px;fill:#faecf0;font-family:Denmark;}</style></defs><g id="Layer_1" data-name="Layer 1"><path class="cls-2" d="M171.9,96.84V95.2c-1.2-.15-3.1,0-4.36,0s-2.36-1.1-2.17-2.23l6.5,0,0-1.7-6.58,0c-.14-1.14,1.16-2.06,2.14-2.09,1.32,0,3.09.13,4.34,0a6.61,6.61,0,0,0,0-.89c0-1,.27-.83-2-.83s-4.44-.34-6.14,1.37a5,5,0,0,0-1.17,2.58c-.32,1.85.41,4.23,2.33,5.1a6.6,6.6,0,0,0,3.33.45,33.26,33.26,0,0,0,3.75,0Z"/><polygon class="cls-3" points="79.28 116.28 204.18 116.28 204.18 33.11 79.28 33.11 79.28 116.28 79.28 116.28"/><path class="cls-2" d="M94,51.2V79.27c0,.81-.19.84,2.37.21.92-.23,2.28-.39,3-.58a11.85,11.85,0,0,1,1.39-.33,21.32,21.32,0,0,0,2.93-.65c.45-.12,1-.23,1.51-.31,1.07-.17,1.8-.45,2.86-.64.54-.1,1.07-.15,1.58-.26s1-.26,1.41-.36L117,75.12c1.09-.13,1.8-.48,2.85-.64l6.66-1.39a6.79,6.79,0,0,1,.72-.17c2-.35,5.38-1.1,7.39-1.55s3.92-.86,5.91-1.24a46.49,46.49,0,0,1,6,1.12l2.93.6c.44.07,1,.21,1.48.32,3.3.81,7.26,1.37,10.3,2.17l2.3.42c1.09.32,2.44.47,3.56.83L173,76.85a12.75,12.75,0,0,1,1.49.32,10.89,10.89,0,0,0,1.49.31l5.9,1.24c.5.11,1,.19,1.49.3s.93.22,1.5.32l1.51.3.73.16a1.72,1.72,0,0,0,.36.09c.47.08.39-.1.38-.84V54.35c0-1.12.08-2.57,0-3.65a20.87,20.87,0,0,0-2.87-.66,28.77,28.77,0,0,0-2.88-.63l-2.95-.6c-1.05-.24-2.08-.31-3-.6-.49-.15-.93-.18-1.44-.29l-2.54-.59c-.46-.13-1.35-.2-1.89-.37l-11.79-2.49c-.4-.09-1.06-.23-1.46-.29l-8.85-1.87c-.51-.1-1-.24-1.49-.31l-2.88-.63c-.53-.13-1-.2-1.51-.3a5.07,5.07,0,0,0-1.55-.26l-11,2.33c-.63.11-.44,0-1.1.19a1.51,1.51,0,0,1-.38.09c-.31,0-.39.1-.75.15-.9.13-.32.18-1.43.34l-3,.64c-.41.09-1,.28-1.34.34l-3,.6c-.45.09-1.15.16-1.54.29l-13.17,2.8c-1.27.32-3,.53-4.43,1-.45.14-1,.16-1.47.28l-3,.62c-1.22.21-1,.21-1,.76Z"/><path class="cls-2" d="M97.62,88v8.9c1.41.11,4.2,0,5.82,0a3.18,3.18,0,0,0,2.92-1.59,2.22,2.22,0,0,0,.22-.29c1.09-1.91.92-6.56-2.38-7.5a30.3,30.3,0,0,0-5.41-.2c-.24,0-.69,0-.9,0-.39.05-.28.25-.28.66Z"/><path class="cls-2" d="M151.92,96.9a40.52,40.52,0,0,0,7-.17c3.27-1.13,3.59-7.47,0-9.06a9.11,9.11,0,0,0-3.32-.3c-1.12,0-2.5-.07-3.6,0l0,9.52Z"/><path class="cls-2" d="M173.17,88v8.25c0,.83-.28.69,1.81.68.64,0,.62.07.61-.6v-2.4c0-.83-.21-.71,2.18-.68h.59l2.14,3c.55.81,0,.67,2.52.67h.64c0-.33-.88-1.35-1.25-1.91a13.6,13.6,0,0,1-1.33-2,3.83,3.83,0,0,0,1.74-1,2.94,2.94,0,0,0-2.27-4.75h-6.76c-.67,0-.61-.06-.61.61Z"/><path class="cls-2" d="M140.17,88v8.25c0,.83-.29.68,1.87.68.71,0,.59,0,.59-.68V90c.28.07.24.11.4.37s.19.27.3.45c1.1,1.62,2.85,4,3.8,5.59.28.47.26.54,1,.54,3,0,2.61.19,2.61-.72V87.4l-1.78,0c-.79,0-.67-.19-.67,1.21,0,.5.06,5.31,0,5.6l0,0a.11.11,0,0,1,0,0,12.52,12.52,0,0,1-1.29-1.79c-1-1.41-2.05-3.13-3.08-4.57-.38-.53-.2-.55-1-.55-2.82,0-2.61-.21-2.61.61Z"/><path class="cls-2" d="M171.9,96.84V95.2c-1.2-.15-3.1,0-4.36,0s-2.36-1.1-2.17-2.23l6.5,0,0-1.7-6.58,0c-.14-1.14,1.16-2.06,2.14-2.09,1.32,0,3.09.13,4.34,0a6.61,6.61,0,0,0,0-.89c0-1,.27-.83-2-.83s-4.44-.34-6.14,1.37a5,5,0,0,0-1.17,2.58c-.32,1.85.41,4.23,2.33,5.1a6.6,6.6,0,0,0,3.33.45,33.26,33.26,0,0,0,3.75,0Z"/><path class="cls-2" d="M112.68,96.87h5c0-1.63.17-1.7-.52-1.69h-3.53a2.08,2.08,0,0,1-1.75-.58,1.85,1.85,0,0,1-.72-1.65c1.28-.1,5.58.06,6.23,0,.42,0,.31-.16.3-1.13l0-.59-6.51,0c-.23-1.28,1.17-2.09,2.32-2.09h2.32c2.14,0,1.81.28,1.81-1.13,0-.84.16-.61-2.33-.61-1.8,0-3.7-.23-5.19.82a3.75,3.75,0,0,0-1.35,1.66,5.69,5.69,0,0,0,.08,4.9,4.13,4.13,0,0,0,3.9,2.12Z"/><path class="cls-2" d="M118.91,91v5.33c0,.76-.21.6,1.81.6.57,0,.62.11.61-.52v-3a2.71,2.71,0,0,1,0-.29c.08-.47.71-.3,1.86-.3H128c.49,0,.36-.12.36-1s.16-.61-1.27-.61c-1.63,0-4.3.07-5.7,0a1.76,1.76,0,0,1,.85-1.75c1-.69,4.29-.47,5.45-.47.8,0,.67.1.67-1,0-.7.15-.61-1.12-.61a29.8,29.8,0,0,0-5,.19,4.8,4.8,0,0,0-2.38,1.07,3.6,3.6,0,0,0-1,2.35Z"/><path class="cls-2" d="M94.66,108l1.57,0c.18-.88-.3-2.53.26-2.66h1.63A30.65,30.65,0,0,1,100,108h1.8c0-.41-.47-.82-.81-1.37-.2-.33-.81-.93-.82-1.37.36-.24.67-.23,1-.58a2.23,2.23,0,0,0-.45-3.34c-.67-.43-1.76-.28-2.87-.28s-2.26-.07-3.21,0l0,6.93Z"/><path class="cls-2" d="M145.41,105h2c2,0,1.94,1.81.3,1.81h-3.87a2.62,2.62,0,0,0-.06,1.19c1.38.1,3.54,0,5,0a2.17,2.17,0,0,0,2-3c-.9-2.3-5.14-.17-5.38-1.88-.07-.46.35-.92,1.08-.92h4v-1.13c-1-.09-2.26,0-3.23,0a5.5,5.5,0,0,0-2.93.37,1.92,1.92,0,0,0,1.2,3.56Z"/><path class="cls-2" d="M107.83,103.44v5.78c0,.74-.08.67.8.67s.67,0,.66-1c0-1.12-.29-.91,1.59-.91s2.92-2.47,1.92-4.15a2.42,2.42,0,0,0-2.29-1.07c-2.62,0-2.68-.29-2.68.65Z"/><path class="cls-3" d="M154.22,89.13c-.09.57,0,4.49,0,5.46,0,.72,0,.6.76.59,2.15,0,4.11.54,4.2-2.7a3,3,0,0,0-.13-1.2,6.12,6.12,0,0,0-.32-1.11A1.79,1.79,0,0,0,157,89.1c-.78,0-2-.06-2.75,0Z"/><path class="cls-3" d="M99.92,89.7l0,5.45,2.77,0a1.75,1.75,0,0,0,2-1.49c.4-1.6.34-4.54-1.89-4.58-.57,0-1.16,0-1.73,0-1.26,0-1.13-.11-1.13.59Z"/><path class="cls-2" d="M180.45,103.82c-.2-.37-.71-.92-1.11-1h-5.48c-.26,0-.62,0-.73.09a34.45,34.45,0,0,0,0,5l1.27,0c.08-.38,0-2.68,0-3.4,0-.22.06-.65.14-.52s.05,0,.07,0l1.4.06c.32.71-.15,3,.1,3.87l1.28,0c.22-1-.17-3,.09-4,2.62-.37,1.44,1.47,1.77,4h1.23l0-4.13Z"/><path class="cls-2" d="M155.31,106.81c-2.41,0-2.11.19-2.08-3.15,0-.88.21-.83-.76-.83-.59,0-.64-.11-.63.53,0,1.83-.43,4.23,1.25,4.61.44.1,1.68,0,2,0,.59.09.28.81-.52.81l-2.62,0v.75c.06.41.24.3,1.05.3,1.24,0,3.79.31,3.82-1.64v-4.43c0-1.14.18-1.11-1.11-1-.44,0-.35.2-.34.66,0,.69.05,2.94,0,3.37Z"/><path class="cls-2" d="M130,103.44v4c0,.67-.07.59.81.59s.6.2.6-1.72a7.87,7.87,0,0,1,.08-2.25,3,3,0,0,1,1.51,0c.5.17.44.68.44,1.27,0,3-.28,2.69.83,2.69.84,0,.63.15.63-2.17,0-1,.16-1.67-.39-2.42s-1.24-.59-2.27-.59c-2.41,0-2.24-.23-2.24.61Z"/><path class="cls-2" d="M113.83,105.39a2.76,2.76,0,0,0,1.3,2.42,9.08,9.08,0,0,0,3.37.16c.15-1.24-.11-.93-1.69-.93-.67,0-1.32-.14-1.27-.9,2.7-.2,3,.64,2.92-1l-2.9,0c-.3-1.33,1.63-1.16,2.3-1.16.45,0,.82.23.63-1.09a17,17,0,0,0-1.75,0,2.47,2.47,0,0,0-1.56.3,2.64,2.64,0,0,0-1.35,2.3Z"/><path class="cls-2" d="M182.94,105.82h1.28c1.25,0,1.16,1.12.22,1.21H182c-.21,0,.06,0-.13,0s-.27.33-.24.89a32.64,32.64,0,0,0,4,0,1.57,1.57,0,0,0,.94-1.09,1.65,1.65,0,0,0-.35-1.58c-.9-1-2.92.11-3.23-.82-.26-.76.7-.68,1.23-.68s1.39,0,2,0v-.91c-.71,0-1.55,0-2.27,0s-1.53-.12-2,.33a1.66,1.66,0,0,0-.35,1.74,1.51,1.51,0,0,0,1.38.92Z"/><path class="cls-2" d="M167.26,105.39a2.71,2.71,0,0,0,1.28,2.39,7.52,7.52,0,0,0,3.28.16s.42-.88-.36-.91c-.15,0-.37,0-.53,0s-.67,0-1,0c-.54,0-1.34-.52-1-.87s2.25,0,2.88-.11v-.94a20.17,20.17,0,0,0-2.46,0c-.35,0-.6.05-.49-.38.26-1,1.76-.75,3-.77.12-1.18.15-1.14-.84-1.13a9.64,9.64,0,0,0-2.1.07,2.86,2.86,0,0,0-1.72,2.53Z"/><path class="cls-2" d="M128.88,108l0-.64c0-.35-.14-.31-.46-.32-.73,0-1.8.16-2.23-.23s-.4-.72.35-.71h2.27l0-1c-1.82-.06-3.13.33-2.91-.45a1.06,1.06,0,0,1,.92-.67c1.47-.25,2.3.69,2-1.14a16.93,16.93,0,0,0-1.75,0,2.36,2.36,0,0,0-1.51.27,2.78,2.78,0,0,0-.19,4.69c.57.39,2.57.31,3.41.24Z"/><path class="cls-2" d="M160.57,105.82c.52,0,1,.07,1,.55.08.95-1.46.66-2.88.67h-.6l0,.91,3.33,0a1.61,1.61,0,0,0,1.14-2.76c-.84-.74-2.13-.16-2.83-.42a.52.52,0,0,1-.13-.93c.4-.29,2.39,0,3.08-.14.05-.62.17-.9-.43-.91h-2.86a1.47,1.47,0,0,0-1.09,2.45c.59.73,1.14.54,2.29.54Z"/><path class="cls-2" d="M102.06,105.47a2.62,2.62,0,0,0,1.3,2.27,8.35,8.35,0,0,0,3.33.21v-.9c-.65,0-1.35,0-2,0-.41,0-1.27-.47-1-.86a16.57,16.57,0,0,1,2.85-.09l0-1-2.92,0a.87.87,0,0,1,.32-.86c.48-.42,1.77-.29,2.63-.3l0-1c-1-.08-2.66-.16-3.34.28a2.8,2.8,0,0,0-1.3,2.35Z"/><path class="cls-2" d="M136.39,102.81a3.34,3.34,0,0,1-.44,0l-.27,0-.06,0c-.19,0-.16.54-.13.71a.13.13,0,0,0,0,.06.14.14,0,0,0,0,.07c.1.4.75,0,.85.35a30.71,30.71,0,0,0,.13,3.1c.41,1.11,2.41,1.09,2.52.61,0-.26.08-.66-.23-.73s-1,0-1-1v-1.58a2.91,2.91,0,0,1,0-.3l0-.12c.09-.29.7-.15,1.18-.18l0-1c-1,0-1.22.18-1.25-.45-.06-1.06.5-1.56-1.38-1.33l0,1.75Z"/><path class="cls-3" d="M175.66,91.66a1.35,1.35,0,0,0,.67.08c1.08,0,2.87.16,3.65-.35,1.29-.85.48-2.47-1.39-2.47-3.44,0-3-.23-3,1a6.18,6.18,0,0,0,.07,1.73Z"/><path class="cls-2" d="M122.07,101.71l0,6.28c1.54.07,1.4.11,1.4-.57v-5.71c0-.73.19-.67-.9-.67-.66,0-.52,0-.52.67Z"/><polygon class="cls-2" points="119.65 107.95 120.97 107.98 120.99 101.08 119.66 101.08 119.65 107.95 119.65 107.95"/><path class="cls-3" d="M109.29,106.84c1.39.17,2.44,0,2.44-1.45s-1.12-1.61-2.43-1.43v2.88Z"/><path class="cls-3" d="M96.39,102.3c-.19.18-.08.9-.09,1.22,0,.76,0,.63.77.62s1.85.13,2.38-.28.26-1.39-.56-1.56a8.37,8.37,0,0,0-2.5,0Z"/><path class="cls-2" d="M164.38,102.79c-.2,0-.29,0-.45,0l-.27,0-.06,0c-.18,0-.16.54-.13.71s0,.05,0,.07a.14.14,0,0,1,0,.06c.11.4.75,0,.85.36s-.11,2.43.14,3.09c.4,1.11,2.41,1.09,2.51.61.06-.25.08-.66-.23-.72s-1,0-1-1v-1.88l0-.13c.09-.29.69-.15,1.18-.18l0-1.05c-1,0-1.22.18-1.26-.44,0-1.07.5-1.57-1.38-1.33l0,1.74Z"/><path class="cls-2" d="M138.77,96.73V95.1c-1.19-.15-3.09,0-4.36,0s-2.36-1.1-2.16-2.24h6.5l0-1.71-6.57,0c-.14-1.14,1.15-2.06,2.14-2.1,1.32,0,3.09.14,4.34,0a8.62,8.62,0,0,0,0-.88c0-1,.27-.83-2-.83s-4.44-.34-6.14,1.37a4.86,4.86,0,0,0-1.17,2.58c-.32,1.85.41,4.23,2.32,5.1a6.64,6.64,0,0,0,3.34.45,31,31,0,0,0,3.75,0Z"/><text class="cls-4" transform="translate(187.14 105.3)">®</text></g></svg>