<?xml version="1.0" encoding="utf-8"?>
<!-- Generator: Adobe Illustrator 25.0.0, SVG Export Plug-In . SVG Version: 6.00 Build 0)  -->
<svg version="1.1" xmlns="http://www.w3.org/2000/svg" xmlns:xlink="http://www.w3.org/1999/xlink" x="0px" y="0px"
	 viewBox="0 0 283.5 149.4" style="enable-background:new 0 0 283.5 149.4;" xml:space="preserve">
<style type="text/css">
	.st0{opacity:0.9;}
	.st1{fill:#FFFFFF;stroke:#010101;stroke-miterlimit:10;}
	.st2{fill:#010101;}
	.st3{fill:#231F20;}
	.st4{fill:none;stroke:#231F20;stroke-width:2.054;stroke-miterlimit:10;}
	.st5{fill:none;stroke:#231F20;stroke-width:1.711;stroke-miterlimit:10;}
	.st6{fill:none;stroke:#231F20;stroke-width:2.054;stroke-linejoin:bevel;stroke-miterlimit:10;}
	.st7{fill:none;stroke:#231F20;stroke-width:1.972;stroke-miterlimit:10;}
	.st8{fill:#FFFFFF;}
	.st9{fill:none;stroke:#231F20;stroke-width:1.369;stroke-linecap:round;stroke-linejoin:round;stroke-miterlimit:10;}
	.st10{fill:none;stroke:#231F20;stroke-width:1.369;stroke-linejoin:bevel;stroke-miterlimit:10;}
	.st11{fill:none;stroke:#231F20;stroke-width:0.685;stroke-miterlimit:10;}
	.st12{fill:none;stroke:#231F20;stroke-width:2.054;stroke-linecap:round;stroke-linejoin:round;stroke-miterlimit:10;}
	.st13{fill:none;stroke:#231F20;stroke-width:1.972;stroke-linecap:round;stroke-linejoin:round;stroke-miterlimit:10;}
	.st14{fill:none;stroke:#231F20;stroke-width:2.029;stroke-miterlimit:10;}
	.st15{fill:#E9282A;}
	.st16{fill:none;stroke:#231F20;stroke-width:1.691;stroke-linecap:round;stroke-linejoin:round;stroke-miterlimit:10;}
	.st17{fill:none;stroke:#231F20;stroke-width:2.031;stroke-miterlimit:10;}
	.st18{fill:none;stroke:#231F20;stroke-width:2.031;stroke-linejoin:round;stroke-miterlimit:10;}
	.st19{fill:none;stroke:#FFFFFF;stroke-width:7.454;stroke-linecap:round;stroke-linejoin:round;stroke-miterlimit:10;}
	.st20{fill:none;stroke:#020202;stroke-width:2.485;stroke-linecap:round;stroke-linejoin:round;stroke-miterlimit:10;}
	.st21{fill:none;stroke:#231F20;stroke-width:1.497;stroke-miterlimit:10;}
	.st22{fill:none;stroke:#231F20;stroke-width:2.054;stroke-miterlimit:10;stroke-dasharray:1.369,1.027;}
	.st23{fill:none;stroke:#231F20;stroke-width:1.369;stroke-miterlimit:10;}
	.st24{fill:#020202;}
	.st25{fill:none;}
	.st26{clip-path:url(#SVGID_2_);fill:#231F20;}
	.st27{clip-path:url(#SVGID_4_);fill:#010101;}
	.st28{clip-path:url(#SVGID_6_);fill:#010101;}
	.st29{clip-path:url(#SVGID_6_);fill:none;stroke:#010101;stroke-width:0.432;stroke-miterlimit:10;}
	.st30{fill-rule:evenodd;clip-rule:evenodd;fill:#010101;}
	.st31{clip-path:url(#SVGID_8_);fill:#010101;}
	.st32{clip-path:url(#SVGID_10_);fill:#010101;}
	.st33{clip-path:url(#SVGID_10_);fill:#97999B;}
	.st34{clip-path:url(#SVGID_10_);fill:none;stroke:#010101;stroke-width:0.367;}
	.st35{clip-path:url(#SVGID_12_);fill:none;stroke:#010101;stroke-width:0.367;}
	.st36{fill:#95979A;}
	.st37{fill:none;stroke:#010101;stroke-width:0.367;}
	.st38{fill:#231F20;stroke:#231F20;stroke-width:1.32;stroke-miterlimit:10;}
	.st39{fill:#231F20;stroke:#231F20;stroke-width:0.9;stroke-miterlimit:10;}
	.st40{fill-rule:evenodd;clip-rule:evenodd;fill:#231F20;}
	.st41{fill:none;stroke:#010101;stroke-width:0.349;}
	.st42{clip-path:url(#SVGID_14_);fill:#010101;}
	.st43{clip-path:url(#SVGID_16_);fill:#010101;}
	.st44{clip-path:url(#SVGID_18_);fill:#010101;}
	.st45{clip-path:url(#SVGID_20_);fill:#010101;}
	.st46{clip-path:url(#SVGID_22_);fill:#010101;}
	.st47{clip-path:url(#SVGID_24_);fill:#010101;}
	.st48{clip-path:url(#SVGID_26_);fill:#010101;}
	.st49{clip-path:url(#SVGID_28_);fill:none;stroke:#010101;stroke-width:0.274;}
	.st50{clip-path:url(#SVGID_30_);fill:#010101;}
	.st51{clip-path:url(#SVGID_32_);fill:#010101;}
	.st52{clip-path:url(#SVGID_34_);fill:#010101;}
	.st53{clip-path:url(#SVGID_36_);fill:#231F20;}
	.st54{clip-path:url(#SVGID_36_);fill:#FFFFFF;}
	.st55{clip-path:url(#SVGID_36_);fill:#415364;}
	.st56{clip-path:url(#SVGID_36_);fill-rule:evenodd;clip-rule:evenodd;fill:#FFFFFF;}
	.st57{fill-rule:evenodd;clip-rule:evenodd;fill:#FFFFFF;}
	.st58{fill:none;stroke:#231F20;stroke-width:1.6532;stroke-linecap:round;stroke-linejoin:round;stroke-miterlimit:10;}
	.st59{fill:none;stroke:#231F20;stroke-width:1.9928;stroke-miterlimit:10;}
</style>
<g id="Fondo" class="st0">
</g>
<g id="Layer_1">
	<g>
		<g>
			<polygon class="st3" points="261,65.3 261,64.4 264.9,64.4 264.9,65.3 263.5,65.3 263.5,69.2 262.4,69.2 262.4,65.3 			"/>
			<polygon class="st3" points="267,64.4 268.2,67.7 268.2,67.7 269.3,64.4 270.8,64.4 270.8,69.2 269.8,69.2 269.8,65.8 
				269.7,65.8 268.6,69.2 267.7,69.2 266.5,65.8 266.5,65.8 266.5,69.2 265.5,69.2 265.5,64.4 			"/>
		</g>
		<g>
			<g>
				<path class="st38" d="M90.3,75.9c0,3-1.1,5.6-3.1,7.5c-2,1.9-4.6,3-7.6,3H66.2V64.9H79C86,64.9,90.3,69.1,90.3,75.9z M85.8,81.9
					c1.5-1.6,2.3-3.8,2.3-6.1c0-5.4-3.6-9-8.8-9H68.1v17.8h11.7C82.2,84.5,84.3,83.6,85.8,81.9z"/>
				<path class="st38" d="M115.5,86.4l-6.7-8.8H97v8.8h-1.9V64.9h16.2c4,0,6.5,2.5,6.5,6.4c0,3.7-2.3,6-6.5,6.3l6.5,8.8H115.5z
					 M115.6,71.2c0-3-1.7-4.5-5.2-4.5H97v8.9h14.1C114,75.7,115.6,74.1,115.6,71.2z"/>
				<path class="st38" d="M132.7,77.7v8.6h-1.9v-8.6l-10.7-12.9h2.3l9.3,10.9l9.3-10.9h2.3L132.7,77.7z"/>
				<path class="st39" d="M161.7,86.4h-4.1L146,64.9h4l9.7,17.9l9.7-17.9h4L161.7,86.4z"/>
				<path class="st39" d="M176.8,86.4V64.9h21.7v3.2h-18.1v5.5H193v3.2h-12.6v6.3h18.9v3.2H176.8z"/>
				<path class="st39" d="M224.4,86.4l-16.5-17.6v17.6h-3.6V64.9h4.4l16.4,17.6V64.9h3.6v21.5H224.4z"/>
				<path class="st39" d="M246.4,68.1v18.3h-3.6V68.1h-10.3v-3.2h24.1v3.2H246.4z"/>
			</g>
		</g>
		<g>
			<path class="st3" d="M36.9,63.3h14.5c-0.3-0.4-0.5-0.8-0.8-1.2H36.2C36.4,62.5,36.7,62.9,36.9,63.3z"/>
			<path class="st3" d="M38.3,65.7h14.4c-0.2-0.4-0.4-0.8-0.6-1.2H37.6C37.8,64.9,38.1,65.3,38.3,65.7z"/>
			<path class="st3" d="M39.7,68.1h14c-0.1-0.4-0.3-0.8-0.4-1.1H39C39.3,67.3,39.5,67.7,39.7,68.1z"/>
			<path class="st3" d="M42.4,72.9h12.3c0-0.4-0.1-0.8-0.1-1.2H41.8C42,72.1,42.2,72.5,42.4,72.9z"/>
			<path class="st3" d="M41.1,70.5h13.2c-0.1-0.4-0.2-0.8-0.3-1.1H40.4C40.6,69.7,40.9,70.1,41.1,70.5z"/>
			<path class="st3" d="M35.5,60.8h14c-0.4-0.4-0.7-0.8-1.1-1.2H34.8C35,60,35.2,60.4,35.5,60.8z"/>
			<path class="st3" d="M54.7,74.2H42.9c0.1,0.4,0.2,0.8,0.3,1.2h11.5c0-0.2,0-0.4,0-0.7C54.7,74.5,54.7,74.3,54.7,74.2z"/>
			<path class="st3" d="M43.4,77.1c0,0.2,0,0.4,0,0.7h11.2c0.1-0.4,0.1-0.8,0.1-1.2H43.4C43.4,76.8,43.4,76.9,43.4,77.1z"/>
			<path class="st3" d="M42.7,80.2H54c0.1-0.4,0.2-0.8,0.3-1.2H43.1C43,79.4,42.9,79.8,42.7,80.2z"/>
			<path class="st3" d="M33.9,86.2c-6.8-0.1-9.4-6.3-9.4-9.2c0-2.9,1.8-5.6,3-7.7c0.1-0.2,6.2-10.7,6.3-10.8c0-0.1,0.1-0.1,0.2-0.1
				v0h0.1c0,0,0,0,0,0c0,0,0,0,0,0H47c-0.5-0.4-1-0.8-1.6-1.2H33.9V56h9.5c-0.9-0.4-1.8-0.8-2.7-1.1h-6.8v-1.2c0,0-0.1,0-0.1,0
				c-11.6,0-21,9.4-21,21c0,11.6,9.4,21,21,21c0,0,0.1,0,0.1,0v-1.2h6.8c0.8-0.3,1.7-0.6,2.4-1h-9.2v-1.2h11.4
				c0.6-0.4,1.1-0.8,1.6-1.2h-13v-1.2h14.4c0.4-0.4,0.8-0.8,1.1-1.2H33.9v-1.2h16.6c0.3-0.4,0.6-0.8,0.8-1.2L33.9,86.2L33.9,86.2z"
				/>
			<path class="st3" d="M38.6,85H52c0.2-0.4,0.4-0.8,0.6-1.2H40.2C39.7,84.3,39.2,84.7,38.6,85z"/>
			<path class="st3" d="M41.3,82.6h11.9c0.2-0.4,0.3-0.8,0.4-1.2H42.1C41.9,81.8,41.6,82.2,41.3,82.6z"/>
		</g>
	</g>
</g>
</svg>
