<?xml version="1.0" encoding="utf-8"?>
<!-- Generator: Adobe Illustrator 22.1.0, SVG Export Plug-In . SVG Version: 6.00 Build 0)  -->
<svg version="1.1" id="Icons" xmlns="http://www.w3.org/2000/svg" xmlns:xlink="http://www.w3.org/1999/xlink" x="0px" y="0px"
	 viewBox="0 0 46 39" style="enable-background:new 0 0 46 39;" xml:space="preserve">
<style type="text/css">
	.st0{fill:none;stroke:#000000;stroke-width:2;stroke-linecap:round;stroke-linejoin:round;}
</style>
<title>Icon_Fabric_DWR_white</title>
<line class="st0" x1="16.2" y1="7" x2="16.2" y2="8"/>
<line class="st0" x1="8.8" y1="11.8" x2="9.5" y2="12.5"/>
<line class="st0" x1="16.2" y1="11" x2="16.2" y2="12"/>
<line class="st0" x1="22" y1="5" x2="22" y2="6"/>
<line class="st0" x1="22" y1="9" x2="22" y2="10"/>
<line class="st0" x1="22" y1="13" x2="22" y2="14"/>
<line class="st0" x1="22" y1="17" x2="22" y2="18"/>
<polyline class="st0" points="16.2,15 16.2,19 12.2,15 "/>
<line class="st0" x1="28.2" y1="7" x2="28.2" y2="8"/>
<line class="st0" x1="16.2" y1="3" x2="16.2" y2="4"/>
<line class="st0" x1="22" y1="1" x2="22" y2="2"/>
<line class="st0" x1="28.2" y1="3" x2="28.2" y2="4"/>
<line class="st0" x1="35.2" y1="11.8" x2="34.5" y2="12.5"/>
<line class="st0" x1="28.2" y1="11" x2="28.2" y2="12"/>
<polyline class="st0" points="28.2,15 28.2,19 32.2,15 "/>
<line class="st0" x1="22" y1="26" x2="22" y2="23"/>
<line class="st0" x1="19" y1="26" x2="19" y2="24"/>
<line class="st0" x1="16" y1="27" x2="16" y2="25"/>
<line class="st0" x1="13" y1="28" x2="13" y2="26"/>
<line class="st0" x1="10" y1="29" x2="10" y2="27"/>
<line class="st0" x1="7" y1="30" x2="7" y2="28"/>
<line class="st0" x1="4" y1="31" x2="4" y2="29"/>
<line class="st0" x1="25" y1="26" x2="25" y2="24"/>
<line class="st0" x1="28" y1="27" x2="28" y2="25"/>
<line class="st0" x1="31" y1="28" x2="31" y2="26"/>
<line class="st0" x1="34" y1="29" x2="34" y2="27"/>
<line class="st0" x1="37" y1="30" x2="37" y2="28"/>
<line class="st0" x1="40" y1="31" x2="40" y2="29"/>
<path class="st0" d="M45,31.9c-8.5,0-13.8-5.1-21.7-5.1h-0.5c-7.9,0-13.2,5.1-21.7,5.1"/>
<path class="st0" d="M45,38c-8.5,0-13.8-5.1-21.7-5.1h-0.5C14.8,32.9,9.5,38,1,38"/>
</svg>
