<?xml version="1.0" encoding="UTF-8" standalone="no"?>
<!-- Created with Inkscape (http://www.inkscape.org/) -->

<svg
   xmlns:dc="http://purl.org/dc/elements/1.1/"
   xmlns:cc="http://creativecommons.org/ns#"
   xmlns:rdf="http://www.w3.org/1999/02/22-rdf-syntax-ns#"
   xmlns:svg="http://www.w3.org/2000/svg"
   xmlns="http://www.w3.org/2000/svg"
   xmlns:sodipodi="http://sodipodi.sourceforge.net/DTD/sodipodi-0.dtd"
   xmlns:inkscape="http://www.inkscape.org/namespaces/inkscape"
   version="1.1"
   id="svg2"
   xml:space="preserve"
   width="122.47533"
   height="47.380669"
   viewBox="0 0 122.47533 47.380669"
   sodipodi:docname="FlashDryFTW.svg"
   inkscape:version="0.92.5 (2060ec1f9f, 2020-04-08)"><metadata
     id="metadata8"><rdf:RDF><cc:Work
         rdf:about=""><dc:format>image/svg+xml</dc:format><dc:type
           rdf:resource="http://purl.org/dc/dcmitype/StillImage" /><dc:title></dc:title></cc:Work></rdf:RDF></metadata><defs
     id="defs6"><clipPath
       clipPathUnits="userSpaceOnUse"
       id="clipPath82"><path
         d="M 0,35.535 H 91.857 V 0 H 0 Z"
         id="path80"
         inkscape:connector-curvature="0" /></clipPath></defs><sodipodi:namedview
     pagecolor="#ffffff"
     bordercolor="#666666"
     borderopacity="1"
     objecttolerance="10"
     gridtolerance="10"
     guidetolerance="10"
     inkscape:pageopacity="0"
     inkscape:pageshadow="2"
     inkscape:window-width="781"
     inkscape:window-height="480"
     id="namedview4"
     showgrid="false"
     inkscape:zoom="2.8332237"
     inkscape:cx="61.943573"
     inkscape:cy="21.92556"
     inkscape:window-x="1920"
     inkscape:window-y="27"
     inkscape:window-maximized="0"
     inkscape:current-layer="g10" /><g
     id="g10"
     inkscape:groupmode="layer"
     inkscape:label="FlashDryFTW"
     transform="matrix(1.3333333,0,0,-1.3333333,0,47.380667)"><g
       id="g12"
       transform="translate(21.2166,17.6409)"><path
         d="M 0,0 V -0.368 H 4.919 L 4.705,0 Z"
         style="fill:#231f20;fill-opacity:1;fill-rule:nonzero;stroke:none"
         id="path14"
         inkscape:connector-curvature="0" /></g><g
       id="g16"
       transform="translate(21.2166,18.3114)"><path
         d="M 0,0 V -0.368 H 4.532 L 4.319,0 Z"
         style="fill:#231f20;fill-opacity:1;fill-rule:nonzero;stroke:none"
         id="path18"
         inkscape:connector-curvature="0" /></g><g
       id="g20"
       transform="translate(20.934,12.9483)"><path
         d="M 0,0 -0.212,-0.367 H 3.05 L 3.263,0 Z"
         style="fill:#231f20;fill-opacity:1;fill-rule:nonzero;stroke:none"
         id="path22"
         inkscape:connector-curvature="0" /></g><g
       id="g24"
       transform="translate(21.321,13.6179)"><path
         d="M 0,0 -0.212,-0.367 H 3.05 L 3.263,0 Z"
         style="fill:#231f20;fill-opacity:1;fill-rule:nonzero;stroke:none"
         id="path26"
         inkscape:connector-curvature="0" /></g><g
       id="g28"
       transform="translate(21.2166,20.3229)"><path
         d="M 0,0 V -0.369 H 3.37 L 3.158,0 Z"
         style="fill:#231f20;fill-opacity:1;fill-rule:nonzero;stroke:none"
         id="path30"
         inkscape:connector-curvature="0" /></g><g
       id="g32"
       transform="translate(21.2166,20.9934)"><path
         d="M 0,0 V -0.369 H 2.983 L 2.771,0 Z"
         style="fill:#231f20;fill-opacity:1;fill-rule:nonzero;stroke:none"
         id="path34"
         inkscape:connector-curvature="0" /></g><g
       id="g36"
       transform="translate(21.2166,18.981)"><path
         d="M 0,0 V -0.368 H 4.145 L 3.932,0 Z"
         style="fill:#231f20;fill-opacity:1;fill-rule:nonzero;stroke:none"
         id="path38"
         inkscape:connector-curvature="0" /></g><g
       id="g40"
       transform="translate(21.2166,19.6515)"><path
         d="M 0,0 V -0.367 H 3.758 L 3.545,0 Z"
         style="fill:#231f20;fill-opacity:1;fill-rule:nonzero;stroke:none"
         id="path42"
         inkscape:connector-curvature="0" /></g><g
       id="g44"
       transform="translate(22.095,14.9598)"><path
         d="M 0,0 -0.212,-0.368 H 3.052 L 3.263,0 Z"
         style="fill:#231f20;fill-opacity:1;fill-rule:nonzero;stroke:none"
         id="path46"
         inkscape:connector-curvature="0" /></g><g
       id="g48"
       transform="translate(20.3067,16.5146)"><path
         d="M 0,0 H -2.115 L 0.867,5.17 H -2.371 L -5.197,0.273 -2.371,-4.623 H 0 Z"
         style="fill:#231f20;fill-opacity:1;fill-rule:nonzero;stroke:none"
         id="path50"
         inkscape:connector-curvature="0" /></g><g
       id="g52"
       transform="translate(21.2166,21.6846)"><path
         d="M 0,0 V -0.389 H 2.596 L 2.372,0 Z"
         style="fill:#231f20;fill-opacity:1;fill-rule:nonzero;stroke:none"
         id="path54"
         inkscape:connector-curvature="0" /></g><g
       id="g56"
       transform="translate(21.708,14.2902)"><path
         d="M 0,0 -0.212,-0.369 H 3.05 L 3.263,0 Z"
         style="fill:#231f20;fill-opacity:1;fill-rule:nonzero;stroke:none"
         id="path58"
         inkscape:connector-curvature="0" /></g><g
       id="g60"
       transform="translate(20.547,12.2787)"><path
         d="M 0,0 -0.221,-0.387 H 3.041 L 3.263,0 Z"
         style="fill:#231f20;fill-opacity:1;fill-rule:nonzero;stroke:none"
         id="path62"
         inkscape:connector-curvature="0" /></g><g
       id="g64"
       transform="translate(22.4811,15.6294)"><path
         d="M 0,0 -0.211,-0.368 H 3.052 L 3.265,0 Z"
         style="fill:#231f20;fill-opacity:1;fill-rule:nonzero;stroke:none"
         id="path66"
         inkscape:connector-curvature="0" /></g><g
       id="g68"
       transform="translate(22.8681,16.3008)"><path
         d="M 0,0 -0.212,-0.368 H 3.052 L 3.265,0 Z"
         style="fill:#231f20;fill-opacity:1;fill-rule:nonzero;stroke:none"
         id="path70"
         inkscape:connector-curvature="0" /></g><g
       id="g72"
       transform="translate(23.2542,16.9704)"><path
         d="M 0,0 -0.212,-0.368 H 3.053 L 3.16,-0.183 3.055,0 Z"
         style="fill:#231f20;fill-opacity:1;fill-rule:nonzero;stroke:none"
         id="path74"
         inkscape:connector-curvature="0" /></g><g
       id="g76"><g
         id="g78"
         clip-path="url(#clipPath82)"><g
           id="g84"
           transform="translate(61.212,15.2538)"><path
             d="m 0,0 c 0.401,0 0.737,0.132 0.993,0.39 0.258,0.258 0.389,0.595 0.389,1.004 0,0.435 -0.14,0.789 -0.416,1.053 -0.278,0.265 -0.649,0.4 -1.103,0.4 H -2.122 V 0 Z m -3.03,-0.835 v 4.518 h 2.833 C 0.578,3.683 1.201,3.472 1.657,3.058 2.116,2.64 2.349,2.073 2.349,1.376 2.349,0.733 2.103,0.189 1.616,-0.237 1.167,-0.634 0.604,-0.835 -0.06,-0.835 Z"
             style="fill:#231f20;fill-opacity:1;fill-rule:nonzero;stroke:none"
             id="path86"
             inkscape:connector-curvature="0" /></g><g
           id="g88"
           transform="translate(67.587,16.9042)"><path
             d="m 0,0 c 0.66,0 0.736,0.327 0.736,0.573 0,0.269 -0.083,0.623 -0.802,0.623 h -2.427 l 0,-1.196 z m 0.72,-2.485 -1.173,1.649 h -2.04 v -1.649 h -0.906 v 4.517 h 3.506 c 0.478,0 0.861,-0.133 1.136,-0.393 0.278,-0.263 0.419,-0.62 0.419,-1.064 0,-0.39 -0.116,-0.709 -0.343,-0.95 C 1.138,-0.565 0.898,-0.698 0.603,-0.77 l 1.179,-1.715 z"
             style="fill:#231f20;fill-opacity:1;fill-rule:nonzero;stroke:none"
             id="path90"
             inkscape:connector-curvature="0" /></g><g
           id="g92"
           transform="translate(71.8058,14.4189)"><path
             d="m 0,0 v 1.768 l -2.486,2.75 h 1.151 L 0.458,2.543 2.242,4.518 H 3.394 L 0.906,1.768 V 0 Z"
             style="fill:#231f20;fill-opacity:1;fill-rule:nonzero;stroke:none"
             id="path94"
             inkscape:connector-curvature="0" /></g><g
           id="g96"
           transform="translate(55.8224,14.4472)"><path
             d="M 0,0 H 0.659 V 4.46 H 0 V 2.61 H -3.744 V 4.46 H -4.403 V 0 h 0.659 V 2.026 H 0 Z m -10.648,0.622 c 0.63,-0.483 1.521,-0.728 2.644,-0.728 0.788,0 1.4,0.13 1.819,0.388 0.41,0.254 0.62,0.617 0.62,1.08 0,0.366 -0.128,0.639 -0.39,0.838 -0.265,0.197 -0.684,0.336 -1.242,0.411 -0.205,0.027 -0.623,0.06 -1.244,0.101 -0.428,0.025 -0.744,0.072 -0.937,0.141 -0.283,0.099 -0.428,0.261 -0.428,0.485 0,0.212 0.135,0.38 0.4,0.496 0.253,0.11 0.619,0.168 1.088,0.168 0.694,0 1.384,-0.171 2.052,-0.506 l 0.399,0.442 c -0.645,0.423 -1.449,0.635 -2.395,0.635 -0.717,0 -1.279,-0.121 -1.67,-0.363 -0.388,-0.24 -0.578,-0.559 -0.578,-0.974 0,-0.399 0.164,-0.675 0.502,-0.844 0.297,-0.147 0.821,-0.248 1.563,-0.297 0.855,-0.055 1.369,-0.108 1.567,-0.158 0.392,-0.104 0.591,-0.313 0.591,-0.625 0,-0.265 -0.152,-0.476 -0.449,-0.627 -0.301,-0.151 -0.725,-0.226 -1.26,-0.226 -0.814,0 -1.584,0.216 -2.291,0.641 z m -2.204,0.982 h -2.492 L -14.09,3.96 Z M -12.01,0 h 0.719 l -2.36,4.46 h -0.894 L -16.903,0 h 0.718 l 0.524,1.02 h 3.126 z m -9.588,0 h 4.177 v 0.585 h -3.516 V 4.46 h -0.661 z m -5.534,0 h 0.661 v 2.026 h 2.668 V 2.61 h -2.668 v 1.266 h 3.837 V 4.46 h -4.498 z"
             style="fill:#231f20;fill-opacity:1;fill-rule:nonzero;stroke:none"
             id="path98"
             inkscape:connector-curvature="0" /></g><g
           id="g100"
           transform="translate(74.3556,15.2001)"><path
             d="M 0,0 V 0.178 H 0.786 V 0 H 0.499 V -0.781 H 0.287 l 0,0.781 z"
             style="fill:#231f20;fill-opacity:1;fill-rule:nonzero;stroke:none"
             id="path102"
             inkscape:connector-curvature="0" /></g><g
           id="g104"
           transform="translate(75.5607,15.3779)"><path
             d="M 0,0 0.225,-0.66 H 0.228 L 0.439,0 H 0.736 V -0.959 H 0.539 v 0.68 H 0.537 L 0.301,-0.959 H 0.139 l -0.235,0.672 H -0.1 V -0.959 H -0.296 V 0 Z"
             style="fill:#231f20;fill-opacity:1;fill-rule:nonzero;stroke:none"
             id="path106"
             inkscape:connector-curvature="0" /></g></g></g></g></svg>