<?xml version="1.0" encoding="UTF-8" standalone="no"?>
<!-- Created with Inkscape (http://www.inkscape.org/) -->

<svg
   xmlns:dc="http://purl.org/dc/elements/1.1/"
   xmlns:cc="http://creativecommons.org/ns#"
   xmlns:rdf="http://www.w3.org/1999/02/22-rdf-syntax-ns#"
   xmlns:svg="http://www.w3.org/2000/svg"
   xmlns="http://www.w3.org/2000/svg"
   xmlns:sodipodi="http://sodipodi.sourceforge.net/DTD/sodipodi-0.dtd"
   xmlns:inkscape="http://www.inkscape.org/namespaces/inkscape"
   version="1.1"
   id="svg2"
   xml:space="preserve"
   width="450.38"
   height="215.41867"
   viewBox="0 0 450.38 215.41867"
   sodipodi:docname="FUTURELIGHT 2018_Stacked_BLACK.svg"
   inkscape:version="0.92.5 (2060ec1f9f, 2020-04-08)"><metadata
     id="metadata8"><rdf:RDF><cc:Work
         rdf:about=""><dc:format>image/svg+xml</dc:format><dc:type
           rdf:resource="http://purl.org/dc/dcmitype/StillImage" /><dc:title></dc:title></cc:Work></rdf:RDF></metadata><defs
     id="defs6"><clipPath
       clipPathUnits="userSpaceOnUse"
       id="clipPath26"><path
         d="M 0,161.564 H 337.785 V 0 H 0 Z"
         id="path24"
         inkscape:connector-curvature="0" /></clipPath></defs><sodipodi:namedview
     pagecolor="#ffffff"
     bordercolor="#666666"
     borderopacity="1"
     objecttolerance="10"
     gridtolerance="10"
     guidetolerance="10"
     inkscape:pageopacity="0"
     inkscape:pageshadow="2"
     inkscape:window-width="781"
     inkscape:window-height="480"
     id="namedview4"
     showgrid="false"
     inkscape:zoom="1.0524446"
     inkscape:cx="225.19"
     inkscape:cy="107.70934"
     inkscape:window-x="1920"
     inkscape:window-y="27"
     inkscape:window-maximized="0"
     inkscape:current-layer="g10" /><g
     id="g10"
     inkscape:groupmode="layer"
     inkscape:label="FUTURELIGHT 2018_Stacked_BLACK"
     transform="matrix(1.3333333,0,0,-1.3333333,0,215.41867)"><g
       id="g12"
       transform="translate(311.952,43.5746)"><path
         d="M 0,0 H -0.761 V -2.161 H -1.425 V 0 H -2.188 V 0.521 H 0 Z M 3.45,-2.161 H 2.825 v 1.9 H 2.813 l -0.691,-1.9 H 1.674 l -0.691,1.9 H 0.97 v -1.9 H 0.346 V 0.521 H 1.229 L 1.9,-1.243 2.571,0.521 H 3.45 Z"
         style="fill:#000005;fill-opacity:1;fill-rule:nonzero;stroke:none"
         id="path14"
         inkscape:connector-curvature="0" /></g><g
       id="g16"
       transform="translate(32.7377,57.7758)"><path
         d="M 0,0 V 4.086 H -14.563 V -16.32 h 4.822 v 8.271 h 8.443 v 3.808 H -9.741 V 0 Z"
         style="fill:#000005;fill-opacity:1;fill-rule:nonzero;stroke:none"
         id="path18"
         inkscape:connector-curvature="0" /></g><g
       id="g20"><g
         id="g22"
         clip-path="url(#clipPath26)"><g
           id="g28"
           transform="translate(58.4262,61.8627)"><path
             d="m 0,0 v -12.64 c 0,-1.439 -0.288,-2.505 -0.854,-3.167 -0.559,-0.652 -1.607,-0.983 -3.116,-0.983 -0.868,0 -1.564,0.122 -2.069,0.36 -0.502,0.236 -0.898,0.545 -1.178,0.921 -0.285,0.383 -0.467,0.81 -0.555,1.307 -0.091,0.507 -0.138,1.033 -0.138,1.562 V 0 h -4.8 v -12.64 c 0,-2.774 0.773,-4.86 2.3,-6.198 1.518,-1.333 3.685,-2.009 6.44,-2.009 2.718,0 4.88,0.68 6.426,2.022 1.555,1.349 2.344,3.43 2.344,6.185 L 4.8,0 Z"
             style="fill:#000000;fill-opacity:1;fill-rule:nonzero;stroke:none"
             id="path30"
             inkscape:connector-curvature="0" /></g><g
           id="g32"
           transform="translate(75.9555,61.8617)"><path
             d="m 0,0 v -4.086 h 6.022 v -16.32 h 4.804 v 16.32 h 6.022 V 0 Z"
             style="fill:#000005;fill-opacity:1;fill-rule:nonzero;stroke:none"
             id="path34"
             inkscape:connector-curvature="0" /></g><g
           id="g36"
           transform="translate(118.245,61.8627)"><path
             d="m 0,0 v -12.64 c 0,-1.439 -0.288,-2.505 -0.854,-3.167 -0.559,-0.652 -1.607,-0.983 -3.116,-0.983 -0.868,0 -1.563,0.122 -2.068,0.36 -0.503,0.237 -0.899,0.545 -1.179,0.921 -0.285,0.384 -0.467,0.811 -0.555,1.307 -0.091,0.505 -0.137,1.031 -0.137,1.562 V 0 h -4.8 v -12.64 c 0,-2.775 0.773,-4.861 2.299,-6.198 1.518,-1.333 3.685,-2.009 6.44,-2.009 2.718,0 4.88,0.68 6.426,2.022 1.556,1.349 2.344,3.43 2.344,6.185 L 4.8,0 Z"
             style="fill:#000005;fill-opacity:1;fill-rule:nonzero;stroke:none"
             id="path38"
             inkscape:connector-curvature="0" /></g><g
           id="g40"
           transform="translate(149.7182,55.4721)"><path
             d="m 0,0 c 0,-0.948 -0.236,-1.635 -0.701,-2.042 -0.471,-0.414 -1.201,-0.624 -2.171,-0.624 h -4.687 v 5.248 h 4.687 c 0.97,0 1.701,-0.206 2.173,-0.611 C -0.236,1.573 0,0.91 0,0 m 5.4,-13.708 c -0.195,0.262 -0.338,0.575 -0.437,0.956 -0.103,0.401 -0.178,0.821 -0.221,1.248 -0.048,0.446 -0.081,0.886 -0.099,1.306 -0.02,0.431 -0.039,0.804 -0.058,1.129 -0.039,0.515 -0.111,1.033 -0.215,1.539 -0.11,0.522 -0.284,1.007 -0.516,1.438 -0.236,0.438 -0.547,0.824 -0.923,1.149 -0.283,0.243 -0.623,0.441 -1.017,0.59 0.966,0.455 1.688,1.082 2.15,1.873 0.517,0.885 0.778,1.946 0.778,3.153 0,0.783 -0.142,1.529 -0.426,2.22 C 4.131,3.578 3.715,4.188 3.179,4.709 2.644,5.228 1.993,5.644 1.245,5.941 0.494,6.239 -0.356,6.39 -1.282,6.39 h -11.12 v -20.407 h 4.843 v 7.824 h 4.263 c 1.058,0 1.823,-0.227 2.275,-0.673 0.459,-0.455 0.765,-1.192 0.909,-2.189 0.112,-0.799 0.198,-1.643 0.254,-2.509 0.058,-0.899 0.216,-1.682 0.468,-2.33 l 0.049,-0.123 H 5.63 Z"
             style="fill:#000005;fill-opacity:1;fill-rule:nonzero;stroke:none"
             id="path42"
             inkscape:connector-curvature="0" /></g><g
           id="g44"
           transform="translate(173.3065,45.5424)"><path
             d="M 0,0 V 4.521 H 9.753 V 8.328 H 0 v 3.905 h 10.627 v 4.086 H -4.812 V -4.087 H 10.852 V 0 Z"
             style="fill:#000005;fill-opacity:1;fill-rule:nonzero;stroke:none"
             id="path46"
             inkscape:connector-curvature="0" /></g><g
           id="g48"
           transform="translate(199.0985,42.9076)"><path
             d="M 0,0 V 18.954 H -1.632 V -1.452 H 11.469 V 0 Z"
             style="fill:#000000;fill-opacity:1;fill-rule:nonzero;stroke:none"
             id="path50"
             inkscape:connector-curvature="0" /></g><path
           d="m 222.524,41.455 h 1.936 v 20.407 h -1.936 z"
           style="fill:#000000;fill-opacity:1;fill-rule:nonzero;stroke:none"
           id="path52"
           inkscape:connector-curvature="0" /><g
           id="g54"
           transform="translate(247.4589,51.6547)"><path
             d="M 0,0 V -1.45 H 7.395 C 7.428,-2.582 7.287,-3.621 6.977,-4.544 6.648,-5.514 6.156,-6.353 5.515,-7.037 4.874,-7.722 4.079,-8.263 3.153,-8.644 c -0.927,-0.38 -1.99,-0.573 -3.157,-0.573 -1.35,0 -2.54,0.243 -3.539,0.724 -1,0.479 -1.842,1.136 -2.504,1.951 -0.665,0.818 -1.173,1.79 -1.51,2.891 -0.339,1.105 -0.512,2.297 -0.512,3.543 0,1.226 0.176,2.418 0.525,3.543 0.347,1.119 0.865,2.121 1.54,2.977 0.672,0.852 1.52,1.541 2.521,2.049 0.996,0.507 2.167,0.764 3.479,0.764 1.801,0 3.31,-0.486 4.485,-1.443 C 5.66,6.824 6.488,5.473 6.945,3.765 L 6.983,3.622 H 8.536 L 8.501,3.846 C 8.328,4.913 7.979,5.879 7.464,6.717 6.949,7.555 6.305,8.278 5.552,8.869 4.795,9.461 3.929,9.915 2.976,10.22 c -0.956,0.301 -1.968,0.456 -3.008,0.456 -1.536,0 -2.92,-0.294 -4.115,-0.874 C -5.338,9.223 -6.356,8.428 -7.175,7.439 -7.99,6.456 -8.621,5.299 -9.05,4.001 -9.475,2.706 -9.689,1.323 -9.689,-0.108 c 0,-1.455 0.21,-2.837 0.626,-4.108 0.416,-1.277 1.042,-2.407 1.863,-3.358 0.822,-0.954 1.842,-1.716 3.029,-2.263 1.192,-0.551 2.574,-0.83 4.111,-0.83 0.897,0 1.769,0.114 2.593,0.342 0.831,0.229 1.594,0.553 2.267,0.959 0.68,0.41 1.278,0.924 1.778,1.527 0.319,0.387 0.59,0.807 0.81,1.255 v -3.607 H 8.841 V 0 Z"
             style="fill:#000000;fill-opacity:1;fill-rule:nonzero;stroke:none"
             id="path56"
             inkscape:connector-curvature="0" /></g><g
           id="g58"
           transform="translate(284.2782,61.8617)"><path
             d="M 0,0 V -9.084 H -12.467 V 0 h -1.625 v -20.406 h 1.625 v 9.87 H 0 v -9.87 H 1.627 V 0 Z"
             style="fill:#000000;fill-opacity:1;fill-rule:nonzero;stroke:none"
             id="path60"
             inkscape:connector-curvature="0" /></g><g
           id="g62"
           transform="translate(297.8094,61.8617)"><path
             d="M 0,0 V -1.451 H 7.073 V -20.406 H 8.699 V -1.451 H 15.8 V 0 Z"
             style="fill:#000000;fill-opacity:1;fill-rule:nonzero;stroke:none"
             id="path64"
             inkscape:connector-curvature="0" /></g><g
           id="g66"
           transform="translate(195.7948,100.2528)"><path
             d="m 0,0 c 0.564,6.623 -0.177,11.404 -0.71,14.099 0.486,0.733 1.807,3.362 2.372,4.462 C 2.256,16.175 4.201,8.127 0.378,-1.259 0.252,-0.916 0.092,-0.367 0,0 m -2.682,20.779 c -2.487,6.397 -6.172,10.572 -7.317,11.915 0.798,-0.147 3.807,-0.882 4.653,-1.145 1.603,-1.82 3.023,-3.56 4.563,-6.571 -0.511,-1.177 -1.407,-3.111 -1.899,-4.199 M -1.75,5.349 c 0.034,0.085 -1.854,4.163 -1.854,4.163 0,0 1.156,1.726 1.36,2.044 0.133,-0.705 0.556,-4.995 0.494,-6.207 m -5.393,-17.632 c -2.278,-0.607 -7.421,-1.615 -10.128,-1.717 -0.272,0.109 -0.541,0.265 -0.78,0.384 4.272,5.177 6.996,10.505 8.428,15.927 0.987,0.983 1.896,1.984 2.646,2.84 1.292,-2.838 2.97,-7.922 3.749,-12.958 -1.333,-1.788 -2.454,-3.105 -3.915,-4.476 m -5.117,-3.915 -1.533,0.628 3.32,0.512 z m -12.558,-4.43 c 0.645,0.568 2.822,2.617 3.4,3.228 0.556,-0.292 2.715,-1.386 3.309,-1.637 -0.898,-0.332 -3.595,-1.214 -6.709,-1.591 m -7.868,-0.031 c -1.594,0.211 -2.21,0.316 -3.477,0.637 -2.518,2.919 -5.61,7.132 -7.067,9.982 7.374,-4.604 14.815,-5.514 16.485,-5.742 -1.503,-1.488 -4.317,-3.728 -5.941,-4.877 m -23.627,15.844 c 2.394,-0.984 7.116,-2.565 9.752,-2.958 1.626,-3.605 4.976,-8.524 7.014,-11.23 -6.032,2.086 -12.995,7.24 -16.766,14.188 m -2.797,6.69 c -0.526,1.926 -0.699,3.01 -1.003,4.91 0.046,0.084 0.787,1.459 0.837,1.514 1.121,-2.559 3.761,-6.79 5.442,-8.847 -1.109,0.435 -4.158,1.824 -5.276,2.423 m 1.232,20.905 c 1.137,0.388 7.375,2.248 9.487,2.582 -3.877,-3.251 -7.922,-8.086 -10.597,-12.556 -0.481,1.092 -0.745,3.095 -0.745,3.953 0.791,3.375 1.049,4.059 1.855,6.021 m 17.95,17.217 c -0.314,-0.596 -1.378,-3.176 -2.129,-5.067 -0.757,-1.092 -1.6,-2.307 -2.622,-4.022 -2.596,-0.312 -6.643,-1.238 -9.671,-1.954 2.666,4.165 8.83,9.115 14.422,11.043 m 6.372,-48.731 c 1.871,-1.783 4.318,-3.734 6.2,-5.01 -4.895,0.698 -9.959,2.377 -14.495,5.2 2.603,-0.375 6.89,-0.339 8.295,-0.19 m -11.745,34.056 c 0.203,0.158 0.547,0.424 0.655,0.456 -1.561,-7.854 -1.273,-19.373 6.776,-29.753 -2.711,0.065 -5.541,0.435 -8.626,1.162 -2.795,8.09 -3.521,17.649 1.195,28.135 m -3.457,-27.549 c -0.295,0.085 -0.981,0.289 -1.278,0.38 -2.735,2.818 -6.023,7.555 -8.04,12.274 2.521,4.281 5.713,8.517 9.583,12.181 -2.749,-7.972 -2.934,-16.659 -0.265,-24.835 M -17.13,-3.54 c -1.376,-2.488 -2.966,-5.004 -5.249,-7.681 -1.61,0.928 -3.323,2.222 -4.959,3.478 5.166,1.272 8.46,3.204 10.208,4.203 m 3.493,19.37 c 0.822,-5.727 -0.126,-9.705 -0.373,-10.968 -2.475,-2.204 -8.33,-7.253 -17.74,-8.511 -10.389,11.266 -9.394,22.521 -7.805,30.085 15.079,0.584 22.951,-7.288 25.918,-10.606 m -19.936,25.833 c 0.994,0.244 3.896,0.413 5.456,0.357 1.629,-1.815 3.833,-4.141 5.494,-6.383 -4.625,-0.265 -9.329,-1.017 -15.292,-3.581 1.14,3.232 3.162,7.727 4.342,9.607 M -16.15,24.656 c -6.473,4.716 -13.558,6.156 -18.603,6.535 4.484,1.648 8.441,2.345 13.535,2.518 1.71,-2.369 3.629,-5.636 5.068,-9.053 m 0.78,10.79 -1.229,0.11 c -0.165,0.25 -1.005,1.448 -1.417,2.057 1.761,-1.412 2.646,-2.167 2.646,-2.167 M -3.886,18.398 c -0.533,-1.056 -1.972,-3.448 -2.419,-4.164 -0.893,1.333 -1.892,2.673 -2.749,3.755 -1.394,6.727 -3.747,11.527 -6.198,15.481 0.108,-0.012 2.232,-0.271 2.269,-0.276 3.289,-3.45 6.89,-8.046 9.097,-14.796 m -4.27,15.887 c -0.166,0.039 -3.978,0.764 -4.091,0.777 -0.454,0.497 -4.989,4.311 -6.218,5.22 5.575,-1.819 9.857,-5.581 10.309,-5.997 m 5.421,2.868 -16.812,9.706 H -38.959 L -55.771,37.153 -65.477,20.341 V 0.928 l 9.706,-16.811 16.812,-9.706 h 19.412 l 16.812,9.706 9.707,16.811 v 19.413 z"
             style="fill:#000005;fill-opacity:1;fill-rule:nonzero;stroke:none"
             id="path68"
             inkscape:connector-curvature="0" /></g></g></g></g></svg>