<svg xmlns="http://www.w3.org/2000/svg" xmlns:xlink="http://www.w3.org/1999/xlink" viewBox="0 0 283.46 149.39"><defs><style>.cls-1{fill:none;}.cls-2{opacity:0.9;}.cls-3{clip-path:url(#clip-path);}.cls-4{fill:#010101;}.cls-5{clip-path:url(#clip-path-2);}</style><clipPath id="clip-path"><rect class="cls-1" x="36.41" y="44.84" width="210.64" height="59.7"/></clipPath><clipPath id="clip-path-2"><rect class="cls-1" x="38.95" y="46.49" width="205.57" height="56.41"/></clipPath></defs><g id="Layer_1" data-name="Layer 1"><g class="cls-3"><path class="cls-4" d="M112.31,71.53H106.6v4H111c-.06,2.88-.31,4-1.25,5a4.53,4.53,0,0,1-3.35,1.26A4.58,4.58,0,0,1,103,80.62c-1.16-1.26-1.26-2.74-1.26-7.55s.1-6.25,1.26-7.51a4.58,4.58,0,0,1,3.37-1.26,4.53,4.53,0,0,1,3.35,1.26,3.75,3.75,0,0,1,.84,1.4H115a7.26,7.26,0,0,0-2.18-4.52,10,10,0,0,0-12.83,0c-2.39,2.28-2.45,5.2-2.45,10.69s0,8.39,2.37,10.67a9.05,9.05,0,0,0,6.5,2.25,8.89,8.89,0,0,0,6.41-2.32c2.39-2.29,2.45-5.1,2.45-10.6,0-.56,0-1.09,0-1.6Z"/><path class="cls-4" d="M127.3,60.12a8.89,8.89,0,0,0-6.42,2.32c-2.39,2.28-2.44,5.2-2.44,10.69s0,8.39,2.37,10.67a9,9,0,0,0,6.49,2.25,8.9,8.9,0,0,0,6.42-2.32c2.39-2.29,2.45-5.1,2.45-10.6s-.06-8.41-2.45-10.69a8.86,8.86,0,0,0-6.42-2.32m3.36,20.5a5.11,5.11,0,0,1-6.72,0c-1.16-1.26-1.26-2.74-1.26-7.55s.1-6.25,1.26-7.51a5.11,5.11,0,0,1,6.72,0c1.17,1.26,1.27,2.76,1.27,7.51s-.1,6.29-1.27,7.55"/><polygon class="cls-4" points="146.08 67.07 140.88 60.65 136.17 60.65 141.37 67.07 146.08 67.07"/><path class="cls-4" d="M156.43,68.65c0-4.25-2.25-8-8.43-8h-4.26l3.19,4c4.69-.2,5.06,2.21,5.06,4s-.7,3.82-5.28,3.82h-6.4l11,13.14H157L149,76c4.43-.37,7.43-3.32,7.43-7.39"/><polygon class="cls-4" points="164.82 75.02 174.62 75.02 174.62 70.89 164.82 70.89 164.82 64.73 175.81 64.73 175.81 60.65 160.37 60.65 160.37 85.62 175.81 85.62 175.81 81.53 164.82 81.53 164.82 75.02"/><polygon class="cls-4" points="178.48 70.89 178.48 75.02 184.11 75.02 184.11 70.89 181.35 70.89 178.48 70.89"/><polygon class="cls-4" points="183.45 64.73 189.52 64.73 189.52 85.62 194.15 85.62 194.15 64.73 200.21 64.73 200.21 60.65 183.45 60.65 183.45 64.73"/><polygon class="cls-4" points="208.02 81.54 208.02 75.02 217.23 75.02 217.23 70.89 208.02 70.89 208.02 64.74 220.18 64.74 217.95 60.65 203.57 60.65 203.57 85.62 217.93 85.62 220.18 81.54 208.02 81.54"/></g><g class="cls-5"><path class="cls-4" d="M229.12,87.26l3.75-7,1.26-2.37h.1l1.25,2.4,3.76,7h5.28l-6.86-12.6,6.77-12.36h-5.24l-3.71,7-1.22,2.42h-.1c-1-2-1.25-2.45-1.25-2.45l-3.7-6.92h-5.12l6.73,12.36-6.94,12.6Z"/><path class="cls-4" d="M67,46.53,39,74.58a.16.16,0,0,0,0,.22L67,102.85a.16.16,0,0,0,.22,0l28.05-28a.16.16,0,0,0,0-.22l-28-28a.16.16,0,0,0-.22,0m0,50.13L45.19,74.8a.16.16,0,0,1,0-.22L67,52.73a.14.14,0,0,1,.22,0L89.12,74.58a.16.16,0,0,1,0,.22L67.26,96.66a.16.16,0,0,1-.22,0M67,90,51.82,74.8a.16.16,0,0,1,0-.22L67,59.36a.16.16,0,0,1,.22,0L82.48,74.58a.16.16,0,0,1,0,.22L67.26,90A.16.16,0,0,1,67,90"/></g></g></svg>