<svg xmlns="http://www.w3.org/2000/svg" viewBox="0 0 283.46 149.39"><defs><style>.cls-1{opacity:0.9;}.cls-2{fill:#010101;}</style></defs><g id="Layer_1" data-name="Layer 1"><polygon class="cls-2" points="262.9 60.78 261.2 60.78 261.2 59.9 265.55 59.9 265.55 60.78 263.85 60.78 263.85 65.27 262.9 65.27 262.9 60.78"/><polygon class="cls-2" points="266.56 59.9 267.56 59.9 269.19 62.44 270.83 59.9 271.83 59.9 271.83 65.27 270.89 65.27 270.89 61.42 269.19 63.95 269.16 63.95 267.49 61.44 267.49 65.27 266.56 65.27 266.56 59.9"/><polygon class="cls-2" points="11.63 59.9 13.88 59.9 13.88 73.88 33.2 73.88 33.2 59.9 35.44 59.9 35.44 90.09 33.2 90.09 33.2 75.94 13.88 75.94 13.88 90.09 11.63 90.09 11.63 59.9"/><polygon class="cls-2" points="74.43 59.9 76.93 59.9 88.75 87.67 100.61 59.9 102.98 59.9 89.7 90.31 87.71 90.31 74.43 59.9"/><polygon class="cls-2" points="109.36 59.9 130.84 59.9 130.84 61.97 111.61 61.97 111.61 73.83 128.9 73.83 128.9 75.9 111.61 75.9 111.61 88.02 131.05 88.02 131.05 90.09 109.36 90.09 109.36 59.9"/><path class="cls-2" d="M150.67,75.56c5.05,0,8.8-2.55,8.8-6.9v-.09c0-4-3.19-6.6-8.67-6.6H140.49V75.56ZM138.25,59.9h12.68c3.71,0,6.69,1.17,8.5,3a8,8,0,0,1,2.28,5.6v.09c0,5.05-3.75,7.93-8.84,8.62l10,12.9H160l-9.62-12.51h-9.88V90.09h-2.24Z"/><polygon class="cls-2" points="169.43 59.9 171.67 59.9 171.67 88.02 189.4 88.02 189.4 90.09 169.43 90.09 169.43 59.9"/><rect class="cls-2" x="196.42" y="59.9" width="2.24" height="30.19"/><polygon class="cls-2" points="216.31 61.97 205.78 61.97 205.78 59.9 229.07 59.9 229.07 61.97 218.55 61.97 218.55 90.09 216.31 90.09 216.31 61.97"/><polygon class="cls-2" points="235.88 59.9 257.36 59.9 257.36 61.97 238.12 61.97 238.12 73.83 255.42 73.83 255.42 75.9 238.12 75.9 238.12 88.02 257.57 88.02 257.57 90.09 235.88 90.09 235.88 59.9"/><path class="cls-2" d="M69.85,74.78v-.09c0-7.46-5.44-13.58-12.9-13.58s-12.81,6-12.81,13.5v.08c0,7.46,5.44,13.59,12.9,13.59s12.81-6,12.81-13.5m-28,0v-.09c0-8.24,6.09-15.61,15.23-15.61s15.14,7.29,15.14,15.53c0,0,0,0,0,.08,0,8.24-6.09,15.61-15.23,15.61S41.81,83,41.81,74.78"/></g></svg>