<?xml version="1.0" encoding="utf-8"?>
<!-- Generator: Adobe Illustrator 22.1.0, SVG Export Plug-In . SVG Version: 6.00 Build 0)  -->
<svg version="1.1" id="Icons" xmlns="http://www.w3.org/2000/svg" xmlns:xlink="http://www.w3.org/1999/xlink" x="0px" y="0px"
	 viewBox="0 0 38 48" style="enable-background:new 0 0 38 48;" xml:space="preserve">
<style type="text/css">
	.st0{fill:none;stroke:#000000;stroke-width:2;stroke-linecap:round;stroke-linejoin:round;}
</style>
<title>Icon_Waterproof_white</title>
<path class="st0" d="M37,32c-1.5-8.7-9.1-15.1-18-15c-8.9-0.1-16.5,6.3-18,15H37z"/>
<path class="st0" d="M28.2,31.5c-0.7-8.3-4.6-14.7-9.2-14.7s-8.5,6.4-9.2,14.7"/>
<line class="st0" x1="19" y1="14" x2="19" y2="43.5"/>
<path class="st0" d="M26,43.5c0.1,1.9-1.3,3.6-3.2,3.8S19.1,46,19,44c0-0.2,0-0.4,0-0.5"/>
<line class="st0" x1="14" y1="1" x2="14" y2="2"/>
<line class="st0" x1="6.7" y1="5.8" x2="7.3" y2="6.5"/>
<line class="st0" x1="14" y1="5" x2="14" y2="6"/>
<line class="st0" x1="19" y1="1" x2="19" y2="2"/>
<line class="st0" x1="19" y1="5" x2="19" y2="6"/>
<line class="st0" x1="19" y1="9" x2="19" y2="10"/>
<polyline class="st0" points="14,9 14,13 10,9 "/>
<line class="st0" x1="24" y1="1" x2="24" y2="2"/>
<line class="st0" x1="31" y1="5.8" x2="30.3" y2="6.5"/>
<line class="st0" x1="24" y1="5" x2="24" y2="6"/>
<polyline class="st0" points="24,9 24,13 28,9 "/>
</svg>
