<?xml version="1.0" encoding="utf-8"?>
<!-- Generator: Adobe Illustrator 25.0.0, SVG Export Plug-In . SVG Version: 6.00 Build 0)  -->
<svg version="1.1" xmlns="http://www.w3.org/2000/svg" xmlns:xlink="http://www.w3.org/1999/xlink" x="0px" y="0px"
	 viewBox="0 0 283.5 149.4" style="enable-background:new 0 0 283.5 149.4;" xml:space="preserve">
<style type="text/css">
	.st0{opacity:0.9;}
	.st1{fill:#FFFFFF;stroke:#010101;stroke-miterlimit:10;}
	.st2{fill:#010101;}
	.st3{fill:#231F20;}
	.st4{fill:none;stroke:#231F20;stroke-width:2.054;stroke-miterlimit:10;}
	.st5{fill:none;stroke:#231F20;stroke-width:1.711;stroke-miterlimit:10;}
	.st6{fill:none;stroke:#231F20;stroke-width:2.054;stroke-linejoin:bevel;stroke-miterlimit:10;}
	.st7{fill:none;stroke:#231F20;stroke-width:1.972;stroke-miterlimit:10;}
	.st8{fill:#FFFFFF;}
	.st9{fill:none;stroke:#231F20;stroke-width:1.369;stroke-linecap:round;stroke-linejoin:round;stroke-miterlimit:10;}
	.st10{fill:none;stroke:#231F20;stroke-width:1.369;stroke-linejoin:bevel;stroke-miterlimit:10;}
	.st11{fill:none;stroke:#231F20;stroke-width:0.685;stroke-miterlimit:10;}
	.st12{fill:none;stroke:#231F20;stroke-width:2.054;stroke-linecap:round;stroke-linejoin:round;stroke-miterlimit:10;}
	.st13{fill:none;stroke:#231F20;stroke-width:1.972;stroke-linecap:round;stroke-linejoin:round;stroke-miterlimit:10;}
	.st14{fill:none;stroke:#231F20;stroke-width:2.029;stroke-miterlimit:10;}
	.st15{fill:#E9282A;}
	.st16{fill:none;stroke:#231F20;stroke-width:1.691;stroke-linecap:round;stroke-linejoin:round;stroke-miterlimit:10;}
	.st17{fill:none;stroke:#231F20;stroke-width:2.031;stroke-miterlimit:10;}
	.st18{fill:none;stroke:#231F20;stroke-width:2.031;stroke-linejoin:round;stroke-miterlimit:10;}
	.st19{fill:none;stroke:#FFFFFF;stroke-width:7.454;stroke-linecap:round;stroke-linejoin:round;stroke-miterlimit:10;}
	.st20{fill:none;stroke:#020202;stroke-width:2.485;stroke-linecap:round;stroke-linejoin:round;stroke-miterlimit:10;}
	.st21{fill:none;stroke:#231F20;stroke-width:1.497;stroke-miterlimit:10;}
	.st22{fill:none;stroke:#231F20;stroke-width:2.054;stroke-miterlimit:10;stroke-dasharray:1.369,1.027;}
	.st23{fill:none;stroke:#231F20;stroke-width:1.369;stroke-miterlimit:10;}
	.st24{fill:#020202;}
	.st25{fill:none;}
	.st26{clip-path:url(#SVGID_2_);fill:#231F20;}
	.st27{clip-path:url(#SVGID_4_);fill:#010101;}
	.st28{clip-path:url(#SVGID_6_);fill:#010101;}
	.st29{clip-path:url(#SVGID_6_);fill:none;stroke:#010101;stroke-width:0.432;stroke-miterlimit:10;}
	.st30{fill-rule:evenodd;clip-rule:evenodd;fill:#010101;}
	.st31{clip-path:url(#SVGID_8_);fill:#010101;}
	.st32{clip-path:url(#SVGID_10_);fill:#010101;}
	.st33{clip-path:url(#SVGID_10_);fill:#97999B;}
	.st34{clip-path:url(#SVGID_10_);fill:none;stroke:#010101;stroke-width:0.367;}
	.st35{clip-path:url(#SVGID_12_);fill:none;stroke:#010101;stroke-width:0.367;}
	.st36{fill:#95979A;}
	.st37{fill:none;stroke:#010101;stroke-width:0.367;}
	.st38{fill:#231F20;stroke:#231F20;stroke-width:1.32;stroke-miterlimit:10;}
	.st39{fill:#231F20;stroke:#231F20;stroke-width:0.9;stroke-miterlimit:10;}
	.st40{fill-rule:evenodd;clip-rule:evenodd;fill:#231F20;}
	.st41{fill:none;stroke:#010101;stroke-width:0.349;}
	.st42{clip-path:url(#SVGID_14_);fill:#010101;}
	.st43{clip-path:url(#SVGID_16_);fill:#010101;}
	.st44{clip-path:url(#SVGID_18_);fill:#010101;}
	.st45{clip-path:url(#SVGID_20_);fill:#010101;}
	.st46{clip-path:url(#SVGID_22_);fill:#010101;}
	.st47{clip-path:url(#SVGID_24_);fill:#010101;}
	.st48{clip-path:url(#SVGID_26_);fill:#010101;}
	.st49{clip-path:url(#SVGID_28_);fill:none;stroke:#010101;stroke-width:0.274;}
	.st50{clip-path:url(#SVGID_30_);fill:#010101;}
	.st51{clip-path:url(#SVGID_32_);fill:#010101;}
	.st52{clip-path:url(#SVGID_34_);fill:#010101;}
	.st53{clip-path:url(#SVGID_36_);fill:#231F20;}
	.st54{clip-path:url(#SVGID_36_);fill:#FFFFFF;}
	.st55{clip-path:url(#SVGID_36_);fill:#415364;}
	.st56{clip-path:url(#SVGID_36_);fill-rule:evenodd;clip-rule:evenodd;fill:#FFFFFF;}
	.st57{fill-rule:evenodd;clip-rule:evenodd;fill:#FFFFFF;}
	.st58{fill:none;stroke:#231F20;stroke-width:1.6532;stroke-linecap:round;stroke-linejoin:round;stroke-miterlimit:10;}
	.st59{fill:none;stroke:#231F20;stroke-width:1.9928;stroke-miterlimit:10;}
</style>
<g id="Fondo" class="st0">
</g>
<g id="Layer_1">
	<g>
		<polygon class="st3" points="121.9,117.1 121.9,131.4 131.3,131.4 131.3,129.8 124.2,129.8 124.2,117.1 		"/>
		<rect x="133.6" y="117.1" class="st3" width="2.3" height="14.3"/>
		<polygon class="st3" points="138.1,117.1 138.1,118.6 143.8,118.6 143.8,131.4 146,131.4 146,118.6 151.7,118.6 151.7,117.1 		"/>
		<polygon class="st3" points="153.9,117.1 153.9,131.4 163.3,131.4 163.3,129.8 156.2,129.8 156.2,124.7 161.7,124.7 161.7,123.2 
			156.2,123.2 156.2,118.6 162.8,118.6 162.8,117.1 		"/>
		<path class="st40" d="M132.4,56.1c3.7,0.5,7.6,3.8,8.1,8.6C135.7,65,132.6,61,132.4,56.1"/>
		<path class="st3" d="M158.3,64.4c0,0-1.1,1.6-2.6,4.7c-5,10.6-6.8,21.2-7.7,32.8H146c0.4-5.3,1.2-12.8,2.7-18.9
			c1.4-5.6,4.4-14.8,7.8-19.8L158.3,64.4z"/>
		<path class="st40" d="M148.6,63.4c2.9,1.8,3.9,5.1,2,8.1C147.6,69.7,146.7,66.4,148.6,63.4"/>
		<path class="st3" d="M138.3,49.9l-1.8,0.4c-1.2-2.2-3.4-2.7-5-2.4c-3.1,0.5-4.6,5-4.6,5l-3.3-1.6c8.1-15.5-4.6-24-4.6-24
			s1-2.1,1.6-3.3c9.1,3.5,9.7-5.4,9.7-5.4l1.3-0.3l1.3-0.3c0,0,4.2,7.8,11.1,1c1,0.8,2.8,2.4,2.8,2.4s-8.1,12.9,5.6,23.8l-2.4,2.8
			c0,0-3.2-3.5-6.2-2.7c-1.6,0.4-3.4,1.8-3.6,4.3L138.3,49.9z"/>
		<path class="st3" d="M157.1,64.4l1.2,0.6c1.2-1.3,2.9-1.3,4-0.8c2.1,0.9,2.4,4.3,2.4,4.3l2.6-0.5c-3-12.4,7.4-16.2,7.4-16.2
			s-0.3-1.7-0.5-2.6c-7,0.9-5.9-5.5-5.9-5.5l-0.8-0.4l-0.8-0.4c0,0-4.4,4.8-8-1.3c-0.9,0.4-2.4,1.2-2.4,1.2s3.5,10.5-8.1,15.8
			l1.2,2.4c0,0,2.9-1.9,4.9-0.8c1.1,0.6,2.1,1.9,1.8,3.6L157.1,64.4z"/>
		<path class="st40" d="M155,82.6c0,0-0.1-3.6,4.5-5.5c4.2-1.7,7.7-0.6,7.7-0.6s-1.3,4.4-5.3,6.1C158,84.1,155,82.6,155,82.6"/>
		<path class="st40" d="M155.6,82c0,0-4.2,1.3-6.2,5l0.1,0.6c2-3.8,6.2-5,6.2-5L155.6,82"/>
		<path class="st3" d="M123.7,76.8l1-0.5c-0.2-1.5,0.6-2.6,1.5-3c1.7-0.9,4.1,0.7,4.1,0.7l1-2c-9.7-4.4-6.8-13.2-6.8-13.2
			s-1.3-0.7-2-1c-3,5.1-6.7,1.1-6.7,1.1l-0.7,0.3l-0.7,0.3c0,0,0.9,5.3-4.9,4.6c-0.2,0.8-0.4,2.2-0.4,2.2s8.7,3.1,6.2,13.5l2.2,0.5
			c0,0,0.2-2.9,2-3.6c0.9-0.4,2.3-0.4,3.3,0.7L123.7,76.8z"/>
		<path class="st40" d="M130.4,82c-0.8-1.3-0.8-4.5,1.3-6c2.3-1.6,3.3-2.1,3.9-3.9C136.4,76.5,135.4,81,130.4,82"/>
		<path class="st40" d="M142.5,84c-0.8-1.3-0.8-4.5,1.3-6c2.3-1.6,3.3-2.1,3.9-3.9C148.5,78.4,147.5,82.9,142.5,84"/>
		<path class="st40" d="M126,88.5c0,0-0.7-7.3-12.6-6.5c1.1,3.1,2.1,4.7,5,5.9C122.1,89.6,126,88.5,126,88.5"/>
		<path class="st40" d="M150.7,77.3c0.2-4.5-0.3-6.4-0.3-6.4l0.4-0.5c0,0,0.5,1.9,0.3,6.4L150.7,77.3z"/>
		<path class="st40" d="M130.7,87.1c-1.1-4.7,0.8-6.5,0.8-6.5H131c0,0-1.9,1.8-0.8,6.5H130.7z"/>
		<path class="st40" d="M124.2,88.5c0,0,5.3-0.2,6.9,4.7l0.3-0.5c-1.6-4.8-6.9-4.7-6.9-4.7L124.2,88.5z"/>
		<path class="st3" d="M124.1,75.7c6.1,6.1,9.5,16.7,10.3,26.2h-2.1c-0.8-8.9-3.9-18.9-9.7-24.8L124.1,75.7z"/>
		<path class="st3" d="M139.1,48.8c0,0,3.4,10.4,3.6,22.1c0.2,9.6-0.8,22.9-2.4,32.3h-2.1c1.6-9.2,2.6-22.6,2.4-32.3
			c-0.1-7.1-1.3-14.7-3.5-21.5L139.1,48.8z"/>
		<rect x="108.8" y="101.5" class="st40" width="25.6" height="1.4"/>
		<rect x="146" y="101.6" class="st40" width="25.6" height="1.4"/>
		<polygon class="st3" points="165.4,23.7 165.4,19.7 163.9,19.7 163.9,18.9 167.7,18.9 167.7,19.7 166.3,19.7 166.3,23.7 		"/>
		<polygon class="st3" points="168.4,23.7 168.4,18.9 169.8,18.9 170.7,22.2 171.5,18.9 173,18.9 173,23.7 172.1,23.7 172.1,19.9 
			171.1,23.7 170.2,23.7 169.3,19.9 169.3,23.7 		"/>
	</g>
</g>
</svg>
