<?xml version="1.0" encoding="utf-8"?>
<!-- Generator: Adobe Illustrator 25.0.0, SVG Export Plug-In . SVG Version: 6.00 Build 0)  -->
<svg version="1.1" xmlns="http://www.w3.org/2000/svg" xmlns:xlink="http://www.w3.org/1999/xlink" x="0px" y="0px"
	 viewBox="0 0 283.5 149.4" style="enable-background:new 0 0 283.5 149.4;" xml:space="preserve">
<style type="text/css">
	.st0{opacity:0.9;}
	.st1{fill:#FFFFFF;stroke:#010101;stroke-miterlimit:10;}
	.st2{fill:#010101;}
	.st3{fill:#231F20;}
	.st4{fill:none;stroke:#231F20;stroke-width:2.054;stroke-miterlimit:10;}
	.st5{fill:none;stroke:#231F20;stroke-width:1.711;stroke-miterlimit:10;}
	.st6{fill:none;stroke:#231F20;stroke-width:2.054;stroke-linejoin:bevel;stroke-miterlimit:10;}
	.st7{fill:none;stroke:#231F20;stroke-width:1.972;stroke-miterlimit:10;}
	.st8{fill:#FFFFFF;}
	.st9{fill:none;stroke:#231F20;stroke-width:1.369;stroke-linecap:round;stroke-linejoin:round;stroke-miterlimit:10;}
	.st10{fill:none;stroke:#231F20;stroke-width:1.369;stroke-linejoin:bevel;stroke-miterlimit:10;}
	.st11{fill:none;stroke:#231F20;stroke-width:0.685;stroke-miterlimit:10;}
	.st12{fill:none;stroke:#231F20;stroke-width:2.054;stroke-linecap:round;stroke-linejoin:round;stroke-miterlimit:10;}
	.st13{fill:none;stroke:#231F20;stroke-width:1.972;stroke-linecap:round;stroke-linejoin:round;stroke-miterlimit:10;}
	.st14{fill:none;stroke:#231F20;stroke-width:2.029;stroke-miterlimit:10;}
	.st15{fill:#E9282A;}
	.st16{fill:none;stroke:#231F20;stroke-width:1.691;stroke-linecap:round;stroke-linejoin:round;stroke-miterlimit:10;}
	.st17{fill:none;stroke:#231F20;stroke-width:2.031;stroke-miterlimit:10;}
	.st18{fill:none;stroke:#231F20;stroke-width:2.031;stroke-linejoin:round;stroke-miterlimit:10;}
	.st19{fill:none;stroke:#FFFFFF;stroke-width:7.454;stroke-linecap:round;stroke-linejoin:round;stroke-miterlimit:10;}
	.st20{fill:none;stroke:#020202;stroke-width:2.485;stroke-linecap:round;stroke-linejoin:round;stroke-miterlimit:10;}
	.st21{fill:none;stroke:#231F20;stroke-width:1.497;stroke-miterlimit:10;}
	.st22{fill:none;stroke:#231F20;stroke-width:2.054;stroke-miterlimit:10;stroke-dasharray:1.369,1.027;}
	.st23{fill:none;stroke:#231F20;stroke-width:1.369;stroke-miterlimit:10;}
	.st24{fill:#020202;}
	.st25{fill:none;}
	.st26{clip-path:url(#SVGID_2_);fill:#231F20;}
	.st27{clip-path:url(#SVGID_4_);fill:#010101;}
	.st28{clip-path:url(#SVGID_6_);fill:#010101;}
	.st29{clip-path:url(#SVGID_6_);fill:none;stroke:#010101;stroke-width:0.432;stroke-miterlimit:10;}
	.st30{fill-rule:evenodd;clip-rule:evenodd;fill:#010101;}
	.st31{clip-path:url(#SVGID_8_);fill:#010101;}
	.st32{clip-path:url(#SVGID_10_);fill:#010101;}
	.st33{clip-path:url(#SVGID_10_);fill:#97999B;}
	.st34{clip-path:url(#SVGID_10_);fill:none;stroke:#010101;stroke-width:0.367;}
	.st35{clip-path:url(#SVGID_12_);fill:none;stroke:#010101;stroke-width:0.367;}
	.st36{fill:#95979A;}
	.st37{fill:none;stroke:#010101;stroke-width:0.367;}
	.st38{fill:#231F20;stroke:#231F20;stroke-width:1.32;stroke-miterlimit:10;}
	.st39{fill:#231F20;stroke:#231F20;stroke-width:0.9;stroke-miterlimit:10;}
	.st40{fill-rule:evenodd;clip-rule:evenodd;fill:#231F20;}
	.st41{fill:none;stroke:#010101;stroke-width:0.349;}
	.st42{clip-path:url(#SVGID_14_);fill:#010101;}
	.st43{clip-path:url(#SVGID_16_);fill:#010101;}
	.st44{clip-path:url(#SVGID_18_);fill:#010101;}
	.st45{clip-path:url(#SVGID_20_);fill:#010101;}
	.st46{clip-path:url(#SVGID_22_);fill:#010101;}
	.st47{clip-path:url(#SVGID_24_);fill:#010101;}
	.st48{clip-path:url(#SVGID_26_);fill:#010101;}
	.st49{clip-path:url(#SVGID_28_);fill:none;stroke:#010101;stroke-width:0.274;}
	.st50{clip-path:url(#SVGID_30_);fill:#010101;}
	.st51{clip-path:url(#SVGID_32_);fill:#010101;}
	.st52{clip-path:url(#SVGID_34_);fill:#010101;}
	.st53{clip-path:url(#SVGID_36_);fill:#231F20;}
	.st54{clip-path:url(#SVGID_36_);fill:#FFFFFF;}
	.st55{clip-path:url(#SVGID_36_);fill:#415364;}
	.st56{clip-path:url(#SVGID_36_);fill-rule:evenodd;clip-rule:evenodd;fill:#FFFFFF;}
	.st57{fill-rule:evenodd;clip-rule:evenodd;fill:#FFFFFF;}
	.st58{fill:none;stroke:#231F20;stroke-width:1.6532;stroke-linecap:round;stroke-linejoin:round;stroke-miterlimit:10;}
	.st59{fill:none;stroke:#231F20;stroke-width:1.9928;stroke-miterlimit:10;}
</style>
<g id="Fondo" class="st0">
</g>
<g id="Layer_1">
	<g>
		<path class="st3" d="M48.8,72.3V59l-3.9,6.9h-4.4L36.6,59v13.3h-6.8V44.5h6.7l6.2,12.2l6.2-12.2h6.7v27.8H48.8z"/>
		<path class="st3" d="M62,72.3V44.5h6.8v27.8H62z"/>
		<path class="st3" d="M89.3,72.3l-4.9-10.3h-2.3v10.3h-6.8V44.5h11c6.2,0,9.5,4.4,9.5,8.9c0,3.8-2.3,6.2-4.5,7.3l6,11.6H89.3z
			 M85.9,50.6h-3.9v5.6h3.9c1.9,0,3-1.4,3-2.8C88.9,52,87.8,50.6,85.9,50.6z"/>
		<path class="st3" d="M99.6,72.3l6-11.6c-2.2-1.1-4.5-3.5-4.5-7.3c0-4.6,3.3-8.9,9.5-8.9h11v27.8h-6.8V61.9h-2.3l-4.9,10.3H99.6z
			 M107.9,53.4c0,1.4,1.1,2.8,3,2.8h3.9v-5.6h-3.9C109,50.6,107.9,52,107.9,53.4z"/>
		<path class="st3" d="M145.1,69.4c-2,2-4.4,3.1-7.8,3.1c-3.4,0-5.7-1.1-7.8-3.1c-2.9-2.9-2.8-6.8-2.8-11s-0.1-8.1,2.8-11
			c2-2,4.4-3.1,7.8-3.1c3.4,0,5.7,1.1,7.8,3.1c2.9,2.9,2.8,6.8,2.8,11S148,66.5,145.1,69.4z M140,51.6c-0.5-0.7-1.5-1.2-2.7-1.2
			c-1.2,0-2.2,0.5-2.7,1.2c-0.6,0.8-1,1.8-1,6.8c0,5.1,0.4,6,1,6.8c0.5,0.7,1.5,1.2,2.7,1.2c1.2,0,2.2-0.6,2.7-1.2
			c0.6-0.8,1-1.7,1-6.8C141,53.3,140.7,52.4,140,51.6z"/>
		<path class="st3" d="M167.4,72.3l-4.9-10.3h-2.3v10.3h-6.8V44.5h11c6.2,0,9.5,4.4,9.5,8.9c0,3.8-2.3,6.2-4.5,7.3l6,11.6H167.4z
			 M164,50.6h-3.9v5.6h3.9c1.9,0,3-1.4,3-2.8C167,52,165.9,50.6,164,50.6z"/>
		<path class="st3" d="M186.4,50.6v4.9h10.3v6.1h-10.3v10.7h-6.8V44.5h18.9v6.1H186.4z"/>
		<path class="st3" d="M203.6,72.3V44.5h6.8v27.8H203.6z"/>
		<path class="st3" d="M228.8,50.6v21.7H222V50.6h-6.8v-6.1h20.5v6.1H228.8z"/>
		<g>
			<path class="st3" d="M33.4,98.4c-1.8,0-3.2-0.4-4.3-1.6l1.2-1.2c0.9,0.9,1.9,1.2,3.1,1.2c1.6,0,2.5-0.7,2.5-1.9
				c0-0.5-0.2-1-0.5-1.3c-0.3-0.3-0.6-0.4-1.3-0.5l-1.4-0.2c-1-0.1-1.8-0.5-2.3-1c-0.6-0.6-0.9-1.3-0.9-2.3c0-2.1,1.5-3.6,4.1-3.6
				c1.6,0,2.8,0.4,3.8,1.4l-1.2,1.2c-0.8-0.7-1.6-0.9-2.7-0.9c-1.4,0-2.2,0.8-2.2,1.9c0,0.4,0.1,0.8,0.5,1.1
				c0.3,0.3,0.8,0.5,1.4,0.6l1.4,0.2c1.1,0.2,1.8,0.4,2.3,0.9c0.7,0.6,1,1.5,1,2.5C37.8,97,36,98.4,33.4,98.4z"/>
			<path class="st3" d="M56.1,93.2v5h-1.9v-5L50.5,86h2l2.6,5.4l2.6-5.4h2L56.1,93.2z"/>
			<path class="st3" d="M76.7,98.4c-1.8,0-3.2-0.4-4.3-1.6l1.2-1.2c0.9,0.9,1.9,1.2,3.1,1.2c1.6,0,2.5-0.7,2.5-1.9
				c0-0.5-0.2-1-0.5-1.3c-0.3-0.3-0.6-0.4-1.3-0.5L76,92.8c-1-0.1-1.8-0.5-2.3-1c-0.6-0.6-0.9-1.3-0.9-2.3c0-2.1,1.5-3.6,4.1-3.6
				c1.6,0,2.8,0.4,3.8,1.4l-1.2,1.2c-0.8-0.7-1.6-0.9-2.7-0.9c-1.4,0-2.2,0.8-2.2,1.9c0,0.4,0.1,0.8,0.5,1.1
				c0.3,0.3,0.8,0.5,1.4,0.6l1.4,0.2c1.1,0.2,1.8,0.4,2.3,0.9c0.7,0.6,1,1.5,1,2.5C81.1,97,79.3,98.4,76.7,98.4z"/>
			<path class="st3" d="M99.8,87.7v10.6H98V87.7h-3.4V86h8.6v1.7H99.8z"/>
			<path class="st3" d="M117.4,98.3V86h7.8v1.7h-6v3.6h5.1v1.7h-5.1v3.7h6v1.7H117.4z"/>
			<path class="st3" d="M148.8,98.3v-8.2l-2.8,6h-1.4l-2.9-6v8.2h-1.9V86h1.9l3.6,7.6l3.5-7.6h1.9v12.2H148.8z"/>
		</g>
		<path class="st3" d="M240.2,45.9v-1.5h5.6v1.5H244v4.7h-1.9v-4.7H240.2z M249.4,44.4l1.2,3.6l1.1-3.6h2.7v6.2h-1.7v-4.5l-1.4,4.5
			h-1.4l-1.4-4.5v4.5h-1.7v-6.2H249.4z"/>
		<path class="st3" d="M234.7,97.3c-0.3,0.7-0.6,1.4-1.2,2c-0.5,0.6-1.1,1-1.8,1.4c-1.3,0.8-2.9,1.1-4.4,1.3c-3,0.2-6.1-0.4-8.9-1.1
			c-2.8-0.8-5.6-1.4-8.4-1.6c-1.4-0.1-2.8-0.1-4.3-0.1c-1.4,0.1-2.7,0.2-4,0.6c-1.2,0.4-2.5,1.1-3.8,1.7c-1.3,0.7-2.6,1.3-4,2
			c-3,1.3-6.2,1.7-9.2,1.6c-3.1-0.1-6.2-0.5-9.1-1.6c-1.5-0.5-2.9-1.2-4.1-2.1c-1.3-0.9-2.4-2-3.1-3.4l0.3-0.2
			c1.1,1,2.3,1.7,3.6,2.2c1.3,0.5,2.6,0.9,4,1.1c2.7,0.5,5.6,0.6,8.3,0.5c2.8-0.2,5.5-0.5,8-1.4c1.3-0.5,2.7-1,4-1.6
			c1.3-0.6,2.7-1.2,4.3-1.6c1.6-0.4,3.2-0.5,4.7-0.5c1.5,0,3,0.1,4.5,0.3c3,0.4,5.9,1.3,8.7,2.2c2.7,1,5.5,1.7,8.3,1.7
			c1.4,0,2.8-0.2,4.1-0.8c1.3-0.6,2.4-1.5,3-2.9L234.7,97.3z"/>
		<g>
			<path class="st3" d="M184.1,98.4L184.1,98.4c-0.9,0-1.8-0.1-2.6-0.3c-10-2.4-15-5.4-14.7-9.2c0.3-4.4,8.2-7.9,12.3-8.3
				c1.6-0.1,3.4-0.2,5.3-0.2c7.6,0,15.1,1.1,15.2,1.2c0.1,0,2.5,0.5,9.8,0.5c2.3,0,4.8,0,7.5-0.1c0.7,0,1.5,0,2.2,0
				c7.8,0,12.8,1.6,15,4.8c1.9,2.7,0.8,5.6,0.8,5.7c-0.4,0.9-0.8,1.6-1.5,2.2c-1.7,1.6-4,2.4-7,2.4c-2.2,0-4.8-0.5-7.8-1.4
				c-4-1.2-7.5-2.2-12.7-2.2c-2.1,0-5.3,1-8.8,2.1C192.8,96.9,188,98.4,184.1,98.4z M184.4,81.6c-1.9,0-3.7,0.1-5.2,0.2
				c-3.7,0.3-11,3.6-11.2,7.2c-0.2,3,4.7,5.8,13.8,7.9c0.7,0.2,1.5,0.2,2.3,0.2h0c3.7,0,8.5-1.5,12.7-2.8c3.7-1.2,6.9-2.2,9.1-2.2
				c5.5,0,9,1,13.1,2.2c2.9,0.9,5.3,1.3,7.4,1.3c2.6,0,4.7-0.7,6.2-2.1c0.5-0.5,0.9-1.1,1.2-1.7c0-0.1,0.9-2.4-0.7-4.6
				c-1.3-1.9-4.9-4.2-14-4.2c-0.7,0-1.4,0-2.1,0c-2.7,0.1-5.2,0.1-7.5,0.1c-7.4,0-9.9-0.5-10-0.5C199.4,82.8,191.9,81.6,184.4,81.6z
				"/>
		</g>
	</g>
</g>
</svg>
