<?xml version="1.0" encoding="utf-8"?>
<!-- Generator: Adobe Illustrator 25.0.0, SVG Export Plug-In . SVG Version: 6.00 Build 0)  -->
<svg version="1.1" xmlns="http://www.w3.org/2000/svg" xmlns:xlink="http://www.w3.org/1999/xlink" x="0px" y="0px"
	 viewBox="0 0 283.5 149.4" style="enable-background:new 0 0 283.5 149.4;" xml:space="preserve">
<style type="text/css">
	.st0{opacity:0.9;}
	.st1{fill:#FFFFFF;stroke:#010101;stroke-miterlimit:10;}
	.st2{fill:#010101;}
	.st3{fill:#231F20;}
	.st4{fill:none;stroke:#231F20;stroke-width:2.054;stroke-miterlimit:10;}
	.st5{fill:none;stroke:#231F20;stroke-width:1.711;stroke-miterlimit:10;}
	.st6{fill:none;stroke:#231F20;stroke-width:2.054;stroke-linejoin:bevel;stroke-miterlimit:10;}
	.st7{fill:none;stroke:#231F20;stroke-width:1.972;stroke-miterlimit:10;}
	.st8{fill:#FFFFFF;}
	.st9{fill:none;stroke:#231F20;stroke-width:1.369;stroke-linecap:round;stroke-linejoin:round;stroke-miterlimit:10;}
	.st10{fill:none;stroke:#231F20;stroke-width:1.369;stroke-linejoin:bevel;stroke-miterlimit:10;}
	.st11{fill:none;stroke:#231F20;stroke-width:0.685;stroke-miterlimit:10;}
	.st12{fill:none;stroke:#231F20;stroke-width:2.054;stroke-linecap:round;stroke-linejoin:round;stroke-miterlimit:10;}
	.st13{fill:none;stroke:#231F20;stroke-width:1.972;stroke-linecap:round;stroke-linejoin:round;stroke-miterlimit:10;}
	.st14{fill:none;stroke:#231F20;stroke-width:2.029;stroke-miterlimit:10;}
	.st15{fill:#E9282A;}
	.st16{fill:none;stroke:#231F20;stroke-width:1.691;stroke-linecap:round;stroke-linejoin:round;stroke-miterlimit:10;}
	.st17{fill:none;stroke:#231F20;stroke-width:2.031;stroke-miterlimit:10;}
	.st18{fill:none;stroke:#231F20;stroke-width:2.031;stroke-linejoin:round;stroke-miterlimit:10;}
	.st19{fill:none;stroke:#FFFFFF;stroke-width:7.454;stroke-linecap:round;stroke-linejoin:round;stroke-miterlimit:10;}
	.st20{fill:none;stroke:#020202;stroke-width:2.485;stroke-linecap:round;stroke-linejoin:round;stroke-miterlimit:10;}
	.st21{fill:none;stroke:#231F20;stroke-width:1.497;stroke-miterlimit:10;}
	.st22{fill:none;stroke:#231F20;stroke-width:2.054;stroke-miterlimit:10;stroke-dasharray:1.369,1.027;}
	.st23{fill:none;stroke:#231F20;stroke-width:1.369;stroke-miterlimit:10;}
	.st24{fill:#020202;}
	.st25{fill:none;}
	.st26{clip-path:url(#SVGID_2_);fill:#231F20;}
	.st27{clip-path:url(#SVGID_4_);fill:#010101;}
	.st28{clip-path:url(#SVGID_6_);fill:#010101;}
	.st29{clip-path:url(#SVGID_6_);fill:none;stroke:#010101;stroke-width:0.432;stroke-miterlimit:10;}
	.st30{fill-rule:evenodd;clip-rule:evenodd;fill:#010101;}
	.st31{clip-path:url(#SVGID_8_);fill:#010101;}
	.st32{clip-path:url(#SVGID_10_);fill:#010101;}
	.st33{clip-path:url(#SVGID_10_);fill:#97999B;}
	.st34{clip-path:url(#SVGID_10_);fill:none;stroke:#010101;stroke-width:0.367;}
	.st35{clip-path:url(#SVGID_12_);fill:none;stroke:#010101;stroke-width:0.367;}
	.st36{fill:#95979A;}
	.st37{fill:none;stroke:#010101;stroke-width:0.367;}
	.st38{fill:#231F20;stroke:#231F20;stroke-width:1.32;stroke-miterlimit:10;}
	.st39{fill:#231F20;stroke:#231F20;stroke-width:0.9;stroke-miterlimit:10;}
	.st40{fill-rule:evenodd;clip-rule:evenodd;fill:#231F20;}
	.st41{fill:none;stroke:#010101;stroke-width:0.349;}
	.st42{clip-path:url(#SVGID_14_);fill:#010101;}
	.st43{clip-path:url(#SVGID_16_);fill:#010101;}
	.st44{clip-path:url(#SVGID_18_);fill:#010101;}
	.st45{clip-path:url(#SVGID_20_);fill:#010101;}
	.st46{clip-path:url(#SVGID_22_);fill:#010101;}
	.st47{clip-path:url(#SVGID_24_);fill:#010101;}
	.st48{clip-path:url(#SVGID_26_);fill:#010101;}
	.st49{clip-path:url(#SVGID_28_);fill:none;stroke:#010101;stroke-width:0.274;}
	.st50{clip-path:url(#SVGID_30_);fill:#010101;}
	.st51{clip-path:url(#SVGID_32_);fill:#010101;}
	.st52{clip-path:url(#SVGID_34_);fill:#010101;}
	.st53{clip-path:url(#SVGID_36_);fill:#231F20;}
	.st54{clip-path:url(#SVGID_36_);fill:#FFFFFF;}
	.st55{clip-path:url(#SVGID_36_);fill:#415364;}
	.st56{clip-path:url(#SVGID_36_);fill-rule:evenodd;clip-rule:evenodd;fill:#FFFFFF;}
	.st57{fill-rule:evenodd;clip-rule:evenodd;fill:#FFFFFF;}
	.st58{fill:none;stroke:#231F20;stroke-width:1.6532;stroke-linecap:round;stroke-linejoin:round;stroke-miterlimit:10;}
	.st59{fill:none;stroke:#231F20;stroke-width:1.9928;stroke-miterlimit:10;}
</style>
<g id="Fondo" class="st0">
</g>
<g id="Layer_1">
	<polygon class="st30" points="220.5,59.8 192.2,59.8 191.4,63.8 202.2,63.8 196.7,89.9 203.2,89.9 208.8,63.8 219.7,63.8 	"/>
	<polygon class="st30" points="229,77.8 229.7,73.8 219,73.8 218.3,77.8 	"/>
	<polygon class="st30" points="156.7,63.9 157.5,59.8 137.1,59.8 130.5,89.9 152.1,89.9 153,85.9 137.8,85.9 139.8,76.4 152.6,76.4 
		153.4,72.3 140.7,72.3 142.5,63.9 	"/>
	<polygon class="st30" points="183.9,59.8 180,80.7 168.1,59.8 163,59.8 155.8,89.9 161,89.9 165.4,68.1 178,89.9 181.8,89.9 
		189,59.8 	"/>
	<polygon class="st30" points="104.1,59.8 109.6,89.8 114.8,89.8 134.4,59.9 128.1,59.9 115,82 110.7,59.8 	"/>
	<path class="st30" d="M43.5,68H32.4c-4.4,0-8.1,3.5-8.6,7.9l-2.4,13.6h3l2.4-13.6v0c0.3-2.8,2.7-4.9,5.6-4.9h11.1
		c1.4,0,2.6,1.2,2.6,2.6c0,0.2,0,0.4-0.1,0.5l0-0.2l-2.8,15.5h3l2.6-14.7c0.1-0.4,0.1-0.8,0.1-1.2C49.1,70.5,46.6,68,43.5,68"/>
	<path class="st30" d="M59.8,71.3h15.3l0.3-3H59.8c-3.3,0-6,2.3-6.7,5.3l-1.9,10.6c0,0.3-0.1,0.6-0.1,0.9c0,2.7,2.2,4.9,4.9,4.9
		h15.3l0.2-3H57c-1.5,0-2.8-1.2-2.8-2.8c0-0.2,0-0.3,0-0.5l0.5-3H73l0.3-3H55.4l0.6-3.2C56.4,72.6,58,71.3,59.8,71.3 M53.1,73.6
		C53.1,73.5,53.1,73.5,53.1,73.6L53.1,73.6L53.1,73.6z"/>
	<path class="st30" d="M98.9,74.5l-1.7,9.2c-0.4,1.8-2,3.1-3.9,3.1h-1.7h-3.6h-6.6c-1.5,0-2.8-1.2-2.8-2.8c0-0.2,0-0.3,0-0.5
		l1.7-9.2c0.4-1.8,2-3.1,3.9-3.1h7.4h3.6h0.8c1.5,0,2.8,1.3,2.8,2.8C99,74.2,99,74.4,98.9,74.5 M102.2,73.1c0-2.7-2.2-4.9-4.9-4.9
		h-1.7H92h-7.7c-3.3,0-6,2.3-6.7,5.3l-1.9,10.6c0,0.3-0.1,0.6-0.1,0.9c0,2.7,2.2,4.9,4.9,4.9h7.4h3.6h2c3.3,0,6-2.3,6.8-5.3
		l1.9-10.6C102.1,73.7,102.2,73.4,102.2,73.1 M100.1,84.5C100.1,84.5,100.1,84.5,100.1,84.5L100.1,84.5L100.1,84.5z M77.6,73.6
		C77.6,73.5,77.6,73.5,77.6,73.6L77.6,73.6L77.6,73.6z"/>
	<path class="st2" d="M240.1,79.8c-0.2,1-0.1,2,0,2.8c0.2,0.9,0.5,1.6,1,2.2c0.5,0.6,1.2,1.1,1.9,1.5c0.8,0.4,1.7,0.5,2.8,0.5
		c0.9,0,1.9-0.1,2.8-0.3c0.9-0.2,1.7-0.5,2.5-0.9c0.8-0.4,1.4-1,2-1.7c0.6-0.7,1-1.5,1.2-2.5c0.2-0.8,0.1-1.5-0.2-2
		c-0.3-0.6-0.8-1-1.4-1.5c-0.6-0.4-1.4-0.8-2.2-1c-0.9-0.3-1.7-0.5-2.6-0.8c-1.3-0.4-2.6-0.8-3.9-1.2c-1.3-0.4-2.4-1-3.4-1.7
		c-1-0.7-1.7-1.5-2.1-2.6c-0.5-1-0.5-2.3-0.2-3.7c0.3-1.3,0.9-2.4,1.7-3.3c0.8-1,1.8-1.8,3.1-2.4c1.2-0.7,2.6-1.2,4.2-1.5
		c1.6-0.3,3.2-0.5,5-0.5c2.4,0,4.2,0.3,5.6,0.9c1.4,0.6,2.5,1.4,3.2,2.3c0.7,0.9,1.2,1.9,1.3,3c0.1,1.1,0.1,2.2,0,3.2h-6
		c0.1-0.9,0.1-1.8-0.1-2.5c-0.2-0.7-0.5-1.4-1-1.8c-0.5-0.5-1-0.9-1.7-1.1c-0.7-0.3-1.4-0.4-2.3-0.4c-0.8,0-1.5,0.1-2.3,0.2
		c-0.8,0.1-1.5,0.4-2.1,0.7c-0.7,0.3-1.2,0.8-1.7,1.3c-0.5,0.5-0.8,1.2-1,2c-0.2,0.8-0.2,1.5,0.1,2.1c0.3,0.6,0.8,1.1,1.4,1.5
		c0.6,0.4,1.4,0.8,2.2,1.1c0.9,0.3,1.7,0.6,2.7,0.8c1.3,0.4,2.6,0.8,3.9,1.3c1.3,0.5,2.4,1,3.3,1.7c0.9,0.7,1.7,1.5,2.1,2.5
		c0.5,1,0.5,2.2,0.2,3.6c-0.4,1.5-1,2.8-1.9,3.9c-0.9,1.1-2,2-3.4,2.8c-1.3,0.8-2.8,1.3-4.5,1.7c-1.7,0.4-3.4,0.6-5.3,0.6
		c-1.7,0-3.3-0.2-4.7-0.7c-1.5-0.5-2.7-1.2-3.7-2.1c-1-0.9-1.8-2-2.2-3.3c-0.5-1.3-0.5-2.8-0.1-4.4H240.1z"/>
</g>
</svg>
