<?xml version="1.0" encoding="utf-8"?>
<!-- Generator: Adobe Illustrator 25.0.0, SVG Export Plug-In . SVG Version: 6.00 Build 0)  -->
<svg version="1.1" xmlns="http://www.w3.org/2000/svg" xmlns:xlink="http://www.w3.org/1999/xlink" x="0px" y="0px"
	 viewBox="0 0 283.5 149.4" style="enable-background:new 0 0 283.5 149.4;" xml:space="preserve">
<style type="text/css">
	.st0{opacity:0.9;}
	.st1{fill:#FFFFFF;stroke:#010101;stroke-miterlimit:10;}
	.st2{fill:#010101;}
	.st3{fill:#231F20;}
	.st4{fill:none;stroke:#231F20;stroke-width:2.054;stroke-miterlimit:10;}
	.st5{fill:none;stroke:#231F20;stroke-width:1.711;stroke-miterlimit:10;}
	.st6{fill:none;stroke:#231F20;stroke-width:2.054;stroke-linejoin:bevel;stroke-miterlimit:10;}
	.st7{fill:none;stroke:#231F20;stroke-width:1.972;stroke-miterlimit:10;}
	.st8{fill:#FFFFFF;}
	.st9{fill:none;stroke:#231F20;stroke-width:1.369;stroke-linecap:round;stroke-linejoin:round;stroke-miterlimit:10;}
	.st10{fill:none;stroke:#231F20;stroke-width:1.369;stroke-linejoin:bevel;stroke-miterlimit:10;}
	.st11{fill:none;stroke:#231F20;stroke-width:0.685;stroke-miterlimit:10;}
	.st12{fill:none;stroke:#231F20;stroke-width:2.054;stroke-linecap:round;stroke-linejoin:round;stroke-miterlimit:10;}
	.st13{fill:none;stroke:#231F20;stroke-width:1.972;stroke-linecap:round;stroke-linejoin:round;stroke-miterlimit:10;}
	.st14{fill:none;stroke:#231F20;stroke-width:2.029;stroke-miterlimit:10;}
	.st15{fill:#E9282A;}
	.st16{fill:none;stroke:#231F20;stroke-width:1.691;stroke-linecap:round;stroke-linejoin:round;stroke-miterlimit:10;}
	.st17{fill:none;stroke:#231F20;stroke-width:2.031;stroke-miterlimit:10;}
	.st18{fill:none;stroke:#231F20;stroke-width:2.031;stroke-linejoin:round;stroke-miterlimit:10;}
	.st19{fill:none;stroke:#FFFFFF;stroke-width:7.454;stroke-linecap:round;stroke-linejoin:round;stroke-miterlimit:10;}
	.st20{fill:none;stroke:#020202;stroke-width:2.485;stroke-linecap:round;stroke-linejoin:round;stroke-miterlimit:10;}
	.st21{fill:none;stroke:#231F20;stroke-width:1.497;stroke-miterlimit:10;}
	.st22{fill:none;stroke:#231F20;stroke-width:2.054;stroke-miterlimit:10;stroke-dasharray:1.369,1.027;}
	.st23{fill:none;stroke:#231F20;stroke-width:1.369;stroke-miterlimit:10;}
	.st24{fill:#020202;}
	.st25{fill:none;}
	.st26{clip-path:url(#SVGID_2_);fill:#231F20;}
	.st27{clip-path:url(#SVGID_4_);fill:#010101;}
	.st28{clip-path:url(#SVGID_6_);fill:#010101;}
	.st29{clip-path:url(#SVGID_6_);fill:none;stroke:#010101;stroke-width:0.432;stroke-miterlimit:10;}
	.st30{fill-rule:evenodd;clip-rule:evenodd;fill:#010101;}
	.st31{clip-path:url(#SVGID_8_);fill:#010101;}
	.st32{clip-path:url(#SVGID_10_);fill:#010101;}
	.st33{clip-path:url(#SVGID_10_);fill:#97999B;}
	.st34{clip-path:url(#SVGID_10_);fill:none;stroke:#010101;stroke-width:0.367;}
	.st35{clip-path:url(#SVGID_12_);fill:none;stroke:#010101;stroke-width:0.367;}
	.st36{fill:#95979A;}
	.st37{fill:none;stroke:#010101;stroke-width:0.367;}
	.st38{fill:#231F20;stroke:#231F20;stroke-width:1.32;stroke-miterlimit:10;}
	.st39{fill:#231F20;stroke:#231F20;stroke-width:0.9;stroke-miterlimit:10;}
	.st40{fill-rule:evenodd;clip-rule:evenodd;fill:#231F20;}
	.st41{fill:none;stroke:#010101;stroke-width:0.349;}
	.st42{clip-path:url(#SVGID_14_);fill:#010101;}
	.st43{clip-path:url(#SVGID_16_);fill:#010101;}
	.st44{clip-path:url(#SVGID_18_);fill:#010101;}
	.st45{clip-path:url(#SVGID_20_);fill:#010101;}
	.st46{clip-path:url(#SVGID_22_);fill:#010101;}
	.st47{clip-path:url(#SVGID_24_);fill:#010101;}
	.st48{clip-path:url(#SVGID_26_);fill:#010101;}
	.st49{clip-path:url(#SVGID_28_);fill:none;stroke:#010101;stroke-width:0.274;}
	.st50{clip-path:url(#SVGID_30_);fill:#010101;}
	.st51{clip-path:url(#SVGID_32_);fill:#010101;}
	.st52{clip-path:url(#SVGID_34_);fill:#010101;}
	.st53{clip-path:url(#SVGID_36_);fill:#231F20;}
	.st54{clip-path:url(#SVGID_36_);fill:#FFFFFF;}
	.st55{clip-path:url(#SVGID_36_);fill:#415364;}
	.st56{clip-path:url(#SVGID_36_);fill-rule:evenodd;clip-rule:evenodd;fill:#FFFFFF;}
	.st57{fill-rule:evenodd;clip-rule:evenodd;fill:#FFFFFF;}
	.st58{fill:none;stroke:#231F20;stroke-width:1.6532;stroke-linecap:round;stroke-linejoin:round;stroke-miterlimit:10;}
	.st59{fill:none;stroke:#231F20;stroke-width:1.9928;stroke-miterlimit:10;}
</style>
<g id="Fondo" class="st0">
</g>
<g id="Layer_1">
	<g>
		<defs>
			<rect id="SVGID_29_" x="46.3" y="49.2" width="190.9" height="51"/>
		</defs>
		<clipPath id="SVGID_2_">
			<use xlink:href="#SVGID_29_"  style="overflow:visible;"/>
		</clipPath>
		<path style="clip-path:url(#SVGID_2_);fill:#010101;" d="M61.6,60.3v19.4L50.5,60.1C50.4,60,50.3,60,50.2,60h-3.7
			c-0.2,0-0.3,0.1-0.3,0.3v28.9c0,0.2,0.1,0.3,0.3,0.3h4c0.2,0,0.3-0.1,0.3-0.3V69.4l11.2,20c0.1,0.1,0.1,0.1,0.3,0.1h3.6
			c0.2,0,0.3-0.1,0.3-0.3V60.3c0-0.2-0.1-0.3-0.3-0.3h-4C61.7,60,61.6,60.1,61.6,60.3"/>
		<path style="clip-path:url(#SVGID_2_);fill:#010101;" d="M100.5,64.3h7.1v24.9c0,0.2,0.1,0.3,0.3,0.3h4c0.2,0,0.3-0.1,0.3-0.3
			V64.3h7c0.2,0,0.3-0.1,0.3-0.3v-3.8c0-0.2-0.1-0.3-0.3-0.3h-18.6c-0.2,0-0.3,0.1-0.3,0.3V64C100.2,64.2,100.4,64.3,100.5,64.3"/>
		<path style="clip-path:url(#SVGID_2_);fill:#010101;" d="M130.5,89.5h4.4c0.1,0,0.2-0.1,0.3-0.2l5-20l5.1,20
			c0,0.1,0.1,0.2,0.3,0.2h4.3c0.1,0,0.2-0.1,0.3-0.2l6.9-28.9c0-0.1,0-0.2-0.1-0.2c-0.1-0.1-0.1-0.1-0.2-0.1h-4.2
			c-0.1,0-0.3,0.1-0.3,0.2l-4.7,20.5l-5.1-20.5c0-0.1-0.1-0.2-0.3-0.2h-4c-0.1,0-0.2,0.1-0.3,0.2l-5.1,20.7L128,60.2
			c0-0.1-0.1-0.2-0.3-0.2h-4.2c-0.1,0-0.2,0-0.2,0.1c-0.1,0.1-0.1,0.2-0.1,0.2l7,28.9C130.3,89.4,130.4,89.5,130.5,89.5"/>
		<path style="clip-path:url(#SVGID_2_);fill:#010101;" d="M180.9,80.1V69.4c0-5.9-4.1-10-10-10c-5.9,0-10,4.1-10,10v10.8
			c0,5.9,4.1,10,10,10C176.7,90.2,180.9,86,180.9,80.1 M165.3,69.4c0-3.5,2.2-5.7,5.5-5.7c3.3,0,5.5,2.2,5.5,5.7v10.8
			c0,3.5-2.2,5.7-5.5,5.7c-3.3,0-5.5-2.2-5.5-5.7V69.4z"/>
		<path style="clip-path:url(#SVGID_2_);fill:#010101;" d="M206,80.1V69.4c0-5.9-4.1-10-10-10c-5.9,0-10,4.1-10,10v10.8
			c0,5.9,4.1,10,10,10C201.9,90.2,206,86,206,80.1 M190.5,69.4c0-3.5,2.2-5.7,5.5-5.7c3.3,0,5.5,2.2,5.5,5.7v10.8
			c0,3.5-2.2,5.7-5.5,5.7c-3.3,0-5.5-2.2-5.5-5.7V69.4z"/>
		<path style="clip-path:url(#SVGID_2_);fill:#010101;" d="M226.3,85.2h-10.6V60.3c0-0.2-0.1-0.3-0.3-0.3h-4c-0.2,0-0.3,0.1-0.3,0.3
			v28.9c0,0.2,0.1,0.3,0.3,0.3h14.9c0.2,0,0.3-0.1,0.3-0.3v-3.8C226.5,85.3,226.4,85.2,226.3,85.2"/>
		<path style="clip-path:url(#SVGID_2_);fill:#010101;" d="M65.9,95.9H46.5c-0.2,0-0.3,0.1-0.3,0.3v3.8c0,0.2,0.1,0.3,0.3,0.3h17.3
			c0.1,0,0.2-0.1,0.3-0.1l2.1-3.8c0.1-0.1,0.1-0.2,0-0.3C66.1,95.9,66,95.9,65.9,95.9"/>
		<path style="clip-path:url(#SVGID_2_);fill:#010101;" d="M226.4,95.9H100.5c-0.1,0-0.2,0.1-0.2,0.1c-0.1,0.1-0.1,0.2,0,0.3
			l2.1,3.8c0.1,0.1,0.1,0.1,0.3,0.1h123.8c0.2,0,0.3-0.1,0.3-0.3v-3.8C226.7,96,226.6,95.9,226.4,95.9"/>
		<path style="clip-path:url(#SVGID_2_);fill:#010101;" d="M99.9,49.4c-0.1-0.1-0.1-0.1-0.2-0.1l-4.6,0c-0.1,0-0.2,0.1-0.3,0.1
			L83.2,70.1L71.6,49.4c-0.1-0.1-0.1-0.1-0.3-0.1l-4.6,0c-0.1,0-0.2,0.1-0.2,0.1c-0.1,0.1-0.1,0.2,0,0.3l14.1,25l-14.1,25
			c-0.1,0.1,0,0.2,0,0.3c0.1,0.1,0.1,0.1,0.2,0.1h4.6c0.1,0,0.2-0.1,0.3-0.1l11.6-20.7l11.6,20.7c0.1,0.1,0.1,0.1,0.3,0.1h4.6
			c0.1,0,0.2-0.1,0.2-0.1c0.1-0.1,0.1-0.2,0-0.3l-14.1-25l14.1-25C99.9,49.6,99.9,49.5,99.9,49.4"/>
		<path style="clip-path:url(#SVGID_2_);fill:#010101;" d="M46.6,53.6l19.3,0c0.1,0,0.2-0.1,0.2-0.1c0.1-0.1,0.1-0.2,0-0.3L64,49.4
			c-0.1-0.1-0.1-0.1-0.3-0.1l-17.2,0c-0.2,0-0.3,0.1-0.3,0.3v3.8C46.3,53.5,46.4,53.6,46.6,53.6"/>
		<path style="clip-path:url(#SVGID_2_);fill:#010101;" d="M226.3,49.2l-123.7,0.1c-0.1,0-0.2,0.1-0.3,0.1l-2.1,3.8
			c-0.1,0.1,0,0.2,0,0.3c0.1,0.1,0.1,0.1,0.2,0.1l125.8-0.1c0.2,0,0.3-0.1,0.3-0.3v-3.8C226.6,49.3,226.5,49.2,226.3,49.2"/>
		<path style="clip-path:url(#SVGID_2_);fill:#010101;" d="M231.9,49.8h-1.3v3.7h-0.7v-3.7h-1.3v-0.5h3.4V49.8z M233.2,53.5h-0.7
			v-4.2h1.1l1.3,3.2l1.2-3.2h1.1v4.2h-0.7v-3.6h0l-1.4,3.6h-0.4l-1.4-3.6h0V53.5z"/>
	</g>
</g>
</svg>
