<?xml version="1.0" encoding="utf-8"?>
<!-- Generator: Adobe Illustrator 25.0.0, SVG Export Plug-In . SVG Version: 6.00 Build 0)  -->
<svg version="1.1" xmlns="http://www.w3.org/2000/svg" xmlns:xlink="http://www.w3.org/1999/xlink" x="0px" y="0px"
	 viewBox="0 0 283.5 149.4" style="enable-background:new 0 0 283.5 149.4;" xml:space="preserve">
<style type="text/css">
	.st0{opacity:0.9;}
	.st1{fill:#FFFFFF;stroke:#010101;stroke-miterlimit:10;}
	.st2{fill:#010101;}
	.st3{fill:#231F20;}
	.st4{fill:none;stroke:#231F20;stroke-width:2.054;stroke-miterlimit:10;}
	.st5{fill:none;stroke:#231F20;stroke-width:1.711;stroke-miterlimit:10;}
	.st6{fill:none;stroke:#231F20;stroke-width:2.054;stroke-linejoin:bevel;stroke-miterlimit:10;}
	.st7{fill:none;stroke:#231F20;stroke-width:1.972;stroke-miterlimit:10;}
	.st8{fill:#FFFFFF;}
	.st9{fill:none;stroke:#231F20;stroke-width:1.369;stroke-linecap:round;stroke-linejoin:round;stroke-miterlimit:10;}
	.st10{fill:none;stroke:#231F20;stroke-width:1.369;stroke-linejoin:bevel;stroke-miterlimit:10;}
	.st11{fill:none;stroke:#231F20;stroke-width:0.685;stroke-miterlimit:10;}
	.st12{fill:none;stroke:#231F20;stroke-width:2.054;stroke-linecap:round;stroke-linejoin:round;stroke-miterlimit:10;}
	.st13{fill:none;stroke:#231F20;stroke-width:1.972;stroke-linecap:round;stroke-linejoin:round;stroke-miterlimit:10;}
	.st14{fill:none;stroke:#231F20;stroke-width:2.029;stroke-miterlimit:10;}
	.st15{fill:#E9282A;}
	.st16{fill:none;stroke:#231F20;stroke-width:1.691;stroke-linecap:round;stroke-linejoin:round;stroke-miterlimit:10;}
	.st17{fill:none;stroke:#231F20;stroke-width:2.031;stroke-miterlimit:10;}
	.st18{fill:none;stroke:#231F20;stroke-width:2.031;stroke-linejoin:round;stroke-miterlimit:10;}
	.st19{fill:none;stroke:#FFFFFF;stroke-width:7.454;stroke-linecap:round;stroke-linejoin:round;stroke-miterlimit:10;}
	.st20{fill:none;stroke:#020202;stroke-width:2.485;stroke-linecap:round;stroke-linejoin:round;stroke-miterlimit:10;}
	.st21{fill:none;stroke:#231F20;stroke-width:1.497;stroke-miterlimit:10;}
	.st22{fill:none;stroke:#231F20;stroke-width:2.054;stroke-miterlimit:10;stroke-dasharray:1.369,1.027;}
	.st23{fill:none;stroke:#231F20;stroke-width:1.369;stroke-miterlimit:10;}
	.st24{fill:#020202;}
	.st25{fill:none;}
	.st26{clip-path:url(#SVGID_2_);fill:#231F20;}
	.st27{clip-path:url(#SVGID_4_);fill:#010101;}
	.st28{clip-path:url(#SVGID_6_);fill:#010101;}
	.st29{clip-path:url(#SVGID_6_);fill:none;stroke:#010101;stroke-width:0.432;stroke-miterlimit:10;}
	.st30{fill-rule:evenodd;clip-rule:evenodd;fill:#010101;}
	.st31{clip-path:url(#SVGID_8_);fill:#010101;}
	.st32{clip-path:url(#SVGID_10_);fill:#010101;}
	.st33{clip-path:url(#SVGID_10_);fill:#97999B;}
	.st34{clip-path:url(#SVGID_10_);fill:none;stroke:#010101;stroke-width:0.367;}
	.st35{clip-path:url(#SVGID_12_);fill:none;stroke:#010101;stroke-width:0.367;}
	.st36{fill:#95979A;}
	.st37{fill:none;stroke:#010101;stroke-width:0.367;}
	.st38{fill:#231F20;stroke:#231F20;stroke-width:1.32;stroke-miterlimit:10;}
	.st39{fill:#231F20;stroke:#231F20;stroke-width:0.9;stroke-miterlimit:10;}
	.st40{fill-rule:evenodd;clip-rule:evenodd;fill:#231F20;}
	.st41{fill:none;stroke:#010101;stroke-width:0.349;}
	.st42{clip-path:url(#SVGID_14_);fill:#010101;}
	.st43{clip-path:url(#SVGID_16_);fill:#010101;}
	.st44{clip-path:url(#SVGID_18_);fill:#010101;}
	.st45{clip-path:url(#SVGID_20_);fill:#010101;}
	.st46{clip-path:url(#SVGID_22_);fill:#010101;}
	.st47{clip-path:url(#SVGID_24_);fill:#010101;}
	.st48{clip-path:url(#SVGID_26_);fill:#010101;}
	.st49{clip-path:url(#SVGID_28_);fill:none;stroke:#010101;stroke-width:0.274;}
	.st50{clip-path:url(#SVGID_30_);fill:#010101;}
	.st51{clip-path:url(#SVGID_32_);fill:#010101;}
	.st52{clip-path:url(#SVGID_34_);fill:#010101;}
	.st53{clip-path:url(#SVGID_36_);fill:#231F20;}
	.st54{clip-path:url(#SVGID_36_);fill:#FFFFFF;}
	.st55{clip-path:url(#SVGID_36_);fill:#415364;}
	.st56{clip-path:url(#SVGID_36_);fill-rule:evenodd;clip-rule:evenodd;fill:#FFFFFF;}
	.st57{fill-rule:evenodd;clip-rule:evenodd;fill:#FFFFFF;}
	.st58{fill:none;stroke:#231F20;stroke-width:1.6532;stroke-linecap:round;stroke-linejoin:round;stroke-miterlimit:10;}
	.st59{fill:none;stroke:#231F20;stroke-width:1.9928;stroke-miterlimit:10;}
</style>
<g id="Fondo" class="st0">
</g>
<g id="Layer_1">
	<g>
		<g>
			<g>
				<g>
					<path class="st3" d="M141.7,117.2c-23.4,0-42.5-19.1-42.5-42.5s19.1-42.5,42.5-42.5c23.4,0,42.5,19.1,42.5,42.5
						S165.2,117.2,141.7,117.2z M141.7,35.8c-21.4,0-38.9,17.4-38.9,38.9s17.4,38.9,38.9,38.9s38.9-17.4,38.9-38.9
						S163.2,35.8,141.7,35.8z"/>
				</g>
			</g>
			<g id="pyD6wW_1_">
				<g>
					<g>
						<path d="M139.6,89c1.2,0.2,2.4,0.4,3.5,0.7c2.6,0.7,5.1,1.7,7,3.8c0.6,0.7,1.1,1.6,1.5,2.4c0.4,0.9-0.2,1.7-1.2,1.7
							c-8.9,0-17.8,0-26.7,0c-1.1,0-1.7-0.8-1.3-1.9c0.5-1.4,1.4-2.4,2.5-3.3c2.2-1.7,4.7-2.6,7.4-3.1c0.8-0.1,1.6-0.2,2.3-0.3
							c0.3,0,0.4-0.1,0.5-0.5c0.2-1,0.4-2,0.6-3c0-0.2,0-0.3,0-0.5c-1.8-5.7-5.5-9.8-10.6-12.6c-0.6-0.3-1.2-0.5-1.8-0.7
							c-0.4-0.1-0.9-0.2-1.4-0.3c1,0.7,2,1.3,2.9,2c1,0.7,1.9,1.5,2.7,2.4c0.9,0.8,1.7,1.8,2.4,2.7c0.7,0.9,1.4,2,2.1,2.9
							c-2.4,2.7-6.5,3.5-9.3-0.2c-0.9-1.2-1.5-2.6-2.1-3.9c-1.7-3.2-3.9-6-7.1-7.8c0,0-0.1-0.1-0.2-0.2c1.2-0.3,2.3-0.6,3.4-0.9
							c2.6-0.6,5.3-0.9,8-0.7c3.4,0.2,6.3,1.6,8.5,4.2c1.5,1.8,1.9,3.8,1.2,6.1c-0.1,0.3-0.1,0.6,0.2,0.8c0.7,0.9,1.3,1.7,2,2.7
							c0.2-0.5,0.3-1,0.5-1.5c0.6-1.5,1.2-3,1.8-4.5c0.1-0.2,0.1-0.5,0-0.7c-2.7-3.9-2.5-7.8-0.2-11.8c2.6-4.6,6.5-7.7,11.4-9.5
							c3.7-1.4,7.6-2.3,11.5-2.7c2.4-0.3,4.8-0.4,7.3-0.6c0.1,0,0.2,0,0.4,0c-0.2,0.2-0.3,0.4-0.4,0.5c-1.6,2.1-3.3,4.2-4.9,6.3
							c-1.7,2.3-2.3,5.1-2.7,7.8c-0.4,2.6-0.7,5.1-1.7,7.6c-1,2.6-2.5,4.8-5,6.3c-2.6,1.5-5.3,1.5-8,0.7c-0.6-0.2-1.2-0.5-1.8-0.7
							c-0.4-0.1-0.5-0.4-0.4-0.8c0.9-2.8,2.1-5.4,3.5-8c2.3-4.3,5.1-8.2,8.6-11.6c0.1-0.1,0.2-0.2,0.2-0.4c-0.3,0.2-0.5,0.3-0.8,0.5
							c-4.3,2.8-7.6,6.6-10.2,11c-3,5.1-4.8,10.7-5.8,16.6c-0.2,0.9-0.3,1.8-0.4,2.7C139.6,88.9,139.6,89,139.6,89z"/>
					</g>
				</g>
			</g>
		</g>
	</g>
</g>
</svg>
