<svg xmlns="http://www.w3.org/2000/svg" viewBox="0 0 283.46 149.39"><defs><style>.cls-1{opacity:0.9;}.cls-2{fill:#010101;}</style></defs><g id="Layer_1" data-name="Layer 1"><path class="cls-2" d="M150.41,85.62a2.81,2.81,0,0,0-1.14.25l-.44.19a14,14,0,0,1-5.11,1.43c-2.54,0-4.48-1.79-5.2-4.8,8.4-.2,14-1.52,14-7.25,0-2.89-3-6.88-8.55-6.88-6.23,0-10.26,4.58-10.26,11.65,0,6.84,4.12,11.61,10,11.61a17.91,17.91,0,0,0,7.74-2.12,2.15,2.15,0,0,0,1.14-1.89A2.23,2.23,0,0,0,150.41,85.62ZM144,72.89c2.54,0,3.88,1.48,3.88,2.55,0,2-2.92,3-9.46,3.11C138.87,75,140.91,72.89,144,72.89Z"/><path class="cls-2" d="M170.8,75.13a7.65,7.65,0,0,0,3.12-6.19c0-5.5-3.57-8.41-10.32-8.41H158a2.05,2.05,0,0,0-2.19,2.15V89.3a2.21,2.21,0,0,0,2.28,2.23h5.54c7.71,0,11.61-3,11.61-9A7.93,7.93,0,0,0,170.8,75.13Zm-.21,7.43c0,2.12-1.21,4.64-7,4.64h-3.35V78h4.55C168.64,78,170.59,79.54,170.59,82.56Zm-10.34-8.88V64.87h3.21c1.44,0,5.84,0,5.84,4.4,0,3.64-2.68,4.41-4.93,4.41Z"/><path class="cls-2" d="M190.23,60.25c-7.57,0-13.28,6.81-13.28,15.85a17.3,17.3,0,0,0,3.82,11.19,12.28,12.28,0,0,0,9.46,4.53c7.7,0,13.28-6.61,13.28-15.72S197.93,60.25,190.23,60.25Zm8.66,15.85c0,6.6-3.64,11.39-8.66,11.39s-8.66-4.9-8.66-11.39,3.73-11.52,8.66-11.52S198.89,69.43,198.89,76.1Z"/><path class="cls-2" d="M222.07,60.53H204.24a2.05,2.05,0,0,0-2.19,2.15,2.1,2.1,0,0,0,2.19,2.19h6.6V89.3a2.24,2.24,0,0,0,4.48,0V64.87h6.75a2.1,2.1,0,0,0,2.19-2.19A2.05,2.05,0,0,0,222.07,60.53Z"/><path class="cls-2" d="M242,87.2H231.34V62.72a2.24,2.24,0,0,0-4.48,0V89.34a2.14,2.14,0,0,0,2.24,2.19H242a2.17,2.17,0,0,0,2.29-2.19A2.14,2.14,0,0,0,242,87.2Z"/><path class="cls-2" d="M67.37,52.5h0Zm6.64,0h0Z"/><path class="cls-2" d="M132.75,87.16C130.94,82,129,78.54,127,76.84A8.43,8.43,0,0,0,132,69c0-4.89-4-8.45-9.41-8.45H115.8a2.16,2.16,0,0,0-2.24,2.24V89.3a2.24,2.24,0,0,0,4.48,0V78.05h3.83c1.73,0,4.73,4.06,7.08,11.83a2.26,2.26,0,0,0,4.43-.4A9.32,9.32,0,0,0,132.75,87.16ZM118,64.87h4.59c2.78,0,4.79,1.73,4.79,4.11a4.32,4.32,0,0,1-4.25,4.72H118Z"/><path class="cls-2" d="M76.12,98.52H65.26A6.5,6.5,0,0,1,58.77,92l-.05-4.82A1.77,1.77,0,0,1,60,85.49L105.15,72.9a1.73,1.73,0,0,1,2.15,1.21,1.75,1.75,0,0,1-1.21,2.16L62.23,88.5l0,3.51a3,3,0,0,0,3,3H76.12a3,3,0,0,0,3-3V86.6a1.75,1.75,0,0,1,3.5,0V92A6.5,6.5,0,0,1,76.12,98.52Z"/><path class="cls-2" d="M57.42,83A1.75,1.75,0,0,1,57,79.52l26.5-7.44a1.75,1.75,0,0,1,.94,3.37L57.9,82.89A2,2,0,0,1,57.42,83Z"/><path class="cls-2" d="M82.58,66.51a1.1,1.1,0,0,0,0-.18v0c0-.1,0-.2,0-.31v-.07l0-.23a.24.24,0,0,0,0-.08,2.1,2.1,0,0,0-.06-.31,1.5,1.5,0,0,0-.06-.29l0-.07,0-.22,0-.08c0-.1,0-.19-.08-.29v0a1.83,1.83,0,0,0-.08-.25S82,64,82,64s-.06-.15-.07-.19l0-.08-.11-.27v0l-.12-.26,0-.1-.11-.23c0-.09-.09-.18-.14-.27a2.21,2.21,0,0,0-.14-.24l-.06-.11L81.06,62c0-.09-.11-.17-.17-.27l-.38-.51a5.58,5.58,0,0,0-.42-.5c-.06-.08-.13-.15-.19-.22l-.41-.4L79.42,60a7.59,7.59,0,0,0-.73-.61c-.22-.17-.45-.33-.68-.48a1.74,1.74,0,0,0-.48-3.09l0-2.84a2.27,2.27,0,0,0-2.26-2.27H66.14A2.27,2.27,0,0,0,63.87,53v2.85a1.74,1.74,0,0,0-.48,3.08c-.23.16-.47.32-.69.49s-.46.37-.68.57l-.07.06c-.16.15-.31.29-.45.45l-.23.24-.4.49c-.06.08-.12.15-.2.27l-.15.21,0,0c-.06.09-.12.17-.19.29l-.14.22,0,.07-.14.24,0,0-.13.25,0,.07-.09.18,0,.08c0,.09-.08.17-.12.28l-.09.21,0,.11-.08.23,0,.09c0,.08-.05.16-.08.25v0c0,.1-.06.19-.1.35l-.06.25L59,65c0,.09,0,.18,0,.21s0,0,0,.07v0c0,.1,0,.19,0,.26a.36.36,0,0,1,0,.11l0,.31c0,.1,0,.2,0,.3v0c0,.1,0,0,0,1.2,0,.41,0,.79,0,.89a1.75,1.75,0,0,0,1.63,1.81h.12a1.76,1.76,0,0,0,1.75-1.63s0-.53,0-1.06A7.12,7.12,0,0,1,62.4,66s.16-.62.16-.62v0l.29-.75,0-.08.08-.15.08-.16,0,0,.31-.51.25-.35c.08-.11.17-.21.27-.33l.14-.14.28-.29.06-.05a4.82,4.82,0,0,1,.43-.36c.17-.13.34-.24.51-.35l0,0,.18-.1a3.71,3.71,0,0,0,1.74-2.47h6.86a3.69,3.69,0,0,0,1.75,2.47l.18.11,0,0a5.05,5.05,0,0,1,.5.35,5.81,5.81,0,0,1,.46.38l.09.09c.07.07.14.13.22.22l.14.16a3.88,3.88,0,0,1,.26.31l.38.54,0,.06.06.11.09.16s.27.56.27.56v0l.21.57v0L79,66l.07.41v.1L44.75,76l-3.51,1-5.38,1.49a1.75,1.75,0,0,0,.46,3.44h0a1.84,1.84,0,0,0,.47-.06l4.92-1.37,3.47-1,36.3-10.07c.86-.24,1.13-.82,1.13-1.71ZM74,54.22v1.52H67.36V54.22Z"/><path class="cls-2" d="M70.93,100.91a26.26,26.26,0,0,1-25.46-20l-3.45,1a29.79,29.79,0,0,0,58.34-2.55l-3.85,1.07A26.26,26.26,0,0,1,70.93,100.91Z"/><path class="cls-2" d="M70.93,48.48a26.25,26.25,0,0,1,26.19,25.2l3.53-1a29.79,29.79,0,0,0-59.51,2c0,.3,0,.59,0,.88l3.56-1A26.25,26.25,0,0,1,70.93,48.48Z"/><path class="cls-2" d="M241.66,61.34h-1.3v-.73h3.4v.73h-1.3v3.47h-.8Zm3-.73h.86l1.27,2,1.27-2h.83v4.2h-.78v-3l-1.29,2h-.08l-1.3-2v3h-.78Z"/></g></svg>