<?xml version="1.0" encoding="utf-8"?>
<!-- Generator: Adobe Illustrator 22.1.0, SVG Export Plug-In . SVG Version: 6.00 Build 0)  -->
<svg version="1.1" id="Icons" xmlns="http://www.w3.org/2000/svg" xmlns:xlink="http://www.w3.org/1999/xlink" x="0px" y="0px"
	 viewBox="0 0 46 48" style="enable-background:new 0 0 46 48;" xml:space="preserve">
<style type="text/css">
	.st0{fill:none;stroke:#000000;stroke-width:2;stroke-linecap:round;stroke-linejoin:round;}
</style>
<title>Icon_Fabric_Quick-Dry_white</title>
<polyline class="st0" points="4.4,21.7 8.3,17.9 12.1,21.7 "/>
<path class="st0" d="M11.4,28.3c-1.1-2.7-3.1-4-3.1-8.5"/>
<path class="st0" d="M11.4,36.2c0.5-1.3,0.7-2.6,0.7-4"/>
<path class="st0" d="M8.6,46.9c0.3-1.1,0.7-2.2,1.2-3.2"/>
<line class="st0" x1="23" y1="23.5" x2="23" y2="32.7"/>
<polyline class="st0" points="19.2,27.3 23,23.4 26.8,27.3 "/>
<line class="st0" x1="23" y1="41.9" x2="23" y2="41"/>
<line class="st0" x1="23" y1="47" x2="23" y2="44.3"/>
<polyline class="st0" points="42,21.7 38.2,17.9 34.4,21.7 "/>
<path class="st0" d="M35.1,28.3c1.1-2.7,3.1-4,3.1-8.5"/>
<path class="st0" d="M35.1,36.2c-0.5-1.3-0.7-2.6-0.7-4"/>
<path class="st0" d="M37.9,46.9c-0.3-1.1-0.7-2.2-1.2-3.2"/>
<circle class="st0" cx="23.1" cy="12.1" r="7.9"/>
<polyline class="st0" points="23.1,7.8 23.1,14 25.7,11.4 "/>
<line class="st0" x1="20.4" y1="1" x2="25.6" y2="1"/>
<line class="st0" x1="30" y1="6.5" x2="31" y2="5.5"/>
<line class="st0" x1="29.8" y1="4.3" x2="32.2" y2="6.8"/>
<path class="st0" d="M45,38.9c-8.5,0-13.8-5.1-21.7-5.1h-0.5c-7.9,0-13.2,5.1-21.7,5.1"/>
<path class="st0" d="M45,45c-8.5,0-13.8-5.1-21.7-5.1h-0.5C14.8,39.9,9.5,45,1,45"/>
</svg>
