<?xml version="1.0" encoding="utf-8"?>
<!-- Generator: Adobe Illustrator 25.0.0, SVG Export Plug-In . SVG Version: 6.00 Build 0)  -->
<svg version="1.1" xmlns="http://www.w3.org/2000/svg" xmlns:xlink="http://www.w3.org/1999/xlink" x="0px" y="0px"
	 viewBox="0 0 283.5 149.4" style="enable-background:new 0 0 283.5 149.4;" xml:space="preserve">
<style type="text/css">
	.st0{opacity:0.9;}
	.st1{fill:#FFFFFF;stroke:#010101;stroke-miterlimit:10;}
	.st2{fill:#010101;}
	.st3{fill:#231F20;}
	.st4{fill:none;stroke:#231F20;stroke-width:2.054;stroke-miterlimit:10;}
	.st5{fill:none;stroke:#231F20;stroke-width:1.711;stroke-miterlimit:10;}
	.st6{fill:none;stroke:#231F20;stroke-width:2.054;stroke-linejoin:bevel;stroke-miterlimit:10;}
	.st7{fill:none;stroke:#231F20;stroke-width:1.972;stroke-miterlimit:10;}
	.st8{fill:#FFFFFF;}
	.st9{fill:none;stroke:#231F20;stroke-width:1.369;stroke-linecap:round;stroke-linejoin:round;stroke-miterlimit:10;}
	.st10{fill:none;stroke:#231F20;stroke-width:1.369;stroke-linejoin:bevel;stroke-miterlimit:10;}
	.st11{fill:none;stroke:#231F20;stroke-width:0.685;stroke-miterlimit:10;}
	.st12{fill:none;stroke:#231F20;stroke-width:2.054;stroke-linecap:round;stroke-linejoin:round;stroke-miterlimit:10;}
	.st13{fill:none;stroke:#231F20;stroke-width:1.972;stroke-linecap:round;stroke-linejoin:round;stroke-miterlimit:10;}
	.st14{fill:none;stroke:#231F20;stroke-width:2.029;stroke-miterlimit:10;}
	.st15{fill:#E9282A;}
	.st16{fill:none;stroke:#231F20;stroke-width:1.691;stroke-linecap:round;stroke-linejoin:round;stroke-miterlimit:10;}
	.st17{fill:none;stroke:#231F20;stroke-width:2.031;stroke-miterlimit:10;}
	.st18{fill:none;stroke:#231F20;stroke-width:2.031;stroke-linejoin:round;stroke-miterlimit:10;}
	.st19{fill:none;stroke:#FFFFFF;stroke-width:7.454;stroke-linecap:round;stroke-linejoin:round;stroke-miterlimit:10;}
	.st20{fill:none;stroke:#020202;stroke-width:2.485;stroke-linecap:round;stroke-linejoin:round;stroke-miterlimit:10;}
	.st21{fill:none;stroke:#231F20;stroke-width:1.497;stroke-miterlimit:10;}
	.st22{fill:none;stroke:#231F20;stroke-width:2.054;stroke-miterlimit:10;stroke-dasharray:1.369,1.027;}
	.st23{fill:none;stroke:#231F20;stroke-width:1.369;stroke-miterlimit:10;}
	.st24{fill:#020202;}
	.st25{fill:none;}
	.st26{clip-path:url(#SVGID_2_);fill:#231F20;}
	.st27{clip-path:url(#SVGID_4_);fill:#010101;}
	.st28{clip-path:url(#SVGID_6_);fill:#010101;}
	.st29{clip-path:url(#SVGID_6_);fill:none;stroke:#010101;stroke-width:0.432;stroke-miterlimit:10;}
	.st30{font-family:'NeutrafaceText-Bold';}
	.st31{font-size:5.8228px;}
	.st32{fill-rule:evenodd;clip-rule:evenodd;fill:#010101;}
	.st33{clip-path:url(#SVGID_8_);fill:#010101;}
	.st34{clip-path:url(#SVGID_10_);fill:#010101;}
	.st35{clip-path:url(#SVGID_10_);fill:#97999B;}
	.st36{clip-path:url(#SVGID_10_);fill:none;stroke:#010101;stroke-width:0.367;}
	.st37{clip-path:url(#SVGID_12_);fill:none;stroke:#010101;stroke-width:0.367;}
	.st38{fill:#95979A;}
	.st39{fill:none;stroke:#010101;stroke-width:0.367;}
	.st40{fill:#231F20;stroke:#231F20;stroke-width:1.32;stroke-miterlimit:10;}
	.st41{fill:#231F20;stroke:#231F20;stroke-width:0.9;stroke-miterlimit:10;}
	.st42{fill-rule:evenodd;clip-rule:evenodd;fill:#231F20;}
	.st43{fill:none;stroke:#010101;stroke-width:0.349;}
	.st44{clip-path:url(#SVGID_14_);fill:#010101;}
	.st45{clip-path:url(#SVGID_16_);fill:#010101;}
	.st46{clip-path:url(#SVGID_18_);fill:#010101;}
	.st47{clip-path:url(#SVGID_20_);fill:#010101;}
	.st48{clip-path:url(#SVGID_22_);fill:#010101;}
	.st49{clip-path:url(#SVGID_24_);fill:#010101;}
	.st50{clip-path:url(#SVGID_26_);fill:#010101;}
	.st51{clip-path:url(#SVGID_28_);fill:none;stroke:#010101;stroke-width:0.274;}
	.st52{clip-path:url(#SVGID_30_);fill:#010101;}
	.st53{clip-path:url(#SVGID_32_);fill:#010101;}
	.st54{clip-path:url(#SVGID_34_);fill:#010101;}
	.st55{clip-path:url(#SVGID_36_);fill:#231F20;}
	.st56{clip-path:url(#SVGID_36_);fill:#FFFFFF;}
	.st57{clip-path:url(#SVGID_36_);fill:#415364;}
	.st58{clip-path:url(#SVGID_36_);fill-rule:evenodd;clip-rule:evenodd;fill:#FFFFFF;}
	.st59{fill-rule:evenodd;clip-rule:evenodd;fill:#FFFFFF;}
	.st60{fill:none;stroke:#231F20;stroke-width:1.6532;stroke-linecap:round;stroke-linejoin:round;stroke-miterlimit:10;}
	.st61{fill:none;stroke:#231F20;stroke-width:1.9928;stroke-miterlimit:10;}
</style>
<g id="Fondo" class="st0">
</g>
<g id="Layer_1">
	<g>
		<polygon class="st2" points="7.4,67.3 7.4,70.4 14,70.4 14,84.6 17.3,84.6 17.3,70.4 23.9,70.4 23.9,67.3 		"/>
		<polygon class="st2" points="28,84.6 28,67.3 31.3,67.3 31.3,74 41.7,74 41.7,67.3 45,67.3 45,84.6 41.7,84.6 41.7,77.2 
			31.3,77.2 31.3,84.6 		"/>
		<polygon class="st2" points="52.3,84.6 52.3,67.3 67,67.3 67,70.3 55.7,70.3 55.7,74.1 62.3,74.1 62.3,77.1 55.7,77.1 55.7,81.4 
			67.1,81.4 67.1,84.6 		"/>
		<g>
			<defs>
				<rect id="SVGID_3_" x="7.4" y="62.2" width="256.8" height="27.4"/>
			</defs>
			<clipPath id="SVGID_2_">
				<use xlink:href="#SVGID_3_"  style="overflow:visible;"/>
			</clipPath>
			<path style="clip-path:url(#SVGID_2_);fill:#010101;" d="M73.3,84.6V67.3h12.2c1.1,0,2,0.3,2.5,0.8c0.5,0.5,0.8,1.4,0.8,2.6v4.1
				c0,1.2-0.3,2-0.8,2.6c-0.5,0.5-1.3,0.8-2.5,0.8h-1.9l6.6,6.5h-4.8l-5.8-6.5h-3.2v6.5H73.3z M84,70.3h-7.5v4.8H84
				c0.6,0,1-0.1,1.2-0.3c0.2-0.2,0.3-0.6,0.3-1.1v-2.1c0-0.5-0.1-0.9-0.3-1.1C85,70.4,84.6,70.3,84,70.3"/>
			<path style="clip-path:url(#SVGID_2_);fill:#010101;" d="M95.5,84.6V67.3h2.7l6.7,10.5l6.6-10.5h2.7v17.3H111V73.9
				c0-0.2,0-0.5,0-0.8c0-0.3,0.1-0.7,0.1-1.1c-0.2,0.4-0.3,0.8-0.5,1.1c-0.1,0.3-0.3,0.5-0.4,0.7l-5.4,8.6h-0.7l-5.4-8.7
				c-0.2-0.3-0.4-0.6-0.5-0.9c-0.1-0.3-0.3-0.6-0.3-0.8c0,0.4,0,0.7,0.1,1c0,0.3,0,0.6,0,0.9v10.7H95.5z"/>
			<path style="clip-path:url(#SVGID_2_);fill:#010101;" d="M120.8,71.4c0-1.6,0.2-2.6,0.7-3.2c0.5-0.6,1.4-0.9,2.8-0.9h10.5
				c1.4,0,2.3,0.3,2.8,0.9c0.5,0.6,0.7,1.7,0.7,3.2v9.1c0,1.6-0.2,2.7-0.7,3.2c-0.5,0.6-1.4,0.9-2.8,0.9h-10.5
				c-1.4,0-2.3-0.3-2.8-0.9c-0.5-0.6-0.7-1.7-0.7-3.2V71.4z M124.2,81.4h11v-11h-11V81.4z"/>
			<polygon style="clip-path:url(#SVGID_2_);fill:#010101;" points="176.1,84.6 176.1,67.3 190.5,67.3 190.5,70.4 179.4,70.4 
				179.4,74.9 185.4,74.9 185.4,78.1 179.4,78.1 179.4,84.6 			"/>
			<rect x="195.6" y="67.3" style="clip-path:url(#SVGID_2_);fill:#010101;" width="3.3" height="17.3"/>
			<path style="clip-path:url(#SVGID_2_);fill:#010101;" d="M205.3,84.6V67.3h12.3c1.1,0,1.9,0.3,2.4,0.8c0.5,0.5,0.8,1.4,0.8,2.6
				v2.1c0,0.8-0.2,1.5-0.6,2c-0.4,0.5-1,0.8-1.8,0.9c0.8,0.1,1.5,0.5,1.9,1.1c0.4,0.6,0.7,1.3,0.7,2.3v2.2c0,1.1-0.3,2-1,2.6
				c-0.7,0.6-1.8,0.8-3.2,0.8H205.3z M216.1,70.1h-7.6v4.1h7.6c0.6,0,1-0.1,1.2-0.3c0.2-0.2,0.3-0.5,0.3-1v-1.6c0-0.4-0.1-0.8-0.3-1
				C217.1,70.2,216.7,70.1,216.1,70.1 M216.1,77.1h-7.6v4.4h7.6c0.6,0,1.1-0.1,1.3-0.3c0.2-0.2,0.3-0.6,0.3-1.2v-1.3
				c0-0.6-0.1-1-0.3-1.2C217.2,77.2,216.8,77.1,216.1,77.1"/>
			<path style="clip-path:url(#SVGID_2_);fill:#010101;" d="M227.3,84.6V67.3h12.2c1.1,0,2,0.3,2.5,0.8c0.5,0.5,0.8,1.4,0.8,2.6v4.1
				c0,1.2-0.3,2-0.8,2.6c-0.5,0.5-1.3,0.8-2.5,0.8h-1.9l6.6,6.5h-4.8l-5.8-6.5h-3.2v6.5H227.3z M238,70.3h-7.5v4.8h7.5
				c0.6,0,1-0.1,1.2-0.3c0.2-0.2,0.3-0.6,0.3-1.1v-2.1c0-0.5-0.1-0.9-0.3-1.1C239,70.4,238.6,70.3,238,70.3"/>
			<polygon style="clip-path:url(#SVGID_2_);fill:#010101;" points="249.5,84.6 249.5,67.3 264.1,67.3 264.1,70.3 252.8,70.3 
				252.8,74.1 259.4,74.1 259.4,77.1 252.8,77.1 252.8,81.4 264.3,81.4 264.3,84.6 			"/>
		</g>
		<g>
			<defs>
				<path id="SVGID_5_" d="M157.2,62.2c-7.6,0-13.7,6.1-13.7,13.7c0,7.6,6.1,13.7,13.7,13.7c7.6,0,13.7-6.1,13.7-13.7
					C171,68.3,164.8,62.2,157.2,62.2z"/>
			</defs>
			<clipPath id="SVGID_4_">
				<use xlink:href="#SVGID_5_"  style="overflow:visible;"/>
			</clipPath>
			<path class="st27" d="M157.8,74.9c-0.4-0.8-0.7-1.4-0.7-1.7c0-0.2-0.1-0.6,0-1.4c0-0.1,0-0.1,0-0.2c-0.1,0.1-0.4,0.3-0.7,0.6
				c-0.4,0.5-0.6,0.9-0.6,1.2c0,0.4,0.2,1.1,0.6,1.8c0.1,0.2,0.2,0.3,0.2,0.5c0,0.1,0.1,0.2,0.1,0.3c0.1,0.2,0.2,0.3,0.2,0.5
				c0,0.1,0.1,0.1,0.1,0.2c0.3,0.6,0.6,1.2,0.7,1.6c0.2,0.6,0,1.2-0.2,1.6c0,0.1-0.1,0.2-0.1,0.3c0.1-0.1,0.4-0.4,0.8-0.8
				c0.4-0.5,0.7-1,0.8-1.2c0-0.4-0.2-1-0.5-1.7c-0.1-0.1-0.1-0.3-0.2-0.4c0-0.1-0.1-0.2-0.1-0.3C158,75.5,157.9,75.2,157.8,74.9
				C157.8,75,157.8,74.9,157.8,74.9"/>
			<path class="st27" d="M154.5,75.2C154.5,75.2,154.5,75.2,154.5,75.2c-0.1-0.1-0.1-0.1-0.1-0.2c0,0,0,0,0,0
				c-0.3-0.5-0.5-1-0.5-1.2c0-0.2-0.1-0.4,0-1.1c0-0.1,0-0.1,0-0.2c-0.1,0.1-0.3,0.2-0.5,0.5c-0.3,0.3-0.5,0.7-0.5,0.9
				c0,0.3,0.1,0.7,0.3,1.1c0,0,0,0,0,0c0,0.1,0.1,0.2,0.1,0.3c0,0.1,0.1,0.2,0.1,0.2c0,0,0,0,0,0c0,0,0,0.1,0.1,0.1
				c0,0.1,0.1,0.1,0.1,0.2c0,0,0,0.1,0.1,0.1c0,0,0,0,0,0c0,0.1,0.1,0.2,0.1,0.2c0,0,0,0.1,0.1,0.1c0,0.1,0,0.1,0.1,0.2
				c0.2,0.4,0.4,0.8,0.4,1c0.1,0.4,0,0.9-0.1,1.2c0,0.1,0,0.2-0.1,0.2c0.1-0.1,0.3-0.3,0.6-0.6c0.3-0.4,0.6-0.7,0.6-0.9
				c0-0.3-0.1-0.7-0.3-1.1c0,0,0,0,0,0c0,0,0-0.1-0.1-0.1c0-0.1-0.1-0.2-0.1-0.3c0,0,0,0,0,0c0,0,0,0,0,0c0-0.1-0.1-0.1-0.1-0.2
				c0,0,0,0,0,0c0,0,0,0,0,0C154.7,75.5,154.6,75.4,154.5,75.2"/>
			<path class="st27" d="M161,75.2C161,75.2,161,75.2,161,75.2c0-0.1-0.1-0.1-0.1-0.2c0,0,0,0,0,0c-0.3-0.5-0.5-1-0.5-1.2
				c0-0.2-0.1-0.4,0-1.1c0-0.1,0-0.1,0-0.2c-0.1,0.1-0.3,0.2-0.5,0.5c-0.3,0.3-0.5,0.7-0.5,0.9c0,0.3,0.1,0.7,0.3,1.1c0,0,0,0,0,0
				c0,0.1,0.1,0.2,0.1,0.3c0,0.1,0.1,0.2,0.1,0.2c0,0,0,0,0,0c0,0,0,0.1,0.1,0.1c0,0.1,0.1,0.1,0.1,0.2c0,0,0,0.1,0.1,0.1
				c0,0,0,0,0,0c0,0.1,0.1,0.2,0.1,0.2c0,0,0,0.1,0.1,0.1c0,0.1,0,0.1,0.1,0.2c0.1,0.4,0.4,0.8,0.4,1c0.1,0.4,0,0.9-0.1,1.2
				c0,0.1,0,0.2-0.1,0.2c0.1-0.1,0.3-0.3,0.6-0.6c0.3-0.4,0.6-0.7,0.6-0.9c0-0.3-0.1-0.7-0.3-1.1c0,0,0,0,0,0c0,0,0-0.1-0.1-0.1
				c0-0.1-0.1-0.2-0.1-0.3c0,0,0,0,0,0c0,0,0,0,0,0c0-0.1-0.1-0.1-0.1-0.2c0,0,0,0,0,0c0,0,0,0,0,0C161.1,75.5,161.1,75.4,161,75.2"
				/>
			<path style="clip-path:url(#SVGID_4_);fill:none;stroke:#010101;stroke-width:0.432;stroke-miterlimit:10;" d="M170.7,75.9
				c0,7.4-6,13.5-13.5,13.5c-7.4,0-13.5-6-13.5-13.5c0-7.4,6-13.5,13.5-13.5C164.7,62.4,170.7,68.5,170.7,75.9z"/>
			<path class="st27" d="M147.9,67.9C147.9,67.9,147.9,67.9,147.9,67.9l-4.7-2.7c0,0-0.1-0.1-0.1-0.1c0,0,0-0.1,0.1-0.1l4.7-2.7
				c0,0,0.1,0,0.1,0c0,0,0.1,0.1,0.1,0.1v5.4C148.1,67.9,148,67.9,147.9,67.9C148,67.9,148,67.9,147.9,67.9 M143.5,65.1l4.3,2.5v-5
				L143.5,65.1z"/>
			<path class="st27" d="M147.9,67.9C147.9,67.9,147.9,67.9,147.9,67.9c-0.1,0-0.1-0.1-0.1-0.1v-5.4c0,0,0-0.1,0.1-0.1
				c0,0,0.1,0,0.1,0l4.7,2.7c0,0,0.1,0.1,0.1,0.1c0,0,0,0.1-0.1,0.1L147.9,67.9C148,67.9,148,67.9,147.9,67.9 M148.1,62.6v5l4.3-2.5
				L148.1,62.6z"/>
			<path class="st27" d="M143.3,70.6C143.2,70.6,143.2,70.6,143.3,70.6L143.3,70.6c-0.1,0-0.1-0.1-0.1-0.1v-5.4c0,0,0-0.1,0.1-0.1
				c0,0,0.1,0,0.1,0l4.7,2.7c0,0,0.1,0.1,0.1,0.1c0,0,0,0.1-0.1,0.1L143.3,70.6C143.3,70.6,143.3,70.6,143.3,70.6 M143.4,65.3v5
				l4.3-2.5L143.4,65.3z"/>
			<path class="st27" d="M152.6,70.6C152.6,70.6,152.6,70.6,152.6,70.6l-4.7-2.7c0,0-0.1-0.1-0.1-0.1c0,0,0-0.1,0.1-0.1l4.7-2.7
				c0,0,0.1,0,0.1,0c0,0,0.1,0.1,0.1,0.1v5.4C152.7,70.6,152.7,70.6,152.6,70.6C152.7,70.6,152.6,70.6,152.6,70.6 M148.2,67.8
				l4.3,2.5v-5L148.2,67.8z"/>
			<path class="st27" d="M147.9,73.3C147.9,73.3,147.9,73.3,147.9,73.3c-0.1,0-0.1-0.1-0.1-0.1v-5.4c0,0,0-0.1,0.1-0.1
				c0,0,0.1,0,0.1,0l4.7,2.7c0,0,0.1,0.1,0.1,0.1c0,0,0,0.1-0.1,0.1L147.9,73.3C148,73.3,148,73.3,147.9,73.3 M148.1,68v5l4.3-2.5
				L148.1,68z"/>
			<path class="st27" d="M147.9,73.3C147.9,73.3,147.9,73.3,147.9,73.3l-4.7-2.7c0,0-0.1-0.1-0.1-0.1c0,0,0-0.1,0.1-0.1l4.7-2.7
				c0,0,0.1,0,0.1,0c0,0,0.1,0.1,0.1,0.1v5.4C148.1,73.3,148,73.3,147.9,73.3C148,73.3,148,73.3,147.9,73.3 M143.5,70.5l4.3,2.5v-5
				L143.5,70.5z"/>
			<path class="st27" d="M157.3,67.9C157.3,67.9,157.3,67.9,157.3,67.9l-4.7-2.7c0,0-0.1-0.1-0.1-0.1c0,0,0-0.1,0.1-0.1l4.7-2.7
				c0,0,0.1,0,0.1,0c0,0,0.1,0.1,0.1,0.1v5.4C157.4,67.9,157.4,67.9,157.3,67.9C157.3,67.9,157.3,67.9,157.3,67.9 M152.9,65.1
				l4.3,2.5v-5L152.9,65.1z"/>
			<path class="st27" d="M157.3,67.9C157.3,67.9,157.3,67.9,157.3,67.9c-0.1,0-0.1-0.1-0.1-0.1v-5.4c0,0,0-0.1,0.1-0.1
				c0,0,0.1,0,0.1,0L162,65c0,0,0.1,0.1,0.1,0.1c0,0,0,0.1-0.1,0.1L157.3,67.9C157.3,67.9,157.3,67.9,157.3,67.9 M157.4,62.6v5
				l4.3-2.5L157.4,62.6z"/>
			<path class="st27" d="M152.6,70.6C152.6,70.6,152.6,70.6,152.6,70.6L152.6,70.6c-0.1,0-0.1-0.1-0.1-0.1v-5.4c0,0,0-0.1,0.1-0.1
				c0,0,0.1,0,0.1,0l4.7,2.7c0,0,0.1,0.1,0.1,0.1c0,0,0,0.1-0.1,0.1L152.6,70.6C152.7,70.6,152.6,70.6,152.6,70.6 M152.7,65.3v5
				l4.3-2.5L152.7,65.3z"/>
			<path class="st27" d="M162,70.6C162,70.6,161.9,70.6,162,70.6l-4.7-2.7c0,0-0.1-0.1-0.1-0.1c0,0,0-0.1,0.1-0.1l4.7-2.7
				c0,0,0.1,0,0.1,0c0,0,0.1,0.1,0.1,0.1v5.4C162.1,70.6,162.1,70.6,162,70.6C162,70.6,162,70.6,162,70.6 M157.5,67.8l4.3,2.5v-5
				L157.5,67.8z"/>
			<path class="st27" d="M143.2,76C143.2,76,143.2,76,143.2,76c-0.1,0-0.1-0.1-0.1-0.1v-5.4c0,0,0-0.1,0.1-0.1c0,0,0.1,0,0.1,0
				l4.7,2.7c0,0,0.1,0.1,0.1,0.1c0,0,0,0.1-0.1,0.1L143.2,76C143.2,76,143.2,76,143.2,76 M143.3,70.6v5l4.3-2.5L143.3,70.6z"/>
			<path class="st27" d="M147.9,78.7C147.9,78.7,147.8,78.7,147.9,78.7l-4.7-2.7c0,0-0.1-0.1-0.1-0.1c0,0,0-0.1,0.1-0.1l4.7-2.7
				c0,0,0.1,0,0.1,0c0,0,0.1,0.1,0.1,0.1v5.4C148,78.6,148,78.6,147.9,78.7C147.9,78.7,147.9,78.7,147.9,78.7 M143.4,75.9l4.3,2.5
				v-5L143.4,75.9z"/>
			<path class="st27" d="M143.2,81.4C143.2,81.4,143.2,81.4,143.2,81.4c-0.1,0-0.1-0.1-0.1-0.1v-5.4c0,0,0-0.1,0.1-0.1
				c0,0,0.1,0,0.1,0l4.7,2.7c0,0,0.1,0.1,0.1,0.1c0,0,0,0.1-0.1,0.1L143.2,81.4C143.2,81.4,143.2,81.4,143.2,81.4 M143.3,76.1v5
				l4.3-2.5L143.3,76.1z"/>
			<path class="st27" d="M171.3,76.1C171.3,76.1,171.3,76,171.3,76.1l-4.7-2.7c0,0-0.1-0.1-0.1-0.1c0,0,0-0.1,0.1-0.1l4.7-2.7
				c0,0,0.1,0,0.1,0c0,0,0.1,0.1,0.1,0.1v5.4C171.4,76,171.4,76,171.3,76.1C171.4,76,171.3,76.1,171.3,76.1 M166.9,73.2l4.3,2.5v-5
				L166.9,73.2z"/>
			<path class="st27" d="M166.6,78.8C166.6,78.8,166.6,78.7,166.6,78.8L166.6,78.8c-0.1,0-0.1-0.1-0.1-0.1v-5.4c0,0,0-0.1,0.1-0.1
				c0,0,0.1,0,0.1,0l4.7,2.7c0,0,0.1,0.1,0.1,0.1c0,0,0,0.1-0.1,0.1L166.6,78.8C166.7,78.7,166.7,78.8,166.6,78.8 M166.8,73.4v5
				l4.3-2.5L166.8,73.4z"/>
			<path class="st27" d="M171.3,81.5C171.3,81.5,171.3,81.5,171.3,81.5l-4.7-2.7c0,0-0.1-0.1-0.1-0.1c0,0,0-0.1,0.1-0.1l4.7-2.7
				c0,0,0.1,0,0.1,0c0,0,0.1,0.1,0.1,0.1v5.4C171.4,81.4,171.4,81.4,171.3,81.5C171.4,81.5,171.3,81.5,171.3,81.5 M166.9,78.6
				l4.3,2.5v-5L166.9,78.6z"/>
			<path class="st27" d="M166.7,67.9C166.6,67.9,166.6,67.9,166.7,67.9l-4.7-2.7c0,0-0.1-0.1-0.1-0.1c0,0,0-0.1,0.1-0.1l4.7-2.7
				c0,0,0.1,0,0.1,0c0,0,0.1,0.1,0.1,0.1v5.4C166.8,67.9,166.8,67.9,166.7,67.9C166.7,67.9,166.7,67.9,166.7,67.9 M162.2,65.1
				l4.3,2.5v-5L162.2,65.1z"/>
			<path class="st27" d="M166.7,67.9C166.6,67.9,166.6,67.9,166.7,67.9c-0.1,0-0.1-0.1-0.1-0.1v-5.4c0,0,0-0.1,0.1-0.1
				c0,0,0.1,0,0.1,0l4.7,2.7c0,0,0.1,0.1,0.1,0.1c0,0,0,0.1-0.1,0.1L166.7,67.9C166.7,67.9,166.7,67.9,166.7,67.9 M166.8,62.6v5
				l4.3-2.5L166.8,62.6z"/>
			<path class="st27" d="M162,70.6C162,70.6,161.9,70.6,162,70.6L162,70.6c-0.1,0-0.1-0.1-0.1-0.1v-5.4c0,0,0-0.1,0.1-0.1
				c0,0,0.1,0,0.1,0l4.7,2.7c0,0,0.1,0.1,0.1,0.1c0,0,0,0.1-0.1,0.1L162,70.6C162,70.6,162,70.6,162,70.6 M162.1,65.3v5l4.3-2.5
				L162.1,65.3z"/>
			<path class="st27" d="M171.3,70.6C171.3,70.6,171.3,70.6,171.3,70.6l-4.7-2.7c0,0-0.1-0.1-0.1-0.1c0,0,0-0.1,0.1-0.1l4.7-2.7
				c0,0,0.1,0,0.1,0c0,0,0.1,0.1,0.1,0.1v5.4C171.5,70.6,171.4,70.6,171.3,70.6C171.4,70.6,171.4,70.6,171.3,70.6 M166.9,67.8
				l4.3,2.5v-5L166.9,67.8z"/>
			<path class="st27" d="M166.7,73.3C166.6,73.3,166.6,73.3,166.7,73.3c-0.1,0-0.1-0.1-0.1-0.1v-5.4c0,0,0-0.1,0.1-0.1
				c0,0,0.1,0,0.1,0l4.7,2.7c0,0,0.1,0.1,0.1,0.1c0,0,0,0.1-0.1,0.1L166.7,73.3C166.7,73.3,166.7,73.3,166.7,73.3 M166.8,68v5
				l4.3-2.5L166.8,68z"/>
			<path class="st27" d="M166.7,73.3C166.6,73.3,166.6,73.3,166.7,73.3l-4.7-2.7c0,0-0.1-0.1-0.1-0.1c0,0,0-0.1,0.1-0.1l4.7-2.7
				c0,0,0.1,0,0.1,0c0,0,0.1,0.1,0.1,0.1v5.4C166.8,73.3,166.8,73.3,166.7,73.3C166.7,73.3,166.7,73.3,166.7,73.3 M162.2,70.5
				l4.3,2.5v-5L162.2,70.5z"/>
			<path class="st27" d="M147.9,84.1C147.9,84.1,147.9,84.1,147.9,84.1l-4.7-2.7c0,0-0.1-0.1-0.1-0.1c0,0,0-0.1,0.1-0.1l4.7-2.7
				c0,0,0.1,0,0.1,0c0,0,0.1,0.1,0.1,0.1V84C148.1,84.1,148,84.1,147.9,84.1C148,84.1,148,84.1,147.9,84.1 M143.5,81.3l4.3,2.5v-5
				L143.5,81.3z"/>
			<path class="st27" d="M147.9,84.1C147.9,84.1,147.9,84.1,147.9,84.1c-0.1,0-0.1-0.1-0.1-0.1v-5.4c0,0,0-0.1,0.1-0.1
				c0,0,0.1,0,0.1,0l4.7,2.7c0,0,0.1,0.1,0.1,0.1c0,0,0,0.1-0.1,0.1L147.9,84.1C148,84.1,148,84.1,147.9,84.1 M148.1,78.8v5l4.3-2.5
				L148.1,78.8z"/>
			<path class="st27" d="M143.3,86.8C143.2,86.8,143.2,86.8,143.3,86.8L143.3,86.8c-0.1,0-0.1-0.1-0.1-0.1v-5.4c0,0,0-0.1,0.1-0.1
				c0,0,0.1,0,0.1,0l4.7,2.7c0,0,0.1,0.1,0.1,0.1c0,0,0,0.1-0.1,0.1L143.3,86.8C143.3,86.8,143.3,86.8,143.3,86.8 M143.4,81.5v5
				l4.3-2.5L143.4,81.5z"/>
			<path class="st27" d="M152.6,86.8C152.6,86.8,152.6,86.8,152.6,86.8l-4.7-2.7c0,0-0.1-0.1-0.1-0.1c0,0,0-0.1,0.1-0.1l4.7-2.7
				c0,0,0.1,0,0.1,0c0,0,0.1,0.1,0.1,0.1v5.4C152.7,86.8,152.7,86.8,152.6,86.8C152.7,86.8,152.6,86.8,152.6,86.8 M148.2,84l4.3,2.5
				v-5L148.2,84z"/>
			<path class="st27" d="M147.9,89.5C147.9,89.5,147.9,89.5,147.9,89.5c-0.1,0-0.1-0.1-0.1-0.1V84c0,0,0-0.1,0.1-0.1
				c0,0,0.1,0,0.1,0l4.7,2.7c0,0,0.1,0.1,0.1,0.1s0,0.1-0.1,0.1L147.9,89.5C148,89.5,148,89.5,147.9,89.5 M148.1,84.2v5l4.3-2.5
				L148.1,84.2z"/>
			<path class="st27" d="M147.9,89.5C147.9,89.5,147.9,89.5,147.9,89.5l-4.7-2.7c0,0-0.1-0.1-0.1-0.1c0,0,0-0.1,0.1-0.1l4.7-2.7
				c0,0,0.1,0,0.1,0c0,0,0.1,0.1,0.1,0.1v5.4C148.1,89.5,148,89.5,147.9,89.5C148,89.5,148,89.5,147.9,89.5 M143.5,86.7l4.3,2.5v-5
				L143.5,86.7z"/>
			<path class="st27" d="M152.6,86.8C152.6,86.8,152.6,86.8,152.6,86.8L152.6,86.8c-0.1,0-0.1-0.1-0.1-0.1v-5.4c0,0,0-0.1,0.1-0.1
				c0,0,0.1,0,0.1,0l4.7,2.7c0,0,0.1,0.1,0.1,0.1c0,0,0,0.1-0.1,0.1L152.6,86.8C152.7,86.8,152.6,86.8,152.6,86.8 M152.7,81.5v5
				l4.3-2.5L152.7,81.5z"/>
			<path class="st27" d="M162,86.8C162,86.8,161.9,86.8,162,86.8l-4.7-2.7c0,0-0.1-0.1-0.1-0.1c0,0,0-0.1,0.1-0.1l4.7-2.7
				c0,0,0.1,0,0.1,0c0,0,0.1,0.1,0.1,0.1v5.4C162.1,86.8,162.1,86.8,162,86.8C162,86.8,162,86.8,162,86.8 M157.5,84l4.3,2.5v-5
				L157.5,84z"/>
			<path class="st27" d="M157.3,89.5C157.3,89.5,157.3,89.5,157.3,89.5c-0.1,0-0.1-0.1-0.1-0.1V84c0,0,0-0.1,0.1-0.1
				c0,0,0.1,0,0.1,0l4.7,2.7c0,0,0.1,0.1,0.1,0.1s0,0.1-0.1,0.1L157.3,89.5C157.3,89.5,157.3,89.5,157.3,89.5 M157.4,84.2v5l4.3-2.5
				L157.4,84.2z"/>
			<path class="st27" d="M157.3,89.5C157.3,89.5,157.3,89.5,157.3,89.5l-4.7-2.7c0,0-0.1-0.1-0.1-0.1c0,0,0-0.1,0.1-0.1l4.7-2.7
				c0,0,0.1,0,0.1,0c0,0,0.1,0.1,0.1,0.1v5.4C157.4,89.5,157.4,89.5,157.3,89.5C157.3,89.5,157.3,89.5,157.3,89.5 M152.9,86.7
				l4.3,2.5v-5L152.9,86.7z"/>
			<path class="st27" d="M166.7,84.1C166.6,84.1,166.6,84.1,166.7,84.1l-4.7-2.7c0,0-0.1-0.1-0.1-0.1c0,0,0-0.1,0.1-0.1l4.7-2.7
				c0,0,0.1,0,0.1,0c0,0,0.1,0.1,0.1,0.1V84C166.8,84.1,166.8,84.1,166.7,84.1C166.7,84.1,166.7,84.1,166.7,84.1 M162.2,81.3
				l4.3,2.5v-5L162.2,81.3z"/>
			<path class="st27" d="M166.7,84.1C166.6,84.1,166.6,84.1,166.7,84.1c-0.1,0-0.1-0.1-0.1-0.1v-5.4c0,0,0-0.1,0.1-0.1
				c0,0,0.1,0,0.1,0l4.7,2.7c0,0,0.1,0.1,0.1,0.1c0,0,0,0.1-0.1,0.1L166.7,84.1C166.7,84.1,166.7,84.1,166.7,84.1 M166.8,78.8v5
				l4.3-2.5L166.8,78.8z"/>
			<path class="st27" d="M162,86.8C162,86.8,161.9,86.8,162,86.8L162,86.8c-0.1,0-0.1-0.1-0.1-0.1v-5.4c0,0,0-0.1,0.1-0.1
				s0.1,0,0.1,0l4.7,2.7c0,0,0.1,0.1,0.1,0.1c0,0,0,0.1-0.1,0.1L162,86.8C162,86.8,162,86.8,162,86.8 M162.1,81.5v5l4.3-2.5
				L162.1,81.5z"/>
			<path class="st27" d="M171.3,86.8C171.3,86.8,171.3,86.8,171.3,86.8l-4.7-2.7c0,0-0.1-0.1-0.1-0.1c0,0,0-0.1,0.1-0.1l4.7-2.7
				c0,0,0.1,0,0.1,0c0,0,0.1,0.1,0.1,0.1v5.4C171.5,86.8,171.4,86.8,171.3,86.8C171.4,86.8,171.4,86.8,171.3,86.8 M166.9,84l4.3,2.5
				v-5L166.9,84z"/>
			<path class="st27" d="M166.7,89.5C166.6,89.5,166.6,89.5,166.7,89.5c-0.1,0-0.1-0.1-0.1-0.1V84c0,0,0-0.1,0.1-0.1
				c0,0,0.1,0,0.1,0l4.7,2.7c0,0,0.1,0.1,0.1,0.1s0,0.1-0.1,0.1L166.7,89.5C166.7,89.5,166.7,89.5,166.7,89.5 M166.8,84.2v5l4.3-2.5
				L166.8,84.2z"/>
			<path class="st27" d="M166.7,89.5C166.6,89.5,166.6,89.5,166.7,89.5l-4.7-2.7c0,0-0.1-0.1-0.1-0.1c0,0,0-0.1,0.1-0.1l4.7-2.7
				c0,0,0.1,0,0.1,0c0,0,0.1,0.1,0.1,0.1v5.4C166.8,89.5,166.8,89.5,166.7,89.5C166.7,89.5,166.7,89.5,166.7,89.5 M162.2,86.7
				l4.3,2.5v-5L162.2,86.7z"/>
			<path class="st27" d="M157.3,67.1c0.4,0,0.7,0.3,0.7,0.7c0,0.4-0.3,0.7-0.7,0.7c-0.4,0-0.7-0.3-0.7-0.7
				C156.6,67.4,156.9,67.1,157.3,67.1"/>
			<path class="st27" d="M157.3,83.3c0.4,0,0.7,0.3,0.7,0.7c0,0.4-0.3,0.7-0.7,0.7c-0.4,0-0.7-0.3-0.7-0.7
				C156.6,83.6,156.9,83.3,157.3,83.3"/>
			<path class="st27" d="M147.8,67.1c0.4,0,0.7,0.3,0.7,0.7s-0.3,0.7-0.7,0.7c-0.4,0-0.7-0.3-0.7-0.7S147.4,67.1,147.8,67.1"/>
			<path class="st27" d="M147.8,83.3c0.4,0,0.7,0.3,0.7,0.7s-0.3,0.7-0.7,0.7c-0.4,0-0.7-0.3-0.7-0.7S147.4,83.3,147.8,83.3"/>
			<path class="st27" d="M166.7,72.6c0.4,0,0.7,0.3,0.7,0.7s-0.3,0.7-0.7,0.7c-0.4,0-0.7-0.3-0.7-0.7S166.3,72.6,166.7,72.6"/>
			<path class="st27" d="M152.6,64.5c0.4,0,0.7,0.3,0.7,0.7s-0.3,0.7-0.7,0.7c-0.4,0-0.7-0.3-0.7-0.7S152.2,64.5,152.6,64.5"/>
			<path class="st27" d="M162,64.5c0.4,0,0.7,0.3,0.7,0.7s-0.3,0.7-0.7,0.7c-0.4,0-0.7-0.3-0.7-0.7S161.6,64.5,162,64.5"/>
			<path class="st27" d="M152.6,86c0.4,0,0.7,0.3,0.7,0.7c0,0.4-0.3,0.7-0.7,0.7c-0.4,0-0.7-0.3-0.7-0.7
				C151.9,86.3,152.2,86,152.6,86"/>
			<path class="st27" d="M162,86c0.4,0,0.7,0.3,0.7,0.7c0,0.4-0.3,0.7-0.7,0.7c-0.4,0-0.7-0.3-0.7-0.7C161.3,86.3,161.6,86,162,86"
				/>
			<path class="st27" d="M166.7,67.1c0.4,0,0.7,0.3,0.7,0.7s-0.3,0.7-0.7,0.7c-0.4,0-0.7-0.3-0.7-0.7S166.3,67.1,166.7,67.1"/>
			<path class="st27" d="M166.7,77.9c0.4,0,0.7,0.3,0.7,0.7c0,0.4-0.3,0.7-0.7,0.7c-0.4,0-0.7-0.3-0.7-0.7
				C166,78.2,166.3,77.9,166.7,77.9"/>
			<path class="st27" d="M147.9,72.6c0.4,0,0.7,0.3,0.7,0.7s-0.3,0.7-0.7,0.7c-0.4,0-0.7-0.3-0.7-0.7S147.5,72.6,147.9,72.6"/>
			<path class="st27" d="M147.9,77.9c0.4,0,0.7,0.3,0.7,0.7c0,0.4-0.3,0.7-0.7,0.7c-0.4,0-0.7-0.3-0.7-0.7
				C147.2,78.2,147.5,77.9,147.9,77.9"/>
			<path class="st27" d="M166.7,83.3c0.4,0,0.7,0.3,0.7,0.7s-0.3,0.7-0.7,0.7c-0.4,0-0.7-0.3-0.7-0.7S166.3,83.3,166.7,83.3"/>
		</g>
		<text transform="matrix(1 0 0 1 267.869 70.5499)" class="st2 st30 st31">TM</text>
	</g>
</g>
</svg>
