<?xml version="1.0" encoding="utf-8"?>
<!-- Generator: Adobe Illustrator 25.0.0, SVG Export Plug-In . SVG Version: 6.00 Build 0)  -->
<svg version="1.1" xmlns="http://www.w3.org/2000/svg" xmlns:xlink="http://www.w3.org/1999/xlink" x="0px" y="0px"
	 viewBox="0 0 283.5 149.4" style="enable-background:new 0 0 283.5 149.4;" xml:space="preserve">
<style type="text/css">
	.st0{opacity:0.9;}
	.st1{fill:#FFFFFF;stroke:#010101;stroke-miterlimit:10;}
	.st2{fill:#010101;}
	.st3{fill:#231F20;}
	.st4{fill:none;stroke:#231F20;stroke-width:2.054;stroke-miterlimit:10;}
	.st5{fill:none;stroke:#231F20;stroke-width:1.711;stroke-miterlimit:10;}
	.st6{fill:none;stroke:#231F20;stroke-width:2.054;stroke-linejoin:bevel;stroke-miterlimit:10;}
	.st7{fill:none;stroke:#231F20;stroke-width:1.972;stroke-miterlimit:10;}
	.st8{fill:#FFFFFF;}
	.st9{fill:none;stroke:#231F20;stroke-width:1.369;stroke-linecap:round;stroke-linejoin:round;stroke-miterlimit:10;}
	.st10{fill:none;stroke:#231F20;stroke-width:1.369;stroke-linejoin:bevel;stroke-miterlimit:10;}
	.st11{fill:none;stroke:#231F20;stroke-width:0.685;stroke-miterlimit:10;}
	.st12{fill:none;stroke:#231F20;stroke-width:2.054;stroke-linecap:round;stroke-linejoin:round;stroke-miterlimit:10;}
	.st13{fill:none;stroke:#231F20;stroke-width:1.972;stroke-linecap:round;stroke-linejoin:round;stroke-miterlimit:10;}
	.st14{fill:none;stroke:#231F20;stroke-width:2.029;stroke-miterlimit:10;}
	.st15{fill:#E9282A;}
	.st16{fill:none;stroke:#231F20;stroke-width:1.691;stroke-linecap:round;stroke-linejoin:round;stroke-miterlimit:10;}
	.st17{fill:none;stroke:#231F20;stroke-width:2.031;stroke-miterlimit:10;}
	.st18{fill:none;stroke:#231F20;stroke-width:2.031;stroke-linejoin:round;stroke-miterlimit:10;}
	.st19{fill:none;stroke:#FFFFFF;stroke-width:7.454;stroke-linecap:round;stroke-linejoin:round;stroke-miterlimit:10;}
	.st20{fill:none;stroke:#020202;stroke-width:2.485;stroke-linecap:round;stroke-linejoin:round;stroke-miterlimit:10;}
	.st21{fill:none;stroke:#231F20;stroke-width:1.497;stroke-miterlimit:10;}
	.st22{fill:none;stroke:#231F20;stroke-width:2.054;stroke-miterlimit:10;stroke-dasharray:1.369,1.027;}
	.st23{fill:none;stroke:#231F20;stroke-width:1.369;stroke-miterlimit:10;}
	.st24{fill:#020202;}
	.st25{fill:none;}
	.st26{clip-path:url(#SVGID_2_);fill:#231F20;}
	.st27{clip-path:url(#SVGID_4_);fill:#010101;}
	.st28{clip-path:url(#SVGID_6_);fill:#010101;}
	.st29{clip-path:url(#SVGID_6_);fill:none;stroke:#010101;stroke-width:0.432;stroke-miterlimit:10;}
	.st30{fill-rule:evenodd;clip-rule:evenodd;fill:#010101;}
	.st31{clip-path:url(#SVGID_8_);fill:#010101;}
	.st32{clip-path:url(#SVGID_10_);fill:#010101;}
	.st33{clip-path:url(#SVGID_10_);fill:#97999B;}
	.st34{clip-path:url(#SVGID_10_);fill:none;stroke:#010101;stroke-width:0.367;}
	.st35{clip-path:url(#SVGID_12_);fill:none;stroke:#010101;stroke-width:0.367;}
	.st36{fill:#95979A;}
	.st37{fill:none;stroke:#010101;stroke-width:0.367;}
	.st38{fill:#231F20;stroke:#231F20;stroke-width:1.32;stroke-miterlimit:10;}
	.st39{fill:#231F20;stroke:#231F20;stroke-width:0.9;stroke-miterlimit:10;}
	.st40{fill-rule:evenodd;clip-rule:evenodd;fill:#231F20;}
	.st41{fill:none;stroke:#010101;stroke-width:0.349;}
	.st42{clip-path:url(#SVGID_14_);fill:#010101;}
	.st43{clip-path:url(#SVGID_16_);fill:#010101;}
	.st44{clip-path:url(#SVGID_18_);fill:#010101;}
	.st45{clip-path:url(#SVGID_20_);fill:#010101;}
	.st46{clip-path:url(#SVGID_22_);fill:#010101;}
	.st47{clip-path:url(#SVGID_24_);fill:#010101;}
	.st48{clip-path:url(#SVGID_26_);fill:#010101;}
	.st49{clip-path:url(#SVGID_28_);fill:none;stroke:#010101;stroke-width:0.274;}
	.st50{clip-path:url(#SVGID_30_);fill:#010101;}
	.st51{clip-path:url(#SVGID_32_);fill:#010101;}
	.st52{clip-path:url(#SVGID_34_);fill:#010101;}
	.st53{clip-path:url(#SVGID_36_);fill:#231F20;}
	.st54{clip-path:url(#SVGID_36_);fill:#FFFFFF;}
	.st55{clip-path:url(#SVGID_36_);fill:#415364;}
	.st56{clip-path:url(#SVGID_36_);fill-rule:evenodd;clip-rule:evenodd;fill:#FFFFFF;}
	.st57{fill-rule:evenodd;clip-rule:evenodd;fill:#FFFFFF;}
	.st58{fill:none;stroke:#231F20;stroke-width:1.6532;stroke-linecap:round;stroke-linejoin:round;stroke-miterlimit:10;}
	.st59{fill:none;stroke:#231F20;stroke-width:1.9928;stroke-miterlimit:10;}
</style>
<g id="Fondo" class="st0">
</g>
<g id="Layer_1">
	<g>
		<path class="st2" d="M247.3,58.3c0-4.1-3.2-7.3-7.3-7.3l-165,0l0,5h165c1.6,0,2.3,1.1,2.3,2.4v32.8c0,1.2-1.4,2.4-2.3,2.4H43.6
			c-0.8,0-1.4-0.2-1.9-0.7c-0.4-0.4-0.6-1-0.6-1.8V60.9l-4.9,0v30.2c0,4.1,3.3,7.3,7.4,7.3H240c0.6,0,1.1-0.1,1.6-0.2
			c2.4-0.4,4.2-2,5.1-4.1c0.4-0.9,0.6-1.9,0.6-3V58.3z"/>
		<path class="st2" d="M240,61.5c0-1.8-1.5-3.2-3.2-3.2c-1.8,0-3.2,1.4-3.2,3.2c0,1.8,1.5,3.2,3.2,3.2C238.5,64.7,240,63.4,240,61.5
			z M234.1,61.5c0-1.5,1.1-2.7,2.6-2.7c1.4,0,2.6,1.1,2.6,2.7c0,1.5-1.1,2.7-2.6,2.7C235.3,64.2,234.1,63.1,234.1,61.5z"/>
		<path class="st2" d="M238.3,63.4l-1-1.6c0.5-0.1,1-0.4,1-1c0-0.7-0.4-1-1.3-1h-1.4v3.7h0.6v-1.6h0.6l1,1.6H238.3z M236.1,61.3
			v-1.1h0.8c0.4,0,0.8,0.1,0.8,0.5c0,0.6-0.4,0.6-0.9,0.6H236.1z"/>
		<polygon class="st2" points="48.4,88.6 53.7,88.6 53.7,55.9 65.2,55.9 65.2,50.9 36.1,50.9 36.1,55.9 48.4,55.9 		"/>
		<path class="st2" d="M115.3,75.9c0-2.6-0.1-4.5-0.4-5.7c-0.3-1.8-0.9-3.3-1.8-4.6c-0.9-1.4-2.3-2.5-4-3.4
			c-1.7-0.9-3.6-1.3-5.4-1.3c-3.7,0-6.7,1.3-9,3.9c-2.3,2.6-3.4,6-3.4,10.2c0,4.2,1.1,7.6,3.4,9.9c2.3,2.4,5.1,3.6,8.3,3.6
			c1.3,0,2.5-0.1,3.6-0.4c2-0.5,3.7-1.3,5-2.6c0.8-0.7,1.5-1.7,2.2-2.9c0.6-1.2,1-2.3,1.2-3.2l0-0.3h-4.7l0,0.2
			c-0.3,1.1-0.8,2.1-1.6,2.9c-1.3,1.4-3.1,2.2-5.2,2.2c-2.3,0-4.1-0.8-5.2-2.3c-1.1-1.5-1.7-3.5-1.8-5.9h18.9V75.9z M98.5,67.2
			c1.3-1.4,2.9-2.1,4.8-2.1c2.7,0,4.6,1,5.7,3c0.6,1,1,2.5,1.2,4.2H96.5C96.6,70.2,97.3,68.5,98.5,67.2z"/>
		<path class="st2" d="M118.1,60.9v27.6h4.8V72.7c0-1.9,0.6-3.5,1.7-5c1.1-1.4,2.8-2.3,5-2.3c0.2,0,0.5,0,0.7,0
			c0.2,0,0.4,0.1,0.7,0.1l0.3,0.1l0-4.6l-0.2,0c-0.5-0.1-0.8-0.1-1.1-0.1c-0.2,0-0.4,0-0.4,0c-1.8,0-3.4,0.1-4.8,1.4
			c-1,0.9-1.5,1.8-1.9,2.5v-3.9L118.1,60.9z"/>
		<path class="st2" d="M197.2,60.9v27.7h4.8V72.7c0-1.9,0.6-3.5,1.7-5c1.1-1.4,2.8-2.3,5-2.3c0.2,0,0.5,0,0.7,0
			c0.2,0,0.4,0.1,0.7,0.1l0.3,0.1l0-4.6l-0.2,0c-0.5-0.1-0.8-0.1-1.1-0.1c-0.2,0-0.4,0-0.4,0c-1.8,0-3.4,0.1-4.8,1.4
			c-1,0.9-1.5,1.8-1.9,2.5v-4H197.2z"/>
		<path class="st2" d="M133.2,60.9l-0.1,27.6h4.8V74.6c0-3.2,0.7-6.3,2-7.5c1.3-1.2,2.8-1.9,4.3-1.9c1.7,0,2.9,0.6,3.5,1.7
			c0.4,0.8,0.6,2,0.6,3.7v17.9h4.8V73.3c0-2.6,0.6-5.2,1.8-6.3c1.2-1.1,2.7-1.6,4.3-1.6c1.2,0,2.2,0.3,3.1,0.9
			c0.8,0.6,1.2,1.7,1.2,3.3v18.9h5V70.3c0-2.3-0.4-4.2-1-5.5c-1.3-2.6-3.8-3.9-7.4-3.9c-1.7,0-3.2,0.3-4.5,1
			c-1.2,0.6-2.4,1.6-3.3,2.8c-0.5-1-1.2-1.8-1.8-2.3c-1.3-1-3-1.6-5.1-1.6c-1.9,0-3.6,0.5-5,1.5c-0.7,0.5-1.5,1.3-2.4,2.3v-3.8
			H133.2z"/>
		<path class="st2" d="M182.3,88.6c4.3,0,7.5-1.4,9.6-4.1c2-2.7,3.1-6.2,3.1-10.3c0-4.3-1.2-7.6-3.5-9.8c-2.3-2.2-5.2-3.4-8.6-3.4
			c-3.8,0-6.8,1.3-9,3.9c-2.2,2.6-3.4,6.1-3.4,10.4c0,4,1.1,7.3,3.2,9.7C175.8,87.3,178.7,88.6,182.3,88.6z M188.4,81.3
			c-1,2.1-2.9,3.1-5.7,3.1c-2.5,0-4.4-0.9-5.5-2.6c-1.2-1.8-1.8-4-1.8-6.7c0-2.8,0.6-5.2,1.8-7.2c1.2-2,3-2.9,5.6-2.9
			c2.9,0,4.9,1.1,6.1,3.4c0.7,1.5,1.1,3.4,1.1,5.7C190,76.8,189.5,79.2,188.4,81.3z"/>
		<path class="st2" d="M228.8,62.2c-1.7-0.9-3.6-1.3-5.4-1.3c-3.7,0-6.7,1.3-9,4c-2.3,2.6-3.4,6.1-3.4,10.2c0,4.2,1.1,7.6,3.4,10
			c2.3,2.4,5.1,3.6,8.3,3.6c1.3,0,2.5-0.1,3.6-0.4c2-0.5,3.7-1.3,5-2.7c0.8-0.7,1.5-1.7,2.2-2.9c0.6-1.2,1-2.3,1.2-3.2l0-0.3h-4.7
			l0,0.2c-0.3,1.1-0.8,2.1-1.6,2.9c-1.3,1.4-3.1,2.2-5.2,2.2c-2.3,0-4.1-0.8-5.2-2.3c-1.1-1.5-1.7-3.5-1.8-5.9H235V76
			c0-2.6-0.1-4.5-0.4-5.7c-0.3-1.8-0.9-3.3-1.8-4.6C231.9,64.2,230.5,63.1,228.8,62.2z M216.1,72.3c0.1-2.1,0.8-3.8,2.1-5.1
			c1.3-1.4,2.9-2.1,4.8-2.1c2.7,0,4.6,1,5.7,3c0.6,1,1,2.5,1.2,4.2H216.1z"/>
		<rect x="67.7" y="50.9" class="st2" width="4.8" height="5"/>
		<path class="st2" d="M72.5,58.4h-4.8v30.2h4.8V74.3c0-3.4,0.7-5.8,2.1-7c1.4-1.2,3-1.9,4.7-1.9c2.1,0,3.5,0.7,4.2,2.1
			c0.5,0.9,0.7,2.3,0.7,4.2v17h5V71.3c0-2.6-0.4-4.7-1.1-6.2c-1.4-2.8-4-4.2-7.9-4.2c-2.1,0-3.9,0.5-5.4,1.5
			c-0.7,0.5-1.5,1.3-2.4,2.3L72.5,58.4z"/>
	</g>
</g>
</svg>
