<svg xmlns="http://www.w3.org/2000/svg" viewBox="0 0 283.46 149.39"><defs><style>.cls-1{opacity:0.9;}.cls-2{fill:#010101;}</style></defs><g id="Layer_1" data-name="Layer 1"><polygon class="cls-2" points="77.79 67.05 70.99 67.05 70.99 64.94 86.91 64.94 86.91 67.05 80.11 67.05 80.11 85.2 77.79 85.2 77.79 67.05"/><rect class="cls-2" x="91.39" y="64.94" width="2.29" height="20.26"/><polygon class="cls-2" points="99.61 64.94 101.92 64.94 109.3 76 116.68 64.94 118.99 64.94 118.99 85.2 116.71 85.2 116.71 68.79 109.33 79.64 109.21 79.64 101.83 68.82 101.83 85.2 99.61 85.2 99.61 64.94"/><path class="cls-2" d="M124.72,64.94h8.62a7.5,7.5,0,0,1,5.3,1.79,4.55,4.55,0,0,1,1.3,3.25v0a4.88,4.88,0,0,1-3.22,4.69c2.41.73,4.35,2.12,4.35,4.89v.06c0,3.47-2.93,5.53-7.35,5.53h-9ZM133,74c2.75,0,4.66-1.24,4.66-3.62v0c0-2-1.59-3.31-4.48-3.31H127v7Zm.81,9.17c3.07,0,5-1.36,5-3.61v-.06c0-2.2-1.85-3.48-5.38-3.48H127v7.15Z"/><polygon class="cls-2" points="145.6 64.94 160.25 64.94 160.25 67.03 147.89 67.03 147.89 73.94 158.94 73.94 158.94 76.02 147.89 76.02 147.89 83.11 160.39 83.11 160.39 85.2 145.6 85.2 145.6 64.94"/><path class="cls-2" d="M165,64.94h8.71a8,8,0,0,1,5.76,2A5.6,5.6,0,0,1,181,71V71c0,3.36-2.32,5.32-5.5,5.9l6.22,8.28h-2.8l-5.88-7.87h-5.79V85.2H165Zm8.51,10.33c3,0,5.2-1.56,5.2-4.16v-.06c0-2.49-1.9-4-5.18-4h-6.25v8.22Z"/><path class="cls-2" d="M184.14,75.13v-.06c0-5.9,4.63-10.53,10.91-10.53a11.82,11.82,0,0,1,8.22,2.95l-3.3,4a7.17,7.17,0,0,0-4.89-1.91,5.32,5.32,0,0,0-5.18,5.56v.06a5.34,5.34,0,0,0,5.5,5.61,5.72,5.72,0,0,0,3.24-.84V77.47h-4V73.36H204v9.12a13.72,13.72,0,0,1-8.8,3.12c-6.3,0-11-4.34-11-10.47"/><path class="cls-2" d="M207.08,64.94h9.58c3.1,0,5.24.81,6.6,2.2a6.31,6.31,0,0,1,1.79,4.72v.06a6.41,6.41,0,0,1-4.16,6.22l4.83,7.06h-6.48l-4.08-6.14H212.7V85.2h-5.62Zm9.32,9.72c1.91,0,3-.92,3-2.4v-.05c0-1.6-1.16-2.41-3-2.41H212.7v4.86Z"/><rect class="cls-2" x="228" y="64.94" width="5.64" height="20.26"/><path class="cls-2" d="M237.34,64.94H246c5.13,0,8.43,2.63,8.43,7.12v.06c0,4.77-3.68,7.29-8.71,7.29H243V85.2h-5.62ZM245.62,75c2,0,3.21-1,3.21-2.63v-.06c0-1.74-1.21-2.66-3.24-2.66H243V75Z"/><path class="cls-2" d="M60,65.8a1.6,1.6,0,0,0-1.59,1.6V84.61L41.2,94.5,29.54,87.76l.65-1.13a1,1,0,0,0,.07-1,.93.93,0,0,0-.87-.42L24,85.5a.94.94,0,0,0-.87.42.93.93,0,0,0,.07,1l2.46,4.8a.88.88,0,0,0,1.6,0l.66-1.15,12.46,7.21a1.66,1.66,0,0,0,.81.21h0a1.58,1.58,0,0,0,.79-.21L60.76,86.92a1.6,1.6,0,0,0,.8-1.38l0-18.14A1.61,1.61,0,0,0,60,65.8M41.2,97.7Z"/><path class="cls-2" d="M22.46,83.59A1.61,1.61,0,0,0,24.05,82V64.77l17.17-9.89,11.66,6.75-.66,1.13a1,1,0,0,0-.07,1,1,1,0,0,0,.87.43l5.38-.26a.87.87,0,0,0,.81-1.39l-2.47-4.79a.87.87,0,0,0-1.6,0l-.66,1.15L42,51.65a1.63,1.63,0,0,0-.8-.22h0a1.53,1.53,0,0,0-.78.22L21.66,62.46a1.6,1.6,0,0,0-.79,1.39l0,18.14a1.61,1.61,0,0,0,1.61,1.6M41.23,51.68Z"/><path class="cls-2" d="M48.71,67.21h0m0,0v4.84l-2.64,2.64,2.64,2.65v4.84H43.87l-2.64-2.65-2.65,2.65H33.74V77.34l2.65-2.65-2.65-2.64V67.21h4.84l2.65,2.64,2.64-2.64h4.84m0-3H43.87a3,3,0,0,0-2.1.88l-.54.54-.54-.54a3,3,0,0,0-2.11-.88H33.74a3,3,0,0,0-3,3v4.84a3,3,0,0,0,.87,2.1l.54.54-.54.54a3,3,0,0,0-.87,2.11v4.84a3,3,0,0,0,3,3h4.84a3,3,0,0,0,2.11-.87l.54-.54.54.54a2.94,2.94,0,0,0,2.1.87h4.84a2.94,2.94,0,0,0,2.1-.87,3,3,0,0,0,.87-2.1V77.34a3,3,0,0,0-.87-2.11l-.54-.54.54-.54a3,3,0,0,0,.87-2.1V67.34a.57.57,0,0,0,0-.13,3,3,0,0,0-3-3m0,6h0Z"/><path class="cls-2" d="M255.67,65.76h-1.19V65h3.29v.8h-1.19V69h-.91Zm3-.8h1l1.05,1.68L261.68,65h.94v4h-.86v-2.7L260.66,68h-.08l-1.1-1.76V69h-.86Z"/></g></svg>