<svg xmlns="http://www.w3.org/2000/svg" xmlns:xlink="http://www.w3.org/1999/xlink" viewBox="0 0 283.46 149.39"><defs><style>.cls-1,.cls-7{fill:none;}.cls-2{opacity:0.9;}.cls-3{fill:#fff;}.cls-4,.cls-5{fill:#231f20;}.cls-5{fill-rule:evenodd;}.cls-6{clip-path:url(#clip-path);}.cls-7{stroke:#231f20;stroke-miterlimit:3.86;stroke-width:0.08px;}</style><clipPath id="clip-path"><rect class="cls-1" x="64.92" y="27" width="153.63" height="95.38"/></clipPath></defs><g id="Layer_1" data-name="Layer 1"><polygon class="cls-3" points="103.66 32.66 66.01 59.02 66.01 92.01 103.66 118.57 178.54 118.57 216.19 92.46 216.19 58.77 178.07 32.66 103.66 32.66"/><path class="cls-4" d="M157.41,80l.8,2.05,1.37,1.91,1.93,1.36,2,.69,2,.22,1.81-.22,1.7-.69,1.7-1.24,1.36-1.69.9-2.16.34-2.26-.47-2.26-.77-1.81L171,72.38l-1.48-1.12-1.92-.79-2.15-.35-2.26.23-2.14.91-1.7,1.48-1.24,1.69-.7,1.7-.22,1.8Zm-27.71.45.34-2.25-.34-2.26-.89-2-1.36-1.59L126,71.14l-1.59-.67-2-.35-2.27.23-2.15.91-1.81,1.36-1.24,1.81-.67,1.92L114,78.16l.24,1.8.67,1.93,1.24,1.81,1.81,1.36,2.15.91,2.27.22,2-.35,1.59-.78,1.48-1,1.36-1.58Zm-25-13.11V84.16l5.1-4.66v-20l.1-.68.35-.56L111.71,56l1.36,1.66.46.56.33.56.12.68v9.39l1.8-1.47,3.29-1.36,3.39-.22,3.06.46,2.6,1.12,2.39,1.68,1.91,2.4,5.66-5.66.45-.35.46-.22.53-1.41.83,1.08.55.63.47.49.22.56.1.69v3l4.42-4.52.45-.46.69-.23.78.12.56.22.57.35,5.55,5.88,1.35-1.91,2.61-2.17L162,66.16l3.5-.44,3.28.57,3,1.24,1.58,1.24V67.3l.12-.69,2-2.76,1.38,1.69.4.51.27.62.06.63V83.13l3.75-4.63V67.3l2.05-3.62,1.42,1.72.49.65.22.56.12.69v6.33l8.22-9.93,1.42,1.69.54.66.21.56.12.69v6.21l7.7-10.17,1.92,2.26.45.45.34.56.12.69V83.47l2.27-3.88,2.25,2.76.33.68.12.57-.22.77-.35.69-5,5.31-.45.35-.56.22-.57.11-.67-.11-.57-.33-2.3-2.28L202.23,73,196,80v9l-.12.57-.21.67-.57.46-.56.33-.67.11-.58-.11-3.2-2.74,1.61-15.14-6.21,7.13v9.29l-.34.67-.45.46-.69.33-.56.11-.68-.11-3-2.65,1.49-3-4.3,5-.44.46-.57.22-.57.11-.68-.11-2.8-2.59-.82.56L168.41,90l-2.72.48-3.18-.36L159.35,89l-2.83-2.15L154.37,84l-1.24-3.16-.22-3,.22-1.6-5.56-5.88-5.88,6.1V88.91l-.1.57-.22.67-.57.46-.57.33-.67.11-.57-.11-3.1-2.7,1.62-15.74L134,76l.35,2.16-.45,3.4-1.48,3-1.91,2.5-2.39,1.69-2.6,1.14-3.06.44L119.07,90l-3.29-1.24L114,87.32v1.59l-.12.57-.33.67-.46.46-.68.33-.56.11-.69-.11-3-2.78,1.59-2.88L104,90.51l-.67.31-.81.23-.56-.11-.66-.26L98.7,88.16l1.71-20.86.11-.69,2.13-2.4,1.59,1.84.36.56Z"/><path class="cls-4" d="M70.09,93.88V63.21l36.11-25h73l36,25V93.88l-36,25H106.2Zm35-59.07L66.58,61.39,65,93.14l1.57,2.66,38.48,26.58h75.11L218.54,95.8V61.39L217.2,58.7l-37-23.89Z"/><polygon class="cls-4" points="88.98 90.5 89.43 89.8 99.04 68.21 99.17 67.63 99.17 66.96 98.82 66.16 98.37 65.72 97.86 65.12 97.04 64.13 96.22 65.36 95.54 65.83 95.09 66.5 87.5 83.7 79.93 66.5 79.35 65.83 77.97 64.07 75.85 66.96 75.85 67.63 75.96 68.21 83.78 88.29 86.71 90.94 87.5 91.04 88.3 90.94 88.98 90.5"/><polygon class="cls-4" points="101.66 56.45 100.99 56.57 100.42 56.81 99.97 57.36 99.63 57.93 99.1 59.2 100.42 60.53 100.99 60.77 101.66 60.87 102.35 60.77 102.92 60.53 103.36 59.96 103.71 59.39 103.81 58.72 103.81 58.6 103.71 57.93 103.36 57.36 102.64 56.35 101.66 56.45"/><path class="cls-5" d="M218,34.84a7.84,7.84,0,1,1-13.38-5.53A7.84,7.84,0,0,1,218,34.84m-1.72,0a5.94,5.94,0,0,0-1.8-4.34,6,6,0,0,0-8.63,0,6.19,6.19,0,0,0,0,8.69,6,6,0,0,0,8.63,0,6,6,0,0,0,1.8-4.35m-1.71,3.71h-2.46l-2.36-2.86H209v2.86h-1.93v-7.8h3a9.33,9.33,0,0,1,1.32.07,2.69,2.69,0,0,1,1,.33,1.89,1.89,0,0,1,.78.72,2.13,2.13,0,0,1,.26,1.06,2.1,2.1,0,0,1-.49,1.41,3.08,3.08,0,0,1-1.25.85Zm-3.35-5.48a.83.83,0,0,0-.12-.44.68.68,0,0,0-.34-.33,1.22,1.22,0,0,0-.53-.16,6.12,6.12,0,0,0-.65,0H209v2.21h.46a5,5,0,0,0,.83-.06,1.55,1.55,0,0,0,.55-.24.93.93,0,0,0,.3-.38,1.33,1.33,0,0,0,.11-.56"/><path class="cls-3" d="M104.76,35.43l-36.11,25V91.12l36.11,25h73l36-25V60.43l-36-25ZM103.62,32h75.11L217.1,58.62V93l-38.37,26.58H103.62L65.14,93V58.62Z"/><g class="cls-6"><path class="cls-7" d="M104.76,35.43l-36.11,25V91.12l36.11,25h73l36-25V60.43l-36-25ZM103.62,32h75.11L217.1,58.62V93l-38.37,26.58H103.62L65.14,93V58.62Z"/></g><polygon class="cls-3" points="86.87 88.17 87.33 87.47 96.94 65.88 97.06 65.31 97.06 64.63 96.71 63.83 96.26 63.39 95.59 63.04 94.92 62.94 94.11 63.04 93.44 63.51 92.99 64.18 85.39 81.38 77.82 64.18 77.25 63.51 76.58 63.04 75.79 62.94 75.22 63.04 74.55 63.39 73.97 63.83 73.74 64.63 73.74 65.31 73.86 65.88 83.48 87.47 83.93 88.17 84.61 88.61 85.39 88.72 86.2 88.61 86.87 88.17"/><polygon class="cls-7" points="86.87 88.17 87.33 87.47 96.94 65.88 97.06 65.31 97.06 64.63 96.71 63.83 96.26 63.39 95.59 63.04 94.92 62.94 94.11 63.04 93.44 63.51 92.99 64.18 85.39 81.38 77.82 64.18 77.25 63.51 76.58 63.04 75.79 62.94 75.22 63.04 74.55 63.39 73.97 63.83 73.74 64.63 73.74 65.31 73.86 65.88 83.48 87.47 83.93 88.17 84.61 88.61 85.39 88.72 86.2 88.61 86.87 88.17"/><polygon class="cls-3" points="98.41 56.49 98.31 57.16 98.31 57.28 98.41 57.95 98.74 58.52 99.2 59.09 99.77 59.32 100.44 59.43 101.13 59.32 101.7 59.09 102.14 58.52 102.49 57.95 102.59 57.28 102.59 57.16 102.49 56.49 102.14 55.91 101.7 55.36 101.13 55.13 100.44 55.01 99.77 55.13 99.2 55.36 98.74 55.91 98.41 56.49"/><polygon class="cls-7" points="98.41 56.49 98.31 57.16 98.31 57.28 98.41 57.95 98.74 58.52 99.2 59.09 99.77 59.32 100.44 59.43 101.13 59.32 101.7 59.09 102.14 58.52 102.49 57.95 102.59 57.28 102.59 57.16 102.49 56.49 102.14 55.91 101.7 55.36 101.13 55.13 100.44 55.01 99.77 55.13 99.2 55.36 98.74 55.91 98.41 56.49"/><path class="cls-3" d="M155.31,77.63l.8,2.05,1.36,1.92L159.4,83l2,.69,2,.22,1.81-.22L167,83l1.69-1.24L170,80l.91-2.15.34-2.27-.47-2.25L170,71.53l-1.14-1.47-1.48-1.13-1.91-.79-2.15-.35-2.27.24-2.13.9-1.7,1.48L156,72.11l-.7,1.69-.22,1.8Zm-27.71.45.33-2.25-.33-2.26-.89-2-1.36-1.59-1.48-1.12-1.6-.68-2-.35L118,68l-2.15.9L114,70.29l-1.25,1.82L112.11,74l-.23,1.81.23,1.8.67,1.93L114,81.37l1.81,1.37,2.15.9,2.27.22,2-.35,1.6-.77,1.48-1,1.36-1.58ZM102.59,65V81.83l5.11-4.65v-20l.1-.68.35-.56.45-.56.67-.23.58-.12.44.12.68.23.46.56.33.56.12.68v9.39l1.8-1.47L117,63.72l3.39-.21,3.06.45,2.6,1.12,2.38,1.68,1.92,2.41L136,63.51l.45-.35.45-.23.57-.11.68.11.56.34.58.45.22.56.1.69V68L144,63.51l.46-.47.68-.22.78.11.57.23.57.35,5.54,5.87L154,67.47l2.6-2.17,3.27-1.47,3.51-.44,3.27.57,3,1.24,1.58,1.25V65l.12-.69.23-.56.56-.45.55-.34.69-.11.57.11.67.34.45.45.34.56V80.81l3.75-4.64V65l.1-.69.33-.56.46-.56.68-.23.56-.11.69.11.57.23.57.56.22.56.11.69V71.3l6.79-7.69.45-.45.57-.23.57-.11.68.11.55.34.57.45.22.56.12.69v6.21l6.9-7.57.45-.45.57-.23.46-.11.57.11.67.34.45.45.34.56.12.69V81.14l1.24-1.35.57-.35.67-.21h.79l.67.21L209,80l.33.68.12.57-.22.78-.35.69-5,5.31-.45.34-.55.22-.57.11-.68-.11-.56-.33-.46-.46-.35-.67-.1-.57v-16l-6.23,7v9l-.12.57-.22.67-.57.46-.55.33-.68.11-.57-.11-.68-.33-.46-.46-.33-.67-.12-.57V70.73l-6.22,7.14v9.28l-.33.67-.45.46-.69.33-.56.11-.69-.11-.57-.33-.57-.46-.22-.67-.11-.57V83l-4.3,5-.44.46-.57.22-.57.11-.69-.11-.55-.33-.56-.46-.23-.67-.12-.57V85.1L169,86.58l-2.7,1.13-2.73.46-3.17-.35-3.16-1.14-2.83-2.15-2.16-2.82L151,78.55l-.22-3,.22-1.6L145.47,68l-5.88,6.09V86.58l-.1.57-.22.67-.58.46-.56.33-.68.11-.57-.11-.68-.33-.44-.46-.35-.67v-17l-3.51,3.5.34,2.16-.45,3.4-1.47,3-1.92,2.5L126,86.47l-2.6,1.14-3.06.44L117,87.71l-3.29-1.24L111.88,85v1.59l-.12.57-.33.67-.46.46-.68.33-.56.11-.69-.11-.57-.33-.44-.46-.33-.67-.12-.57V83l-5.66,5.22-.67.33-.81.22-.57-.11-.67-.33-.45-.46-.34-.67-.1-.57V65l.1-.69.34-.56.45-.45.67-.34.57-.11.69.11.57.34.44.45.35.56Z"/><path class="cls-7" d="M155.31,77.63l.8,2.05,1.36,1.92L159.4,83l2,.69,2,.22,1.81-.22L167,83l1.69-1.24L170,80l.91-2.15.34-2.27-.47-2.25L170,71.53l-1.14-1.47-1.48-1.13-1.91-.79-2.15-.35-2.27.24-2.13.9-1.7,1.48L156,72.11l-.7,1.69-.22,1.8Zm-27.71.45.33-2.25-.33-2.26-.89-2-1.36-1.59-1.48-1.12-1.6-.68-2-.35L118,68l-2.15.9L114,70.29l-1.25,1.82L112.11,74l-.23,1.81.23,1.8.67,1.93L114,81.37l1.81,1.37,2.15.9,2.27.22,2-.35,1.6-.77,1.48-1,1.36-1.58ZM102.59,65V81.83l5.11-4.65v-20l.1-.68.35-.56.45-.56.67-.23.58-.12.44.12.68.23.46.56.33.56.12.68v9.39l1.8-1.47L117,63.72l3.39-.21,3.06.45,2.6,1.12,2.38,1.68,1.92,2.41L136,63.51l.45-.35.45-.23.57-.11.68.11.56.34.58.45.22.56.1.69V68L144,63.51l.46-.47.68-.22.78.11.57.23.57.35,5.54,5.87L154,67.47l2.6-2.17,3.27-1.47,3.51-.44,3.27.57,3,1.24,1.58,1.25V65l.12-.69.23-.56.56-.45.55-.34.69-.11.57.11.67.34.45.45.34.56V80.81l3.75-4.64V65l.1-.69.33-.56.46-.56.68-.23.56-.11.69.11.57.23.57.56.22.56.11.69V71.3l6.79-7.69.45-.45.57-.23.57-.11.68.11.55.34.57.45.22.56.12.69v6.21l6.9-7.57.45-.45.57-.23.46-.11.57.11.67.34.45.45.34.56.12.69V81.14l1.24-1.35.57-.35.67-.21h.79l.67.21L209,80l.33.68.12.57-.22.78-.35.69-5,5.31-.45.34-.55.22-.57.11-.68-.11-.56-.33-.46-.46-.35-.67-.1-.57v-16l-6.23,7v9l-.12.57-.22.67-.57.46-.55.33-.68.11-.57-.11-.68-.33-.46-.46-.33-.67-.12-.57V70.73l-6.22,7.14v9.28l-.33.67-.45.46-.69.33-.56.11-.69-.11-.57-.33-.57-.46-.22-.67-.11-.57V83l-4.3,5-.44.46-.57.22-.57.11-.69-.11-.55-.33-.56-.46-.23-.67-.12-.57V85.1L169,86.58l-2.7,1.13-2.73.46-3.17-.35-3.16-1.14-2.83-2.15-2.16-2.82L151,78.55l-.22-3,.22-1.6L145.47,68l-5.88,6.09V86.58l-.1.57-.22.67-.58.46-.56.33-.68.11-.57-.11-.68-.33-.44-.46-.35-.67v-17l-3.51,3.5.34,2.16-.45,3.4-1.47,3-1.92,2.5L126,86.47l-2.6,1.14-3.06.44L117,87.71l-3.29-1.24L111.88,85v1.59l-.12.57-.33.67-.46.46-.68.33-.56.11-.69-.11-.57-.33-.44-.46-.33-.67-.12-.57V83l-5.66,5.22-.67.33-.81.22-.57-.11-.67-.33-.45-.46-.34-.67-.1-.57V65l.1-.69.34-.56.45-.45.67-.34.57-.11.69.11.57.34.44.45.35.56Z"/></g></svg>