<svg xmlns="http://www.w3.org/2000/svg" viewBox="0 0 283.46 149.39"><defs><style>.cls-1{opacity:0.9;}.cls-2{fill:#010101;}</style></defs><g id="Layer_1" data-name="Layer 1"><path class="cls-2" d="M63.44,90.62l-3.21,8.93c-.2.54-.4,1.19-.58,1.83a17,17,0,0,0-.73-1.88L54.6,90.44H53.39L49.13,99.5a16,16,0,0,0-.74,1.88c-.18-.62-.38-1.28-.58-1.82l-3.23-8.94H38.65l8.29,22.66h1.25l5.14-10.6c.21-.47.44-1,.65-1.58.2.55.43,1.12.65,1.58l4.94,10.6h1.26L69,90.62Z"/><path class="cls-2" d="M76.27,90.43H75.1L65.22,113.1h5.56L72,110.22H79.4l1.19,2.88h6Zm-2.33,14.91,1-2.38c.2-.51.43-1.15.69-1.93.21.64.46,1.35.71,1.94l1,2.37Z"/><polygon class="cls-2" points="83.67 95.69 89.73 95.69 89.73 113.1 95.33 113.1 95.33 95.69 101.39 95.69 101.39 90.62 83.67 90.62 83.67 95.69"/><polygon class="cls-2" points="108.99 104.31 117.52 104.31 117.52 99.34 108.99 99.34 108.99 95.69 118.67 95.69 118.67 90.62 103.39 90.62 103.39 113.1 119.11 113.1 119.11 108.03 108.99 108.03 108.99 104.31"/><path class="cls-2" d="M138.9,99.13c0,.28-.07.54-.12.8a19.69,19.69,0,0,1-5.82-.31c-.4.82-1.24,1.19-2.64,1.19h-2.77V97.73l-.23-.1a23.6,23.6,0,0,1-5.37-4V113.1h5.6v-7.38h1.82l4.31,7.38h5.94v-.82l-4.55-7.55A6.7,6.7,0,0,0,138.9,99.13Z"/><path class="cls-2" d="M150.85,90.68a10.21,10.21,0,0,1,3,.73,21.18,21.18,0,0,1-4.23,4.28c2,0,2.92.85,2.92,2.67s-.93,2.7-2.92,2.7h-2.36V97.22a21.19,21.19,0,0,1-5.6,2.22v12.28l.21.35.62,1h4.77v-7h2.48c5.26,0,8.52-3,8.52-7.77C158.21,94,155.42,91.09,150.85,90.68Z"/><polygon class="cls-2" points="141.61 111.72 141.61 113.1 142.44 113.1 141.82 112.07 141.61 111.72"/><path class="cls-2" d="M177.4,98.24c0-4.77-3.18-7.62-8.52-7.62H160.4V113.1H166v-7.38h1.82l4.32,7.38h6.43l-5-8.37A6.83,6.83,0,0,0,177.4,98.24Zm-8.64,2.57H166V95.69h2.77c2.05,0,2.92.76,2.92,2.55S170.81,100.81,168.76,100.81Z"/><path class="cls-2" d="M190.79,90.34a11.52,11.52,0,1,0,11.5,13.13,10,10,0,0,0,0-3.22A11.28,11.28,0,0,0,190.79,90.34Zm0,17.91c-3.47,0-5.89-2.63-5.89-6.39s2.42-6.39,5.89-6.39,5.89,2.63,5.89,6.39S194.26,108.25,190.79,108.25Z"/><path class="cls-2" d="M215.8,90.34a11.28,11.28,0,0,0-11.5,9.91,14.06,14.06,0,0,1,.1,1.61,14.2,14.2,0,0,1-.1,1.61,11.61,11.61,0,1,0,11.5-13.13Zm0,17.91c-3.47,0-5.89-2.63-5.89-6.39s2.42-6.39,5.89-6.39,5.89,2.63,5.89,6.39S219.26,108.25,215.8,108.25Z"/><path class="cls-2" d="M204.3,100.25a12.07,12.07,0,0,0-.12,1.61,12.2,12.2,0,0,0,.12,1.61,14.2,14.2,0,0,0,.1-1.61A14.06,14.06,0,0,0,204.3,100.25Z"/><polygon class="cls-2" points="244.81 95.69 244.81 90.62 229.91 90.62 229.91 113.1 235.5 113.1 235.5 105.13 243.97 105.13 243.97 100 235.5 100 235.5 95.69 244.81 95.69"/><path class="cls-2" d="M145.12,68.85A11,11,0,0,0,150.73,82a11.21,11.21,0,0,0,16.34-9.94c0-3.92-1.63-7.3-3.54-10.58-3.23-6-5.36-9.66-7.47-14.56-1.14,3.62-2.8,6.16-4.72,9.41-1.06,1.81-2.25,3.55-3.18,5.42A41.35,41.35,0,0,0,145.12,68.85Zm6.12-10.2c.35-.57.71-1.16,1.06-1.75.24-.41.47-.8.71-1.19a49.68,49.68,0,0,0,3.15-5.87c1.29,2.75,2.66,5.26,4.28,8.26.67,1.22,1.35,2.48,2.11,3.9l0,0c1.73,3,3.34,6.27,3.39,10a9.79,9.79,0,0,1-2.86,7A10.55,10.55,0,0,1,157.7,82a20.42,20.42,0,0,0,.18-2.95c-.08-7.34-3-13.67-6.62-19.8l-.18-.34A2.13,2.13,0,0,1,151.24,58.65Zm-.87,4.14c0,1.77-1.92,8.25.7,11.81,1.56,2.11-.89,4.35-2.74,1.38-1-1.17-1.19-4-.68-5.94.61-2.41,1.82-4.8,2.52-7.2Z"/><path class="cls-2" d="M157.88,79A20.42,20.42,0,0,1,157.7,82a10.55,10.55,0,0,0,5.4-2.91,9.79,9.79,0,0,0,2.86-7c-.05-3.78-1.66-7.06-3.39-10l0,0c-.76-1.42-1.44-2.68-2.11-3.9-1.62-3-3-5.51-4.28-8.26A49.68,49.68,0,0,1,153,55.71c-.24.39-.47.78-.71,1.19-.35.59-.71,1.18-1.06,1.75a2.13,2.13,0,0,0-.16.25l.18.34C154.83,65.37,157.8,71.7,157.88,79Z"/><path class="cls-2" d="M132.93,99.62h0a3.11,3.11,0,0,0,.28-1.38A3.06,3.06,0,0,1,132.93,99.62Z"/><path class="cls-2" d="M127.55,97.73v-2h2.77c2,0,2.92.76,2.92,2.55a3.11,3.11,0,0,1-.28,1.38,19.69,19.69,0,0,0,5.82.31c.05-.26.09-.52.12-.8a8.67,8.67,0,0,0,.06-.89c0-4.77-3.19-7.62-8.52-7.62H122v3a23.6,23.6,0,0,0,5.37,4Z"/><path class="cls-2" d="M149.69,88.63A12.34,12.34,0,0,1,155,89.71a20.26,20.26,0,0,0,2.3-5.4A11.75,11.75,0,0,1,150.2,83,12.09,12.09,0,0,1,144,68.55a38.23,38.23,0,0,1,2.82-6.68l.3-.62c.66-1.31,1.43-2.56,2.18-3.78l.52-.84c-5.27-9.78-8.93-16.17-12.57-24.62-2.13,6.78-5.24,11.54-8.83,17.61-2,3.37-4.21,6.63-5.94,10.13-2.14,4.31-4.42,8.68-5.7,13.28a20.93,20.93,0,0,0,1.39,15.6h12.23c4.27,0,7.49,1.72,9.18,4.58V88.63h10.07Zm-26.86-2.26c-1.68-2.3-2.22-7.46-1.28-11.12,1.16-4.51,3.12-8.84,4.72-13.46l.39-.09c-1.54,10.18-1.55,16,2.69,21.59C132.49,87.4,126,90.74,122.83,86.37Z"/><path class="cls-2" d="M147.21,95.69h2.36a21.18,21.18,0,0,0,4.23-4.28,10.21,10.21,0,0,0-3-.73h0a10.28,10.28,0,0,0-1.13-.06h-8.08v8.82a21.19,21.19,0,0,0,5.6-2.22Z"/></g></svg>