<?xml version="1.0" encoding="utf-8"?>
<!-- Generator: Adobe Illustrator 25.0.0, SVG Export Plug-In . SVG Version: 6.00 Build 0)  -->
<svg version="1.1" xmlns="http://www.w3.org/2000/svg" xmlns:xlink="http://www.w3.org/1999/xlink" x="0px" y="0px"
	 viewBox="0 0 283.5 149.4" style="enable-background:new 0 0 283.5 149.4;" xml:space="preserve">
<style type="text/css">
	.st0{opacity:0.9;}
	.st1{fill:#FFFFFF;stroke:#010101;stroke-miterlimit:10;}
	.st2{fill:#010101;}
	.st3{fill:#231F20;}
	.st4{fill:none;stroke:#231F20;stroke-width:2.054;stroke-miterlimit:10;}
	.st5{fill:none;stroke:#231F20;stroke-width:1.711;stroke-miterlimit:10;}
	.st6{fill:none;stroke:#231F20;stroke-width:2.054;stroke-linejoin:bevel;stroke-miterlimit:10;}
	.st7{fill:none;stroke:#231F20;stroke-width:1.972;stroke-miterlimit:10;}
	.st8{fill:#FFFFFF;}
	.st9{fill:none;stroke:#231F20;stroke-width:1.369;stroke-linecap:round;stroke-linejoin:round;stroke-miterlimit:10;}
	.st10{fill:none;stroke:#231F20;stroke-width:1.369;stroke-linejoin:bevel;stroke-miterlimit:10;}
	.st11{fill:none;stroke:#231F20;stroke-width:0.685;stroke-miterlimit:10;}
	.st12{fill:none;stroke:#231F20;stroke-width:2.054;stroke-linecap:round;stroke-linejoin:round;stroke-miterlimit:10;}
	.st13{fill:none;stroke:#231F20;stroke-width:1.972;stroke-linecap:round;stroke-linejoin:round;stroke-miterlimit:10;}
	.st14{fill:none;stroke:#231F20;stroke-width:2.029;stroke-miterlimit:10;}
	.st15{fill:#E9282A;}
	.st16{fill:none;stroke:#231F20;stroke-width:1.691;stroke-linecap:round;stroke-linejoin:round;stroke-miterlimit:10;}
	.st17{fill:none;stroke:#231F20;stroke-width:2.031;stroke-miterlimit:10;}
	.st18{fill:none;stroke:#231F20;stroke-width:2.031;stroke-linejoin:round;stroke-miterlimit:10;}
	.st19{fill:none;stroke:#FFFFFF;stroke-width:7.454;stroke-linecap:round;stroke-linejoin:round;stroke-miterlimit:10;}
	.st20{fill:none;stroke:#020202;stroke-width:2.485;stroke-linecap:round;stroke-linejoin:round;stroke-miterlimit:10;}
	.st21{fill:none;stroke:#231F20;stroke-width:1.497;stroke-miterlimit:10;}
	.st22{fill:none;stroke:#231F20;stroke-width:2.054;stroke-miterlimit:10;stroke-dasharray:1.369,1.027;}
	.st23{fill:none;stroke:#231F20;stroke-width:1.369;stroke-miterlimit:10;}
	.st24{fill:#020202;}
	.st25{fill:none;}
	.st26{clip-path:url(#SVGID_2_);fill:#231F20;}
	.st27{clip-path:url(#SVGID_4_);fill:#010101;}
	.st28{clip-path:url(#SVGID_6_);fill:#010101;}
	.st29{clip-path:url(#SVGID_6_);fill:none;stroke:#010101;stroke-width:0.432;stroke-miterlimit:10;}
	.st30{fill-rule:evenodd;clip-rule:evenodd;fill:#010101;}
	.st31{clip-path:url(#SVGID_8_);fill:#010101;}
	.st32{clip-path:url(#SVGID_10_);fill:#010101;}
	.st33{clip-path:url(#SVGID_10_);fill:#97999B;}
	.st34{clip-path:url(#SVGID_10_);fill:none;stroke:#010101;stroke-width:0.367;}
	.st35{clip-path:url(#SVGID_12_);fill:none;stroke:#010101;stroke-width:0.367;}
	.st36{fill:#95979A;}
	.st37{fill:none;stroke:#010101;stroke-width:0.367;}
	.st38{fill:#231F20;stroke:#231F20;stroke-width:1.32;stroke-miterlimit:10;}
	.st39{fill:#231F20;stroke:#231F20;stroke-width:0.9;stroke-miterlimit:10;}
	.st40{fill-rule:evenodd;clip-rule:evenodd;fill:#231F20;}
	.st41{fill:none;stroke:#010101;stroke-width:0.349;}
	.st42{clip-path:url(#SVGID_14_);fill:#010101;}
	.st43{clip-path:url(#SVGID_16_);fill:#010101;}
	.st44{clip-path:url(#SVGID_18_);fill:#010101;}
	.st45{clip-path:url(#SVGID_20_);fill:#010101;}
	.st46{clip-path:url(#SVGID_22_);fill:#010101;}
	.st47{clip-path:url(#SVGID_24_);fill:#010101;}
	.st48{clip-path:url(#SVGID_26_);fill:#010101;}
	.st49{clip-path:url(#SVGID_28_);fill:none;stroke:#010101;stroke-width:0.274;}
	.st50{clip-path:url(#SVGID_30_);fill:#010101;}
	.st51{clip-path:url(#SVGID_32_);fill:#010101;}
	.st52{clip-path:url(#SVGID_34_);fill:#010101;}
	.st53{clip-path:url(#SVGID_36_);fill:#231F20;}
	.st54{clip-path:url(#SVGID_36_);fill:#FFFFFF;}
	.st55{clip-path:url(#SVGID_36_);fill:#415364;}
	.st56{clip-path:url(#SVGID_36_);fill-rule:evenodd;clip-rule:evenodd;fill:#FFFFFF;}
	.st57{fill-rule:evenodd;clip-rule:evenodd;fill:#FFFFFF;}
	.st58{fill:none;stroke:#231F20;stroke-width:1.6532;stroke-linecap:round;stroke-linejoin:round;stroke-miterlimit:10;}
	.st59{fill:none;stroke:#231F20;stroke-width:1.9928;stroke-miterlimit:10;}
</style>
<g id="Fondo" class="st0">
</g>
<g id="Layer_1">
	<g>
		<g>
			<g>
				<g>
					<path class="st3" d="M141.7,118.4c-24.1,0-43.7-19.6-43.7-43.7C98,50.6,117.6,31,141.7,31s43.7,19.6,43.7,43.7
						C185.5,98.8,165.8,118.4,141.7,118.4z M141.7,34.9c-22,0-39.8,17.9-39.8,39.8s17.9,39.8,39.8,39.8s39.8-17.9,39.8-39.8
						S163.7,34.9,141.7,34.9z"/>
				</g>
			</g>
			<g>
				<path class="st3" d="M169.3,78.7c-6.9,1.8-8.7,7.6-8.7,7.6c-9-4.3-14.3,0.1-16.6,2.5v12.2h0c0,0-0.1,3.4-0.1,3.8
					c-0.1,4.5-3.9,4.5-3.9,4.5c-3.4,0-4-3.3-3.6-4.7c0.5-1.3,1.9-1.4,1.9,0.1c0,1.8,1.6,2.6,1.6,2.6c2.1,0,1.7-2.7,1.7-2.7V88.7
					c-7.7-7.8-18.2-2.3-18.2-2.3c-0.9-7.1-9.5-6.4-9.5-6.4c9.3-16.2,27.3-14.7,27.3-14.7c0.1-0.2,0.2-0.3,0.3-0.3v-0.5
					c0-0.3,0.3-0.5,0.7-0.5c0.4,0,0.8,0.2,0.8,0.5l0,0.8C162.2,65,169.3,78.7,169.3,78.7"/>
			</g>
			<g>
				<g>
					<path class="st3" d="M144.6,47.4c-1.9-3.1-2.4-4.7-2.4-4.7s-0.5,1.6-2.4,4.7c-1.9,3.1-1.8,5.2-1.8,5.6c0,0.4,0,4.9,4.2,4.9
						c4.2,0,4.2-4.6,4.2-4.9C146.3,52.6,146.5,50.6,144.6,47.4z"/>
				</g>
			</g>
			<g>
				<g>
					<path class="st3" d="M124.2,52.2c-1.9-3.1-2.4-4.7-2.4-4.7s-0.5,1.6-2.4,4.7c-1.9,3.1-1.8,5.2-1.8,5.6c0,0.4,0,4.9,4.2,4.9
						c4.2,0,4.2-4.6,4.2-4.9C125.9,57.4,126.1,55.4,124.2,52.2z"/>
				</g>
			</g>
			<g>
				<g>
					<path class="st3" d="M163.4,52.2c-1.9-3.1-2.4-4.7-2.4-4.7s-0.5,1.6-2.4,4.7c-1.9,3.1-1.8,5.2-1.8,5.6c0,0.4,0,4.9,4.2,4.9
						c4.2,0,4.2-4.6,4.2-4.9C165.1,57.4,165.3,55.4,163.4,52.2z"/>
				</g>
			</g>
		</g>
	</g>
</g>
</svg>
