<?xml version="1.0" encoding="utf-8"?>
<!-- Generator: Adobe Illustrator 25.2.3, SVG Export Plug-In . SVG Version: 6.00 Build 0)  -->
<svg version="1.1" id="Capa_1" xmlns="http://www.w3.org/2000/svg" xmlns:xlink="http://www.w3.org/1999/xlink" x="0px" y="0px"
	 viewBox="0 0 535.09 466.5" style="enable-background:new 0 0 535.09 466.5;" xml:space="preserve">
<style type="text/css">
	.st0{fill:#E02631;}
	.st1{fill:#9B1C22;}
	.st2{fill:#FFFFFF;}
	.st3{fill:#ED2330;}
</style>
<path class="st0" d="M319.6,106.76c-65.22,10.24-149.12,23.45-167.31,26.53c-30.65,5.2-40.86,22.12-40.86,22.12
	s-83.1,95.04-94.36,108.58c-7.14,8.59-3.46,36.95,0.18,56.56c2.79,18.74,7.76,41,16.02,46.26c14.85,9.46,122.98,74.64,122.98,74.64
	s14.88,13,45.66,8.61s248.07-38.31,248.07-38.31s81.58-3.33,67.96-97.32l-13.66-83.36l-1.85-12.43l-1.45-6.53
	c-3.89-20-0.43-23.23,3.19-29.74c3.08-5.55,2.74-13.84,1.96-18.09c-0.22-1.22-1.71-1.67-2.49-0.71
	c-4.29,5.22-15.13,17.62-27.08,25.16c-3.27,2.06-22.06,10.63-27.96,1.07c-6.73-15.22,12.27-22.93,21.59-25.84
	c16.99-5.31,27.97-9.56,35.75-20.18c7.79-10.62,9.91-40-9.56-70.8c-16.48-26.07-17.49-53.4-17.41-61.18
	c0.01-1.1-1.19-1.77-2.15-1.23c-7.6,4.35-8.05,17.23-8.05,30.55c0,14.51,4.44,34.34,0,56.29c-3.24,16.05-44.42,46.09-55.58,25.13
	c-11.67-21.92,5.74-43.85,13-51.59c0.94-1,0.04-2.6-1.32-2.35c-22.02,4.04-36.31,23.59-39.64,36.24
	c-3.54,13.45-11.33,32.21-21.95,42.83c-10.62,10.62-22.83,3.89-22.83-15.93c0-14.17,7.69-24.37,12.07-29.02
	c0.93-0.99,0.1-2.6-1.24-2.38c-6.84,1.14-17.95,4.15-25.88,5.56L319.6,106.76z M114.8,330.15c-17.6,4.56-34.83-8.02-35.85-26.17
	c-0.75-13.43,8.28-25.81,21.3-29.18c17.6-4.56,34.83,8.02,35.85,26.17C136.85,314.41,127.82,326.78,114.8,330.15z"/>
<g>
	<g>
		<path class="st1" d="M183.94,204.83l18.21-2.84l4.64,29.76l27.05-4.22l-4.64-29.76l18.21-2.84l11.6,74.39l-18.21,2.84l-4.54-29.13
			l-27.05,4.22l4.54,29.13l-18.21,2.84L183.94,204.83z"/>
		<path class="st1" d="M298.5,185.69c22.47-3.51,41.51,10.58,44.84,31.91c3.41,21.85-10.37,41.48-32.84,44.98
			c-22.47,3.51-41.57-10.99-44.98-32.84C262.18,208.4,276.02,189.19,298.5,185.69z M307.89,245.93c11.13-1.74,18.59-12.7,16.61-25.4
			c-1.9-12.17-12.28-19.93-23.41-18.2s-18.65,12.29-16.75,24.46C286.32,239.49,296.76,247.66,307.89,245.93z"/>
		<path class="st1" d="M366.66,192.32l-22.58,3.52l-2.43-15.61l63.36-9.88l2.43,15.61l-22.58,3.52l9.17,58.78l-18.21,2.84
			L366.66,192.32z"/>
		<path class="st1" d="M192.44,348.29c0,0,9.63,6.38,18.99,4.92c3.75-0.58,7.58-2.67,6.88-7.15c-1.38-8.84-34.83-3.31-38.4-26.2
			c-2.14-13.73,7.99-24.59,22.77-26.89c16.02-2.5,25.24,4.69,25.24,4.69l-5.38,16.08c0,0-8.51-5.39-17.46-3.99
			c-3.75,0.58-7.65,2.9-7,7.06c1.46,9.36,34.7,2.47,38.37,25.99c1.93,12.38-5.86,24.58-22.62,27.19
			c-17.48,2.73-28.81-6.38-28.81-6.38L192.44,348.29z"/>
		<path class="st1" d="M292.63,340.45l-23.2,3.62l-2.04,16.3l-18.73,2.92l13.68-78.33l19.14-2.99l36.89,70.45l-18.73,2.92
			L292.63,340.45z M274.45,300.44c0,0-0.4,8.37-1.02,13.27l-2.01,15.13l14.67-2.29l-6.42-13.81c-2.08-4.47-5.01-12.33-5.01-12.33
			L274.45,300.44z"/>
		<path class="st1" d="M317.92,276.29l18.21-2.84l9.17,58.78l30.38-4.74l2.43,15.61l-48.59,7.58L317.92,276.29z"/>
		<path class="st1" d="M379.34,266.71l46.61-7.27l2.43,15.61l-28.4,4.43l2.11,13.53l22.68-3.54l2.43,15.6l-22.68,3.54l2.19,14.05
			l29.86-4.66l2.43,15.61l-48.07,7.5L379.34,266.71z"/>
	</g>
	<g>
		<path class="st2" d="M180.38,201.55l18.21-2.84l4.64,29.76l27.05-4.22l-4.64-29.76l18.21-2.84l11.6,74.39l-18.21,2.84l-4.54-29.13
			l-27.05,4.22l4.54,29.13l-18.21,2.84L180.38,201.55z"/>
		<path class="st2" d="M294.94,182.4c22.47-3.51,41.51,10.58,44.84,31.91c3.41,21.85-10.37,41.48-32.84,44.98
			c-22.47,3.51-41.57-10.99-44.98-32.84C258.62,205.12,272.47,185.91,294.94,182.4z M304.34,242.64
			c11.13-1.74,18.59-12.7,16.61-25.4c-1.9-12.17-12.28-19.93-23.41-18.2c-11.13,1.74-18.65,12.29-16.75,24.46
			C282.76,236.2,293.2,244.38,304.34,242.64z"/>
		<path class="st2" d="M363.1,189.03l-22.58,3.52l-2.43-15.61l63.36-9.88l2.43,15.61l-22.58,3.52l9.17,58.78l-18.21,2.84
			L363.1,189.03z"/>
		<path class="st2" d="M188.89,345.01c0,0,9.63,6.38,18.99,4.92c3.75-0.58,7.58-2.67,6.88-7.15c-1.38-8.84-34.83-3.31-38.4-26.2
			c-2.14-13.73,7.99-24.59,22.77-26.89c16.02-2.5,25.24,4.69,25.24,4.69l-5.38,16.08c0,0-8.51-5.39-17.46-3.99
			c-3.75,0.58-7.65,2.9-7,7.06c1.46,9.36,34.7,2.47,38.37,25.99c1.93,12.38-5.86,24.58-22.62,27.19
			c-17.48,2.73-28.81-6.38-28.81-6.38L188.89,345.01z"/>
		<path class="st2" d="M289.07,337.16l-23.2,3.62l-2.04,16.3l-18.73,2.92l13.68-78.33l19.14-2.99l36.89,70.45l-18.73,2.92
			L289.07,337.16z M270.89,297.16c0,0-0.4,8.37-1.02,13.27l-2.01,15.13l14.67-2.29l-6.42-13.81c-2.08-4.47-5.01-12.33-5.01-12.33
			L270.89,297.16z"/>
		<path class="st2" d="M314.36,273l18.21-2.84l9.17,58.78l30.38-4.74l2.43,15.61l-48.59,7.58L314.36,273z"/>
		<path class="st2" d="M375.78,263.42l46.61-7.27l2.43,15.61l-28.4,4.43l2.11,13.53l22.68-3.54l2.43,15.6l-22.68,3.54l2.19,14.05
			l29.86-4.66l2.43,15.61l-48.07,7.5L375.78,263.42z"/>
	</g>
</g>
<path class="st3" d="M497.44,28.49h1.67l2.47,7.26l2.45-7.26h1.65v8.58h-1.11V32c0-0.18,0-0.46,0.01-0.87
	c0.01-0.4,0.01-0.84,0.01-1.3l-2.45,7.24h-1.15l-2.47-7.24v0.26c0,0.21,0,0.53,0.02,0.96c0.01,0.43,0.02,0.75,0.02,0.95v5.07h-1.11
	V28.49z"/>
<path class="st3" d="M511.36,32.42c0.53,0,0.95-0.11,1.26-0.33c0.31-0.22,0.46-0.61,0.46-1.18c0-0.61-0.22-1.03-0.65-1.25
	c-0.23-0.12-0.54-0.18-0.93-0.18h-2.76v2.93H511.36z M507.58,28.49h3.9c0.65,0,1.17,0.09,1.59,0.28c0.79,0.37,1.19,1.04,1.19,2.03
	c0,0.51-0.11,0.94-0.32,1.26c-0.21,0.33-0.51,0.59-0.89,0.79c0.33,0.13,0.58,0.31,0.75,0.54c0.17,0.22,0.26,0.58,0.28,1.08
	l0.04,1.15c0.01,0.33,0.04,0.57,0.08,0.73c0.07,0.27,0.19,0.45,0.37,0.52v0.19h-1.42c-0.04-0.07-0.07-0.17-0.1-0.29
	c-0.02-0.12-0.04-0.34-0.06-0.68l-0.07-1.43c-0.03-0.56-0.23-0.94-0.61-1.13c-0.22-0.11-0.55-0.16-1.01-0.16h-2.57v3.68h-1.17V28.49
	z"/>
<path class="st3" d="M506.01,19.48c-7.33,0-13.3,5.96-13.3,13.29c0,7.33,5.96,13.29,13.3,13.29c7.33,0,13.29-5.96,13.29-13.29
	C519.31,25.45,513.34,19.48,506.01,19.48 M506.01,47.87c-8.32,0-15.09-6.77-15.09-15.09c0-8.32,6.77-15.09,15.09-15.09
	c8.32,0,15.09,6.77,15.09,15.09C521.1,41.1,514.33,47.87,506.01,47.87"/>
<g>
	<path class="st2" d="M271.46,385.47c-0.08-0.56-0.06-1.1,0.08-1.62c0.13-0.53,0.35-1,0.67-1.42c0.31-0.42,0.7-0.76,1.17-1.04
		c0.47-0.28,0.98-0.46,1.54-0.54c0.56-0.08,1.1-0.05,1.62,0.08c0.53,0.13,1,0.35,1.42,0.67c0.42,0.31,0.77,0.7,1.04,1.17
		c0.28,0.47,0.45,0.98,0.54,1.53s0.06,1.1-0.08,1.63c-0.13,0.53-0.36,1-0.67,1.42c-0.31,0.42-0.7,0.77-1.17,1.05
		c-0.47,0.27-0.98,0.45-1.54,0.54s-1.1,0.05-1.62-0.08c-0.53-0.13-1-0.36-1.42-0.67c-0.42-0.31-0.77-0.7-1.04-1.17
		C271.72,386.54,271.54,386.02,271.46,385.47z"/>
	<path class="st2" d="M297.22,370.83c-0.39-0.42-0.9-0.74-1.53-0.97c-0.63-0.22-1.28-0.29-1.95-0.19c-1.67,0.24-2.89,0.93-3.67,2.06
		c-0.78,1.13-1.05,2.5-0.81,4.11c0.23,1.61,0.89,2.85,1.95,3.71c1.07,0.86,2.44,1.17,4.1,0.93c0.73-0.11,1.34-0.36,1.82-0.75
		c0.48-0.4,0.88-0.85,1.2-1.34l5.01,3.93c-0.87,1.2-1.97,2.12-3.3,2.74c-1.33,0.63-2.62,1.03-3.88,1.22
		c-1.64,0.24-3.22,0.2-4.75-0.12c-1.53-0.32-2.89-0.88-4.11-1.71c-1.21-0.82-2.22-1.88-3.04-3.16c-0.81-1.29-1.35-2.78-1.59-4.48
		s-0.16-3.28,0.25-4.74c0.42-1.47,1.08-2.77,2.01-3.9c0.93-1.13,2.07-2.07,3.45-2.81c1.37-0.74,2.88-1.22,4.51-1.46
		c1.26-0.18,2.61-0.16,4.07,0.06c1.45,0.22,2.77,0.79,3.94,1.69L297.22,370.83z"/>
	<path class="st2" d="M303.69,373.74c-0.25-1.7-0.16-3.28,0.25-4.74c0.41-1.46,1.08-2.76,2.01-3.9c0.93-1.13,2.07-2.07,3.45-2.81
		c1.37-0.74,2.88-1.23,4.51-1.46c1.64-0.24,3.22-0.2,4.75,0.12c1.53,0.32,2.89,0.89,4.1,1.71c1.21,0.83,2.22,1.88,3.04,3.17
		c0.81,1.29,1.35,2.78,1.59,4.48c0.25,1.7,0.16,3.28-0.25,4.74c-0.42,1.46-1.09,2.76-2.01,3.9c-0.93,1.14-2.07,2.07-3.45,2.81
		c-1.37,0.74-2.88,1.23-4.52,1.47c-1.64,0.24-3.22,0.2-4.75-0.12c-1.53-0.32-2.89-0.89-4.1-1.71c-1.21-0.82-2.22-1.88-3.04-3.16
		C304.47,376.93,303.94,375.44,303.69,373.74z M310.28,372.79c0.23,1.61,0.88,2.84,1.95,3.7c1.07,0.86,2.44,1.17,4.1,0.93
		c1.67-0.24,2.89-0.93,3.67-2.06c0.78-1.13,1.05-2.5,0.81-4.11c-0.23-1.61-0.88-2.84-1.95-3.71c-1.07-0.86-2.43-1.17-4.1-0.93
		c-1.67,0.24-2.89,0.93-3.67,2.06C310.32,369.81,310.05,371.18,310.28,372.79z"/>
	<path class="st2" d="M329.71,359.06l6.32-0.92l0.42,2.9l0.09-0.01c0.14-0.44,0.38-0.89,0.7-1.36c0.32-0.46,0.72-0.9,1.2-1.29
		c0.48-0.4,1.04-0.75,1.69-1.05s1.36-0.51,2.15-0.63c1.49-0.22,2.86-0.1,4.11,0.35c1.24,0.45,2.26,1.28,3.03,2.52
		c0.56-1.48,1.34-2.6,2.34-3.34c1-0.74,2.29-1.23,3.87-1.46c1.43-0.21,2.68-0.14,3.73,0.2c1.05,0.34,1.92,0.88,2.62,1.64
		c0.69,0.75,1.24,1.67,1.65,2.76c0.41,1.09,0.72,2.28,0.9,3.57l1.83,12.6l-6.59,0.96l-1.81-12.42c-0.14-0.99-0.48-1.82-1.01-2.48
		c-0.53-0.66-1.34-0.9-2.42-0.75c-0.76,0.11-1.38,0.33-1.86,0.65c-0.48,0.32-0.84,0.73-1.08,1.21c-0.24,0.49-0.39,1.03-0.44,1.63
		c-0.05,0.61-0.02,1.23,0.07,1.87l1.64,11.28l-6.58,0.96l-1.64-11.28c-0.06-0.38-0.14-0.85-0.25-1.4c-0.11-0.55-0.29-1.06-0.54-1.54
		c-0.25-0.47-0.59-0.85-1.04-1.15c-0.45-0.29-1.05-0.38-1.81-0.27c-0.85,0.12-1.52,0.38-2,0.76c-0.48,0.38-0.82,0.85-1.03,1.41
		c-0.2,0.55-0.3,1.16-0.3,1.81c0,0.66,0.06,1.34,0.16,2.04l1.55,10.62l-6.59,0.96L329.71,359.06z"/>
	<path class="st2" d="M370.59,371.05c-0.08-0.56-0.05-1.1,0.08-1.62c0.13-0.53,0.35-1,0.67-1.42c0.31-0.42,0.7-0.76,1.17-1.05
		c0.47-0.28,0.98-0.46,1.54-0.54c0.56-0.08,1.1-0.05,1.62,0.08c0.53,0.13,1,0.36,1.42,0.67c0.42,0.31,0.77,0.7,1.04,1.17
		c0.28,0.47,0.45,0.98,0.54,1.53c0.08,0.56,0.06,1.1-0.08,1.63c-0.13,0.53-0.36,1-0.67,1.42c-0.31,0.42-0.7,0.77-1.17,1.05
		c-0.47,0.27-0.98,0.45-1.54,0.54c-0.56,0.08-1.1,0.05-1.62-0.08c-0.53-0.13-1-0.36-1.42-0.67c-0.42-0.31-0.76-0.7-1.04-1.17
		C370.85,372.12,370.67,371.61,370.59,371.05z"/>
	<path class="st2" d="M380.9,351.62l6.32-0.92l0.42,2.9l0.09-0.01c0.14-0.44,0.38-0.89,0.7-1.36c0.32-0.46,0.72-0.9,1.2-1.3
		c0.48-0.4,1.04-0.75,1.69-1.05c0.64-0.3,1.36-0.51,2.15-0.62c1.49-0.22,2.86-0.1,4.11,0.34c1.24,0.45,2.26,1.29,3.03,2.52
		c0.56-1.48,1.34-2.6,2.34-3.34c1-0.74,2.28-1.23,3.87-1.46c1.43-0.21,2.68-0.14,3.73,0.2s1.92,0.88,2.62,1.64
		c0.69,0.75,1.24,1.67,1.66,2.76c0.41,1.09,0.72,2.28,0.9,3.57l1.83,12.6l-6.58,0.96l-1.81-12.42c-0.14-0.99-0.48-1.82-1.01-2.48
		c-0.53-0.66-1.34-0.91-2.42-0.75c-0.76,0.11-1.38,0.33-1.85,0.65c-0.48,0.32-0.84,0.73-1.08,1.21c-0.24,0.48-0.39,1.03-0.43,1.63
		c-0.05,0.61-0.02,1.23,0.07,1.88l1.64,11.28l-6.59,0.96l-1.64-11.28c-0.06-0.38-0.14-0.85-0.25-1.4s-0.29-1.06-0.54-1.54
		c-0.25-0.47-0.6-0.85-1.04-1.15c-0.45-0.29-1.05-0.38-1.81-0.27c-0.85,0.12-1.51,0.38-2,0.76c-0.48,0.38-0.82,0.85-1.03,1.41
		c-0.2,0.55-0.3,1.16-0.3,1.82c0,0.65,0.06,1.33,0.16,2.04l1.55,10.62l-6.58,0.96L380.9,351.62z"/>
	<path class="st2" d="M426.29,355.15l-8.56-8.89l7.77-1.13l4.62,5.24l2.8-6.32l7.33-1.07l-5.49,10.93l9.87,10.22l-7.77,1.13
		l-5.69-6.43l-3.97,7.84l-7.68,1.12L426.29,355.15z"/>
</g>
</svg>
