<?xml version="1.0" encoding="utf-8"?>
<!-- Generator: Adobe Illustrator 25.0.0, SVG Export Plug-In . SVG Version: 6.00 Build 0)  -->
<svg version="1.1" xmlns="http://www.w3.org/2000/svg" xmlns:xlink="http://www.w3.org/1999/xlink" x="0px" y="0px"
	 viewBox="0 0 63 99" style="enable-background:new 0 0 63 99;" xml:space="preserve">
<style type="text/css">
	.st0{display:none;opacity:0.45;fill:#1A1A1A;}
	.st1{fill:#E98002;}
	.st2{fill:#FFFFFF;}
</style>
<g id="Layer_1">
	
		<image style="display:none;overflow:visible;" width="1680" height="1917" xlink:href="1529E4B76C2E763E.jpg"  transform="matrix(0.7358 0 0 0.7358 646.3391 1441.754)">
	</image>
	<rect x="646.5" y="1442" class="st0" width="1237" height="998.5"/>
</g>
<g id="Layer_2">
</g>
<g id="Layer_3">
	<g>
		<rect x="13" y="19.5" class="st1" width="37" height="60"/>
		<g>
			<g>
				<path id="XMLID_155_" class="st2" d="M44.2,58.4l-1.2,0.3c0.3,0.7,1.1,2,1.1,2l-1.5,0l-1.3-1.6c-0.7,0.1-2.1,0.5-2.1,0.5
					l0.6,1.1l-1.1,0.1l-0.8-1.1c0,0-3.1,0.9-4.5,1.4l-0.1,0.1c0,1.7,0.1,3.3,0.3,4.9l0.1,0.4c2.8,0.5,5.7,0.7,8.7,0.8l0.3-0.1
					c0.8-1.2,1.3-2.5,1.7-3.8C44.8,62,44.9,59.8,44.2,58.4 M19.6,57.7c-0.2,0.5-0.2,1.1-0.1,1.6c0.3-0.4,0.9-1.3,0.9-1.3L19.6,57.7z
					 M28,57.6l-3.5,2.9l-1.7,0.1c0,0,0.7-0.8,0.9-1.2c-0.6-0.3-1.3-0.6-1.9-0.8l-1.2,1.7c-0.4,0-0.8,0-1.1,0.1
					c-0.1,1.4,0.2,2.7,0.5,3.9c0.1,0.3,0.2,0.9,0.7,0.8c3.4,0,6.7,0.5,10.1,0.9v-5.2c-0.2-0.3-0.6-1-0.8-1.3l-1.6,0.9l-2.9,0
					c0,0,2.4-1.4,3.5-2.1C28.5,58.2,28.3,57.8,28,57.6 M35.8,57.3l-1,1.7l1.2-0.1l1-1.7L35.8,57.3z M19.2,56l1.9,0.9l0.6-1L19.2,56z
					 M23.8,55.7l-1.1,1.7l2.2,0.9l1.8-1.6L26,55.9L23.8,55.7z M31.9,55.6l-0.8,0.4l0,1.1l0.6,0.2L31.9,55.6z M29,54.4l-0.6,1.3
					l1.2,1.4C29.4,56.1,29.3,55.3,29,54.4 M33.4,54.8l0.1,2.7l2-2.6c0.2-0.2,0.2-0.5,0.2-0.5l-0.4-1.2L33.4,54.8z M39.2,53.1
					l-0.9,0.1l-1.5,2.3l1,0L39.2,53.1z M27,52l0.1,2.6l1-2.3L27,52z M34.7,51.3L34,51.8l0.1,0.5l0.6-0.6L34.7,51.3z M23.3,50.7
					L23.3,50.7c0.7,0.8,2.2,2.5,2.2,2.5v-1.9L23.3,50.7z M27,49v1.4l0.7,0.2C27.5,50,27.2,49.5,27,49 M31.3,48.8l-1.5,2.8l0.9,2.9
					l1.3-0.9l0.3-2.4C32,50.4,31.7,49.6,31.3,48.8 M33.4,50.2l0.8-0.2c0,0-1.2-2.6-1.7-3.9c0.4,0,0.8,0,1.2,0.1
					c0.6,1,1.6,2.9,1.6,2.9s1.8-1,2.7-1.5c0.3,0,0.6,0.2,0.8,0.4l-2.8,2.5l0.8,2.3c0,0,2-2.8,3-4.1c0.3,0,0.6,0.4,0.8,0.6
					c-0.4,0.7-1,1.4-1.3,2.1c1.2,0.1,2.4,0,3.5,0.1c0.3,0.3,0.7,0.7,0.8,1.2l-3,0.2l-1.4,2.4l1.9-0.4c0,0,1.5-0.6,3.1-1.2
					c0.3,0.4,0.4,0.8,0.6,1.2l-3.2,1.3l-2.8,0.6c-0.4,0.5-0.7,1-1,1.5c2.5-0.5,5-1.3,7.6-1.8c1.1,3.8,0.5,8.2-1.6,11.4
					c-6.9,1.7-14.3-0.5-21.4,0.5l-2.1,0.3c-1.5-1.8-2.2-4-2.6-6.3c-0.4-2.5-0.1-5.2,0.8-7.4c0.2,0,3.4-0.3,3.4-0.3L20,52.4
					c0.1-0.4,0.4-0.7,0.7-1c1,1.1,2.9,3.2,2.9,3.2l1.1-0.1l-3.3-3.8c0.3-0.5,0.9-1,1.4-1.4l2.8,0.5c0,0,0-1.5,0-2.4
					c0.6-0.3,1.2-0.6,1.9-0.7c0.6,1,1,2.1,1.6,3.1c0.7-1.2,1.3-2.5,2-3.7c0.1,0,0.2-0.1,0.3,0L33.4,50.2z"/>
				<path id="XMLID_154_" class="st2" d="M43.3,68.8c-0.9,1.2-2,2.4-3.2,3.2c-6.5-0.1-12.5-1.9-18.9-2.2c-0.2-0.2-0.4-0.4-0.5-0.7
					c5-0.9,10-0.4,14.9-0.1c2.6,0.1,5.3,0,7.7-0.5L43.3,68.8z"/>
				<path id="XMLID_153_" class="st2" d="M33.6,71.9c1.9,0.2,3.8,0.4,5.7,0.6C35.3,75.3,29,75.3,25,72.9c-1.1-0.7-2.3-1.4-3.2-2.5
					c0-0.1,0.3,0,0.4-0.1l2.7,0.2L33.6,71.9z"/>
			</g>
		</g>
	</g>
</g>
</svg>
