<svg height="511pt" viewBox="0 -53 511.997 511" width="511pt" xmlns="http://www.w3.org/2000/svg"><path d="m492 267.75v-110.253906c0-16.359375-13.308594-29.667969-29.667969-29.667969h-50.832031v-15.828125c0-9.625-7.832031-17.457031-17.457031-17.457031h-2.542969v-28.457031c0-12.003907-9.765625-21.769532-21.769531-21.769532h-8.230469c-5.523438 0-10 4.476563-10 10 0 5.523438 4.476562 10 10 10h8.230469c.976562 0 1.769531.792969 1.769531 1.769532v28.457031h-2.542969c-9.625 0-17.457031 7.832031-17.457031 17.457031v15.828125h-24.089844l-59.421875-121.714844c-1.679687-3.4375-5.167969-5.613281-8.988281-5.613281h-197.25c-2.65625 0-5.199219 1.054688-7.078125 2.933594-1.875 1.878906-2.925781 4.425781-2.921875 7.082031l.242188 148.921875-23.589844 27.558594c-1.550782 1.8125-2.402344 4.117187-2.402344 6.503906v32.523438c-3.46875 4.042968-6.644531 8.332031-9.472656 12.832031-2.480469 3.949219-1.902344 9.09375 1.398437 12.390625l2.351563 2.355468c-1.714844 3.515626-3.214844 7.125-4.492188 10.800782h-3.320312c-4.667969 0-8.710938 3.226562-9.75 7.777344-1.800782 7.882812-2.714844 16.011718-2.714844 24.152343 0 8.144531.914062 16.269531 2.710938 24.15625 1.039062 4.550781 5.085937 7.777344 9.75 7.777344h3.324218c1.273438 3.675781 2.773438 7.285156 4.492188 10.800781l-2.355469 2.351563c-3.296875 3.300781-3.875 8.441406-1.394531 12.394531 8.625 13.722656 20.4375 25.535156 34.160156 34.160156 3.949219 2.484375 9.09375 1.902344 12.394531-1.394531l2.351563-2.355469c3.515625 1.714844 7.125 3.214844 10.800781 4.492188v3.324218c0 4.664063 3.226563 8.710938 7.777344 9.75 7.886719 1.796876 16.011719 2.710938 24.15625 2.710938 8.140625 0 16.269531-.914062 24.152343-2.710938 4.550782-1.039062 7.777344-5.085937 7.777344-9.75v-3.324218c3.675782-1.277344 7.285156-2.777344 10.800782-4.492188l2.355468 2.355469c3.296875 3.296875 8.441406 3.875 12.390625 1.394531 13.722657-8.625 25.535157-20.4375 34.160157-34.160156 2.484374-3.953125 1.902343-9.09375-1.394532-12.394531l-2.355468-2.351563c.75-1.535156 1.449218-3.089844 2.113281-4.65625h134.746093c-.015624.5625-.046874 1.121094-.046874 1.683594 0 5.148438.574218 10.285156 1.714843 15.273438.972657 4.269531 4.601563 7.375 8.902344 7.738281.210937.527343.429687 1.054687.65625 1.578125-2.785156 3.296875-3.152344 8.054687-.820313 11.761718 5.453126 8.679688 12.921876 16.148438 21.597657 21.601563 3.710937 2.328125 8.464843 1.960937 11.765625-.820313.523437.226563 1.046875.445313 1.574218.65625.363282 4.300782 3.46875 7.925782 7.742188 8.902344 4.988281 1.136719 10.125 1.714844 15.273438 1.714844 5.144531 0 10.285156-.578125 15.273437-1.714844 4.269531-.976562 7.375-4.601562 7.738281-8.902344.527344-.210937 1.054688-.429687 1.578125-.65625 3.296875 2.78125 8.054688 3.148438 11.761719.820313 8.679688-5.453125 16.148438-12.921875 21.601562-21.601563 2.328126-3.707031 1.960938-8.464843-.820312-11.761718.226562-.523438.445312-1.050782.65625-1.578125 4.300781-.363281 7.925781-3.46875 8.902344-7.738281 1.136718-4.988282 1.714844-10.128907 1.714844-15.273438 0-.5625-.03125-1.121094-.046876-1.683594h21.0625c11.746094 0 21.300782-9.554687 21.300782-21.300781v-24.121094c.003906-11.308593-8.855469-20.558593-19.996094-21.238281zm-20-110.253906v14.332031h-18.550781c-.246094 0-.449219-.203125-.449219-.449219v-23.550781h9.332031c5.332031 0 9.667969 4.335937 9.667969 9.667969zm-100.5-42.953125h20v57.285156h-20zm-217.832031-94.042969v37.328125c0 5.523437 4.476562 10 10 10 5.523437 0 10-4.476563 10-10v-37.328125h79.085937l52.398438 107.328125h-233.210938l-.175781-107.328125zm-84.070313 149.125c1.550782-1.8125 2.40625-4.125 2.402344-6.515625l-.027344-15.28125h249.164063.035156.042969 30.285156v34c0 5.523437 4.476562 10 10 10h40c5.523438 0 10-4.476563 10-10v-34h21.5v23.550781c0 11.277344 9.175781 20.449219 20.449219 20.449219h18.550781v75.855469h-260.722656c-1.847656-2.035156-4.507813-3.28125-7.40625-3.28125h-3.324219c-1.277344-3.679688-2.773437-7.285156-4.492187-10.800782l2.355468-2.355468c3.296875-3.296875 3.878906-8.441406 1.394532-12.390625-8.625-13.722657-20.4375-25.539063-34.160157-34.160157-3.953125-2.484374-9.09375-1.90625-12.390625 1.394532l-2.355468 2.355468c-3.515626-1.71875-7.125-3.21875-10.800782-4.492187v-3.324219c0-4.667968-3.226562-8.710937-7.777344-9.75-15.769531-3.601562-32.539062-3.601562-48.308593 0-4.550781 1.035156-7.777344 5.082032-7.777344 9.75v3.324219c-3.675781 1.273437-7.285156 2.773437-10.800781 4.492187l-2.351563-2.355468c-3.300781-3.300782-8.441406-3.878906-12.394531-1.394532-1.589844.996094-3.152344 2.042969-4.6875 3.128907v-10.628907zm273.722656 130.113281c-2.328124 3.707031-1.960937 8.464844.820313 11.765625-.226563.519532-.445313 1.046875-.65625 1.574219-1.507813.128906-2.929687.597656-4.1875 1.332031h-124.472656c1-5.957031 1.507812-12.011718 1.507812-18.078125 0-2.886719-.121093-5.773437-.347656-8.648437h136.976563c-3.652344 3.644531-6.902344 7.699218-9.640626 12.054687zm-181.824218 66.796875-1.707032-1.710937c-3.230468-3.226563-8.230468-3.859375-12.160156-1.535157-6.300781 3.722657-13.039062 6.519532-20.023437 8.320313-4.417969 1.136719-7.507813 5.121094-7.507813 9.683594v2.40625c-7.886718 1.066406-15.972656 1.066406-23.859375 0v-2.40625c0-4.5625-3.089843-8.546875-7.507812-9.683594-6.984375-1.796875-13.71875-4.597656-20.023438-8.320313-3.929687-2.324218-8.929687-1.691406-12.15625 1.535157l-1.710937 1.710937c-6.339844-4.832031-12.039063-10.535156-16.871094-16.871094l1.707031-1.710937c3.226563-3.226563 3.859375-8.230469 1.539063-12.15625-3.722656-6.304687-6.523438-13.042969-8.320313-20.023437-1.136719-4.417969-5.121093-7.507813-9.683593-7.507813h-2.40625c-.535157-3.945313-.804688-7.9375-.804688-11.933594 0-3.996093.269531-7.984375.800781-11.929687h2.40625c4.5625 0 8.546875-3.089844 9.683594-7.507813 1.796875-6.980469 4.597656-13.71875 8.324219-20.023437 2.320312-3.929688 1.6875-8.929688-1.539063-12.15625l-1.710937-1.710938c4.832031-6.339844 10.535156-12.039062 16.875-16.871094l1.707031 1.707032c3.226563 3.226562 8.230469 3.859375 12.160156 1.539062 6.300781-3.722656 13.039063-6.523437 20.019531-8.320312 4.417969-1.136719 7.507813-5.121094 7.507813-9.6875v-2.402344c7.890625-1.066406 15.976563-1.066406 23.863281 0v2.402344c0 4.566406 3.085938 8.550781 7.507813 9.6875 6.984375 1.796875 13.71875 4.597656 20.023437 8.320312 3.929688 2.320313 8.929688 1.6875 12.15625-1.539062l1.710938-1.707032c6.335937 4.832032 12.039062 10.53125 16.871094 16.871094l-1.710938 1.710938c-3.226562 3.226562-3.859375 8.226562-1.535156 12.15625 3.722656 6.304687 6.519531 13.039062 8.320312 20.023437 1.136719 4.417969 5.121094 7.507813 9.683594 7.507813h2.40625c.53125 3.941406.800781 7.933594.800781 11.929687 0 3.996094-.269531 7.984375-.800781 11.929688h-2.40625c-4.5625 0-8.546875 3.089843-9.683594 7.507812-1.796875 6.984375-4.597656 13.71875-8.320312 20.023438-2.324219 3.929687-1.691406 8.929687 1.535156 12.160156l1.710938 1.707031c-4.832032 6.339844-10.53125 12.042969-16.871094 16.875zm288.074218-27.140625c-3.574218.828125-6.484374 3.582031-7.429687 7.253907-.976563 3.785156-2.492187 7.4375-4.515625 10.863281-1.929688 3.265625-1.816406 7.277343.128906 10.386719-1.449218 1.660156-3.011718 3.222656-4.671875 4.671874-3.113281-1.945312-7.121093-2.058593-10.386719-.128906-3.421874 2.023438-7.078124 3.542969-10.863281 4.515625-3.671875.945313-6.425781 3.855469-7.253906 7.429688-2.195313.152343-4.410156.152343-6.609375 0-.824219-3.574219-3.578125-6.484375-7.25-7.429688-3.785156-.976562-7.441406-2.492187-10.863281-4.515625-3.265625-1.929687-7.273438-1.816406-10.390625.128906-1.65625-1.449218-3.21875-3.011718-4.667969-4.671874 1.945313-3.109376 2.058594-7.121094.128906-10.386719-2.023437-3.421875-3.542969-7.078125-4.515625-10.863281-.945312-3.671876-3.855468-6.425782-7.429687-7.253907-.074219-1.097656-.113281-2.199219-.113281-3.304687 0-1.101563.039062-2.203125.113281-3.304688 3.574219-.824218 6.484375-3.578125 7.429687-7.25.972656-3.785156 2.492188-7.441406 4.515625-10.863281 1.929688-3.265625 1.816407-7.277344-.132812-10.390625 1.453125-1.65625 3.015625-3.21875 4.671875-4.667969 3.113281 1.945313 7.125 2.058594 10.390625.128907 3.421875-2.023438 7.078125-3.542969 10.863281-4.515626 3.671875-.945312 6.425781-3.855468 7.25-7.429687 1.097656-.078125 2.195312-.113281 3.296875-.113281h.015625c1.101562 0 2.203125.035156 3.296875.113281.828125 3.574219 3.582031 6.484375 7.25 7.429687 3.789063.972657 7.441406 2.492188 10.863281 4.515626 3.265625 1.929687 7.277344 1.820312 10.390625-.128907 1.660157 1.449219 3.222657 3.011719 4.671875 4.667969-1.949218 3.113281-2.0625 7.125-.132812 10.390625 2.023437 3.421875 3.542968 7.078125 4.519531 10.863281.941406 3.671875 3.855469 6.425782 7.429687 7.25.074219 1.101563.109376 2.203125.109376 3.304688 0 1.105468-.035157 2.207031-.109376 3.304687zm42.429688-26.289062c0 .71875-.585938 1.304687-1.304688 1.304687h-27.445312c-1.257812-.734375-2.679688-1.203125-4.1875-1.332031-.210938-.527344-.429688-1.054687-.65625-1.574219 2.785156-3.300781 3.152344-8.058594.820312-11.765625-2.738281-4.355469-5.984374-8.410156-9.636718-12.054687h41.105468c.71875 0 1.304688.585937 1.304688 1.304687zm0 0"/><path d="m108.167969 236.164062c-33.175781 0-60.167969 26.992188-60.167969 60.167969s26.992188 60.167969 60.167969 60.167969 60.167969-26.992188 60.167969-60.167969c-.003907-33.175781-26.992188-60.167969-60.167969-60.167969zm0 100.335938c-22.148438 0-40.167969-18.019531-40.167969-40.167969 0-22.148437 18.019531-40.167969 40.167969-40.167969 22.148437 0 40.167969 18.019532 40.167969 40.167969 0 22.148438-18.023438 40.167969-40.167969 40.167969zm0 0"/><path d="m401.269531 326.089844c-2.628906 0-5.207031 1.070312-7.070312 2.929687-1.859375 1.859375-2.929688 4.441407-2.929688 7.070313s1.070313 5.210937 2.929688 7.070312c1.871093 1.859375 4.441406 2.929688 7.070312 2.929688 2.640625 0 5.210938-1.070313 7.070313-2.929688 1.871094-1.859375 2.929687-4.441406 2.929687-7.070312s-1.058593-5.210938-2.929687-7.070313c-1.859375-1.859375-4.429688-2.929687-7.070313-2.929687zm0 0"/><path d="m108.171875 286.328125c-2.640625 0-5.210937 1.070313-7.070313 2.929687-1.871093 1.859376-2.929687 4.441407-2.929687 7.070313 0 2.640625 1.058594 5.210937 2.929687 7.070313 1.859376 1.871093 4.429688 2.929687 7.070313 2.929687 2.628906 0 5.207031-1.058594 7.066406-2.929687 1.863281-1.859376 2.933594-4.429688 2.933594-7.070313 0-2.628906-1.070313-5.210937-2.933594-7.070313-1.859375-1.859374-4.4375-2.929687-7.066406-2.929687zm0 0"/><path d="m108.171875 262.167969c-2.640625 0-5.210937 1.0625-7.070313 2.929687-1.871093 1.863282-2.929687 4.441406-2.929687 7.070313 0 2.632812 1.058594 5.210937 2.929687 7.070312 1.859376 1.859375 4.429688 2.929688 7.070313 2.929688 2.628906 0 5.207031-1.070313 7.066406-2.929688 1.863281-1.859375 2.933594-4.4375 2.933594-7.070312 0-2.628907-1.070313-5.207031-2.933594-7.070313-1.859375-1.867187-4.4375-2.929687-7.066406-2.929687zm0 0"/><path d="m108.171875 310.5c-2.640625 0-5.210937 1.070312-7.070313 2.929688-1.871093 1.859374-2.929687 4.4375-2.929687 7.070312 0 2.628906 1.058594 5.210938 2.929687 7.070312 1.859376 1.859376 4.429688 2.929688 7.070313 2.929688 2.628906 0 5.207031-1.070312 7.066406-2.929688 1.863281-1.859374 2.933594-4.441406 2.933594-7.070312 0-2.632812-1.070313-5.210938-2.933594-7.070312-1.859375-1.859376-4.4375-2.929688-7.066406-2.929688zm0 0"/><path d="m125.261719 289.257812c-1.863281 1.859376-2.929688 4.441407-2.929688 7.070313 0 2.640625 1.066407 5.210937 2.929688 7.070313 1.859375 1.871093 4.4375 2.929687 7.070312 2.929687 2.636719 0 5.207031-1.058594 7.066407-2.929687 1.871093-1.859376 2.933593-4.429688 2.933593-7.070313 0-2.628906-1.0625-5.210937-2.933593-7.070313-1.859376-1.859374-4.429688-2.929687-7.066407-2.929687-2.632812 0-5.210937 1.070313-7.070312 2.929687zm0 0"/><path d="m84 286.328125c-2.628906 0-5.210938 1.070313-7.070312 2.929687-1.859376 1.859376-2.929688 4.441407-2.929688 7.070313 0 2.640625 1.070312 5.210937 2.929688 7.070313 1.859374 1.871093 4.441406 2.929687 7.070312 2.929687s5.210938-1.058594 7.070312-2.929687c1.859376-1.859376 2.929688-4.429688 2.929688-7.070313 0-2.628906-1.070312-5.210937-2.929688-7.070313-1.859374-1.859374-4.441406-2.929687-7.070312-2.929687zm0 0"/><path d="m163.671875 107.828125c2.628906 0 5.207031-1.070313 7.070313-2.929687 1.859374-1.859376 2.929687-4.441407 2.929687-7.070313s-1.070313-5.210937-2.929687-7.070313c-1.863282-1.859374-4.441407-2.929687-7.070313-2.929687-2.640625 0-5.210937 1.070313-7.070313 2.929687-1.871093 1.859376-2.929687 4.441407-2.929687 7.070313s1.058594 5.210937 2.929687 7.070313c1.859376 1.859374 4.429688 2.929687 7.070313 2.929687zm0 0"/></svg>