<svg id="icons" enable-background="new 0 0 64 64" height="512" viewBox="0 0 64 64" width="512" xmlns="http://www.w3.org/2000/svg"><path d="m54.999 47.001c-.472 0-.936.047-1.391.127l-13.428-13.431 20.701-20.701c.021-.019.048-.025.067-.045 2.729-2.73 2.728-7.171-.001-9.899-1.321-1.322-3.08-2.051-4.949-2.051-1.87 0-3.629.729-4.95 2.051l-20.757 20.757-9.772-9.772c1.094-3.449.283-7.377-2.447-10.107h-.002c0-.001 0-.001 0-.001-2.702-2.701-6.634-3.623-10.263-2.407-.01.002-.018.011-.028.015-.058.022-.108.061-.162.094-.06.036-.124.067-.174.115-.008.007-.018.01-.025.017-.035.035-.051.081-.08.12-.043.057-.088.112-.117.178-.029.061-.039.126-.053.191-.014.06-.032.115-.035.177-.003.078.013.151.028.228.009.043.002.087.017.13.003.009.011.015.014.023.025.07.071.131.113.195.031.048.055.101.094.142.008.009.011.021.02.029l5.703 5.704c.391.39.391 1.024.001 1.414l-2.827 2.827c-.378.378-1.035.38-1.415 0l-5.702-5.7c-.009-.009-.021-.011-.03-.02-.041-.039-.094-.062-.142-.094-.064-.041-.124-.087-.194-.113-.009-.003-.015-.01-.024-.013-.041-.014-.081-.007-.122-.015-.081-.017-.159-.033-.241-.029-.054.003-.104.02-.155.03-.073.015-.144.027-.212.059-.063.028-.114.072-.17.113-.041.029-.088.046-.124.082-.007.007-.01.018-.017.024-.051.054-.085.121-.123.187-.029.049-.065.094-.085.146-.005.012-.015.02-.019.032-1.219 3.625-.297 7.554 2.404 10.257.002.001.002.003.003.004 1.95 1.949 4.511 2.924 7.072 2.924 1.025 0 2.049-.164 3.035-.477l10.451 10.452c.01.011.018.023.027.033.001.001.002.001.003.002l2.116 2.117-18.821 18.826-4.335 1.629c-.022.009-.036.026-.058.036-.063.028-.117.066-.173.107-.05.037-.1.071-.142.116-.043.046-.074.099-.107.151-.037.059-.071.114-.096.178-.008.021-.024.037-.031.06l-1.826 6.075c-.014.046-.006.091-.013.136-.011.07-.022.137-.019.207.003.063.02.122.035.183.016.063.029.126.058.186.029.062.07.113.111.168.028.038.044.082.078.117l1.414 1.412c.016.016.036.021.053.035.064.057.135.102.211.14.033.017.063.037.098.05.111.04.226.066.346.066.095 0 .192-.014.288-.042l6.071-1.827c.002 0 .003-.002.005-.002.113-.035.215-.095.31-.166.031-.023.056-.051.083-.077.057-.055.106-.115.15-.184.022-.037.044-.071.063-.111.011-.022.028-.041.037-.065l1.631-4.336 18.823-18.824 2.119 2.119c.001.001.001.002.002.003.009.009.02.015.028.022l14.1 14.102c-.079.455-.126.918-.126 1.389 0 2.138.832 4.146 2.343 5.657s3.52 2.342 5.657 2.343c2.137-.001 4.146-.832 5.656-2.343 1.512-1.511 2.344-3.52 2.344-5.657-.001-2.137-.833-4.146-2.344-5.656s-3.519-2.344-5.656-2.344zm-19.175-10.342c.391.391.391 1.025.002 1.414-.388.386-1.016.387-1.403.007l-8.503-8.504c-.182-.187-.284-.431-.284-.693 0-.267.104-.518.292-.705.389-.391 1.024-.39 1.413-.001.001.001.002.001.003.002l8.471 8.47c.002.001.004.002.005.003.001.002.002.005.004.007zm23.709-32.193c1.937 1.937 1.944 5.078.034 7.031-.014.012-.032.017-.045.029l-21.457 21.457c-.003.003-.006.003-.009.006s-.003.006-.006.009l-1.529 1.529-7.061-7.06 23.002-23.001c.944-.944 2.2-1.465 3.536-1.465 1.335 0 2.591.52 3.535 1.465zm-54.188 12.192c-.001-.001-.001-.002-.002-.003-1.749-1.748-2.547-4.139-2.28-6.522l4.404 4.404s.001 0 .001.001c.585.583 1.353.876 2.119.876.769 0 1.537-.293 2.122-.878l2.827-2.827c1.169-1.169 1.169-3.071.001-4.242-.002-.002-.004-.002-.006-.004l-4.399-4.4c2.387-.266 4.777.531 6.524 2.279h.001v.001c3.118 3.119 3.118 8.194 0 11.313-3.118 3.118-8.193 3.119-11.312.002zm12.726 1.412c.633-.633 1.151-1.334 1.579-2.074l9.227 9.227-.962.963c-1.112-.526-2.48-.342-3.401.577-.244.244-.431.528-.576.831l-7.942-7.943c.74-.428 1.442-.948 2.075-1.581zm-9.346 41.287-5.026 1.513-.568-.567 1.512-5.027 3.471-1.304 1.917 1.915zm2.468-5.136-1.415-1.412 18.269-18.271 1.415 1.414zm25.212-14.158c.3-.143.585-.326.834-.574.924-.924 1.105-2.303.569-3.42l.957-.957 12.71 12.712c-.778.384-1.501.889-2.134 1.521s-1.138 1.355-1.521 2.135zm22.836 19.18c-1.133 1.133-2.639 1.757-4.242 1.757-1.604 0-3.11-.624-4.243-1.757s-1.757-2.64-1.757-4.243.624-3.109 1.757-4.242c1.134-1.133 2.641-1.757 4.243-1.757s3.109.624 4.242 1.757 1.758 2.64 1.758 4.242c0 1.604-.624 3.11-1.758 4.243z"/><path d="m59.775 53.602c-.231-.797-.639-1.534-1.241-2.136-.603-.604-1.341-1.011-2.138-1.242-.037-.016-.066-.042-.105-.053-.029-.008-.057 0-.086-.006-.392-.097-.793-.163-1.207-.163-1.336 0-2.592.52-3.535 1.463-1.278 1.278-1.701 3.079-1.303 4.72.006.036-.003.071.007.107.016.058.047.104.071.156.23.763.624 1.486 1.226 2.088.601.601 1.336 1.007 2.13 1.239.037.016.067.043.107.054.041.011.082.011.124.017.382.092.772.153 1.175.153 1.334 0 2.586-.519 3.528-1.458.002-.002.004-.002.006-.004.001-.002.002-.004.003-.005.942-.943 1.461-2.197 1.461-3.532 0-.416-.067-.818-.166-1.212-.005-.028.003-.055-.005-.083-.011-.039-.037-.066-.052-.103zm-7.268 3.066c.433-.2.683-.672.556-1.148-.125-.474-.572-.757-1.043-.72.025-.385.125-.762.297-1.115.172.119.363.197.563.197.256 0 .512-.098.707-.293.349-.349.368-.881.095-1.271.347-.17.722-.27 1.114-.296-.04.474.243.924.718 1.051.087.023.174.034.26.034.389 0 .736-.236.898-.595.159.106.31.229.448.368s.262.289.369.449c-.438.197-.692.673-.564 1.153.119.446.523.741.965.741.029 0 .059-.009.088-.012-.027.39-.127.763-.296 1.106-.39-.269-.919-.247-1.266.098-.344.344-.367.866-.106 1.256-.35.163-.725.256-1.108.28.022-.46-.256-.892-.719-1.017-.472-.127-.947.12-1.15.553-.162-.105-.314-.227-.454-.366-.143-.141-.265-.293-.372-.453z"/><path d="m35.535 28.489c.195.195.451.293.707.293s.512-.098.707-.293l17.646-17.647c.391-.391.391-1.023 0-1.414s-1.023-.391-1.414 0l-17.646 17.647c-.39.391-.39 1.024 0 1.414z"/></svg>