<svg height="512" viewBox="0 0 56 60" width="512" xmlns="http://www.w3.org/2000/svg"><g id="Page-1" fill="none" fill-rule="evenodd"><g id="019---Pipe" fill="rgb(0,0,0)" fill-rule="nonzero" transform="translate(0 -1)"><path id="Shape" d="m16 1h-14c-1.1045695 0-2 .8954305-2 2v14c0 1.1045695.8954305 2 2 2h14c.4024695-.0434511.7932791.1519538 1 .5v6.684c-1.1981296.4174114-2.0009455 1.5472421-2.0009455 2.816s.8028159 2.3985886 2.0009455 2.816v8.684c.1514016 10.3496029 8.6500396 18.6245926 19 18.5h14.184c.4848523 1.3765475 1.8918441 2.2026937 3.330178 1.9553873s2.4885874-1.49595 2.485822-2.9553873v-16c.0027654-1.4594373-1.0474881-2.7080809-2.485822-2.9553873s-2.8453257.5788398-3.330178 1.9553873h-14.184c-.4024695.0434511-.7932791-.1519538-1-.5v-8.684c1.1981296-.4174114 2.0009455-1.5472421 2.0009455-2.816s-.8028159-2.3985886-2.0009455-2.816v-6.684c-.1514016-10.34960293-8.6500396-18.6245926-19-18.5zm0 16h-14v-14h14c9.2456768-.12525064 16.849266 7.2547035 17 16.5v6.5h-14v-6.5c-.169358-1.5021453-1.4919401-2.604297-3-2.5zm37 24c.5522847 0 1 .4477153 1 1v16c0 .5522847-.4477153 1-1 1s-1-.4477153-1-1v-16c0-.5522847.4477153-1 1-1zm-17 2h14v14h-14c-9.2456768.1252506-16.849266-7.2547035-17-16.5v-8.5h14v8.5c.169358 1.5021453 1.4919401 2.604297 3 2.5zm-2-13h-16c-.5522847 0-1-.4477153-1-1s.4477153-1 1-1h16c.5522847 0 1 .4477153 1 1s-.4477153 1-1 1z"/></g></g></svg>